<svg width="213" height="34" viewBox="0 0 213 34" fill="none" xmlns="http://www.w3.org/2000/svg">
<path d="M25.8373 2.41712L17.0148 17.5858L8.31587 2.44178C7.71041 1.40588 6.25235 0.554952 5.05377 0.554952H0V33.408H6.77132V12.6036L14.5188 25.5771H19.8321L27.32 12.6036V33.3957H34.0914V0.554952H29.0994C27.9132 0.554952 26.4304 1.39354 25.8373 2.41712ZM97.2574 19.263C99.7781 17.1418 100.927 14.3424 100.927 11.1977C100.927 7.63366 99.531 4.53826 97.1091 2.76242C94.885 1.12223 91.9812 0.542617 88.8056 0.542617H73.9161V33.3957H80.8851V22.0254H87.1251L94.02 33.3957H102.348L94.3289 21.0511C95.3298 20.6195 96.306 20.0892 97.2574 19.263ZM91.8947 15.3166C90.8815 15.9826 89.4482 16.1306 87.6441 16.1306H80.8728V6.4251H88.2249C89.6706 6.4251 90.968 6.65941 92.043 7.35002C93.1551 8.11462 93.8717 9.37251 93.8717 11.2963C93.8717 13.2325 93.0562 14.5767 91.8947 15.3166ZM62.7336 3.04606C60.6083 1.25789 57.7045 0.0986555 53.9852 0.0986555C50.3154 0.0986555 47.4116 1.25789 45.2863 3.04606C41.9871 5.74682 40.4549 9.85346 40.4549 13.8121L40.4426 33.3957H47.4116V23.3696H60.6083V33.3957H67.5649V13.8244C67.5649 9.85346 66.0574 5.74682 62.7336 3.04606ZM60.6083 17.1912H47.4116V14.0958C47.4116 11.4813 48.1777 9.60682 49.4381 8.31193C50.649 7.10337 52.2306 6.58542 53.9852 6.58542C55.7769 6.58542 57.4203 7.1527 58.6312 8.31193C59.8298 9.60682 60.6206 11.4937 60.6206 14.0958V17.1912H60.6083ZM161.375 0C152.021 0 146.621 6.28945 141.395 12.3816L141.345 12.4309C140.814 13.0598 140.27 13.6888 139.726 14.3177C138.923 15.2303 138.157 16.1429 137.292 17.1665C132.918 22.3707 128.791 27.3036 122.736 27.3036C116.62 27.3036 112.505 23.197 112.505 17.0925C112.505 11.0374 116.706 6.79506 122.736 6.79506C125.344 6.79506 127.185 7.79398 129.878 9.74247C130.694 10.3344 131.448 10.7291 132.56 10.7291C133.313 10.7291 134.104 10.5564 134.994 10.2111C136.279 9.71781 137.329 8.27494 137.848 7.44868L137.861 7.42401L137.836 7.39935C133.005 2.41712 127.988 0.0123302 122.514 0.0123302C112.654 0.0123302 105.499 7.1527 105.499 17.0062C105.499 26.8473 112.654 34 122.514 34C129.347 34 134.5 31.0279 140.9 23.4066L141.58 22.6173L142.247 23.4066C148.45 30.7566 154.171 33.889 161.363 33.889C171.26 33.889 178.167 26.9459 178.167 17.0185C178.18 7.14036 171.112 0 161.375 0ZM161.041 27.2913C155.716 27.2913 151.428 23.4436 146.621 17.6598L146.152 17.0802L146.621 16.5129C151.428 10.7291 155.703 6.88139 161.041 6.88139C167.096 6.88139 171.161 10.988 171.161 17.0802C171.161 23.197 167.096 27.2913 161.041 27.2913ZM206.34 0.554952V21.8774C206.34 21.8774 196.133 8.63257 193.18 4.80957L191.253 2.30613C190.499 1.34421 188.905 0.554952 187.682 0.554952H183.616V33.408H190.289V12.1349L206.661 33.3957H213V0.554952H206.34Z" fill="black"/>
</svg>
