<svg width="189" height="31" viewBox="0 0 189 31" fill="none" xmlns="http://www.w3.org/2000/svg">
<path d="M13.0607 4.11805C13.0607 2.35481 12.3087 2.03581 10.3242 2.03581C5.95929 2.03581 3.00226 4.57046 1.01772 6.51929C0.706747 6.8383 0.310969 7.28491 0.226159 7.28491C0.0904636 7.28491 0 7.1515 0 7.0123C0 6.8325 0.175273 6.42069 0.310969 5.97408L1.72446 0.904785H29.5194L30.9329 5.97408C31.0686 6.42649 31.2439 6.8325 31.2439 7.0123C31.2439 7.1457 31.1534 7.28491 31.0234 7.28491C30.9329 7.28491 30.5371 6.8325 30.2262 6.51929C28.2416 4.57046 25.2846 2.03581 20.9197 2.03581C18.9352 2.03581 18.1832 2.34901 18.1832 4.11805V24.981C18.1832 27.1967 18.7542 28.9657 20.8293 29.3717C21.225 29.4181 21.4908 29.5979 21.4908 29.7313C21.4908 29.8241 21.3155 30.0039 21.1402 30.0039C20.8293 30.0039 18.138 29.8705 15.6219 29.8705C13.1059 29.8705 10.5051 30.0039 10.1941 30.0039C9.92838 30.0039 9.79834 29.9111 9.79834 29.7777C9.79834 29.5979 10.1941 29.5979 10.6351 29.4181C12.6649 28.5133 13.0607 27.2025 13.0607 22.9916V4.11805Z" fill="#00506A"/>
<path d="M38.1647 16.6579L35.7844 21.4082C34.9928 22.9916 34.2409 24.7143 34.2409 26.5703C34.2409 28.5134 35.4338 29.0122 36.6212 29.4646C36.9717 29.5574 37.1074 29.6444 37.1074 29.7778C37.1074 29.9576 36.8869 30.004 36.5759 30.004C36.265 30.004 34.6819 29.8706 32.2507 29.8706C30.4866 29.8706 29.3389 30.004 28.8074 30.004C28.3664 30.004 28.2363 29.9112 28.2363 29.7778C28.2363 29.4646 28.7678 29.279 29.0731 29.0528C30.8372 27.6027 33.2175 23.8501 34.19 21.9012L45.006 0.359607C45.1361 0.133403 45.2265 0 45.317 0H45.4018C45.5318 0 45.6675 0.179803 45.7523 0.359607L58.7226 25.2537C59.4745 26.6573 60.3566 27.9681 61.6796 29.0122C62.1658 29.3718 62.6973 29.5574 62.6973 29.7836C62.6973 29.917 62.4768 30.0098 62.081 30.0098C61.7701 30.0098 59.7007 29.8764 57.1395 29.8764C53.5209 29.8764 52.0622 30.0098 51.8021 30.0098C51.5816 30.0098 51.3611 29.9634 51.3611 29.8764C51.3611 29.6966 51.5816 29.6038 51.9321 29.5168C52.9499 29.1572 53.1704 28.2929 53.1704 27.1619C53.1704 26.3441 52.2431 24.1285 51.1858 21.9998L48.6698 16.6579H38.1647ZM43.372 6.10752L38.7414 15.5211H48.0931L43.372 6.10752Z" fill="#00506A"/>
<path d="M70.9964 4.88915C70.9512 2.71991 70.3801 1.62949 69.2776 1.36268C69.1023 1.31628 68.7913 1.22928 68.7913 1.09008C68.7913 0.956673 68.9214 0.730469 69.3172 0.730469C69.5829 0.730469 72.1385 0.910272 73.552 0.910272C74.9655 0.910272 77.0801 0.730469 77.3458 0.730469C77.5663 0.730469 77.9621 0.77687 77.9621 1.09008C77.9621 1.26988 77.5211 1.40908 77.2553 1.58889C76.7239 1.94849 76.1076 2.5865 76.1076 4.07713V24.9865C76.1076 27.2022 76.6786 28.6986 78.2674 29.4236C78.7084 29.6498 78.8837 29.6962 78.8837 29.7832C78.8837 29.8296 78.7989 29.876 78.3975 29.876H68.5595C68.339 29.876 68.209 29.876 68.209 29.7832C68.209 29.6904 68.52 29.6034 68.9157 29.4236C70.595 28.5188 70.9907 27.208 70.9907 24.9865V4.88915H70.9964Z" fill="#00506A"/>
<path d="M93.7597 23.8497C93.7597 28.3738 95.4333 28.7392 99.1876 28.7392H101.528C105.232 28.7392 110.439 26.7034 113.13 23.4901C113.617 22.8985 113.837 22.4055 114.058 22.4055C114.188 22.4055 114.323 22.4983 114.323 22.7245C114.323 22.9043 114.193 23.1305 114.148 23.3567L112.339 29.876H86.3926C85.6463 29.876 85.4258 29.7832 85.4258 29.6498C85.4258 29.557 85.7311 29.5164 86.4831 29.2438C88.2019 28.4724 88.6429 26.802 88.6429 22.7709V4.88915C88.6429 3.03311 87.9361 1.67589 86.7488 1.26988C86.4378 1.13648 86.3078 1.04367 86.3078 0.910272C86.3078 0.77687 86.5735 0.730469 86.9693 0.730469C87.6761 0.730469 89.7907 0.910272 91.2041 0.910272C92.6176 0.910272 94.7322 0.730469 95.439 0.730469C95.8348 0.730469 95.9705 0.77687 95.9705 0.956673C95.9705 1.09008 95.7499 1.13648 95.5747 1.22928C94.2516 1.81509 93.7654 3.03891 93.7654 4.89495V23.8497H93.7597Z" fill="#00506A"/>
<path d="M134.841 30.7754C126.191 30.7754 118.162 24.7085 118.162 15.3877C118.162 6.06112 126.191 0 134.841 0C143.486 0 151.521 6.06692 151.521 15.3877C151.521 24.7143 143.486 30.7754 134.841 30.7754ZM134.841 1.13102C126.813 1.13102 124.076 8.64217 124.076 15.3877C124.076 22.1332 126.813 29.6444 134.841 29.6444C142.87 29.6444 145.607 22.1332 145.607 15.3877C145.607 8.64217 142.87 1.13102 134.841 1.13102Z" fill="#00506A"/>
<path d="M164.096 24.981C164.096 27.1967 164.667 28.6931 166.256 29.4181C166.697 29.6443 166.872 29.6907 166.872 29.7777C166.872 29.8241 166.787 29.8705 166.386 29.8705H156.548C156.327 29.8705 156.197 29.8705 156.197 29.7777C156.197 29.6907 156.508 29.5979 156.904 29.4181C158.583 28.5133 158.979 27.2025 158.979 24.981V5.97408C158.979 4.61686 158.934 2.30841 157.215 1.6762C156.729 1.4964 156.288 1.45 156.288 1.17739C156.288 0.997587 156.463 0.904785 157.125 0.904785H173.623C181.827 0.904785 185.225 3.52644 185.225 7.55751C185.225 13.8042 177.988 14.6162 173.357 14.6162V14.7091C177.812 15.2543 182.047 16.8377 183.591 21.588C184.603 24.6678 186.237 28.6931 187.605 29.1919C188.001 29.4645 188.357 29.5979 188.357 29.7777C188.357 29.8241 188.137 29.8705 186.678 29.8705H180.854L178.734 23.9428C176.795 18.5139 176.043 15.3877 170.524 15.2543L164.085 15.0745V24.981H164.096ZM164.096 13.9376H172.079C176.891 13.9376 179.316 10.8578 179.316 7.83012C179.316 4.47765 177.066 2.03581 172.39 2.03581H164.096V13.9376Z" fill="#00506A"/>
</svg>
