<svg width="146" height="37" viewBox="0 0 146 37" fill="none" xmlns="http://www.w3.org/2000/svg">
<path d="M10.0887 3.19862C10.0887 1.833 9.50788 1.58594 7.9749 1.58594C4.60326 1.58594 2.3191 3.54901 0.786136 5.05837C0.545926 5.30544 0.240207 5.65134 0.174697 5.65134C0.0698787 5.65134 0 5.54801 0 5.44021C0 5.30095 0.13539 4.98201 0.240207 4.63611L1.33206 0.709961H22.8022L23.8941 4.63611C23.9989 4.98651 24.1343 5.30095 24.1343 5.44021C24.1343 5.54353 24.0644 5.65134 23.964 5.65134C23.8941 5.65134 23.5884 5.30095 23.3482 5.05837C21.8152 3.54901 19.531 1.58594 16.1594 1.58594C14.6265 1.58594 14.0455 1.82851 14.0455 3.19862V19.3569C14.0455 21.0729 14.4867 22.443 16.0896 22.7575C16.3953 22.7934 16.6005 22.9327 16.6005 23.036C16.6005 23.1079 16.4652 23.2471 16.3298 23.2471C16.0896 23.2471 14.0107 23.1438 12.0672 23.1438C10.1237 23.1438 8.11462 23.2471 7.87442 23.2471C7.66916 23.2471 7.56874 23.1752 7.56874 23.072C7.56874 22.9327 7.87442 22.9327 8.2151 22.7934C9.78301 22.0926 10.0887 21.0775 10.0887 17.8161V3.19862Z" fill="white"/>
<path d="M29.5227 12.9041L27.6779 16.5839C27.0644 17.8105 26.4817 19.1449 26.4817 20.5827C26.4817 22.0879 27.4063 22.4743 28.3265 22.8247C28.5982 22.8966 28.7033 22.964 28.7033 23.0673C28.7033 23.2066 28.5324 23.2425 28.2914 23.2425C28.0504 23.2425 26.8235 23.1392 24.9393 23.1392C23.5722 23.1392 22.6826 23.2425 22.2708 23.2425C21.9289 23.2425 21.8281 23.1706 21.8281 23.0673C21.8281 22.8247 22.2401 22.6809 22.4767 22.5057C23.8438 21.3824 25.6886 18.4754 26.4422 16.9658L34.8248 0.278569C34.9255 0.10334 34.9956 0 35.0658 0H35.1315C35.2322 0 35.3375 0.139285 35.4032 0.278569L45.4551 19.5628C46.038 20.6501 46.7215 21.6655 47.7469 22.4743C48.1238 22.7528 48.5356 22.8966 48.5356 23.0718C48.5356 23.1752 48.3648 23.247 48.058 23.247C47.817 23.247 46.2132 23.1437 44.2283 23.1437C41.4239 23.1437 40.2933 23.247 40.0918 23.247C39.9209 23.247 39.7499 23.2111 39.7499 23.1437C39.7499 23.0045 39.9209 22.9326 40.1926 22.8652C40.9813 22.5865 41.1522 21.9172 41.1522 21.041C41.1522 20.4075 40.4336 18.6911 39.6142 17.0421L37.6642 12.9041H29.5227ZM33.5584 4.73119L29.9697 12.0234H37.2172L33.5584 4.73119Z" fill="white"/>
<path d="M54.8831 3.76063C54.8477 2.07664 54.4014 1.23014 53.54 1.02302C53.4031 0.986993 53.1602 0.919454 53.1602 0.811395C53.1602 0.707829 53.2618 0.532227 53.571 0.532227C53.7786 0.532227 55.7753 0.671807 56.8798 0.671807C57.9841 0.671807 59.6364 0.532227 59.844 0.532227C60.0163 0.532227 60.3255 0.568249 60.3255 0.811395C60.3255 0.950971 59.981 1.05904 59.7734 1.19862C59.3581 1.47778 58.8765 1.97308 58.8765 3.13027V19.3624C58.8765 21.0824 59.3227 22.2441 60.564 22.8069C60.9086 22.9825 61.0456 23.0185 61.0456 23.086C61.0456 23.1221 60.9794 23.1581 60.6657 23.1581H52.979C52.8067 23.1581 52.7051 23.1581 52.7051 23.086C52.7051 23.0141 52.9481 22.9465 53.2574 22.8069C54.5694 22.1045 54.8786 21.0868 54.8786 19.3624V3.76063H54.8831Z" fill="white"/>
<path d="M72.5522 18.4798C72.5522 21.9919 73.847 22.2756 76.7515 22.2756H78.5632C81.4285 22.2756 85.4577 20.6952 87.5405 18.2007C87.9165 17.7414 88.0873 17.3586 88.2581 17.3586C88.3584 17.3586 88.4632 17.4307 88.4632 17.6063C88.4632 17.7459 88.3629 17.9215 88.328 18.0971L86.9277 23.1581H66.8516C66.2737 23.1581 66.1035 23.086 66.1035 22.9825C66.1035 22.9104 66.3397 22.8789 66.9214 22.6674C68.2512 22.0685 68.5928 20.7717 68.5928 17.6424V3.76063C68.5928 2.31979 68.046 1.26616 67.1272 0.950971C66.8865 0.847411 66.7855 0.775367 66.7855 0.671807C66.7855 0.568249 66.9913 0.532227 67.298 0.532227C67.8447 0.532227 69.4806 0.671807 70.5747 0.671807C71.6682 0.671807 73.3046 0.532227 73.8514 0.532227C74.1575 0.532227 74.2623 0.568249 74.2623 0.707828C74.2623 0.811395 74.0921 0.847411 73.9562 0.919454C72.9325 1.37423 72.5566 2.32428 72.5566 3.76514V18.4798H72.5522Z" fill="white"/>
<path d="M104.391 23.8681C97.6948 23.8681 91.4805 19.1629 91.4805 11.934C91.4805 4.70074 97.6948 0 104.391 0C111.081 0 117.301 4.70525 117.301 11.934C117.301 19.1674 111.081 23.8681 104.391 23.8681ZM104.391 0.877173C98.1762 0.877173 96.0584 6.70252 96.0584 11.934C96.0584 17.1656 98.1762 22.991 104.391 22.991C110.605 22.991 112.723 17.1656 112.723 11.934C112.723 6.70252 110.605 0.877173 104.391 0.877173Z" fill="white"/>
<path d="M127.04 19.3691C127.04 21.0862 127.48 22.2459 128.708 22.8078C129.049 22.9831 129.184 23.019 129.184 23.0865C129.184 23.1225 129.119 23.1584 128.809 23.1584H121.209C121.038 23.1584 120.938 23.1584 120.938 23.0865C120.938 23.019 121.178 22.9472 121.485 22.8078C122.781 22.1065 123.087 21.0907 123.087 19.3691V4.63867C123.087 3.58682 123.052 1.79778 121.724 1.30781C121.348 1.16846 121.008 1.13251 121.008 0.92123C121.008 0.781883 121.144 0.709961 121.655 0.709961H134.4C140.737 0.709961 143.362 2.74175 143.362 5.86583C143.362 10.707 137.772 11.3363 134.194 11.3363V11.4082C137.636 11.8308 140.907 13.058 142.1 16.7394C142.881 19.1264 144.145 22.2459 145.202 22.6325C145.506 22.8438 145.782 22.9472 145.782 23.0865C145.782 23.1225 145.612 23.1584 144.485 23.1584H139.986L138.348 18.5645C136.849 14.3571 136.269 11.9342 132.006 11.8308L127.031 11.6914V19.3691H127.04ZM127.04 10.8105H133.207C136.924 10.8105 138.798 8.42353 138.798 6.0771C138.798 3.47894 137.06 1.58651 133.447 1.58651H127.04V10.8105Z" fill="white"/>
<path d="M32.8683 31.7059L34.7504 35.6745L36.5054 31.7059H37.7522C37.8475 31.7059 37.8634 31.73 37.8634 31.7541C37.8634 31.7782 37.8158 31.8023 37.7522 31.8184C37.4902 31.8746 37.4187 32.1558 37.4187 32.5334V35.5861C37.4187 36.0601 37.4346 36.7028 37.911 36.7992C37.9746 36.8152 38.0381 36.8474 38.0381 36.8634C38.0381 36.8875 37.9746 36.9036 37.911 36.9036C37.8713 36.9036 37.6569 36.8795 36.974 36.8795C36.3625 36.8795 36.1481 36.9036 36.0687 36.9036C36.021 36.9036 35.9734 36.8875 35.9734 36.8634C35.9734 36.8474 36.021 36.8313 36.1004 36.8072C36.5054 36.6947 36.5293 36.0601 36.5293 35.5861V32.2522H36.5134L34.5281 36.6224C34.5122 36.6706 34.401 36.9438 34.3295 36.9438H34.3136C34.2263 36.9438 34.1469 36.7028 34.1072 36.6144L32.1457 32.2522H32.1298V35.2969C32.1298 35.8593 32.2013 36.5662 32.6539 36.751C32.7572 36.8152 32.8207 36.8474 32.8207 36.8715C32.8207 36.8795 32.781 36.8795 32.7174 36.8795H31.3436C31.2801 36.8795 31.2324 36.8715 31.2324 36.8554C31.2324 36.8313 31.288 36.8152 31.3436 36.7831C31.7804 36.5421 31.9313 35.811 31.9313 35.2969V32.6458C31.9313 32.3486 31.8598 31.8746 31.558 31.8103C31.5183 31.8023 31.5024 31.7621 31.5024 31.738C31.5024 31.722 31.5263 31.7059 31.558 31.7059H32.8683ZM41.4855 35.0318V34.4694H41.017C40.1593 34.4694 39.2778 34.7265 39.2778 35.7869C39.2778 36.3734 39.6987 36.7992 40.2626 36.7992C41.1996 36.7992 41.4855 35.803 41.4855 35.0318ZM42.3035 33.9232V36.1806C42.3035 36.4457 42.3432 36.6867 42.5894 36.7992C42.637 36.8233 42.6688 36.8233 42.6688 36.8474C42.6688 36.8715 42.6211 36.8795 42.5655 36.8795H41.7079C41.5967 36.6224 41.5332 36.3413 41.5173 36.0601H41.5014C41.1917 36.7108 40.7311 37 40.0323 37C39.2064 37 38.3566 36.6144 38.3566 35.6584C38.3566 34.4373 40.199 34.3168 41.0329 34.3168H41.4855V34.0517C41.4855 33.2805 41.1282 32.7342 40.3261 32.7342C39.5955 32.7342 39.1667 32.9511 38.8808 33.6581C38.849 33.7304 38.8331 33.7946 38.8172 33.7946C38.8014 33.7946 38.7934 33.7545 38.7775 33.7063L38.5711 32.9832C39.2223 32.6378 39.7384 32.5816 40.4452 32.5816C41.3505 32.5816 42.3035 32.9109 42.3035 33.9232ZM44.1326 34.7908C44.1326 36.4778 44.9982 36.7992 45.5223 36.7992C46.0385 36.7992 46.9041 36.285 46.9041 34.7908C46.9041 33.1037 46.0385 32.7824 45.5223 32.7824C44.9982 32.7824 44.1326 33.1037 44.1326 34.7908ZM47.6823 31.0552V34.7908C47.6823 35.2326 47.6823 35.6745 47.7141 36.1083C47.7379 36.4216 47.8491 36.7269 48.135 36.8072C48.1667 36.8152 48.1906 36.8313 48.1906 36.8474C48.1906 36.8715 48.1509 36.8795 48.0556 36.8795H47.1185C46.9756 36.5903 46.9279 36.277 46.8882 36.0762H46.8723C46.5626 36.6224 46.0623 37 45.2602 37C44.1485 37 43.2114 36.1404 43.2114 34.7908C43.2114 33.65 44.1008 32.5816 45.2602 32.5816C45.9511 32.5816 46.5308 32.8306 46.8485 33.2644H46.8644V32.0272C46.8644 31.738 46.8644 31.4729 46.5547 31.4087C46.4991 31.3926 46.4514 31.3846 46.4514 31.3605C46.4514 31.3283 46.5388 31.3203 46.5944 31.3123C46.9676 31.2399 47.3011 31.1596 47.6823 31.0552ZM49.477 34.0758H51.8753C51.8753 33.2885 51.502 32.7342 50.6761 32.7342C49.9535 32.7342 49.5644 33.3849 49.477 34.0758ZM52.8759 34.2284H49.4452C49.4293 34.4132 49.4214 34.5819 49.4214 34.7506C49.4214 36.2449 50.1838 36.7992 50.9541 36.7992C51.8673 36.7992 52.5423 36.1645 52.8123 35.2246H52.9791C52.725 36.3332 51.9309 37 50.8508 37C49.5008 37 48.5002 36.0762 48.5002 34.7908C48.5002 33.5054 49.5008 32.5816 50.8508 32.5816C51.7164 32.5816 52.7647 33.1118 52.8759 34.2284ZM58.245 32.9029L58.1735 33.16H57.4668V35.8673C57.4668 36.3734 57.4747 36.6064 57.8797 36.8233C57.9115 36.8233 57.9591 36.8393 57.9591 36.8554C57.9591 36.8715 57.9274 36.8795 57.8479 36.8795H56.2676C56.2041 36.8795 56.1564 36.8715 56.1564 36.8554C56.1564 36.8313 56.2279 36.8233 56.2676 36.8072C56.625 36.6626 56.6488 36.3734 56.6488 35.8673V33.16H55.9579L56.0611 32.9029H56.6488V32.6458C56.6488 31.4328 57.5303 31.0552 58.7533 31.0552L58.5309 31.6416C58.5071 31.7139 58.4912 31.7943 58.4515 31.7943C58.4197 31.7943 58.38 31.7621 58.3562 31.73C58.2132 31.489 58.0465 31.3444 57.8638 31.3444C57.5462 31.3444 57.4668 31.5613 57.4668 31.9549V32.9029H58.245ZM59.6745 34.7908C59.6745 35.7387 59.9207 36.8474 61.1039 36.8474C62.2951 36.8474 62.5413 35.7387 62.5413 34.7908C62.5413 33.8428 62.2951 32.7342 61.1039 32.7342C59.9207 32.7342 59.6745 33.8428 59.6745 34.7908ZM58.7533 34.7908C58.7533 33.5054 59.7539 32.5816 61.1039 32.5816C62.4619 32.5816 63.4625 33.5054 63.4625 34.7908C63.4625 36.0762 62.4619 37 61.1039 37C59.7539 37 58.7533 36.0762 58.7533 34.7908ZM65.2094 32.6699V33.7063H65.2253C65.5353 33.0395 66.0912 32.5494 66.8377 32.5816L66.5041 33.409C66.3688 33.3046 66.1782 33.2805 66.0118 33.2805C65.5588 33.2805 65.257 33.8669 65.257 34.3891V35.8673C65.257 36.3734 65.2971 36.751 65.71 36.8313C65.7653 36.8474 65.7894 36.8634 65.7894 36.8795C65.7894 36.9036 65.7653 36.9036 65.7259 36.9036C65.67 36.9036 65.2812 36.8795 64.8441 36.8795C64.4153 36.8795 64.0423 36.9036 63.9947 36.9036C63.9547 36.9036 63.9229 36.8956 63.9229 36.8795C63.9229 36.8634 63.9547 36.8474 64.0106 36.8393C64.3835 36.7028 64.4394 36.5421 64.4394 35.8673V33.9473C64.4394 33.3929 64.4076 33.1037 64.1294 33.0395C64.05 33.0154 64.0106 32.9913 64.0106 32.9752C64.0182 32.9431 64.1218 32.9511 64.177 32.935C64.5423 32.8708 64.8759 32.7904 65.2094 32.6699ZM71.0535 34.2043V35.7066C71.0535 36.5019 71.1088 36.6787 71.6171 36.6787H72.7288C73.5547 36.6787 74.0871 36.3091 74.0871 35.4254C74.0871 34.4614 73.023 34.2043 72.4112 34.2043H71.0535ZM71.0535 31.9389V34.0035H72.0383C73.1577 34.0035 73.6742 33.5777 73.6742 32.919C73.6742 32.3486 73.2136 31.9389 72.3559 31.9389H71.0535ZM70.1324 35.9637V32.6378C70.1324 32.1959 70.1165 31.971 69.8147 31.8585C69.7429 31.8264 69.6876 31.8184 69.6876 31.7782C69.6876 31.7461 69.7829 31.738 69.8624 31.738H72.5942C73.3483 31.738 74.6748 31.9469 74.6748 32.8868C74.6748 33.7946 73.6659 34.0115 72.9671 34.0758V34.0919C73.8247 34.1079 75.1513 34.4373 75.1513 35.5138C75.1513 36.4618 74.1348 36.7831 73.3959 36.8634C73.0865 36.9036 72.753 36.9116 72.5465 36.9116C72.3718 36.9116 71.8159 36.8795 71.1171 36.8795H70.0688C69.91 36.8795 69.8223 36.8956 69.6953 36.8956C69.5206 36.8956 69.4812 36.8795 69.4812 36.8634C69.4812 36.8152 69.5447 36.8152 69.6241 36.7911C69.9576 36.6947 70.1324 36.4618 70.1324 35.9637ZM76.8964 32.6699V33.7063H76.9123C77.2223 33.0395 77.7782 32.5494 78.5247 32.5816L78.1912 33.409C78.0559 33.3046 77.8653 33.2805 77.6988 33.2805C77.2458 33.2805 76.9441 33.8669 76.9441 34.3891V35.8673C76.9441 36.3734 76.9841 36.751 77.397 36.8313C77.4523 36.8474 77.4765 36.8634 77.4765 36.8795C77.4765 36.9036 77.4523 36.9036 77.4129 36.9036C77.357 36.9036 76.9682 36.8795 76.5311 36.8795C76.1023 36.8795 75.7294 36.9036 75.6817 36.9036C75.6417 36.9036 75.6099 36.8956 75.6099 36.8795C75.6099 36.8634 75.6417 36.8474 75.6976 36.8393C76.0705 36.7028 76.1264 36.5421 76.1264 35.8673V33.9473C76.1264 33.3929 76.0947 33.1037 75.8164 33.0395C75.737 33.0154 75.6976 32.9913 75.6976 32.9752C75.7052 32.9431 75.8088 32.9511 75.8641 32.935C76.2294 32.8708 76.5629 32.7904 76.8964 32.6699ZM79.7686 34.0758H82.1669C82.1669 33.2885 81.794 32.7342 80.9681 32.7342C80.2451 32.7342 79.8563 33.3849 79.7686 34.0758ZM83.1675 34.2284H79.7369C79.721 34.4132 79.7134 34.5819 79.7134 34.7506C79.7134 36.2449 80.4757 36.7992 81.2457 36.7992C82.1593 36.7992 82.834 36.1645 83.104 35.2246H83.2711C83.0169 36.3332 82.2228 37 81.1428 37C79.7928 37 78.7922 36.0762 78.7922 34.7908C78.7922 33.5054 79.7928 32.5816 81.1428 32.5816C82.0081 32.5816 83.0563 33.1118 83.1675 34.2284ZM84.8504 32.6699V33.8268H84.8663C85.0486 33.1439 85.4381 32.5816 86.4863 32.5816C87.3599 32.5816 88.1775 33.0395 88.1775 34.3168V35.8673C88.1616 36.6305 88.2652 36.7429 88.4952 36.8233C88.5511 36.8393 88.5987 36.8634 88.5987 36.8795C88.5987 36.9036 88.5587 36.9036 88.4793 36.9036C88.4081 36.9036 88.2016 36.8795 87.7646 36.8795C87.3357 36.8795 87.0498 36.9036 86.9469 36.9036C86.8993 36.9036 86.8592 36.9036 86.8592 36.8795C86.8592 36.8634 86.8751 36.8393 86.931 36.8313C87.2169 36.7992 87.3599 36.5823 87.3599 35.8673V34.3088C87.3599 33.5697 87.034 32.7824 86.1922 32.7824C85.2475 32.7824 84.9375 33.7625 84.9375 34.8872V35.8673C84.9375 36.3734 84.9616 36.751 85.3186 36.8152C85.3745 36.8233 85.4063 36.8393 85.4063 36.8634C85.4063 36.8956 85.3822 36.9036 85.3345 36.9036C85.2793 36.9036 84.9533 36.8795 84.5245 36.8795C84.0957 36.8795 83.7304 36.9036 83.6751 36.9036C83.6275 36.9036 83.6033 36.8956 83.6033 36.8634C83.6033 36.8393 83.6351 36.8233 83.691 36.8152C84.0881 36.751 84.1198 36.3734 84.1198 35.8673V33.875C84.1198 33.3929 84.0639 33.1198 83.8416 33.0234C83.7545 32.9832 83.6986 32.9591 83.6986 32.9431C83.6986 32.919 83.7545 32.919 83.8498 32.9029C84.231 32.8306 84.5563 32.7744 84.8504 32.6699ZM89.5154 33.16H88.9989C88.9513 33.16 88.9195 33.1278 88.9195 33.0877C88.9195 33.0475 88.9831 33.0154 89.0784 32.9752C89.5313 32.8145 89.9125 32.445 90.206 31.8344C90.2302 31.7782 90.2619 31.7541 90.2937 31.7541C90.3331 31.7541 90.3331 31.8103 90.3331 31.8666V32.9029H91.2149L91.159 33.16H90.3331V35.4415C90.3331 36.51 90.5872 36.7028 90.8413 36.7911C90.9049 36.8152 90.9366 36.8233 90.9366 36.8474C90.9366 36.8715 90.8814 36.8795 90.8096 36.8795H89.849C89.6266 36.7751 89.5154 36.5983 89.5154 36.2931V33.16ZM95.1137 33.7143L93.8355 36.8634C93.8196 36.9197 93.7561 37 93.7161 37H93.7002C93.6525 37 93.5814 36.9036 93.502 36.7349L91.9137 33.3849C91.8261 33.168 91.6355 32.8547 91.4214 32.7503C91.3972 32.7342 91.3813 32.7342 91.3813 32.7101C91.3813 32.6699 91.429 32.6699 91.4925 32.6699C91.7466 32.6699 91.8343 32.7021 92.2473 32.7021C92.6361 32.7021 92.7237 32.6699 92.9779 32.6699C93.049 32.6699 93.089 32.6699 93.089 32.7021C93.089 32.7503 93.0172 32.7583 92.9461 32.7824C92.8425 32.8226 92.7555 32.927 92.7555 33.0555C92.7555 33.2483 92.8425 33.4572 92.9302 33.6179L94.0102 35.803L95.2332 32.8386C95.3126 32.6539 95.352 32.5816 95.4155 32.5816H95.4314C95.4873 32.5816 95.5902 32.7503 95.6302 32.8386L96.9803 35.803L97.8614 33.8107C97.9408 33.6018 97.9967 33.4251 97.9967 33.3367C97.9967 33.0636 97.8697 32.8386 97.5997 32.7583C97.5755 32.7503 97.5679 32.7422 97.5679 32.7181C97.5679 32.6699 97.6073 32.6699 97.655 32.6699C97.8538 32.6699 97.925 32.7021 98.2509 32.7021C98.5526 32.7021 98.6238 32.6699 98.8226 32.6699C98.8779 32.6699 98.9097 32.6699 98.9097 32.7021C98.9097 32.7342 98.9097 32.7583 98.8862 32.7744C98.5368 33.0636 98.2985 33.4974 98.0997 33.9232L96.7497 36.8313C96.7262 36.8956 96.6544 37 96.6226 37H96.6067C96.5591 37 96.5356 36.9357 96.4879 36.8313L95.1137 33.7143ZM100.187 34.7908C100.187 35.7387 100.434 36.8474 101.617 36.8474C102.808 36.8474 103.054 35.7387 103.054 34.7908C103.054 33.8428 102.808 32.7342 101.617 32.7342C100.434 32.7342 100.187 33.8428 100.187 34.7908ZM99.2661 34.7908C99.2661 33.5054 100.267 32.5816 101.617 32.5816C102.975 32.5816 103.976 33.5054 103.976 34.7908C103.976 36.0762 102.975 37 101.617 37C100.267 37 99.2661 36.0762 99.2661 34.7908ZM105.484 34.7908C105.484 35.7387 105.73 36.8474 106.914 36.8474C108.105 36.8474 108.351 35.7387 108.351 34.7908C108.351 33.8428 108.105 32.7342 106.914 32.7342C105.73 32.7342 105.484 33.8428 105.484 34.7908ZM104.563 34.7908C104.563 33.5054 105.564 32.5816 106.914 32.5816C108.272 32.5816 109.272 33.5054 109.272 34.7908C109.272 36.0762 108.272 37 106.914 37C105.564 37 104.563 36.0762 104.563 34.7908ZM110.757 34.7908C110.757 36.4778 111.623 36.7992 112.147 36.7992C112.663 36.7992 113.529 36.285 113.529 34.7908C113.529 33.1037 112.663 32.7824 112.147 32.7824C111.623 32.7824 110.757 33.1037 110.757 34.7908ZM114.307 31.0552V34.7908C114.307 35.2326 114.307 35.6745 114.339 36.1083C114.363 36.4216 114.474 36.7269 114.76 36.8072C114.792 36.8152 114.815 36.8313 114.815 36.8474C114.815 36.8715 114.776 36.8795 114.68 36.8795H113.743C113.6 36.5903 113.553 36.277 113.513 36.0762H113.497C113.187 36.6224 112.687 37 111.885 37C110.773 37 109.836 36.1404 109.836 34.7908C109.836 33.65 110.726 32.5816 111.885 32.5816C112.576 32.5816 113.156 32.8306 113.473 33.2644H113.489V32.0272C113.489 31.738 113.489 31.4729 113.179 31.4087C113.124 31.3926 113.076 31.3846 113.076 31.3605C113.076 31.3283 113.163 31.3203 113.219 31.3123C113.592 31.2399 113.926 31.1596 114.307 31.0552Z" fill="white"/>
6A"/>
</svg>
