<svg width="22" height="22" viewBox="0 0 22 22" fill="none" xmlns="http://www.w3.org/2000/svg">
<path fill-rule="evenodd" clip-rule="evenodd" d="M11 2.75C8.7593 2.75 8.4788 2.75935 7.5988 2.7995C6.72045 2.83965 6.1204 2.97935 5.5957 3.1834C5.0457 3.3902 4.54685 3.7147 4.13435 4.1349C3.71482 4.54692 3.39012 5.04542 3.18285 5.5957C2.9799 6.1204 2.83965 6.721 2.7995 7.59935C2.7599 8.4788 2.75 8.75875 2.75 11C2.75 13.2413 2.75935 13.5212 2.7995 14.4012C2.83965 15.2796 2.97935 15.8796 3.1834 16.4043C3.3902 16.9543 3.7147 17.4531 4.1349 17.8657C4.54693 18.2852 5.04543 18.6099 5.5957 18.8172C6.1204 19.0207 6.72045 19.1604 7.5988 19.2005C8.4788 19.2407 8.7593 19.25 11 19.25C13.2407 19.25 13.5212 19.2407 14.4012 19.2005C15.2796 19.1604 15.8796 19.0207 16.4043 18.8166C16.9543 18.6098 17.4531 18.2853 17.8657 17.8651C18.2852 17.4531 18.6099 16.9546 18.8172 16.4043C19.0207 15.8796 19.1604 15.2796 19.2005 14.4012C19.2407 13.5212 19.25 13.2407 19.25 11C19.25 8.7593 19.2407 8.4788 19.2005 7.5988C19.1604 6.72045 19.0207 6.1204 18.8166 5.5957C18.6095 5.04519 18.2848 4.54648 17.8651 4.13435C17.4531 3.71482 16.9546 3.39012 16.4043 3.18285C15.8796 2.9799 15.279 2.83965 14.4007 2.7995C13.5212 2.7599 13.2413 2.75 11 2.75ZM11 4.23665C13.2028 4.23665 13.464 4.2449 14.3341 4.2845C15.1382 4.32135 15.5749 4.455 15.8659 4.56885C16.2509 4.7179 16.5259 4.8972 16.8146 5.1854C17.1034 5.47415 17.2821 5.74915 17.4312 6.13415C17.5445 6.4251 17.6786 6.8618 17.7155 7.6659C17.7551 8.536 17.7634 8.79725 17.7634 11C17.7634 13.2028 17.7551 13.464 17.7155 14.3341C17.6786 15.1382 17.545 15.5749 17.4312 15.8659C17.2991 16.2242 17.0884 16.5484 16.8146 16.8146C16.5484 17.0885 16.2242 17.2992 15.8659 17.4312C15.5749 17.5445 15.1382 17.6786 14.3341 17.7155C13.464 17.7551 13.2033 17.7634 11 17.7634C8.7967 17.7634 8.536 17.7551 7.6659 17.7155C6.8618 17.6786 6.4251 17.545 6.13415 17.4312C5.7758 17.2991 5.4516 17.0884 5.1854 16.8146C4.9116 16.5484 4.70092 16.2242 4.56885 15.8659C4.45555 15.5749 4.32135 15.1382 4.2845 14.3341C4.2449 13.464 4.23665 13.2028 4.23665 11C4.23665 8.79725 4.2449 8.536 4.2845 7.6659C4.32135 6.8618 4.455 6.4251 4.56885 6.13415C4.7179 5.74915 4.8972 5.47415 5.1854 5.1854C5.45157 4.91152 5.77578 4.70084 6.13415 4.56885C6.4251 4.45555 6.8618 4.32135 7.6659 4.2845C8.536 4.2449 8.79725 4.23665 11 4.23665Z" fill="#FFFDF7"/>
<path fill-rule="evenodd" clip-rule="evenodd" d="M11.0003 13.7528C10.6388 13.7528 10.2808 13.6816 9.94683 13.5432C9.61285 13.4049 9.30939 13.2021 9.05378 12.9465C8.79816 12.6909 8.59539 12.3874 8.45706 12.0534C8.31872 11.7195 8.24751 11.3615 8.24751 11C8.24751 10.6385 8.31872 10.2806 8.45706 9.94657C8.59539 9.61259 8.79816 9.30913 9.05378 9.05352C9.30939 8.7979 9.61285 8.59513 9.94683 8.4568C10.2808 8.31846 10.6388 8.24726 11.0003 8.24726C11.7303 8.24726 12.4305 8.53728 12.9468 9.05352C13.463 9.56976 13.753 10.2699 13.753 11C13.753 11.7301 13.463 12.4303 12.9468 12.9465C12.4305 13.4627 11.7303 13.7528 11.0003 13.7528ZM11.0003 6.75951C9.87561 6.75951 8.79703 7.20627 8.00178 8.00152C7.20653 8.79677 6.75977 9.87535 6.75977 11C6.75977 12.1247 7.20653 13.2032 8.00178 13.9985C8.79703 14.7937 9.87561 15.2405 11.0003 15.2405C12.1249 15.2405 13.2035 14.7937 13.9987 13.9985C14.794 13.2032 15.2408 12.1247 15.2408 11C15.2408 9.87535 14.794 8.79677 13.9987 8.00152C13.2035 7.20627 12.1249 6.75951 11.0003 6.75951ZM16.4744 6.68251C16.4744 6.94835 16.3688 7.20331 16.1808 7.39129C15.9928 7.57927 15.7379 7.68488 15.472 7.68488C15.2062 7.68488 14.9512 7.57927 14.7633 7.39129C14.5753 7.20331 14.4697 6.94835 14.4697 6.68251C14.4697 6.41666 14.5753 6.1617 14.7633 5.97372C14.9512 5.78574 15.2062 5.68013 15.472 5.68013C15.7379 5.68013 15.9928 5.78574 16.1808 5.97372C16.3688 6.1617 16.4744 6.41666 16.4744 6.68251Z" fill="#FFFDF7"/>
</svg>
