<svg width="235" height="112" viewBox="0 0 235 112" fill="none"
    xmlns="http://www.w3.org/2000/svg">
    <path d="M40.67 32.89C40.67 40.52 34.86 45 24.57 45H3.85V0.899996H23.45C34.58 0.899996 39.34 5.66 39.34 12.87C39.34 17.84 35.98 21.34 31.22 22.11C36.54 23.09 40.67 26.59 40.67 32.89ZM23.59 25.89H12.39V37.93H23.59C29.05 37.93 31.71 35.62 31.71 31.98C31.71 28.27 29.05 25.89 23.59 25.89ZM12.39 7.97V19.24H22.89C28.14 19.24 30.38 16.93 30.38 13.64C30.38 10.35 28.14 7.97 22.89 7.97H12.39ZM66.8746 30.65V14.13H75.2746V45H66.8746V39.96C65.2646 43.53 61.6246 45.84 56.9346 45.84C48.7446 45.84 45.9446 40.31 45.9446 33.45V14.13H54.3446V31.77C54.3446 36.46 56.0946 39.26 60.2246 39.26C64.3546 39.26 66.8746 35.9 66.8746 30.65ZM82.3884 14.13H90.7884V45H82.3884V14.13ZM82.2484 9.09V0.899996H90.8584V9.09H82.2484ZM97.8376 0.899996H106.238V45H97.8376V0.899996ZM136.107 30.16V28.97C136.107 23.37 132.677 19.87 127.917 19.87C122.667 19.87 119.937 23.72 119.937 29.6C119.937 35.41 122.667 39.26 127.917 39.26C132.677 39.26 136.107 35.83 136.107 30.16ZM136.037 45V39.12C134.637 42.83 130.857 45.84 125.397 45.84C116.227 45.84 111.467 38.7 111.467 29.6C111.467 20.5 116.227 13.29 125.397 13.29C130.857 13.29 134.637 16.3 136.037 20.08V0.899996H144.437V45H136.037ZM151.5 14.13H159.9V45H151.5V14.13ZM151.36 9.09V0.899996H159.97V9.09H151.36ZM175.349 28.48V45H166.949V14.13H175.349V19.17C176.889 15.67 180.809 13.29 185.429 13.29C193.689 13.29 196.699 18.89 196.699 25.75V45H188.299V27.43C188.299 22.67 186.409 19.94 182.279 19.94C178.009 19.94 175.349 23.3 175.349 28.48ZM230.683 23.86C230.683 30.3 224.803 34.29 216.683 34.29C214.163 34.29 211.853 33.94 209.893 33.17C209.123 33.66 208.633 34.43 208.633 35.41C208.633 36.81 209.543 37.72 211.853 37.72H224.173C231.033 37.72 234.533 41.43 234.533 46.4C234.533 54.1 225.573 57.32 215.983 57.32C207.443 57.32 200.163 55.15 200.163 49.41C200.163 46.26 202.683 44.02 206.323 43.53C203.523 42.62 202.053 40.38 202.053 37.86C202.053 35.06 204.013 32.96 207.023 31.77C204.363 29.95 202.753 27.22 202.753 23.86C202.753 17.28 208.563 13.29 216.683 13.29C220.463 13.29 223.963 14.27 226.483 16.02C228.233 13.57 231.313 11.61 234.673 11.61V18.33C232.993 18.33 230.963 18.61 229.353 19.17C230.193 20.5 230.683 22.11 230.683 23.86ZM207.793 48.15C207.793 50.95 211.013 52.21 215.983 52.21C222.143 52.21 226.623 50.81 226.623 47.8C226.623 45.77 224.943 45 222.143 45H211.853C209.613 45 207.793 45.91 207.793 48.15ZM222.143 23.86C222.143 20.29 219.973 18.4 216.753 18.4C213.603 18.4 211.433 20.29 211.433 23.86C211.433 27.43 213.603 29.32 216.753 29.32C219.973 29.32 222.143 27.43 222.143 23.86ZM4.76 86.01H0.21V80.13H4.76V77.54C4.76 70.33 9.1 66.06 16.03 66.06C21.63 66.06 25.06 68.72 26.39 73.62L21 75.37C20.3 73.41 18.97 72.08 16.8 72.08C14.21 72.08 13.09 74.04 13.09 76.91V80.13H21.35V86.01H13.09V111H4.76V86.01ZM31.2063 95.6C31.2063 101.41 33.8663 105.47 38.9763 105.47C44.1563 105.47 46.8163 101.41 46.8163 95.6C46.8163 89.72 44.1563 85.66 38.9763 85.66C33.8663 85.66 31.2063 89.72 31.2063 95.6ZM55.2863 95.6C55.2863 105.19 48.5663 111.84 38.9763 111.84C29.4563 111.84 22.7363 105.19 22.7363 95.6C22.7363 86.01 29.4563 79.29 38.9763 79.29C48.5663 79.29 55.2863 86.01 55.2863 95.6ZM81.9317 80.55L81.3017 88.39C79.6917 87.48 78.2917 87.06 76.2617 87.06C71.9217 87.06 68.9817 90.14 68.9817 95.74V111H60.5817V80.13H68.9817V86.01C70.1017 82.51 73.3217 79.29 77.5917 79.29C79.4817 79.29 81.0217 79.78 81.9317 80.55ZM98.4528 66.9H106.853V111H98.4528V66.9ZM113.902 80.13H122.302V111H113.902V80.13ZM113.762 75.09V66.9H122.372V75.09H113.762ZM130.541 86.01H125.991V80.13H130.541V77.54C130.541 70.33 134.881 66.06 141.811 66.06C147.411 66.06 150.841 68.72 152.171 73.62L146.781 75.37C146.081 73.41 144.751 72.08 142.581 72.08C139.991 72.08 138.871 74.04 138.871 76.91V80.13H147.131V86.01H138.871V111H130.541V86.01ZM172.948 100.22L179.738 100.92C178.128 107.78 172.808 111.84 164.898 111.84C155.378 111.84 148.518 105.75 148.518 96.02C148.518 86.29 155.448 79.29 164.688 79.29C174.768 79.29 179.948 86.29 179.948 94.69V97.7H156.778C157.058 102.25 160.628 105.47 165.178 105.47C169.308 105.47 171.758 103.72 172.948 100.22ZM156.918 92.45H171.758C171.478 88.88 169.308 85.45 164.618 85.45C159.998 85.45 157.688 88.6 156.918 92.45ZM183.874 111V101.62H193.254V111H183.874Z" fill="#FFFDF7"/>
</svg>
