<svg width="122" height="20" viewBox="0 0 122 20" fill="none"
    xmlns="http://www.w3.org/2000/svg">
    <path d="M14.7994 1.44972L9.74966 10.3663L4.76075 1.46532C4.41092 0.857372 3.57437 0.358505 2.88991 0.358505H0V19.6727H3.87857V7.45126L8.3047 15.0897H11.3467L15.636 7.45126V19.6727H19.5145V0.358505H16.655C15.9706 0.358505 15.134 0.857372 14.7842 1.46532L14.7994 1.44972ZM55.6993 11.364C57.1442 10.1169 57.7983 8.46457 57.7983 6.62512C57.7983 4.52067 56.9921 2.71232 55.608 1.66789C54.3304 0.7014 52.6725 0.358505 50.8473 0.358505H42.3144V19.6727H46.2995V12.9852H49.8738L53.8285 19.6727H58.6044L54.011 12.4084C54.6042 12.159 55.1517 11.8472 55.6993 11.364ZM52.6269 9.04132C52.0489 9.43104 51.2123 9.52456 50.1932 9.52456H46.3147V3.81911H50.5279C51.3492 3.81911 52.0945 3.95946 52.7181 4.36477C53.3569 4.81683 53.7676 5.54948 53.7676 6.68744C53.7676 7.8254 53.2961 8.62043 52.6269 9.04132ZM35.9262 1.83943C34.7094 0.779414 33.0515 0.109036 30.9069 0.109036C28.7622 0.109036 27.15 0.795003 25.918 1.83943C24.0319 3.42946 23.1497 5.83009 23.1497 8.16837V19.6882H27.1348V13.7958H34.6942V19.6882H38.6792V8.16837C38.6792 5.83009 37.8122 3.42946 35.911 1.83943H35.9262ZM34.7094 10.148H27.15V8.33982C27.15 6.79656 27.5911 5.70536 28.3212 4.92593C29.0056 4.22445 29.9182 3.91264 30.9221 3.91264C31.9259 3.91264 32.8842 4.25562 33.5838 4.92593C34.2683 5.68977 34.7246 6.79656 34.7246 8.33982V10.148H34.7094ZM92.4164 0.0311123C87.0625 0.0311123 83.9596 3.72566 80.9784 7.31102L80.948 7.34213C80.6438 7.71626 80.3396 8.07483 80.0202 8.44895C79.5639 8.99455 79.1228 9.52457 78.6361 10.1169C76.1264 13.1879 73.7689 16.0873 70.301 16.0873C66.8331 16.0873 64.4451 13.6711 64.4451 10.0857C64.4451 6.50037 66.8483 4.02177 70.301 4.02177C71.7915 4.02177 72.8562 4.59862 74.3925 5.75217C74.8488 6.09511 75.2899 6.32893 75.9287 6.32893C76.3546 6.32893 76.8109 6.23538 77.328 6.01715C78.0581 5.72096 78.6665 4.87912 78.9555 4.39588V4.36477C76.1873 1.43412 73.3126 0.0155086 70.1793 0.0155086C64.5363 0.0155086 60.4296 4.22446 60.4296 10.0078C60.4296 15.7911 64.5363 20 70.1793 20C74.0883 20 77.039 18.2541 80.7047 13.7646L81.1001 13.297L81.4804 13.7646C85.0243 18.0826 88.3097 19.9221 92.4316 19.9221C98.105 19.9221 102.06 15.8379 102.06 9.9922C102.06 4.1465 98.0137 0 92.4316 0L92.4164 0.0311123ZM92.2339 16.0873C89.1919 16.0873 86.7278 13.827 83.9748 10.4287L83.701 10.1013L83.9748 9.77394C86.7278 6.37564 89.1767 4.1153 92.2339 4.1153C95.7018 4.1153 98.0289 6.53157 98.0289 10.1169C98.0289 13.7023 95.7018 16.1185 92.2339 16.1185V16.0873ZM118.167 0.358505V12.8916C118.167 12.8916 112.326 5.11297 110.638 2.85263L109.543 1.38731C109.117 0.826119 108.189 0.358505 107.49 0.358505H105.162V19.6727H108.98V7.17068L118.365 19.6727H122V0.358505H118.182H118.167Z" fill="#FFFDF7"/>
</svg>
