<?xml version="1.0" encoding="utf-8"?>
<!-- Generator: Adobe Illustrator 25.0.0, SVG Export Plug-In . SVG Version: 6.00 Build 0)  -->
<svg version="1.1" id="tower" xmlns="http://www.w3.org/2000/svg" xmlns:xlink="http://www.w3.org/1999/xlink" x="0px" y="0px"
	 viewBox="0 0 459.13 1540.62" style="enable-background:new 0 0 459.13 1540.62;" xml:space="preserve">
<style type="text/css">
	.ev0{fill:#F4F6F7;stroke:#E8E8E8;stroke-miterlimit:10;}
	.ev1{fill:#D8E2EC;stroke:#E8E8E8;stroke-miterlimit:10;}
	.ev2{fill:#F4F6F7;}
	.ev3{fill:#005069;}
	.ev4{fill:#FFFFFF;stroke:#E8E8E8;stroke-miterlimit:10;}
	.ev5{fill:none;stroke:#E8E8E8;stroke-miterlimit:10;}
	.ev6{fill:#CCCCCC;stroke:#C4C4C4;stroke-miterlimit:10;}
	.ev7{fill:#C9D7E3;}
	.ev8{fill:#89A8B5;}
	.ev9{fill:#B6C2CE;}
	.ev10{fill:#F9F9F9;}
</style>
<g id="podium">
	<rect x="119.64" y="1334.36" class="ev0" width="76.03" height="205.76"/>
	<rect x="195.67" y="1334.36" class="ev1" width="207.15" height="205.76"/>
	<rect x="402.82" y="1334.36" class="ev0" width="45.18" height="205.76"/>
	<rect x="0.5" y="1392.27" class="ev2" width="119.14" height="147.85"/>
	<rect x="19.01" y="1392.27" class="ev3" width="82.26" height="16.71"/>
	<rect x="101.27" y="1381.48" class="ev4" width="18.51" height="158.64"/>
	<rect x="0.5" y="1381.48" class="ev4" width="18.51" height="158.64"/>
	<line class="ev5" x1="19.01" y1="1540.12" x2="101.27" y2="1540.12"/>
</g>
<g id="parts">
	<rect x="383.06" y="130.32" class="ev0" width="64.94" height="141.24"/>
	<polygon class="ev6" points="340.72,0.5 336.76,0.5 276.93,0.5 276.93,99.01 167.62,99.01 167.62,271.57 383.06,271.57 383.06,0.5
			"/>
</g>
<g id="L3" class="disabled">
	<g>
		<g>
			<rect x="119.64" y="1288.15" class="ev7" width="328.36" height="25.55"/>
			<rect x="222.32" y="1313.7" class="ev8" width="236.82" height="20.66"/>
			<rect x="109.38" y="1313.7" class="ev8" width="92.38" height="20.66"/>
			<rect x="276.93" y="1288.15" class="ev3" width="25.18" height="25.36"/>
			<rect x="302.11" y="1288.15" class="ev3" width="25.18" height="25.36"/>
			<rect x="352.46" y="1288.15" class="ev3" width="25.18" height="25.36"/>
			<rect x="377.64" y="1288.15" class="ev3" width="25.18" height="25.36"/>
			<rect x="222.32" y="1288.15" class="ev3" width="37.57" height="25.55"/>
		</g>
	</g>
</g>
<g id="L4" class="disabled">
	<g>
		<g>
			<rect x="119.64" y="1241.94" class="ev7" width="328.36" height="25.55"/>
			<rect x="222.32" y="1267.49" class="ev8" width="236.82" height="20.66"/>
			<rect x="109.38" y="1267.49" class="ev8" width="92.38" height="20.66"/>
			<rect x="276.93" y="1241.94" class="ev3" width="25.18" height="25.36"/>
			<rect x="302.11" y="1241.94" class="ev3" width="25.18" height="25.36"/>
			<rect x="352.46" y="1241.94" class="ev3" width="25.18" height="25.36"/>
			<rect x="377.64" y="1241.94" class="ev3" width="25.18" height="25.36"/>
			<rect x="222.32" y="1241.94" class="ev3" width="37.57" height="25.55"/>
		</g>
	</g>
</g>
<g id="L5" class="disabled">
	<g>
		<g>
			<rect x="119.64" y="1195.73" class="ev7" width="328.36" height="25.55"/>
			<rect x="222.32" y="1221.29" class="ev8" width="236.82" height="20.66"/>
			<rect x="109.38" y="1221.29" class="ev8" width="92.38" height="20.66"/>
			<rect x="276.93" y="1195.73" class="ev3" width="25.18" height="25.36"/>
			<rect x="302.11" y="1195.73" class="ev3" width="25.18" height="25.36"/>
			<rect x="352.46" y="1195.73" class="ev3" width="25.18" height="25.36"/>
			<rect x="377.64" y="1195.73" class="ev3" width="25.18" height="25.36"/>
			<rect x="222.32" y="1195.73" class="ev3" width="37.57" height="25.55"/>
		</g>
	</g>
</g>
<g id="L6" class="disabled">
	<g>
		<g>
			<rect x="119.64" y="1149.53" class="ev7" width="328.36" height="25.55"/>
			<rect x="222.32" y="1175.08" class="ev8" width="236.82" height="20.66"/>
			<rect x="109.38" y="1175.08" class="ev8" width="92.38" height="20.66"/>
			<rect x="276.93" y="1149.53" class="ev3" width="25.18" height="25.36"/>
			<rect x="302.11" y="1149.53" class="ev3" width="25.18" height="25.36"/>
			<rect x="352.46" y="1149.53" class="ev3" width="25.18" height="25.36"/>
			<rect x="377.64" y="1149.53" class="ev3" width="25.18" height="25.36"/>
			<rect x="222.32" y="1149.53" class="ev3" width="37.57" height="25.55"/>
		</g>
	</g>
</g>
<g id="L7" class="disabled">
	<g>
		<g>
			<rect x="119.64" y="1103.32" class="ev7" width="328.36" height="25.55"/>
			<rect x="222.32" y="1128.87" class="ev8" width="236.82" height="20.66"/>
			<rect x="109.38" y="1128.87" class="ev8" width="92.38" height="20.66"/>
			<rect x="276.93" y="1103.32" class="ev3" width="25.18" height="25.36"/>
			<rect x="302.11" y="1103.32" class="ev3" width="25.18" height="25.36"/>
			<rect x="352.46" y="1103.32" class="ev3" width="25.18" height="25.36"/>
			<rect x="377.64" y="1103.32" class="ev3" width="25.18" height="25.36"/>
			<rect x="222.32" y="1103.32" class="ev3" width="37.57" height="25.55"/>
		</g>
	</g>
</g>
<g id="L8" class="disabled">
	<g>
		<g>
			<rect x="119.64" y="1057.11" class="ev7" width="328.36" height="25.55"/>
			<rect x="222.32" y="1082.66" class="ev8" width="236.82" height="20.66"/>
			<rect x="109.38" y="1082.66" class="ev8" width="92.38" height="20.66"/>
			<rect x="276.93" y="1057.11" class="ev3" width="25.18" height="25.36"/>
			<rect x="302.11" y="1057.11" class="ev3" width="25.18" height="25.36"/>
			<rect x="352.46" y="1057.11" class="ev3" width="25.18" height="25.36"/>
			<rect x="377.64" y="1057.11" class="ev3" width="25.18" height="25.36"/>
			<rect x="222.32" y="1057.11" class="ev3" width="37.57" height="25.55"/>
		</g>
	</g>
</g>
<g id="L9" class="disabled">
	<g>
		<g>
			<rect x="119.64" y="1010.9" class="ev7" width="328.36" height="25.55"/>
			<rect x="222.32" y="1036.45" class="ev8" width="236.82" height="20.66"/>
			<rect x="109.38" y="1036.45" class="ev8" width="92.38" height="20.66"/>
			<rect x="276.93" y="1010.9" class="ev3" width="25.18" height="25.36"/>
			<rect x="302.11" y="1010.9" class="ev3" width="25.18" height="25.36"/>
			<rect x="352.46" y="1010.9" class="ev3" width="25.18" height="25.36"/>
			<rect x="377.64" y="1010.9" class="ev3" width="25.18" height="25.36"/>
			<rect x="222.32" y="1010.9" class="ev3" width="37.57" height="25.55"/>
		</g>
	</g>
</g>
<g id="L10" class="disabled">
	<g>
		<g>
			<rect x="119.64" y="964.69" class="ev7" width="328.36" height="25.55"/>
			<rect x="222.32" y="990.24" class="ev8" width="236.82" height="20.66"/>
			<rect x="109.38" y="990.24" class="ev8" width="92.38" height="20.66"/>
			<rect x="276.93" y="964.69" class="ev3" width="25.18" height="25.36"/>
			<rect x="302.11" y="964.69" class="ev3" width="25.18" height="25.36"/>
			<rect x="352.46" y="964.69" class="ev3" width="25.18" height="25.36"/>
			<rect x="377.64" y="964.69" class="ev3" width="25.18" height="25.36"/>
			<rect x="222.32" y="964.69" class="ev3" width="37.57" height="25.55"/>
		</g>
	</g>
</g>
<g id="L11" class="disabled">
	<g>
		<g>
			<rect x="119.64" y="918.48" class="ev7" width="328.36" height="25.55"/>
			<rect x="222.32" y="944.04" class="ev8" width="236.82" height="20.66"/>
			<rect x="109.38" y="944.04" class="ev8" width="92.38" height="20.66"/>
			<rect x="276.93" y="918.48" class="ev3" width="25.18" height="25.36"/>
			<rect x="302.11" y="918.48" class="ev3" width="25.18" height="25.36"/>
			<rect x="352.46" y="918.48" class="ev3" width="25.18" height="25.36"/>
			<rect x="377.64" y="918.48" class="ev3" width="25.18" height="25.36"/>
			<rect x="222.32" y="918.48" class="ev3" width="37.57" height="25.55"/>
		</g>
	</g>
</g>
<g id="L12" class="disabled">
	<g>
		<g>
			<rect x="119.64" y="872.28" class="ev7" width="328.36" height="25.55"/>
			<rect x="222.32" y="897.83" class="ev8" width="236.82" height="20.66"/>
			<rect x="109.38" y="897.83" class="ev8" width="92.38" height="20.66"/>
			<rect x="276.93" y="872.28" class="ev3" width="25.18" height="25.36"/>
			<rect x="302.11" y="872.28" class="ev3" width="25.18" height="25.36"/>
			<rect x="352.46" y="872.28" class="ev3" width="25.18" height="25.36"/>
			<rect x="377.64" y="872.28" class="ev3" width="25.18" height="25.36"/>
			<rect x="222.32" y="872.28" class="ev3" width="37.57" height="25.55"/>
		</g>
	</g>
</g>
<g id="L13" class="disabled">
	<g>
		<g>
			<rect x="119.64" y="826.07" class="ev7" width="328.36" height="25.55"/>
			<rect x="222.32" y="851.62" class="ev8" width="236.82" height="20.66"/>
			<rect x="109.38" y="851.62" class="ev8" width="92.38" height="20.66"/>
			<rect x="276.93" y="826.07" class="ev3" width="25.18" height="25.36"/>
			<rect x="302.11" y="826.07" class="ev3" width="25.18" height="25.36"/>
			<rect x="352.46" y="826.07" class="ev3" width="25.18" height="25.36"/>
			<rect x="377.64" y="826.07" class="ev3" width="25.18" height="25.36"/>
			<rect x="222.32" y="826.07" class="ev3" width="37.57" height="25.55"/>
		</g>
	</g>
</g>
<g id="L14" class="disabled">
	<g>
		<g>
			<rect x="119.64" y="779.86" class="ev7" width="328.36" height="25.55"/>
			<rect x="222.32" y="805.41" class="ev8" width="236.82" height="20.66"/>
			<rect x="109.38" y="805.41" class="ev8" width="92.38" height="20.66"/>
			<rect x="276.93" y="779.86" class="ev3" width="25.18" height="25.36"/>
			<rect x="302.11" y="779.86" class="ev3" width="25.18" height="25.36"/>
			<rect x="352.46" y="779.86" class="ev3" width="25.18" height="25.36"/>
			<rect x="377.64" y="779.86" class="ev3" width="25.18" height="25.36"/>
			<rect x="222.32" y="779.86" class="ev3" width="37.57" height="25.55"/>
		</g>
	</g>
</g>
<g id="L15" class="disabled">
	<g>
		<g>
			<rect x="119.64" y="733.65" class="ev7" width="328.36" height="25.55"/>
			<rect x="222.32" y="759.2" class="ev8" width="236.82" height="20.66"/>
			<rect x="109.38" y="759.2" class="ev8" width="92.38" height="20.66"/>
			<rect x="276.93" y="733.65" class="ev3" width="25.18" height="25.36"/>
			<rect x="302.11" y="733.65" class="ev3" width="25.18" height="25.36"/>
			<rect x="352.46" y="733.65" class="ev3" width="25.18" height="25.36"/>
			<rect x="377.64" y="733.65" class="ev3" width="25.18" height="25.36"/>
			<rect x="222.32" y="733.65" class="ev3" width="37.57" height="25.55"/>
		</g>
	</g>
</g>
<g id="L16" class="disabled">
	<g>
		<g>
			<rect x="119.64" y="687.44" class="ev7" width="328.36" height="25.55"/>
			<rect x="222.32" y="712.99" class="ev8" width="236.82" height="20.66"/>
			<rect x="109.38" y="712.99" class="ev8" width="92.38" height="20.66"/>
			<rect x="276.93" y="687.44" class="ev3" width="25.18" height="25.36"/>
			<rect x="302.11" y="687.44" class="ev3" width="25.18" height="25.36"/>
			<rect x="352.46" y="687.44" class="ev3" width="25.18" height="25.36"/>
			<rect x="377.64" y="687.44" class="ev3" width="25.18" height="25.36"/>
			<rect x="222.32" y="687.44" class="ev3" width="37.57" height="25.55"/>
		</g>
	</g>
</g>
<g id="L17" class="disabled">
	<g>
		<g>
			<rect x="119.64" y="641.23" class="ev7" width="328.36" height="25.55"/>
			<rect x="222.32" y="666.79" class="ev8" width="236.82" height="20.66"/>
			<rect x="109.38" y="666.79" class="ev8" width="92.38" height="20.66"/>
			<rect x="276.93" y="641.23" class="ev3" width="25.18" height="25.36"/>
			<rect x="302.11" y="641.23" class="ev3" width="25.18" height="25.36"/>
			<rect x="352.46" y="641.23" class="ev3" width="25.18" height="25.36"/>
			<rect x="377.64" y="641.23" class="ev3" width="25.18" height="25.36"/>
			<rect x="222.32" y="641.23" class="ev3" width="37.57" height="25.55"/>
		</g>
	</g>
</g>
<g id="L18" class="disabled">
	<g>
		<g>
			<rect x="119.64" y="595.02" class="ev7" width="328.36" height="25.55"/>
			<rect x="222.32" y="620.58" class="ev8" width="236.82" height="20.66"/>
			<rect x="109.38" y="620.58" class="ev8" width="92.38" height="20.66"/>
			<rect x="276.93" y="595.02" class="ev3" width="25.18" height="25.36"/>
			<rect x="302.11" y="595.02" class="ev3" width="25.18" height="25.36"/>
			<rect x="352.46" y="595.02" class="ev3" width="25.18" height="25.36"/>
			<rect x="377.64" y="595.02" class="ev3" width="25.18" height="25.36"/>
			<rect x="222.32" y="595.02" class="ev3" width="37.57" height="25.55"/>
		</g>
	</g>
</g>
<g id="L19" class="disabled">
	<g>
		<g>
			<rect x="119.64" y="548.82" class="ev7" width="328.36" height="25.55"/>
			<rect x="222.32" y="574.37" class="ev8" width="236.82" height="20.66"/>
			<rect x="109.38" y="574.37" class="ev8" width="92.38" height="20.66"/>
			<rect x="276.93" y="548.82" class="ev3" width="25.18" height="25.36"/>
			<rect x="302.11" y="548.82" class="ev3" width="25.18" height="25.36"/>
			<rect x="352.46" y="548.82" class="ev3" width="25.18" height="25.36"/>
			<rect x="377.64" y="548.82" class="ev3" width="25.18" height="25.36"/>
			<rect x="222.32" y="548.82" class="ev3" width="37.57" height="25.55"/>
		</g>
	</g>
</g>
<g id="L20" class="disabled">
	<g>
		<g>
			<rect x="119.64" y="502.61" class="ev7" width="328.36" height="25.55"/>
			<rect x="222.32" y="528.16" class="ev8" width="236.82" height="20.66"/>
			<rect x="109.38" y="528.16" class="ev8" width="92.38" height="20.66"/>
			<rect x="276.93" y="502.61" class="ev3" width="25.18" height="25.36"/>
			<rect x="302.11" y="502.61" class="ev3" width="25.18" height="25.36"/>
			<rect x="352.46" y="502.61" class="ev3" width="25.18" height="25.36"/>
			<rect x="377.64" y="502.61" class="ev3" width="25.18" height="25.36"/>
			<rect x="222.32" y="502.61" class="ev3" width="37.57" height="25.55"/>
		</g>
	</g>
</g>
<g id="L21" class="disabled">
	<g>
		<g>
			<rect x="119.64" y="456.4" class="ev7" width="328.36" height="25.55"/>
			<rect x="222.32" y="481.95" class="ev8" width="236.82" height="20.66"/>
			<rect x="109.38" y="481.95" class="ev8" width="92.38" height="20.66"/>
			<rect x="276.93" y="456.4" class="ev3" width="25.18" height="25.36"/>
			<rect x="302.11" y="456.4" class="ev3" width="25.18" height="25.36"/>
			<rect x="352.46" y="456.4" class="ev3" width="25.18" height="25.36"/>
			<rect x="377.64" y="456.4" class="ev3" width="25.18" height="25.36"/>
			<rect x="222.32" y="456.4" class="ev3" width="37.57" height="25.55"/>
		</g>
	</g>
</g>
<g id="L22" class="active">
	<g>
		<g>
			<rect x="119.64" y="410.19" class="ev7" width="328.36" height="25.55"/>
			<rect x="222.32" y="435.74" class="ev8" width="236.82" height="20.66"/>
			<rect x="109.38" y="435.74" class="ev8" width="92.38" height="20.66"/>
			<rect x="276.93" y="410.19" class="ev3" width="25.18" height="25.36"/>
			<rect x="302.11" y="410.19" class="ev3" width="25.18" height="25.36"/>
			<rect x="352.46" y="410.19" class="ev3" width="25.18" height="25.36"/>
			<rect x="377.64" y="410.19" class="ev3" width="25.18" height="25.36"/>
			<rect x="222.32" y="410.19" class="ev3" width="37.57" height="25.55"/>
		</g>
	</g>
</g>
<g id="L23">
	<g>
		<g>
			<rect x="119.64" y="363.98" class="ev7" width="328.36" height="25.55"/>
			<rect x="222.32" y="389.53" class="ev8" width="236.82" height="20.66"/>
			<rect x="109.38" y="389.53" class="ev8" width="92.38" height="20.66"/>
			<rect x="276.93" y="363.98" class="ev3" width="25.18" height="25.36"/>
			<rect x="302.11" y="363.98" class="ev3" width="25.18" height="25.36"/>
			<rect x="352.46" y="363.98" class="ev3" width="25.18" height="25.36"/>
			<rect x="377.64" y="363.98" class="ev3" width="25.18" height="25.36"/>
			<rect x="222.32" y="363.98" class="ev3" width="37.57" height="25.55"/>
		</g>
	</g>
</g>
<g id="L24">
	<g>
		<g>
			<rect x="119.64" y="317.77" class="ev7" width="328.36" height="25.55"/>
			<rect x="222.32" y="343.33" class="ev8" width="236.82" height="20.66"/>
			<rect x="109.38" y="343.33" class="ev8" width="92.38" height="20.66"/>
			<rect x="276.93" y="317.77" class="ev3" width="25.18" height="25.36"/>
			<rect x="302.11" y="317.77" class="ev3" width="25.18" height="25.36"/>
			<rect x="352.46" y="317.77" class="ev3" width="25.18" height="25.36"/>
			<rect x="377.64" y="317.77" class="ev3" width="25.18" height="25.36"/>
			<rect x="222.32" y="317.77" class="ev3" width="37.57" height="25.55"/>
		</g>
	</g>
</g>
<g id="L25">
	<g>
		<g>
			<rect x="119.64" y="271.57" class="ev7" width="328.36" height="25.55"/>
			<rect x="222.32" y="297.12" class="ev8" width="236.82" height="20.66"/>
			<rect x="109.38" y="297.12" class="ev8" width="92.38" height="20.66"/>
			<rect x="276.93" y="271.57" class="ev3" width="25.18" height="25.36"/>
			<rect x="302.11" y="271.57" class="ev3" width="25.18" height="25.36"/>
			<rect x="352.46" y="271.57" class="ev3" width="25.18" height="25.36"/>
			<rect x="377.64" y="271.57" class="ev3" width="25.18" height="25.36"/>
			<rect x="222.32" y="271.57" class="ev3" width="37.57" height="25.55"/>
		</g>
	</g>
</g>
<g id="L26">
	<rect x="155.58" y="209.38" class="ev7" width="181.19" height="41.53"/>
	<rect x="222.32" y="209.38" class="ev3" width="37.57" height="41.53"/>
	<rect x="336.76" y="209.38" class="ev9" width="22.4" height="41.53"/>
	<rect x="109.38" y="250.91" class="ev8" width="310.68" height="20.66"/>
</g>
<g id="L27">
	<rect x="155.58" y="147.19" class="ev7" width="181.19" height="41.53"/>
	<rect x="222.32" y="147.19" class="ev3" width="37.57" height="41.53"/>
	<rect x="336.76" y="147.19" class="ev9" width="22.4" height="41.53"/>
	<rect x="109.38" y="188.72" class="ev8" width="286.2" height="20.66"/>
	<rect x="109.38" y="134.09" class="ev8" width="249.78" height="13.1"/>
</g>
<g id="bars">
	<rect x="195.67" y="271.57" class="ev10" width="26.65" height="1062.79"/>
	<rect x="259.89" y="147.19" class="ev10" width="22.38" height="1392.93"/>
</g>
</svg>
