<svg width="161" height="82" viewBox="0 0 161 82" fill="none" xmlns="http://www.w3.org/2000/svg">
<path d="M27.888 22.696C27.888 18.376 25.056 15.976 21.408 15.304C24.672 14.776 26.976 12.376 26.976 8.968C26.976 4.024 23.712 0.759997 16.08 0.759997H2.64V31H16.848C23.904 31 27.888 27.928 27.888 22.696ZM16.176 17.896C19.92 17.896 21.744 19.528 21.744 22.072C21.744 24.568 19.92 26.152 16.176 26.152H8.496V17.896H16.176ZM8.496 5.608H15.696C19.296 5.608 20.832 7.24 20.832 9.496C20.832 11.752 19.296 13.336 15.696 13.336H8.496V5.608ZM45.8569 21.16C45.8569 24.76 44.1289 27.064 41.2969 27.064C38.4649 27.064 37.2649 25.144 37.2649 21.928V9.832H31.5049V23.08C31.5049 27.784 33.4249 31.576 39.0409 31.576C42.2569 31.576 44.7529 29.992 45.8569 27.544V31H51.6169V9.832H45.8569V21.16ZM56.4949 9.832V31H62.2549V9.832H56.4949ZM56.3989 6.376H62.3029V0.759997H56.3989V6.376ZM67.0886 0.759997V31H72.8486V0.759997H67.0886ZM93.3304 20.824C93.3304 24.712 90.9784 27.064 87.7144 27.064C84.1144 27.064 82.2424 24.424 82.2424 20.44C82.2424 16.408 84.1144 13.768 87.7144 13.768C90.9784 13.768 93.3304 16.168 93.3304 20.008V20.824ZM93.2824 31H99.0424V0.759997H93.2824V13.912C92.3224 11.32 89.7304 9.256 85.9864 9.256C79.6984 9.256 76.4344 14.2 76.4344 20.44C76.4344 26.68 79.6984 31.576 85.9864 31.576C89.7304 31.576 92.3224 29.512 93.2824 26.968V31ZM103.886 9.832V31H109.646V9.832H103.886ZM103.79 6.376H109.694V0.759997H103.79V6.376ZM120.239 19.672C120.239 16.12 122.063 13.816 124.991 13.816C127.823 13.816 129.119 15.688 129.119 18.952V31H134.879V17.8C134.879 13.096 132.815 9.256 127.151 9.256C123.983 9.256 121.295 10.888 120.239 13.288V9.832H114.479V31H120.239V19.672ZM158.183 16.504C158.183 15.304 157.847 14.2 157.271 13.288C158.375 12.904 159.767 12.712 160.919 12.712V8.104C158.615 8.104 156.503 9.448 155.303 11.128C153.575 9.928 151.174 9.256 148.583 9.256C143.015 9.256 139.031 11.992 139.031 16.504C139.031 18.808 140.135 20.68 141.959 21.928C139.895 22.744 138.551 24.184 138.551 26.104C138.551 27.832 139.559 29.368 141.479 29.992C138.983 30.328 137.255 31.864 137.255 34.024C137.255 37.96 142.247 39.448 148.103 39.448C154.679 39.448 160.823 37.24 160.823 31.96C160.823 28.552 158.423 26.008 153.719 26.008H145.271C143.687 26.008 143.062 25.384 143.062 24.424C143.062 23.752 143.398 23.224 143.927 22.888C145.271 23.416 146.855 23.656 148.583 23.656C154.151 23.656 158.183 20.92 158.183 16.504ZM142.487 33.16C142.487 31.624 143.735 31 145.271 31H152.327C154.247 31 155.399 31.528 155.399 32.92C155.399 34.984 152.327 35.944 148.103 35.944C144.695 35.944 142.487 35.08 142.487 33.16ZM152.327 16.504C152.327 18.952 150.839 20.248 148.631 20.248C146.471 20.248 144.983 18.952 144.983 16.504C144.983 14.056 146.471 12.76 148.631 12.76C150.839 12.76 152.327 14.056 152.327 16.504ZM3.264 63.864V81H8.976V63.864H14.64V59.832H8.976V57.624C8.976 55.656 9.744 54.312 11.52 54.312C13.008 54.312 13.92 55.224 14.4 56.568L18.096 55.368C17.184 52.008 14.832 50.184 10.992 50.184C6.24 50.184 3.264 53.112 3.264 58.056V59.832H0.144V63.864H3.264ZM21.3986 70.44C21.3986 66.408 23.2226 63.624 26.7266 63.624C30.2786 63.624 32.1026 66.408 32.1026 70.44C32.1026 74.424 30.2786 77.208 26.7266 77.208C23.2226 77.208 21.3986 74.424 21.3986 70.44ZM37.9106 70.44C37.9106 63.864 33.3026 59.256 26.7266 59.256C20.1986 59.256 15.5906 63.864 15.5906 70.44C15.5906 77.016 20.1986 81.576 26.7266 81.576C33.3026 81.576 37.9106 77.016 37.9106 70.44ZM56.1818 60.12C55.5578 59.592 54.5018 59.256 53.2057 59.256C50.2778 59.256 48.0698 61.464 47.3018 63.864V59.832H41.5418V81H47.3018V70.536C47.3018 66.696 49.3178 64.584 52.2938 64.584C53.6858 64.584 54.6458 64.872 55.7498 65.496L56.1818 60.12ZM67.5105 50.76V81H73.2705V50.76H67.5105ZM78.1043 59.832V81H83.8643V59.832H78.1043ZM78.0083 56.376H83.9123V50.76H78.0083V56.376ZM89.514 63.864V81H95.226V63.864H100.89V59.832H95.226V57.624C95.226 55.656 95.994 54.312 97.77 54.312C99.258 54.312 100.17 55.224 100.65 56.568L104.346 55.368C103.434 52.008 101.082 50.184 97.242 50.184C92.49 50.184 89.514 53.112 89.514 58.056V59.832H86.394V63.864H89.514ZM118.593 73.608C117.777 76.008 116.097 77.208 113.265 77.208C110.145 77.208 107.697 75 107.505 71.88H123.393V69.816C123.393 64.056 119.841 59.256 112.929 59.256C106.593 59.256 101.841 64.056 101.841 70.728C101.841 77.4 106.545 81.576 113.073 81.576C118.497 81.576 122.145 78.792 123.249 74.088L118.593 73.608ZM107.601 68.28C108.129 65.64 109.713 63.48 112.881 63.48C116.097 63.48 117.585 65.832 117.777 68.28H107.601ZM126.085 81H132.517V74.568H126.085V81Z" fill="white"/>
</svg>
