<?xml version="1.0" encoding="utf-8"?>
<!-- Generator: Adobe Illustrator 25.2.0, SVG Export Plug-In . SVG Version: 6.00 Build 0)  -->
<svg version="1.1" id="T_Circle" xmlns="http://www.w3.org/2000/svg" xmlns:xlink="http://www.w3.org/1999/xlink" x="0px" y="0px"
	 viewBox="0 0 459 459" style="enable-background:new 0 0 459 459;" xml:space="preserve">
<style type="text/css">
	.st0{clip-path:url(#SVGID_2_);}
	.st1{fill:#F4F4F4;}
	.st2{fill:#5F7287;}
	.st3{fill:#EBEBEC;}
	.st4{fill:none;stroke:#97A0AF;stroke-width:3.104;stroke-miterlimit:10;}
	.st5{fill:none;stroke:#97A0AF;stroke-width:3.104;stroke-linecap:round;stroke-linejoin:round;stroke-miterlimit:10;}
	.st6{fill:none;stroke:#E6E7E8;stroke-width:6.208;stroke-miterlimit:10;}
	.st7{fill:none;stroke:#E6E7E8;stroke-width:9.312;stroke-miterlimit:10;}
	.st8{fill:#FFFFFF;}
	.st9{fill:#231F20;}
	.st10{fill:#225067;}
	.st11{fill:none;}
	.st12{fill:#FFF1C7;stroke:#E0CEA0;stroke-width:0.5;stroke-miterlimit:10;}
	.st13{fill-rule:evenodd;clip-rule:evenodd;fill:#225067;}
</style>
<g>
	<g>
		<defs>
			<rect id="SVGID_1_" x="-0.2" y="-0.2" width="459.4" height="459.4"/>
		</defs>
		<clipPath id="SVGID_2_">
			<use xlink:href="#SVGID_1_"  style="overflow:visible;"/>
		</clipPath>
		<g class="st0">
			<g>
				<g>
					<ellipse id="SVGID_3_" class="st1" cx="237.3" cy="240.7" rx="490.9" ry="490.9"/>
				</g>
			</g>
			<rect x="322" y="-13.7" class="st2" width="34.9" height="34.9"/>
			<rect x="442.6" y="-107.2" class="st2" width="39.2" height="66"/>
			<rect x="409.8" y="90.4" class="st2" width="30.3" height="13.7"/>
			<rect x="443.6" y="112" class="st2" width="19.4" height="25.1"/>
			<polygon class="st2" points="728.1,-98.4 631.8,-98.4 600,-101.4 600,-202.4 728.1,-202.4 			"/>
			<rect x="600" y="-292.5" class="st2" width="46.1" height="56.6"/>
			<rect x="920.9" y="57" class="st2" width="36.2" height="29"/>
			<rect x="469.4" y="480.2" class="st2" width="39.9" height="28.2"/>
			<rect x="660" y="710.9" class="st2" width="32.1" height="48.7"/>
			<rect x="558" y="723.7" class="st2" width="29.2" height="32.8"/>
			<rect x="308.9" y="702.7" class="st2" width="31.9" height="33.3"/>
			<rect x="218.8" y="748.5" class="st2" width="57.7" height="28.5"/>
			<rect x="-61.8" y="484" class="st2" width="39.8" height="22.7"/>
			<polygon class="st2" points="769.5,195.4 738.8,195.4 769.5,211.2 			"/>
			<rect x="31" y="219.7" class="st2" width="25" height="20.8"/>
			<polygon class="st2" points="72.8,45.1 45,45.1 29.3,29.6 29.3,-58.9 72.8,-58.9 			"/>
			<path class="st3" d="M61.3,598.8v50.6h94.8v83l15.9-9.7v-21h46.1v-14.9l-26.6-4.1l-12.8-15l-0.5-21.3l-9.2-19
				c0,0-28.2-4.1-42-19.5s-14.3-25.6-14.3-25.6L61.3,598.8z"/>
			<polygon class="st3" points="459.6,561.7 351.4,561.7 351.4,698.6 370.4,698.6 370.4,787.4 459.6,787.4 			"/>
			<path class="st3" d="M757.2,245.6h-187l10.9,20.1h14.6l5.6,9.5l-23.6,2.6l-10.8,14l44.8-9.7l30.2,11.5l34.6,25
				c0,0-3.3,12.2-4.4,12.2h-6.9l41.3,61.8h10.5l-4.4,6.7l5.6,17.2l-17.2,9h62l-2.3,37.4l-16.9,6.9v38.7h101v-41h26.7v63.6h-14.3V562
				h-10.2v52.6l-6.8,59.9c0,0,7.5,3.3,14.7,7.1c7.2,3.8,12.6,9.9,12,25c-0.7,15-1,25.6-1,25.6l5.3,25.8c29,15.2,74,29.4,74,29.4
				h306.4V694l-111-23.6L823.7,286.2l-55.6-28.6"/>
			<path class="st4" d="M-312.9,309.2c11,6.8,15.8,10.6,36.3-3.1c20.5-13.7,41.4-26.3,49.2-31.1c7.9-4.8,17.8-10.2,29.4-10.2h37.9
				c10.6,0,33.2,8.5,58.8,8.5s34.5-3.8,45.1-8.5s17.8-7.1,36.6-7.1s61.2-1.4,71.4-1.4s31.8,3.4,44.1,14.3
				c12.3,10.9,43.7,32.9,52.4,37c8.7,4.1,19,7.8,41.9,7.8s32.1,1.9,45.1,8s34.9,2.5,48.9,0s46.8-6.2,92.6-6.2s83,1.4,116.2-6.6
				s72.5-15.5,94.7-21.3c22.2-5.9,40-5.5,74.5,7.1c34.5,12.6,49.9,17.4,95.3,20.1c45.5,2.7,64.6,3.2,77.2,9.8s28.4,22.2,28.4,37
				s0.7,22.9,14,27.7s15.4,7.5,19.5,21.9s3.4,21.9,0,35.5s-3.8,26,7.2,38s16.7,18.4,18.8,24.9c2,6.5,6.8,9.2,14.3,12
				c7.5,2.7,12,4.8,13.3,9.2s10.2,9.9,16.1,12"/>
			<path class="st5" d="M68.4,257.6c-1.6-5.8-5.5-10-11.6-16.3c-0.5-0.6-0.8-1.3-0.8-2.1v-16.5c0-1.7-1.4-3-3-3H31.6
				c-0.4,0-0.7-0.1-1.1-0.2l-56.9-21.3"/>
			<path class="st4" d="M409.8-95.5c40,19.5,86.7,47.2,96.4,69.2s10.2,54.1,10.2,86.8s-6,88.6-2,92.5c3.9,3.9,19,22.2,19,35.5
				s4.1,26.1,13.8,26.1c9.7,0,12.8,11.3,19,22.6c6.2,11.3,21.5,51.8,21.5,51.8"/>
			<path class="st4" d="M278.1,590.9c-4.8,10.4-6.8,26.1,0,45.3c6.8,19.1,12.3,51.3,5.5,70.4s-23.6,36.9-40.8,45.8
				s-35.7,9.2-52.1,35"/>
			<path class="st4" d="M1019.8,734.5c-26.7,11.3-101,53-101,53"/>
			<path class="st6" d="M-262.2-257.2c0,0,597.7,4.8,616.5,5.1c18.8,0.3,30.4,4.1,40.3,11.3s24.6,11.6,38.3,9.2
				c13.7-2.4,22.2-5.1,47.8-5.1s345.8-0.3,370.4-0.3c24.6,0,48.9,2.1,69.4,3.4s62.5,7.9,94.3-59.8"/>
			<path class="st6" d="M-126.3-110.8c0,0,703.3,4.2,709.4,4.2s25.5,8.2,42.5,8.2h626"/>
			<line class="st6" x1="-312.9" y1="51.2" x2="29.3" y2="51.2"/>
			<line class="st6" x1="-312.9" y1="348.5" x2="-30.7" y2="348.5"/>
			<path class="st6" d="M388.7,155.7c42.5,28,166.9,82.5,180.6,211.1s25.6,202,42.5,224.1c-16.9-22-39.5-29.7-56.9-29.7h-52.8
				c-39,0-41-43.1-41-75s-30.8-37.8-51.3-39.3c-20.5-1.5-63-6.7-76.3-7.2c-13.3-0.5-459.8-4.4-459.8-4.4"/>
			<path class="st6" d="M611.8,590.9c25.1,25.6,41.5,42,56.9,60.5c15.4,18.5,37.9,32.8,55.4,46.1c17.4,13.3,102.5,89.9,102.5,89.9"
				/>
			<path class="st6" d="M-126.3-130.3c30.2,24.6,52.8,44.8,62,51.3c9.2,6.5,25.6,18.1,38.6,35.9s66,83.7,75.2,96.7
				c9.2,13,21.5,21.9,37.9,32.1s23.2,16.1,29.1,20.2c5.8,4.1,7.2,12.2,7.2,24.6"/>
			<path class="st6" d="M-126.3,204.9c26.5-1.7,66.8-6.1,83.2-5.8s31.7-2.7,41.8-8.9c10.1-6.1,25.9-7.5,41.6-7.5h257.7
				c11.3,0,16.7-2.6,16.7-13.3v-32.3"/>
			<path class="st6" d="M266.8,133.6v91.5c0,4.5-2.2,7.9-7.9,7.9h-38.7c-10.8,0-24.1-1.9-32.8-8.5c-8.7-6.7-14.9-18.3-14.9-41.7
				v-52.3"/>
			<path class="st6" d="M-127.2,276.8H33.1c12,0,28.7,2.1,40.3,15c11.6,12.9,26,28.8,46.1,28.8s25.6-8.1,35.2-21.9
				c9.6-13.8,17.8-25.8,25.3-33.6c7.5-7.9,13-11.1,39.6-11.1s64.3,1,80.3,2.7c16.1,1.7,28.4,5.9,36.6,11.4
				c8.2,5.5,18.5,9.7,34.5,9.7h166.6"/>
			<path class="st6" d="M174.2,271.8c0,0,23.3,14.6,32.5,20c9.2,5.4,17.4,6.4,27.7,6.4s13.3-11.5,13.3-20.5V254"/>
			<path class="st6" d="M29.3-289.9v530.6c0,23.7,6.3,41.9,23.8,69.7c17.4,27.8,16.4,45.8,16.4,59.6s4.6,36.8,11.8,48.4
				s10.8,32.1,10.8,51s-0.8,49.9-1.5,61.9c-0.7,12,14.3,53,14.3,53"/>
			<path class="st6" d="M219.7-289.9v472.7c0,35.8,6.2,60.8-4.1,92.2s-10.3,57-10.3,83.4s-7.1,73.6-6.1,116.1
				c1,42.5,2.6,110.2,2.6,121.5c0,11.3,3.3,28.5,8.6,44.7c5.3,16.3,7.9,30.3,7.9,48.4v98.3"/>
			<line class="st6" x1="409.8" y1="-289.9" x2="409.8" y2="160"/>
			<path class="st6" d="M1251.6,276.8c-38.9-15.3-92.9-11.4-132.8-7.6c-40,3.7-72.3-0.6-104.6-11.5c-32.3-10.9-56.4-4.5-77.9,1.3
				c-21.5,5.8-68.7-0.2-95.9-2.7c-27.2-2.6-39.5-15.4-51.3-21c-11.8-5.6-138.9-62-164-73.8c-25.1-11.8-63.6-20-77.9-24.3
				c-14.3-4.3-26.7-3.9-44.6,0c0,0-8.5-17.6-15.4-33c-6.8-15.4-5.5-27-5.5-39.3v-354.7"/>
			<path class="st6" d="M502.6,137.1c-5.1,22-18.6,61.2-27.9,74.1"/>
			<path class="st7" d="M945.2,787.4c-101.8-28.5-128.5-72-147-102.7C779.8,654,690.9,502.2,650.6,435.3s-99.1-79.7-158.6-79.7
				c-78.6,0-392.2,4.5-472.9,4.5c-62.9,0-115.5-55.4-146.3-83.3s-41.3-72.9-45.8-114.9c-13-121-60.8-204.4-76.6-239.9
				c-9.5-21.6-12.6-50.2-12.6-65.6v-146.3"/>
			<path class="st7" d="M1251.6,427.2c0,0-111.8-55.7-149.8-74.6s-86.6-19.5-131.7-23.6c-45.1-4.1-102-23.6-139.9-39.9
				c-37.9-16.3-86.1-45.7-152.8-81.1s-130.7-38.4-173.8-38.6s-108.2-9.6-136.9-19.9s-75.4-16.9-102-15.8s-76.9-6.7-112.8-5.1h-252.6
				"/>
			<g>
				<path class="st8" d="M-80.3-267.4h-4v2.2h3.6v0.7h-3.6v2.3h4v0.7h-4.8v-6.5h4.7C-80.3-268.1-80.3-267.4-80.3-267.4z"/>
				<path class="st8" d="M-72.5-261.6h-0.8l-0.8-1.7h-3.6l-0.8,1.7h-0.8l3-6.6h0.7L-72.5-261.6z M-75.8-267.3l-1.5,3.3h3
					L-75.8-267.3z"/>
				<path class="st8" d="M-68.7-265.2c1.4,0.3,2.1,0.9,2.1,1.9c0,1.1-0.9,1.9-2.2,1.9c-1,0-1.9-0.3-2.7-1l0.5-0.5
					c0.7,0.6,1.3,0.9,2.2,0.9c0.9,0,1.4-0.5,1.4-1.1c0-0.6-0.3-1-1.7-1.2c-1.5-0.3-2.2-0.8-2.2-1.9c0-1,0.9-1.8,2.1-1.8
					c0.9,0,1.6,0.3,2.3,0.8l-0.4,0.6c-0.6-0.5-1.2-0.7-1.9-0.7c-0.8,0-1.4,0.5-1.4,1.1C-70.5-265.9-70.1-265.5-68.7-265.2z"/>
				<path class="st8" d="M-62.5-261.6h-0.7v-5.8h-2.2v-0.7h5.1v0.7h-2.2V-261.6z"/>
				<path class="st8" d="M-55.4-264.5v2.9h-0.7v-6.5h0.7v2.9h3.8v-2.9h0.7v6.5h-0.7v-2.9H-55.4z"/>
				<path class="st8" d="M-42.8-261.6h-0.8l-0.8-1.7h-3.5l-0.8,1.7h-0.8l3-6.6h0.7L-42.8-261.6z M-46.2-267.3l-1.5,3.3h3
					L-46.2-267.3z"/>
				<path class="st8" d="M-39.1-265.2c1.5,0.3,2.1,0.9,2.1,1.9c0,1.1-0.9,1.9-2.2,1.9c-1,0-1.9-0.3-2.7-1l0.5-0.5
					c0.7,0.6,1.3,0.9,2.2,0.9c0.9,0,1.5-0.5,1.5-1.1c0-0.6-0.3-1-1.7-1.2c-1.5-0.3-2.2-0.8-2.2-1.9c0-1,0.9-1.8,2.1-1.8
					c1,0,1.6,0.3,2.3,0.8l-0.4,0.6c-0.6-0.5-1.2-0.7-1.9-0.7c-0.8,0-1.4,0.5-1.4,1.1C-40.8-265.9-40.5-265.5-39.1-265.2z"/>
				<path class="st8" d="M-32.8-261.6h-0.7v-5.8h-2.2v-0.7h5.1v0.7h-2.2V-261.6z"/>
				<path class="st8" d="M-28.5-268.1v6.5h-0.7v-6.5H-28.5z"/>
				<path class="st8" d="M-21.6-268.1h0.7v6.5h-0.6l-4.2-5.3v5.3h-0.7v-6.5h0.7l4.1,5.2L-21.6-268.1L-21.6-268.1z"/>
				<path class="st8" d="M-15.8-261.5c-2.1,0-3.3-1.5-3.3-3.4c0-1.8,1.3-3.4,3.3-3.4c1.1,0,1.8,0.3,2.4,0.9l-0.5,0.6
					c-0.5-0.4-1.1-0.7-2-0.7c-1.4,0-2.5,1.2-2.5,2.7c0,1.6,1,2.7,2.6,2.7c0.7,0,1.4-0.3,1.9-0.6v-1.6h-2v-0.7h2.7v2.6
					C-13.8-261.9-14.7-261.5-15.8-261.5z"/>
				<path class="st8" d="M-9.1-265.2c1.4,0.3,2.1,0.9,2.1,1.9c0,1.1-0.9,1.9-2.2,1.9c-1,0-1.9-0.3-2.7-1l0.5-0.5
					c0.7,0.6,1.3,0.9,2.2,0.9c0.9,0,1.4-0.5,1.4-1.1c0-0.6-0.3-1-1.7-1.2c-1.5-0.3-2.2-0.8-2.2-1.9c0-1,0.9-1.8,2.1-1.8
					c0.9,0,1.6,0.3,2.3,0.8l-0.4,0.6c-0.6-0.5-1.2-0.7-1.9-0.7c-0.9,0-1.4,0.5-1.4,1.1C-10.8-265.9-10.5-265.5-9.1-265.2z"/>
				<path class="st8" d="M-0.3-265.2c1.5,0.3,2.1,0.9,2.1,1.9c0,1.1-0.9,1.9-2.2,1.9c-1,0-1.9-0.3-2.7-1l0.5-0.5
					c0.7,0.6,1.3,0.9,2.2,0.9c0.9,0,1.5-0.5,1.5-1.1c0-0.6-0.3-1-1.7-1.2c-1.5-0.3-2.2-0.8-2.2-1.9c0-1,0.9-1.8,2.1-1.8
					c0.9,0,1.6,0.3,2.3,0.8l-0.4,0.6c-0.6-0.5-1.2-0.7-1.9-0.7c-0.9,0-1.4,0.5-1.4,1.1C-2.1-265.9-1.7-265.5-0.3-265.2z"/>
				<path class="st8" d="M5.9-261.6H5.2v-5.8H3v-0.7h5.1v0.7H5.9V-261.6z"/>
			</g>
			<g>
				<path class="st8" d="M863,287.3l0.7,0.2l-1.7,5.6l3.5,1l-0.2,0.6l-4.2-1.2L863,287.3z"/>
				<path class="st8" d="M869.4,296.1c-1.9-0.6-2.7-2.4-2.2-4.2s2.2-2.9,4.2-2.3s2.7,2.4,2.2,4.2C873,295.5,871.3,296.6,869.4,296.1
					z M871.1,290.3c-1.4-0.4-2.8,0.4-3.2,1.9s0.3,2.9,1.7,3.3c1.4,0.4,2.8-0.4,3.2-1.9S872.5,290.7,871.1,290.3z"/>
				<path class="st8" d="M880.2,296.2c-0.5,1.8-1.9,2.5-3.4,2c-1.5-0.5-2.3-1.7-1.8-3.5l1.1-3.6l0.7,0.2l-1.1,3.6
					c-0.4,1.4,0.1,2.3,1.3,2.7c1.2,0.3,2.1-0.1,2.5-1.5l1.1-3.6l0.7,0.2L880.2,296.2z"/>
				<path class="st8" d="M884.1,300.4c-2-0.6-2.8-2.4-2.2-4.2c0.5-1.7,2.2-2.9,4.1-2.3c1,0.3,1.6,0.8,2.1,1.5l-0.6,0.4
					c-0.4-0.6-0.8-1-1.7-1.3c-1.4-0.4-2.7,0.5-3.1,1.9c-0.4,1.5,0.2,2.9,1.7,3.3c0.7,0.2,1.5,0.1,2-0.1l0.5-1.5l-1.9-0.6l0.2-0.6
					l2.6,0.8l-0.7,2.5C886.2,300.5,885.1,300.7,884.1,300.4z"/>
				<path class="st8" d="M890,299l-0.8,2.8l-0.7-0.2l1.8-6.2l0.7,0.2l-0.8,2.8l3.6,1.1l0.8-2.8l0.7,0.2l-1.8,6.2l-0.7-0.2l0.8-2.8
					L890,299z"/>
				<path class="st8" d="M901.6,299.4l-3.8-1.1l-0.6,2.1l3.4,1l-0.2,0.6l-3.4-1l-0.6,2.2l3.9,1.1L900,305l-4.6-1.3l1.8-6.2l4.5,1.3
					L901.6,299.4z"/>
				<path class="st8" d="M907.7,301.1l-3.8-1.1l-0.6,2.1l3.4,1l-0.2,0.6l-3.4-1l-0.6,2.2l3.9,1.1l-0.2,0.6l-4.6-1.3l1.8-6.2l4.5,1.3
					L907.7,301.1z"/>
				<path class="st8" d="M909.7,307.8l-2.2-0.6l1.8-6.2l2.2,0.6c2,0.6,2.9,2.3,2.4,4.1C913.4,307.4,911.7,308.4,909.7,307.8z
					 M911.3,302.2l-1.5-0.4l-1.5,5l1.5,0.4c1.6,0.5,2.9-0.3,3.3-1.7C913.6,304.1,912.9,302.7,911.3,302.2z"/>
				<path class="st8" d="M918.7,307.4l-0.8,2.8l-0.7-0.2l1.8-6.2l0.7,0.2l-0.8,2.8l3.6,1.1l0.8-2.8l0.7,0.2l-1.8,6.2l-0.7-0.2
					l0.8-2.8L918.7,307.4z"/>
				<path class="st8" d="M929.7,306.9l0.6,0.2l0.2,5.7l3.3-4.7l0.7,0.2l-4.1,5.6l-0.6-0.2l-0.2-5.6l-3.2,4.6l-0.6-0.2l-0.4-7
					l0.8,0.2l0.2,5.7L929.7,306.9z"/>
				<path class="st8" d="M937,315.9l-0.7-0.2l0.7-2.5l-1.5-4.5l0.9,0.2l1.2,3.8l3-2.5l0.8,0.2l-3.7,3L937,315.9z"/>
			</g>
			<g>
				<path class="st8" d="M697.1,665.8c-1.5-1.1-1.7-3.2-0.5-4.7c1.1-1.5,3.2-1.8,4.7-0.7c0.9,0.7,1.2,1.5,1.4,2.4l-0.7,0.1
					c-0.1-0.8-0.4-1.4-1.1-2c-1.2-0.9-2.7-0.6-3.6,0.6c-0.9,1.2-0.8,2.8,0.4,3.7c0.7,0.5,1.4,0.6,2.2,0.5l0.1,0.7
					C698.9,666.6,698,666.5,697.1,665.8z"/>
				<path class="st8" d="M705.2,671.8l-0.6-0.5l0.4-1.8l-2.8-2.2l-1.7,0.9l-0.6-0.5l6.3-3.4l0.5,0.4L705.2,671.8z M706,665.3
					l-3.2,1.7l2.4,1.8L706,665.3z"/>
				<path class="st8" d="M714.1,670.4l0.6,0.4l-4,5.2l-0.5-0.4l-0.1-6.8l-3.2,4.2l-0.6-0.4l4-5.2l0.5,0.4l0.1,6.6L714.1,670.4z"/>
				<path class="st8" d="M717,680.9l-0.6-0.5l0.4-1.8l-2.8-2.2l-1.7,0.9l-0.6-0.5l6.3-3.4l0.5,0.4L717,680.9z M717.9,674.4l-3.2,1.7
					l2.4,1.8L717.9,674.4z"/>
				<path class="st8" d="M720,683.2l-1.8-1.4l4-5.2l1.8,1.4c1.6,1.2,1.9,3.2,0.8,4.7S721.6,684.4,720,683.2z M723.5,678.5l-1.2-0.9
					l-3.1,4.1l1.2,0.9c1.3,1,2.8,0.8,3.7-0.4S724.8,679.5,723.5,678.5z"/>
				<path class="st8" d="M728.6,689.8l-0.6-0.5l0.4-1.8l-2.8-2.2l-1.7,0.9l-0.6-0.5l6.3-3.4l0.5,0.4L728.6,689.8z M729.4,683.2
					l-3.2,1.7l2.4,1.8L729.4,683.2z"/>
				<path class="st8" d="M738.9,689.5l0.5,0.4l-1.9,5.4l4.8-3.2l0.6,0.5l-5.8,3.8l-0.5-0.4l1.8-5.3l-4.6,3.1l-0.5-0.4l2.1-6.6
					l0.6,0.5l-1.8,5.4L738.9,689.5z"/>
				<path class="st8" d="M744.5,701.9l-0.6-0.5l0.4-1.8l-2.8-2.2l-1.7,0.9l-0.6-0.5l6.3-3.4l0.5,0.4L744.5,701.9z M745.3,695.4
					l-3.2,1.7l2.4,1.8L745.3,695.4z"/>
				<path class="st8" d="M747.1,704l-0.6-0.5l1.6-2l0.2-4.8l0.7,0.5l-0.2,3.9l3.7-1.2l0.7,0.5l-4.5,1.5L747.1,704z"/>
			</g>
			<g>
				<path class="st8" d="M854.2-107.3c-1.9,0-3.3-1.5-3.3-3.4c0-1.9,1.4-3.4,3.3-3.4c1.2,0,1.9,0.4,2.5,1l-0.5,0.5
					c-0.5-0.5-1.2-0.9-2-0.9c-1.4,0-2.5,1.2-2.5,2.7s1.1,2.7,2.5,2.7c0.9,0,1.5-0.3,2.1-0.9l0.5,0.5
					C856.2-107.8,855.4-107.3,854.2-107.3z"/>
				<path class="st8" d="M863.6-110.2c0,1.9-1.1,2.9-2.7,2.9c-1.6,0-2.7-1-2.7-2.8v-3.8h0.7v3.7c0,1.4,0.7,2.2,2,2.2
					c1.2,0,2-0.7,2-2.2v-3.8h0.7V-110.2z"/>
				<path class="st8" d="M870.1-107.4l-1.9-2.5h-1.9v2.5h-0.7v-6.5h2.8c1.4,0,2.4,0.8,2.4,1.9c0,1.1-0.8,1.7-1.8,1.9l2,2.7
					C871-107.4,870.1-107.4,870.1-107.4z M868.3-113.2h-2v2.6h2c1,0,1.7-0.5,1.7-1.3C870-112.8,869.4-113.2,868.3-113.2z"/>
				<path class="st8" d="M874.8-107.4H874v-5.8h-2.2v-0.7h5.1v0.7h-2.2V-107.4z"/>
				<path class="st8" d="M879.2-113.9v6.5h-0.7v-6.5H879.2z"/>
				<path class="st8" d="M883.6-111c1.5,0.3,2.1,0.8,2.1,1.8c0,1.1-0.9,1.8-2.2,1.8c-1,0-1.9-0.3-2.7-1l0.5-0.5
					c0.7,0.6,1.3,0.9,2.2,0.9c0.9,0,1.5-0.5,1.5-1.1c0-0.6-0.3-1-1.7-1.2c-1.5-0.3-2.2-0.8-2.2-1.9c0-1,0.9-1.8,2.1-1.8
					c1,0,1.6,0.3,2.3,0.8l-0.4,0.6c-0.6-0.5-1.2-0.7-1.9-0.7c-0.8,0-1.4,0.5-1.4,1.1C881.8-111.7,882.1-111.3,883.6-111z"/>
				<path class="st8" d="M892.3-111c1.5,0.3,2.1,0.8,2.1,1.8c0,1.1-0.9,1.8-2.2,1.8c-1,0-1.9-0.3-2.7-1l0.5-0.5
					c0.7,0.6,1.3,0.9,2.2,0.9c0.9,0,1.5-0.5,1.5-1.1c0-0.6-0.3-1-1.7-1.2c-1.5-0.3-2.2-0.8-2.2-1.9c0-1,0.9-1.8,2.1-1.8
					c1,0,1.6,0.3,2.3,0.8l-0.4,0.6c-0.6-0.5-1.2-0.7-1.9-0.7c-0.8,0-1.4,0.5-1.4,1.1C890.5-111.7,890.9-111.3,892.3-111z"/>
				<path class="st8" d="M898.5-107.4h-0.7v-5.8h-2.2v-0.7h5.1v0.7h-2.2V-107.4z"/>
			</g>
			<g>
				<path class="st8" d="M787.4-249.1h-4v2.2h3.5v0.7h-3.5v2.3h4v0.7h-4.8v-6.5h4.7L787.4-249.1L787.4-249.1z"/>
				<path class="st8" d="M795.3-243.3h-0.8l-0.8-1.7h-3.5l-0.8,1.7h-0.8l3-6.6h0.7L795.3-243.3z M792-249l-1.5,3.3h3L792-249z"/>
				<path class="st8" d="M799.1-246.9c1.5,0.3,2.1,0.9,2.1,1.9c0,1.1-0.9,1.9-2.2,1.9c-1,0-1.9-0.3-2.7-1l0.5-0.5
					c0.7,0.6,1.3,0.9,2.2,0.9c0.9,0,1.5-0.5,1.5-1.1c0-0.6-0.3-1-1.7-1.2c-1.5-0.3-2.2-0.8-2.2-1.9c0-1,0.9-1.8,2.1-1.8
					c1,0,1.6,0.3,2.3,0.8l-0.4,0.6c-0.6-0.5-1.2-0.7-1.9-0.7c-0.8,0-1.4,0.5-1.4,1.1C797.3-247.5,797.6-247.2,799.1-246.9z"/>
				<path class="st8" d="M805.3-243.3h-0.7v-5.8h-2.2v-0.7h5.1v0.7h-2.2V-243.3z"/>
				<path class="st8" d="M812.4-246.2v2.9h-0.7v-6.5h0.7v2.9h3.8v-2.9h0.7v6.5h-0.7v-2.9H812.4z"/>
				<path class="st8" d="M824.9-243.3h-0.8l-0.8-1.7h-3.5l-0.8,1.7h-0.8l3-6.6h0.7L824.9-243.3z M821.6-249l-1.5,3.3h3L821.6-249z"
					/>
				<path class="st8" d="M828.7-246.9c1.5,0.3,2.1,0.9,2.1,1.9c0,1.1-0.9,1.9-2.2,1.9c-1,0-1.9-0.3-2.7-1l0.5-0.5
					c0.7,0.6,1.3,0.9,2.2,0.9c0.9,0,1.5-0.5,1.5-1.1c0-0.6-0.3-1-1.7-1.2c-1.5-0.3-2.2-0.8-2.2-1.9c0-1,0.9-1.8,2.1-1.8
					c1,0,1.6,0.3,2.3,0.8l-0.4,0.6c-0.6-0.5-1.2-0.7-1.9-0.7c-0.8,0-1.4,0.5-1.4,1.1C826.9-247.5,827.2-247.2,828.7-246.9z"/>
				<path class="st8" d="M834.9-243.3h-0.7v-5.8H832v-0.7h5.1v0.7h-2.2V-243.3z"/>
				<path class="st8" d="M839.3-249.8v6.5h-0.7v-6.5H839.3z"/>
				<path class="st8" d="M846.2-249.8h0.7v6.5h-0.6l-4.2-5.3v5.3h-0.7v-6.5h0.7l4.1,5.2L846.2-249.8L846.2-249.8z"/>
				<path class="st8" d="M851.9-243.2c-2,0-3.3-1.5-3.3-3.4c0-1.8,1.3-3.4,3.3-3.4c1.1,0,1.8,0.3,2.4,0.9l-0.5,0.6
					c-0.5-0.4-1.1-0.7-2-0.7c-1.4,0-2.5,1.2-2.5,2.7c0,1.6,1,2.7,2.6,2.7c0.7,0,1.4-0.3,1.9-0.6v-1.6h-2v-0.7h2.7v2.6
					C853.9-243.6,853-243.2,851.9-243.2z"/>
				<path class="st8" d="M858.7-246.9c1.5,0.3,2.1,0.9,2.1,1.9c0,1.1-0.9,1.9-2.2,1.9c-1,0-1.9-0.3-2.7-1l0.5-0.5
					c0.7,0.6,1.3,0.9,2.2,0.9c0.9,0,1.5-0.5,1.5-1.1c0-0.6-0.3-1-1.7-1.2c-1.5-0.3-2.2-0.8-2.2-1.9c0-1,0.9-1.8,2.1-1.8
					c1,0,1.6,0.3,2.3,0.8l-0.4,0.6c-0.6-0.5-1.2-0.7-1.9-0.7c-0.8,0-1.4,0.5-1.4,1.1C856.9-247.5,857.2-247.2,858.7-246.9z"/>
				<path class="st8" d="M867.4-246.9c1.5,0.3,2.1,0.9,2.1,1.9c0,1.1-0.9,1.9-2.2,1.9c-1,0-1.9-0.3-2.7-1l0.5-0.5
					c0.7,0.6,1.3,0.9,2.2,0.9c0.9,0,1.5-0.5,1.5-1.1c0-0.6-0.3-1-1.7-1.2c-1.5-0.3-2.2-0.8-2.2-1.9c0-1,0.9-1.8,2.1-1.8
					c1,0,1.6,0.3,2.3,0.8l-0.4,0.6c-0.6-0.5-1.2-0.7-1.9-0.7c-0.8,0-1.4,0.5-1.4,1.1C865.7-247.5,866-247.2,867.4-246.9z"/>
				<path class="st8" d="M873.7-243.3h-0.7v-5.8h-2.2v-0.7h5.1v0.7h-2.2V-243.3z"/>
			</g>
			<g>
				<path class="st8" d="M642.8-147.7h-0.9l-2.5-3.2l-1.4,1.4v1.8h-0.7v-6.5h0.7v3.9l3.7-3.9h1l-2.8,2.9L642.8-147.7z"/>
				<path class="st8" d="M645.8-148.2c0.7,0,1.1-0.3,1.5-0.7l0.5,0.4c-0.5,0.5-1.1,0.9-2,0.9c-1.3,0-2.4-1-2.4-2.5
					c0-1.4,1-2.5,2.3-2.5c1.4,0,2.2,1.1,2.2,2.6c0,0.1,0,0.1,0,0.2h-3.8C644.2-148.8,645-148.2,645.8-148.2z M647.2-150.4
					c-0.1-0.9-0.6-1.6-1.5-1.6c-0.8,0-1.5,0.7-1.6,1.6H647.2z"/>
				<path class="st8" d="M650.1-147.7h-0.7v-4.8h0.7v0.8c0.3-0.5,0.8-0.9,1.7-0.9c1.2,0,1.8,0.8,1.8,1.9v3h-0.7v-2.8
					c0-0.9-0.5-1.4-1.3-1.4c-0.8,0-1.4,0.6-1.4,1.5L650.1-147.7L650.1-147.7z"/>
				<path class="st8" d="M656.8-147.6c-0.7,0-1.5-0.3-2-0.7l0.4-0.5c0.5,0.4,1.1,0.6,1.7,0.6c0.6,0,1-0.3,1-0.8v0
					c0-0.5-0.6-0.7-1.2-0.9c-0.8-0.2-1.6-0.5-1.6-1.4v0c0-0.8,0.7-1.4,1.6-1.4c0.6,0,1.2,0.2,1.7,0.5l-0.3,0.5
					c-0.5-0.3-1-0.5-1.4-0.5c-0.6,0-0.9,0.3-0.9,0.7v0c0,0.5,0.6,0.6,1.2,0.8c0.7,0.2,1.5,0.5,1.5,1.4v0
					C658.5-148.2,657.7-147.6,656.8-147.6z"/>
				<path class="st8" d="M659.8-153.6v-0.8h0.8v0.8H659.8z M659.9-147.7v-4.8h0.7v4.8H659.9z"/>
				<path class="st8" d="M663-147.7h-0.7v-4.8h0.7v0.8c0.3-0.5,0.8-0.9,1.7-0.9c1.2,0,1.8,0.8,1.8,1.9v3h-0.7v-2.8
					c0-0.9-0.5-1.4-1.3-1.4c-0.8,0-1.4,0.6-1.4,1.5L663-147.7L663-147.7z"/>
				<path class="st8" d="M670.3-146.2c-0.8,0-1.5-0.2-2.2-0.7l0.3-0.6c0.5,0.4,1.2,0.6,1.8,0.6c1.1,0,1.8-0.6,1.8-1.7v-0.6
					c-0.4,0.6-1,1-1.9,1c-1.2,0-2.3-0.9-2.3-2.3c0-1.4,1.1-2.3,2.3-2.3c0.9,0,1.5,0.4,1.9,1v-0.9h0.7v4
					C672.7-147,671.8-146.2,670.3-146.2z M670.3-152c-0.9,0-1.7,0.6-1.7,1.6c0,1,0.8,1.6,1.7,1.6c0.9,0,1.8-0.6,1.8-1.6
					C672-151.4,671.2-152,670.3-152z"/>
				<path class="st8" d="M675.3-149.1c0,0.6,0.3,0.8,0.8,0.8c0.2,0,0.5-0.1,0.7-0.2v0.6c-0.2,0.1-0.5,0.2-0.9,0.2
					c-0.8,0-1.4-0.4-1.4-1.4v-2.9H674v-0.6h0.7v-1.5h0.7v1.4h1.5v0.6h-1.5V-149.1z"/>
				<path class="st8" d="M680.2-147.6c-1.4,0-2.5-1.1-2.5-2.5s1.1-2.5,2.5-2.5c1.4,0,2.5,1.1,2.5,2.5S681.7-147.6,680.2-147.6z
					 M680.2-152c-1,0-1.8,0.8-1.8,1.9s0.8,1.9,1.8,1.9c1,0,1.8-0.8,1.8-1.9C682-151.2,681.2-152,680.2-152z"/>
				<path class="st8" d="M684.8-147.7h-0.7v-4.8h0.7v0.8c0.3-0.5,0.8-0.9,1.7-0.9c1.2,0,1.8,0.8,1.8,1.9v3h-0.7v-2.8
					c0-0.9-0.5-1.4-1.3-1.4c-0.8,0-1.4,0.6-1.4,1.5L684.8-147.7L684.8-147.7z"/>
			</g>
			<g>
				<path class="st8" d="M655.5-136.1h-1.6v2.3h-0.7v-6.5h2.4c1.5,0,2.4,0.8,2.4,2.1C658.1-136.8,656.9-136.1,655.5-136.1z
					 M655.6-139.6h-1.7v2.9h1.6c1.1,0,1.8-0.6,1.8-1.4C657.3-139.1,656.6-139.6,655.6-139.6z"/>
				<path class="st8" d="M659.6-137.7l-0.2-0.6c0.5-0.2,1-0.4,1.8-0.4c1.3,0,2,0.7,2,1.9v2.9h-0.7v-0.7c-0.3,0.4-0.9,0.8-1.7,0.8
					c-0.9,0-1.8-0.5-1.8-1.5c0-1,0.8-1.6,2.1-1.6c0.6,0,1,0.1,1.5,0.2v-0.2c0-0.9-0.5-1.3-1.4-1.3
					C660.5-138,660.1-137.9,659.6-137.7z M659.7-135.2c0,0.6,0.6,1,1.2,1c0.9,0,1.6-0.5,1.6-1.3v-0.5c-0.3-0.1-0.8-0.2-1.4-0.2
					C660.2-136.2,659.7-135.8,659.7-135.2z"/>
				<path class="st8" d="M665.6-133.8h-0.7v-4.8h0.7v1.3c0.3-0.8,1-1.4,2-1.3v0.8h-0.1c-1,0-1.9,0.8-1.9,2.2L665.6-133.8
					L665.6-133.8z"/>
				<path class="st8" d="M673-133.8h-0.9l-1.7-2.2l-1,1v1.3h-0.7v-6.8h0.7v4.7l2.6-2.7h0.9l-2,2.1L673-133.8z"/>
			</g>
			<polygon class="st8" points="522.1,780.8 518.2,776.9 518.2,775 521.4,778.2 521.4,772.7 522.8,772.7 522.8,778.2 526,775 
				526,776.9 			"/>
			<g>
				<path class="st9" d="M671.7-250.7h0.6v7.4h-0.8v-6.5l-1.4,0.4l-0.2-0.7L671.7-250.7z"/>
				<path class="st9" d="M673.5-250.6h5v0.6l-3.3,6.7h-0.9l3.3-6.6h-4V-250.6z"/>
			</g>
			<path class="st8" d="M666.9-246.7c0,4.3,3.5,7.9,7.9,7.9c4.3,0,7.9-3.5,7.9-7.9s-3.5-7.9-7.9-7.9S666.9-251.1,666.9-246.7"/>
			<g>
				<path class="st10" d="M671.7-250.7h0.6v7.4h-0.8v-6.5l-1.4,0.4l-0.2-0.7L671.7-250.7z"/>
				<path class="st10" d="M673.5-250.6h5v0.6l-3.3,6.7h-0.9l3.3-6.6h-4V-250.6z"/>
			</g>
			<path class="st11" d="M-98.7-117.2v715.7c87.8,82.5,206,133,336,133c271.1,0,490.9-219.8,490.9-490.9
				c0-271.1-219.8-490.9-490.9-490.9C107.3-250.2-10.9-199.7-98.7-117.2"/>
			<g>
				<g>
					<path class="st10" d="M261.2,92.4c0,0.9-0.5,1.3-1,1.5c0.8,0.2,1.4,0.7,1.4,1.6c0,1.1-0.9,1.8-2.4,1.8h-2.9v-6.5h2.8
						C260.4,90.8,261.2,91.4,261.2,92.4z M260.5,92.5c0-0.7-0.5-1.1-1.4-1.1h-2v2.2h1.9C259.9,93.7,260.5,93.3,260.5,92.5z
						 M260.8,95.4c0-0.7-0.6-1.1-1.7-1.1H257v2.3h2.2C260.2,96.6,260.8,96.2,260.8,95.4z"/>
					<path class="st10" d="M263.7,97.3H263v-4.8h0.7v1.3c0.4-0.8,1-1.4,2-1.3v0.8h-0.1c-1,0-1.9,0.8-1.9,2.2L263.7,97.3L263.7,97.3z
						"/>
					<path class="st10" d="M268.9,96.8c0.7,0,1.1-0.3,1.5-0.7l0.5,0.4c-0.5,0.5-1.1,0.9-2,0.9c-1.3,0-2.4-1-2.4-2.5
						c0-1.4,1-2.5,2.3-2.5c1.4,0,2.2,1.1,2.2,2.6c0,0.1,0,0.1,0,0.2h-3.8C267.3,96.2,268,96.8,268.9,96.8z M270.3,94.6
						c-0.1-0.9-0.6-1.6-1.5-1.6c-0.8,0-1.5,0.7-1.6,1.6H270.3z"/>
					<path class="st10" d="M273,97.3h-0.7v-4.8h0.7v0.8c0.3-0.5,0.8-0.9,1.6-0.9c1.2,0,1.8,0.8,1.8,1.9v3h-0.7v-2.8
						c0-0.9-0.5-1.4-1.3-1.4c-0.8,0-1.4,0.6-1.4,1.5V97.3z"/>
					<path class="st10" d="M279,95.9c0,0.6,0.3,0.8,0.8,0.8c0.2,0,0.5-0.1,0.7-0.2v0.6c-0.2,0.1-0.5,0.2-0.9,0.2
						c-0.8,0-1.4-0.4-1.4-1.4v-2.9h-0.7v-0.6h0.7V91h0.7v1.4h1.5v0.6H279L279,95.9L279,95.9z"/>
					<path class="st10" d="M286.7,96.3l1.3-3.9h0.7l-1.7,4.8h-0.6l-1.3-3.8l-1.3,3.8h-0.6l-1.7-4.8h0.8l1.3,3.9l1.3-3.9h0.6
						L286.7,96.3z"/>
					<path class="st10" d="M292.1,97.4c-1.4,0-2.5-1.1-2.5-2.5s1.1-2.5,2.5-2.5c1.4,0,2.5,1.1,2.5,2.5S293.5,97.4,292.1,97.4z
						 M292.1,93c-1,0-1.8,0.8-1.8,1.9s0.8,1.9,1.8,1.9c1,0,1.8-0.8,1.8-1.9C293.9,93.8,293.1,93,292.1,93z"/>
					<path class="st10" d="M298.1,97.4c-1.4,0-2.5-1.1-2.5-2.5s1.1-2.5,2.5-2.5c1.4,0,2.5,1.1,2.5,2.5S299.6,97.4,298.1,97.4z
						 M298.1,93c-1,0-1.8,0.8-1.8,1.9s0.8,1.9,1.8,1.9c1,0,1.8-0.8,1.8-1.9C299.9,93.8,299.1,93,298.1,93z"/>
					<path class="st10" d="M305.9,97.3v-1c-0.4,0.6-1,1.1-1.8,1.1c-1.1,0-2.3-0.9-2.3-2.5c0-1.6,1.1-2.5,2.3-2.5
						c0.9,0,1.5,0.5,1.8,1v-2.9h0.7v6.8C306.6,97.3,305.9,97.3,305.9,97.3z M304.1,93c-0.9,0-1.7,0.7-1.7,1.9c0,1.2,0.8,1.9,1.7,1.9
						c0.9,0,1.7-0.7,1.7-1.9C305.9,93.8,305,93,304.1,93z"/>
					<path class="st10" d="M313.6,97.3h-0.7v-5.8h-2.2v-0.7h5.1v0.7h-2.2V97.3z"/>
					<path class="st10" d="M319.3,97.4c-1.4,0-2.5-1.1-2.5-2.5s1.1-2.5,2.5-2.5c1.4,0,2.5,1.1,2.5,2.5S320.7,97.4,319.3,97.4z
						 M319.3,93c-1,0-1.8,0.8-1.8,1.9s0.8,1.9,1.8,1.9c1,0,1.8-0.8,1.8-1.9C321.1,93.8,320.3,93,319.3,93z"/>
					<path class="st10" d="M327.9,96.3l1.3-3.9h0.7l-1.7,4.8h-0.6l-1.3-3.8l-1.3,3.8h-0.6l-1.7-4.8h0.8l1.3,3.9l1.3-3.9h0.6
						L327.9,96.3z"/>
					<path class="st10" d="M331.9,97.3h-0.7v-4.8h0.7v0.8c0.3-0.5,0.8-0.9,1.6-0.9c1.2,0,1.8,0.8,1.8,1.9v3h-0.7v-2.8
						c0-0.9-0.5-1.4-1.3-1.4c-0.8,0-1.4,0.6-1.4,1.5V97.3z"/>
					<path class="st10" d="M266,107.4c-1.9,0-3.3-1.5-3.3-3.4c0-1.9,1.4-3.4,3.3-3.4c1.2,0,1.9,0.4,2.5,1l-0.5,0.5
						c-0.5-0.5-1.2-0.9-2-0.9c-1.4,0-2.5,1.2-2.5,2.7s1.1,2.7,2.5,2.7c0.9,0,1.5-0.3,2.1-0.9l0.5,0.5
						C267.9,106.9,267.1,107.4,266,107.4z"/>
					<path class="st10" d="M271.9,106.8c0.7,0,1.1-0.3,1.5-0.7l0.5,0.4c-0.5,0.5-1.1,0.9-2,0.9c-1.3,0-2.4-1-2.4-2.5
						c0-1.4,1-2.5,2.3-2.5c1.4,0,2.2,1.1,2.2,2.6c0,0.1,0,0.1,0,0.2h-3.8C270.3,106.2,271,106.8,271.9,106.8z M273.3,104.6
						c-0.1-0.9-0.6-1.6-1.5-1.6c-0.8,0-1.5,0.7-1.6,1.6H273.3z"/>
					<path class="st10" d="M276,107.3h-0.7v-4.8h0.7v0.8c0.3-0.5,0.8-0.9,1.6-0.9c1.2,0,1.8,0.8,1.8,1.9v3h-0.7v-2.8
						c0-0.9-0.5-1.4-1.3-1.4c-0.8,0-1.4,0.6-1.4,1.5V107.3z"/>
					<path class="st10" d="M282,105.9c0,0.6,0.3,0.8,0.8,0.8c0.2,0,0.5-0.1,0.7-0.2v0.6c-0.2,0.1-0.5,0.2-0.9,0.2
						c-0.8,0-1.4-0.4-1.4-1.4v-2.9h-0.7v-0.6h0.7V101h0.7v1.4h1.5v0.6H282L282,105.9L282,105.9z"/>
					<path class="st10" d="M285.6,107.3h-0.7v-4.8h0.7v1.3c0.4-0.8,1-1.4,2-1.3v0.8h-0.1c-1,0-1.9,0.8-1.9,2.2L285.6,107.3
						L285.6,107.3z"/>
					<path class="st10" d="M290.8,106.8c0.7,0,1.1-0.3,1.5-0.7l0.5,0.4c-0.5,0.5-1.1,0.9-2,0.9c-1.3,0-2.4-1-2.4-2.5
						c0-1.4,1-2.5,2.3-2.5c1.4,0,2.2,1.1,2.2,2.6c0,0.1,0,0.1,0,0.2h-3.8C289.2,106.2,289.9,106.8,290.8,106.8z M292.2,104.6
						c-0.1-0.9-0.6-1.6-1.5-1.6c-0.8,0-1.5,0.7-1.6,1.6H292.2z"/>
					<path class="st10" d="M299.5,103.7c1.5,0.3,2.1,0.8,2.1,1.8c0,1.1-0.9,1.8-2.2,1.8c-1,0-1.9-0.3-2.7-1l0.5-0.5
						c0.7,0.6,1.3,0.9,2.2,0.9c0.9,0,1.5-0.5,1.5-1.1c0-0.6-0.3-1-1.7-1.2c-1.5-0.3-2.2-0.8-2.2-1.9c0-1,0.9-1.8,2.1-1.8
						c1,0,1.6,0.3,2.3,0.8L301,102c-0.6-0.5-1.2-0.7-1.9-0.7c-0.9,0-1.4,0.5-1.4,1.1C297.7,103,298,103.3,299.5,103.7z"/>
					<path class="st10" d="M304,105.9c0,0.6,0.3,0.8,0.8,0.8c0.2,0,0.5-0.1,0.7-0.2v0.6c-0.2,0.1-0.5,0.2-0.9,0.2
						c-0.8,0-1.4-0.4-1.4-1.4v-2.9h-0.7v-0.6h0.7V101h0.7v1.4h1.5v0.6H304L304,105.9L304,105.9z"/>
					<path class="st10" d="M307.1,103.4l-0.2-0.6c0.5-0.2,1-0.4,1.8-0.4c1.3,0,2,0.7,2,1.9v2.9H310v-0.7c-0.3,0.4-0.9,0.8-1.7,0.8
						c-0.9,0-1.8-0.5-1.8-1.5c0-1,0.8-1.6,2.1-1.6c0.6,0,1,0.1,1.5,0.2v-0.2c0-0.9-0.5-1.3-1.4-1.3C308,103,307.5,103.2,307.1,103.4
						z M307.2,105.8c0,0.6,0.6,1,1.2,1c0.9,0,1.6-0.5,1.6-1.3V105c-0.4-0.1-0.8-0.2-1.4-0.2C307.7,104.8,307.2,105.2,307.2,105.8z"
						/>
					<path class="st10" d="M313.2,105.9c0,0.6,0.3,0.8,0.8,0.8c0.2,0,0.5-0.1,0.7-0.2v0.6c-0.2,0.1-0.5,0.2-0.9,0.2
						c-0.8,0-1.4-0.4-1.4-1.4v-2.9h-0.7v-0.6h0.7V101h0.7v1.4h1.5v0.6h-1.5L313.2,105.9L313.2,105.9z"/>
					<path class="st10" d="M316,101.4v-0.8h0.8v0.8H316z M316.1,107.3v-4.8h0.7v4.8H316.1z"/>
					<path class="st10" d="M320.7,107.4c-1.4,0-2.5-1.1-2.5-2.5s1.1-2.5,2.5-2.5c1.4,0,2.5,1.1,2.5,2.5S322.1,107.4,320.7,107.4z
						 M320.7,103c-1,0-1.8,0.8-1.8,1.9s0.8,1.9,1.8,1.9c1,0,1.8-0.8,1.8-1.9C322.5,103.8,321.7,103,320.7,103z"/>
					<path class="st10" d="M325.2,107.3h-0.7v-4.8h0.7v0.8c0.3-0.5,0.8-0.9,1.6-0.9c1.2,0,1.8,0.8,1.8,1.9v3H328v-2.8
						c0-0.9-0.5-1.4-1.3-1.4c-0.8,0-1.4,0.6-1.4,1.5V107.3z"/>
				</g>
			</g>
			<g>
				<g>
					<path class="st10" d="M64,167.5c-2,0-3.3-1.5-3.3-3.4c0-1.8,1.3-3.4,3.3-3.4c1.1,0,1.8,0.3,2.4,0.9l-0.5,0.6
						c-0.5-0.4-1.1-0.7-2-0.7c-1.4,0-2.5,1.2-2.5,2.7c0,1.6,1,2.7,2.6,2.7c0.7,0,1.4-0.3,1.9-0.6v-1.6h-2v-0.7h2.7v2.6
						C66,167,65.1,167.5,64,167.5z"/>
					<path class="st10" d="M68.2,161.5v-0.8H69v0.8H68.2z M68.2,167.4v-4.8H69v4.8H68.2z"/>
					<path class="st10" d="M70.7,167.4v-6.8h0.7v6.8H70.7z"/>
					<path class="st10" d="M78.6,162.4c1.1,0,1.8,0.7,1.8,1.9v3h-0.7v-2.8c0-0.9-0.5-1.4-1.2-1.4c-0.7,0-1.3,0.5-1.3,1.5v2.8h-0.7
						v-2.8c0-0.9-0.5-1.4-1.2-1.4s-1.3,0.6-1.3,1.5v2.8h-0.7v-4.8h0.7v0.8c0.3-0.5,0.7-0.9,1.6-0.9c0.8,0,1.3,0.4,1.5,1
						C77.3,162.9,77.8,162.4,78.6,162.4z"/>
					<path class="st10" d="M84.2,167.5c-1.4,0-2.5-1.1-2.5-2.5s1.1-2.5,2.5-2.5c1.4,0,2.5,1.1,2.5,2.5S85.7,167.5,84.2,167.5z
						 M84.2,163.1c-1,0-1.8,0.8-1.8,1.9s0.8,1.9,1.8,1.9c1,0,1.8-0.8,1.8-1.9C86,163.9,85.2,163.1,84.2,163.1z"/>
					<path class="st10" d="M88.8,167.4H88v-4.8h0.7v1.3c0.3-0.8,1.1-1.4,2-1.3v0.8h-0.1c-1.1,0-1.9,0.8-1.9,2.2L88.8,167.4
						L88.8,167.4z"/>
					<path class="st10" d="M94,166.8c0.7,0,1.1-0.3,1.5-0.7l0.4,0.4c-0.5,0.5-1.1,0.9-2,0.9c-1.3,0-2.4-1-2.4-2.5
						c0-1.4,1-2.5,2.3-2.5c1.4,0,2.2,1.1,2.2,2.6c0,0.1,0,0.1,0,0.2h-3.8C92.4,166.2,93.1,166.8,94,166.8z M95.4,164.7
						c-0.1-0.9-0.6-1.6-1.5-1.6c-0.8,0-1.5,0.7-1.6,1.6H95.4z"/>
					<path class="st10" d="M64.9,173.7c1.4,0.3,2.1,0.9,2.1,1.9c0,1.1-0.9,1.9-2.2,1.9c-1,0-1.9-0.3-2.7-1l0.5-0.5
						c0.7,0.6,1.3,0.9,2.2,0.9c0.9,0,1.4-0.5,1.4-1.1c0-0.6-0.3-1-1.7-1.2c-1.5-0.3-2.2-0.8-2.2-1.9c0-1,0.9-1.8,2.1-1.8
						c0.9,0,1.6,0.3,2.3,0.8l-0.4,0.6c-0.6-0.5-1.2-0.7-1.9-0.7c-0.8,0-1.4,0.5-1.4,1.1C63.2,173.1,63.5,173.4,64.9,173.7z"/>
					<path class="st10" d="M69.4,176c0,0.6,0.3,0.8,0.8,0.8c0.2,0,0.4-0.1,0.7-0.2v0.6c-0.2,0.1-0.5,0.2-0.9,0.2
						c-0.8,0-1.4-0.4-1.4-1.4v-2.9H68v-0.6h0.7v-1.4h0.7v1.4H71v0.6h-1.5C69.4,173.2,69.4,176,69.4,176z"/>
					<path class="st10" d="M72.5,173.5l-0.2-0.6c0.5-0.2,1.1-0.4,1.8-0.4c1.3,0,2.1,0.7,2.1,1.9v2.9h-0.7v-0.7
						c-0.3,0.4-0.9,0.8-1.7,0.8c-0.9,0-1.8-0.5-1.8-1.5c0-1,0.8-1.6,2.1-1.6c0.6,0,1.1,0.1,1.5,0.2v-0.2c0-0.9-0.5-1.3-1.4-1.3
						C73.4,173.1,73,173.2,72.5,173.5z M72.6,175.9c0,0.6,0.6,1,1.2,1c0.9,0,1.6-0.5,1.6-1.3v-0.5c-0.3-0.1-0.8-0.2-1.4-0.2
						C73.1,174.9,72.6,175.3,72.6,175.9z"/>
					<path class="st10" d="M78.6,176c0,0.6,0.3,0.8,0.8,0.8c0.2,0,0.4-0.1,0.7-0.2v0.6c-0.2,0.1-0.5,0.2-0.9,0.2
						c-0.8,0-1.4-0.4-1.4-1.4v-2.9h-0.7v-0.6h0.7v-1.4h0.7v1.4h1.5v0.6h-1.5C78.6,173.2,78.6,176,78.6,176z"/>
					<path class="st10" d="M81.5,171.5v-0.8h0.8v0.8H81.5z M81.5,177.4v-4.8h0.7v4.8H81.5z"/>
					<path class="st10" d="M86.1,177.5c-1.4,0-2.5-1.1-2.5-2.5s1.1-2.5,2.5-2.5c1.4,0,2.5,1.1,2.5,2.5S87.6,177.5,86.1,177.5z
						 M86.1,173.1c-1,0-1.8,0.8-1.8,1.9s0.8,1.9,1.8,1.9c1,0,1.8-0.8,1.8-1.9C87.9,173.9,87.2,173.1,86.1,173.1z"/>
					<path class="st10" d="M90.7,177.4H90v-4.8h0.7v0.8c0.3-0.5,0.8-0.9,1.7-0.9c1.2,0,1.8,0.8,1.8,1.9v3h-0.7v-2.8
						c0-0.9-0.5-1.4-1.3-1.4c-0.8,0-1.4,0.6-1.4,1.5C90.7,174.6,90.7,177.4,90.7,177.4z"/>
				</g>
			</g>
			<g>
				<g>
					<path class="st10" d="M542,185.8v2.9h-0.7v-6.5h0.7v2.9h3.8v-2.9h0.7v6.5h-0.7v-2.9H542z"/>
					<path class="st10" d="M550.4,188.8c-1.4,0-2.5-1.1-2.5-2.5s1.1-2.5,2.5-2.5c1.4,0,2.5,1.1,2.5,2.5S551.9,188.8,550.4,188.8z
						 M550.4,184.4c-1,0-1.8,0.8-1.8,1.9s0.8,1.9,1.8,1.9c1,0,1.8-0.8,1.8-1.9C552.2,185.3,551.5,184.4,550.4,184.4z"/>
					<path class="st10" d="M554.3,188.7v-6.8h0.7v6.8H554.3z"/>
					<path class="st10" d="M560.6,188.7v-1c-0.4,0.6-1,1.1-1.8,1.1c-1.2,0-2.3-0.9-2.3-2.5c0-1.6,1.1-2.5,2.3-2.5
						c0.9,0,1.5,0.5,1.8,1v-2.9h0.7v6.8L560.6,188.7L560.6,188.7z M558.9,184.4c-0.9,0-1.7,0.7-1.7,1.9c0,1.1,0.8,1.9,1.7,1.9
						c0.9,0,1.7-0.7,1.7-1.9C560.7,185.2,559.8,184.4,558.9,184.4z"/>
					<path class="st10" d="M565.2,188.8c-1.4,0-2.5-1.1-2.5-2.5s1.1-2.5,2.5-2.5c1.4,0,2.5,1.1,2.5,2.5S566.6,188.8,565.2,188.8z
						 M565.2,184.4c-1,0-1.8,0.8-1.8,1.9s0.8,1.9,1.8,1.9c1,0,1.8-0.8,1.8-1.9C567,185.3,566.2,184.4,565.2,184.4z"/>
					<path class="st10" d="M574.5,183.8c1.1,0,1.8,0.7,1.8,1.9v3h-0.7v-2.8c0-0.9-0.5-1.4-1.2-1.4c-0.7,0-1.3,0.5-1.3,1.5v2.8h-0.7
						v-2.8c0-0.9-0.5-1.4-1.2-1.4s-1.3,0.6-1.3,1.5v2.8H569v-4.8h0.7v0.8c0.3-0.5,0.7-0.9,1.5-0.9c0.8,0,1.3,0.4,1.5,1
						C573.2,184.2,573.7,183.8,574.5,183.8z"/>
					<path class="st10" d="M583.2,185.1c1.5,0.3,2.1,0.9,2.1,1.9c0,1.1-0.9,1.9-2.2,1.9c-1,0-1.9-0.3-2.7-1l0.5-0.5
						c0.7,0.6,1.3,0.9,2.2,0.9c0.9,0,1.5-0.5,1.5-1.1c0-0.6-0.3-1-1.7-1.2c-1.5-0.3-2.2-0.8-2.2-1.9c0-1,0.9-1.8,2.1-1.8
						c1,0,1.6,0.3,2.3,0.8l-0.4,0.6c-0.6-0.5-1.2-0.7-1.9-0.7c-0.8,0-1.4,0.5-1.4,1.1C581.4,184.5,581.7,184.8,583.2,185.1z"/>
					<path class="st10" d="M587.7,187.4c0,0.6,0.3,0.8,0.8,0.8c0.2,0,0.5-0.1,0.7-0.2v0.6c-0.2,0.1-0.5,0.2-0.9,0.2
						c-0.8,0-1.4-0.4-1.4-1.4v-2.9h-0.7v-0.6h0.7v-1.4h0.7v1.4h1.5v0.6h-1.5V187.4z"/>
					<path class="st10" d="M590.8,184.8l-0.2-0.6c0.5-0.2,1-0.4,1.8-0.4c1.3,0,2,0.7,2,1.9v2.9h-0.7V188c-0.3,0.4-0.9,0.8-1.7,0.8
						c-0.9,0-1.8-0.5-1.8-1.5c0-1,0.8-1.6,2.1-1.6c0.6,0,1,0.1,1.5,0.2v-0.2c0-0.9-0.5-1.3-1.4-1.3
						C591.7,184.5,591.2,184.6,590.8,184.8z M590.9,187.3c0,0.6,0.6,1,1.2,1c0.9,0,1.6-0.5,1.6-1.3v-0.5c-0.3-0.1-0.8-0.2-1.4-0.2
						C591.4,186.3,590.9,186.7,590.9,187.3z"/>
					<path class="st10" d="M596.9,187.4c0,0.6,0.3,0.8,0.8,0.8c0.2,0,0.5-0.1,0.7-0.2v0.6c-0.2,0.1-0.5,0.2-0.9,0.2
						c-0.8,0-1.4-0.4-1.4-1.4v-2.9h-0.7v-0.6h0.7v-1.4h0.7v1.4h1.5v0.6h-1.5V187.4z"/>
					<path class="st10" d="M599.7,182.9v-0.8h0.8v0.8H599.7z M599.8,188.7v-4.8h0.7v4.8H599.8z"/>
					<path class="st10" d="M604.4,188.8c-1.4,0-2.5-1.1-2.5-2.5s1.1-2.5,2.5-2.5c1.4,0,2.5,1.1,2.5,2.5S605.8,188.8,604.4,188.8z
						 M604.4,184.4c-1,0-1.8,0.8-1.8,1.9s0.8,1.9,1.8,1.9c1,0,1.8-0.8,1.8-1.9C606.2,185.3,605.4,184.4,604.4,184.4z"/>
					<path class="st10" d="M608.9,188.7h-0.7v-4.8h0.7v0.8c0.3-0.5,0.8-0.9,1.7-0.9c1.2,0,1.8,0.8,1.8,1.9v3h-0.7v-2.8
						c0-0.9-0.5-1.4-1.3-1.4c-0.8,0-1.4,0.6-1.4,1.5L608.9,188.7L608.9,188.7z"/>
				</g>
			</g>
			<g id="PqIrL6.tif">
				
					<image style="overflow:visible;enable-background:new    ;" width="208" height="272" id="Layer_0_1_" xlink:href="64849B2C2B13252.png"  transform="matrix(0.4952 0 0 0.4952 -639.8672 210.4203)">
				</image>
			</g>
			<g>
				<g>
					<path class="st10" d="M757.7,377.6c0,0.9-0.5,1.3-1,1.5c0.8,0.2,1.4,0.7,1.4,1.6c0,1.1-0.9,1.8-2.4,1.8h-2.9v-6.5h2.8
						C756.8,375.9,757.7,376.6,757.7,377.6z M756.9,377.7c0-0.6-0.5-1.1-1.5-1.1h-2v2.2h1.9C756.3,378.9,756.9,378.5,756.9,377.7z
						 M757.3,380.6c0-0.7-0.6-1.1-1.7-1.1h-2.1v2.3h2.2C756.7,381.8,757.3,381.4,757.3,380.6z"/>
					<path class="st10" d="M762.9,377.6h0.7v4.8h-0.7v-0.8c-0.3,0.5-0.8,0.9-1.7,0.9c-1.2,0-1.8-0.8-1.8-1.9v-3h0.7v2.8
						c0,0.9,0.5,1.5,1.3,1.5c0.8,0,1.4-0.6,1.4-1.5L762.9,377.6L762.9,377.6z"/>
					<path class="st10" d="M766,382.5h-0.7v-4.8h0.7v1.3c0.3-0.8,1-1.4,2-1.3v0.8h-0.1c-1,0-1.9,0.8-1.9,2.2V382.5z"/>
					<path class="st10" d="M769.9,382.5h-0.7v-4.8h0.7v0.8c0.3-0.5,0.8-0.9,1.7-0.9c1.2,0,1.8,0.8,1.8,1.9v3h-0.7v-2.8
						c0-0.9-0.5-1.5-1.3-1.5c-0.8,0-1.5,0.6-1.5,1.5V382.5z"/>
					<path class="st10" d="M775.3,378.6l-0.2-0.6c0.5-0.2,1-0.4,1.8-0.4c1.3,0,2,0.7,2,1.9v3h-0.7v-0.7c-0.3,0.4-0.9,0.8-1.7,0.8
						c-0.9,0-1.8-0.5-1.8-1.5c0-1,0.8-1.6,2.1-1.6c0.6,0,1,0.1,1.5,0.2v-0.2c0-0.9-0.5-1.3-1.4-1.3
						C776.2,378.2,775.7,378.4,775.3,378.6z M775.4,381c0,0.6,0.6,1,1.2,1c0.9,0,1.6-0.5,1.6-1.3v-0.5c-0.3-0.1-0.8-0.2-1.4-0.2
						C775.9,380,775.4,380.4,775.4,381z"/>
					<path class="st10" d="M783.1,382.6c-0.9,0-1.5-0.5-1.8-1v0.9h-0.7v-6.8h0.7v3c0.4-0.6,1-1.1,1.8-1.1c1.2,0,2.3,0.9,2.3,2.5
						C785.4,381.6,784.2,382.6,783.1,382.6z M783,378.2c-0.9,0-1.7,0.8-1.7,1.9c0,1.1,0.8,1.9,1.7,1.9c0.9,0,1.7-0.7,1.7-1.9
						C784.6,378.9,783.9,378.2,783,378.2z"/>
					<path class="st10" d="M789.2,382.6c-0.4,1-0.9,1.4-1.6,1.4c-0.4,0-0.7-0.1-1-0.2l0.2-0.6c0.2,0.1,0.5,0.2,0.8,0.2
						c0.4,0,0.7-0.2,1-0.9l-2.2-4.8h0.8l1.8,4l1.5-4h0.8L789.2,382.6z"/>
					<path class="st10" d="M795.4,375.9h0.7v5.9h3.7v0.7h-4.4V375.9z"/>
					<path class="st10" d="M801.5,378.6l-0.2-0.6c0.5-0.2,1-0.4,1.8-0.4c1.3,0,2,0.7,2,1.9v3h-0.7v-0.7c-0.3,0.4-0.9,0.8-1.7,0.8
						c-0.9,0-1.8-0.5-1.8-1.5c0-1,0.8-1.6,2.1-1.6c0.6,0,1,0.1,1.5,0.2v-0.2c0-0.9-0.5-1.3-1.4-1.3
						C802.3,378.2,801.9,378.4,801.5,378.6z M801.5,381c0,0.6,0.6,1,1.2,1c0.9,0,1.6-0.5,1.6-1.3v-0.5c-0.3-0.1-0.8-0.2-1.4-0.2
						C802,380,801.5,380.4,801.5,381z"/>
					<path class="st10" d="M811,382.5h-0.9l-1.7-2.2l-1,1v1.3h-0.7v-6.8h0.7v4.7l2.6-2.7h0.9l-2,2.1L811,382.5z"/>
					<path class="st10" d="M814.2,382c0.7,0,1.1-0.3,1.5-0.7l0.5,0.4c-0.5,0.5-1.1,0.9-2,0.9c-1.3,0-2.4-1-2.4-2.5
						c0-1.4,1-2.5,2.3-2.5c1.4,0,2.2,1.1,2.2,2.5c0,0.1,0,0.1,0,0.2h-3.8C812.6,381.4,813.3,382,814.2,382z M815.6,379.8
						c-0.1-0.9-0.6-1.6-1.5-1.6c-0.8,0-1.5,0.7-1.6,1.6H815.6z"/>
					<path class="st10" d="M757.1,395.6l-1.9-2.5h-1.9v2.5h-0.7v-6.5h2.8c1.4,0,2.4,0.8,2.4,2c0,1.1-0.8,1.7-1.8,1.9l2,2.7
						L757.1,395.6L757.1,395.6z M755.4,389.8h-2v2.6h2c1,0,1.7-0.5,1.7-1.4C757,390.3,756.4,389.8,755.4,389.8z"/>
					<path class="st10" d="M761.5,395.1c0.7,0,1.1-0.3,1.5-0.7l0.5,0.4c-0.5,0.5-1.1,0.9-2,0.9c-1.3,0-2.4-1-2.4-2.5
						c0-1.4,1-2.5,2.3-2.5c1.4,0,2.2,1.1,2.2,2.5c0,0.1,0,0.1,0,0.2h-3.8C759.9,394.5,760.6,395.1,761.5,395.1z M762.9,393
						c-0.1-0.9-0.6-1.6-1.5-1.6c-0.8,0-1.5,0.7-1.6,1.6H762.9z"/>
					<path class="st10" d="M767.1,397.2c-0.8,0-1.5-0.2-2.2-0.7l0.3-0.6c0.5,0.4,1.2,0.6,1.8,0.6c1.1,0,1.8-0.6,1.8-1.7v-0.6
						c-0.4,0.6-1,1-1.9,1c-1.2,0-2.3-0.9-2.3-2.3c0-1.4,1.1-2.3,2.3-2.3c0.9,0,1.5,0.5,1.9,1v-0.9h0.7v4
						C769.5,396.4,768.6,397.2,767.1,397.2z M767.1,391.4c-0.9,0-1.7,0.6-1.7,1.6c0,1,0.8,1.6,1.7,1.6c0.9,0,1.8-0.6,1.8-1.6
						C768.9,392,768,391.4,767.1,391.4z"/>
					<path class="st10" d="M771.3,389.8V389h0.8v0.8H771.3z M771.3,395.6v-4.8h0.7v4.8H771.3z"/>
					<path class="st10" d="M776,395.8c-1.4,0-2.5-1.1-2.5-2.5s1.1-2.5,2.5-2.5c1.5,0,2.5,1.1,2.5,2.5S777.5,395.8,776,395.8z
						 M776,391.4c-1,0-1.8,0.8-1.8,1.9s0.8,1.9,1.8,1.9c1,0,1.8-0.8,1.8-1.9C777.8,392.2,777,391.4,776,391.4z"/>
					<path class="st10" d="M780.6,395.6h-0.7v-4.8h0.7v0.8c0.3-0.5,0.8-0.9,1.7-0.9c1.2,0,1.8,0.8,1.8,1.9v3h-0.7v-2.8
						c0-0.9-0.5-1.5-1.3-1.5c-0.8,0-1.5,0.6-1.5,1.5V395.6z"/>
					<path class="st10" d="M786,391.8l-0.2-0.6c0.5-0.2,1-0.4,1.8-0.4c1.3,0,2,0.7,2,1.9v3h-0.7v-0.7c-0.3,0.4-0.9,0.8-1.7,0.8
						c-0.9,0-1.8-0.5-1.8-1.5c0-1,0.8-1.6,2.1-1.6c0.6,0,1,0.1,1.5,0.2v-0.2c0-0.9-0.5-1.3-1.4-1.3
						C786.9,391.4,786.5,391.5,786,391.8z M786.1,394.2c0,0.6,0.6,1,1.2,1c0.9,0,1.6-0.5,1.6-1.3v-0.5c-0.3-0.1-0.8-0.2-1.4-0.2
						C786.6,393.2,786.1,393.6,786.1,394.2z"/>
					<path class="st10" d="M791.3,395.6v-6.8h0.7v6.8H791.3z"/>
					<path class="st10" d="M799.2,393.3h-1.6v2.3h-0.7v-6.5h2.4c1.5,0,2.4,0.8,2.4,2.1C801.7,392.6,800.5,393.3,799.2,393.3z
						 M799.2,389.8h-1.7v2.9h1.6c1.1,0,1.8-0.6,1.8-1.4C801,390.3,800.3,389.8,799.2,389.8z"/>
					<path class="st10" d="M803.3,391.8l-0.2-0.6c0.5-0.2,1-0.4,1.8-0.4c1.3,0,2,0.7,2,1.9v3h-0.7v-0.7c-0.3,0.4-0.9,0.8-1.7,0.8
						c-0.9,0-1.8-0.5-1.8-1.5c0-1,0.8-1.6,2.1-1.6c0.6,0,1,0.1,1.5,0.2v-0.2c0-0.9-0.5-1.3-1.4-1.3
						C804.2,391.4,803.8,391.5,803.3,391.8z M803.4,394.2c0,0.6,0.6,1,1.2,1c0.9,0,1.6-0.5,1.6-1.3v-0.5c-0.3-0.1-0.8-0.2-1.4-0.2
						C803.9,393.2,803.4,393.6,803.4,394.2z"/>
					<path class="st10" d="M809.2,395.6h-0.7v-4.8h0.7v1.3c0.3-0.8,1-1.4,2-1.3v0.8h-0.1c-1,0-1.9,0.8-1.9,2.2V395.6z"/>
					<path class="st10" d="M816.7,395.6h-0.9l-1.7-2.2l-1,1v1.3h-0.7v-6.8h0.7v4.7l2.6-2.7h0.9l-2,2.1L816.7,395.6z"/>
				</g>
			</g>
			<g>
				<g>
					<path class="st10" d="M375.6,639.5h-4v2.3h3.5v0.7h-3.5v2.8h-0.7v-6.5h4.7L375.6,639.5L375.6,639.5z"/>
					<path class="st10" d="M379.2,645.4c-1.4,0-2.5-1.1-2.5-2.5s1.1-2.5,2.5-2.5c1.4,0,2.5,1.1,2.5,2.5S380.7,645.4,379.2,645.4z
						 M379.2,641c-1,0-1.8,0.8-1.8,1.9s0.8,1.9,1.8,1.9c1,0,1.8-0.8,1.8-1.9C381,641.9,380.2,641,379.2,641z"/>
					<path class="st10" d="M383.9,645.3h-0.7v-4.8h0.7v1.3c0.4-0.8,1-1.4,2-1.3v0.8h-0.1c-1,0-1.9,0.8-1.9,2.2L383.9,645.3
						L383.9,645.3z"/>
					<path class="st10" d="M389.1,644.8c0.7,0,1.1-0.3,1.5-0.7l0.5,0.4c-0.5,0.5-1.1,0.9-2,0.9c-1.3,0-2.4-1-2.4-2.5
						c0-1.4,1-2.5,2.3-2.5c1.4,0,2.2,1.1,2.2,2.5c0,0.1,0,0.1,0,0.2h-3.8C387.6,644.2,388.3,644.8,389.1,644.8z M390.6,642.7
						c-0.1-0.9-0.6-1.6-1.5-1.6c-0.8,0-1.5,0.7-1.6,1.6H390.6z"/>
					<path class="st10" d="M394.2,645.4c-0.7,0-1.5-0.3-2-0.7l0.4-0.5c0.5,0.4,1.1,0.6,1.7,0.6c0.6,0,1-0.3,1-0.8v0
						c0-0.5-0.6-0.7-1.2-0.8c-0.8-0.2-1.6-0.5-1.6-1.4v0c0-0.8,0.7-1.4,1.6-1.4c0.6,0,1.2,0.2,1.7,0.5l-0.3,0.5
						c-0.5-0.3-1-0.5-1.4-0.5c-0.6,0-0.9,0.3-0.9,0.7v0c0,0.5,0.6,0.6,1.2,0.8c0.7,0.2,1.5,0.5,1.5,1.4v0
						C396,644.9,395.2,645.4,394.2,645.4z"/>
					<path class="st10" d="M398.4,644c0,0.6,0.3,0.8,0.8,0.8c0.2,0,0.5,0,0.7-0.2v0.6c-0.2,0.1-0.5,0.2-0.9,0.2
						c-0.8,0-1.4-0.4-1.4-1.4v-2.9H397v-0.6h0.7v-1.5h0.7v1.5h1.5v0.6h-1.5L398.4,644L398.4,644z"/>
					<path class="st10" d="M404.3,638.8h0.7v5.8h3.7v0.7h-4.4L404.3,638.8L404.3,638.8z"/>
					<path class="st10" d="M410.3,641.4l-0.2-0.6c0.5-0.2,1-0.4,1.8-0.4c1.3,0,2,0.7,2,1.9v2.9h-0.7v-0.7c-0.3,0.4-0.9,0.8-1.7,0.8
						c-0.9,0-1.8-0.5-1.8-1.5c0-1,0.8-1.6,2.1-1.6c0.6,0,1,0.1,1.5,0.2v-0.2c0-0.9-0.5-1.3-1.4-1.3
						C411.2,641.1,410.7,641.2,410.3,641.4z M410.4,643.9c0,0.6,0.6,1,1.2,1c0.9,0,1.6-0.5,1.6-1.3v-0.5c-0.4-0.1-0.8-0.2-1.4-0.2
						C410.9,642.9,410.4,643.3,410.4,643.9z"/>
					<path class="st10" d="M420.3,644.4l1.3-3.9h0.7l-1.7,4.8H420l-1.3-3.8l-1.3,3.8h-0.6l-1.7-4.8h0.8l1.3,3.9l1.3-3.9h0.6
						L420.3,644.4z"/>
					<path class="st10" d="M424.3,645.3h-0.7v-4.8h0.7v0.8c0.3-0.5,0.8-0.9,1.6-0.9c1.2,0,1.8,0.8,1.8,1.9v3h-0.7v-2.8
						c0-0.9-0.5-1.5-1.3-1.5c-0.8,0-1.4,0.6-1.4,1.5V645.3z"/>
					<path class="st10" d="M371.9,653h-4v2.3h3.5v0.7h-3.5v2.8h-0.7v-6.5h4.7L371.9,653L371.9,653z"/>
					<path class="st10" d="M376.7,654h0.7v4.8h-0.7V658c-0.3,0.5-0.8,0.9-1.6,0.9c-1.2,0-1.8-0.8-1.8-1.9v-3h0.7v2.8
						c0,0.9,0.5,1.5,1.3,1.5c0.8,0,1.4-0.6,1.4-1.5V654z"/>
					<path class="st10" d="M379.8,658.8h-0.7V654h0.7v0.8c0.3-0.5,0.8-0.9,1.6-0.9c1.2,0,1.8,0.8,1.8,1.9v3h-0.7V656
						c0-0.9-0.5-1.5-1.3-1.5c-0.8,0-1.4,0.6-1.4,1.5V658.8z"/>
					<path class="st10" d="M387.1,658.3c0.7,0,1.1-0.3,1.5-0.7l0.5,0.4c-0.5,0.5-1.1,0.9-2,0.9c-1.3,0-2.4-1-2.4-2.5
						c0-1.4,1-2.5,2.3-2.5c1.4,0,2.2,1.1,2.2,2.5c0,0.1,0,0.1,0,0.2h-3.8C385.5,657.7,386.2,658.3,387.1,658.3z M388.5,656.2
						c-0.1-0.9-0.6-1.6-1.5-1.6c-0.8,0-1.5,0.7-1.6,1.6H388.5z"/>
					<path class="st10" d="M391.3,658.8h-0.7V654h0.7v1.3c0.4-0.8,1-1.4,2-1.3v0.8h-0.1c-1,0-1.9,0.8-1.9,2.2L391.3,658.8
						L391.3,658.8z"/>
					<path class="st10" d="M394.7,654.9l-0.2-0.6c0.5-0.2,1-0.4,1.8-0.4c1.3,0,2,0.7,2,1.9v2.9h-0.7v-0.7c-0.3,0.4-0.9,0.8-1.7,0.8
						c-0.9,0-1.8-0.5-1.8-1.5c0-1,0.8-1.6,2.1-1.6c0.6,0,1,0.1,1.5,0.2v-0.2c0-0.9-0.5-1.3-1.4-1.3
						C395.6,654.6,395.1,654.7,394.7,654.9z M394.8,657.4c0,0.6,0.6,1,1.2,1c0.9,0,1.6-0.5,1.6-1.3v-0.5c-0.4-0.1-0.8-0.2-1.4-0.2
						C395.3,656.4,394.8,656.8,394.8,657.4z"/>
					<path class="st10" d="M400,658.8V652h0.7v6.8H400z"/>
					<path class="st10" d="M406.2,655.9v2.9h-0.7v-6.5h0.7v2.9h3.8v-2.9h0.7v6.5H410v-2.9H406.2z"/>
					<path class="st10" d="M414.7,658.9c-1.4,0-2.5-1.1-2.5-2.5s1.1-2.5,2.5-2.5c1.4,0,2.5,1.1,2.5,2.5S416.2,658.9,414.7,658.9z
						 M414.7,654.5c-1,0-1.8,0.8-1.8,1.9s0.8,1.9,1.8,1.9c1,0,1.8-0.8,1.8-1.9C416.5,655.4,415.8,654.5,414.7,654.5z"/>
					<path class="st10" d="M424.2,653.9c1.1,0,1.8,0.7,1.8,1.9v3h-0.7V656c0-0.9-0.5-1.5-1.2-1.5c-0.7,0-1.3,0.5-1.3,1.5v2.8H422
						V656c0-0.9-0.5-1.4-1.2-1.4s-1.3,0.6-1.3,1.5v2.8h-0.7V654h0.7v0.8c0.3-0.5,0.7-0.9,1.5-0.9c0.8,0,1.3,0.4,1.5,1
						C422.8,654.3,423.3,653.9,424.2,653.9z"/>
					<path class="st10" d="M429.8,658.3c0.7,0,1.1-0.3,1.5-0.7l0.5,0.4c-0.5,0.5-1.1,0.9-2,0.9c-1.3,0-2.4-1-2.4-2.5
						c0-1.4,1-2.5,2.3-2.5c1.4,0,2.2,1.1,2.2,2.5c0,0.1,0,0.1,0,0.2h-3.8C428.2,657.7,428.9,658.3,429.8,658.3z M431.1,656.2
						c-0.1-0.9-0.6-1.6-1.5-1.6c-0.8,0-1.5,0.7-1.6,1.6H431.1z"/>
				</g>
			</g>
			<g>
				<path class="st10" d="M29.7,52.7h0.6l1.8,5.5l1.9-5.4h0.8l-2.3,6.6h-0.6L30,54l-1.8,5.3h-0.6l-2.3-6.6H26l1.9,5.4L29.7,52.7z"/>
				<path class="st10" d="M36,53.4v-0.8h0.8v0.8H36z M36.1,59.2v-4.8h0.7v4.8H36.1z"/>
				<path class="st10" d="M38.5,59.2v-6.8h0.7v6.8H38.5z"/>
				<path class="st10" d="M41,59.2v-6.8h0.7v6.8H41z"/>
				<path class="st10" d="M43.5,53.4v-0.8h0.8v0.8H43.5z M43.5,59.2v-4.8h0.7v4.8H43.5z"/>
				<path class="st10" d="M46.7,59.2h-0.7v-4.8h0.7v0.8c0.3-0.5,0.8-0.9,1.7-0.9c1.2,0,1.8,0.8,1.8,1.9v3h-0.7v-2.8
					c0-0.9-0.5-1.5-1.3-1.5c-0.8,0-1.4,0.6-1.4,1.5V59.2z"/>
				<path class="st10" d="M53.9,60.8c-0.8,0-1.5-0.2-2.2-0.7l0.3-0.6c0.5,0.4,1.2,0.6,1.8,0.6c1.1,0,1.8-0.6,1.8-1.7v-0.6
					c-0.4,0.6-1,1-1.9,1c-1.2,0-2.3-0.9-2.3-2.3c0-1.4,1.1-2.3,2.3-2.3c0.9,0,1.5,0.5,1.9,1v-0.9h0.7v4C56.3,60,55.4,60.8,53.9,60.8
					z M53.9,55c-0.9,0-1.7,0.6-1.7,1.6c0,1,0.8,1.7,1.7,1.7c0.9,0,1.8-0.7,1.8-1.6C55.7,55.6,54.8,55,53.9,55z"/>
				<path class="st10" d="M61.9,59.2v-1c-0.4,0.6-1,1.1-1.8,1.1c-1.2,0-2.3-0.9-2.3-2.5c0-1.6,1.1-2.5,2.3-2.5c0.9,0,1.5,0.5,1.8,1
					v-2.9h0.7v6.8H61.9z M60.2,55c-0.9,0-1.7,0.7-1.7,1.9c0,1.1,0.8,1.9,1.7,1.9c0.9,0,1.7-0.7,1.7-1.9C61.9,55.7,61.1,55,60.2,55z"
					/>
				<path class="st10" d="M66.5,59.4c-1.4,0-2.5-1.1-2.5-2.5s1.1-2.5,2.5-2.5c1.4,0,2.5,1.1,2.5,2.5S68,59.4,66.5,59.4z M66.5,55
					c-1,0-1.8,0.8-1.8,1.9s0.8,1.9,1.8,1.9c1,0,1.8-0.8,1.8-1.9C68.3,55.8,67.6,55,66.5,55z"/>
				<path class="st10" d="M71.2,59.2h-0.7v-4.8h0.7v0.8c0.3-0.5,0.8-0.9,1.7-0.9c1.2,0,1.8,0.8,1.8,1.9v3h-0.7v-2.8
					c0-0.9-0.5-1.5-1.3-1.5c-0.8,0-1.4,0.6-1.4,1.5C71.2,56.5,71.2,59.2,71.2,59.2z"/>
				<path class="st10" d="M79.8,56.3v2.9h-0.7v-6.5h0.7v2.9h3.8v-2.9h0.7v6.5h-0.7v-2.9H79.8z"/>
				<path class="st10" d="M87.1,57.9c0,0.6,0.3,0.8,0.8,0.8c0.2,0,0.4,0,0.7-0.2v0.6c-0.2,0.1-0.5,0.2-0.9,0.2
					c-0.8,0-1.4-0.4-1.4-1.4v-2.9h-0.7v-0.6h0.7V53h0.7v1.5h1.5v0.6h-1.5C87.1,55.1,87.1,57.9,87.1,57.9z"/>
				<path class="st10" d="M91.7,59.3c-0.7,0-1.4-0.3-2-0.7l0.4-0.5c0.5,0.4,1.1,0.6,1.7,0.6c0.6,0,1-0.3,1-0.8v0
					c0-0.5-0.6-0.7-1.2-0.8c-0.8-0.2-1.6-0.5-1.6-1.4v0c0-0.8,0.7-1.4,1.6-1.4c0.6,0,1.2,0.2,1.7,0.5L93,55.4
					c-0.4-0.3-1-0.5-1.4-0.5c-0.6,0-0.9,0.3-0.9,0.7v0c0,0.5,0.6,0.6,1.2,0.8c0.7,0.2,1.6,0.5,1.6,1.4v0
					C93.4,58.8,92.6,59.3,91.7,59.3z"/>
				<path class="st10" d="M52.2,70.4h-1.6v2.3h-0.7v-6.5h2.4c1.5,0,2.4,0.8,2.4,2.1C54.7,69.7,53.5,70.4,52.2,70.4z M52.2,66.9h-1.7
					v2.9h1.6c1.1,0,1.8-0.6,1.8-1.4C54,67.4,53.3,66.9,52.2,66.9z"/>
				<path class="st10" d="M56.3,68.9L56,68.3c0.5-0.2,1-0.4,1.8-0.4c1.3,0,2,0.7,2,1.9v2.9h-0.7V72c-0.3,0.4-0.9,0.8-1.7,0.8
					c-0.9,0-1.8-0.5-1.8-1.5c0-1,0.8-1.6,2.1-1.6c0.6,0,1,0.1,1.5,0.2v-0.2c0-0.9-0.5-1.3-1.4-1.3C57.2,68.5,56.7,68.7,56.3,68.9z
					 M56.3,71.3c0,0.6,0.6,1,1.2,1c0.9,0,1.6-0.5,1.6-1.3v-0.5c-0.3-0.1-0.8-0.2-1.4-0.2C56.8,70.3,56.3,70.7,56.3,71.3z"/>
				<path class="st10" d="M62.2,72.8h-0.7v-4.8h0.7v1.3c0.3-0.8,1-1.4,2-1.3v0.8h-0.1c-1,0-1.9,0.8-1.9,2.2L62.2,72.8L62.2,72.8z"/>
				<path class="st10" d="M69.6,72.8h-0.9L67,70.5l-1,1v1.3h-0.7V66H66v4.7l2.6-2.7h0.9l-2,2L69.6,72.8z"/>
			</g>
			<g>
				<g>
					<path class="st10" d="M317.8,30.1c0,0.9-0.5,1.3-1,1.5c0.8,0.2,1.4,0.7,1.4,1.6c0,1.1-0.9,1.8-2.4,1.8h-2.9v-6.5h2.8
						C316.9,28.5,317.8,29.1,317.8,30.1z M317,30.2c0-0.6-0.5-1.1-1.4-1.1h-2v2.2h1.9C316.4,31.4,317,31,317,30.2z M317.4,33.2
						c0-0.7-0.6-1.1-1.7-1.1h-2.1v2.3h2.2C316.8,34.3,317.4,33.9,317.4,33.2z"/>
					<path class="st10" d="M320.2,35h-0.7v-4.8h0.7v1.3c0.4-0.8,1-1.4,2-1.3v0.8h-0.1c-1,0-1.9,0.8-1.9,2.2L320.2,35L320.2,35z"/>
					<path class="st10" d="M325.4,34.5c0.7,0,1.1-0.3,1.5-0.7l0.5,0.4c-0.5,0.5-1.1,0.9-2,0.9c-1.3,0-2.4-1-2.4-2.5
						c0-1.4,1-2.5,2.3-2.5c1.4,0,2.2,1.1,2.2,2.6c0,0.1,0,0.1,0,0.2h-3.8C323.8,33.9,324.6,34.5,325.4,34.5z M326.8,32.3
						c-0.1-0.9-0.6-1.6-1.5-1.6c-0.8,0-1.5,0.7-1.6,1.6H326.8z"/>
					<path class="st10" d="M329.6,35h-0.7v-4.8h0.7V31c0.3-0.5,0.8-0.9,1.6-0.9c1.2,0,1.8,0.8,1.8,1.9v3h-0.7v-2.8
						c0-0.9-0.5-1.5-1.3-1.5c-0.8,0-1.4,0.6-1.4,1.5V35z"/>
					<path class="st10" d="M335.6,33.6c0,0.6,0.3,0.8,0.8,0.8c0.2,0,0.5,0,0.7-0.2v0.6c-0.2,0.1-0.5,0.2-0.9,0.2
						c-0.8,0-1.4-0.4-1.4-1.4v-2.9h-0.7v-0.6h0.7v-1.5h0.7v1.5h1.5v0.6h-1.5L335.6,33.6L335.6,33.6z"/>
					<path class="st10" d="M343.2,34l1.3-3.9h0.7l-1.7,4.8h-0.6l-1.3-3.8l-1.3,3.8h-0.6l-1.7-4.9h0.8L340,34l1.3-3.9h0.6L343.2,34z"
						/>
					<path class="st10" d="M348.6,35.1c-1.4,0-2.5-1.1-2.5-2.5c0-1.4,1.1-2.5,2.5-2.5c1.4,0,2.5,1.1,2.5,2.5
						C351.2,33.9,350.1,35.1,348.6,35.1z M348.6,30.7c-1,0-1.8,0.8-1.8,1.9c0,1,0.8,1.9,1.8,1.9c1,0,1.8-0.8,1.8-1.9
						C350.4,31.5,349.7,30.7,348.6,30.7z"/>
					<path class="st10" d="M354.7,35.1c-1.4,0-2.5-1.1-2.5-2.5c0-1.4,1.1-2.5,2.5-2.5c1.4,0,2.5,1.1,2.5,2.5
						C357.2,33.9,356.1,35.1,354.7,35.1z M354.7,30.7c-1,0-1.8,0.8-1.8,1.9c0,1,0.8,1.9,1.8,1.9c1,0,1.8-0.8,1.8-1.9
						C356.5,31.5,355.7,30.7,354.7,30.7z"/>
					<path class="st10" d="M362.4,35v-1c-0.4,0.6-1,1.1-1.8,1.1c-1.1,0-2.3-0.9-2.3-2.5c0-1.6,1.1-2.5,2.3-2.5c0.9,0,1.5,0.5,1.8,1
						v-2.9h0.7V35H362.4z M360.7,30.7c-0.9,0-1.7,0.7-1.7,1.9c0,1.1,0.8,1.9,1.7,1.9c0.9,0,1.7-0.7,1.7-1.9
						C362.4,31.5,361.6,30.7,360.7,30.7z"/>
					<path class="st10" d="M330.8,42.7h-1.6V45h-0.7v-6.5h2.4c1.5,0,2.4,0.8,2.4,2.1C333.4,42,332.2,42.7,330.8,42.7z M330.9,39.2
						h-1.6V42h1.6c1.1,0,1.8-0.6,1.8-1.4C332.6,39.6,331.9,39.2,330.9,39.2z"/>
					<path class="st10" d="M334.9,41.1l-0.2-0.6c0.5-0.2,1-0.4,1.8-0.4c1.3,0,2,0.7,2,1.9V45h-0.7v-0.7c-0.3,0.4-0.9,0.8-1.7,0.8
						c-0.9,0-1.8-0.5-1.8-1.5c0-1,0.8-1.6,2.1-1.6c0.6,0,1,0.1,1.5,0.2V42c0-0.9-0.5-1.3-1.4-1.3C335.8,40.7,335.3,40.9,334.9,41.1z
						 M335,43.5c0,0.6,0.6,1,1.2,1c0.9,0,1.6-0.5,1.6-1.3v-0.5c-0.4-0.1-0.8-0.2-1.4-0.2C335.5,42.5,335,42.9,335,43.5z"/>
					<path class="st10" d="M340.7,45H340v-4.8h0.7v1.3c0.4-0.8,1-1.4,2-1.3v0.8h-0.1c-1,0-1.9,0.8-1.9,2.2L340.7,45L340.7,45z"/>
					<path class="st10" d="M348.1,45h-0.9l-1.7-2.2l-1,1V45h-0.7v-6.8h0.7v4.7l2.6-2.7h0.9l-2,2.1L348.1,45z"/>
				</g>
			</g>
			<g>
				<g>
					<path class="st10" d="M434-28.6c0,0.9-0.5,1.3-1,1.5c0.8,0.2,1.4,0.7,1.4,1.6c0,1.1-0.9,1.8-2.4,1.8h-2.9v-6.5h2.8
						C433.2-30.2,434-29.5,434-28.6z M433.3-28.5c0-0.6-0.5-1.1-1.4-1.1h-2v2.2h1.9C432.7-27.3,433.3-27.7,433.3-28.5z M433.7-25.5
						c0-0.7-0.6-1.1-1.7-1.1h-2.1v2.3h2.2C433.1-24.3,433.7-24.8,433.7-25.5z"/>
					<path class="st10" d="M437.9-24.2c0.7,0,1.1-0.3,1.5-0.7l0.5,0.4c-0.5,0.5-1.1,0.9-2,0.9c-1.3,0-2.4-1-2.4-2.5
						c0-1.4,1-2.5,2.3-2.5c1.4,0,2.2,1.1,2.2,2.5c0,0.1,0,0.1,0,0.2h-3.8C436.3-24.8,437.1-24.2,437.9-24.2z M439.3-26.3
						c-0.1-0.9-0.6-1.6-1.5-1.6c-0.8,0-1.5,0.7-1.6,1.6H439.3z"/>
					<path class="st10" d="M443.5-24.2c0.7,0,1.1-0.3,1.5-0.7l0.5,0.4c-0.5,0.5-1.1,0.9-2,0.9c-1.3,0-2.4-1-2.4-2.5
						c0-1.4,1-2.5,2.3-2.5c1.4,0,2.2,1.1,2.2,2.5c0,0.1,0,0.1,0,0.2h-3.8C441.9-24.8,442.6-24.2,443.5-24.2z M444.9-26.3
						c-0.1-0.9-0.6-1.6-1.5-1.6c-0.8,0-1.5,0.7-1.6,1.6H444.9z"/>
					<path class="st10" d="M449-23.6c-1.4,0-2.5-1.1-2.5-2.5c0-1.4,1.1-2.5,2.5-2.5c0.9,0,1.5,0.4,1.9,0.9l-0.5,0.5
						c-0.4-0.4-0.8-0.7-1.5-0.7c-1,0-1.7,0.8-1.7,1.9c0,1,0.8,1.9,1.8,1.9c0.6,0,1.1-0.3,1.5-0.7l0.5,0.4
						C450.5-24,449.9-23.6,449-23.6z"/>
					<path class="st10" d="M452.9-23.7h-0.7v-6.8h0.7v2.8c0.3-0.5,0.8-0.9,1.6-0.9c1.2,0,1.8,0.8,1.8,1.9v3h-0.7v-2.8
						c0-0.9-0.5-1.5-1.3-1.5c-0.8,0-1.4,0.6-1.4,1.5V-23.7z"/>
					<path class="st10" d="M460.1-24.2c0.7,0,1.1-0.3,1.5-0.7l0.5,0.4c-0.5,0.5-1.1,0.9-2,0.9c-1.3,0-2.4-1-2.4-2.5
						c0-1.4,1-2.5,2.3-2.5c1.4,0,2.2,1.1,2.2,2.5c0,0.1,0,0.1,0,0.2h-3.8C458.5-24.8,459.2-24.2,460.1-24.2z M461.5-26.3
						c-0.1-0.9-0.6-1.6-1.5-1.6c-0.8,0-1.5,0.7-1.6,1.6H461.5z"/>
					<path class="st10" d="M464.2-23.7h-0.7v-4.8h0.7v1.3c0.4-0.8,1-1.4,2-1.3v0.8h-0.1c-1,0-1.9,0.8-1.9,2.2L464.2-23.7L464.2-23.7
						z"/>
					<path class="st10" d="M440.2-16h-1.6v2.3h-0.7v-6.5h2.4c1.5,0,2.4,0.8,2.4,2.1C442.8-16.7,441.6-16,440.2-16z M440.3-19.5h-1.6
						v2.9h1.6c1.1,0,1.8-0.6,1.8-1.4C442-19,441.3-19.5,440.3-19.5z"/>
					<path class="st10" d="M444.3-17.6l-0.2-0.6c0.5-0.2,1-0.4,1.8-0.4c1.3,0,2,0.7,2,1.9v2.9h-0.7v-0.7c-0.3,0.4-0.9,0.8-1.7,0.8
						c-0.9,0-1.8-0.5-1.8-1.5c0-1,0.8-1.6,2.1-1.6c0.6,0,1,0.1,1.5,0.2v-0.2c0-0.9-0.5-1.3-1.4-1.3
						C445.2-17.9,444.8-17.8,444.3-17.6z M444.4-15.1c0,0.6,0.6,1,1.2,1c0.9,0,1.6-0.5,1.6-1.3v-0.5c-0.4-0.1-0.8-0.2-1.4-0.2
						C444.9-16.1,444.4-15.7,444.4-15.1z"/>
					<path class="st10" d="M450.2-13.7h-0.7v-4.8h0.7v1.3c0.4-0.8,1-1.4,2-1.3v0.8h-0.1c-1,0-1.9,0.8-1.9,2.2L450.2-13.7L450.2-13.7
						z"/>
					<path class="st10" d="M457.5-13.7h-0.9l-1.7-2.2l-1,1v1.3h-0.7v-6.8h0.7v4.7l2.6-2.7h0.9l-2,2.1L457.5-13.7z"/>
				</g>
			</g>
			<g>
				<g>
					<path class="st10" d="M64.8,205c-1,0-1.6-0.5-2-1.1l0.5-0.5c0.4,0.6,0.8,0.9,1.5,0.9c0.7,0,1.3-0.5,1.3-1.6v-4.4h0.7v4.4
						C66.9,204.2,66,205,64.8,205z"/>
					<path class="st10" d="M68.5,199v-0.8h0.8v0.8H68.5z M68.6,204.9v-4.8h0.7v4.8H68.6z"/>
					<path class="st10" d="M76.5,200c1.1,0,1.8,0.7,1.8,1.9v3h-0.7v-2.8c0-0.9-0.5-1.4-1.2-1.4c-0.7,0-1.3,0.5-1.3,1.5v2.8h-0.7
						v-2.8c0-0.9-0.5-1.4-1.2-1.4s-1.3,0.6-1.3,1.5v2.8H71v-4.8h0.7v0.8c0.3-0.5,0.7-0.9,1.6-0.9c0.8,0,1.3,0.4,1.5,1
						C75.2,200.4,75.7,200,76.5,200z"/>
					<path class="st10" d="M53.6,208.4h0.7v5.8H58v0.7h-4.4L53.6,208.4L53.6,208.4z"/>
					<path class="st10" d="M61.4,215c-1.4,0-2.5-1.1-2.5-2.5s1.1-2.5,2.5-2.5c1.4,0,2.5,1.1,2.5,2.5S62.9,215,61.4,215z M61.4,210.6
						c-1,0-1.8,0.8-1.8,1.9s0.8,1.9,1.8,1.9c1,0,1.8-0.8,1.8-1.9C63.2,211.4,62.4,210.6,61.4,210.6z"/>
					<path class="st10" d="M66,214.9h-0.7v-4.8H66v1.3c0.3-0.8,1.1-1.4,2-1.3v0.8h0c-1.1,0-1.9,0.8-1.9,2.2V214.9z"/>
					<path class="st10" d="M69.1,209v-0.8h0.8v0.8H69.1z M69.1,214.9v-4.8h0.7v4.8H69.1z"/>
					<path class="st10" d="M77.1,210c1.1,0,1.8,0.7,1.8,1.9v3h-0.7v-2.8c0-0.9-0.5-1.4-1.2-1.4c-0.7,0-1.3,0.5-1.3,1.5v2.8h-0.7
						v-2.8c0-0.9-0.5-1.4-1.2-1.4s-1.3,0.6-1.3,1.5v2.8h-0.7v-4.8h0.7v0.8c0.3-0.5,0.7-0.9,1.6-0.9c0.8,0,1.3,0.4,1.5,1
						C75.7,210.4,76.2,210,77.1,210z"/>
					<path class="st10" d="M82.6,214.4c0.7,0,1.1-0.3,1.5-0.7l0.4,0.4c-0.5,0.5-1.1,0.9-2,0.9c-1.3,0-2.4-1-2.4-2.5
						c0-1.4,1-2.5,2.3-2.5c1.4,0,2.2,1.1,2.2,2.6c0,0.1,0,0.1,0,0.2h-3.8C81,213.8,81.7,214.4,82.6,214.4z M84,212.2
						c-0.1-0.9-0.6-1.6-1.5-1.6c-0.8,0-1.5,0.7-1.6,1.6H84z"/>
					<path class="st10" d="M86.7,214.9H86v-4.8h0.7v1.3c0.3-0.8,1.1-1.4,2-1.3v0.8h-0.1c-1.1,0-1.9,0.8-1.9,2.2
						C86.7,213,86.7,214.9,86.7,214.9z"/>
					<path class="st10" d="M63.7,222.6h-1.6v2.3h-0.7v-6.5h2.4c1.5,0,2.4,0.8,2.4,2.1C66.2,221.9,65,222.6,63.7,222.6z M63.7,219
						h-1.7v2.9h1.6c1.1,0,1.8-0.6,1.8-1.4C65.5,219.5,64.8,219,63.7,219z"/>
					<path class="st10" d="M67.7,221l-0.2-0.6c0.5-0.2,1.1-0.4,1.8-0.4c1.3,0,2.1,0.7,2.1,1.9v2.9h-0.7v-0.7
						c-0.3,0.4-0.9,0.8-1.7,0.8c-0.9,0-1.8-0.5-1.8-1.5c0-1,0.8-1.6,2.1-1.6c0.6,0,1.1,0.1,1.5,0.2v-0.2c0-0.9-0.5-1.3-1.4-1.3
						C68.6,220.6,68.2,220.8,67.7,221z M67.8,223.4c0,0.6,0.6,1,1.2,1c0.9,0,1.6-0.5,1.6-1.3v-0.5c-0.3-0.1-0.8-0.2-1.4-0.2
						C68.3,222.4,67.8,222.8,67.8,223.4z"/>
					<path class="st10" d="M73.6,224.9h-0.7v-4.8h0.7v1.3c0.3-0.8,1.1-1.4,2-1.3v0.8h-0.1c-1.1,0-1.9,0.8-1.9,2.2L73.6,224.9
						L73.6,224.9z"/>
					<path class="st10" d="M80.9,224.9h-0.9l-1.7-2.2l-1,1v1.3h-0.7v-6.8h0.7v4.7l2.6-2.7h0.9l-2,2.1L80.9,224.9z"/>
				</g>
			</g>
			<g>
				<g>
					<path class="st10" d="M-57.5,518.6h-0.8l-0.8-1.7h-3.5l-0.8,1.7h-0.8l3-6.6h0.7L-57.5,518.6z M-60.8,512.9l-1.5,3.3h3
						L-60.8,512.9z"/>
					<path class="st10" d="M-52.7,513.8h0.8l-2.1,4.8h-0.6l-2.1-4.8h0.8l1.6,4L-52.7,513.8z"/>
					<path class="st10" d="M-48.6,518.7c-1.4,0-2.5-1.1-2.5-2.5s1.1-2.5,2.5-2.5c1.4,0,2.5,1.1,2.5,2.5S-47.2,518.7-48.6,518.7z
						 M-48.6,514.3c-1,0-1.8,0.8-1.8,1.9s0.8,1.9,1.8,1.9c1,0,1.8-0.8,1.8-1.9C-46.8,515.1-47.6,514.3-48.6,514.3z"/>
					<path class="st10" d="M-44,518.6h-0.7v-4.8h0.7v0.8c0.3-0.5,0.8-0.9,1.7-0.9c1.2,0,1.8,0.8,1.8,1.9v3h-0.7v-2.8
						c0-0.9-0.5-1.5-1.3-1.5c-0.8,0-1.4,0.6-1.4,1.5V518.6z"/>
					<path class="st10" d="M-35.1,518.6v-1c-0.4,0.6-1,1.1-1.8,1.1c-1.2,0-2.3-0.9-2.3-2.5c0-1.6,1.2-2.5,2.3-2.5
						c0.9,0,1.5,0.5,1.8,1v-2.9h0.7v6.8L-35.1,518.6L-35.1,518.6z M-36.8,514.3c-0.9,0-1.7,0.7-1.7,1.9c0,1.1,0.8,1.9,1.7,1.9
						c0.9,0,1.7-0.8,1.7-1.9C-35.1,515-36,514.3-36.8,514.3z"/>
					<path class="st10" d="M-32.5,514.7l-0.2-0.6c0.5-0.2,1-0.4,1.8-0.4c1.3,0,2,0.7,2,1.9v2.9h-0.7v-0.7c-0.3,0.4-0.9,0.8-1.7,0.8
						c-0.9,0-1.8-0.5-1.8-1.5c0-1,0.8-1.6,2.1-1.6c0.6,0,1,0.1,1.5,0.2v-0.2c0-0.9-0.5-1.3-1.4-1.3C-31.6,514.3-32,514.5-32.5,514.7
						z M-32.4,517.1c0,0.6,0.6,1,1.2,1c0.9,0,1.6-0.5,1.6-1.3v-0.5c-0.4-0.1-0.8-0.2-1.4-0.2C-31.9,516.1-32.4,516.5-32.4,517.1z"/>
					<path class="st10" d="M-27.3,518.6v-6.8h0.7v6.8H-27.3z"/>
					<path class="st10" d="M-22.8,518c0.7,0,1.1-0.3,1.5-0.7l0.5,0.4c-0.5,0.5-1.1,0.9-2,0.9c-1.3,0-2.4-1-2.4-2.5
						c0-1.4,1-2.5,2.3-2.5c1.4,0,2.2,1.1,2.2,2.5c0,0.1,0,0.1,0,0.2h-3.8C-24.4,517.5-23.6,518-22.8,518z M-21.4,515.9
						c-0.1-0.9-0.6-1.6-1.5-1.6c-0.8,0-1.5,0.7-1.6,1.6H-21.4z"/>
					<path class="st10" d="M-49.5,526.3h-1.6v2.3h-0.7V522h2.4c1.5,0,2.4,0.8,2.4,2.1C-46.9,525.5-48.1,526.3-49.5,526.3z
						 M-49.4,522.7h-1.7v2.9h1.6c1.1,0,1.8-0.6,1.8-1.4C-47.7,523.2-48.3,522.7-49.4,522.7z"/>
					<path class="st10" d="M-45.4,524.7l-0.2-0.6c0.5-0.2,1-0.4,1.8-0.4c1.3,0,2,0.7,2,1.9v2.9h-0.7v-0.7c-0.3,0.4-0.9,0.8-1.7,0.8
						c-0.9,0-1.8-0.5-1.8-1.5c0-1,0.8-1.6,2.1-1.6c0.6,0,1,0.1,1.5,0.2v-0.2c0-0.9-0.5-1.3-1.4-1.3
						C-44.5,524.3-44.9,524.5-45.4,524.7z M-45.3,527.1c0,0.6,0.6,1,1.2,1c0.9,0,1.6-0.5,1.6-1.3v-0.5c-0.3-0.1-0.8-0.2-1.4-0.2
						C-44.8,526.1-45.3,526.5-45.3,527.1z"/>
					<path class="st10" d="M-39.5,528.6h-0.7v-4.8h0.7v1.3c0.3-0.8,1-1.4,2-1.3v0.8h-0.1c-1,0-1.9,0.8-1.9,2.2L-39.5,528.6
						L-39.5,528.6z"/>
					<path class="st10" d="M-32.2,528.6H-33l-1.7-2.2l-1,1v1.3h-0.7v-6.8h0.7v4.7l2.6-2.7h0.9l-2,2.1L-32.2,528.6z"/>
				</g>
			</g>
			<g>
				<path class="st10" d="M-80.2-267.8h-4v2.2h3.6v0.7h-3.6v2.3h4v0.7H-85v-6.5h4.7L-80.2-267.8L-80.2-267.8z"/>
				<path class="st10" d="M-72.4-262h-0.8l-0.8-1.7h-3.6l-0.8,1.7H-79l3-6.6h0.7L-72.4-262z M-75.7-267.7l-1.5,3.3h3L-75.7-267.7z"
					/>
				<path class="st10" d="M-68.6-265.6c1.4,0.3,2.1,0.9,2.1,1.9c0,1.1-0.9,1.9-2.2,1.9c-1,0-1.9-0.4-2.7-1l0.5-0.5
					c0.7,0.6,1.3,0.9,2.2,0.9c0.9,0,1.4-0.5,1.4-1.1c0-0.6-0.3-1-1.7-1.2c-1.5-0.3-2.2-0.8-2.2-1.9c0-1,0.9-1.8,2.1-1.8
					c0.9,0,1.6,0.3,2.3,0.8l-0.4,0.6c-0.6-0.5-1.2-0.7-1.9-0.7c-0.8,0-1.4,0.5-1.4,1.1C-70.4-266.2-70-265.9-68.6-265.6z"/>
				<path class="st10" d="M-62.4-262h-0.8v-5.9h-2.2v-0.7h5.1v0.7h-2.2C-62.4-267.8-62.4-262-62.4-262z"/>
				<path class="st10" d="M-55.3-264.9v2.9H-56v-6.5h0.7v2.9h3.8v-2.9h0.7v6.5h-0.7v-2.9H-55.3z"/>
				<path class="st10" d="M-42.7-262h-0.8l-0.8-1.7h-3.5l-0.8,1.7h-0.8l3-6.6h0.7L-42.7-262z M-46.1-267.7l-1.5,3.3h3L-46.1-267.7z"
					/>
				<path class="st10" d="M-39-265.6c1.5,0.3,2.1,0.9,2.1,1.9c0,1.1-0.9,1.9-2.2,1.9c-1,0-1.9-0.4-2.7-1l0.5-0.5
					c0.7,0.6,1.3,0.9,2.2,0.9c0.9,0,1.5-0.5,1.5-1.1c0-0.6-0.3-1-1.7-1.2c-1.5-0.3-2.2-0.8-2.2-1.9c0-1,0.9-1.8,2.1-1.8
					c1,0,1.6,0.3,2.3,0.8l-0.4,0.6c-0.6-0.5-1.2-0.7-1.9-0.7c-0.8,0-1.4,0.5-1.4,1.1C-40.8-266.2-40.4-265.9-39-265.6z"/>
				<path class="st10" d="M-32.8-262h-0.8v-5.9h-2.2v-0.7h5.1v0.7h-2.2C-32.8-267.8-32.8-262-32.8-262z"/>
				<path class="st10" d="M-28.4-268.5v6.5h-0.7v-6.5H-28.4z"/>
				<path class="st10" d="M-21.5-268.5h0.7v6.5h-0.6l-4.2-5.4v5.4h-0.7v-6.5h0.7l4.1,5.2C-21.5-263.3-21.5-268.5-21.5-268.5z"/>
				<path class="st10" d="M-15.7-261.9c-2.1,0-3.3-1.5-3.3-3.4c0-1.8,1.3-3.4,3.3-3.4c1.1,0,1.8,0.3,2.4,0.9l-0.5,0.6
					c-0.5-0.4-1.1-0.8-2-0.8c-1.5,0-2.5,1.2-2.5,2.7c0,1.6,1,2.7,2.6,2.7c0.8,0,1.4-0.3,1.9-0.6v-1.6h-2v-0.7h2.7v2.6
					C-13.7-262.3-14.6-261.9-15.7-261.9z"/>
				<path class="st10" d="M-9-265.6c1.4,0.3,2.1,0.9,2.1,1.9c0,1.1-0.9,1.9-2.2,1.9c-1,0-1.9-0.4-2.7-1l0.5-0.5
					c0.7,0.6,1.3,0.9,2.2,0.9c0.9,0,1.4-0.5,1.4-1.1c0-0.6-0.3-1-1.7-1.2c-1.5-0.3-2.2-0.8-2.2-1.9c0-1,0.9-1.8,2.1-1.8
					c0.9,0,1.6,0.3,2.3,0.8l-0.4,0.6c-0.6-0.5-1.2-0.7-1.9-0.7c-0.9,0-1.4,0.5-1.4,1.1C-10.7-266.2-10.4-265.9-9-265.6z"/>
				<path class="st10" d="M-0.2-265.6c1.5,0.3,2.1,0.9,2.1,1.9c0,1.1-0.9,1.9-2.2,1.9c-1,0-1.9-0.4-2.7-1l0.5-0.5
					c0.7,0.6,1.3,0.9,2.2,0.9c0.9,0,1.5-0.5,1.5-1.1c0-0.6-0.3-1-1.7-1.2c-1.5-0.3-2.2-0.8-2.2-1.9c0-1,0.9-1.8,2.1-1.8
					c0.9,0,1.6,0.3,2.3,0.8l-0.4,0.6c-0.6-0.5-1.2-0.7-1.9-0.7c-0.9,0-1.4,0.5-1.4,1.1C-2-266.2-1.6-265.9-0.2-265.6z"/>
				<path class="st10" d="M6-262H5.3v-5.9H3.1v-0.7h5.1v0.7H6V-262z"/>
			</g>
			<g>
				<path class="st10" d="M101.8-121.3h-1.6v2.3h-0.7v-6.5h2.4c1.5,0,2.4,0.8,2.4,2.1C104.4-122.1,103.2-121.3,101.8-121.3z
					 M101.9-124.9h-1.7v2.9h1.6c1.1,0,1.8-0.6,1.8-1.4C103.7-124.4,103-124.9,101.9-124.9z"/>
				<path class="st10" d="M111.4-119h-0.8l-0.8-1.7h-3.6l-0.8,1.7h-0.8l3-6.6h0.7L111.4-119z M108.1-124.8l-1.5,3.3h3L108.1-124.8z"
					/>
				<path class="st10" d="M117.3-119l-1.9-2.5h-1.9v2.5h-0.7v-6.5h2.8c1.4,0,2.3,0.8,2.3,1.9c0,1.1-0.7,1.7-1.8,1.9l2,2.7
					C118.2-119,117.3-119,117.3-119z M115.5-124.9h-2v2.6h2c1,0,1.7-0.5,1.7-1.3C117.2-124.4,116.6-124.9,115.5-124.9z"/>
				<path class="st10" d="M125.2-119h-0.9l-2.5-3.2l-1.4,1.4v1.8h-0.7v-6.5h0.7v3.9l3.7-3.9h0.9l-2.8,2.8L125.2-119z"/>
				<path class="st10" d="M131.3-124.9h-4v2.2h3.6v0.7h-3.6v2.3h4v0.7h-4.8v-6.5h4.7V-124.9z"/>
				<path class="st10" d="M137.4-119l-1.9-2.5h-1.9v2.5h-0.7v-6.5h2.8c1.4,0,2.4,0.8,2.4,1.9c0,1.1-0.7,1.7-1.8,1.9l2,2.7
					C138.3-119,137.4-119,137.4-119z M135.6-124.9h-2v2.6h2c1,0,1.7-0.5,1.7-1.3C137.3-124.4,136.7-124.9,135.6-124.9z"/>
				<path class="st10" d="M144.8-122.7c1.4,0.3,2.1,0.8,2.1,1.8c0,1.1-0.9,1.8-2.2,1.8c-1,0-1.9-0.3-2.7-1l0.5-0.5
					c0.7,0.6,1.3,0.9,2.2,0.9c0.9,0,1.4-0.5,1.4-1.1c0-0.6-0.3-1-1.7-1.2c-1.5-0.3-2.2-0.8-2.2-1.9c0-1,0.9-1.8,2.1-1.8
					c0.9,0,1.6,0.3,2.3,0.8l-0.4,0.6c-0.6-0.5-1.2-0.7-1.9-0.7c-0.9,0-1.4,0.5-1.4,1.1C143-123.3,143.3-123,144.8-122.7z"/>
				<path class="st10" d="M151-119h-0.7v-5.8H148v-0.7h5.1v0.7H151L151-119L151-119z"/>
			</g>
			<g>
				<path class="st10" d="M45.9,136.3h0.7v5.8h3.7v0.7h-4.4L45.9,136.3L45.9,136.3z"/>
				<path class="st10" d="M54.5,142.9c-2,0-3.3-1.6-3.3-3.4s1.3-3.4,3.3-3.4s3.3,1.6,3.3,3.4S56.4,142.9,54.5,142.9z M54.5,136.8
					c-1.5,0-2.5,1.2-2.5,2.7s1.1,2.7,2.6,2.7s2.5-1.2,2.5-2.7S55.9,136.8,54.5,136.8z"/>
				<path class="st10" d="M64.8,140c0,1.9-1.1,2.9-2.7,2.9c-1.6,0-2.7-1-2.7-2.8v-3.8h0.7v3.7c0,1.4,0.7,2.2,2,2.2
					c1.2,0,2-0.7,2-2.1v-3.8h0.7L64.8,140L64.8,140z"/>
				<path class="st10" d="M69.8,142.9c-2.1,0-3.3-1.5-3.3-3.4c0-1.8,1.3-3.4,3.3-3.4c1.1,0,1.8,0.3,2.4,0.9l-0.5,0.6
					c-0.5-0.4-1.1-0.7-2-0.7c-1.4,0-2.5,1.2-2.5,2.7c0,1.6,1,2.7,2.6,2.7c0.7,0,1.4-0.3,1.9-0.6V140h-2v-0.7h2.7v2.6
					C71.8,142.4,70.9,142.9,69.8,142.9z"/>
				<path class="st10" d="M75.1,139.9v2.9h-0.7v-6.5h0.7v2.9h3.8v-2.9h0.7v6.5h-0.7v-2.9H75.1z"/>
				<path class="st10" d="M86.3,136.9h-4v2.2h3.6v0.7h-3.6v2.3h4v0.7h-4.8v-6.5h4.7V136.9z"/>
				<path class="st10" d="M92.6,136.9h-4v2.2h3.6v0.7h-3.6v2.3h4v0.7h-4.8v-6.5h4.7C92.6,136.3,92.6,136.9,92.6,136.9z"/>
				<path class="st10" d="M96.5,142.8h-2.3v-6.5h2.3c2.1,0,3.5,1.4,3.5,3.2S98.5,142.8,96.5,142.8z M96.5,136.9h-1.5v5.2h1.5
					c1.7,0,2.7-1.1,2.7-2.6S98.1,136.9,96.5,136.9z"/>
				<path class="st10" d="M105,139.9v2.9h-0.7v-6.5h0.7v2.9h3.8v-2.9h0.7v6.5h-0.7v-2.9H105z"/>
				<path class="st10" d="M115.4,136.2h0.6l1.8,5.4l1.9-5.4h0.8l-2.3,6.6h-0.6l-1.8-5.3l-1.8,5.3h-0.6l-2.3-6.6h0.8l1.9,5.4
					L115.4,136.2z"/>
				<path class="st10" d="M125,142.8h-0.7v-2.6l-2.7-3.9h0.9l2.2,3.3l2.2-3.3h0.9l-2.7,3.9L125,142.8L125,142.8z"/>
			</g>
			<g>
				<path class="st10" d="M260.7,348.5h-0.7v-5.8h-2.2V342h5.1v0.7h-2.2V348.5z"/>
				<path class="st10" d="M268.8,348.5l-1.9-2.5H265v2.5h-0.7V342h2.8c1.4,0,2.4,0.8,2.4,2c0,1.1-0.7,1.7-1.8,1.9l2,2.7L268.8,348.5
					L268.8,348.5z M267.1,342.7h-2v2.6h2c1,0,1.7-0.5,1.7-1.4C268.7,343.2,268.1,342.7,267.1,342.7z"/>
				<path class="st10" d="M277.5,348.5h-0.8l-0.8-1.7h-3.5l-0.8,1.7h-0.8l3-6.6h0.7L277.5,348.5z M274.1,342.9l-1.5,3.3h3
					L274.1,342.9z"/>
				<path class="st10" d="M283.7,342h0.7v6.5h-0.6l-4.2-5.3v5.3h-0.7V342h0.7l4.1,5.2L283.7,342L283.7,342z"/>
				<path class="st10" d="M288.7,344.9c1.5,0.3,2.1,0.9,2.1,1.9c0,1.1-0.9,1.9-2.2,1.9c-1,0-1.9-0.3-2.7-1l0.5-0.5
					c0.7,0.6,1.3,0.9,2.2,0.9c0.9,0,1.5-0.5,1.5-1.1c0-0.6-0.3-1-1.7-1.2c-1.5-0.3-2.2-0.8-2.2-1.9c0-1,0.9-1.8,2.1-1.8
					c1,0,1.6,0.3,2.3,0.8l-0.4,0.6c-0.6-0.5-1.2-0.7-1.9-0.7c-0.9,0-1.4,0.5-1.4,1.1C287,344.3,287.3,344.6,288.7,344.9z"/>
				<path class="st10" d="M292.2,346.1v-0.8h2.6v0.8H292.2z"/>
				<path class="st10" d="M299.6,348.7c-1.9,0-3.3-1.5-3.3-3.4c0-1.9,1.4-3.4,3.3-3.4c1.2,0,1.9,0.4,2.5,1l-0.5,0.5
					c-0.5-0.5-1.2-0.9-2-0.9c-1.4,0-2.5,1.2-2.5,2.7s1.1,2.7,2.5,2.7c0.9,0,1.5-0.3,2.1-0.9l0.5,0.5
					C301.5,348.2,300.8,348.7,299.6,348.7z"/>
				<path class="st10" d="M309.8,348.5H309l-0.8-1.7h-3.5l-0.8,1.7h-0.8l3-6.6h0.7L309.8,348.5z M306.5,342.9l-1.5,3.3h3
					L306.5,342.9z"/>
				<path class="st10" d="M316,342h0.7v6.5h-0.6l-4.2-5.3v5.3h-0.7V342h0.7l4.1,5.2L316,342L316,342z"/>
				<path class="st10" d="M324.7,348.5h-0.8l-0.8-1.7h-3.5l-0.8,1.7h-0.8l3-6.6h0.7L324.7,348.5z M321.4,342.9l-1.5,3.3h3
					L321.4,342.9z"/>
				<path class="st10" d="M328.4,348.5h-2.3V342h2.3c2,0,3.5,1.4,3.5,3.2C331.9,347.1,330.4,348.5,328.4,348.5z M328.4,342.7h-1.5
					v5.2h1.5c1.6,0,2.7-1.1,2.7-2.6C331.1,343.9,330,342.7,328.4,342.7z"/>
				<path class="st10" d="M339.2,348.5h-0.8l-0.8-1.7h-3.5l-0.8,1.7h-0.8l3-6.6h0.7L339.2,348.5z M335.9,342.9l-1.5,3.3h3
					L335.9,342.9z"/>
				<path class="st10" d="M344,345.6v2.9h-0.7V342h0.7v2.9h3.8V342h0.7v6.5h-0.7v-2.9H344z"/>
				<path class="st10" d="M354.4,342h0.6l1.8,5.5l1.9-5.4h0.8l-2.3,6.6h-0.6l-1.8-5.3l-1.8,5.3h-0.6L350,342h0.8l1.9,5.4L354.4,342z
					"/>
				<path class="st10" d="M364,348.5h-0.7V346l-2.7-3.9h0.9l2.2,3.3l2.2-3.3h0.9L364,346L364,348.5L364,348.5z"/>
			</g>
			<g>
				<path class="st10" d="M372.5,267c1.5,0.3,2.1,0.9,2.1,1.9c0,1.1-0.9,1.9-2.2,1.9c-1,0-1.9-0.3-2.7-1l0.5-0.5
					c0.7,0.6,1.3,0.9,2.2,0.9c0.9,0,1.5-0.5,1.5-1.1c0-0.6-0.3-1-1.7-1.2c-1.5-0.3-2.2-0.8-2.2-1.9c0-1,0.9-1.8,2.1-1.8
					c1,0,1.6,0.3,2.3,0.8l-0.4,0.6c-0.6-0.5-1.2-0.7-1.9-0.7c-0.9,0-1.4,0.5-1.4,1.1C370.7,266.4,371,266.7,372.5,267z"/>
				<path class="st10" d="M378.7,270.6h-0.7v-5.8h-2.2v-0.7h5.1v0.7h-2.2V270.6z"/>
				<path class="st10" d="M383.1,264.1v6.5h-0.7v-6.5H383.1z"/>
				<path class="st10" d="M385.2,264.1h0.7v5.8h3.7v0.7h-4.4L385.2,264.1L385.2,264.1z"/>
				<path class="st10" d="M391,264.1h0.7v5.8h3.7v0.7H391L391,264.1L391,264.1z"/>
				<path class="st10" d="M402.5,270.7c-1.9,0-3.3-1.5-3.3-3.4c0-1.9,1.4-3.4,3.3-3.4c1.2,0,1.9,0.4,2.5,1l-0.5,0.5
					c-0.5-0.5-1.2-0.9-2-0.9c-1.4,0-2.5,1.2-2.5,2.7s1.1,2.7,2.5,2.7c0.9,0,1.5-0.3,2.1-0.9l0.5,0.5
					C404.5,270.3,403.7,270.7,402.5,270.7z"/>
				<path class="st10" d="M411.1,270.6l-1.9-2.5h-1.9v2.5h-0.7v-6.5h2.8c1.4,0,2.4,0.8,2.4,2c0,1.1-0.7,1.7-1.8,1.9l2,2.7
					L411.1,270.6L411.1,270.6z M409.3,264.8h-2v2.6h2c1,0,1.7-0.5,1.7-1.4C411,265.3,410.4,264.8,409.3,264.8z"/>
				<path class="st10" d="M418.2,264.8h-4v2.2h3.6v0.7h-3.6v2.3h4v0.7h-4.8v-6.5h4.7L418.2,264.8L418.2,264.8z"/>
				<path class="st10" d="M424.5,264.8h-4v2.2h3.6v0.7h-3.6v2.3h4v0.7h-4.8v-6.5h4.7L424.5,264.8L424.5,264.8z"/>
				<path class="st10" d="M431.6,270.6h-0.9l-2.5-3.2l-1.4,1.4v1.8h-0.7v-6.5h0.7v3.9l3.7-3.9h1l-2.8,2.9L431.6,270.6z"/>
				<path class="st10" d="M441.7,270.6h-0.8l-0.8-1.7h-3.5l-0.8,1.7H435l3-6.6h0.7L441.7,270.6z M438.3,264.9l-1.5,3.3h3
					L438.3,264.9z"/>
				<path class="st10" d="M447.3,264.1h0.8l-2.8,6.6h-0.6l-2.8-6.6h0.8l2.3,5.6L447.3,264.1z"/>
				<path class="st10" d="M454.2,264.8h-4v2.2h3.6v0.7h-3.6v2.3h4v0.7h-4.8v-6.5h4.7L454.2,264.8L454.2,264.8z"/>
			</g>
			<g>
				<path class="st10" d="M218.5,307.5c1.4,0.3,2.1,0.9,2.1,1.9c0,1.1-0.9,1.9-2.2,1.9c-1,0-1.9-0.3-2.7-1l0.5-0.5
					c0.7,0.6,1.3,0.9,2.2,0.9c0.9,0,1.4-0.5,1.4-1.1c0-0.6-0.3-1-1.7-1.2c-1.5-0.3-2.2-0.8-2.2-1.9c0-1,0.9-1.8,2.1-1.8
					c0.9,0,1.6,0.3,2.3,0.8l-0.4,0.6c-0.6-0.5-1.2-0.7-1.9-0.7c-0.9,0-1.4,0.5-1.4,1.1C216.8,306.9,217.1,307.2,218.5,307.5z"/>
				<path class="st10" d="M224.8,311.1H224v-5.8h-2.2v-0.7h5.1v0.7h-2.2L224.8,311.1L224.8,311.1z"/>
				<path class="st10" d="M229.2,304.6v6.5h-0.7v-6.5H229.2z"/>
				<path class="st10" d="M231.2,304.6h0.7v5.8h3.7v0.7h-4.4L231.2,304.6L231.2,304.6z"/>
				<path class="st10" d="M237.1,304.6h0.7v5.8h3.7v0.7h-4.4L237.1,304.6L237.1,304.6z"/>
				<path class="st10" d="M248.6,311.2c-1.9,0-3.3-1.5-3.3-3.4c0-1.9,1.4-3.4,3.3-3.4c1.2,0,1.9,0.4,2.5,1l-0.5,0.5
					c-0.6-0.5-1.2-0.9-2.1-0.9c-1.4,0-2.5,1.2-2.5,2.7s1.1,2.7,2.5,2.7c0.9,0,1.5-0.3,2.1-0.9l0.5,0.5
					C250.5,310.8,249.8,311.2,248.6,311.2z"/>
				<path class="st10" d="M257.1,311.1l-1.9-2.5h-1.9v2.5h-0.7v-6.5h2.8c1.4,0,2.4,0.8,2.4,2c0,1.1-0.7,1.7-1.8,1.9l2,2.7
					L257.1,311.1L257.1,311.1z M255.4,305.3h-2v2.6h2c1,0,1.7-0.5,1.7-1.4C257.1,305.8,256.5,305.3,255.4,305.3z"/>
				<path class="st10" d="M264.3,305.3h-4v2.2h3.6v0.7h-3.6v2.3h4v0.7h-4.8v-6.5h4.7L264.3,305.3L264.3,305.3z"/>
				<path class="st10" d="M270.6,305.3h-4v2.2h3.6v0.7h-3.6v2.3h4v0.7h-4.8v-6.5h4.7L270.6,305.3L270.6,305.3z"/>
				<path class="st10" d="M277.7,311.1h-0.9l-2.5-3.2l-1.4,1.4v1.8h-0.7v-6.5h0.7v3.9l3.7-3.9h1l-2.8,2.9L277.7,311.1z"/>
				<path class="st10" d="M287.7,311.1h-0.8l-0.8-1.7h-3.5l-0.8,1.7h-0.8l3-6.6h0.7L287.7,311.1z M284.4,305.4l-1.5,3.3h3
					L284.4,305.4z"/>
				<path class="st10" d="M293.4,304.6h0.8l-2.8,6.6h-0.6l-2.8-6.6h0.8l2.3,5.6L293.4,304.6z"/>
				<path class="st10" d="M300.2,305.3h-4v2.2h3.6v0.7h-3.6v2.3h4v0.7h-4.8v-6.5h4.7L300.2,305.3L300.2,305.3z"/>
			</g>
			<g>
				<path class="st10" d="M134.8,255c1.4,0.3,2.1,0.9,2.1,1.8c0,1.1-0.9,1.9-2.2,1.9c-1,0-1.9-0.3-2.7-1l0.5-0.5
					c0.7,0.6,1.3,0.9,2.2,0.9c0.9,0,1.4-0.5,1.4-1.1c0-0.6-0.3-1-1.7-1.2c-1.5-0.3-2.2-0.8-2.2-1.9c0-1,0.9-1.8,2.1-1.8
					c0.9,0,1.6,0.3,2.3,0.8l-0.4,0.6c-0.6-0.5-1.2-0.7-1.9-0.7c-0.9,0-1.4,0.5-1.4,1.1C133,254.4,133.4,254.7,134.8,255z"/>
				<path class="st10" d="M141,258.6h-0.7v-5.8h-2.2v-0.7h5.1v0.7H141V258.6z"/>
				<path class="st10" d="M145.4,252.1v6.5h-0.7v-6.5L145.4,252.1L145.4,252.1z"/>
				<path class="st10" d="M147.5,252.1h0.7v5.8h3.7v0.7h-4.4L147.5,252.1L147.5,252.1z"/>
				<path class="st10" d="M153.3,252.1h0.7v5.8h3.7v0.7h-4.4L153.3,252.1L153.3,252.1z"/>
				<path class="st10" d="M164.9,258.7c-1.9,0-3.3-1.5-3.3-3.4c0-1.9,1.4-3.4,3.3-3.4c1.2,0,1.9,0.4,2.5,1l-0.5,0.5
					c-0.6-0.5-1.2-0.9-2.1-0.9c-1.4,0-2.5,1.2-2.5,2.7c0,1.5,1.1,2.7,2.5,2.7c0.9,0,1.5-0.3,2.1-0.9l0.5,0.5
					C166.8,258.3,166,258.7,164.9,258.7z"/>
				<path class="st10" d="M173.4,258.6l-1.9-2.5h-1.9v2.5h-0.7v-6.5h2.8c1.4,0,2.4,0.8,2.4,1.9c0,1.1-0.7,1.7-1.8,1.9l2,2.7H173.4z
					 M171.7,252.8h-2v2.6h2c1,0,1.7-0.5,1.7-1.4C173.3,253.3,172.7,252.8,171.7,252.8z"/>
				<path class="st10" d="M180.5,252.8h-4v2.2h3.6v0.7h-3.6v2.3h4v0.7h-4.8v-6.5h4.7L180.5,252.8L180.5,252.8z"/>
				<path class="st10" d="M186.8,252.8h-4v2.2h3.6v0.7h-3.6v2.3h4v0.7h-4.8v-6.5h4.7L186.8,252.8L186.8,252.8z"/>
				<path class="st10" d="M194,258.6h-0.9l-2.5-3.2l-1.4,1.4v1.8h-0.7v-6.5h0.7v3.9l3.7-3.9h0.9l-2.8,2.9L194,258.6z"/>
				<path class="st10" d="M200.2,258.6h-2.3v-6.5h2.3c2.1,0,3.5,1.4,3.5,3.2C203.6,257.2,202.2,258.6,200.2,258.6z M200.2,252.8
					h-1.5v5.2h1.5c1.6,0,2.7-1.1,2.7-2.6C202.9,253.9,201.8,252.8,200.2,252.8z"/>
				<path class="st10" d="M209.8,258.6l-1.9-2.5h-1.9v2.5h-0.7v-6.5h2.8c1.4,0,2.4,0.8,2.4,1.9c0,1.1-0.7,1.7-1.8,1.9l2,2.7H209.8z
					 M208.1,252.8h-2v2.6h2c1,0,1.7-0.5,1.7-1.4C209.8,253.3,209.2,252.8,208.1,252.8z"/>
			</g>
			<g>
				<path class="st10" d="M88.3,330.8c1.4,0.3,2.1,0.9,2.1,1.9c0,1.1-0.9,1.9-2.2,1.9c-1,0-1.9-0.3-2.7-1l0.5-0.5
					c0.7,0.6,1.3,0.9,2.2,0.9c0.9,0,1.4-0.5,1.4-1.1c0-0.6-0.3-1-1.7-1.2c-1.5-0.3-2.2-0.8-2.2-1.9c0-1,0.9-1.8,2.1-1.8
					c0.9,0,1.6,0.3,2.3,0.8l-0.4,0.6c-0.6-0.5-1.2-0.7-1.9-0.7c-0.8,0-1.4,0.5-1.4,1.1C86.5,330.1,86.9,330.5,88.3,330.8z"/>
				<path class="st10" d="M94.5,334.4h-0.7v-5.8h-2.2v-0.7h5.1v0.7h-2.2V334.4z"/>
				<path class="st10" d="M98.9,327.9v6.5h-0.7v-6.5H98.9z"/>
				<path class="st10" d="M101,327.9h0.7v5.8h3.7v0.7H101V327.9z"/>
				<path class="st10" d="M106.8,327.9h0.7v5.8h3.7v0.7h-4.4L106.8,327.9L106.8,327.9z"/>
				<path class="st10" d="M118.4,334.5c-1.9,0-3.3-1.5-3.3-3.4c0-1.9,1.4-3.4,3.3-3.4c1.2,0,1.9,0.4,2.5,1l-0.5,0.5
					c-0.6-0.5-1.2-0.9-2.1-0.9c-1.4,0-2.5,1.2-2.5,2.7s1.1,2.7,2.5,2.7c0.9,0,1.5-0.3,2.1-0.9l0.5,0.5
					C120.3,334,119.6,334.5,118.4,334.5z"/>
				<path class="st10" d="M126.9,334.4l-1.9-2.5h-1.9v2.5h-0.7v-6.5h2.8c1.4,0,2.3,0.8,2.3,2c0,1.1-0.7,1.7-1.8,1.9l2,2.7
					L126.9,334.4L126.9,334.4z M125.2,328.5h-2v2.6h2c1,0,1.7-0.5,1.7-1.4C126.8,329,126.2,328.5,125.2,328.5z"/>
				<path class="st10" d="M134.1,328.5h-4v2.2h3.6v0.7h-3.6v2.3h4v0.7h-4.8v-6.5h4.7L134.1,328.5L134.1,328.5z"/>
				<path class="st10" d="M140.4,328.5h-4v2.2h3.6v0.7h-3.6v2.3h4v0.7h-4.8v-6.5h4.7L140.4,328.5L140.4,328.5z"/>
				<path class="st10" d="M147.5,334.4h-0.9l-2.5-3.2l-1.4,1.4v1.8h-0.7v-6.5h0.7v3.9l3.7-3.9h0.9l-2.8,2.9L147.5,334.4z"/>
				<path class="st10" d="M153.7,334.4h-2.3v-6.5h2.3c2.1,0,3.5,1.4,3.5,3.2C157.2,333,155.7,334.4,153.7,334.4z M153.7,328.5h-1.5
					v5.2h1.5c1.6,0,2.7-1.1,2.7-2.6C156.4,329.7,155.3,328.5,153.7,328.5z"/>
				<path class="st10" d="M163.4,334.4l-1.9-2.5h-1.9v2.5h-0.7v-6.5h2.8c1.4,0,2.4,0.8,2.4,2c0,1.1-0.7,1.7-1.8,1.9l2,2.7
					L163.4,334.4L163.4,334.4z M161.6,328.5h-2v2.6h2c1,0,1.7-0.5,1.7-1.4C163.3,329,162.7,328.5,161.6,328.5z"/>
			</g>
			<g>
				<path class="st10" d="M92.1,195.4h-2.3v-6.5h2.3c2.1,0,3.5,1.4,3.5,3.2S94.1,195.4,92.1,195.4z M92.1,189.5h-1.5v5.2h1.5
					c1.7,0,2.7-1.1,2.7-2.6S93.7,189.5,92.1,189.5z"/>
				<path class="st10" d="M102.9,195.4h-0.8l-0.8-1.7h-3.6l-0.8,1.7h-0.8l3-6.6h0.7L102.9,195.4z M99.6,189.6l-1.5,3.3h3L99.6,189.6
					z"/>
				<path class="st10" d="M107.7,188.8h0.6l1.8,5.4l1.9-5.4h0.8l-2.3,6.6h-0.6l-1.8-5.3l-1.8,5.3h-0.6l-2.3-6.6h0.8l1.9,5.4
					L107.7,188.8z"/>
				<path class="st10" d="M116.4,191.7c1.4,0.3,2.1,0.9,2.1,1.9c0,1.1-0.9,1.9-2.2,1.9c-1,0-1.9-0.3-2.7-1l0.5-0.5
					c0.7,0.6,1.3,0.9,2.2,0.9c0.9,0,1.4-0.5,1.4-1.1c0-0.6-0.3-1-1.7-1.2c-1.5-0.3-2.2-0.8-2.2-1.9c0-1,0.9-1.8,2.1-1.8
					c0.9,0,1.6,0.3,2.3,0.8l-0.4,0.6c-0.6-0.5-1.2-0.7-1.9-0.7c-0.8,0-1.4,0.5-1.4,1.1C114.6,191.1,114.9,191.4,116.4,191.7z"/>
				<path class="st10" d="M123.1,195.5c-2,0-3.3-1.6-3.3-3.4s1.3-3.4,3.3-3.4s3.3,1.6,3.3,3.4S125.1,195.5,123.1,195.5z
					 M123.1,189.4c-1.5,0-2.6,1.2-2.6,2.7s1.1,2.7,2.6,2.7s2.6-1.2,2.6-2.7S124.6,189.4,123.1,189.4z"/>
				<path class="st10" d="M132.9,188.8h0.7v6.5h-0.6l-4.2-5.3v5.3h-0.7v-6.5h0.7l4.1,5.2L132.9,188.8L132.9,188.8z"/>
				<path class="st10" d="M140.6,191.7c1.4,0.3,2.1,0.9,2.1,1.9c0,1.1-0.9,1.9-2.2,1.9c-1,0-1.9-0.3-2.7-1l0.5-0.5
					c0.7,0.6,1.3,0.9,2.2,0.9c0.9,0,1.4-0.5,1.4-1.1c0-0.6-0.3-1-1.7-1.2c-1.5-0.3-2.2-0.8-2.2-1.9c0-1,0.9-1.8,2.1-1.8
					c0.9,0,1.6,0.3,2.3,0.8l-0.4,0.6c-0.6-0.5-1.2-0.7-1.9-0.7c-0.9,0-1.4,0.5-1.4,1.1C138.9,191.1,139.2,191.4,140.6,191.7z"/>
				<path class="st10" d="M146.9,195.4h-0.7v-5.8h-2.2v-0.7h5.1v0.7h-2.2L146.9,195.4L146.9,195.4z"/>
			</g>
			<g>
				<path class="st10" d="M328.4,157.2c-0.9,0-1.3-0.5-1.5-1c-0.2,0.8-0.7,1.4-1.6,1.4c-1.1,0-1.8-0.9-1.8-2.4v-2.9h6.5v2.8
					C330,156.4,329.4,157.2,328.4,157.2z M325.3,156.8c0.7,0,1.1-0.6,1.1-1.7V153h-2.3v2.2C324.2,156.2,324.6,156.8,325.3,156.8z
					 M328.3,156.4c0.6,0,1.1-0.5,1.1-1.4v-2h-2.2v1.9C327.1,155.8,327.5,156.4,328.3,156.4z"/>
				<path class="st10" d="M329.3,164v-4h-2.2v3.6h-0.7V160h-2.3v4h-0.7v-4.8h6.5v4.7L329.3,164L329.3,164z"/>
				<path class="st10" d="M323.5,168.2v-0.7h5.8v-2.2h0.7v5.1h-0.7v-2.2L323.5,168.2L323.5,168.2z"/>
				<path class="st10" d="M323.5,177.1v-0.8l1.7-0.8V172l-1.7-0.8v-0.8l6.6,3v0.7L323.5,177.1z M329.2,173.8l-3.3-1.5v3L329.2,173.8
					z"/>
				<path class="st10" d="M323.5,187.2v-0.8l1.7-0.8v-3.6l-1.7-0.8v-0.8l6.6,3v0.7L323.5,187.2z M329.2,183.9l-3.3-1.5v3
					L329.2,183.9z"/>
				<path class="st10" d="M330,192.8v0.8l-6.6-2.8v-0.6l6.6-2.8v0.8l-5.6,2.3L330,192.8z"/>
				<path class="st10" d="M329.3,199.8v-4h-2.2v3.6h-0.7v-3.6h-2.3v4h-0.7V195h6.5v4.7L329.3,199.8L329.3,199.8z"/>
			</g>
			<g>
				<path class="st10" d="M276.6,156.7v-0.8l1.7-0.8v-3.6l-1.7-0.8v-0.8l6.6,3v0.7L276.6,156.7z M282.3,153.4l-3.3-1.5v3
					L282.3,153.4z"/>
				<path class="st10" d="M283.1,158.1v0.7h-5.8v3.7h-0.7v-4.4L283.1,158.1L283.1,158.1z"/>
				<path class="st10" d="M278.9,166.3v-1.6h-2.3v-0.7h6.5v2.4c0,1.5-0.8,2.4-2.1,2.4C279.6,168.8,278.9,167.6,278.9,166.3z
					 M282.4,166.3v-1.6h-2.9v1.6c0,1.1,0.6,1.8,1.4,1.8C281.9,168.1,282.4,167.4,282.4,166.3z"/>
				<path class="st10" d="M279.5,171h-2.9v-0.7h6.5v0.7h-2.9v3.8h2.9v0.7h-6.5v-0.7h2.9V171z"/>
				<path class="st10" d="M276.6,183.5v-0.8l1.7-0.8v-3.6l-1.7-0.8v-0.8l6.6,3v0.7L276.6,183.5z M282.3,180.2l-3.3-1.5v3
					L282.3,180.2z"/>
				<path class="st10" d="M276.6,193.7v-0.8l1.7-0.8v-3.6l-1.7-0.8v-0.8l6.6,3v0.7L276.6,193.7z M282.3,190.4l-3.3-1.5v3
					L282.3,190.4z"/>
				<path class="st10" d="M283.1,199.3v0.8l-6.6-2.8v-0.6l6.6-2.8v0.8l-5.6,2.3L283.1,199.3z"/>
				<path class="st10" d="M282.4,206.2v-4h-2.2v3.6h-0.7v-3.6h-2.3v4h-0.7v-4.8h6.5v4.7L282.4,206.2L282.4,206.2z"/>
			</g>
			<g>
				<path class="st10" d="M38.7-198.4c0-2.1,1.5-3.3,3.4-3.3c1.8,0,3.4,1.3,3.4,3.3c0,1.1-0.3,1.8-0.9,2.4l-0.6-0.5
					c0.4-0.5,0.7-1.1,0.7-2c0-1.4-1.2-2.5-2.7-2.5c-1.6,0-2.7,1-2.7,2.6c0,0.7,0.3,1.4,0.7,1.9h1.6v-2h0.7v2.7h-2.6
					C39.2-196.4,38.7-197.4,38.7-198.4z"/>
				<path class="st10" d="M45.3-193.2h-6.5v-0.7h6.5V-193.2z"/>
				<path class="st10" d="M45.3-191.1v0.7h-5.8v3.7h-0.7v-4.4L45.3-191.1L45.3-191.1z"/>
				<path class="st10" d="M40.6-182.1L40.6-182.1l3.5-2.4h-5.3v-0.7h6.5v0.7l-3.6,2.4l3.6,2.4v0.7h-6.5v-0.7h5.3L40.6-182.1z"/>
				<path class="st10" d="M38.7-174c0-2,1.5-3.3,3.4-3.3s3.4,1.4,3.4,3.3s-1.5,3.3-3.4,3.3S38.7-172,38.7-174z M44.8-174
					c0-1.5-1.2-2.6-2.7-2.6s-2.7,1.1-2.7,2.6s1.2,2.6,2.7,2.6S44.8-172.5,44.8-174z"/>
				<path class="st10" d="M38.8-164.4l2.5-1.9v-1.9h-2.5v-0.7h6.5v2.8c0,1.4-0.8,2.4-2,2.4c-1.1,0-1.7-0.7-1.9-1.8l-2.7,2V-164.4z
					 M44.6-166.1v-2H42v2c0,1,0.5,1.7,1.3,1.7C44.2-164.5,44.6-165.1,44.6-166.1z"/>
				<path class="st10" d="M44.7-157.2v-4h-2.2v3.6h-0.7v-3.6h-2.3v4h-0.7v-4.8h6.5v4.7L44.7-157.2L44.7-157.2z"/>
				<path class="st10" d="M38.8-146.9v-0.8l1.7-0.8v-3.6l-1.7-0.8v-0.8l6.6,3v0.7L38.8-146.9z M44.5-150.2l-3.3-1.5v3L44.5-150.2z"
					/>
				<path class="st10" d="M45.3-141.2v0.8l-6.6-2.8v-0.6l6.6-2.8v0.8l-5.6,2.3L45.3-141.2z"/>
				<path class="st10" d="M44.7-134.4v-4h-2.2v3.6h-0.7v-3.6h-2.3v4h-0.7v-4.8h6.5v4.7L44.7-134.4L44.7-134.4z"/>
			</g>
			<g>
				<path class="st10" d="M237.9-206.4v0.6l-5.4,1.8l5.4,1.9v0.8l-6.6-2.3v-0.6l5.3-1.8l-5.3-1.8v-0.6l6.6-2.3v0.8l-5.4,1.9
					L237.9-206.4z"/>
				<path class="st10" d="M237.8-199.2h-6.5v-0.7h6.5V-199.2z"/>
				<path class="st10" d="M237.8-197.1v0.7H232v3.7h-0.7v-4.4L237.8-197.1L237.8-197.1z"/>
				<path class="st10" d="M237.8-191.3v0.7H232v3.7h-0.7v-4.4L237.8-191.3L237.8-191.3z"/>
				<path class="st10" d="M237.8-184.7h-6.5v-0.7h6.5V-184.7z"/>
				<path class="st10" d="M237.8-177.8v0.7h-6.5v-0.6l5.3-4.2h-5.3v-0.7h6.5v0.7l-5.2,4.1L237.8-177.8L237.8-177.8z"/>
				<path class="st10" d="M231.2-172c0-2.1,1.5-3.3,3.4-3.3c1.8,0,3.4,1.3,3.4,3.3c0,1.1-0.3,1.8-0.9,2.4l-0.6-0.5
					c0.4-0.5,0.7-1.1,0.7-2c0-1.4-1.2-2.5-2.7-2.5c-1.6,0-2.7,1-2.7,2.6c0,0.7,0.3,1.4,0.6,1.9h1.6v-2h0.7v2.7h-2.6
					C231.7-170,231.2-170.9,231.2-172z"/>
				<path class="st10" d="M231.3-165.3v-2.3h6.5v2.3c0,2.1-1.4,3.5-3.2,3.5S231.3-163.2,231.3-165.3z M237.1-165.3v-1.5H232v1.5
					c0,1.6,1.1,2.7,2.6,2.7S237.1-163.6,237.1-165.3z"/>
				<path class="st10" d="M231.2-157.1c0-2,1.6-3.3,3.4-3.3s3.4,1.4,3.4,3.3s-1.6,3.3-3.4,3.3S231.2-155.1,231.2-157.1z
					 M237.3-157.1c0-1.5-1.2-2.6-2.7-2.6s-2.7,1.1-2.7,2.6s1.2,2.6,2.7,2.6S237.3-155.6,237.3-157.1z"/>
				<path class="st10" d="M237.8-147.2v0.7h-6.5v-0.6l5.3-4.2h-5.3v-0.7h6.5v0.7l-5.2,4.1L237.8-147.2L237.8-147.2z"/>
				<path class="st10" d="M231.3-135.8v-0.8l1.7-0.8v-3.6l-1.7-0.8v-0.8l6.6,3v0.7L231.3-135.8z M237-139.1l-3.3-1.5v3L237-139.1z"
					/>
				<path class="st10" d="M237.8-130.2v0.8l-6.6-2.8v-0.6l6.6-2.8v0.8l-5.6,2.3L237.8-130.2z"/>
				<path class="st10" d="M237.2-123.3v-4h-2.2v3.6h-0.7v-3.6H232v4h-0.7v-4.8h6.5v4.7C237.8-123.3,237.2-123.3,237.2-123.3z"/>
			</g>
			<g>
				<path class="st10" d="M216.8,508.1v0.6l-5.4,1.8l5.4,1.9v0.8l-6.6-2.3v-0.6l5.3-1.8l-5.3-1.8V506l6.6-2.3v0.8l-5.4,1.9
					L216.8,508.1z"/>
				<path class="st10" d="M216.8,515.4h-6.5v-0.7h6.5V515.4z"/>
				<path class="st10" d="M216.8,517.5v0.7H211v3.7h-0.7v-4.4L216.8,517.5L216.8,517.5z"/>
				<path class="st10" d="M216.8,523.3v0.7H211v3.7h-0.7v-4.4L216.8,523.3L216.8,523.3z"/>
				<path class="st10" d="M216.8,529.9h-6.5v-0.7h6.5V529.9z"/>
				<path class="st10" d="M216.8,536.8v0.7h-6.5v-0.6l5.3-4.2h-5.3V532h6.5v0.7l-5.2,4.1L216.8,536.8L216.8,536.8z"/>
				<path class="st10" d="M210.2,542.5c0-2,1.5-3.3,3.4-3.3c1.8,0,3.4,1.3,3.4,3.3c0,1.1-0.3,1.8-0.9,2.4l-0.6-0.5
					c0.4-0.5,0.7-1.1,0.7-2c0-1.4-1.2-2.5-2.7-2.5c-1.6,0-2.7,1-2.7,2.6c0,0.7,0.3,1.4,0.6,1.9h1.6v-2h0.7v2.7h-2.6
					C210.6,544.5,210.2,543.6,210.2,542.5z"/>
				<path class="st10" d="M210.3,549.3V547h6.5v2.3c0,2-1.4,3.5-3.2,3.5C211.7,552.8,210.3,551.4,210.3,549.3z M216.1,549.3v-1.5
					H211v1.5c0,1.7,1.1,2.7,2.6,2.7C215,552,216.1,551,216.1,549.3z"/>
				<path class="st10" d="M210.2,557.5c0-2,1.6-3.3,3.4-3.3s3.4,1.3,3.4,3.3c0,2-1.6,3.3-3.4,3.3
					C211.8,560.8,210.2,559.5,210.2,557.5z M216.2,557.5c0-1.5-1.2-2.5-2.7-2.5s-2.7,1.1-2.7,2.6s1.2,2.5,2.7,2.5
					S216.2,559,216.2,557.5z"/>
				<path class="st10" d="M216.8,567.3v0.7h-6.5v-0.6l5.3-4.2h-5.3v-0.7h6.5v0.7l-5.2,4.1L216.8,567.3L216.8,567.3z"/>
				<path class="st10" d="M210.3,578.8V578l1.7-0.8v-3.5l-1.7-0.8v-0.8l6.6,3v0.7L210.3,578.8z M216,575.4l-3.3-1.5v3L216,575.4z"/>
				<path class="st10" d="M216.8,584.4v0.8l-6.6-2.8v-0.7l6.6-2.8v0.8l-5.6,2.3L216.8,584.4z"/>
				<path class="st10" d="M216.1,591.3v-4h-2.2v3.6h-0.7v-3.6H211v4h-0.7v-4.8h6.5v4.7L216.1,591.3L216.1,591.3z"/>
			</g>
			<g>
				<path class="st10" d="M419.2-170.9v-2.3h6.5v2.3c0,2.1-1.4,3.5-3.2,3.5S419.2-168.9,419.2-170.9z M425.1-170.9v-1.5h-5.2v1.5
					c0,1.6,1.1,2.7,2.6,2.7S425.1-169.3,425.1-170.9z"/>
				<path class="st10" d="M425.1-161.1v-4h-2.2v3.6h-0.7v-3.6h-2.3v4h-0.7v-4.8h6.5v4.7L425.1-161.1L425.1-161.1z"/>
				<path class="st10" d="M425.8-159.5v0.7h-5.8v3.7h-0.7v-4.4L425.8-159.5L425.8-159.5z"/>
				<path class="st10" d="M419.2-152v-0.7h5.8v-2.2h0.7v5.1h-0.7v-2.2L419.2-152L419.2-152z"/>
				<path class="st10" d="M419.2-143.1v-0.8l1.7-0.8v-3.6l-1.7-0.8v-0.8l6.6,3v0.7L419.2-143.1z M425-146.4l-3.3-1.5v3L425-146.4z"
					/>
				<path class="st10" d="M419.2-132.9v-0.8l1.7-0.8v-3.6l-1.7-0.8v-0.8l6.6,3v0.7L419.2-132.9z M425-136.2l-3.3-1.5v3L425-136.2z"
					/>
				<path class="st10" d="M425.8-127.3v0.8l-6.6-2.8v-0.6l6.6-2.8v0.8l-5.6,2.3L425.8-127.3z"/>
				<path class="st10" d="M425.1-120.4v-4h-2.2v3.6h-0.7v-3.6h-2.3v4h-0.7v-4.8h6.5v4.7C425.8-120.4,425.1-120.4,425.1-120.4z"/>
			</g>
			<g>
				<path class="st10" d="M493-12.9c-0.3,1.4-0.9,2.1-1.9,2.1c-1.1,0-1.9-0.9-1.9-2.2c0-1,0.3-1.9,1-2.7l0.5,0.5
					c-0.6,0.7-0.9,1.3-0.9,2.2c0,0.9,0.5,1.4,1.1,1.4c0.6,0,1-0.3,1.2-1.7c0.3-1.5,0.8-2.2,1.9-2.2c1,0,1.8,0.9,1.8,2.1
					c0,0.9-0.3,1.6-0.8,2.3l-0.6-0.4c0.5-0.6,0.7-1.2,0.7-1.9c0-0.9-0.5-1.4-1.1-1.4C493.6-14.7,493.3-14.3,493-12.9z"/>
				<path class="st10" d="M491.6-6.8v-1.6h-2.3v-0.7h6.5v2.4c0,1.5-0.8,2.4-2.1,2.4C492.4-4.2,491.6-5.4,491.6-6.8z M495.2-6.7v-1.7
					h-2.9v1.6c0,1.1,0.6,1.8,1.4,1.8C494.7-5,495.2-5.7,495.2-6.7z"/>
				<path class="st10" d="M489.4,1.7l2.5-1.9v-1.9h-2.5v-0.7h6.5V0c0,1.4-0.8,2.3-2,2.3c-1.1,0-1.7-0.7-1.9-1.8l-2.7,2L489.4,1.7
					L489.4,1.7z M495.2-0.1v-2h-2.6v2c0,1,0.5,1.7,1.4,1.7C494.7,1.6,495.2,1,495.2-0.1z"/>
				<path class="st10" d="M495.9,4.9h-6.5V4.1h6.5V4.9z"/>
				<path class="st10" d="M495.9,11.8v0.7h-6.5v-0.6l5.3-4.2h-5.3V7h6.5v0.7l-5.2,4.1H495.9z"/>
				<path class="st10" d="M489.2,17.5c0-2.1,1.5-3.3,3.4-3.3c1.8,0,3.4,1.3,3.4,3.3c0,1.1-0.3,1.8-0.9,2.4l-0.6-0.5
					c0.4-0.5,0.7-1.1,0.7-2c0-1.4-1.2-2.5-2.7-2.5c-1.6,0-2.7,1-2.7,2.6c0,0.7,0.3,1.4,0.6,1.9h1.6v-2h0.7v2.7h-2.6
					C489.7,19.5,489.2,18.6,489.2,17.5z"/>
				<path class="st10" d="M495.2,26.7v-4H493v3.6h-0.7v-3.6H490v4h-0.7V22h6.5v4.7H495.2z"/>
				<path class="st10" d="M489.4,32.8l2.5-1.9v-1.9h-2.5v-0.7h6.5v2.8c0,1.4-0.8,2.4-2,2.4c-1.1,0-1.7-0.7-1.9-1.8l-2.7,2
					L489.4,32.8L489.4,32.8z M495.2,31.1v-2h-2.6v2c0,1,0.5,1.7,1.4,1.7C494.7,32.7,495.2,32.1,495.2,31.1z"/>
				<path class="st10" d="M489.4,43.9v-0.8l1.7-0.8v-3.5l-1.7-0.8v-0.8l6.6,3V41L489.4,43.9z M495,40.6l-3.3-1.5v3L495,40.6z"/>
				<path class="st10" d="M495.9,49.5v0.8l-6.6-2.8v-0.7l6.6-2.8v0.8l-5.6,2.3L495.9,49.5z"/>
				<path class="st10" d="M495.2,56.4v-4H493V56h-0.7v-3.6H490v4h-0.7v-4.8h6.5v4.7H495.2z"/>
			</g>
			<g>
				<path class="st10" d="M113.3,430.9c-1.9,0-3.3-1.5-3.3-3.4c0-1.9,1.4-3.4,3.3-3.4c1.2,0,1.9,0.4,2.5,1l-0.5,0.5
					c-0.6-0.5-1.2-0.9-2.1-0.9c-1.4,0-2.5,1.2-2.5,2.7s1.1,2.7,2.5,2.7c0.9,0,1.5-0.3,2.1-0.9l0.5,0.5
					C115.2,430.4,114.5,430.9,113.3,430.9z"/>
				<path class="st10" d="M123.5,430.7h-0.8l-0.8-1.7h-3.6l-0.8,1.7h-0.8l3-6.6h0.7L123.5,430.7z M120.1,425l-1.5,3.3h3L120.1,425z"
					/>
				<path class="st10" d="M129.7,424.2h0.7v6.5h-0.6l-4.2-5.3v5.3h-0.7v-6.5h0.7l4.1,5.2L129.7,424.2L129.7,424.2z"/>
				<path class="st10" d="M138.4,430.7h-0.8l-0.8-1.7h-3.6l-0.8,1.7h-0.8l3-6.6h0.7L138.4,430.7z M135.1,425l-1.5,3.3h3L135.1,425z"
					/>
				<path class="st10" d="M142.1,430.7h-2.3v-6.5h2.3c2.1,0,3.5,1.4,3.5,3.2C145.5,429.3,144.1,430.7,142.1,430.7z M142.1,424.9
					h-1.5v5.2h1.5c1.6,0,2.7-1.1,2.7-2.6C144.8,426,143.7,424.9,142.1,424.9z"/>
				<path class="st10" d="M152.9,430.7h-0.8l-0.8-1.7h-3.6l-0.8,1.7h-0.8l3-6.6h0.7L152.9,430.7z M149.6,425l-1.5,3.3h3L149.6,425z"
					/>
				<path class="st10" d="M160.9,424.2h0.6l1.8,5.5l1.9-5.4h0.8l-2.3,6.6H163l-1.8-5.3l-1.8,5.3h-0.6l-2.3-6.6h0.8l1.9,5.4
					L160.9,424.2z"/>
				<path class="st10" d="M172.9,430.7h-0.8l-0.8-1.7h-3.6l-0.8,1.7h-0.8l3-6.6h0.7L172.9,430.7z M169.6,425l-1.5,3.3h3L169.6,425z"
					/>
				<path class="st10" d="M176.2,430.7h-0.7v-2.6l-2.7-3.9h0.9l2.2,3.3l2.2-3.3h0.9l-2.7,3.9L176.2,430.7L176.2,430.7z"/>
			</g>
			<g>
				<path class="st10" d="M747.7,228.2l0.7,0.3l-2.7,5.2l3.3,1.7l-0.3,0.6l-3.9-2L747.7,228.2z"/>
				<path class="st10" d="M752.2,238.1c-1.8-0.9-2.2-2.9-1.4-4.5c0.8-1.6,2.8-2.4,4.5-1.5s2.2,2.9,1.4,4.5S754,239,752.2,238.1z
					 M755,232.7c-1.3-0.7-2.8-0.1-3.5,1.2s-0.3,2.9,1,3.6c1.3,0.7,2.8,0.1,3.5-1.2C756.7,234.9,756.3,233.4,755,232.7z"/>
				<path class="st10" d="M762.8,240.3c-0.9,1.7-2.3,2.1-3.8,1.3c-1.4-0.7-2-2.1-1.1-3.8l1.8-3.4l0.7,0.3l-1.7,3.3
					c-0.7,1.2-0.3,2.3,0.8,2.9c1.1,0.6,2.1,0.3,2.7-1l1.8-3.4l0.7,0.3L762.8,240.3z"/>
				<path class="st10" d="M765.8,245.1c-1.8-0.9-2.3-2.9-1.4-4.5c0.8-1.6,2.7-2.4,4.5-1.5c1,0.5,1.4,1.1,1.8,1.9l-0.7,0.3
					c-0.2-0.6-0.6-1.1-1.4-1.6c-1.3-0.7-2.8-0.1-3.4,1.2c-0.7,1.4-0.4,2.9,1,3.6c0.7,0.3,1.4,0.4,2,0.3l0.8-1.4l-1.8-0.9l0.3-0.6
					l2.4,1.2l-1.2,2.3C767.8,245.7,766.8,245.6,765.8,245.1z"/>
				<path class="st10" d="M771.9,244.8l-1.3,2.6l-0.7-0.3l3-5.8l0.7,0.3l-1.3,2.6l3.3,1.7l1.3-2.6l0.7,0.3l-3,5.8l-0.7-0.3l1.3-2.6
					L771.9,244.8z"/>
				<path class="st10" d="M783.2,247.4l-3.5-1.8l-1,2l3.2,1.6l-0.3,0.6l-3.2-1.6l-1,2l3.6,1.9l-0.3,0.6l-4.2-2.2l3-5.8l4.2,2.2
					L783.2,247.4z"/>
				<path class="st10" d="M788.8,250.3l-3.5-1.8l-1,2l3.2,1.6l-0.3,0.6l-3.2-1.6l-1,2l3.6,1.9l-0.3,0.6l-4.2-2.2l3-5.8l4.2,2.2
					L788.8,250.3z"/>
				<path class="st10" d="M789.6,257.3l-2-1l3-5.8l2,1c1.8,0.9,2.4,2.9,1.6,4.5C793.3,257.6,791.4,258.3,789.6,257.3z M792.2,252.1
					l-1.4-0.7l-2.4,4.6l1.4,0.7c1.5,0.8,2.9,0.2,3.6-1C794.1,254.4,793.7,252.9,792.2,252.1z"/>
				<path class="st10" d="M798.5,258.6l-1.3,2.6l-0.7-0.3l3-5.8l0.7,0.3l-1.3,2.6l3.3,1.7l1.3-2.6l0.7,0.3l-3,5.8l-0.7-0.3l1.3-2.6
					L798.5,258.6z"/>
				<path class="st10" d="M809.4,260.2l0.5,0.3l-0.9,5.7l4.2-4l0.7,0.4l-5.1,4.8l-0.5-0.3l0.8-5.5l-4,3.9l-0.5-0.3l1-6.9l0.7,0.4
					l-0.8,5.7L809.4,260.2z"/>
				<path class="st10" d="M814.9,270.4l-0.7-0.3l1.2-2.3l-0.6-4.8l0.8,0.4l0.5,3.9l3.5-1.9l0.8,0.4l-4.2,2.2L814.9,270.4z"/>
			</g>
			<g>
				<path class="st10" d="M744.7-107.6c-1.9,0-3.3-1.5-3.3-3.4c0-1.9,1.4-3.4,3.3-3.4c1.2,0,1.9,0.4,2.5,1l-0.5,0.5
					c-0.5-0.5-1.2-0.9-2-0.9c-1.5,0-2.5,1.2-2.5,2.7s1.1,2.7,2.5,2.7c0.9,0,1.5-0.3,2.1-0.9l0.5,0.5
					C746.6-108.1,745.8-107.6,744.7-107.6z"/>
				<path class="st10" d="M754-110.5c0,1.9-1.1,2.9-2.7,2.9c-1.6,0-2.7-1-2.7-2.8v-3.8h0.7v3.8c0,1.4,0.8,2.2,2,2.2
					c1.2,0,2-0.7,2-2.2v-3.8h0.7L754-110.5L754-110.5z"/>
				<path class="st10" d="M760.5-107.7l-1.9-2.5h-1.9v2.5H756v-6.5h2.8c1.4,0,2.4,0.8,2.4,1.9c0,1.1-0.8,1.7-1.8,1.9l2,2.7H760.5z
					 M758.8-113.6h-2v2.7h2c1,0,1.7-0.5,1.7-1.3C760.4-113.1,759.8-113.6,758.8-113.6z"/>
				<path class="st10" d="M765.2-107.7h-0.8v-5.8h-2.2v-0.7h5.1v0.7h-2.2V-107.7z"/>
				<path class="st10" d="M769.6-114.3v6.5h-0.7v-6.5H769.6z"/>
				<path class="st10" d="M774-111.3c1.5,0.3,2.1,0.8,2.1,1.8c0,1.1-0.9,1.9-2.2,1.9c-1,0-1.9-0.3-2.7-1l0.5-0.5
					c0.7,0.6,1.3,0.9,2.2,0.9c0.9,0,1.5-0.5,1.5-1.1c0-0.6-0.3-1-1.7-1.2c-1.5-0.3-2.2-0.8-2.2-1.9c0-1,0.9-1.8,2.1-1.8
					c1,0,1.6,0.3,2.3,0.8l-0.4,0.6c-0.6-0.5-1.2-0.7-1.9-0.7c-0.8,0-1.4,0.5-1.4,1.1C772.2-112,772.6-111.7,774-111.3z"/>
				<path class="st10" d="M782.8-111.3c1.5,0.3,2.1,0.8,2.1,1.8c0,1.1-0.9,1.9-2.2,1.9c-1,0-1.9-0.3-2.7-1l0.5-0.5
					c0.7,0.6,1.3,0.9,2.2,0.9c0.9,0,1.5-0.5,1.5-1.1c0-0.6-0.3-1-1.7-1.2c-1.5-0.3-2.2-0.8-2.2-1.9c0-1,0.9-1.8,2.1-1.8
					c1,0,1.6,0.3,2.3,0.8l-0.4,0.6c-0.6-0.5-1.2-0.7-1.9-0.7c-0.8,0-1.4,0.5-1.4,1.1C781-112,781.3-111.7,782.8-111.3z"/>
				<path class="st10" d="M789-107.7h-0.8v-5.8H786v-0.7h5.1v0.7H789V-107.7z"/>
			</g>
			<g>
				<path class="st10" d="M702.7-249.5h-4v2.2h3.6v0.7h-3.6v2.3h4v0.7H698v-6.5h4.7L702.7-249.5L702.7-249.5z"/>
				<path class="st10" d="M710.6-243.6h-0.8l-0.8-1.7h-3.5l-0.8,1.7H704l3-6.6h0.7L710.6-243.6z M707.3-249.4l-1.5,3.3h3
					L707.3-249.4z"/>
				<path class="st10" d="M714.4-247.2c1.5,0.3,2.1,0.9,2.1,1.9c0,1.1-0.9,1.9-2.2,1.9c-1,0-1.9-0.4-2.7-1l0.5-0.5
					c0.7,0.6,1.3,0.9,2.2,0.9c0.9,0,1.5-0.5,1.5-1.1c0-0.6-0.3-1-1.7-1.2c-1.5-0.3-2.2-0.8-2.2-1.9c0-1,0.9-1.8,2.1-1.8
					c1,0,1.6,0.3,2.3,0.8l-0.4,0.6c-0.6-0.5-1.2-0.7-1.9-0.7c-0.8,0-1.4,0.5-1.4,1.1C712.6-247.9,712.9-247.6,714.4-247.2z"/>
				<path class="st10" d="M720.6-243.6h-0.8v-5.9h-2.2v-0.7h5.1v0.7h-2.2V-243.6z"/>
				<path class="st10" d="M727.7-246.6v2.9h-0.7v-6.5h0.7v2.9h3.8v-2.9h0.7v6.5h-0.7v-2.9H727.7z"/>
				<path class="st10" d="M740.2-243.6h-0.8l-0.8-1.7h-3.5l-0.8,1.7h-0.8l3-6.6h0.7L740.2-243.6z M736.9-249.4l-1.5,3.3h3
					L736.9-249.4z"/>
				<path class="st10" d="M744-247.2c1.5,0.3,2.1,0.9,2.1,1.9c0,1.1-0.9,1.9-2.2,1.9c-1,0-1.9-0.4-2.7-1l0.5-0.5
					c0.7,0.6,1.3,0.9,2.2,0.9c0.9,0,1.5-0.5,1.5-1.1c0-0.6-0.3-1-1.7-1.2c-1.5-0.3-2.2-0.8-2.2-1.9c0-1,0.9-1.8,2.1-1.8
					c1,0,1.6,0.3,2.3,0.8l-0.4,0.6c-0.6-0.5-1.2-0.7-1.9-0.7c-0.8,0-1.4,0.5-1.4,1.1C742.2-247.9,742.5-247.6,744-247.2z"/>
				<path class="st10" d="M750.2-243.6h-0.8v-5.9h-2.2v-0.7h5.1v0.7h-2.2V-243.6z"/>
				<path class="st10" d="M754.6-250.2v6.5h-0.7v-6.5H754.6z"/>
				<path class="st10" d="M761.5-250.2h0.7v6.5h-0.6l-4.2-5.4v5.4h-0.7v-6.5h0.7l4.1,5.2L761.5-250.2L761.5-250.2z"/>
				<path class="st10" d="M767.2-243.5c-2,0-3.3-1.5-3.3-3.4c0-1.8,1.3-3.4,3.3-3.4c1.1,0,1.8,0.3,2.4,0.9l-0.5,0.6
					c-0.5-0.4-1.1-0.8-2-0.8c-1.4,0-2.5,1.2-2.5,2.7c0,1.6,1,2.7,2.6,2.7c0.8,0,1.4-0.3,1.9-0.6v-1.6h-2v-0.7h2.7v2.6
					C769.3-244,768.3-243.5,767.2-243.5z"/>
				<path class="st10" d="M774-247.2c1.5,0.3,2.1,0.9,2.1,1.9c0,1.1-0.9,1.9-2.2,1.9c-1,0-1.9-0.4-2.7-1l0.5-0.5
					c0.7,0.6,1.3,0.9,2.2,0.9c0.9,0,1.5-0.5,1.5-1.1c0-0.6-0.3-1-1.7-1.2c-1.5-0.3-2.2-0.8-2.2-1.9c0-1,0.9-1.8,2.1-1.8
					c1,0,1.6,0.3,2.3,0.8l-0.4,0.6c-0.6-0.5-1.2-0.7-1.9-0.7c-0.8,0-1.4,0.5-1.4,1.1C772.2-247.9,772.6-247.6,774-247.2z"/>
				<path class="st10" d="M782.8-247.2c1.5,0.3,2.1,0.9,2.1,1.9c0,1.1-0.9,1.9-2.2,1.9c-1,0-1.9-0.4-2.7-1l0.5-0.5
					c0.7,0.6,1.3,0.9,2.2,0.9c0.9,0,1.5-0.5,1.5-1.1c0-0.6-0.3-1-1.7-1.2c-1.5-0.3-2.2-0.8-2.2-1.9c0-1,0.9-1.8,2.1-1.8
					c1,0,1.6,0.3,2.3,0.8l-0.4,0.6c-0.6-0.5-1.2-0.7-1.9-0.7c-0.8,0-1.4,0.5-1.4,1.1C781-247.9,781.3-247.6,782.8-247.2z"/>
				<path class="st10" d="M789-243.6h-0.8v-5.9H786v-0.7h5.1v0.7H789V-243.6z"/>
			</g>
			<path class="st12" d="M551.9,157.1c0,8.3,6.7,15,15,15c8.3,0,15-6.7,15-15s-6.7-15-15-15C558.6,142.1,551.9,148.8,551.9,157.1"/>
			<g>
				<g>
					<path class="st13" d="M571.8,149H562c-0.6,0-1.2,0.5-1.2,1.1v9.9c0,0.6,0.5,1.1,1.2,1.1h0.9l-1.5,4h1.5l0.2-0.6h7.7l0.2,0.6
						h1.5l-1.5-4h0.8c0.6,0,1.2-0.5,1.2-1.1v-9.9C573,149.5,572.4,149,571.8,149z M564.3,150h5.1v1.1h-5.1V150z M561.8,152h4.5v5
						h-4.5V152z M569.6,161.2l0.2,0.7h-5.9l0.2-0.7H569.6z M562.9,160.2c-0.6,0-1.1-0.5-1.1-1.1s0.5-1.1,1.1-1.1s1.1,0.5,1.1,1.1
						C564,159.7,563.5,160.2,562.9,160.2z M563.3,163.7l0.4-1.1h6.4l0.4,1.1H563.3z M570.8,160.2c-0.6,0-1.1-0.5-1.1-1.1
						s0.5-1.1,1.1-1.1s1.1,0.5,1.1,1.1C571.9,159.7,571.4,160.2,570.8,160.2z M571.9,157.1h-4.5v-5h4.5V157.1z"/>
				</g>
			</g>
			<path class="st12" d="M229.1,115.6c0,8.3,6.7,15,15,15c8.3,0,15-6.7,15-15s-6.7-15-15-15C235.8,100.6,229.1,107.3,229.1,115.6"/>
			<g>
				<g>
					<path class="st13" d="M249,107.5h-9.8c-0.6,0-1.1,0.5-1.1,1.2v9.9c0,0.6,0.5,1.2,1.1,1.2h0.9l-1.5,4h1.5l0.2-0.6h7.7l0.2,0.6
						h1.5l-1.5-4h0.9c0.6,0,1.1-0.5,1.1-1.2v-9.9C250.2,108,249.6,107.5,249,107.5z M241.5,108.5h5.1v1.1h-5.1V108.5z M239,110.6
						h4.5v5H239V110.6z M246.8,119.7l0.2,0.7h-5.9l0.2-0.7H246.8z M240.1,118.7c-0.6,0-1.1-0.5-1.1-1.1s0.5-1.1,1.1-1.1
						s1.1,0.5,1.1,1.1C241.2,118.2,240.7,118.7,240.1,118.7z M240.5,122.2l0.4-1.1h6.4l0.4,1.1H240.5z M248.1,118.7
						c-0.6,0-1.1-0.5-1.1-1.1s0.5-1.1,1.1-1.1s1.1,0.5,1.1,1.1C249.1,118.2,248.6,118.7,248.1,118.7z M249.1,115.6h-4.5v-5h4.5
						V115.6z"/>
				</g>
			</g>
			<path class="st12" d="M27.4,169c0,8.3,6.7,15,15,15c8.3,0,15-6.7,15-15s-6.7-15-15-15C34.2,154,27.4,160.7,27.4,169"/>
			<g>
				<g>
					<path class="st13" d="M47.3,160.9h-9.8c-0.6,0-1.2,0.5-1.2,1.1v9.9c0,0.6,0.5,1.1,1.2,1.1h0.9l-1.5,4h1.5l0.2-0.6h7.7l0.2,0.6
						H48l-1.5-4h0.8c0.6,0,1.2-0.5,1.2-1.1V162C48.5,161.4,48,160.9,47.3,160.9z M39.9,162H45v1.1h-5.1V162z M37.4,164h4.5v5h-4.5
						V164z M45.2,173.1l0.2,0.7h-5.9l0.2-0.7H45.2z M38.5,172.1c-0.6,0-1.1-0.5-1.1-1.1s0.5-1.1,1.1-1.1s1.1,0.5,1.1,1.1
						C39.5,171.6,39,172.1,38.5,172.1z M38.9,175.6l0.4-1.1h6.4l0.4,1.1H38.9z M46.4,172.1c-0.6,0-1.1-0.5-1.1-1.1s0.5-1.1,1.1-1.1
						s1.1,0.5,1.1,1.1C47.5,171.6,47,172.1,46.4,172.1z M47.5,169H43v-5h4.5V169z"/>
				</g>
			</g>
			<g>
				
					<image style="overflow:visible;opacity:0.25;enable-background:new    ;" width="57" height="57" xlink:href="64849B2C2B13255.png"  transform="matrix(0.9825 0 0 0.9825 224.66 184.425)">
				</image>
				<g>
					<path class="st8" d="M273.4,211.5c0,11.9-9.6,21.5-21.5,21.5s-21.5-9.6-21.5-21.5c0-11.9,9.6-21.5,21.5-21.5
						C263.7,190,273.4,199.6,273.4,211.5"/>
				</g>
			</g>
			<path class="st10" d="M237.6,207.2l2-6.7h24l2,6.7h-0.8c-1.5-1.9-5.1-5.4-7.7-5.4c-1.6,0-2.1,1.1-2.1,2.5v13.2
				c0,3.4,0.1,6.4,3.1,6.6v0.8c-2.3,0-4.5-0.1-6.5-0.1s-4.2,0.1-6.8,0.1V224c3.3-0.1,3.4-3.2,3.4-6.6v-13.2c0-1.4-0.5-2.5-2.1-2.5
				c-2.7,0-6.2,3.4-7.7,5.4H237.6z"/>
			<g>
				<g>
					<path class="st10" d="M211.4,109.9v0.6l-5.4,1.8l5.4,1.9v0.8l-6.6-2.3V112l5.3-1.8l-5.3-1.8v-0.6l6.6-2.3v0.8l-5.4,1.9
						L211.4,109.9z"/>
					<path class="st10" d="M211.4,117.2h-6.5v-0.7h6.5V117.2z"/>
					<path class="st10" d="M211.4,119.2v0.7h-5.8v3.7h-0.7v-4.4L211.4,119.2L211.4,119.2z"/>
					<path class="st10" d="M211.4,125.1v0.7h-5.8v3.7h-0.7v-4.4L211.4,125.1L211.4,125.1z"/>
					<path class="st10" d="M211.4,131.8h-6.5V131h6.5V131.8z"/>
					<path class="st10" d="M211.4,138.6v0.7h-6.5v-0.6l5.3-4.2h-5.3v-0.7h6.5v0.7l-5.2,4.1L211.4,138.6L211.4,138.6z"/>
					<path class="st10" d="M204.7,144.3c0-2.1,1.5-3.3,3.4-3.3c1.8,0,3.4,1.3,3.4,3.3c0,1.1-0.3,1.8-0.9,2.4l-0.6-0.5
						c0.4-0.5,0.7-1.1,0.7-2c0-1.4-1.2-2.5-2.7-2.5c-1.6,0-2.7,1-2.7,2.6c0,0.7,0.3,1.4,0.6,1.9h1.6v-2h0.7v2.7h-2.6
						C205.2,146.3,204.7,145.4,204.7,144.3z"/>
					<path class="st10" d="M204.8,150.9v-2.3h6.5v2.3c0,2.1-1.4,3.5-3.2,3.5S204.8,153,204.8,150.9z M210.7,150.9v-1.5h-5.2v1.5
						c0,1.6,1.1,2.7,2.6,2.7S210.7,152.6,210.7,150.9z"/>
					<path class="st10" d="M204.7,159.1c0-2,1.6-3.3,3.4-3.3s3.4,1.4,3.4,3.3s-1.6,3.3-3.4,3.3S204.7,161.1,204.7,159.1z
						 M210.8,159.1c0-1.5-1.2-2.6-2.7-2.6s-2.7,1.1-2.7,2.6s1.2,2.6,2.7,2.6S210.8,160.6,210.8,159.1z"/>
					<path class="st10" d="M211.4,168.9v0.7h-6.5V169l5.3-4.2h-5.3v-0.7h6.5v0.7l-5.2,4.1L211.4,168.9L211.4,168.9z"/>
					<path class="st10" d="M204.8,180.6v-0.8l1.7-0.8v-3.6l-1.7-0.8v-0.8l6.6,3v0.7L204.8,180.6z M210.6,177.2l-3.3-1.5v3
						L210.6,177.2z"/>
					<path class="st10" d="M211.4,186.9v0.8l-6.6-2.8v-0.6l6.6-2.8v0.8l-5.6,2.3L211.4,186.9z"/>
					<path class="st10" d="M210.7,193.8v-4h-2.2v3.6h-0.7v-3.6h-2.3v4h-0.7v-4.8h6.5v4.7L210.7,193.8L210.7,193.8z"/>
				</g>
			</g>
		</g>
	</g>
</g>
</svg>
