<?xml version="1.0" encoding="utf-8"?>
<!-- Generator: Adobe Illustrator 25.4.1, SVG Export Plug-In . SVG Version: 6.00 Build 0)  -->
<svg version="1.1" id="Layer_1" xmlns="http://www.w3.org/2000/svg" xmlns:xlink="http://www.w3.org/1999/xlink" x="0px" y="0px"
	 viewBox="0 0 239.9174194 258.9909668" style="enable-background:new 0 0 239.9174194 258.9909668;" xml:space="preserve">
<style type="text/css">
	.st0{fill:none;stroke:#99A4B3;stroke-width:0.24;stroke-linecap:round;stroke-linejoin:round;stroke-miterlimit:10;}
	.st1{fill-rule:evenodd;clip-rule:evenodd;fill:#22566E;}
	.st2{fill:none;stroke:#22566E;stroke-width:0.25;stroke-linecap:round;stroke-linejoin:round;stroke-miterlimit:10;}
	.st3{fill:none;stroke:#22566E;stroke-width:0.25;stroke-linecap:round;stroke-linejoin:round;}
	
		.st4{fill:none;stroke:#22566E;stroke-width:0.25;stroke-linecap:round;stroke-linejoin:round;stroke-dasharray:4.1989999,2.0999999;}
	
		.st5{fill:none;stroke:#22566E;stroke-width:0.25;stroke-linecap:round;stroke-linejoin:round;stroke-dasharray:4.5440001,2.2720001;}
	.st6{fill:none;stroke:#22566E;stroke-width:0.25;stroke-linecap:round;stroke-linejoin:round;stroke-dasharray:3.994,1.997;}
	.st7{fill:none;stroke:#22566E;stroke-width:0.25;stroke-linecap:round;stroke-linejoin:round;stroke-miterlimit:10.000001;}
	.st8{fill:none;stroke:#22566E;stroke-width:0.25;stroke-linecap:round;stroke-linejoin:round;stroke-dasharray:2.099,1.05;}
	.st9{fill:none;stroke:#22566E;stroke-width:0.25;stroke-linecap:round;stroke-linejoin:round;stroke-dasharray:2.161,1.081;}
	.st10{fill:#22566E;}
</style>
<rect x="8.0415039" y="146.2746582" class="st0" width="11.5159912" height="14.3940125"/>
<rect x="8.0415039" y="206.7316589" class="st0" width="11.5159912" height="14.3940125"/>
<rect x="218.2014771" y="163.232666" class="st0" width="11.5159912" height="14.394989"/>
<rect x="218.2014771" y="91.2606812" class="st0" width="11.5159912" height="14.3940125"/>
<polygon class="st0" points="6.602356,56.2638855 6.602356,112.1329041 10.3813477,112.1329041 10.3813477,90.5408936 
	9.1213379,90.5408936 9.1213379,113.7969055 52.3043213,113.7969055 52.3043213,90.5408936 51.0453491,90.5408936 
	51.0453491,112.1329041 62.3813477,112.1329041 62.3813477,137.052887 63.6403198,137.052887 63.6403198,115.460907 
	59.8623047,115.460907 59.8623047,144.9699097 6.602356,144.9699097 6.602356,162.1079102 65.6193237,162.1079102 
	65.6193237,205.2919006 6.602356,205.2919006 6.602356,222.4298859 87.3913574,222.4298859 87.3913574,208.4848938 
	90.7203369,208.4848938 90.7203369,216.8518829 121.5783081,216.8518829 121.5783081,185.2738953 90.7203369,185.2738953 
	90.7203369,188.1528931 112.3113403,188.1528931 112.3113403,186.8938904 87.3913574,186.8938904 87.3913574,141.0108948 
	89.0553589,141.0108948 89.0553589,117.9798889 87.3913574,117.9798889 87.3913574,115.460907 83.9723511,115.460907 
	83.9723511,112.1329041 117.2593384,112.1329041 117.2593384,109.6128845 142.1803589,109.6128845 142.1803589,108.3539124 
	120.5883179,108.3539124 120.5883179,112.1329041 138.9413452,112.1329041 138.9413452,180.8659058 231.156311,180.8659058 
	231.156311,161.7929077 172.1382446,161.7929077 172.1382446,107.0939026 231.156311,107.0939026 231.156311,85.5028992 
	206.9962769,85.5028992 206.9962769,83.8378906 185.4043579,83.8378906 185.4043579,85.5028992 177.2422485,85.5028992 
	166.557312,91.6719055 165.9282837,90.5809021 176.6122437,84.4118958 177.2422485,85.5028992 177.2422485,82.1738892 
	179.557312,82.1738892 179.557312,66.3399048 120.5883179,66.3399048 120.5883179,82.1738892 122.9032593,82.1738892 
	122.9032593,85.5028992 133.5873413,91.6719055 134.1723022,90.553894 123.5332642,84.4118958 122.9032593,85.5028992 
	120.5883179,85.5028992 120.5883179,88.0219116 117.2593384,88.0219116 117.2593384,85.5028992 35.3912964,85.5028992 
	35.3912964,81.0939026 31.7922974,81.0939026 31.7922974,80.0148926 35.3912964,80.0148926 35.3912964,56.2638855 "/>
<polygon class="st0" points="136.8934937,91.6713867 147.5784302,85.5024109 152.5674438,85.5024109 163.2523804,91.6713867 
	163.8814087,90.5804138 153.1974487,84.4114075 152.5674438,85.5024109 152.5674438,82.1734009 147.5784302,82.1734009 
	147.5784302,85.5024109 146.9484253,84.4114075 136.2634888,90.5804138 "/>
<line class="st0" x1="9.3912964" y1="222.4299774" x2="9.3912964" y2="221.1249847"/>
<line class="st0" x1="9.3912964" y1="90.5407715" x2="9.3912964" y2="56.2637939"/>
<line class="st0" x1="9.3912964" y1="206.7310791" x2="9.3912964" y2="205.2911072"/>
<line class="st0" x1="9.3912964" y1="113.7967834" x2="9.3912964" y2="112.1328125"/>
<line class="st0" x1="9.3912964" y1="162.1082764" x2="9.3912964" y2="160.6683044"/>
<line class="st0" x1="9.3912964" y1="146.274292" x2="9.3912964" y2="144.9692993"/>
<line class="st0" x1="14.7893066" y1="222.4299774" x2="14.7893066" y2="221.1249847"/>
<line class="st0" x1="14.7893066" y1="113.7967834" x2="14.7893066" y2="56.2637939"/>
<line class="st0" x1="14.7893066" y1="206.7310791" x2="14.7893066" y2="205.2911072"/>
<line class="st0" x1="14.7893066" y1="146.274292" x2="14.7893066" y2="144.9692993"/>
<line class="st0" x1="14.7893066" y1="162.1082764" x2="14.7893066" y2="160.6683044"/>
<line class="st0" x1="20.1871948" y1="222.4299774" x2="20.1871948" y2="205.2909851"/>
<line class="st0" x1="20.1871948" y1="113.7967834" x2="20.1871948" y2="56.2637939"/>
<line class="st0" x1="20.1871948" y1="162.1082764" x2="20.1871948" y2="144.9692993"/>
<line class="st0" x1="25.5852051" y1="222.4299774" x2="25.5852051" y2="205.2909851"/>
<line class="st0" x1="25.5852051" y1="113.7967834" x2="25.5852051" y2="56.2637939"/>
<line class="st0" x1="25.5852051" y1="162.1082764" x2="25.5852051" y2="144.9692993"/>
<line class="st0" x1="30.9829712" y1="222.4299774" x2="30.9829712" y2="205.2909851"/>
<line class="st0" x1="30.9829712" y1="113.7967834" x2="30.9829712" y2="56.2637939"/>
<line class="st0" x1="30.9829712" y1="162.1082764" x2="30.9829712" y2="144.9692993"/>
<line class="st0" x1="36.3809814" y1="222.4299774" x2="36.3809814" y2="205.2909851"/>
<line class="st0" x1="36.3809814" y1="113.7967834" x2="36.3809814" y2="85.5028076"/>
<line class="st0" x1="36.3809814" y1="162.1082764" x2="36.3809814" y2="144.9692993"/>
<line class="st0" x1="41.7787476" y1="222.4299774" x2="41.7787476" y2="205.2909851"/>
<line class="st0" x1="41.7787476" y1="113.7967834" x2="41.7787476" y2="85.5028076"/>
<line class="st0" x1="41.7787476" y1="162.1082764" x2="41.7787476" y2="144.9692993"/>
<line class="st0" x1="47.1767578" y1="222.4299774" x2="47.1767578" y2="205.2909851"/>
<line class="st0" x1="47.1767578" y1="113.7967834" x2="47.1767578" y2="85.5028076"/>
<line class="st0" x1="47.1767578" y1="162.1082764" x2="47.1767578" y2="144.9692993"/>
<line class="st0" x1="52.574707" y1="222.4299774" x2="52.574707" y2="205.2909851"/>
<line class="st0" x1="52.574707" y1="112.1324768" x2="52.574707" y2="85.5025024"/>
<line class="st0" x1="52.574707" y1="162.1082764" x2="52.574707" y2="144.9692993"/>
<line class="st0" x1="57.9726562" y1="222.4299774" x2="57.9726562" y2="205.2909851"/>
<line class="st0" x1="57.9726562" y1="112.1324768" x2="57.9726562" y2="85.5025024"/>
<line class="st0" x1="57.9726562" y1="162.1082764" x2="57.9726562" y2="144.9692993"/>
<line class="st0" x1="63.3706055" y1="222.4299774" x2="63.3706055" y2="205.2909851"/>
<line class="st0" x1="63.3706055" y1="115.4610901" x2="63.3706055" y2="85.5031128"/>
<line class="st0" x1="63.3706055" y1="162.1082764" x2="63.3706055" y2="137.0522766"/>
<line class="st0" x1="68.7685547" y1="222.4299774" x2="68.7685547" y2="85.5029907"/>
<line class="st0" x1="74.1663818" y1="222.4299774" x2="74.1663818" y2="85.5029907"/>
<line class="st0" x1="79.5643921" y1="222.4299774" x2="79.5643921" y2="85.5029907"/>
<line class="st0" x1="84.9621582" y1="222.4299774" x2="84.9621582" y2="115.4609985"/>
<line class="st0" x1="84.9621582" y1="112.1324768" x2="84.9621582" y2="85.5025024"/>
<line class="st0" x1="90.3602905" y1="208.4852905" x2="90.3602905" y2="186.8933105"/>
<line class="st0" x1="90.3602905" y1="112.1324768" x2="90.3602905" y2="85.5025024"/>
<line class="st0" x1="95.7580566" y1="216.8520813" x2="95.7580566" y2="188.1531067"/>
<line class="st0" x1="95.7580566" y1="112.1324768" x2="95.7580566" y2="85.5025024"/>
<line class="st0" x1="95.7580566" y1="186.8935852" x2="95.7580566" y2="185.2745972"/>
<line class="st0" x1="101.1560669" y1="216.8520813" x2="101.1560669" y2="188.1531067"/>
<line class="st0" x1="101.1560669" y1="112.1324768" x2="101.1560669" y2="85.5025024"/>
<line class="st0" x1="101.1560669" y1="186.8935852" x2="101.1560669" y2="185.2745972"/>
<line class="st0" x1="106.553894" y1="216.8520813" x2="106.553894" y2="188.1531067"/>
<line class="st0" x1="106.553894" y1="112.1324768" x2="106.553894" y2="85.5025024"/>
<line class="st0" x1="106.553894" y1="186.8935852" x2="106.553894" y2="185.2745972"/>
<line class="st0" x1="111.9519653" y1="216.8520813" x2="111.9519653" y2="188.1531067"/>
<line class="st0" x1="111.9519653" y1="112.1324768" x2="111.9519653" y2="85.5025024"/>
<line class="st0" x1="111.9519653" y1="186.8935852" x2="111.9519653" y2="185.2745972"/>
<line class="st0" x1="117.3497925" y1="216.8520813" x2="117.3497925" y2="185.2741089"/>
<line class="st0" x1="117.3497925" y1="109.6132812" x2="117.3497925" y2="88.0213013"/>
<line class="st0" x1="122.7477417" y1="112.1324768" x2="122.7477417" y2="109.6134949"/>
<line class="st0" x1="122.7477417" y1="82.1737671" x2="122.7477417" y2="66.3397827"/>
<line class="st0" x1="122.7477417" y1="108.3537903" x2="122.7477417" y2="85.5028076"/>
<line class="st0" x1="128.1455688" y1="112.1324768" x2="128.1455688" y2="109.6134949"/>
<line class="st0" x1="128.1455688" y1="87.0748901" x2="128.1455688" y2="66.3399048"/>
<line class="st0" x1="128.1455688" y1="108.3537903" x2="128.1455688" y2="88.5288086"/>
<line class="st0" x1="133.5435181" y1="112.1324768" x2="133.5435181" y2="109.6134949"/>
<line class="st0" x1="133.5435181" y1="90.1914673" x2="133.5435181" y2="66.3404846"/>
<line class="st0" x1="133.5435181" y1="108.3537903" x2="133.5435181" y2="91.645813"/>
<line class="st0" x1="138.9414673" y1="89.0345764" x2="138.9414673" y2="66.3395996"/>
<line class="st0" x1="138.9414673" y1="112.1324768" x2="138.9414673" y2="109.6134949"/>
<line class="st0" x1="138.9414673" y1="108.3537903" x2="138.9414673" y2="90.4888"/>
<line class="st0" x1="144.3392944" y1="180.8659668" x2="144.3392944" y2="87.3729858"/>
<line class="st0" x1="144.3392944" y1="85.9181824" x2="144.3392944" y2="66.34021"/>
<line class="st0" x1="149.7373657" y1="180.8659668" x2="149.7373657" y2="85.5029907"/>
<line class="st0" x1="149.7373657" y1="82.1737671" x2="149.7373657" y2="66.3397827"/>
<line class="st0" x1="155.1351929" y1="180.8659668" x2="155.1351929" y2="86.9849854"/>
<line class="st0" x1="155.1351929" y1="85.5307922" x2="155.1351929" y2="66.3398132"/>
<line class="st0" x1="160.5331421" y1="180.8659668" x2="160.5331421" y2="90.1019897"/>
<line class="st0" x1="160.5331421" y1="88.6471863" x2="160.5331421" y2="66.34021"/>
<line class="st0" x1="165.9309692" y1="180.8659668" x2="165.9309692" y2="90.585968"/>
<line class="st0" x1="165.9309692" y1="90.5788879" x2="165.9309692" y2="66.3399048"/>
<line class="st0" x1="171.3290405" y1="180.8659668" x2="171.3290405" y2="88.9169922"/>
<line class="st0" x1="171.3290405" y1="87.4622803" x2="171.3290405" y2="66.3403015"/>
<line class="st0" x1="176.7268677" y1="180.8659668" x2="176.7268677" y2="161.7929688"/>
<line class="st0" x1="176.7268677" y1="84.6098938" x2="176.7268677" y2="66.3399048"/>
<line class="st0" x1="176.7268677" y1="107.0942688" x2="176.7268677" y2="85.800293"/>
<line class="st0" x1="182.1248169" y1="180.8659668" x2="182.1248169" y2="161.7929688"/>
<line class="st0" x1="182.1248169" y1="107.0942688" x2="182.1248169" y2="85.5022888"/>
<line class="st0" x1="187.522644" y1="180.8659668" x2="187.522644" y2="161.7929688"/>
<line class="st0" x1="187.522644" y1="107.0942688" x2="187.522644" y2="83.8382874"/>
<line class="st0" x1="192.9207153" y1="180.8659668" x2="192.9207153" y2="161.7929688"/>
<line class="st0" x1="192.9207153" y1="107.0942688" x2="192.9207153" y2="83.8382874"/>
<line class="st0" x1="198.3185425" y1="180.8659668" x2="198.3185425" y2="161.7929688"/>
<line class="st0" x1="198.3185425" y1="107.0942688" x2="198.3185425" y2="83.8382874"/>
<line class="st0" x1="203.7166138" y1="180.8659668" x2="203.7166138" y2="161.7929688"/>
<line class="st0" x1="203.7166138" y1="107.0942688" x2="203.7166138" y2="83.8382874"/>
<line class="st0" x1="209.1144409" y1="180.8659668" x2="209.1144409" y2="161.7929688"/>
<line class="st0" x1="209.1144409" y1="107.0942688" x2="209.1144409" y2="85.5022888"/>
<line class="st0" x1="214.5123901" y1="180.8659668" x2="214.5123901" y2="161.7929688"/>
<line class="st0" x1="214.5123901" y1="107.0942688" x2="214.5123901" y2="85.5022888"/>
<line class="st0" x1="219.9102173" y1="180.8659668" x2="219.9102173" y2="177.6269836"/>
<line class="st0" x1="219.9102173" y1="91.2604675" x2="219.9102173" y2="85.5024719"/>
<line class="st0" x1="219.9102173" y1="163.232666" x2="219.9102173" y2="161.7936707"/>
<line class="st0" x1="219.9102173" y1="107.0942688" x2="219.9102173" y2="105.6552734"/>
<line class="st0" x1="225.3082886" y1="180.8659668" x2="225.3082886" y2="177.6269836"/>
<line class="st0" x1="225.3082886" y1="91.2604675" x2="225.3082886" y2="85.5024719"/>
<line class="st0" x1="225.3082886" y1="163.232666" x2="225.3082886" y2="161.7936707"/>
<line class="st0" x1="225.3082886" y1="107.0942688" x2="225.3082886" y2="105.6552734"/>
<line class="st0" x1="230.7061157" y1="180.8659668" x2="230.7061157" y2="161.7929688"/>
<line class="st0" x1="230.7061157" y1="107.0942688" x2="230.7061157" y2="85.5022888"/>
<polygon class="st0" points="180.7213745,20.0798645 180.7213745,23.5598755 189.5963745,38.9328918 189.1293335,39.2028809 
	180.7213745,24.6398926 180.7213745,52.9348755 182.8862915,52.9348755 182.8862915,82.1738892 185.4043579,82.1738892 
	185.4043579,60.5818787 186.6643677,60.5818787 186.6643677,82.1738892 185.4043579,82.1738892 185.4043579,83.8378906 
	206.9962769,83.8378906 206.9962769,82.1738892 214.9623413,82.1738892 214.9623413,42.2288818 231.156311,42.2288818 
	231.156311,20.0798645 "/>
<polygon class="st0" points="90.7200928,157.2049866 133.9030151,157.2049866 133.9030151,135.9729919 117.710022,135.9729919 
	117.710022,115.4609985 90.7200928,115.4609985 90.7200928,119.2399902 113.7510376,119.2399902 113.7510376,117.980011 
	89.0560913,117.980011 89.0560913,141.0109863 90.7200928,141.0109863 "/>
<path class="st0" d="M230.5701294,26.8136902c0-0.1409912-0.1000977-0.26297-0.2390137-0.2889709l-2.1260986-0.4070129
	c-0.230957-0.0440063-0.4699707,0.0079956-0.6629639,0.1440125c-0.3259277,0.2319946-0.6109619,0.5159912-0.842041,0.84198
	c-2.2989502-0.1359863-4.5849609-0.4279785-6.8439941-0.8729858c-0.723999-0.1650085-1.4639893-0.2480164-2.2069092-0.2480164
	c-0.9630127,0-1.9219971,0.1400146-2.8450928,0.4150085c-0.8029785,0.2390137-1.5599365,0.6109924-2.2409668,1.1000061
	c-0.6539307,0.4700012-1.1999512,1.0749817-1.6030273,1.7729797c-0.3299561,0.5730286-0.5029297,1.2230225-0.5029297,1.8840027
	c0,0.6610107,0.1729736,1.3110046,0.5029297,1.8840027c0.4030762,0.697998,0.9490967,1.302002,1.6030273,1.7730103
	c0.6810303,0.4890137,1.4379883,0.8599854,2.2409668,1.1000061c0.9230957,0.2749939,1.8820801,0.4140015,2.8450928,0.4140015
	c0.7429199,0,1.4829102-0.0830078,2.2069092-0.2470093c2.2590332-0.4450073,4.5450439-0.7369995,6.8439941-0.8739929
	c0.2310791,0.3259888,0.5161133,0.6109924,0.842041,0.8429871c0.1929932,0.1360168,0.4320068,0.1880188,0.6629639,0.1440125
	l2.1260986-0.4070129c0.138916-0.0270081,0.2390137-0.1479797,0.2390137-0.2890015V26.8136902z"/>
<path class="st0" d="M133.3174438,142.2480774c0-0.1409912-0.1000977-0.26297-0.2390137-0.2889709l-2.125-0.4070129
	c-0.2320557-0.0440063-0.4710693,0.0079956-0.6640625,0.1440125c-0.3259277,0.2319946-0.6109619,0.5159912-0.842041,0.8429871
	c-2.2989502-0.1369934-4.5849609-0.4289856-6.8439941-0.8739929c-0.723999-0.1640015-1.4639893-0.2470093-2.2069092-0.2470093
	c-0.9630127,0-1.9219971,0.1390076-2.8450928,0.4140015c-0.8029785,0.2390137-1.5599365,0.6109924-2.2409668,1.1000061
	c-0.6539307,0.4710083-1.1999512,1.0749817-1.6030273,1.7729797c-0.3299561,0.5730286-0.5029297,1.2230225-0.5029297,1.8840027
	c0,0.6610107,0.1729736,1.3110046,0.5029297,1.8840027c0.4030762,0.697998,0.9490967,1.302002,1.6030273,1.7730103
	c0.6810303,0.4890137,1.4379883,0.8609924,2.2409668,1.1000061c0.9230957,0.2749939,1.8820801,0.4140015,2.8450928,0.4140015
	c0.7429199,0,1.4829102-0.0820007,2.2069092-0.2470093c2.2590332-0.4450073,4.5450439-0.7369995,6.8439941-0.8739929
	c0.2310791,0.3269958,0.5161133,0.6109924,0.842041,0.8429871c0.1929932,0.1360168,0.4320068,0.1880188,0.6640625,0.1440125
	l2.125-0.4070129c0.138916-0.0270081,0.2390137-0.1479797,0.2390137-0.2890015V142.2480774z"/>
<polygon class="st0" points="54.8238525,115.4610901 52.3048096,115.4610901 52.3048096,113.7971191 9.1208496,113.7971191 
	9.1208496,115.4610901 6.6028442,115.4610901 6.6028442,120.0491028 10.6228027,120.0491028 10.6228027,118.9151001 
	30.0548096,118.9151001 30.0548096,120.0491028 31.494812,120.0491028 31.494812,118.9151001 50.9268188,118.9151001 
	50.9268188,120.0491028 54.8238525,120.0491028 "/>
<line class="st0" x1="39.4118042" y1="113.7967834" x2="39.4118042" y2="118.9147949"/>
<line class="st0" x1="22.1383057" y1="113.7967834" x2="22.1383057" y2="118.9147949"/>
<line class="st0" x1="97.6922607" y1="157.2049866" x2="97.6922607" y2="119.2399902"/>
<line class="st0" x1="97.6922607" y1="117.9801941" x2="97.6922607" y2="115.4612122"/>
<line class="st0" x1="106.3289185" y1="157.2049866" x2="106.3289185" y2="119.2399902"/>
<line class="st0" x1="106.3289185" y1="117.9801941" x2="106.3289185" y2="115.4612122"/>
<line class="st0" x1="114.9656372" y1="157.2049866" x2="114.9656372" y2="149.9769897"/>
<line class="st0" x1="114.9656372" y1="143.2013855" x2="114.9656372" y2="115.4613953"/>
<line class="st0" x1="123.602356" y1="157.2049866" x2="123.602356" y2="151.3269958"/>
<line class="st0" x1="123.602356" y1="141.851593" x2="123.602356" y2="135.9736023"/>
<line class="st0" x1="132.2390747" y1="157.2049866" x2="132.2390747" y2="151.3800049"/>
<line class="st0" x1="132.2390747" y1="141.7983704" x2="132.2390747" y2="135.9733887"/>
<line class="st0" x1="133.9035034" y1="150.0078735" x2="133.3174438" y2="150.0078735"/>
<line class="st0" x1="115.0026245" y1="150.0078735" x2="90.7196045" y2="150.0078735"/>
<line class="st0" x1="117.7096558" y1="132.7344666" x2="89.055603" y2="132.7344666"/>
<line class="st0" x1="189.3580933" y1="83.8381653" x2="189.3580933" y2="39.0701904"/>
<line class="st0" x1="189.3580933" y1="38.5193787" x2="189.3580933" y2="20.0794067"/>
<line class="st0" x1="197.994812" y1="83.8381653" x2="197.994812" y2="20.0801697"/>
<line class="st0" x1="206.6314087" y1="83.8381653" x2="206.6314087" y2="20.0801697"/>
<line class="st0" x1="215.2680054" y1="42.2292786" x2="215.2680054" y2="36.0372925"/>
<line class="st0" x1="215.2680054" y1="26.2716675" x2="215.2680054" y2="20.0796814"/>
<line class="st0" x1="223.9047241" y1="42.2292786" x2="223.9047241" y2="35.4483032"/>
<line class="st0" x1="223.9047241" y1="26.8608704" x2="223.9047241" y2="20.079895"/>
<line class="st0" x1="214.9623413" y1="66.5649719" x2="186.6642456" y2="66.5649719"/>
<line class="st0" x1="185.4048462" y1="66.5649719" x2="182.8858032" y2="66.5649719"/>
<line class="st0" x1="214.9623413" y1="49.2915649" x2="180.7212524" y2="49.2915649"/>
<line class="st0" x1="231.1559448" y1="32.0180664" x2="230.5698853" y2="32.0180664"/>
<line class="st0" x1="184.9813843" y1="32.0180664" x2="180.7213745" y2="32.0180664"/>
<line class="st0" x1="210.5568237" y1="32.0180664" x2="185.6047974" y2="32.0180664"/>
<polygon class="st1" points="0.125,258.8659668 11.6409912,258.8659668 11.6409912,226.4779816 12.3719482,226.4779816 
	12.3719482,222.4299927 6.6019897,222.4299927 6.6019897,144.9700012 59.8619995,144.9700012 59.8619995,115.4609985 
	62.3809814,115.4609985 62.3809814,112.1319885 52.3049927,112.1319885 52.3049927,115.4609985 54.8239746,115.4609985 
	54.8239746,141.6409912 6.6019897,141.6409912 6.6019897,115.4609985 9.1209717,115.4609985 9.1209717,112.1319885 
	6.6019897,112.1319885 6.6019897,56.2639771 15.598999,56.2639771 15.598999,52.2149963 14.8789673,52.2149963 
	14.8789673,48.9769897 11.6409912,48.9769897 11.6409912,0.1260071 0.125,0.1260071 "/>
<polygon class="st1" points="87.2113647,229.7171783 87.2113647,226.4781799 86.6703491,226.4781799 86.6703491,222.430191 
	87.3913574,222.430191 87.3913574,208.485199 90.7203369,208.485199 90.7203369,222.430191 108.8032837,222.430191 
	108.8032837,216.8521881 131.6543579,216.8521881 131.6543579,185.2742004 90.7203369,185.2742004 90.7203369,186.8931885 
	87.3913574,186.8931885 87.3913574,141.0112 90.7203369,141.0112 90.7203369,180.2362061 133.9032593,180.2362061 
	133.9032593,115.4611816 90.7203369,115.4611816 90.7203369,117.9801941 87.3913574,117.9801941 87.3913574,115.4611816 
	83.9723511,115.4611816 83.9723511,112.1322021 117.2593384,112.1322021 117.2593384,109.6131897 120.5883179,109.6131897 
	120.5883179,112.1322021 138.9413452,112.1322021 138.9413452,229.7171783 "/>
<polygon class="st1" points="210.0142212,20.0798645 136.0081177,20.0798645 136.0081177,52.9348755 182.8861694,52.9348755 
	182.8861694,82.1738892 185.4052124,82.1738892 185.4052124,85.5028687 177.2421265,85.5028687 177.2421265,82.1738892 
	179.5571899,82.1738892 179.5571899,56.2638855 120.5881958,56.2638855 120.5881958,82.1738892 122.9031372,82.1738892 
	122.9031372,85.5028687 120.5881958,85.5028687 120.5881958,88.0218811 117.2592163,88.0218811 117.2592163,56.2638855 
	37.5501709,56.2638855 37.5501709,52.2158813 38.2702026,52.2158813 38.2702026,48.9768677 127.7321167,48.9768677 
	127.7321167,11.802887 210.0142212,11.802887 "/>
<polygon class="st1" points="229.9364624,11.8029785 233.3153687,11.8029785 233.3153687,0.125 239.7924194,0.125 
	239.7924194,258.8659668 233.3153687,258.8659668 233.3153687,188.1529846 230.076355,188.1529846 230.076355,184.9139709 
	229.3563843,184.9139709 229.3563843,180.8659973 231.1554565,180.8659973 231.1554565,85.5029907 206.9963989,85.5029907 
	206.9963989,82.1739807 231.1554565,82.1739807 231.1554565,20.0799866 229.9364624,20.0799866 "/>
<rect x="147.5784302" y="82.1736755" class="st1" width="4.9890137" height="3.32901"/>
<line class="st2" x1="166.4710083" y1="180.8659668" x2="138.940979" y2="180.8659668"/>
<line class="st2" x1="166.4710083" y1="188.1530762" x2="138.940979" y2="188.1530762"/>
<polyline class="st2" points="88.7505493,80.014679 31.7925415,80.014679 31.7925415,81.094696 89.0635376,81.094696 "/>
<line class="st2" x1="229.9364624" y1="20.0798645" x2="210.0143433" y2="20.0798645"/>
<line class="st2" x1="229.9364624" y1="16.8409729" x2="210.0143433" y2="16.8409729"/>
<line class="st3" x1="124.4570923" y1="216.8520813" x2="124.4570923" y2="214.710083"/>
<line class="st4" x1="124.4570923" y1="212.6104736" x2="124.4570923" y2="188.4664917"/>
<line class="st3" x1="124.4570923" y1="187.4162903" x2="124.4570923" y2="185.274292"/>
<line class="st3" x1="168.0415649" y1="63.4611816" x2="165.8994751" y2="63.4611816"/>
<line class="st5" x1="163.6275024" y1="63.4611816" x2="123.866394" y2="63.4611816"/>
<line class="st3" x1="122.7305298" y1="63.4611816" x2="120.5884399" y2="63.4611816"/>
<line class="st2" x1="38.2702026" y1="52.2153931" x2="14.8791504" y2="52.2153931"/>
<line class="st2" x1="38.2702026" y1="48.9766846" x2="14.8791504" y2="48.9766846"/>
<line class="st2" x1="11.6405029" y1="226.4784851" x2="87.2114868" y2="226.4784851"/>
<line class="st2" x1="11.6405029" y1="229.7171783" x2="87.2114868" y2="229.7171783"/>
<line class="st2" x1="166.4710083" y1="184.9143677" x2="230.0759888" y2="184.9143677"/>
<line class="st2" x1="166.4710083" y1="188.1530762" x2="230.0759888" y2="188.1530762"/>
<polygon class="st2" points="136.5123901,231.8762817 138.6713257,231.8762817 138.6713257,239.3062897 231.156311,239.3062897 
	231.156311,241.4662933 136.5123901,241.4662933 "/>
<rect x="138.9414673" y="184.9136658" class="st2" width="1.4389648" height="3.2390137"/>
<line class="st2" x1="166.4710083" y1="180.8659668" x2="166.4710083" y2="184.9139709"/>
<path class="st2" d="M164.9048462,85.502594c0,2.1660156,0.5699463,4.2930298,1.6529541,6.1690063"/>
<path class="st2" d="M163.2520142,91.6713867c1.0828857-1.8759766,1.6529541-4.0029907,1.6529541-6.1689758"/>
<rect x="165.4163971" y="87.4118118" transform="matrix(0.8660259 -0.4999991 0.4999991 0.8660259 -21.032753 97.587738)" class="st2" width="12.3376007" height="1.2595825"/>
<rect x="157.5948486" y="81.872818" transform="matrix(0.5000033 -0.8660235 0.8660235 0.5000033 2.8656988 181.0467529)" class="st2" width="1.259552" height="12.3375549"/>
<rect x="90.720459" y="117.9806824" class="st2" width="23.0309448" height="1.2590027"/>
<path class="st2" d="M90.7200928,141.0112915c12.7199097,0,23.0309448-10.3109741,23.0309448-23.0309753"/>
<rect x="90.720459" y="186.8936768" class="st2" width="21.59198" height="1.2590027"/>
<path class="st2" d="M90.7200928,208.4852905c11.9249878,0,21.59198-9.6669922,21.59198-21.59198"/>
<rect x="185.40448" y="60.581665" class="st2" width="1.2600098" height="21.5920105"/>
<path class="st2" d="M206.9966431,82.1737671c0-11.9249878-9.6671143-21.59198-21.592041-21.59198"/>
<line class="st3" x1="6.602356" y1="133.004364" x2="8.7443237" y2="133.004364"/>
<line class="st6" x1="10.7414551" y1="133.004364" x2="51.6834106" y2="133.004364"/>
<line class="st3" x1="52.6817627" y1="133.004364" x2="54.8237305" y2="133.004364"/>
<line class="st2" x1="229.9364624" y1="11.8029785" x2="210.0143433" y2="11.8029785"/>
<line class="st2" x1="35.3912964" y1="82.1737671" x2="35.3912964" y2="81.0937805"/>
<line class="st2" x1="35.3912964" y1="80.014679" x2="35.3912964" y2="56.2637024"/>
<line class="st2" x1="85.7719727" y1="82.1737671" x2="85.7719727" y2="81.0937805"/>
<line class="st2" x1="85.7719727" y1="80.014679" x2="85.7719727" y2="70.4487"/>
<line class="st2" x1="85.7719727" y1="69.1737671" x2="85.7719727" y2="67.7877808"/>
<polyline class="st2" points="82.4025879,56.2337646 85.4765625,67.7047729 88.0205688,68.4237671 83.7025757,69.8637695 
	86.2475586,70.5837708 89.3535767,82.1737671 "/>
<line class="st2" x1="42.588562" y1="82.1737671" x2="42.588562" y2="81.0937805"/>
<line class="st2" x1="42.588562" y1="80.014679" x2="42.588562" y2="56.2637024"/>
<line class="st2" x1="49.7857056" y1="82.1737671" x2="49.7857056" y2="81.0937805"/>
<line class="st2" x1="49.7857056" y1="80.014679" x2="49.7857056" y2="56.2637024"/>
<line class="st2" x1="56.9830933" y1="82.1737671" x2="56.9830933" y2="81.0937805"/>
<line class="st2" x1="56.9830933" y1="80.014679" x2="56.9830933" y2="56.2637024"/>
<line class="st2" x1="64.1802979" y1="82.1737671" x2="64.1802979" y2="81.0937805"/>
<line class="st2" x1="64.1802979" y1="80.014679" x2="64.1802979" y2="56.2637024"/>
<line class="st2" x1="71.3775024" y1="82.1737671" x2="71.3775024" y2="81.0937805"/>
<line class="st2" x1="71.3775024" y1="80.014679" x2="71.3775024" y2="56.2637024"/>
<line class="st2" x1="78.574707" y1="82.1737671" x2="78.574707" y2="81.0937805"/>
<line class="st2" x1="78.574707" y1="80.014679" x2="78.574707" y2="56.2637024"/>
<rect x="228.4974976" y="16.8406677" class="st2" width="1.4389648" height="3.2390137"/>
<rect x="210.0144653" y="16.8406677" class="st2" width="1.4389648" height="3.2390137"/>
<line class="st2" x1="228.4970093" y1="17.5606689" x2="211.4539185" y2="17.5606689"/>
<line class="st2" x1="228.4970093" y1="18.280365" x2="211.4539185" y2="18.280365"/>
<path class="st2" d="M133.5878296,91.6713867c1.0828857-1.8759766,1.6529541-4.0029907,1.6529541-6.1689758"/>
<path class="st2" d="M135.2407837,85.502594c0,2.1660156,0.5699463,4.2930298,1.6529541,6.1690063"/>
<rect x="127.9304504" y="81.8730545" transform="matrix(0.5000377 -0.8660036 0.8660036 0.5000377 -11.969039 155.3512115)" class="st7" width="1.2597961" height="12.3371267"/>
<rect x="135.7520905" y="87.4118195" transform="matrix(0.8660259 -0.4999991 0.4999991 0.8660259 -25.0070038 82.7556152)" class="st2" width="12.3376007" height="1.2595825"/>
<rect x="120.5884399" y="108.3546753" class="st2" width="21.592041" height="1.2590027"/>
<path class="st2" d="M142.1801147,109.6132812c0-11.9249878-9.6671143-21.59198-21.592041-21.59198"/>
<rect x="62.3804932" y="115.4606628" class="st2" width="1.2600098" height="21.5920105"/>
<path class="st2" d="M62.3808594,137.0526733c11.9249878,0,21.59198-9.6669922,21.59198-21.59198"/>
<rect x="51.0455322" y="90.5406799" class="st2" width="1.2589722" height="21.5920105"/>
<rect x="9.12146" y="90.5406799" class="st2" width="1.2600098" height="21.5920105"/>
<path class="st2" d="M52.3046875,90.5407715c-11.9250488,0-21.592041,9.6670227-21.592041,21.5920105"/>
<path class="st2" d="M30.7129517,112.1324768c0-11.9249878-9.6670532-21.59198-21.592041-21.59198"/>
<rect x="36.8314209" y="48.9766541" class="st2" width="1.4390259" height="3.2390137"/>
<rect x="14.8794556" y="48.9766541" class="st2" width="1.4390259" height="3.2390137"/>
<line class="st2" x1="36.8307495" y1="49.6963806" x2="16.3187256" y2="49.6963806"/>
<line class="st2" x1="36.8307495" y1="50.4161682" x2="16.3187256" y2="50.4161682"/>
<line class="st2" x1="37.5504761" y1="56.2638855" x2="15.5984497" y2="56.2638855"/>
<rect x="11.6405029" y="226.4786835" class="st2" width="1.4390259" height="3.2389984"/>
<rect x="85.7714844" y="226.4786835" class="st2" width="1.4390259" height="3.2389984"/>
<rect x="28.194458" y="226.4786835" class="st2" width="1.4390259" height="3.2389984"/>
<line class="st2" x1="13.079895" y1="228.9974823" x2="28.1938477" y2="228.9974823"/>
<line class="st2" x1="13.079895" y1="228.2776794" x2="28.1938477" y2="228.2776794"/>
<rect x="69.2185059" y="226.4786835" class="st2" width="1.4390259" height="3.2389984"/>
<line class="st2" x1="29.6333618" y1="228.9974823" x2="69.2183228" y2="228.9974823"/>
<line class="st2" x1="29.6333618" y1="228.2776794" x2="69.2183228" y2="228.2776794"/>
<line class="st2" x1="70.6576538" y1="228.9974823" x2="85.7716064" y2="228.9974823"/>
<line class="st2" x1="70.6576538" y1="228.2776794" x2="85.7716064" y2="228.2776794"/>
<line class="st2" x1="12.3601685" y1="222.4299774" x2="86.5031128" y2="222.4299774"/>
<rect x="166.4714966" y="184.9146729" class="st2" width="1.4389648" height="3.2390137"/>
<rect x="228.6375122" y="184.9146729" class="st2" width="1.4389648" height="3.2390137"/>
<rect x="185.1835327" y="184.9146729" class="st2" width="1.4389648" height="3.2390137"/>
<line class="st2" x1="167.9103394" y1="187.4333801" x2="185.1832886" y2="187.4333801"/>
<line class="st2" x1="167.9103394" y1="186.7136841" x2="185.1832886" y2="186.7136841"/>
<rect x="206.7754517" y="184.9146729" class="st2" width="1.4389648" height="3.2390137"/>
<line class="st2" x1="186.6231079" y1="187.4333801" x2="206.7750854" y2="187.4333801"/>
<line class="st2" x1="186.6231079" y1="186.7136841" x2="206.7750854" y2="186.7136841"/>
<line class="st2" x1="208.2147827" y1="187.4333801" x2="228.6367798" y2="187.4333801"/>
<line class="st2" x1="208.2147827" y1="186.7136841" x2="228.6367798" y2="186.7136841"/>
<line class="st2" x1="166.4710083" y1="180.8659668" x2="229.3569946" y2="180.8659668"/>
<rect x="140.3804321" y="188.1526794" class="st2" width="1.2600098" height="26.0899963"/>
<path class="st2" d="M140.3809204,214.2431641c14.4089355,0,26.0899658-11.6809998,26.0899658-26.0899963"/>
<line class="st2" x1="8.041748" y1="205.2914734" x2="8.041748" y2="162.10849"/>
<rect x="6.602478" y="162.1086731" class="st2" width="59.0169678" height="43.1829834"/>
<ellipse class="st2" cx="18.383728" cy="172.9039917" rx="6.9716797" ry="13.0153198"/>
<path class="st2" d="M20.2771606,182.980072c-3.7790527-0.9599915-7.7370605-0.9599915-11.5160522,0
	c0.960022-6.6829834,0.960022-13.4689941,0-20.1519775c3.7789917,0.9599915,7.7369995,0.9599915,11.5160522,0
	c-0.0820312,0.572998-0.15802,1.1470032-0.2260132,1.7219849"/>
<ellipse class="st2" cx="18.383728" cy="194.4956818" rx="6.9716816" ry="13.0153351"/>
<path class="st2" d="M20.2771606,184.4196777c-3.7790527,0.960022-7.7370605,0.960022-11.5160522,0
	c0.960022,6.6830139,0.960022,13.4690247,0,20.1520081c3.7789917-0.9599915,7.7369995-0.9599915,11.5160522,0
	c-0.0820312-0.572998-0.15802-1.1470032-0.2260132-1.7219849"/>
<line class="st2" x1="15.2389526" y1="162.1082764" x2="15.2389526" y2="163.5362854"/>
<line class="st2" x1="24.595459" y1="162.1082764" x2="24.595459" y2="205.2912903"/>
<line class="st2" x1="15.2389526" y1="182.2713928" x2="15.2389526" y2="185.128418"/>
<line class="st2" x1="15.2389526" y1="203.8630676" x2="15.2389526" y2="205.2910767"/>
<path class="st2" d="M20.0513916,181.2581787c0.0679932,0.5750122,0.1429443,1.1490173,0.2259521,1.7220154"/>
<path class="st2" d="M20.2771606,184.4196777c-0.0820312,0.5730286-0.15802,1.1470032-0.2260132,1.7220154"/>
<rect x="8.0415039" y="206.7306824" class="st2" width="11.5159912" height="14.3939972"/>
<rect x="8.0415039" y="146.2746582" class="st2" width="11.5159912" height="14.3940125"/>
<circle class="st2" cx="13.7994385" cy="213.9281921" r="4.2789917"/>
<path class="st2" d="M12.7008057,213.9281921c0-0.6069946,0.4919434-1.098999,1.098999-1.098999
	c0.6069946,0,1.098999,0.4920044,1.098999,1.098999c0,0.6070251-0.4920044,1.0990295-1.098999,1.0990295
	C13.192749,215.0272217,12.7008057,214.5352173,12.7008057,213.9281921z"/>
<line class="st2" x1="18.0787964" y1="213.9281921" x2="14.8987427" y2="213.9281921"/>
<line class="st2" x1="12.7008057" y1="213.9281921" x2="9.520752" y2="213.9281921"/>
<line class="st2" x1="13.7995605" y1="218.2072754" x2="13.7995605" y2="215.0272827"/>
<line class="st2" x1="13.7995605" y1="212.8292847" x2="13.7995605" y2="209.649292"/>
<ellipse transform="matrix(0.9238794 -0.3826838 0.3826838 0.9238794 -57.6806259 16.9631634)" class="st2" cx="13.7994318" cy="153.4714661" rx="4.2789898" ry="4.279007"/>
<path class="st2" d="M12.7008057,153.4714661c0-0.6069946,0.4919434-1.098999,1.098999-1.098999
	c0.6069946,0,1.098999,0.4920044,1.098999,1.098999c0,0.6070251-0.4920044,1.0990295-1.098999,1.0990295
	C13.192749,154.5704956,12.7008057,154.0784912,12.7008057,153.4714661z"/>
<line class="st2" x1="18.0787964" y1="153.4714661" x2="14.8987427" y2="153.4714661"/>
<line class="st2" x1="12.7008057" y1="153.4714661" x2="9.520752" y2="153.4714661"/>
<line class="st2" x1="13.7995605" y1="157.7504883" x2="13.7995605" y2="154.5704956"/>
<line class="st2" x1="13.7995605" y1="152.372467" x2="13.7995605" y2="149.1924744"/>
<line class="st2" x1="229.7166138" y1="107.0942688" x2="229.7166138" y2="161.7932739"/>
<rect x="172.1384888" y="107.0946655" class="st2" width="59.0169678" height="54.6990051"/>
<path class="st2" d="M214.336731,136.2431641c3.289917,0.960022,6.7858887,0.960022,10.0759277,0
	c-0.7199707,7.6600037-0.7199707,15.3710022,0,23.0310059c-3.2900391-0.9589844-6.7860107-0.9589844-10.0759277,0
	C215.0567017,151.6141663,215.0567017,143.9031677,214.336731,136.2431641z"/>
<path class="st2" d="M217.4812622,135.1635742c3.7789307,0.960022,7.7369385,0.960022,11.5159912,0
	c-0.960083,8.3690186-0.960083,16.8210144,0,25.1900024c-3.7790527-0.9589844-7.7370605-0.9589844-11.5159912,0
	c0.0819092-0.572998,0.1569824-1.1470032,0.2259521-1.7219849"/>
<path class="st2" d="M214.336731,132.6445923c3.289917-0.9599915,6.7858887-0.9599915,10.0759277,0
	c-0.7199707-7.6599731-0.7199707-15.3709717,0-23.0309753c-3.2900391,0.9589844-6.7860107,0.9589844-10.0759277,0
	C215.0567017,117.2736206,215.0567017,124.9846191,214.336731,132.6445923z"/>
<path class="st2" d="M217.4812622,133.7240906c3.7789307-0.9599915,7.7369385-0.9599915,11.5159912,0
	c-0.960083-8.368988-0.960083-16.8209839,0-25.1899719c-3.7790527,0.9589844-7.7370605,0.9589844-11.5159912,0
	c0.0819092,0.572998,0.1569824,1.1469727,0.2259521,1.7209778"/>
<line class="st2" x1="222.5192261" y1="161.7932739" x2="222.5192261" y2="159.6452942"/>
<line class="st2" x1="213.1629028" y1="161.7932739" x2="213.1629028" y2="107.0942993"/>
<line class="st2" x1="222.5192261" y1="135.8721924" x2="222.5192261" y2="133.0151978"/>
<line class="st2" x1="222.5192261" y1="109.2423706" x2="222.5192261" y2="107.0943909"/>
<path class="st2" d="M217.7070923,136.885376c-0.0681152-0.5749817-0.1430664-1.1489868-0.2260742-1.7219849"/>
<path class="st2" d="M217.4812622,133.7240906c0.0819092-0.572998,0.1569824-1.1469727,0.2259521-1.7219849"/>
<rect x="218.2014771" y="163.232666" class="st2" width="11.5159912" height="14.394989"/>
<rect x="218.2014771" y="91.2606812" class="st2" width="11.5159912" height="14.3940125"/>
<path class="st2" d="M219.6797485,170.4299927c0-2.3629761,1.9158936-4.2789917,4.2789307-4.2789917
	s4.2790527,1.9160156,4.2790527,4.2789917c0,2.3630066-1.9160156,4.2790222-4.2790527,4.2790222
	S219.6797485,172.7929993,219.6797485,170.4299927z"/>
<path class="st2" d="M222.8598022,170.4299927c0-0.6069946,0.4919434-1.098999,1.098999-1.098999
	c0.6069336,0,1.098999,0.4920044,1.098999,1.098999c0,0.6070251-0.4920654,1.0990295-1.098999,1.0990295
	C223.3517456,171.5290222,222.8598022,171.0370178,222.8598022,170.4299927z"/>
<line class="st2" x1="223.9586792" y1="174.7090759" x2="223.9586792" y2="171.5290833"/>
<line class="st2" x1="223.9586792" y1="169.3310852" x2="223.9586792" y2="166.1510925"/>
<line class="st2" x1="219.6797485" y1="170.4299927" x2="222.8596802" y2="170.4299927"/>
<line class="st2" x1="225.0578003" y1="170.4299927" x2="228.2377319" y2="170.4299927"/>
<path class="st2" d="M219.6797485,98.4575806c0-2.3629761,1.9158936-4.2789917,4.2789307-4.2789917
	s4.2790527,1.9160156,4.2790527,4.2789917c0,2.3630066-1.9160156,4.2790222-4.2790527,4.2790222
	S219.6797485,100.8205872,219.6797485,98.4575806z"/>
<path class="st2" d="M222.8598022,98.4575806c0-0.6069946,0.4919434-1.098999,1.098999-1.098999
	c0.6069336,0,1.098999,0.4920044,1.098999,1.098999c0,0.6070251-0.4920654,1.0990295-1.098999,1.0990295
	C223.3517456,99.5566101,222.8598022,99.0646057,222.8598022,98.4575806z"/>
<line class="st2" x1="223.9586792" y1="94.1785889" x2="223.9586792" y2="97.3586121"/>
<line class="st2" x1="223.9586792" y1="99.5566711" x2="223.9586792" y2="102.7366943"/>
<line class="st2" x1="219.6797485" y1="98.4575806" x2="222.8596802" y2="98.4575806"/>
<line class="st2" x1="225.0578003" y1="98.4575806" x2="228.2377319" y2="98.4575806"/>
<rect x="184.0663605" y="20.3075657" transform="matrix(0.8660318 -0.4999889 0.4999889 0.8660318 9.5150385 96.2335052)" class="st2" width="0.5398407" height="20.1068573"/>
<line class="st2" x1="180.7213745" y1="20.0798645" x2="180.7213745" y2="23.5598755"/>
<line class="st2" x1="180.7213745" y1="24.639679" x2="180.7213745" y2="52.9346924"/>
<polyline class="st2" points="179.5430298,20.0798645 179.5430298,21.5188904 179.0029907,21.5188904 179.0029907,20.0798645 "/>
<rect x="179.003479" y="41.6266785" class="st2" width="0.5400391" height="11.3089905"/>
<line class="st2" x1="136.1051636" y1="36.8672791" x2="137.9880981" y2="36.8672791"/>
<line class="st2" x1="137.987854" y1="36.8672791" x2="137.987854" y2="36.1473083"/>
<line class="st2" x1="137.987854" y1="36.147583" x2="136.1047974" y2="36.147583"/>
<line class="st2" x1="136.0084839" y1="36.9572754" x2="136.1054077" y2="36.9572754"/>
<line class="st2" x1="136.1051636" y1="36.9572754" x2="136.1051636" y2="36.0572815"/>
<line class="st2" x1="136.1051636" y1="36.0576782" x2="136.0081177" y2="36.0576782"/>
<line class="st2" x1="138.1036987" y1="38.1440735" x2="138.1036987" y2="35.5550842"/>
<line class="st2" x1="137.9452515" y1="34.5602722" x2="137.4221802" y2="34.5602722"/>
<line class="st2" x1="137.4223022" y1="34.5602722" x2="137.4223022" y2="36.1472778"/>
<line class="st2" x1="137.4223022" y1="36.8672791" x2="137.4223022" y2="38.1442871"/>
<line class="st2" x1="137.4223022" y1="38.1440735" x2="138.1032104" y2="38.1440735"/>
<line class="st2" x1="138.1036987" y1="37.4675903" x2="137.4226685" y2="37.4675903"/>
<path class="st2" d="M139.0654907,36.1658936c0.5308838,0.0550232,0.9969482-0.4329834,1.0419922-1.0889893
	c0.0449219-0.6560059-0.348999-1.2319946-0.8800049-1.2860107c-0.0531006-0.0059814-0.1060791-0.0059814-0.1600342,0"/>
<path class="st2" d="M138.0220337,34.9753723c-0.0020752,0.65802,0.4279785,1.1930237,0.9609375,1.1940002
	c0.532959,0.0020142,0.9659424-0.5299988,0.9680176-1.1879883c0.0019531-0.6579895-0.4279785-1.1929932-0.9610596-1.1950073
	C138.4569702,33.7854004,138.0239868,34.3173828,138.0220337,34.9753723z"/>
<path class="st2" d="M138.2017212,35.6724854c-0.0300293-0.0359802-0.0600586-0.071991-0.0900879-0.1079712
	c-0.0629883-0.0740051-0.1290283-0.1480103-0.2109375-0.1980286c-0.0510254-0.0309753-0.1090088-0.0539856-0.1669922-0.0619812
	c-0.0280762-0.0039978-0.0560303-0.0050049-0.0839844-0.007019"/>
<path class="st2" d="M138.204895,34.2810669c-0.0310059,0.0370178-0.0620117,0.0750122-0.0941162,0.11203
	c-0.0618896,0.0739746-0.1279297,0.1469727-0.2099609,0.197998c-0.0510254,0.0309753-0.1090088,0.0529785-0.1679688,0.0619812
	c-0.0269775,0.0039978-0.0550537,0.0050049-0.0839844,0.006012"/>
<path class="st2" d="M137.649353,34.6593933c-0.1760254,0.0760193-0.2580566,0.2800293-0.1820068,0.4560242
	c0.0349121,0.0820007,0.0999756,0.1470032,0.1820068,0.1829834"/>
<line class="st2" x1="136.0084839" y1="36.9572754" x2="136.0084839" y2="36.0572815"/>
<path class="st2" d="M144.0730591,35.5811768c0-0.9259949,0.7509766-1.6769714,1.6768799-1.6769714
	c0.9260254,0,1.677002,0.7509766,1.677002,1.6769714c0,0.9260254-0.7509766,1.677002-1.677002,1.677002
	C144.8240356,37.2581787,144.0730591,36.5072021,144.0730591,35.5811768z"/>
<line class="st2" x1="177.8425903" y1="52.9350891" x2="177.8425903" y2="20.0801086"/>
<line class="st2" x1="177.8425903" y1="21.1593933" x2="166.9215698" y2="21.1593933"/>
<polyline class="st2" points="165.3720093,21.1593933 140.0569458,21.1593933 140.0569458,34.5834045 "/>
<path class="st2" d="M179.5430298,41.6263733c3.5299072,0,6.9969482-0.9289856,10.0539551-2.6939697"/>
<line class="st2" x1="165.3606567" y1="21.0345764" x2="166.9336548" y2="21.0345764"/>
<line class="st2" x1="168.7559204" y1="20.6708679" x2="163.5379028" y2="20.6708679"/>
<path class="st2" d="M163.5796509,20.7224731c0.5828857,0.1590271,1.1789551,0.2640076,1.7808838,0.3120117"/>
<path class="st2" d="M166.9332886,21.0345764c0.6019287-0.0489807,1.197998-0.1529846,1.7808838-0.3119812"/>
<line class="st2" x1="168.765686" y1="20.484375" x2="168.7556763" y2="20.6703796"/>
<line class="st2" x1="163.5380249" y1="20.6708679" x2="163.5280151" y2="20.4848938"/>
<path class="st2" d="M168.7142944,20.7224731c0.0229492-0.0059814,0.039917-0.0269775,0.0419922-0.0519714"/>
<path class="st2" d="M163.5380249,20.6708679c0.0009766,0.0240173,0.0179443,0.0450134,0.0419922,0.052002"/>
<line class="st2" x1="166.9220581" y1="21.0345764" x2="166.9220581" y2="21.7175903"/>
<line class="st2" x1="165.3720093" y1="21.7175903" x2="165.3720093" y2="21.0346069"/>
<line class="st2" x1="165.5366821" y1="22.1111755" x2="166.140564" y2="22.1111755"/>
<line class="st2" x1="166.1404419" y1="22.1111755" x2="166.1533813" y2="22.1111755"/>
<line class="st2" x1="166.8921509" y1="22.1111755" x2="166.7571411" y2="22.1111755"/>
<line class="st2" x1="165.5366821" y1="22.1111755" x2="165.4016724" y2="22.1111755"/>
<line class="st2" x1="166.1533813" y1="22.1111755" x2="166.7572632" y2="22.1111755"/>
<line class="st2" x1="166.9005737" y1="22.1196899" x2="166.8815308" y2="23.2087097"/>
<line class="st2" x1="165.4124146" y1="23.2088928" x2="165.3933716" y2="22.1199036"/>
<path class="st2" d="M166.9005737,22.1196899c0-0.0049744-0.0040283-0.0089722-0.0080566-0.0089722"/>
<path class="st2" d="M165.4020386,22.1111755c-0.0050049,0-0.0090332,0.0040283-0.0090332,0.0080261"/>
<path class="st2" d="M165.4124146,23.2088928c0,0.0120239,0.0098877,0.0220032,0.0219727,0.0220032"/>
<path class="st2" d="M166.8596802,23.2311707c0.0119629,0,0.0219727-0.0099792,0.0219727-0.0219727"/>
<path class="st2" d="M165.4342651,23.2311707c0.4749756,0.0180054,0.9509277,0.0180054,1.4249268,0"/>
<path class="st2" d="M166.8146362,22.1111755c0.0699463-0.118988,0.1069336-0.2549744,0.1069336-0.3939819"/>
<path class="st2" d="M165.3720093,21.7175903c0,0.1380005,0.0369873,0.2740173,0.1069336,0.3940125"/>
<line class="st2" x1="163.5282593" y1="20.484375" x2="163.5282593" y2="20.0793762"/>
<line class="st2" x1="168.765686" y1="20.484375" x2="168.765686" y2="20.0793762"/>
<polyline class="st2" points="177.8425903,51.8555908 140.0565796,51.8555908 140.0565796,35.3706055 "/>
<path class="st2" d="M221.4188843,51.9139709c0-0.5999756,0.4869385-1.0869751,1.0869141-1.0869751
	s1.0870361,0.4869995,1.0870361,1.0869751c0,0.6000061-0.4870605,1.0870056-1.0870361,1.0870056
	S221.4188843,52.5139771,221.4188843,51.9139709z"/>
<path class="st2" d="M221.8757935,51.9134827c0-0.3479919,0.2819824-0.6299744,0.6298828-0.6299744
	c0.3480225,0,0.6300049,0.2819824,0.6300049,0.6299744c0,0.3480225-0.2819824,0.6300049-0.6300049,0.6300049
	C222.1577759,52.5434875,221.8757935,52.2615051,221.8757935,51.9134827z"/>
<line class="st2" x1="225.4235229" y1="51.4509888" x2="228.8384399" y2="51.4509888"/>
<path class="st2" d="M225.4235229,51.4509888c-0.1411133,0-0.2550049,0.1140137-0.2550049,0.2550049"/>
<path class="st2" d="M225.1685181,52.1219788c0,0.1410217,0.1138916,0.2550049,0.2548828,0.2550049"/>
<line class="st2" x1="225.1685181" y1="51.7059937" x2="225.1685181" y2="52.1220093"/>
<path class="st2" d="M228.9098511,52.2901917c-0.0720215-0.0819702-0.1760254-0.1279907-0.2850342-0.1279907"/>
<path class="st2" d="M228.6245728,51.6661682c0.1088867,0,0.2128906-0.0469971,0.2849121-0.1279907"/>
<line class="st2" x1="227.019104" y1="51.6661682" x2="228.6240845" y2="51.6661682"/>
<line class="st2" x1="228.6244507" y1="52.1617737" x2="227.0193481" y2="52.1617737"/>
<path class="st2" d="M226.8773804,52.019989c0,0.0780029,0.0629883,0.1420288,0.1419678,0.1420288"/>
<line class="st2" x1="226.8773804" y1="51.8079834" x2="226.8773804" y2="52.019989"/>
<path class="st2" d="M229.1063843,52.4331665c-0.0841064-0.0369873-0.1760254-0.0559998-0.2680664-0.0559998"/>
<path class="st2" d="M228.838562,51.4509888c0.0919189,0,0.1829834-0.0189819,0.2679443-0.0559998"/>
<line class="st2" x1="228.838562" y1="52.3769836" x2="225.4235229" y2="52.3769836"/>
<path class="st2" d="M228.8318481,52.3769836c0.2559814,0.2770081,0.6879883,0.2950134,0.9649658,0.0390015
	c0.2769775-0.2559814,0.2949219-0.6879883,0.0389404-0.9649963c-0.2559814-0.2769775-0.6879883-0.2949829-0.9649658-0.0390015
	c-0.0140381,0.0130005-0.0269775,0.026001-0.0389404,0.0390015"/>
<path class="st2" d="M228.9098511,52.2901917c0.2078857,0.2340088,0.565918,0.256012,0.7999268,0.0480042
	c0.2340088-0.2079773,0.2559814-0.565979,0.0479736-0.7999878s-0.565918-0.256012-0.7999268-0.0480042
	c-0.0170898,0.0150146-0.0330811,0.0310059-0.0479736,0.0480042"/>
<path class="st2" d="M227.019104,51.6661682c-0.0780029,0-0.1420898,0.0640259-0.1420898,0.1420288"/>
<path class="st2" d="M227.883728,51.4509888c-0.2550049-2.9699707-2.8701172-5.17099-5.8410645-4.9159851
	c-2.9699707,0.256012-5.1710205,2.8710022-4.9150391,5.8410034c0.2550049,2.9700012,2.8699951,5.17099,5.8400879,4.9159851
	c2.6159668-0.2249756,4.690918-2.2989807,4.9160156-4.914978"/>
<path class="st2" d="M221.4188843,71.3781738c0-0.5999756,0.4869385-1.0869751,1.0869141-1.0869751
	s1.0870361,0.4869995,1.0870361,1.0869751c0,0.6000061-0.4870605,1.0870056-1.0870361,1.0870056
	S221.4188843,71.9781799,221.4188843,71.3781738z"/>
<path class="st2" d="M221.8757935,71.377594c0-0.3479919,0.2819824-0.6299744,0.6298828-0.6299744
	c0.3480225,0,0.6300049,0.2819824,0.6300049,0.6299744c0,0.3480225-0.2819824,0.6300049-0.6300049,0.6300049
	C222.1577759,72.0075989,221.8757935,71.7256165,221.8757935,71.377594z"/>
<line class="st2" x1="225.4235229" y1="70.9151917" x2="228.8384399" y2="70.9151917"/>
<path class="st2" d="M225.4235229,70.9151917c-0.1411133,0-0.2550049,0.1140137-0.2550049,0.2550049"/>
<path class="st2" d="M225.1685181,71.5861816c0,0.1410217,0.1138916,0.2550049,0.2548828,0.2550049"/>
<line class="st2" x1="225.1685181" y1="71.170166" x2="225.1685181" y2="71.5861816"/>
<path class="st2" d="M228.9098511,71.7542725c-0.0720215-0.0819702-0.1760254-0.1279907-0.2850342-0.1279907"/>
<path class="st2" d="M228.6245728,71.1303711c0.1088867,0,0.2128906-0.0469971,0.2849121-0.1279907"/>
<line class="st2" x1="227.019104" y1="71.1303711" x2="228.6240845" y2="71.1303711"/>
<line class="st2" x1="228.6244507" y1="71.6259766" x2="227.0193481" y2="71.6259766"/>
<path class="st2" d="M226.8773804,71.4841919c0,0.0780029,0.0629883,0.1420288,0.1419678,0.1420288"/>
<line class="st2" x1="226.8773804" y1="71.2721863" x2="226.8773804" y2="71.4841919"/>
<path class="st2" d="M229.1063843,71.8972778c-0.0841064-0.0369873-0.1760254-0.0559998-0.2680664-0.0559998"/>
<path class="st2" d="M228.838562,70.9151917c0.0919189,0,0.1829834-0.0189819,0.2679443-0.0559998"/>
<line class="st2" x1="228.838562" y1="71.8411865" x2="225.4235229" y2="71.8411865"/>
<path class="st2" d="M228.8318481,71.8411865c0.2559814,0.2770081,0.6879883,0.2950134,0.9649658,0.0390015
	c0.2769775-0.2559814,0.2949219-0.6879883,0.0389404-0.9649963c-0.2559814-0.2769775-0.6879883-0.2949829-0.9649658-0.0390015
	c-0.0140381,0.0130005-0.0269775,0.026001-0.0389404,0.0390015"/>
<path class="st2" d="M228.9098511,71.7542725c0.2078857,0.2340088,0.565918,0.256012,0.7999268,0.0480042
	c0.2340088-0.2079773,0.2559814-0.565979,0.0479736-0.7999878s-0.565918-0.256012-0.7999268-0.0480042
	c-0.0170898,0.0150146-0.0330811,0.0310059-0.0479736,0.0480042"/>
<path class="st2" d="M227.019104,71.1303711c-0.0780029,0-0.1420898,0.0630188-0.1420898,0.1420288"/>
<path class="st2" d="M227.883728,70.9151917c-0.2550049-2.9699707-2.8701172-5.17099-5.8410645-4.9159851
	c-2.9699707,0.256012-5.1710205,2.8710022-4.9150391,5.8410034c0.2550049,2.9700012,2.8699951,5.17099,5.8400879,4.9159851
	c2.6159668-0.2249756,4.690918-2.2989807,4.9160156-4.914978"/>
<path class="st2" d="M217.6494751,36.3259888c0.9639893,0,1.9219971-0.1399841,2.8459473-0.414978
	c0.8029785-0.2390137,1.5599365-0.6109924,2.2399902-1.1000061c0.2419434-0.1730042,0.4689941-0.3659973,0.6810303-0.5750122"/>
<path class="st2" d="M217.6494751,36.3259888c-0.9641113,0-1.9221191-0.1399841-2.8460693-0.414978
	c-0.8029785-0.2390137-1.5599365-0.6109924-2.2399902-1.1000061c-0.6540527-0.4700012-1.2010498-1.0750122-1.6030273-1.7730103
	c-0.3299561-0.572998-0.5040283-1.2219849-0.5040283-1.8829956c0-0.6619873,0.1740723-1.3110046,0.5040283-1.8840027
	c0.4019775-0.697998,0.9489746-1.3029785,1.6030273-1.7729797c0.6800537-0.4890137,1.4370117-0.8610229,2.2399902-1.1000061
	c0.9239502-0.2749939,1.881958-0.4150085,2.8460693-0.4150085c0.9639893,0,1.9219971,0.1400146,2.8459473,0.4150085
	c0.8029785,0.2389832,1.5599365,0.6109924,2.2399902,1.1000061c0.2419434,0.1729736,0.4689941,0.3659973,0.6810303,0.5749817
	v6.1629944"/>
<path class="st2" d="M226.7000122,35.2048645c-2.2980957,0.1360168-4.585083,0.428009-6.8441162,0.8740234"/>
<path class="st2" d="M225.8937378,29.1491699c0.098999-0.5149841,0.2619629-1.0159912,0.4838867-1.4909973
	c0.2600098-0.5579834,0.6621094-1.039978,1.1650391-1.3959961c0.1920166-0.1369934,0.4310303-0.1889954,0.6629639-0.144989
	l2.125,0.4069824c0.1390381,0.0270081,0.2390137,0.1480103,0.2390137,0.2890015v8.6820068
	c0,0.1419983-0.0999756,0.2630005-0.2390137,0.2900085l-2.125,0.4060059
	c-0.2319336,0.0449829-0.4709473-0.007019-0.6629639-0.1440125c-0.5029297-0.3569946-0.9050293-0.8379822-1.1650391-1.3959961
	c-0.2219238-0.4760132-0.3848877-0.9760132-0.4838867-1.4909973c-0.1280518-0.6610107-0.1920166-1.3329964-0.1920166-2.006012
	C225.7017212,30.4811707,225.765686,29.8101807,225.8937378,29.1491699z"/>
<path class="st2" d="M226.7000122,27.1040649c-2.2980957-0.1359863-4.585083-0.4279785-6.8441162-0.8739929"/>
<path class="st2" d="M227.3872681,31.1545715c0-0.2979736,0.2419434-0.539978,0.539917-0.539978
	s0.5400391,0.2420044,0.5400391,0.539978c0,0.2980042-0.2420654,0.5400085-0.5400391,0.5400085
	S227.3872681,31.4525757,227.3872681,31.1545715z"/>
<path class="st2" d="M120.3969116,151.7605896c0.9639893,0,1.9219971-0.1399841,2.8459473-0.414978
	c0.8029785-0.2390137,1.5599365-0.6109924,2.2399902-1.1000061c0.2419434-0.1740112,0.4689941-0.3659973,0.6810303-0.5750122"/>
<path class="st2" d="M120.3969116,151.7605896c-0.9641113,0-1.9221191-0.1399841-2.8460693-0.414978
	c-0.8029785-0.2390137-1.5599365-0.6109924-2.2399902-1.1000061c-0.6540527-0.4700012-1.2010498-1.0750122-1.6030273-1.7730103
	c-0.3299561-0.572998-0.5040283-1.2219849-0.5040283-1.8840027c0-0.6609802,0.1740723-1.3099976,0.5040283-1.8829956
	c0.4019775-0.697998,0.9489746-1.3029785,1.6030273-1.7729797c0.6800537-0.4890137,1.4370117-0.8610229,2.2399902-1.1000061
	c0.9239502-0.2749939,1.881958-0.4150085,2.8460693-0.4150085c0.9639893,0,1.9219971,0.1400146,2.8459473,0.4150085
	c0.8029785,0.2389832,1.5599365,0.6109924,2.2399902,1.1000061c0.2419434,0.1729736,0.4689941,0.3659973,0.6810303,0.5759888
	v6.1619873"/>
<path class="st2" d="M129.4473267,150.6395874c-2.2980957,0.1360168-4.585083,0.428009-6.8441162,0.8740234"/>
<path class="st2" d="M128.6410522,144.5838928c0.0999756-0.5149841,0.2619629-1.0159912,0.4838867-1.4909973
	c0.2611084-0.5579834,0.6621094-1.039978,1.1650391-1.3959961c0.1920166-0.1369934,0.4320068-0.1889954,0.6629639-0.144989
	l2.125,0.4069824c0.1390381,0.0270081,0.2390137,0.1480103,0.2390137,0.2890015v8.6820068
	c0,0.1410217-0.0999756,0.2630005-0.2390137,0.2890015l-2.125,0.4070129
	c-0.230957,0.0440063-0.4709473-0.0079956-0.6629639-0.1440125c-0.5029297-0.3569946-0.9039307-0.8379822-1.1650391-1.3970032
	c-0.2219238-0.4750061-0.3839111-0.9750061-0.4838867-1.4899902c-0.1280518-0.6610107-0.1920166-1.3330078-0.1920166-2.006012
	S128.5130005,145.2449036,128.6410522,144.5838928z"/>
<path class="st2" d="M129.4473267,142.5387878c-2.2980957-0.1359863-4.585083-0.4279785-6.8441162-0.8739929"/>
<path class="st2" d="M130.1345825,146.5890808c0-0.2979736,0.2419434-0.539978,0.539917-0.539978
	s0.5400391,0.2420044,0.5400391,0.539978c0,0.2980042-0.2420654,0.5400085-0.5400391,0.5400085
	S130.1345825,146.887085,130.1345825,146.5890808z"/>
<rect x="10.6224976" y="118.9146729" class="st2" width="19.4329834" height="1.1350098"/>
<rect x="31.4945068" y="118.9146729" class="st2" width="19.4329834" height="1.1350098"/>
<line class="st3" x1="30.0552979" y1="120.0491638" x2="30.0552979" y2="121.1201782"/>
<line class="st8" x1="30.0552979" y1="122.1700745" x2="30.0552979" y2="137.3910828"/>
<line class="st3" x1="30.0552979" y1="137.9160767" x2="30.0552979" y2="138.9870911"/>
<line class="st3" x1="30.0552979" y1="138.9870911" x2="28.9842529" y2="138.9870911"/>
<line class="st9" x1="27.9035645" y1="138.9870911" x2="12.2335205" y2="138.9870911"/>
<line class="st3" x1="11.6937866" y1="138.9870911" x2="10.6227417" y2="138.9870911"/>
<line class="st3" x1="10.6228027" y1="138.9870911" x2="10.6228027" y2="137.9161072"/>
<line class="st8" x1="10.6228027" y1="136.866394" x2="10.6228027" y2="121.6454163"/>
<line class="st3" x1="10.6228027" y1="121.1202698" x2="10.6228027" y2="120.0492859"/>
<line class="st3" x1="31.4946899" y1="120.0491638" x2="31.4946899" y2="121.1201782"/>
<line class="st8" x1="31.4946899" y1="122.1700745" x2="31.4946899" y2="137.3910828"/>
<line class="st3" x1="31.4946899" y1="137.9160767" x2="31.4946899" y2="138.9870911"/>
<line class="st3" x1="31.4946899" y1="138.9870911" x2="32.5656738" y2="138.9870911"/>
<line class="st9" x1="33.6463623" y1="138.9870911" x2="49.3153076" y2="138.9870911"/>
<line class="st3" x1="49.8562622" y1="138.9870911" x2="50.9272461" y2="138.9870911"/>
<line class="st3" x1="50.9273071" y1="138.9870911" x2="50.9273071" y2="137.9161072"/>
<line class="st8" x1="50.9273071" y1="136.866394" x2="50.9273071" y2="121.6454163"/>
<line class="st3" x1="50.9273071" y1="121.1202698" x2="50.9273071" y2="120.0492859"/>
<line class="st2" x1="131.2285767" y1="169.3551941" x2="129.5564575" y2="169.3551941"/>
<line class="st2" x1="129.5560913" y1="169.3551941" x2="128.6589966" y2="169.3551941"/>
<path class="st2" d="M128.7041626,169.3551941c-0.0150146,0.0010071-0.0300293,0.0010071-0.0450439,0
	c-0.1989746-0.0159912-0.3499756-0.2319946-0.3370361-0.4829712c0.0119629-0.2510071,0.1829834-0.4420166,0.3820801-0.4260254"/>
<line class="st2" x1="131.2285767" y1="168.4458923" x2="129.5564575" y2="168.4458923"/>
<line class="st2" x1="129.5560913" y1="168.4458923" x2="128.6589966" y2="168.4458923"/>
<line class="st2" x1="133.2733765" y1="171.3475647" x2="133.3562622" y2="171.3475647"/>
<line class="st2" x1="133.2484741" y1="171.3475647" x2="133.3584595" y2="171.3475647"/>
<line class="st2" x1="133.9035034" y1="171.2544861" x2="133.3584595" y2="171.3475037"/>
<line class="st2" x1="131.2285767" y1="169.4619751" x2="131.2285767" y2="168.3389893"/>
<line class="st2" x1="131.2932739" y1="169.4619751" x2="131.2932739" y2="168.3389893"/>
<line class="st2" x1="131.3965454" y1="169.4679871" x2="131.3965454" y2="168.3330078"/>
<line class="st2" x1="133.039856" y1="169.6201782" x2="133.053772" y2="169.6201782"/>
<line class="st2" x1="131.2428589" y1="169.4763794" x2="131.2787476" y2="169.4763794"/>
<line class="st2" x1="131.2428589" y1="169.4763794" x2="131.2787476" y2="169.4763794"/>
<line class="st2" x1="131.3965454" y1="169.4679871" x2="133.0184937" y2="169.4679871"/>
<line class="st2" x1="131.3965454" y1="169.430481" x2="131.2935181" y2="169.4345093"/>
<line class="st2" x1="130.3577271" y1="169.0875854" x2="131.0266724" y2="169.0875854"/>
<line class="st2" x1="130.3577271" y1="168.7134705" x2="131.0266724" y2="168.7134705"/>
<line class="st2" x1="131.3965454" y1="168.370575" x2="131.2935181" y2="168.3665771"/>
<line class="st2" x1="133.0181274" y1="169.5986938" x2="133.0181274" y2="168.2026978"/>
<line class="st2" x1="133.0613403" y1="169.6201782" x2="133.0613403" y2="169.6141968"/>
<line class="st2" x1="133.0613403" y1="169.6201782" x2="133.0613403" y2="168.1811829"/>
<line class="st2" x1="131.3965454" y1="168.3329773" x2="133.0184937" y2="168.3329773"/>
<line class="st2" x1="131.2428589" y1="168.3247681" x2="131.2787476" y2="168.3247681"/>
<line class="st2" x1="131.2428589" y1="168.3247681" x2="131.2787476" y2="168.3247681"/>
<line class="st2" x1="133.039856" y1="168.1807861" x2="133.053772" y2="168.1807861"/>
<line class="st2" x1="133.1765747" y1="171.2756653" x2="133.1765747" y2="166.5256653"/>
<line class="st2" x1="133.9035034" y1="166.5466919" x2="133.9035034" y2="171.2546997"/>
<line class="st2" x1="133.2733765" y1="166.4535828" x2="133.3562622" y2="166.4535828"/>
<line class="st2" x1="133.2484741" y1="166.4535828" x2="133.3584595" y2="166.4535828"/>
<line class="st2" x1="133.9035034" y1="166.5466919" x2="133.3584595" y2="166.4537048"/>
<path class="st2" d="M133.1765747,169.9259644c-0.0310059-0.1039734-0.0700684-0.2069702-0.1151123-0.3059998"/>
<path class="st2" d="M133.0613403,168.1807861c0.0458984-0.098999,0.0839844-0.2009888,0.1149902-0.3059998"/>
<path class="st2" d="M129.9833374,168.9004822c0-0.1289978,0.1049805-0.2339783,0.2338867-0.2339783
	c0.1290283,0,0.2340088,0.1049805,0.2340088,0.2339783c0,0.1290283-0.1049805,0.2340088-0.2340088,0.2340088
	C130.0883179,169.134491,129.9833374,169.0295105,129.9833374,168.9004822z"/>
<path class="st2" d="M131.2285767,169.2891846c0-0.1109924-0.0900879-0.2019958-0.2020264-0.2019958"/>
<path class="st2" d="M131.0270386,168.7134705c0.1109619,0,0.2019043-0.0899963,0.2019043-0.2019958"/>
<path class="st2" d="M133.1765747,171.2756653c0,0.0400085,0.0319824,0.0720215,0.0718994,0.0720215"/>
<path class="st2" d="M133.2484741,166.4535828c-0.0400391,0-0.0720215,0.0320129-0.0720215,0.0720215"/>
<path class="st2" d="M133.039856,168.1807861c-0.012085,0-0.0220947,0.0100098-0.0220947,0.0220032"/>
<path class="st2" d="M133.0181274,169.5986938c0,0.0120239,0.0098877,0.0210266,0.0219727,0.0210266"/>
<path class="st2" d="M131.2932739,168.3391724c0-0.0079956-0.0061035-0.0139771-0.0140381-0.0139771"/>
<path class="st2" d="M131.2428589,168.3247681c-0.0080566,0-0.0140381,0.006012-0.0140381,0.0140076"/>
<path class="st2" d="M131.2285767,169.4619751c0,0.0080261,0.0059814,0.0140076,0.013916,0.0140076"/>
<path class="st2" d="M131.2789917,169.4763794c0.0079346,0,0.013916-0.0069885,0.013916-0.0139771"/>
<path class="st2" d="M125.9865112,168.9004822c0-0.5959778,0.4829102-1.0799866,1.0799561-1.0799866
	c0.5959473,0,1.0789795,0.4840088,1.0789795,1.0799866c0,0.5960083-0.4830322,1.0800171-1.0789795,1.0800171
	C126.4694214,169.9804993,125.9865112,169.4964905,125.9865112,168.9004822z"/>
<rect x="90.720459" y="157.2046814" class="st2" width="43.1830444" height="23.0310059"/>
<polyline class="st2" points="130.6646118,169.3551941 130.6646118,177.3572083 104.4135132,177.3572083 "/>
<polyline class="st2" points="102.9360962,177.3572693 93.7790527,177.3572693 93.7790527,160.4442749 130.664978,160.4442749 
	130.664978,168.4462891 "/>
<polyline class="st2" points="129.2251587,169.3551941 129.2251587,176.0982056 100.4361572,176.0982056 100.4361572,161.7032166 
	129.2251587,161.7032166 129.2251587,168.4461975 "/>
<line class="st2" x1="102.8886108" y1="179.281189" x2="104.4616089" y2="179.281189"/>
<line class="st2" x1="106.2839966" y1="179.6450806" x2="101.065979" y2="179.6450806"/>
<path class="st2" d="M102.8886108,179.281189c-0.6020508,0.0490112-1.1980591,0.1530151-1.7810059,0.3120117"/>
<path class="st2" d="M106.2422485,179.5932922c-0.5830078-0.1589966-1.1790771-0.26297-1.7810059-0.3119812"/>
<line class="st2" x1="106.2936401" y1="179.8315735" x2="106.2836304" y2="179.6455994"/>
<line class="st2" x1="101.0661011" y1="179.6450806" x2="101.0560913" y2="179.8310852"/>
<path class="st2" d="M106.2839966,179.6450806c-0.0010986-0.0239868-0.0180664-0.0449829-0.0421143-0.0519714"/>
<path class="st2" d="M101.1078491,179.5932922c-0.0240479,0.007019-0.0400391,0.0270081-0.0420532,0.052002"/>
<line class="st2" x1="104.4500122" y1="179.281189" x2="104.4500122" y2="178.5982056"/>
<line class="st2" x1="102.9000854" y1="178.5984802" x2="102.9000854" y2="179.2814941"/>
<line class="st2" x1="103.0647583" y1="178.2047729" x2="103.6686401" y2="178.2047729"/>
<line class="st2" x1="103.6685181" y1="178.2047729" x2="103.6814575" y2="178.2047729"/>
<line class="st2" x1="104.420105" y1="178.2047729" x2="104.2850952" y2="178.2047729"/>
<line class="st2" x1="103.0647583" y1="178.2047729" x2="102.9297485" y2="178.2047729"/>
<line class="st2" x1="103.6814575" y1="178.2047729" x2="104.2853394" y2="178.2047729"/>
<line class="st2" x1="104.4285278" y1="178.1962891" x2="104.4094849" y2="177.1072998"/>
<line class="st2" x1="102.9403687" y1="177.1070862" x2="102.9213257" y2="178.196106"/>
<path class="st2" d="M104.420105,178.2047729c0.0048828,0,0.0079346-0.0039978,0.0079346-0.0079956"/>
<path class="st2" d="M102.9214478,178.1962891c0,0.0050049,0.0039062,0.0090027,0.0079346,0.0090027"/>
<path class="st2" d="M102.9622192,177.0847778c-0.012085,0.0010071-0.0211182,0.0100098-0.0220947,0.0220032"/>
<path class="st2" d="M104.4096069,177.1070862c0-0.0119934-0.0100098-0.0219727-0.0220947-0.0219727"/>
<path class="st2" d="M104.3877563,177.0847778c-0.4750977-0.0179749-0.9500732-0.0179749-1.4260254,0"/>
<path class="st2" d="M104.4500122,178.5984802c0-0.13797-0.0371094-0.2739868-0.1070557-0.3939819"/>
<path class="st2" d="M103.0073853,178.2047729c-0.0700684,0.1190186-0.1070557,0.2550049-0.1070557,0.3940125"/>
<line class="st2" x1="101.0563965" y1="179.8315735" x2="101.0563965" y2="180.2366028"/>
<line class="st2" x1="106.2936401" y1="179.8315735" x2="106.2936401" y2="180.2366028"/>
<path class="st2" d="M124.1661987,126.2568665c0-0.5999756,0.4869385-1.0869751,1.0869141-1.0869751
	s1.0870361,0.4869995,1.0870361,1.0869751c0,0.6000061-0.4870605,1.0870056-1.0870361,1.0870056
	S124.1661987,126.8568726,124.1661987,126.2568665z"/>
<path class="st2" d="M124.6233521,126.2575684c0-0.3479919,0.2819824-0.6299744,0.6298828-0.6299744
	c0.3480225,0,0.6300049,0.2819824,0.6300049,0.6299744c0,0.3480225-0.2819824,0.6300049-0.6300049,0.6300049
	C124.9053345,126.8875732,124.6233521,126.6055908,124.6233521,126.2575684z"/>
<path class="st2" d="M130.6310425,125.7938843c-0.2561035-2.9699707-2.8710938-5.1699829-5.842041-4.9139709
	c-2.9699707,0.2559814-5.1700439,2.8709717-4.9140625,5.8409729c0.2561035,2.9700012,2.8710938,5.1710205,5.842041,4.9150085
	c2.6149902-0.2259827,4.6889648-2.2999878,4.9140625-4.9159851"/>
<line class="st2" x1="128.1708374" y1="126.7200928" x2="131.5857544" y2="126.7200928"/>
<path class="st2" d="M127.9158325,126.4649658c0,0.1410217,0.1138916,0.2550049,0.2548828,0.2550049"/>
<path class="st2" d="M128.1708374,125.7938843c-0.1411133,0-0.2550049,0.1140137-0.2550049,0.2550049"/>
<line class="st2" x1="127.9158325" y1="126.4649658" x2="127.9158325" y2="126.0489807"/>
<path class="st2" d="M131.3718872,126.0090637c0.1088867,0,0.2128906-0.0469971,0.2849121-0.1279907"/>
<path class="st2" d="M131.6572876,126.6331787c-0.0720215-0.0819702-0.1760254-0.1279907-0.2850342-0.1279907"/>
<line class="st2" x1="129.7665405" y1="126.5047913" x2="131.371521" y2="126.5047913"/>
<line class="st2" x1="131.3718872" y1="126.0090637" x2="129.7667847" y2="126.0090637"/>
<path class="st2" d="M129.7665405,126.0090637c-0.0780029,0-0.1420898,0.0640259-0.1420898,0.1420288"/>
<line class="st2" x1="129.6246948" y1="126.3630676" x2="129.6246948" y2="126.1510925"/>
<path class="st2" d="M131.5861206,125.7938843c0.0919189,0,0.1829834-0.0189819,0.2679443-0.0559998"/>
<path class="st2" d="M131.8536987,126.7759705c-0.0841064-0.0369873-0.1760254-0.0559998-0.2680664-0.0559998"/>
<line class="st2" x1="131.5861206" y1="125.7938843" x2="128.1710815" y2="125.7938843"/>
<path class="st2" d="M131.5791626,126.7200928c0.2559814,0.2770081,0.6879883,0.2950134,0.9649658,0.0390015
	c0.2769775-0.2559814,0.2949219-0.6879883,0.0389404-0.9649963c-0.2559814-0.2769775-0.6879883-0.2949829-0.9649658-0.0390015
	c-0.0130615,0.0120239-0.0269775,0.0250244-0.0389404,0.0390015"/>
<path class="st2" d="M131.6572876,126.6331787c0.2078857,0.2340088,0.565918,0.2550049,0.7999268,0.0480042
	c0.2340088-0.2079773,0.2550049-0.565979,0.0479736-0.7999878c-0.2080078-0.2350159-0.565918-0.256012-0.7999268-0.0480042
	c-0.0170898,0.0150146-0.0330811,0.0310059-0.0479736,0.0480042"/>
<path class="st2" d="M129.6246948,126.3630676c0,0.0780029,0.0629883,0.1420288,0.1419678,0.1420288"/>
<polyline class="st2" points="233.3151245,244.0747833 133.9030151,244.0747833 133.9030151,229.7167969 "/>
<rect x="35.3914795" y="82.1736755" class="st2" width="81.867981" height="3.32901"/>
<rect x="214.9624634" y="42.2296753" class="st2" width="16.1939697" height="39.9450073"/>
<polyline class="st2" points="138.977478,33.7866821 138.977478,20.0797119 136.0083618,20.0797119 136.0083618,52.9346924 
	138.977478,52.9346924 138.977478,36.1697083 "/>
<rect x="90.720459" y="216.8516693" class="st2" width="18.0829468" height="5.5780029"/>
<rect x="168.0414429" y="56.2637024" class="st2" width="11.5159912" height="10.0759888"/>
<rect x="6.602478" y="120.0486755" class="st2" width="48.2210083" height="21.5920105"/>
<rect x="117.7095337" y="115.4606934" class="st2" width="16.1939697" height="20.5119934"/>
<line class="st2" x1="121.578186" y1="185.274292" x2="121.578186" y2="216.8522949"/>
<line class="st2" x1="120.5884399" y1="66.3399658" x2="168.0413208" y2="66.3399658"/>
<polygon class="st2" points="0.125,258.8659668 11.6409912,258.8659668 11.6409912,226.4779816 12.3719482,226.4779816 
	12.3719482,222.4299927 6.6019897,222.4299927 6.6019897,144.9700012 59.8619995,144.9700012 59.8619995,115.4609985 
	62.3809814,115.4609985 62.3809814,112.1319885 52.3049927,112.1319885 52.3049927,115.4609985 54.8239746,115.4609985 
	54.8239746,141.6409912 6.6019897,141.6409912 6.6019897,115.4609985 9.1209717,115.4609985 9.1209717,112.1319885 
	6.6019897,112.1319885 6.6019897,56.2639771 15.598999,56.2639771 15.598999,52.2149963 14.8789673,52.2149963 
	14.8789673,48.9769897 11.6409912,48.9769897 11.6409912,0.1260071 0.125,0.1260071 "/>
<polygon class="st2" points="87.2113647,229.7171783 87.2113647,226.4781799 86.6703491,226.4781799 86.6703491,222.430191 
	87.3913574,222.430191 87.3913574,208.485199 90.7203369,208.485199 90.7203369,222.430191 108.8032837,222.430191 
	108.8032837,216.8521881 131.6543579,216.8521881 131.6543579,185.2742004 90.7203369,185.2742004 90.7203369,186.8931885 
	87.3913574,186.8931885 87.3913574,141.0112 90.7203369,141.0112 90.7203369,180.2362061 133.9032593,180.2362061 
	133.9032593,115.4611816 90.7203369,115.4611816 90.7203369,117.9801941 87.3913574,117.9801941 87.3913574,115.4611816 
	83.9723511,115.4611816 83.9723511,112.1322021 117.2593384,112.1322021 117.2593384,109.6131897 120.5883179,109.6131897 
	120.5883179,112.1322021 138.9413452,112.1322021 138.9413452,229.7171783 "/>
<polygon class="st2" points="210.0142212,20.0798645 136.0081177,20.0798645 136.0081177,52.9348755 182.8861694,52.9348755 
	182.8861694,82.1738892 185.4052124,82.1738892 185.4052124,85.5028687 177.2421265,85.5028687 177.2421265,82.1738892 
	179.5571899,82.1738892 179.5571899,56.2638855 120.5881958,56.2638855 120.5881958,82.1738892 122.9031372,82.1738892 
	122.9031372,85.5028687 120.5881958,85.5028687 120.5881958,88.0218811 117.2592163,88.0218811 117.2592163,56.2638855 
	37.5501709,56.2638855 37.5501709,52.2158813 38.2702026,52.2158813 38.2702026,48.9768677 127.7321167,48.9768677 
	127.7321167,11.802887 210.0142212,11.802887 "/>
<polygon class="st2" points="229.9364624,11.8029785 233.3153687,11.8029785 233.3153687,0.125 239.7924194,0.125 
	239.7924194,258.8659668 233.3153687,258.8659668 233.3153687,188.1529846 230.076355,188.1529846 230.076355,184.9139709 
	229.3563843,184.9139709 229.3563843,180.8659973 231.1554565,180.8659973 231.1554565,85.5029907 206.9963989,85.5029907 
	206.9963989,82.1739807 231.1554565,82.1739807 231.1554565,20.0799866 229.9364624,20.0799866 "/>
<rect x="147.5784302" y="82.1736755" class="st2" width="4.9890137" height="3.32901"/>
<path class="st2" d="M36.8307495,69.1739807c0-0.7949829-0.644043-1.4389954-1.4390259-1.4399719
	c-0.7949829,0-1.4400024,0.644989-1.4400024,1.4399719c0,0.7950134,0.6450195,1.4390259,1.4400024,1.4390259
	S36.8307495,69.9689941,36.8307495,69.1739807h-1.4390259h44.4420166l-3.5970459-1.3099976v1.3099976"/>
<g>
	<path class="st10" d="M34.8753052,182.6387024c0,0.4091797-0.25,0.6191406-0.4951172,0.7255859
		c0.3701172,0.1113281,0.6689453,0.3251953,0.6689453,0.7578125c0,0.5390625-0.4501953,0.8554688-1.1318359,0.8554688h-1.3857422
		v-3.1191406h1.3271484C34.473938,181.858429,34.8753052,182.1611633,34.8753052,182.6387024z M34.5188599,182.6875305
		c0-0.3115234-0.2451172-0.5126953-0.6914062-0.5126953h-0.9482422v1.0742188h0.921875
		C34.223938,183.249054,34.5188599,183.0576477,34.5188599,182.6875305z M34.6917114,184.0996399
		c0-0.3427734-0.2851562-0.5390625-0.828125-0.5390625h-0.984375v1.1005859h1.046875
		C34.3977661,184.6611633,34.6917114,184.452179,34.6917114,184.0996399z"/>
	<path class="st10" d="M38.2796021,182.179718h-1.9023438v1.0644531h1.7021484v0.3212891h-1.7021484v1.0917969h1.9248047v0.3203125
		h-2.2763672v-3.1191406h2.2539062V182.179718z"/>
	<path class="st10" d="M40.2981567,184.9775696h-1.0820312v-3.1191406h1.0820312
		c0.9804688,0,1.6582031,0.6728516,1.6582031,1.5556641C41.9563599,184.295929,41.2786255,184.9775696,40.2981567,184.9775696z
		 M40.2981567,182.1836243H39.567688v2.46875h0.7304688c0.7890625,0,1.2919922-0.5351562,1.2919922-1.2294922
		C41.5901489,182.7275696,41.0872192,182.1836243,40.2981567,182.1836243z"/>
	<path class="st10" d="M45.098938,184.9775696l-0.9042969-1.2119141h-0.8916016v1.2119141h-0.3515625v-3.1191406h1.3408203
		c0.6865234,0,1.1269531,0.3701172,1.1269531,0.9316406c0,0.5214844-0.3564453,0.8242188-0.8466797,0.9130859l0.9580078,1.2744141
		H45.098938z M44.2659302,182.1836243h-0.9628906v1.265625h0.9580078c0.4677734,0,0.8017578-0.2402344,0.8017578-0.6455078
		C45.0628052,182.4160461,44.7688599,182.1836243,44.2659302,182.1836243z"/>
	<path class="st10" d="M47.8264771,185.0312805c-0.9492188,0-1.5869141-0.7441406-1.5869141-1.6083984
		s0.6464844-1.6171875,1.5957031-1.6171875c0.9482422,0,1.5859375,0.7431641,1.5859375,1.6083984
		C49.4212036,184.2783508,48.7747192,185.0312805,47.8264771,185.0312805z M47.8264771,182.1308899
		c-0.7128906,0-1.2216797,0.5703125-1.2216797,1.2832031s0.5175781,1.2919922,1.2304688,1.2919922
		s1.2207031-0.5703125,1.2207031-1.2832031S48.5393677,182.1308899,47.8264771,182.1308899z"/>
	<path class="st10" d="M51.8460083,185.0312805c-0.9482422,0-1.5859375-0.7441406-1.5859375-1.6083984
		s0.6464844-1.6171875,1.5957031-1.6171875c0.9482422,0,1.5859375,0.7431641,1.5859375,1.6083984
		C53.4417114,184.2783508,52.7952271,185.0312805,51.8460083,185.0312805z M51.8460083,182.1308899
		c-0.7128906,0-1.2207031,0.5703125-1.2207031,1.2832031s0.5175781,1.2919922,1.2304688,1.2919922
		s1.2207031-0.5703125,1.2207031-1.2832031S52.5588989,182.1308899,51.8460083,182.1308899z"/>
	<path class="st10" d="M55.9436646,184.1221008h-0.0185547l-1.1357422-1.6660156v2.5214844h-0.3427734v-3.1191406h0.3564453
		l1.1357422,1.7021484l1.1367188-1.7021484h0.3564453v3.1191406h-0.3525391v-2.5263672L55.9436646,184.1221008z"/>
</g>
<g>
	<path class="st10" d="M183.8567505,132.3301086h-0.0185547l-1.1357422-1.6660156v2.5214844h-0.3427734v-3.1191406h0.3564453
		l1.1357422,1.7021484l1.1367188-1.7021484h0.3564453v3.1191406h-0.3525391v-2.5263672L183.8567505,132.3301086z"/>
	<path class="st10" d="M189.3606567,133.1855774h-0.3779297l-0.3652344-0.8242188h-1.6982422l-0.3701172,0.8242188h-0.3603516
		l1.4208984-3.1416016h0.3300781L189.3606567,133.1855774z M187.770813,130.4541321l-0.7128906,1.5908203h1.4208984
		L187.770813,130.4541321z"/>
	<path class="st10" d="M191.3362427,131.4570618c0.6953125,0.1513672,1.015625,0.4052734,1.015625,0.8867188
		c0,0.5390625-0.4453125,0.8867188-1.0644531,0.8867188c-0.4951172,0-0.9003906-0.1650391-1.2744141-0.4990234l0.2177734-0.2587891
		c0.3251953,0.2939453,0.6376953,0.4414062,1.0693359,0.4414062c0.4189453,0,0.6953125-0.21875,0.6953125-0.5351562
		c0-0.2939453-0.15625-0.4589844-0.8105469-0.5966797c-0.7177734-0.15625-1.046875-0.3876953-1.046875-0.9042969
		c0-0.4990234,0.4316406-0.8554688,1.0244141-0.8554688c0.4541016,0,0.7792969,0.1289062,1.0957031,0.3828125l-0.2050781,0.2714844
		c-0.2890625-0.2363281-0.5791016-0.3378906-0.8994141-0.3378906c-0.4052734,0-0.6640625,0.2226562-0.6640625,0.5078125
		C190.489563,131.1445618,190.6497192,131.3096008,191.3362427,131.4570618z"/>
	<path class="st10" d="M194.4915161,133.1855774h-0.3564453v-2.7939453h-1.046875v-0.3251953h2.4501953v0.3251953h-1.046875
		V133.1855774z"/>
	<path class="st10" d="M198.6565552,130.3877258h-1.9023438v1.0644531h1.7021484v0.3212891h-1.7021484v1.0908203h1.9248047
		v0.3212891h-2.2763672v-3.1191406h2.2539062V130.3877258z"/>
	<path class="st10" d="M201.7415161,133.1855774l-0.9042969-1.2119141h-0.8916016v1.2119141h-0.3515625v-3.1191406h1.3408203
		c0.6865234,0,1.1269531,0.3701172,1.1269531,0.9316406c0,0.5214844-0.3564453,0.8242188-0.8466797,0.9130859l0.9580078,1.2744141
		H201.7415161z M200.9085083,130.3916321h-0.9628906v1.265625h0.9580078c0.4677734,0,0.8017578-0.2402344,0.8017578-0.6464844
		C201.7053833,130.624054,201.411438,130.3916321,200.9085083,130.3916321z"/>
</g>
<g>
	<path class="st10" d="M182.0393677,135.835968c0,0.4091797-0.25,0.6191406-0.4951172,0.7255859
		c0.3701172,0.1113281,0.6689453,0.3251953,0.6689453,0.7578125c0,0.5390625-0.4501953,0.8554688-1.1318359,0.8554688h-1.3857422
		v-3.1191406h1.3271484C181.6380005,135.0556946,182.0393677,135.358429,182.0393677,135.835968z M181.6829224,135.8847961
		c0-0.3115234-0.2451172-0.5126953-0.6914062-0.5126953h-0.9482422v1.0742188h0.921875
		C181.3880005,136.4463196,181.6829224,136.2549133,181.6829224,135.8847961z M181.8557739,137.2969055
		c0-0.3427734-0.2851562-0.5390625-0.828125-0.5390625h-0.984375v1.1005859h1.046875
		C181.5618286,137.858429,181.8557739,137.6494446,181.8557739,137.2969055z"/>
	<path class="st10" d="M185.4436646,135.3769836h-1.9023438v1.0644531h1.7021484v0.3212891h-1.7021484v1.0917969h1.9248047
		v0.3203125h-2.2763672v-3.1191406h2.2539062V135.3769836z"/>
	<path class="st10" d="M187.4622192,138.1748352h-1.0820312v-3.1191406h1.0820312
		c0.9804688,0,1.6582031,0.6728516,1.6582031,1.5556641C189.1204224,137.4931946,188.442688,138.1748352,187.4622192,138.1748352z
		 M187.4622192,135.3808899h-0.7304688v2.46875h0.7304688c0.7890625,0,1.2919922-0.5351562,1.2919922-1.2294922
		C188.7542114,135.9248352,188.2512817,135.3808899,187.4622192,135.3808899z"/>
	<path class="st10" d="M192.2630005,138.1748352l-0.9042969-1.2119141h-0.8916016v1.2119141h-0.3515625v-3.1191406h1.3408203
		c0.6865234,0,1.1269531,0.3701172,1.1269531,0.9316406c0,0.5214844-0.3564453,0.8242188-0.8466797,0.9130859l0.9580078,1.2744141
		H192.2630005z M191.4299927,135.3808899h-0.9628906v1.265625h0.9580078c0.4677734,0,0.8017578-0.2402344,0.8017578-0.6455078
		C192.2268677,135.6133118,191.9329224,135.3808899,191.4299927,135.3808899z"/>
	<path class="st10" d="M194.9905396,138.2285461c-0.9492188,0-1.5869141-0.7441406-1.5869141-1.6083984
		s0.6464844-1.6171875,1.5957031-1.6171875c0.9482422,0,1.5859375,0.7431641,1.5859375,1.6083984
		C196.5852661,137.4756165,195.9387817,138.2285461,194.9905396,138.2285461z M194.9905396,135.3281555
		c-0.7128906,0-1.2216797,0.5703125-1.2216797,1.2832031s0.5175781,1.2919922,1.2304688,1.2919922
		s1.2207031-0.5703125,1.2207031-1.2832031S195.7034302,135.3281555,194.9905396,135.3281555z"/>
	<path class="st10" d="M199.0100708,138.2285461c-0.9482422,0-1.5859375-0.7441406-1.5859375-1.6083984
		s0.6464844-1.6171875,1.5957031-1.6171875c0.9482422,0,1.5859375,0.7431641,1.5859375,1.6083984
		C200.6057739,137.4756165,199.9592896,138.2285461,199.0100708,138.2285461z M199.0100708,135.3281555
		c-0.7128906,0-1.2207031,0.5703125-1.2207031,1.2832031s0.5175781,1.2919922,1.2304688,1.2919922
		s1.2207031-0.5703125,1.2207031-1.2832031S199.7229614,135.3281555,199.0100708,135.3281555z"/>
	<path class="st10" d="M203.1077271,137.3193665h-0.0185547l-1.1357422-1.6660156v2.5214844h-0.3427734v-3.1191406h0.3564453
		l1.1357422,1.7021484l1.1367188-1.7021484h0.3564453v3.1191406h-0.3525391v-2.5263672L203.1077271,137.3193665z"/>
</g>
<g>
	<path class="st10" d="M176.5901489,213.554718c0,0.4091797-0.25,0.6191406-0.4951172,0.7255859
		c0.3701172,0.1113281,0.6689453,0.3251953,0.6689453,0.7578125c0,0.5390625-0.4501953,0.8554688-1.1318359,0.8554688h-1.3857422
		v-3.1191406h1.3271484C176.1887817,212.7744446,176.5901489,213.077179,176.5901489,213.554718z M176.2337036,213.6035461
		c0-0.3115234-0.2451172-0.5126953-0.6914062-0.5126953h-0.9482422v1.0742188h0.921875
		C175.9387817,214.1650696,176.2337036,213.9736633,176.2337036,213.6035461z M176.4065552,215.0156555
		c0-0.3427734-0.2851562-0.5390625-0.828125-0.5390625h-0.984375v1.1005859h1.046875
		C176.1126099,215.577179,176.4065552,215.3681946,176.4065552,215.0156555z"/>
	<path class="st10" d="M180.5559692,215.8935852h-0.3779297l-0.3652344-0.8242188h-1.6982422l-0.3701172,0.8242188h-0.3603516
		l1.4208984-3.1416016h0.3300781L180.5559692,215.8935852z M178.9661255,213.1621399l-0.7128906,1.5908203h1.4208984
		L178.9661255,213.1621399z"/>
	<path class="st10" d="M181.3997192,212.7744446h0.3515625v2.7939453h1.7558594v0.3251953h-2.1074219V212.7744446z"/>
	<path class="st10" d="M185.6497192,215.9472961c-0.9003906,0-1.5644531-0.7089844-1.5644531-1.6083984
		c0-0.8916016,0.6591797-1.6171875,1.5771484-1.6171875c0.5664062,0,0.9052734,0.2001953,1.2167969,0.4941406l-0.2402344,0.2587891
		c-0.2636719-0.25-0.5576172-0.4277344-0.9804688-0.4277344c-0.6904297,0-1.2080078,0.5566406-1.2080078,1.2832031
		c0,0.7255859,0.5214844,1.2919922,1.2080078,1.2919922c0.4277344,0,0.7080078-0.1650391,1.0068359-0.4501953l0.2314453,0.2275391
		C186.5715942,215.7285461,186.2151489,215.9472961,185.6497192,215.9472961z"/>
	<path class="st10" d="M189.1253052,215.9472961c-0.9482422,0-1.5859375-0.7441406-1.5859375-1.6083984
		s0.6464844-1.6171875,1.5957031-1.6171875c0.9482422,0,1.5859375,0.7431641,1.5859375,1.6083984
		C190.7210083,215.1943665,190.0745239,215.9472961,189.1253052,215.9472961z M189.1253052,213.0469055
		c-0.7128906,0-1.2207031,0.5703125-1.2207031,1.2832031s0.5175781,1.2919922,1.2304688,1.2919922
		s1.2207031-0.5703125,1.2207031-1.2832031S189.8381958,213.0469055,189.1253052,213.0469055z"/>
	<path class="st10" d="M194.0198364,212.7744446h0.34375v3.1191406h-0.28125l-2.0136719-2.5576172v2.5576172h-0.3427734v-3.1191406
		h0.3291016l1.9648438,2.5V212.7744446z"/>
	<path class="st10" d="M196.8284302,215.8935852h-0.3564453v-1.234375l-1.296875-1.8847656h0.4277344l1.0517578,1.5595703
		l1.0605469-1.5595703h0.4101562l-1.296875,1.8808594V215.8935852z"/>
</g>
<g>
	<path class="st10" d="M190.1331177,51.9726868h-1.9023438v1.0644531h1.7021484v0.3208008h-1.7021484v1.0917969h1.9248047v0.3208008
		h-2.2763672v-3.1191406h2.2539062V51.9726868z"/>
	<path class="st10" d="M193.3684692,51.6513977h0.34375v3.1191406h-0.28125l-2.0136719-2.5576172v2.5576172h-0.3427734v-3.1191406
		h0.3291016l1.9648438,2.5V51.6513977z"/>
	<path class="st10" d="M195.9631958,53.0420227c0.6953125,0.1513672,1.015625,0.4052734,1.015625,0.8862305
		c0,0.5395508-0.4453125,0.8867188-1.0644531,0.8867188c-0.4951172,0-0.9003906-0.1645508-1.2744141-0.4990234l0.2177734-0.2583008
		c0.3251953,0.2939453,0.6376953,0.440918,1.0693359,0.440918c0.4189453,0,0.6953125-0.2182617,0.6953125-0.534668
		c0-0.2939453-0.15625-0.4589844-0.8105469-0.5966797c-0.7177734-0.15625-1.046875-0.3876953-1.046875-0.9047852
		c0-0.4990234,0.4316406-0.8554688,1.0244141-0.8554688c0.4541016,0,0.7792969,0.1293945,1.0957031,0.3833008l-0.2050781,0.2719727
		c-0.2890625-0.2363281-0.5791016-0.3388672-0.8994141-0.3388672c-0.4052734,0-0.6640625,0.2226562-0.6640625,0.5078125
		C195.1165161,52.730011,195.2766724,52.8945618,195.9631958,53.0420227z"/>
	<path class="st10" d="M200.4768677,53.4385071c0,0.9086914-0.5205078,1.3808594-1.3007812,1.3808594
		c-0.7705078,0-1.296875-0.472168-1.296875-1.3544922v-1.8134766h0.3525391v1.7915039
		c0,0.6728516,0.3564453,1.0512695,0.953125,1.0512695c0.5751953,0,0.9404297-0.3476562,0.9404297-1.0292969v-1.8134766h0.3515625
		V53.4385071z"/>
	<path class="st10" d="M201.9710083,51.6513977v3.1191406h-0.3515625v-3.1191406H201.9710083z"/>
	<path class="st10" d="M204.2503052,54.7705383h-0.3564453v-2.793457h-1.046875v-0.3256836h2.4501953v0.3256836h-1.046875
		V54.7705383z"/>
	<path class="st10" d="M208.4153442,51.9726868h-1.9023438v1.0644531h1.7021484v0.3208008h-1.7021484v1.0917969h1.9248047v0.3208008
		h-2.2763672v-3.1191406h2.2539062V51.9726868z"/>
</g>
<g>
	<path class="st10" d="M94.0510864,142.4629211h-1.9023438v1.0644531h1.7021484v0.3212891h-1.7021484v1.0917969h1.9248047v0.3203125
		h-2.2763672v-3.1191406h2.2539062V142.4629211z"/>
	<path class="st10" d="M97.2815552,142.1416321h0.34375v3.1191406h-0.28125l-2.0136719-2.5576172v2.5576172h-0.3427734v-3.1191406
		h0.3291016l1.9648438,2.5V142.1416321z"/>
	<path class="st10" d="M99.8772583,143.5322571c0.6953125,0.1513672,1.015625,0.4052734,1.015625,0.8867188
		c0,0.5390625-0.4453125,0.8867188-1.0644531,0.8867188c-0.4951172,0-0.9003906-0.1650391-1.2744141-0.4990234l0.2177734-0.2587891
		c0.3251953,0.2939453,0.6376953,0.4414062,1.0693359,0.4414062c0.4189453,0,0.6953125-0.21875,0.6953125-0.5351562
		c0-0.2939453-0.15625-0.4589844-0.8105469-0.5966797c-0.7177734-0.15625-1.046875-0.3876953-1.046875-0.9042969
		c0-0.4990234,0.4316406-0.8554688,1.0244141-0.8554688c0.4541016,0,0.7792969,0.1289062,1.0957031,0.3828125l-0.2050781,0.2714844
		c-0.2890625-0.2353516-0.5791016-0.3378906-0.8994141-0.3378906c-0.4052734,0-0.6640625,0.2226562-0.6640625,0.5078125
		C99.0305786,143.2197571,99.1907349,143.3847961,99.8772583,143.5322571z"/>
	<path class="st10" d="M104.3899536,143.9287415c0,0.9091797-0.5205078,1.3808594-1.3007812,1.3808594
		c-0.7705078,0-1.2958984-0.4716797-1.2958984-1.3544922v-1.8134766h0.3515625v1.7910156
		c0,0.6728516,0.3564453,1.0517578,0.953125,1.0517578c0.5751953,0,0.9404297-0.3476562,0.9404297-1.0292969v-1.8134766h0.3515625
		V143.9287415z"/>
	<path class="st10" d="M105.8840942,142.1416321v3.1191406h-0.3515625v-3.1191406H105.8840942z"/>
	<path class="st10" d="M108.1633911,145.2607727h-0.3564453v-2.7939453h-1.046875v-0.3251953h2.4501953v0.3251953h-1.046875
		V145.2607727z"/>
	<path class="st10" d="M112.3294067,142.4629211h-1.9023438v1.0644531h1.7021484v0.3212891h-1.7021484v1.0917969h1.9248047
		v0.3203125h-2.2763672v-3.1191406h2.2539062V142.4629211z"/>
</g>
<g>
	<path class="st10" d="M177.2503052,112.6631165h-0.4414062l-1.1982422-1.5107422l-0.6640625,0.6728516v0.8378906h-0.3515625
		v-3.1191406h0.3515625v1.8623047l1.7910156-1.8623047h0.4550781l-1.3369141,1.3632812L177.2503052,112.6631165z"/>
</g>
<g>
	<path class="st10" d="M170.1897583,59.7246399h0.3515625v2.793457h1.7558594v0.3251953h-2.1074219V59.7246399z"/>
	<path class="st10" d="M173.5266724,59.7246399v3.1186523h-0.3515625v-3.1186523H173.5266724z"/>
	<path class="st10" d="M176.9866333,59.7246399h0.34375v3.1186523h-0.28125l-2.0136719-2.5576172v2.5576172h-0.3427734v-3.1186523
		h0.3291016l1.9648438,2.4995117V59.7246399z"/>
</g>
<g>
	<path class="st10" d="M20.1096802,127.8037415h-1.0820312v-3.1191406h1.0820312
		c0.9804688,0,1.6582031,0.6728516,1.6582031,1.5556641C21.7678833,127.1221008,21.0901489,127.8037415,20.1096802,127.8037415z
		 M20.1096802,125.0097961h-0.7304688v2.46875h0.7304688c0.7890625,0,1.2929688-0.5351562,1.2929688-1.2294922
		C21.4026489,125.5537415,20.8987427,125.0097961,20.1096802,125.0097961z"/>
</g>
<g>
	<path class="st10" d="M41.0647583,124.6758118h0.2900391l0.8554688,2.6064453l0.890625-2.5976562h0.3701172l-1.1142578,3.1416016
		h-0.2978516l-0.8554688-2.53125l-0.8603516,2.53125h-0.2939453l-1.1142578-3.1416016h0.3837891l0.890625,2.5976562
		L41.0647583,124.6758118z"/>
</g>
<g>
	<path class="st10" d="M26.4954224,70.7060852h-1.0820312v-3.1191406h1.0820312
		c0.9804688,0,1.6582031,0.6728516,1.6582031,1.5551758S27.4758911,70.7060852,26.4954224,70.7060852z M26.4954224,67.9126282
		h-0.7304688v2.4682617h0.7304688c0.7890625,0,1.2919922-0.534668,1.2919922-1.2299805
		C27.7874146,68.4560852,27.2844849,67.9126282,26.4954224,67.9126282z"/>
	<path class="st10" d="M31.442688,67.5869446h0.34375v3.1191406h-0.28125l-2.0136719-2.5576172v2.5576172h-0.3427734v-3.1191406
		h0.3291016l1.9648438,2.5V67.5869446z"/>
</g>
</svg>
