<?xml version="1.0" encoding="utf-8"?>
<!-- Generator: Adobe Illustrator 25.4.1, SVG Export Plug-In . SVG Version: 6.00 Build 0)  -->
<svg version="1.1" id="Layer_1" xmlns="http://www.w3.org/2000/svg" xmlns:xlink="http://www.w3.org/1999/xlink" x="0px" y="0px"
	 viewBox="0 0 240.0083618 267.1680908" style="enable-background:new 0 0 240.0083618 267.1680908;" xml:space="preserve">
<style type="text/css">
	.st0{fill:none;stroke:#99A4B3;stroke-width:0.24;stroke-linecap:round;stroke-linejoin:round;stroke-miterlimit:10;}
	.st1{fill-rule:evenodd;clip-rule:evenodd;fill:#22566E;}
	.st2{fill:none;stroke:#22566E;stroke-width:0.25;stroke-linecap:round;stroke-linejoin:round;stroke-miterlimit:10;}
	.st3{fill:none;stroke:#22566E;stroke-width:0.25;stroke-linecap:round;stroke-linejoin:round;}
	
		.st4{fill:none;stroke:#22566E;stroke-width:0.25;stroke-linecap:round;stroke-linejoin:round;stroke-dasharray:4.2129998,2.1059999;}
	.st5{fill:none;stroke:#22566E;stroke-width:0.25;stroke-linecap:round;stroke-linejoin:round;stroke-dasharray:4.2350001,2.118;}
	.st6{fill:none;stroke:#22566E;stroke-width:0.25;stroke-linecap:round;stroke-linejoin:round;stroke-miterlimit:9.999999;}
	.st7{fill:none;stroke:#22566E;stroke-width:0.25;stroke-linecap:round;stroke-linejoin:round;stroke-miterlimit:10.0000019;}
	.st8{fill:none;stroke:#22566E;stroke-width:0.25;stroke-linecap:round;stroke-linejoin:round;stroke-miterlimit:10.000001;}
	.st9{fill:none;stroke:#22566E;stroke-width:0.25;stroke-linecap:round;stroke-linejoin:round;stroke-miterlimit:9.9999981;}
	.st10{fill:#22566E;}
</style>
<polygon class="st0" points="193.281311,52.4252014 87.0733032,52.4252014 87.0733032,48.1972046 65.4812927,48.1972046 
	65.4812927,52.4252014 66.1112976,51.3342285 84.8103027,62.1302185 84.1802979,63.2212219 65.4812927,52.4252014 
	60.8933105,52.4252014 60.8933105,55.3042297 82.0852966,67.5392151 81.4552917,68.6302185 60.2633057,56.3952026 
	60.8933105,55.3042297 59.2293091,55.3042297 59.2293091,79.7752075 60.8933105,79.7752075 60.8933105,109.9952087 
	48.09729,109.9952087 48.09729,127.2692261 49.3572998,127.2692261 49.3572998,106.6662292 57.5643005,106.6662292 
	57.5643005,99.4692078 6.6932983,99.4692078 6.6932983,106.6662292 14.8103027,106.6662292 14.8103027,127.2692261 
	16.0703125,127.2692261 16.0703125,109.9952087 6.6932983,109.9952087 6.6932983,184.2241974 108.8033142,184.2241974 
	108.8033142,178.6462097 123.1983032,178.6462097 123.1983032,170.0102234 163.5022888,170.0102234 163.5022888,178.6462097 
	177.8973083,178.6462097 177.8973083,167.3112183 231.0662842,167.3112183 231.0662842,131.1862183 193.281311,131.1862183 
	193.281311,101.9472046 199.399292,101.9472046 198.7692871,100.8562012 219.9613037,88.6212158 220.5913086,89.7122192 
	199.399292,101.9472046 199.399292,104.466217 202.2772827,104.466217 213.4972839,97.9892273 214.1272888,99.0792236 
	202.9072876,105.5572205 202.2772827,104.466217 202.2772827,107.7952271 199.399292,107.7952271 199.399292,114.992218 
	231.0662842,114.992218 231.0662842,107.7952271 228.1882935,107.7952271 228.1882935,104.466217 227.5582886,105.5572205 
	216.3382874,99.0792236 216.9682922,97.9892273 228.1882935,104.466217 231.0662842,104.466217 231.0662842,74.1972046 
	202.09729,74.1972046 202.09729,75.6362305 201.0183105,75.6362305 201.0183105,74.1972046 199.399292,74.1972046 
	199.399292,52.6052246 201.0183105,52.6052246 201.0183105,51.1662292 202.09729,51.1662292 202.09729,52.6052246 
	231.0662842,52.6052246 231.0662842,18.1482239 228.8212891,18.1482239 228.8212891,14.6402283 227.3812866,14.6402283 
	227.3812866,39.1102295 226.1222534,39.1102295 226.1222534,14.6402283 201.471283,14.6402283 201.471283,18.1482239 
	173.0393066,18.1482239 173.0393066,19.6782227 169.7102966,19.6782227 169.7102966,20.9372253 146.6792908,20.9372253 
	146.6792908,19.6782227 169.7102966,19.6782227 169.7102966,18.1482239 143.3503113,18.1482239 143.3503113,43.9682312 
	169.7102966,43.9682312 169.7102966,42.7092285 173.0393066,42.7092285 173.0393066,43.9682312 199.399292,43.9682312 
	199.399292,77.4762268 193.281311,77.4762268 "/>
<path class="st0" d="M73.3829041,175.8609009l-7.6190186-7.6489868l15.2380066-15.2380066l7.6480103,7.6190186
	c4.21698,4.2160034,4.21698,11.052002,0,15.2679749C84.4348755,180.0769043,77.598877,180.0769043,73.3829041,175.8609009z"/>
<polygon class="st0" points="8.1318054,182.7851868 8.1318054,136.7232056 25.4047852,136.7232056 25.4047852,153.4562073 
	31.882782,153.4562073 31.882782,152.7372131 32.961792,152.7372131 32.961792,166.7712097 31.882782,166.7712097 
	31.882782,166.0512085 25.4047852,166.0512085 25.4047852,182.7851868 "/>
<rect x="101.4677124" y="53.8646851" class="st0" width="60.4570007" height="23.0310059"/>
<rect x="119.4717102" y="89.8506775" class="st0" width="24.4490051" height="15.7739868"/>
<rect x="163.3637085" y="55.3036804" class="st0" width="14.4200134" height="20.1610107"/>
<path class="st0" d="M101.8355103,125.9300842l2.7939758-10.4279785l20.8560181,5.5879822l-2.7940063,10.428009
	c-1.5429993,5.7600098-7.4630127,9.177002-13.2220154,7.6340027
	C103.7105103,137.6091003,100.2924805,131.6890869,101.8355103,125.9300842z"/>
<path class="st0" d="M161.5565186,125.9300842l-2.7940063-10.4279785l-20.8560181,5.5879822l2.7940063,10.428009
	c1.5429993,5.7600098,7.4630127,9.177002,13.2220154,7.6340027S163.0995178,131.6890869,161.5565186,125.9300842z"/>
<line class="st0" x1="9.7519226" y1="184.2245941" x2="9.7519226" y2="182.7855988"/>
<line class="st0" x1="9.7519226" y1="106.666687" x2="9.7519226" y2="99.469696"/>
<line class="st0" x1="9.7519226" y1="136.7227783" x2="9.7519226" y2="109.9957886"/>
<line class="st0" x1="15.1497192" y1="184.2245941" x2="15.1497192" y2="182.7855988"/>
<line class="st0" x1="15.1497192" y1="109.9954834" x2="15.1497192" y2="99.4695129"/>
<line class="st0" x1="15.1497192" y1="136.7227783" x2="15.1497192" y2="127.2687988"/>
<line class="st0" x1="20.5477295" y1="184.2245941" x2="20.5477295" y2="182.7855988"/>
<line class="st0" x1="20.5477295" y1="136.7227783" x2="20.5477295" y2="99.4697876"/>
<line class="st0" x1="25.9456177" y1="184.2245941" x2="25.9456177" y2="166.0516052"/>
<line class="st0" x1="25.9456177" y1="153.4563904" x2="25.9456177" y2="99.4693909"/>
<line class="st0" x1="31.3435059" y1="184.2245941" x2="31.3435059" y2="166.0516052"/>
<line class="st0" x1="31.3435059" y1="153.4563904" x2="31.3435059" y2="99.4693909"/>
<line class="st0" x1="36.7414246" y1="184.2245941" x2="36.7414246" y2="99.4696045"/>
<line class="st0" x1="42.1394043" y1="184.2245941" x2="42.1394043" y2="99.4696045"/>
<line class="st0" x1="47.5372314" y1="184.2245941" x2="47.5372314" y2="99.4696045"/>
<line class="st0" x1="52.9353027" y1="184.2245941" x2="52.9353027" y2="109.9956055"/>
<line class="st0" x1="52.9353027" y1="106.666687" x2="52.9353027" y2="99.469696"/>
<line class="st0" x1="58.3331299" y1="184.2245941" x2="58.3331299" y2="109.9956055"/>
<line class="st0" x1="63.7311096" y1="184.2245941" x2="63.7311096" y2="58.3966064"/>
<line class="st0" x1="63.7311096" y1="56.9425964" x2="63.7311096" y2="52.4255981"/>
<line class="st0" x1="69.1289062" y1="184.2245941" x2="69.1289062" y2="171.5906067"/>
<line class="st0" x1="69.1289062" y1="53.0766907" x2="69.1289062" y2="48.1967163"/>
<line class="st0" x1="69.1289062" y1="164.8470764" x2="69.1289062" y2="61.513092"/>
<line class="st0" x1="69.1289062" y1="60.0589905" x2="69.1289062" y2="54.5310059"/>
<line class="st0" x1="74.5270081" y1="184.2245941" x2="74.5270081" y2="176.8546143"/>
<line class="st0" x1="74.5270081" y1="56.1932983" x2="74.5270081" y2="48.1973267"/>
<line class="st0" x1="74.5270081" y1="159.4490967" x2="74.5270081" y2="64.6300964"/>
<line class="st0" x1="74.5270081" y1="63.1754761" x2="74.5270081" y2="57.6474915"/>
<line class="st0" x1="79.9248047" y1="184.2245941" x2="79.9248047" y2="178.9676056"/>
<line class="st0" x1="79.9248047" y1="59.3096924" x2="79.9248047" y2="48.1967163"/>
<line class="st0" x1="79.9248047" y1="154.0513" x2="79.9248047" y2="67.7463074"/>
<line class="st0" x1="79.9248047" y1="66.2919922" x2="79.9248047" y2="60.7640076"/>
<line class="st0" x1="85.3228149" y1="184.2245941" x2="85.3228149" y2="178.1266022"/>
<line class="st0" x1="85.3228149" y1="157.278595" x2="85.3228149" y2="48.1965942"/>
<line class="st0" x1="90.7207031" y1="184.2245941" x2="90.7207031" y2="172.9576111"/>
<line class="st0" x1="90.7207031" y1="163.4960938" x2="90.7207031" y2="52.4251099"/>
<line class="st0" x1="96.1187134" y1="184.2245941" x2="96.1187134" y2="52.4255981"/>
<line class="st0" x1="101.51651" y1="184.2245941" x2="101.51651" y2="129.7506104"/>
<line class="st0" x1="101.51651" y1="53.8646851" x2="101.51651" y2="52.4256897"/>
<line class="st0" x1="101.51651" y1="127.6980896" x2="101.51651" y2="76.8961182"/>
<line class="st0" x1="106.9145203" y1="184.2245941" x2="106.9145203" y2="138.101593"/>
<line class="st0" x1="106.9145203" y1="53.8646851" x2="106.9145203" y2="52.4256897"/>
<line class="st0" x1="106.9145203" y1="116.1141968" x2="106.9145203" y2="76.8962097"/>
<line class="st0" x1="112.3123169" y1="178.6466827" x2="112.3123169" y2="139.5196838"/>
<line class="st0" x1="112.3123169" y1="53.8646851" x2="112.3123169" y2="52.4256897"/>
<line class="st0" x1="112.3123169" y1="117.5606995" x2="112.3123169" y2="76.8957214"/>
<line class="st0" x1="117.7103271" y1="178.6466827" x2="117.7103271" y2="138.0456848"/>
<line class="st0" x1="117.7103271" y1="53.8646851" x2="117.7103271" y2="52.4256897"/>
<line class="st0" x1="117.7103271" y1="119.0069885" x2="117.7103271" y2="76.8959961"/>
<line class="st0" x1="123.1082153" y1="178.6466827" x2="123.1082153" y2="129.9627075"/>
<line class="st0" x1="123.1082153" y1="53.8646851" x2="123.1082153" y2="52.4256897"/>
<line class="st0" x1="123.1082153" y1="120.4532776" x2="123.1082153" y2="105.6242981"/>
<line class="st0" x1="123.1082153" y1="89.8508911" x2="123.1082153" y2="76.8959045"/>
<line class="st0" x1="128.5062256" y1="170.0101013" x2="128.5062256" y2="105.624115"/>
<line class="st0" x1="128.5062256" y1="53.8646851" x2="128.5062256" y2="52.4256897"/>
<line class="st0" x1="128.5062256" y1="89.8508911" x2="128.5062256" y2="76.8959045"/>
<line class="st0" x1="133.9040222" y1="170.0101013" x2="133.9040222" y2="105.624115"/>
<line class="st0" x1="133.9040222" y1="53.8646851" x2="133.9040222" y2="52.4256897"/>
<line class="st0" x1="133.9040222" y1="89.8508911" x2="133.9040222" y2="76.8959045"/>
<line class="st0" x1="139.3020325" y1="170.0101013" x2="139.3020325" y2="126.2991028"/>
<line class="st0" x1="139.3020325" y1="53.8646851" x2="139.3020325" y2="52.4256897"/>
<line class="st0" x1="139.3020325" y1="120.7164001" x2="139.3020325" y2="105.6244202"/>
<line class="st0" x1="139.3020325" y1="89.8508911" x2="139.3020325" y2="76.8959045"/>
<line class="st0" x1="144.6999207" y1="170.0101013" x2="144.6999207" y2="137.3971252"/>
<line class="st0" x1="144.6999207" y1="43.9684753" x2="144.6999207" y2="18.1484985"/>
<line class="st0" x1="144.6999207" y1="119.2700806" x2="144.6999207" y2="76.8960876"/>
<line class="st0" x1="144.6999207" y1="53.8646851" x2="144.6999207" y2="52.4256897"/>
<line class="st0" x1="150.0979309" y1="170.0101013" x2="150.0979309" y2="139.4711304"/>
<line class="st0" x1="150.0979309" y1="19.6777954" x2="150.0979309" y2="18.1488037"/>
<line class="st0" x1="150.0979309" y1="117.8237915" x2="150.0979309" y2="76.895813"/>
<line class="st0" x1="150.0979309" y1="43.9684753" x2="150.0979309" y2="20.9375"/>
<line class="st0" x1="150.0979309" y1="53.8646851" x2="150.0979309" y2="52.4256897"/>
<line class="st0" x1="155.4957275" y1="170.0101013" x2="155.4957275" y2="138.5971069"/>
<line class="st0" x1="155.4957275" y1="19.6777954" x2="155.4957275" y2="18.1488037"/>
<line class="st0" x1="155.4957275" y1="116.3772888" x2="155.4957275" y2="76.8952942"/>
<line class="st0" x1="155.4957275" y1="43.9684753" x2="155.4957275" y2="20.9375"/>
<line class="st0" x1="155.4957275" y1="53.8646851" x2="155.4957275" y2="52.4256897"/>
<line class="st0" x1="160.8937073" y1="170.0101013" x2="160.8937073" y2="133.328125"/>
<line class="st0" x1="160.8937073" y1="19.6777954" x2="160.8937073" y2="18.1488037"/>
<line class="st0" x1="160.8937073" y1="123.4562988" x2="160.8937073" y2="76.8953247"/>
<line class="st0" x1="160.8937073" y1="43.9684753" x2="160.8937073" y2="20.9375"/>
<line class="st0" x1="160.8937073" y1="53.8646851" x2="160.8937073" y2="52.4256897"/>
<line class="st0" x1="166.291626" y1="178.6466827" x2="166.291626" y2="75.4656982"/>
<line class="st0" x1="166.291626" y1="19.6777954" x2="166.291626" y2="18.1488037"/>
<line class="st0" x1="166.291626" y1="55.3040771" x2="166.291626" y2="52.4250793"/>
<line class="st0" x1="166.291626" y1="43.9684753" x2="166.291626" y2="20.9375"/>
<line class="st0" x1="171.6896057" y1="178.6466827" x2="171.6896057" y2="75.4656982"/>
<line class="st0" x1="171.6896057" y1="42.7089844" x2="171.6896057" y2="19.678009"/>
<line class="st0" x1="171.6896057" y1="55.3040771" x2="171.6896057" y2="52.4250793"/>
<line class="st0" x1="177.0874329" y1="178.6466827" x2="177.0874329" y2="75.4656982"/>
<line class="st0" x1="177.0874329" y1="43.9684753" x2="177.0874329" y2="18.1484985"/>
<line class="st0" x1="177.0874329" y1="55.3040771" x2="177.0874329" y2="52.4250793"/>
<line class="st0" x1="182.4854126" y1="167.3109741" x2="182.4854126" y2="52.4249878"/>
<line class="st0" x1="182.4854126" y1="43.9684753" x2="182.4854126" y2="18.1484985"/>
<line class="st0" x1="187.8833313" y1="167.3109741" x2="187.8833313" y2="52.4249878"/>
<line class="st0" x1="187.8833313" y1="43.9684753" x2="187.8833313" y2="18.1484985"/>
<line class="st0" x1="193.281311" y1="167.3109741" x2="193.281311" y2="131.1859741"/>
<line class="st0" x1="193.281311" y1="43.9684753" x2="193.281311" y2="18.1484985"/>
<line class="st0" x1="193.281311" y1="101.9472961" x2="193.281311" y2="77.4763184"/>
<line class="st0" x1="198.6791077" y1="167.3109741" x2="198.6791077" y2="131.1859741"/>
<line class="st0" x1="198.6791077" y1="43.9684753" x2="198.6791077" y2="18.1484985"/>
<line class="st0" x1="198.6791077" y1="101.9472961" x2="198.6791077" y2="77.4763184"/>
<line class="st0" x1="204.0771179" y1="167.3109741" x2="204.0771179" y2="131.1859741"/>
<line class="st0" x1="204.0771179" y1="52.6051941" x2="204.0771179" y2="14.6401978"/>
<line class="st0" x1="204.0771179" y1="114.9922791" x2="204.0771179" y2="104.8822937"/>
<line class="st0" x1="204.0771179" y1="97.7919922" x2="204.0771179" y2="74.1970215"/>
<line class="st0" x1="204.0771179" y1="103.4274902" x2="204.0771179" y2="99.2464905"/>
<line class="st0" x1="209.4750061" y1="167.3109741" x2="209.4750061" y2="131.1859741"/>
<line class="st0" x1="209.4750061" y1="52.6051941" x2="209.4750061" y2="14.6401978"/>
<line class="st0" x1="209.4750061" y1="114.9922791" x2="209.4750061" y2="101.7652893"/>
<line class="st0" x1="209.4750061" y1="94.6754761" x2="209.4750061" y2="74.1965027"/>
<line class="st0" x1="209.4750061" y1="100.3109741" x2="209.4750061" y2="96.1299744"/>
<line class="st0" x1="214.8730164" y1="167.3109741" x2="214.8730164" y2="131.1859741"/>
<line class="st0" x1="214.8730164" y1="52.6051941" x2="214.8730164" y2="14.6401978"/>
<line class="st0" x1="214.8730164" y1="114.9922791" x2="214.8730164" y2="93.0133057"/>
<line class="st0" x1="214.8730164" y1="91.5589905" x2="214.8730164" y2="74.196991"/>
<line class="st0" x1="220.270813" y1="167.3109741" x2="220.270813" y2="131.1859741"/>
<line class="st0" x1="220.270813" y1="52.6051941" x2="220.270813" y2="14.6401978"/>
<line class="st0" x1="220.270813" y1="114.9922791" x2="220.270813" y2="101.3502808"/>
<line class="st0" x1="220.270813" y1="89.1573792" x2="220.270813" y2="74.1963806"/>
<line class="st0" x1="220.270813" y1="99.8954773" x2="220.270813" y2="89.8964844"/>
<line class="st0" x1="225.6688232" y1="167.3109741" x2="225.6688232" y2="131.1859741"/>
<line class="st0" x1="225.6688232" y1="52.6051941" x2="225.6688232" y2="14.6401978"/>
<line class="st0" x1="225.6688232" y1="114.9922791" x2="225.6688232" y2="104.4663086"/>
<line class="st0" x1="225.6688232" y1="103.012085" x2="225.6688232" y2="74.197113"/>
<polygon class="st0" points="233.3157959,265.5135803 233.3157959,175.7675781 229.0877686,175.7675781 229.0877686,201.6775818 
	227.8277588,201.6775818 227.8277588,175.7675781 198.8587952,175.7675781 198.8587952,174.5986023 185.1837769,174.5986023 
	185.1837769,191.5115814 11.6407776,191.5115814 11.6407776,231.9955902 185.1837769,255.1175842 185.1837769,265.5135803 
	186.6237793,265.5135803 186.6237793,242.4825897 187.882782,242.4825897 187.882782,265.5135803 "/>
<path class="st0" d="M7.2789307,27.4176025c0-0.1409912,0.0999756-0.26297,0.2389832-0.2889709l2.125-0.4070129
	c0.2319946-0.0440063,0.4720154,0.0079956,0.6640015,0.1440125c0.3259888,0.2319946,0.6109924,0.5159912,0.8420105,0.8429871
	c2.2989807-0.1369934,4.5849915-0.4289856,6.8439941-0.8739929c0.723999-0.1640015,1.4639893-0.2470093,2.2070007-0.2470093
	c0.9629822,0,1.9219971,0.1390076,2.8450012,0.4140015c0.803009,0.2390137,1.5610046,0.6109924,2.2409973,1.1000061
	c0.6539917,0.4710083,1.2000122,1.0749817,1.6029968,1.7729797c0.3299866,0.5730286,0.5029907,1.2230225,0.5029907,1.8840027
	c0,0.6610107-0.1730042,1.3110046-0.5029907,1.8840027c-0.4029846,0.697998-0.9490051,1.302002-1.6029968,1.7730103
	c-0.6799927,0.4890137-1.4379883,0.8609924-2.2409973,1.1000061c-0.9230042,0.2749939-1.882019,0.4140015-2.8450012,0.4140015
	c-0.7430115,0-1.4830017-0.0820007-2.2070007-0.2470093c-2.2590027-0.4450073-4.5450134-0.7369995-6.8439941-0.8739929
	c-0.2310181,0.3259888-0.5160217,0.6109924-0.8420105,0.8429871c-0.1919861,0.1360168-0.4320068,0.1880188-0.6640015,0.1440125
	l-2.125-0.4070129c-0.1390076-0.0270081-0.2389832-0.1479797-0.2389832-0.2890015V27.4176025z"/>
<line class="st0" x1="229.0874023" y1="175.7677917" x2="203.1773987" y2="175.7677917"/>
<line class="st0" x1="229.0874023" y1="167.3109741" x2="203.1773987" y2="167.3109741"/>
<line class="st0" x1="227.3814087" y1="14.6398926" x2="202.9104004" y2="14.6398926"/>
<line class="st0" x1="227.3814087" y1="11.0410767" x2="202.9104004" y2="11.0410767"/>
<line class="st0" x1="186.6238098" y1="265.5135803" x2="209.6547852" y2="265.5135803"/>
<line class="st0" x1="186.6238098" y1="266.9530029" x2="209.6547852" y2="266.9530029"/>
<path class="st0" d="M57.5645142,19.8577881H6.6925049v45.9750061h17.1839905c1.1920166,0,2.1589966,0.9670105,2.1589966,2.1589966
	v10.0760193c0,1.1929932-0.96698,2.1600037-2.1589966,2.1600037H6.6925049v5.8369751h50.8720093v-6.289978h1.6639709V55.3038025
	h-1.6639709V19.8577881z"/>
<line class="st0" x1="7.4088135" y1="86.0645752" x2="7.4088135" y2="80.2276001"/>
<line class="st0" x1="7.4088135" y1="27.1734924" x2="7.4088135" y2="19.8575134"/>
<line class="st0" x1="7.4088135" y1="65.8329773" x2="7.4088135" y2="36.3439941"/>
<line class="st0" x1="16.0455322" y1="86.0645752" x2="16.0455322" y2="80.2276001"/>
<line class="st0" x1="16.0455322" y1="27.1793823" x2="16.0455322" y2="19.8573914"/>
<line class="st0" x1="16.0455322" y1="65.8329773" x2="16.0455322" y2="36.3379822"/>
<line class="st0" x1="24.6822205" y1="86.0645752" x2="24.6822205" y2="80.0715942"/>
<line class="st0" x1="24.6822205" y1="27.7103882" x2="24.6822205" y2="19.8573914"/>
<line class="st0" x1="24.6822205" y1="65.9890747" x2="24.6822205" y2="35.8070984"/>
<line class="st0" x1="33.3189087" y1="86.0645752" x2="33.3189087" y2="19.8575745"/>
<line class="st0" x1="41.9555054" y1="86.0645752" x2="41.9555054" y2="19.8575745"/>
<line class="st0" x1="50.5922241" y1="86.0645752" x2="50.5922241" y2="19.8575745"/>
<line class="st0" x1="59.2289124" y1="68.7912903" x2="26.0358887" y2="68.7912903"/>
<line class="st0" x1="57.5645142" y1="51.5178833" x2="6.6925049" y2="51.5178833"/>
<line class="st0" x1="57.5645142" y1="34.2445984" x2="26.4884949" y2="34.2445984"/>
<line class="st0" x1="7.2789307" y1="34.2445984" x2="6.6929016" y2="34.2445984"/>
<line class="st0" x1="229.0874023" y1="191.511795" x2="233.3153687" y2="191.511795"/>
<line class="st0" x1="185.1843262" y1="191.511795" x2="227.8283081" y2="191.511795"/>
<line class="st0" x1="11.6410217" y1="208.7851868" x2="233.315979" y2="208.7851868"/>
<line class="st0" x1="11.6410217" y1="226.0584869" x2="233.315979" y2="226.0584869"/>
<line class="st0" x1="96.7240295" y1="243.3318939" x2="186.6240234" y2="243.3318939"/>
<line class="st0" x1="187.8833313" y1="243.3318939" x2="233.3162842" y2="243.3318939"/>
<line class="st0" x1="185.1843262" y1="260.6051025" x2="186.6233215" y2="260.6051025"/>
<line class="st0" x1="187.8833313" y1="260.6051025" x2="233.3162842" y2="260.6051025"/>
<line class="st0" x1="12.4508057" y1="232.1037903" x2="12.4508057" y2="191.511795"/>
<line class="st0" x1="29.7240295" y1="234.4049835" x2="29.7240295" y2="191.5119934"/>
<line class="st0" x1="46.9975281" y1="236.7063904" x2="46.9975281" y2="191.5113983"/>
<line class="st0" x1="64.2709045" y1="239.0078888" x2="64.2709045" y2="191.5119019"/>
<line class="st0" x1="81.5441284" y1="241.3092804" x2="81.5441284" y2="191.5112915"/>
<line class="st0" x1="98.817627" y1="243.6106873" x2="98.817627" y2="191.5116882"/>
<line class="st0" x1="116.0908203" y1="245.9121857" x2="116.0908203" y2="191.5121918"/>
<line class="st0" x1="133.3642273" y1="248.2135925" x2="133.3642273" y2="191.5115967"/>
<line class="st0" x1="150.6377258" y1="250.5149841" x2="150.6377258" y2="191.5119934"/>
<line class="st0" x1="167.9109192" y1="252.8164825" x2="167.9109192" y2="191.5114899"/>
<line class="st0" x1="185.1843262" y1="255.1178894" x2="185.1843262" y2="191.5119019"/>
<line class="st0" x1="202.4576111" y1="265.5135803" x2="202.4576111" y2="175.7675781"/>
<line class="st0" x1="219.7310181" y1="265.5135803" x2="219.7310181" y2="175.7675781"/>
<polygon class="st1" points="11.6410217,220.6605835 0.125,220.6605835 0.125,9.4216003 201.4710083,9.4216003 
	201.4710083,11.0415955 202.9110107,11.0415955 202.9110107,14.6395874 201.4710083,14.6395874 201.4710083,18.1485901 
	173.0390015,18.1485901 173.0390015,19.6775818 169.710022,19.6775818 169.710022,18.1485901 63.6820068,18.1485901 
	63.6820068,43.9685974 65.4810181,43.9685974 65.4810181,52.4255981 60.8930054,52.4255981 60.8930054,55.3035889 
	57.5639954,55.3035889 57.5639954,19.857605 6.6929932,19.857605 6.6929932,86.0646057 57.5639954,86.0646057 
	57.5639954,79.7745972 60.8930054,79.7745972 60.8930054,109.9956055 49.3569946,109.9956055 49.3569946,106.6665955 
	57.5639954,106.6665955 57.5639954,89.3935852 6.6929932,89.3935852 6.6929932,106.6665955 14.8099976,106.6665955 
	14.8099976,109.9956055 6.6929932,109.9956055 6.6929932,184.2245941 12.3720093,184.2245941 12.3720093,188.272583 
	11.6410217,188.272583 "/>
<polygon class="st1" points="69.9500122,184.2245941 69.9389954,188.2725983 70.6579895,188.2725983 70.6579895,191.5115967 
	185.1839905,191.5115967 185.1839905,171.3596191 185.9039917,171.3596191 185.9039917,167.3106079 177.8970032,167.3106079 
	177.8970032,178.6466064 108.8039856,178.6466064 108.8039856,184.2245941 "/>
<rect x="198.8597107" y="167.3106995" class="st1" width="4.3179932" height="8.4570007"/>
<polygon class="st1" points="229.0874023,167.3109741 229.0874023,175.7679749 233.3153687,175.7679749 233.3153687,220.6609802 
	239.8833618,220.6609802 239.8833618,9.4219666 228.8203735,9.4219666 228.8203735,11.0409851 227.3813477,11.0409851 
	227.3813477,14.6399841 228.8203735,14.6399841 228.8203735,18.1479797 231.0663452,18.1479797 231.0663452,104.4659729 
	228.1873779,104.4659729 228.1873779,107.7949829 231.0663452,107.7949829 231.0663452,125.0679932 199.3983765,125.0679932 
	199.3983765,107.7949829 202.2773743,107.7949829 202.2773743,104.4659729 199.3983765,104.4659729 199.3983765,101.946991 
	193.2814026,101.946991 193.2814026,131.1859741 231.0663452,131.1859741 231.0663452,167.3109741 "/>
<polygon class="st1" points="87.0732117,43.9684753 87.0732117,52.4254761 193.281189,52.4254761 193.281189,77.4765015 
	199.3992004,77.4765015 199.3992004,43.9684753 173.0392151,43.9684753 173.0392151,42.7095032 169.7102051,42.7095032 
	169.7102051,43.9684753 "/>
<rect x="201.0177307" y="51.1656799" class="st2" width="1.0799866" height="24.4710083"/>
<polyline class="st2" points="104.4835205,20.3076782 143.3504944,20.3076782 143.3504944,19.2276917 104.194519,19.2276917 "/>
<line class="st3" x1="199.3988037" y1="117.8710938" x2="201.540802" y2="117.8710938"/>
<line class="st4" x1="203.6473083" y1="117.8710938" x2="227.8712769" y2="117.8710938"/>
<line class="st3" x1="228.9246216" y1="117.8710938" x2="231.0665894" y2="117.8710938"/>
<line class="st3" x1="57.5645142" y1="96.5905762" x2="55.4224854" y2="96.5905762"/>
<line class="st5" x1="53.3049316" y1="96.5905762" x2="9.8939209" y2="96.5905762"/>
<line class="st3" x1="8.8349304" y1="96.5905762" x2="6.6929016" y2="96.5905762"/>
<line class="st2" x1="185.1843262" y1="171.3594971" x2="198.859314" y2="171.3594971"/>
<line class="st2" x1="185.1843262" y1="174.598175" x2="198.859314" y2="174.598175"/>
<line class="st2" x1="11.6410217" y1="188.2730865" x2="70.65802" y2="188.2730865"/>
<line class="st2" x1="11.6410217" y1="191.511795" x2="70.65802" y2="191.511795"/>
<rect x="227.8287354" y="175.7677002" class="st2" width="1.2589722" height="25.9099884"/>
<path class="st2" d="M203.1775208,175.7677917c0,14.3100128,11.5999756,25.9100037,25.9099426,25.9100037"/>
<rect x="226.1227417" y="14.639679" class="st2" width="1.2589722" height="24.4710083"/>
<path class="st2" d="M202.9109192,14.6398926c0,13.5150146,10.9559937,24.4710083,24.4709778,24.4710083"/>
<rect x="186.6237183" y="242.4826813" class="st2" width="1.2600098" height="23.0309906"/>
<path class="st2" d="M209.6549072,265.5135803c0-12.719986-10.3110046-23.0309906-23.0310059-23.0309906"/>
<path class="st2" d="M215.2328186,104.4664001c0-2.2739868-0.5990295-4.5079956-1.7360229-6.4779968"/>
<path class="st2" d="M216.9684143,97.9888c-1.1370239,1.9690247-1.7360229,4.2030029-1.7360229,6.4780273"/>
<rect x="201.7247162" y="101.1430054" transform="matrix(0.8660018 -0.5000409 0.5000409 0.8660018 -22.9919033 117.746994)" class="st6" width="12.9549408" height="1.2598343"/>
<rect x="221.6333618" y="95.2954025" transform="matrix(0.5000399 -0.8660024 0.8660024 0.5000399 22.9872169 243.362915)" class="st6" width="1.2598419" height="12.9549561"/>
<rect x="70.5443954" y="49.731926" transform="matrix(0.4999944 -0.8660287 0.8660287 0.4999944 -18.0777092 92.6228867)" class="st7" width="1.259842" height="24.4703121"/>
<path class="st2" d="M60.8933105,79.7747803c8.742981,0,16.8209839-4.6639709,21.1919861-12.2349854"/>
<rect x="185.1847229" y="265.5136719" class="st2" width="1.4389954" height="1.4389954"/>
<rect x="209.6547241" y="265.5136719" class="st2" width="23.6610107" height="1.4389954"/>
<line class="st2" x1="199.3988037" y1="66.9995728" x2="201.0177917" y2="66.9995728"/>
<line class="st2" x1="202.0978088" y1="66.9995728" x2="231.0667725" y2="66.9995728"/>
<line class="st2" x1="199.3988037" y1="74.1968994" x2="201.0177917" y2="74.1968994"/>
<line class="st2" x1="202.0978088" y1="74.1968994" x2="231.0667725" y2="74.1968994"/>
<line class="st2" x1="199.3988037" y1="59.8024902" x2="201.0177917" y2="59.8024902"/>
<line class="st2" x1="202.0978088" y1="59.8024902" x2="231.0667725" y2="59.8024902"/>
<line class="st2" x1="199.3988037" y1="52.6051941" x2="201.0177917" y2="52.6051941"/>
<line class="st2" x1="202.0978088" y1="52.6051941" x2="231.0667725" y2="52.6051941"/>
<line class="st2" x1="143.3503113" y1="43.9684753" x2="143.3503113" y2="18.1484985"/>
<line class="st2" x1="128.9559326" y1="43.9684753" x2="128.9559326" y2="20.3074951"/>
<line class="st2" x1="128.9559326" y1="19.2280884" x2="128.9559326" y2="18.1481018"/>
<line class="st2" x1="121.758606" y1="43.9684753" x2="121.758606" y2="20.3074951"/>
<line class="st2" x1="121.758606" y1="19.2280884" x2="121.758606" y2="18.1481018"/>
<line class="st2" x1="114.5615234" y1="43.9684753" x2="114.5615234" y2="20.3074951"/>
<line class="st2" x1="114.5615234" y1="19.2280884" x2="114.5615234" y2="18.1481018"/>
<line class="st2" x1="107.3642273" y1="32.3888855" x2="107.3642273" y2="31.0588989"/>
<line class="st2" x1="107.3642273" y1="29.7280884" x2="107.3642273" y2="20.3081055"/>
<line class="st2" x1="107.3642273" y1="19.2280884" x2="107.3642273" y2="18.1481018"/>
<polyline class="st2" points="103.9050293,18.1483765 106.9790039,29.6193848 109.5230103,30.3383789 105.2050171,31.7783813 
	107.75,32.4983826 110.8240051,43.9683838 "/>
<line class="st2" x1="136.1532288" y1="43.9684753" x2="136.1532288" y2="20.3074951"/>
<line class="st2" x1="136.1532288" y1="19.2280884" x2="136.1532288" y2="18.1481018"/>
<rect x="146.679718" y="19.6776733" class="st2" width="23.0310059" height="1.2590027"/>
<path class="st2" d="M146.6791077,19.6777954c0,12.7200012,10.3109741,23.0310059,23.0309753,23.0310059"/>
<rect x="74.5160904" y="46.4818153" transform="matrix(0.5000057 -0.8660221 0.8660221 0.5000057 -12.0311985 93.716629)" class="st8" width="1.259819" height="21.5918007"/>
<path class="st2" d="M84.1804199,63.2210999c1.894989-3.2819824,2.8929749-7.0059814,2.8929749-10.79599"/>
<rect x="14.81073" y="109.9956665" class="st2" width="1.2590027" height="17.2730103"/>
<rect x="48.0977173" y="109.9956665" class="st2" width="1.2600098" height="17.2730103"/>
<path class="st2" d="M14.8103027,127.2687988c9.539978,0,17.2729797-7.7339783,17.2729797-17.2729797"/>
<path class="st2" d="M32.0838318,109.9954834c0,9.5400085,7.7339783,17.2730103,17.2729797,17.2730103"/>
<rect x="197.4446106" y="94.6543884" transform="matrix(0.8660288 -0.499994 0.499994 0.8660288 -19.5505447 117.6039734)" class="st9" width="24.470274" height="1.2598265"/>
<path class="st2" d="M220.5910034,89.7119751c-4.3710022-7.5709839-12.4500122-12.2349854-21.1920166-12.2349854"/>
<rect x="185.1847229" y="171.3596802" class="st2" width="1.4389954" height="3.2390137"/>
<rect x="197.4197083" y="171.3596802" class="st2" width="1.4389954" height="3.2390137"/>
<line class="st2" x1="186.6238098" y1="173.878479" x2="197.4197998" y2="173.878479"/>
<line class="st2" x1="186.6238098" y1="173.158783" x2="197.4197998" y2="173.158783"/>
<line class="st2" x1="185.9041138" y1="167.3109741" x2="198.8591003" y2="167.3109741"/>
<rect x="11.6407166" y="188.2726898" class="st2" width="1.4389954" height="3.2389984"/>
<rect x="69.2187195" y="188.2726898" class="st2" width="1.4389954" height="3.2389984"/>
<rect x="28.1947327" y="188.2726898" class="st2" width="1.4389954" height="3.2389984"/>
<line class="st2" x1="13.0805054" y1="190.7920837" x2="28.1944885" y2="190.7920837"/>
<line class="st2" x1="13.0805054" y1="190.0722809" x2="28.1944885" y2="190.0722809"/>
<line class="st2" x1="29.6342163" y1="190.7920837" x2="69.2192078" y2="190.7920837"/>
<line class="st2" x1="29.6342163" y1="190.0722809" x2="69.2192078" y2="190.0722809"/>
<line class="st2" x1="12.3607178" y1="184.2245941" x2="69.949707" y2="184.2245941"/>
<rect x="123.1987305" y="170.0096741" class="st2" width="40.3039856" height="8.6369934"/>
<rect x="8.1317139" y="136.7226868" class="st2" width="17.2730103" height="46.0619965"/>
<rect x="12.7267151" y="151.1176758" class="st2" width="1.0799866" height="17.2730103"/>
<rect x="19.0437317" y="152.4526978" class="st2" width="4.3179932" height="14.3940125"/>
<polyline class="st2" points="12.7270203,157.0549927 11.1080017,157.0549927 11.1080017,162.4530029 12.7270203,162.4530029 "/>
<line class="st2" x1="31.8827209" y1="153.4563904" x2="25.4057007" y2="153.4563904"/>
<polyline class="st2" points="13.8066101,162.4529724 15.4266052,162.4529724 15.4266052,157.0549927 13.8066101,157.0549927 "/>
<line class="st2" x1="31.8827209" y1="166.0514832" x2="25.4057007" y2="166.0514832"/>
<rect x="31.8827209" y="152.7366943" class="st2" width="1.0799866" height="14.0350037"/>
<path class="st2" d="M20.3171082,148.882782c-0.3160095,0.0920105-0.4980164,0.4230042-0.4060059,0.7390137
	c0.0910034,0.3110046,0.4129944,0.4920044,0.7259827,0.4089966c0.5350037-0.1430054,1.0830078-0.2279968,1.6350098-0.2550049
	c0.2590027-0.0130005,0.4589844-0.2330017,0.4459839-0.4909973c-0.0089722-0.1929932-0.1349792-0.3599854-0.3179932-0.4219971
	C21.7240906,148.6337891,20.9891052,148.6408081,20.3171082,148.882782z"/>
<rect x="119.4717102" y="89.8506775" class="st2" width="24.4490051" height="15.7739868"/>
<ellipse class="st2" cx="170.5739136" cy="62.5013657" rx="5.7579956" ry="5.7580004"/>
<path class="st2" d="M169.0950317,62.5013733c0-0.8169861,0.6619873-1.4789734,1.4789734-1.4789734
	c0.8160095,0,1.4779968,0.6619873,1.4779968,1.4789734c0,0.8170166-0.6619873,1.4790039-1.4779968,1.4790039
	C169.757019,63.9803772,169.0950317,63.3183899,169.0950317,62.5013733z"/>
<line class="st2" x1="176.3314209" y1="62.5013733" x2="172.0523987" y2="62.5013733"/>
<line class="st2" x1="169.0950317" y1="62.5013733" x2="164.8160095" y2="62.5013733"/>
<line class="st2" x1="170.5737305" y1="68.2591858" x2="170.5737305" y2="63.9801941"/>
<line class="st2" x1="170.5737305" y1="61.0226746" x2="170.5737305" y2="56.7436829"/>
<rect x="163.3637085" y="55.3036804" class="st2" width="14.4200134" height="20.1610107"/>
<line class="st2" x1="161.924408" y1="53.8646851" x2="101.4674072" y2="53.8646851"/>
<line class="st2" x1="101.4676208" y1="76.8957825" x2="101.4676208" y2="53.8648071"/>
<line class="st2" x1="161.924408" y1="76.8957825" x2="161.924408" y2="53.8648071"/>
<line class="st2" x1="159.0454102" y1="76.8957825" x2="159.0454102" y2="57.4638062"/>
<line class="st2" x1="161.924408" y1="56.7436829" x2="101.4674072" y2="56.7436829"/>
<line class="st2" x1="161.924408" y1="76.8957825" x2="101.4674072" y2="76.8957825"/>
<line class="st2" x1="140.8125305" y1="76.8957825" x2="140.8125305" y2="58.1828003"/>
<line class="st2" x1="122.5795288" y1="76.8957825" x2="122.5795288" y2="58.1828003"/>
<line class="st2" x1="159.0454102" y1="58.183075" x2="104.346405" y2="58.183075"/>
<line class="st2" x1="101.4676208" y1="57.4633789" x2="104.3466187" y2="57.4633789"/>
<line class="st2" x1="161.924408" y1="57.4633789" x2="159.0453796" y2="57.4633789"/>
<line class="st2" x1="104.346405" y1="76.8957825" x2="104.346405" y2="57.4638062"/>
<path class="st2" d="M140.700531,131.5184937c1.5429993,5.7590027,7.4629822,9.177002,13.2219849,7.6340027
	c5.7590027-1.5439758,9.177002-7.4629822,7.6340027-13.2219849"/>
<path class="st2" d="M143.4814148,130.7731934c1.1319885,4.2240295,5.4729919,6.730011,9.6959839,5.5980225
	c4.223999-1.131012,6.730011-5.4730225,5.5979919-9.6960144"/>
<line class="st2" x1="143.4814148" y1="130.7731934" x2="140.6874084" y2="120.3452148"/>
<line class="st2" x1="155.9816284" y1="116.2472839" x2="158.7756042" y2="126.675293"/>
<line class="st2" x1="140.700531" y1="131.5184937" x2="137.9065247" y2="121.0905151"/>
<line class="st2" x1="137.906311" y1="121.0903931" x2="158.7622986" y2="115.5024109"/>
<line class="st2" x1="158.7623291" y1="115.5019836" x2="161.5563049" y2="125.9299927"/>
<path class="st2" d="M143.1087036,129.3828735c1.1319885,4.2240295,5.4729919,6.730011,9.6959839,5.5980225
	c4.223999-1.132019,6.730011-5.4730225,5.5979919-9.6960144"/>
<rect x="128.2367249" y="175.047699" class="st2" width="30.2279968" height="0.7200012"/>
<polyline class="st2" points="139.0321045,175.0480957 139.0321045,172.1690979 147.6690979,172.1690979 147.6690979,175.0480957 
	"/>
<polyline class="st2" points="147.6688232,175.7677917 147.6688232,177.2068176 139.0317993,177.2068176 139.0317993,175.7677917 
	"/>
<path class="st2" d="M73.3829041,175.8609009c4.2159729,4.2160034,11.0519714,4.2160034,15.2669983,0
	c4.21698-4.2159729,4.21698-11.0519714,0-15.2679749"/>
<path class="st2" d="M75.4185181,173.8251953c3.09198,3.0920105,8.1039734,3.0920105,11.1959839,0
	c3.0920105-3.09198,3.0920105-8.1039734,0-11.1959839"/>
<line class="st2" x1="86.6147156" y1="162.6288757" x2="78.9807129" y2="154.9949036"/>
<line class="st2" x1="67.7846069" y1="166.1912842" x2="75.4185791" y2="173.8252869"/>
<line class="st2" x1="88.6504211" y1="160.5932007" x2="81.0164185" y2="152.9592285"/>
<line class="st2" x1="81.0166321" y1="152.9594727" x2="65.7486267" y2="168.227478"/>
<line class="st2" x1="65.7489319" y1="168.2270813" x2="73.3829041" y2="175.861084"/>
<path class="st2" d="M74.4006042,172.8072815c3.09198,3.0920105,8.1039734,3.0920105,11.1959839,0
	c3.0920105-3.09198,3.0920105-8.1039734,0-11.1959839"/>
<path class="st2" d="M101.8355103,125.9300842c-1.5430298,5.7590027,1.875,11.6790161,7.6339722,13.2220154
	c5.7590027,1.5429993,11.6790161-1.8739929,13.2220154-7.6340027"/>
<path class="st2" d="M104.616333,126.6752014c-1.132019,4.2230225,1.375,8.5650024,5.5979919,9.6960144
	c4.223999,1.1319885,8.5650024-1.3739929,9.6959839-5.5979919"/>
<line class="st2" x1="119.910614" y1="130.7731934" x2="122.7045898" y2="120.3452148"/>
<line class="st2" x1="107.4104309" y1="116.2472839" x2="104.6164246" y2="126.675293"/>
<line class="st2" x1="122.6915283" y1="131.5184937" x2="125.4855042" y2="121.0905151"/>
<line class="st2" x1="125.4855042" y1="121.0903931" x2="104.6294861" y2="115.5024109"/>
<line class="st2" x1="104.6297302" y1="115.5019836" x2="101.8357239" y2="125.9299927"/>
<path class="st2" d="M104.9889221,125.28479c-1.132019,4.2230225,1.375,8.5640259,5.5979919,9.6960144
	s8.5650024-1.3739929,9.6959839-5.5979919"/>
<line class="st2" x1="15.6413269" y1="73.4932861" x2="12.2263184" y2="73.4932861"/>
<path class="st2" d="M15.6413269,73.4932861c0.1409912,0,0.2549744-0.1139832,0.2549744-0.2549744"/>
<path class="st2" d="M15.8963318,72.8222961c0-0.1409912-0.1140137-0.2549744-0.2550049-0.2549744"/>
<line class="st2" x1="15.8963318" y1="73.2382812" x2="15.8963318" y2="72.8222961"/>
<path class="st2" d="M12.1550293,72.6540833c0.071991,0.0820007,0.1759949,0.1280212,0.2849731,0.1280212"/>
<path class="st2" d="M12.4402161,73.2781982c-0.1090088,0-0.2130127,0.0470276-0.2850037,0.1280212"/>
<line class="st2" x1="14.0456238" y1="73.2781982" x2="12.4406128" y2="73.2781982"/>
<line class="st2" x1="12.4404297" y1="72.7825012" x2="14.0454102" y2="72.7825012"/>
<path class="st2" d="M14.1874084,72.9242859c0-0.0779724-0.0630188-0.1419983-0.1420288-0.1419983"/>
<line class="st2" x1="14.1874084" y1="73.1362915" x2="14.1874084" y2="72.9243164"/>
<path class="st2" d="M11.9584045,72.5112c0.0849915,0.0370178,0.1759949,0.0560303,0.2679749,0.0560303"/>
<path class="st2" d="M12.2262268,73.4932861c-0.0920105,0-0.1830139,0.0190125-0.2680054,0.0560303"/>
<line class="st2" x1="12.2262268" y1="72.5672913" x2="15.6412048" y2="72.5672913"/>
<path class="st2" d="M12.2329102,72.5672913c-0.256012-0.2769775-0.6880188-0.2949829-0.9650269-0.0389709
	c-0.2769775,0.2559814-0.2939758,0.6879883-0.0390015,0.9649963c0.256012,0.2769775,0.6880188,0.2949829,0.9650269,0.0390015
	c0.0139771-0.0120239,0.0269775-0.026001,0.0390015-0.0390015"/>
<path class="st2" d="M12.1550293,72.6540833c-0.2080078-0.2339783-0.5660095-0.2559814-0.8000183-0.0479736
	c-0.2340088,0.2079773-0.256012,0.565979-0.0480042,0.7999878s0.5660095,0.256012,0.8000183,0.0480042
	c0.0169983-0.0150146,0.0329895-0.0310059,0.0480042-0.0480042"/>
<path class="st2" d="M14.0456238,73.2781982c0.0779724,0,0.1419983-0.0639954,0.1419983-0.1419983"/>
<line class="st2" x1="22.5402222" y1="65.8329773" x2="23.8762207" y2="65.8329773"/>
<line class="st2" x1="23.8763123" y1="80.2276001" x2="22.5402832" y2="80.2276001"/>
<path class="st2" d="M23.3162231,78.4124756c0.2979736,0.0110168,0.5489807-0.2209778,0.5599976-0.5189819
	c0-0.0069885,0-0.0140076,0-0.019989"/>
<path class="st2" d="M16.0569153,77.1897888c2.3569946,0.7180176,4.7969971,1.1290283,7.2589722,1.2230225"/>
<path class="st2" d="M16.0569153,68.8707886c-1.6670227,0.5080261-2.8700256,1.9630127-3.0560303,3.6970215"/>
<path class="st2" d="M13.0011292,73.4932861c0.1859741,1.7330017,1.38797,3.1880188,3.0559998,3.6970215"/>
<path class="st2" d="M23.3162231,67.6481018c-2.4620056,0.0930176-4.9020081,0.5040283-7.2590027,1.2230225"/>
<path class="st2" d="M23.8763123,68.1875c0-0.2979736-0.2420044-0.539978-0.5400085-0.539978
	c-0.007019,0-0.0130005,0-0.0200195,0.0010071"/>
<line class="st2" x1="23.8763123" y1="68.1875" x2="23.8763123" y2="77.8735046"/>
<path class="st2" d="M6.6929321,80.2276001h17.1829834c1.1929932,0,2.1600037-0.96698,2.1600037-2.1589966V67.9926147
	c0-1.1929932-0.9670105-2.1600037-2.1600037-2.1600037H6.6929321V80.2276001z"/>
<path class="st2" d="M14.3401184,72.3105774c-0.2130127,0-0.4140015,0.0940247-0.5510254,0.257019"/>
<path class="st2" d="M13.7891235,73.4932861c0.1369934,0.1630249,0.3379822,0.257019,0.5509949,0.257019"/>
<path class="st2" d="M14.3401184,73.75c0.2119751,0,0.4139709-0.0939941,0.5509949-0.2569885"/>
<path class="st2" d="M14.8910217,72.5672913c-0.1370239-0.1629944-0.3380127-0.2569885-0.5510254-0.2569885"/>
<path class="st2" d="M22.8081055,77.9613953c0.1899719-0.0109863,0.3389893-0.1679993,0.3389893-0.3589783"/>
<path class="st2" d="M17.1810303,77.5074768c1.8469849,0.401001,3.7399902,0.553009,5.6269836,0.45401"/>
<path class="st2" d="M16.0922241,68.8629761c-0.1270142,0.0370178-0.2520142,0.0800171-0.375,0.1280212"/>
<path class="st2" d="M15.7184143,77.0697937c0.1219788,0.0480042,0.2469788,0.0910034,0.3739929,0.1280212"/>
<path class="st2" d="M22.8081055,68.0990906c-1.8880005-0.098999-3.7800293,0.053009-5.6270142,0.45401"/>
<path class="st2" d="M23.147522,68.4584961c0-0.190979-0.1490173-0.3479919-0.3390198-0.3589783"/>
<line class="st2" x1="23.147522" y1="77.6020813" x2="23.147522" y2="68.4580994"/>
<path class="st2" d="M17.3537292,36.5152893c0.9229736,0.2750244,1.8819885,0.4150085,2.8459778,0.4150085"/>
<path class="st2" d="M15.1134033,35.4153748c0.6799927,0.4890137,1.4369812,0.8610229,2.2399902,1.1000061"/>
<path class="st2" d="M14.4327087,34.8396912c0.2119751,0.210022,0.4389954,0.4020081,0.6809998,0.5760193"/>
<path class="st2" d="M20.1994324,36.9300842c0.9639893,0,1.9219971-0.1399841,2.8459778-0.414978
	c0.803009-0.2390137,1.5599976-0.6109924,2.2400208-1.1000061c0.6539917-0.4700012,1.2009888-1.0750122,1.6029968-1.7730103
	c0.3299866-0.572998,0.5039978-1.2219849,0.5039978-1.8840027c0-0.6609802-0.1740112-1.3099976-0.5039978-1.8829956
	c-0.4020081-0.697998-0.9490051-1.3029785-1.6029968-1.7729797c-0.6800232-0.4890137-1.4370117-0.8610229-2.2400208-1.1000061
	c-0.9239807-0.2749939-1.8819885-0.4150085-2.8459778-0.4150085c-0.9640198,0-1.9220276,0.1400146-2.8460083,0.4150085
	c-0.803009,0.2389832-1.5599976,0.6109924-2.2400208,1.1000061c-0.2419739,0.1729736-0.4689941,0.3659973-0.6809998,0.5749817
	v6.1629944"/>
<path class="st2" d="M11.1491089,35.8089905c2.2979736,0.1360168,4.5849915,0.428009,6.8439941,0.8740234"/>
<path class="st2" d="M11.9554138,29.7532959c-0.1000061-0.5149841-0.2620239-1.0159912-0.4840088-1.4909973
	c-0.2610168-0.5579834-0.6620178-1.039978-1.1650085-1.3959961c-0.1919861-0.1369934-0.4320068-0.1889954-0.6629944-0.144989
	l-2.125,0.4069824c-0.1390076,0.0270081-0.2390137,0.1480103-0.2390137,0.2890015v8.6820068
	c0,0.1410217,0.1000061,0.2630005,0.2390137,0.2890015l2.125,0.4070129
	c0.2309875,0.0440063,0.4710083-0.0079956,0.6629944-0.1440125c0.5029907-0.3569946,0.9039917-0.8379822,1.1650085-1.3970032
	c0.2219849-0.4750061,0.3840027-0.9750061,0.4840088-1.4899902c0.1279907-0.6610107,0.1919861-1.3330078,0.1919861-2.006012
	S12.0834045,30.4143066,11.9554138,29.7532959z"/>
<path class="st2" d="M11.1491089,27.7081909c2.2979736-0.1359863,4.5849915-0.4279785,6.8439941-0.8739929"/>
<path class="st2" d="M9.3823242,31.7585754c0-0.2979736,0.2419739-0.539978,0.539978-0.539978
	s0.5400085,0.2420044,0.5400085,0.539978c0,0.2980042-0.2420044,0.5400085-0.5400085,0.5400085
	S9.3823242,32.0565796,9.3823242,31.7585754z"/>
<polygon class="st2" points="179.4265137,267.0430908 179.4265137,260.1591187 0.1255188,236.2700958 0.1255188,230.4620972 
	185.1845093,255.118103 185.1845093,267.0430908 "/>
<polygon class="st2" points="239.0735474,267.0430908 233.3154907,267.0430908 233.3154907,220.641098 239.0735474,220.6611023 "/>
<line class="st2" x1="231.0665894" y1="114.9922791" x2="199.3985901" y2="114.9922791"/>
<line class="st2" x1="6.6929321" y1="99.4693909" x2="57.5649109" y2="99.4693909"/>
<polygon class="st2" points="11.6410217,220.6605835 0.125,220.6605835 0.125,9.4216003 201.4710083,9.4216003 
	201.4710083,11.0415955 202.9110107,11.0415955 202.9110107,14.6395874 201.4710083,14.6395874 201.4710083,18.1485901 
	173.0390015,18.1485901 173.0390015,19.6775818 169.710022,19.6775818 169.710022,18.1485901 63.6820068,18.1485901 
	63.6820068,43.9685974 65.4810181,43.9685974 65.4810181,52.4255981 60.8930054,52.4255981 60.8930054,55.3035889 
	57.5639954,55.3035889 57.5639954,19.857605 6.6929932,19.857605 6.6929932,86.0646057 57.5639954,86.0646057 
	57.5639954,79.7745972 60.8930054,79.7745972 60.8930054,109.9956055 49.3569946,109.9956055 49.3569946,106.6665955 
	57.5639954,106.6665955 57.5639954,89.3935852 6.6929932,89.3935852 6.6929932,106.6665955 14.8099976,106.6665955 
	14.8099976,109.9956055 6.6929932,109.9956055 6.6929932,184.2245941 12.3720093,184.2245941 12.3720093,188.272583 
	11.6410217,188.272583 "/>
<polygon class="st2" points="69.9500122,184.2245941 69.9389954,188.2725983 70.6579895,188.2725983 70.6579895,191.5115967 
	185.1839905,191.5115967 185.1839905,171.3596191 185.9039917,171.3596191 185.9039917,167.3106079 177.8970032,167.3106079 
	177.8970032,178.6466064 108.8039856,178.6466064 108.8039856,184.2245941 "/>
<rect x="198.8597107" y="167.3106995" class="st2" width="4.3179932" height="8.4570007"/>
<polygon class="st2" points="229.0874023,167.3109741 229.0874023,175.7679749 233.3153687,175.7679749 233.3153687,220.6609802 
	239.8833618,220.6609802 239.8833618,9.4219666 228.8203735,9.4219666 228.8203735,11.0409851 227.3813477,11.0409851 
	227.3813477,14.6399841 228.8203735,14.6399841 228.8203735,18.1479797 231.0663452,18.1479797 231.0663452,104.4659729 
	228.1873779,104.4659729 228.1873779,107.7949829 231.0663452,107.7949829 231.0663452,125.0679932 199.3983765,125.0679932 
	199.3983765,107.7949829 202.2773743,107.7949829 202.2773743,104.4659729 199.3983765,104.4659729 199.3983765,101.946991 
	193.2814026,101.946991 193.2814026,131.1859741 231.0663452,131.1859741 231.0663452,167.3109741 "/>
<polygon class="st2" points="87.0732117,43.9684753 87.0732117,52.4254761 193.281189,52.4254761 193.281189,77.4765015 
	199.3992004,77.4765015 199.3992004,43.9684753 173.0392151,43.9684753 173.0392151,42.7095032 169.7102051,42.7095032 
	169.7102051,43.9684753 "/>
<path class="st2" d="M215.232605,72.9732971c0.6759949,0,1.223999,0.5480042,1.223999,1.2240295
	c0,0.6749878-0.5480042,1.2229919-1.223999,1.2229919c-0.6760254,0-1.2230225-0.5480042-1.2230225-1.2229919
	C214.0095825,73.5213013,214.5565796,72.9732971,215.232605,72.9732971v1.2240295V52.6053162l1.1129761,3.0579834h-1.1129761"/>
<path class="st2" d="M141.9109192,31.0586853c0-0.7949829,0.6439819-1.4399719,1.4389954-1.4399719
	c0.7949829,0,1.4400024,0.644989,1.4400024,1.4399719c0,0.7950134-0.6440125,1.4390259-1.4390259,1.4390259
	C142.5559082,32.4977112,141.9109192,31.8536987,141.9109192,31.0586853h1.4389954h-28.7880249l3.5980225-1.3099976v1.3099976"/>
<line class="st2" x1="229.0874023" y1="175.7677917" x2="203.1773987" y2="175.7677917"/>
<line class="st2" x1="229.0874023" y1="167.3109741" x2="203.1773987" y2="167.3109741"/>
<line class="st2" x1="227.3814087" y1="14.6398926" x2="202.9104004" y2="14.6398926"/>
<line class="st2" x1="227.3814087" y1="11.0410767" x2="202.9104004" y2="11.0410767"/>
<g>
	<path class="st10" d="M110.2718506,218.1640625h-0.7573242v1.1005859h-0.3520508v-3.1191406h1.1674805
		c0.7041016,0,1.1674805,0.3740234,1.1674805,0.9941406C111.4974365,217.8164062,110.9359131,218.1640625,110.2718506,218.1640625z
		 M110.3031006,216.4707031h-0.7885742v1.3730469h0.7709961c0.5166016,0,0.8554688-0.2763672,0.8554688-0.6914062
		C111.1409912,216.703125,110.8070068,216.4707031,110.3031006,216.4707031z"/>
	<path class="st10" d="M115.0306396,219.2646484h-0.3789062l-0.3652344-0.8242188h-1.6977539l-0.3696289,0.8242188h-0.3608398
		l1.4213867-3.1416016h0.3295898L115.0306396,219.2646484z M113.4398193,216.5332031l-0.7128906,1.5908203h1.4213867
		L113.4398193,216.5332031z"/>
	<path class="st10" d="M116.6849365,219.2646484h-0.3564453v-2.7939453h-1.0473633v-0.3251953h2.4506836v0.3251953h-1.046875
		V219.2646484z"/>
	<path class="st10" d="M118.9661865,216.1455078v3.1191406h-0.3520508v-3.1191406H118.9661865z"/>
	<path class="st10" d="M121.5570068,219.3183594c-0.9492188,0-1.5859375-0.7441406-1.5859375-1.6083984
		s0.6459961-1.6181641,1.5947266-1.6181641c0.9492188,0,1.5864258,0.7441406,1.5864258,1.609375
		C123.1522217,218.5654297,122.5062256,219.3183594,121.5570068,219.3183594z M121.5570068,216.4179688
		c-0.7128906,0-1.2207031,0.5703125-1.2207031,1.2832031s0.5166016,1.2919922,1.2294922,1.2919922
		s1.2207031-0.5703125,1.2207031-1.2832031S122.2698975,216.4179688,121.5570068,216.4179688z"/>
</g>
<g>
	<path class="st10" d="M21.9456787,55.6445312h-0.7573242v1.1005859h-0.3520508v-3.1191406h1.1674805
		c0.7041016,0,1.1674805,0.3740234,1.1674805,0.9941406C23.1712646,55.296875,22.6097412,55.6445312,21.9456787,55.6445312z
		 M21.9769287,53.9511719h-0.7885742v1.3730469h0.7709961c0.5166016,0,0.8554688-0.2763672,0.8554688-0.6914062
		C22.8148193,54.1835938,22.480835,53.9511719,21.9769287,53.9511719z"/>
	<path class="st10" d="M25.5198975,56.7988281c-0.9492188,0-1.5859375-0.7441406-1.5859375-1.6083984
		s0.6459961-1.6181641,1.5947266-1.6181641c0.9492188,0,1.5864258,0.7441406,1.5864258,1.609375
		C27.1151123,56.0458984,26.4691162,56.7988281,25.5198975,56.7988281z M25.5198975,53.8984375
		c-0.7128906,0-1.2207031,0.5703125-1.2207031,1.2832031s0.5166016,1.2919922,1.2294922,1.2919922
		s1.2207031-0.5703125,1.2207031-1.2832031S26.2327881,53.8984375,25.5198975,53.8984375z"/>
	<path class="st10" d="M29.8607178,53.6171875h0.2900391l0.8554688,2.6064453l0.890625-2.5976562h0.3701172l-1.1137695,3.1416016
		h-0.2988281l-0.8554688-2.53125l-0.8598633,2.53125h-0.2939453l-1.1137695-3.1416016h0.3828125l0.8911133,2.5976562
		L29.8607178,53.6171875z"/>
	<path class="st10" d="M34.2132568,56.7451172H33.130249v-3.1191406h1.0830078c0.9799805,0,1.6572266,0.6728516,1.6572266,1.5556641
		C35.8704834,56.0634766,35.1932373,56.7451172,34.2132568,56.7451172z M34.2132568,53.9511719h-0.730957v2.46875h0.730957
		c0.7885742,0,1.2919922-0.5351562,1.2919922-1.2294922C35.505249,54.4951172,35.0018311,53.9511719,34.2132568,53.9511719z"/>
	<path class="st10" d="M39.1204834,53.9472656h-1.902832v1.0644531h1.7021484v0.3212891h-1.7021484v1.0908203h1.9248047v0.3212891
		h-2.2768555v-3.1191406h2.2548828V53.9472656z"/>
	<path class="st10" d="M42.2039795,56.7451172l-0.9047852-1.2119141h-0.8911133v1.2119141h-0.3520508v-3.1191406h1.3413086
		c0.6860352,0,1.1274414,0.3701172,1.1274414,0.9316406c0,0.5214844-0.3564453,0.8242188-0.8466797,0.9130859l0.9580078,1.2744141
		H42.2039795z M41.3704834,53.9511719h-0.9624023v1.265625h0.9580078c0.4677734,0,0.8022461-0.2402344,0.8022461-0.6464844
		C42.168335,54.1835938,41.8739014,53.9511719,41.3704834,53.9511719z"/>
</g>
<g>
	<path class="st10" d="M74.3983154,31.4902344c0.6948242,0.1513672,1.015625,0.4052734,1.015625,0.8862305
		c0,0.5395508-0.4453125,0.8867188-1.0649414,0.8867188c-0.4941406,0-0.8999023-0.1645508-1.2739258-0.4990234l0.2182617-0.2583008
		c0.3251953,0.2939453,0.637207,0.440918,1.0693359,0.440918c0.4189453,0,0.6948242-0.2182617,0.6948242-0.534668
		c0-0.2939453-0.1557617-0.4589844-0.8110352-0.5966797c-0.7172852-0.15625-1.046875-0.3876953-1.046875-0.9047852
		c0-0.4990234,0.4321289-0.8554688,1.0249023-0.8554688c0.4545898,0,0.7797852,0.1293945,1.0961914,0.3833008l-0.2050781,0.2719727
		c-0.2895508-0.2363281-0.5791016-0.3388672-0.8999023-0.3388672c-0.4057617,0-0.6640625,0.2226562-0.6640625,0.5078125
		C73.5516357,31.1782227,73.7122803,31.3427734,74.3983154,31.4902344z"/>
	<path class="st10" d="M77.5482178,33.21875h-0.3564453v-2.793457h-1.046875v-0.3256836h2.4506836v0.3256836h-1.0473633V33.21875z"
		/>
	<path class="st10" d="M80.7523193,33.2724609c-0.9492188,0-1.5859375-0.7441406-1.5859375-1.6088867
		c0-0.8642578,0.6459961-1.6171875,1.5947266-1.6171875c0.9492188,0,1.5864258,0.7441406,1.5864258,1.6083984
		S81.7015381,33.2724609,80.7523193,33.2724609z M80.7523193,30.371582c-0.7128906,0-1.2207031,0.5703125-1.2207031,1.2832031
		s0.5166016,1.2919922,1.2294922,1.2919922s1.2207031-0.5703125,1.2207031-1.2832031S81.46521,30.371582,80.7523193,30.371582z"/>
	<path class="st10" d="M85.4993896,33.21875l-0.9047852-1.2119141h-0.8911133V33.21875h-0.3520508v-3.1191406h1.3413086
		c0.6860352,0,1.1274414,0.3701172,1.1274414,0.9316406c0,0.5209961-0.3564453,0.8242188-0.8466797,0.9130859l0.9580078,1.2744141
		H85.4993896z M84.6658936,30.425293h-0.9624023v1.2651367h0.9580078c0.4677734,0,0.8022461-0.2407227,0.8022461-0.6459961
		C85.4637451,30.6567383,85.1693115,30.425293,84.6658936,30.425293z"/>
	<path class="st10" d="M89.8133545,33.21875h-0.3789062l-0.3652344-0.8242188H87.37146L87.0018311,33.21875h-0.3608398
		l1.4213867-3.1411133h0.3295898L89.8133545,33.21875z M88.2225342,30.4873047l-0.7128906,1.5908203h1.4213867
		L88.2225342,30.4873047z"/>
	<path class="st10" d="M91.9486084,33.2724609c-0.9804688,0-1.5859375-0.7128906-1.5859375-1.6088867
		c0-0.8598633,0.6279297-1.6171875,1.5634766-1.6171875c0.5258789,0,0.8510742,0.1513672,1.1630859,0.4145508l-0.2270508,0.2670898
		c-0.2407227-0.2094727-0.5083008-0.3564453-0.9492188-0.3564453c-0.6904297,0-1.1850586,0.5834961-1.1850586,1.2832031
		c0,0.7485352,0.4765625,1.3012695,1.2338867,1.3012695c0.3564453,0,0.6865234-0.1381836,0.9003906-0.3120117v-0.7753906h-0.9492188
		v-0.3164062h1.2875977v1.2431641C92.9110107,33.0537109,92.4744873,33.2724609,91.9486084,33.2724609z"/>
	<path class="st10" d="M96.5306396,30.4208984h-1.902832v1.0644531h1.7021484v0.3208008h-1.7021484v1.0917969h1.9248047V33.21875
		h-2.2768555v-3.1191406h2.2548828V30.4208984z"/>
</g>
<g>
	<path class="st10" d="M126.130249,95.7783203h0.2900391l0.8554688,2.6064453l0.890625-2.5976562h0.3701172l-1.1137695,3.1416016
		h-0.2988281l-0.8554688-2.53125l-0.8598633,2.53125h-0.2939453l-1.1137695-3.1416016h0.3828125l0.8911133,2.5976562
		L126.130249,95.7783203z"/>
	<path class="st10" d="M130.7406006,98.9599609c-0.9492188,0-1.5859375-0.7441406-1.5859375-1.6083984
		s0.6459961-1.6171875,1.5947266-1.6171875c0.9492188,0,1.5864258,0.7431641,1.5864258,1.6083984
		C132.3358154,98.2070312,131.6898193,98.9599609,130.7406006,98.9599609z M130.7406006,96.0595703
		c-0.7128906,0-1.2207031,0.5703125-1.2207031,1.2832031s0.5166016,1.2919922,1.2294922,1.2919922
		s1.2207031-0.5703125,1.2207031-1.2832031S131.4534912,96.0595703,130.7406006,96.0595703z"/>
	<path class="st10" d="M135.4876709,98.90625l-0.9047852-1.2119141h-0.8911133V98.90625h-0.3520508v-3.1191406h1.3413086
		c0.6860352,0,1.1274414,0.3701172,1.1274414,0.9316406c0,0.5214844-0.3564453,0.8242188-0.8466797,0.9130859l0.9580078,1.2744141
		H135.4876709z M134.6541748,96.1123047h-0.9624023v1.265625h0.9580078c0.4677734,0,0.8022461-0.2402344,0.8022461-0.6455078
		C135.4520264,96.3447266,135.1575928,96.1123047,134.6541748,96.1123047z"/>
	<path class="st10" d="M139.4764404,98.90625h-0.440918l-1.1987305-1.5107422l-0.6640625,0.6728516V98.90625h-0.3520508v-3.1191406
		h0.3520508v1.8623047l1.7915039-1.8623047h0.4541016l-1.3364258,1.3632812L139.4764404,98.90625z"/>
</g>
<g>
	<path class="st10" d="M210.5428467,180.1113281h-1.902832v1.0644531h1.7021484v0.3212891h-1.7021484v1.0908203h1.9248047v0.3212891
		h-2.2768555v-3.1191406h2.2548828V180.1113281z"/>
	<path class="st10" d="M213.7733154,179.7900391h0.3427734v3.1191406h-0.2807617l-2.0136719-2.5576172v2.5576172h-0.3432617
		v-3.1191406h0.3300781l1.9648438,2.5V179.7900391z"/>
	<path class="st10" d="M216.3861084,182.9091797h-0.3564453v-2.7939453h-1.0473633v-0.3251953h2.4506836v0.3251953h-1.046875
		V182.9091797z"/>
	<path class="st10" d="M220.4451904,182.9091797l-0.9047852-1.2119141h-0.8911133v1.2119141h-0.3520508v-3.1191406h1.3413086
		c0.6860352,0,1.1274414,0.3701172,1.1274414,0.9316406c0,0.5214844-0.3564453,0.8242188-0.8466797,0.9130859l0.9580078,1.2744141
		H220.4451904z M219.6116943,180.1152344h-0.9624023v1.265625h0.9580078c0.4677734,0,0.8022461-0.2402344,0.8022461-0.6464844
		C220.4095459,180.3476562,220.1151123,180.1152344,219.6116943,180.1152344z"/>
	<path class="st10" d="M222.9901123,182.9091797h-0.3564453v-1.234375l-1.296875-1.8847656h0.4277344l1.0517578,1.5595703
		l1.0605469-1.5595703h0.409668l-1.2963867,1.8808594V182.9091797z"/>
</g>
<g>
	<path class="st10" d="M209.2845459,0.3212891h-1.902832v1.0644531h1.7021484V1.706543h-1.7021484v1.0917969h1.9248047v0.3208008
		h-2.2768555V0h2.2548828V0.3212891z"/>
	<path class="st10" d="M212.5150146,0h0.3427734v3.1191406h-0.2802734l-2.0141602-2.5576172v2.5576172h-0.3432617V0h0.3300781
		l1.9648438,2.5V0z"/>
	<path class="st10" d="M215.1273193,3.1191406h-0.3564453v-2.793457h-1.046875V0h2.4506836v0.3256836h-1.0473633V3.1191406z"/>
	<path class="st10" d="M219.1868896,3.1191406l-0.9047852-1.2119141h-0.8911133v1.2119141h-0.3520508V0h1.3413086
		c0.6860352,0,1.1274414,0.3701172,1.1274414,0.9316406c0,0.5209961-0.3564453,0.8242188-0.8466797,0.9130859l0.9580078,1.2744141
		H219.1868896z M218.3533936,0.3256836h-0.9624023v1.2651367h0.9580078c0.4677734,0,0.8022461-0.2407227,0.8022461-0.6459961
		C219.1512451,0.5571289,218.8568115,0.3256836,218.3533936,0.3256836z"/>
	<path class="st10" d="M221.7318115,3.1191406h-0.3564453v-1.234375L220.0784912,0h0.4277344l1.0517578,1.5595703L222.6185303,0
		h0.409668l-1.2963867,1.8803711V3.1191406z"/>
</g>
<g>
	<path class="st10" d="M213.1239014,79.7890625h-1.0830078v-3.1191406h1.0830078
		c0.9799805,0,1.6572266,0.6728516,1.6572266,1.5556641C214.7811279,79.1074219,214.1038818,79.7890625,213.1239014,79.7890625z
		 M213.1239014,76.9951172h-0.730957v2.46875h0.730957c0.7885742,0,1.2919922-0.5351562,1.2919922-1.2294922
		C214.4158936,77.5390625,213.9124756,76.9951172,213.1239014,76.9951172z"/>
	<path class="st10" d="M218.071167,76.6699219h0.3427734v3.1191406h-0.2807617l-2.0136719-2.5576172v2.5576172h-0.3432617
		v-3.1191406h0.3300781l1.9648438,2.5V76.6699219z"/>
</g>
<g>
	<path class="st10" d="M149.5755615,31.1728516c0,0.9086914-0.5214844,1.3808594-1.3012695,1.3808594
		c-0.7705078,0-1.2963867-0.472168-1.2963867-1.3544922v-1.8134766h0.3520508v1.7915039
		c0,0.6728516,0.3564453,1.0512695,0.9536133,1.0512695c0.574707,0,0.9399414-0.3476562,0.9399414-1.0292969v-1.8134766h0.3520508
		V31.1728516z"/>
	<path class="st10" d="M151.80896,31.4042969h-0.7573242v1.1005859h-0.3520508v-3.1191406h1.1674805
		c0.7041016,0,1.1674805,0.3745117,1.1674805,0.9936523C153.0345459,31.0566406,152.4730225,31.4042969,151.80896,31.4042969z
		 M151.84021,29.7114258h-0.7885742v1.3720703h0.7709961c0.5166016,0,0.8554688-0.2763672,0.8554688-0.6904297
		C152.6781006,29.9428711,152.3441162,29.7114258,151.84021,29.7114258z"/>
</g>
</svg>
