<?xml version="1.0" encoding="utf-8"?>
<!-- Generator: Adobe Illustrator 25.4.1, SVG Export Plug-In . SVG Version: 6.00 Build 0)  -->
<svg version="1.1" id="Layer_1" xmlns="http://www.w3.org/2000/svg" xmlns:xlink="http://www.w3.org/1999/xlink" x="0px" y="0px"
	 viewBox="0 0 240.0084229 267.1598511" style="enable-background:new 0 0 240.0084229 267.1598511;" xml:space="preserve">
<style type="text/css">
	.st0{fill:none;stroke:#99A4B3;stroke-width:0.24;stroke-linecap:round;stroke-linejoin:round;stroke-miterlimit:10;}
	.st1{fill-rule:evenodd;clip-rule:evenodd;fill:#22566E;}
	.st2{fill:none;stroke:#22566E;stroke-width:0.25;stroke-linecap:round;stroke-linejoin:round;stroke-miterlimit:10;}
	.st3{fill:none;stroke:#22566E;stroke-width:0.25;stroke-linecap:round;stroke-linejoin:round;}
	
		.st4{fill:none;stroke:#22566E;stroke-width:0.25;stroke-linecap:round;stroke-linejoin:round;stroke-dasharray:4.2129998,2.1059999;}
	.st5{fill:none;stroke:#22566E;stroke-width:0.25;stroke-linecap:round;stroke-linejoin:round;stroke-dasharray:4.2350001,2.118;}
	.st6{fill:none;stroke:#22566E;stroke-width:0.25;stroke-linecap:round;stroke-linejoin:round;stroke-miterlimit:9.999999;}
	.st7{fill:none;stroke:#22566E;stroke-width:0.25;stroke-linecap:round;stroke-linejoin:round;stroke-miterlimit:10.0000019;}
	.st8{fill:none;stroke:#22566E;stroke-width:0.25;stroke-linecap:round;stroke-linejoin:round;stroke-miterlimit:10.000001;}
	.st9{fill:#22566E;}
</style>
<polygon class="st0" points="193.2813416,52.4170837 87.0733337,52.4170837 87.0733337,48.1890869 65.4813232,48.1890869 
	65.4813232,52.4170837 66.1113281,51.3261108 84.8103333,62.1221008 84.1803284,63.2131042 65.4813232,52.4170837 
	60.8933411,52.4170837 60.8933411,55.2961121 82.0853271,67.5310974 81.4553223,68.6221008 60.2633362,56.387085 
	60.8933411,55.2961121 59.2293396,55.2961121 59.2293396,79.7670898 60.8933411,79.7670898 60.8933411,109.9870911 
	48.0973206,109.9870911 48.0973206,127.2611084 49.3573303,127.2611084 49.3573303,106.6581116 57.5643311,106.6581116 
	57.5643311,99.4610901 6.6933289,99.4610901 6.6933289,106.6581116 14.8103333,106.6581116 14.8103333,127.2611084 
	16.070343,127.2611084 16.070343,109.9870911 6.6933289,109.9870911 6.6933289,184.2160797 108.8033447,184.2160797 
	108.8033447,178.638092 123.1983337,178.638092 123.1983337,170.0021057 163.5023193,170.0021057 163.5023193,178.638092 
	177.8973389,178.638092 177.8973389,167.3031006 231.0662842,167.3031006 231.0662842,131.1781006 193.2813416,131.1781006 
	193.2813416,101.9390869 199.3993225,101.9390869 198.7693176,100.8480835 219.9613037,88.6130981 220.5913086,89.7041016 
	199.3993225,101.9390869 199.3993225,104.4580994 202.2773132,104.4580994 213.4973145,97.9811096 214.1273193,99.071106 
	202.9073181,105.5491028 202.2773132,104.4580994 202.2773132,107.7871094 199.3993225,107.7871094 199.3993225,114.9841003 
	231.0662842,114.9841003 231.0662842,107.7871094 228.1882935,107.7871094 228.1882935,104.4580994 227.5582886,105.5491028 
	216.3383179,99.071106 216.9683228,97.9811096 228.1882935,104.4580994 231.0662842,104.4580994 231.0662842,66.9910889 
	202.0973206,66.9910889 202.0973206,68.4310913 201.0183411,68.4310913 201.0183411,66.9910889 199.3993225,66.9910889 
	199.3993225,59.7940979 201.0183411,59.7940979 201.0183411,58.3551025 202.0973206,58.3551025 202.0973206,59.7940979 
	231.0662842,59.7940979 231.0662842,18.1401062 228.8212891,18.1401062 228.8212891,14.6321106 227.3812866,14.6321106 
	227.3812866,39.1021118 226.1223145,39.1021118 226.1223145,14.6321106 201.4713135,14.6321106 201.4713135,18.1401062 
	177.2223206,18.1401062 177.2223206,20.9291077 200.2533264,20.9291077 200.2533264,19.670105 173.8933411,19.670105 
	173.8933411,18.1401062 143.3503418,18.1401062 143.3503418,43.9601135 173.8933411,43.9601135 173.8933411,42.7011108 
	177.2223206,42.7011108 177.2223206,43.9601135 199.3993225,43.9601135 199.3993225,77.4681091 193.2813416,77.4681091 "/>
<path class="st0" d="M73.3829346,175.8526611l-7.6190186-7.6489868l15.2380066-15.2380066l7.6489868,7.6190186
	c4.2160034,4.2160034,4.2160034,11.052002,0,15.2679749C84.434906,180.0686646,77.5989075,180.0686646,73.3829346,175.8526611z"/>
<polygon class="st0" points="8.1319275,182.7769775 8.1319275,136.7149963 25.4049072,136.7149963 25.4049072,153.447998 
	31.8829041,153.447998 31.8829041,152.7290039 32.9619141,152.7290039 32.9619141,166.7630005 31.8829041,166.7630005 
	31.8829041,166.0429993 25.4049072,166.0429993 25.4049072,182.7769775 "/>
<rect x="101.4677429" y="53.8560791" class="st0" width="60.4570007" height="23.0310059"/>
<rect x="119.4717407" y="89.8430786" class="st0" width="24.4490051" height="15.7739868"/>
<rect x="163.363739" y="55.2960815" class="st0" width="14.4200134" height="20.1610107"/>
<path class="st0" d="M101.8355408,125.921875l2.7939758-10.4279785l20.8560181,5.5879822l-2.7940063,10.428009
	c-1.5429993,5.7600098-7.4630127,9.177002-13.2220154,7.6340027
	C103.7105408,137.6008911,100.292511,131.6808777,101.8355408,125.921875z"/>
<path class="st0" d="M161.5565491,125.921875l-2.7940063-10.4279785l-20.8560181,5.5879822l2.7940063,10.428009
	c1.5429993,5.7600098,7.4630127,9.177002,13.2220154,7.6340027S163.0995483,131.6808777,161.5565491,125.921875z"/>
<line class="st0" x1="9.7519226" y1="184.2163696" x2="9.7519226" y2="182.7773743"/>
<line class="st0" x1="9.7519226" y1="106.6584778" x2="9.7519226" y2="99.4614868"/>
<line class="st0" x1="9.7519226" y1="136.7145691" x2="9.7519226" y2="109.9875793"/>
<line class="st0" x1="15.1497498" y1="184.2163696" x2="15.1497498" y2="182.7773743"/>
<line class="st0" x1="15.1497498" y1="109.9872742" x2="15.1497498" y2="99.4613037"/>
<line class="st0" x1="15.1497498" y1="136.7145691" x2="15.1497498" y2="127.2605896"/>
<line class="st0" x1="20.5477295" y1="184.2163696" x2="20.5477295" y2="182.7773743"/>
<line class="st0" x1="20.5477295" y1="136.7145691" x2="20.5477295" y2="99.4615784"/>
<line class="st0" x1="25.9456482" y1="184.2163696" x2="25.9456482" y2="166.043396"/>
<line class="st0" x1="25.9456482" y1="153.4481812" x2="25.9456482" y2="99.4611816"/>
<line class="st0" x1="31.3436279" y1="184.2163696" x2="31.3436279" y2="166.043396"/>
<line class="st0" x1="31.3436279" y1="153.4481812" x2="31.3436279" y2="99.4611816"/>
<line class="st0" x1="36.7414246" y1="184.2163696" x2="36.7414246" y2="99.4613953"/>
<line class="st0" x1="42.1394348" y1="184.2163696" x2="42.1394348" y2="99.4613953"/>
<line class="st0" x1="47.537323" y1="184.2163696" x2="47.537323" y2="99.4613953"/>
<line class="st0" x1="52.9353333" y1="184.2163696" x2="52.9353333" y2="109.9873962"/>
<line class="st0" x1="52.9353333" y1="106.6584778" x2="52.9353333" y2="99.4614868"/>
<line class="st0" x1="58.3331299" y1="184.2163696" x2="58.3331299" y2="109.9873962"/>
<line class="st0" x1="63.7311401" y1="184.2163696" x2="63.7311401" y2="58.3883667"/>
<line class="st0" x1="63.7311401" y1="56.9343567" x2="63.7311401" y2="52.4173584"/>
<line class="st0" x1="69.1290283" y1="184.2163696" x2="69.1290283" y2="171.5823975"/>
<line class="st0" x1="69.1290283" y1="53.068573" x2="69.1290283" y2="48.1885986"/>
<line class="st0" x1="69.1290283" y1="164.8389587" x2="69.1290283" y2="61.5049744"/>
<line class="st0" x1="69.1290283" y1="60.0507812" x2="69.1290283" y2="54.5227966"/>
<line class="st0" x1="74.5270386" y1="184.2163696" x2="74.5270386" y2="176.8463745"/>
<line class="st0" x1="74.5270386" y1="56.1850586" x2="74.5270386" y2="48.1890869"/>
<line class="st0" x1="74.5270386" y1="159.4408569" x2="74.5270386" y2="64.6218567"/>
<line class="st0" x1="74.5270386" y1="63.1673584" x2="74.5270386" y2="57.6393738"/>
<line class="st0" x1="79.9248352" y1="184.2163696" x2="79.9248352" y2="178.9593811"/>
<line class="st0" x1="79.9248352" y1="59.3014832" x2="79.9248352" y2="48.1885071"/>
<line class="st0" x1="79.9248352" y1="154.0430603" x2="79.9248352" y2="67.7380676"/>
<line class="st0" x1="79.9248352" y1="66.283783" x2="79.9248352" y2="60.7557983"/>
<line class="st0" x1="85.3228455" y1="184.2163696" x2="85.3228455" y2="178.1183777"/>
<line class="st0" x1="85.3228455" y1="157.2703552" x2="85.3228455" y2="48.1883545"/>
<line class="st0" x1="90.7206421" y1="184.2163696" x2="90.7206421" y2="172.9493713"/>
<line class="st0" x1="90.7206421" y1="163.4878845" x2="90.7206421" y2="52.4169006"/>
<line class="st0" x1="96.1186218" y1="184.2163696" x2="96.1186218" y2="52.4173889"/>
<line class="st0" x1="101.5165405" y1="184.2163696" x2="101.5165405" y2="129.7423706"/>
<line class="st0" x1="101.5165405" y1="53.8564758" x2="101.5165405" y2="52.4174805"/>
<line class="st0" x1="101.5165405" y1="127.6899719" x2="101.5165405" y2="76.8880005"/>
<line class="st0" x1="106.9145508" y1="184.2163696" x2="106.9145508" y2="138.0933838"/>
<line class="st0" x1="106.9145508" y1="53.8564758" x2="106.9145508" y2="52.4174805"/>
<line class="st0" x1="106.9145508" y1="116.105957" x2="106.9145508" y2="76.88797"/>
<line class="st0" x1="112.3123474" y1="178.6384735" x2="112.3123474" y2="139.5114746"/>
<line class="st0" x1="112.3123474" y1="53.8564758" x2="112.3123474" y2="52.4174805"/>
<line class="st0" x1="112.3123474" y1="117.5524597" x2="112.3123474" y2="76.8874817"/>
<line class="st0" x1="117.7104492" y1="178.6384735" x2="117.7104492" y2="138.0374756"/>
<line class="st0" x1="117.7104492" y1="53.8564758" x2="117.7104492" y2="52.4174805"/>
<line class="st0" x1="117.7104492" y1="118.9987793" x2="117.7104492" y2="76.8877869"/>
<line class="st0" x1="123.1082458" y1="178.6384735" x2="123.1082458" y2="129.9544983"/>
<line class="st0" x1="123.1082458" y1="53.8564758" x2="123.1082458" y2="52.4174805"/>
<line class="st0" x1="123.1082458" y1="120.4450684" x2="123.1082458" y2="105.6160889"/>
<line class="st0" x1="123.1082458" y1="89.8426819" x2="123.1082458" y2="76.8876953"/>
<line class="st0" x1="128.5062256" y1="170.0018616" x2="128.5062256" y2="105.6158752"/>
<line class="st0" x1="128.5062256" y1="53.8564758" x2="128.5062256" y2="52.4174805"/>
<line class="st0" x1="128.5062256" y1="89.8426819" x2="128.5062256" y2="76.8876953"/>
<line class="st0" x1="133.9040222" y1="170.0018616" x2="133.9040222" y2="105.6158752"/>
<line class="st0" x1="133.9040222" y1="53.8564758" x2="133.9040222" y2="52.4174805"/>
<line class="st0" x1="133.9040222" y1="89.8426819" x2="133.9040222" y2="76.8876953"/>
<line class="st0" x1="139.302124" y1="170.0018616" x2="139.302124" y2="126.290863"/>
<line class="st0" x1="139.302124" y1="53.8564758" x2="139.302124" y2="52.4174805"/>
<line class="st0" x1="139.302124" y1="120.7081604" x2="139.302124" y2="105.6161804"/>
<line class="st0" x1="139.302124" y1="89.8426819" x2="139.302124" y2="76.8876953"/>
<line class="st0" x1="144.6999207" y1="170.0018616" x2="144.6999207" y2="137.3888855"/>
<line class="st0" x1="144.6999207" y1="43.9602661" x2="144.6999207" y2="18.1402893"/>
<line class="st0" x1="144.6999207" y1="119.2618713" x2="144.6999207" y2="76.8878784"/>
<line class="st0" x1="144.6999207" y1="53.8564758" x2="144.6999207" y2="52.4174805"/>
<line class="st0" x1="150.0979309" y1="170.0018616" x2="150.0979309" y2="139.4628906"/>
<line class="st0" x1="150.0979309" y1="43.9602661" x2="150.0979309" y2="18.1402893"/>
<line class="st0" x1="150.0979309" y1="117.8155823" x2="150.0979309" y2="76.8876038"/>
<line class="st0" x1="150.0979309" y1="53.8564758" x2="150.0979309" y2="52.4174805"/>
<line class="st0" x1="155.4957275" y1="170.0018616" x2="155.4957275" y2="138.5888672"/>
<line class="st0" x1="155.4957275" y1="43.9602661" x2="155.4957275" y2="18.1402893"/>
<line class="st0" x1="155.4957275" y1="116.3690796" x2="155.4957275" y2="76.887085"/>
<line class="st0" x1="155.4957275" y1="53.8564758" x2="155.4957275" y2="52.4174805"/>
<line class="st0" x1="160.8937378" y1="170.0018616" x2="160.8937378" y2="133.3198853"/>
<line class="st0" x1="160.8937378" y1="43.9602661" x2="160.8937378" y2="18.1402893"/>
<line class="st0" x1="160.8937378" y1="123.4480591" x2="160.8937378" y2="76.887085"/>
<line class="st0" x1="160.8937378" y1="53.8564758" x2="160.8937378" y2="52.4174805"/>
<line class="st0" x1="166.291626" y1="178.6384735" x2="166.291626" y2="75.457489"/>
<line class="st0" x1="166.291626" y1="43.9602661" x2="166.291626" y2="18.1402893"/>
<line class="st0" x1="166.291626" y1="55.2958679" x2="166.291626" y2="52.4168701"/>
<line class="st0" x1="171.6896362" y1="178.6384735" x2="171.6896362" y2="75.457489"/>
<line class="st0" x1="171.6896362" y1="43.9602661" x2="171.6896362" y2="18.1402893"/>
<line class="st0" x1="171.6896362" y1="55.2958679" x2="171.6896362" y2="52.4168701"/>
<line class="st0" x1="177.0874329" y1="178.6384735" x2="177.0874329" y2="75.457489"/>
<line class="st0" x1="177.0874329" y1="42.7007751" x2="177.0874329" y2="19.6697998"/>
<line class="st0" x1="177.0874329" y1="55.2958679" x2="177.0874329" y2="52.4168701"/>
<line class="st0" x1="182.4854431" y1="167.3028564" x2="182.4854431" y2="52.4168701"/>
<line class="st0" x1="182.4854431" y1="19.6695557" x2="182.4854431" y2="18.140564"/>
<line class="st0" x1="182.4854431" y1="43.9602661" x2="182.4854431" y2="20.9292908"/>
<line class="st0" x1="187.8833313" y1="167.3028564" x2="187.8833313" y2="52.4168701"/>
<line class="st0" x1="187.8833313" y1="19.6695557" x2="187.8833313" y2="18.140564"/>
<line class="st0" x1="187.8833313" y1="43.9602661" x2="187.8833313" y2="20.9292908"/>
<line class="st0" x1="193.2813416" y1="167.3028564" x2="193.2813416" y2="131.1778564"/>
<line class="st0" x1="193.2813416" y1="19.6695557" x2="193.2813416" y2="18.140564"/>
<line class="st0" x1="193.2813416" y1="101.9390564" x2="193.2813416" y2="77.4680786"/>
<line class="st0" x1="193.2813416" y1="43.9602661" x2="193.2813416" y2="20.9292908"/>
<line class="st0" x1="198.6791382" y1="167.3028564" x2="198.6791382" y2="131.1778564"/>
<line class="st0" x1="198.6791382" y1="19.6695557" x2="198.6791382" y2="18.140564"/>
<line class="st0" x1="198.6791382" y1="101.9390564" x2="198.6791382" y2="77.4680786"/>
<line class="st0" x1="198.6791382" y1="43.9602661" x2="198.6791382" y2="20.9292908"/>
<line class="st0" x1="204.0771484" y1="167.3028564" x2="204.0771484" y2="131.1778564"/>
<line class="st0" x1="204.0771484" y1="59.794281" x2="204.0771484" y2="14.6312866"/>
<line class="st0" x1="204.0771484" y1="114.9840698" x2="204.0771484" y2="104.8740845"/>
<line class="st0" x1="204.0771484" y1="97.783783" x2="204.0771484" y2="66.9917908"/>
<line class="st0" x1="204.0771484" y1="103.419281" x2="204.0771484" y2="99.2382812"/>
<line class="st0" x1="209.4750366" y1="167.3028564" x2="209.4750366" y2="131.1778564"/>
<line class="st0" x1="209.4750366" y1="59.794281" x2="209.4750366" y2="14.6312866"/>
<line class="st0" x1="209.4750366" y1="114.9840698" x2="209.4750366" y2="101.7570801"/>
<line class="st0" x1="209.4750366" y1="94.6673584" x2="209.4750366" y2="66.9913635"/>
<line class="st0" x1="209.4750366" y1="100.3027649" x2="209.4750366" y2="96.1217651"/>
<line class="st0" x1="214.8730469" y1="167.3028564" x2="214.8730469" y2="131.1778564"/>
<line class="st0" x1="214.8730469" y1="59.794281" x2="214.8730469" y2="14.6312866"/>
<line class="st0" x1="214.8730469" y1="114.9840698" x2="214.8730469" y2="93.0050964"/>
<line class="st0" x1="214.8730469" y1="91.5507812" x2="214.8730469" y2="66.9917908"/>
<line class="st0" x1="220.270813" y1="167.3028564" x2="220.270813" y2="131.1778564"/>
<line class="st0" x1="220.270813" y1="59.794281" x2="220.270813" y2="14.6312866"/>
<line class="st0" x1="220.270813" y1="114.9840698" x2="220.270813" y2="101.3420715"/>
<line class="st0" x1="220.270813" y1="89.1492615" x2="220.270813" y2="66.991272"/>
<line class="st0" x1="220.270813" y1="99.8872681" x2="220.270813" y2="89.8882751"/>
<line class="st0" x1="225.6688232" y1="167.3028564" x2="225.6688232" y2="131.1778564"/>
<line class="st0" x1="225.6688232" y1="59.794281" x2="225.6688232" y2="14.6312866"/>
<line class="st0" x1="225.6688232" y1="114.9840698" x2="225.6688232" y2="104.4580994"/>
<line class="st0" x1="225.6688232" y1="103.0038757" x2="225.6688232" y2="66.9918823"/>
<polygon class="st0" points="233.315918,265.5053711 233.315918,175.7593689 229.0878906,175.7593689 229.0878906,201.6693726 
	227.8278809,201.6693726 227.8278809,175.7593689 198.8589172,175.7593689 198.8589172,174.5903931 185.1838989,174.5903931 
	185.1838989,191.5033722 11.6408997,191.5033722 11.6408997,231.987381 185.1838989,255.109375 185.1838989,265.5053711 
	186.6239014,265.5053711 186.6239014,242.4743805 187.8829041,242.4743805 187.8829041,265.5053711 "/>
<path class="st0" d="M7.2789307,27.4093628c0-0.1409912,0.0999756-0.26297,0.2389832-0.2889709l2.125-0.4070129
	c0.2319946-0.0440063,0.4710083,0.0079956,0.6640015,0.1440125c0.3259888,0.2319946,0.6109924,0.5159912,0.8420105,0.8429871
	c2.2989807-0.1369934,4.5849915-0.4289856,6.8439941-0.8739929c0.723999-0.1640015,1.4639893-0.2470093,2.2070007-0.2470093
	c0.9629822,0,1.9219971,0.1390076,2.8450012,0.4140015c0.803009,0.2390137,1.5610046,0.6109924,2.2409973,1.1000061
	c0.6539917,0.4710083,1.2000122,1.0749817,1.6029968,1.7729797c0.3299866,0.5730286,0.5029907,1.2230225,0.5029907,1.8840027
	c0,0.6610107-0.1730042,1.3110046-0.5029907,1.8840027c-0.4029846,0.697998-0.9490051,1.302002-1.6029968,1.7730103
	c-0.6799927,0.4890137-1.4379883,0.8609924-2.2409973,1.1000061c-0.9230042,0.2749939-1.882019,0.4140015-2.8450012,0.4140015
	c-0.7430115,0-1.4830017-0.0820007-2.2070007-0.2470093c-2.2590027-0.4450073-4.5450134-0.7369995-6.8439941-0.8739929
	c-0.2310181,0.3269958-0.5160217,0.6109924-0.8420105,0.8429871c-0.1929932,0.1360168-0.4320068,0.1880188-0.6640015,0.1440125
	l-2.125-0.4070129c-0.1390076-0.0270081-0.2389832-0.1479797-0.2389832-0.2890015V27.4093628z"/>
<line class="st0" x1="229.0874634" y1="175.7595825" x2="203.1774597" y2="175.7595825"/>
<line class="st0" x1="229.0874634" y1="167.3028564" x2="203.1774597" y2="167.3028564"/>
<line class="st0" x1="227.3814087" y1="14.6316833" x2="202.9104004" y2="14.6316833"/>
<line class="st0" x1="227.3814087" y1="11.032959" x2="202.9104004" y2="11.032959"/>
<line class="st0" x1="186.6238403" y1="265.5053711" x2="209.6548157" y2="265.5053711"/>
<line class="st0" x1="186.6238403" y1="266.9447632" x2="209.6548157" y2="266.9447632"/>
<path class="st0" d="M57.5645447,19.8495789H6.6925354V65.824585h17.1839905c1.1920166,0,2.1589966,0.9670105,2.1589966,2.1589966
	v10.0760193c0,1.1929932-0.96698,2.1600037-2.1589966,2.1600037H6.6925354v5.8369751h50.8720093v-6.289978h1.6639709V55.2955933
	h-1.6639709V19.8495789z"/>
<line class="st0" x1="7.408844" y1="86.056366" x2="7.408844" y2="80.2193909"/>
<line class="st0" x1="7.408844" y1="27.1652832" x2="7.408844" y2="19.8493042"/>
<line class="st0" x1="7.408844" y1="65.8247681" x2="7.408844" y2="36.3357849"/>
<line class="st0" x1="16.0455322" y1="86.056366" x2="16.0455322" y2="80.2193909"/>
<line class="st0" x1="16.0455322" y1="27.1711731" x2="16.0455322" y2="19.8491821"/>
<line class="st0" x1="16.0455322" y1="65.8247681" x2="16.0455322" y2="36.3297729"/>
<line class="st0" x1="24.682251" y1="86.056366" x2="24.682251" y2="80.063385"/>
<line class="st0" x1="24.682251" y1="27.702179" x2="24.682251" y2="19.8491821"/>
<line class="st0" x1="24.682251" y1="65.9808655" x2="24.682251" y2="35.7988892"/>
<line class="st0" x1="33.3189392" y1="86.056366" x2="33.3189392" y2="19.8493652"/>
<line class="st0" x1="41.9555359" y1="86.056366" x2="41.9555359" y2="19.8493652"/>
<line class="st0" x1="50.5922241" y1="86.056366" x2="50.5922241" y2="19.8493652"/>
<line class="st0" x1="59.2289429" y1="68.7830811" x2="26.0359192" y2="68.7830811"/>
<line class="st0" x1="57.5645447" y1="51.5096741" x2="6.6925354" y2="51.5096741"/>
<line class="st0" x1="57.5645447" y1="34.2363586" x2="26.4885254" y2="34.2363586"/>
<line class="st0" x1="7.2789307" y1="34.2363586" x2="6.6929016" y2="34.2363586"/>
<line class="st0" x1="229.0874634" y1="191.5035706" x2="233.3154297" y2="191.5035706"/>
<line class="st0" x1="185.1844482" y1="191.5035706" x2="227.8284302" y2="191.5035706"/>
<line class="st0" x1="11.6410217" y1="208.7769775" x2="233.315979" y2="208.7769775"/>
<line class="st0" x1="11.6410217" y1="226.0502777" x2="233.315979" y2="226.0502777"/>
<line class="st0" x1="96.7240295" y1="243.3236694" x2="186.6240234" y2="243.3236694"/>
<line class="st0" x1="187.8833313" y1="243.3236694" x2="233.3162842" y2="243.3236694"/>
<line class="st0" x1="185.1844482" y1="260.5968628" x2="186.6234436" y2="260.5968628"/>
<line class="st0" x1="187.8833313" y1="260.5968628" x2="233.3162842" y2="260.5968628"/>
<line class="st0" x1="12.4508362" y1="232.0955658" x2="12.4508362" y2="191.5035706"/>
<line class="st0" x1="29.7241211" y1="234.3967743" x2="29.7241211" y2="191.5037842"/>
<line class="st0" x1="46.9975281" y1="236.6982727" x2="46.9975281" y2="191.5032806"/>
<line class="st0" x1="64.2709351" y1="238.9996643" x2="64.2709351" y2="191.5036774"/>
<line class="st0" x1="81.5442505" y1="241.3010712" x2="81.5442505" y2="191.5030823"/>
<line class="st0" x1="98.817627" y1="243.6025696" x2="98.817627" y2="191.5035706"/>
<line class="st0" x1="116.0908508" y1="245.9039764" x2="116.0908508" y2="191.5039825"/>
<line class="st0" x1="133.3643494" y1="248.205368" x2="133.3643494" y2="191.5033722"/>
<line class="st0" x1="150.6377258" y1="250.5068665" x2="150.6377258" y2="191.5038757"/>
<line class="st0" x1="167.9109497" y1="252.8082733" x2="167.9109497" y2="191.5032806"/>
<line class="st0" x1="185.1844482" y1="255.1096649" x2="185.1844482" y2="191.5036774"/>
<line class="st0" x1="202.4576416" y1="265.5053711" x2="202.4576416" y2="175.7593689"/>
<line class="st0" x1="219.7310181" y1="265.5053711" x2="219.7310181" y2="175.7593689"/>
<polygon class="st1" points="11.6410217,220.6523743 0.125,220.6523743 0.125,9.4133911 201.4710083,9.4133911 
	201.4710083,11.0333862 202.9110107,11.0333862 202.9110107,14.6313782 201.4710083,14.6313782 201.4710083,18.1403809 
	177.2220154,18.1403809 177.2220154,19.6693726 173.8940125,19.6693726 173.8940125,18.1403809 63.6820068,18.1403809 
	63.6820068,43.9603882 65.4810181,43.9603882 65.4810181,52.4173889 60.8930054,52.4173889 60.8930054,55.2953796 
	57.5639954,55.2953796 57.5639954,19.8493958 6.6929932,19.8493958 6.6929932,86.0563965 57.5639954,86.0563965 
	57.5639954,79.7663879 60.8930054,79.7663879 60.8930054,109.9873962 49.3569946,109.9873962 49.3569946,106.6583862 
	57.5639954,106.6583862 57.5639954,89.385376 6.6929932,89.385376 6.6929932,106.6583862 14.8099976,106.6583862 
	14.8099976,109.9873962 6.6929932,109.9873962 6.6929932,184.2163849 12.3720093,184.2163849 12.3720093,188.2643738 
	11.6410217,188.2643738 "/>
<polygon class="st1" points="69.9500427,184.2163696 69.9390259,188.2643738 70.65802,188.2643738 70.65802,191.5033722 
	185.184021,191.5033722 185.184021,171.3513794 185.9040222,171.3513794 185.9040222,167.3023987 177.8970337,167.3023987 
	177.8970337,178.638382 108.8040161,178.638382 108.8040161,184.2163696 "/>
<rect x="198.8597412" y="167.3030701" class="st1" width="4.3179932" height="8.4570007"/>
<polygon class="st1" points="229.0874634,167.3028564 229.0874634,175.7598572 233.3154297,175.7598572 233.3154297,220.6528625 
	239.8834229,220.6528625 239.8834229,9.4138489 228.8204346,9.4138489 228.8204346,11.0328674 227.3814087,11.0328674 
	227.3814087,14.6318665 228.8204346,14.6318665 228.8204346,18.1398621 231.0664062,18.1398621 231.0664062,104.4578552 
	228.187439,104.4578552 228.187439,107.7868652 231.0664062,107.7868652 231.0664062,125.0598755 199.3984375,125.0598755 
	199.3984375,107.7868652 202.2774353,107.7868652 202.2774353,104.4578552 199.3984375,104.4578552 199.3984375,101.9388733 
	193.2814636,101.9388733 193.2814636,131.1778564 231.0664062,131.1778564 231.0664062,167.3028564 "/>
<polygon class="st1" points="87.0732422,43.9602661 87.0732422,52.4172668 193.2812195,52.4172668 193.2812195,77.4682922 
	199.399231,77.4682922 199.399231,43.9602661 177.222229,43.9602661 177.222229,42.7012939 173.8942261,42.7012939 
	173.8942261,43.9602661 "/>
<rect x="201.0177307" y="58.355072" class="st2" width="1.0799866" height="10.0759888"/>
<polyline class="st2" points="110.2449341,41.8010559 143.3499146,41.8010559 143.3499146,42.881073 110.533905,42.881073 "/>
<line class="st3" x1="199.3988342" y1="117.8628845" x2="201.5408325" y2="117.8628845"/>
<line class="st4" x1="203.6473389" y1="117.8628845" x2="227.8713379" y2="117.8628845"/>
<line class="st3" x1="228.9246216" y1="117.8628845" x2="231.0665894" y2="117.8628845"/>
<line class="st3" x1="57.5645447" y1="96.5823669" x2="55.4225159" y2="96.5823669"/>
<line class="st5" x1="53.3049316" y1="96.5823669" x2="9.8939209" y2="96.5823669"/>
<line class="st3" x1="8.835022" y1="96.5823669" x2="6.6929932" y2="96.5823669"/>
<line class="st2" x1="185.1844482" y1="171.3512573" x2="198.859436" y2="171.3512573"/>
<line class="st2" x1="185.1844482" y1="174.5899658" x2="198.859436" y2="174.5899658"/>
<line class="st2" x1="11.6410217" y1="188.2648773" x2="70.65802" y2="188.2648773"/>
<line class="st2" x1="11.6410217" y1="191.5035706" x2="70.65802" y2="191.5035706"/>
<rect x="227.8287354" y="175.7600708" class="st2" width="1.2589722" height="25.9100037"/>
<path class="st2" d="M203.1775208,175.7595825c0,14.3100128,11.5999756,25.9100037,25.9099426,25.9100037"/>
<rect x="226.1217041" y="14.631073" class="st2" width="1.2600098" height="24.4710083"/>
<path class="st2" d="M202.9109497,14.6316833c0,13.5150146,10.9559937,24.4710083,24.4709473,24.4710083"/>
<rect x="186.6237488" y="242.4740753" class="st2" width="1.2590027" height="23.0309906"/>
<path class="st2" d="M209.6549377,265.5053711c0-12.719986-10.3110046-23.0309906-23.0310059-23.0309906"/>
<path class="st2" d="M215.2328491,104.4581604c0-2.2739868-0.5990295-4.5079956-1.7360229-6.4779968"/>
<path class="st2" d="M216.9685059,97.9806824c-1.1370239,1.9690247-1.7360229,4.2030029-1.7360229,6.4780273"/>
<rect x="201.7247467" y="101.1347656" transform="matrix(0.8660018 -0.5000409 0.5000409 0.8660018 -22.9877777 117.745903)" class="st6" width="12.9549408" height="1.2598343"/>
<rect x="221.6334076" y="95.2871704" transform="matrix(0.5000389 -0.8660029 0.8660029 0.5000389 22.9945164 243.3590698)" class="st2" width="1.2598419" height="12.9549866"/>
<rect x="70.5443268" y="49.7237167" transform="matrix(0.4999944 -0.8660287 0.8660287 0.4999944 -18.070631 92.6187286)" class="st7" width="1.259842" height="24.4703083"/>
<path class="st2" d="M60.8932495,79.766571c8.742981,0,16.8209839-4.6639709,21.1919861-12.2349854"/>
<rect x="177.2227478" y="19.6700745" class="st2" width="23.0310059" height="1.2600098"/>
<path class="st2" d="M177.2223511,42.7007751c12.7199707,0,23.0309753-10.3109741,23.0309753-23.0309753"/>
<rect x="185.1847534" y="265.5050659" class="st2" width="1.4389954" height="1.4389954"/>
<rect x="209.6547241" y="265.5050659" class="st2" width="23.6610107" height="1.4389954"/>
<line class="st2" x1="199.3988342" y1="59.794281" x2="201.0178223" y2="59.794281"/>
<line class="st2" x1="202.0977478" y1="59.794281" x2="231.0667114" y2="59.794281"/>
<line class="st2" x1="199.3988342" y1="66.9913635" x2="201.0178223" y2="66.9913635"/>
<line class="st2" x1="202.0977478" y1="66.9913635" x2="231.0667114" y2="66.9913635"/>
<line class="st2" x1="143.3503418" y1="43.9602661" x2="143.3503418" y2="18.1402893"/>
<line class="st2" x1="128.9559326" y1="43.9602661" x2="128.9559326" y2="42.8802795"/>
<line class="st2" x1="128.9559326" y1="41.8010559" x2="128.9559326" y2="18.1400757"/>
<line class="st2" x1="121.7586365" y1="43.9602661" x2="121.7586365" y2="42.8802795"/>
<line class="st2" x1="121.7586365" y1="41.8010559" x2="121.7586365" y2="18.1400757"/>
<line class="st2" x1="114.5615234" y1="43.9602661" x2="114.5615234" y2="42.8802795"/>
<line class="st2" x1="114.5615234" y1="41.8010559" x2="114.5615234" y2="18.1400757"/>
<line class="st2" x1="107.3642273" y1="32.3806763" x2="107.3642273" y2="31.0506897"/>
<line class="st2" x1="107.3642273" y1="29.7198792" x2="107.3642273" y2="18.1398926"/>
<polyline class="st2" points="103.9050293,18.1401672 106.9790039,29.6111755 109.5230103,30.3301697 105.2050171,31.7701721 
	107.75,32.4901733 110.8240051,43.9601746 "/>
<line class="st2" x1="136.1532288" y1="43.9602661" x2="136.1532288" y2="42.8802795"/>
<line class="st2" x1="136.1532288" y1="41.8010559" x2="136.1532288" y2="18.1400757"/>
<rect x="74.5161209" y="46.4736977" transform="matrix(0.5000057 -0.8660221 0.8660221 0.5000057 -12.0241518 93.7125931)" class="st8" width="1.259819" height="21.5918045"/>
<path class="st2" d="M84.1804504,63.2128601c1.894989-3.2819824,2.8929749-7.0059814,2.8929749-10.79599"/>
<rect x="14.81073" y="109.9870605" class="st2" width="1.2590027" height="17.2730103"/>
<rect x="48.0977478" y="109.9870605" class="st2" width="1.2600098" height="17.2730103"/>
<path class="st2" d="M14.8104248,127.2605591c9.539978,0,17.2729797-7.7339783,17.2729797-17.2729797"/>
<path class="st2" d="M32.0838318,109.9872742c0,9.5400085,7.7339783,17.2730103,17.2729797,17.2730103"/>
<rect x="197.4446716" y="94.6461716" transform="matrix(0.8660292 -0.4999934 0.4999934 0.8660292 -19.5464401 117.6027451)" class="st2" width="24.4703064" height="1.2598267"/>
<path class="st2" d="M220.5910645,89.7037659c-4.3710327-7.5709839-12.4500122-12.2349854-21.1920166-12.2349854"/>
<rect x="185.1847229" y="171.3510742" class="st2" width="1.4389954" height="3.2390137"/>
<rect x="197.4197388" y="171.3510742" class="st2" width="1.4389954" height="3.2390137"/>
<line class="st2" x1="186.6238403" y1="173.8702698" x2="197.4198303" y2="173.8702698"/>
<line class="st2" x1="186.6238403" y1="173.1505737" x2="197.4198303" y2="173.1505737"/>
<line class="st2" x1="185.9041443" y1="167.3028564" x2="198.8591309" y2="167.3028564"/>
<rect x="11.6407471" y="188.2650757" class="st2" width="1.4389954" height="3.2389984"/>
<rect x="69.21875" y="188.2650757" class="st2" width="1.4389954" height="3.2389984"/>
<rect x="28.1947327" y="188.2650757" class="st2" width="1.4389954" height="3.2389984"/>
<line class="st2" x1="13.0805359" y1="190.7838745" x2="28.194519" y2="190.7838745"/>
<line class="st2" x1="13.0805359" y1="190.0641632" x2="28.194519" y2="190.0641632"/>
<line class="st2" x1="29.6342468" y1="190.7838745" x2="69.2192383" y2="190.7838745"/>
<line class="st2" x1="29.6342468" y1="190.0641632" x2="69.2192383" y2="190.0641632"/>
<line class="st2" x1="12.3607483" y1="184.2163696" x2="69.9497375" y2="184.2163696"/>
<rect x="123.1987305" y="170.0020752" class="st2" width="40.3040161" height="8.6369934"/>
<rect x="8.1317444" y="136.7140808" class="st2" width="17.2730103" height="46.0619965"/>
<rect x="12.7267456" y="151.1090698" class="st2" width="1.0799866" height="17.2730103"/>
<rect x="19.0437317" y="152.4440613" class="st2" width="4.3179932" height="14.3940125"/>
<polyline class="st2" points="12.7270508,157.0467834 11.1080322,157.0467834 11.1080322,162.4447937 12.7270508,162.4447937 "/>
<line class="st2" x1="31.8827209" y1="153.4481812" x2="25.4057007" y2="153.4481812"/>
<polyline class="st2" points="13.8065491,162.4447632 15.4265442,162.4447632 15.4265442,157.0467834 13.8065491,157.0467834 "/>
<line class="st2" x1="31.8827209" y1="166.0433655" x2="25.4057007" y2="166.0433655"/>
<rect x="31.8827209" y="152.7280579" class="st2" width="1.0799866" height="14.0350037"/>
<path class="st2" d="M20.3170471,148.8745728c-0.3160095,0.0920105-0.4980164,0.4230042-0.4060059,0.7390137
	c0.0910034,0.3110046,0.4129944,0.4920044,0.7259827,0.4089966c0.5350037-0.1430054,1.0830078-0.2279968,1.6350098-0.2550049
	c0.2590027-0.0130005,0.4589844-0.2330017,0.4459839-0.4909973c-0.0089722-0.1929932-0.1349792-0.3599854-0.3179932-0.4219971
	C21.7240295,148.6255798,20.9890442,148.6325989,20.3170471,148.8745728z"/>
<rect x="119.4717407" y="89.8430786" class="st2" width="24.4490051" height="15.7739868"/>
<ellipse class="st2" cx="170.5739441" cy="62.4931641" rx="5.7579956" ry="5.7580032"/>
<path class="st2" d="M169.0950317,62.4931641c0-0.8169861,0.6619873-1.4789734,1.4789734-1.4789734
	c0.8160095,0,1.4779968,0.6619873,1.4779968,1.4789734c0,0.8170166-0.6619873,1.4790039-1.4779968,1.4790039
	C169.757019,63.972168,169.0950317,63.3101807,169.0950317,62.4931641z"/>
<line class="st2" x1="176.3314209" y1="62.4931641" x2="172.0523987" y2="62.4931641"/>
<line class="st2" x1="169.0950317" y1="62.4931641" x2="164.8160095" y2="62.4931641"/>
<line class="st2" x1="170.5737305" y1="68.2510681" x2="170.5737305" y2="63.9720764"/>
<line class="st2" x1="170.5737305" y1="61.0144653" x2="170.5737305" y2="56.7354736"/>
<rect x="163.363739" y="55.2960815" class="st2" width="14.4200134" height="20.1610107"/>
<line class="st2" x1="161.9244385" y1="53.8564758" x2="101.4674377" y2="53.8564758"/>
<line class="st2" x1="101.4676208" y1="76.8875732" x2="101.4676208" y2="53.8565979"/>
<line class="st2" x1="161.9244385" y1="76.8875732" x2="161.9244385" y2="53.8565979"/>
<line class="st2" x1="159.0454407" y1="76.8875732" x2="159.0454407" y2="57.4555969"/>
<line class="st2" x1="161.9244385" y1="56.7354736" x2="101.4674377" y2="56.7354736"/>
<line class="st2" x1="161.9244385" y1="76.8875732" x2="101.4674377" y2="76.8875732"/>
<line class="st2" x1="140.8125305" y1="76.8875732" x2="140.8125305" y2="58.1745911"/>
<line class="st2" x1="122.5795288" y1="76.8875732" x2="122.5795288" y2="58.1745911"/>
<line class="st2" x1="159.0454407" y1="58.1748657" x2="104.3464355" y2="58.1748657"/>
<line class="st2" x1="101.4676208" y1="57.4551697" x2="104.3466187" y2="57.4551697"/>
<line class="st2" x1="161.9244385" y1="57.4551697" x2="159.0454102" y2="57.4551697"/>
<line class="st2" x1="104.3465271" y1="76.8875732" x2="104.3465271" y2="57.4555969"/>
<path class="st2" d="M140.700531,131.5102844c1.5429993,5.7590027,7.4629822,9.177002,13.2219849,7.6340027
	c5.7590027-1.5439758,9.177002-7.4629822,7.6340027-13.2219849"/>
<path class="st2" d="M143.4814453,130.7649841c1.1319885,4.2240295,5.4729919,6.730011,9.6959839,5.5980225
	c4.223999-1.131012,6.730011-5.4730225,5.5979919-9.6960144"/>
<line class="st2" x1="143.4814453" y1="130.7649841" x2="140.687439" y2="120.3370056"/>
<line class="st2" x1="155.9816284" y1="116.2390747" x2="158.7756042" y2="126.6670837"/>
<line class="st2" x1="140.700531" y1="131.5102844" x2="137.9065247" y2="121.0823059"/>
<line class="st2" x1="137.9063416" y1="121.0821838" x2="158.7623291" y2="115.4942017"/>
<line class="st2" x1="158.7623291" y1="115.4937744" x2="161.5563049" y2="125.9217834"/>
<path class="st2" d="M143.1088257,129.3746643c1.1319885,4.2240295,5.4729919,6.730011,9.6959839,5.5980225
	c4.223999-1.132019,6.730011-5.4730225,5.5979919-9.6960144"/>
<rect x="128.2367249" y="175.0400696" class="st2" width="30.2279968" height="0.7200012"/>
<polyline class="st2" points="139.032135,175.039856 139.032135,172.1608582 147.6691284,172.1608582 147.6691284,175.039856 "/>
<polyline class="st2" points="147.6688232,175.7595825 147.6688232,177.1986084 139.0317993,177.1986084 139.0317993,175.7595825 
	"/>
<path class="st2" d="M73.3829346,175.8526611c4.2159729,4.2160034,11.0519714,4.2160034,15.2679749,0
	c4.2160034-4.2159729,4.2160034-11.0519714,0-15.2679749"/>
<path class="st2" d="M75.4185486,173.8169556c3.09198,3.0920105,8.1039734,3.0920105,11.1959839,0
	c3.0920105-3.09198,3.0920105-8.1039734,0-11.1959839"/>
<line class="st2" x1="86.6147461" y1="162.6206665" x2="78.9807434" y2="154.9866943"/>
<line class="st2" x1="67.7846375" y1="166.183075" x2="75.4186096" y2="173.8170776"/>
<line class="st2" x1="88.6504211" y1="160.5849609" x2="81.0164185" y2="152.9509888"/>
<line class="st2" x1="81.0166321" y1="152.9512634" x2="65.7486267" y2="168.2192688"/>
<line class="st2" x1="65.7490234" y1="168.2189636" x2="73.3829956" y2="175.8529663"/>
<path class="st2" d="M74.4006348,172.7990723c3.09198,3.0920105,8.1039734,3.0920105,11.1959839,0
	c3.0920105-3.09198,3.0920105-8.1039734,0-11.1959839"/>
<path class="st2" d="M101.8355408,125.921875c-1.5430298,5.7590027,1.875,11.6790161,7.6339722,13.2220154
	c5.7590027,1.5429993,11.6790161-1.8739929,13.2220154-7.6340027"/>
<path class="st2" d="M104.616333,126.6669617c-1.132019,4.2230225,1.375,8.5650024,5.5979919,9.6960144
	c4.223999,1.1319885,8.5650024-1.3739929,9.6959839-5.5979919"/>
<line class="st2" x1="119.9106445" y1="130.7649841" x2="122.7046204" y2="120.3370056"/>
<line class="st2" x1="107.4104309" y1="116.2390747" x2="104.6164246" y2="126.6670837"/>
<line class="st2" x1="122.6916504" y1="131.5102844" x2="125.4856262" y2="121.0823059"/>
<line class="st2" x1="125.4856262" y1="121.0821838" x2="104.6296082" y2="115.4942017"/>
<line class="st2" x1="104.6297302" y1="115.4937744" x2="101.8357239" y2="125.9217834"/>
<path class="st2" d="M104.9889221,125.2765808c-1.132019,4.2230225,1.375,8.5640259,5.5979919,9.6960144
	s8.5650024-1.3739929,9.6959839-5.5979919"/>
<line class="st2" x1="15.6413269" y1="73.4850769" x2="12.2263184" y2="73.4850769"/>
<path class="st2" d="M15.6413269,73.4850769c0.1409912,0,0.2549744-0.1139832,0.2549744-0.2549744"/>
<path class="st2" d="M15.8963318,72.8140564c0-0.1409912-0.1140137-0.2549744-0.2550049-0.2549744"/>
<line class="st2" x1="15.8963318" y1="73.230072" x2="15.8963318" y2="72.8140869"/>
<path class="st2" d="M12.1549377,72.645874c0.071991,0.0820007,0.1759949,0.1280212,0.2849731,0.1280212"/>
<path class="st2" d="M12.4402466,73.2699585c-0.1090088,0-0.2130127,0.0470276-0.2850037,0.1280212"/>
<line class="st2" x1="14.0456238" y1="73.2699585" x2="12.4406128" y2="73.2699585"/>
<line class="st2" x1="12.4404297" y1="72.7742615" x2="14.0454102" y2="72.7742615"/>
<path class="st2" d="M14.187439,72.9160767c0-0.0779724-0.0640259-0.1419983-0.1420288-0.1419983"/>
<line class="st2" x1="14.187439" y1="73.1280823" x2="14.187439" y2="72.9161072"/>
<path class="st2" d="M11.9584351,72.5029602c0.0849915,0.0370178,0.1759949,0.0560303,0.2679749,0.0560303"/>
<path class="st2" d="M12.2262268,73.4850769c-0.0920105,0-0.1830139,0.0190125-0.2680054,0.0560303"/>
<line class="st2" x1="12.2262268" y1="72.559082" x2="15.6412048" y2="72.559082"/>
<path class="st2" d="M12.2329407,72.559082c-0.256012-0.2769775-0.6880188-0.2949829-0.9650269-0.0389709
	c-0.2769775,0.2559814-0.2939758,0.6879883-0.0390015,0.9649963c0.256012,0.2769775,0.6880188,0.2949829,0.9650269,0.0390015
	c0.0139771-0.0120239,0.0269775-0.026001,0.0390015-0.0390015"/>
<path class="st2" d="M12.1549377,72.645874c-0.2080078-0.2339783-0.5660095-0.2559814-0.8000183-0.0479736
	c-0.2340088,0.2079773-0.256012,0.565979-0.0480042,0.7999878s0.5660095,0.256012,0.8000183,0.0480042
	c0.0169983-0.0150146,0.0329895-0.0310059,0.0480042-0.0480042"/>
<path class="st2" d="M14.0456238,73.2699585c0.0779724,0,0.1419983-0.0639954,0.1419983-0.1419983"/>
<line class="st2" x1="22.5402222" y1="65.8247681" x2="23.8762207" y2="65.8247681"/>
<line class="st2" x1="23.8763428" y1="80.2193604" x2="22.5403137" y2="80.2193604"/>
<path class="st2" d="M23.3162231,78.4042664c0.2979736,0.0110168,0.5489807-0.2209778,0.5599976-0.5189819
	c0-0.0069885,0-0.0140076,0-0.019989"/>
<path class="st2" d="M16.0569458,77.1815796c2.3569946,0.7180176,4.7969971,1.1290283,7.2589722,1.2230225"/>
<path class="st2" d="M16.0569458,68.8625793c-1.6670227,0.5080261-2.8700256,1.9630127-3.0560303,3.6970215"/>
<path class="st2" d="M13.0012207,73.4850769c0.1859741,1.7330017,1.38797,3.1880188,3.0559998,3.6970215"/>
<path class="st2" d="M23.3162231,67.6398621c-2.4620056,0.0930176-4.9020081,0.5040283-7.2590027,1.2230225"/>
<path class="st2" d="M23.8763428,68.1792603c0-0.2979736-0.2420044-0.539978-0.5400085-0.539978
	c-0.007019,0-0.0130005,0-0.0200195,0.0010071"/>
<line class="st2" x1="23.8763428" y1="68.1792603" x2="23.8763428" y2="77.8652649"/>
<path class="st2" d="M6.6929321,80.2193604h17.1829834c1.1929932,0,2.1600037-0.96698,2.1600037-2.1589966V67.984375
	c0-1.1929932-0.9670105-2.1600037-2.1600037-2.1600037H6.6929321V80.2193604z"/>
<path class="st2" d="M14.3401489,72.3023682c-0.2130127,0-0.4140015,0.0940247-0.5510254,0.257019"/>
<path class="st2" d="M13.7891235,73.4850769c0.1369934,0.1630249,0.3379822,0.257019,0.5509949,0.257019"/>
<path class="st2" d="M14.3401489,73.7417603c0.2129822,0,0.4139709-0.0939941,0.5509949-0.2569885"/>
<path class="st2" d="M14.8910217,72.559082c-0.1370239-0.1629944-0.3380127-0.2569885-0.5510254-0.2569885"/>
<path class="st2" d="M22.8082275,77.9531555c0.1899719-0.0109863,0.3389893-0.1679993,0.3389893-0.3589783"/>
<path class="st2" d="M17.1810303,77.4992676c1.8469849,0.401001,3.7399902,0.553009,5.6269836,0.45401"/>
<path class="st2" d="M16.0922241,68.8548584c-0.1270142,0.0370178-0.2520142,0.0800171-0.375,0.1280212"/>
<path class="st2" d="M15.7184448,77.0615845c0.1219788,0.0480042,0.2469788,0.0910034,0.3739929,0.1280212"/>
<path class="st2" d="M22.8082275,68.0908813c-1.8880005-0.098999-3.7800293,0.053009-5.6270142,0.45401"/>
<path class="st2" d="M23.147522,68.4502563c0-0.190979-0.1490173-0.3479919-0.3390198-0.3589783"/>
<line class="st2" x1="23.147522" y1="77.5938721" x2="23.147522" y2="68.4498901"/>
<path class="st2" d="M17.3537292,36.5070801c0.9229736,0.2750244,1.8819885,0.4150085,2.8459778,0.4150085"/>
<path class="st2" d="M15.1134338,35.4071655c0.6799927,0.4890137,1.4369812,0.8610229,2.2399902,1.1000061"/>
<path class="st2" d="M14.4327393,34.8314819c0.2109985,0.210022,0.4389954,0.4020081,0.6809998,0.5760193"/>
<path class="st2" d="M20.1995239,36.921875c0.9639893,0,1.9219971-0.1399841,2.8459778-0.414978
	c0.803009-0.2390137,1.5599976-0.6109924,2.2400208-1.1000061c0.6539917-0.4700012,1.2009888-1.0750122,1.6029968-1.7730103
	c0.3299866-0.572998,0.5039978-1.2219849,0.5039978-1.8840027c0-0.6609802-0.1740112-1.3099976-0.5039978-1.8829956
	c-0.4020081-0.697998-0.9490051-1.3029785-1.6029968-1.7729797c-0.6800232-0.4890137-1.4370117-0.8610229-2.2400208-1.1000061
	c-0.9239807-0.2749939-1.8819885-0.4150085-2.8459778-0.4150085c-0.9640198,0-1.9220276,0.1400146-2.8460083,0.4150085
	c-0.803009,0.2389832-1.5599976,0.6109924-2.2400208,1.1000061c-0.2419739,0.1729736-0.4689941,0.3659973-0.6809998,0.5749817
	v6.1629944"/>
<path class="st2" d="M11.1491394,35.8007812c2.2979736,0.1360168,4.5849915,0.428009,6.8439941,0.8740234"/>
<path class="st2" d="M11.9553223,29.7450562c-0.1000061-0.5149841-0.2620239-1.0159912-0.4840088-1.4909973
	c-0.2610168-0.5579834-0.6620178-1.039978-1.1650085-1.3959961c-0.1919861-0.1369934-0.4320068-0.1889954-0.6629944-0.144989
	l-2.125,0.4069824c-0.1390076,0.0270081-0.2390137,0.1480103-0.2390137,0.2890015v8.6820068
	c0,0.1410217,0.1000061,0.2630005,0.2390137,0.2890015l2.125,0.4070129c0.2309875,0.0440063,0.4710083-0.007019,0.6629944-0.1440125
	c0.5029907-0.3569946,0.9039917-0.8379822,1.1650085-1.3970032c0.2219849-0.4750061,0.3840027-0.9750061,0.4840088-1.4899902
	c0.1279907-0.6610107,0.1919861-1.3330078,0.1919861-2.006012S12.083313,30.4060669,11.9553223,29.7450562z"/>
<path class="st2" d="M11.1491394,27.7000732c2.2979736-0.1359863,4.5849915-0.4279785,6.8439941-0.8739929"/>
<path class="st2" d="M9.3823242,31.7503662c0-0.2979736,0.2419739-0.539978,0.539978-0.539978
	s0.5400085,0.2420044,0.5400085,0.539978c0,0.2980042-0.2420044,0.5400085-0.5400085,0.5400085
	S9.3823242,32.0483704,9.3823242,31.7503662z"/>
<polygon class="st2" points="179.4265442,267.0348511 179.4265442,260.1508789 0.1255493,236.2618713 0.1255493,230.4538727 
	185.1845398,255.1098785 185.1845398,267.0348511 "/>
<polygon class="st2" points="239.0736084,267.0348511 233.3155518,267.0348511 233.3155518,230.4538727 239.0736084,231.220871 "/>
<line class="st2" x1="231.0667114" y1="114.9840698" x2="199.3987122" y2="114.9840698"/>
<line class="st2" x1="6.6929321" y1="99.4611816" x2="57.5649109" y2="99.4611816"/>
<polygon class="st2" points="11.6410217,220.6523743 0.125,220.6523743 0.125,9.4133911 201.4710083,9.4133911 
	201.4710083,11.0333862 202.9110107,11.0333862 202.9110107,14.6313782 201.4710083,14.6313782 201.4710083,18.1403809 
	177.2220154,18.1403809 177.2220154,19.6693726 173.8940125,19.6693726 173.8940125,18.1403809 63.6820068,18.1403809 
	63.6820068,43.9603882 65.4810181,43.9603882 65.4810181,52.4173889 60.8930054,52.4173889 60.8930054,55.2953796 
	57.5639954,55.2953796 57.5639954,19.8493958 6.6929932,19.8493958 6.6929932,86.0563965 57.5639954,86.0563965 
	57.5639954,79.7663879 60.8930054,79.7663879 60.8930054,109.9873962 49.3569946,109.9873962 49.3569946,106.6583862 
	57.5639954,106.6583862 57.5639954,89.385376 6.6929932,89.385376 6.6929932,106.6583862 14.8099976,106.6583862 
	14.8099976,109.9873962 6.6929932,109.9873962 6.6929932,184.2163849 12.3720093,184.2163849 12.3720093,188.2643738 
	11.6410217,188.2643738 "/>
<polygon class="st2" points="69.9500427,184.2163696 69.9390259,188.2643738 70.65802,188.2643738 70.65802,191.5033722 
	185.184021,191.5033722 185.184021,171.3513794 185.9040222,171.3513794 185.9040222,167.3023987 177.8970337,167.3023987 
	177.8970337,178.638382 108.8040161,178.638382 108.8040161,184.2163696 "/>
<rect x="198.8597412" y="167.3030701" class="st2" width="4.3179932" height="8.4570007"/>
<polygon class="st2" points="229.0874634,167.3028564 229.0874634,175.7598572 233.3154297,175.7598572 233.3154297,220.6528625 
	239.8834229,220.6528625 239.8834229,9.4138489 228.8204346,9.4138489 228.8204346,11.0328674 227.3814087,11.0328674 
	227.3814087,14.6318665 228.8204346,14.6318665 228.8204346,18.1398621 231.0664062,18.1398621 231.0664062,104.4578552 
	228.187439,104.4578552 228.187439,107.7868652 231.0664062,107.7868652 231.0664062,125.0598755 199.3984375,125.0598755 
	199.3984375,107.7868652 202.2774353,107.7868652 202.2774353,104.4578552 199.3984375,104.4578552 199.3984375,101.9388733 
	193.2814636,101.9388733 193.2814636,131.1778564 231.0664062,131.1778564 231.0664062,167.3028564 "/>
<polygon class="st2" points="87.0732422,43.9602661 87.0732422,52.4172668 193.2812195,52.4172668 193.2812195,77.4682922 
	199.399231,77.4682922 199.399231,43.9602661 177.222229,43.9602661 177.222229,42.7012939 173.8942261,42.7012939 
	173.8942261,43.9602661 "/>
<path class="st2" d="M215.2327271,65.7679749c0.6759949,0,1.223999,0.5480042,1.223999,1.2230225
	c0,0.6759949-0.5480042,1.223999-1.223999,1.223999c-0.6760254,0-1.2230225-0.5480042-1.2230225-1.2229919
	C214.0097046,66.315979,214.5567017,65.7679749,215.2327271,65.7679749v1.2230225v-7.1970215l1.1129761,3.059021h-1.1129761"/>
<path class="st2" d="M141.9109497,31.0504761c0-0.7949829,0.6439819-1.4399719,1.4389954-1.4399719
	c0.7949829,0,1.4400024,0.644989,1.4400024,1.4399719c0,0.7950134-0.6440125,1.4390259-1.4390259,1.4390259
	C142.5559387,32.489502,141.9109497,31.8454895,141.9109497,31.0504761h1.4389954h-28.7880249l3.5980225-1.3099976v1.3099976"/>
<line class="st2" x1="229.0874634" y1="175.7595825" x2="203.1774597" y2="175.7595825"/>
<line class="st2" x1="229.0874634" y1="167.3028564" x2="203.1774597" y2="167.3028564"/>
<line class="st2" x1="227.3814087" y1="14.6316833" x2="202.9104004" y2="14.6316833"/>
<line class="st2" x1="227.3814087" y1="11.032959" x2="202.9104004" y2="11.032959"/>
<g>
	<path class="st9" d="M110.2723999,218.1552734h-0.7578125v1.1005859h-0.3515625v-3.1191406h1.1669922
		c0.7041016,0,1.1669922,0.3740234,1.1669922,0.9941406C111.4970093,217.8076172,110.9364624,218.1552734,110.2723999,218.1552734z
		 M110.3036499,216.4619141h-0.7890625v1.3730469h0.7705078c0.5175781,0,0.8554688-0.2763672,0.8554688-0.6914062
		C111.140564,216.6943359,110.8065796,216.4619141,110.3036499,216.4619141z"/>
	<path class="st9" d="M115.0302124,219.2558594h-0.3779297l-0.3652344-0.8242188h-1.6982422l-0.3701172,0.8242188h-0.3603516
		l1.4208984-3.1416016h0.3300781L115.0302124,219.2558594z M113.4403687,216.5244141l-0.7128906,1.5908203h1.4208984
		L113.4403687,216.5244141z"/>
	<path class="st9" d="M116.6845093,219.2558594h-0.3564453v-2.7939453h-1.046875v-0.3251953h2.4501953v0.3251953h-1.046875
		V219.2558594z"/>
	<path class="st9" d="M118.9657593,216.1367188v3.1191406h-0.3515625v-3.1191406H118.9657593z"/>
	<path class="st9" d="M121.5565796,219.3095703c-0.9482422,0-1.5859375-0.7441406-1.5859375-1.6083984
		s0.6464844-1.6181641,1.5957031-1.6181641c0.9482422,0,1.5859375,0.7441406,1.5859375,1.609375
		C123.1522827,218.5566406,122.5057983,219.3095703,121.5565796,219.3095703z M121.5565796,216.4091797
		c-0.7128906,0-1.2207031,0.5703125-1.2207031,1.2832031s0.5175781,1.2919922,1.2304688,1.2919922
		s1.2207031-0.5703125,1.2207031-1.2832031S122.2694702,216.4091797,121.5565796,216.4091797z"/>
</g>
<g>
	<path class="st9" d="M19.6972046,55.0869141h-0.7578125V56.1875h-0.3515625v-3.1191406h1.1669922
		c0.7041016,0,1.1669922,0.3740234,1.1669922,0.9941406C20.921814,54.7392578,20.3612671,55.0869141,19.6972046,55.0869141z
		 M19.7284546,53.3935547h-0.7890625v1.3730469h0.7705078c0.5175781,0,0.8554688-0.2763672,0.8554688-0.6914062
		C20.5653687,53.6259766,20.2313843,53.3935547,19.7284546,53.3935547z"/>
	<path class="st9" d="M23.2714233,56.2412109c-0.9492188,0-1.5869141-0.7441406-1.5869141-1.6083984
		s0.6464844-1.6181641,1.5957031-1.6181641c0.9482422,0,1.5859375,0.7441406,1.5859375,1.609375
		C24.8661499,55.4882812,24.2196655,56.2412109,23.2714233,56.2412109z M23.2714233,53.3408203
		c-0.7128906,0-1.2216797,0.5703125-1.2216797,1.2832031s0.5175781,1.2919922,1.2304688,1.2919922
		s1.2207031-0.5703125,1.2207031-1.2832031S23.984314,53.3408203,23.2714233,53.3408203z"/>
	<path class="st9" d="M27.6122437,53.0595703h0.2900391l0.8554688,2.6064453l0.890625-2.5976562h0.3701172l-1.1142578,3.1416016
		h-0.2978516l-0.8554688-2.53125l-0.8603516,2.53125h-0.2939453l-1.1142578-3.1416016h0.3837891l0.890625,2.5976562
		L27.6122437,53.0595703z"/>
	<path class="st9" d="M31.9638062,56.1875h-1.0820312v-3.1191406h1.0820312c0.9804688,0,1.6582031,0.6728516,1.6582031,1.5556641
		C33.6220093,55.5058594,32.9442749,56.1875,31.9638062,56.1875z M31.9638062,53.3935547h-0.7304688v2.46875h0.7304688
		c0.7890625,0,1.2919922-0.5351562,1.2919922-1.2294922C33.2557983,53.9375,32.7528687,53.3935547,31.9638062,53.3935547z"/>
	<path class="st9" d="M36.8710327,53.3896484H34.968689v1.0644531h1.7021484v0.3212891H34.968689v1.0908203h1.9248047V56.1875
		h-2.2763672v-3.1191406h2.2539062V53.3896484z"/>
	<path class="st9" d="M39.9550171,56.1875l-0.9042969-1.2119141h-0.8916016V56.1875h-0.3515625v-3.1191406h1.3408203
		c0.6865234,0,1.1269531,0.3701172,1.1269531,0.9316406c0,0.5214844-0.3564453,0.8242188-0.8466797,0.9130859L40.3866577,56.1875
		H39.9550171z M39.1220093,53.3935547h-0.9628906v1.265625h0.9580078c0.4677734,0,0.8017578-0.2402344,0.8017578-0.6464844
		C39.9188843,53.6259766,39.624939,53.3935547,39.1220093,53.3935547z"/>
</g>
<g>
	<path class="st9" d="M74.7958374,31.0351562c0.6953125,0.1513672,1.015625,0.4052734,1.015625,0.8862305
		c0,0.5395508-0.4453125,0.8867188-1.0644531,0.8867188c-0.4951172,0-0.9003906-0.1645508-1.2744141-0.4990234l0.2177734-0.2583008
		c0.3251953,0.2939453,0.6376953,0.440918,1.0693359,0.440918c0.4189453,0,0.6953125-0.2182617,0.6953125-0.534668
		c0-0.2939453-0.15625-0.4589844-0.8105469-0.5966797c-0.7177734-0.15625-1.046875-0.3876953-1.046875-0.9047852
		c0-0.4990234,0.4316406-0.8554688,1.0244141-0.8554688c0.4541016,0,0.7792969,0.1293945,1.0957031,0.3833008l-0.2050781,0.2719727
		c-0.2890625-0.2363281-0.5791016-0.3388672-0.8994141-0.3388672c-0.4052734,0-0.6640625,0.2226562-0.6640625,0.5078125
		C73.9491577,30.7231445,74.109314,30.8876953,74.7958374,31.0351562z"/>
	<path class="st9" d="M77.946228,32.7636719h-0.3564453v-2.793457h-1.046875v-0.3256836h2.4501953v0.3256836h-1.046875V32.7636719z"
		/>
	<path class="st9" d="M81.140564,32.8173828c-0.9482422,0-1.5859375-0.7441406-1.5859375-1.6088867
		c0-0.8642578,0.6464844-1.6171875,1.5957031-1.6171875c0.9482422,0,1.5859375,0.7441406,1.5859375,1.6083984
		S82.0897827,32.8173828,81.140564,32.8173828z M81.140564,29.9165039c-0.7128906,0-1.2207031,0.5703125-1.2207031,1.2832031
		s0.5175781,1.2919922,1.2304688,1.2919922s1.2207031-0.5703125,1.2207031-1.2832031S81.8534546,29.9165039,81.140564,29.9165039z"
		/>
	<path class="st9" d="M85.8876343,32.7636719l-0.9042969-1.2119141h-0.8916016v1.2119141h-0.3515625v-3.1191406h1.3408203
		c0.6865234,0,1.1269531,0.3701172,1.1269531,0.9316406c0,0.5209961-0.3564453,0.8242188-0.8466797,0.9130859l0.9580078,1.2744141
		H85.8876343z M85.0546265,29.9702148h-0.9628906v1.2651367h0.9580078c0.4677734,0,0.8017578-0.2407227,0.8017578-0.6459961
		C85.8515015,30.2016602,85.5575562,29.9702148,85.0546265,29.9702148z"/>
	<path class="st9" d="M90.2011108,32.7636719h-0.3779297l-0.3662109-0.8242188h-1.6972656l-0.3691406,0.8242188h-0.3613281
		l1.4208984-3.1411133h0.3300781L90.2011108,32.7636719z M88.6112671,30.0322266l-0.7128906,1.5908203h1.4208984
		L88.6112671,30.0322266z"/>
	<path class="st9" d="M92.3378296,32.8173828c-0.9804688,0-1.5869141-0.7128906-1.5869141-1.6088867
		c0-0.8598633,0.6289062-1.6171875,1.5644531-1.6171875c0.5253906,0,0.8505859,0.1513672,1.1630859,0.4145508l-0.2275391,0.2670898
		c-0.2412109-0.2094727-0.5078125-0.3564453-0.9492188-0.3564453c-0.6904297,0-1.1855469,0.5834961-1.1855469,1.2832031
		c0,0.7485352,0.4775391,1.3012695,1.234375,1.3012695c0.3564453,0,0.6865234-0.1381836,0.9003906-0.3120117v-0.7753906h-0.9492188
		V31.097168h1.2880859v1.2431641C93.2997437,32.5986328,92.8632202,32.8173828,92.3378296,32.8173828z"/>
	<path class="st9" d="M96.9188843,29.9658203h-1.9023438v1.0644531h1.7021484v0.3208008h-1.7021484v1.0917969h1.9248047v0.3208008
		H94.664978v-3.1191406h2.2539062V29.9658203z"/>
</g>
<g>
	<path class="st9" d="M125.9745483,96.1181641h0.2900391l0.8554688,2.6064453l0.890625-2.5976562h0.3701172l-1.1142578,3.1416016
		h-0.2978516l-0.8554688-2.53125l-0.8603516,2.53125h-0.2939453l-1.1142578-3.1416016h0.3837891l0.890625,2.5976562
		L125.9745483,96.1181641z"/>
	<path class="st9" d="M130.5858765,99.2998047c-0.9492188,0-1.5869141-0.7441406-1.5869141-1.6083984
		s0.6464844-1.6181641,1.5957031-1.6181641c0.9482422,0,1.5859375,0.7441406,1.5859375,1.609375
		C132.180603,98.546875,131.5341187,99.2998047,130.5858765,99.2998047z M130.5858765,96.3994141
		c-0.7128906,0-1.2216797,0.5703125-1.2216797,1.2832031s0.5175781,1.2919922,1.2304688,1.2919922
		s1.2207031-0.5703125,1.2207031-1.2832031S131.2987671,96.3994141,130.5858765,96.3994141z"/>
	<path class="st9" d="M135.3319702,99.2460938l-0.9042969-1.2119141h-0.8916016v1.2119141h-0.3515625v-3.1191406h1.3408203
		c0.6865234,0,1.1269531,0.3701172,1.1269531,0.9316406c0,0.5214844-0.3564453,0.8242188-0.8466797,0.9130859l0.9580078,1.2744141
		H135.3319702z M134.4989624,96.4521484h-0.9628906v1.265625h0.9580078c0.4677734,0,0.8017578-0.2402344,0.8017578-0.6464844
		C135.2958374,96.6845703,135.0018921,96.4521484,134.4989624,96.4521484z"/>
	<path class="st9" d="M139.321228,99.2460938h-0.4414062l-1.1982422-1.5107422l-0.6640625,0.6728516v0.8378906h-0.3515625
		v-3.1191406h0.3515625v1.8623047l1.7910156-1.8623047h0.4550781l-1.3369141,1.3632812L139.321228,99.2460938z"/>
</g>
<g>
	<path class="st9" d="M210.993103,180.1113281h-1.9023438v1.0644531h1.7021484v0.3212891h-1.7021484v1.0917969h1.9248047v0.3203125
		h-2.2763672v-3.1191406h2.2539062V180.1113281z"/>
	<path class="st9" d="M214.2235718,179.7900391h0.34375v3.1191406h-0.28125l-2.0136719-2.5576172v2.5576172h-0.3427734v-3.1191406
		h0.3291016l1.9648438,2.5V179.7900391z"/>
	<path class="st9" d="M216.836853,182.9091797h-0.3564453v-2.7939453h-1.046875v-0.3251953h2.4501953v0.3251953h-1.046875
		V182.9091797z"/>
	<path class="st9" d="M220.8964233,182.9091797l-0.9042969-1.2119141h-0.8916016v1.2119141h-0.3515625v-3.1191406h1.3408203
		c0.6865234,0,1.1269531,0.3701172,1.1269531,0.9316406c0,0.5214844-0.3564453,0.8242188-0.8466797,0.9130859l0.9580078,1.2744141
		H220.8964233z M220.0634155,180.1152344h-0.9628906v1.265625h0.9580078c0.4677734,0,0.8017578-0.2402344,0.8017578-0.6455078
		C220.8602905,180.3476562,220.5663452,180.1152344,220.0634155,180.1152344z"/>
	<path class="st9" d="M223.4403687,182.9091797h-0.3564453v-1.234375l-1.296875-1.8847656h0.4277344l1.0517578,1.5595703
		l1.0605469-1.5595703h0.4101562l-1.296875,1.8808594V182.9091797z"/>
</g>
<g>
	<path class="st9" d="M209.5565796,0.3212891h-1.9023438v1.0644531h1.7021484V1.706543h-1.7021484v1.0917969h1.9248047v0.3208008
		h-2.2763672V0h2.2539062V0.3212891z"/>
	<path class="st9" d="M212.7870483,0h0.34375v3.1191406h-0.28125l-2.0136719-2.5576172v2.5576172h-0.3427734V0h0.3291016
		l1.9648438,2.5V0z"/>
	<path class="st9" d="M215.4003296,3.1191406h-0.3564453v-2.793457h-1.046875V0h2.4501953v0.3256836h-1.046875V3.1191406z"/>
	<path class="st9" d="M219.4598999,3.1191406l-0.9042969-1.2119141h-0.8916016v1.2119141h-0.3515625V0h1.3408203
		c0.6865234,0,1.1269531,0.3701172,1.1269531,0.9316407c0,0.520996-0.3564453,0.8242187-0.8466797,0.9130859l0.9580078,1.2744141
		H219.4598999z M218.6268921,0.3256836h-0.9628906v1.2651367h0.9580078c0.4677734,0,0.8017578-0.2407227,0.8017578-0.645996
		C219.4237671,0.557129,219.1298218,0.3256836,218.6268921,0.3256836z"/>
	<path class="st9" d="M222.0038452,3.1191406h-0.3564453v-1.234375l-1.296875-1.8847656h0.4277344l1.0517578,1.5595703
		l1.0605469-1.5595703h0.4101562l-1.296875,1.8803711V3.1191406z"/>
</g>
<g>
	<path class="st9" d="M213.1327515,73.0996094h-1.0820312v-3.1191406h1.0820312
		c0.9804688,0,1.6582031,0.6728516,1.6582031,1.5556641C214.7909546,72.4179688,214.1132202,73.0996094,213.1327515,73.0996094z
		 M213.1327515,70.3056641h-0.7304688v2.46875h0.7304688c0.7890625,0,1.2929688-0.5351562,1.2929688-1.2294922
		C214.4257202,70.8496094,213.921814,70.3056641,213.1327515,70.3056641z"/>
	<path class="st9" d="M218.0800171,69.9804688h0.34375v3.1191406h-0.28125l-2.0136719-2.5576172v2.5576172h-0.3427734v-3.1191406
		h0.3291016l1.9648438,2.5V69.9804688z"/>
</g>
<g>
	<path class="st9" d="M149.5888062,31.1679688c0,0.9086914-0.5205078,1.3808594-1.3007812,1.3808594
		c-0.7705078,0-1.2958984-0.472168-1.2958984-1.3544922v-1.8134766h0.3515625v1.7915039
		c0,0.6728516,0.3564453,1.0512695,0.953125,1.0512695c0.5751953,0,0.9404297-0.3476562,0.9404297-1.0292969v-1.8134766h0.3515625
		V31.1679688z"/>
	<path class="st9" d="M151.8231812,31.3994141h-0.7578125V32.5h-0.3515625v-3.1191406h1.1669922
		c0.7041016,0,1.1669922,0.3745117,1.1669922,0.9936523C153.0477905,31.0517578,152.4872437,31.3994141,151.8231812,31.3994141z
		 M151.8544312,29.706543h-0.7890625v1.3720703h0.7705078c0.5175781,0,0.8554688-0.2763672,0.8554688-0.6904297
		C152.6913452,29.9379883,152.3573608,29.706543,151.8544312,29.706543z"/>
</g>
</svg>
