<?xml version="1.0" encoding="utf-8"?>
<!-- Generator: Adobe Illustrator 25.4.1, SVG Export Plug-In . SVG Version: 6.00 Build 0)  -->
<svg version="1.1" id="Layer_1" xmlns="http://www.w3.org/2000/svg" xmlns:xlink="http://www.w3.org/1999/xlink" x="0px" y="0px"
	 viewBox="0 0 239.9174194 258.9900818" style="enable-background:new 0 0 239.9174194 258.9900818;" xml:space="preserve">
<style type="text/css">
	.st0{fill:none;stroke:#99A4B3;stroke-width:0.24;stroke-linecap:round;stroke-linejoin:round;stroke-miterlimit:10;}
	.st1{fill-rule:evenodd;clip-rule:evenodd;fill:#22566E;}
	.st2{fill:none;stroke:#22566E;stroke-width:0.25;stroke-linecap:round;stroke-linejoin:round;stroke-miterlimit:10;}
	.st3{fill:none;stroke:#22566E;stroke-width:0.25;stroke-linecap:round;stroke-linejoin:round;}
	
		.st4{fill:none;stroke:#22566E;stroke-width:0.25;stroke-linecap:round;stroke-linejoin:round;stroke-dasharray:4.1989999,2.0999999;}
	
		.st5{fill:none;stroke:#22566E;stroke-width:0.25;stroke-linecap:round;stroke-linejoin:round;stroke-dasharray:4.5440001,2.2720001;}
	.st6{fill:none;stroke:#22566E;stroke-width:0.25;stroke-linecap:round;stroke-linejoin:round;stroke-dasharray:3.994,1.997;}
	.st7{fill:none;stroke:#22566E;stroke-width:0.25;stroke-linecap:round;stroke-linejoin:round;stroke-miterlimit:10.000001;}
	.st8{fill:none;stroke:#22566E;stroke-width:0.25;stroke-linecap:round;stroke-linejoin:round;stroke-dasharray:2.099,1.05;}
	.st9{fill:none;stroke:#22566E;stroke-width:0.25;stroke-linecap:round;stroke-linejoin:round;stroke-dasharray:2.161,1.081;}
	.st10{fill:#22566E;}
</style>
<rect x="8.0415039" y="146.2737732" class="st0" width="11.5159912" height="14.3940125"/>
<rect x="8.0415039" y="206.7307739" class="st0" width="11.5159912" height="14.3939972"/>
<rect x="218.2014771" y="163.231781" class="st0" width="11.5159912" height="14.394989"/>
<rect x="218.2014771" y="91.2597656" class="st0" width="11.5159912" height="14.3940125"/>
<polygon class="st0" points="136.8934937,91.6704712 147.5784302,85.5014954 152.5674438,85.5014954 163.2523804,91.6704712 
	163.8814087,90.5794983 153.1974487,84.4104919 152.5674438,85.5014954 152.5674438,82.1724854 147.5784302,82.1724854 
	147.5784302,85.5014954 146.9484253,84.4104919 136.2634888,90.5794983 "/>
<polygon class="st0" points="6.602356,56.26297 6.602356,112.1319885 10.3813477,112.1319885 10.3813477,90.539978 
	9.1213379,90.539978 9.1213379,113.79599 52.3043213,113.79599 52.3043213,90.539978 51.0453491,90.539978 51.0453491,112.1319885 
	62.3813477,112.1319885 62.3813477,137.0519714 63.6403198,137.0519714 63.6403198,115.4599915 59.8623047,115.4599915 
	59.8623047,144.9689941 6.602356,144.9689941 6.602356,162.1069946 65.6193237,162.1069946 65.6193237,205.2909851 
	6.602356,205.2909851 6.602356,222.4289703 87.3913574,222.4289703 87.3913574,208.4839783 90.7203369,208.4839783 
	90.7203369,216.8509674 121.5783081,216.8509674 121.5783081,185.2729797 90.7203369,185.2729797 90.7203369,188.1519775 
	112.3113403,188.1519775 112.3113403,186.8929749 87.3913574,186.8929749 87.3913574,141.0099792 89.0553589,141.0099792 
	89.0553589,117.9789734 87.3913574,117.9789734 87.3913574,115.4599915 83.9723511,115.4599915 83.9723511,112.1319885 
	117.2593384,112.1319885 117.2593384,109.611969 142.1803589,109.611969 142.1803589,108.3529968 120.5883179,108.3529968 
	120.5883179,112.1319885 138.9413452,112.1319885 138.9413452,180.8649902 231.156311,180.8649902 231.156311,161.7919922 
	172.1382446,161.7919922 172.1382446,107.0929871 231.156311,107.0929871 231.156311,85.5019836 206.9962769,85.5019836 
	206.9962769,83.8369751 185.4043579,83.8369751 185.4043579,85.5019836 177.2422485,85.5019836 166.557312,91.67099 
	165.9282837,90.5799866 176.6122437,84.4109802 177.2422485,85.5019836 177.2422485,82.1729736 179.557312,82.1729736 
	179.557312,66.3389893 120.5883179,66.3389893 120.5883179,82.1729736 122.9032593,82.1729736 122.9032593,85.5019836 
	133.5873413,91.67099 134.1723022,90.5529785 123.5332642,84.4109802 122.9032593,85.5019836 120.5883179,85.5019836 
	120.5883179,88.0209961 117.2593384,88.0209961 117.2593384,85.5019836 35.3912964,85.5019836 35.3912964,81.0039978 
	31.7922974,81.0039978 31.7922974,79.9239807 35.3912964,79.9239807 35.3912964,56.26297 "/>
<line class="st0" x1="9.3912964" y1="222.4290771" x2="9.3912964" y2="221.1240845"/>
<line class="st0" x1="9.3912964" y1="90.5398865" x2="9.3912964" y2="56.2629089"/>
<line class="st0" x1="9.3912964" y1="206.7301636" x2="9.3912964" y2="205.2901917"/>
<line class="st0" x1="9.3912964" y1="113.79599" x2="9.3912964" y2="112.132019"/>
<line class="st0" x1="9.3912964" y1="162.1073914" x2="9.3912964" y2="160.6674194"/>
<line class="st0" x1="9.3912964" y1="146.2733765" x2="9.3912964" y2="144.9683838"/>
<line class="st0" x1="14.7893066" y1="222.4290771" x2="14.7893066" y2="221.1240845"/>
<line class="st0" x1="14.7893066" y1="113.79599" x2="14.7893066" y2="56.2630005"/>
<line class="st0" x1="14.7893066" y1="206.7301636" x2="14.7893066" y2="205.2901917"/>
<line class="st0" x1="14.7893066" y1="146.2733765" x2="14.7893066" y2="144.9683838"/>
<line class="st0" x1="14.7893066" y1="162.1073914" x2="14.7893066" y2="160.6674194"/>
<line class="st0" x1="20.1871948" y1="222.4290771" x2="20.1871948" y2="205.2901001"/>
<line class="st0" x1="20.1871948" y1="113.79599" x2="20.1871948" y2="56.2630005"/>
<line class="st0" x1="20.1871948" y1="162.1073914" x2="20.1871948" y2="144.9684143"/>
<line class="st0" x1="25.5852051" y1="222.4290771" x2="25.5852051" y2="205.2901001"/>
<line class="st0" x1="25.5852051" y1="113.79599" x2="25.5852051" y2="56.2630005"/>
<line class="st0" x1="25.5852051" y1="162.1073914" x2="25.5852051" y2="144.9684143"/>
<line class="st0" x1="30.9829712" y1="222.4290771" x2="30.9829712" y2="205.2901001"/>
<line class="st0" x1="30.9829712" y1="113.79599" x2="30.9829712" y2="56.2630005"/>
<line class="st0" x1="30.9829712" y1="162.1073914" x2="30.9829712" y2="144.9684143"/>
<line class="st0" x1="36.3809814" y1="222.4290771" x2="36.3809814" y2="205.2901001"/>
<line class="st0" x1="36.3809814" y1="113.79599" x2="36.3809814" y2="85.5020142"/>
<line class="st0" x1="36.3809814" y1="162.1073914" x2="36.3809814" y2="144.9684143"/>
<line class="st0" x1="41.7787476" y1="222.4290771" x2="41.7787476" y2="205.2901001"/>
<line class="st0" x1="41.7787476" y1="113.79599" x2="41.7787476" y2="85.5020142"/>
<line class="st0" x1="41.7787476" y1="162.1073914" x2="41.7787476" y2="144.9684143"/>
<line class="st0" x1="47.1767578" y1="222.4290771" x2="47.1767578" y2="205.2901001"/>
<line class="st0" x1="47.1767578" y1="113.79599" x2="47.1767578" y2="85.5020142"/>
<line class="st0" x1="47.1767578" y1="162.1073914" x2="47.1767578" y2="144.9684143"/>
<line class="st0" x1="52.574707" y1="222.4290771" x2="52.574707" y2="205.2901001"/>
<line class="st0" x1="52.574707" y1="112.1315918" x2="52.574707" y2="85.5016174"/>
<line class="st0" x1="52.574707" y1="162.1073914" x2="52.574707" y2="144.9684143"/>
<line class="st0" x1="57.9726562" y1="222.4290771" x2="57.9726562" y2="205.2901001"/>
<line class="st0" x1="57.9726562" y1="112.1315918" x2="57.9726562" y2="85.5016174"/>
<line class="st0" x1="57.9726562" y1="162.1073914" x2="57.9726562" y2="144.9684143"/>
<line class="st0" x1="63.3706055" y1="222.4290771" x2="63.3706055" y2="205.2901001"/>
<line class="st0" x1="63.3706055" y1="115.4601746" x2="63.3706055" y2="85.5021973"/>
<line class="st0" x1="63.3706055" y1="162.1073914" x2="63.3706055" y2="137.0513916"/>
<line class="st0" x1="68.7685547" y1="222.4290771" x2="68.7685547" y2="85.5020752"/>
<line class="st0" x1="74.1663818" y1="222.4290771" x2="74.1663818" y2="85.5020752"/>
<line class="st0" x1="79.5643921" y1="222.4290771" x2="79.5643921" y2="85.5020752"/>
<line class="st0" x1="84.9621582" y1="222.4290771" x2="84.9621582" y2="115.460083"/>
<line class="st0" x1="84.9621582" y1="112.1315918" x2="84.9621582" y2="85.5016174"/>
<line class="st0" x1="90.3602905" y1="208.484375" x2="90.3602905" y2="186.892395"/>
<line class="st0" x1="90.3602905" y1="112.1315918" x2="90.3602905" y2="85.5016174"/>
<line class="st0" x1="95.7580566" y1="216.851181" x2="95.7580566" y2="188.1521912"/>
<line class="st0" x1="95.7580566" y1="112.1315918" x2="95.7580566" y2="85.5016174"/>
<line class="st0" x1="95.7580566" y1="186.8927917" x2="95.7580566" y2="185.2738037"/>
<line class="st0" x1="101.1560669" y1="216.851181" x2="101.1560669" y2="188.1521912"/>
<line class="st0" x1="101.1560669" y1="112.1315918" x2="101.1560669" y2="85.5016174"/>
<line class="st0" x1="101.1560669" y1="186.8927917" x2="101.1560669" y2="185.2738037"/>
<line class="st0" x1="106.553894" y1="216.851181" x2="106.553894" y2="188.1521912"/>
<line class="st0" x1="106.553894" y1="112.1315918" x2="106.553894" y2="85.5016174"/>
<line class="st0" x1="106.553894" y1="186.8927917" x2="106.553894" y2="185.2738037"/>
<line class="st0" x1="111.9519653" y1="216.851181" x2="111.9519653" y2="188.1521912"/>
<line class="st0" x1="111.9519653" y1="112.1315918" x2="111.9519653" y2="85.5016174"/>
<line class="st0" x1="111.9519653" y1="186.8927917" x2="111.9519653" y2="185.2738037"/>
<line class="st0" x1="117.3497925" y1="216.851181" x2="117.3497925" y2="185.2731934"/>
<line class="st0" x1="117.3497925" y1="109.6123657" x2="117.3497925" y2="88.0203857"/>
<line class="st0" x1="122.7477417" y1="112.1315918" x2="122.7477417" y2="109.6126099"/>
<line class="st0" x1="122.7477417" y1="82.1729736" x2="122.7477417" y2="66.3389893"/>
<line class="st0" x1="122.7477417" y1="108.3528748" x2="122.7477417" y2="85.5018921"/>
<line class="st0" x1="128.1455688" y1="112.1315918" x2="128.1455688" y2="109.6126099"/>
<line class="st0" x1="128.1455688" y1="87.0739746" x2="128.1455688" y2="66.3389893"/>
<line class="st0" x1="128.1455688" y1="108.3528748" x2="128.1455688" y2="88.5278931"/>
<line class="st0" x1="133.5435181" y1="112.1315918" x2="133.5435181" y2="109.6126099"/>
<line class="st0" x1="133.5435181" y1="90.1905823" x2="133.5435181" y2="66.3395996"/>
<line class="st0" x1="133.5435181" y1="108.3528748" x2="133.5435181" y2="91.6448975"/>
<line class="st0" x1="138.9414673" y1="89.0336914" x2="138.9414673" y2="66.3387146"/>
<line class="st0" x1="138.9414673" y1="112.1315918" x2="138.9414673" y2="109.6126099"/>
<line class="st0" x1="138.9414673" y1="108.3528748" x2="138.9414673" y2="90.4878845"/>
<line class="st0" x1="144.3392944" y1="180.8650818" x2="144.3392944" y2="87.3721008"/>
<line class="st0" x1="144.3392944" y1="85.9173889" x2="144.3392944" y2="66.3394165"/>
<line class="st0" x1="149.7373657" y1="180.8650818" x2="149.7373657" y2="85.5021057"/>
<line class="st0" x1="149.7373657" y1="82.1729736" x2="149.7373657" y2="66.3389893"/>
<line class="st0" x1="155.1351929" y1="180.8650818" x2="155.1351929" y2="86.9841003"/>
<line class="st0" x1="155.1351929" y1="85.5299683" x2="155.1351929" y2="66.3389893"/>
<line class="st0" x1="160.5331421" y1="180.8650818" x2="160.5331421" y2="90.1011047"/>
<line class="st0" x1="160.5331421" y1="88.6463928" x2="160.5331421" y2="66.3394165"/>
<line class="st0" x1="165.9309692" y1="180.8650818" x2="165.9309692" y2="90.585083"/>
<line class="st0" x1="165.9309692" y1="90.5779724" x2="165.9309692" y2="66.3389893"/>
<line class="st0" x1="171.3290405" y1="180.8650818" x2="171.3290405" y2="88.9161072"/>
<line class="st0" x1="171.3290405" y1="87.4613647" x2="171.3290405" y2="66.339386"/>
<line class="st0" x1="176.7268677" y1="180.8650818" x2="176.7268677" y2="161.7920837"/>
<line class="st0" x1="176.7268677" y1="84.6089783" x2="176.7268677" y2="66.3389893"/>
<line class="st0" x1="176.7268677" y1="107.0933838" x2="176.7268677" y2="85.799408"/>
<line class="st0" x1="182.1248169" y1="180.8650818" x2="182.1248169" y2="161.7920837"/>
<line class="st0" x1="182.1248169" y1="107.0933838" x2="182.1248169" y2="85.5014038"/>
<line class="st0" x1="187.522644" y1="180.8650818" x2="187.522644" y2="161.7920837"/>
<line class="st0" x1="187.522644" y1="107.0933838" x2="187.522644" y2="83.8374023"/>
<line class="st0" x1="192.9207153" y1="180.8650818" x2="192.9207153" y2="161.7920837"/>
<line class="st0" x1="192.9207153" y1="107.0933838" x2="192.9207153" y2="83.8374023"/>
<line class="st0" x1="198.3185425" y1="180.8650818" x2="198.3185425" y2="161.7920837"/>
<line class="st0" x1="198.3185425" y1="107.0933838" x2="198.3185425" y2="83.8374023"/>
<line class="st0" x1="203.7166138" y1="180.8650818" x2="203.7166138" y2="161.7920837"/>
<line class="st0" x1="203.7166138" y1="107.0933838" x2="203.7166138" y2="83.8374023"/>
<line class="st0" x1="209.1144409" y1="180.8650818" x2="209.1144409" y2="161.7920837"/>
<line class="st0" x1="209.1144409" y1="107.0933838" x2="209.1144409" y2="85.5014038"/>
<line class="st0" x1="214.5123901" y1="180.8650818" x2="214.5123901" y2="161.7920837"/>
<line class="st0" x1="214.5123901" y1="107.0933838" x2="214.5123901" y2="85.5014038"/>
<line class="st0" x1="219.9102173" y1="180.8650818" x2="219.9102173" y2="177.6260986"/>
<line class="st0" x1="219.9102173" y1="91.2595825" x2="219.9102173" y2="85.5015869"/>
<line class="st0" x1="219.9102173" y1="163.231781" x2="219.9102173" y2="161.7927856"/>
<line class="st0" x1="219.9102173" y1="107.0933838" x2="219.9102173" y2="105.6543884"/>
<line class="st0" x1="225.3082886" y1="180.8650818" x2="225.3082886" y2="177.6260986"/>
<line class="st0" x1="225.3082886" y1="91.2595825" x2="225.3082886" y2="85.5015869"/>
<line class="st0" x1="225.3082886" y1="163.231781" x2="225.3082886" y2="161.7927856"/>
<line class="st0" x1="225.3082886" y1="107.0933838" x2="225.3082886" y2="105.6543884"/>
<line class="st0" x1="230.7061157" y1="180.8650818" x2="230.7061157" y2="161.7920837"/>
<line class="st0" x1="230.7061157" y1="107.0933838" x2="230.7061157" y2="85.5014038"/>
<polygon class="st0" points="180.7213745,20.0789795 180.7213745,23.5589905 189.5963745,38.9320068 189.1293335,39.2019958 
	180.7213745,24.6390076 180.7213745,52.9339905 182.8862915,52.9339905 182.8862915,82.1730042 185.4043579,82.1730042 
	185.4043579,60.5809937 186.6643677,60.5809937 186.6643677,82.1730042 185.4043579,82.1730042 185.4043579,83.8370056 
	206.9962769,83.8370056 206.9962769,82.1730042 214.9623413,82.1730042 214.9623413,42.2279968 231.156311,42.2279968 
	231.156311,20.0789795 "/>
<path class="st0" d="M230.5701294,26.8127747c0-0.1409912-0.1000977-0.26297-0.2390137-0.2889709l-2.1260986-0.4070129
	c-0.230957-0.0440063-0.4699707,0.0079956-0.6629639,0.1440125c-0.3259277,0.2319946-0.6109619,0.5159912-0.842041,0.84198
	c-2.2989502-0.1359863-4.5849609-0.4279785-6.8439941-0.8729858c-0.723999-0.1650085-1.4639893-0.2480164-2.2069092-0.2480164
	c-0.9630127,0-1.9219971,0.1400146-2.8450928,0.4150085c-0.8029785,0.2390137-1.5599365,0.6109924-2.2409668,1.1000061
	c-0.6539307,0.4700012-1.1999512,1.0749817-1.6030273,1.7729797c-0.3299561,0.5730286-0.5029297,1.2230225-0.5029297,1.8840027
	c0,0.6610107,0.1729736,1.3110046,0.5029297,1.8840027c0.4030762,0.697998,0.9490967,1.302002,1.6030273,1.7730103
	c0.6810303,0.4890137,1.4379883,0.8599854,2.2409668,1.1000061c0.9230957,0.2749939,1.8820801,0.4140015,2.8450928,0.4140015
	c0.7429199,0,1.4829102-0.0830078,2.2069092-0.2470093c2.2590332-0.4450073,4.5450439-0.7369995,6.8439941-0.8739929
	c0.2310791,0.3259888,0.5161133,0.6109924,0.842041,0.8429871c0.1929932,0.1360168,0.4320068,0.1880188,0.6629639,0.1440125
	l2.1260986-0.4070129c0.138916-0.0270081,0.2390137-0.1479797,0.2390137-0.2890015V26.8127747z"/>
<polygon class="st0" points="54.8238525,115.4601746 52.3048096,115.4601746 52.3048096,113.7962036 9.1208496,113.7962036 
	9.1208496,115.4601746 6.6028442,115.4601746 6.6028442,120.0481873 10.6228027,120.0481873 10.6228027,118.9141846 
	30.0548096,118.9141846 30.0548096,120.0481873 31.494812,120.0481873 31.494812,118.9141846 50.9268188,118.9141846 
	50.9268188,120.0481873 54.8238525,120.0481873 "/>
<polygon class="st0" points="90.7200928,157.204071 133.9030151,157.204071 133.9030151,135.9720764 117.710022,135.9720764 
	117.710022,115.460083 90.7200928,115.460083 90.7200928,119.2390747 113.7510376,119.2390747 113.7510376,117.9790955 
	89.0560913,117.9790955 89.0560913,141.0100708 90.7200928,141.0100708 "/>
<path class="st0" d="M133.3174438,142.2471924c0-0.1409912-0.1000977-0.26297-0.2390137-0.2889709l-2.125-0.4070129
	c-0.2320557-0.0440063-0.4710693,0.0079956-0.6640625,0.1440125c-0.3259277,0.2319946-0.6109619,0.5159912-0.842041,0.8429871
	c-2.2989502-0.1369934-4.5849609-0.4289856-6.8439941-0.8739929c-0.723999-0.1640015-1.4639893-0.2470093-2.2069092-0.2470093
	c-0.9630127,0-1.9219971,0.1390076-2.8450928,0.4140015c-0.8029785,0.2390137-1.5599365,0.6109924-2.2409668,1.1000061
	c-0.6539307,0.4710083-1.1999512,1.0749817-1.6030273,1.7729797c-0.3299561,0.5730286-0.5029297,1.2230225-0.5029297,1.8840027
	c0,0.6610107,0.1729736,1.3110046,0.5029297,1.8840027c0.4030762,0.697998,0.9490967,1.302002,1.6030273,1.7730103
	c0.6810303,0.4890137,1.4379883,0.8609924,2.2409668,1.1000061c0.9230957,0.2749939,1.8820801,0.4140015,2.8450928,0.4140015
	c0.7429199,0,1.4829102-0.0820007,2.2069092-0.2470093c2.2590332-0.4450073,4.5450439-0.7369995,6.8439941-0.8739929
	c0.2310791,0.3269958,0.5161133,0.6109924,0.842041,0.8429871c0.1929932,0.1360168,0.4320068,0.1880188,0.6640625,0.1440125
	l2.125-0.4070129c0.138916-0.0270081,0.2390137-0.1479797,0.2390137-0.2890015V142.2471924z"/>
<line class="st0" x1="97.6922607" y1="157.204071" x2="97.6922607" y2="119.2390747"/>
<line class="st0" x1="97.6922607" y1="117.9792786" x2="97.6922607" y2="115.4602966"/>
<line class="st0" x1="106.3289185" y1="157.204071" x2="106.3289185" y2="119.2390747"/>
<line class="st0" x1="106.3289185" y1="117.9792786" x2="106.3289185" y2="115.4602966"/>
<line class="st0" x1="114.9656372" y1="157.204071" x2="114.9656372" y2="149.9760742"/>
<line class="st0" x1="114.9656372" y1="143.20047" x2="114.9656372" y2="115.4604797"/>
<line class="st0" x1="123.602356" y1="157.204071" x2="123.602356" y2="151.3260803"/>
<line class="st0" x1="123.602356" y1="141.850769" x2="123.602356" y2="135.9727783"/>
<line class="st0" x1="132.2390747" y1="157.204071" x2="132.2390747" y2="151.3790894"/>
<line class="st0" x1="132.2390747" y1="141.7974854" x2="132.2390747" y2="135.9725037"/>
<line class="st0" x1="133.9035034" y1="150.0069885" x2="133.3174438" y2="150.0069885"/>
<line class="st0" x1="115.0026245" y1="150.0069885" x2="90.7196045" y2="150.0069885"/>
<line class="st0" x1="117.7096558" y1="132.7335815" x2="89.055603" y2="132.7335815"/>
<line class="st0" x1="39.4118042" y1="113.79599" x2="39.4118042" y2="118.9140015"/>
<line class="st0" x1="22.1383057" y1="113.79599" x2="22.1383057" y2="118.9140015"/>
<line class="st0" x1="189.3580933" y1="83.8372803" x2="189.3580933" y2="39.0693054"/>
<line class="st0" x1="189.3580933" y1="38.5184631" x2="189.3580933" y2="20.0784912"/>
<line class="st0" x1="197.994812" y1="83.8372803" x2="197.994812" y2="20.0792847"/>
<line class="st0" x1="206.6314087" y1="83.8372803" x2="206.6314087" y2="20.0792847"/>
<line class="st0" x1="215.2680054" y1="42.228363" x2="215.2680054" y2="36.036377"/>
<line class="st0" x1="215.2680054" y1="26.2707825" x2="215.2680054" y2="20.0787964"/>
<line class="st0" x1="223.9047241" y1="42.228363" x2="223.9047241" y2="35.4473877"/>
<line class="st0" x1="223.9047241" y1="26.8599854" x2="223.9047241" y2="20.07901"/>
<line class="st0" x1="214.9623413" y1="66.5640869" x2="186.6642456" y2="66.5640869"/>
<line class="st0" x1="185.4048462" y1="66.5640869" x2="182.8858032" y2="66.5640869"/>
<line class="st0" x1="214.9623413" y1="49.2906799" x2="180.7212524" y2="49.2906799"/>
<line class="st0" x1="231.1559448" y1="32.0171814" x2="230.5698853" y2="32.0171814"/>
<line class="st0" x1="184.9813843" y1="32.0171814" x2="180.7213745" y2="32.0171814"/>
<line class="st0" x1="210.5568237" y1="32.0171814" x2="185.6047974" y2="32.0171814"/>
<polygon class="st1" points="0.125,258.8650818 11.6409912,258.8650818 11.6409912,226.4770813 12.3719482,226.4770813 
	12.3719482,222.4290924 6.6019897,222.4290924 6.6019897,144.9690857 59.8619995,144.9690857 59.8619995,115.460083 
	62.3809814,115.460083 62.3809814,112.1311035 52.3049927,112.1311035 52.3049927,115.460083 54.8239746,115.460083 
	54.8239746,141.6401062 6.6019897,141.6401062 6.6019897,115.460083 9.1209717,115.460083 9.1209717,112.1311035 
	6.6019897,112.1311035 6.6019897,56.263092 15.598999,56.263092 15.598999,52.2140808 14.8789673,52.2140808 14.8789673,48.9760742 
	11.6409912,48.9760742 11.6409912,0.1250916 0.125,0.1250916 "/>
<polygon class="st1" points="87.2113647,229.7162781 87.2113647,226.4772797 86.6703491,226.4772797 86.6703491,222.4292908 
	87.3913574,222.4292908 87.3913574,208.4842834 90.7203369,208.4842834 90.7203369,222.4292908 108.8032837,222.4292908 
	108.8032837,216.8512878 131.6543579,216.8512878 131.6543579,185.2732849 90.7203369,185.2732849 90.7203369,186.8923035 
	87.3913574,186.8923035 87.3913574,141.0102844 90.7203369,141.0102844 90.7203369,180.2352905 133.9032593,180.2352905 
	133.9032593,115.4602966 90.7203369,115.4602966 90.7203369,117.9792786 87.3913574,117.9792786 87.3913574,115.4602966 
	83.9723511,115.4602966 83.9723511,112.1312866 117.2593384,112.1312866 117.2593384,109.6123047 120.5883179,109.6123047 
	120.5883179,112.1312866 138.9413452,112.1312866 138.9413452,229.7162781 "/>
<rect x="147.5784302" y="82.17276" class="st1" width="4.9890137" height="3.32901"/>
<polygon class="st1" points="229.9364624,20.0789795 231.1554565,20.0789795 231.1554565,82.1730042 206.9963989,82.1730042 
	206.9963989,85.5019836 231.1554565,85.5019836 231.1554565,180.8649902 229.3563843,180.8649902 229.3563843,184.9140015 
	230.076355,184.9140015 230.076355,188.1519775 233.3153687,188.1519775 233.3153687,258.8649902 239.7924194,258.8649902 
	239.7924194,0.125 233.3153687,0.125 233.3153687,11.802002 229.9364624,11.802002 "/>
<polygon class="st1" points="210.0142212,11.802063 127.7321167,11.802063 127.7321167,48.9760742 38.2702026,48.9760742 
	38.2702026,52.2140808 37.5501709,52.2140808 37.5501709,56.2630615 117.2592163,56.2630615 117.2592163,88.0210876 
	120.5881958,88.0210876 120.5881958,85.5020752 122.9031372,85.5020752 122.9031372,82.1730652 120.5881958,82.1730652 
	120.5881958,56.2630615 179.5571899,56.2630615 179.5571899,82.1730652 177.2421265,82.1730652 177.2421265,85.5020752 
	185.4052124,85.5020752 185.4052124,82.1730652 182.8861694,82.1730652 182.8861694,52.934082 136.0081177,52.934082 
	136.0081177,20.079071 210.0142212,20.079071 "/>
<line class="st2" x1="166.4710083" y1="180.8650818" x2="138.940979" y2="180.8650818"/>
<line class="st2" x1="166.4710083" y1="188.1521912" x2="138.940979" y2="188.1521912"/>
<polyline class="st2" points="88.7505493,80.0137634 31.7925415,80.0137634 31.7925415,81.0937805 89.0635376,81.0937805 "/>
<line class="st2" x1="229.9364624" y1="20.0789795" x2="210.0143433" y2="20.0789795"/>
<line class="st2" x1="229.9364624" y1="16.8400879" x2="210.0143433" y2="16.8400879"/>
<line class="st3" x1="124.4570923" y1="216.851181" x2="124.4570923" y2="214.709198"/>
<line class="st4" x1="124.4570923" y1="212.6095886" x2="124.4570923" y2="188.4656067"/>
<line class="st3" x1="124.4570923" y1="187.4153748" x2="124.4570923" y2="185.2733765"/>
<line class="st2" x1="166.4710083" y1="184.9134827" x2="230.0759888" y2="184.9134827"/>
<line class="st2" x1="166.4710083" y1="188.1521912" x2="230.0759888" y2="188.1521912"/>
<line class="st3" x1="168.0415649" y1="63.4602661" x2="165.8994751" y2="63.4602661"/>
<line class="st5" x1="163.6275024" y1="63.4602661" x2="123.866394" y2="63.4602661"/>
<line class="st3" x1="122.7305298" y1="63.4602661" x2="120.5884399" y2="63.4602661"/>
<line class="st2" x1="38.2702026" y1="52.2144775" x2="14.8791504" y2="52.2144775"/>
<line class="st2" x1="38.2702026" y1="48.9758911" x2="14.8791504" y2="48.9758911"/>
<line class="st2" x1="11.6405029" y1="226.4775848" x2="87.2114868" y2="226.4775848"/>
<line class="st2" x1="11.6405029" y1="229.7162781" x2="87.2114868" y2="229.7162781"/>
<polygon class="st2" points="136.5123901,231.8753815 138.6713257,231.8753815 138.6713257,239.3053894 231.156311,239.3053894 
	231.156311,241.4653931 136.5123901,241.4653931 "/>
<rect x="90.720459" y="186.8927917" class="st2" width="21.59198" height="1.2590027"/>
<path class="st2" d="M90.7200928,208.484375c11.9249878,0,21.59198-9.6669922,21.59198-21.59198"/>
<path class="st2" d="M164.9048462,85.5016785c0,2.1660156,0.5699463,4.2930298,1.6529541,6.1690063"/>
<path class="st2" d="M163.2520142,91.6704712c1.0828857-1.8759766,1.6529541-4.0029907,1.6529541-6.1689758"/>
<rect x="165.4163971" y="87.4108963" transform="matrix(0.8660259 -0.4999991 0.4999991 0.8660259 -21.0322971 97.587616)" class="st2" width="12.3376007" height="1.2595825"/>
<rect x="157.5948486" y="81.8719025" transform="matrix(0.5000033 -0.8660235 0.8660235 0.5000033 2.8664916 181.0462952)" class="st2" width="1.259552" height="12.3375549"/>
<rect x="185.40448" y="60.58078" class="st2" width="1.2600098" height="21.5920105"/>
<path class="st2" d="M206.9966431,82.1729736c0-11.9249878-9.6671143-21.59198-21.592041-21.59198"/>
<rect x="138.9414673" y="184.9127502" class="st2" width="1.4389648" height="3.2390137"/>
<line class="st2" x1="166.4710083" y1="180.8650818" x2="166.4710083" y2="184.9130859"/>
<line class="st3" x1="6.602356" y1="133.0035706" x2="8.7443237" y2="133.0035706"/>
<line class="st6" x1="10.7414551" y1="133.0035706" x2="51.6834106" y2="133.0035706"/>
<line class="st3" x1="52.6817627" y1="133.0035706" x2="54.8237305" y2="133.0035706"/>
<rect x="90.720459" y="117.9797668" class="st2" width="23.0309448" height="1.2590027"/>
<path class="st2" d="M90.7200928,141.010376c12.7199097,0,23.0309448-10.3109741,23.0309448-23.0309753"/>
<line class="st2" x1="229.9364624" y1="11.802063" x2="210.0143433" y2="11.802063"/>
<line class="st2" x1="35.3912964" y1="82.1729736" x2="35.3912964" y2="81.0929871"/>
<line class="st2" x1="35.3912964" y1="80.0137634" x2="35.3912964" y2="56.2627869"/>
<line class="st2" x1="85.7719727" y1="82.1729736" x2="85.7719727" y2="81.0929871"/>
<line class="st2" x1="85.7719727" y1="80.0137634" x2="85.7719727" y2="70.4477844"/>
<line class="st2" x1="85.7719727" y1="69.1729736" x2="85.7719727" y2="67.7869873"/>
<polyline class="st2" points="82.4025879,56.2328796 85.4765625,67.7038879 88.0205688,68.4228821 83.7025757,69.8628845 
	86.2475586,70.5828857 89.3535767,82.1728821 "/>
<line class="st2" x1="42.588562" y1="82.1729736" x2="42.588562" y2="81.0929871"/>
<line class="st2" x1="42.588562" y1="80.0137634" x2="42.588562" y2="56.2627869"/>
<line class="st2" x1="49.7857056" y1="82.1729736" x2="49.7857056" y2="81.0929871"/>
<line class="st2" x1="49.7857056" y1="80.0137634" x2="49.7857056" y2="56.2627869"/>
<line class="st2" x1="56.9830933" y1="82.1729736" x2="56.9830933" y2="81.0929871"/>
<line class="st2" x1="56.9830933" y1="80.0137634" x2="56.9830933" y2="56.2627869"/>
<line class="st2" x1="64.1802979" y1="82.1729736" x2="64.1802979" y2="81.0929871"/>
<line class="st2" x1="64.1802979" y1="80.0137634" x2="64.1802979" y2="56.2627869"/>
<line class="st2" x1="71.3775024" y1="82.1729736" x2="71.3775024" y2="81.0929871"/>
<line class="st2" x1="71.3775024" y1="80.0137634" x2="71.3775024" y2="56.2627869"/>
<line class="st2" x1="78.574707" y1="82.1729736" x2="78.574707" y2="81.0929871"/>
<line class="st2" x1="78.574707" y1="80.0137634" x2="78.574707" y2="56.2627869"/>
<rect x="228.4974976" y="16.8397522" class="st2" width="1.4389648" height="3.2390137"/>
<rect x="210.0144653" y="16.8397522" class="st2" width="1.4389648" height="3.2390137"/>
<line class="st2" x1="228.4970093" y1="17.5597839" x2="211.4539185" y2="17.5597839"/>
<line class="st2" x1="228.4970093" y1="18.2795715" x2="211.4539185" y2="18.2795715"/>
<rect x="166.4714966" y="184.9137878" class="st2" width="1.4389648" height="3.2390137"/>
<rect x="228.6375122" y="184.9137878" class="st2" width="1.4389648" height="3.2390137"/>
<rect x="185.1835327" y="184.9137878" class="st2" width="1.4389648" height="3.2390137"/>
<line class="st2" x1="167.9103394" y1="187.4324646" x2="185.1832886" y2="187.4324646"/>
<line class="st2" x1="167.9103394" y1="186.7127686" x2="185.1832886" y2="186.7127686"/>
<rect x="206.7754517" y="184.9137878" class="st2" width="1.4389648" height="3.2390137"/>
<line class="st2" x1="186.6231079" y1="187.4324646" x2="206.7750854" y2="187.4324646"/>
<line class="st2" x1="186.6231079" y1="186.7127686" x2="206.7750854" y2="186.7127686"/>
<line class="st2" x1="208.2147827" y1="187.4324646" x2="228.6367798" y2="187.4324646"/>
<line class="st2" x1="208.2147827" y1="186.7127686" x2="228.6367798" y2="186.7127686"/>
<line class="st2" x1="166.4710083" y1="180.8650818" x2="229.3569946" y2="180.8650818"/>
<rect x="140.3804321" y="188.152771" class="st2" width="1.2600098" height="26.0899963"/>
<path class="st2" d="M140.3809204,214.2422791c14.4089355,0,26.0899658-11.6809998,26.0899658-26.0899963"/>
<path class="st2" d="M133.5878296,91.6704712c1.0828857-1.8759766,1.6529541-4.0029907,1.6529541-6.1689758"/>
<path class="st2" d="M135.2407837,85.5016785c0,2.1660156,0.5699463,4.2930298,1.6529541,6.1690063"/>
<rect x="127.9304504" y="81.872139" transform="matrix(0.5000377 -0.8660036 0.8660036 0.5000377 -11.9682455 155.3507538)" class="st7" width="1.2597961" height="12.3371267"/>
<rect x="135.7520905" y="87.4108963" transform="matrix(0.8660259 -0.4999991 0.4999991 0.8660259 -25.0065422 82.7554855)" class="st2" width="12.3376007" height="1.2595825"/>
<rect x="120.5884399" y="108.3537903" class="st2" width="21.592041" height="1.2590027"/>
<path class="st2" d="M142.1801147,109.6123657c0-11.9249878-9.6671143-21.59198-21.592041-21.59198"/>
<rect x="62.3804932" y="115.4597778" class="st2" width="1.2600098" height="21.5920105"/>
<path class="st2" d="M62.3808594,137.0517883c11.9249878,0,21.59198-9.6669922,21.59198-21.59198"/>
<rect x="51.0455322" y="90.5397644" class="st2" width="1.2589722" height="21.5920105"/>
<rect x="9.12146" y="90.5397644" class="st2" width="1.2600098" height="21.5920105"/>
<path class="st2" d="M52.3046875,90.5398865c-11.9250488,0-21.592041,9.6670227-21.592041,21.5920105"/>
<path class="st2" d="M30.7129517,112.1315918c0-11.9249878-9.6670532-21.59198-21.592041-21.59198"/>
<rect x="36.8314209" y="48.975769" class="st2" width="1.4390259" height="3.2390137"/>
<rect x="14.8794556" y="48.975769" class="st2" width="1.4390259" height="3.2390137"/>
<line class="st2" x1="36.8307495" y1="49.6954651" x2="16.3187256" y2="49.6954651"/>
<line class="st2" x1="36.8307495" y1="50.4152832" x2="16.3187256" y2="50.4152832"/>
<line class="st2" x1="37.5504761" y1="56.26297" x2="15.5984497" y2="56.26297"/>
<rect x="11.6405029" y="226.4777832" class="st2" width="1.4390259" height="3.2389984"/>
<rect x="85.7714844" y="226.4777832" class="st2" width="1.4390259" height="3.2389984"/>
<rect x="28.194458" y="226.4777832" class="st2" width="1.4390259" height="3.2389984"/>
<line class="st2" x1="13.079895" y1="228.996582" x2="28.1938477" y2="228.996582"/>
<line class="st2" x1="13.079895" y1="228.2768707" x2="28.1938477" y2="228.2768707"/>
<rect x="69.2185059" y="226.4777832" class="st2" width="1.4390259" height="3.2389984"/>
<line class="st2" x1="29.6333618" y1="228.996582" x2="69.2183228" y2="228.996582"/>
<line class="st2" x1="29.6333618" y1="228.2768707" x2="69.2183228" y2="228.2768707"/>
<line class="st2" x1="70.6576538" y1="228.996582" x2="85.7716064" y2="228.996582"/>
<line class="st2" x1="70.6576538" y1="228.2768707" x2="85.7716064" y2="228.2768707"/>
<line class="st2" x1="12.3601685" y1="222.4290771" x2="86.5031128" y2="222.4290771"/>
<line class="st2" x1="8.041748" y1="205.2905884" x2="8.041748" y2="162.107605"/>
<rect x="6.602478" y="162.1077881" class="st2" width="59.0169678" height="43.1829834"/>
<ellipse class="st2" cx="18.383728" cy="172.9030762" rx="6.9716797" ry="13.0153198"/>
<path class="st2" d="M20.2771606,182.979187c-3.7790527-0.9599915-7.7370605-0.9599915-11.5160522,0
	c0.960022-6.6829834,0.960022-13.4689941,0-20.1519775c3.7789917,0.9599915,7.7369995,0.9599915,11.5160522,0
	c-0.0820312,0.572998-0.15802,1.1470032-0.2260132,1.7219849"/>
<ellipse class="st2" cx="18.383728" cy="194.4947968" rx="6.9716816" ry="13.0153351"/>
<path class="st2" d="M20.2771606,184.4187927c-3.7790527,0.960022-7.7370605,0.960022-11.5160522,0
	c0.960022,6.6830139,0.960022,13.4690247,0,20.1520081c3.7789917-0.9599915,7.7369995-0.9599915,11.5160522,0
	c-0.0820312-0.572998-0.15802-1.1470032-0.2260132-1.7219849"/>
<line class="st2" x1="15.2389526" y1="162.1073914" x2="15.2389526" y2="163.5354004"/>
<line class="st2" x1="24.595459" y1="162.1073914" x2="24.595459" y2="205.2904053"/>
<line class="st2" x1="15.2389526" y1="182.2705688" x2="15.2389526" y2="185.127594"/>
<line class="st2" x1="15.2389526" y1="203.8622742" x2="15.2389526" y2="205.2902832"/>
<path class="st2" d="M20.0513916,181.2572632c0.0679932,0.5750122,0.1429443,1.1490173,0.2259521,1.7220154"/>
<path class="st2" d="M20.2771606,184.4187927c-0.0820312,0.5730286-0.15802,1.1470032-0.2260132,1.7220154"/>
<rect x="8.0415039" y="206.7297668" class="st2" width="11.5159912" height="14.3939972"/>
<rect x="8.0415039" y="146.2737732" class="st2" width="11.5159912" height="14.3940125"/>
<circle class="st2" cx="13.7994385" cy="213.9272766" r="4.2789917"/>
<path class="st2" d="M12.7008057,213.9272766c0-0.6069946,0.4919434-1.098999,1.098999-1.098999
	c0.6069946,0,1.098999,0.4920044,1.098999,1.098999c0,0.6070251-0.4920044,1.0990295-1.098999,1.0990295
	C13.192749,215.0263062,12.7008057,214.5343018,12.7008057,213.9272766z"/>
<line class="st2" x1="18.0787964" y1="213.9272766" x2="14.8987427" y2="213.9272766"/>
<line class="st2" x1="12.7008057" y1="213.9272766" x2="9.520752" y2="213.9272766"/>
<line class="st2" x1="13.7995605" y1="218.2063751" x2="13.7995605" y2="215.0263977"/>
<line class="st2" x1="13.7995605" y1="212.8283691" x2="13.7995605" y2="209.6483765"/>
<ellipse transform="matrix(0.9210822 -0.3893681 0.3893681 0.9210822 -58.6675682 17.4846268)" class="st2" cx="13.7994366" cy="153.4706726" rx="4.2789903" ry="4.279007"/>
<path class="st2" d="M12.7008057,153.4706726c0-0.6069946,0.4919434-1.098999,1.098999-1.098999
	c0.6069946,0,1.098999,0.4920044,1.098999,1.098999c0,0.6070251-0.4920044,1.0990295-1.098999,1.0990295
	C13.192749,154.5697021,12.7008057,154.0776978,12.7008057,153.4706726z"/>
<line class="st2" x1="18.0787964" y1="153.4706726" x2="14.8987427" y2="153.4706726"/>
<line class="st2" x1="12.7008057" y1="153.4706726" x2="9.520752" y2="153.4706726"/>
<line class="st2" x1="13.7995605" y1="157.7495728" x2="13.7995605" y2="154.5695801"/>
<line class="st2" x1="13.7995605" y1="152.371582" x2="13.7995605" y2="149.1915894"/>
<line class="st2" x1="229.7166138" y1="107.0933838" x2="229.7166138" y2="161.7923889"/>
<rect x="172.1384888" y="107.0937805" class="st2" width="59.0169678" height="54.6990051"/>
<path class="st2" d="M214.336731,136.2422791c3.289917,0.960022,6.7858887,0.960022,10.0759277,0
	c-0.7199707,7.6600037-0.7199707,15.3710022,0,23.0310059c-3.2900391-0.9589844-6.7860107-0.9589844-10.0759277,0
	C215.0567017,151.6132812,215.0567017,143.9022827,214.336731,136.2422791z"/>
<path class="st2" d="M217.4812622,135.1626892c3.7789307,0.960022,7.7369385,0.960022,11.5159912,0
	c-0.960083,8.3690186-0.960083,16.8210144,0,25.1900024c-3.7790527-0.9589844-7.7370605-0.9589844-11.5159912,0
	c0.0819092-0.572998,0.1569824-1.1470032,0.2259521-1.7219849"/>
<path class="st2" d="M214.336731,132.6436768c3.289917-0.9599915,6.7858887-0.9599915,10.0759277,0
	c-0.7199707-7.6599731-0.7199707-15.3709717,0-23.0309753c-3.2900391,0.9589844-6.7860107,0.9589844-10.0759277,0
	C215.0567017,117.2727051,215.0567017,124.9837036,214.336731,132.6436768z"/>
<path class="st2" d="M217.4812622,133.7232666c3.7789307-0.9599915,7.7369385-0.9599915,11.5159912,0
	c-0.960083-8.368988-0.960083-16.8209839,0-25.1899719c-3.7790527,0.9589844-7.7370605,0.9589844-11.5159912,0
	c0.0819092,0.572998,0.1569824,1.1469727,0.2259521,1.7209778"/>
<line class="st2" x1="222.5192261" y1="161.7923889" x2="222.5192261" y2="159.6444092"/>
<line class="st2" x1="213.1629028" y1="161.7923889" x2="213.1629028" y2="107.0934143"/>
<line class="st2" x1="222.5192261" y1="135.8712769" x2="222.5192261" y2="133.0142822"/>
<line class="st2" x1="222.5192261" y1="109.2414856" x2="222.5192261" y2="107.0935059"/>
<path class="st2" d="M217.7070923,136.884491c-0.0681152-0.5749817-0.1430664-1.1489868-0.2260742-1.7219849"/>
<path class="st2" d="M217.4812622,133.7232666c0.0819092-0.572998,0.1569824-1.1469727,0.2259521-1.7219849"/>
<rect x="218.2014771" y="163.231781" class="st2" width="11.5159912" height="14.394989"/>
<rect x="218.2014771" y="91.2597656" class="st2" width="11.5159912" height="14.3940125"/>
<path class="st2" d="M219.6797485,170.4290771c0-2.3629761,1.9158936-4.2789917,4.2789307-4.2789917
	s4.2790527,1.9160156,4.2790527,4.2789917c0,2.3630066-1.9160156,4.2790222-4.2790527,4.2790222
	S219.6797485,172.7920837,219.6797485,170.4290771z"/>
<path class="st2" d="M222.8598022,170.4290771c0-0.6069946,0.4919434-1.098999,1.098999-1.098999
	c0.6069336,0,1.098999,0.4920044,1.098999,1.098999c0,0.6070251-0.4920654,1.0990295-1.098999,1.0990295
	C223.3517456,171.5281067,222.8598022,171.0361023,222.8598022,170.4290771z"/>
<line class="st2" x1="223.9586792" y1="174.7081909" x2="223.9586792" y2="171.5281982"/>
<line class="st2" x1="223.9586792" y1="169.3301697" x2="223.9586792" y2="166.150177"/>
<line class="st2" x1="219.6797485" y1="170.4290771" x2="222.8596802" y2="170.4290771"/>
<line class="st2" x1="225.0578003" y1="170.4290771" x2="228.2377319" y2="170.4290771"/>
<path class="st2" d="M219.6797485,98.456665c0-2.3629761,1.9158936-4.2789917,4.2789307-4.2789917
	s4.2790527,1.9160156,4.2790527,4.2789917c0,2.3630066-1.9160156,4.2790222-4.2790527,4.2790222
	S219.6797485,100.8196716,219.6797485,98.456665z"/>
<path class="st2" d="M222.8598022,98.456665c0-0.6069946,0.4919434-1.098999,1.098999-1.098999
	c0.6069336,0,1.098999,0.4920044,1.098999,1.098999c0,0.6070251-0.4920654,1.0990295-1.098999,1.0990295
	C223.3517456,99.5556946,222.8598022,99.0636902,222.8598022,98.456665z"/>
<line class="st2" x1="223.9586792" y1="94.1776733" x2="223.9586792" y2="97.3576965"/>
<line class="st2" x1="223.9586792" y1="99.5557861" x2="223.9586792" y2="102.7358093"/>
<line class="st2" x1="219.6797485" y1="98.456665" x2="222.8596802" y2="98.456665"/>
<line class="st2" x1="225.0578003" y1="98.456665" x2="228.2377319" y2="98.456665"/>
<rect x="184.0663605" y="20.3066502" transform="matrix(0.8660318 -0.4999889 0.4999889 0.8660318 9.5154953 96.2333832)" class="st2" width="0.5398407" height="20.1068573"/>
<line class="st2" x1="180.7213745" y1="20.0789795" x2="180.7213745" y2="23.5589905"/>
<line class="st2" x1="180.7213745" y1="24.6387634" x2="180.7213745" y2="52.9337769"/>
<polyline class="st2" points="179.5430298,20.0789795 179.5430298,21.5180054 179.0029907,21.5180054 179.0029907,20.0789795 "/>
<rect x="179.003479" y="41.6257629" class="st2" width="0.5400391" height="11.3089905"/>
<line class="st2" x1="136.1051636" y1="36.8663635" x2="137.9880981" y2="36.8663635"/>
<line class="st2" x1="137.987854" y1="36.8663635" x2="137.987854" y2="36.1463928"/>
<line class="st2" x1="137.987854" y1="36.1466675" x2="136.1047974" y2="36.1466675"/>
<line class="st2" x1="136.0084839" y1="36.9563904" x2="136.1054077" y2="36.9563904"/>
<line class="st2" x1="136.1051636" y1="36.9563904" x2="136.1051636" y2="36.0563965"/>
<line class="st2" x1="136.1051636" y1="36.0567627" x2="136.0081177" y2="36.0567627"/>
<line class="st2" x1="138.1036987" y1="38.1431885" x2="138.1036987" y2="35.5541992"/>
<line class="st2" x1="137.9452515" y1="34.5593872" x2="137.4221802" y2="34.5593872"/>
<line class="st2" x1="137.4223022" y1="34.5593872" x2="137.4223022" y2="36.1463928"/>
<line class="st2" x1="137.4223022" y1="36.8663635" x2="137.4223022" y2="38.1433716"/>
<line class="st2" x1="137.4223022" y1="38.1431885" x2="138.1032104" y2="38.1431885"/>
<line class="st2" x1="138.1036987" y1="37.4666748" x2="137.4226685" y2="37.4666748"/>
<path class="st2" d="M139.0654907,36.164978c0.5308838,0.0550232,0.9969482-0.4329834,1.0419922-1.0889893
	c0.0449219-0.6560059-0.348999-1.2319946-0.8800049-1.2860107c-0.0531006-0.0059814-0.1060791-0.0059814-0.1600342,0"/>
<path class="st2" d="M138.0220337,34.9744873c-0.0020752,0.65802,0.4279785,1.1930237,0.9609375,1.1940002
	c0.532959,0.0020142,0.9659424-0.5299988,0.9680176-1.1879883c0.0019531-0.6579895-0.4279785-1.1929932-0.9610596-1.1950073
	C138.4569702,33.7845154,138.0239868,34.3164978,138.0220337,34.9744873z"/>
<path class="st2" d="M138.2017212,35.6715698c-0.0300293-0.0359802-0.0600586-0.071991-0.0900879-0.1079712
	c-0.0629883-0.0740051-0.1290283-0.1480103-0.2109375-0.1980286c-0.0510254-0.0309753-0.1090088-0.0539856-0.1669922-0.0619812
	c-0.0280762-0.0039978-0.0560303-0.0050049-0.0839844-0.007019"/>
<path class="st2" d="M138.204895,34.2801819c-0.0310059,0.0370178-0.0620117,0.0750122-0.0941162,0.11203
	c-0.0618896,0.0739746-0.1279297,0.1469727-0.2099609,0.197998c-0.0510254,0.0309753-0.1090088,0.0529785-0.1679688,0.0619812
	c-0.0269775,0.0039978-0.0550537,0.0050049-0.0839844,0.006012"/>
<path class="st2" d="M137.649353,34.6584778c-0.1760254,0.0760193-0.2580566,0.2800293-0.1820068,0.4560242
	c0.0349121,0.0820007,0.0999756,0.1470032,0.1820068,0.1829834"/>
<line class="st2" x1="136.0084839" y1="36.9563904" x2="136.0084839" y2="36.0563965"/>
<path class="st2" d="M144.0730591,35.5802917c0-0.9259949,0.7509766-1.6769714,1.6768799-1.6769714
	c0.9260254,0,1.677002,0.7509766,1.677002,1.6769714c0,0.9260254-0.7509766,1.677002-1.677002,1.677002
	C144.8240356,37.2572937,144.0730591,36.5063171,144.0730591,35.5802917z"/>
<line class="st2" x1="177.8425903" y1="52.9342651" x2="177.8425903" y2="20.0792847"/>
<line class="st2" x1="177.8425903" y1="21.1585693" x2="166.9215698" y2="21.1585693"/>
<polyline class="st2" points="165.3720093,21.1585693 140.0569458,21.1585693 140.0569458,34.5825806 "/>
<path class="st2" d="M179.5430298,41.6254883c3.5299072,0,6.9969482-0.9289856,10.0539551-2.6939697"/>
<line class="st2" x1="165.3606567" y1="21.0336914" x2="166.9336548" y2="21.0336914"/>
<line class="st2" x1="168.7559204" y1="20.6699829" x2="163.5379028" y2="20.6699829"/>
<path class="st2" d="M163.5796509,20.7215881c0.5828857,0.1590271,1.1789551,0.2640076,1.7808838,0.3120117"/>
<path class="st2" d="M166.9332886,21.0336914c0.6019287-0.0489807,1.197998-0.1529846,1.7808838-0.3119812"/>
<line class="st2" x1="168.765686" y1="20.48349" x2="168.7556763" y2="20.6694946"/>
<line class="st2" x1="163.5380249" y1="20.6699829" x2="163.5280151" y2="20.4840088"/>
<path class="st2" d="M168.7142944,20.7215881c0.0229492-0.0059814,0.039917-0.0269775,0.0419922-0.0519714"/>
<path class="st2" d="M163.5380249,20.6699829c0.0009766,0.0240173,0.0179443,0.0450134,0.0419922,0.052002"/>
<line class="st2" x1="166.9220581" y1="21.0336914" x2="166.9220581" y2="21.7167053"/>
<line class="st2" x1="165.3720093" y1="21.7166748" x2="165.3720093" y2="21.0336914"/>
<line class="st2" x1="165.5366821" y1="22.1102905" x2="166.140564" y2="22.1102905"/>
<line class="st2" x1="166.1404419" y1="22.1102905" x2="166.1533813" y2="22.1102905"/>
<line class="st2" x1="166.8921509" y1="22.1102905" x2="166.7571411" y2="22.1102905"/>
<line class="st2" x1="165.5366821" y1="22.1102905" x2="165.4016724" y2="22.1102905"/>
<line class="st2" x1="166.1533813" y1="22.1102905" x2="166.7572632" y2="22.1102905"/>
<line class="st2" x1="166.9005737" y1="22.118866" x2="166.8815308" y2="23.2078857"/>
<line class="st2" x1="165.4124146" y1="23.2079773" x2="165.3933716" y2="22.118988"/>
<path class="st2" d="M166.9005737,22.118866c0-0.0049744-0.0040283-0.0089722-0.0080566-0.0089722"/>
<path class="st2" d="M165.4020386,22.1102905c-0.0050049,0-0.0090332,0.0040283-0.0090332,0.0080261"/>
<path class="st2" d="M165.4124146,23.2079773c0,0.0120239,0.0098877,0.0220032,0.0219727,0.0220032"/>
<path class="st2" d="M166.8596802,23.2302856c0.0119629,0,0.0219727-0.0099792,0.0219727-0.0219727"/>
<path class="st2" d="M165.4342651,23.2302856c0.4749756,0.0180054,0.9509277,0.0180054,1.4249268,0"/>
<path class="st2" d="M166.8146362,22.1102905c0.0699463-0.118988,0.1069336-0.2549744,0.1069336-0.3939819"/>
<path class="st2" d="M165.3720093,21.7166748c0,0.1380005,0.0369873,0.2740173,0.1069336,0.3940125"/>
<line class="st2" x1="163.5282593" y1="20.48349" x2="163.5282593" y2="20.0784912"/>
<line class="st2" x1="168.765686" y1="20.48349" x2="168.765686" y2="20.0784912"/>
<polyline class="st2" points="177.8425903,51.8546753 140.0565796,51.8546753 140.0565796,35.3696899 "/>
<path class="st2" d="M221.4188843,51.9130859c0-0.5999756,0.4869385-1.0869751,1.0869141-1.0869751
	s1.0870361,0.4869995,1.0870361,1.0869751c0,0.6000061-0.4870605,1.0870056-1.0870361,1.0870056
	S221.4188843,52.513092,221.4188843,51.9130859z"/>
<path class="st2" d="M221.8757935,51.9126892c0-0.3479919,0.2819824-0.6299744,0.6298828-0.6299744
	c0.3480225,0,0.6300049,0.2819824,0.6300049,0.6299744c0,0.3480225-0.2819824,0.6300049-0.6300049,0.6300049
	C222.1577759,52.5426941,221.8757935,52.2607117,221.8757935,51.9126892z"/>
<line class="st2" x1="225.4235229" y1="51.4501648" x2="228.8384399" y2="51.4501648"/>
<path class="st2" d="M225.4235229,51.4501648c-0.1411133,0-0.2550049,0.1140137-0.2550049,0.2550049"/>
<path class="st2" d="M225.1685181,52.1210632c0,0.1410217,0.1138916,0.2550049,0.2548828,0.2550049"/>
<line class="st2" x1="225.1685181" y1="51.7051697" x2="225.1685181" y2="52.1211853"/>
<path class="st2" d="M228.9098511,52.2892761c-0.0720215-0.0819702-0.1760254-0.1279907-0.2850342-0.1279907"/>
<path class="st2" d="M228.6245728,51.6652832c0.1088867,0,0.2128906-0.0469971,0.2849121-0.1279907"/>
<line class="st2" x1="227.019104" y1="51.6652832" x2="228.6240845" y2="51.6652832"/>
<line class="st2" x1="228.6244507" y1="52.1608887" x2="227.0193481" y2="52.1608887"/>
<path class="st2" d="M226.8773804,52.019165c0,0.0780029,0.0629883,0.1420288,0.1419678,0.1420288"/>
<line class="st2" x1="226.8773804" y1="51.8071899" x2="226.8773804" y2="52.0191956"/>
<path class="st2" d="M229.1063843,52.4322815c-0.0841064-0.0369873-0.1760254-0.0559998-0.2680664-0.0559998"/>
<path class="st2" d="M228.838562,51.4501648c0.0919189,0,0.1829834-0.0189819,0.2679443-0.0559998"/>
<line class="st2" x1="228.838562" y1="52.3761902" x2="225.4235229" y2="52.3761902"/>
<path class="st2" d="M228.8318481,52.3761902c0.2559814,0.2770081,0.6879883,0.2950134,0.9649658,0.0390015
	c0.2769775-0.2559814,0.2949219-0.6879883,0.0389404-0.9649963c-0.2559814-0.2769775-0.6879883-0.2949829-0.9649658-0.0390015
	c-0.0140381,0.0130005-0.0269775,0.026001-0.0389404,0.0390015"/>
<path class="st2" d="M228.9098511,52.2892761c0.2078857,0.2340088,0.565918,0.256012,0.7999268,0.0480042
	c0.2340088-0.2079773,0.2559814-0.565979,0.0479736-0.7999878s-0.565918-0.256012-0.7999268-0.0480042
	c-0.0170898,0.0150146-0.0330811,0.0310059-0.0479736,0.0480042"/>
<path class="st2" d="M227.019104,51.6652832c-0.0780029,0-0.1420898,0.0640259-0.1420898,0.1420288"/>
<path class="st2" d="M227.883728,51.4501648c-0.2550049-2.9699707-2.8701172-5.17099-5.8410645-4.9159851
	c-2.9699707,0.256012-5.1710205,2.8710022-4.9150391,5.8410034c0.2550049,2.9700012,2.8699951,5.17099,5.8400879,4.9159851
	c2.6159668-0.2249756,4.690918-2.2989807,4.9160156-4.914978"/>
<path class="st2" d="M221.4188843,71.3772888c0-0.5999756,0.4869385-1.0869751,1.0869141-1.0869751
	s1.0870361,0.4869995,1.0870361,1.0869751c0,0.6000061-0.4870605,1.0870056-1.0870361,1.0870056
	S221.4188843,71.9772949,221.4188843,71.3772888z"/>
<path class="st2" d="M221.8757935,71.37677c0-0.3479919,0.2819824-0.6299744,0.6298828-0.6299744
	c0.3480225,0,0.6300049,0.2819824,0.6300049,0.6299744c0,0.3480225-0.2819824,0.6300049-0.6300049,0.6300049
	C222.1577759,72.0067749,221.8757935,71.7247925,221.8757935,71.37677z"/>
<line class="st2" x1="225.4235229" y1="70.9142761" x2="228.8384399" y2="70.9142761"/>
<path class="st2" d="M225.4235229,70.9142761c-0.1411133,0-0.2550049,0.1140137-0.2550049,0.2550049"/>
<path class="st2" d="M225.1685181,71.5852661c0,0.1410217,0.1138916,0.2550049,0.2548828,0.2550049"/>
<line class="st2" x1="225.1685181" y1="71.169281" x2="225.1685181" y2="71.5852966"/>
<path class="st2" d="M228.9098511,71.7533875c-0.0720215-0.0819702-0.1760254-0.1279907-0.2850342-0.1279907"/>
<path class="st2" d="M228.6245728,71.1294861c0.1088867,0,0.2128906-0.0469971,0.2849121-0.1279907"/>
<line class="st2" x1="227.019104" y1="71.1294861" x2="228.6240845" y2="71.1294861"/>
<line class="st2" x1="228.6244507" y1="71.6250916" x2="227.0193481" y2="71.6250916"/>
<path class="st2" d="M226.8773804,71.4832764c0,0.0780029,0.0629883,0.1420288,0.1419678,0.1420288"/>
<line class="st2" x1="226.8773804" y1="71.2712708" x2="226.8773804" y2="71.4832764"/>
<path class="st2" d="M229.1063843,71.8963928c-0.0841064-0.0369873-0.1760254-0.0559998-0.2680664-0.0559998"/>
<path class="st2" d="M228.838562,70.9142761c0.0919189,0,0.1829834-0.0189819,0.2679443-0.0559998"/>
<line class="st2" x1="228.838562" y1="71.840271" x2="225.4235229" y2="71.840271"/>
<path class="st2" d="M228.8318481,71.840271c0.2559814,0.2770081,0.6879883,0.2950134,0.9649658,0.0390015
	c0.2769775-0.2559814,0.2949219-0.6879883,0.0389404-0.9649963c-0.2559814-0.2769775-0.6879883-0.2949829-0.9649658-0.0390015
	c-0.0140381,0.0130005-0.0269775,0.026001-0.0389404,0.0390015"/>
<path class="st2" d="M228.9098511,71.7533875c0.2078857,0.2340088,0.565918,0.256012,0.7999268,0.0480042
	c0.2340088-0.2079773,0.2559814-0.565979,0.0479736-0.7999878s-0.565918-0.256012-0.7999268-0.0480042
	c-0.0170898,0.0150146-0.0330811,0.0310059-0.0479736,0.0480042"/>
<path class="st2" d="M227.019104,71.1294861c-0.0780029,0-0.1420898,0.0630188-0.1420898,0.1420288"/>
<path class="st2" d="M227.883728,70.9142761c-0.2550049-2.9699707-2.8701172-5.17099-5.8410645-4.9159851
	c-2.9699707,0.256012-5.1710205,2.8710022-4.9150391,5.8410034c0.2550049,2.9700012,2.8699951,5.17099,5.8400879,4.9159851
	c2.6159668-0.2249756,4.690918-2.2989807,4.9160156-4.914978"/>
<path class="st2" d="M217.6494751,36.3250732c0.9639893,0,1.9219971-0.1399841,2.8459473-0.414978
	c0.8029785-0.2390137,1.5599365-0.6109924,2.2399902-1.1000061c0.2419434-0.1730042,0.4689941-0.3659973,0.6810303-0.5750122"/>
<path class="st2" d="M217.6494751,36.3250732c-0.9641113,0-1.9221191-0.1399841-2.8460693-0.414978
	c-0.8029785-0.2390137-1.5599365-0.6109924-2.2399902-1.1000061c-0.6540527-0.4700012-1.2010498-1.0750122-1.6030273-1.7730103
	c-0.3299561-0.572998-0.5040283-1.2219849-0.5040283-1.8829956c0-0.6619873,0.1740723-1.3110046,0.5040283-1.8840027
	c0.4019775-0.697998,0.9489746-1.3029785,1.6030273-1.7729797c0.6800537-0.4890137,1.4370117-0.8610229,2.2399902-1.1000061
	c0.9239502-0.2749939,1.881958-0.4150085,2.8460693-0.4150085c0.9639893,0,1.9219971,0.1400146,2.8459473,0.4150085
	c0.8029785,0.2389832,1.5599365,0.6109924,2.2399902,1.1000061c0.2419434,0.1729736,0.4689941,0.3659973,0.6810303,0.5749817
	v6.1629944"/>
<path class="st2" d="M226.7000122,35.2039795c-2.2980957,0.1360168-4.585083,0.428009-6.8441162,0.8740234"/>
<path class="st2" d="M225.8937378,29.1482849c0.098999-0.5149841,0.2619629-1.0159912,0.4838867-1.4909973
	c0.2600098-0.5579834,0.6621094-1.039978,1.1650391-1.3959961c0.1920166-0.1369934,0.4310303-0.1889954,0.6629639-0.144989
	l2.125,0.4069824c0.1390381,0.0270081,0.2390137,0.1480103,0.2390137,0.2890015v8.6820068
	c0,0.1419983-0.0999756,0.2630005-0.2390137,0.2900085l-2.125,0.4060059
	c-0.2319336,0.0449829-0.4709473-0.007019-0.6629639-0.1440125c-0.5029297-0.3569946-0.9050293-0.8379822-1.1650391-1.3959961
	c-0.2219238-0.4760132-0.3848877-0.9760132-0.4838867-1.4909973c-0.1280518-0.6610107-0.1920166-1.3330078-0.1920166-2.006012
	S225.765686,29.8092957,225.8937378,29.1482849z"/>
<path class="st2" d="M226.7000122,27.1031799c-2.2980957-0.1359863-4.585083-0.4279785-6.8441162-0.8739929"/>
<path class="st2" d="M227.3872681,31.1536865c0-0.2979736,0.2419434-0.539978,0.539917-0.539978
	s0.5400391,0.2420044,0.5400391,0.539978c0,0.2980042-0.2420654,0.5400085-0.5400391,0.5400085
	S227.3872681,31.4516907,227.3872681,31.1536865z"/>
<rect x="10.6224976" y="118.9137878" class="st2" width="19.4329834" height="1.1350098"/>
<rect x="31.4945068" y="118.9137878" class="st2" width="19.4329834" height="1.1350098"/>
<line class="st3" x1="30.0552979" y1="120.0483704" x2="30.0552979" y2="121.1193848"/>
<line class="st8" x1="30.0552979" y1="122.1691895" x2="30.0552979" y2="137.3901978"/>
<line class="st3" x1="30.0552979" y1="137.9151917" x2="30.0552979" y2="138.9862061"/>
<line class="st3" x1="30.0552979" y1="138.9861755" x2="28.9842529" y2="138.9861755"/>
<line class="st9" x1="27.9035645" y1="138.9861755" x2="12.2335205" y2="138.9861755"/>
<line class="st3" x1="11.6936646" y1="138.9861755" x2="10.6226196" y2="138.9861755"/>
<line class="st3" x1="10.6228027" y1="138.9861755" x2="10.6228027" y2="137.9151917"/>
<line class="st8" x1="10.6228027" y1="136.865387" x2="10.6228027" y2="121.6444092"/>
<line class="st3" x1="10.6228027" y1="121.1193848" x2="10.6228027" y2="120.0484009"/>
<line class="st3" x1="31.4946899" y1="120.0483704" x2="31.4946899" y2="121.1193848"/>
<line class="st8" x1="31.4946899" y1="122.1691895" x2="31.4946899" y2="137.3901978"/>
<line class="st3" x1="31.4946899" y1="137.9151917" x2="31.4946899" y2="138.9862061"/>
<line class="st3" x1="31.4946899" y1="138.9861755" x2="32.5656738" y2="138.9861755"/>
<line class="st9" x1="33.6463623" y1="138.9861755" x2="49.3163452" y2="138.9861755"/>
<line class="st3" x1="49.8562622" y1="138.9861755" x2="50.9272461" y2="138.9861755"/>
<line class="st3" x1="50.9273071" y1="138.9861755" x2="50.9273071" y2="137.9151917"/>
<line class="st8" x1="50.9273071" y1="136.865387" x2="50.9273071" y2="121.6444092"/>
<line class="st3" x1="50.9273071" y1="121.1193848" x2="50.9273071" y2="120.0484009"/>
<path class="st2" d="M120.3969116,151.7596741c0.9639893,0,1.9219971-0.1399841,2.8459473-0.414978
	c0.8029785-0.2390137,1.5599365-0.6109924,2.2399902-1.1000061c0.2419434-0.1740112,0.4689941-0.3659973,0.6810303-0.5750122"/>
<path class="st2" d="M120.3969116,151.7596741c-0.9641113,0-1.9221191-0.1399841-2.8460693-0.414978
	c-0.8029785-0.2390137-1.5599365-0.6109924-2.2399902-1.1000061c-0.6540527-0.4700012-1.2010498-1.0750122-1.6030273-1.7730103
	c-0.3299561-0.572998-0.5040283-1.2219849-0.5040283-1.8840027c0-0.6609802,0.1740723-1.3099976,0.5040283-1.8829956
	c0.4019775-0.697998,0.9489746-1.3029785,1.6030273-1.7729797c0.6800537-0.4890137,1.4370117-0.8610229,2.2399902-1.1000061
	c0.9239502-0.2749939,1.881958-0.4150085,2.8460693-0.4150085c0.9639893,0,1.9219971,0.1400146,2.8459473,0.4150085
	c0.8029785,0.2389832,1.5599365,0.6109924,2.2399902,1.1000061c0.2419434,0.1729736,0.4689941,0.3659973,0.6810303,0.5759888
	v6.1619873"/>
<path class="st2" d="M129.4473267,150.6386719c-2.2980957,0.1360168-4.585083,0.428009-6.8441162,0.8740234"/>
<path class="st2" d="M128.6410522,144.5829773c0.0999756-0.5149841,0.2619629-1.0159912,0.4838867-1.4909973
	c0.2611084-0.5579834,0.6621094-1.039978,1.1650391-1.3959961c0.1920166-0.1369934,0.4320068-0.1889954,0.6629639-0.144989
	l2.125,0.4069824c0.1390381,0.0270081,0.2390137,0.1480103,0.2390137,0.2890015v8.6820068
	c0,0.1410217-0.0999756,0.2630005-0.2390137,0.2890015l-2.125,0.4070129
	c-0.230957,0.0440063-0.4709473-0.0079956-0.6629639-0.1440125c-0.5029297-0.3569946-0.9039307-0.8379822-1.1650391-1.3970032
	c-0.2219238-0.4750061-0.3839111-0.9750061-0.4838867-1.4899902c-0.1280518-0.6610107-0.1920166-1.3330078-0.1920166-2.006012
	S128.5130005,145.243988,128.6410522,144.5829773z"/>
<path class="st2" d="M129.4473267,142.5378723c-2.2980957-0.1359863-4.585083-0.4279785-6.8441162-0.8739929"/>
<path class="st2" d="M130.1345825,146.5881653c0-0.2979736,0.2419434-0.539978,0.539917-0.539978
	s0.5400391,0.2420044,0.5400391,0.539978c0,0.2980042-0.2420654,0.5400085-0.5400391,0.5400085
	S130.1345825,146.8861694,130.1345825,146.5881653z"/>
<line class="st2" x1="131.2285767" y1="169.3543701" x2="129.5564575" y2="169.3543701"/>
<line class="st2" x1="129.5560913" y1="169.3543701" x2="128.6589966" y2="169.3543701"/>
<path class="st2" d="M128.7041626,169.3543701c-0.0150146,0.0010071-0.0300293,0.0010071-0.0450439,0
	c-0.1989746-0.0159912-0.3499756-0.2319946-0.3370361-0.4829712c0.0119629-0.2510071,0.1829834-0.4420166,0.3820801-0.4260254"/>
<line class="st2" x1="131.2285767" y1="168.4449768" x2="129.5564575" y2="168.4449768"/>
<line class="st2" x1="129.5560913" y1="168.4449768" x2="128.6589966" y2="168.4449768"/>
<line class="st2" x1="133.2733765" y1="171.3466797" x2="133.3562622" y2="171.3466797"/>
<line class="st2" x1="133.2484741" y1="171.3466797" x2="133.3584595" y2="171.3466797"/>
<line class="st2" x1="133.9035034" y1="171.2535706" x2="133.3584595" y2="171.3465881"/>
<line class="st2" x1="131.2285767" y1="169.4610901" x2="131.2285767" y2="168.3381042"/>
<line class="st2" x1="131.2932739" y1="169.4610901" x2="131.2932739" y2="168.3381042"/>
<line class="st2" x1="131.3965454" y1="169.4670715" x2="131.3965454" y2="168.3320923"/>
<line class="st2" x1="133.039856" y1="169.6192627" x2="133.053772" y2="169.6192627"/>
<line class="st2" x1="131.2428589" y1="169.4754639" x2="131.2787476" y2="169.4754639"/>
<line class="st2" x1="131.2428589" y1="169.4754639" x2="131.2787476" y2="169.4754639"/>
<line class="st2" x1="131.3965454" y1="169.4670715" x2="133.0184937" y2="169.4670715"/>
<line class="st2" x1="131.3965454" y1="169.4295654" x2="131.2935181" y2="169.4335938"/>
<line class="st2" x1="130.3577271" y1="169.086792" x2="131.0266724" y2="169.086792"/>
<line class="st2" x1="130.3577271" y1="168.7125854" x2="131.0266724" y2="168.7125854"/>
<line class="st2" x1="131.3965454" y1="168.3696899" x2="131.2935181" y2="168.3656921"/>
<line class="st2" x1="133.0181274" y1="169.5977783" x2="133.0181274" y2="168.2017822"/>
<line class="st2" x1="133.0613403" y1="169.6192627" x2="133.0613403" y2="169.6132812"/>
<line class="st2" x1="133.0613403" y1="169.6192627" x2="133.0613403" y2="168.1802673"/>
<line class="st2" x1="131.3965454" y1="168.3320923" x2="133.0184937" y2="168.3320923"/>
<line class="st2" x1="131.2428589" y1="168.3238831" x2="131.2787476" y2="168.3238831"/>
<line class="st2" x1="131.2428589" y1="168.3238831" x2="131.2787476" y2="168.3238831"/>
<line class="st2" x1="133.039856" y1="168.1798706" x2="133.053772" y2="168.1798706"/>
<line class="st2" x1="133.1765747" y1="171.2747803" x2="133.1765747" y2="166.5247803"/>
<line class="st2" x1="133.9035034" y1="166.5457764" x2="133.9035034" y2="171.2537842"/>
<line class="st2" x1="133.2733765" y1="166.4526672" x2="133.3562622" y2="166.4526672"/>
<line class="st2" x1="133.2484741" y1="166.4526672" x2="133.3584595" y2="166.4526672"/>
<line class="st2" x1="133.9035034" y1="166.5457764" x2="133.3584595" y2="166.4527893"/>
<path class="st2" d="M133.1765747,169.9250793c-0.0310059-0.1039734-0.0700684-0.2069702-0.1151123-0.3059998"/>
<path class="st2" d="M133.0613403,168.1798706c0.0458984-0.098999,0.0839844-0.2009888,0.1149902-0.3059998"/>
<path class="st2" d="M129.9833374,168.8995667c0-0.1289978,0.1049805-0.2339783,0.2338867-0.2339783
	c0.1290283,0,0.2340088,0.1049805,0.2340088,0.2339783c0,0.1290283-0.1049805,0.2340088-0.2340088,0.2340088
	C130.0883179,169.1335754,129.9833374,169.028595,129.9833374,168.8995667z"/>
<path class="st2" d="M131.2285767,169.2883911c0-0.1109924-0.0900879-0.2019958-0.2020264-0.2019958"/>
<path class="st2" d="M131.0270386,168.7125854c0.1109619,0,0.2019043-0.0899963,0.2019043-0.2019958"/>
<path class="st2" d="M133.1765747,171.2747803c0,0.0400085,0.0319824,0.0720215,0.0718994,0.0720215"/>
<path class="st2" d="M133.2484741,166.4526672c-0.0400391,0-0.0720215,0.0320129-0.0720215,0.0720215"/>
<path class="st2" d="M133.039856,168.1798706c-0.012085,0-0.0220947,0.0100098-0.0220947,0.0220032"/>
<path class="st2" d="M133.0181274,169.5977783c0,0.0120239,0.0098877,0.0210266,0.0219727,0.0210266"/>
<path class="st2" d="M131.2932739,168.3382874c0-0.0079956-0.0061035-0.0139771-0.0140381-0.0139771"/>
<path class="st2" d="M131.2428589,168.3238831c-0.0080566,0-0.0140381,0.006012-0.0140381,0.0140076"/>
<path class="st2" d="M131.2285767,169.4610901c0,0.0080261,0.0059814,0.0140076,0.013916,0.0140076"/>
<path class="st2" d="M131.2789917,169.4754639c0.0079346,0,0.013916-0.0069885,0.013916-0.0139771"/>
<path class="st2" d="M125.9865112,168.8995667c0-0.5959778,0.4829102-1.0799866,1.0799561-1.0799866
	c0.5959473,0,1.0789795,0.4840088,1.0789795,1.0799866c0,0.5960083-0.4830322,1.0800171-1.0789795,1.0800171
	C126.4694214,169.9795837,125.9865112,169.495575,125.9865112,168.8995667z"/>
<rect x="90.720459" y="157.2037659" class="st2" width="43.1830444" height="23.0310059"/>
<polyline class="st2" points="130.6646118,169.3543701 130.6646118,177.3563843 104.4135132,177.3563843 "/>
<polyline class="st2" points="102.9360962,177.3563843 93.7790527,177.3563843 93.7790527,160.4433899 130.664978,160.4433899 
	130.664978,168.4454041 "/>
<polyline class="st2" points="129.2251587,169.3543701 129.2251587,176.0973816 100.4361572,176.0973816 100.4361572,161.7023926 
	129.2251587,161.7023926 129.2251587,168.4453735 "/>
<line class="st2" x1="102.8886108" y1="179.2802734" x2="104.4616089" y2="179.2802734"/>
<line class="st2" x1="106.2839966" y1="179.644165" x2="101.065979" y2="179.644165"/>
<path class="st2" d="M102.8886108,179.2802734c-0.6020508,0.0490112-1.1980591,0.1530151-1.7810059,0.3120117"/>
<path class="st2" d="M106.2422485,179.5924683c-0.5830078-0.1589966-1.1790771-0.26297-1.7810059-0.3119812"/>
<line class="st2" x1="106.2936401" y1="179.8306885" x2="106.2836304" y2="179.6447144"/>
<line class="st2" x1="101.0661011" y1="179.644165" x2="101.0560913" y2="179.8301697"/>
<path class="st2" d="M106.2839966,179.644165c-0.0010986-0.0239868-0.0180664-0.0449829-0.0421143-0.0519714"/>
<path class="st2" d="M101.1078491,179.5924683c-0.0240479,0.007019-0.0400391,0.0270081-0.0420532,0.052002"/>
<line class="st2" x1="104.4500122" y1="179.2802734" x2="104.4500122" y2="178.59729"/>
<line class="st2" x1="102.9000854" y1="178.5975647" x2="102.9000854" y2="179.2805786"/>
<line class="st2" x1="103.0647583" y1="178.2038879" x2="103.6686401" y2="178.2038879"/>
<line class="st2" x1="103.6685181" y1="178.2038879" x2="103.6814575" y2="178.2038879"/>
<line class="st2" x1="104.420105" y1="178.2038879" x2="104.2850952" y2="178.2038879"/>
<line class="st2" x1="103.0647583" y1="178.2038879" x2="102.9297485" y2="178.2038879"/>
<line class="st2" x1="103.6814575" y1="178.2038879" x2="104.2853394" y2="178.2038879"/>
<line class="st2" x1="104.4285278" y1="178.1953735" x2="104.4094849" y2="177.1063843"/>
<line class="st2" x1="102.9403687" y1="177.1062927" x2="102.9213257" y2="178.1953125"/>
<path class="st2" d="M104.420105,178.2038879c0.0048828,0,0.0079346-0.0039978,0.0079346-0.0079956"/>
<path class="st2" d="M102.9214478,178.1953735c0,0.0050049,0.0039062,0.0090027,0.0079346,0.0090027"/>
<path class="st2" d="M102.9622192,177.0838928c-0.012085,0.0010071-0.0211182,0.0100098-0.0220947,0.0220032"/>
<path class="st2" d="M104.4096069,177.1062927c0-0.0119934-0.0100098-0.0219727-0.0220947-0.0219727"/>
<path class="st2" d="M104.3877563,177.0838928c-0.4750977-0.0179749-0.9500732-0.0179749-1.4260254,0"/>
<path class="st2" d="M104.4500122,178.5975647c0-0.13797-0.0371094-0.2739868-0.1070557-0.3939819"/>
<path class="st2" d="M103.0073853,178.2038879c-0.0700684,0.1190186-0.1070557,0.2550049-0.1070557,0.3940125"/>
<line class="st2" x1="101.0563965" y1="179.8306885" x2="101.0563965" y2="180.2357178"/>
<line class="st2" x1="106.2936401" y1="179.8306885" x2="106.2936401" y2="180.2357178"/>
<path class="st2" d="M124.1661987,126.2559814c0-0.5999756,0.4869385-1.0869751,1.0869141-1.0869751
	s1.0870361,0.4869995,1.0870361,1.0869751c0,0.6000061-0.4870605,1.0870056-1.0870361,1.0870056
	S124.1661987,126.8559875,124.1661987,126.2559814z"/>
<path class="st2" d="M124.6233521,126.2566833c0-0.3479919,0.2819824-0.6299744,0.6298828-0.6299744
	c0.3480225,0,0.6300049,0.2819824,0.6300049,0.6299744c0,0.3480225-0.2819824,0.6300049-0.6300049,0.6300049
	C124.9053345,126.8866882,124.6233521,126.6047058,124.6233521,126.2566833z"/>
<path class="st2" d="M130.6310425,125.7929688c-0.2561035-2.9699707-2.8710938-5.1699829-5.842041-4.9139709
	c-2.9699707,0.2559814-5.1700439,2.8709717-4.9140625,5.8409729c0.2561035,2.9700012,2.8710938,5.1710205,5.842041,4.9150085
	c2.6149902-0.2259827,4.6889648-2.2999878,4.9140625-4.9159851"/>
<line class="st2" x1="128.1708374" y1="126.7191772" x2="131.5857544" y2="126.7191772"/>
<path class="st2" d="M127.9158325,126.4641724c0,0.1410217,0.1138916,0.2550049,0.2548828,0.2550049"/>
<path class="st2" d="M128.1708374,125.7929688c-0.1411133,0-0.2550049,0.1140137-0.2550049,0.2550049"/>
<line class="st2" x1="127.9158325" y1="126.4641724" x2="127.9158325" y2="126.0481873"/>
<path class="st2" d="M131.3718872,126.0081787c0.1088867,0,0.2128906-0.0469971,0.2849121-0.1279907"/>
<path class="st2" d="M131.6572876,126.6322632c-0.0720215-0.0819702-0.1760254-0.1279907-0.2850342-0.1279907"/>
<line class="st2" x1="129.7665405" y1="126.5039673" x2="131.371521" y2="126.5039673"/>
<line class="st2" x1="131.3718872" y1="126.0081787" x2="129.7667847" y2="126.0081787"/>
<path class="st2" d="M129.7665405,126.0081787c-0.0780029,0-0.1420898,0.0640259-0.1420898,0.1420288"/>
<line class="st2" x1="129.6246948" y1="126.3621826" x2="129.6246948" y2="126.1502075"/>
<path class="st2" d="M131.5861206,125.7929688c0.0919189,0,0.1829834-0.0189819,0.2679443-0.0559998"/>
<path class="st2" d="M131.8536987,126.7750854c-0.0841064-0.0369873-0.1760254-0.0559998-0.2680664-0.0559998"/>
<line class="st2" x1="131.5861206" y1="125.7929688" x2="128.1710815" y2="125.7929688"/>
<path class="st2" d="M131.5791626,126.7191772c0.2559814,0.2770081,0.6879883,0.2950134,0.9649658,0.0390015
	c0.2769775-0.2559814,0.2949219-0.6879883,0.0389404-0.9649963c-0.2559814-0.2769775-0.6879883-0.2949829-0.9649658-0.0390015
	c-0.0130615,0.0120239-0.0269775,0.0250244-0.0389404,0.0390015"/>
<path class="st2" d="M131.6572876,126.6322632c0.2078857,0.2340088,0.565918,0.2550049,0.7999268,0.0480042
	c0.2340088-0.2079773,0.2550049-0.565979,0.0479736-0.7999878c-0.2080078-0.2350159-0.565918-0.256012-0.7999268-0.0480042
	c-0.0170898,0.0150146-0.0330811,0.0310059-0.0479736,0.0480042"/>
<path class="st2" d="M129.6246948,126.3621826c0,0.0780029,0.0629883,0.1420288,0.1419678,0.1420288"/>
<polyline class="st2" points="233.3151245,244.0738831 133.9030151,244.0738831 133.9030151,229.7158966 "/>
<rect x="35.3914795" y="82.17276" class="st2" width="81.867981" height="3.32901"/>
<rect x="214.9624634" y="42.2287903" class="st2" width="16.1939697" height="39.9450073"/>
<polyline class="st2" points="138.977478,33.7857666 138.977478,20.0787964 136.0083618,20.0787964 136.0083618,52.9337769 
	138.977478,52.9337769 138.977478,36.1687927 "/>
<rect x="168.0414429" y="56.2627869" class="st2" width="11.5159912" height="10.0759888"/>
<rect x="6.602478" y="120.04776" class="st2" width="48.2210083" height="21.5920105"/>
<rect x="90.720459" y="216.850769" class="st2" width="18.0829468" height="5.5780029"/>
<line class="st2" x1="121.578186" y1="185.2733765" x2="121.578186" y2="216.8513794"/>
<rect x="117.7095337" y="115.4597778" class="st2" width="16.1939697" height="20.5119934"/>
<line class="st2" x1="120.5884399" y1="66.3390808" x2="168.0413208" y2="66.3390808"/>
<polygon class="st2" points="0.125,258.8650818 11.6409912,258.8650818 11.6409912,226.4770813 12.3719482,226.4770813 
	12.3719482,222.4290924 6.6019897,222.4290924 6.6019897,144.9690857 59.8619995,144.9690857 59.8619995,115.460083 
	62.3809814,115.460083 62.3809814,112.1311035 52.3049927,112.1311035 52.3049927,115.460083 54.8239746,115.460083 
	54.8239746,141.6401062 6.6019897,141.6401062 6.6019897,115.460083 9.1209717,115.460083 9.1209717,112.1311035 
	6.6019897,112.1311035 6.6019897,56.263092 15.598999,56.263092 15.598999,52.2140808 14.8789673,52.2140808 14.8789673,48.9760742 
	11.6409912,48.9760742 11.6409912,0.1250916 0.125,0.1250916 "/>
<polygon class="st2" points="87.2113647,229.7162781 87.2113647,226.4772797 86.6703491,226.4772797 86.6703491,222.4292908 
	87.3913574,222.4292908 87.3913574,208.4842834 90.7203369,208.4842834 90.7203369,222.4292908 108.8032837,222.4292908 
	108.8032837,216.8512878 131.6543579,216.8512878 131.6543579,185.2732849 90.7203369,185.2732849 90.7203369,186.8923035 
	87.3913574,186.8923035 87.3913574,141.0102844 90.7203369,141.0102844 90.7203369,180.2352905 133.9032593,180.2352905 
	133.9032593,115.4602966 90.7203369,115.4602966 90.7203369,117.9792786 87.3913574,117.9792786 87.3913574,115.4602966 
	83.9723511,115.4602966 83.9723511,112.1312866 117.2593384,112.1312866 117.2593384,109.6123047 120.5883179,109.6123047 
	120.5883179,112.1312866 138.9413452,112.1312866 138.9413452,229.7162781 "/>
<polygon class="st2" points="229.9364624,20.0789795 231.1554565,20.0789795 231.1554565,82.1730042 206.9963989,82.1730042 
	206.9963989,85.5019836 231.1554565,85.5019836 231.1554565,180.8649902 229.3563843,180.8649902 229.3563843,184.9140015 
	230.076355,184.9140015 230.076355,188.1519775 233.3153687,188.1519775 233.3153687,258.8649902 239.7924194,258.8649902 
	239.7924194,0.125 233.3153687,0.125 233.3153687,11.802002 229.9364624,11.802002 "/>
<polygon class="st2" points="210.0142212,11.802063 127.7321167,11.802063 127.7321167,48.9760742 38.2702026,48.9760742 
	38.2702026,52.2140808 37.5501709,52.2140808 37.5501709,56.2630615 117.2592163,56.2630615 117.2592163,88.0210876 
	120.5881958,88.0210876 120.5881958,85.5020752 122.9031372,85.5020752 122.9031372,82.1730652 120.5881958,82.1730652 
	120.5881958,56.2630615 179.5571899,56.2630615 179.5571899,82.1730652 177.2421265,82.1730652 177.2421265,85.5020752 
	185.4052124,85.5020752 185.4052124,82.1730652 182.8861694,82.1730652 182.8861694,52.934082 136.0081177,52.934082 
	136.0081177,20.079071 210.0142212,20.079071 "/>
<path class="st2" d="M36.8307495,69.1730652c0-0.7949829-0.644043-1.4389954-1.4390259-1.4399719
	c-0.7949829,0-1.4400024,0.644989-1.4400024,1.4399719c0,0.7950134,0.6450195,1.4390259,1.4400024,1.4390259
	S36.8307495,69.9680786,36.8307495,69.1730652h-1.4390259h44.4420166l-3.5970459-1.3099976v1.3099976"/>
<g>
	<path class="st10" d="M34.3567505,183.1629028c0,0.4091797-0.25,0.6191406-0.4951172,0.7255859
		c0.3701172,0.1113281,0.6679688,0.3251953,0.6679688,0.7578125c0,0.5390625-0.4492188,0.8554688-1.1308594,0.8554688h-1.3857422
		v-3.1191406h1.3271484C33.9553833,182.3826294,34.3567505,182.6863403,34.3567505,183.1629028z M34.0003052,183.211731
		c0-0.3125-0.2451172-0.5126953-0.6914062-0.5126953h-0.9482422v1.0742188h0.921875
		C33.7053833,183.7732544,34.0003052,183.5818481,34.0003052,183.211731z M34.1741333,184.6238403
		c0-0.3427734-0.2851562-0.5390625-0.8291016-0.5390625h-0.984375v1.1005859h1.046875
		C33.8792114,185.1853638,34.1741333,184.9763794,34.1741333,184.6238403z"/>
	<path class="st10" d="M37.7610474,182.7039185h-1.9023438v1.0644531h1.7021484v0.3212891h-1.7021484v1.0908203h1.9248047v0.3212891
		h-2.2763672v-3.1191406h2.2539062V182.7039185z"/>
	<path class="st10" d="M39.7796021,185.50177h-1.0820312v-3.1191406h1.0820312c0.9804688,0,1.6582031,0.6728516,1.6582031,1.5556641
		C41.4378052,184.8201294,40.7600708,185.50177,39.7796021,185.50177z M39.7796021,182.7078247h-0.7304688v2.46875h0.7304688
		c0.7890625,0,1.2929688-0.5351562,1.2929688-1.2294922C41.0725708,183.25177,40.5686646,182.7078247,39.7796021,182.7078247z"/>
	<path class="st10" d="M44.5803833,185.50177l-0.9042969-1.2119141h-0.8916016v1.2119141h-0.3515625v-3.1191406h1.3408203
		c0.6865234,0,1.1269531,0.3701172,1.1269531,0.9316406c0,0.5214844-0.3564453,0.8242188-0.8466797,0.9130859l0.9580078,1.2744141
		H44.5803833z M43.7473755,182.7078247h-0.9628906v1.265625h0.9580078c0.4677734,0,0.8017578-0.2402344,0.8017578-0.6464844
		C44.5442505,182.9402466,44.2503052,182.7078247,43.7473755,182.7078247z"/>
	<path class="st10" d="M47.3069458,185.555481c-0.9482422,0-1.5859375-0.7441406-1.5859375-1.6083984
		s0.6464844-1.6181641,1.5957031-1.6181641c0.9482422,0,1.5859375,0.7441406,1.5859375,1.609375
		C48.9026489,184.8025513,48.2561646,185.555481,47.3069458,185.555481z M47.3069458,182.6550903
		c-0.7128906,0-1.2207031,0.5703125-1.2207031,1.2832031s0.5175781,1.2919922,1.2304688,1.2919922
		s1.2207031-0.5703125,1.2207031-1.2832031S48.0198364,182.6550903,47.3069458,182.6550903z"/>
	<path class="st10" d="M51.3284302,185.555481c-0.9492188,0-1.5869141-0.7441406-1.5869141-1.6083984
		s0.6464844-1.6181641,1.5957031-1.6181641c0.9482422,0,1.5859375,0.7441406,1.5859375,1.609375
		C52.9231567,184.8025513,52.2766724,185.555481,51.3284302,185.555481z M51.3284302,182.6550903
		c-0.7128906,0-1.2216797,0.5703125-1.2216797,1.2832031s0.5175781,1.2919922,1.2304688,1.2919922
		s1.2207031-0.5703125,1.2207031-1.2832031S52.0413208,182.6550903,51.3284302,182.6550903z"/>
	<path class="st10" d="M55.4251099,184.6463013h-0.0185547l-1.1357422-1.6660156v2.5214844h-0.3427734v-3.1191406h0.3564453
		l1.1357422,1.7021484l1.1367188-1.7021484h0.3564453v3.1191406h-0.3525391v-2.5263672L55.4251099,184.6463013z"/>
</g>
<g>
	<path class="st10" d="M184.6282349,132.3328247h-0.0185547l-1.1357422-1.6660156v2.5214844h-0.3427734v-3.1191406h0.3564453
		l1.1357422,1.7021484l1.1367188-1.7021484h0.3564453v3.1191406h-0.3525391v-2.5263672L184.6282349,132.3328247z"/>
	<path class="st10" d="M190.1321411,133.1882935h-0.3779297l-0.3652344-0.8242188h-1.6982422l-0.3701172,0.8242188h-0.3603516
		l1.4208984-3.1416016h0.3300781L190.1321411,133.1882935z M188.5422974,130.4568481l-0.7128906,1.5908203h1.4208984
		L188.5422974,130.4568481z"/>
	<path class="st10" d="M192.1077271,131.4597778c0.6953125,0.1513672,1.015625,0.4052734,1.015625,0.8867188
		c0,0.5390625-0.4453125,0.8867188-1.0644531,0.8867188c-0.4951172,0-0.9003906-0.1650391-1.2744141-0.4990234l0.2177734-0.2587891
		c0.3251953,0.2939453,0.6376953,0.4414062,1.0693359,0.4414062c0.4189453,0,0.6953125-0.21875,0.6953125-0.5351562
		c0-0.2939453-0.15625-0.4589844-0.8105469-0.5966797c-0.7177734-0.15625-1.046875-0.3876953-1.046875-0.9042969
		c0-0.4990234,0.4316406-0.8554688,1.0244141-0.8554688c0.4541016,0,0.7792969,0.1289062,1.0957031,0.3828125l-0.2050781,0.2714844
		c-0.2890625-0.2353516-0.5791016-0.3378906-0.8994141-0.3378906c-0.4052734,0-0.6640625,0.2226562-0.6640625,0.5078125
		C191.2610474,131.1472778,191.4212036,131.3123169,192.1077271,131.4597778z"/>
	<path class="st10" d="M195.2630005,133.1882935h-0.3564453v-2.7939453h-1.046875v-0.3251953h2.4501953v0.3251953h-1.046875
		V133.1882935z"/>
	<path class="st10" d="M199.4280396,130.3904419h-1.9023438v1.0644531h1.7021484v0.3212891h-1.7021484v1.0917969h1.9248047
		v0.3203125h-2.2763672v-3.1191406h2.2539062V130.3904419z"/>
	<path class="st10" d="M202.5130005,133.1882935l-0.9042969-1.2119141h-0.8916016v1.2119141h-0.3515625v-3.1191406h1.3408203
		c0.6865234,0,1.1269531,0.3701172,1.1269531,0.9316406c0,0.5214844-0.3564453,0.8242188-0.8466797,0.9130859l0.9580078,1.2744141
		H202.5130005z M201.6799927,130.3943481h-0.9628906v1.265625h0.9580078c0.4677734,0,0.8017578-0.2402344,0.8017578-0.6455078
		C202.4768677,130.62677,202.1829224,130.3943481,201.6799927,130.3943481z"/>
</g>
<g>
	<path class="st10" d="M182.8108521,135.8377075c0,0.4091797-0.25,0.6191406-0.4951172,0.7255859
		c0.3701172,0.1113281,0.6689453,0.3251953,0.6689453,0.7578125c0,0.5390625-0.4501953,0.8554688-1.1318359,0.8554688h-1.3857422
		v-3.1191406h1.3271484C182.4094849,135.0574341,182.8108521,135.3601685,182.8108521,135.8377075z M182.4544067,135.8865356
		c0-0.3115234-0.2451172-0.5126953-0.6914062-0.5126953h-0.9482422v1.0742188h0.921875
		C182.1594849,136.4480591,182.4544067,136.2566528,182.4544067,135.8865356z M182.6272583,137.298645
		c0-0.3427734-0.2851562-0.5390625-0.828125-0.5390625h-0.984375v1.1005859h1.046875
		C182.333313,137.8601685,182.6272583,137.6511841,182.6272583,137.298645z"/>
	<path class="st10" d="M186.2151489,135.3787231h-1.9023438v1.0644531h1.7021484v0.3212891h-1.7021484v1.0917969h1.9248047
		v0.3203125h-2.2763672v-3.1191406h2.2539062V135.3787231z"/>
	<path class="st10" d="M188.2337036,138.1765747h-1.0820312v-3.1191406h1.0820312
		c0.9804688,0,1.6582031,0.6728516,1.6582031,1.5556641C189.8919067,137.4949341,189.2141724,138.1765747,188.2337036,138.1765747z
		 M188.2337036,135.3826294h-0.7304688v2.46875h0.7304688c0.7890625,0,1.2919922-0.5351562,1.2919922-1.2294922
		C189.5256958,135.9265747,189.0227661,135.3826294,188.2337036,135.3826294z"/>
	<path class="st10" d="M193.0344849,138.1765747l-0.9042969-1.2119141h-0.8916016v1.2119141h-0.3515625v-3.1191406h1.3408203
		c0.6865234,0,1.1269531,0.3701172,1.1269531,0.9316406c0,0.5214844-0.3564453,0.8242188-0.8466797,0.9130859l0.9580078,1.2744141
		H193.0344849z M192.2014771,135.3826294h-0.9628906v1.265625h0.9580078c0.4677734,0,0.8017578-0.2402344,0.8017578-0.6455078
		C192.9983521,135.6150513,192.7044067,135.3826294,192.2014771,135.3826294z"/>
	<path class="st10" d="M195.7620239,138.2302856c-0.9492188,0-1.5869141-0.7441406-1.5869141-1.6083984
		s0.6464844-1.6171875,1.5957031-1.6171875c0.9482422,0,1.5859375,0.7431641,1.5859375,1.6083984
		C197.3567505,137.477356,196.7102661,138.2302856,195.7620239,138.2302856z M195.7620239,135.329895
		c-0.7128906,0-1.2216797,0.5703125-1.2216797,1.2832031s0.5175781,1.2919922,1.2304688,1.2919922
		s1.2207031-0.5703125,1.2207031-1.2832031S196.4749146,135.329895,195.7620239,135.329895z"/>
	<path class="st10" d="M199.7815552,138.2302856c-0.9482422,0-1.5859375-0.7441406-1.5859375-1.6083984
		s0.6464844-1.6171875,1.5957031-1.6171875c0.9482422,0,1.5859375,0.7431641,1.5859375,1.6083984
		C201.3772583,137.477356,200.7307739,138.2302856,199.7815552,138.2302856z M199.7815552,135.329895
		c-0.7128906,0-1.2207031,0.5703125-1.2207031,1.2832031s0.5175781,1.2919922,1.2304688,1.2919922
		s1.2207031-0.5703125,1.2207031-1.2832031S200.4944458,135.329895,199.7815552,135.329895z"/>
	<path class="st10" d="M203.8792114,137.321106h-0.0185547l-1.1357422-1.6660156v2.5214844h-0.3427734v-3.1191406h0.3564453
		l1.1357422,1.7021484l1.1367188-1.7021484h0.3564453v3.1191406h-0.3525391v-2.5263672L203.8792114,137.321106z"/>
</g>
<g>
	<path class="st10" d="M177.5169067,112.9597778h-0.4414062l-1.1982422-1.5107422l-0.6640625,0.6728516v0.8378906h-0.3515625
		v-3.1191406h0.3515625v1.8623047l1.7910156-1.8623047h0.4550781l-1.3369141,1.3632812L177.5169067,112.9597778z"/>
</g>
<g>
	<path class="st10" d="M191.4495239,51.5193481h-1.9023438v1.0649414h1.7021484v0.3208008h-1.7021484v1.0917969h1.9248047v0.3208008
		h-2.2763672v-3.1186523h2.2539062V51.5193481z"/>
	<path class="st10" d="M194.6848755,51.1990356h0.34375v3.1186523h-0.28125l-2.0136719-2.5576172v2.5576172h-0.3427734v-3.1186523
		h0.3291016l1.9648438,2.4995117V51.1990356z"/>
	<path class="st10" d="M197.2796021,52.5886841c0.6953125,0.1518555,1.015625,0.4057617,1.015625,0.8867188
		c0,0.5390625-0.4453125,0.8867188-1.0644531,0.8867188c-0.4951172,0-0.9003906-0.1645508-1.2744141-0.4990234l0.2177734-0.2583008
		c0.3251953,0.2939453,0.6376953,0.440918,1.0693359,0.440918c0.4189453,0,0.6953125-0.2182617,0.6953125-0.534668
		c0-0.2939453-0.15625-0.4584961-0.8105469-0.5966797c-0.7177734-0.15625-1.046875-0.3876953-1.046875-0.9047852
		c0-0.4990234,0.4316406-0.8554688,1.0244141-0.8554688c0.4541016,0,0.7792969,0.1293945,1.0957031,0.3833008l-0.2050781,0.2719727
		c-0.2890625-0.2363281-0.5791016-0.3388672-0.8994141-0.3388672c-0.4052734,0-0.6640625,0.2226562-0.6640625,0.5078125
		C196.4329224,52.2771606,196.5930786,52.4417114,197.2796021,52.5886841z"/>
	<path class="st10" d="M201.7932739,52.9856567c0,0.9086914-0.5205078,1.3808594-1.3007812,1.3808594
		c-0.7705078,0-1.296875-0.472168-1.296875-1.3544922v-1.8129883h0.3525391v1.7910156
		c0,0.6728516,0.3564453,1.0512695,0.953125,1.0512695c0.5751953,0,0.9404297-0.347168,0.9404297-1.0292969v-1.8129883h0.3515625
		V52.9856567z"/>
	<path class="st10" d="M203.2874146,51.1990356v3.1186523h-0.3515625v-3.1186523H203.2874146z"/>
	<path class="st10" d="M205.5667114,54.317688h-0.3564453v-2.793457h-1.046875v-0.3251953h2.4501953v0.3251953h-1.046875V54.317688z
		"/>
	<path class="st10" d="M209.7317505,51.5193481h-1.9023438v1.0649414h1.7021484v0.3208008h-1.7021484v1.0917969h1.9248047v0.3208008
		h-2.2763672v-3.1186523h2.2539062V51.5193481z"/>
</g>
<g>
	<path class="st10" d="M176.4602661,212.9900513c0,0.4091797-0.25,0.6191406-0.4951172,0.7255859
		c0.3701172,0.1113281,0.6679688,0.3251953,0.6679688,0.7578125c0,0.5390625-0.4492188,0.8554688-1.1308594,0.8554688h-1.3857422
		v-3.1191406h1.3271484C176.0588989,212.2097778,176.4602661,212.5125122,176.4602661,212.9900513z M176.1038208,213.0388794
		c0-0.3115234-0.2451172-0.5126953-0.6914062-0.5126953h-0.9482422v1.0742188h0.921875
		C175.8088989,213.6004028,176.1038208,213.4089966,176.1038208,213.0388794z M176.2776489,214.4509888
		c0-0.3427734-0.2851562-0.5390625-0.8291016-0.5390625h-0.984375v1.1005859h1.046875
		C175.9827271,215.0125122,176.2776489,214.8035278,176.2776489,214.4509888z"/>
	<path class="st10" d="M180.4260864,215.3289185h-0.3779297l-0.3662109-0.8242188h-1.6972656l-0.3691406,0.8242188h-0.3613281
		l1.4208984-3.1416016h0.3300781L180.4260864,215.3289185z M178.8362427,212.5974731l-0.7128906,1.5908203h1.4208984
		L178.8362427,212.5974731z"/>
	<path class="st10" d="M181.2698364,212.2097778h0.3515625v2.7939453h1.7558594v0.3251953h-2.1074219V212.2097778z"/>
	<path class="st10" d="M185.5198364,215.3826294c-0.9003906,0-1.5644531-0.7089844-1.5644531-1.6083984
		c0-0.8916016,0.6601562-1.6171875,1.5771484-1.6171875c0.5664062,0,0.9052734,0.2001953,1.2167969,0.4941406l-0.2402344,0.2587891
		c-0.2636719-0.25-0.5576172-0.4277344-0.9804688-0.4277344c-0.6904297,0-1.2080078,0.5566406-1.2080078,1.2832031
		c0,0.7255859,0.5214844,1.2919922,1.2080078,1.2919922c0.4277344,0,0.7080078-0.1650391,1.0068359-0.4501953l0.2314453,0.2275391
		C186.4417114,215.1638794,186.0852661,215.3826294,185.5198364,215.3826294z"/>
	<path class="st10" d="M188.9963989,215.3826294c-0.9492188,0-1.5869141-0.7441406-1.5869141-1.6083984
		s0.6464844-1.6171875,1.5957031-1.6171875c0.9482422,0,1.5859375,0.7431641,1.5859375,1.6083984
		C190.5911255,214.6296997,189.9446411,215.3826294,188.9963989,215.3826294z M188.9963989,212.4822388
		c-0.7128906,0-1.2216797,0.5703125-1.2216797,1.2832031s0.5175781,1.2919922,1.2304688,1.2919922
		s1.2207031-0.5703125,1.2207031-1.2832031S189.7092896,212.4822388,188.9963989,212.4822388z"/>
	<path class="st10" d="M193.8899536,212.2097778h0.34375v3.1191406h-0.28125l-2.0136719-2.5576172v2.5576172h-0.3427734v-3.1191406
		h0.3291016l1.9648438,2.5V212.2097778z"/>
	<path class="st10" d="M196.6985474,215.3289185h-0.3564453v-1.234375l-1.296875-1.8847656h0.4277344l1.0517578,1.5595703
		l1.0605469-1.5595703h0.4101562l-1.296875,1.8808594V215.3289185z"/>
</g>
<g>
	<path class="st10" d="M94.0549927,142.4431763h-1.9023438v1.0644531h1.7021484v0.3212891h-1.7021484v1.0917969h1.9248047v0.3203125
		h-2.2763672v-3.1191406h2.2539062V142.4431763z"/>
	<path class="st10" d="M97.2854614,142.1218872h0.34375v3.1191406h-0.28125l-2.0136719-2.5576172v2.5576172h-0.3427734v-3.1191406
		h0.3291016l1.9648438,2.5V142.1218872z"/>
	<path class="st10" d="M99.8811646,143.5125122c0.6953125,0.1513672,1.015625,0.4052734,1.015625,0.8867188
		c0,0.5390625-0.4453125,0.8867188-1.0644531,0.8867188c-0.4951172,0-0.9003906-0.1650391-1.2744141-0.4990234l0.2177734-0.2587891
		c0.3251953,0.2939453,0.6376953,0.4414062,1.0693359,0.4414062c0.4189453,0,0.6953125-0.21875,0.6953125-0.5351562
		c0-0.2939453-0.15625-0.4589844-0.8105469-0.5966797c-0.7177734-0.15625-1.046875-0.3876953-1.046875-0.9042969
		c0-0.4990234,0.4316406-0.8554688,1.0244141-0.8554688c0.4541016,0,0.7792969,0.1289062,1.0957031,0.3828125l-0.2050781,0.2714844
		c-0.2890625-0.2353516-0.5791016-0.3378906-0.8994141-0.3378906c-0.4052734,0-0.6640625,0.2226562-0.6640625,0.5078125
		C99.0344849,143.2000122,99.1946411,143.3650513,99.8811646,143.5125122z"/>
	<path class="st10" d="M104.3938599,143.9089966c0,0.9091797-0.5205078,1.3808594-1.3007812,1.3808594
		c-0.7705078,0-1.2958984-0.4716797-1.2958984-1.3544922v-1.8134766h0.3515625v1.7910156
		c0,0.6728516,0.3564453,1.0517578,0.953125,1.0517578c0.5751953,0,0.9404297-0.3476562,0.9404297-1.0292969v-1.8134766h0.3515625
		V143.9089966z"/>
	<path class="st10" d="M105.8880005,142.1218872v3.1191406h-0.3515625v-3.1191406H105.8880005z"/>
	<path class="st10" d="M108.1672974,145.2410278h-0.3564453v-2.7939453h-1.046875v-0.3251953h2.4501953v0.3251953h-1.046875
		V145.2410278z"/>
	<path class="st10" d="M112.333313,142.4431763h-1.9023438v1.0644531h1.7021484v0.3212891h-1.7021484v1.0917969h1.9248047v0.3203125
		h-2.2763672v-3.1191406h2.2539062V142.4431763z"/>
</g>
<g>
	<path class="st10" d="M170.2385864,59.9939575h0.3515625v2.7939453h1.7558594v0.3251953h-2.1074219V59.9939575z"/>
	<path class="st10" d="M173.5755005,59.9939575v3.1191406h-0.3515625v-3.1191406H173.5755005z"/>
	<path class="st10" d="M177.0354614,59.9939575h0.34375v3.1191406h-0.28125l-2.0136719-2.5576172v2.5576172h-0.3427734v-3.1191406
		h0.3291016l1.9648438,2.5V59.9939575z"/>
</g>
<g>
	<path class="st10" d="M20.1311646,127.8152466h-1.0820312v-3.1191406h1.0820312
		c0.9804688,0,1.6582031,0.6728516,1.6582031,1.5556641C21.7893677,127.133606,21.1116333,127.8152466,20.1311646,127.8152466z
		 M20.1311646,125.0213013h-0.7304688v2.46875h0.7304688c0.7890625,0,1.2929688-0.5351562,1.2929688-1.2294922
		C21.4241333,125.5652466,20.9202271,125.0213013,20.1311646,125.0213013z"/>
</g>
<g>
	<path class="st10" d="M41.6526489,124.6873169h0.2900391l0.8554688,2.6064453l0.890625-2.5976562h0.3701172l-1.1142578,3.1416016
		h-0.2978516l-0.8554688-2.53125l-0.8603516,2.53125h-0.2939453l-1.1142578-3.1416016h0.3837891l0.890625,2.5976562
		L41.6526489,124.6873169z"/>
</g>
<g>
	<path class="st10" d="M26.1018677,70.7175903h-1.0820312v-3.1191406h1.0820312
		c0.9804688,0,1.6582031,0.6728516,1.6582031,1.5551758S27.0823364,70.7175903,26.1018677,70.7175903z M26.1018677,67.9241333
		h-0.7304688v2.4682617h0.7304688c0.7890625,0,1.2929688-0.534668,1.2929688-1.2299805
		C27.3948364,68.4675903,26.8909302,67.9241333,26.1018677,67.9241333z"/>
	<path class="st10" d="M31.0491333,67.5984497h0.34375v3.1191406h-0.28125l-2.0136719-2.5576172v2.5576172H28.755188v-3.1191406
		h0.3291016l1.9648438,2.5V67.5984497z"/>
</g>
</svg>
