<?xml version="1.0" encoding="utf-8"?>
<!-- Generator: Adobe Illustrator 25.4.1, SVG Export Plug-In . SVG Version: 6.00 Build 0)  -->
<svg version="1.1" id="Layer_1" xmlns="http://www.w3.org/2000/svg" xmlns:xlink="http://www.w3.org/1999/xlink" x="0px" y="0px"
	 viewBox="0 0 318.8164062 258.9909973" style="enable-background:new 0 0 318.8164062 258.9909973;" xml:space="preserve">
<style type="text/css">
	.st0{fill:none;stroke:#99A4B3;stroke-width:0.24;stroke-linecap:round;stroke-linejoin:round;stroke-miterlimit:10;}
	.st1{fill-rule:evenodd;clip-rule:evenodd;fill:#22566E;}
	.st2{fill:none;stroke:#22566E;stroke-width:0.25;stroke-linecap:round;stroke-linejoin:round;stroke-miterlimit:10;}
	
		.st3{fill:none;stroke:#22566E;stroke-width:0.25;stroke-linecap:round;stroke-linejoin:round;stroke-miterlimit:10;stroke-dasharray:2.678,1.339;}
	.st4{fill:none;stroke:#22566E;stroke-width:0.25;stroke-linecap:round;stroke-linejoin:round;}
	.st5{fill:none;stroke:#22566E;stroke-width:0.25;stroke-linecap:round;stroke-linejoin:round;stroke-dasharray:3.9219999,1.961;}
	.st6{fill:none;stroke:#22566E;stroke-width:0.25;stroke-linecap:round;stroke-linejoin:round;stroke-dasharray:2.573,1.2869999;}
	.st7{fill:none;stroke:#22566E;stroke-width:0.25;stroke-linecap:round;stroke-linejoin:round;stroke-miterlimit:10.000001;}
	.st8{fill:none;stroke:#22566E;stroke-width:0.25;stroke-linecap:round;stroke-linejoin:round;stroke-miterlimit:9.9999981;}
	.st9{fill:none;stroke:#22566E;stroke-width:0.25;stroke-linecap:round;stroke-linejoin:round;stroke-dasharray:2.099,1.05;}
	.st10{fill:none;stroke:#22566E;stroke-width:0.25;stroke-linecap:round;stroke-linejoin:round;stroke-dasharray:2.161,1.081;}
	.st11{fill:#22566E;}
</style>
<rect x="88.7402344" y="146.2745667" class="st0" width="11.5159912" height="14.3940125"/>
<rect x="88.7402344" y="206.7315674" class="st0" width="11.5159912" height="14.3939972"/>
<rect x="297.1002197" y="163.2325745" class="st0" width="11.5159912" height="14.394989"/>
<rect x="297.1002197" y="91.2605591" class="st0" width="11.5159912" height="14.3940125"/>
<polygon class="st0" points="87.3011475,56.2637634 87.3011475,112.1317749 90.1801147,112.1317749 90.1801147,90.5407715 
	88.920105,90.5407715 88.920105,113.7967834 132.104126,113.7967834 132.104126,90.5407715 130.8441162,90.5407715 
	130.8441162,112.1317749 141.2800903,112.1317749 141.2800903,137.0527649 142.5401001,137.0527649 142.5401001,115.4607849 
	138.7611084,115.4607849 138.7611084,144.9697876 87.3011475,144.9697876 87.3011475,162.1077881 146.3181152,162.1077881 
	146.3181152,205.2907715 87.3011475,205.2907715 87.3011475,222.4297638 166.2901001,222.4297638 166.2901001,210.283783 
	169.6191406,210.283783 169.6191406,216.8517609 200.4770508,216.8517609 200.4770508,187.0727844 169.6191406,187.0727844 
	169.6191406,189.9517822 191.2110596,189.9517822 191.2110596,188.6927795 166.2901001,188.6927795 166.2901001,141.0107727 
	167.9550781,141.0107727 167.9550781,117.9797668 166.2901001,117.9797668 166.2901001,115.4607849 162.8721313,115.4607849 
	162.8721313,112.1317749 196.1590576,112.1317749 196.1590576,109.6127625 221.0791016,109.6127625 221.0791016,108.3537903 
	199.4880371,108.3537903 199.4880371,112.1317749 217.8400879,112.1317749 217.8400879,180.8657837 310.0550537,180.8657837 
	310.0550537,161.7927856 251.0380859,161.7927856 251.0380859,107.0937805 310.0550537,107.0937805 310.0550537,85.5027771 
	285.8951416,85.5027771 285.8951416,83.8377686 264.3040771,83.8377686 264.3040771,85.5027771 256.0760498,85.5027771 
	245.4571533,91.6707764 244.8271484,90.58078 255.4460449,84.4117737 256.0760498,85.5027771 256.0760498,82.1737671 
	258.4560547,82.1737671 258.4560547,66.3397827 199.4880371,66.3397827 199.4880371,82.1737671 201.802124,82.1737671 
	201.802124,85.5027771 212.4870605,91.6707764 213.0710449,90.553772 202.4321289,84.4117737 201.802124,85.5027771 
	199.4880371,85.5027771 199.4880371,88.0217896 196.1590576,88.0217896 196.1590576,85.5027771 114.2911377,85.5027771 
	114.2911377,81.0937805 110.6921387,81.0937805 110.6921387,80.0147705 114.2911377,80.0147705 114.2911377,56.2637634 "/>
<polygon class="st0" points="215.7928467,91.6712646 226.4768066,85.5022888 231.4667969,85.5022888 242.1507568,91.6712646 
	242.7807617,90.5802917 232.0968018,84.4112854 231.4667969,85.5022888 231.4667969,82.1732788 226.4768066,82.1732788 
	226.4768066,85.5022888 225.8477783,84.4112854 215.1628418,90.5802917 "/>
<line class="st0" x1="92.6989136" y1="222.4295654" x2="92.6989136" y2="221.1245728"/>
<line class="st0" x1="92.6989136" y1="113.7966614" x2="92.6989136" y2="56.2636719"/>
<line class="st0" x1="92.6989136" y1="206.7306824" x2="92.6989136" y2="205.2907104"/>
<line class="st0" x1="92.6989136" y1="146.2739563" x2="92.6989136" y2="144.9689636"/>
<line class="st0" x1="92.6989136" y1="162.1079712" x2="92.6989136" y2="160.6679993"/>
<line class="st0" x1="98.0970459" y1="222.4295654" x2="98.0970459" y2="221.1245728"/>
<line class="st0" x1="98.0970459" y1="113.7966614" x2="98.0970459" y2="56.2636719"/>
<line class="st0" x1="98.0970459" y1="206.7306824" x2="98.0970459" y2="205.2907104"/>
<line class="st0" x1="98.0970459" y1="146.2739563" x2="98.0970459" y2="144.9689636"/>
<line class="st0" x1="98.0970459" y1="162.1079712" x2="98.0970459" y2="160.6679993"/>
<line class="st0" x1="103.494812" y1="222.4295654" x2="103.494812" y2="205.2915649"/>
<line class="st0" x1="103.494812" y1="113.7966614" x2="103.494812" y2="56.2636719"/>
<line class="st0" x1="103.494812" y1="162.1079712" x2="103.494812" y2="144.9699707"/>
<line class="st0" x1="108.8928223" y1="222.4295654" x2="108.8928223" y2="205.2915649"/>
<line class="st0" x1="108.8928223" y1="113.7966614" x2="108.8928223" y2="56.2636719"/>
<line class="st0" x1="108.8928223" y1="162.1079712" x2="108.8928223" y2="144.9699707"/>
<line class="st0" x1="114.2906494" y1="222.4295654" x2="114.2906494" y2="205.2915649"/>
<line class="st0" x1="114.2906494" y1="162.1079712" x2="114.2906494" y2="144.9699707"/>
<line class="st0" x1="114.2906494" y1="113.7966614" x2="114.2906494" y2="85.5026855"/>
<line class="st0" x1="119.6886597" y1="222.4295654" x2="119.6886597" y2="205.2915649"/>
<line class="st0" x1="119.6886597" y1="113.7966614" x2="119.6886597" y2="85.5026855"/>
<line class="st0" x1="119.6886597" y1="162.1079712" x2="119.6886597" y2="144.9699707"/>
<line class="st0" x1="125.0865479" y1="222.4295654" x2="125.0865479" y2="205.2915649"/>
<line class="st0" x1="125.0865479" y1="113.7966614" x2="125.0865479" y2="85.5026855"/>
<line class="st0" x1="125.0865479" y1="162.1079712" x2="125.0865479" y2="144.9699707"/>
<line class="st0" x1="130.4845581" y1="222.4295654" x2="130.4845581" y2="205.2915649"/>
<line class="st0" x1="130.4845581" y1="113.7966614" x2="130.4845581" y2="85.5026855"/>
<line class="st0" x1="130.4845581" y1="162.1079712" x2="130.4845581" y2="144.9699707"/>
<line class="st0" x1="135.8823242" y1="222.4295654" x2="135.8823242" y2="205.2915649"/>
<line class="st0" x1="135.8823242" y1="112.1322632" x2="135.8823242" y2="85.5022888"/>
<line class="st0" x1="135.8823242" y1="162.1079712" x2="135.8823242" y2="144.9699707"/>
<line class="st0" x1="141.2802124" y1="222.4295654" x2="141.2802124" y2="205.2915649"/>
<line class="st0" x1="141.2802124" y1="112.1322632" x2="141.2802124" y2="85.5022888"/>
<line class="st0" x1="141.2802124" y1="162.1079712" x2="141.2802124" y2="137.0529785"/>
<line class="st0" x1="146.6781616" y1="222.4295654" x2="146.6781616" y2="85.5025635"/>
<line class="st0" x1="152.0761108" y1="222.4295654" x2="152.0761108" y2="85.5025635"/>
<line class="st0" x1="157.473938" y1="222.4295654" x2="157.473938" y2="85.5025635"/>
<line class="st0" x1="162.8719482" y1="222.4295654" x2="162.8719482" y2="115.4605713"/>
<line class="st0" x1="162.8719482" y1="112.1322632" x2="162.8719482" y2="85.5022888"/>
<line class="st0" x1="168.2697754" y1="210.2842712" x2="168.2697754" y2="188.6922913"/>
<line class="st0" x1="168.2697754" y1="112.1322632" x2="168.2697754" y2="85.5022888"/>
<line class="st0" x1="173.6677246" y1="216.8516693" x2="173.6677246" y2="189.9516907"/>
<line class="st0" x1="173.6677246" y1="112.1322632" x2="173.6677246" y2="85.5022888"/>
<line class="st0" x1="173.6677246" y1="188.6925659" x2="173.6677246" y2="187.0735779"/>
<line class="st0" x1="179.0656738" y1="216.8516693" x2="179.0656738" y2="189.9516907"/>
<line class="st0" x1="179.0656738" y1="112.1322632" x2="179.0656738" y2="85.5022888"/>
<line class="st0" x1="179.0656738" y1="188.6925659" x2="179.0656738" y2="187.0735779"/>
<line class="st0" x1="184.463623" y1="216.8516693" x2="184.463623" y2="189.9516907"/>
<line class="st0" x1="184.463623" y1="112.1322632" x2="184.463623" y2="85.5022888"/>
<line class="st0" x1="184.463623" y1="188.6925659" x2="184.463623" y2="187.0735779"/>
<line class="st0" x1="189.8614502" y1="216.8516693" x2="189.8614502" y2="189.9516907"/>
<line class="st0" x1="189.8614502" y1="112.1322632" x2="189.8614502" y2="85.5022888"/>
<line class="st0" x1="189.8614502" y1="188.6925659" x2="189.8614502" y2="187.0735779"/>
<line class="st0" x1="195.2595215" y1="216.8516693" x2="195.2595215" y2="187.0736694"/>
<line class="st0" x1="195.2595215" y1="112.1322632" x2="195.2595215" y2="85.5022888"/>
<line class="st0" x1="200.6573486" y1="112.1322632" x2="200.6573486" y2="109.6132812"/>
<line class="st0" x1="200.6573486" y1="82.1736755" x2="200.6573486" y2="66.3396912"/>
<line class="st0" x1="200.6573486" y1="108.3535767" x2="200.6573486" y2="85.502594"/>
<line class="st0" x1="206.0552979" y1="112.1322632" x2="206.0552979" y2="109.6132812"/>
<line class="st0" x1="206.0552979" y1="86.5033569" x2="206.0552979" y2="66.3403625"/>
<line class="st0" x1="206.0552979" y1="108.3535767" x2="206.0552979" y2="87.9575806"/>
<line class="st0" x1="211.453125" y1="112.1322632" x2="211.453125" y2="109.6132812"/>
<line class="st0" x1="211.453125" y1="89.6199646" x2="211.453125" y2="66.3399658"/>
<line class="st0" x1="211.453125" y1="108.3535767" x2="211.453125" y2="91.074585"/>
<line class="st0" x1="216.8510742" y1="112.1322632" x2="216.8510742" y2="109.6132812"/>
<line class="st0" x1="216.8510742" y1="89.6058655" x2="216.8510742" y2="66.3398743"/>
<line class="st0" x1="216.8510742" y1="108.3535767" x2="216.8510742" y2="91.0605774"/>
<line class="st0" x1="222.2489014" y1="180.8656616" x2="222.2489014" y2="87.9436646"/>
<line class="st0" x1="222.2489014" y1="86.4894714" x2="222.2489014" y2="66.3394775"/>
<line class="st0" x1="227.6469727" y1="180.8656616" x2="227.6469727" y2="85.5026855"/>
<line class="st0" x1="227.6469727" y1="82.1736755" x2="227.6469727" y2="66.3396912"/>
<line class="st0" x1="233.0447998" y1="180.8656616" x2="233.0447998" y2="86.4136658"/>
<line class="st0" x1="233.0447998" y1="84.959259" x2="233.0447998" y2="66.340271"/>
<line class="st0" x1="238.442749" y1="180.8656616" x2="238.442749" y2="89.5296631"/>
<line class="st0" x1="238.442749" y1="88.0756836" x2="238.442749" y2="66.3396912"/>
<line class="st0" x1="243.8405762" y1="180.8656616" x2="243.8405762" y2="66.3396606"/>
<line class="st0" x1="249.2385254" y1="180.8656616" x2="249.2385254" y2="89.4746704"/>
<line class="st0" x1="249.2385254" y1="88.0177612" x2="249.2385254" y2="66.3397827"/>
<line class="st0" x1="254.6363525" y1="180.8656616" x2="254.6363525" y2="161.7926636"/>
<line class="st0" x1="254.6363525" y1="84.881958" x2="254.6363525" y2="66.3399658"/>
<line class="st0" x1="254.6363525" y1="107.0940857" x2="254.6363525" y2="86.3391113"/>
<line class="st0" x1="260.0344238" y1="180.8656616" x2="260.0344238" y2="161.7926636"/>
<line class="st0" x1="260.0344238" y1="107.0940857" x2="260.0344238" y2="85.5021057"/>
<line class="st0" x1="265.432251" y1="180.8656616" x2="265.432251" y2="161.7926636"/>
<line class="st0" x1="265.432251" y1="107.0940857" x2="265.432251" y2="83.8381042"/>
<line class="st0" x1="270.8302002" y1="180.8656616" x2="270.8302002" y2="161.7926636"/>
<line class="st0" x1="270.8302002" y1="107.0940857" x2="270.8302002" y2="83.8381042"/>
<line class="st0" x1="276.2280273" y1="180.8656616" x2="276.2280273" y2="161.7926636"/>
<line class="st0" x1="276.2280273" y1="107.0940857" x2="276.2280273" y2="83.8381042"/>
<line class="st0" x1="281.6260986" y1="180.8656616" x2="281.6260986" y2="161.7926636"/>
<line class="st0" x1="281.6260986" y1="107.0940857" x2="281.6260986" y2="83.8381042"/>
<line class="st0" x1="287.0239258" y1="180.8656616" x2="287.0239258" y2="161.7926636"/>
<line class="st0" x1="287.0239258" y1="107.0940857" x2="287.0239258" y2="85.5021057"/>
<line class="st0" x1="292.421875" y1="180.8656616" x2="292.421875" y2="161.7926636"/>
<line class="st0" x1="292.421875" y1="107.0940857" x2="292.421875" y2="85.5021057"/>
<line class="st0" x1="297.8197021" y1="180.8656616" x2="297.8197021" y2="177.6266785"/>
<line class="st0" x1="297.8197021" y1="91.2602844" x2="297.8197021" y2="85.5022888"/>
<line class="st0" x1="297.8197021" y1="163.2323608" x2="297.8197021" y2="161.7933655"/>
<line class="st0" x1="297.8197021" y1="107.0940857" x2="297.8197021" y2="105.6550903"/>
<line class="st0" x1="303.2177734" y1="180.8656616" x2="303.2177734" y2="177.6266785"/>
<line class="st0" x1="303.2177734" y1="91.2602844" x2="303.2177734" y2="85.5022888"/>
<line class="st0" x1="303.2177734" y1="163.2323608" x2="303.2177734" y2="161.7933655"/>
<line class="st0" x1="303.2177734" y1="107.0940857" x2="303.2177734" y2="105.6550903"/>
<line class="st0" x1="308.6156006" y1="180.8656616" x2="308.6156006" y2="177.6266785"/>
<line class="st0" x1="308.6156006" y1="91.2602844" x2="308.6156006" y2="85.5022888"/>
<line class="st0" x1="308.6156006" y1="163.2323608" x2="308.6156006" y2="161.7933655"/>
<line class="st0" x1="308.6156006" y1="107.0940857" x2="308.6156006" y2="105.6550903"/>
<polygon class="st0" points="77.1350098,84.1530762 55.6049805,84.1530762 55.6049805,82.8930969 77.1350098,82.8930969 
	77.1350098,57.7030945 10.9209595,57.7030945 10.9209595,219.6410828 77.1350098,219.6410828 "/>
<polygon class="st0" points="259.6204834,20.0798645 259.6204834,23.5598755 268.4954834,38.9328918 268.0284424,39.2028809 
	259.6204834,24.6398926 259.6204834,52.9348755 261.7844238,52.9348755 261.7844238,82.1738892 264.3034668,82.1738892 
	264.3034668,60.5818787 265.5634766,60.5818787 265.5634766,82.1738892 264.3034668,82.1738892 264.3034668,83.8378906 
	285.8953857,83.8378906 285.8953857,82.1738892 293.8614502,82.1738892 293.8614502,42.2288818 310.0544434,42.2288818 
	310.0544434,20.0798645 "/>
<path class="st0" d="M309.4691162,26.8135681c0-0.1409912-0.1000977-0.26297-0.2390137-0.2889709l-2.125-0.4070129
	c-0.2320557-0.0440063-0.4710693,0.0079956-0.6640625,0.1440125c-0.3259277,0.2319946-0.6109619,0.5159912-0.842041,0.84198
	c-2.2989502-0.1359863-4.5849609-0.4279785-6.8439941-0.8729858c-0.723999-0.1650085-1.4639893-0.2480164-2.2069092-0.2480164
	c-0.9630127,0-1.9219971,0.1400146-2.8450928,0.4150085c-0.8029785,0.2390137-1.5599365,0.6109924-2.2409668,1.1000061
	c-0.6539307,0.4700012-1.1999512,1.0749817-1.6019287,1.7729797c-0.3310547,0.5730286-0.5040283,1.2230225-0.5040283,1.8840027
	c0,0.6610107,0.1729736,1.3110046,0.5040283,1.8840027c0.4019775,0.697998,0.947998,1.302002,1.6019287,1.7730103
	c0.6810303,0.4890137,1.4379883,0.8599854,2.2409668,1.1000061c0.9230957,0.2749939,1.8820801,0.4140015,2.8450928,0.4140015
	c0.7429199,0,1.4829102-0.0830078,2.2069092-0.2470093c2.2590332-0.4450073,4.5450439-0.7369995,6.8439941-0.8739929
	c0.2310791,0.3259888,0.5161133,0.6109924,0.842041,0.8429871c0.1929932,0.1360168,0.4320068,0.1880188,0.6640625,0.1440125
	l2.125-0.4070129c0.138916-0.0270081,0.2390137-0.1479797,0.2390137-0.2890015V26.8135681z"/>
<polygon class="st0" points="169.6193848,159.0039673 212.8023682,159.0039673 212.8023682,135.9729919 196.6082764,135.9729919 
	196.6082764,115.460968 169.6193848,115.460968 169.6193848,119.2389832 192.6502686,119.2389832 192.6502686,117.9799805 
	167.9553223,117.9799805 167.9553223,141.0109863 169.6193848,141.0109863 "/>
<path class="st0" d="M212.2166748,143.1476746c0-0.1409912-0.1000977-0.26297-0.2390137-0.2889709l-2.1260986-0.4070129
	c-0.230957-0.0440063-0.4709473,0.0079956-0.6629639,0.1440125c-0.3259277,0.2309875-0.6109619,0.5159912-0.842041,0.84198
	c-2.2989502-0.1359863-4.5849609-0.4279785-6.8439941-0.8729858c-0.723999-0.1650085-1.4639893-0.2480164-2.2069092-0.2480164
	c-0.9630127,0-1.9219971,0.1400146-2.8450928,0.4150085c-0.8029785,0.2390137-1.5609131,0.6109924-2.2409668,1.1000061
	c-0.6539307,0.4710083-1.1999512,1.0749817-1.6030273,1.7729797c-0.3299561,0.5730286-0.5029297,1.2230225-0.5029297,1.8840027
	c0,0.6610107,0.1729736,1.3110046,0.5029297,1.8840027c0.4030762,0.697998,0.9490967,1.302002,1.6030273,1.7730103
	c0.6800537,0.4890137,1.4379883,0.8599854,2.2409668,1.1000061c0.9230957,0.2749939,1.8820801,0.4140015,2.8450928,0.4140015
	c0.7429199,0,1.4829102-0.0830078,2.2069092-0.2470093c2.2590332-0.4450073,4.5450439-0.7369995,6.8439941-0.8739929
	c0.2310791,0.3259888,0.5161133,0.6109924,0.842041,0.8429871c0.1920166,0.1360168,0.4320068,0.1880188,0.6629639,0.1440125
	l2.1260986-0.4070129c0.138916-0.0270081,0.2390137-0.1479797,0.2390137-0.2890015V143.1476746z"/>
<polygon class="st0" points="133.7231445,115.4608765 132.0421143,115.4608765 132.0421143,113.7969055 88.8580933,113.7969055 
	88.8580933,115.4608765 87.3010864,115.4608765 87.3010864,120.0488892 90.3601074,120.0488892 90.3601074,118.9148865 
	109.7921143,118.9148865 109.7921143,120.0488892 111.2321167,120.0488892 111.2321167,118.9148865 130.6641235,118.9148865 
	130.6641235,120.0488892 133.7231445,120.0488892 "/>
<line class="st0" x1="119.1488037" y1="113.7966614" x2="119.1488037" y2="118.9146729"/>
<line class="st0" x1="101.8755493" y1="113.7966614" x2="101.8755493" y2="118.9146729"/>
<line class="st0" x1="176.5916748" y1="159.0039673" x2="176.5916748" y2="119.2389832"/>
<line class="st0" x1="176.5916748" y1="117.9799805" x2="176.5916748" y2="115.4609985"/>
<line class="st0" x1="185.2281494" y1="159.0039673" x2="185.2281494" y2="119.2389832"/>
<line class="st0" x1="185.2281494" y1="117.9799805" x2="185.2281494" y2="115.4609985"/>
<line class="st0" x1="193.8648682" y1="159.0039673" x2="193.8648682" y2="150.8759766"/>
<line class="st0" x1="193.8648682" y1="144.100769" x2="193.8648682" y2="115.4607849"/>
<line class="st0" x1="202.5015869" y1="159.0039673" x2="202.5015869" y2="152.2259827"/>
<line class="st0" x1="202.5015869" y1="142.7510681" x2="202.5015869" y2="135.9730835"/>
<line class="st0" x1="211.1383057" y1="159.0039673" x2="211.1383057" y2="152.2789917"/>
<line class="st0" x1="211.1383057" y1="142.6977844" x2="211.1383057" y2="135.9728088"/>
<line class="st0" x1="212.8026123" y1="150.0076599" x2="212.2165527" y2="150.0076599"/>
<line class="st0" x1="193.0325928" y1="150.0076599" x2="169.6195068" y2="150.0076599"/>
<line class="st0" x1="196.6087646" y1="132.7342834" x2="167.9547119" y2="132.7342834"/>
<line class="st0" x1="268.2572021" y1="83.8380737" x2="268.2572021" y2="39.0700989"/>
<line class="st0" x1="268.2572021" y1="38.5192566" x2="268.2572021" y2="20.0802612"/>
<line class="st0" x1="276.8939209" y1="83.8380737" x2="276.8939209" y2="20.0800781"/>
<line class="st0" x1="285.5305176" y1="83.8380737" x2="285.5305176" y2="20.0800781"/>
<line class="st0" x1="294.1671143" y1="42.2292786" x2="294.1671143" y2="36.0372925"/>
<line class="st0" x1="294.1671143" y1="26.2716675" x2="294.1671143" y2="20.0796814"/>
<line class="st0" x1="302.803833" y1="42.2292786" x2="302.803833" y2="35.4483032"/>
<line class="st0" x1="302.803833" y1="26.8607788" x2="302.803833" y2="20.0798035"/>
<line class="st0" x1="293.8613281" y1="66.5648804" x2="265.5632324" y2="66.5648804"/>
<line class="st0" x1="264.3039551" y1="66.5648804" x2="261.7849121" y2="66.5648804"/>
<line class="st0" x1="293.8613281" y1="49.2914734" x2="259.6202393" y2="49.2914734"/>
<line class="st0" x1="310.0549316" y1="32.0180664" x2="309.4688721" y2="32.0180664"/>
<line class="st0" x1="263.8803711" y1="32.0180664" x2="259.6203613" y2="32.0180664"/>
<line class="st0" x1="289.4558105" y1="32.0180664" x2="264.5037842" y2="32.0180664"/>
<line class="st0" x1="10.9206543" y1="66.3398743" x2="77.1346436" y2="66.3398743"/>
<line class="st0" x1="10.9206543" y1="83.6131592" x2="55.6056519" y2="83.6131592"/>
<line class="st0" x1="10.9206543" y1="100.8865662" x2="77.1346436" y2="100.8865662"/>
<line class="st0" x1="10.9206543" y1="118.1598816" x2="77.1346436" y2="118.1598816"/>
<line class="st0" x1="10.9206543" y1="135.4331665" x2="77.1346436" y2="135.4331665"/>
<line class="st0" x1="10.9206543" y1="152.7065735" x2="77.1346436" y2="152.7065735"/>
<line class="st0" x1="10.9206543" y1="169.9797668" x2="77.1346436" y2="169.9797668"/>
<line class="st0" x1="10.9206543" y1="187.2531738" x2="77.1346436" y2="187.2531738"/>
<line class="st0" x1="10.9206543" y1="204.5265808" x2="77.1346436" y2="204.5265808"/>
<line class="st0" x1="26.0346069" y1="219.6406708" x2="26.0346069" y2="57.7036743"/>
<line class="st0" x1="43.3081055" y1="219.6406708" x2="43.3081055" y2="57.7036743"/>
<line class="st0" x1="60.5814209" y1="219.6406708" x2="60.5814209" y2="84.1526794"/>
<line class="st0" x1="60.5814209" y1="82.8934631" x2="60.5814209" y2="57.7034912"/>
<polygon class="st1" points="166.1106567,229.7167664 166.1106567,226.4777679 165.5696411,226.4777679 165.5696411,222.4297791 
	166.2906494,222.4297791 166.2906494,210.283783 169.6196289,210.283783 169.6196289,222.4297791 187.7026367,222.4297791 
	187.7026367,216.8517761 210.5535889,216.8517761 210.5535889,187.0727844 169.6196289,187.0727844 169.6196289,188.6927795 
	166.2906494,188.6927795 166.2906494,141.0107727 169.6196289,141.0107727 169.6196289,182.03479 212.8026123,182.03479 
	212.8026123,115.4607849 169.6196289,115.4607849 169.6196289,117.9797668 166.2906494,117.9797668 166.2906494,115.4607849 
	162.8716431,115.4607849 162.8716431,112.132782 196.1585693,112.132782 196.1585693,109.612793 199.4875488,109.612793 
	199.4875488,112.132782 217.8405762,112.132782 217.8405762,229.7167664 "/>
<polygon class="st1" points="308.8354492,11.8029785 312.2143555,11.8029785 312.2143555,0.125 318.6914062,0.125 
	318.6914062,258.8659973 312.2143555,258.8659973 312.2143555,188.1529846 308.9753418,188.1529846 308.9753418,184.9139709 
	308.2553711,184.9139709 308.2553711,180.8659973 310.0544434,180.8659973 310.0544434,85.5019836 285.8953857,85.5019836 
	285.8953857,82.1739807 310.0544434,82.1739807 310.0544434,20.0799866 308.8354492,20.0799866 "/>
<polygon class="st1" points="90.539856,258.8655701 77.1348267,258.8655701 77.1348267,222.519577 83.3428345,222.519577 
	83.3428345,221.7995758 87.3008423,221.7995758 87.3008423,222.4215698 91.2557983,222.4215698 91.2598267,226.4785767 
	90.539856,226.4785767 "/>
<polygon class="st1" points="77.1350098,205.9659729 83.3429565,205.9659729 83.3429565,206.6859741 87.3009644,206.6859741 
	87.3009644,162.242981 83.3429565,162.242981 83.3429565,162.9629822 77.1350098,162.9629822 "/>
<polygon class="st1" points="77.1350098,60.4190674 83.3429565,60.4190674 83.3429565,61.1390686 87.3009644,61.1390686 
	87.3009644,56.2640686 94.4979858,56.2640686 94.4979858,52.2150879 93.7789917,52.2150879 93.7789917,48.9770813 
	90.539978,48.9770813 90.539978,0.1250916 77.1350098,0.1250916 "/>
<rect x="226.4771729" y="82.1735535" class="st1" width="4.9890137" height="3.32901"/>
<polygon class="st1" points="288.913208,11.8029785 206.6311035,11.8029785 206.6311035,48.9769897 117.1691895,48.9769897 
	117.1691895,52.2149963 116.4501953,52.2149963 116.4501953,56.2639771 196.1591797,56.2639771 196.1591797,88.0209961 
	199.4871826,88.0209961 199.4871826,85.5019836 201.802124,85.5019836 201.802124,82.1739807 199.4871826,82.1739807 
	199.4871826,56.2639771 258.4561768,56.2639771 258.4561768,82.1739807 256.0761719,82.1739807 256.0761719,85.5019836 
	264.3041992,85.5019836 264.3041992,82.1739807 261.7851562,82.1739807 261.7851562,52.9349976 214.9082031,52.9349976 
	214.9082031,20.0799866 288.913208,20.0799866 "/>
<polygon class="st1" points="87.3011475,108.8315735 77.1351318,108.8315735 77.1351318,146.4085999 83.3421021,146.4085999 
	83.3421021,147.1286011 87.3011475,147.1286011 87.3011475,144.969574 138.7611084,144.969574 138.7611084,115.4606018 
	141.2800903,115.4606018 141.2800903,112.1325989 132.104126,112.1325989 132.104126,115.4606018 133.7231445,115.4606018 
	133.7231445,141.6405945 87.3011475,141.6405945 87.3011475,115.4606018 88.920105,115.4606018 88.920105,112.1325989 
	87.3011475,112.1325989 "/>
<line class="st2" x1="117.1695557" y1="52.2153625" x2="93.7785034" y2="52.2153625"/>
<line class="st2" x1="117.1695557" y1="48.9766846" x2="93.7785034" y2="48.9766846"/>
<line class="st2" x1="87.3011475" y1="82.8934631" x2="87.3011475" y2="108.8314819"/>
<rect x="217.84021" y="180.8655701" class="st2" width="27.5290527" height="7.2869873"/>
<line class="st2" x1="80.1038208" y1="108.8315735" x2="80.1038208" y2="82.8935852"/>
<polyline class="st2" points="167.6499023,80.0145569 110.6918945,80.0145569 110.6918945,81.094574 167.9628906,81.094574 "/>
<line class="st3" x1="246.9406738" y1="63.4610596" x2="199.4876709" y2="63.4610596"/>
<line class="st2" x1="308.8354492" y1="20.0798645" x2="288.9133301" y2="20.0798645"/>
<line class="st2" x1="308.8354492" y1="16.8409729" x2="288.9133301" y2="16.8409729"/>
<line class="st4" x1="203.3562012" y1="216.8516693" x2="203.3562012" y2="214.7096863"/>
<line class="st5" x1="203.3562012" y1="212.7485657" x2="203.3562012" y2="190.1955872"/>
<line class="st4" x1="203.3562012" y1="189.2151794" x2="203.3562012" y2="187.0731812"/>
<line class="st2" x1="83.3426514" y1="60.4190674" x2="83.3426514" y2="82.8930969"/>
<line class="st2" x1="80.1038208" y1="60.4190674" x2="80.1038208" y2="82.8930969"/>
<line class="st2" x1="83.3426514" y1="146.4088745" x2="83.3426514" y2="162.9628906"/>
<line class="st2" x1="80.1038208" y1="146.4088745" x2="80.1038208" y2="162.9628906"/>
<line class="st2" x1="83.3426514" y1="205.9659729" x2="83.3426514" y2="222.5199738"/>
<line class="st2" x1="80.1038208" y1="205.9659729" x2="80.1038208" y2="222.5199738"/>
<line class="st2" x1="90.539856" y1="226.4780731" x2="166.1108398" y2="226.4780731"/>
<line class="st2" x1="90.539856" y1="229.7167664" x2="166.1108398" y2="229.7167664"/>
<line class="st2" x1="245.3699951" y1="184.9140625" x2="308.9749756" y2="184.9140625"/>
<line class="st2" x1="245.3699951" y1="188.152771" x2="308.9749756" y2="188.152771"/>
<polygon class="st2" points="215.411499,231.8758698 217.5704346,231.8758698 217.5704346,239.3058777 310.0544434,239.3058777 
	310.0544434,241.4658813 215.411499,241.4658813 "/>
<rect x="217.8413086" y="184.9135437" class="st2" width="1.4389648" height="3.2390137"/>
<line class="st2" x1="245.3699951" y1="180.8656616" x2="245.3699951" y2="184.9136658"/>
<rect x="169.6192627" y="188.6925659" class="st2" width="21.592041" height="1.2590027"/>
<path class="st2" d="M169.6193848,210.2842712c11.9249268,0,21.5919189-9.6669922,21.5919189-21.59198"/>
<polyline class="st2" points="77.1350098,57.703186 10.9209595,57.703186 10.9209595,219.6401825 77.1350098,219.6401825 "/>
<line class="st2" x1="77.1350098" y1="222.5194702" x2="77.1350098" y2="205.9654846"/>
<line class="st2" x1="77.1350098" y1="162.9625854" x2="77.1350098" y2="146.4085999"/>
<rect x="80.104248" y="107.3925781" class="st2" width="3.2390137" height="1.4389954"/>
<line class="st2" x1="83.3426514" y1="82.8934631" x2="87.3016357" y2="82.8934631"/>
<path class="st2" d="M243.8040771,85.5024719c0,2.1660156,0.5699463,4.2930298,1.6529541,6.1690063"/>
<path class="st2" d="M242.151123,91.6712646c1.0828857-1.8759766,1.6529541-4.0029907,1.6529541-6.1689758"/>
<rect x="244.3153839" y="87.4116821" transform="matrix(0.8660259 -0.4999991 0.4999991 0.8660259 -10.4622688 137.0371399)" class="st2" width="12.3376007" height="1.2595825"/>
<rect x="236.4939575" y="81.8726883" transform="matrix(0.5000033 -0.8660235 0.8660235 0.5000033 42.3151054 249.3751678)" class="st2" width="1.259552" height="12.3375549"/>
<rect x="264.3041992" y="60.5815735" class="st2" width="1.2600098" height="21.5920105"/>
<path class="st2" d="M285.8956299,82.1736755c0-11.9249878-9.6671143-21.59198-21.592041-21.59198"/>
<rect x="169.6192627" y="117.9795837" class="st2" width="23.0310059" height="1.2590027"/>
<path class="st2" d="M169.6193848,141.0110779c12.7189941,0,23.0308838-10.3109741,23.0308838-23.0309753"/>
<line class="st4" x1="87.3011475" y1="133.0041809" x2="88.6401367" y2="133.0041809"/>
<line class="st6" x1="89.9265137" y1="133.0041809" x2="131.7414551" y2="133.0041809"/>
<line class="st4" x1="132.3844604" y1="133.0041809" x2="133.7234497" y2="133.0041809"/>
<line class="st2" x1="308.8354492" y1="11.8029785" x2="288.9133301" y2="11.8029785"/>
<rect x="115.7302246" y="48.9765625" class="st2" width="1.4390259" height="3.2390137"/>
<rect x="93.7792358" y="48.9765625" class="st2" width="1.4390259" height="3.2390137"/>
<line class="st2" x1="115.7301636" y1="49.6963806" x2="95.2181396" y2="49.6963806"/>
<line class="st2" x1="115.7301636" y1="50.4160767" x2="95.2181396" y2="50.4160767"/>
<line class="st2" x1="116.449707" y1="56.2637634" x2="94.4986572" y2="56.2637634"/>
<line class="st2" x1="114.2906494" y1="82.1736755" x2="114.2906494" y2="81.093689"/>
<line class="st2" x1="114.2906494" y1="80.0145569" x2="114.2906494" y2="56.2635803"/>
<line class="st2" x1="164.6712036" y1="82.1736755" x2="164.6712036" y2="81.093689"/>
<line class="st2" x1="164.6712036" y1="80.0145569" x2="164.6712036" y2="70.4485779"/>
<line class="st2" x1="164.6712036" y1="69.1737671" x2="164.6712036" y2="67.7877808"/>
<polyline class="st2" points="161.302063,56.2336731 164.375061,67.7046814 166.9200439,68.4236755 162.6020508,69.863678 
	165.1470337,70.5836792 168.2519531,82.1736755 "/>
<line class="st2" x1="121.487915" y1="82.1736755" x2="121.487915" y2="81.093689"/>
<line class="st2" x1="121.487915" y1="80.0145569" x2="121.487915" y2="56.2635803"/>
<line class="st2" x1="128.6850586" y1="82.1736755" x2="128.6850586" y2="81.093689"/>
<line class="st2" x1="128.6850586" y1="80.0145569" x2="128.6850586" y2="56.2635803"/>
<line class="st2" x1="135.8823242" y1="82.1736755" x2="135.8823242" y2="81.093689"/>
<line class="st2" x1="135.8823242" y1="80.0145569" x2="135.8823242" y2="56.2635803"/>
<line class="st2" x1="143.0796509" y1="82.1736755" x2="143.0796509" y2="81.093689"/>
<line class="st2" x1="143.0796509" y1="80.0145569" x2="143.0796509" y2="56.2635803"/>
<line class="st2" x1="150.2766113" y1="82.1736755" x2="150.2766113" y2="81.093689"/>
<line class="st2" x1="150.2766113" y1="80.0145569" x2="150.2766113" y2="56.2635803"/>
<line class="st2" x1="157.473938" y1="82.1736755" x2="157.473938" y2="81.093689"/>
<line class="st2" x1="157.473938" y1="80.0145569" x2="157.473938" y2="56.2635803"/>
<line class="st2" x1="77.1350098" y1="60.4190674" x2="77.1350098" y2="108.8310852"/>
<rect x="307.3962402" y="16.8405457" class="st2" width="1.4389648" height="3.2390137"/>
<rect x="288.913208" y="16.8405457" class="st2" width="1.4389648" height="3.2390137"/>
<line class="st2" x1="307.3959961" y1="17.5606689" x2="290.3529053" y2="17.5606689"/>
<line class="st2" x1="307.3959961" y1="18.280365" x2="290.3529053" y2="18.280365"/>
<path class="st2" d="M212.4869385,91.6712646c1.0828857-1.8759766,1.6529541-4.0029907,1.6529541-6.1689758"/>
<path class="st2" d="M214.1398926,85.5024719c0,2.1660156,0.5699463,4.2930298,1.6529541,6.1690063"/>
<rect x="206.8295593" y="81.8729401" transform="matrix(0.5000377 -0.8660036 0.8660036 0.5000377 27.4776382 223.6780701)" class="st7" width="1.2597961" height="12.3371267"/>
<rect x="214.6516266" y="87.4115601" transform="matrix(0.8660061 -0.5000334 0.5000334 0.8660061 -14.4351177 122.2145081)" class="st8" width="12.3371878" height="1.2598265"/>
<rect x="80.1032104" y="60.4195862" class="st2" width="3.2390137" height="1.4389954"/>
<rect x="80.1032104" y="81.4545898" class="st2" width="3.2390137" height="1.4389954"/>
<line class="st2" x1="80.8236084" y1="61.8584595" x2="80.8236084" y2="81.4534607"/>
<line class="st2" x1="81.5432129" y1="61.8584595" x2="81.5432129" y2="81.4534607"/>
<line class="st2" x1="87.3011475" y1="61.1387634" x2="87.3011475" y2="82.8937683"/>
<rect x="80.1032104" y="146.4095764" class="st2" width="3.2390137" height="1.4389954"/>
<rect x="80.1032104" y="161.5235901" class="st2" width="3.2390137" height="1.4389954"/>
<line class="st2" x1="80.8236084" y1="147.8483582" x2="80.8236084" y2="161.5233765"/>
<line class="st2" x1="81.5432129" y1="147.8483582" x2="81.5432129" y2="161.5233765"/>
<line class="st2" x1="87.3011475" y1="147.1285706" x2="87.3011475" y2="162.2425842"/>
<rect x="80.1032104" y="205.9665833" class="st2" width="3.2390137" height="1.4389954"/>
<rect x="80.1032104" y="221.0805817" class="st2" width="3.2390137" height="1.4389954"/>
<line class="st2" x1="80.8236084" y1="207.405365" x2="80.8236084" y2="221.080368"/>
<line class="st2" x1="81.5432129" y1="207.405365" x2="81.5432129" y2="221.080368"/>
<line class="st2" x1="87.3011475" y1="206.6856689" x2="87.3011475" y2="221.7996826"/>
<rect x="199.4871826" y="108.3545837" class="st2" width="21.592041" height="1.2590027"/>
<path class="st2" d="M221.0793457,109.6130676c0-11.9249878-9.6671143-21.59198-21.592041-21.59198"/>
<rect x="141.2802124" y="115.4605713" class="st2" width="1.2600098" height="21.5920105"/>
<path class="st2" d="M141.2802124,137.0524597c11.9249878,0,21.59198-9.6669922,21.59198-21.59198"/>
<rect x="130.8442383" y="90.5405579" class="st2" width="1.2600098" height="21.5920105"/>
<rect x="88.9212646" y="90.5405579" class="st2" width="1.2589722" height="21.5920105"/>
<path class="st2" d="M132.1038208,90.5405579c-11.9250488,0-21.592041,9.6670227-21.592041,21.5920105"/>
<path class="st2" d="M110.512146,112.1322632c0-11.9249878-9.6670532-21.59198-21.592041-21.59198"/>
<rect x="90.5402222" y="226.4775696" class="st2" width="1.4390259" height="3.2389984"/>
<rect x="164.6712036" y="226.4775696" class="st2" width="1.4390259" height="3.2389984"/>
<rect x="107.0932617" y="226.4775696" class="st2" width="1.4400024" height="3.2389984"/>
<line class="st2" x1="91.979248" y1="228.9970703" x2="107.0932007" y2="228.9970703"/>
<line class="st2" x1="91.979248" y1="228.2773743" x2="107.0932007" y2="228.2773743"/>
<rect x="148.1172485" y="226.4775696" class="st2" width="1.4390259" height="3.2389984"/>
<line class="st2" x1="108.532959" y1="228.9970703" x2="148.1179199" y2="228.9970703"/>
<line class="st2" x1="108.532959" y1="228.2773743" x2="148.1179199" y2="228.2773743"/>
<line class="st2" x1="149.5569458" y1="228.9970703" x2="164.6708984" y2="228.9970703"/>
<line class="st2" x1="149.5569458" y1="228.2773743" x2="164.6708984" y2="228.2773743"/>
<line class="st2" x1="91.2595215" y1="222.4295654" x2="165.4024658" y2="222.4295654"/>
<rect x="245.3702393" y="184.9145813" class="st2" width="1.4389648" height="3.2390137"/>
<rect x="307.5362549" y="184.9145813" class="st2" width="1.4389648" height="3.2390137"/>
<rect x="264.0822754" y="184.9145813" class="st2" width="1.4399414" height="3.2390137"/>
<line class="st2" x1="246.8094482" y1="187.433075" x2="264.0823975" y2="187.433075"/>
<line class="st2" x1="246.8094482" y1="186.7133789" x2="264.0823975" y2="186.7133789"/>
<rect x="285.6741943" y="184.9145813" class="st2" width="1.4399414" height="3.2390137"/>
<line class="st2" x1="265.5223389" y1="187.433075" x2="285.6743164" y2="187.433075"/>
<line class="st2" x1="265.5223389" y1="186.7133789" x2="285.6743164" y2="186.7133789"/>
<line class="st2" x1="287.1138916" y1="187.433075" x2="307.5358887" y2="187.433075"/>
<line class="st2" x1="287.1138916" y1="186.7133789" x2="307.5358887" y2="186.7133789"/>
<line class="st2" x1="245.3699951" y1="180.8656616" x2="308.2559814" y2="180.8656616"/>
<rect x="55.6052246" y="82.8935852" class="st2" width="24.4990234" height="1.2600098"/>
<path class="st2" d="M55.6051636,82.8934631c0,13.5300293,10.9689941,24.4990234,24.4989624,24.4990234"/>
<rect x="219.2802734" y="188.1525879" class="st2" width="1.2600098" height="26.0899963"/>
<path class="st2" d="M219.2800293,214.2427673c14.4089355,0,26.0899658-11.6809998,26.0899658-26.0899963"/>
<line class="st2" x1="88.7406616" y1="205.2910767" x2="88.7406616" y2="162.1080933"/>
<rect x="87.3012085" y="162.1075745" class="st2" width="59.0170288" height="43.1830139"/>
<ellipse class="st2" cx="99.0823975" cy="172.9036865" rx="6.9716797" ry="13.0153198"/>
<path class="st2" d="M100.9758301,182.9797668c-3.7790527-0.9599915-7.7370605-0.9599915-11.5160522,0
	c0.960022-6.6829834,0.960022-13.4689941,0-20.1519775c3.7789917,0.9599915,7.7369995,0.9599915,11.5160522,0
	c-0.0820312,0.572998-0.15802,1.1470032-0.2260132,1.7219849"/>
<ellipse class="st2" cx="99.0823975" cy="194.4953766" rx="6.9716797" ry="13.0153351"/>
<path class="st2" d="M100.9758301,184.4193726c-3.7790527,0.960022-7.7370605,0.960022-11.5160522,0
	c0.960022,6.6830139,0.960022,13.4690247,0,20.1520081c3.7789917-0.9599915,7.7369995-0.9599915,11.5160522,0
	c-0.0820312-0.572998-0.15802-1.1470032-0.2260132-1.7219849"/>
<line class="st2" x1="95.9376221" y1="162.1079712" x2="95.9376221" y2="163.5359802"/>
<line class="st2" x1="105.2940063" y1="162.1079712" x2="105.2940063" y2="205.2909851"/>
<line class="st2" x1="95.9376221" y1="182.2710571" x2="95.9376221" y2="185.1280823"/>
<line class="st2" x1="95.9376221" y1="203.8627625" x2="95.9376221" y2="205.2907715"/>
<path class="st2" d="M100.750061,181.2578735c0.0679932,0.5750122,0.1429443,1.1490173,0.2259521,1.7220154"/>
<path class="st2" d="M100.9758301,184.4193726c-0.0820312,0.5730286-0.15802,1.1470032-0.2260132,1.7220154"/>
<rect x="88.7402344" y="206.7305603" class="st2" width="11.5159912" height="14.3939972"/>
<rect x="88.7402344" y="146.2745667" class="st2" width="11.5159912" height="14.3940125"/>
<circle class="st2" cx="94.4981079" cy="213.9277649" r="4.2789917"/>
<path class="st2" d="M93.399353,213.9277649c0-0.6069946,0.4919434-1.098999,1.098999-1.098999
	c0.6069946,0,1.098999,0.4920044,1.098999,1.098999c0,0.6070251-0.4920044,1.0990295-1.098999,1.0990295
	C93.8912964,215.0267944,93.399353,214.53479,93.399353,213.9277649z"/>
<line class="st2" x1="98.7774048" y1="213.9277649" x2="95.5973511" y2="213.9277649"/>
<line class="st2" x1="93.399353" y1="213.9277649" x2="90.2192993" y2="213.9277649"/>
<line class="st2" x1="94.4983521" y1="218.2069702" x2="94.4983521" y2="215.0269775"/>
<line class="st2" x1="94.4983521" y1="212.8288574" x2="94.4983521" y2="209.6488647"/>
<ellipse transform="matrix(0.9238794 -0.3826838 0.3826838 0.9238794 -51.5377274 47.8452263)" class="st2" cx="94.4981079" cy="153.4712982" rx="4.2789917" ry="4.279007"/>
<path class="st2" d="M93.399353,153.471283c0-0.6069946,0.4919434-1.098999,1.098999-1.098999
	c0.6069946,0,1.098999,0.4920044,1.098999,1.098999c0,0.6070251-0.4920044,1.0990295-1.098999,1.0990295
	C93.8912964,154.5703125,93.399353,154.0783081,93.399353,153.471283z"/>
<line class="st2" x1="98.7774048" y1="153.471283" x2="95.5973511" y2="153.471283"/>
<line class="st2" x1="93.399353" y1="153.471283" x2="90.2192993" y2="153.471283"/>
<line class="st2" x1="94.4983521" y1="157.7501831" x2="94.4983521" y2="154.5701904"/>
<line class="st2" x1="94.4983521" y1="152.3722839" x2="94.4983521" y2="149.1922913"/>
<line class="st2" x1="308.6156006" y1="107.0940857" x2="308.6156006" y2="161.7930908"/>
<rect x="251.038208" y="107.0935669" class="st2" width="59.0169678" height="54.6990051"/>
<path class="st2" d="M293.2357178,136.2428589c3.289917,0.960022,6.7858887,0.960022,10.0759277,0
	c-0.7199707,7.6600037-0.7199707,15.3710022,0,23.0310059c-3.2900391-0.9599915-6.7860107-0.9599915-10.0759277,0
	C293.9556885,151.6138611,293.9556885,143.9028625,293.2357178,136.2428589z"/>
<path class="st2" d="M296.380249,135.1633606c3.7789307,0.960022,7.7369385,0.960022,11.5159912,0
	c-0.960083,8.3690186-0.960083,16.8210144,0,25.1900024c-3.7790527-0.9589844-7.7370605-0.9589844-11.5159912,0
	c0.0819092-0.572998,0.157959-1.1470032,0.2259521-1.7219849"/>
<path class="st2" d="M293.2357178,132.6443787c3.289917-0.9599915,6.7858887-0.9599915,10.0759277,0
	c-0.7199707-7.6599731-0.7199707-15.3709717,0-23.0309753c-3.2900391,0.9589844-6.7860107,0.9589844-10.0759277,0
	C293.9556885,117.273407,293.9556885,124.9844055,293.2357178,132.6443787z"/>
<path class="st2" d="M296.380249,133.723877c3.7789307-0.9599915,7.7369385-0.9599915,11.5159912,0
	c-0.960083-8.368988-0.960083-16.8209839,0-25.1899719c-3.7790527,0.9589844-7.7370605,0.9589844-11.5159912,0
	c0.0819092,0.572998,0.157959,1.1469727,0.2259521,1.7209778"/>
<line class="st2" x1="301.418335" y1="161.7929688" x2="301.418335" y2="159.644989"/>
<line class="st2" x1="292.0620117" y1="161.7929688" x2="292.0620117" y2="107.0939941"/>
<line class="st2" x1="301.418335" y1="135.8719788" x2="301.418335" y2="133.0149841"/>
<line class="st2" x1="301.418335" y1="109.242157" x2="301.418335" y2="107.0941772"/>
<path class="st2" d="M296.6060791,136.8851624c-0.0681152-0.5749817-0.1430664-1.1489868-0.2260742-1.7219849"/>
<path class="st2" d="M296.380249,133.723877c0.0819092-0.572998,0.157959-1.1469727,0.2259521-1.7219849"/>
<rect x="297.1002197" y="163.2325745" class="st2" width="11.5159912" height="14.394989"/>
<rect x="297.1002197" y="91.2605591" class="st2" width="11.5159912" height="14.3940125"/>
<path class="st2" d="M298.5787354,170.429657c0-2.3629761,1.9158936-4.2789917,4.2789307-4.2789917
	s4.2790527,1.9160156,4.2790527,4.2789917c0,2.3630066-1.9160156,4.2790222-4.2790527,4.2790222
	S298.5787354,172.7926636,298.5787354,170.429657z"/>
<path class="st2" d="M301.7587891,170.429657c0-0.6069946,0.4919434-1.098999,1.098999-1.098999
	c0.6069336,0,1.098999,0.4920044,1.098999,1.098999c0,0.6070251-0.4920654,1.0990295-1.098999,1.0990295
	C302.2507324,171.5286865,301.7587891,171.0366821,301.7587891,170.429657z"/>
<line class="st2" x1="302.8579102" y1="174.7087708" x2="302.8579102" y2="171.5287781"/>
<line class="st2" x1="302.8579102" y1="169.33078" x2="302.8579102" y2="166.1507874"/>
<line class="st2" x1="298.5787354" y1="170.429657" x2="301.758667" y2="170.429657"/>
<line class="st2" x1="303.9567871" y1="170.429657" x2="307.1367188" y2="170.429657"/>
<path class="st2" d="M298.5787354,98.4573669c0-2.3629761,1.9158936-4.2789917,4.2789307-4.2789917
	s4.2790527,1.9160156,4.2790527,4.2789917c0,2.3630066-1.9160156,4.2790222-4.2790527,4.2790222
	S298.5787354,100.8203735,298.5787354,98.4573669z"/>
<path class="st2" d="M301.7587891,98.4573669c0-0.6069946,0.4919434-1.098999,1.098999-1.098999
	c0.6069336,0,1.098999,0.4920044,1.098999,1.098999c0,0.6070251-0.4920654,1.0990295-1.098999,1.0990295
	C302.2507324,99.5563965,301.7587891,99.0643921,301.7587891,98.4573669z"/>
<line class="st2" x1="302.8579102" y1="94.1784668" x2="302.8579102" y2="97.35849"/>
<line class="st2" x1="302.8579102" y1="99.5564575" x2="302.8579102" y2="102.7364807"/>
<line class="st2" x1="298.5787354" y1="98.4573669" x2="301.758667" y2="98.4573669"/>
<line class="st2" x1="303.9567871" y1="98.4573669" x2="307.1367188" y2="98.4573669"/>
<rect x="262.9654541" y="20.307579" transform="matrix(0.8660318 -0.4999889 0.4999889 0.8660318 20.0849991 135.6821747)" class="st2" width="0.5398254" height="20.1068573"/>
<line class="st2" x1="259.6204834" y1="20.0798645" x2="259.6204834" y2="23.5598755"/>
<line class="st2" x1="259.6204834" y1="24.639679" x2="259.6204834" y2="52.9346924"/>
<polyline class="st2" points="258.4421387,20.0798645 258.4421387,21.5188904 257.9020996,21.5188904 257.9020996,20.0798645 "/>
<rect x="257.9022217" y="41.6265564" class="st2" width="0.5400391" height="11.3089905"/>
<line class="st2" x1="215.0042725" y1="36.867157" x2="216.887207" y2="36.867157"/>
<line class="st2" x1="216.887085" y1="36.867157" x2="216.887085" y2="36.1471863"/>
<line class="st2" x1="216.887085" y1="36.1474609" x2="215.0040283" y2="36.1474609"/>
<line class="st2" x1="214.9078369" y1="36.9572754" x2="215.0037842" y2="36.9572754"/>
<line class="st2" x1="215.0042725" y1="36.9572754" x2="215.0042725" y2="36.0572815"/>
<line class="st2" x1="215.0042725" y1="36.0575562" x2="214.9082031" y2="36.0575562"/>
<line class="st2" x1="217.0029297" y1="38.1439819" x2="217.0029297" y2="35.5549927"/>
<line class="st2" x1="216.8443604" y1="34.5602722" x2="216.3212891" y2="34.5602722"/>
<line class="st2" x1="216.3215332" y1="34.5602722" x2="216.3215332" y2="36.1472778"/>
<line class="st2" x1="216.3215332" y1="36.867157" x2="216.3215332" y2="38.144165"/>
<line class="st2" x1="216.3215332" y1="38.1439819" x2="217.0024414" y2="38.1439819"/>
<line class="st2" x1="217.0029297" y1="37.4674683" x2="216.3218994" y2="37.4674683"/>
<path class="st2" d="M217.9645996,36.1657715c0.5308838,0.0550232,0.9969482-0.4329834,1.0419922-1.0889893
	c0.0449219-0.6560059-0.348999-1.2319946-0.8800049-1.2860107c-0.0531006-0.0059814-0.1060791-0.0059814-0.1600342,0"/>
<path class="st2" d="M216.9211426,34.9753723c-0.0020752,0.65802,0.4279785,1.1930237,0.9609375,1.1940002
	c0.532959,0.0020142,0.9659424-0.5299988,0.9680176-1.1879883c0.0019531-0.6579895-0.4279785-1.1929932-0.9610596-1.1950073
	C217.3560791,33.7854004,216.9230957,34.3173828,216.9211426,34.9753723z"/>
<path class="st2" d="M217.1009521,35.6723633c-0.0300293-0.0359802-0.0600586-0.071991-0.0900879-0.1079712
	c-0.0629883-0.0740051-0.1290283-0.1480103-0.2109375-0.1980286c-0.0510254-0.0309753-0.1080322-0.0539856-0.1669922-0.0619812
	c-0.0280762-0.0039978-0.0560303-0.0050049-0.0839844-0.006012"/>
<path class="st2" d="M217.104126,34.2810669c-0.0310059,0.0370178-0.0620117,0.0750122-0.0930176,0.11203
	c-0.0629883,0.0739746-0.1290283,0.1469727-0.2110596,0.197998c-0.0510254,0.0309753-0.1090088,0.0529785-0.1679688,0.0619812
	c-0.0269775,0.0039978-0.0560303,0.0050049-0.0839844,0.006012"/>
<path class="st2" d="M216.548584,34.6593628c-0.177002,0.0760193-0.2580566,0.2800293-0.1820068,0.4560242
	c0.0349121,0.0820007,0.0999756,0.1470032,0.1820068,0.1829834"/>
<line class="st2" x1="214.9078369" y1="36.9572754" x2="214.9078369" y2="36.0572815"/>
<path class="st2" d="M222.97229,35.5811768c0-0.9259949,0.7509766-1.6769714,1.6768799-1.6769714
	c0.9260254,0,1.677002,0.7509766,1.677002,1.6769714c0,0.9260254-0.7509766,1.677002-1.677002,1.677002
	C223.7232666,37.2581787,222.97229,36.5072021,222.97229,35.5811768z"/>
<line class="st2" x1="256.7415771" y1="52.9350586" x2="256.7415771" y2="20.0800781"/>
<line class="st2" x1="256.7415771" y1="21.1594849" x2="245.8215332" y2="21.1594849"/>
<polyline class="st2" points="244.2711182,21.1594849 218.9560547,21.1594849 218.9560547,34.5834961 "/>
<path class="st2" d="M258.4421387,41.6262817c3.5299072,0,6.9969482-0.9289856,10.0539551-2.6939697"/>
<line class="st2" x1="244.2597656" y1="21.0345764" x2="245.8327637" y2="21.0345764"/>
<line class="st2" x1="247.6550293" y1="20.6708679" x2="242.4370117" y2="20.6708679"/>
<path class="st2" d="M242.4790039,20.7224731c0.5828857,0.1590271,1.1789551,0.2640076,1.7808838,0.3120117"/>
<path class="st2" d="M245.8323975,21.0345764c0.6019287-0.0489807,1.197998-0.1529846,1.7808838-0.3119812"/>
<line class="st2" x1="247.6647949" y1="20.484375" x2="247.6547852" y2="20.6703796"/>
<line class="st2" x1="242.4372559" y1="20.6708679" x2="242.4272461" y2="20.4848938"/>
<path class="st2" d="M247.6134033,20.7224731c0.0239258-0.0059814,0.039917-0.0269775,0.0419922-0.0519714"/>
<path class="st2" d="M242.4372559,20.6708679c0.0009766,0.0240173,0.0179443,0.0450134,0.0419922,0.052002"/>
<line class="st2" x1="245.821167" y1="21.0345764" x2="245.821167" y2="21.7175903"/>
<line class="st2" x1="244.2711182" y1="21.7174683" x2="244.2711182" y2="21.0344849"/>
<line class="st2" x1="244.435791" y1="22.1111755" x2="245.0396729" y2="22.1111755"/>
<line class="st2" x1="245.0395508" y1="22.1111755" x2="245.0524902" y2="22.1111755"/>
<line class="st2" x1="245.7912598" y1="22.1111755" x2="245.65625" y2="22.1111755"/>
<line class="st2" x1="244.435791" y1="22.1111755" x2="244.3007812" y2="22.1111755"/>
<line class="st2" x1="245.0524902" y1="22.1111755" x2="245.6563721" y2="22.1111755"/>
<line class="st2" x1="245.7996826" y1="22.1196594" x2="245.7806396" y2="23.2086792"/>
<line class="st2" x1="244.3115234" y1="23.2088623" x2="244.2924805" y2="22.119873"/>
<path class="st2" d="M245.7996826,22.1196594c0-0.0049744-0.0040283-0.0089722-0.0080566-0.0089722"/>
<path class="st2" d="M244.3010254,22.1111755c-0.0050049,0-0.0090332,0.0040283-0.0090332,0.0080261"/>
<path class="st2" d="M244.3115234,23.2088623c0,0.0120239,0.0098877,0.0220032,0.0219727,0.0220032"/>
<path class="st2" d="M245.7587891,23.2311707c0.0119629,0,0.0219727-0.0099792,0.0219727-0.0219727"/>
<path class="st2" d="M244.333374,23.2311707c0.4749756,0.0180054,0.9499512,0.0180054,1.4249268,0"/>
<path class="st2" d="M245.7137451,22.1111755c0.0699463-0.118988,0.1069336-0.2549744,0.1069336-0.3939819"/>
<path class="st2" d="M244.2711182,21.7174683c0,0.1380005,0.0369873,0.2740173,0.1069336,0.3940125"/>
<line class="st2" x1="242.4273682" y1="20.484375" x2="242.4273682" y2="20.0793762"/>
<line class="st2" x1="247.6647949" y1="20.484375" x2="247.6647949" y2="20.0793762"/>
<polyline class="st2" points="256.7415771,51.8554688 218.956543,51.8554688 218.956543,35.3704834 "/>
<path class="st2" d="M300.3178711,51.9139709c0-0.5999756,0.4869385-1.0869751,1.0869141-1.0869751
	s1.0870361,0.4869995,1.0870361,1.0869751c0,0.6000061-0.4870605,1.0870056-1.0870361,1.0870056
	S300.3178711,52.5139771,300.3178711,51.9139709z"/>
<path class="st2" d="M300.7749023,51.9134827c0-0.3479919,0.2819824-0.6299744,0.6298828-0.6299744
	c0.3480225,0,0.6290283,0.2819824,0.6290283,0.6299744c0,0.3480225-0.2810059,0.6300049-0.6290283,0.6300049
	C301.0568848,52.5434875,300.7749023,52.2615051,300.7749023,51.9134827z"/>
<line class="st2" x1="304.3225098" y1="51.4509583" x2="307.7374268" y2="51.4509583"/>
<path class="st2" d="M304.3225098,51.4509583c-0.1411133,0-0.2550049,0.1140137-0.2550049,0.2550049"/>
<path class="st2" d="M304.0675049,52.1218567c0,0.1410217,0.1138916,0.2550049,0.2548828,0.2550049"/>
<line class="st2" x1="304.0675049" y1="51.7059631" x2="304.0675049" y2="52.1219788"/>
<path class="st2" d="M307.8088379,52.2900696c-0.0720215-0.0819702-0.1760254-0.1279907-0.2850342-0.1279907"/>
<path class="st2" d="M307.5235596,51.6661682c0.1088867,0,0.2128906-0.0469971,0.2849121-0.1279907"/>
<line class="st2" x1="305.9182129" y1="51.6661682" x2="307.5231934" y2="51.6661682"/>
<line class="st2" x1="307.5235596" y1="52.1616821" x2="305.918457" y2="52.1616821"/>
<path class="st2" d="M305.7763672,52.0199585c0,0.0780029,0.0629883,0.1420288,0.1419678,0.1420288"/>
<line class="st2" x1="305.7763672" y1="51.8079834" x2="305.7763672" y2="52.019989"/>
<path class="st2" d="M308.0053711,52.433075c-0.0841064-0.0369873-0.1760254-0.0559998-0.2680664-0.0559998"/>
<path class="st2" d="M307.7375488,51.4509583c0.0919189,0,0.1829834-0.0189819,0.2679443-0.0559998"/>
<line class="st2" x1="307.737793" y1="52.3769836" x2="304.3227539" y2="52.3769836"/>
<path class="st2" d="M307.730835,52.3769836c0.2559814,0.2770081,0.6879883,0.2950134,0.9649658,0.0390015
	c0.2769775-0.2559814,0.2949219-0.6879883,0.0389404-0.9649963c-0.2559814-0.2769775-0.6879883-0.2949829-0.9649658-0.0390015
	c-0.0140381,0.0130005-0.0269775,0.026001-0.0389404,0.0390015"/>
<path class="st2" d="M307.8088379,52.2900696c0.2078857,0.2340088,0.565918,0.256012,0.7999268,0.0480042
	c0.2340088-0.2079773,0.2559814-0.565979,0.0479736-0.7999878s-0.565918-0.256012-0.7999268-0.0480042
	c-0.0170898,0.0150146-0.0330811,0.0310059-0.0479736,0.0480042"/>
<path class="st2" d="M305.9182129,51.6661682c-0.0780029,0-0.1420898,0.0640259-0.1420898,0.1420288"/>
<path class="st2" d="M306.7827148,51.4509583c-0.2550049-2.9699707-2.8701172-5.17099-5.8410645-4.9159851
	c-2.9699707,0.256012-5.1710205,2.8710022-4.9150391,5.8410034c0.2550049,2.9700012,2.8699951,5.17099,5.8400879,4.9159851
	c2.6159668-0.2249756,4.690918-2.2989807,4.9160156-4.914978"/>
<path class="st2" d="M300.3178711,71.3780823c0-0.5999756,0.4869385-1.0869751,1.0869141-1.0869751
	s1.0870361,0.4869995,1.0870361,1.0869751c0,0.6000061-0.4870605,1.0870056-1.0870361,1.0870056
	S300.3178711,71.9780884,300.3178711,71.3780823z"/>
<path class="st2" d="M300.7749023,71.3775635c0-0.3479919,0.2819824-0.6299744,0.6298828-0.6299744
	c0.3480225,0,0.6290283,0.2819824,0.6290283,0.6299744c0,0.3480225-0.2810059,0.6300049-0.6290283,0.6300049
	C301.0568848,72.0075684,300.7749023,71.7255859,300.7749023,71.3775635z"/>
<line class="st2" x1="304.3225098" y1="70.9150696" x2="307.7374268" y2="70.9150696"/>
<path class="st2" d="M304.3225098,70.9150696c-0.1411133,0-0.2550049,0.1140137-0.2550049,0.2550049"/>
<path class="st2" d="M304.0675049,71.5860596c0,0.1410217,0.1138916,0.2550049,0.2548828,0.2550049"/>
<line class="st2" x1="304.0675049" y1="71.1700745" x2="304.0675049" y2="71.5860901"/>
<path class="st2" d="M307.8088379,71.7541809c-0.0720215-0.0819702-0.1760254-0.1279907-0.2850342-0.1279907"/>
<path class="st2" d="M307.5235596,71.1302795c0.1088867,0,0.2128906-0.0469971,0.2849121-0.1279907"/>
<line class="st2" x1="305.9182129" y1="71.1302795" x2="307.5231934" y2="71.1302795"/>
<line class="st2" x1="307.5235596" y1="71.625885" x2="305.918457" y2="71.625885"/>
<path class="st2" d="M305.7763672,71.4840698c0,0.0780029,0.0629883,0.1420288,0.1419678,0.1420288"/>
<line class="st2" x1="305.7763672" y1="71.2720642" x2="305.7763672" y2="71.4840698"/>
<path class="st2" d="M308.0053711,71.8971863c-0.0841064-0.0369873-0.1760254-0.0559998-0.2680664-0.0559998"/>
<path class="st2" d="M307.7375488,70.9150696c0.0919189,0,0.1829834-0.0189819,0.2679443-0.0559998"/>
<line class="st2" x1="307.737793" y1="71.8410645" x2="304.3227539" y2="71.8410645"/>
<path class="st2" d="M307.730835,71.8410645c0.2559814,0.2770081,0.6879883,0.2950134,0.9649658,0.0390015
	c0.2769775-0.2559814,0.2949219-0.6879883,0.0389404-0.9649963c-0.2559814-0.2769775-0.6879883-0.2949829-0.9649658-0.0390015
	c-0.0140381,0.0130005-0.0269775,0.026001-0.0389404,0.0390015"/>
<path class="st2" d="M307.8088379,71.7541809c0.2078857,0.2340088,0.565918,0.256012,0.7999268,0.0480042
	c0.2340088-0.2079773,0.2559814-0.565979,0.0479736-0.7999878s-0.565918-0.256012-0.7999268-0.0480042
	c-0.0170898,0.0150146-0.0330811,0.0310059-0.0479736,0.0480042"/>
<path class="st2" d="M305.9182129,71.1302795c-0.0780029,0-0.1420898,0.0640259-0.1420898,0.1420288"/>
<path class="st2" d="M306.7827148,70.9150696c-0.2550049-2.9699707-2.8701172-5.17099-5.8410645-4.914978
	c-2.9699707,0.2550049-5.1710205,2.8699951-4.9150391,5.8399963c0.2550049,2.9700012,2.8699951,5.17099,5.8400879,4.9159851
	c2.6159668-0.2249756,4.690918-2.2989807,4.9160156-4.914978"/>
<path class="st2" d="M296.5484619,36.3259583c0.9639893,0,1.9219971-0.1399841,2.8459473-0.414978
	c0.8029785-0.2390137,1.5599365-0.6109924,2.2399902-1.1000061c0.2419434-0.1730042,0.4689941-0.3659973,0.6810303-0.5750122"/>
<path class="st2" d="M296.5484619,36.3259583c-0.9641113,0-1.9221191-0.1399841-2.8460693-0.414978
	c-0.8029785-0.2390137-1.5599365-0.6109924-2.2399902-1.1000061c-0.6540527-0.4700012-1.2010498-1.0750122-1.6030273-1.7730103
	c-0.3299561-0.572998-0.5040283-1.2219849-0.5040283-1.8829956c0-0.6619873,0.1740723-1.3110046,0.5040283-1.8840027
	c0.4019775-0.697998,0.9489746-1.3029785,1.6030273-1.7729797c0.6800537-0.4890137,1.4370117-0.8610229,2.2399902-1.1000061
	c0.9239502-0.2749939,1.881958-0.4150085,2.8460693-0.4150085c0.9639893,0,1.9219971,0.1400146,2.8459473,0.4150085
	c0.8029785,0.2389832,1.5599365,0.6109924,2.2399902,1.1000061c0.2419434,0.1729736,0.4689941,0.3659973,0.6810303,0.5749817
	v6.1629944"/>
<path class="st2" d="M305.598999,35.2048645c-2.2980957,0.1360168-4.585083,0.428009-6.8441162,0.8740234"/>
<path class="st2" d="M304.7927246,29.1490784c0.098999-0.5149841,0.2619629-1.0159912,0.4838867-1.4909973
	c0.2600098-0.5579834,0.6621094-1.039978,1.1650391-1.3959961c0.1920166-0.1369934,0.4320068-0.1889954,0.6629639-0.144989
	l2.125,0.4069824c0.1390381,0.0270081,0.2390137,0.1480103,0.2390137,0.2890015v8.6820068
	c0,0.1419983-0.0999756,0.2630005-0.2390137,0.2900085l-2.125,0.4060059
	c-0.230957,0.0449829-0.4709473-0.007019-0.6629639-0.1440125c-0.5029297-0.3569946-0.9050293-0.8379822-1.1650391-1.3959961
	c-0.2219238-0.4760132-0.3848877-0.9760132-0.4838867-1.4909973c-0.1280518-0.6610107-0.1920166-1.3330078-0.1920166-2.006012
	S304.6646729,29.8100891,304.7927246,29.1490784z"/>
<path class="st2" d="M305.598999,27.1040649c-2.2980957-0.1359863-4.585083-0.4279785-6.8441162-0.8739929"/>
<path class="st2" d="M306.2862549,31.1545715c0-0.2979736,0.2419434-0.539978,0.539917-0.539978
	s0.5400391,0.2420044,0.5400391,0.539978c0,0.2980042-0.2420654,0.5400085-0.5400391,0.5400085
	S306.2862549,31.4525757,306.2862549,31.1545715z"/>
<path class="st2" d="M199.2961426,152.6599731c0.9639893,0,1.9219971-0.1399841,2.8459473-0.414978
	c0.8029785-0.2390137,1.5599365-0.6109924,2.2399902-1.1000061c0.2419434-0.1730042,0.4689941-0.3659973,0.6810303-0.5750122"/>
<path class="st2" d="M199.2961426,152.6599731c-0.9641113,0-1.9221191-0.1399841-2.8460693-0.414978
	c-0.8029785-0.2390137-1.5599365-0.6109924-2.2399902-1.1000061c-0.6540527-0.4700012-1.2010498-1.0750122-1.6030273-1.7730103
	c-0.3299561-0.572998-0.5040283-1.2219849-0.5040283-1.8840027c0-0.6609802,0.1740723-1.3099976,0.5040283-1.8829956
	c0.4019775-0.697998,0.9489746-1.3029785,1.6030273-1.7729797c0.6800537-0.4890137,1.4370117-0.8610229,2.2399902-1.1000061
	c0.9239502-0.2749939,1.881958-0.4150085,2.8460693-0.4150085c0.9639893,0,1.9219971,0.1400146,2.8459473,0.4150085
	c0.8029785,0.2389832,1.5599365,0.6109924,2.2399902,1.1000061c0.2419434,0.1729736,0.4689941,0.3659973,0.6810303,0.5759888
	v6.1619873"/>
<path class="st2" d="M208.3464355,151.5389709c-2.2980957,0.1360168-4.585083,0.428009-6.8441162,0.8740234"/>
<path class="st2" d="M207.5402832,145.4831848c0.0999756-0.5149841,0.2619629-1.0159912,0.4838867-1.4909973
	c0.2611084-0.5579834,0.6621094-1.039978,1.1650391-1.3959961c0.1920166-0.1369934,0.4310303-0.1889954,0.6629639-0.144989
	l2.125,0.4069824c0.1390381,0.0270081,0.2390137,0.1480103,0.2390137,0.2890015v8.6820068
	c0,0.1410217-0.0999756,0.2630005-0.2390137,0.2890015l-2.125,0.4070129
	c-0.2319336,0.0449829-0.4709473-0.0079956-0.6629639-0.1440125c-0.5029297-0.3569946-0.9039307-0.8379822-1.1650391-1.3970032
	c-0.2219238-0.4750061-0.3839111-0.9750061-0.4838867-1.4899902c-0.1280518-0.6610107-0.1920166-1.3330078-0.1920166-2.006012
	S207.4122314,146.1441956,207.5402832,145.4831848z"/>
<path class="st2" d="M208.3464355,143.4381714c-2.2980957-0.1359863-4.585083-0.4279785-6.8441162-0.8739929"/>
<path class="st2" d="M209.0338135,147.4884644c0-0.2979736,0.2419434-0.539978,0.539917-0.539978
	s0.5390625,0.2420044,0.5390625,0.539978c0,0.2980042-0.2410889,0.5400085-0.5390625,0.5400085
	S209.0338135,147.7864685,209.0338135,147.4884644z"/>
<rect x="90.3602295" y="118.9145813" class="st2" width="19.4320068" height="1.1350098"/>
<rect x="111.2322388" y="118.9145813" class="st2" width="19.4320068" height="1.1350098"/>
<line class="st4" x1="109.7924194" y1="120.0490723" x2="109.7924194" y2="121.1200867"/>
<line class="st9" x1="109.7924194" y1="122.1697693" x2="109.7924194" y2="137.3907776"/>
<line class="st4" x1="109.7924194" y1="137.9157715" x2="109.7924194" y2="138.9867859"/>
<line class="st4" x1="109.7924194" y1="138.9867859" x2="108.7213745" y2="138.9867859"/>
<line class="st10" x1="107.6408081" y1="138.9867859" x2="91.9707642" y2="138.9867859"/>
<line class="st4" x1="91.4309082" y1="138.9867859" x2="90.3598633" y2="138.9867859"/>
<line class="st4" x1="90.3599243" y1="138.9867859" x2="90.3599243" y2="137.915802"/>
<line class="st9" x1="90.3599243" y1="136.8660583" x2="90.3599243" y2="121.6450806"/>
<line class="st4" x1="90.3599243" y1="121.1200562" x2="90.3599243" y2="120.0490723"/>
<line class="st4" x1="111.2318115" y1="120.0490723" x2="111.2318115" y2="121.1200867"/>
<line class="st9" x1="111.2318115" y1="122.1697693" x2="111.2318115" y2="137.3907776"/>
<line class="st4" x1="111.2318115" y1="137.9157715" x2="111.2318115" y2="138.9867859"/>
<line class="st4" x1="111.2318115" y1="138.9867859" x2="112.3027954" y2="138.9867859"/>
<line class="st10" x1="113.3835449" y1="138.9867859" x2="129.0524902" y2="138.9867859"/>
<line class="st4" x1="129.5934448" y1="138.9867859" x2="130.6644287" y2="138.9867859"/>
<line class="st4" x1="130.6643066" y1="138.9867859" x2="130.6643066" y2="137.915802"/>
<line class="st9" x1="130.6643066" y1="136.8660583" x2="130.6643066" y2="121.6450806"/>
<line class="st4" x1="130.6643066" y1="121.1200562" x2="130.6643066" y2="120.0490723"/>
<line class="st2" x1="210.1278076" y1="171.1542664" x2="208.4556885" y2="171.1542664"/>
<line class="st2" x1="208.4553223" y1="171.1542664" x2="207.5582275" y2="171.1542664"/>
<path class="st2" d="M207.6033936,171.1542664c-0.0150146,0.0010071-0.0300293,0.0010071-0.0450439,0
	c-0.1989746-0.0159912-0.3499756-0.2319946-0.3380127-0.4829712c0.0129395-0.2510071,0.18396-0.4420166,0.3830566-0.4260254"/>
<line class="st2" x1="210.1278076" y1="170.244873" x2="208.4556885" y2="170.244873"/>
<line class="st2" x1="208.4553223" y1="170.244873" x2="207.5582275" y2="170.244873"/>
<line class="st2" x1="212.1724854" y1="173.1465759" x2="212.2553711" y2="173.1465759"/>
<line class="st2" x1="212.147583" y1="173.1465759" x2="212.2575684" y2="173.1465759"/>
<line class="st2" x1="212.8026123" y1="173.0534668" x2="212.2575684" y2="173.1464844"/>
<line class="st2" x1="210.1278076" y1="171.2609863" x2="210.1278076" y2="170.1380005"/>
<line class="st2" x1="210.192627" y1="171.2609863" x2="210.192627" y2="170.1380005"/>
<line class="st2" x1="210.2957764" y1="171.2671814" x2="210.2957764" y2="170.1322021"/>
<line class="st2" x1="211.9389648" y1="171.4193726" x2="211.9528809" y2="171.4193726"/>
<line class="st2" x1="210.1422119" y1="171.2753601" x2="210.1781006" y2="171.2753601"/>
<line class="st2" x1="210.1422119" y1="171.2753601" x2="210.1781006" y2="171.2753601"/>
<line class="st2" x1="210.2957764" y1="171.2671814" x2="211.916748" y2="171.2671814"/>
<line class="st2" x1="210.2957764" y1="171.2295837" x2="210.192749" y2="171.2336121"/>
<line class="st2" x1="209.2568359" y1="170.8866577" x2="209.9257812" y2="170.8866577"/>
<line class="st2" x1="209.2568359" y1="170.5124817" x2="209.9257812" y2="170.5124817"/>
<line class="st2" x1="210.2957764" y1="170.1695862" x2="210.192749" y2="170.1655884"/>
<line class="st2" x1="211.9172363" y1="171.3976746" x2="211.9172363" y2="170.0016785"/>
<line class="st2" x1="211.9604492" y1="171.4193726" x2="211.9604492" y2="171.4133911"/>
<line class="st2" x1="211.9604492" y1="171.4193726" x2="211.9604492" y2="169.9794006"/>
<line class="st2" x1="210.2957764" y1="170.1321716" x2="211.916748" y2="170.1321716"/>
<line class="st2" x1="210.1422119" y1="170.1237793" x2="210.1781006" y2="170.1237793"/>
<line class="st2" x1="210.1422119" y1="170.1237793" x2="210.1781006" y2="170.1237793"/>
<line class="st2" x1="211.9389648" y1="169.9797668" x2="211.9528809" y2="169.9797668"/>
<line class="st2" x1="212.0756836" y1="173.0746765" x2="212.0756836" y2="168.3246765"/>
<line class="st2" x1="212.8026123" y1="168.3455811" x2="212.8026123" y2="173.0535889"/>
<line class="st2" x1="212.1724854" y1="168.2525635" x2="212.2553711" y2="168.2525635"/>
<line class="st2" x1="212.147583" y1="168.2525635" x2="212.2575684" y2="168.2525635"/>
<line class="st2" x1="212.8026123" y1="168.3455811" x2="212.2575684" y2="168.252594"/>
<path class="st2" d="M212.0756836,171.7249756c-0.0310059-0.1039734-0.0700684-0.2059937-0.1151123-0.3059998"/>
<path class="st2" d="M211.9604492,169.9797668c0.0458984-0.098999,0.0839844-0.2009888,0.1149902-0.3059998"/>
<path class="st2" d="M208.8826904,170.6996765c0-0.1289978,0.1049805-0.2339783,0.2338867-0.2339783
	c0.1290283,0,0.2340088,0.1049805,0.2340088,0.2339783c0,0.1290283-0.1049805,0.2340088-0.2340088,0.2340088
	C208.9876709,170.9336853,208.8826904,170.8287048,208.8826904,170.6996765z"/>
<path class="st2" d="M210.1278076,171.0882568c0-0.1109924-0.0900879-0.2019958-0.2020264-0.2019958"/>
<path class="st2" d="M209.9261475,170.5124817c0.1109619,0,0.2019043-0.0899963,0.2019043-0.2019958"/>
<path class="st2" d="M212.0756836,173.0746765c0,0.0400085,0.0319824,0.0720215,0.0718994,0.0720215"/>
<path class="st2" d="M212.147583,168.2525635c-0.0400391,0-0.0720215,0.0320129-0.0720215,0.0720215"/>
<path class="st2" d="M211.9389648,169.9797668c-0.012085,0-0.0220947,0.0100098-0.0220947,0.0220032"/>
<path class="st2" d="M211.9172363,171.3976746c0,0.0120239,0.0098877,0.0220032,0.0219727,0.0220032"/>
<path class="st2" d="M210.192627,170.1381836c0-0.0079956-0.0070801-0.0139771-0.0150146-0.0139771"/>
<path class="st2" d="M210.1422119,170.1237793c-0.0080566,0-0.0140381,0.007019-0.0140381,0.0140076"/>
<path class="st2" d="M210.1278076,171.2609863c0,0.0080261,0.0059814,0.0140076,0.013916,0.0140076"/>
<path class="st2" d="M210.1781006,171.2753601c0.0079346,0,0.0148926-0.0069885,0.0148926-0.0139771"/>
<path class="st2" d="M204.8856201,170.6996765c0-0.5959778,0.4829102-1.0799866,1.0799561-1.0799866
	c0.5959473,0,1.0789795,0.4840088,1.0789795,1.0799866c0,0.5960083-0.4830322,1.0800171-1.0789795,1.0800171
	C205.3685303,171.7796936,204.8856201,171.2956848,204.8856201,170.6996765z"/>
<rect x="169.6192627" y="159.0035706" class="st2" width="43.1829834" height="23.0310059"/>
<polyline class="st2" points="209.5637207,171.1542664 209.5637207,179.1562805 183.3126221,179.1562805 "/>
<polyline class="st2" points="181.8354492,179.1562805 172.6783447,179.1562805 172.6783447,162.2432861 209.5633545,162.2432861 
	209.5633545,170.2453003 "/>
<polyline class="st2" points="208.1243896,171.1542664 208.1243896,177.8972778 179.3353271,177.8972778 179.3353271,163.5022888 
	208.1243896,163.5022888 208.1243896,170.2452698 "/>
<line class="st2" x1="181.7878418" y1="181.0803833" x2="183.3608398" y2="181.0803833"/>
<line class="st2" x1="185.1831055" y1="181.4440613" x2="179.9650879" y2="181.4440613"/>
<path class="st2" d="M181.7878418,181.0803833c-0.6020508,0.0490112-1.1981201,0.1530151-1.7810059,0.3120117"/>
<path class="st2" d="M185.1414795,181.3924561c-0.5830078-0.1589966-1.1790771-0.2639771-1.7810059-0.3119812"/>
<line class="st2" x1="185.1928711" y1="181.6305847" x2="185.1828613" y2="181.4446106"/>
<line class="st2" x1="179.9654541" y1="181.4440613" x2="179.9554443" y2="181.6300659"/>
<path class="st2" d="M185.1831055,181.4440613c-0.0010986-0.0239868-0.0180664-0.0449829-0.0421143-0.0519714"/>
<path class="st2" d="M180.0070801,181.3924561c-0.0240479,0.006012-0.0410156,0.0270081-0.0421143,0.052002"/>
<line class="st2" x1="183.3492432" y1="181.0803833" x2="183.3492432" y2="180.3973999"/>
<line class="st2" x1="181.7993164" y1="180.3974609" x2="181.7993164" y2="181.0804749"/>
<line class="st2" x1="181.9639893" y1="180.0039673" x2="182.5678711" y2="180.0039673"/>
<line class="st2" x1="182.567749" y1="180.0039673" x2="182.5806885" y2="180.0039673"/>
<line class="st2" x1="183.3193359" y1="180.0039673" x2="183.1843262" y2="180.0039673"/>
<line class="st2" x1="181.9639893" y1="180.0039673" x2="181.8289795" y2="180.0039673"/>
<line class="st2" x1="182.5806885" y1="180.0039673" x2="183.1845703" y2="180.0039673"/>
<line class="st2" x1="183.3277588" y1="179.9952698" x2="183.3087158" y2="178.9062805"/>
<line class="st2" x1="181.8398438" y1="178.9060669" x2="181.8208008" y2="179.9950867"/>
<path class="st2" d="M183.3193359,180.0039673c0.0048828,0,0.0079346-0.0039978,0.0079346-0.0089722"/>
<path class="st2" d="M181.8206787,179.9952698c0,0.0050049,0.0039062,0.0090027,0.0079346,0.0090027"/>
<path class="st2" d="M181.8614502,178.8838806c-0.012085,0-0.0211182,0.0100098-0.0220947,0.0220032"/>
<path class="st2" d="M183.3088379,178.9060669c0-0.0119934-0.0100098-0.0219727-0.0220947-0.0219727"/>
<path class="st2" d="M183.2869873,178.8838806c-0.4750977-0.0179749-0.9500732-0.0179749-1.4260254,0"/>
<path class="st2" d="M183.3492432,180.3974609c0-0.13797-0.0371094-0.2739868-0.1070557-0.3929749"/>
<path class="st2" d="M181.9066162,180.0039673c-0.0700684,0.1190186-0.1070557,0.2550049-0.1070557,0.3930054"/>
<line class="st2" x1="179.9555664" y1="181.6305847" x2="179.9555664" y2="182.035614"/>
<line class="st2" x1="185.1928711" y1="181.6305847" x2="185.1928711" y2="182.035614"/>
<path class="st2" d="M203.0654297,126.2566833c0-0.5999756,0.4869385-1.0869751,1.0869141-1.0869751
	s1.0870361,0.4869995,1.0870361,1.0869751c0,0.6000061-0.4870605,1.0870056-1.0870361,1.0870056
	S203.0654297,126.8566895,203.0654297,126.2566833z"/>
<path class="st2" d="M203.5224609,126.2573853c0-0.3479919,0.2819824-0.6299744,0.6298828-0.6299744
	c0.3480225,0,0.6300049,0.2819824,0.6300049,0.6299744c0,0.3480225-0.2819824,0.6300049-0.6300049,0.6300049
	C203.8044434,126.8873901,203.5224609,126.6054077,203.5224609,126.2573853z"/>
<path class="st2" d="M209.5301514,125.7936707c-0.2561035-2.9699707-2.8710938-5.1699829-5.842041-4.9139709
	c-2.9699707,0.2559814-5.1700439,2.8709717-4.9140625,5.8409729c0.2561035,2.9700012,2.8710938,5.1710205,5.842041,4.9150085
	c2.6149902-0.2259827,4.6889648-2.2999878,4.9140625-4.9159851"/>
<line class="st2" x1="207.0699463" y1="126.7198792" x2="210.4848633" y2="126.7198792"/>
<path class="st2" d="M206.8149414,126.4647827c0,0.1410217,0.1138916,0.2550049,0.2548828,0.2550049"/>
<path class="st2" d="M207.0699463,125.7936707c-0.1411133,0-0.2550049,0.1140137-0.2550049,0.2550049"/>
<line class="st2" x1="206.8149414" y1="126.4647827" x2="206.8149414" y2="126.0487976"/>
<path class="st2" d="M210.2709961,126.0088806c0.1088867,0,0.2128906-0.0469971,0.2858887-0.1279907"/>
<path class="st2" d="M210.5565186,126.6329651c-0.0720215-0.0819702-0.1760254-0.1279907-0.2860107-0.1279907"/>
<line class="st2" x1="208.6658936" y1="126.5046692" x2="210.270874" y2="126.5046692"/>
<line class="st2" x1="210.2709961" y1="126.0088806" x2="208.6658936" y2="126.0088806"/>
<path class="st2" d="M208.6658936,126.0088806c-0.0780029,0-0.1420898,0.0640259-0.1420898,0.1420288"/>
<line class="st2" x1="208.5238037" y1="126.3628845" x2="208.5238037" y2="126.1509094"/>
<path class="st2" d="M210.4852295,125.7936707c0.0919189,0,0.1829834-0.0189819,0.2679443-0.0559998"/>
<path class="st2" d="M210.7530518,126.7757568c-0.0841064-0.0369873-0.1760254-0.0559998-0.2680664-0.0559998"/>
<line class="st2" x1="210.4852295" y1="125.7936707" x2="207.0701904" y2="125.7936707"/>
<path class="st2" d="M210.4783936,126.7198792c0.2559814,0.2770081,0.6879883,0.2940063,0.9649658,0.0390015
	c0.2769775-0.2559814,0.2949219-0.6879883,0.0389404-0.9649963c-0.2559814-0.2769775-0.6879883-0.2949829-0.9649658-0.0390015
	c-0.0130615,0.0120239-0.0269775,0.0250244-0.0389404,0.0390015"/>
<path class="st2" d="M210.5565186,126.6329651c0.2078857,0.2340088,0.565918,0.2550049,0.7999268,0.0480042
	c0.2340088-0.2079773,0.2559814-0.565979,0.0479736-0.7999878c-0.2080078-0.2350159-0.565918-0.256012-0.7999268-0.0480042
	c-0.0170898,0.0150146-0.0330811,0.0310059-0.0479736,0.0480042"/>
<path class="st2" d="M208.5238037,126.3628845c0,0.0780029,0.0639648,0.1420288,0.1419678,0.1420288"/>
<polyline class="st2" points="312.2141113,244.0743713 212.8031006,244.0743713 212.8031006,229.7163849 "/>
<polyline class="st2" points="77.1350098,46.9073792 0.125,46.9073792 0.125,230.4363861 77.1350098,230.4363861 "/>
<polyline class="st2" points="77.1350098,55.5440674 8.7609863,55.5440674 8.7609863,221.8000641 77.1350098,221.8000641 "/>
<rect x="114.2902222" y="82.1735535" class="st2" width="81.867981" height="3.32901"/>
<rect x="293.8612061" y="42.2295837" class="st2" width="16.1939697" height="39.9440002"/>
<polyline class="st2" points="217.8765869,33.7865601 217.8765869,20.0795898 214.9074707,20.0795898 214.9074707,52.9345703 
	217.8765869,52.9345703 217.8765869,36.1695862 "/>
<rect x="246.9401855" y="56.2635803" class="st2" width="11.5159912" height="10.0759888"/>
<rect x="87.3012085" y="120.0485535" class="st2" width="46.4219971" height="21.5920105"/>
<rect x="169.6192627" y="216.8515625" class="st2" width="18.0830078" height="5.5780029"/>
<line class="st2" x1="199.4876709" y1="66.3398743" x2="246.9405518" y2="66.3398743"/>
<line class="st2" x1="200.4772949" y1="187.0731812" x2="200.4772949" y2="216.851181"/>
<rect x="196.6092529" y="115.4605713" class="st2" width="16.1939697" height="20.5119934"/>
<polygon class="st2" points="166.1106567,229.7167664 166.1106567,226.4777679 165.5696411,226.4777679 165.5696411,222.4297791 
	166.2906494,222.4297791 166.2906494,210.283783 169.6196289,210.283783 169.6196289,222.4297791 187.7026367,222.4297791 
	187.7026367,216.8517761 210.5535889,216.8517761 210.5535889,187.0727844 169.6196289,187.0727844 169.6196289,188.6927795 
	166.2906494,188.6927795 166.2906494,141.0107727 169.6196289,141.0107727 169.6196289,182.03479 212.8026123,182.03479 
	212.8026123,115.4607849 169.6196289,115.4607849 169.6196289,117.9797668 166.2906494,117.9797668 166.2906494,115.4607849 
	162.8716431,115.4607849 162.8716431,112.132782 196.1585693,112.132782 196.1585693,109.612793 199.4875488,109.612793 
	199.4875488,112.132782 217.8405762,112.132782 217.8405762,229.7167664 "/>
<polygon class="st2" points="308.8354492,11.8029785 312.2143555,11.8029785 312.2143555,0.125 318.6914062,0.125 
	318.6914062,258.8659973 312.2143555,258.8659973 312.2143555,188.1529846 308.9753418,188.1529846 308.9753418,184.9139709 
	308.2553711,184.9139709 308.2553711,180.8659973 310.0544434,180.8659973 310.0544434,85.5019836 285.8953857,85.5019836 
	285.8953857,82.1739807 310.0544434,82.1739807 310.0544434,20.0799866 308.8354492,20.0799866 "/>
<polygon class="st2" points="90.539856,258.8655701 77.1348267,258.8655701 77.1348267,222.519577 83.3428345,222.519577 
	83.3428345,221.7995758 87.3008423,221.7995758 87.3008423,222.4215698 91.2557983,222.4215698 91.2598267,226.4785767 
	90.539856,226.4785767 "/>
<polygon class="st2" points="77.1350098,205.9659729 83.3429565,205.9659729 83.3429565,206.6859741 87.3009644,206.6859741 
	87.3009644,162.242981 83.3429565,162.242981 83.3429565,162.9629822 77.1350098,162.9629822 "/>
<polygon class="st2" points="77.1350098,60.4190674 83.3429565,60.4190674 83.3429565,61.1390686 87.3009644,61.1390686 
	87.3009644,56.2640686 94.4979858,56.2640686 94.4979858,52.2150879 93.7789917,52.2150879 93.7789917,48.9770813 
	90.539978,48.9770813 90.539978,0.1250916 77.1350098,0.1250916 "/>
<rect x="226.4771729" y="82.1735535" class="st2" width="4.9890137" height="3.32901"/>
<polygon class="st2" points="288.913208,11.8029785 206.6311035,11.8029785 206.6311035,48.9769897 117.1691895,48.9769897 
	117.1691895,52.2149963 116.4501953,52.2149963 116.4501953,56.2639771 196.1591797,56.2639771 196.1591797,88.0209961 
	199.4871826,88.0209961 199.4871826,85.5019836 201.802124,85.5019836 201.802124,82.1739807 199.4871826,82.1739807 
	199.4871826,56.2639771 258.4561768,56.2639771 258.4561768,82.1739807 256.0761719,82.1739807 256.0761719,85.5019836 
	264.3041992,85.5019836 264.3041992,82.1739807 261.7851562,82.1739807 261.7851562,52.9349976 214.9082031,52.9349976 
	214.9082031,20.0799866 288.913208,20.0799866 "/>
<polygon class="st2" points="87.3011475,108.8315735 77.1351318,108.8315735 77.1351318,146.4085999 83.3421021,146.4085999 
	83.3421021,147.1286011 87.3011475,147.1286011 87.3011475,144.969574 138.7611084,144.969574 138.7611084,115.4606018 
	141.2800903,115.4606018 141.2800903,112.1325989 132.104126,112.1325989 132.104126,115.4606018 133.7231445,115.4606018 
	133.7231445,141.6405945 87.3011475,141.6405945 87.3011475,115.4606018 88.920105,115.4606018 88.920105,112.1325989 
	87.3011475,112.1325989 "/>
<path class="st2" d="M115.7301636,69.1738586c0-0.7949829-0.644043-1.4389954-1.4390259-1.4399719
	c-0.7949829,0-1.4400024,0.644989-1.4400024,1.4399719c0,0.7950134,0.6450195,1.4390259,1.4400024,1.4390259
	S115.7301636,69.9688721,115.7301636,69.1738586h-1.4390259h43.1829834l-3.5979614-1.3099976v1.3099976"/>
<g>
	<path class="st11" d="M114.9779053,182.5758057c0,0.4091797-0.25,0.6191406-0.4951172,0.7255859
		c0.3701172,0.1113281,0.6689453,0.3251953,0.6689453,0.7578125c0,0.5390625-0.4501953,0.8554688-1.1318359,0.8554688h-1.3857422
		v-3.1191406h1.3271484C114.5765381,181.7955322,114.9779053,182.0992432,114.9779053,182.5758057z M114.62146,182.6246338
		c0-0.3125-0.2451172-0.5126953-0.6914062-0.5126953h-0.9482422v1.0742188h0.921875
		C114.3265381,183.1861572,114.62146,182.994751,114.62146,182.6246338z M114.7943115,184.0367432
		c0-0.3427734-0.2851562-0.5390625-0.828125-0.5390625h-0.984375v1.1005859h1.046875
		C114.5003662,184.5982666,114.7943115,184.3892822,114.7943115,184.0367432z"/>
	<path class="st11" d="M118.3822021,182.1168213h-1.9023438v1.0644531h1.7021484v0.3212891h-1.7021484v1.0908203h1.9248047
		v0.3212891h-2.2763672v-3.1191406h2.2539062V182.1168213z"/>
	<path class="st11" d="M120.4007568,184.9146729h-1.0820312v-3.1191406h1.0820312
		c0.9804688,0,1.6582031,0.6728516,1.6582031,1.5556641C122.05896,184.2330322,121.3812256,184.9146729,120.4007568,184.9146729z
		 M120.4007568,182.1207275h-0.7304688v2.46875h0.7304688c0.7890625,0,1.2919922-0.5351562,1.2919922-1.2294922
		C121.692749,182.6646729,121.1898193,182.1207275,120.4007568,182.1207275z"/>
	<path class="st11" d="M125.2015381,184.9146729l-0.9042969-1.2119141h-0.8916016v1.2119141h-0.3515625v-3.1191406h1.3408203
		c0.6865234,0,1.1269531,0.3701172,1.1269531,0.9316406c0,0.5214844-0.3564453,0.8242188-0.8466797,0.9130859l0.9580078,1.2744141
		H125.2015381z M124.3685303,182.1207275h-0.9628906v1.265625h0.9580078c0.4677734,0,0.8017578-0.2402344,0.8017578-0.6464844
		C125.1654053,182.3531494,124.87146,182.1207275,124.3685303,182.1207275z"/>
	<path class="st11" d="M127.9290771,184.9683838c-0.9492188,0-1.5869141-0.7441406-1.5869141-1.6083984
		s0.6464844-1.6181641,1.5957031-1.6181641c0.9482422,0,1.5859375,0.7441406,1.5859375,1.609375
		C129.5238037,184.2154541,128.8773193,184.9683838,127.9290771,184.9683838z M127.9290771,182.0679932
		c-0.7128906,0-1.2216797,0.5703125-1.2216797,1.2832031s0.5175781,1.2919922,1.2304688,1.2919922
		s1.2207031-0.5703125,1.2207031-1.2832031S128.6419678,182.0679932,127.9290771,182.0679932z"/>
	<path class="st11" d="M131.9486084,184.9683838c-0.9482422,0-1.5859375-0.7441406-1.5859375-1.6083984
		s0.6464844-1.6181641,1.5957031-1.6181641c0.9482422,0,1.5859375,0.7441406,1.5859375,1.609375
		C133.5443115,184.2154541,132.8978271,184.9683838,131.9486084,184.9683838z M131.9486084,182.0679932
		c-0.7128906,0-1.2207031,0.5703125-1.2207031,1.2832031s0.5175781,1.2919922,1.2304688,1.2919922
		s1.2207031-0.5703125,1.2207031-1.2832031S132.661499,182.0679932,131.9486084,182.0679932z"/>
	<path class="st11" d="M136.0462646,184.0592041H136.02771l-1.1357422-1.6660156v2.5214844h-0.3427734v-3.1191406h0.3564453
		l1.1357422,1.7021484l1.1367188-1.7021484h0.3564453v3.1191406h-0.3525391v-2.5263672L136.0462646,184.0592041z"/>
</g>
<g>
	<path class="st11" d="M263.286499,131.7896729h-0.0185547l-1.1357422-1.6660156v2.5214844h-0.3427734v-3.1191406h0.3564453
		l1.1357422,1.7021484l1.1367188-1.7021484h0.3564453v3.1191406h-0.3525391v-2.5263672L263.286499,131.7896729z"/>
	<path class="st11" d="M268.7904053,132.6451416h-0.3779297l-0.3662109-0.8242188h-1.6972656l-0.3691406,0.8242188h-0.3613281
		l1.4208984-3.1416016h0.3300781L268.7904053,132.6451416z M267.2005615,129.9136963l-0.7128906,1.5908203h1.4208984
		L267.2005615,129.9136963z"/>
	<path class="st11" d="M270.7659912,130.916626c0.6953125,0.1513672,1.015625,0.4052734,1.015625,0.8867188
		c0,0.5390625-0.4453125,0.8867188-1.0644531,0.8867188c-0.4951172,0-0.9003906-0.1650391-1.2744141-0.4990234l0.2177734-0.2587891
		c0.3251953,0.2939453,0.6376953,0.4414062,1.0693359,0.4414062c0.4189453,0,0.6953125-0.21875,0.6953125-0.5351562
		c0-0.2939453-0.15625-0.4589844-0.8105469-0.5966797c-0.7177734-0.15625-1.046875-0.3876953-1.046875-0.9042969
		c0-0.4990234,0.4316406-0.8554688,1.0244141-0.8554688c0.4541016,0,0.7792969,0.1289062,1.0957031,0.3828125l-0.2050781,0.2714844
		c-0.2890625-0.2363281-0.5791016-0.3378906-0.8994141-0.3378906c-0.4052734,0-0.6640625,0.2226562-0.6640625,0.5078125
		C269.9193115,130.604126,270.0794678,130.769165,270.7659912,130.916626z"/>
	<path class="st11" d="M273.9212646,132.6451416h-0.3564453v-2.7939453h-1.046875v-0.3251953h2.4501953v0.3251953h-1.046875
		V132.6451416z"/>
	<path class="st11" d="M278.0863037,129.84729H276.18396v1.0644531h1.7021484v0.3212891H276.18396v1.0908203h1.9248047v0.3212891
		h-2.2763672v-3.1191406h2.2539062V129.84729z"/>
	<path class="st11" d="M281.1712646,132.6451416l-0.9042969-1.2119141h-0.8916016v1.2119141h-0.3515625v-3.1191406h1.3408203
		c0.6865234,0,1.1269531,0.3701172,1.1269531,0.9316406c0,0.5214844-0.3564453,0.8242188-0.8466797,0.9130859l0.9580078,1.2744141
		H281.1712646z M280.3382568,129.8511963h-0.9628906v1.265625h0.9580078c0.4677734,0,0.8017578-0.2402344,0.8017578-0.6464844
		C281.1351318,130.0836182,280.8411865,129.8511963,280.3382568,129.8511963z"/>
</g>
<g>
	<path class="st11" d="M261.4691162,135.2955322c0,0.4091797-0.25,0.6191406-0.4951172,0.7255859
		c0.3701172,0.1113281,0.6679688,0.3251953,0.6679688,0.7578125c0,0.5390625-0.4492188,0.8554688-1.1308594,0.8554688h-1.3857422
		v-3.1191406h1.3271484C261.067749,134.5152588,261.4691162,134.8179932,261.4691162,135.2955322z M261.1126709,135.3443604
		c0-0.3115234-0.2451172-0.5126953-0.6914062-0.5126953h-0.9482422v1.0742188h0.921875
		C260.817749,135.9058838,261.1126709,135.7144775,261.1126709,135.3443604z M261.286499,136.7564697
		c0-0.3427734-0.2851562-0.5390625-0.8291016-0.5390625h-0.984375v1.1005859h1.046875
		C260.9915771,137.3179932,261.286499,137.1090088,261.286499,136.7564697z"/>
	<path class="st11" d="M264.8734131,134.8365479h-1.9023438v1.0644531h1.7021484v0.3212891h-1.7021484v1.0917969h1.9248047
		v0.3203125h-2.2763672v-3.1191406h2.2539062V134.8365479z"/>
	<path class="st11" d="M266.8919678,137.6343994h-1.0820312v-3.1191406h1.0820312
		c0.9804688,0,1.6582031,0.6728516,1.6582031,1.5556641C268.5501709,136.9527588,267.8724365,137.6343994,266.8919678,137.6343994z
		 M266.8919678,134.8404541h-0.7304688v2.46875h0.7304688c0.7890625,0,1.2929688-0.5351562,1.2929688-1.2294922
		C268.1849365,135.3843994,267.6810303,134.8404541,266.8919678,134.8404541z"/>
	<path class="st11" d="M271.692749,137.6343994l-0.9042969-1.2119141h-0.8916016v1.2119141h-0.3515625v-3.1191406h1.3408203
		c0.6865234,0,1.1269531,0.3701172,1.1269531,0.9316406c0,0.5214844-0.3564453,0.8242188-0.8466797,0.9130859l0.9580078,1.2744141
		H271.692749z M270.8597412,134.8404541h-0.9628906v1.265625h0.9580078c0.4677734,0,0.8017578-0.2402344,0.8017578-0.6455078
		C271.6566162,135.072876,271.3626709,134.8404541,270.8597412,134.8404541z"/>
	<path class="st11" d="M274.4193115,137.6881104c-0.9482422,0-1.5859375-0.7441406-1.5859375-1.6083984
		s0.6464844-1.6171875,1.5957031-1.6171875c0.9482422,0,1.5859375,0.7431641,1.5859375,1.6083984
		C276.0150146,136.9351807,275.3685303,137.6881104,274.4193115,137.6881104z M274.4193115,134.7877197
		c-0.7128906,0-1.2207031,0.5703125-1.2207031,1.2832031s0.5175781,1.2919922,1.2304688,1.2919922
		s1.2207031-0.5703125,1.2207031-1.2832031S275.1322021,134.7877197,274.4193115,134.7877197z"/>
	<path class="st11" d="M278.4407959,137.6881104c-0.9492188,0-1.5869141-0.7441406-1.5869141-1.6083984
		s0.6464844-1.6171875,1.5957031-1.6171875c0.9482422,0,1.5859375,0.7431641,1.5859375,1.6083984
		C280.0355225,136.9351807,279.3890381,137.6881104,278.4407959,137.6881104z M278.4407959,134.7877197
		c-0.7128906,0-1.2216797,0.5703125-1.2216797,1.2832031s0.5175781,1.2919922,1.2304688,1.2919922
		s1.2207031-0.5703125,1.2207031-1.2832031S279.1536865,134.7877197,278.4407959,134.7877197z"/>
	<path class="st11" d="M282.5374756,136.7789307h-0.0185547l-1.1357422-1.6660156v2.5214844h-0.3427734v-3.1191406h0.3564453
		l1.1357422,1.7021484l1.1367188-1.7021484h0.3564453v3.1191406h-0.3525391v-2.5263672L282.5374756,136.7789307z"/>
</g>
<g>
	<path class="st11" d="M253.605835,214.6343994c0,0.4091797-0.25,0.6191406-0.4951172,0.7255859
		c0.3701172,0.1113281,0.6679688,0.3251953,0.6679688,0.7578125c0,0.5390625-0.4492188,0.8554688-1.1308594,0.8554688h-1.3857422
		v-3.1191406h1.3271484C253.2044678,213.854126,253.605835,214.1578369,253.605835,214.6343994z M253.2493896,214.6832275
		c0-0.3125-0.2451172-0.5126953-0.6914062-0.5126953h-0.9482422v1.0742188h0.921875
		C252.9544678,215.244751,253.2493896,215.0533447,253.2493896,214.6832275z M253.4232178,216.0953369
		c0-0.3427734-0.2851562-0.5390625-0.8291016-0.5390625h-0.984375v1.1005859h1.046875
		C253.1282959,216.6568604,253.4232178,216.447876,253.4232178,216.0953369z"/>
	<path class="st11" d="M257.5716553,216.9732666h-0.3779297l-0.3662109-0.8242188h-1.6972656l-0.3691406,0.8242188h-0.3613281
		l1.4208984-3.1416016h0.3300781L257.5716553,216.9732666z M255.9818115,214.2418213l-0.7128906,1.5908203h1.4208984
		L255.9818115,214.2418213z"/>
	<path class="st11" d="M258.4154053,213.854126h0.3515625v2.7939453h1.7558594v0.3251953h-2.1074219V213.854126z"/>
	<path class="st11" d="M262.6654053,217.0269775c-0.9003906,0-1.5644531-0.7089844-1.5644531-1.6083984
		c0-0.8916016,0.6601562-1.6181641,1.5771484-1.6181641c0.5664062,0,0.9052734,0.2011719,1.2167969,0.4951172l-0.2402344,0.2587891
		c-0.2636719-0.25-0.5576172-0.4277344-0.9804688-0.4277344c-0.6904297,0-1.2080078,0.5566406-1.2080078,1.2832031
		c0,0.7255859,0.5214844,1.2919922,1.2080078,1.2919922c0.4277344,0,0.7080078-0.1650391,1.0068359-0.4501953l0.2314453,0.2275391
		C263.5872803,216.8082275,263.230835,217.0269775,262.6654053,217.0269775z"/>
	<path class="st11" d="M266.1419678,217.0269775c-0.9492188,0-1.5869141-0.7441406-1.5869141-1.6083984
		s0.6464844-1.6181641,1.5957031-1.6181641c0.9482422,0,1.5859375,0.7441406,1.5859375,1.609375
		C267.7366943,216.2740479,267.09021,217.0269775,266.1419678,217.0269775z M266.1419678,214.1265869
		c-0.7128906,0-1.2216797,0.5703125-1.2216797,1.2832031s0.5175781,1.2919922,1.2304688,1.2919922
		s1.2207031-0.5703125,1.2207031-1.2832031S266.8548584,214.1265869,266.1419678,214.1265869z"/>
	<path class="st11" d="M271.0355225,213.854126h0.34375v3.1191406h-0.28125l-2.0136719-2.5576172v2.5576172h-0.3427734v-3.1191406
		h0.3291016l1.9648438,2.5V213.854126z"/>
	<path class="st11" d="M273.8441162,216.9732666h-0.3564453v-1.234375l-1.296875-1.8847656h0.4277344l1.0517578,1.5595703
		l1.0605469-1.5595703h0.4101562l-1.296875,1.8808594V216.9732666z"/>
</g>
<g>
	<path class="st11" d="M33.2132568,145.6226807h-0.3564453v-2.7939453h-1.046875V142.50354h2.4501953v0.3251953h-1.046875
		V145.6226807z"/>
	<path class="st11" d="M37.3792725,142.8248291h-1.9023438v1.0644531h1.7021484v0.3212891h-1.7021484v1.0917969h1.9248047v0.3203125
		h-2.2763672V142.50354h2.2539062V142.8248291z"/>
	<path class="st11" d="M40.4632568,145.6226807l-0.9042969-1.2119141h-0.8916016v1.2119141h-0.3515625V142.50354h1.3408203
		c0.6865234,0,1.1269531,0.3701172,1.1269531,0.9316406c0,0.5214844-0.3564453,0.8242188-0.8466797,0.9130859l0.9580078,1.2744141
		H40.4632568z M39.630249,142.8287354h-0.9628906v1.265625h0.9580078c0.4677734,0,0.8017578-0.2402344,0.8017578-0.6455078
		C40.427124,143.0611572,40.1331787,142.8287354,39.630249,142.8287354z"/>
	<path class="st11" d="M43.9398193,145.6226807l-0.9042969-1.2119141h-0.8916016v1.2119141h-0.3515625V142.50354h1.3408203
		c0.6865234,0,1.1269531,0.3701172,1.1269531,0.9316406c0,0.5214844-0.3564453,0.8242188-0.8466797,0.9130859l0.9580078,1.2744141
		H43.9398193z M43.1068115,142.8287354h-0.9628906v1.265625h0.9580078c0.4677734,0,0.8017578-0.2402344,0.8017578-0.6455078
		C43.9036865,143.0611572,43.6097412,142.8287354,43.1068115,142.8287354z"/>
	<path class="st11" d="M48.2532959,145.6226807h-0.3779297l-0.3662109-0.8242188h-1.6972656l-0.3691406,0.8242188h-0.3613281
		l1.4208984-3.1416016h0.3300781L48.2532959,145.6226807z M46.6634521,142.8912354l-0.7128906,1.5908203H47.37146
		L46.6634521,142.8912354z"/>
	<path class="st11" d="M50.3665771,145.6763916c-0.9003906,0-1.5644531-0.7089844-1.5644531-1.6083984
		c0-0.8916016,0.6601562-1.6171875,1.5771484-1.6171875c0.5664062,0,0.9052734,0.2001953,1.2167969,0.4941406l-0.2402344,0.2587891
		c-0.2636719-0.25-0.5576172-0.4277344-0.9804688-0.4277344c-0.6904297,0-1.2080078,0.5566406-1.2080078,1.2832031
		c0,0.7255859,0.5214844,1.2919922,1.2080078,1.2919922c0.4277344,0,0.7080078-0.1650391,1.0068359-0.4501953l0.2314453,0.2275391
		C51.2884521,145.4576416,50.9320068,145.6763916,50.3665771,145.6763916z"/>
	<path class="st11" d="M54.7337646,142.8248291h-1.9023438v1.0644531h1.7021484v0.3212891h-1.7021484v1.0917969h1.9248047v0.3203125
		h-2.2763672V142.50354h2.2539062V142.8248291z"/>
</g>
<g>
	<path class="st11" d="M256.1351318,112.9215088h-0.4414062l-1.1982422-1.5107422l-0.6640625,0.6728516v0.8378906h-0.3515625
		v-3.1191406h0.3515625v1.8623047l1.7910156-1.8623047h0.4550781l-1.3369141,1.3632812L256.1351318,112.9215088z"/>
</g>
<g>
	<path class="st11" d="M268.96521,51.2554932h-1.9023438v1.0644531h1.7021484v0.3208008h-1.7021484v1.0917969h1.9248047v0.3208008
		h-2.2763672v-3.1191406h2.2539062V51.2554932z"/>
	<path class="st11" d="M272.2005615,50.9342041h0.34375v3.1191406h-0.28125l-2.0136719-2.5576172v2.5576172h-0.3427734v-3.1191406
		h0.3291016l1.9648438,2.5V50.9342041z"/>
	<path class="st11" d="M274.7952881,52.3248291c0.6953125,0.1513672,1.015625,0.4052734,1.015625,0.8862305
		c0,0.5395508-0.4453125,0.8867188-1.0644531,0.8867188c-0.4951172,0-0.9003906-0.1645508-1.2744141-0.4990234l0.2177734-0.2583008
		c0.3251953,0.2939453,0.6376953,0.440918,1.0693359,0.440918c0.4189453,0,0.6953125-0.2182617,0.6953125-0.534668
		c0-0.2939453-0.15625-0.4589844-0.8105469-0.5966797c-0.7177734-0.15625-1.046875-0.3876953-1.046875-0.9047852
		c0-0.4990234,0.4316406-0.8554688,1.0244141-0.8554688c0.4541016,0,0.7792969,0.1293945,1.0957031,0.3833008l-0.2050781,0.2719727
		c-0.2890625-0.2363281-0.5791016-0.3388672-0.8994141-0.3388672c-0.4052734,0-0.6640625,0.2226562-0.6640625,0.5078125
		C273.9486084,52.0128174,274.1087646,52.1773682,274.7952881,52.3248291z"/>
	<path class="st11" d="M279.30896,52.7213135c0,0.9086914-0.5205078,1.3808594-1.3007812,1.3808594
		c-0.7705078,0-1.2958984-0.472168-1.2958984-1.3544922v-1.8134766h0.3515625v1.7915039
		c0,0.6728516,0.3564453,1.0512695,0.953125,1.0512695c0.5751953,0,0.9404297-0.3476562,0.9404297-1.0292969v-1.8134766h0.3515625
		V52.7213135z"/>
	<path class="st11" d="M280.8031006,50.9342041v3.1191406h-0.3515625v-3.1191406H280.8031006z"/>
	<path class="st11" d="M283.0823975,54.0533447h-0.3564453v-2.793457h-1.046875v-0.3256836h2.4501953v0.3256836h-1.046875
		V54.0533447z"/>
	<path class="st11" d="M287.2474365,51.2554932h-1.9023438v1.0644531h1.7021484v0.3208008h-1.7021484v1.0917969h1.9248047v0.3208008
		h-2.2763672v-3.1191406h2.2539062V51.2554932z"/>
</g>
<g>
	<path class="st11" d="M172.6907959,142.4556885h-1.9023438v1.0644531h1.7021484v0.3212891h-1.7021484v1.0917969h1.9248047
		v0.3203125h-2.2763672v-3.1191406h2.2539062V142.4556885z"/>
	<path class="st11" d="M175.9261475,142.1343994h0.34375v3.1191406h-0.28125l-2.0136719-2.5576172v2.5576172h-0.3427734v-3.1191406
		h0.3291016l1.9648438,2.5V142.1343994z"/>
	<path class="st11" d="M178.520874,143.5250244c0.6953125,0.1513672,1.015625,0.4052734,1.015625,0.8867188
		c0,0.5390625-0.4453125,0.8867188-1.0644531,0.8867188c-0.4951172,0-0.9003906-0.1650391-1.2744141-0.4990234l0.2177734-0.2587891
		c0.3251953,0.2939453,0.6376953,0.4414062,1.0693359,0.4414062c0.4189453,0,0.6953125-0.21875,0.6953125-0.5351562
		c0-0.2939453-0.15625-0.4589844-0.8105469-0.5966797c-0.7177734-0.15625-1.046875-0.3876953-1.046875-0.9042969
		c0-0.4990234,0.4316406-0.8554688,1.0244141-0.8554688c0.4541016,0,0.7792969,0.1289062,1.0957031,0.3828125l-0.2050781,0.2714844
		c-0.2890625-0.2353516-0.5791016-0.3378906-0.8994141-0.3378906c-0.4052734,0-0.6640625,0.2226562-0.6640625,0.5078125
		C177.6741943,143.2125244,177.8343506,143.3775635,178.520874,143.5250244z"/>
	<path class="st11" d="M183.0345459,143.9215088c0,0.9091797-0.5205078,1.3808594-1.3007812,1.3808594
		c-0.7705078,0-1.296875-0.4716797-1.296875-1.3544922v-1.8134766h0.3525391v1.7910156
		c0,0.6728516,0.3564453,1.0517578,0.953125,1.0517578c0.5751953,0,0.9404297-0.3476562,0.9404297-1.0292969v-1.8134766h0.3515625
		V143.9215088z"/>
	<path class="st11" d="M184.5286865,142.1343994v3.1191406h-0.3515625v-3.1191406H184.5286865z"/>
	<path class="st11" d="M186.8079834,145.25354h-0.3564453v-2.7939453h-1.046875v-0.3251953h2.4501953v0.3251953h-1.046875V145.25354
		z"/>
	<path class="st11" d="M190.9730225,142.4556885h-1.9023438v1.0644531h1.7021484v0.3212891h-1.7021484v1.0917969h1.9248047
		v0.3203125h-2.2763672v-3.1191406h2.2539062V142.4556885z"/>
</g>
<g>
	<path class="st11" d="M249.1292725,59.9752197h0.3515625v2.7939453h1.7558594v0.3251953h-2.1074219V59.9752197z"/>
	<path class="st11" d="M252.4661865,59.9752197v3.1191406h-0.3515625v-3.1191406H252.4661865z"/>
	<path class="st11" d="M255.9261475,59.9752197h0.34375v3.1191406h-0.28125l-2.0136719-2.5576172v2.5576172h-0.3427734v-3.1191406
		h0.3291016l1.9648438,2.5V59.9752197z"/>
</g>
<g>
	<path class="st11" d="M100.0394287,127.9742432h-1.0820312v-3.1191406h1.0820312
		c0.9804688,0,1.6582031,0.6728516,1.6582031,1.5556641C101.6976318,127.2926025,101.0198975,127.9742432,100.0394287,127.9742432z
		 M100.0394287,125.1802979H99.30896v2.46875h0.7304688c0.7890625,0,1.2919922-0.5351562,1.2919922-1.2294922
		C101.3314209,125.7242432,100.8284912,125.1802979,100.0394287,125.1802979z"/>
</g>
<g>
	<path class="st11" d="M121.355835,124.8463135h0.2900391l0.8554688,2.6064453l0.890625-2.5976562h0.3701172l-1.1142578,3.1416016
		h-0.2978516l-0.8554688-2.53125l-0.8603516,2.53125H120.34021l-1.1142578-3.1416016h0.3837891l0.890625,2.5976562
		L121.355835,124.8463135z"/>
</g>
<g>
	<path class="st11" d="M105.973999,70.6983643h-1.0820312v-3.1186523h1.0820312
		c0.9804688,0,1.6582031,0.6723633,1.6582031,1.5546875S106.9544678,70.6983643,105.973999,70.6983643z M105.973999,67.9049072
		h-0.7304688v2.4682617h0.7304688c0.7890625,0,1.2929688-0.534668,1.2929688-1.2299805
		C107.2669678,68.4483643,106.7630615,67.9049072,105.973999,67.9049072z"/>
	<path class="st11" d="M110.9212646,67.5797119h0.34375v3.1186523h-0.28125l-2.0136719-2.5576172v2.5576172h-0.3427734v-3.1186523
		h0.3291016l1.9648438,2.4995117V67.5797119z"/>
</g>
</svg>
