<?xml version="1.0" encoding="utf-8"?>
<!-- Generator: Adobe Illustrator 25.2.0, SVG Export Plug-In . SVG Version: 6.00 Build 0)  -->
<svg version="1.1" id="Layer_1" xmlns="http://www.w3.org/2000/svg" xmlns:xlink="http://www.w3.org/1999/xlink" x="0px" y="0px"
	 viewBox="0 0 188.36 144.61" style="enable-background:new 0 0 188.36 144.61;" xml:space="preserve">
<style type="text/css">
	.st0{fill:#245169;}
	.st1{fill:#FFFFFF;}
	.st2{fill:#00516B;}
</style>
<g>
	<path class="st0" d="M24.48,4.3h-1.57v2.28h-0.73V0.12h2.41c1.46,0,2.41,0.77,2.41,2.06C27.02,3.58,25.86,4.3,24.48,4.3z
		 M24.55,0.79h-1.63v2.84h1.59c1.07,0,1.77-0.57,1.77-1.43C26.28,1.27,25.59,0.79,24.55,0.79z"/>
	<path class="st0" d="M33.19,0.78h-3.94v2.2h3.52v0.66h-3.52v2.27h3.98v0.66h-4.71V0.12h4.66v0.66H33.19z"/>
	<path class="st0" d="M39.62,0.12h0.71v6.45h-0.58l-4.17-5.29v5.29h-0.71V0.12h0.68l4.06,5.17V0.12H39.62z"/>
	<path class="st0" d="M44.79,6.57h-0.74V0.79h-2.17V0.12h5.07v0.67h-2.17v5.78H44.79z"/>
	<path class="st0" d="M49.22,3.67v2.9h-0.73V0.12h0.73v2.87h3.72V0.12h0.73v6.45h-0.73v-2.9C52.94,3.67,49.22,3.67,49.22,3.67z"/>
	<path class="st0" d="M58.66,6.68c-1.96,0-3.28-1.54-3.28-3.33S56.72,0,58.68,0s3.28,1.54,3.28,3.33S60.63,6.68,58.66,6.68z
		 M58.66,0.68c-1.47,0-2.53,1.18-2.53,2.65s1.08,2.68,2.55,2.68s2.52-1.18,2.52-2.65S60.14,0.68,58.66,0.68z"/>
	<path class="st0" d="M68.96,3.82c0,1.88-1.08,2.86-2.69,2.86c-1.59,0-2.68-0.98-2.68-2.8V0.12h0.73v3.71
		c0,1.39,0.74,2.18,1.97,2.18c1.19,0,1.94-0.72,1.94-2.13V0.12h0.73C68.96,0.12,68.96,3.82,68.96,3.82z"/>
	<path class="st0" d="M73.18,3c1.44,0.31,2.1,0.84,2.1,1.83c0,1.12-0.92,1.83-2.2,1.83c-1.02,0-1.86-0.34-2.64-1.03l0.45-0.53
		c0.67,0.61,1.32,0.91,2.21,0.91c0.87,0,1.44-0.45,1.44-1.11c0-0.61-0.32-0.95-1.68-1.24c-1.48-0.32-2.17-0.8-2.17-1.87
		c0-1.03,0.89-1.77,2.12-1.77c0.94,0,1.61,0.27,2.27,0.79l-0.42,0.56c-0.6-0.49-1.2-0.7-1.86-0.7c-0.84,0-1.37,0.46-1.37,1.05
		C71.43,2.35,71.76,2.69,73.18,3z"/>
	<path class="st0" d="M81.6,0.78h-3.94v2.2h3.52v0.66h-3.52v2.27h3.98v0.66h-4.71V0.12h4.66v0.66H81.6z"/>
	<path class="st0" d="M85.61,3c1.44,0.31,2.1,0.84,2.1,1.83c0,1.12-0.92,1.83-2.2,1.83c-1.02,0-1.86-0.34-2.64-1.03l0.45-0.53
		c0.68,0.61,1.32,0.91,2.22,0.91c0.87,0,1.44-0.45,1.44-1.11c0-0.61-0.32-0.95-1.68-1.24c-1.48-0.32-2.17-0.8-2.17-1.87
		c0-1.03,0.89-1.77,2.12-1.77c0.94,0,1.61,0.27,2.27,0.79L87.1,1.37c-0.6-0.49-1.2-0.7-1.86-0.7c-0.84,0-1.37,0.46-1.37,1.05
		C83.86,2.35,84.19,2.69,85.61,3z"/>
	<path class="st0" d="M92,4.16V3.45h3.67v0.71H92z"/>
</g>
<g>
	<path class="st0" d="M104.44,1.38h-3.51v2.07h3.14v0.6h-3.14v2.53h-0.65v-5.8h4.17L104.44,1.38L104.44,1.38z"/>
	<path class="st0" d="M105.87,0.77h0.65v5.19h3.26v0.6h-3.92L105.87,0.77L105.87,0.77z"/>
	<path class="st0" d="M113.54,6.67c-1.76,0-2.95-1.38-2.95-2.99s1.2-3.01,2.97-3.01c1.77,0,2.95,1.38,2.95,2.99
		S115.31,6.67,113.54,6.67z M113.54,1.28c-1.33,0-2.27,1.06-2.27,2.39s0.96,2.4,2.29,2.4s2.27-1.06,2.27-2.39
		S114.87,1.28,113.54,1.28z"/>
	<path class="st0" d="M120.75,6.67c-1.76,0-2.95-1.38-2.95-2.99s1.2-3.01,2.97-3.01c1.77,0,2.95,1.38,2.95,2.99
		S122.52,6.67,120.75,6.67z M120.75,1.28c-1.33,0-2.27,1.06-2.27,2.39s0.96,2.4,2.29,2.4s2.27-1.06,2.27-2.39
		S122.08,1.28,120.75,1.28z"/>
	<path class="st0" d="M129.26,6.57l-1.68-2.25h-1.66v2.25h-0.65v-5.8h2.49c1.28,0,2.1,0.69,2.1,1.73c0,0.97-0.66,1.53-1.57,1.7
		l1.78,2.37C130.07,6.57,129.26,6.57,129.26,6.57z M127.71,1.38h-1.79v2.35h1.78c0.87,0,1.49-0.45,1.49-1.2
		C129.2,1.81,128.65,1.38,127.71,1.38z"/>
	<path class="st0" d="M134.25,2.27l-0.48-0.35c0.52-0.78,1.07-1.23,2.09-1.23c1.05,0,1.8,0.7,1.8,1.65c0,0.85-0.45,1.38-1.47,2.26
		l-1.55,1.38h3.07v0.6h-4.05V6.07l2.1-1.86c0.89-0.8,1.21-1.24,1.21-1.82c0-0.68-0.54-1.11-1.17-1.11
		C135.14,1.28,134.71,1.63,134.25,2.27z"/>
	<path class="st0" d="M142.64,1.84c-0.43-0.36-0.84-0.57-1.37-0.57c-1.05,0-1.71,1.06-1.7,2.56c0.32-0.46,0.8-0.89,1.65-0.89
		c1.08,0,2,0.7,2,1.79c0,1.13-0.9,1.94-2.08,1.94c-0.64,0-1.16-0.22-1.52-0.59c-0.46-0.46-0.73-1.06-0.73-2.25
		c0-1.77,0.89-3.16,2.41-3.16c0.7,0,1.21,0.25,1.71,0.66L142.64,1.84z M141.14,3.51c-0.87,0-1.45,0.62-1.45,1.28
		c0,0.75,0.61,1.31,1.47,1.31s1.4-0.59,1.4-1.33C142.56,4.04,141.98,3.51,141.14,3.51z"/>
</g>
<g>
	<path class="st0" d="M62.92,144.52h-0.7l-0.68-1.53h-3.16l-0.69,1.53h-0.67l2.64-5.84h0.61L62.92,144.52z M59.97,139.45l-1.33,2.96
		h2.64L59.97,139.45z"/>
	<path class="st0" d="M64.23,138.72h0.65v5.2h3.26v0.6h-3.92L64.23,138.72L64.23,138.72z"/>
	<path class="st0" d="M74.93,144.52h-0.7l-0.68-1.53h-3.16l-0.69,1.53h-0.67l2.64-5.84h0.61L74.93,144.52z M71.97,139.45l-1.33,2.96
		h2.64L71.97,139.45z"/>
	<path class="st0" d="M78.2,141.31c1.29,0.28,1.89,0.75,1.89,1.65c0,1-0.83,1.65-1.98,1.65c-0.92,0-1.67-0.31-2.37-0.93l0.41-0.48
		c0.6,0.55,1.18,0.82,1.99,0.82c0.78,0,1.29-0.41,1.29-0.99c0-0.55-0.29-0.85-1.51-1.11c-1.33-0.29-1.95-0.72-1.95-1.68
		c0-0.93,0.8-1.59,1.91-1.59c0.85,0,1.45,0.24,2.04,0.71l-0.38,0.5c-0.54-0.44-1.08-0.63-1.67-0.63c-0.75,0-1.23,0.42-1.23,0.95
		C76.63,140.73,76.93,141.04,78.2,141.31z"/>
	<path class="st0" d="M86.52,144.52H85.7l-2.23-2.81l-1.23,1.25v1.56h-0.65v-5.8h0.65v3.46l3.33-3.46h0.85l-2.49,2.54L86.52,144.52z
		"/>
	<path class="st0" d="M93.07,144.52h-0.7l-0.68-1.53h-3.16l-0.69,1.53h-0.67l2.64-5.84h0.61L93.07,144.52z M90.12,139.45l-1.33,2.96
		h2.64L90.12,139.45z"/>
	<path class="st0" d="M99.11,141.31c1.29,0.28,1.89,0.75,1.89,1.65c0,1-0.83,1.65-1.98,1.65c-0.92,0-1.67-0.31-2.37-0.93l0.41-0.48
		c0.61,0.55,1.19,0.82,1.99,0.82c0.78,0,1.29-0.41,1.29-0.99c0-0.55-0.29-0.85-1.51-1.11c-1.33-0.29-1.95-0.72-1.95-1.68
		c0-0.93,0.8-1.59,1.91-1.59c0.84,0,1.45,0.24,2.04,0.71l-0.38,0.5c-0.54-0.44-1.08-0.63-1.67-0.63c-0.75,0-1.23,0.42-1.23,0.95
		C97.54,140.73,97.83,141.04,99.11,141.31z"/>
	<path class="st0" d="M104.57,144.52h-0.66v-5.2h-1.95v-0.6h4.56v0.6h-1.95V144.52z"/>
	<path class="st0" d="M106.9,144.52v-0.87h0.76v0.87H106.9z"/>
</g>
<g>
	<path class="st0" d="M188.32,94.92v0.7l-1.53,0.68v3.16l1.53,0.69v0.67l-5.84-2.64v-0.61L188.32,94.92z M183.24,97.88l2.96,1.33
		v-2.64L183.24,97.88z"/>
	<path class="st0" d="M182.52,93.62v-0.65h5.2v-3.26h0.6v3.92L182.52,93.62L182.52,93.62z"/>
	<path class="st0" d="M186.27,86.26v1.41h2.05v0.65h-5.8v-2.17c0-1.31,0.7-2.17,1.85-2.17C185.63,83.98,186.27,85.03,186.27,86.26z
		 M183.12,86.2v1.47h2.55v-1.43c0-0.96-0.51-1.59-1.28-1.59C183.55,84.64,183.12,85.27,183.12,86.2z"/>
	<path class="st0" d="M185.71,81.97h2.61v0.65h-5.8v-0.65h2.58v-3.35h-2.58v-0.65h5.8v0.65h-2.61V81.97z"/>
	<path class="st0" d="M188.32,70.75v0.7l-1.53,0.68v3.16l1.53,0.69v0.67l-5.84-2.64V73.4L188.32,70.75z M183.24,73.71l2.96,1.33
		V72.4L183.24,73.71z"/>
	<path class="st0" d="M188.32,61.39v0.7l-1.53,0.68v3.16l1.53,0.69v0.67l-5.84-2.64v-0.61L188.32,61.39z M183.24,64.35l2.96,1.33
		v-2.64L183.24,64.35z"/>
	<path class="st0" d="M182.52,56.54v-0.7l5.84,2.49v0.58l-5.84,2.49v-0.73l5-2.06L182.52,56.54z"/>
	<path class="st0" d="M183.12,50.34v3.54h1.98v-3.17h0.6v3.17h2.03V50.3h0.6v4.23h-5.8v-4.19H183.12z"/>
	<path class="st0" d="M188.32,49.01h-0.87v-0.76h0.87V49.01z"/>
</g>
<g>
	<g>
		<polygon class="st1" points="171.29,121.74 171.29,109.14 165.11,109.14 165.11,77.29 165.11,72.96 154.55,72.96 154.55,64.79 
			161.71,64.79 161.71,37.14 150.19,37.14 150.19,29.14 113.93,29.14 113.93,27.03 111.05,27.03 111.05,29.14 97.01,29.14 
			97.01,23.53 67.75,23.53 48.13,23.53 48.13,21.37 45.25,21.37 45.25,29.14 11.13,29.14 11.13,72.96 0.13,72.96 0.13,77.29 
			0.65,77.29 0.65,110.19 26.65,110.19 26.65,109.04 53.45,109.04 53.45,119.04 53.81,119.04 53.81,121.74 90.59,121.74 		"/>
	</g>
	<g>
		<path class="st2" d="M103.96,66.39c-0.03,0-0.06-0.01-0.08-0.03l-13.3-11.29l-13.3,11.29c-0.05,0.04-0.13,0.04-0.18-0.01
			c-0.04-0.05-0.04-0.13,0.01-0.18L90.5,54.81c0.05-0.04,0.12-0.04,0.16,0l13.38,11.36c0.05,0.04,0.06,0.12,0.01,0.18
			C104.04,66.37,104,66.39,103.96,66.39z"/>
	</g>
	<g>
		<path class="st2" d="M90.58,66.39c-0.03,0-0.06-0.01-0.08-0.03L77.12,55c-0.05-0.04-0.06-0.12-0.01-0.18
			c0.04-0.05,0.12-0.06,0.18-0.01l13.3,11.29l13.3-11.29c0.05-0.04,0.13-0.04,0.18,0.01c0.04,0.05,0.04,0.13-0.01,0.18L90.67,66.36
			C90.64,66.38,90.61,66.39,90.58,66.39z"/>
	</g>
	<g>
		<path class="st2" d="M90.58,66.39c-0.07,0-0.12-0.06-0.12-0.12V54.9c0-0.07,0.06-0.12,0.12-0.12s0.12,0.06,0.12,0.12v11.36
			C90.71,66.33,90.65,66.39,90.58,66.39z"/>
	</g>
	<g>
		<path class="st2" d="M77.21,55.03c-0.07,0-0.12-0.06-0.12-0.12V41.22c0-0.07,0.06-0.12,0.12-0.12s0.12,0.06,0.12,0.12V54.9
			C77.33,54.97,77.27,55.03,77.21,55.03z"/>
	</g>
	<g>
		<path class="st2" d="M103.96,55.03c-0.07,0-0.12-0.06-0.12-0.12V41.22c0-0.07,0.06-0.12,0.12-0.12s0.12,0.06,0.12,0.12V54.9
			C104.09,54.97,104.03,55.03,103.96,55.03z"/>
	</g>
	<g>
		<path class="st2" d="M90.58,121.87H53.8c-0.07,0-0.12-0.06-0.12-0.12v-2.57h-0.23c-0.07,0-0.12-0.06-0.12-0.12v-10
			c0-0.07,0.06-0.12,0.12-0.12s0.12,0.06,0.12,0.12v9.88h0.23c0.07,0,0.12,0.06,0.12,0.12v2.57h36.66c0.07,0,0.12,0.06,0.12,0.12
			S90.65,121.87,90.58,121.87z"/>
	</g>
	<g>
		<path class="st2" d="M171.29,121.87h-80.7c-0.07,0-0.12-0.06-0.12-0.12v-12.7c0-0.07,0.06-0.12,0.12-0.12s0.12,0.06,0.12,0.12
			v12.57h80.45v-12.35h-6.06c-0.07,0-0.12-0.06-0.12-0.12V77.28c0-0.07,0.06-0.12,0.12-0.12s0.12,0.06,0.12,0.12v31.73h6.06
			c0.07,0,0.12,0.06,0.12,0.12v12.6C171.41,121.81,171.35,121.87,171.29,121.87z"/>
	</g>
	<g>
		<path class="st2" d="M161.71,64.91h-7.16c-0.07,0-0.12-0.06-0.12-0.12s0.06-0.12,0.12-0.12h7.04v-27.4h-11.4
			c-0.07,0-0.12-0.06-0.12-0.12v-7.88h-36.13c-0.07,0-0.12-0.06-0.12-0.12s0.06-0.12,0.12-0.12h36.26c0.07,0,0.12,0.06,0.12,0.12
			v7.88h11.4c0.07,0,0.12,0.06,0.12,0.12v27.64C161.83,64.85,161.77,64.91,161.71,64.91z"/>
	</g>
	<g>
		<path class="st2" d="M26.64,110.31h-26c-0.07,0-0.12-0.06-0.12-0.12v-32.9c0-0.07,0.06-0.12,0.12-0.12s0.12,0.06,0.12,0.12v32.77
			h25.75v-1.01c0-0.07,0.06-0.12,0.12-0.12s0.12,0.06,0.12,0.12v1.14C26.77,110.25,26.71,110.31,26.64,110.31z"/>
	</g>
	<g>
		<path class="st2" d="M11.12,73.09c-0.07,0-0.12-0.06-0.12-0.12V29.14c0-0.07,0.06-0.12,0.12-0.12h34.12
			c0.07,0,0.12,0.06,0.12,0.12s-0.06,0.12-0.12,0.12h-34v43.69C11.25,73.03,11.19,73.09,11.12,73.09z"/>
	</g>
	<g>
		<path class="st2" d="M67.75,23.65H48.12c-0.07,0-0.12-0.06-0.12-0.12s0.06-0.12,0.12-0.12h19.62c0.07,0,0.12,0.06,0.12,0.12
			S67.81,23.65,67.75,23.65z"/>
	</g>
	<g>
		<path class="st2" d="M113.21,41.35c-0.07,0-0.12-0.06-0.12-0.12v-5.5c0-0.07,0.06-0.12,0.12-0.12s0.12,0.06,0.12,0.12v5.5
			C113.33,41.29,113.27,41.35,113.21,41.35z"/>
	</g>
	<g>
		<path class="st2" d="M67.75,41.35c-0.07,0-0.12-0.06-0.12-0.12v-17.7c0-0.07,0.06-0.12,0.12-0.12H97c0.07,0,0.12,0.06,0.12,0.12
			v5.5h13.92c0.07,0,0.12,0.06,0.12,0.12s-0.06,0.12-0.12,0.12H97c-0.07,0-0.12-0.06-0.12-0.12v-5.5H67.87v17.58
			C67.87,41.29,67.81,41.35,67.75,41.35z"/>
	</g>
	<g>
		<path class="st2" d="M77.21,55.03h-6.26c-0.07,0-0.12-0.06-0.12-0.12s0.06-0.12,0.12-0.12h6.26c0.07,0,0.12,0.06,0.12,0.12
			S77.27,55.03,77.21,55.03z"/>
	</g>
	<g>
		<path class="st2" d="M110.56,55.03h-6.6c-0.07,0-0.12-0.06-0.12-0.12s0.06-0.12,0.12-0.12h6.6c0.07,0,0.12,0.06,0.12,0.12
			S110.63,55.03,110.56,55.03z"/>
	</g>
	<g>
		<path class="st2" d="M113.92,53.53c-0.07,0-0.12-0.06-0.12-0.12V41.35H67.39V53.4c0,0.07-0.06,0.12-0.12,0.12
			s-0.12-0.06-0.12-0.12V41.22c0-0.07,0.06-0.12,0.12-0.12h46.66c0.07,0,0.12,0.06,0.12,0.12V53.4
			C114.05,53.47,113.99,53.53,113.92,53.53z"/>
	</g>
	<g>
		<path class="st2" d="M103.96,66.39H77.21c-0.07,0-0.12-0.06-0.12-0.12V54.9c0-0.07,0.06-0.12,0.12-0.12h26.76
			c0.07,0,0.12,0.06,0.12,0.12v11.36C104.09,66.33,104.03,66.39,103.96,66.39z M77.33,66.14h26.51V55.03H77.33V66.14z"/>
	</g>
	<g>
		<path class="st2" d="M103.96,48.19H77.21c-0.07,0-0.12-0.06-0.12-0.12s0.06-0.12,0.12-0.12h26.76c0.07,0,0.12,0.06,0.12,0.12
			S104.03,48.19,103.96,48.19z"/>
	</g>
	<g>
		<polygon class="st2" points="90.58,109.04 154.54,109.04 154.54,77.28 165.1,77.28 165.1,72.96 154.54,72.96 154.54,64.78 
			154.54,64.12 132.44,64.12 132.44,53.4 113.92,53.4 113.92,54.9 110.56,54.9 110.56,64.4 113.76,64.4 113.76,72.44 106.06,72.44 
			106.06,74.42 90.58,74.42 		"/>
	</g>
	<g>
		<path class="st2" d="M154.54,109.17H90.58c-0.07,0-0.12-0.06-0.12-0.12V74.42c0-0.07,0.06-0.12,0.12-0.12h15.36v-1.85
			c0-0.07,0.06-0.12,0.12-0.12h7.57v-7.79h-3.07c-0.07,0-0.12-0.06-0.12-0.12v-9.5c0-0.07,0.06-0.12,0.12-0.12h3.23v-1.38
			c0-0.07,0.06-0.12,0.12-0.12h18.52c0.07,0,0.12,0.06,0.12,0.12v10.59h21.97c0.07,0,0.12,0.06,0.12,0.12v8.71h10.43
			c0.07,0,0.12,0.06,0.12,0.12v4.32c0,0.07-0.06,0.12-0.12,0.12h-10.43v31.64C154.67,109.11,154.61,109.17,154.54,109.17z
			 M90.71,108.92h63.71V77.28c0-0.07,0.06-0.12,0.12-0.12h10.43v-4.07h-10.43c-0.07,0-0.12-0.06-0.12-0.12v-8.71h-21.97
			c-0.07,0-0.12-0.06-0.12-0.12V53.53h-18.27v1.38c0,0.07-0.06,0.12-0.12,0.12h-3.23v9.25h3.07c0.07,0,0.12,0.06,0.12,0.12v8.04
			c0,0.07-0.06,0.12-0.12,0.12h-7.57v1.85c0,0.07-0.06,0.12-0.12,0.12H90.71V108.92z"/>
	</g>
	<g>
		<polygon class="st1" points="90.58,74.42 75.1,74.42 75.1,72.44 70.94,72.44 70.94,54.9 67.26,54.9 67.26,53.4 48.72,53.4 
			48.72,64.12 26.64,64.12 26.64,75.16 26.28,75.16 26.28,88.12 26.64,88.12 26.64,109.04 53.44,109.04 90.58,109.04 		"/>
	</g>
	<g>
		<path class="st2" d="M90.58,109.17H26.65c-0.07,0-0.12-0.06-0.12-0.12v-20.8H26.3c-0.07,0-0.12-0.06-0.12-0.12V75.16
			c0-0.07,0.06-0.12,0.12-0.12h0.23V64.12c0-0.07,0.06-0.12,0.12-0.12H48.6V53.4c0-0.07,0.06-0.12,0.12-0.12h18.54
			c0.07,0,0.12,0.06,0.12,0.12v1.38h3.55c0.07,0,0.12,0.06,0.12,0.12v17.42h4.04c0.07,0,0.12,0.06,0.12,0.12v1.85h15.35
			c0.07,0,0.12,0.06,0.12,0.12v34.62C90.71,109.11,90.65,109.17,90.58,109.17z M26.77,108.92h63.69V74.55H75.1
			c-0.07,0-0.12-0.06-0.12-0.12v-1.85h-4.04c-0.07,0-0.12-0.06-0.12-0.12V55.03h-3.55c-0.07,0-0.12-0.06-0.12-0.12v-1.38h-18.3v10.6
			c0,0.07-0.06,0.12-0.12,0.12H26.77v10.91c0,0.07-0.06,0.12-0.12,0.12h-0.23v12.71h0.23c0.07,0,0.12,0.06,0.12,0.12V108.92z"/>
	</g>
	<g>
		<path class="st2" d="M13.1,77.41H0.12C0.06,77.41,0,77.35,0,77.28v-4.32c0-0.07,0.06-0.12,0.12-0.12H13.1
			c0.07,0,0.12,0.06,0.12,0.12v4.32C13.23,77.35,13.17,77.41,13.1,77.41z M0.25,77.16h12.73v-4.07H0.25V77.16z"/>
	</g>
	<g>
		<path class="st2" d="M48.12,29.79h-2.88c-0.07,0-0.12-0.06-0.12-0.12v-8.3c0-0.07,0.06-0.12,0.12-0.12h2.88
			c0.07,0,0.12,0.06,0.12,0.12v8.3C48.25,29.73,48.19,29.79,48.12,29.79z M45.37,29.54H48v-8.05h-2.63V29.54z"/>
	</g>
	<g>
		<path class="st2" d="M113.92,35.85h-1.44c-0.07,0-0.12-0.06-0.12-0.12v-5.4h-1.32c-0.07,0-0.12-0.06-0.12-0.12v-3.18
			c0-0.07,0.06-0.12,0.12-0.12h2.88c0.07,0,0.12,0.06,0.12,0.12v8.7C114.05,35.79,113.99,35.85,113.92,35.85z M112.61,35.6h1.19
			v-8.45h-2.63v2.93h1.32c0.07,0,0.12,0.06,0.12,0.12C112.61,30.2,112.61,35.6,112.61,35.6z"/>
	</g>
</g>
</svg>
