<?xml version="1.0" encoding="utf-8"?>
<!-- Generator: Adobe Illustrator 25.2.0, SVG Export Plug-In . SVG Version: 6.00 Build 0)  -->
<svg version="1.1" id="Layer_1" xmlns="http://www.w3.org/2000/svg" xmlns:xlink="http://www.w3.org/1999/xlink" x="0px" y="0px"
	 viewBox="0 0 125.47 114.27" style="enable-background:new 0 0 125.47 114.27;" xml:space="preserve">
<style type="text/css">
	.st0{enable-background:new    ;}
	.st1{fill:#FFFFFF;}
	.st2{fill:#00516B;}
	.st3{fill:none;stroke:#00516B;stroke-width:0;stroke-linecap:round;stroke-miterlimit:10;}
	.st4{fill:#245169;}
</style>
<g>
	<g>
		<g class="st0">
			<g>
				<g>
					<rect x="9.31" y="15.23" class="st1" width="18.63" height="7.67"/>
				</g>
				<g>
					<rect x="65.04" y="22.65" class="st1" width="8.95" height="6.51"/>
				</g>
				<g>
					<rect x="96.6" y="18.04" class="st1" width="7.45" height="24.64"/>
				</g>
				<g>
					<rect x="39.14" y="70.62" class="st1" width="70.74" height="7.45"/>
				</g>
				<g>
					<rect x="0.15" y="51.35" class="st1" width="7.44" height="23.86"/>
				</g>
				<g>
					<polygon class="st1" points="37.92,51.74 37.92,71.13 37.11,71.13 7.59,71.13 7.1,71.13 7.1,51.35 7.1,48.75 13.4,48.75 
						13.4,49.56 32.66,49.56 37.92,49.56 					"/>
				</g>
				<g>
					<polygon class="st1" points="56.51,50.67 56.51,72.87 39.14,72.87 37.11,72.87 37.11,71.13 37.92,71.13 37.92,51.74 
						43.04,51.74 43.04,50.67 					"/>
				</g>
				<g>
					<polygon class="st1" points="75.1,72.87 56.51,72.87 56.51,50.67 75.1,50.67 75.1,53.81 75.1,71.13 75.93,71.13 75.93,72.87 
											"/>
				</g>
				<g>
					<polygon class="st1" points="81.88,55.06 89.58,55.06 89.58,62.17 93.28,62.17 93.28,71.13 75.93,71.13 75.1,71.13 75.1,53.81 
						81.88,53.81 					"/>
				</g>
				<g>
					<polygon class="st1" points="105.77,70.62 105.77,71.13 93.28,71.13 93.28,62.17 89.58,62.17 89.58,55.06 81.88,55.06 
						81.88,53.81 81.88,49.56 97.1,49.56 97.1,48.75 105.77,48.75 					"/>
				</g>
				<g>
					<polygon class="st2" points="97.1,48.75 97.1,49.56 81.88,49.56 80.84,49.56 80.84,44.72 75.1,44.72 75.1,37.87 74.41,37.87 
						74.41,29.17 73.99,29.17 73.99,22.65 73.99,22.4 96.6,22.4 97.1,22.4 97.1,42.68 					"/>
				</g>
				<g>
					<polygon class="st1" points="33.92,19.02 65.04,19.02 65.04,22.65 65.04,29.17 53.18,29.17 48.08,29.17 48.08,37.87 
						48.08,43.84 42.77,43.84 42.77,41.91 35.53,41.91 35.53,22.4 33.92,22.4 					"/>
				</g>
				<g>
					<polygon class="st1" points="35.53,44.7 35.53,44.94 32.66,44.94 32.66,49.56 13.4,49.56 13.4,48.75 13.4,22.91 13.4,22.4 
						27.95,22.4 33.92,22.4 35.53,22.4 35.53,41.91 					"/>
				</g>
				<g>
					<path class="st2" d="M75.93,73.02H56.51c-0.08,0-0.15-0.07-0.15-0.15s0.07-0.15,0.15-0.15h19.27v-1.59
						c0-0.08,0.07-0.15,0.15-0.15s0.15,0.07,0.15,0.15v1.74C76.08,72.95,76.01,73.02,75.93,73.02z"/>
				</g>
				<g>
					<path class="st2" d="M75.1,53.96c-0.08,0-0.15-0.07-0.15-0.15v-3H56.51c-0.08,0-0.15-0.07-0.15-0.15s0.07-0.15,0.15-0.15H75.1
						c0.08,0,0.15,0.07,0.15,0.15v3.15C75.25,53.9,75.18,53.96,75.1,53.96z"/>
				</g>
				<g>
					<path class="st2" d="M53.18,44.87c-0.04,0-0.08-0.02-0.11-0.05c-0.05-0.06-0.05-0.16,0.02-0.21l8.06-6.85
						c0.06-0.05,0.14-0.05,0.19,0l8.07,6.85c0.06,0.05,0.07,0.15,0.02,0.21s-0.15,0.07-0.21,0.02l-7.97-6.77l-7.96,6.77
						C53.25,44.86,53.22,44.87,53.18,44.87z"/>
				</g>
				<g>
					<path class="st2" d="M61.24,44.87c-0.03,0-0.07-0.01-0.1-0.04l-8.06-6.85c-0.06-0.05-0.07-0.15-0.02-0.21
						c0.05-0.06,0.15-0.07,0.21-0.02l7.96,6.77l7.97-6.77c0.06-0.05,0.16-0.05,0.21,0.02s0.05,0.16-0.02,0.21l-8.07,6.85
						C61.31,44.86,61.28,44.87,61.24,44.87z"/>
				</g>
				<g>
					<path class="st2" d="M61.24,44.87c-0.08,0-0.15-0.07-0.15-0.15v-6.85c0-0.08,0.07-0.15,0.15-0.15s0.15,0.07,0.15,0.15v6.85
						C61.39,44.8,61.32,44.87,61.24,44.87z"/>
				</g>
				<g>
					<path class="st2" d="M73.99,22.8h-8.95c-0.08,0-0.15-0.07-0.15-0.15s0.07-0.15,0.15-0.15h8.95c0.08,0,0.15,0.07,0.15,0.15
						S74.07,22.8,73.99,22.8z"/>
				</g>
				<g>
					<path class="st2" d="M7.59,75.37H0.15C0.07,75.37,0,75.3,0,75.22V51.35c0-0.08,0.07-0.15,0.15-0.15H7.1
						c0.08,0,0.15,0.07,0.15,0.15S7.18,51.5,7.1,51.5H0.3v23.56h7.14v-3.94c0-0.08,0.07-0.15,0.15-0.15s0.15,0.07,0.15,0.15v4.09
						C7.74,75.3,7.67,75.37,7.59,75.37z"/>
				</g>
				<g>
					<path class="st2" d="M109.87,78.23H39.14c-0.08,0-0.15-0.07-0.15-0.15v-5.21c0-0.08,0.07-0.15,0.15-0.15s0.15,0.07,0.15,0.15
						v5.06h70.44v-7.15h-3.95c-0.08,0-0.15-0.07-0.15-0.15s0.07-0.15,0.15-0.15h4.1c0.08,0,0.15,0.07,0.15,0.15v7.45
						C110.02,78.16,109.96,78.23,109.87,78.23z"/>
				</g>
				<g>
					<path class="st2" d="M13.4,23.06H9.31c-0.08,0-0.15-0.07-0.15-0.15v-7.44c0-0.08,0.07-0.15,0.15-0.15h18.63
						c0.08,0,0.15,0.07,0.15,0.15v6.93c0,0.08-0.07,0.15-0.15,0.15s-0.15-0.07-0.15-0.15v-6.78H9.46v7.14h3.94
						c0.08,0,0.15,0.07,0.15,0.15S13.49,23.06,13.4,23.06z"/>
				</g>
				<g>
					<path class="st2" d="M104.05,42.83H97.1c-0.08,0-0.15-0.07-0.15-0.15s0.07-0.15,0.15-0.15h6.8V18.46h-7.15v3.94
						c0,0.08-0.07,0.15-0.15,0.15s-0.15-0.07-0.15-0.15v-4.09c0-0.08,0.07-0.15,0.15-0.15h7.45c0.08,0,0.15,0.07,0.15,0.15v24.37
						C104.2,42.77,104.13,42.83,104.05,42.83z"/>
				</g>
				<g>
					<path class="st2" d="M56.51,78.23c-0.08,0-0.15-0.07-0.15-0.15v-5.21c0-0.08,0.07-0.15,0.15-0.15s0.15,0.07,0.15,0.15v5.21
						C56.66,78.16,56.6,78.23,56.51,78.23z"/>
				</g>
				<g>
					<path class="st2" d="M75.1,78.23c-0.08,0-0.15-0.07-0.15-0.15v-5.21c0-0.08,0.07-0.15,0.15-0.15s0.15,0.07,0.15,0.15v5.21
						C75.25,78.16,75.18,78.23,75.1,78.23z"/>
				</g>
				<g>
					<path class="st2" d="M53.18,38.02c-0.08,0-0.15-0.07-0.15-0.15v-8.71c0-0.08,0.07-0.15,0.15-0.15s0.15,0.07,0.15,0.15v8.71
						C53.33,37.96,53.27,38.02,53.18,38.02z"/>
				</g>
				<g>
					<path class="st2" d="M69.31,38.02c-0.08,0-0.15-0.07-0.15-0.15v-8.71c0-0.08,0.07-0.15,0.15-0.15s0.15,0.07,0.15,0.15v8.71
						C69.46,37.96,69.39,38.02,69.31,38.02z"/>
				</g>
				<g>
					<path class="st2" d="M93.28,78.23c-0.08,0-0.15-0.07-0.15-0.15v-6.95c0-0.08,0.07-0.15,0.15-0.15s0.15,0.07,0.15,0.15v6.95
						C93.43,78.16,93.36,78.23,93.28,78.23z"/>
				</g>
				<g>
					<path class="st2" d="M53.18,38.02h-5.1c-0.08,0-0.15-0.07-0.15-0.15s0.07-0.15,0.15-0.15h5.1c0.08,0,0.15,0.07,0.15,0.15
						S53.27,38.02,53.18,38.02z"/>
				</g>
				<g>
					<path class="st2" d="M74.41,38.02h-5.1c-0.08,0-0.15-0.07-0.15-0.15s0.07-0.15,0.15-0.15h5.1c0.08,0,0.15,0.07,0.15,0.15
						S74.49,38.02,74.41,38.02z"/>
				</g>
				<g>
					<path class="st2" d="M73.99,29.32h-8.95c-0.08,0-0.15-0.07-0.15-0.15s0.07-0.15,0.15-0.15h8.95c0.08,0,0.15,0.07,0.15,0.15
						S74.07,29.32,73.99,29.32z"/>
				</g>
				<g>
					<path class="st2" d="M69.31,44.87H53.18c-0.08,0-0.15-0.07-0.15-0.15v-6.85c0-0.08,0.07-0.15,0.15-0.15h16.12
						c0.08,0,0.15,0.07,0.15,0.15v6.85C69.46,44.8,69.39,44.87,69.31,44.87z M53.33,44.57h15.82v-6.55H53.33V44.57z"/>
				</g>
				<g>
					<path class="st2" d="M81.88,49.71h-1.05c-0.08,0-0.15-0.07-0.15-0.15v-4.69H75.1c-0.08,0-0.15-0.07-0.15-0.15v-6.7h-0.54
						c-0.08,0-0.15-0.07-0.15-0.15v-8.56h-0.27c-0.08,0-0.15-0.07-0.15-0.15V22.4c0-0.08,0.07-0.15,0.15-0.15H97.1
						c0.08,0,0.15,0.07,0.15,0.15v26.35c0,0.08-0.07,0.15-0.15,0.15s-0.15-0.07-0.15-0.15v-26.2H74.14v6.46h0.27
						c0.08,0,0.15,0.07,0.15,0.15v8.56h0.54c0.08,0,0.15,0.07,0.15,0.15v6.7h5.59c0.08,0,0.15,0.07,0.15,0.15v4.69h0.9
						c0.08,0,0.15,0.07,0.15,0.15S81.97,49.71,81.88,49.71z"/>
				</g>
				<g>
					<path class="st2" d="M43.04,50.82c-0.08,0-0.15-0.07-0.15-0.15v-1.71h-4.82v0.6c0,0.08-0.07,0.15-0.15,0.15
						s-0.15-0.07-0.15-0.15v-0.75c0-0.08,0.07-0.15,0.15-0.15h5.12c0.08,0,0.15,0.07,0.15,0.15v1.86
						C43.19,50.75,43.13,50.82,43.04,50.82z"/>
				</g>
				<g>
					<path class="st2" d="M56.51,73.02h-19.4c-0.08,0-0.15-0.07-0.15-0.15v-1.74c0-0.08,0.07-0.15,0.15-0.15s0.15,0.07,0.15,0.15
						v1.58h19.1v-21.9H43.19v0.92c0,0.08-0.07,0.15-0.15,0.15h-5.12c-0.08,0-0.15-0.07-0.15-0.15s0.07-0.15,0.15-0.15h4.97v-0.92
						c0-0.08,0.07-0.15,0.15-0.15h13.47c0.08,0,0.15,0.07,0.15,0.15v22.2C56.66,72.95,56.6,73.02,56.51,73.02z"/>
				</g>
				<g>
					<path class="st2" d="M37.92,71.28H7.1c-0.08,0-0.15-0.07-0.15-0.15V48.75c0-0.08,0.07-0.15,0.15-0.15h6.31
						c0.08,0,0.15,0.07,0.15,0.15s-0.07,0.15-0.15,0.15H7.25v22.08h30.52V49.71h-5.11c-0.08,0-0.15-0.07-0.15-0.15
						s0.07-0.15,0.15-0.15h5.26c0.08,0,0.15,0.07,0.15,0.15v21.57C38.07,71.21,38,71.28,37.92,71.28z"/>
				</g>
				<g>
					<path class="st2" d="M42.77,44.85h-7.23c-0.08,0-0.15-0.07-0.15-0.15s0.07-0.15,0.15-0.15h7.08v-0.71
						c0-0.08,0.07-0.15,0.15-0.15s0.15,0.07,0.15,0.15v0.86C42.92,44.78,42.85,44.85,42.77,44.85z"/>
				</g>
				<g>
					<path class="st2" d="M48.08,43.99h-5.32c-0.08,0-0.15-0.07-0.15-0.15v-1.78h-7.08c-0.08,0-0.15-0.07-0.15-0.15
						s0.07-0.15,0.15-0.15h7.23c0.08,0,0.15,0.07,0.15,0.15v1.78h5.02V29.17c0-0.08,0.07-0.15,0.15-0.15h16.8v-9.84H34.07v3.23
						c0,0.08-0.07,0.15-0.15,0.15s-0.15-0.07-0.15-0.15v-3.38c0-0.08,0.07-0.15,0.15-0.15h31.12c0.08,0,0.15,0.07,0.15,0.15v10.14
						c0,0.08-0.07,0.15-0.15,0.15h-16.8v14.52C48.23,43.92,48.17,43.99,48.08,43.99z"/>
				</g>
				<g>
					<path class="st2" d="M32.66,49.71H13.4c-0.08,0-0.15-0.07-0.15-0.15V22.4c0-0.08,0.07-0.15,0.15-0.15h22.13
						c0.08,0,0.15,0.07,0.15,0.15v22.54c0,0.08-0.07,0.15-0.15,0.15h-2.72v4.47C32.81,49.64,32.74,49.71,32.66,49.71z M13.55,49.41
						h18.96v-4.47c0-0.08,0.07-0.15,0.15-0.15h2.72V22.55H13.55V49.41z"/>
				</g>
				<g>
					<path class="st2" d="M69.31,33.67H53.18c-0.08,0-0.15-0.07-0.15-0.15s0.07-0.15,0.15-0.15h16.12c0.08,0,0.15,0.07,0.15,0.15
						S69.39,33.67,69.31,33.67z"/>
				</g>
				<g>
					<path class="st2" d="M105.77,71.28H93.28c-0.08,0-0.15-0.07-0.15-0.15s0.07-0.15,0.15-0.15h12.34V48.9h-8.37v0.66
						c0,0.08-0.07,0.15-0.15,0.15H82.04v4.11c0,0.08-0.07,0.15-0.15,0.15s-0.15-0.07-0.15-0.15v-4.26c0-0.08,0.07-0.15,0.15-0.15
						h15.07v-0.66c0-0.08,0.07-0.15,0.15-0.15h8.67c0.08,0,0.15,0.07,0.15,0.15v22.38C105.92,71.21,105.86,71.28,105.77,71.28z"/>
				</g>
				<g>
					<path class="st2" d="M93.28,71.28H75.1c-0.08,0-0.15-0.07-0.15-0.15V53.81c0-0.08,0.07-0.15,0.15-0.15h6.79
						c0.08,0,0.15,0.07,0.15,0.15v1.09h7.54c0.08,0,0.15,0.07,0.15,0.15v6.96h3.55c0.08,0,0.15,0.07,0.15,0.15v8.96
						C93.43,71.21,93.36,71.28,93.28,71.28z M75.25,70.98h17.88v-8.66h-3.55c-0.08,0-0.15-0.07-0.15-0.15v-6.96h-7.54
						c-0.08,0-0.15-0.07-0.15-0.15v-1.09h-6.49V70.98z"/>
				</g>
				<g>
					<path class="st2" d="M98.27,114.27c-0.17,0-0.31-0.14-0.31-0.31V99.81c0-0.17,0.14-0.31,0.31-0.31s0.31,0.14,0.31,0.31v14.15
						C98.59,114.13,98.44,114.27,98.27,114.27z"/>
				</g>
				<g>
					<path class="st2" d="M104.87,107.98c-0.08,0-0.16-0.03-0.22-0.09l-6.6-6.29c-0.13-0.12-0.13-0.32-0.01-0.44
						c0.12-0.13,0.32-0.13,0.44-0.01l6.6,6.29c0.13,0.12,0.13,0.32,0.01,0.44C105.04,107.95,104.96,107.98,104.87,107.98z"/>
				</g>
				<g>
					<path class="st2" d="M98.27,99.81l6.6,7.86l-6.6-6.29V99.81z M105.5,107.04l-7.23-7.23l6.6,7.86L105.5,107.04z"/>
				</g>
				<g>
					<path class="st3" d="M98.27,99.81l6.6,7.86l-6.6-6.29V99.81z M105.5,107.04l-7.23-7.23l6.6,7.86L105.5,107.04z"/>
				</g>
				<g>
					<g>
						<path class="st2" d="M98.43,114.27c-4.07,0-7.39-3.32-7.39-7.39s3.31-7.39,7.39-7.39s7.39,3.32,7.39,7.39
							S102.5,114.27,98.43,114.27z M98.43,100.12c-3.73,0-6.76,3.03-6.76,6.76s3.03,6.76,6.76,6.76s6.76-3.03,6.76-6.76
							S102.16,100.12,98.43,100.12z"/>
					</g>
				</g>
				<g>
					<path class="st2" d="M91.35,107.36c-0.08,0-0.16-0.03-0.22-0.09c-0.13-0.12-0.13-0.32-0.01-0.45l6.92-7.23
						c0.12-0.12,0.32-0.13,0.44-0.01c0.13,0.12,0.13,0.32,0.01,0.45l-6.92,7.23C91.52,107.32,91.44,107.36,91.35,107.36z"/>
				</g>
				<g>
					<path class="st2" d="M91.98,107.98c-0.08,0-0.16-0.03-0.22-0.09c-0.12-0.12-0.12-0.32,0-0.45l6.29-6.29
						c0.12-0.12,0.32-0.12,0.44,0c0.12,0.12,0.12,0.32,0,0.45l-6.29,6.29C92.14,107.95,92.06,107.98,91.98,107.98z"/>
				</g>
				<g>
					<path class="st2" d="M98.27,99.81l-6.29,7.86l6.29-6.29V99.81z M91.35,107.04l6.92-7.23l-6.29,7.86L91.35,107.04z"/>
				</g>
				<g>
					<path class="st3" d="M98.27,99.81l-6.29,7.86l6.29-6.29V99.81z M91.35,107.04l6.92-7.23l-6.29,7.86L91.35,107.04z"/>
				</g>
				<g>
					<path class="st4" d="M45.58,0.06h0.44v3.48h2.19v0.41h-2.63V0.06z"/>
					<path class="st4" d="M51.94,0.46h-2.37v1.33h2.12v0.4h-2.12v1.36h2.4v0.4h-2.84V0.06h2.81V0.46z"/>
					<path class="st4" d="M55.89,0.06h0.47l-1.67,3.92H54.3l-1.67-3.92h0.49L54.5,3.4L55.89,0.06z"/>
					<path class="st4" d="M60.04,0.46h-2.37v1.33h2.12v0.4h-2.12v1.36h2.4v0.4h-2.84V0.06h2.81V0.46z"/>
					<path class="st4" d="M61.06,0.06h0.44v3.48h2.19v0.41h-2.63V0.06z"/>
					<path class="st4" d="M66.32,0.45V0.06h2.48v0.32l-1.22,1.35c0.68,0.06,1.28,0.38,1.28,1.1c0,0.7-0.58,1.18-1.3,1.18
						c-0.65,0-1.13-0.28-1.45-0.69l0.32-0.28c0.3,0.37,0.66,0.58,1.14,0.58c0.47,0,0.85-0.3,0.85-0.76c0-0.49-0.44-0.76-1.09-0.76
						h-0.25l-0.09-0.26l1.23-1.38H66.32z"/>
					<path class="st4" d="M69.72,2.5V2.05h1.54V2.5H69.72z"/>
					<path class="st4" d="M72.4,1.06l-0.32-0.23C72.42,0.31,72.79,0,73.47,0c0.71,0,1.21,0.47,1.21,1.11c0,0.57-0.3,0.92-0.98,1.52
						l-1.04,0.92h2.06v0.4H72V3.6l1.41-1.24c0.59-0.53,0.81-0.83,0.81-1.22c0-0.46-0.36-0.74-0.78-0.74
						C73,0.39,72.71,0.63,72.4,1.06z"/>
					<path class="st4" d="M75.83,0.06h2.24v0.41h-1.85l-0.08,1.24c0.23-0.1,0.44-0.17,0.77-0.17c0.76,0,1.34,0.45,1.34,1.19
						c0,0.77-0.58,1.28-1.39,1.28c-0.56,0-1.04-0.27-1.39-0.62l0.29-0.32c0.34,0.33,0.71,0.53,1.11,0.53c0.56,0,0.94-0.37,0.94-0.87
						c0-0.49-0.39-0.82-0.97-0.82c-0.33,0-0.59,0.1-0.82,0.22l-0.29-0.19L75.83,0.06z"/>
				</g>
				<g>
					<path class="st4" d="M49,93.64h-0.43l-0.41-0.93h-1.91l-0.42,0.93h-0.41l1.6-3.53h0.37L49,93.64z M47.21,90.58l-0.8,1.79h1.6
						L47.21,90.58z"/>
					<path class="st4" d="M49.78,90.14h0.4v3.14h1.97v0.37h-2.37V90.14z"/>
					<path class="st4" d="M56.23,93.64H55.8l-0.41-0.93h-1.91l-0.42,0.93h-0.41l1.6-3.53h0.37L56.23,93.64z M54.44,90.58l-0.8,1.79
						h1.6L54.44,90.58z"/>
					<path class="st4" d="M58.19,91.7c0.78,0.17,1.14,0.46,1.14,1c0,0.61-0.5,1-1.2,1c-0.56,0-1.01-0.18-1.43-0.56l0.25-0.29
						c0.37,0.33,0.72,0.5,1.2,0.5c0.47,0,0.78-0.25,0.78-0.6c0-0.33-0.18-0.51-0.91-0.67c-0.81-0.18-1.18-0.44-1.18-1.02
						c0-0.56,0.49-0.96,1.15-0.96c0.51,0,0.88,0.15,1.23,0.43L59,90.83c-0.33-0.27-0.65-0.38-1.01-0.38c-0.46,0-0.75,0.25-0.75,0.57
						C57.24,91.35,57.42,91.54,58.19,91.7z"/>
					<path class="st4" d="M63.22,93.64h-0.5l-1.35-1.7l-0.75,0.76v0.94h-0.4v-3.5h0.4v2.09l2.01-2.09h0.51l-1.5,1.53L63.22,93.64z"
						/>
					<path class="st4" d="M67.16,93.64h-0.43l-0.41-0.93h-1.91l-0.42,0.93H63.6l1.6-3.53h0.37L67.16,93.64z M65.38,90.58l-0.8,1.79
						h1.6L65.38,90.58z"/>
					<path class="st4" d="M70.79,91.7c0.78,0.17,1.14,0.46,1.14,1c0,0.61-0.5,1-1.2,1c-0.56,0-1.01-0.18-1.43-0.56l0.25-0.29
						c0.37,0.33,0.72,0.5,1.2,0.5c0.47,0,0.78-0.25,0.78-0.6c0-0.33-0.18-0.51-0.91-0.67c-0.81-0.18-1.18-0.44-1.18-1.02
						c0-0.56,0.49-0.96,1.15-0.96c0.51,0,0.88,0.15,1.23,0.43l-0.23,0.31c-0.33-0.27-0.65-0.38-1.01-0.38
						c-0.46,0-0.75,0.25-0.75,0.57C69.84,91.35,70.02,91.54,70.79,91.7z"/>
					<path class="st4" d="M74.08,93.64h-0.4v-3.14h-1.18v-0.37h2.75v0.37h-1.18V93.64z"/>
					<path class="st4" d="M75.49,93.64v-0.53h0.46v0.53H75.49z"/>
				</g>
				<g>
					<path class="st4" d="M125.44,58v0.43l-0.93,0.41v1.91l0.93,0.42v0.41l-3.53-1.6v-0.37L125.44,58z M122.38,59.78l1.79,0.8v-1.6
						L122.38,59.78z"/>
					<path class="st4" d="M121.94,57.21v-0.4h3.14v-1.97h0.37v2.37H121.94z"/>
					<path class="st4" d="M124.21,52.78v0.85h1.24v0.4h-3.5v-1.31c0-0.79,0.42-1.31,1.12-1.31
						C123.82,51.4,124.21,52.03,124.21,52.78z M122.31,52.75v0.89h1.54v-0.87c0-0.58-0.31-0.96-0.78-0.96
						C122.57,51.8,122.31,52.18,122.31,52.75z"/>
					<path class="st4" d="M123.87,50.2h1.58v0.4h-3.5v-0.4h1.56v-2.02h-1.56v-0.4h3.5v0.4h-1.58V50.2z"/>
					<path class="st4" d="M125.44,43.44v0.42l-0.93,0.41v1.91l0.93,0.42V47l-3.53-1.6v-0.37L125.44,43.44z M122.38,45.22l1.79,0.8
						v-1.6L122.38,45.22z"/>
					<path class="st4" d="M125.44,37.8v0.43l-0.93,0.41v1.91l0.93,0.42v0.41l-3.53-1.6V39.4L125.44,37.8z M122.38,39.58l1.79,0.8
						v-1.6L122.38,39.58z"/>
					<path class="st4" d="M121.94,34.88v-0.43l3.53,1.51v0.35l-3.53,1.51v-0.44l3.02-1.25L121.94,34.88z"/>
					<path class="st4" d="M122.3,31.14v2.14h1.2v-1.91h0.36v1.91h1.23v-2.16h0.36v2.56h-3.5v-2.53H122.3z"/>
					<path class="st4" d="M125.44,30.34h-0.53v-0.46h0.53V30.34z"/>
				</g>
			</g>
		</g>
	</g>
</g>
</svg>
