<?xml version="1.0" encoding="utf-8"?>
<!-- Generator: Adobe Illustrator 25.2.0, SVG Export Plug-In . SVG Version: 6.00 Build 0)  -->
<svg version="1.1" id="Layer_1" xmlns="http://www.w3.org/2000/svg" xmlns:xlink="http://www.w3.org/1999/xlink" x="0px" y="0px"
	 viewBox="0 0 104.71 95.41" style="enable-background:new 0 0 104.71 95.41;" xml:space="preserve">
<style type="text/css">
	.st0{fill:#245169;}
	.st1{fill:#FFFFFF;}
	.st2{fill:#00516B;}
	.st3{fill:none;stroke:#00516B;stroke-width:0;stroke-linecap:round;stroke-miterlimit:10;}
</style>
<g>
	<g>
		<path class="st0" d="M40.63,78.3h-0.35l-0.34-0.77h-1.58l-0.34,0.77h-0.34L39,75.38h0.31L40.63,78.3z M39.15,75.76l-0.66,1.48
			h1.32L39.15,75.76z"/>
		<path class="st0" d="M41.28,75.4h0.33V78h1.64v0.3h-1.96V75.4z"/>
		<path class="st0" d="M46.63,78.3h-0.35l-0.34-0.77h-1.58l-0.34,0.77h-0.34L45,75.38h0.31L46.63,78.3z M45.15,75.76l-0.66,1.48
			h1.32L45.15,75.76z"/>
		<path class="st0" d="M48.26,76.69c0.65,0.14,0.95,0.38,0.95,0.83c0,0.5-0.42,0.83-0.99,0.83c-0.46,0-0.84-0.15-1.19-0.46l0.2-0.24
			c0.3,0.27,0.59,0.41,1,0.41c0.39,0,0.65-0.2,0.65-0.5c0-0.27-0.15-0.43-0.76-0.56c-0.67-0.14-0.98-0.36-0.98-0.84
			c0-0.46,0.4-0.8,0.96-0.8c0.42,0,0.73,0.12,1.02,0.36l-0.19,0.25c-0.27-0.22-0.54-0.32-0.84-0.32c-0.38,0-0.62,0.21-0.62,0.47
			C47.47,76.4,47.62,76.56,48.26,76.69z"/>
		<path class="st0" d="M52.42,78.3h-0.41l-1.12-1.41l-0.62,0.63v0.78h-0.33V75.4h0.33v1.73l1.67-1.73h0.42l-1.25,1.27L52.42,78.3z"
			/>
		<path class="st0" d="M55.7,78.3h-0.35L55,77.54h-1.58l-0.34,0.77h-0.34l1.32-2.93h0.31L55.7,78.3z M54.21,75.76l-0.66,1.48h1.32
			L54.21,75.76z"/>
		<path class="st0" d="M58.71,76.69c0.65,0.14,0.95,0.38,0.95,0.83c0,0.5-0.42,0.83-0.99,0.83c-0.46,0-0.84-0.15-1.19-0.46l0.2-0.24
			c0.3,0.27,0.59,0.41,1,0.41c0.39,0,0.65-0.2,0.65-0.5c0-0.27-0.15-0.43-0.76-0.56c-0.67-0.14-0.98-0.36-0.98-0.84
			c0-0.46,0.4-0.8,0.96-0.8c0.42,0,0.73,0.12,1.02,0.36l-0.19,0.25c-0.27-0.22-0.54-0.32-0.84-0.32c-0.38,0-0.62,0.21-0.62,0.47
			C57.92,76.4,58.07,76.56,58.71,76.69z"/>
		<path class="st0" d="M61.43,78.3H61.1v-2.6h-0.98v-0.3h2.28v0.3h-0.98V78.3z"/>
		<path class="st0" d="M62.6,78.3v-0.44h0.38v0.44H62.6z"/>
	</g>
	<g>
		<rect x="7.72" y="13.28" class="st1" width="15.45" height="6.36"/>
	</g>
	<g>
		<rect x="53.93" y="19.43" class="st1" width="7.42" height="5.4"/>
	</g>
	<g>
		<rect x="80.11" y="15.61" class="st1" width="6.18" height="20.44"/>
	</g>
	<g>
		<rect x="32.46" y="59.21" class="st1" width="58.66" height="6.18"/>
	</g>
	<g>
		<rect x="0.12" y="43.23" class="st1" width="6.17" height="19.79"/>
	</g>
	<g>
		<polygon class="st1" points="31.44,43.55 31.44,59.63 30.77,59.63 6.29,59.63 5.88,59.63 5.88,43.23 5.88,41.07 11.11,41.07 
			11.11,41.74 27.08,41.74 31.44,41.74 		"/>
	</g>
	<g>
		<polygon class="st1" points="46.86,42.66 46.86,61.07 32.45,61.07 30.77,61.07 30.77,59.63 31.44,59.63 31.44,43.55 35.69,43.55 
			35.69,42.66 		"/>
	</g>
	<g>
		<polygon class="st1" points="62.27,61.07 46.86,61.07 46.86,42.66 62.27,42.66 62.27,45.27 62.27,59.63 62.96,59.63 62.96,61.07 
					"/>
	</g>
	<g>
		<polygon class="st2" points="67.9,46.3 74.28,46.3 74.28,52.2 77.35,52.2 77.35,59.63 62.96,59.63 62.27,59.63 62.27,45.27 
			67.9,45.27 		"/>
	</g>
	<g>
		<polygon class="st1" points="87.71,59.21 87.71,59.63 77.35,59.63 77.35,52.2 74.28,52.2 74.28,46.3 67.9,46.3 67.9,45.27 
			67.9,41.74 80.52,41.74 80.52,41.07 87.71,41.07 		"/>
	</g>
	<g>
		<polygon class="st1" points="80.52,41.07 80.52,41.74 67.9,41.74 67.03,41.74 67.03,37.73 62.27,37.73 62.27,32.05 61.7,32.05 
			61.7,24.83 61.35,24.83 61.35,19.43 61.35,19.22 80.1,19.22 80.52,19.22 80.52,36.04 		"/>
	</g>
	<g>
		<polygon class="st1" points="28.12,16.42 53.93,16.42 53.93,19.43 53.93,24.83 44.1,24.83 39.87,24.83 39.87,32.05 39.87,37 
			35.46,37 35.46,35.4 29.46,35.4 29.46,19.22 28.12,19.22 		"/>
	</g>
	<g>
		<polygon class="st1" points="29.46,37.71 29.46,37.91 27.08,37.91 27.08,41.74 11.11,41.74 11.11,41.07 11.11,19.64 11.11,19.22 
			23.17,19.22 28.12,19.22 29.46,19.22 29.46,35.4 		"/>
	</g>
	<g>
		<path class="st2" d="M62.97,61.2h-16.1c-0.07,0-0.12-0.06-0.12-0.12s0.06-0.12,0.12-0.12h15.98v-1.32c0-0.07,0.06-0.12,0.12-0.12
			s0.12,0.06,0.12,0.12v1.44C63.09,61.14,63.03,61.2,62.97,61.2z"/>
	</g>
	<g>
		<path class="st2" d="M62.27,45.4c-0.07,0-0.12-0.06-0.12-0.12v-2.49H46.86c-0.07,0-0.12-0.06-0.12-0.12s0.06-0.12,0.12-0.12h15.41
			c0.07,0,0.12,0.06,0.12,0.12v2.61C62.4,45.34,62.34,45.4,62.27,45.4z"/>
	</g>
	<g>
		<path class="st2" d="M57.47,37.86c-0.03,0-0.06-0.01-0.08-0.03l-6.61-5.61l-6.6,5.61c-0.05,0.04-0.13,0.04-0.18-0.01
			c-0.04-0.05-0.04-0.13,0.01-0.18l6.68-5.68c0.05-0.04,0.12-0.04,0.16,0l6.69,5.68c0.05,0.04,0.06,0.12,0.01,0.18
			C57.55,37.84,57.51,37.86,57.47,37.86z"/>
	</g>
	<g>
		<path class="st2" d="M50.78,37.86c-0.03,0-0.06-0.01-0.08-0.03l-6.68-5.68c-0.05-0.04-0.06-0.12-0.01-0.18
			c0.05-0.05,0.12-0.06,0.18-0.01l6.6,5.61l6.61-5.61c0.05-0.04,0.13-0.04,0.18,0.01s0.04,0.13-0.01,0.18l-6.69,5.68
			C50.84,37.85,50.81,37.86,50.78,37.86z"/>
	</g>
	<g>
		<path class="st2" d="M50.78,37.86c-0.07,0-0.12-0.06-0.12-0.12v-5.68c0-0.07,0.06-0.12,0.12-0.12s0.12,0.06,0.12,0.12v5.68
			C50.91,37.8,50.85,37.86,50.78,37.86z"/>
	</g>
	<g>
		<path class="st2" d="M61.35,19.56h-7.42c-0.07,0-0.12-0.06-0.12-0.12s0.06-0.12,0.12-0.12h7.42c0.07,0,0.12,0.06,0.12,0.12
			S61.42,19.56,61.35,19.56z"/>
	</g>
	<g>
		<path class="st2" d="M6.3,63.15H0.13C0.06,63.15,0,63.09,0,63.02V43.23c0-0.07,0.06-0.12,0.12-0.12h5.76
			c0.07,0,0.12,0.06,0.12,0.12s-0.06,0.12-0.12,0.12H0.25V62.9h5.92v-3.26c0-0.07,0.06-0.12,0.12-0.12s0.12,0.06,0.12,0.12v3.39
			C6.42,63.09,6.36,63.15,6.3,63.15z"/>
	</g>
	<g>
		<path class="st2" d="M91.11,65.52H32.45c-0.07,0-0.12-0.06-0.12-0.12v-4.32c0-0.07,0.06-0.12,0.12-0.12s0.12,0.06,0.12,0.12v4.2
			h58.41v-5.93h-3.27c-0.07,0-0.12-0.06-0.12-0.12s0.06-0.12,0.12-0.12h3.4c0.07,0,0.12,0.06,0.12,0.12v6.18
			C91.24,65.46,91.18,65.52,91.11,65.52z"/>
	</g>
	<g>
		<path class="st2" d="M11.11,19.77H7.72c-0.07,0-0.12-0.06-0.12-0.12v-6.17c0-0.07,0.06-0.12,0.12-0.12h15.45
			c0.07,0,0.12,0.06,0.12,0.12v5.75c0,0.07-0.06,0.12-0.12,0.12s-0.12-0.06-0.12-0.12V13.6H7.85v5.92h3.27
			c0.07,0,0.12,0.06,0.12,0.12S11.18,19.77,11.11,19.77z"/>
	</g>
	<g>
		<path class="st2" d="M86.28,36.17h-5.76c-0.07,0-0.12-0.06-0.12-0.12s0.06-0.12,0.12-0.12h5.64V15.96h-5.93v3.26
			c0,0.07-0.06,0.12-0.12,0.12s-0.12-0.06-0.12-0.12v-3.39c0-0.07,0.06-0.12,0.12-0.12h6.18c0.07,0,0.12,0.06,0.12,0.12v20.21
			C86.41,36.11,86.35,36.17,86.28,36.17z"/>
	</g>
	<g>
		<path class="st2" d="M46.86,65.52c-0.07,0-0.12-0.06-0.12-0.12v-4.32c0-0.07,0.06-0.12,0.12-0.12s0.12,0.06,0.12,0.12v4.32
			C46.99,65.46,46.93,65.52,46.86,65.52z"/>
	</g>
	<g>
		<path class="st2" d="M62.27,65.52c-0.07,0-0.12-0.06-0.12-0.12v-4.32c0-0.07,0.06-0.12,0.12-0.12S62.4,61,62.4,61.07v4.32
			C62.4,65.46,62.34,65.52,62.27,65.52z"/>
	</g>
	<g>
		<path class="st2" d="M44.1,32.18c-0.07,0-0.12-0.06-0.12-0.12v-7.22c0-0.07,0.06-0.12,0.12-0.12s0.12,0.06,0.12,0.12v7.22
			C44.23,32.12,44.17,32.18,44.1,32.18z"/>
	</g>
	<g>
		<path class="st2" d="M57.47,32.18c-0.07,0-0.12-0.06-0.12-0.12v-7.22c0-0.07,0.06-0.12,0.12-0.12s0.12,0.06,0.12,0.12v7.22
			C57.6,32.12,57.54,32.18,57.47,32.18z"/>
	</g>
	<g>
		<path class="st2" d="M77.35,65.52c-0.07,0-0.12-0.06-0.12-0.12v-5.76c0-0.07,0.06-0.12,0.12-0.12s0.12,0.06,0.12,0.12v5.76
			C77.48,65.46,77.42,65.52,77.35,65.52z"/>
	</g>
	<g>
		<path class="st2" d="M44.1,32.18h-4.23c-0.07,0-0.12-0.06-0.12-0.12s0.06-0.12,0.12-0.12h4.23c0.07,0,0.12,0.06,0.12,0.12
			S44.17,32.18,44.1,32.18z"/>
	</g>
	<g>
		<path class="st2" d="M61.7,32.18h-4.23c-0.07,0-0.12-0.06-0.12-0.12s0.06-0.12,0.12-0.12h4.23c0.07,0,0.12,0.06,0.12,0.12
			S61.77,32.18,61.7,32.18z"/>
	</g>
	<g>
		<path class="st2" d="M61.35,24.96h-7.42c-0.07,0-0.12-0.06-0.12-0.12s0.06-0.12,0.12-0.12h7.42c0.07,0,0.12,0.06,0.12,0.12
			S61.42,24.96,61.35,24.96z"/>
	</g>
	<g>
		<path class="st2" d="M57.47,37.86H44.1c-0.07,0-0.12-0.06-0.12-0.12v-5.68c0-0.07,0.06-0.12,0.12-0.12h13.37
			c0.07,0,0.12,0.06,0.12,0.12v5.68C57.6,37.8,57.54,37.86,57.47,37.86z M44.23,37.61h13.12v-5.43H44.23V37.61z"/>
	</g>
	<g>
		<path class="st2" d="M67.9,41.87h-0.87c-0.07,0-0.12-0.06-0.12-0.12v-3.88h-4.63c-0.07,0-0.12-0.06-0.12-0.12v-5.55H61.7
			c-0.07,0-0.12-0.06-0.12-0.12v-7.1h-0.23c-0.07,0-0.12-0.06-0.12-0.12v-5.61c0-0.07,0.06-0.12,0.12-0.12h19.17
			c0.07,0,0.12,0.06,0.12,0.12v21.85c0,0.07-0.06,0.12-0.12,0.12s-0.12-0.06-0.12-0.12V19.35H61.48v5.36h0.23
			c0.07,0,0.12,0.06,0.12,0.12v7.1h0.44c0.07,0,0.12,0.06,0.12,0.12v5.55h4.63c0.07,0,0.12,0.06,0.12,0.12v3.88h0.75
			c0.07,0,0.12,0.06,0.12,0.12S67.97,41.87,67.9,41.87z"/>
	</g>
	<g>
		<path class="st2" d="M35.69,42.79c-0.07,0-0.12-0.06-0.12-0.12v-1.42h-4v0.49c0,0.07-0.06,0.12-0.12,0.12s-0.12-0.06-0.12-0.12
			v-0.62c0-0.07,0.06-0.12,0.12-0.12h4.25c0.07,0,0.12,0.06,0.12,0.12v1.54C35.82,42.73,35.76,42.79,35.69,42.79z"/>
	</g>
	<g>
		<path class="st2" d="M46.86,61.2H30.77c-0.07,0-0.12-0.06-0.12-0.12v-1.44c0-0.07,0.06-0.12,0.12-0.12s0.12,0.06,0.12,0.12v1.32
			h15.84V42.79H35.82v0.77c0,0.07-0.06,0.12-0.12,0.12h-4.25c-0.07,0-0.12-0.06-0.12-0.12s0.06-0.12,0.12-0.12h4.12v-0.77
			c0-0.07,0.06-0.12,0.12-0.12h11.17c0.07,0,0.12,0.06,0.12,0.12v18.41C46.99,61.14,46.93,61.2,46.86,61.2z"/>
	</g>
	<g>
		<path class="st2" d="M31.45,59.76H5.88c-0.07,0-0.12-0.06-0.12-0.12V41.07c0-0.07,0.06-0.12,0.12-0.12h5.23
			c0.07,0,0.12,0.06,0.12,0.12s-0.06,0.12-0.12,0.12h-5.1v18.31h25.31V41.87h-4.24c-0.07,0-0.12-0.06-0.12-0.12s0.06-0.12,0.12-0.12
			h4.36c0.07,0,0.12,0.06,0.12,0.12v17.89C31.57,59.7,31.51,59.76,31.45,59.76z"/>
	</g>
	<g>
		<path class="st2" d="M35.46,37.84h-6c-0.07,0-0.12-0.06-0.12-0.12s0.06-0.12,0.12-0.12h5.88V37c0-0.07,0.06-0.12,0.12-0.12
			s0.12,0.06,0.12,0.12v0.71C35.59,37.78,35.53,37.84,35.46,37.84z"/>
	</g>
	<g>
		<path class="st2" d="M39.87,37.13h-4.41c-0.07,0-0.12-0.06-0.12-0.12v-1.47h-5.88c-0.07,0-0.12-0.06-0.12-0.12
			s0.06-0.12,0.12-0.12h6c0.07,0,0.12,0.06,0.12,0.12v1.47h4.16V24.83c0-0.07,0.06-0.12,0.12-0.12h13.93v-8.16H28.25v2.67
			c0,0.07-0.06,0.12-0.12,0.12S28,19.29,28,19.22v-2.8c0-0.07,0.06-0.12,0.12-0.12h25.81c0.07,0,0.12,0.06,0.12,0.12v8.41
			c0,0.07-0.06,0.12-0.12,0.12H40V37C40,37.07,39.94,37.13,39.87,37.13z"/>
	</g>
	<g>
		<path class="st2" d="M27.08,41.87H11.11c-0.07,0-0.12-0.06-0.12-0.12V19.22c0-0.07,0.06-0.12,0.12-0.12h18.35
			c0.07,0,0.12,0.06,0.12,0.12v18.69c0,0.07-0.06,0.12-0.12,0.12h-2.25v3.71C27.21,41.81,27.15,41.87,27.08,41.87z M11.24,41.62
			h15.72v-3.71c0-0.07,0.06-0.12,0.12-0.12h2.25V19.35h-18.1V41.62z"/>
	</g>
	<g>
		<path class="st2" d="M57.47,28.57H44.1c-0.07,0-0.12-0.06-0.12-0.12s0.06-0.12,0.12-0.12h13.37c0.07,0,0.12,0.06,0.12,0.12
			S57.54,28.57,57.47,28.57z"/>
	</g>
	<g>
		<path class="st2" d="M87.72,59.76H77.36c-0.07,0-0.12-0.06-0.12-0.12s0.06-0.12,0.12-0.12h10.23V41.2h-6.94v0.54
			c0,0.07-0.06,0.12-0.12,0.12h-12.5v3.41c0,0.07-0.06,0.12-0.12,0.12s-0.12-0.06-0.12-0.12v-3.53c0-0.07,0.06-0.12,0.12-0.12h12.5
			v-0.54c0-0.07,0.06-0.12,0.12-0.12h7.19c0.07,0,0.12,0.06,0.12,0.12v18.56C87.84,59.7,87.78,59.76,87.72,59.76z"/>
	</g>
	<g>
		<path class="st2" d="M77.35,59.76H62.27c-0.07,0-0.12-0.06-0.12-0.12V45.27c0-0.07,0.06-0.12,0.12-0.12h5.63
			c0.07,0,0.12,0.06,0.12,0.12v0.91h6.25c0.07,0,0.12,0.06,0.12,0.12v5.77h2.95c0.07,0,0.12,0.06,0.12,0.12v7.43
			C77.48,59.7,77.42,59.76,77.35,59.76z M62.4,59.51h14.83v-7.18h-2.95c-0.07,0-0.12-0.06-0.12-0.12v-5.77H67.9
			c-0.07,0-0.12-0.06-0.12-0.12V45.4H62.4V59.51z"/>
	</g>
	<g>
		<path class="st2" d="M81.49,95.41c-0.14,0-0.26-0.12-0.26-0.26V83.42c0-0.14,0.12-0.26,0.26-0.26s0.26,0.12,0.26,0.26v11.73
			C81.75,95.29,81.64,95.41,81.49,95.41z"/>
	</g>
	<g>
		<path class="st2" d="M86.97,90.2c-0.06,0-0.13-0.02-0.18-0.07l-5.48-5.22c-0.1-0.1-0.11-0.26-0.01-0.37s0.26-0.11,0.37-0.01
			l5.48,5.22c0.1,0.1,0.11,0.26,0.01,0.37C87.11,90.17,87.04,90.2,86.97,90.2z"/>
	</g>
	<g>
		<path class="st2" d="M81.49,83.41l5.48,6.52l-5.48-5.21V83.41z M87.49,89.41l-6-6l5.48,6.52L87.49,89.41z"/>
	</g>
	<g>
		<path class="st3" d="M81.49,83.41l5.48,6.52l-5.48-5.21V83.41z M87.49,89.41l-6-6l5.48,6.52L87.49,89.41z"/>
	</g>
	<g>
		<g>
			<path class="st2" d="M81.62,95.41c-3.38,0-6.13-2.75-6.13-6.13s2.75-6.13,6.13-6.13s6.13,2.75,6.13,6.13S85,95.41,81.62,95.41z
				 M81.62,83.68c-3.09,0-5.61,2.52-5.61,5.61s2.51,5.61,5.61,5.61s5.61-2.52,5.61-5.61S84.72,83.68,81.62,83.68z"/>
		</g>
		<g>
			<path class="st2" d="M75.76,89.67c-0.06,0-0.13-0.02-0.18-0.07c-0.1-0.1-0.11-0.26-0.01-0.37l5.74-6
				c0.1-0.11,0.27-0.11,0.37-0.01c0.1,0.1,0.11,0.26,0.01,0.37l-5.74,6C75.89,89.65,75.83,89.67,75.76,89.67z"/>
		</g>
		<g>
			<path class="st2" d="M76.28,90.2c-0.07,0-0.13-0.03-0.18-0.08c-0.1-0.1-0.1-0.27,0-0.37l5.21-5.22c0.1-0.1,0.27-0.1,0.37,0
				c0.1,0.1,0.1,0.27,0,0.37l-5.21,5.22C76.41,90.17,76.35,90.2,76.28,90.2z"/>
		</g>
		<g>
			<path class="st2" d="M81.49,83.41l-5.21,6.52l5.21-5.21V83.41z M75.76,89.41l5.74-6l-5.21,6.52L75.76,89.41z"/>
		</g>
		<g>
			<path class="st3" d="M81.49,83.41l-5.21,6.52l5.21-5.21V83.41z M75.76,89.41l5.74-6l-5.21,6.52L75.76,89.41z"/>
		</g>
	</g>
	<g>
		<path class="st0" d="M37.79,0.69h0.36v2.89h1.82v0.34h-2.18V0.69z"/>
		<path class="st0" d="M43.07,1.02H41.1v1.1h1.76v0.33H41.1v1.13h1.99v0.33h-2.35V0.69h2.33V1.02z"/>
		<path class="st0" d="M46.35,0.69h0.39l-1.39,3.25h-0.32l-1.39-3.25h0.41l1.15,2.78L46.35,0.69z"/>
		<path class="st0" d="M49.8,1.02h-1.97v1.1h1.76v0.33h-1.76v1.13h1.99v0.33h-2.35V0.69h2.33V1.02z"/>
		<path class="st0" d="M50.65,0.69h0.36v2.89h1.82v0.34h-2.18V0.69z"/>
		<path class="st0" d="M55.01,1.02V0.69h2.06v0.27l-1.01,1.12c0.57,0.05,1.06,0.32,1.06,0.91c0,0.58-0.48,0.98-1.08,0.98
			c-0.54,0-0.94-0.24-1.2-0.58l0.26-0.24c0.25,0.3,0.55,0.48,0.94,0.48c0.39,0,0.7-0.25,0.7-0.63c0-0.41-0.37-0.63-0.9-0.63h-0.21
			l-0.07-0.22l1.02-1.15H55.01z"/>
		<path class="st0" d="M57.82,2.72V2.34h1.28v0.37H57.82z"/>
		<path class="st0" d="M60.05,1.52l-0.27-0.19c0.29-0.43,0.59-0.69,1.16-0.69c0.59,0,1,0.39,1,0.92c0,0.47-0.25,0.76-0.82,1.26
			l-0.86,0.76h1.71v0.33h-2.25V3.63l1.17-1.03c0.49-0.44,0.67-0.69,0.67-1.01c0-0.38-0.3-0.62-0.65-0.62
			C60.54,0.97,60.3,1.17,60.05,1.52z"/>
		<path class="st0" d="M62.9,0.69h1.86v0.34h-1.54l-0.07,1.03c0.19-0.08,0.37-0.14,0.64-0.14c0.63,0,1.12,0.37,1.12,0.99
			c0,0.64-0.48,1.06-1.15,1.06c-0.46,0-0.86-0.22-1.15-0.51l0.24-0.26c0.28,0.27,0.59,0.44,0.92,0.44c0.46,0,0.78-0.3,0.78-0.72
			c0-0.41-0.33-0.68-0.8-0.68c-0.27,0-0.49,0.08-0.68,0.18L62.8,2.26L62.9,0.69z"/>
	</g>
	<g>
		<path class="st0" d="M40.63,78.3h-0.35l-0.34-0.77h-1.58l-0.34,0.77h-0.34L39,75.38h0.31L40.63,78.3z M39.15,75.76l-0.66,1.48
			h1.32L39.15,75.76z"/>
		<path class="st0" d="M41.28,75.4h0.33V78h1.64v0.3h-1.96V75.4z"/>
		<path class="st0" d="M46.63,78.3h-0.35l-0.34-0.77h-1.58l-0.34,0.77h-0.34L45,75.38h0.31L46.63,78.3z M45.15,75.76l-0.66,1.48
			h1.32L45.15,75.76z"/>
		<path class="st0" d="M48.26,76.69c0.65,0.14,0.95,0.38,0.95,0.83c0,0.5-0.42,0.83-0.99,0.83c-0.46,0-0.84-0.15-1.19-0.46l0.2-0.24
			c0.3,0.27,0.59,0.41,1,0.41c0.39,0,0.65-0.2,0.65-0.5c0-0.27-0.15-0.43-0.76-0.56c-0.67-0.14-0.98-0.36-0.98-0.84
			c0-0.46,0.4-0.8,0.96-0.8c0.42,0,0.73,0.12,1.02,0.36l-0.19,0.25c-0.27-0.22-0.54-0.32-0.84-0.32c-0.38,0-0.62,0.21-0.62,0.47
			C47.47,76.4,47.62,76.56,48.26,76.69z"/>
		<path class="st0" d="M52.42,78.3h-0.41l-1.12-1.41l-0.62,0.63v0.78h-0.33V75.4h0.33v1.73l1.67-1.73h0.42l-1.25,1.27L52.42,78.3z"
			/>
		<path class="st0" d="M55.7,78.3h-0.35L55,77.54h-1.58l-0.34,0.77h-0.34l1.32-2.93h0.31L55.7,78.3z M54.22,75.76l-0.66,1.48h1.32
			L54.22,75.76z"/>
		<path class="st0" d="M58.71,76.69c0.65,0.14,0.95,0.38,0.95,0.83c0,0.5-0.42,0.83-0.99,0.83c-0.46,0-0.84-0.15-1.19-0.46l0.2-0.24
			c0.3,0.27,0.59,0.41,1,0.41c0.39,0,0.65-0.2,0.65-0.5c0-0.27-0.15-0.43-0.76-0.56c-0.67-0.14-0.98-0.36-0.98-0.84
			c0-0.46,0.4-0.8,0.96-0.8c0.42,0,0.73,0.12,1.02,0.36l-0.19,0.25c-0.27-0.22-0.54-0.32-0.84-0.32c-0.38,0-0.62,0.21-0.62,0.47
			C57.92,76.4,58.07,76.56,58.71,76.69z"/>
		<path class="st0" d="M61.44,78.3H61.1v-2.6h-0.98v-0.3h2.28v0.3h-0.98V78.3z"/>
		<path class="st0" d="M62.6,78.3v-0.44h0.38v0.44H62.6z"/>
	</g>
	<g>
		<path class="st0" d="M104.03,48.74v0.35l-0.77,0.34v1.58l0.77,0.34v0.34l-2.93-1.32v-0.31L104.03,48.74z M101.48,50.22l1.48,0.66
			v-1.32L101.48,50.22z"/>
		<path class="st0" d="M101.12,48.09v-0.33h2.6v-1.63h0.3v1.96H101.12z"/>
		<path class="st0" d="M103,44.42v0.71h1.03v0.33h-2.91v-1.09c0-0.66,0.35-1.09,0.93-1.09C102.68,43.27,103,43.8,103,44.42z
			 M101.42,44.39v0.73h1.28V44.4c0-0.48-0.26-0.8-0.64-0.8C101.64,43.61,101.42,43.92,101.42,44.39z"/>
		<path class="st0" d="M102.72,42.27h1.31v0.33h-2.91v-0.33h1.29V40.6h-1.29v-0.33h2.91v0.33h-1.31V42.27z"/>
		<path class="st0" d="M104.03,36.67v0.35l-0.77,0.34v1.58l0.77,0.34v0.34l-2.93-1.32v-0.31L104.03,36.67z M101.48,38.15l1.48,0.66
			v-1.32L101.48,38.15z"/>
		<path class="st0" d="M104.03,31.99v0.35l-0.77,0.34v1.58l0.77,0.34v0.34l-2.93-1.32v-0.31L104.03,31.99z M101.48,33.47l1.48,0.66
			v-1.32L101.48,33.47z"/>
		<path class="st0" d="M101.12,29.57v-0.35l2.93,1.25v0.29L101.12,32v-0.37l2.5-1.03L101.12,29.57z"/>
		<path class="st0" d="M101.42,26.47v1.77h0.99v-1.58h0.3v1.58h1.02v-1.79h0.3v2.12h-2.91v-2.1H101.42z"/>
		<path class="st0" d="M104.03,25.8h-0.44v-0.38h0.44V25.8z"/>
	</g>
</g>
</svg>
