<?xml version="1.0" encoding="utf-8"?>
<!-- Generator: Adobe Illustrator 25.1.0, SVG Export Plug-In . SVG Version: 6.00 Build 0)  -->
<svg version="1.1" id="Layer_1" xmlns="http://www.w3.org/2000/svg" xmlns:xlink="http://www.w3.org/1999/xlink" x="0px" y="0px"
	 viewBox="0 0 125.47 78.46" style="enable-background:new 0 0 125.47 78.46;" xml:space="preserve">
<style type="text/css">
	.st0{fill:#FFFFFF;}
	.st1{fill:#00516B;}
	.st2{fill:none;stroke:#00516B;stroke-width:0.301;stroke-linecap:round;stroke-linejoin:round;stroke-miterlimit:10;}
	.st3{fill:#245169;}
</style>
<rect x="9.32" class="st0" width="18.63" height="7.67"/>
<rect x="65.04" y="7.42" class="st0" width="8.95" height="6.51"/>
<rect x="96.6" y="2.8" class="st0" width="7.45" height="24.64"/>
<rect x="39.14" y="55.39" class="st0" width="70.74" height="7.45"/>
<rect x="0.15" y="36.12" class="st0" width="7.44" height="23.86"/>
<polygon class="st0" points="37.92,36.5 37.92,55.9 37.11,55.9 7.59,55.9 7.1,55.9 7.1,36.12 7.1,33.51 13.4,33.51 13.4,34.32 
	32.66,34.32 37.92,34.32 "/>
<polygon class="st0" points="56.51,35.43 56.51,57.63 39.14,57.63 37.11,57.63 37.11,55.9 37.92,55.9 37.92,36.5 43.04,36.5 
	43.04,35.43 "/>
<polygon class="st0" points="75.1,57.63 56.51,57.63 56.51,35.43 75.1,35.43 75.1,38.58 75.1,55.9 75.93,55.9 75.93,57.63 "/>
<polygon class="st0" points="81.89,39.82 89.58,39.82 89.58,46.94 93.28,46.94 93.28,55.89 75.93,55.89 75.1,55.89 75.1,38.58 
	81.89,38.58 "/>
<polygon class="st0" points="105.77,55.39 105.77,55.89 93.28,55.89 93.28,46.94 89.58,46.94 89.58,39.82 81.88,39.82 81.88,38.58 
	81.88,34.32 97.1,34.32 97.1,33.51 105.77,33.51 "/>
<polygon class="st0" points="97.1,33.51 97.1,34.32 81.89,34.32 80.84,34.32 80.84,29.49 75.1,29.49 75.1,22.64 74.41,22.64 
	74.41,13.93 73.99,13.93 73.99,7.42 73.99,7.17 96.6,7.17 97.1,7.17 97.1,27.45 "/>
<polygon class="st1" points="33.92,3.79 65.04,3.79 65.04,7.42 65.04,13.93 53.19,13.93 48.08,13.93 48.08,22.64 48.08,28.61 
	42.77,28.61 42.77,26.68 35.53,26.68 35.53,7.17 33.92,7.17 "/>
<polygon class="st0" points="35.53,29.46 35.53,29.7 32.66,29.7 32.66,34.32 13.4,34.32 13.4,33.51 13.4,7.67 13.4,7.17 27.95,7.17 
	33.92,7.17 35.53,7.17 35.53,26.68 "/>
<polyline class="st2" points="56.51,57.63 75.1,57.63 75.93,57.63 75.93,55.9 "/>
<polyline class="st2" points="75.1,38.58 75.1,35.43 56.51,35.43 "/>
<polyline class="st2" points="53.19,29.49 57.21,26.06 61.24,22.64 65.28,26.06 69.31,29.49 "/>
<polyline class="st2" points="53.19,22.64 57.21,26.06 61.24,29.49 65.28,26.06 69.31,22.64 "/>
<line class="st2" x1="61.24" y1="29.49" x2="61.24" y2="22.64"/>
<line class="st2" x1="65.04" y1="7.42" x2="73.99" y2="7.42"/>
<polyline class="st2" points="7.1,36.12 0.15,36.12 0.15,59.98 7.59,59.98 7.59,55.89 "/>
<polyline class="st2" points="39.14,57.63 39.14,62.84 56.51,62.84 75.1,62.84 93.28,62.84 109.87,62.84 109.87,55.39 105.77,55.39 
	"/>
<polyline class="st2" points="13.4,7.67 9.32,7.67 9.32,0.23 27.95,0.23 27.95,7.17 "/>
<polyline class="st2" points="96.6,7.17 96.6,3.08 104.05,3.08 104.05,27.45 97.1,27.45 "/>
<line class="st2" x1="56.51" y1="57.63" x2="56.51" y2="62.84"/>
<line class="st2" x1="75.1" y1="57.63" x2="75.1" y2="62.84"/>
<polyline class="st2" points="53.19,22.64 53.19,18.28 53.19,13.93 "/>
<polyline class="st2" points="69.31,22.64 69.31,18.28 69.31,13.93 "/>
<line class="st2" x1="93.28" y1="62.84" x2="93.28" y2="55.9"/>
<line class="st2" x1="53.19" y1="22.64" x2="48.08" y2="22.64"/>
<line class="st2" x1="74.41" y1="22.64" x2="69.31" y2="22.64"/>
<polyline class="st2" points="65.04,13.93 69.31,13.93 73.99,13.93 "/>
<polygon class="st2" points="53.19,29.49 61.24,29.49 69.31,29.49 69.31,22.64 61.24,22.64 53.19,22.64 "/>
<polyline class="st2" points="97.1,33.51 97.1,27.45 97.1,7.17 96.6,7.17 73.99,7.17 73.99,7.42 73.99,13.93 74.41,13.93 
	74.41,22.64 75.1,22.64 75.1,29.49 80.84,29.49 80.84,34.32 81.89,34.32 "/>
<polyline class="st2" points="43.04,35.43 43.04,33.57 37.92,33.57 37.92,34.32 "/>
<polyline class="st2" points="37.11,55.9 37.11,57.63 39.14,57.63 56.51,57.63 56.51,35.43 43.04,35.43 43.04,36.5 37.92,36.5 "/>
<polyline class="st2" points="13.4,33.51 7.1,33.51 7.1,36.12 7.1,55.9 7.59,55.9 37.11,55.9 37.92,55.9 37.92,36.51 37.92,34.32 
	32.66,34.32 "/>
<polyline class="st2" points="35.53,29.46 42.77,29.46 42.77,28.61 "/>
<polyline class="st2" points="35.53,26.68 42.77,26.68 42.77,28.61 48.08,28.61 48.08,22.64 48.08,13.93 53.19,13.93 65.04,13.93 
	65.04,7.42 65.04,3.79 33.92,3.79 33.92,7.17 "/>
<polygon class="st2" points="35.53,26.68 35.53,7.17 33.92,7.17 27.95,7.17 13.4,7.17 13.4,7.67 13.4,33.51 13.4,34.32 32.66,34.32 
	32.66,29.7 35.53,29.7 35.53,29.46 "/>
<line class="st2" x1="53.19" y1="18.28" x2="69.31" y2="18.28"/>
<polyline class="st2" points="81.89,38.58 81.89,34.32 97.1,34.32 97.1,33.51 105.77,33.51 105.77,55.39 105.77,55.9 93.28,55.9 "/>
<polygon class="st2" points="75.1,38.58 81.89,38.58 81.89,39.82 89.58,39.82 89.58,46.94 93.28,46.94 93.28,55.9 75.93,55.9 
	75.1,55.9 "/>
<g>
	<path class="st3" d="M49,78.41h-0.43l-0.41-0.93h-1.91l-0.42,0.93h-0.41l1.6-3.53h0.37L49,78.41z M47.21,75.34l-0.8,1.79h1.6
		L47.21,75.34z"/>
	<path class="st3" d="M49.78,74.91h0.4v3.14h1.97v0.37h-2.37V74.91z"/>
	<path class="st3" d="M56.23,78.41H55.8l-0.41-0.93h-1.91l-0.42,0.93h-0.41l1.6-3.53h0.37L56.23,78.41z M54.44,75.34l-0.8,1.79h1.6
		L54.44,75.34z"/>
	<path class="st3" d="M58.2,76.47c0.78,0.17,1.14,0.46,1.14,1c0,0.61-0.5,1-1.2,1c-0.55,0-1.01-0.18-1.43-0.56l0.25-0.29
		c0.37,0.33,0.72,0.5,1.2,0.5c0.47,0,0.78-0.25,0.78-0.6c0-0.33-0.17-0.51-0.91-0.67c-0.81-0.18-1.18-0.44-1.18-1.02
		c0-0.56,0.49-0.96,1.15-0.96c0.51,0,0.88,0.15,1.23,0.43L59,75.59c-0.33-0.27-0.65-0.38-1.01-0.38c-0.46,0-0.75,0.25-0.75,0.57
		C57.24,76.12,57.43,76.3,58.2,76.47z"/>
	<path class="st3" d="M63.22,78.41h-0.5l-1.35-1.7l-0.75,0.76v0.94h-0.4v-3.5h0.4V77l2.01-2.09h0.51l-1.5,1.53L63.22,78.41z"/>
	<path class="st3" d="M67.17,78.41h-0.43l-0.41-0.93h-1.91l-0.42,0.93H63.6l1.6-3.53h0.37L67.17,78.41z M65.38,75.34l-0.8,1.79h1.6
		L65.38,75.34z"/>
	<path class="st3" d="M70.8,76.47c0.78,0.17,1.14,0.46,1.14,1c0,0.61-0.5,1-1.2,1c-0.55,0-1.01-0.18-1.43-0.56l0.25-0.29
		c0.37,0.33,0.72,0.5,1.2,0.5c0.47,0,0.78-0.25,0.78-0.6c0-0.33-0.17-0.51-0.91-0.67c-0.81-0.18-1.18-0.44-1.18-1.02
		c0-0.56,0.49-0.96,1.15-0.96c0.51,0,0.88,0.15,1.23,0.43l-0.23,0.31c-0.33-0.27-0.65-0.38-1.01-0.38c-0.46,0-0.75,0.25-0.75,0.57
		C69.84,76.12,70.02,76.3,70.8,76.47z"/>
	<path class="st3" d="M74.08,78.41h-0.4v-3.14h-1.18v-0.37h2.75v0.37h-1.18V78.41z"/>
	<path class="st3" d="M75.49,78.41v-0.53h0.46v0.53H75.49z"/>
</g>
<g>
	<path class="st3" d="M125.44,42.76v0.43l-0.93,0.41v1.91l0.93,0.42v0.41l-3.53-1.6v-0.37L125.44,42.76z M122.38,44.55l1.79,0.8
		v-1.6L122.38,44.55z"/>
	<path class="st3" d="M121.94,41.98v-0.4h3.14v-1.97h0.37v2.37H121.94z"/>
	<path class="st3" d="M124.21,37.54v0.85h1.24v0.4h-3.5v-1.31c0-0.79,0.42-1.31,1.12-1.31C123.82,36.17,124.21,36.8,124.21,37.54z
		 M122.31,37.51v0.89h1.54v-0.87c0-0.58-0.31-0.96-0.78-0.96C122.57,36.57,122.31,36.94,122.31,37.51z"/>
	<path class="st3" d="M123.87,34.96h1.58v0.4h-3.5v-0.4h1.56v-2.02h-1.56v-0.4h3.5v0.4h-1.58V34.96z"/>
	<path class="st3" d="M125.44,28.2v0.43l-0.93,0.41v1.91l0.93,0.42v0.41l-3.53-1.6V29.8L125.44,28.2z M122.38,29.99l1.79,0.8v-1.6
		L122.38,29.99z"/>
	<path class="st3" d="M125.44,22.56v0.43l-0.93,0.41v1.91l0.93,0.42v0.41l-3.53-1.6v-0.37L125.44,22.56z M122.38,24.35l1.79,0.8
		v-1.6L122.38,24.35z"/>
	<path class="st3" d="M121.94,19.64v-0.43l3.53,1.51v0.35l-3.53,1.51v-0.44l3.02-1.25L121.94,19.64z"/>
	<path class="st3" d="M122.3,15.9v2.14h1.2v-1.91h0.36v1.91h1.23v-2.16h0.36v2.56h-3.5V15.9H122.3z"/>
	<path class="st3" d="M125.44,15.1h-0.53v-0.46h0.53V15.1z"/>
</g>
</svg>
