<?xml version="1.0" encoding="utf-8"?>
<!-- Generator: Adobe Illustrator 25.2.0, SVG Export Plug-In . SVG Version: 6.00 Build 0)  -->
<svg version="1.1" id="Layer_1" xmlns="http://www.w3.org/2000/svg" xmlns:xlink="http://www.w3.org/1999/xlink" x="0px" y="0px"
	 viewBox="0 0 113.58 109.14" style="enable-background:new 0 0 113.58 109.14;" xml:space="preserve">
<style type="text/css">
	.st0{fill:#AABCCE;}
	.st1{fill:#041C2A;}
	.st2{enable-background:new    ;}
	.st3{clip-path:url(#SVGID_2_);}
	.st4{fill:#245169;}
	.st5{fill:#FFFFFF;}
	.st6{fill:#00516B;}
</style>
<g>
	<g>
		<g>
			<g>
				<polygon class="st0" points="87.69,87.01 83.86,93.67 91.38,93.75 				"/>
			</g>
			<g>
				<path class="st1" d="M87.87,92.93c4.28,0.05,7.7,3.54,7.65,7.81c-0.05,4.28-3.54,7.7-7.81,7.65c-4.28-0.05-7.7-3.54-7.65-7.81
					C80.09,96.33,83.6,92.88,87.87,92.93"/>
			</g>
		</g>
		<g class="st2">
			<path class="st0" d="M84.75,98.65c-0.01-0.51-0.07-0.86-0.51-1c-0.05-0.02-0.08-0.05-0.08-0.06c0-0.04,0.02-0.07,0.12-0.07
				s0.47,0.04,0.7,0.04c0.24,0,0.51-0.01,0.71-0.02c0.34,0.48,0.73,0.92,1.16,1.34l3.16,3.36v-3.16c0-0.81-0.28-1.2-0.53-1.35
				c-0.12-0.07-0.22-0.07-0.22-0.11c0-0.05,0.06-0.08,0.16-0.08c0.14,0,0.55,0.04,0.73,0.04c0.19,0,0.46-0.04,0.65-0.04
				c0.13,0,0.16,0.05,0.16,0.07s-0.05,0.06-0.14,0.11c-0.24,0.1-0.51,0.35-0.51,1.37v3.83c0,0.51-0.02,0.9-0.1,0.9h-0.02
				c-0.1,0-0.2-0.22-0.8-0.89c-1.16-1.33-2.85-3.24-4.34-4.67v3.85c0,0.96,0.28,1.25,0.48,1.37c0.13,0.08,0.2,0.08,0.2,0.13
				c0,0.02-0.02,0.04-0.07,0.04c-0.11,0-0.42-0.02-0.76-0.02c-0.19,0-0.72,0.02-0.83,0.02c-0.07,0-0.11-0.01-0.11-0.04
				c0-0.06,0.24-0.1,0.37-0.22c0.3-0.26,0.41-0.64,0.41-1.48C84.75,101.92,84.75,98.65,84.75,98.65z"/>
		</g>
	</g>
	<g>
		<g>
			<g>
				<g>
					<defs>
						
							<rect id="SVGID_1_" x="79.54" y="86.98" transform="matrix(0.9985 -0.0553 0.0553 0.9985 -5.2767 4.9965)" width="16.21" height="21.73"/>
					</defs>
					<clipPath id="SVGID_2_">
						<use xlink:href="#SVGID_1_"  style="overflow:visible;"/>
					</clipPath>
					<g class="st3">
						<path class="st0" d="M87.78,108.63c-1.98,0-3.85-0.71-5.34-2.05c-1.59-1.43-2.54-3.4-2.66-5.53c-0.12-2.14,0.6-4.19,2.04-5.79
							c1.43-1.6,3.4-2.54,5.53-2.66l0.01,0.29l-0.01-0.29c2.13-0.11,4.19,0.6,5.79,2.04c1.6,1.43,2.54,3.4,2.66,5.53
							s-0.6,4.19-2.04,5.79s-3.4,2.54-5.53,2.66C88.08,108.63,87.93,108.63,87.78,108.63z M87.8,93.17c-0.14,0-0.28,0-0.42,0.01
							c-1.99,0.11-3.81,0.99-5.13,2.47c-1.33,1.48-2,3.38-1.88,5.37c0.11,1.99,0.99,3.81,2.47,5.13c1.48,1.33,3.4,2,5.37,1.88
							c1.99-0.11,3.81-0.99,5.13-2.47c1.33-1.48,2-3.38,1.88-5.37c-0.11-1.99-0.99-3.81-2.47-5.13
							C91.38,93.85,89.63,93.17,87.8,93.17z"/>
					</g>
				</g>
			</g>
		</g>
	</g>
</g>
<g>
	<g>
		<g>
			<g>
				<path class="st4" d="M15,2.58h-0.94v1.37h-0.44V0.07h1.46c0.88,0,1.46,0.47,1.46,1.24C16.52,2.15,15.82,2.58,15,2.58z
					 M15.04,0.47h-0.98v1.71h0.96c0.64,0,1.07-0.34,1.07-0.86C16.08,0.76,15.66,0.47,15.04,0.47z"/>
				<path class="st4" d="M20.24,0.47h-2.37V1.8h2.12v0.4h-2.12v1.36h2.4v0.4h-2.84V0.07h2.81C20.24,0.07,20.24,0.47,20.24,0.47z"/>
				<path class="st4" d="M24.12,0.07h0.43v3.89H24.2l-2.51-3.19v3.19h-0.43V0.07h0.41l2.45,3.12V0.07z"/>
				<path class="st4" d="M27.23,3.95h-0.44V0.47h-1.31v-0.4h3.06v0.41h-1.31V3.95z"/>
				<path class="st4" d="M29.9,2.2v1.75h-0.44V0.07h0.44V1.8h2.24V0.07h0.44v3.89h-0.44V2.2H29.9z"/>
				<path class="st4" d="M35.59,4.02c-1.18,0-1.98-0.93-1.98-2S34.42,0,35.6,0s1.98,0.93,1.98,2C37.58,3.08,36.77,4.02,35.59,4.02z
					 M35.59,0.41c-0.89,0-1.52,0.71-1.52,1.6s0.64,1.61,1.53,1.61s1.52-0.71,1.52-1.6S36.48,0.41,35.59,0.41z"/>
				<path class="st4" d="M41.79,2.29c0,1.13-0.65,1.72-1.62,1.72c-0.96,0-1.62-0.59-1.62-1.69V0.07h0.44V2.3
					c0,0.84,0.44,1.31,1.19,1.31c0.72,0,1.17-0.43,1.17-1.28V0.07h0.44C41.79,0.07,41.79,2.29,41.79,2.29z"/>
				<path class="st4" d="M44.33,1.8c0.87,0.19,1.27,0.51,1.27,1.1c0,0.67-0.56,1.11-1.33,1.11c-0.62,0-1.12-0.21-1.59-0.62
					l0.27-0.32c0.41,0.37,0.79,0.55,1.33,0.55c0.52,0,0.87-0.27,0.87-0.67c0-0.37-0.19-0.57-1.01-0.74
					c-0.89-0.19-1.31-0.48-1.31-1.13c0-0.62,0.54-1.07,1.28-1.07c0.57,0,0.97,0.16,1.37,0.48l-0.26,0.34
					c-0.36-0.29-0.72-0.42-1.12-0.42c-0.51,0-0.83,0.28-0.83,0.63C43.28,1.41,43.48,1.62,44.33,1.8z"/>
				<path class="st4" d="M49.41,0.47h-2.37V1.8h2.12v0.4h-2.12v1.36h2.4v0.4H46.6V0.07h2.81V0.47z"/>
				<path class="st4" d="M51.82,1.8c0.87,0.19,1.27,0.51,1.27,1.11c0,0.67-0.55,1.11-1.33,1.11c-0.62,0-1.12-0.21-1.59-0.62
					l0.27-0.32c0.41,0.37,0.79,0.55,1.33,0.55c0.52,0,0.87-0.27,0.87-0.67c0-0.37-0.19-0.57-1.01-0.74c-0.89-0.19-1.3-0.48-1.3-1.13
					c0-0.62,0.54-1.07,1.28-1.07c0.57,0,0.97,0.16,1.37,0.48l-0.26,0.34C52.36,0.53,52,0.41,51.6,0.41c-0.5,0-0.83,0.28-0.83,0.63
					C50.77,1.41,50.97,1.62,51.82,1.8z"/>
				<path class="st4" d="M55.68,2.5V2.07h2.21V2.5H55.68z"/>
			</g>
			<g>
				<path class="st4" d="M63.17,0.83h-2.12v1.25h1.89v0.36h-1.89v1.52h-0.39v-3.5h2.51V0.83z"/>
				<path class="st4" d="M64.03,0.46h0.39v3.13h1.97v0.36h-2.36V0.46z"/>
				<path class="st4" d="M68.65,4.01c-1.06,0-1.78-0.83-1.78-1.8s0.72-1.81,1.79-1.81c1.06,0,1.78,0.83,1.78,1.8
					S69.72,4.01,68.65,4.01z M68.65,0.77c-0.8,0-1.37,0.64-1.37,1.44s0.58,1.45,1.38,1.45c0.8,0,1.37-0.64,1.37-1.44
					S69.45,0.77,68.65,0.77z"/>
				<path class="st4" d="M73,4.01c-1.06,0-1.78-0.83-1.78-1.8s0.72-1.81,1.79-1.81c1.06,0,1.78,0.83,1.78,1.8
					C74.78,3.17,74.06,4.01,73,4.01z M73,0.77c-0.8,0-1.37,0.64-1.37,1.44s0.58,1.45,1.38,1.45c0.8,0,1.37-0.64,1.37-1.44
					S73.8,0.77,73,0.77z"/>
				<path class="st4" d="M78.13,3.95L77.11,2.6h-1v1.36h-0.39v-3.5h1.5c0.77,0,1.26,0.41,1.26,1.04c0,0.58-0.4,0.92-0.95,1.02
					l1.07,1.43C78.6,3.95,78.13,3.95,78.13,3.95z M77.19,0.83h-1.08v1.42h1.07c0.52,0,0.9-0.27,0.9-0.72
					C78.09,1.09,77.76,0.83,77.19,0.83z"/>
				<path class="st4" d="M81.13,1.36l-0.29-0.21c0.31-0.47,0.64-0.74,1.26-0.74c0.63,0,1.08,0.42,1.08,0.99
					c0,0.51-0.27,0.83-0.88,1.36L81.36,3.6h1.85v0.36h-2.44v-0.3l1.27-1.12c0.53-0.48,0.73-0.75,0.73-1.1c0-0.41-0.32-0.67-0.7-0.67
					C81.67,0.77,81.41,0.98,81.13,1.36z"/>
				<path class="st4" d="M86.19,1.11c-0.26-0.22-0.5-0.34-0.82-0.34c-0.63,0-1.03,0.64-1.02,1.54c0.19-0.28,0.48-0.53,0.99-0.53
					c0.65,0,1.21,0.42,1.21,1.08c0,0.68-0.54,1.17-1.25,1.17c-0.38,0-0.7-0.13-0.92-0.35c-0.28-0.28-0.44-0.64-0.44-1.36
					c0-1.07,0.54-1.9,1.45-1.9c0.42,0,0.73,0.15,1.03,0.4L86.19,1.11z M85.28,2.11c-0.52,0-0.87,0.37-0.87,0.77
					c0,0.45,0.37,0.79,0.88,0.79c0.51,0,0.84-0.35,0.84-0.8C86.14,2.43,85.79,2.11,85.28,2.11z"/>
			</g>
			<g>
				<path class="st4" d="M38.16,87.07h-0.42l-0.41-0.92h-1.9l-0.41,0.92h-0.4l1.59-3.52h0.37L38.16,87.07z M36.37,84.01l-0.8,1.78
					h1.59L36.37,84.01z"/>
				<path class="st4" d="M38.94,83.58h0.39v3.13h1.97v0.36h-2.36V83.58z"/>
				<path class="st4" d="M45.38,87.07h-0.42l-0.41-0.92h-1.9l-0.41,0.92h-0.4l1.59-3.52h0.37L45.38,87.07z M43.6,84.01l-0.8,1.78
					h1.59L43.6,84.01z"/>
				<path class="st4" d="M47.36,85.14c0.78,0.17,1.14,0.45,1.14,0.99c0,0.6-0.5,0.99-1.19,0.99c-0.55,0-1.01-0.18-1.43-0.56
					l0.24-0.29c0.36,0.33,0.71,0.49,1.2,0.49c0.47,0,0.78-0.24,0.78-0.6c0-0.33-0.17-0.51-0.91-0.67c-0.8-0.17-1.17-0.43-1.17-1.01
					c0-0.56,0.48-0.96,1.15-0.96c0.51,0,0.87,0.15,1.23,0.43l-0.23,0.3c-0.32-0.26-0.65-0.38-1.01-0.38c-0.45,0-0.74,0.25-0.74,0.57
					C46.41,84.79,46.59,84.97,47.36,85.14z"/>
				<path class="st4" d="M52.37,87.07h-0.49l-1.34-1.69l-0.74,0.75v0.94h-0.4v-3.49h0.39v2.09l2.01-2.09h0.51l-1.5,1.53L52.37,87.07
					z"/>
				<path class="st4" d="M56.31,87.07h-0.42l-0.41-0.92h-1.9l-0.41,0.92h-0.4l1.59-3.52h0.37L56.31,87.07z M54.53,84.01l-0.8,1.78
					h1.59L54.53,84.01z"/>
				<path class="st4" d="M59.95,85.14c0.78,0.17,1.14,0.45,1.14,0.99c0,0.6-0.5,0.99-1.19,0.99c-0.55,0-1.01-0.18-1.43-0.56
					l0.24-0.29c0.36,0.33,0.71,0.49,1.2,0.49c0.47,0,0.78-0.24,0.78-0.6c0-0.33-0.17-0.51-0.91-0.67c-0.8-0.17-1.17-0.43-1.17-1.01
					c0-0.56,0.48-0.96,1.15-0.96c0.51,0,0.87,0.15,1.23,0.43l-0.23,0.3c-0.32-0.26-0.65-0.38-1.01-0.38c-0.45,0-0.74,0.25-0.74,0.57
					C59,84.79,59.18,84.97,59.95,85.14z"/>
				<path class="st4" d="M63.24,87.07h-0.4v-3.13h-1.17v-0.36h2.75v0.36h-1.17L63.24,87.07L63.24,87.07z"/>
				<path class="st4" d="M64.64,87.07v-0.52h0.46v0.52H64.64z"/>
			</g>
			<g>
				<path class="st4" d="M113.71,57.19v0.42l-0.92,0.41v1.9l0.92,0.41v0.4l-3.52-1.59v-0.37L113.71,57.19z M110.65,58.97l1.78,0.8
					v-1.59L110.65,58.97z"/>
				<path class="st4" d="M110.21,56.4v-0.39h3.13v-1.97h0.36v2.36H110.21z"/>
				<path class="st4" d="M112.48,51.97v0.85h1.23v0.39h-3.49V51.9c0-0.79,0.42-1.31,1.11-1.31
					C112.09,50.6,112.48,51.23,112.48,51.97z M110.58,51.94v0.88h1.54v-0.86c0-0.58-0.31-0.96-0.77-0.96
					C110.84,51,110.58,51.37,110.58,51.94z"/>
				<path class="st4" d="M112.14,49.39h1.57v0.39h-3.49v-0.39h1.55v-2.02h-1.55v-0.39h3.49v0.39h-1.57V49.39z"/>
				<path class="st4" d="M113.71,42.64v0.42l-0.92,0.41v1.9l0.92,0.41v0.4l-3.52-1.59v-0.37L113.71,42.64z M110.65,44.42l1.78,0.8
					v-1.59L110.65,44.42z"/>
				<path class="st4" d="M113.71,37.01v0.42l-0.92,0.41v1.9l0.92,0.41v0.4l-3.52-1.59V38.6L113.71,37.01z M110.65,38.79l1.78,0.8V38
					L110.65,38.79z"/>
				<path class="st4" d="M110.21,34.08v-0.42l3.52,1.5v0.35l-3.52,1.5v-0.44l3.01-1.24L110.21,34.08z"/>
				<path class="st4" d="M110.57,30.35v2.13h1.19v-1.91h0.36v1.91h1.22v-2.16h0.36v2.55h-3.49v-2.52
					C110.21,30.35,110.57,30.35,110.57,30.35z"/>
				<path class="st4" d="M113.71,29.54h-0.52v-0.46h0.52V29.54z"/>
			</g>
			<g>
				<g>
					<polygon class="st5" points="103.44,73.34 103.44,65.75 99.72,65.75 99.72,46.56 99.72,43.96 93.36,43.96 93.36,39.03 
						97.67,39.03 97.67,22.37 90.73,22.37 90.73,17.55 68.88,17.55 68.88,16.28 67.15,16.28 67.15,17.55 58.69,17.55 58.69,14.17 
						41.06,14.17 29.24,14.17 29.24,12.87 27.51,12.87 27.51,17.55 6.95,17.55 6.95,43.96 0.32,43.96 0.32,46.56 0.63,46.56 
						0.63,66.38 16.3,66.38 16.3,65.69 32.45,65.69 32.45,71.72 32.66,71.72 32.66,73.34 54.82,73.34 					"/>
				</g>
				<g>
					<path class="st6" d="M62.88,40.04c-0.03,0-0.06-0.01-0.08-0.03l-7.98-6.78l-7.98,6.78c-0.05,0.04-0.13,0.04-0.18-0.01
						c-0.04-0.05-0.04-0.13,0.01-0.18l8.06-6.85c0.05-0.04,0.11-0.04,0.16,0l8.06,6.85c0.05,0.04,0.06,0.12,0.01,0.18
						C62.95,40.03,62.92,40.04,62.88,40.04z"/>
				</g>
				<g>
					<path class="st6" d="M54.82,40.04c-0.03,0-0.06-0.01-0.08-0.03l-8.06-6.85c-0.05-0.04-0.06-0.12-0.01-0.18
						c0.05-0.05,0.12-0.06,0.18-0.01l7.98,6.78l7.98-6.78c0.05-0.04,0.13-0.04,0.18,0.01c0.04,0.05,0.04,0.13-0.01,0.18l-8.06,6.85
						C54.88,40.03,54.85,40.04,54.82,40.04z"/>
				</g>
				<g>
					<path class="st6" d="M54.82,40.04c-0.07,0-0.12-0.06-0.12-0.12v-6.85c0-0.07,0.06-0.12,0.12-0.12s0.12,0.06,0.12,0.12v6.85
						C54.95,39.99,54.89,40.04,54.82,40.04z"/>
				</g>
				<g>
					<path class="st6" d="M46.76,33.2c-0.07,0-0.12-0.06-0.12-0.12v-8.24c0-0.07,0.06-0.12,0.12-0.12s0.12,0.06,0.12,0.12v8.24
						C46.89,33.14,46.83,33.2,46.76,33.2z"/>
				</g>
				<g>
					<path class="st6" d="M62.88,33.2c-0.07,0-0.12-0.06-0.12-0.12v-8.24c0-0.07,0.06-0.12,0.12-0.12S63,24.78,63,24.84v8.24
						C63.01,33.14,62.95,33.2,62.88,33.2z"/>
				</g>
				<g>
					<path class="st6" d="M54.82,73.47H32.66c-0.07,0-0.12-0.06-0.12-0.12v-1.5h-0.09c-0.07,0-0.12-0.06-0.12-0.12v-6.02
						c0-0.07,0.06-0.12,0.12-0.12s0.12,0.06,0.12,0.12v5.9h0.09c0.07,0,0.12,0.06,0.12,0.12v1.5h22.03c0.07,0,0.12,0.06,0.12,0.12
						S54.89,73.47,54.82,73.47z"/>
				</g>
				<g>
					<path class="st6" d="M103.44,73.47H54.82c-0.07,0-0.12-0.06-0.12-0.12V65.7c0-0.07,0.06-0.12,0.12-0.12s0.12,0.06,0.12,0.12
						v7.53h48.37v-7.34h-3.6c-0.07,0-0.12-0.06-0.12-0.12v-19.2c0-0.07,0.06-0.12,0.12-0.12s0.12,0.06,0.12,0.12v19.07h3.6
						c0.07,0,0.12,0.06,0.12,0.12v7.59C103.57,73.41,103.51,73.47,103.44,73.47z"/>
				</g>
				<g>
					<path class="st6" d="M97.67,39.15h-4.31c-0.07,0-0.12-0.06-0.12-0.12s0.06-0.12,0.12-0.12h4.19V22.5h-6.82
						c-0.07,0-0.12-0.06-0.12-0.12v-4.69H68.89c-0.07,0-0.12-0.06-0.12-0.12s0.06-0.12,0.12-0.12h21.85c0.07,0,0.12,0.06,0.12,0.12
						v4.69h6.82c0.07,0,0.12,0.06,0.12,0.12v16.65C97.8,39.1,97.74,39.15,97.67,39.15z"/>
				</g>
				<g>
					<path class="st6" d="M16.3,66.51H0.63c-0.07,0-0.12-0.06-0.12-0.12V46.56c0-0.07,0.06-0.12,0.12-0.12s0.12,0.06,0.12,0.12v19.7
						h15.42V65.7c0-0.07,0.06-0.12,0.12-0.12s0.12,0.06,0.12,0.12v0.69C16.42,66.45,16.37,66.51,16.3,66.51z"/>
				</g>
				<g>
					<path class="st6" d="M6.95,44.08c-0.07,0-0.12-0.06-0.12-0.12v-26.4c0-0.07,0.06-0.12,0.12-0.12h20.56
						c0.07,0,0.12,0.06,0.12,0.12s-0.06,0.12-0.12,0.12H7.07v26.28C7.07,44.02,7.02,44.08,6.95,44.08z"/>
				</g>
				<g>
					<path class="st6" d="M41.06,14.29H29.24c-0.07,0-0.12-0.06-0.12-0.12s0.06-0.12,0.12-0.12h11.82c0.07,0,0.12,0.06,0.12,0.12
						S41.13,14.29,41.06,14.29z"/>
				</g>
				<g>
					<path class="st6" d="M68.45,24.96c-0.07,0-0.12-0.06-0.12-0.12v-3.31c0-0.07,0.06-0.12,0.12-0.12s0.12,0.06,0.12,0.12v3.31
						C68.58,24.9,68.52,24.96,68.45,24.96z"/>
				</g>
				<g>
					<path class="st6" d="M41.06,24.96c-0.07,0-0.12-0.06-0.12-0.12V14.17c0-0.07,0.06-0.12,0.12-0.12h17.63
						c0.07,0,0.12,0.06,0.12,0.12v3.26h8.33c0.07,0,0.12,0.06,0.12,0.12s-0.06,0.12-0.12,0.12h-8.46c-0.07,0-0.12-0.06-0.12-0.12
						v-3.26H41.19v10.54C41.19,24.9,41.13,24.96,41.06,24.96z"/>
				</g>
				<g>
					<path class="st6" d="M46.76,33.2h-3.77c-0.07,0-0.12-0.06-0.12-0.12s0.06-0.12,0.12-0.12h3.77c0.07,0,0.12,0.06,0.12,0.12
						S46.83,33.2,46.76,33.2z"/>
				</g>
				<g>
					<path class="st6" d="M66.86,33.2h-3.98c-0.07,0-0.12-0.06-0.12-0.12s0.06-0.12,0.12-0.12h3.98c0.07,0,0.12,0.06,0.12,0.12
						S66.93,33.2,66.86,33.2z"/>
				</g>
				<g>
					<path class="st6" d="M68.88,32.3c-0.07,0-0.12-0.06-0.12-0.12v-7.21H40.9v7.21c0,0.07-0.06,0.12-0.12,0.12
						s-0.12-0.06-0.12-0.12v-7.34c0-0.07,0.06-0.12,0.12-0.12h28.11c0.07,0,0.12,0.06,0.12,0.12v7.34
						C69.01,32.24,68.95,32.3,68.88,32.3z"/>
				</g>
				<g>
					<path class="st6" d="M62.88,40.04H46.76c-0.07,0-0.12-0.06-0.12-0.12v-6.85c0-0.07,0.06-0.12,0.12-0.12h16.12
						c0.07,0,0.12,0.06,0.12,0.12v6.85C63.01,39.99,62.95,40.04,62.88,40.04z M46.89,39.79h15.87v-6.6H46.89V39.79z"/>
				</g>
				<g>
					<path class="st6" d="M62.88,29.08H46.76c-0.07,0-0.12-0.06-0.12-0.12s0.06-0.12,0.12-0.12h16.12c0.07,0,0.12,0.06,0.12,0.12
						S62.95,29.08,62.88,29.08z"/>
				</g>
				<g>
					<polygon class="st6" points="54.82,65.69 93.36,65.69 93.36,46.56 99.72,46.56 99.72,43.96 93.36,43.96 93.36,39.03 
						93.36,38.63 80.04,38.63 80.04,32.17 68.88,32.17 68.88,33.07 66.86,33.07 66.86,38.8 68.79,38.8 68.79,43.64 64.15,43.64 
						64.15,44.83 54.82,44.83 					"/>
				</g>
				<g>
					<path class="st6" d="M93.36,65.82H54.82c-0.07,0-0.12-0.06-0.12-0.12V44.83c0-0.07,0.06-0.12,0.12-0.12h9.2v-1.07
						c0-0.07,0.06-0.12,0.12-0.12h4.51v-4.59h-1.8c-0.07,0-0.12-0.06-0.12-0.12v-5.72c0-0.07,0.06-0.12,0.12-0.12h1.9v-0.78
						c0-0.07,0.06-0.12,0.12-0.12h11.16c0.07,0,0.12,0.06,0.12,0.12v6.33h13.19c0.07,0,0.12,0.06,0.12,0.12v5.2h6.24
						c0.07,0,0.12,0.06,0.12,0.12v2.6c0,0.07-0.06,0.12-0.12,0.12h-6.24v19.01C93.48,65.76,93.43,65.82,93.36,65.82z M54.95,65.57
						h38.29V46.56c0-0.07,0.06-0.12,0.12-0.12h6.24v-2.35h-6.24c-0.07,0-0.12-0.06-0.12-0.12v-5.2h-13.2
						c-0.07,0-0.12-0.06-0.12-0.12V32.3H69.01v0.78c0,0.07-0.06,0.12-0.12,0.12h-1.9v5.47h1.8c0.07,0,0.12,0.06,0.12,0.12v4.84
						c0,0.07-0.06,0.12-0.12,0.12h-4.51v1.07c0,0.07-0.06,0.12-0.12,0.12h-9.2L54.95,65.57L54.95,65.57z"/>
				</g>
				<g>
					<polygon class="st5" points="54.82,44.83 45.5,44.83 45.5,43.64 42.99,43.64 42.99,33.07 40.77,33.07 40.77,32.17 29.6,32.17 
						29.6,38.63 16.3,38.63 16.3,45.28 16.08,45.28 16.08,53.09 16.3,53.09 16.3,65.69 32.45,65.69 54.82,65.69 					"/>
				</g>
				<g>
					<path class="st6" d="M54.82,65.82H16.3c-0.07,0-0.12-0.06-0.12-0.12V53.22h-0.09c-0.07,0-0.12-0.06-0.12-0.12v-7.81
						c0-0.07,0.06-0.12,0.12-0.12h0.09v-6.53c0-0.07,0.06-0.12,0.12-0.12h13.18v-6.33c0-0.07,0.06-0.12,0.12-0.12h11.17
						c0.07,0,0.12,0.06,0.12,0.12v0.78h2.09c0.07,0,0.12,0.06,0.12,0.12v10.44h2.38c0.07,0,0.12,0.06,0.12,0.12v1.07h9.2
						c0.07,0,0.12,0.06,0.12,0.12V65.7C54.95,65.76,54.89,65.82,54.82,65.82z M16.42,65.57H54.7V44.96h-9.2
						c-0.07,0-0.12-0.06-0.12-0.12v-1.07H43c-0.07,0-0.12-0.06-0.12-0.12V33.2h-2.09c-0.07,0-0.12-0.06-0.12-0.12V32.3H29.73v6.33
						c0,0.07-0.06,0.12-0.12,0.12H16.42v6.53c0,0.07-0.06,0.12-0.12,0.12h-0.09v7.56h0.09c0.07,0,0.12,0.06,0.12,0.12V65.57z"/>
				</g>
				<g>
					<path class="st6" d="M8.14,46.68H0.32c-0.07,0-0.12-0.06-0.12-0.12v-2.6c0-0.07,0.06-0.12,0.12-0.12h7.82
						c0.07,0,0.12,0.06,0.12,0.12v2.6C8.27,46.63,8.21,46.68,8.14,46.68z M0.45,46.43h7.57v-2.35H0.45V46.43z"/>
				</g>
				<g>
					<path class="st6" d="M29.24,17.99h-1.73c-0.07,0-0.12-0.06-0.12-0.12v-5c0-0.07,0.06-0.12,0.12-0.12h1.73
						c0.07,0,0.12,0.06,0.12,0.12v5C29.37,17.94,29.31,17.99,29.24,17.99z M27.63,17.74h1.48v-4.75h-1.48V17.74z"/>
				</g>
				<g>
					<path class="st6" d="M68.89,21.64h-0.87c-0.07,0-0.12-0.06-0.12-0.12v-3.2h-0.74c-0.07,0-0.12-0.06-0.12-0.12v-1.92
						c0-0.07,0.06-0.12,0.12-0.12h1.74c0.07,0,0.12,0.06,0.12,0.12v5.24C69.01,21.59,68.95,21.64,68.89,21.64z M68.14,21.39h0.62
						V16.4h-1.49v1.67h0.74c0.07,0,0.12,0.06,0.12,0.12L68.14,21.39L68.14,21.39z"/>
				</g>
			</g>
		</g>
	</g>
</g>
</svg>
