<?xml version="1.0" encoding="utf-8"?>
<!-- Generator: Adobe Illustrator 25.2.0, SVG Export Plug-In . SVG Version: 6.00 Build 0)  -->
<svg version="1.1" id="Layer_1" xmlns="http://www.w3.org/2000/svg" xmlns:xlink="http://www.w3.org/1999/xlink" x="0px" y="0px"
	 viewBox="0 0 125.47 114.29" style="enable-background:new 0 0 125.47 114.29;" xml:space="preserve">
<style type="text/css">
	.st0{enable-background:new    ;}
	.st1{fill:#FFFFFF;}
	.st2{fill:#00516B;}
	.st3{fill:none;stroke:#00516B;stroke-width:0;stroke-linecap:round;stroke-miterlimit:10;}
	.st4{fill:#245169;}
</style>
<g>
	<g>
		<g class="st0">
			<g>
				<g>
					<rect x="9.31" y="15.25" class="st1" width="18.63" height="7.67"/>
				</g>
				<g>
					<rect x="65.04" y="22.67" class="st1" width="8.95" height="6.51"/>
				</g>
				<g>
					<rect x="96.6" y="18.05" class="st1" width="7.45" height="24.64"/>
				</g>
				<g>
					<rect x="39.14" y="70.64" class="st1" width="70.74" height="7.45"/>
				</g>
				<g>
					<rect x="0.15" y="51.37" class="st1" width="7.44" height="23.86"/>
				</g>
				<g>
					<polygon class="st2" points="37.92,51.75 37.92,71.14 37.11,71.14 7.59,71.14 7.1,71.14 7.1,51.37 7.1,48.76 13.4,48.76 
						13.4,49.57 32.66,49.57 37.92,49.57 					"/>
				</g>
				<g>
					<polygon class="st1" points="56.51,50.68 56.51,72.88 39.14,72.88 37.11,72.88 37.11,71.14 37.92,71.14 37.92,51.75 
						43.04,51.75 43.04,50.68 					"/>
				</g>
				<g>
					<polygon class="st1" points="75.1,72.88 56.51,72.88 56.51,50.68 75.1,50.68 75.1,53.83 75.1,71.14 75.93,71.14 75.93,72.88 
											"/>
				</g>
				<g>
					<polygon class="st1" points="81.88,55.07 89.58,55.07 89.58,62.18 93.28,62.18 93.28,71.14 75.93,71.14 75.1,71.14 75.1,53.83 
						81.88,53.83 					"/>
				</g>
				<g>
					<polygon class="st1" points="105.77,70.64 105.77,71.14 93.28,71.14 93.28,62.18 89.58,62.18 89.58,55.07 81.88,55.07 
						81.88,53.83 81.88,49.57 97.1,49.57 97.1,48.76 105.77,48.76 					"/>
				</g>
				<g>
					<polygon class="st1" points="97.1,48.76 97.1,49.57 81.88,49.57 80.84,49.57 80.84,44.73 75.1,44.73 75.1,37.88 74.41,37.88 
						74.41,29.18 73.99,29.18 73.99,22.67 73.99,22.41 96.6,22.41 97.1,22.41 97.1,42.69 					"/>
				</g>
				<g>
					<polygon class="st1" points="33.92,19.04 65.04,19.04 65.04,22.67 65.04,29.18 53.18,29.18 48.08,29.18 48.08,37.88 
						48.08,43.85 42.77,43.85 42.77,41.92 35.53,41.92 35.53,22.41 33.92,22.41 					"/>
				</g>
				<g>
					<polygon class="st1" points="35.53,44.71 35.53,44.95 32.66,44.95 32.66,49.57 13.4,49.57 13.4,48.76 13.4,22.92 13.4,22.41 
						27.95,22.41 33.92,22.41 35.53,22.41 35.53,41.92 					"/>
				</g>
				<g>
					<path class="st2" d="M75.93,73.03H56.51c-0.08,0-0.15-0.07-0.15-0.15s0.07-0.15,0.15-0.15h19.27v-1.58
						c0-0.08,0.07-0.15,0.15-0.15s0.15,0.07,0.15,0.15v1.74C76.08,72.96,76.01,73.03,75.93,73.03z"/>
				</g>
				<g>
					<path class="st2" d="M75.1,53.98c-0.08,0-0.15-0.07-0.15-0.15v-3H56.51c-0.08,0-0.15-0.07-0.15-0.15s0.07-0.15,0.15-0.15H75.1
						c0.08,0,0.15,0.07,0.15,0.15v3.15C75.25,53.91,75.18,53.98,75.1,53.98z"/>
				</g>
				<g>
					<path class="st2" d="M69.31,44.88c-0.03,0-0.07-0.01-0.1-0.04l-7.97-6.77l-7.96,6.77c-0.06,0.06-0.16,0.05-0.21-0.02
						c-0.05-0.06-0.05-0.16,0.02-0.21l8.06-6.85c0.06-0.05,0.14-0.05,0.19,0l8.07,6.85c0.06,0.05,0.07,0.15,0.02,0.21
						C69.39,44.87,69.35,44.88,69.31,44.88z"/>
				</g>
				<g>
					<path class="st2" d="M61.24,44.88c-0.03,0-0.07-0.01-0.1-0.04L53.09,38c-0.06-0.05-0.07-0.15-0.02-0.21
						c0.05-0.06,0.15-0.07,0.21-0.02l7.96,6.77l7.97-6.77c0.06-0.05,0.16-0.05,0.21,0.02s0.05,0.16-0.02,0.21l-8.07,6.85
						C61.31,44.87,61.28,44.88,61.24,44.88z"/>
				</g>
				<g>
					<path class="st2" d="M61.24,44.88c-0.08,0-0.15-0.07-0.15-0.15v-6.85c0-0.08,0.07-0.15,0.15-0.15s0.15,0.07,0.15,0.15v6.85
						C61.39,44.82,61.32,44.88,61.24,44.88z"/>
				</g>
				<g>
					<path class="st2" d="M73.99,22.82h-8.95c-0.08,0-0.15-0.07-0.15-0.15s0.07-0.15,0.15-0.15h8.95c0.08,0,0.15,0.07,0.15,0.15
						S74.07,22.82,73.99,22.82z"/>
				</g>
				<g>
					<path class="st2" d="M7.59,75.38H0.15C0.07,75.38,0,75.31,0,75.23V51.37c0-0.08,0.07-0.15,0.15-0.15H7.1
						c0.08,0,0.15,0.07,0.15,0.15s-0.07,0.15-0.15,0.15H0.3v23.56h7.14v-3.94c0-0.08,0.07-0.15,0.15-0.15s0.15,0.07,0.15,0.15v4.09
						C7.74,75.31,7.67,75.38,7.59,75.38z"/>
				</g>
				<g>
					<path class="st2" d="M109.87,78.24H39.14c-0.08,0-0.15-0.07-0.15-0.15v-5.21c0-0.08,0.07-0.15,0.15-0.15s0.15,0.07,0.15,0.15
						v5.06h70.44v-7.15h-3.95c-0.08,0-0.15-0.07-0.15-0.15s0.07-0.15,0.15-0.15h4.1c0.08,0,0.15,0.07,0.15,0.15v7.45
						C110.02,78.17,109.96,78.24,109.87,78.24z"/>
				</g>
				<g>
					<path class="st2" d="M13.4,23.07H9.31c-0.08,0-0.15-0.07-0.15-0.15v-7.44c0-0.08,0.07-0.15,0.15-0.15h18.63
						c0.08,0,0.15,0.07,0.15,0.15v6.93c0,0.08-0.07,0.15-0.15,0.15s-0.15-0.07-0.15-0.15v-6.78H9.46v7.14h3.94
						c0.08,0,0.15,0.07,0.15,0.15S13.49,23.07,13.4,23.07z"/>
				</g>
				<g>
					<path class="st2" d="M104.05,42.85H97.1c-0.08,0-0.15-0.07-0.15-0.15s0.07-0.15,0.15-0.15h6.8V18.47h-7.15v3.94
						c0,0.08-0.07,0.15-0.15,0.15s-0.15-0.07-0.15-0.15v-4.09c0-0.08,0.07-0.15,0.15-0.15h7.45c0.08,0,0.15,0.07,0.15,0.15V42.7
						C104.2,42.78,104.13,42.85,104.05,42.85z"/>
				</g>
				<g>
					<path class="st2" d="M56.51,78.24c-0.08,0-0.15-0.07-0.15-0.15v-5.21c0-0.08,0.07-0.15,0.15-0.15s0.15,0.07,0.15,0.15v5.21
						C56.66,78.17,56.6,78.24,56.51,78.24z"/>
				</g>
				<g>
					<path class="st2" d="M75.1,78.24c-0.08,0-0.15-0.07-0.15-0.15v-5.21c0-0.08,0.07-0.15,0.15-0.15s0.15,0.07,0.15,0.15v5.21
						C75.25,78.17,75.18,78.24,75.1,78.24z"/>
				</g>
				<g>
					<path class="st2" d="M53.18,38.03c-0.08,0-0.15-0.07-0.15-0.15v-8.71c0-0.08,0.07-0.15,0.15-0.15s0.15,0.07,0.15,0.15v8.71
						C53.33,37.97,53.27,38.03,53.18,38.03z"/>
				</g>
				<g>
					<path class="st2" d="M69.31,38.03c-0.08,0-0.15-0.07-0.15-0.15v-8.71c0-0.08,0.07-0.15,0.15-0.15s0.15,0.07,0.15,0.15v8.71
						C69.46,37.97,69.39,38.03,69.31,38.03z"/>
				</g>
				<g>
					<path class="st2" d="M93.28,78.24c-0.08,0-0.15-0.07-0.15-0.15v-6.95c0-0.08,0.07-0.15,0.15-0.15s0.15,0.07,0.15,0.15v6.95
						C93.43,78.17,93.36,78.24,93.28,78.24z"/>
				</g>
				<g>
					<path class="st2" d="M53.18,38.03h-5.1c-0.08,0-0.15-0.07-0.15-0.15s0.07-0.15,0.15-0.15h5.1c0.08,0,0.15,0.07,0.15,0.15
						S53.27,38.03,53.18,38.03z"/>
				</g>
				<g>
					<path class="st2" d="M74.41,38.03h-5.1c-0.08,0-0.15-0.07-0.15-0.15s0.07-0.15,0.15-0.15h5.1c0.08,0,0.15,0.07,0.15,0.15
						S74.49,38.03,74.41,38.03z"/>
				</g>
				<g>
					<path class="st2" d="M73.99,29.33h-8.95c-0.08,0-0.15-0.07-0.15-0.15s0.07-0.15,0.15-0.15h8.95c0.08,0,0.15,0.07,0.15,0.15
						S74.07,29.33,73.99,29.33z"/>
				</g>
				<g>
					<path class="st2" d="M69.31,44.88H53.18c-0.08,0-0.15-0.07-0.15-0.15v-6.85c0-0.08,0.07-0.15,0.15-0.15h16.12
						c0.08,0,0.15,0.07,0.15,0.15v6.85C69.46,44.82,69.39,44.88,69.31,44.88z M53.33,44.58h15.82v-6.55H53.33V44.58z"/>
				</g>
				<g>
					<path class="st2" d="M81.88,49.72h-1.05c-0.08,0-0.15-0.07-0.15-0.15v-4.69H75.1c-0.08,0-0.15-0.07-0.15-0.15v-6.7h-0.54
						c-0.08,0-0.15-0.07-0.15-0.15v-8.56h-0.27c-0.08,0-0.15-0.07-0.15-0.15v-6.77c0-0.08,0.07-0.15,0.15-0.15H97.1
						c0.08,0,0.15,0.07,0.15,0.15v26.35c0,0.08-0.07,0.15-0.15,0.15s-0.15-0.07-0.15-0.15v-26.2H74.14v6.47h0.27
						c0.08,0,0.15,0.07,0.15,0.15v8.56h0.54c0.08,0,0.15,0.07,0.15,0.15v6.7h5.59c0.08,0,0.15,0.07,0.15,0.15v4.69h0.9
						c0.08,0,0.15,0.07,0.15,0.15S81.97,49.72,81.88,49.72z"/>
				</g>
				<g>
					<path class="st2" d="M43.04,50.83c-0.08,0-0.15-0.07-0.15-0.15v-1.71h-4.82v0.6c0,0.08-0.07,0.15-0.15,0.15
						s-0.15-0.07-0.15-0.15v-0.75c0-0.08,0.07-0.15,0.15-0.15h5.12c0.08,0,0.15,0.07,0.15,0.15v1.86
						C43.19,50.76,43.13,50.83,43.04,50.83z"/>
				</g>
				<g>
					<path class="st2" d="M56.51,73.03h-19.4c-0.08,0-0.15-0.07-0.15-0.15v-1.74c0-0.08,0.07-0.15,0.15-0.15s0.15,0.07,0.15,0.15
						v1.59h19.1v-21.9H43.19v0.92c0,0.08-0.07,0.15-0.15,0.15h-5.12c-0.08,0-0.15-0.07-0.15-0.15s0.07-0.15,0.15-0.15h4.97v-0.92
						c0-0.08,0.07-0.15,0.15-0.15h13.47c0.08,0,0.15,0.07,0.15,0.15v22.2C56.66,72.96,56.6,73.03,56.51,73.03z"/>
				</g>
				<g>
					<path class="st2" d="M37.92,71.29H7.1c-0.08,0-0.15-0.07-0.15-0.15V48.76c0-0.08,0.07-0.15,0.15-0.15h6.31
						c0.08,0,0.15,0.07,0.15,0.15s-0.07,0.15-0.15,0.15H7.25v22.08h30.52V49.72h-5.11c-0.08,0-0.15-0.07-0.15-0.15
						s0.07-0.15,0.15-0.15h5.26c0.08,0,0.15,0.07,0.15,0.15v21.57C38.07,71.22,38,71.29,37.92,71.29z"/>
				</g>
				<g>
					<path class="st2" d="M42.77,44.86h-7.23c-0.08,0-0.15-0.07-0.15-0.15s0.07-0.15,0.15-0.15h7.08v-0.71
						c0-0.08,0.07-0.15,0.15-0.15s0.15,0.07,0.15,0.15v0.86C42.92,44.79,42.85,44.86,42.77,44.86z"/>
				</g>
				<g>
					<path class="st2" d="M48.08,44h-5.32c-0.08,0-0.15-0.07-0.15-0.15v-1.78h-7.08c-0.08,0-0.15-0.07-0.15-0.15
						s0.07-0.15,0.15-0.15h7.23c0.08,0,0.15,0.07,0.15,0.15v1.78h5.02V29.18c0-0.08,0.07-0.15,0.15-0.15h16.8v-9.84H34.07v3.23
						c0,0.08-0.07,0.15-0.15,0.15s-0.15-0.07-0.15-0.15v-3.38c0-0.08,0.07-0.15,0.15-0.15h31.12c0.08,0,0.15,0.07,0.15,0.15v10.14
						c0,0.08-0.07,0.15-0.15,0.15h-16.8v14.52C48.23,43.94,48.17,44,48.08,44z"/>
				</g>
				<g>
					<path class="st2" d="M32.66,49.72H13.4c-0.08,0-0.15-0.07-0.15-0.15V22.41c0-0.08,0.07-0.15,0.15-0.15h22.13
						c0.08,0,0.15,0.07,0.15,0.15v22.54c0,0.08-0.07,0.15-0.15,0.15h-2.72v4.47C32.81,49.65,32.74,49.72,32.66,49.72z M13.55,49.42
						h18.96v-4.47c0-0.08,0.07-0.15,0.15-0.15h2.72V22.56H13.55V49.42z"/>
				</g>
				<g>
					<path class="st2" d="M69.31,33.68H53.18c-0.08,0-0.15-0.07-0.15-0.15s0.07-0.15,0.15-0.15h16.12c0.08,0,0.15,0.07,0.15,0.15
						S69.39,33.68,69.31,33.68z"/>
				</g>
				<g>
					<path class="st2" d="M105.77,71.29H93.28c-0.08,0-0.15-0.07-0.15-0.15s0.07-0.15,0.15-0.15h12.34V48.91h-8.37v0.66
						c0,0.08-0.07,0.15-0.15,0.15H82.04v4.11c0,0.08-0.07,0.15-0.15,0.15s-0.15-0.07-0.15-0.15v-4.26c0-0.08,0.07-0.15,0.15-0.15
						h15.07v-0.66c0-0.08,0.07-0.15,0.15-0.15h8.67c0.08,0,0.15,0.07,0.15,0.15v22.38C105.92,71.22,105.86,71.29,105.77,71.29z"/>
				</g>
				<g>
					<path class="st2" d="M93.28,71.29H75.1c-0.08,0-0.15-0.07-0.15-0.15V53.83c0-0.08,0.07-0.15,0.15-0.15h6.79
						c0.08,0,0.15,0.07,0.15,0.15v1.09h7.54c0.08,0,0.15,0.07,0.15,0.15v6.96h3.55c0.08,0,0.15,0.07,0.15,0.15v8.96
						C93.43,71.22,93.36,71.29,93.28,71.29z M75.25,70.99h17.88v-8.66h-3.55c-0.08,0-0.15-0.07-0.15-0.15v-6.96h-7.54
						c-0.08,0-0.15-0.07-0.15-0.15v-1.09h-6.49V70.99z"/>
				</g>
				<g>
					<path class="st2" d="M98.27,114.29c-0.17,0-0.31-0.14-0.31-0.31V99.82c0-0.17,0.14-0.31,0.31-0.31s0.31,0.14,0.31,0.31v14.15
						C98.59,114.14,98.44,114.29,98.27,114.29z"/>
				</g>
				<g>
					<path class="st2" d="M104.87,108c-0.08,0-0.16-0.03-0.22-0.09l-6.6-6.29c-0.13-0.12-0.13-0.32-0.01-0.44
						c0.12-0.13,0.32-0.13,0.44-0.01l6.6,6.29c0.13,0.12,0.13,0.32,0.01,0.44C105.04,107.96,104.96,108,104.87,108z"/>
				</g>
				<g>
					<path class="st2" d="M98.27,99.82l6.6,7.86l-6.6-6.29V99.82z M105.5,107.05l-7.23-7.23l6.6,7.86L105.5,107.05z"/>
				</g>
				<g>
					<path class="st3" d="M98.27,99.82l6.6,7.86l-6.6-6.29V99.82z M105.5,107.05l-7.23-7.23l6.6,7.86L105.5,107.05z"/>
				</g>
				<g>
					<g>
						<path class="st2" d="M98.43,114.29c-4.07,0-7.39-3.32-7.39-7.39s3.31-7.39,7.39-7.39s7.39,3.32,7.39,7.39
							S102.5,114.29,98.43,114.29z M98.43,100.13c-3.73,0-6.76,3.03-6.76,6.76s3.03,6.76,6.76,6.76s6.76-3.03,6.76-6.76
							S102.16,100.13,98.43,100.13z"/>
					</g>
				</g>
				<g>
					<path class="st2" d="M91.35,107.37c-0.08,0-0.16-0.03-0.22-0.09c-0.13-0.12-0.13-0.32-0.01-0.45l6.92-7.23
						c0.12-0.12,0.32-0.13,0.44-0.01c0.13,0.12,0.13,0.32,0.01,0.45l-6.92,7.23C91.52,107.34,91.44,107.37,91.35,107.37z"/>
				</g>
				<g>
					<path class="st2" d="M91.98,108c-0.08,0-0.16-0.03-0.22-0.09c-0.12-0.12-0.12-0.32,0-0.45l6.29-6.29
						c0.12-0.12,0.32-0.12,0.44,0c0.12,0.12,0.12,0.32,0,0.45l-6.29,6.29C92.14,107.97,92.06,108,91.98,108z"/>
				</g>
				<g>
					<path class="st2" d="M98.27,99.82l-6.29,7.86l6.29-6.29V99.82z M91.35,107.05l6.92-7.23l-6.29,7.86L91.35,107.05z"/>
				</g>
				<g>
					<path class="st3" d="M98.27,99.82l-6.29,7.86l6.29-6.29V99.82z M91.35,107.05l6.92-7.23l-6.29,7.86L91.35,107.05z"/>
				</g>
				<g>
					<path class="st4" d="M43.57,0.07h0.44v3.48h2.19v0.41h-2.63V0.07z"/>
					<path class="st4" d="M49.93,0.47h-2.37v1.33h2.12v0.4h-2.12v1.36h2.4v0.4h-2.84V0.07h2.81V0.47z"/>
					<path class="st4" d="M53.88,0.07h0.47l-1.67,3.92h-0.39l-1.67-3.92h0.49l1.38,3.35L53.88,0.07z"/>
					<path class="st4" d="M58.03,0.47h-2.37v1.33h2.12v0.4h-2.12v1.36h2.4v0.4h-2.84V0.07h2.81V0.47z"/>
					<path class="st4" d="M59.06,0.07h0.44v3.48h2.19v0.41h-2.63V0.07z"/>
					<path class="st4" d="M64.5,1.07l-0.32-0.23c0.35-0.52,0.72-0.83,1.4-0.83c0.71,0,1.21,0.47,1.21,1.11
						c0,0.57-0.3,0.92-0.98,1.52l-1.04,0.92h2.06v0.4H64.1V3.62l1.41-1.24c0.59-0.53,0.81-0.83,0.81-1.22
						c0-0.46-0.36-0.74-0.78-0.74C65.1,0.41,64.81,0.64,64.5,1.07z"/>
					<path class="st4" d="M69.26,4.02c-1.01,0-1.64-0.91-1.64-2S68.26,0,69.27,0c1,0,1.63,0.91,1.63,2
						C70.9,3.1,70.26,4.02,69.26,4.02z M69.26,0.4c-0.73,0-1.18,0.74-1.18,1.61c0,0.86,0.47,1.62,1.19,1.62
						c0.73,0,1.18-0.75,1.18-1.61S69.99,0.4,69.26,0.4z"/>
					<path class="st4" d="M71.72,2.51V2.06h1.54v0.45H71.72z"/>
					<path class="st4" d="M74.4,1.07l-0.32-0.23c0.35-0.52,0.72-0.83,1.4-0.83c0.71,0,1.21,0.47,1.21,1.11
						c0,0.57-0.3,0.92-0.98,1.52l-1.04,0.92h2.06v0.4H74V3.62l1.41-1.24c0.59-0.53,0.81-0.83,0.81-1.22c0-0.46-0.36-0.74-0.78-0.74
						C75,0.41,74.71,0.64,74.4,1.07z"/>
					<path class="st4" d="M77.84,0.07h2.24v0.41h-1.85l-0.08,1.24c0.23-0.1,0.44-0.17,0.77-0.17c0.76,0,1.34,0.45,1.34,1.19
						c0,0.77-0.58,1.28-1.39,1.28c-0.56,0-1.04-0.27-1.39-0.62l0.29-0.32c0.34,0.33,0.71,0.53,1.11,0.53c0.56,0,0.94-0.37,0.94-0.87
						c0-0.49-0.39-0.82-0.97-0.82c-0.33,0-0.59,0.1-0.82,0.22l-0.29-0.19L77.84,0.07z"/>
				</g>
				<g>
					<path class="st4" d="M49,93.66h-0.43l-0.41-0.93h-1.91l-0.42,0.93h-0.41l1.6-3.53h0.37L49,93.66z M47.21,90.59l-0.8,1.79h1.6
						L47.21,90.59z"/>
					<path class="st4" d="M49.78,90.15h0.4v3.14h1.97v0.37h-2.37V90.15z"/>
					<path class="st4" d="M56.23,93.66H55.8l-0.41-0.93h-1.91l-0.42,0.93h-0.41l1.6-3.53h0.37L56.23,93.66z M54.44,90.59l-0.8,1.79
						h1.6L54.44,90.59z"/>
					<path class="st4" d="M58.19,91.71c0.78,0.17,1.14,0.46,1.14,1c0,0.61-0.5,1-1.2,1c-0.56,0-1.01-0.18-1.43-0.56l0.25-0.29
						c0.37,0.33,0.72,0.5,1.2,0.5c0.47,0,0.78-0.25,0.78-0.6c0-0.33-0.18-0.52-0.91-0.67c-0.81-0.18-1.18-0.44-1.18-1.02
						c0-0.56,0.49-0.96,1.15-0.96c0.51,0,0.88,0.15,1.23,0.43L59,90.84c-0.33-0.27-0.65-0.38-1.01-0.38c-0.46,0-0.75,0.25-0.75,0.57
						C57.24,91.36,57.42,91.55,58.19,91.71z"/>
					<path class="st4" d="M63.22,93.66h-0.5l-1.35-1.7l-0.75,0.75v0.94h-0.4v-3.5h0.4v2.09l2.01-2.09h0.51l-1.5,1.53L63.22,93.66z"
						/>
					<path class="st4" d="M67.16,93.66h-0.43l-0.41-0.93h-1.91l-0.42,0.93H63.6l1.6-3.53h0.37L67.16,93.66z M65.38,90.59l-0.8,1.79
						h1.6L65.38,90.59z"/>
					<path class="st4" d="M70.79,91.71c0.78,0.17,1.14,0.46,1.14,1c0,0.61-0.5,1-1.2,1c-0.56,0-1.01-0.18-1.43-0.56l0.25-0.29
						c0.37,0.33,0.72,0.5,1.2,0.5c0.47,0,0.78-0.25,0.78-0.6c0-0.33-0.18-0.52-0.91-0.67c-0.81-0.18-1.18-0.44-1.18-1.02
						c0-0.56,0.49-0.96,1.15-0.96c0.51,0,0.88,0.15,1.23,0.43l-0.23,0.31c-0.33-0.27-0.65-0.38-1.01-0.38
						c-0.46,0-0.75,0.25-0.75,0.57C69.84,91.36,70.02,91.55,70.79,91.71z"/>
					<path class="st4" d="M74.08,93.66h-0.4v-3.14h-1.18v-0.37h2.75v0.37h-1.18V93.66z"/>
					<path class="st4" d="M75.49,93.66v-0.53h0.46v0.53H75.49z"/>
				</g>
				<g>
					<path class="st4" d="M125.44,58.01v0.43l-0.93,0.41v1.91l0.93,0.42v0.41l-3.53-1.6V59.6L125.44,58.01z M122.37,59.79l1.79,0.8
						V59L122.37,59.79z"/>
					<path class="st4" d="M121.94,57.23v-0.4h3.14v-1.97h0.37v2.37H121.94z"/>
					<path class="st4" d="M124.21,52.79v0.85h1.24v0.4h-3.5v-1.31c0-0.79,0.42-1.31,1.12-1.31
						C123.82,51.41,124.21,52.04,124.21,52.79z M122.31,52.76v0.89h1.54v-0.87c0-0.58-0.31-0.96-0.78-0.96
						C122.56,51.81,122.31,52.19,122.31,52.76z"/>
					<path class="st4" d="M123.87,50.21h1.58v0.4h-3.5v-0.4h1.56v-2.02h-1.56v-0.4h3.5v0.4h-1.58V50.21z"/>
					<path class="st4" d="M125.44,43.45v0.42l-0.93,0.41v1.91l0.93,0.42v0.4l-3.53-1.6v-0.37L125.44,43.45z M122.37,45.23l1.79,0.8
						v-1.6L122.37,45.23z"/>
					<path class="st4" d="M125.44,37.81v0.43l-0.93,0.41v1.91l0.93,0.42v0.41l-3.53-1.6v-0.37L125.44,37.81z M122.37,39.6l1.79,0.8
						v-1.6L122.37,39.6z"/>
					<path class="st4" d="M121.94,34.89v-0.43l3.53,1.51v0.35l-3.53,1.51v-0.44l3.02-1.25L121.94,34.89z"/>
					<path class="st4" d="M122.3,31.15v2.14h1.2v-1.91h0.36v1.91h1.23v-2.16h0.36v2.56h-3.5v-2.53H122.3z"/>
					<path class="st4" d="M125.44,30.35h-0.53v-0.46h0.53V30.35z"/>
				</g>
			</g>
		</g>
	</g>
</g>
</svg>
