<?xml version="1.0" encoding="utf-8"?>
<!-- Generator: Adobe Illustrator 25.2.0, SVG Export Plug-In . SVG Version: 6.00 Build 0)  -->
<svg version="1.1" id="Layer_1" xmlns="http://www.w3.org/2000/svg" xmlns:xlink="http://www.w3.org/1999/xlink" x="0px" y="0px"
	 viewBox="0 0 104.05 94.77" style="enable-background:new 0 0 104.05 94.77;" xml:space="preserve">
<style type="text/css">
	.st0{fill:#FFFFFF;}
	.st1{fill:#00516B;}
	.st2{fill:none;stroke:#00516B;stroke-width:0;stroke-linecap:round;stroke-miterlimit:10;}
	.st3{fill:#245169;}
</style>
<g>
	<g>
		<rect x="7.72" y="12.64" class="st0" width="15.45" height="6.36"/>
	</g>
	<g>
		<rect x="53.93" y="18.79" class="st0" width="7.42" height="5.4"/>
	</g>
	<g>
		<rect x="80.11" y="14.96" class="st0" width="6.18" height="20.44"/>
	</g>
	<g>
		<rect x="32.46" y="58.57" class="st0" width="58.66" height="6.18"/>
	</g>
	<g>
		<rect x="0.12" y="42.59" class="st0" width="6.17" height="19.79"/>
	</g>
	<g>
		<polygon class="st0" points="31.44,42.91 31.44,58.99 30.77,58.99 6.29,58.99 5.88,58.99 5.88,42.59 5.88,40.43 11.11,40.43 
			11.11,41.1 27.08,41.1 31.44,41.1 		"/>
	</g>
	<g>
		<polygon class="st0" points="46.86,42.02 46.86,60.43 32.45,60.43 30.77,60.43 30.77,58.99 31.44,58.99 31.44,42.91 35.69,42.91 
			35.69,42.02 		"/>
	</g>
	<g>
		<polygon class="st0" points="62.27,60.43 46.86,60.43 46.86,42.02 62.27,42.02 62.27,44.63 62.27,58.99 62.96,58.99 62.96,60.43 
					"/>
	</g>
	<g>
		<polygon class="st0" points="67.9,45.66 74.28,45.66 74.28,51.56 77.35,51.56 77.35,58.99 62.96,58.99 62.27,58.99 62.27,44.63 
			67.9,44.63 		"/>
	</g>
	<g>
		<polygon class="st0" points="87.71,58.57 87.71,58.99 77.35,58.99 77.35,51.56 74.28,51.56 74.28,45.66 67.9,45.66 67.9,44.63 
			67.9,41.1 80.52,41.1 80.52,40.43 87.71,40.43 		"/>
	</g>
	<g>
		<polygon class="st0" points="80.52,40.43 80.52,41.1 67.9,41.1 67.03,41.1 67.03,37.09 62.27,37.09 62.27,31.41 61.7,31.41 
			61.7,24.19 61.35,24.19 61.35,18.79 61.35,18.58 80.1,18.58 80.52,18.58 80.52,35.4 		"/>
	</g>
	<g>
		<polygon class="st0" points="28.12,15.78 53.93,15.78 53.93,18.79 53.93,24.19 44.1,24.19 39.87,24.19 39.87,31.41 39.87,36.36 
			35.46,36.36 35.46,34.76 29.46,34.76 29.46,18.58 28.12,18.58 		"/>
	</g>
	<g>
		<polygon class="st1" points="29.46,37.07 29.46,37.27 27.08,37.27 27.08,41.1 11.11,41.1 11.11,40.43 11.11,19 11.11,18.58 
			23.17,18.58 28.12,18.58 29.46,18.58 29.46,34.76 		"/>
	</g>
	<g>
		<path class="st1" d="M62.96,60.55h-16.1c-0.07,0-0.12-0.06-0.12-0.12s0.06-0.12,0.12-0.12h15.98v-1.32c0-0.07,0.06-0.12,0.12-0.12
			s0.12,0.06,0.12,0.12v1.44C63.09,60.5,63.03,60.55,62.96,60.55z"/>
	</g>
	<g>
		<path class="st1" d="M62.27,44.75c-0.07,0-0.12-0.06-0.12-0.12v-2.49H46.86c-0.07,0-0.12-0.06-0.12-0.12s0.06-0.12,0.12-0.12
			h15.41c0.07,0,0.12,0.06,0.12,0.12v2.61C62.4,44.7,62.34,44.75,62.27,44.75z"/>
	</g>
	<g>
		<path class="st1" d="M57.47,37.21c-0.03,0-0.06-0.01-0.08-0.03l-6.61-5.61l-6.6,5.61c-0.05,0.04-0.13,0.04-0.18-0.01
			c-0.04-0.05-0.04-0.13,0.01-0.18l6.68-5.68c0.05-0.04,0.12-0.04,0.16,0l6.69,5.68c0.05,0.04,0.06,0.12,0.01,0.18
			C57.54,37.2,57.51,37.21,57.47,37.21z"/>
	</g>
	<g>
		<path class="st1" d="M50.78,37.21c-0.03,0-0.06-0.01-0.08-0.03l-6.68-5.68c-0.05-0.04-0.06-0.12-0.01-0.18
			c0.05-0.05,0.12-0.06,0.18-0.01l6.6,5.61l6.61-5.61c0.05-0.04,0.13-0.04,0.18,0.01s0.04,0.13-0.01,0.18l-6.69,5.68
			C50.84,37.2,50.81,37.21,50.78,37.21z"/>
	</g>
	<g>
		<path class="st1" d="M50.78,37.21c-0.07,0-0.12-0.06-0.12-0.12v-5.68c0-0.07,0.06-0.12,0.12-0.12s0.12,0.06,0.12,0.12v5.68
			C50.91,37.16,50.85,37.21,50.78,37.21z"/>
	</g>
	<g>
		<path class="st1" d="M61.35,18.91h-7.42c-0.07,0-0.12-0.06-0.12-0.12s0.06-0.12,0.12-0.12h7.42c0.07,0,0.12,0.06,0.12,0.12
			S61.42,18.91,61.35,18.91z"/>
	</g>
	<g>
		<path class="st1" d="M6.29,62.5H0.12C0.06,62.5,0,62.45,0,62.38V42.59c0-0.07,0.06-0.12,0.12-0.12h5.76
			c0.07,0,0.12,0.06,0.12,0.12s-0.06,0.12-0.12,0.12H0.25v19.54h5.92v-3.26c0-0.07,0.06-0.12,0.12-0.12s0.12,0.06,0.12,0.12v3.39
			C6.42,62.45,6.36,62.5,6.29,62.5z"/>
	</g>
	<g>
		<path class="st1" d="M91.11,64.87H32.45c-0.07,0-0.12-0.06-0.12-0.12v-4.32c0-0.07,0.06-0.12,0.12-0.12s0.12,0.06,0.12,0.12v4.2
			h58.41v-5.93h-3.27c-0.07,0-0.12-0.06-0.12-0.12s0.06-0.12,0.12-0.12h3.4c0.07,0,0.12,0.06,0.12,0.12v6.18
			C91.24,64.82,91.18,64.87,91.11,64.87z"/>
	</g>
	<g>
		<path class="st1" d="M11.11,19.12H7.72c-0.07,0-0.12-0.06-0.12-0.12v-6.17c0-0.07,0.06-0.12,0.12-0.12h15.45
			c0.07,0,0.12,0.06,0.12,0.12v5.75c0,0.07-0.06,0.12-0.12,0.12s-0.12-0.06-0.12-0.12v-5.62H7.85v5.92h3.27
			c0.07,0,0.12,0.06,0.12,0.12S11.18,19.12,11.11,19.12z"/>
	</g>
	<g>
		<path class="st1" d="M86.28,35.52h-5.76c-0.07,0-0.12-0.06-0.12-0.12s0.06-0.12,0.12-0.12h5.64V15.31h-5.93v3.26
			c0,0.07-0.06,0.12-0.12,0.12s-0.12-0.06-0.12-0.12v-3.39c0-0.07,0.06-0.12,0.12-0.12h6.18c0.07,0,0.12,0.06,0.12,0.12V35.4
			C86.41,35.47,86.35,35.52,86.28,35.52z"/>
	</g>
	<g>
		<path class="st1" d="M46.86,64.87c-0.07,0-0.12-0.06-0.12-0.12v-4.32c0-0.07,0.06-0.12,0.12-0.12s0.12,0.06,0.12,0.12v4.32
			C46.99,64.82,46.93,64.87,46.86,64.87z"/>
	</g>
	<g>
		<path class="st1" d="M62.27,64.87c-0.07,0-0.12-0.06-0.12-0.12v-4.32c0-0.07,0.06-0.12,0.12-0.12s0.12,0.06,0.12,0.12v4.32
			C62.4,64.82,62.34,64.87,62.27,64.87z"/>
	</g>
	<g>
		<path class="st1" d="M44.1,31.53c-0.07,0-0.12-0.06-0.12-0.12v-7.22c0-0.07,0.06-0.12,0.12-0.12s0.12,0.06,0.12,0.12v7.22
			C44.23,31.48,44.17,31.53,44.1,31.53z"/>
	</g>
	<g>
		<path class="st1" d="M57.47,31.53c-0.07,0-0.12-0.06-0.12-0.12v-7.22c0-0.07,0.06-0.12,0.12-0.12s0.12,0.06,0.12,0.12v7.22
			C57.6,31.48,57.54,31.53,57.47,31.53z"/>
	</g>
	<g>
		<path class="st1" d="M77.35,64.87c-0.07,0-0.12-0.06-0.12-0.12v-5.76c0-0.07,0.06-0.12,0.12-0.12s0.12,0.06,0.12,0.12v5.76
			C77.48,64.82,77.42,64.87,77.35,64.87z"/>
	</g>
	<g>
		<path class="st1" d="M44.1,31.53h-4.23c-0.07,0-0.12-0.06-0.12-0.12s0.06-0.12,0.12-0.12h4.23c0.07,0,0.12,0.06,0.12,0.12
			S44.17,31.53,44.1,31.53z"/>
	</g>
	<g>
		<path class="st1" d="M61.7,31.53h-4.23c-0.07,0-0.12-0.06-0.12-0.12s0.06-0.12,0.12-0.12h4.23c0.07,0,0.12,0.06,0.12,0.12
			S61.77,31.53,61.7,31.53z"/>
	</g>
	<g>
		<path class="st1" d="M61.35,24.31h-7.42c-0.07,0-0.12-0.06-0.12-0.12s0.06-0.12,0.12-0.12h7.42c0.07,0,0.12,0.06,0.12,0.12
			S61.42,24.31,61.35,24.31z"/>
	</g>
	<g>
		<path class="st1" d="M57.47,37.21H44.1c-0.07,0-0.12-0.06-0.12-0.12v-5.68c0-0.07,0.06-0.12,0.12-0.12h13.37
			c0.07,0,0.12,0.06,0.12,0.12v5.68C57.6,37.16,57.54,37.21,57.47,37.21z M44.23,36.96h13.12v-5.43H44.23V36.96z"/>
	</g>
	<g>
		<path class="st1" d="M67.9,41.22h-0.87c-0.07,0-0.12-0.06-0.12-0.12v-3.88h-4.63c-0.07,0-0.12-0.06-0.12-0.12v-5.55H61.7
			c-0.07,0-0.12-0.06-0.12-0.12v-7.1h-0.23c-0.07,0-0.12-0.06-0.12-0.12v-5.61c0-0.07,0.06-0.12,0.12-0.12h19.17
			c0.07,0,0.12,0.06,0.12,0.12v21.85c0,0.07-0.06,0.12-0.12,0.12s-0.12-0.06-0.12-0.12V18.7H61.48v5.36h0.23
			c0.07,0,0.12,0.06,0.12,0.12v7.1h0.44c0.07,0,0.12,0.06,0.12,0.12v5.55h4.63c0.07,0,0.12,0.06,0.12,0.12v3.88h0.75
			c0.07,0,0.12,0.06,0.12,0.12S67.97,41.22,67.9,41.22z"/>
	</g>
	<g>
		<path class="st1" d="M35.69,42.14c-0.07,0-0.12-0.06-0.12-0.12V40.6h-4v0.49c0,0.07-0.06,0.12-0.12,0.12s-0.12-0.06-0.12-0.12
			v-0.62c0-0.07,0.06-0.12,0.12-0.12h4.25c0.07,0,0.12,0.06,0.12,0.12v1.54C35.82,42.09,35.76,42.14,35.69,42.14z"/>
	</g>
	<g>
		<path class="st1" d="M46.86,60.55H30.77c-0.07,0-0.12-0.06-0.12-0.12v-1.44c0-0.07,0.06-0.12,0.12-0.12s0.12,0.06,0.12,0.12v1.32
			h15.84V42.14H35.82v0.77c0,0.07-0.06,0.12-0.12,0.12h-4.25c-0.07,0-0.12-0.06-0.12-0.12s0.06-0.12,0.12-0.12h4.12v-0.77
			c0-0.07,0.06-0.12,0.12-0.12h11.17c0.07,0,0.12,0.06,0.12,0.12v18.41C46.99,60.5,46.93,60.55,46.86,60.55z"/>
	</g>
	<g>
		<path class="st1" d="M31.44,59.11H5.88c-0.07,0-0.12-0.06-0.12-0.12V40.43c0-0.07,0.06-0.12,0.12-0.12h5.23
			c0.07,0,0.12,0.06,0.12,0.12s-0.06,0.12-0.12,0.12h-5.1v18.31h25.31V41.22h-4.24c-0.07,0-0.12-0.06-0.12-0.12s0.06-0.12,0.12-0.12
			h4.36c0.07,0,0.12,0.06,0.12,0.12v17.89C31.57,59.06,31.51,59.11,31.44,59.11z"/>
	</g>
	<g>
		<path class="st1" d="M35.46,37.19h-6c-0.07,0-0.12-0.06-0.12-0.12s0.06-0.12,0.12-0.12h5.88v-0.58c0-0.07,0.06-0.12,0.12-0.12
			s0.12,0.06,0.12,0.12v0.71C35.59,37.14,35.53,37.19,35.46,37.19z"/>
	</g>
	<g>
		<path class="st1" d="M39.87,36.48h-4.41c-0.07,0-0.12-0.06-0.12-0.12v-1.47h-5.88c-0.07,0-0.12-0.06-0.12-0.12
			s0.06-0.12,0.12-0.12h6c0.07,0,0.12,0.06,0.12,0.12v1.47h4.16V24.19c0-0.07,0.06-0.12,0.12-0.12h13.93V15.9H28.25v2.67
			c0,0.07-0.06,0.12-0.12,0.12S28,18.65,28,18.58v-2.8c0-0.07,0.06-0.12,0.12-0.12h25.81c0.07,0,0.12,0.06,0.12,0.12v8.41
			c0,0.07-0.06,0.12-0.12,0.12H40v12.04C40,36.43,39.94,36.48,39.87,36.48z"/>
	</g>
	<g>
		<path class="st1" d="M27.08,41.22H11.11c-0.07,0-0.12-0.06-0.12-0.12V18.58c0-0.07,0.06-0.12,0.12-0.12h18.35
			c0.07,0,0.12,0.06,0.12,0.12v18.69c0,0.07-0.06,0.12-0.12,0.12h-2.25v3.71C27.21,41.17,27.15,41.22,27.08,41.22z M11.24,40.97
			h15.72v-3.71c0-0.07,0.06-0.12,0.12-0.12h2.25V18.7h-18.1V40.97z"/>
	</g>
	<g>
		<path class="st1" d="M57.47,27.92H44.1c-0.07,0-0.12-0.06-0.12-0.12s0.06-0.12,0.12-0.12h13.37c0.07,0,0.12,0.06,0.12,0.12
			S57.54,27.92,57.47,27.92z"/>
	</g>
	<g>
		<path class="st1" d="M87.71,59.11H77.35c-0.07,0-0.12-0.06-0.12-0.12s0.06-0.12,0.12-0.12h10.23V40.55h-6.94v0.54
			c0,0.07-0.06,0.12-0.12,0.12h-12.5v3.41c0,0.07-0.06,0.12-0.12,0.12s-0.12-0.06-0.12-0.12V41.1c0-0.07,0.06-0.12,0.12-0.12h12.5
			v-0.54c0-0.07,0.06-0.12,0.12-0.12h7.19c0.07,0,0.12,0.06,0.12,0.12v18.56C87.84,59.06,87.78,59.11,87.71,59.11z"/>
	</g>
	<g>
		<path class="st1" d="M77.35,59.11H62.27c-0.07,0-0.12-0.06-0.12-0.12V44.63c0-0.07,0.06-0.12,0.12-0.12h5.63
			c0.07,0,0.12,0.06,0.12,0.12v0.91h6.25c0.07,0,0.12,0.06,0.12,0.12v5.77h2.95c0.07,0,0.12,0.06,0.12,0.12v7.43
			C77.48,59.06,77.42,59.11,77.35,59.11z M62.4,58.86h14.83v-7.18h-2.95c-0.07,0-0.12-0.06-0.12-0.12v-5.77H67.9
			c-0.07,0-0.12-0.06-0.12-0.12v-0.91H62.4V58.86z"/>
	</g>
	<g>
		<path class="st1" d="M81.49,94.76c-0.14,0-0.26-0.12-0.26-0.26V82.77c0-0.14,0.12-0.26,0.26-0.26s0.26,0.12,0.26,0.26V94.5
			C81.75,94.65,81.64,94.76,81.49,94.76z"/>
	</g>
	<g>
		<path class="st1" d="M86.97,89.55c-0.06,0-0.13-0.02-0.18-0.07l-5.48-5.22c-0.1-0.1-0.11-0.26-0.01-0.37s0.26-0.11,0.37-0.01
			l5.48,5.22c0.1,0.1,0.11,0.26,0.01,0.37C87.11,89.52,87.04,89.55,86.97,89.55z"/>
	</g>
	<g>
		<path class="st1" d="M81.49,82.77l5.48,6.52l-5.48-5.21V82.77z M87.49,88.77l-6-6l5.48,6.52L87.49,88.77z"/>
	</g>
	<g>
		<path class="st2" d="M81.49,82.77l5.48,6.52l-5.48-5.21V82.77z M87.49,88.77l-6-6l5.48,6.52L87.49,88.77z"/>
	</g>
	<g>
		<g>
			<path class="st1" d="M81.62,94.77c-3.38,0-6.13-2.75-6.13-6.13s2.75-6.13,6.13-6.13s6.13,2.75,6.13,6.13S85,94.77,81.62,94.77z
				 M81.62,83.03c-3.09,0-5.61,2.52-5.61,5.61s2.51,5.61,5.61,5.61s5.61-2.52,5.61-5.61S84.71,83.03,81.62,83.03z"/>
		</g>
		<g>
			<path class="st1" d="M75.76,89.03c-0.06,0-0.13-0.02-0.18-0.07c-0.1-0.1-0.11-0.26-0.01-0.37l5.74-6
				c0.1-0.11,0.27-0.11,0.37-0.01c0.1,0.1,0.11,0.26,0.01,0.37l-5.74,6C75.89,89,75.83,89.03,75.76,89.03z"/>
		</g>
		<g>
			<path class="st1" d="M76.28,89.55c-0.07,0-0.13-0.03-0.18-0.08c-0.1-0.1-0.1-0.27,0-0.37l5.21-5.22c0.1-0.1,0.27-0.1,0.37,0
				c0.1,0.1,0.1,0.27,0,0.37l-5.21,5.22C76.41,89.53,76.35,89.55,76.28,89.55z"/>
		</g>
		<g>
			<path class="st1" d="M81.49,82.77l-5.21,6.52l5.21-5.21V82.77z M75.76,88.77l5.74-6l-5.21,6.52L75.76,88.77z"/>
		</g>
		<g>
			<path class="st2" d="M81.49,82.77l-5.21,6.52l5.21-5.21V82.77z M75.76,88.77l5.74-6l-5.21,6.52L75.76,88.77z"/>
		</g>
	</g>
	<g>
		<path class="st3" d="M37.79,0.05h0.36v2.89h1.82v0.34h-2.18V0.05z"/>
		<path class="st3" d="M43.07,0.38H41.1v1.1h1.76v0.33H41.1v1.13h1.99v0.33h-2.35V0.05h2.33V0.38z"/>
		<path class="st3" d="M46.35,0.05h0.39l-1.39,3.25h-0.32l-1.39-3.25h0.41l1.15,2.78L46.35,0.05z"/>
		<path class="st3" d="M49.8,0.38h-1.97v1.1h1.76v0.33h-1.76v1.13h1.99v0.33h-2.35V0.05h2.33V0.38z"/>
		<path class="st3" d="M50.65,0.05h0.36v2.89h1.82v0.34h-2.18V0.05z"/>
		<path class="st3" d="M55.01,0.37V0.05h2.06v0.27l-1.01,1.12c0.57,0.05,1.06,0.32,1.06,0.91c0,0.58-0.48,0.98-1.08,0.98
			c-0.54,0-0.94-0.24-1.2-0.58l0.26-0.24C55.35,2.82,55.65,3,56.05,3c0.39,0,0.7-0.25,0.7-0.63c0-0.41-0.37-0.63-0.9-0.63h-0.21
			l-0.07-0.22l1.02-1.15H55.01z"/>
		<path class="st3" d="M57.82,2.07V1.7h1.28v0.37H57.82z"/>
		<path class="st3" d="M60.04,0.88l-0.27-0.19C60.07,0.25,60.37,0,60.94,0c0.59,0,1,0.39,1,0.92c0,0.47-0.25,0.76-0.82,1.26
			l-0.86,0.76h1.71v0.33h-2.25V2.99l1.17-1.03c0.49-0.44,0.67-0.69,0.67-1.01c0-0.38-0.3-0.62-0.65-0.62
			C60.54,0.33,60.3,0.52,60.04,0.88z"/>
		<path class="st3" d="M62.9,0.05h1.86v0.34h-1.54l-0.07,1.03c0.19-0.08,0.37-0.14,0.64-0.14c0.63,0,1.12,0.37,1.12,0.99
			c0,0.64-0.48,1.06-1.15,1.06c-0.46,0-0.86-0.22-1.15-0.51l0.24-0.26C63.11,2.82,63.42,3,63.75,3c0.46,0,0.78-0.3,0.78-0.72
			c0-0.41-0.33-0.68-0.8-0.68c-0.27,0-0.49,0.08-0.68,0.18L62.8,1.62L62.9,0.05z"/>
	</g>
	<g>
		<path class="st3" d="M40.63,77.66h-0.35l-0.34-0.77h-1.58l-0.34,0.77h-0.34L39,74.73h0.31L40.63,77.66z M39.15,75.11l-0.66,1.48
			h1.32L39.15,75.11z"/>
		<path class="st3" d="M41.28,74.75h0.33v2.6h1.64v0.3h-1.96V74.75z"/>
		<path class="st3" d="M46.63,77.66h-0.35l-0.34-0.77h-1.58l-0.34,0.77h-0.34L45,74.73h0.31L46.63,77.66z M45.15,75.11l-0.66,1.48
			h1.32L45.15,75.11z"/>
		<path class="st3" d="M48.26,76.05c0.65,0.14,0.95,0.38,0.95,0.83c0,0.5-0.42,0.83-0.99,0.83c-0.46,0-0.84-0.15-1.19-0.46l0.2-0.24
			c0.3,0.27,0.59,0.41,1,0.41c0.39,0,0.65-0.2,0.65-0.5c0-0.27-0.15-0.43-0.76-0.56c-0.67-0.14-0.98-0.36-0.98-0.84
			c0-0.46,0.4-0.8,0.96-0.8c0.42,0,0.73,0.12,1.02,0.36l-0.19,0.25c-0.27-0.22-0.54-0.32-0.84-0.32c-0.38,0-0.62,0.21-0.62,0.47
			C47.47,75.76,47.62,75.91,48.26,76.05z"/>
		<path class="st3" d="M52.42,77.66h-0.41l-1.12-1.41l-0.62,0.63v0.78h-0.33v-2.91h0.33v1.73l1.67-1.73h0.42l-1.25,1.27L52.42,77.66
			z"/>
		<path class="st3" d="M55.7,77.66h-0.35L55,76.89h-1.58l-0.34,0.77h-0.34l1.32-2.93h0.31L55.7,77.66z M54.22,75.11l-0.66,1.48h1.32
			L54.22,75.11z"/>
		<path class="st3" d="M58.71,76.05c0.65,0.14,0.95,0.38,0.95,0.83c0,0.5-0.42,0.83-0.99,0.83c-0.46,0-0.84-0.15-1.19-0.46l0.2-0.24
			c0.3,0.27,0.59,0.41,1,0.41c0.39,0,0.65-0.2,0.65-0.5c0-0.27-0.15-0.43-0.76-0.56c-0.67-0.14-0.98-0.36-0.98-0.84
			c0-0.46,0.4-0.8,0.96-0.8c0.42,0,0.73,0.12,1.02,0.36l-0.19,0.25c-0.27-0.22-0.54-0.32-0.84-0.32c-0.38,0-0.62,0.21-0.62,0.47
			C57.92,75.76,58.07,75.91,58.71,76.05z"/>
		<path class="st3" d="M61.44,77.66H61.1v-2.6h-0.98v-0.3h2.28v0.3h-0.98V77.66z"/>
		<path class="st3" d="M62.6,77.66v-0.44h0.38v0.44H62.6z"/>
	</g>
	<g>
		<path class="st3" d="M104.03,48.1v0.35l-0.77,0.34v1.58l0.77,0.34v0.34l-2.93-1.32v-0.31L104.03,48.1z M101.48,49.58l1.48,0.66
			v-1.32L101.48,49.58z"/>
		<path class="st3" d="M101.12,47.45v-0.33h2.6v-1.63h0.3v1.96H101.12z"/>
		<path class="st3" d="M103,43.77v0.71h1.03v0.33h-2.91v-1.09c0-0.66,0.35-1.09,0.93-1.09C102.68,42.63,103,43.15,103,43.77z
			 M101.42,43.74v0.73h1.28v-0.72c0-0.48-0.26-0.8-0.64-0.8C101.64,42.96,101.42,43.27,101.42,43.74z"/>
		<path class="st3" d="M102.72,41.63h1.31v0.33h-2.91v-0.33h1.29v-1.68h-1.29v-0.33h2.91v0.33h-1.31V41.63z"/>
		<path class="st3" d="M104.03,36.02v0.35l-0.77,0.34v1.58l0.77,0.34v0.34l-2.93-1.32v-0.31L104.03,36.02z M101.48,37.5l1.48,0.66
			v-1.32L101.48,37.5z"/>
		<path class="st3" d="M104.03,31.35v0.35l-0.77,0.34v1.58l0.77,0.34v0.34l-2.93-1.32v-0.31L104.03,31.35z M101.48,32.83l1.48,0.66
			v-1.32L101.48,32.83z"/>
		<path class="st3" d="M101.12,28.92v-0.35l2.93,1.25v0.29l-2.93,1.25v-0.37l2.5-1.03L101.12,28.92z"/>
		<path class="st3" d="M101.42,25.82v1.77h0.99v-1.58h0.3v1.58h1.02V25.8h0.3v2.12h-2.91v-2.1H101.42z"/>
		<path class="st3" d="M104.03,25.16h-0.44v-0.38h0.44V25.16z"/>
	</g>
</g>
</svg>
