<?xml version="1.0" encoding="utf-8"?>
<!-- Generator: Adobe Illustrator 25.2.0, SVG Export Plug-In . SVG Version: 6.00 Build 0)  -->
<svg version="1.1" id="Layer_1" xmlns="http://www.w3.org/2000/svg" xmlns:xlink="http://www.w3.org/1999/xlink" x="0px" y="0px"
	 viewBox="0 0 113.58 109.14" style="enable-background:new 0 0 113.58 109.14;" xml:space="preserve">
<style type="text/css">
	.st0{fill:#AABCCE;}
	.st1{fill:#041C2A;}
	.st2{enable-background:new    ;}
	.st3{clip-path:url(#SVGID_2_);}
	.st4{fill:#245169;}
	.st5{fill:#FFFFFF;}
	.st6{fill:#00516B;}
</style>
<g>
	<g>
		<g>
			<g>
				<polygon class="st0" points="87.69,87.01 83.86,93.67 91.38,93.75 				"/>
			</g>
			<g>
				<path class="st1" d="M87.87,92.93c4.28,0.05,7.7,3.54,7.65,7.81c-0.05,4.28-3.54,7.7-7.81,7.65c-4.28-0.05-7.7-3.54-7.65-7.81
					C80.09,96.33,83.6,92.88,87.87,92.93"/>
			</g>
		</g>
		<g class="st2">
			<path class="st0" d="M84.75,98.65c-0.01-0.51-0.07-0.86-0.51-1c-0.05-0.02-0.08-0.05-0.08-0.06c0-0.04,0.02-0.07,0.12-0.07
				s0.47,0.04,0.7,0.04c0.24,0,0.51-0.01,0.71-0.02c0.34,0.48,0.73,0.92,1.16,1.34l3.16,3.36v-3.16c0-0.81-0.28-1.2-0.53-1.35
				c-0.12-0.07-0.22-0.07-0.22-0.11c0-0.05,0.06-0.08,0.16-0.08c0.14,0,0.55,0.04,0.73,0.04c0.19,0,0.46-0.04,0.65-0.04
				c0.13,0,0.16,0.05,0.16,0.07c0,0.02-0.05,0.06-0.14,0.11c-0.24,0.1-0.51,0.35-0.51,1.37v3.83c0,0.51-0.02,0.9-0.1,0.9h-0.02
				c-0.1,0-0.2-0.22-0.8-0.89c-1.16-1.33-2.85-3.24-4.34-4.67v3.85c0,0.96,0.28,1.25,0.48,1.37c0.13,0.08,0.2,0.08,0.2,0.13
				c0,0.02-0.02,0.04-0.07,0.04c-0.11,0-0.42-0.02-0.76-0.02c-0.19,0-0.72,0.02-0.83,0.02c-0.07,0-0.11-0.01-0.11-0.04
				c0-0.06,0.24-0.1,0.37-0.22c0.3-0.26,0.41-0.64,0.41-1.48C84.75,101.92,84.75,98.65,84.75,98.65z"/>
		</g>
	</g>
	<g>
		<g>
			<g>
				<defs>
					
						<rect id="SVGID_1_" x="79.54" y="86.98" transform="matrix(0.9985 -0.0553 0.0553 0.9985 -5.2767 4.9964)" width="16.21" height="21.73"/>
				</defs>
				<clipPath id="SVGID_2_">
					<use xlink:href="#SVGID_1_"  style="overflow:visible;"/>
				</clipPath>
				<g class="st3">
					<path class="st0" d="M87.78,108.63c-1.98,0-3.85-0.71-5.34-2.05c-1.59-1.43-2.54-3.4-2.66-5.53c-0.12-2.14,0.6-4.19,2.04-5.79
						c1.43-1.6,3.4-2.54,5.53-2.66l0.01,0.29l-0.01-0.29c2.13-0.11,4.19,0.6,5.79,2.04c1.6,1.43,2.54,3.4,2.66,5.53
						c0.12,2.13-0.6,4.19-2.04,5.79s-3.4,2.54-5.53,2.66C88.08,108.63,87.93,108.63,87.78,108.63z M87.8,93.17
						c-0.14,0-0.28,0-0.42,0.01c-1.99,0.11-3.81,0.99-5.13,2.47c-1.33,1.48-2,3.38-1.88,5.37c0.11,1.99,0.99,3.81,2.47,5.13
						c1.48,1.33,3.4,2,5.37,1.88c1.99-0.11,3.81-0.99,5.13-2.47c1.33-1.48,2-3.38,1.88-5.37c-0.11-1.99-0.99-3.81-2.47-5.13
						C91.38,93.85,89.63,93.17,87.8,93.17z"/>
				</g>
			</g>
		</g>
	</g>
</g>
<g>
	<g>
		<g>
			<g>
				<path class="st4" d="M15,2.58h-0.94v1.37h-0.44V0.07h1.45c0.88,0,1.46,0.47,1.46,1.24C16.52,2.15,15.82,2.58,15,2.58z
					 M15.03,0.47h-0.98v1.71h0.96c0.64,0,1.07-0.34,1.07-0.86C16.08,0.76,15.66,0.47,15.03,0.47z"/>
				<path class="st4" d="M20.24,0.47h-2.37v1.33h2.12v0.4h-2.12v1.36h2.4v0.4h-2.84V0.07h2.81V0.47z"/>
				<path class="st4" d="M24.12,0.07h0.43v3.89H24.2l-2.51-3.19v3.19h-0.43V0.07h0.41l2.45,3.11V0.07z"/>
				<path class="st4" d="M27.23,3.95h-0.44V0.47h-1.31V0.07h3.05v0.41h-1.31V3.95z"/>
				<path class="st4" d="M29.91,2.2v1.75h-0.44V0.07h0.44v1.73h2.24V0.07h0.44v3.89h-0.44V2.2H29.91z"/>
				<path class="st4" d="M35.61,4.02c-1.18,0-1.98-0.93-1.98-2S34.43,0,35.62,0c1.18,0,1.98,0.93,1.98,2
					C37.59,3.08,36.79,4.02,35.61,4.02z M35.61,0.41c-0.89,0-1.52,0.71-1.52,1.6s0.64,1.61,1.53,1.61c0.89,0,1.52-0.71,1.52-1.6
					S36.5,0.41,35.61,0.41z"/>
				<path class="st4" d="M41.81,2.29c0,1.13-0.65,1.72-1.62,1.72c-0.96,0-1.62-0.59-1.62-1.69V0.07h0.44V2.3
					c0,0.84,0.44,1.31,1.19,1.31c0.72,0,1.17-0.43,1.17-1.28V0.07h0.44V2.29z"/>
				<path class="st4" d="M44.35,1.8c0.87,0.19,1.27,0.51,1.27,1.1c0,0.67-0.55,1.1-1.33,1.1c-0.62,0-1.12-0.21-1.59-0.62l0.27-0.32
					c0.41,0.37,0.79,0.55,1.33,0.55c0.52,0,0.87-0.27,0.87-0.67c0-0.37-0.19-0.57-1.01-0.74c-0.89-0.19-1.31-0.48-1.31-1.13
					c0-0.62,0.54-1.07,1.28-1.07c0.57,0,0.97,0.16,1.37,0.48l-0.26,0.34c-0.36-0.29-0.72-0.42-1.12-0.42c-0.5,0-0.83,0.28-0.83,0.63
					C43.3,1.41,43.5,1.62,44.35,1.8z"/>
				<path class="st4" d="M49.43,0.47h-2.37v1.33h2.12v0.4h-2.12v1.36h2.4v0.4h-2.84V0.07h2.81V0.47z"/>
				<path class="st4" d="M51.85,1.8c0.87,0.19,1.27,0.51,1.27,1.1c0,0.67-0.55,1.1-1.33,1.1c-0.62,0-1.12-0.21-1.59-0.62l0.27-0.32
					c0.41,0.37,0.79,0.55,1.33,0.55c0.52,0,0.87-0.27,0.87-0.67c0-0.37-0.19-0.57-1.01-0.74c-0.89-0.19-1.31-0.48-1.31-1.13
					c0-0.62,0.54-1.07,1.28-1.07c0.57,0,0.97,0.16,1.37,0.48l-0.26,0.34c-0.36-0.29-0.72-0.42-1.12-0.42c-0.5,0-0.83,0.28-0.83,0.63
					C50.79,1.41,50.99,1.62,51.85,1.8z"/>
				<path class="st4" d="M55.7,2.5V2.07h2.21V2.5H55.7z"/>
			</g>
			<g>
				<path class="st4" d="M63.17,0.82h-2.12v1.25h1.89v0.36h-1.89v1.53h-0.4v-3.5h2.52V0.82z"/>
				<path class="st4" d="M64.04,0.45h0.39v3.14h1.97v0.36h-2.37V0.45z"/>
				<path class="st4" d="M68.66,4.01c-1.06,0-1.78-0.84-1.78-1.81c0-0.97,0.72-1.82,1.79-1.82c1.07,0,1.78,0.84,1.78,1.81
					C70.45,3.17,69.72,4.01,68.66,4.01z M68.66,0.76c-0.8,0-1.37,0.64-1.37,1.44s0.58,1.45,1.38,1.45c0.8,0,1.37-0.64,1.37-1.44
					S69.46,0.76,68.66,0.76z"/>
				<path class="st4" d="M73,4.01c-1.06,0-1.78-0.84-1.78-1.81c0-0.97,0.72-1.82,1.79-1.82c1.06,0,1.78,0.84,1.78,1.81
					C74.79,3.17,74.07,4.01,73,4.01z M73,0.76c-0.8,0-1.37,0.64-1.37,1.44s0.58,1.45,1.38,1.45s1.37-0.64,1.37-1.44
					S73.8,0.76,73,0.76z"/>
				<path class="st4" d="M78.13,3.95l-1.01-1.36h-1v1.36h-0.4v-3.5h1.51c0.77,0,1.27,0.42,1.27,1.04c0,0.59-0.4,0.93-0.95,1.03
					l1.07,1.43H78.13z M77.2,0.82h-1.08v1.42h1.07c0.53,0,0.9-0.27,0.9-0.72C78.09,1.08,77.76,0.82,77.2,0.82z"/>
				<path class="st4" d="M81.13,1.36l-0.29-0.21c0.32-0.47,0.64-0.75,1.26-0.75c0.64,0,1.09,0.42,1.09,0.99
					c0,0.52-0.27,0.83-0.89,1.37l-0.94,0.83h1.86v0.36h-2.45v-0.3l1.27-1.12c0.54-0.48,0.73-0.75,0.73-1.1
					c0-0.41-0.32-0.67-0.7-0.67C81.67,0.76,81.41,0.97,81.13,1.36z"/>
				<path class="st4" d="M83.9,0.45h2.38v0.3l-1.59,3.21h-0.44l1.58-3.14H83.9V0.45z"/>
			</g>
			<g>
				<path class="st4" d="M38.01,87.07h-0.43l-0.41-0.92h-1.91l-0.42,0.92h-0.4l1.6-3.53h0.37L38.01,87.07z M36.22,84.01l-0.8,1.79
					h1.6L36.22,84.01z"/>
				<path class="st4" d="M38.79,83.57h0.4v3.14h1.97v0.36h-2.37V83.57z"/>
				<path class="st4" d="M45.24,87.07h-0.42l-0.41-0.92h-1.91l-0.42,0.92h-0.4l1.59-3.53h0.37L45.24,87.07z M43.45,84.01l-0.8,1.79
					h1.59L43.45,84.01z"/>
				<path class="st4" d="M47.2,85.13c0.78,0.17,1.14,0.46,1.14,1c0,0.6-0.5,1-1.2,1c-0.56,0-1.01-0.19-1.43-0.56l0.24-0.29
					c0.37,0.33,0.72,0.5,1.2,0.5c0.47,0,0.78-0.24,0.78-0.6c0-0.33-0.18-0.52-0.91-0.67c-0.8-0.17-1.18-0.44-1.18-1.01
					c0-0.56,0.49-0.96,1.15-0.96c0.51,0,0.87,0.14,1.23,0.43l-0.23,0.3c-0.33-0.26-0.65-0.38-1.01-0.38c-0.45,0-0.74,0.25-0.74,0.57
					C46.25,84.78,46.43,84.97,47.2,85.13z"/>
				<path class="st4" d="M52.22,87.07h-0.5l-1.35-1.7l-0.75,0.76v0.94h-0.39v-3.5h0.39v2.09l2.01-2.09h0.51l-1.5,1.53L52.22,87.07z"
					/>
				<path class="st4" d="M56.16,87.07h-0.42l-0.41-0.92h-1.91l-0.42,0.92h-0.4l1.59-3.53h0.37L56.16,87.07z M54.38,84.01l-0.8,1.79
					h1.59L54.38,84.01z"/>
				<path class="st4" d="M59.79,85.13c0.78,0.17,1.14,0.46,1.14,1c0,0.6-0.5,1-1.2,1c-0.56,0-1.01-0.19-1.43-0.56l0.24-0.29
					c0.37,0.33,0.72,0.5,1.2,0.5c0.47,0,0.78-0.24,0.78-0.6c0-0.33-0.18-0.52-0.91-0.67c-0.8-0.17-1.18-0.44-1.18-1.01
					c0-0.56,0.49-0.96,1.15-0.96c0.51,0,0.87,0.14,1.23,0.43l-0.23,0.3c-0.33-0.26-0.65-0.38-1.01-0.38c-0.45,0-0.74,0.25-0.74,0.57
					C58.84,84.78,59.02,84.97,59.79,85.13z"/>
				<path class="st4" d="M63.08,87.07h-0.4v-3.14H61.5v-0.36h2.75v0.36h-1.18V87.07z"/>
				<path class="st4" d="M64.48,87.07v-0.52h0.46v0.52H64.48z"/>
			</g>
			<g>
				<path class="st4" d="M113.55,57.18v0.43l-0.92,0.41v1.91l0.92,0.42v0.4l-3.53-1.6v-0.37L113.55,57.18z M110.49,58.97l1.79,0.8
					v-1.6L110.49,58.97z"/>
				<path class="st4" d="M110.05,56.4v-0.4h3.14v-1.97h0.36v2.37H110.05z"/>
				<path class="st4" d="M112.32,51.97v0.85h1.24v0.4h-3.5V51.9c0-0.79,0.42-1.31,1.12-1.31C111.93,50.59,112.32,51.22,112.32,51.97
					z M110.41,51.93v0.88h1.54v-0.86c0-0.58-0.31-0.96-0.77-0.96C110.67,50.99,110.41,51.37,110.41,51.93z"/>
				<path class="st4" d="M111.97,49.39h1.58v0.4h-3.5v-0.4h1.56v-2.02h-1.56v-0.4h3.5v0.4h-1.58V49.39z"/>
				<path class="st4" d="M113.55,42.63v0.42l-0.92,0.41v1.91l0.92,0.42v0.4l-3.53-1.59v-0.37L113.55,42.63z M110.49,44.42l1.79,0.8
					v-1.59L110.49,44.42z"/>
				<path class="st4" d="M113.55,37v0.43l-0.92,0.41v1.91l0.92,0.42v0.4l-3.53-1.6v-0.37L113.55,37z M110.49,38.78l1.79,0.8v-1.6
					L110.49,38.78z"/>
				<path class="st4" d="M110.05,34.08v-0.43l3.53,1.51v0.35l-3.53,1.51v-0.44l3.02-1.25L110.05,34.08z"/>
				<path class="st4" d="M110.41,30.34v2.14h1.2v-1.91h0.36v1.91h1.23v-2.16h0.36v2.55h-3.5v-2.53H110.41z"/>
				<path class="st4" d="M113.55,29.54h-0.52v-0.46h0.52V29.54z"/>
			</g>
			<g>
				<g>
					<polygon class="st5" points="99.55,46.55 99.55,73.25 54.67,73.25 54.67,65.69 93.2,65.69 93.2,46.55 					"/>
				</g>
				<g>
					<polygon class="st6" points="99.55,43.94 99.55,46.55 93.2,46.55 93.2,65.69 54.67,65.69 54.67,44.82 63.98,44.82 63.98,43.63 
						68.63,43.63 68.63,38.79 66.69,38.79 66.69,33.07 68.72,33.07 68.72,32.16 79.89,32.16 79.89,38.62 93.2,38.62 93.2,43.94 
						95.64,43.94 					"/>
				</g>
				<g>
					<polygon class="st5" points="95.64,32.16 95.64,43.94 93.2,43.94 93.2,38.62 79.89,38.62 79.89,32.16 68.72,32.16 68.72,24.83 
						68.72,21.65 82.26,21.65 82.26,32.16 					"/>
				</g>
				<g>
					<polygon class="st5" points="68.72,32.16 68.72,33.07 66.69,33.07 62.71,33.07 62.71,28.95 62.71,24.83 66.98,24.83 
						68.72,24.83 					"/>
				</g>
				<g>
					<polygon class="st5" points="68.72,16.28 68.72,21.51 67.85,21.51 67.85,18.18 66.98,18.18 66.98,16.28 					"/>
				</g>
				<g>
					<rect x="66.98" y="21.65" class="st5" width="1.74" height="3.18"/>
				</g>
				<g>
					<polygon class="st5" points="68.63,38.79 68.63,43.63 63.98,43.63 63.98,44.82 54.66,44.82 45.33,44.82 45.33,43.63 
						42.82,43.63 42.82,33.07 46.6,33.07 46.6,39.92 54.66,39.92 62.71,39.92 62.71,33.07 66.69,33.07 66.69,38.79 					"/>
				</g>
				<g>
					<polygon class="st5" points="66.98,21.65 66.98,24.83 62.71,24.83 46.6,24.83 40.6,24.83 40.6,21.65 					"/>
				</g>
				<g>
					<polygon class="st5" points="62.71,33.07 62.71,39.92 58.69,36.5 					"/>
				</g>
				<g>
					<polygon class="st5" points="62.71,28.95 62.71,33.07 54.66,33.07 46.6,33.07 46.6,28.95 					"/>
				</g>
				<g>
					<rect x="46.6" y="24.83" class="st5" width="16.11" height="4.12"/>
				</g>
				<g>
					<polygon class="st5" points="62.71,33.07 58.69,36.5 54.66,33.07 					"/>
				</g>
				<g>
					<polygon class="st5" points="62.71,39.92 54.66,39.92 58.69,36.5 					"/>
				</g>
				<g>
					<polygon class="st5" points="58.69,36.5 54.66,39.92 54.66,33.07 					"/>
				</g>
				<g>
					<rect x="30.55" y="65.69" class="st5" width="24.11" height="7.56"/>
				</g>
				<g>
					<polygon class="st5" points="54.67,33.07 54.67,39.92 50.64,36.5 					"/>
				</g>
				<g>
					<polygon class="st5" points="54.67,33.07 50.64,36.5 46.6,33.07 					"/>
				</g>
				<g>
					<polygon class="st5" points="54.67,39.92 46.6,39.92 50.64,36.5 					"/>
				</g>
				<g>
					<polygon class="st5" points="50.64,36.5 46.6,39.92 46.6,33.07 					"/>
				</g>
				<g>
					<polygon class="st5" points="46.6,28.95 46.6,33.07 42.82,33.07 40.6,33.07 40.6,32.16 40.6,24.83 46.6,24.83 					"/>
				</g>
				<g>
					<polygon class="st5" points="40.6,32.16 40.6,33.07 42.82,33.07 42.82,43.63 45.33,43.63 45.33,44.82 54.67,44.82 54.67,65.69 
						30.55,65.69 16.14,65.69 16.14,53.08 15.92,53.08 15.92,46.55 15.92,45.28 16.14,45.28 16.14,43.94 16.14,38.62 27.35,38.62 
						29.43,38.62 29.43,32.16 					"/>
				</g>
				<g>
					<polygon class="st5" points="40.6,21.65 40.6,24.83 40.6,32.16 29.43,32.16 29.08,32.16 29.08,21.65 					"/>
				</g>
				<g>
					<polygon class="st5" points="29.43,32.16 29.43,38.62 27.35,38.62 27.35,32.68 27.35,21.65 29.08,21.65 29.08,32.16 					"/>
				</g>
				<g>
					<rect x="27.35" y="12.85" class="st5" width="1.74" height="5"/>
				</g>
				<g>
					<polygon class="st5" points="27.35,32.68 27.35,38.62 16.14,38.62 16.14,43.94 7.98,43.94 6.85,43.94 6.85,32.68 					"/>
				</g>
				<g>
					<polygon class="st5" points="16.14,53.08 16.14,65.69 16.14,66.31 0.58,66.31 0.58,46.55 7.98,46.55 15.92,46.55 15.92,53.08 
											"/>
				</g>
				<g>
					<polygon class="st5" points="15.92,45.28 15.92,46.55 7.98,46.55 7.98,43.94 16.14,43.94 16.14,45.28 					"/>
				</g>
				<g>
					<polygon class="st5" points="7.98,43.94 7.98,46.55 0.58,46.55 0.15,46.55 0.15,43.94 6.85,43.94 					"/>
				</g>
				<g>
					<path class="st6" d="M46.6,40.07c-0.04,0-0.09-0.02-0.11-0.05c-0.05-0.06-0.05-0.16,0.02-0.21l8.06-6.84
						c0.06-0.05,0.14-0.05,0.2,0l8.05,6.84c0.06,0.05,0.07,0.15,0.02,0.21c-0.06,0.06-0.15,0.07-0.21,0.02l-7.95-6.76l-7.96,6.76
						C46.67,40.06,46.64,40.07,46.6,40.07z"/>
				</g>
				<g>
					<path class="st6" d="M54.67,40.07c-0.04,0-0.07-0.01-0.1-0.04l-8.06-6.84c-0.06-0.05-0.07-0.15-0.02-0.21
						c0.05-0.06,0.15-0.07,0.21-0.02l7.96,6.76l7.95-6.76c0.06-0.05,0.16-0.05,0.21,0.02c0.05,0.06,0.05,0.16-0.02,0.21l-8.05,6.84
						C54.74,40.06,54.7,40.07,54.67,40.07z"/>
				</g>
				<g>
					<path class="st6" d="M54.67,40.07c-0.08,0-0.15-0.07-0.15-0.15v-6.84c0-0.08,0.07-0.15,0.15-0.15s0.15,0.07,0.15,0.15v6.84
						C54.82,40,54.75,40.07,54.67,40.07z"/>
				</g>
				<g>
					<path class="st6" d="M46.6,33.23c-0.08,0-0.15-0.07-0.15-0.15v-8.24c0-0.08,0.07-0.15,0.15-0.15s0.15,0.07,0.15,0.15v8.24
						C46.75,33.16,46.69,33.23,46.6,33.23z"/>
				</g>
				<g>
					<path class="st6" d="M62.71,33.23c-0.08,0-0.15-0.07-0.15-0.15v-8.24c0-0.08,0.07-0.15,0.15-0.15s0.15,0.07,0.15,0.15v8.24
						C62.87,33.16,62.8,33.23,62.71,33.23z"/>
				</g>
				<g>
					<path class="st6" d="M54.66,73.4H30.55c-0.08,0-0.15-0.07-0.15-0.15v-7.56c0-0.08,0.07-0.15,0.15-0.15s0.15,0.07,0.15,0.15
						v7.41h23.96c0.08,0,0.15,0.07,0.15,0.15S54.75,73.4,54.66,73.4z"/>
				</g>
				<g>
					<path class="st6" d="M16.14,66.46H0.58c-0.08,0-0.15-0.07-0.15-0.15V46.55c0-0.08,0.07-0.15,0.15-0.15s0.15,0.07,0.15,0.15
						v19.61h15.26v-0.46c0-0.08,0.07-0.15,0.15-0.15s0.15,0.07,0.15,0.15v0.62C16.29,66.39,16.22,66.46,16.14,66.46z"/>
				</g>
				<g>
					<path class="st6" d="M95.64,44.09c-0.08,0-0.15-0.07-0.15-0.15V32.31H82.26c-0.08,0-0.15-0.07-0.15-0.15V21.8H27.35
						c-0.08,0-0.15-0.07-0.15-0.15c0-0.08,0.07-0.15,0.15-0.15h54.91c0.08,0,0.15,0.07,0.15,0.15v10.36h13.23
						c0.08,0,0.15,0.07,0.15,0.15v11.79C95.79,44.03,95.72,44.09,95.64,44.09z"/>
				</g>
				<g>
					<path class="st6" d="M6.85,44.09c-0.08,0-0.15-0.07-0.15-0.15V32.68c0-0.08,0.07-0.15,0.15-0.15h20.5
						c0.08,0,0.15,0.07,0.15,0.15c0,0.08-0.07,0.15-0.15,0.15H7v11.12C7,44.03,6.93,44.09,6.85,44.09z"/>
				</g>
				<g>
					<path class="st6" d="M99.55,73.4H54.67c-0.08,0-0.15-0.07-0.15-0.15v-7.56c0-0.08,0.07-0.15,0.15-0.15s0.15,0.07,0.15,0.15
						v7.41H99.4V46.55c0-0.08,0.07-0.15,0.15-0.15s0.15,0.07,0.15,0.15v26.7C99.7,73.33,99.64,73.4,99.55,73.4z"/>
				</g>
				<g>
					<path class="st6" d="M40.6,24.98c-0.08,0-0.15-0.07-0.15-0.15v-3.18c0-0.08,0.07-0.15,0.15-0.15s0.15,0.07,0.15,0.15v3.18
						C40.75,24.92,40.69,24.98,40.6,24.98z"/>
				</g>
				<g>
					<path class="st6" d="M68.72,24.98c-0.08,0-0.15-0.07-0.15-0.15v-3.18c0-0.08,0.07-0.15,0.15-0.15s0.15,0.07,0.15,0.15v3.18
						C68.87,24.92,68.8,24.98,68.72,24.98z"/>
				</g>
				<g>
					<path class="st6" d="M68.72,32.31c-0.08,0-0.15-0.07-0.15-0.15v-7.18H40.75v7.18c0,0.08-0.07,0.15-0.15,0.15
						s-0.15-0.07-0.15-0.15v-7.33c0-0.08,0.07-0.15,0.15-0.15h28.11c0.08,0,0.15,0.07,0.15,0.15v7.33
						C68.87,32.24,68.8,32.31,68.72,32.31z"/>
				</g>
				<g>
					<path class="st6" d="M46.6,33.23h-3.78c-0.08,0-0.15-0.07-0.15-0.15s0.07-0.15,0.15-0.15h3.78c0.08,0,0.15,0.07,0.15,0.15
						S46.69,33.23,46.6,33.23z"/>
				</g>
				<g>
					<path class="st6" d="M66.69,33.23h-3.98c-0.08,0-0.15-0.07-0.15-0.15s0.07-0.15,0.15-0.15h3.98c0.08,0,0.15,0.07,0.15,0.15
						S66.77,33.23,66.69,33.23z"/>
				</g>
				<g>
					<path class="st6" d="M62.71,40.07H46.6c-0.08,0-0.15-0.07-0.15-0.15v-6.84c0-0.08,0.07-0.15,0.15-0.15h16.11
						c0.08,0,0.15,0.07,0.15,0.15v6.84C62.87,40,62.8,40.07,62.71,40.07z M46.75,39.77h15.81v-6.54H46.75V39.77z"/>
				</g>
				<g>
					<path class="st6" d="M62.71,29.1H46.6c-0.08,0-0.15-0.07-0.15-0.15c0-0.08,0.07-0.15,0.15-0.15h16.11
						c0.08,0,0.15,0.07,0.15,0.15C62.87,29.04,62.8,29.1,62.71,29.1z"/>
				</g>
				<g>
					<path class="st6" d="M93.2,65.84H54.67c-0.08,0-0.15-0.07-0.15-0.15s0.07-0.15,0.15-0.15h38.38v-19c0-0.08,0.07-0.15,0.15-0.15
						h6.2v-2.3h-6.2c-0.08,0-0.15-0.07-0.15-0.15v-5.18H79.89c-0.08,0-0.15-0.07-0.15-0.15v-6.31H68.87v0.76
						c0,0.08-0.07,0.15-0.15,0.15h-1.87v5.41h1.79c0.08,0,0.15,0.07,0.15,0.15v4.84c0,0.08-0.07,0.15-0.15,0.15h-4.5v1.04
						c0,0.08-0.07,0.15-0.15,0.15h-9.31c-0.08,0-0.15-0.07-0.15-0.15c0-0.08,0.07-0.15,0.15-0.15h9.16v-1.04
						c0-0.08,0.07-0.15,0.15-0.15h4.5v-4.54h-1.79c-0.08,0-0.15-0.07-0.15-0.15v-5.71c0-0.08,0.07-0.15,0.15-0.15h1.87v-0.76
						c0-0.08,0.07-0.15,0.15-0.15h11.17c0.08,0,0.15,0.07,0.15,0.15v6.31H93.2c0.08,0,0.15,0.07,0.15,0.15v5.18h6.2
						c0.08,0,0.15,0.07,0.15,0.15v2.6c0,0.08-0.07,0.15-0.15,0.15h-6.2v19C93.35,65.78,93.28,65.84,93.2,65.84z"/>
				</g>
				<g>
					<path class="st6" d="M54.67,65.84H16.14c-0.08,0-0.15-0.07-0.15-0.15V53.23h-0.07c-0.08,0-0.15-0.07-0.15-0.15v-7.8
						c0-0.08,0.07-0.15,0.15-0.15h0.07v-6.51c0-0.08,0.07-0.15,0.15-0.15h13.14v-6.31c0-0.08,0.07-0.15,0.15-0.15H40.6
						c0.08,0,0.15,0.07,0.15,0.15v0.77h2.07c0.08,0,0.15,0.07,0.15,0.15v10.4h2.36c0.08,0,0.15,0.07,0.15,0.15v1.04h9.19
						c0.08,0,0.15,0.07,0.15,0.15v20.87C54.82,65.78,54.75,65.84,54.67,65.84z M16.29,65.54h38.22V44.97h-9.19
						c-0.08,0-0.15-0.07-0.15-0.15v-1.04h-2.36c-0.08,0-0.15-0.07-0.15-0.15v-10.4H40.6c-0.08,0-0.15-0.07-0.15-0.15v-0.77H29.58
						v6.31c0,0.08-0.07,0.15-0.15,0.15H16.29v6.51c0,0.08-0.07,0.15-0.15,0.15h-0.07v7.5h0.07c0.08,0,0.15,0.07,0.15,0.15V65.54z"/>
				</g>
				<g>
					<path class="st6" d="M7.98,46.7H0.15C0.07,46.7,0,46.63,0,46.55v-2.6c0-0.08,0.07-0.15,0.15-0.15h7.83
						c0.08,0,0.15,0.07,0.15,0.15v2.6C8.13,46.63,8.07,46.7,7.98,46.7z M0.3,46.39h7.53v-2.3H0.3V46.39z"/>
				</g>
				<g>
					<path class="st6" d="M29.08,18.01h-1.74c-0.08,0-0.15-0.07-0.15-0.15v-5c0-0.08,0.07-0.15,0.15-0.15h1.74
						c0.08,0,0.15,0.07,0.15,0.15v5C29.23,17.94,29.17,18.01,29.08,18.01z M27.5,17.7h1.43V13H27.5V17.7z"/>
				</g>
				<g>
					<path class="st6" d="M68.72,21.66h-0.87c-0.08,0-0.15-0.07-0.15-0.15v-3.18h-0.72c-0.08,0-0.15-0.07-0.15-0.15v-1.9
						c0-0.08,0.07-0.15,0.15-0.15h1.73c0.08,0,0.15,0.07,0.15,0.15v5.23C68.87,21.59,68.8,21.66,68.72,21.66z M68,21.36h0.57v-4.93
						h-1.43v1.6h0.72c0.08,0,0.15,0.07,0.15,0.15V21.36z"/>
				</g>
				<g>
					<path class="st6" d="M66.98,24.36c-0.08,0-0.15-0.07-0.15-0.15V21.8c0-0.08,0.07-0.15,0.15-0.15s0.15,0.07,0.15,0.15v2.41
						C67.13,24.29,67.06,24.36,66.98,24.36z M66.98,20.74c-0.08,0-0.15-0.07-0.15-0.15v-2.41c0-0.08,0.07-0.15,0.15-0.15
						s0.15,0.07,0.15,0.15v2.41C67.13,20.67,67.06,20.74,66.98,20.74z"/>
				</g>
				<g>
					<path class="st6" d="M29.43,32.31h-0.35c-0.08,0-0.15-0.07-0.15-0.15s0.07-0.15,0.15-0.15h0.35c0.08,0,0.15,0.07,0.15,0.15
						S29.52,32.31,29.43,32.31z"/>
				</g>
				<g>
					<path class="st6" d="M29.08,32.31c-0.08,0-0.15-0.07-0.15-0.15v-2.41c0-0.08,0.07-0.15,0.15-0.15s0.15,0.07,0.15,0.15v2.41
						C29.23,32.24,29.17,32.31,29.08,32.31z M29.08,28.69c-0.08,0-0.15-0.07-0.15-0.15v-2.41c0-0.08,0.07-0.15,0.15-0.15
						s0.15,0.07,0.15,0.15v2.41C29.23,28.63,29.17,28.69,29.08,28.69z M29.08,25.08c-0.08,0-0.15-0.07-0.15-0.15v-2.41
						c0-0.08,0.07-0.15,0.15-0.15s0.15,0.07,0.15,0.15v2.41C29.23,25.01,29.17,25.08,29.08,25.08z M29.08,21.46
						c-0.08,0-0.15-0.07-0.15-0.15V18.9c0-0.08,0.07-0.15,0.15-0.15s0.15,0.07,0.15,0.15v2.41C29.23,21.4,29.17,21.46,29.08,21.46z"
						/>
				</g>
				<g>
					<path class="st6" d="M27.35,38.49c-0.08,0-0.15-0.07-0.15-0.15v-2.41c0-0.08,0.07-0.15,0.15-0.15c0.08,0,0.15,0.07,0.15,0.15
						v2.41C27.5,38.42,27.43,38.49,27.35,38.49z M27.35,34.88c-0.08,0-0.15-0.07-0.15-0.15v-2.41c0-0.08,0.07-0.15,0.15-0.15
						c0.08,0,0.15,0.07,0.15,0.15v2.41C27.5,34.81,27.43,34.88,27.35,34.88z M27.35,31.26c-0.08,0-0.15-0.07-0.15-0.15V28.7
						c0-0.08,0.07-0.15,0.15-0.15c0.08,0,0.15,0.07,0.15,0.15v2.41C27.5,31.19,27.43,31.26,27.35,31.26z M27.35,27.65
						c-0.08,0-0.15-0.07-0.15-0.15v-2.41c0-0.08,0.07-0.15,0.15-0.15c0.08,0,0.15,0.07,0.15,0.15v2.41
						C27.5,27.58,27.43,27.65,27.35,27.65z M27.35,24.03c-0.08,0-0.15-0.07-0.15-0.15v-2.41c0-0.08,0.07-0.15,0.15-0.15
						c0.08,0,0.15,0.07,0.15,0.15v2.41C27.5,23.96,27.43,24.03,27.35,24.03z M27.35,20.42c-0.08,0-0.15-0.07-0.15-0.15v-2.41
						c0-0.08,0.07-0.15,0.15-0.15c0.08,0,0.15,0.07,0.15,0.15v2.41C27.5,20.35,27.43,20.42,27.35,20.42z"/>
				</g>
				<g>
					<path class="st6" d="M16.14,44.09h-0.93c-0.08,0-0.15-0.07-0.15-0.15s0.07-0.15,0.15-0.15h0.93c0.08,0,0.15,0.07,0.15,0.15
						S16.22,44.09,16.14,44.09z M14.01,44.09H11.6c-0.08,0-0.15-0.07-0.15-0.15s0.07-0.15,0.15-0.15h2.41
						c0.08,0,0.15,0.07,0.15,0.15S14.09,44.09,14.01,44.09z M10.39,44.09H7.98c-0.08,0-0.15-0.07-0.15-0.15s0.07-0.15,0.15-0.15
						h2.41c0.08,0,0.15,0.07,0.15,0.15S10.48,44.09,10.39,44.09z"/>
				</g>
				<g>
					<path class="st6" d="M15.92,46.7h-0.71c-0.08,0-0.15-0.07-0.15-0.15s0.07-0.15,0.15-0.15h0.71c0.08,0,0.15,0.07,0.15,0.15
						S16.01,46.7,15.92,46.7z M14.01,46.7H11.6c-0.08,0-0.15-0.07-0.15-0.15s0.07-0.15,0.15-0.15h2.41c0.08,0,0.15,0.07,0.15,0.15
						S14.09,46.7,14.01,46.7z M10.39,46.7H7.98c-0.08,0-0.15-0.07-0.15-0.15S7.9,46.4,7.98,46.4h2.41c0.08,0,0.15,0.07,0.15,0.15
						S10.48,46.7,10.39,46.7z"/>
				</g>
			</g>
		</g>
	</g>
</g>
</svg>
