<?xml version="1.0" encoding="utf-8"?>
<!-- Generator: Adobe Illustrator 25.0.0, SVG Export Plug-In . SVG Version: 6.00 Build 0)  -->
<svg version="1.1" id="Layer_1" xmlns="http://www.w3.org/2000/svg" xmlns:xlink="http://www.w3.org/1999/xlink" x="0px" y="0px"
	 viewBox="0 0 126.43 78.85" style="enable-background:new 0 0 126.43 78.85;" xml:space="preserve">
<style type="text/css">
	.st0{fill:#245169;}
	.st1{fill:#FFFFFF;}
	.st2{fill:#00516B;}
</style>
<g>
	<path class="st0" d="M49.96,78.8h-0.43l-0.41-0.93h-1.91L46.8,78.8h-0.41l1.6-3.53h0.37L49.96,78.8z M48.17,75.73l-0.8,1.79h1.6
		L48.17,75.73z"/>
	<path class="st0" d="M50.74,75.3h0.4v3.14h1.97v0.37h-2.37V75.3z"/>
	<path class="st0" d="M57.19,78.8h-0.43l-0.41-0.93h-1.91l-0.42,0.93h-0.41l1.6-3.53h0.37L57.19,78.8z M55.4,75.73l-0.8,1.79h1.6
		L55.4,75.73z"/>
	<path class="st0" d="M59.15,76.86c0.78,0.17,1.14,0.46,1.14,1c0,0.61-0.5,1-1.2,1c-0.56,0-1.01-0.18-1.43-0.56L57.91,78
		c0.37,0.33,0.72,0.5,1.2,0.5c0.47,0,0.78-0.25,0.78-0.6c0-0.33-0.18-0.51-0.91-0.67c-0.81-0.18-1.18-0.44-1.18-1.02
		c0-0.56,0.49-0.96,1.15-0.96c0.51,0,0.88,0.15,1.23,0.43l-0.23,0.31c-0.33-0.27-0.65-0.38-1.01-0.38c-0.46,0-0.75,0.25-0.75,0.57
		C58.2,76.51,58.38,76.69,59.15,76.86z"/>
	<path class="st0" d="M64.17,78.8h-0.5l-1.35-1.7l-0.75,0.76v0.94h-0.4v-3.5h0.4v2.09l2.01-2.09h0.51l-1.5,1.53L64.17,78.8z"/>
	<path class="st0" d="M68.12,78.8H67.7l-0.41-0.93h-1.91l-0.42,0.93h-0.41l1.6-3.53h0.37L68.12,78.8z M66.34,75.73l-0.8,1.79h1.6
		L66.34,75.73z"/>
	<path class="st0" d="M71.75,76.86c0.78,0.17,1.14,0.46,1.14,1c0,0.61-0.5,1-1.2,1c-0.55,0-1.01-0.18-1.43-0.56L70.51,78
		c0.37,0.33,0.71,0.5,1.2,0.5c0.47,0,0.78-0.25,0.78-0.6c0-0.33-0.17-0.51-0.91-0.67c-0.8-0.18-1.18-0.44-1.18-1.02
		c0-0.56,0.49-0.96,1.15-0.96c0.51,0,0.88,0.15,1.23,0.43l-0.23,0.31c-0.33-0.27-0.65-0.38-1.01-0.38c-0.46,0-0.75,0.25-0.75,0.57
		C70.8,76.51,70.98,76.69,71.75,76.86z"/>
	<path class="st0" d="M75.04,78.8h-0.4v-3.14h-1.18V75.3h2.75v0.37h-1.18V78.8z"/>
	<path class="st0" d="M76.44,78.8v-0.53h0.46v0.53H76.44z"/>
</g>
<g>
	<path class="st0" d="M49.96,78.8h-0.43l-0.41-0.93h-1.91L46.8,78.8h-0.41l1.6-3.53h0.37L49.96,78.8z M48.17,75.73l-0.8,1.79h1.6
		L48.17,75.73z"/>
	<path class="st0" d="M50.74,75.3h0.4v3.14h1.97v0.37h-2.37V75.3z"/>
	<path class="st0" d="M57.19,78.8h-0.43l-0.41-0.93h-1.91l-0.42,0.93h-0.41l1.6-3.53h0.37L57.19,78.8z M55.4,75.73l-0.8,1.79h1.6
		L55.4,75.73z"/>
	<path class="st0" d="M59.15,76.86c0.78,0.17,1.14,0.46,1.14,1c0,0.61-0.5,1-1.2,1c-0.56,0-1.01-0.18-1.43-0.56L57.91,78
		c0.37,0.33,0.72,0.5,1.2,0.5c0.47,0,0.78-0.25,0.78-0.6c0-0.33-0.18-0.52-0.91-0.67c-0.81-0.18-1.18-0.44-1.18-1.02
		c0-0.56,0.49-0.96,1.15-0.96c0.51,0,0.88,0.15,1.23,0.43l-0.23,0.31c-0.33-0.27-0.65-0.38-1.01-0.38c-0.46,0-0.75,0.25-0.75,0.57
		C58.2,76.51,58.38,76.7,59.15,76.86z"/>
	<path class="st0" d="M64.17,78.8h-0.5l-1.35-1.7l-0.75,0.75v0.94h-0.4v-3.5h0.4v2.09l2.01-2.09h0.51l-1.5,1.53L64.17,78.8z"/>
	<path class="st0" d="M68.12,78.8H67.7l-0.41-0.93h-1.91l-0.42,0.93h-0.41l1.6-3.53h0.37L68.12,78.8z M66.34,75.73l-0.8,1.79h1.6
		L66.34,75.73z"/>
	<path class="st0" d="M71.75,76.86c0.78,0.17,1.14,0.46,1.14,1c0,0.61-0.5,1-1.2,1c-0.55,0-1.01-0.18-1.43-0.56L70.51,78
		c0.37,0.33,0.71,0.5,1.2,0.5c0.47,0,0.78-0.25,0.78-0.6c0-0.33-0.17-0.52-0.91-0.67c-0.8-0.18-1.18-0.44-1.18-1.02
		c0-0.56,0.49-0.96,1.15-0.96c0.51,0,0.88,0.15,1.23,0.43l-0.23,0.31c-0.33-0.27-0.65-0.38-1.01-0.38c-0.46,0-0.75,0.25-0.75,0.57
		C70.8,76.51,70.98,76.7,71.75,76.86z"/>
	<path class="st0" d="M75.04,78.8h-0.4v-3.14h-1.18V75.3h2.75v0.37h-1.18V78.8z"/>
	<path class="st0" d="M76.44,78.8v-0.53h0.46v0.53H76.44z"/>
</g>
<g>
	<path class="st0" d="M126.4,43.15v0.42l-0.93,0.41v1.91l0.93,0.42v0.41l-3.53-1.6v-0.37L126.4,43.15z M123.33,44.94l1.79,0.8v-1.6
		L123.33,44.94z"/>
	<path class="st0" d="M122.9,42.37v-0.39h3.14v-1.97h0.37v2.37H122.9z"/>
	<path class="st0" d="M125.17,37.94v0.85h1.24v0.4h-3.5v-1.31c0-0.79,0.42-1.31,1.12-1.31C124.77,36.56,125.17,37.19,125.17,37.94z
		 M123.26,37.9v0.89h1.54v-0.87c0-0.58-0.31-0.96-0.78-0.96C123.52,36.96,123.26,37.34,123.26,37.9z"/>
	<path class="st0" d="M124.83,35.36h1.58v0.4h-3.5v-0.4h1.55v-2.02h-1.55v-0.4h3.5v0.4h-1.58V35.36z"/>
	<path class="st0" d="M126.4,28.59v0.43l-0.93,0.41v1.91l0.93,0.42v0.41l-3.53-1.6v-0.37L126.4,28.59z M123.33,30.38l1.79,0.8v-1.6
		L123.33,30.38z"/>
	<path class="st0" d="M126.4,22.96v0.43l-0.93,0.41v1.91l0.93,0.42v0.41l-3.53-1.6v-0.37L126.4,22.96z M123.33,24.74l1.79,0.8v-1.6
		L123.33,24.74z"/>
	<path class="st0" d="M122.9,20.03v-0.43l3.53,1.51v0.35l-3.53,1.51v-0.44l3.02-1.25L122.9,20.03z"/>
	<path class="st0" d="M123.26,16.3v2.14h1.2v-1.91h0.36v1.91h1.23v-2.16h0.36v2.56h-3.5V16.3H123.26z"/>
	<path class="st0" d="M126.4,15.49h-0.53v-0.46h0.53V15.49z"/>
</g>
<g>
	<polygon class="st1" points="7.71,56.69 7.71,60.86 0.15,60.86 0.15,36.62 7.19,36.62 7.19,56.69 	"/>
</g>
<g>
	<polygon class="st2" points="38.51,37.01 38.51,56.69 37.69,56.69 7.71,56.69 7.19,56.69 7.19,36.62 7.19,33.97 13.61,33.97 
		13.61,34.79 33.17,34.79 38.51,34.79 	"/>
</g>
<g>
	<rect x="39.75" y="58.47" class="st1" width="17.64" height="5.29"/>
</g>
<g>
	<polygon class="st1" points="57.39,35.91 57.39,58.47 39.75,58.47 37.69,58.47 37.69,56.69 38.52,56.69 38.52,37.01 43.72,37.01 
		43.72,35.91 	"/>
</g>
<g>
	<polygon class="st1" points="77.13,56.69 77.13,58.47 76.28,58.47 57.39,58.47 57.39,35.91 76.28,35.91 76.28,56.69 	"/>
</g>
<g>
	<rect x="57.39" y="58.47" class="st1" width="18.89" height="5.29"/>
</g>
<g>
	<polygon class="st1" points="111.59,56.19 111.59,63.76 76.28,63.76 76.28,58.47 77.13,58.47 77.13,56.69 107.44,56.69 
		107.44,56.19 	"/>
</g>
<g>
	<polygon class="st1" points="107.44,56.19 107.44,56.69 77.12,56.69 76.28,56.69 76.28,35.91 76.28,34.79 98.63,34.79 98.63,33.97 
		107.44,33.97 	"/>
</g>
<g>
	<polygon class="st1" points="105.69,3.05 105.69,27.8 98.63,27.8 98.63,7.21 98.12,7.21 98.12,3.05 	"/>
</g>
<g>
	<polygon class="st1" points="98.63,33.97 98.63,34.79 76.28,34.79 76.28,22.92 75.58,22.92 75.58,14.08 75.15,14.08 75.15,7.45 
		75.15,7.21 98.12,7.21 98.63,7.21 98.63,27.8 	"/>
</g>
<g>
	<polygon class="st1" points="75.15,7.45 75.15,14.08 70.4,14.08 66.06,14.08 66.06,7.45 	"/>
</g>
<g>
	<polygon class="st1" points="66.06,7.45 66.06,14.08 54.02,14.08 48.84,14.08 48.84,22.92 48.84,28.99 41.91,28.99 41.91,27.03 
		36.09,27.03 36.09,7.21 34.43,7.21 34.43,3.78 66.06,3.78 	"/>
</g>
<g>
	<polygon class="st1" points="36.09,27.03 36.09,29.86 36.09,30.09 33.17,30.09 33.17,34.79 13.61,34.79 13.61,33.97 13.61,7.72 
		13.61,7.21 28.37,7.21 34.43,7.21 36.09,7.21 	"/>
</g>
<g>
	<polygon class="st1" points="28.37,0.15 28.37,7.21 13.61,7.21 13.61,7.72 9.46,7.72 9.46,0.15 	"/>
</g>
<g>
	<path class="st2" d="M70.4,30.03c-0.03,0-0.07-0.01-0.1-0.04l-8.1-6.88l-8.08,6.88c-0.06,0.05-0.16,0.05-0.21-0.02
		c-0.05-0.06-0.05-0.16,0.02-0.21l8.18-6.96c0.06-0.05,0.14-0.05,0.19,0l8.2,6.96c0.06,0.05,0.07,0.15,0.02,0.21
		C70.48,30.01,70.44,30.03,70.4,30.03z"/>
</g>
<g>
	<path class="st2" d="M62.2,30.03c-0.03,0-0.07-0.01-0.1-0.04l-8.18-6.96c-0.06-0.05-0.07-0.15-0.02-0.21
		c0.05-0.06,0.15-0.07,0.21-0.02l8.08,6.88l8.1-6.88c0.07-0.05,0.16-0.04,0.21,0.02c0.05,0.06,0.05,0.16-0.02,0.21L62.3,30
		C62.27,30.02,62.24,30.03,62.2,30.03z"/>
</g>
<g>
	<path class="st2" d="M62.2,30.03c-0.08,0-0.15-0.07-0.15-0.15v-6.96c0-0.08,0.07-0.15,0.15-0.15s0.15,0.07,0.15,0.15v6.96
		C62.35,29.96,62.29,30.03,62.2,30.03z"/>
</g>
<g>
	<path class="st2" d="M75.15,7.6h-9.09c-0.08,0-0.15-0.07-0.15-0.15s0.07-0.15,0.15-0.15h9.09c0.08,0,0.15,0.07,0.15,0.15
		S75.24,7.6,75.15,7.6z"/>
</g>
<g>
	<path class="st2" d="M7.71,61.01H0.15C0.07,61.01,0,60.94,0,60.86V36.62c0-0.08,0.07-0.15,0.15-0.15h7.04
		c0.08,0,0.15,0.07,0.15,0.15s-0.07,0.15-0.15,0.15H0.3v23.94h7.26v-4.01c0-0.08,0.07-0.15,0.15-0.15s0.15,0.07,0.15,0.15v4.17
		C7.86,60.94,7.79,61.01,7.71,61.01z"/>
</g>
<g>
	<path class="st2" d="M111.59,63.91H39.75c-0.08,0-0.15-0.07-0.15-0.15v-5.29c0-0.08,0.07-0.15,0.15-0.15s0.15,0.07,0.15,0.15v5.14
		h71.54v-7.27h-4c-0.08,0-0.15-0.07-0.15-0.15s0.07-0.15,0.15-0.15h4.15c0.08,0,0.15,0.07,0.15,0.15v7.57
		C111.74,63.84,111.68,63.91,111.59,63.91z"/>
</g>
<g>
	<path class="st2" d="M13.61,7.87H9.46c-0.08,0-0.15-0.07-0.15-0.15V0.15C9.31,0.07,9.38,0,9.46,0h18.91c0.08,0,0.15,0.07,0.15,0.15
		v7.06c0,0.08-0.07,0.15-0.15,0.15s-0.15-0.07-0.15-0.15V0.3H9.61v7.27h4c0.08,0,0.15,0.07,0.15,0.15S13.69,7.87,13.61,7.87z"/>
</g>
<g>
	<path class="st2" d="M105.69,27.95h-7.06c-0.08,0-0.15-0.07-0.15-0.15s0.07-0.15,0.15-0.15h6.91V3.2h-7.27v4
		c0,0.08-0.07,0.15-0.15,0.15s-0.15-0.07-0.15-0.15V3.05c0-0.08,0.07-0.15,0.15-0.15h7.57c0.08,0,0.15,0.07,0.15,0.15V27.8
		C105.84,27.88,105.77,27.95,105.69,27.95z"/>
</g>
<g>
	<path class="st2" d="M57.39,63.91c-0.08,0-0.15-0.07-0.15-0.15v-5.29c0-0.08,0.07-0.15,0.15-0.15s0.15,0.07,0.15,0.15v5.29
		C57.54,63.84,57.47,63.91,57.39,63.91z"/>
</g>
<g>
	<path class="st2" d="M76.28,63.91c-0.08,0-0.15-0.07-0.15-0.15v-5.29c0-0.08,0.07-0.15,0.15-0.15s0.15,0.07,0.15,0.15v5.29
		C76.43,63.84,76.36,63.91,76.28,63.91z"/>
</g>
<g>
	<path class="st2" d="M54.02,23.07c-0.08,0-0.15-0.07-0.15-0.15v-8.84c0-0.08,0.07-0.15,0.15-0.15s0.15,0.07,0.15,0.15v8.84
		C54.17,23.01,54.11,23.07,54.02,23.07z"/>
</g>
<g>
	<path class="st2" d="M70.4,23.07c-0.08,0-0.15-0.07-0.15-0.15v-8.84c0-0.08,0.07-0.15,0.15-0.15s0.15,0.07,0.15,0.15v8.84
		C70.55,23.01,70.48,23.07,70.4,23.07z"/>
</g>
<g>
	<path class="st2" d="M54.02,23.07h-5.18c-0.08,0-0.15-0.07-0.15-0.15s0.07-0.15,0.15-0.15h5.18c0.08,0,0.15,0.07,0.15,0.15
		S54.11,23.07,54.02,23.07z"/>
</g>
<g>
	<path class="st2" d="M75.58,23.07H70.4c-0.08,0-0.15-0.07-0.15-0.15s0.07-0.15,0.15-0.15h5.18c0.08,0,0.15,0.07,0.15,0.15
		S75.66,23.07,75.58,23.07z"/>
</g>
<g>
	<path class="st2" d="M75.15,14.23h-9.09c-0.08,0-0.15-0.07-0.15-0.15s0.07-0.15,0.15-0.15h9.09c0.08,0,0.15,0.07,0.15,0.15
		S75.24,14.23,75.15,14.23z"/>
</g>
<g>
	<path class="st2" d="M70.4,30.03H54.02c-0.08,0-0.15-0.07-0.15-0.15v-6.96c0-0.08,0.07-0.15,0.15-0.15H70.4
		c0.08,0,0.15,0.07,0.15,0.15v6.96C70.55,29.96,70.48,30.03,70.4,30.03z M54.17,29.73h16.08v-6.66H54.17V29.73z"/>
</g>
<g>
	<path class="st2" d="M76.28,34.94c-0.08,0-0.15-0.07-0.15-0.15V23.07h-0.55c-0.08,0-0.15-0.07-0.15-0.15v-8.69h-0.28
		c-0.08,0-0.15-0.07-0.15-0.15V7.21c0-0.08,0.07-0.15,0.15-0.15h23.48c0.08,0,0.15,0.07,0.15,0.15v26.76c0,0.08-0.07,0.15-0.15,0.15
		s-0.15-0.07-0.15-0.15V7.36H75.3v6.57h0.28c0.08,0,0.15,0.07,0.15,0.15v8.69h0.55c0.08,0,0.15,0.07,0.15,0.15v11.87
		C76.43,34.87,76.36,34.94,76.28,34.94z"/>
</g>
<g>
	<path class="st2" d="M107.44,56.84H77.12c-0.08,0-0.15-0.07-0.15-0.15s0.07-0.15,0.15-0.15h30.17V34.12h-8.51v0.67
		c0,0.08-0.07,0.15-0.15,0.15h-22.2v0.96c0,0.08-0.07,0.15-0.15,0.15s-0.15-0.07-0.15-0.15v-1.12c0-0.08,0.07-0.15,0.15-0.15h22.2
		v-0.67c0-0.08,0.07-0.15,0.15-0.15h8.81c0.08,0,0.15,0.07,0.15,0.15v22.72C107.59,56.78,107.53,56.84,107.44,56.84z"/>
</g>
<g>
	<path class="st2" d="M77.12,58.62H57.39c-0.08,0-0.15-0.07-0.15-0.15s0.07-0.15,0.15-0.15h19.58v-1.48h-0.7
		c-0.08,0-0.15-0.07-0.15-0.15V36.06H57.39c-0.08,0-0.15-0.07-0.15-0.15s0.07-0.15,0.15-0.15h18.89c0.08,0,0.15,0.07,0.15,0.15
		v20.64h0.7c0.08,0,0.15,0.07,0.15,0.15v1.78C77.28,58.55,77.21,58.62,77.12,58.62z"/>
</g>
<g>
	<path class="st2" d="M43.72,36.06c-0.08,0-0.15-0.07-0.15-0.15v-1.72h-4.91v0.61c0,0.08-0.07,0.15-0.15,0.15s-0.15-0.07-0.15-0.15
		v-0.76c0-0.08,0.07-0.15,0.15-0.15h5.21c0.08,0,0.15,0.07,0.15,0.15v1.87C43.87,35.99,43.8,36.06,43.72,36.06z"/>
</g>
<g>
	<path class="st2" d="M57.39,58.62h-19.7c-0.08,0-0.15-0.07-0.15-0.15v-1.78c0-0.08,0.07-0.15,0.15-0.15s0.15,0.07,0.15,0.15v1.62
		h19.4V36.06H43.87v0.95c0,0.08-0.07,0.15-0.15,0.15h-5.21c-0.08,0-0.15-0.07-0.15-0.15s0.07-0.15,0.15-0.15h5.06v-0.95
		c0-0.08,0.07-0.15,0.15-0.15h13.67c0.08,0,0.15,0.07,0.15,0.15v22.56C57.54,58.55,57.47,58.62,57.39,58.62z"/>
</g>
<g>
	<path class="st2" d="M38.51,56.84H7.19c-0.08,0-0.15-0.07-0.15-0.15V33.97c0-0.08,0.07-0.15,0.15-0.15h6.42
		c0.08,0,0.15,0.07,0.15,0.15s-0.07,0.15-0.15,0.15H7.34v22.42h31.02v-21.6h-5.19c-0.08,0-0.15-0.07-0.15-0.15s0.07-0.15,0.15-0.15
		h5.34c0.08,0,0.15,0.07,0.15,0.15v21.9C38.67,56.78,38.6,56.84,38.51,56.84z"/>
</g>
<g>
	<path class="st2" d="M41.91,30.01h-5.82c-0.08,0-0.15-0.07-0.15-0.15s0.07-0.15,0.15-0.15h5.67v-0.72c0-0.08,0.07-0.15,0.15-0.15
		s0.15,0.07,0.15,0.15v0.87C42.06,29.94,41.99,30.01,41.91,30.01z"/>
</g>
<g>
	<path class="st2" d="M48.84,29.14h-6.93c-0.08,0-0.15-0.07-0.15-0.15v-1.81h-5.67c-0.08,0-0.15-0.07-0.15-0.15s0.07-0.15,0.15-0.15
		h5.82c0.08,0,0.15,0.07,0.15,0.15v1.81h6.63V14.08c0-0.08,0.07-0.15,0.15-0.15h17.07v-10H34.59v3.28c0,0.08-0.07,0.15-0.15,0.15
		s-0.15-0.07-0.15-0.15V3.78c0-0.08,0.07-0.15,0.15-0.15h31.63c0.08,0,0.15,0.07,0.15,0.15v10.3c0,0.08-0.07,0.15-0.15,0.15H48.99
		v14.76C48.99,29.07,48.92,29.14,48.84,29.14z"/>
</g>
<g>
	<path class="st2" d="M33.17,34.94H13.61c-0.08,0-0.15-0.07-0.15-0.15V7.21c0-0.08,0.07-0.15,0.15-0.15h22.48
		c0.08,0,0.15,0.07,0.15,0.15v22.88c0,0.08-0.07,0.15-0.15,0.15h-2.77v4.55C33.32,34.88,33.26,34.94,33.17,34.94z M13.76,34.64
		h19.26v-4.55c0-0.08,0.07-0.15,0.15-0.15h2.77V7.36H13.76V34.64z"/>
</g>
<g>
	<path class="st2" d="M70.4,18.65H54.02c-0.08,0-0.15-0.07-0.15-0.15s0.07-0.15,0.15-0.15H70.4c0.08,0,0.15,0.07,0.15,0.15
		S70.48,18.65,70.4,18.65z"/>
</g>
</svg>
