<?xml version="1.0" encoding="utf-8"?>
<!-- Generator: Adobe Illustrator 25.0.1, SVG Export Plug-In . SVG Version: 6.00 Build 0)  -->
<svg version="1.1" id="Layer_1" xmlns="http://www.w3.org/2000/svg" xmlns:xlink="http://www.w3.org/1999/xlink" x="0px" y="0px"
	 viewBox="0 0 104.05 65.06" style="enable-background:new 0 0 104.05 65.06;" xml:space="preserve">
<style type="text/css">
	.st0{fill:#245169;}
	.st1{fill:#FFFFFF;}
	.st2{fill:#00516B;}
	.st3{fill:none;stroke:#00516B;stroke-width:0.25;stroke-linecap:round;stroke-linejoin:round;stroke-miterlimit:10;}
</style>
<g>
	<path class="st0" d="M40.63,65.02h-0.35l-0.34-0.77h-1.58l-0.34,0.77h-0.34L39,62.1h0.31L40.63,65.02z M39.15,62.48l-0.66,1.48
		h1.32L39.15,62.48z"/>
	<path class="st0" d="M41.28,62.12h0.33v2.6h1.64v0.3h-1.96V62.12z"/>
	<path class="st0" d="M46.63,65.02h-0.35l-0.34-0.77h-1.58l-0.34,0.77h-0.34L45,62.1h0.31L46.63,65.02z M45.15,62.48l-0.66,1.48
		h1.32L45.15,62.48z"/>
	<path class="st0" d="M48.26,63.41c0.65,0.14,0.95,0.38,0.95,0.83c0,0.5-0.42,0.83-0.99,0.83c-0.46,0-0.84-0.15-1.19-0.46l0.2-0.24
		c0.3,0.27,0.59,0.41,1,0.41c0.39,0,0.65-0.2,0.65-0.5c0-0.27-0.15-0.43-0.76-0.56c-0.67-0.14-0.98-0.36-0.98-0.84
		c0-0.46,0.4-0.8,0.96-0.8c0.42,0,0.73,0.12,1.02,0.36l-0.19,0.25c-0.27-0.22-0.54-0.32-0.84-0.32c-0.38,0-0.62,0.21-0.62,0.47
		C47.47,63.12,47.62,63.28,48.26,63.41z"/>
	<path class="st0" d="M52.42,65.02h-0.41l-1.12-1.41l-0.62,0.63v0.78h-0.33v-2.91h0.33v1.73l1.67-1.73h0.42l-1.25,1.27L52.42,65.02z
		"/>
	<path class="st0" d="M55.7,65.02h-0.35L55,64.26h-1.58l-0.34,0.77h-0.34l1.32-2.93h0.31L55.7,65.02z M54.21,62.48l-0.66,1.48h1.32
		L54.21,62.48z"/>
	<path class="st0" d="M58.71,63.41c0.65,0.14,0.95,0.38,0.95,0.83c0,0.5-0.42,0.83-0.99,0.83c-0.46,0-0.84-0.15-1.19-0.46l0.2-0.24
		c0.3,0.27,0.59,0.41,1,0.41c0.39,0,0.65-0.2,0.65-0.5c0-0.27-0.15-0.43-0.76-0.56c-0.67-0.14-0.98-0.36-0.98-0.84
		c0-0.46,0.4-0.8,0.96-0.8c0.42,0,0.73,0.12,1.02,0.36l-0.19,0.25c-0.27-0.22-0.54-0.32-0.84-0.32c-0.38,0-0.62,0.21-0.62,0.47
		C57.92,63.12,58.07,63.28,58.71,63.41z"/>
	<path class="st0" d="M61.43,65.02H61.1v-2.6h-0.98v-0.3h2.28v0.3h-0.98V65.02z"/>
	<path class="st0" d="M62.6,65.02v-0.44h0.38v0.44H62.6z"/>
</g>
<rect x="7.72" class="st1" width="15.45" height="6.36"/>
<rect x="53.93" y="6.15" class="st1" width="7.42" height="5.4"/>
<rect x="80.11" y="2.33" class="st1" width="6.18" height="20.44"/>
<rect x="32.46" y="45.93" class="st1" width="58.66" height="6.18"/>
<rect x="0.12" y="29.95" class="st1" width="6.17" height="19.79"/>
<polygon class="st1" points="31.44,30.27 31.44,46.35 30.77,46.35 6.29,46.35 5.88,46.35 5.88,29.95 5.88,27.79 11.11,27.79 
	11.11,28.46 27.08,28.46 31.44,28.46 "/>
<polygon class="st1" points="46.86,29.38 46.86,47.79 32.45,47.79 30.77,47.79 30.77,46.35 31.44,46.35 31.44,30.27 35.69,30.27 
	35.69,29.38 "/>
<polygon class="st1" points="62.27,47.79 46.86,47.79 46.86,29.38 62.27,29.38 62.27,31.99 62.27,46.35 62.96,46.35 62.96,47.79 "/>
<polygon class="st2" points="67.9,33.02 74.28,33.02 74.28,38.92 77.35,38.92 77.35,46.35 62.96,46.35 62.27,46.35 62.27,31.99 
	67.9,31.99 "/>
<polygon class="st1" points="87.71,45.93 87.71,46.35 77.35,46.35 77.35,38.92 74.28,38.92 74.28,33.02 67.9,33.02 67.9,31.99 
	67.9,28.46 80.52,28.46 80.52,27.79 87.71,27.79 "/>
<polygon class="st1" points="80.52,27.79 80.52,28.46 67.9,28.46 67.03,28.46 67.03,24.45 62.27,24.45 62.27,18.77 61.7,18.77 
	61.7,11.55 61.35,11.55 61.35,6.15 61.35,5.94 80.1,5.94 80.52,5.94 80.52,22.76 "/>
<polygon class="st1" points="28.12,3.14 53.93,3.14 53.93,6.15 53.93,11.55 44.1,11.55 39.87,11.55 39.87,18.77 39.87,23.72 
	35.46,23.72 35.46,22.12 29.46,22.12 29.46,5.94 28.12,5.94 "/>
<polygon class="st1" points="29.46,24.43 29.46,24.63 27.08,24.63 27.08,28.46 11.11,28.46 11.11,27.79 11.11,6.36 11.11,5.94 
	23.17,5.94 28.12,5.94 29.46,5.94 29.46,22.12 "/>
<polyline class="st3" points="46.86,47.79 62.27,47.79 62.96,47.79 62.96,46.35 "/>
<polyline class="st3" points="62.27,31.99 62.27,29.38 46.86,29.38 "/>
<polyline class="st3" points="44.1,24.45 47.44,21.61 50.78,18.77 54.13,21.61 57.47,24.45 "/>
<polyline class="st3" points="44.1,18.77 47.44,21.61 50.78,24.45 54.13,21.61 57.47,18.77 "/>
<line class="st3" x1="50.78" y1="24.45" x2="50.78" y2="18.77"/>
<line class="st3" x1="53.93" y1="6.15" x2="61.35" y2="6.15"/>
<polyline class="st3" points="5.89,29.95 0.12,29.95 0.12,49.74 6.29,49.74 6.29,46.35 "/>
<polyline class="st3" points="32.45,47.79 32.45,52.11 46.86,52.11 62.27,52.11 77.35,52.11 91.11,52.11 91.11,45.93 87.71,45.93 
	"/>
<polyline class="st3" points="11.11,6.36 7.72,6.36 7.72,0.19 23.17,0.19 23.17,5.94 "/>
<polyline class="st3" points="80.1,5.94 80.1,2.55 86.28,2.55 86.28,22.76 80.52,22.76 "/>
<line class="st3" x1="46.86" y1="47.79" x2="46.86" y2="52.11"/>
<line class="st3" x1="62.27" y1="47.79" x2="62.27" y2="52.11"/>
<polyline class="st3" points="44.1,18.77 44.1,15.16 44.1,11.55 "/>
<polyline class="st3" points="57.47,18.77 57.47,15.16 57.47,11.55 "/>
<line class="st3" x1="77.35" y1="52.11" x2="77.35" y2="46.35"/>
<line class="st3" x1="44.1" y1="18.77" x2="39.87" y2="18.77"/>
<line class="st3" x1="61.7" y1="18.77" x2="57.47" y2="18.77"/>
<polyline class="st3" points="53.93,11.55 57.47,11.55 61.35,11.55 "/>
<polygon class="st3" points="44.1,24.45 50.78,24.45 57.47,24.45 57.47,18.77 50.78,18.77 44.1,18.77 "/>
<polyline class="st3" points="80.52,27.79 80.52,22.76 80.52,5.94 80.1,5.94 61.35,5.94 61.35,6.15 61.35,11.55 61.7,11.55 
	61.7,18.77 62.27,18.77 62.27,24.45 67.03,24.45 67.03,28.46 67.9,28.46 "/>
<polyline class="st3" points="35.69,29.38 35.69,27.84 31.44,27.84 31.44,28.46 "/>
<polyline class="st3" points="30.77,46.35 30.77,47.79 32.45,47.79 46.86,47.79 46.86,29.38 35.69,29.38 35.69,30.27 31.44,30.27 
	"/>
<polyline class="st3" points="11.11,27.79 5.88,27.79 5.88,29.95 5.88,46.35 6.29,46.35 30.77,46.35 31.44,46.35 31.44,30.27 
	31.44,28.46 27.08,28.46 "/>
<polyline class="st3" points="29.46,24.43 35.46,24.43 35.46,23.72 "/>
<polyline class="st3" points="29.46,22.12 35.46,22.12 35.46,23.72 39.87,23.72 39.87,18.77 39.87,11.55 44.1,11.55 53.93,11.55 
	53.93,6.15 53.93,3.14 28.12,3.14 28.12,5.94 "/>
<polygon class="st3" points="29.46,22.12 29.46,5.94 28.12,5.94 23.17,5.94 11.11,5.94 11.11,6.36 11.11,27.79 11.11,28.46 
	27.08,28.46 27.08,24.63 29.46,24.63 29.46,24.43 "/>
<line class="st3" x1="44.1" y1="15.16" x2="57.47" y2="15.16"/>
<polyline class="st3" points="67.9,31.99 67.9,28.46 80.52,28.46 80.52,27.79 87.71,27.79 87.71,45.93 87.71,46.35 77.35,46.35 "/>
<polygon class="st3" points="62.27,31.99 67.9,31.99 67.9,33.02 74.28,33.02 74.28,38.92 77.35,38.92 77.35,46.35 62.96,46.35 
	62.27,46.35 "/>
<g>
	<path class="st0" d="M40.63,65.02h-0.35l-0.34-0.77h-1.58l-0.34,0.77h-0.34L39,62.1h0.31L40.63,65.02z M39.15,62.48l-0.66,1.48
		h1.32L39.15,62.48z"/>
	<path class="st0" d="M41.28,62.12h0.33v2.6h1.64v0.3h-1.96V62.12z"/>
	<path class="st0" d="M46.63,65.02h-0.35l-0.34-0.77h-1.58l-0.34,0.77h-0.34L45,62.1h0.31L46.63,65.02z M45.15,62.48l-0.66,1.48
		h1.32L45.15,62.48z"/>
	<path class="st0" d="M48.26,63.41c0.65,0.14,0.95,0.38,0.95,0.83c0,0.5-0.42,0.83-0.99,0.83c-0.46,0-0.84-0.15-1.19-0.46l0.2-0.24
		c0.3,0.27,0.59,0.41,1,0.41c0.39,0,0.65-0.2,0.65-0.5c0-0.27-0.15-0.43-0.76-0.56c-0.67-0.14-0.98-0.36-0.98-0.84
		c0-0.46,0.4-0.8,0.96-0.8c0.42,0,0.73,0.12,1.02,0.36l-0.19,0.25c-0.27-0.22-0.54-0.32-0.84-0.32c-0.38,0-0.62,0.21-0.62,0.47
		C47.47,63.12,47.62,63.28,48.26,63.41z"/>
	<path class="st0" d="M52.42,65.02h-0.41l-1.12-1.41l-0.62,0.63v0.78h-0.33v-2.91h0.33v1.73l1.67-1.73h0.42l-1.25,1.27L52.42,65.02z
		"/>
	<path class="st0" d="M55.7,65.02h-0.35L55,64.26h-1.58l-0.34,0.77h-0.34l1.32-2.93h0.31L55.7,65.02z M54.22,62.48l-0.66,1.48h1.32
		L54.22,62.48z"/>
	<path class="st0" d="M58.71,63.41c0.65,0.14,0.95,0.38,0.95,0.83c0,0.5-0.42,0.83-0.99,0.83c-0.46,0-0.84-0.15-1.19-0.46l0.2-0.24
		c0.3,0.27,0.59,0.41,1,0.41c0.39,0,0.65-0.2,0.65-0.5c0-0.27-0.15-0.43-0.76-0.56c-0.67-0.14-0.98-0.36-0.98-0.84
		c0-0.46,0.4-0.8,0.96-0.8c0.42,0,0.73,0.12,1.02,0.36l-0.19,0.25c-0.27-0.22-0.54-0.32-0.84-0.32c-0.38,0-0.62,0.21-0.62,0.47
		C57.92,63.12,58.07,63.28,58.71,63.41z"/>
	<path class="st0" d="M61.44,65.02H61.1v-2.6h-0.98v-0.3h2.28v0.3h-0.98V65.02z"/>
	<path class="st0" d="M62.6,65.02v-0.44h0.38v0.44H62.6z"/>
</g>
<g>
	<path class="st0" d="M104.03,35.46v0.35l-0.77,0.34v1.58l0.77,0.34v0.34l-2.93-1.32v-0.31L104.03,35.46z M101.48,36.94l1.48,0.66
		v-1.32L101.48,36.94z"/>
	<path class="st0" d="M101.12,34.81v-0.33h2.6v-1.64h0.3v1.96H101.12z"/>
	<path class="st0" d="M103,31.13v0.71h1.03v0.33h-2.9v-1.09c0-0.66,0.35-1.09,0.93-1.09C102.68,29.99,103,30.52,103,31.13z
		 M101.42,31.1v0.74h1.28v-0.72c0-0.48-0.26-0.8-0.64-0.8C101.64,30.32,101.42,30.64,101.42,31.1z"/>
	<path class="st0" d="M102.72,28.99h1.31v0.33h-2.9v-0.33h1.29v-1.68h-1.29v-0.33h2.9v0.33h-1.31V28.99z"/>
	<path class="st0" d="M104.03,23.39v0.35l-0.77,0.34v1.58l0.77,0.34v0.34l-2.93-1.32v-0.31L104.03,23.39z M101.48,24.87l1.48,0.66
		v-1.32L101.48,24.87z"/>
	<path class="st0" d="M104.03,18.71v0.35l-0.77,0.34v1.58l0.77,0.34v0.34l-2.93-1.32v-0.31L104.03,18.71z M101.48,20.19l1.48,0.66
		v-1.32L101.48,20.19z"/>
	<path class="st0" d="M101.12,16.29v-0.35l2.93,1.25v0.29l-2.93,1.25v-0.37l2.5-1.03L101.12,16.29z"/>
	<path class="st0" d="M101.42,13.19v1.77h0.99v-1.58h0.3v1.58h1.02v-1.79h0.3v2.12h-2.9v-2.1H101.42z"/>
	<path class="st0" d="M104.03,12.52h-0.44v-0.38h0.44V12.52z"/>
</g>
</svg>
