<?xml version="1.0" encoding="utf-8"?>
<!-- Generator: Adobe Illustrator 25.1.0, SVG Export Plug-In . SVG Version: 6.00 Build 0)  -->
<svg version="1.1" id="Layer_1" xmlns="http://www.w3.org/2000/svg" xmlns:xlink="http://www.w3.org/1999/xlink" x="0px" y="0px"
	 viewBox="0 0 116.79 73.87" style="enable-background:new 0 0 116.79 73.87;" xml:space="preserve">
<style type="text/css">
	.st0{fill:none;stroke:#00516B;stroke-width:0.522;stroke-linecap:round;stroke-linejoin:round;stroke-miterlimit:10;}
	.st1{fill:#00516B;}
	.st2{fill:none;stroke:#00516B;stroke-width:0;stroke-linecap:round;stroke-miterlimit:10;}
	.st3{fill:#245169;}
	.st4{fill:#FFFFFF;}
	.st5{fill:none;stroke:#00516B;stroke-width:0.25;stroke-linecap:round;stroke-linejoin:round;stroke-miterlimit:10;}
</style>
<line class="st0" x1="94.23" y1="73.6" x2="94.23" y2="61.87"/>
<line class="st0" x1="99.71" y1="68.39" x2="94.23" y2="63.17"/>
<path class="st1" d="M94.23,61.87l5.48,6.52l-5.48-5.21V61.87z M100.23,67.87l-6-6l5.48,6.52L100.23,67.87z"/>
<path class="st2" d="M94.23,61.87l5.48,6.52l-5.48-5.21V61.87z M100.23,67.87l-6-6l5.48,6.52L100.23,67.87z"/>
<g>
	<path class="st0" d="M94.36,61.87c-3.24,0-5.87,2.63-5.87,5.87c0,3.24,2.63,5.87,5.87,5.87c3.24,0,5.87-2.63,5.87-5.87
		C100.23,64.5,97.6,61.87,94.36,61.87"/>
	<line class="st0" x1="94.23" y1="61.87" x2="88.5" y2="67.87"/>
	<line class="st0" x1="89.02" y1="68.39" x2="94.23" y2="63.17"/>
	<path class="st1" d="M94.23,61.87l-5.21,6.52l5.21-5.21V61.87z M88.5,67.87l5.74-6l-5.21,6.52L88.5,67.87z"/>
	<path class="st2" d="M94.23,61.87l-5.21,6.52l5.21-5.21V61.87z M88.5,67.87l5.74-6l-5.21,6.52L88.5,67.87z"/>
</g>
<g>
	<path class="st3" d="M38.19,3.28h-0.37V0.39h-1.08V0.06h2.54v0.34h-1.08V3.28z"/>
	<path class="st3" d="M41.33,3.34c-0.98,0-1.64-0.77-1.64-1.66S40.35,0,41.33,0s1.64,0.77,1.64,1.66
		C42.98,2.56,42.31,3.34,41.33,3.34z M41.33,0.34c-0.74,0-1.26,0.59-1.26,1.33S40.6,3,41.33,3s1.26-0.59,1.26-1.33
		S42.06,0.34,41.33,0.34z"/>
	<path class="st3" d="M45.63,0.05h0.3l0.88,2.7l0.92-2.69h0.38L46.97,3.3h-0.31l-0.88-2.62L44.88,3.3h-0.3l-1.15-3.25h0.4l0.92,2.69
		L45.63,0.05z"/>
	<path class="st3" d="M51.24,0.06h0.36v3.23h-0.29l-2.08-2.65v2.65h-0.35V0.06h0.34l2.03,2.58V0.06z"/>
	<path class="st3" d="M52.96,1.83v1.45H52.6V0.06h0.36v1.43h1.86V0.06h0.36v3.23h-0.36V1.83H52.96z"/>
	<path class="st3" d="M57.69,3.34c-0.98,0-1.64-0.77-1.64-1.66S56.72,0,57.7,0s1.64,0.77,1.64,1.66
		C59.34,2.56,58.67,3.34,57.69,3.34z M57.69,0.34c-0.74,0-1.26,0.59-1.26,1.33S56.96,3,57.7,3s1.26-0.59,1.26-1.33
		S58.43,0.34,57.69,0.34z"/>
	<path class="st3" d="M61.75,2.4h-0.02l-1.17-1.72v2.61H60.2V0.06h0.37l1.17,1.76l1.17-1.76h0.37v3.23h-0.36V0.67L61.75,2.4z"/>
	<path class="st3" d="M66.63,0.39h-1.97v1.1h1.76v0.33h-1.76v1.13h1.99v0.33h-2.35V0.06h2.33V0.39z"/>
	<path class="st3" d="M68.63,1.49c0.72,0.16,1.05,0.42,1.05,0.92c0,0.56-0.46,0.92-1.1,0.92c-0.51,0-0.93-0.17-1.32-0.52l0.23-0.27
		C67.83,2.85,68.15,3,68.59,3c0.43,0,0.72-0.23,0.72-0.55c0-0.3-0.16-0.47-0.84-0.62c-0.74-0.16-1.08-0.4-1.08-0.94
		c0-0.52,0.45-0.88,1.06-0.88c0.47,0,0.81,0.13,1.13,0.4l-0.21,0.28c-0.3-0.24-0.6-0.35-0.93-0.35c-0.42,0-0.69,0.23-0.69,0.53
		C67.76,1.17,67.92,1.34,68.63,1.49z"/>
</g>
<g>
	<path class="st3" d="M43.46,56.76H43.1l-0.34-0.77h-1.58l-0.34,0.77H40.5l1.32-2.93h0.31L43.46,56.76z M41.97,54.21l-0.66,1.48
		h1.32L41.97,54.21z"/>
	<path class="st3" d="M44.1,53.85h0.33v2.6h1.63v0.3H44.1V53.85z"/>
	<path class="st3" d="M49.45,56.76H49.1l-0.34-0.77h-1.58l-0.34,0.77H46.5l1.32-2.93h0.31L49.45,56.76z M47.97,54.21l-0.66,1.48
		h1.32L47.97,54.21z"/>
	<path class="st3" d="M51.09,55.15c0.65,0.14,0.95,0.38,0.95,0.83c0,0.5-0.41,0.83-0.99,0.83c-0.46,0-0.84-0.15-1.19-0.46l0.2-0.24
		c0.3,0.27,0.59,0.41,1,0.41c0.39,0,0.65-0.2,0.65-0.5c0-0.27-0.14-0.43-0.75-0.56c-0.67-0.14-0.98-0.36-0.98-0.84
		c0-0.46,0.4-0.8,0.96-0.8c0.42,0,0.73,0.12,1.02,0.36l-0.19,0.25c-0.27-0.22-0.54-0.32-0.84-0.32c-0.38,0-0.62,0.21-0.62,0.47
		C50.3,54.86,50.45,55.01,51.09,55.15z"/>
	<path class="st3" d="M55.25,56.76h-0.41l-1.12-1.41l-0.62,0.63v0.78h-0.33v-2.91h0.33v1.73l1.67-1.73h0.42l-1.24,1.27L55.25,56.76z
		"/>
	<path class="st3" d="M58.53,56.76h-0.35l-0.34-0.77h-1.58l-0.34,0.77h-0.34l1.32-2.93h0.31L58.53,56.76z M57.04,54.21l-0.66,1.48
		h1.32L57.04,54.21z"/>
	<path class="st3" d="M61.54,55.15c0.65,0.14,0.95,0.38,0.95,0.83c0,0.5-0.42,0.83-0.99,0.83c-0.46,0-0.84-0.15-1.19-0.46l0.2-0.24
		c0.3,0.27,0.59,0.41,1,0.41c0.39,0,0.65-0.2,0.65-0.5c0-0.27-0.15-0.43-0.76-0.56c-0.67-0.14-0.98-0.36-0.98-0.84
		c0-0.46,0.4-0.8,0.96-0.8c0.42,0,0.73,0.12,1.02,0.36l-0.19,0.25c-0.27-0.22-0.54-0.32-0.84-0.32c-0.38,0-0.62,0.21-0.62,0.47
		C60.75,54.86,60.9,55.01,61.54,55.15z"/>
	<path class="st3" d="M64.26,56.76h-0.33v-2.6h-0.98v-0.3h2.28v0.3h-0.98V56.76z"/>
	<path class="st3" d="M65.43,56.76v-0.44h0.38v0.44H65.43z"/>
</g>
<g>
	<path class="st3" d="M116.77,38.91v0.35L116,39.61v1.58l0.77,0.34v0.34l-2.93-1.32v-0.31L116.77,38.91z M114.22,40.4l1.48,0.66
		v-1.32L114.22,40.4z"/>
	<path class="st3" d="M113.86,38.27v-0.33h2.6V36.3h0.3v1.96H113.86z"/>
	<path class="st3" d="M115.74,34.59v0.71h1.03v0.33h-2.91v-1.09c0-0.66,0.35-1.09,0.93-1.09C115.42,33.45,115.74,33.97,115.74,34.59
		z M114.16,34.56v0.73h1.28v-0.72c0-0.48-0.26-0.8-0.64-0.8C114.38,33.78,114.16,34.09,114.16,34.56z"/>
	<path class="st3" d="M115.46,32.45h1.31v0.33h-2.91v-0.33h1.29v-1.68h-1.29v-0.33h2.91v0.33h-1.31V32.45z"/>
	<path class="st3" d="M116.77,26.84v0.35L116,27.53v1.58l0.77,0.34v0.34l-2.93-1.32v-0.31L116.77,26.84z M114.22,28.32l1.48,0.66
		v-1.32L114.22,28.32z"/>
	<path class="st3" d="M116.77,22.17v0.35L116,22.86v1.58l0.77,0.34v0.34l-2.93-1.32v-0.31L116.77,22.17z M114.22,23.65l1.48,0.66
		v-1.32L114.22,23.65z"/>
	<path class="st3" d="M113.86,19.74v-0.35l2.93,1.25v0.29l-2.93,1.25v-0.37l2.5-1.03L113.86,19.74z"/>
	<path class="st3" d="M114.16,16.64v1.77h0.99v-1.59h0.3v1.59h1.02v-1.79h0.3v2.12h-2.91v-2.1H114.16z"/>
	<path class="st3" d="M116.77,15.98h-0.44v-0.38h0.44V15.98z"/>
</g>
<g>
	<polygon class="st4" points="89.89,11.97 89.89,15.21 87.41,15.21 87.41,11.97 70.86,11.97 70.86,15.21 67.98,15.21 67.98,11.97 
		51.43,11.97 51.43,15.21 48.55,15.21 48.55,11.97 31.99,11.97 31.99,15.21 29.26,15.21 29.26,11.97 12.71,11.97 12.71,15.21 
		9.98,15.21 9.98,11.97 6.91,11.97 6.91,24.54 6.91,28.86 0.12,28.86 0.12,44.04 6.91,44.04 7.6,44.04 18.21,44.04 18.21,45.23 
		26.07,45.23 26.07,44.04 37.64,44.04 37.64,45.23 45.5,45.23 45.5,44.04 57.07,44.04 57.07,45.23 64.94,45.23 64.94,44.04 
		76.51,44.04 76.51,45.23 84.37,45.23 84.37,44.04 95.94,44.04 95.94,45.23 104.28,45.23 104.28,40.57 104.28,25.88 104.28,24.42 
		106.44,24.42 106.44,11.97 	"/>
	<polygon class="st4" points="104.29,25.88 104.29,40.57 95.95,40.57 95.95,44.04 84.38,44.04 84.38,40.57 84.65,40.57 84.65,28.97 
		85.34,28.97 95.3,28.97 95.3,25.88 	"/>
	<polygon class="st4" points="85.33,25.88 85.33,28.97 84.64,28.97 84.64,40.57 84.37,40.57 76.51,40.57 76.51,44.04 64.94,44.04 
		64.94,40.57 65.21,40.57 65.21,28.97 65.9,28.97 75.86,28.97 75.86,25.88 	"/>
	<polygon class="st1" points="65.91,25.88 65.91,28.97 65.22,28.97 65.22,40.57 64.95,40.57 57.08,40.57 57.08,44.04 45.51,44.04 
		45.51,40.57 45.79,40.57 45.79,28.97 46.47,28.97 56.43,28.97 56.43,25.88 	"/>
	<polygon class="st1" points="46.47,25.88 46.47,28.97 45.79,28.97 45.79,40.57 45.51,40.57 37.65,40.57 37.65,44.04 26.08,44.04 
		26.08,40.57 26.36,40.57 26.36,28.97 27.04,28.97 37,28.97 37,25.88 	"/>
	<polygon class="st4" points="27.04,25.88 27.04,28.97 26.36,28.97 26.36,40.57 26.08,40.57 18.22,40.57 18.22,44.04 7.61,44.04 
		6.92,44.04 6.92,40.68 6.92,32.76 6.92,28.86 17.57,28.86 17.57,25.88 	"/>
	<line class="st5" x1="104.29" y1="25.88" x2="104.29" y2="24.42"/>
	<line class="st5" x1="85.33" y1="25.88" x2="85.33" y2="24.42"/>
	<line class="st5" x1="65.91" y1="25.88" x2="65.91" y2="24.42"/>
	<line class="st5" x1="46.47" y1="25.88" x2="46.47" y2="24.42"/>
	<line class="st5" x1="27.04" y1="25.88" x2="27.04" y2="24.42"/>
	<line class="st5" x1="6.92" y1="28.86" x2="6.92" y2="24.54"/>
	<line class="st5" x1="9.99" y1="15.21" x2="12.72" y2="15.21"/>
	<line class="st5" x1="29.27" y1="15.21" x2="32" y2="15.21"/>
	<line class="st5" x1="48.56" y1="15.21" x2="51.44" y2="15.21"/>
	<line class="st5" x1="67.99" y1="15.21" x2="70.87" y2="15.21"/>
	<line class="st5" x1="87.41" y1="15.21" x2="89.89" y2="15.21"/>
	<polyline class="st5" points="18.22,44.04 18.22,45.23 26.08,45.23 26.08,44.04 	"/>
	<polyline class="st5" points="37.64,44.04 37.64,45.23 45.5,45.23 45.5,44.04 	"/>
	<polyline class="st5" points="57.08,44.04 57.08,45.23 64.95,45.23 64.95,44.04 	"/>
	<polyline class="st5" points="76.52,44.04 76.52,45.23 84.38,45.23 84.38,44.04 	"/>
	<polyline class="st5" points="95.95,44.04 95.95,45.23 104.29,45.23 104.29,40.57 	"/>
	<polygon class="st5" points="31.99,15.21 31.99,11.97 48.55,11.97 48.55,15.21 48.55,24.42 46.46,24.42 45.5,24.42 45.5,17.79 
		31.99,17.79 	"/>
	<polygon class="st5" points="51.43,15.21 51.43,11.97 67.98,11.97 67.98,15.21 67.98,24.42 65.9,24.42 64.93,24.42 64.93,17.79 
		51.43,17.79 	"/>
	<polygon class="st5" points="70.87,15.21 70.87,11.97 87.42,11.97 87.42,15.21 87.42,24.42 85.34,24.42 84.38,24.42 84.38,17.79 
		70.87,17.79 	"/>
	<polygon class="st5" points="89.89,15.21 89.89,11.97 106.44,11.97 106.44,24.42 104.28,24.42 103.39,24.42 103.39,17.79 
		89.89,17.79 	"/>
	<polygon class="st5" points="12.72,15.21 12.72,11.97 29.27,11.97 29.27,15.21 29.27,24.42 27.04,24.42 26.23,24.42 26.23,17.79 
		12.72,17.79 	"/>
	<polygon class="st5" points="6.92,24.54 9.99,24.54 9.99,15.21 9.99,11.97 6.92,11.97 	"/>
	<line class="st5" x1="3.53" y1="32.76" x2="6.92" y2="32.76"/>
	<line class="st5" x1="3.53" y1="40.68" x2="6.92" y2="40.68"/>
	<polyline class="st5" points="84.37,40.57 84.37,44.04 95.94,44.04 95.94,40.57 104.28,40.57 104.28,25.88 95.29,25.88 
		95.29,28.97 85.33,28.97 	"/>
	<polyline class="st5" points="64.95,40.57 64.95,44.04 76.52,44.04 76.52,40.57 84.38,40.57 84.65,40.57 84.65,28.97 85.34,28.97 
		85.34,25.88 75.87,25.88 75.87,28.97 65.91,28.97 	"/>
	<polyline class="st5" points="45.51,40.57 45.51,44.04 57.08,44.04 57.08,40.57 64.95,40.57 65.22,40.57 65.22,28.97 65.91,28.97 
		65.91,25.88 56.43,25.88 56.43,28.97 46.47,28.97 	"/>
	<polyline class="st5" points="26.08,40.57 26.08,44.04 37.65,44.04 37.65,40.57 45.51,40.57 45.79,40.57 45.79,28.97 46.47,28.97 
		46.47,25.88 37,25.88 37,28.97 27.04,28.97 	"/>
	<polyline class="st5" points="6.92,44.04 7.6,44.04 18.21,44.04 18.21,40.57 26.07,40.57 26.35,40.57 26.35,28.97 27.03,28.97 
		27.03,25.88 17.56,25.88 17.56,28.86 6.92,28.86 	"/>
	<polygon class="st5" points="6.92,44.04 0.12,44.04 0.12,28.86 6.92,28.86 6.92,32.76 6.92,40.68 	"/>
	<line class="st5" x1="3.53" y1="40.68" x2="3.53" y2="32.76"/>
</g>
</svg>
