<?xml version="1.0" encoding="utf-8"?>
<!-- Generator: Adobe Illustrator 25.2.0, SVG Export Plug-In . SVG Version: 6.00 Build 0)  -->
<svg version="1.1" id="Layer_1" xmlns="http://www.w3.org/2000/svg" xmlns:xlink="http://www.w3.org/1999/xlink" x="0px" y="0px"
	 viewBox="0 0 104.05 94.78" style="enable-background:new 0 0 104.05 94.78;" xml:space="preserve">
<style type="text/css">
	.st0{fill:#245169;}
	.st1{fill:#FFFFFF;}
	.st2{fill:#00516B;}
	.st3{fill:none;stroke:#00516B;stroke-width:0;stroke-linecap:round;stroke-miterlimit:10;}
</style>
<g>
	<g>
		<path class="st0" d="M40.63,77.67h-0.35l-0.34-0.77h-1.58l-0.34,0.77h-0.34L39,74.74h0.31L40.63,77.67z M39.15,75.12l-0.66,1.48
			h1.32L39.15,75.12z"/>
		<path class="st0" d="M41.28,74.76h0.33v2.6h1.64v0.3h-1.96V74.76z"/>
		<path class="st0" d="M46.63,77.67h-0.35l-0.34-0.77h-1.58l-0.34,0.77h-0.34L45,74.74h0.31L46.63,77.67z M45.15,75.12l-0.66,1.48
			h1.32L45.15,75.12z"/>
		<path class="st0" d="M48.26,76.06c0.65,0.14,0.95,0.38,0.95,0.83c0,0.5-0.42,0.83-0.99,0.83c-0.46,0-0.84-0.15-1.19-0.46l0.2-0.24
			c0.3,0.27,0.59,0.41,1,0.41c0.39,0,0.65-0.2,0.65-0.5c0-0.27-0.15-0.43-0.76-0.56c-0.67-0.14-0.98-0.36-0.98-0.84
			c0-0.46,0.4-0.8,0.96-0.8c0.42,0,0.73,0.12,1.02,0.36l-0.19,0.25c-0.27-0.22-0.54-0.32-0.84-0.32c-0.38,0-0.62,0.21-0.62,0.47
			C47.47,75.77,47.62,75.92,48.26,76.06z"/>
		<path class="st0" d="M52.42,77.67h-0.41l-1.12-1.41l-0.62,0.63v0.78h-0.33v-2.91h0.33v1.73l1.67-1.73h0.42l-1.25,1.27L52.42,77.67
			z"/>
		<path class="st0" d="M55.7,77.67h-0.35L55,76.9h-1.58l-0.34,0.77h-0.34l1.32-2.93h0.31L55.7,77.67z M54.21,75.12l-0.66,1.48h1.32
			L54.21,75.12z"/>
		<path class="st0" d="M58.71,76.06c0.65,0.14,0.95,0.38,0.95,0.83c0,0.5-0.42,0.83-0.99,0.83c-0.46,0-0.84-0.15-1.19-0.46l0.2-0.24
			c0.3,0.27,0.59,0.41,1,0.41c0.39,0,0.65-0.2,0.65-0.5c0-0.27-0.15-0.43-0.76-0.56c-0.67-0.14-0.98-0.36-0.98-0.84
			c0-0.46,0.4-0.8,0.96-0.8c0.42,0,0.73,0.12,1.02,0.36l-0.19,0.25c-0.27-0.22-0.54-0.32-0.84-0.32c-0.38,0-0.62,0.21-0.62,0.47
			C57.92,75.77,58.07,75.92,58.71,76.06z"/>
		<path class="st0" d="M61.43,77.67H61.1v-2.6h-0.98v-0.3h2.28v0.3h-0.98V77.67z"/>
		<path class="st0" d="M62.6,77.67v-0.44h0.38v0.44H62.6z"/>
	</g>
	<g>
		<rect x="7.72" y="12.65" class="st1" width="15.45" height="6.36"/>
	</g>
	<g>
		<rect x="53.93" y="18.8" class="st1" width="7.42" height="5.4"/>
	</g>
	<g>
		<rect x="80.11" y="14.97" class="st1" width="6.18" height="20.44"/>
	</g>
	<g>
		<rect x="32.46" y="58.58" class="st1" width="58.66" height="6.18"/>
	</g>
	<g>
		<rect x="0.12" y="42.6" class="st1" width="6.17" height="19.79"/>
	</g>
	<g>
		<polygon class="st2" points="31.44,42.92 31.44,59 30.77,59 6.29,59 5.88,59 5.88,42.6 5.88,40.44 11.11,40.44 11.11,41.11 
			27.08,41.11 31.44,41.11 		"/>
	</g>
	<g>
		<polygon class="st1" points="46.86,42.03 46.86,60.44 32.45,60.44 30.77,60.44 30.77,59 31.44,59 31.44,42.92 35.69,42.92 
			35.69,42.03 		"/>
	</g>
	<g>
		<polygon class="st1" points="62.27,60.44 46.86,60.44 46.86,42.03 62.27,42.03 62.27,44.64 62.27,59 62.96,59 62.96,60.44 		"/>
	</g>
	<g>
		<polygon class="st1" points="67.9,45.67 74.28,45.67 74.28,51.57 77.35,51.57 77.35,59 62.96,59 62.27,59 62.27,44.64 67.9,44.64 
					"/>
	</g>
	<g>
		<polygon class="st1" points="87.71,58.58 87.71,59 77.35,59 77.35,51.57 74.28,51.57 74.28,45.67 67.9,45.67 67.9,44.64 
			67.9,41.11 80.52,41.11 80.52,40.44 87.71,40.44 		"/>
	</g>
	<g>
		<polygon class="st1" points="80.52,40.44 80.52,41.11 67.9,41.11 67.03,41.11 67.03,37.1 62.27,37.1 62.27,31.42 61.7,31.42 
			61.7,24.2 61.35,24.2 61.35,18.8 61.35,18.59 80.1,18.59 80.52,18.59 80.52,35.41 		"/>
	</g>
	<g>
		<polygon class="st1" points="28.12,15.79 53.93,15.79 53.93,18.8 53.93,24.2 44.1,24.2 39.87,24.2 39.87,31.42 39.87,36.37 
			35.46,36.37 35.46,34.77 29.46,34.77 29.46,18.59 28.12,18.59 		"/>
	</g>
	<g>
		<polygon class="st1" points="29.46,37.08 29.46,37.28 27.08,37.28 27.08,41.11 11.11,41.11 11.11,40.44 11.11,19.01 11.11,18.59 
			23.17,18.59 28.12,18.59 29.46,18.59 29.46,34.77 		"/>
	</g>
	<g>
		<path class="st2" d="M62.96,60.56h-16.1c-0.07,0-0.12-0.06-0.12-0.12s0.06-0.12,0.12-0.12h15.98V59c0-0.07,0.06-0.12,0.12-0.12
			s0.12,0.06,0.12,0.12v1.44C63.09,60.51,63.03,60.56,62.96,60.56z"/>
	</g>
	<g>
		<path class="st2" d="M62.27,44.76c-0.07,0-0.12-0.06-0.12-0.12v-2.49H46.86c-0.07,0-0.12-0.06-0.12-0.12s0.06-0.12,0.12-0.12
			h15.41c0.07,0,0.12,0.06,0.12,0.12v2.61C62.4,44.71,62.34,44.76,62.27,44.76z"/>
	</g>
	<g>
		<path class="st2" d="M57.47,37.22c-0.03,0-0.06-0.01-0.08-0.03l-6.61-5.61l-6.6,5.61c-0.05,0.04-0.13,0.04-0.18-0.01
			c-0.04-0.05-0.04-0.13,0.01-0.18l6.68-5.68c0.05-0.04,0.12-0.04,0.16,0L57.56,37c0.05,0.04,0.06,0.12,0.01,0.18
			C57.54,37.21,57.51,37.22,57.47,37.22z"/>
	</g>
	<g>
		<path class="st2" d="M50.78,37.22c-0.03,0-0.06-0.01-0.08-0.03l-6.68-5.68c-0.05-0.04-0.06-0.12-0.01-0.18
			c0.05-0.05,0.12-0.06,0.18-0.01l6.6,5.61l6.61-5.61c0.05-0.04,0.13-0.04,0.18,0.01s0.04,0.13-0.01,0.18l-6.69,5.68
			C50.84,37.21,50.81,37.22,50.78,37.22z"/>
	</g>
	<g>
		<path class="st2" d="M50.78,37.22c-0.07,0-0.12-0.06-0.12-0.12v-5.68c0-0.07,0.06-0.12,0.12-0.12s0.12,0.06,0.12,0.12v5.68
			C50.91,37.17,50.85,37.22,50.78,37.22z"/>
	</g>
	<g>
		<path class="st2" d="M61.35,18.92h-7.42c-0.07,0-0.12-0.06-0.12-0.12s0.06-0.12,0.12-0.12h7.42c0.07,0,0.12,0.06,0.12,0.12
			S61.42,18.92,61.35,18.92z"/>
	</g>
	<g>
		<path class="st2" d="M6.29,62.51H0.12C0.06,62.51,0,62.46,0,62.39V42.6c0-0.07,0.06-0.12,0.12-0.12h5.76
			c0.07,0,0.12,0.06,0.12,0.12s-0.06,0.12-0.12,0.12H0.25v19.54h5.92V59c0-0.07,0.06-0.12,0.12-0.12S6.42,58.93,6.42,59v3.39
			C6.42,62.46,6.36,62.51,6.29,62.51z"/>
	</g>
	<g>
		<path class="st2" d="M91.11,64.88H32.45c-0.07,0-0.12-0.06-0.12-0.12v-4.32c0-0.07,0.06-0.12,0.12-0.12s0.12,0.06,0.12,0.12v4.2
			h58.41V58.7h-3.27c-0.07,0-0.12-0.06-0.12-0.12s0.06-0.12,0.12-0.12h3.4c0.07,0,0.12,0.06,0.12,0.12v6.18
			C91.24,64.83,91.18,64.88,91.11,64.88z"/>
	</g>
	<g>
		<path class="st2" d="M11.11,19.13H7.72c-0.07,0-0.12-0.06-0.12-0.12v-6.17c0-0.07,0.06-0.12,0.12-0.12h15.45
			c0.07,0,0.12,0.06,0.12,0.12v5.75c0,0.07-0.06,0.12-0.12,0.12s-0.12-0.06-0.12-0.12v-5.62H7.85v5.92h3.27
			c0.07,0,0.12,0.06,0.12,0.12S11.18,19.13,11.11,19.13z"/>
	</g>
	<g>
		<path class="st2" d="M86.28,35.53h-5.76c-0.07,0-0.12-0.06-0.12-0.12s0.06-0.12,0.12-0.12h5.64V15.32h-5.93v3.26
			c0,0.07-0.06,0.12-0.12,0.12s-0.12-0.06-0.12-0.12V15.2c0-0.07,0.06-0.12,0.12-0.12h6.18c0.07,0,0.12,0.06,0.12,0.12v20.21
			C86.41,35.48,86.35,35.53,86.28,35.53z"/>
	</g>
	<g>
		<path class="st2" d="M46.86,64.88c-0.07,0-0.12-0.06-0.12-0.12v-4.32c0-0.07,0.06-0.12,0.12-0.12s0.12,0.06,0.12,0.12v4.32
			C46.99,64.83,46.93,64.88,46.86,64.88z"/>
	</g>
	<g>
		<path class="st2" d="M62.27,64.88c-0.07,0-0.12-0.06-0.12-0.12v-4.32c0-0.07,0.06-0.12,0.12-0.12s0.12,0.06,0.12,0.12v4.32
			C62.4,64.83,62.34,64.88,62.27,64.88z"/>
	</g>
	<g>
		<path class="st2" d="M44.1,31.54c-0.07,0-0.12-0.06-0.12-0.12V24.2c0-0.07,0.06-0.12,0.12-0.12s0.12,0.06,0.12,0.12v7.22
			C44.23,31.49,44.17,31.54,44.1,31.54z"/>
	</g>
	<g>
		<path class="st2" d="M57.47,31.54c-0.07,0-0.12-0.06-0.12-0.12V24.2c0-0.07,0.06-0.12,0.12-0.12s0.12,0.06,0.12,0.12v7.22
			C57.6,31.49,57.54,31.54,57.47,31.54z"/>
	</g>
	<g>
		<path class="st2" d="M77.35,64.88c-0.07,0-0.12-0.06-0.12-0.12V59c0-0.07,0.06-0.12,0.12-0.12s0.12,0.06,0.12,0.12v5.76
			C77.48,64.83,77.42,64.88,77.35,64.88z"/>
	</g>
	<g>
		<path class="st2" d="M44.1,31.54h-4.23c-0.07,0-0.12-0.06-0.12-0.12s0.06-0.12,0.12-0.12h4.23c0.07,0,0.12,0.06,0.12,0.12
			S44.17,31.54,44.1,31.54z"/>
	</g>
	<g>
		<path class="st2" d="M61.7,31.54h-4.23c-0.07,0-0.12-0.06-0.12-0.12s0.06-0.12,0.12-0.12h4.23c0.07,0,0.12,0.06,0.12,0.12
			S61.77,31.54,61.7,31.54z"/>
	</g>
	<g>
		<path class="st2" d="M61.35,24.32h-7.42c-0.07,0-0.12-0.06-0.12-0.12s0.06-0.12,0.12-0.12h7.42c0.07,0,0.12,0.06,0.12,0.12
			S61.42,24.32,61.35,24.32z"/>
	</g>
	<g>
		<path class="st2" d="M57.47,37.22H44.1c-0.07,0-0.12-0.06-0.12-0.12v-5.68c0-0.07,0.06-0.12,0.12-0.12h13.37
			c0.07,0,0.12,0.06,0.12,0.12v5.68C57.6,37.17,57.54,37.22,57.47,37.22z M44.23,36.97h13.12v-5.43H44.23V36.97z"/>
	</g>
	<g>
		<path class="st2" d="M67.9,41.23h-0.87c-0.07,0-0.12-0.06-0.12-0.12v-3.88h-4.63c-0.07,0-0.12-0.06-0.12-0.12v-5.55H61.7
			c-0.07,0-0.12-0.06-0.12-0.12v-7.1h-0.23c-0.07,0-0.12-0.06-0.12-0.12v-5.61c0-0.07,0.06-0.12,0.12-0.12h19.17
			c0.07,0,0.12,0.06,0.12,0.12v21.85c0,0.07-0.06,0.12-0.12,0.12s-0.12-0.06-0.12-0.12V18.71H61.48v5.36h0.23
			c0.07,0,0.12,0.06,0.12,0.12v7.1h0.44c0.07,0,0.12,0.06,0.12,0.12v5.55h4.63c0.07,0,0.12,0.06,0.12,0.12v3.88h0.75
			c0.07,0,0.12,0.06,0.12,0.12S67.97,41.23,67.9,41.23z"/>
	</g>
	<g>
		<path class="st2" d="M35.69,42.15c-0.07,0-0.12-0.06-0.12-0.12v-1.42h-4v0.49c0,0.07-0.06,0.12-0.12,0.12s-0.12-0.06-0.12-0.12
			v-0.62c0-0.07,0.06-0.12,0.12-0.12h4.25c0.07,0,0.12,0.06,0.12,0.12v1.54C35.82,42.1,35.76,42.15,35.69,42.15z"/>
	</g>
	<g>
		<path class="st2" d="M46.86,60.56H30.77c-0.07,0-0.12-0.06-0.12-0.12V59c0-0.07,0.06-0.12,0.12-0.12S30.9,58.93,30.9,59v1.32
			h15.84V42.15H35.82v0.77c0,0.07-0.06,0.12-0.12,0.12h-4.25c-0.07,0-0.12-0.06-0.12-0.12s0.06-0.12,0.12-0.12h4.12v-0.77
			c0-0.07,0.06-0.12,0.12-0.12h11.17c0.07,0,0.12,0.06,0.12,0.12v18.41C46.99,60.51,46.93,60.56,46.86,60.56z"/>
	</g>
	<g>
		<path class="st2" d="M31.44,59.12H5.88c-0.07,0-0.12-0.06-0.12-0.12V40.44c0-0.07,0.06-0.12,0.12-0.12h5.23
			c0.07,0,0.12,0.06,0.12,0.12s-0.06,0.12-0.12,0.12h-5.1v18.31h25.31V41.23h-4.24c-0.07,0-0.12-0.06-0.12-0.12s0.06-0.12,0.12-0.12
			h4.36c0.07,0,0.12,0.06,0.12,0.12V59C31.57,59.07,31.51,59.12,31.44,59.12z"/>
	</g>
	<g>
		<path class="st2" d="M35.46,37.2h-6c-0.07,0-0.12-0.06-0.12-0.12s0.06-0.12,0.12-0.12h5.88v-0.58c0-0.07,0.06-0.12,0.12-0.12
			s0.12,0.06,0.12,0.12v0.71C35.59,37.15,35.53,37.2,35.46,37.2z"/>
	</g>
	<g>
		<path class="st2" d="M39.87,36.49h-4.41c-0.07,0-0.12-0.06-0.12-0.12v-1.47h-5.88c-0.07,0-0.12-0.06-0.12-0.12
			s0.06-0.12,0.12-0.12h6c0.07,0,0.12,0.06,0.12,0.12v1.47h4.16V24.2c0-0.07,0.06-0.12,0.12-0.12h13.93v-8.16H28.25v2.67
			c0,0.07-0.06,0.12-0.12,0.12S28,18.66,28,18.59v-2.8c0-0.07,0.06-0.12,0.12-0.12h25.81c0.07,0,0.12,0.06,0.12,0.12v8.41
			c0,0.07-0.06,0.12-0.12,0.12H40v12.04C40,36.44,39.94,36.49,39.87,36.49z"/>
	</g>
	<g>
		<path class="st2" d="M27.08,41.23H11.11c-0.07,0-0.12-0.06-0.12-0.12V18.59c0-0.07,0.06-0.12,0.12-0.12h18.35
			c0.07,0,0.12,0.06,0.12,0.12v18.69c0,0.07-0.06,0.12-0.12,0.12h-2.25v3.71C27.21,41.18,27.15,41.23,27.08,41.23z M11.24,40.98
			h15.72v-3.71c0-0.07,0.06-0.12,0.12-0.12h2.25V18.71h-18.1V40.98z"/>
	</g>
	<g>
		<path class="st2" d="M57.47,27.93H44.1c-0.07,0-0.12-0.06-0.12-0.12s0.06-0.12,0.12-0.12h13.37c0.07,0,0.12,0.06,0.12,0.12
			S57.54,27.93,57.47,27.93z"/>
	</g>
	<g>
		<path class="st2" d="M87.71,59.12H77.35c-0.07,0-0.12-0.06-0.12-0.12s0.06-0.12,0.12-0.12h10.23V40.56h-6.94v0.54
			c0,0.07-0.06,0.12-0.12,0.12h-12.5v3.41c0,0.07-0.06,0.12-0.12,0.12s-0.12-0.06-0.12-0.12v-3.53c0-0.07,0.06-0.12,0.12-0.12h12.5
			v-0.54c0-0.07,0.06-0.12,0.12-0.12h7.19c0.07,0,0.12,0.06,0.12,0.12V59C87.84,59.07,87.78,59.12,87.71,59.12z"/>
	</g>
	<g>
		<path class="st2" d="M77.35,59.12H62.27c-0.07,0-0.12-0.06-0.12-0.12V44.64c0-0.07,0.06-0.12,0.12-0.12h5.63
			c0.07,0,0.12,0.06,0.12,0.12v0.91h6.25c0.07,0,0.12,0.06,0.12,0.12v5.77h2.95c0.07,0,0.12,0.06,0.12,0.12V59
			C77.48,59.07,77.42,59.12,77.35,59.12z M62.4,58.87h14.83v-7.18h-2.95c-0.07,0-0.12-0.06-0.12-0.12v-5.77H67.9
			c-0.07,0-0.12-0.06-0.12-0.12v-0.91H62.4V58.87z"/>
	</g>
	<g>
		<path class="st2" d="M81.49,94.77c-0.14,0-0.26-0.12-0.26-0.26V82.78c0-0.14,0.12-0.26,0.26-0.26s0.26,0.12,0.26,0.26v11.73
			C81.75,94.66,81.64,94.77,81.49,94.77z"/>
	</g>
	<g>
		<path class="st2" d="M86.97,89.56c-0.06,0-0.13-0.02-0.18-0.07l-5.48-5.22c-0.1-0.1-0.11-0.26-0.01-0.37s0.26-0.11,0.37-0.01
			l5.48,5.22c0.1,0.1,0.11,0.26,0.01,0.37C87.11,89.53,87.04,89.56,86.97,89.56z"/>
	</g>
	<g>
		<path class="st2" d="M81.49,82.78l5.48,6.52l-5.48-5.21V82.78z M87.49,88.78l-6-6l5.48,6.52L87.49,88.78z"/>
	</g>
	<g>
		<path class="st3" d="M81.49,82.78l5.48,6.52l-5.48-5.21V82.78z M87.49,88.78l-6-6l5.48,6.52L87.49,88.78z"/>
	</g>
	<g>
		<g>
			<path class="st2" d="M81.62,94.78c-3.38,0-6.13-2.75-6.13-6.13s2.75-6.13,6.13-6.13s6.13,2.75,6.13,6.13S85,94.78,81.62,94.78z
				 M81.62,83.04c-3.09,0-5.61,2.52-5.61,5.61s2.51,5.61,5.61,5.61s5.61-2.52,5.61-5.61S84.71,83.04,81.62,83.04z"/>
		</g>
		<g>
			<path class="st2" d="M75.76,89.04c-0.06,0-0.13-0.02-0.18-0.07c-0.1-0.1-0.11-0.26-0.01-0.37l5.74-6
				c0.1-0.11,0.27-0.11,0.37-0.01c0.1,0.1,0.11,0.26,0.01,0.37l-5.74,6C75.89,89.01,75.83,89.04,75.76,89.04z"/>
		</g>
		<g>
			<path class="st2" d="M76.28,89.56c-0.07,0-0.13-0.03-0.18-0.08c-0.1-0.1-0.1-0.27,0-0.37l5.21-5.22c0.1-0.1,0.27-0.1,0.37,0
				c0.1,0.1,0.1,0.27,0,0.37l-5.21,5.22C76.41,89.54,76.35,89.56,76.28,89.56z"/>
		</g>
		<g>
			<path class="st2" d="M81.49,82.78l-5.21,6.52l5.21-5.21V82.78z M75.76,88.78l5.74-6l-5.21,6.52L75.76,88.78z"/>
		</g>
		<g>
			<path class="st3" d="M81.49,82.78l-5.21,6.52l5.21-5.21V82.78z M75.76,88.78l5.74-6l-5.21,6.52L75.76,88.78z"/>
		</g>
	</g>
	<g>
		<path class="st0" d="M38.34,0.06h0.36v2.89h1.82v0.34h-2.18V0.06z"/>
		<path class="st0" d="M43.61,0.39h-1.97v1.1h1.76v0.33h-1.76v1.13h1.99v0.33h-2.35V0.06h2.33V0.39z"/>
		<path class="st0" d="M46.89,0.06h0.39L45.9,3.3h-0.32l-1.39-3.25h0.41l1.15,2.78L46.89,0.06z"/>
		<path class="st0" d="M50.34,0.39h-1.97v1.1h1.76v0.33h-1.76v1.13h1.99v0.33h-2.35V0.06h2.33V0.39z"/>
		<path class="st0" d="M51.19,0.06h0.36v2.89h1.82v0.34h-2.18V0.06z"/>
		<path class="st0" d="M55.55,0.38V0.06h2.06v0.27L56.6,1.45c0.57,0.05,1.06,0.32,1.06,0.91c0,0.58-0.48,0.98-1.08,0.98
			c-0.54,0-0.94-0.24-1.2-0.58l0.26-0.24C55.89,2.83,56.19,3,56.59,3c0.39,0,0.7-0.25,0.7-0.63c0-0.41-0.37-0.63-0.9-0.63h-0.21
			l-0.07-0.22l1.02-1.15H55.55z"/>
		<path class="st0" d="M58.37,2.08V1.71h1.28v0.37H58.37z"/>
		<path class="st0" d="M60.82,0.03h0.27v3.25h-0.36V0.41L60.12,0.6L60.04,0.3L60.82,0.03z"/>
		<path class="st0" d="M63.01,3.34c-0.42,0-0.72-0.17-1-0.4l0.21-0.28C62.49,2.89,62.73,3,63.02,3c0.58,0,0.97-0.59,0.96-1.42
			c-0.18,0.28-0.47,0.52-0.91,0.52c-0.66,0-1.12-0.42-1.12-1c0-0.62,0.47-1.1,1.16-1.1c0.37,0,0.64,0.12,0.85,0.33
			c0.25,0.25,0.4,0.6,0.4,1.25C64.35,2.61,63.81,3.34,63.01,3.34z M63.09,0.32c-0.48,0-0.77,0.35-0.77,0.76
			c0,0.42,0.32,0.71,0.79,0.71c0.49,0,0.8-0.36,0.8-0.73C63.91,0.65,63.57,0.32,63.09,0.32z"/>
	</g>
	<g>
		<path class="st0" d="M40.63,77.67h-0.35l-0.34-0.77h-1.58l-0.34,0.77h-0.34L39,74.74h0.31L40.63,77.67z M39.15,75.12l-0.66,1.48
			h1.32L39.15,75.12z"/>
		<path class="st0" d="M41.28,74.76h0.33v2.6h1.64v0.3h-1.96V74.76z"/>
		<path class="st0" d="M46.63,77.67h-0.35l-0.34-0.77h-1.58l-0.34,0.77h-0.34L45,74.74h0.31L46.63,77.67z M45.15,75.12l-0.66,1.48
			h1.32L45.15,75.12z"/>
		<path class="st0" d="M48.26,76.06c0.65,0.14,0.95,0.38,0.95,0.83c0,0.5-0.42,0.83-0.99,0.83c-0.46,0-0.84-0.15-1.19-0.46l0.2-0.24
			c0.3,0.27,0.59,0.41,1,0.41c0.39,0,0.65-0.2,0.65-0.5c0-0.27-0.15-0.43-0.76-0.56c-0.67-0.14-0.98-0.36-0.98-0.84
			c0-0.46,0.4-0.8,0.96-0.8c0.42,0,0.73,0.12,1.02,0.36l-0.19,0.25c-0.27-0.22-0.54-0.32-0.84-0.32c-0.38,0-0.62,0.21-0.62,0.47
			C47.47,75.77,47.62,75.92,48.26,76.06z"/>
		<path class="st0" d="M52.42,77.67h-0.41l-1.12-1.41l-0.62,0.63v0.78h-0.33v-2.91h0.33v1.73l1.67-1.73h0.42l-1.25,1.27L52.42,77.67
			z"/>
		<path class="st0" d="M55.7,77.67h-0.35L55,76.9h-1.58l-0.34,0.77h-0.34l1.32-2.93h0.31L55.7,77.67z M54.22,75.12l-0.66,1.48h1.32
			L54.22,75.12z"/>
		<path class="st0" d="M58.71,76.06c0.65,0.14,0.95,0.38,0.95,0.83c0,0.5-0.42,0.83-0.99,0.83c-0.46,0-0.84-0.15-1.19-0.46l0.2-0.24
			c0.3,0.27,0.59,0.41,1,0.41c0.39,0,0.65-0.2,0.65-0.5c0-0.27-0.15-0.43-0.76-0.56c-0.67-0.14-0.98-0.36-0.98-0.84
			c0-0.46,0.4-0.8,0.96-0.8c0.42,0,0.73,0.12,1.02,0.36l-0.19,0.25c-0.27-0.22-0.54-0.32-0.84-0.32c-0.38,0-0.62,0.21-0.62,0.47
			C57.92,75.77,58.07,75.92,58.71,76.06z"/>
		<path class="st0" d="M61.44,77.67H61.1v-2.6h-0.98v-0.3h2.28v0.3h-0.98V77.67z"/>
		<path class="st0" d="M62.6,77.67v-0.44h0.38v0.44H62.6z"/>
	</g>
	<g>
		<path class="st0" d="M104.03,48.11v0.35l-0.77,0.34v1.58l0.77,0.34v0.34l-2.93-1.32v-0.31L104.03,48.11z M101.48,49.59l1.48,0.66
			v-1.32L101.48,49.59z"/>
		<path class="st0" d="M101.12,47.46v-0.33h2.6V45.5h0.3v1.96H101.12z"/>
		<path class="st0" d="M103,43.78v0.71h1.03v0.33h-2.91v-1.09c0-0.66,0.35-1.09,0.93-1.09C102.68,42.64,103,43.16,103,43.78z
			 M101.42,43.75v0.73h1.28v-0.72c0-0.48-0.26-0.8-0.64-0.8C101.64,42.97,101.42,43.28,101.42,43.75z"/>
		<path class="st0" d="M102.72,41.64h1.31v0.33h-2.91v-0.33h1.29v-1.68h-1.29v-0.33h2.91v0.33h-1.31V41.64z"/>
		<path class="st0" d="M104.03,36.03v0.35l-0.77,0.34v1.58l0.77,0.34v0.34l-2.93-1.32v-0.31L104.03,36.03z M101.48,37.51l1.48,0.66
			v-1.32L101.48,37.51z"/>
		<path class="st0" d="M104.03,31.36v0.35l-0.77,0.34v1.58l0.77,0.34v0.34l-2.93-1.32v-0.31L104.03,31.36z M101.48,32.84l1.48,0.66
			v-1.32L101.48,32.84z"/>
		<path class="st0" d="M101.12,28.93v-0.35l2.93,1.25v0.29l-2.93,1.25V31l2.5-1.03L101.12,28.93z"/>
		<path class="st0" d="M101.42,25.83v1.77h0.99v-1.58h0.3v1.58h1.02v-1.79h0.3v2.12h-2.91v-2.1H101.42z"/>
		<path class="st0" d="M104.03,25.17h-0.44v-0.38h0.44V25.17z"/>
	</g>
</g>
</svg>
