<?xml version="1.0" encoding="utf-8"?>
<!-- Generator: Adobe Illustrator 25.2.0, SVG Export Plug-In . SVG Version: 6.00 Build 0)  -->
<svg version="1.1" id="Layer_1" xmlns="http://www.w3.org/2000/svg" xmlns:xlink="http://www.w3.org/1999/xlink" x="0px" y="0px"
	 viewBox="0 0 113.58 109.14" style="enable-background:new 0 0 113.58 109.14;" xml:space="preserve">
<style type="text/css">
	.st0{fill:#AABCCE;}
	.st1{fill:#041C2A;}
	.st2{enable-background:new    ;}
	.st3{clip-path:url(#SVGID_2_);}
	.st4{fill:#245169;}
	.st5{fill:#FFFFFF;}
	.st6{fill:#00516B;}
</style>
<g>
	<g>
		<g>
			<g>
				<polygon class="st0" points="87.69,87.01 83.86,93.67 91.38,93.75 				"/>
			</g>
			<g>
				<path class="st1" d="M87.87,92.93c4.28,0.05,7.7,3.54,7.65,7.81c-0.05,4.28-3.54,7.7-7.81,7.65c-4.28-0.05-7.7-3.54-7.65-7.81
					C80.09,96.33,83.6,92.88,87.87,92.93"/>
			</g>
		</g>
		<g class="st2">
			<path class="st0" d="M84.75,98.65c-0.01-0.51-0.07-0.86-0.51-1c-0.05-0.02-0.08-0.05-0.08-0.06c0-0.04,0.02-0.07,0.12-0.07
				s0.47,0.04,0.7,0.04c0.24,0,0.51-0.01,0.71-0.02c0.34,0.48,0.73,0.92,1.16,1.34l3.16,3.36v-3.16c0-0.81-0.28-1.2-0.53-1.35
				c-0.12-0.07-0.22-0.07-0.22-0.11c0-0.05,0.06-0.08,0.16-0.08c0.14,0,0.55,0.04,0.73,0.04c0.19,0,0.46-0.04,0.65-0.04
				c0.13,0,0.16,0.05,0.16,0.07s-0.05,0.06-0.14,0.11c-0.24,0.1-0.51,0.35-0.51,1.37v3.83c0,0.51-0.02,0.9-0.1,0.9h-0.02
				c-0.1,0-0.2-0.22-0.8-0.89c-1.16-1.33-2.85-3.24-4.34-4.67v3.85c0,0.96,0.28,1.25,0.48,1.37c0.13,0.08,0.2,0.08,0.2,0.13
				c0,0.02-0.02,0.04-0.07,0.04c-0.11,0-0.42-0.02-0.76-0.02c-0.19,0-0.72,0.02-0.83,0.02c-0.07,0-0.11-0.01-0.11-0.04
				c0-0.06,0.24-0.1,0.37-0.22c0.3-0.26,0.41-0.64,0.41-1.48C84.75,101.92,84.75,98.65,84.75,98.65z"/>
		</g>
	</g>
	<g>
		<g>
			<g>
				<g>
					<defs>
						
							<rect id="SVGID_1_" x="79.54" y="86.98" transform="matrix(0.9985 -0.0553 0.0553 0.9985 -5.2767 4.9965)" width="16.21" height="21.73"/>
					</defs>
					<clipPath id="SVGID_2_">
						<use xlink:href="#SVGID_1_"  style="overflow:visible;"/>
					</clipPath>
					<g class="st3">
						<path class="st0" d="M87.78,108.63c-1.98,0-3.85-0.71-5.34-2.05c-1.59-1.43-2.54-3.4-2.66-5.53c-0.12-2.14,0.6-4.19,2.04-5.79
							c1.43-1.6,3.4-2.54,5.53-2.66l0.01,0.29l-0.01-0.29c2.13-0.11,4.19,0.6,5.79,2.04c1.6,1.43,2.54,3.4,2.66,5.53
							s-0.6,4.19-2.04,5.79s-3.4,2.54-5.53,2.66C88.08,108.63,87.93,108.63,87.78,108.63z M87.8,93.17c-0.14,0-0.28,0-0.42,0.01
							c-1.99,0.11-3.81,0.99-5.13,2.47c-1.33,1.48-2,3.38-1.88,5.37c0.11,1.99,0.99,3.81,2.47,5.13c1.48,1.33,3.4,2,5.37,1.88
							c1.99-0.11,3.81-0.99,5.13-2.47c1.33-1.48,2-3.38,1.88-5.37c-0.11-1.99-0.99-3.81-2.47-5.13
							C91.38,93.85,89.63,93.17,87.8,93.17z"/>
					</g>
				</g>
			</g>
		</g>
	</g>
</g>
<g>
	<g>
		<g>
			<g>
				<path class="st4" d="M14.99,2.59h-0.94v1.37h-0.44V0.07h1.45c0.88,0,1.46,0.47,1.46,1.24C16.52,2.15,15.82,2.59,14.99,2.59z
					 M15.03,0.48h-0.98v1.71h0.96c0.64,0,1.07-0.34,1.07-0.86C16.08,0.76,15.66,0.48,15.03,0.48z"/>
				<path class="st4" d="M20.24,0.47h-2.37V1.8h2.12v0.4h-2.12v1.36h2.4v0.4h-2.84V0.07h2.81V0.47z"/>
				<path class="st4" d="M24.12,0.07h0.43v3.89H24.2l-2.51-3.19v3.19h-0.43V0.07h0.41l2.45,3.11V0.07z"/>
				<path class="st4" d="M27.23,3.96h-0.44V0.48h-1.31V0.07h3.05v0.41h-1.31V3.96z"/>
				<path class="st4" d="M29.91,2.21v1.75h-0.44V0.07h0.44V1.8h2.24V0.07h0.44v3.89h-0.44V2.21H29.91z"/>
				<path class="st4" d="M35.61,4.02c-1.18,0-1.98-0.93-1.98-2S34.43,0,35.62,0c1.18,0,1.98,0.93,1.98,2
					C37.59,3.09,36.79,4.02,35.61,4.02z M35.61,0.41c-0.89,0-1.52,0.71-1.52,1.6s0.64,1.61,1.53,1.61c0.89,0,1.52-0.71,1.52-1.6
					S36.49,0.41,35.61,0.41z"/>
				<path class="st4" d="M41.81,2.3c0,1.13-0.65,1.72-1.62,1.72c-0.96,0-1.62-0.59-1.62-1.69V0.07h0.44V2.3
					c0,0.84,0.44,1.31,1.19,1.31c0.72,0,1.17-0.43,1.17-1.28V0.07h0.44V2.3z"/>
				<path class="st4" d="M44.35,1.8c0.87,0.19,1.27,0.51,1.27,1.1c0,0.67-0.55,1.1-1.33,1.1c-0.62,0-1.12-0.21-1.59-0.62l0.27-0.32
					c0.41,0.37,0.79,0.55,1.33,0.55c0.52,0,0.87-0.27,0.87-0.67c0-0.37-0.19-0.57-1.01-0.74c-0.89-0.19-1.31-0.48-1.31-1.13
					c0-0.62,0.54-1.07,1.28-1.07c0.57,0,0.97,0.16,1.37,0.48l-0.26,0.34c-0.36-0.29-0.72-0.42-1.12-0.42c-0.5,0-0.83,0.28-0.83,0.63
					C43.29,1.41,43.49,1.62,44.35,1.8z"/>
				<path class="st4" d="M49.43,0.47h-2.37V1.8h2.12v0.4h-2.12v1.36h2.4v0.4h-2.84V0.07h2.81V0.47z"/>
				<path class="st4" d="M51.85,1.8c0.87,0.19,1.27,0.51,1.27,1.1c0,0.67-0.55,1.1-1.33,1.1c-0.62,0-1.12-0.21-1.59-0.62l0.27-0.32
					c0.41,0.37,0.79,0.55,1.33,0.55c0.52,0,0.87-0.27,0.87-0.67c0-0.37-0.19-0.57-1.01-0.74c-0.89-0.19-1.31-0.48-1.31-1.13
					c0-0.62,0.54-1.07,1.28-1.07c0.57,0,0.97,0.16,1.37,0.48l-0.26,0.34c-0.36-0.29-0.72-0.42-1.12-0.42c-0.5,0-0.83,0.28-0.83,0.63
					C50.79,1.41,50.99,1.62,51.85,1.8z"/>
				<path class="st4" d="M55.7,2.5V2.08h2.21V2.5H55.7z"/>
			</g>
			<g>
				<path class="st4" d="M63.17,0.82h-2.12v1.25h1.89v0.36h-1.89v1.53h-0.4v-3.5h2.52V0.82z"/>
				<path class="st4" d="M64.03,0.46h0.39v3.14h1.97v0.37h-2.37V0.46z"/>
				<path class="st4" d="M68.65,4.02c-1.06,0-1.78-0.83-1.78-1.81c0-0.97,0.72-1.82,1.79-1.82c1.07,0,1.78,0.83,1.78,1.81
					C70.45,3.17,69.72,4.02,68.65,4.02z M68.65,0.76c-0.8,0-1.37,0.64-1.37,1.44s0.58,1.45,1.38,1.45s1.37-0.64,1.37-1.44
					S69.45,0.76,68.65,0.76z"/>
				<path class="st4" d="M73,4.02c-1.06,0-1.78-0.83-1.78-1.81c0-0.97,0.72-1.82,1.79-1.82c1.06,0,1.78,0.83,1.78,1.81
					C74.79,3.17,74.07,4.02,73,4.02z M73,0.76c-0.8,0-1.37,0.64-1.37,1.44s0.58,1.45,1.38,1.45c0.8,0,1.37-0.64,1.37-1.44
					S73.8,0.76,73,0.76z"/>
				<path class="st4" d="M78.13,3.96L77.12,2.6h-1v1.36h-0.4v-3.5h1.51c0.77,0,1.27,0.41,1.27,1.05c0,0.58-0.4,0.92-0.95,1.02
					l1.07,1.43H78.13z M77.2,0.82h-1.08v1.42h1.07c0.53,0,0.9-0.27,0.9-0.73C78.09,1.08,77.76,0.82,77.2,0.82z"/>
				<path class="st4" d="M81.13,1.36l-0.29-0.21c0.32-0.47,0.64-0.74,1.26-0.74c0.64,0,1.09,0.42,1.09,1c0,0.51-0.27,0.83-0.89,1.37
					L81.36,3.6h1.86v0.36h-2.45V3.65l1.27-1.12c0.54-0.48,0.73-0.75,0.73-1.1c0-0.41-0.32-0.67-0.7-0.67
					C81.67,0.76,81.41,0.97,81.13,1.36z"/>
				<path class="st4" d="M86.19,1.1c-0.26-0.22-0.5-0.35-0.82-0.35c-0.64,0-1.03,0.64-1.02,1.55c0.19-0.28,0.48-0.54,1-0.54
					c0.65,0,1.21,0.42,1.21,1.08c0,0.68-0.54,1.17-1.26,1.17c-0.38,0-0.7-0.13-0.92-0.35c-0.28-0.28-0.44-0.64-0.44-1.36
					c0-1.07,0.54-1.91,1.46-1.91c0.42,0,0.73,0.15,1.04,0.4L86.19,1.1z M85.29,2.11c-0.52,0-0.88,0.38-0.88,0.77
					c0,0.45,0.37,0.79,0.89,0.79c0.51,0,0.84-0.36,0.84-0.8C86.14,2.43,85.79,2.11,85.29,2.11z"/>
			</g>
			<g>
				<path class="st4" d="M38.16,87.07h-0.43l-0.41-0.92h-1.91l-0.42,0.92h-0.4l1.6-3.53h0.37L38.16,87.07z M36.38,84.01l-0.8,1.79
					h1.6L36.38,84.01z"/>
				<path class="st4" d="M38.94,83.57h0.4v3.14h1.97v0.36h-2.37V83.57z"/>
				<path class="st4" d="M45.39,87.07h-0.42l-0.41-0.92h-1.91l-0.42,0.92h-0.4l1.59-3.53h0.37L45.39,87.07z M43.6,84.01l-0.8,1.79
					h1.59L43.6,84.01z"/>
				<path class="st4" d="M47.36,85.13c0.78,0.17,1.14,0.46,1.14,1c0,0.6-0.5,0.99-1.19,0.99c-0.56,0-1.01-0.18-1.43-0.56l0.25-0.29
					c0.36,0.33,0.71,0.5,1.2,0.5c0.47,0,0.78-0.25,0.78-0.6c0-0.33-0.17-0.52-0.91-0.67c-0.8-0.18-1.18-0.43-1.18-1.02
					c0-0.56,0.48-0.96,1.15-0.96c0.51,0,0.88,0.15,1.23,0.43l-0.23,0.3c-0.32-0.26-0.65-0.38-1.01-0.38c-0.46,0-0.74,0.25-0.74,0.57
					C46.41,84.78,46.59,84.97,47.36,85.13z"/>
				<path class="st4" d="M52.38,87.07h-0.5l-1.35-1.7l-0.75,0.76v0.94h-0.39v-3.5h0.39v2.09l2.01-2.09h0.51l-1.5,1.53L52.38,87.07z"
					/>
				<path class="st4" d="M56.32,87.07H55.9l-0.41-0.92h-1.91l-0.42,0.92h-0.4l1.6-3.53h0.37L56.32,87.07z M54.54,84.01l-0.8,1.79
					h1.6L54.54,84.01z"/>
				<path class="st4" d="M59.95,85.13c0.78,0.17,1.14,0.46,1.14,1c0,0.6-0.5,0.99-1.2,0.99c-0.56,0-1.01-0.18-1.43-0.56l0.24-0.29
					c0.37,0.33,0.72,0.5,1.2,0.5c0.47,0,0.78-0.25,0.78-0.6c0-0.33-0.18-0.52-0.91-0.67c-0.8-0.18-1.18-0.43-1.18-1.02
					c0-0.56,0.49-0.96,1.15-0.96c0.51,0,0.87,0.15,1.23,0.43l-0.23,0.3c-0.33-0.26-0.65-0.38-1.01-0.38c-0.45,0-0.74,0.25-0.74,0.57
					C59,84.78,59.18,84.97,59.95,85.13z"/>
				<path class="st4" d="M63.24,87.07h-0.4v-3.14h-1.18v-0.36h2.75v0.36h-1.18V87.07z"/>
				<path class="st4" d="M64.64,87.07v-0.52h0.46v0.52H64.64z"/>
			</g>
			<g>
				<path class="st4" d="M113.71,57.18v0.43l-0.92,0.41v1.91l0.92,0.42v0.4l-3.53-1.6v-0.37L113.71,57.18z M110.64,58.97l1.79,0.8
					v-1.6L110.64,58.97z"/>
				<path class="st4" d="M110.2,56.4v-0.4h3.14v-1.97h0.36v2.37H110.2z"/>
				<path class="st4" d="M112.47,51.97v0.85h1.24v0.4h-3.5v-1.31c0-0.79,0.42-1.31,1.12-1.31
					C112.08,50.59,112.47,51.23,112.47,51.97z M110.57,51.93v0.88h1.54v-0.86c0-0.58-0.31-0.96-0.78-0.96
					C110.83,50.99,110.57,51.37,110.57,51.93z"/>
				<path class="st4" d="M112.13,49.39h1.58v0.4h-3.5v-0.4h1.56v-2.02h-1.56v-0.4h3.5v0.4h-1.58V49.39z"/>
				<path class="st4" d="M113.71,42.63v0.42l-0.92,0.41v1.91l0.92,0.42v0.4l-3.53-1.59v-0.37L113.71,42.63z M110.64,44.42l1.79,0.8
					v-1.59L110.64,44.42z"/>
				<path class="st4" d="M113.71,37v0.43l-0.92,0.41v1.91l0.92,0.42v0.4l-3.53-1.6V38.6L113.71,37z M110.64,38.79l1.79,0.8v-1.6
					L110.64,38.79z"/>
				<path class="st4" d="M110.2,34.08v-0.43l3.53,1.51v0.35l-3.53,1.51v-0.44l3.02-1.25L110.2,34.08z"/>
				<path class="st4" d="M110.56,30.34v2.14h1.2v-1.91h0.36v1.91h1.23v-2.16h0.36v2.55h-3.5v-2.53H110.56z"/>
				<path class="st4" d="M113.71,29.54h-0.52v-0.46h0.52V29.54z"/>
			</g>
			<g>
				<g>
					<polygon class="st5" points="103.44,73.35 103.44,65.76 99.72,65.76 99.72,46.56 99.72,43.96 93.36,43.96 93.36,39.03 
						97.67,39.03 97.67,22.38 90.73,22.38 90.73,17.56 68.88,17.56 68.88,16.28 67.15,16.28 67.15,17.56 58.69,17.56 58.69,14.17 
						41.06,14.17 29.24,14.17 29.24,12.87 27.5,12.87 27.5,17.56 6.95,17.56 6.95,43.96 0.32,43.96 0.32,46.56 0.63,46.56 
						0.63,66.38 16.3,66.38 16.3,65.7 32.44,65.7 32.44,71.72 32.66,71.72 32.66,73.35 54.82,73.35 					"/>
				</g>
				<g>
					<path class="st6" d="M46.76,40.07c-0.04,0-0.08-0.02-0.12-0.05c-0.05-0.06-0.05-0.16,0.02-0.21l8.06-6.84
						c0.06-0.05,0.14-0.05,0.2,0l8.06,6.84c0.06,0.05,0.07,0.15,0.02,0.21c-0.06,0.06-0.15,0.07-0.21,0.02l-7.96-6.76l-7.96,6.76
						C46.83,40.06,46.79,40.07,46.76,40.07z"/>
				</g>
				<g>
					<path class="st6" d="M54.82,40.07c-0.04,0-0.07-0.01-0.1-0.04l-8.06-6.84c-0.06-0.05-0.07-0.15-0.02-0.21
						c0.06-0.06,0.15-0.07,0.21-0.02l7.96,6.76l7.96-6.76c0.06-0.05,0.16-0.05,0.21,0.02c0.05,0.06,0.05,0.16-0.02,0.21l-8.06,6.84
						C54.89,40.06,54.86,40.07,54.82,40.07z"/>
				</g>
				<g>
					<path class="st6" d="M54.82,40.07c-0.08,0-0.15-0.07-0.15-0.15v-6.84c0-0.08,0.07-0.15,0.15-0.15s0.15,0.07,0.15,0.15v6.84
						C54.97,40,54.91,40.07,54.82,40.07z"/>
				</g>
				<g>
					<path class="st6" d="M46.76,33.23c-0.08,0-0.15-0.07-0.15-0.15v-8.24c0-0.08,0.07-0.15,0.15-0.15c0.08,0,0.15,0.07,0.15,0.15
						v8.24C46.91,33.16,46.84,33.23,46.76,33.23z"/>
				</g>
				<g>
					<path class="st6" d="M62.88,33.23c-0.08,0-0.15-0.07-0.15-0.15v-8.24c0-0.08,0.07-0.15,0.15-0.15s0.15,0.07,0.15,0.15v8.24
						C63.03,33.16,62.97,33.23,62.88,33.23z"/>
				</g>
				<g>
					<path class="st6" d="M54.82,73.5H32.66c-0.08,0-0.15-0.07-0.15-0.15v-1.48h-0.07c-0.08,0-0.15-0.07-0.15-0.15V65.7
						c0-0.08,0.07-0.15,0.15-0.15s0.15,0.07,0.15,0.15v5.87h0.07c0.08,0,0.15,0.07,0.15,0.15v1.48h22.01c0.08,0,0.15,0.07,0.15,0.15
						S54.9,73.5,54.82,73.5z"/>
				</g>
				<g>
					<path class="st6" d="M103.44,73.5H54.82c-0.08,0-0.15-0.07-0.15-0.15V65.7c0-0.08,0.07-0.15,0.15-0.15s0.15,0.07,0.15,0.15v7.5
						h48.32v-7.29h-3.57c-0.08,0-0.15-0.07-0.15-0.15v-19.2c0-0.08,0.07-0.15,0.15-0.15s0.15,0.07,0.15,0.15v19.05h3.57
						c0.08,0,0.15,0.07,0.15,0.15v7.59C103.59,73.43,103.53,73.5,103.44,73.5z"/>
				</g>
				<g>
					<path class="st6" d="M97.67,39.18h-4.31c-0.08,0-0.15-0.07-0.15-0.15s0.07-0.15,0.15-0.15h4.16V22.53h-6.79
						c-0.08,0-0.15-0.07-0.15-0.15v-4.67h-21.7c-0.08,0-0.15-0.07-0.15-0.15c0-0.08,0.07-0.15,0.15-0.15h21.85
						c0.08,0,0.15,0.07,0.15,0.15v4.67h6.79c0.08,0,0.15,0.07,0.15,0.15v16.65C97.82,39.11,97.75,39.18,97.67,39.18z"/>
				</g>
				<g>
					<path class="st6" d="M16.3,66.53H0.63c-0.08,0-0.15-0.07-0.15-0.15V46.56c0-0.08,0.07-0.15,0.15-0.15s0.15,0.07,0.15,0.15
						v19.67h15.36V65.7c0-0.08,0.07-0.15,0.15-0.15c0.08,0,0.15,0.07,0.15,0.15v0.69C16.45,66.47,16.38,66.53,16.3,66.53z"/>
				</g>
				<g>
					<path class="st6" d="M6.95,44.11c-0.08,0-0.15-0.07-0.15-0.15v-26.4c0-0.08,0.07-0.15,0.15-0.15H27.5
						c0.08,0,0.15,0.07,0.15,0.15s-0.07,0.15-0.15,0.15H7.1v26.25C7.1,44.04,7.03,44.11,6.95,44.11z"/>
				</g>
				<g>
					<path class="st6" d="M41.06,14.32H29.24c-0.08,0-0.15-0.07-0.15-0.15c0-0.08,0.07-0.15,0.15-0.15h11.82
						c0.08,0,0.15,0.07,0.15,0.15C41.21,14.25,41.14,14.32,41.06,14.32z"/>
				</g>
				<g>
					<path class="st6" d="M68.45,24.99c-0.08,0-0.15-0.07-0.15-0.15v-3.31c0-0.08,0.07-0.15,0.15-0.15s0.15,0.07,0.15,0.15v3.31
						C68.6,24.92,68.53,24.99,68.45,24.99z"/>
				</g>
				<g>
					<path class="st6" d="M41.06,24.99c-0.08,0-0.15-0.07-0.15-0.15V14.17c0-0.08,0.07-0.15,0.15-0.15h17.63
						c0.08,0,0.15,0.07,0.15,0.15v3.24h8.31c0.08,0,0.15,0.07,0.15,0.15s-0.07,0.15-0.15,0.15h-8.46c-0.08,0-0.15-0.07-0.15-0.15
						v-3.24H41.21v10.51C41.21,24.92,41.14,24.99,41.06,24.99z"/>
				</g>
				<g>
					<path class="st6" d="M46.76,33.23h-3.77c-0.08,0-0.15-0.07-0.15-0.15s0.07-0.15,0.15-0.15h3.77c0.08,0,0.15,0.07,0.15,0.15
						S46.84,33.23,46.76,33.23z"/>
				</g>
				<g>
					<path class="st6" d="M66.86,33.23h-3.98c-0.08,0-0.15-0.07-0.15-0.15s0.07-0.15,0.15-0.15h3.98c0.08,0,0.15,0.07,0.15,0.15
						S66.94,33.23,66.86,33.23z"/>
				</g>
				<g>
					<path class="st6" d="M68.88,32.32c-0.08,0-0.15-0.07-0.15-0.15v-7.19H40.92v7.19c0,0.08-0.07,0.15-0.15,0.15
						c-0.08,0-0.15-0.07-0.15-0.15v-7.34c0-0.08,0.07-0.15,0.15-0.15h28.11c0.08,0,0.15,0.07,0.15,0.15v7.34
						C69.03,32.26,68.97,32.32,68.88,32.32z"/>
				</g>
				<g>
					<path class="st6" d="M62.88,40.07H46.76c-0.08,0-0.15-0.07-0.15-0.15v-6.84c0-0.08,0.07-0.15,0.15-0.15h16.12
						c0.08,0,0.15,0.07,0.15,0.15v6.84C63.03,40,62.97,40.07,62.88,40.07z M46.91,39.77h15.82v-6.54H46.91V39.77z"/>
				</g>
				<g>
					<path class="st6" d="M62.88,29.11H46.76c-0.08,0-0.15-0.07-0.15-0.15c0-0.08,0.07-0.15,0.15-0.15h16.12
						c0.08,0,0.15,0.07,0.15,0.15C63.03,29.04,62.97,29.11,62.88,29.11z"/>
				</g>
				<g>
					<polygon class="st5" points="54.82,65.7 93.36,65.7 93.36,46.56 99.72,46.56 99.72,43.96 93.36,43.96 93.36,39.03 93.36,38.63 
						80.04,38.63 80.04,32.17 68.88,32.17 68.88,33.08 66.86,33.08 66.86,38.8 68.79,38.8 68.79,43.65 64.15,43.65 64.15,44.84 
						54.82,44.84 					"/>
				</g>
				<g>
					<path class="st6" d="M93.36,65.85H54.82c-0.08,0-0.15-0.07-0.15-0.15V44.84c0-0.08,0.07-0.15,0.15-0.15H64v-1.04
						c0-0.08,0.07-0.15,0.15-0.15h4.49v-4.54h-1.78c-0.08,0-0.15-0.07-0.15-0.15v-5.72c0-0.08,0.07-0.15,0.15-0.15h1.87v-0.75
						c0-0.08,0.07-0.15,0.15-0.15h11.16c0.08,0,0.15,0.07,0.15,0.15v6.31h13.16c0.08,0,0.15,0.07,0.15,0.15v5.18h6.21
						c0.08,0,0.15,0.07,0.15,0.15v2.6c0,0.08-0.07,0.15-0.15,0.15h-6.21V65.7C93.51,65.78,93.44,65.85,93.36,65.85z M54.97,65.55
						h38.23V46.56c0-0.08,0.07-0.15,0.15-0.15h6.21v-2.3h-6.21c-0.08,0-0.15-0.07-0.15-0.15v-5.18H80.04
						c-0.08,0-0.15-0.07-0.15-0.15v-6.31H69.03v0.75c0,0.08-0.07,0.15-0.15,0.15h-1.87v5.42h1.78c0.08,0,0.15,0.07,0.15,0.15v4.84
						c0,0.08-0.07,0.15-0.15,0.15H64.3v1.04c0,0.08-0.07,0.15-0.15,0.15h-9.18V65.55z"/>
				</g>
				<g>
					<polygon class="st6" points="54.82,44.84 45.49,44.84 45.49,43.65 42.99,43.65 42.99,33.08 40.77,33.08 40.77,32.17 
						29.6,32.17 29.6,38.63 16.3,38.63 16.3,45.28 16.08,45.28 16.08,53.09 16.3,53.09 16.3,65.7 32.44,65.7 54.82,65.7 					"/>
				</g>
				<g>
					<path class="st6" d="M54.82,65.85H16.3c-0.08,0-0.15-0.07-0.15-0.15V53.24h-0.07c-0.08,0-0.15-0.07-0.15-0.15v-7.81
						c0-0.08,0.07-0.15,0.15-0.15h0.07v-6.5c0-0.08,0.07-0.15,0.15-0.15h13.15v-6.31c0-0.08,0.07-0.15,0.15-0.15h11.17
						c0.08,0,0.15,0.07,0.15,0.15v0.75h2.07c0.08,0,0.15,0.07,0.15,0.15V43.5h2.36c0.08,0,0.15,0.07,0.15,0.15v1.04h9.18
						c0.08,0,0.15,0.07,0.15,0.15V65.7C54.97,65.78,54.91,65.85,54.82,65.85z M16.45,65.55h38.22V44.99h-9.18
						c-0.08,0-0.15-0.07-0.15-0.15V43.8h-2.36c-0.08,0-0.15-0.07-0.15-0.15V33.23h-2.07c-0.08,0-0.15-0.07-0.15-0.15v-0.75H29.75
						v6.31c0,0.08-0.07,0.15-0.15,0.15H16.45v6.5c0,0.08-0.07,0.15-0.15,0.15h-0.07v7.51h0.07c0.08,0,0.15,0.07,0.15,0.15V65.55z"/>
				</g>
				<g>
					<path class="st6" d="M8.14,46.71H0.32c-0.08,0-0.15-0.07-0.15-0.15v-2.6c0-0.08,0.07-0.15,0.15-0.15h7.82
						c0.08,0,0.15,0.07,0.15,0.15v2.6C8.29,46.64,8.22,46.71,8.14,46.71z M0.47,46.41h7.52v-2.3H0.47V46.41z"/>
				</g>
				<g>
					<path class="st6" d="M29.24,18.02H27.5c-0.08,0-0.15-0.07-0.15-0.15v-5c0-0.08,0.07-0.15,0.15-0.15h1.74
						c0.08,0,0.15,0.07,0.15,0.15v5C29.39,17.95,29.32,18.02,29.24,18.02z M27.65,17.72h1.43v-4.7h-1.43V17.72z"/>
				</g>
				<g>
					<path class="st6" d="M68.88,21.67h-0.87c-0.08,0-0.15-0.07-0.15-0.15v-3.18h-0.72c-0.08,0-0.15-0.07-0.15-0.15v-1.92
						c0-0.08,0.07-0.15,0.15-0.15h1.74c0.08,0,0.15,0.07,0.15,0.15v5.24C69.03,21.61,68.97,21.67,68.88,21.67z M68.17,21.37h0.57
						v-4.94H67.3v1.61h0.72c0.08,0,0.15,0.07,0.15,0.15V21.37z"/>
				</g>
			</g>
		</g>
	</g>
</g>
</svg>
