<?xml version="1.0" encoding="utf-8"?>
<!-- Generator: Adobe Illustrator 25.2.0, SVG Export Plug-In . SVG Version: 6.00 Build 0)  -->
<svg version="1.1" id="Layer_1" xmlns="http://www.w3.org/2000/svg" xmlns:xlink="http://www.w3.org/1999/xlink" x="0px" y="0px"
	 viewBox="0 0 116.8 75.1" style="enable-background:new 0 0 116.8 75.1;" xml:space="preserve">
<style type="text/css">
	.st0{fill:#AABCCE;}
	.st1{fill:#041C2A;}
	.st2{enable-background:new    ;}
	.st3{clip-path:url(#SVGID_2_);}
	.st4{fill:#245169;}
	.st5{fill:#FFFFFF;}
	.st6{fill:#00516B;}
</style>
<g>
	<g>
		<g>
			<g>
				<polygon class="st0" points="93.9,56.7 90.7,62.2 97,62.3 				"/>
			</g>
			<g>
				<path class="st1" d="M94.1,61.6c3.6,0,6.4,2.9,6.3,6.5c0,3.6-2.9,6.4-6.5,6.3c-3.6,0-6.4-2.9-6.3-6.5
					C87.6,64.4,90.5,61.6,94.1,61.6"/>
			</g>
		</g>
		<g class="st2">
			<path class="st0" d="M91.5,66.4c0-0.4-0.1-0.7-0.4-0.8c0,0-0.1,0-0.1-0.1c0,0,0-0.1,0.1-0.1s0.4,0,0.6,0c0.2,0,0.4,0,0.6,0
				c0.3,0.4,0.6,0.8,1,1.1l2.6,2.8v-2.6c0-0.7-0.2-1-0.4-1.1c-0.1-0.1-0.2-0.1-0.2-0.1c0,0,0.1-0.1,0.1-0.1c0.1,0,0.5,0,0.6,0
				c0.2,0,0.4,0,0.5,0c0.1,0,0.1,0,0.1,0.1s0,0.1-0.1,0.1c-0.2,0.1-0.4,0.3-0.4,1.1v3.2c0,0.4,0,0.8-0.1,0.8h0
				c-0.1,0-0.2-0.2-0.7-0.7c-1-1.1-2.4-2.7-3.6-3.9v3.2c0,0.8,0.2,1,0.4,1.1c0.1,0.1,0.2,0.1,0.2,0.1c0,0,0,0-0.1,0
				c-0.1,0-0.3,0-0.6,0c-0.2,0-0.6,0-0.7,0c-0.1,0-0.1,0-0.1,0c0-0.1,0.2-0.1,0.3-0.2c0.2-0.2,0.3-0.5,0.3-1.2
				C91.5,69.1,91.5,66.4,91.5,66.4z"/>
		</g>
	</g>
	<g>
		<g>
			<g>
				<defs>
					
						<rect id="SVGID_1_" x="87.1" y="56.7" transform="matrix(0.9985 -5.529833e-02 5.529833e-02 0.9985 -3.4896 5.2905)" width="13.5" height="18"/>
				</defs>
				<clipPath id="SVGID_2_">
					<use xlink:href="#SVGID_1_"  style="overflow:visible;"/>
				</clipPath>
				<g class="st3">
					<path class="st0" d="M94,74.7c-1.6,0-3.2-0.6-4.4-1.7c-1.3-1.2-2.1-2.8-2.2-4.6c-0.1-1.8,0.5-3.5,1.7-4.8
						c1.2-1.3,2.8-2.1,4.6-2.2l0,0.2l0-0.2c1.8-0.1,3.5,0.5,4.8,1.7c1.3,1.2,2.1,2.8,2.2,4.6s-0.5,3.5-1.7,4.8
						c-1.2,1.3-2.8,2.1-4.6,2.2C94.2,74.7,94.1,74.7,94,74.7z M94,61.8c-0.1,0-0.2,0-0.3,0c-1.7,0.1-3.2,0.8-4.3,2
						c-1.1,1.2-1.7,2.8-1.6,4.5c0.1,1.7,0.8,3.2,2.1,4.3s2.8,1.7,4.5,1.6c1.7-0.1,3.2-0.8,4.3-2.1s1.7-2.8,1.6-4.5
						c-0.1-1.7-0.8-3.2-2.1-4.3C97,62.4,95.5,61.8,94,61.8z"/>
				</g>
			</g>
		</g>
	</g>
</g>
<g>
	<path class="st4" d="M38.1,3.3h-0.4V0.5h-1.1V0.1h2.5v0.3h-1.1V3.3z"/>
	<path class="st4" d="M41.3,3.4c-1,0-1.6-0.8-1.6-1.7s0.7-1.7,1.6-1.7c1,0,1.6,0.8,1.6,1.7C42.9,2.6,42.3,3.4,41.3,3.4z M41.3,0.4
		C40.5,0.4,40,1,40,1.7s0.5,1.3,1.3,1.3s1.3-0.6,1.3-1.3S42,0.4,41.3,0.4z"/>
	<path class="st4" d="M45.6,0.1h0.3l0.9,2.7l0.9-2.7h0.4l-1.2,3.2h-0.3l-0.9-2.6l-0.9,2.6h-0.3l-1.2-3.2h0.4l0.9,2.7L45.6,0.1z"/>
	<path class="st4" d="M51.2,0.1h0.4v3.2h-0.3l-2.1-2.6v2.6h-0.4V0.1h0.3l2,2.6V0.1z"/>
	<path class="st4" d="M52.9,1.9v1.5h-0.4V0.1h0.4v1.4h1.9V0.1h0.4v3.2h-0.4V1.9H52.9z"/>
	<path class="st4" d="M57.6,3.4c-1,0-1.6-0.8-1.6-1.7s0.7-1.7,1.6-1.7c1,0,1.6,0.8,1.6,1.7C59.3,2.6,58.6,3.4,57.6,3.4z M57.6,0.4
		c-0.7,0-1.3,0.6-1.3,1.3s0.5,1.3,1.3,1.3s1.3-0.6,1.3-1.3S58.4,0.4,57.6,0.4z"/>
	<path class="st4" d="M61.7,2.5L61.7,2.5l-1.2-1.7v2.6h-0.4V0.1h0.4l1.2,1.8l1.2-1.8h0.4v3.2h-0.4V0.7L61.7,2.5z"/>
	<path class="st4" d="M66.5,0.4h-2v1.1h1.8v0.3h-1.8V3h2v0.3h-2.4V0.1h2.3V0.4z"/>
	<path class="st4" d="M68.5,1.6c0.7,0.2,1.1,0.4,1.1,0.9c0,0.6-0.5,0.9-1.1,0.9c-0.5,0-0.9-0.2-1.3-0.5l0.2-0.3
		c0.3,0.3,0.7,0.5,1.1,0.5c0.4,0,0.7-0.2,0.7-0.6c0-0.3-0.2-0.5-0.8-0.6c-0.7-0.2-1.1-0.4-1.1-0.9c0-0.5,0.4-0.9,1.1-0.9
		c0.5,0,0.8,0.1,1.1,0.4l-0.2,0.3c-0.3-0.2-0.6-0.4-0.9-0.4c-0.4,0-0.7,0.2-0.7,0.5C67.7,1.2,67.8,1.4,68.5,1.6z"/>
</g>
<g>
	<path class="st4" d="M43.4,56.8h-0.4L42.7,56h-1.6l-0.3,0.8h-0.3l1.3-2.9h0.3L43.4,56.8z M41.9,54.3l-0.7,1.5h1.3L41.9,54.3z"/>
	<path class="st4" d="M44.1,53.9h0.3v2.6H46v0.3h-2V53.9z"/>
	<path class="st4" d="M49.4,56.8h-0.4L48.7,56h-1.6l-0.3,0.8h-0.3l1.3-2.9h0.3L49.4,56.8z M47.9,54.3l-0.7,1.5h1.3L47.9,54.3z"/>
	<path class="st4" d="M51,55.2c0.6,0.1,0.9,0.4,0.9,0.8c0,0.5-0.4,0.8-1,0.8c-0.5,0-0.8-0.2-1.2-0.5l0.2-0.2c0.3,0.3,0.6,0.4,1,0.4
		c0.4,0,0.6-0.2,0.6-0.5c0-0.3-0.1-0.4-0.8-0.6c-0.7-0.1-1-0.4-1-0.8c0-0.5,0.4-0.8,1-0.8c0.4,0,0.7,0.1,1,0.4l-0.2,0.3
		c-0.3-0.2-0.5-0.3-0.8-0.3c-0.4,0-0.6,0.2-0.6,0.5C50.2,54.9,50.4,55.1,51,55.2z"/>
	<path class="st4" d="M55.2,56.8h-0.4l-1.1-1.4L53.1,56v0.8h-0.3v-2.9h0.3v1.7l1.7-1.7h0.4l-1.2,1.3L55.2,56.8z"/>
	<path class="st4" d="M58.5,56.8h-0.4L57.8,56h-1.6l-0.3,0.8h-0.3l1.3-2.9h0.3L58.5,56.8z M57,54.3l-0.7,1.5h1.3L57,54.3z"/>
	<path class="st4" d="M61.5,55.2c0.6,0.1,0.9,0.4,0.9,0.8c0,0.5-0.4,0.8-1,0.8c-0.5,0-0.8-0.2-1.2-0.5l0.2-0.2
		c0.3,0.3,0.6,0.4,1,0.4c0.4,0,0.6-0.2,0.6-0.5c0-0.3-0.1-0.4-0.8-0.6c-0.7-0.1-1-0.4-1-0.8c0-0.5,0.4-0.8,1-0.8
		c0.4,0,0.7,0.1,1,0.4l-0.2,0.3c-0.3-0.2-0.5-0.3-0.8-0.3c-0.4,0-0.6,0.2-0.6,0.5C60.7,54.9,60.8,55.1,61.5,55.2z"/>
	<path class="st4" d="M64.2,56.8h-0.3v-2.6h-1v-0.3h2.3v0.3h-1V56.8z"/>
	<path class="st4" d="M65.4,56.8v-0.4h0.4v0.4H65.4z"/>
</g>
<g>
	<path class="st4" d="M116.7,39v0.4l-0.8,0.3v1.6l0.8,0.3v0.3l-2.9-1.3v-0.3L116.7,39z M114.2,40.5l1.5,0.7v-1.3L114.2,40.5z"/>
	<path class="st4" d="M113.8,38.3V38h2.6v-1.6h0.3v2H113.8z"/>
	<path class="st4" d="M115.7,34.6v0.7h1v0.3h-2.9v-1.1c0-0.7,0.3-1.1,0.9-1.1C115.4,33.5,115.7,34,115.7,34.6z M114.1,34.6v0.7h1.3
		v-0.7c0-0.5-0.3-0.8-0.6-0.8C114.3,33.8,114.1,34.1,114.1,34.6z"/>
	<path class="st4" d="M115.4,32.5h1.3v0.3h-2.9v-0.3h1.3v-1.7h-1.3v-0.3h2.9v0.3h-1.3V32.5z"/>
	<path class="st4" d="M116.7,26.9v0.4l-0.8,0.3v1.6l0.8,0.3v0.3l-2.9-1.3v-0.3L116.7,26.9z M114.2,28.4l1.5,0.7v-1.3L114.2,28.4z"/>
	<path class="st4" d="M116.7,22.2v0.4l-0.8,0.3v1.6l0.8,0.3v0.3l-2.9-1.3v-0.3L116.7,22.2z M114.2,23.7l1.5,0.7V23L114.2,23.7z"/>
	<path class="st4" d="M113.8,19.8v-0.4l2.9,1.2V21l-2.9,1.2v-0.4l2.5-1L113.8,19.8z"/>
	<path class="st4" d="M114.1,16.7v1.8h1v-1.6h0.3v1.6h1v-1.8h0.3v2.1h-2.9v-2.1H114.1z"/>
	<path class="st4" d="M116.7,16h-0.4v-0.4h0.4V16z"/>
</g>
<g>
	<g>
		<polygon class="st5" points="89.8,12 89.8,15.3 87.4,15.3 87.4,12 70.8,12 70.8,15.3 67.9,15.3 67.9,12 51.4,12 51.4,15.3 
			48.5,15.3 48.5,12 31.9,12 31.9,15.3 29.2,15.3 29.2,12 12.7,12 12.7,15.3 9.9,15.3 9.9,12 6.9,12 6.9,24.6 6.9,28.9 0.1,28.9 
			0.1,44.1 6.9,44.1 7.6,44.1 18.2,44.1 18.2,45.3 26,45.3 26,44.1 37.6,44.1 37.6,45.3 45.5,45.3 45.5,44.1 57,44.1 57,45.3 
			64.9,45.3 64.9,44.1 76.5,44.1 76.5,45.3 84.3,45.3 84.3,44.1 95.9,44.1 95.9,45.3 104.2,45.3 104.2,40.6 104.2,25.9 104.2,24.5 
			106.4,24.5 106.4,12 		"/>
	</g>
	<g>
		<polygon class="st5" points="104.2,25.9 104.2,40.6 95.9,40.6 95.9,44.1 84.3,44.1 84.3,40.6 84.6,40.6 84.6,29 85.3,29 95.2,29 
			95.2,25.9 		"/>
	</g>
	<g>
		<polygon class="st6" points="85.3,25.9 85.3,29 84.6,29 84.6,40.6 84.3,40.6 76.5,40.6 76.5,44.1 64.9,44.1 64.9,40.6 65.2,40.6 
			65.2,29 65.9,29 75.8,29 75.8,25.9 		"/>
	</g>
	<g>
		<polygon class="st6" points="65.9,25.9 65.9,29 65.2,29 65.2,40.6 64.9,40.6 57,40.6 57,44.1 45.5,44.1 45.5,40.6 45.7,40.6 
			45.7,29 46.4,29 56.4,29 56.4,25.9 		"/>
	</g>
	<g>
		<polygon class="st5" points="46.4,25.9 46.4,29 45.7,29 45.7,40.6 45.5,40.6 37.6,40.6 37.6,44.1 26,44.1 26,40.6 26.3,40.6 
			26.3,29 27,29 36.9,29 36.9,25.9 		"/>
	</g>
	<g>
		<polygon class="st5" points="27,25.9 27,29 26.3,29 26.3,40.6 26,40.6 18.2,40.6 18.2,44.1 7.6,44.1 6.9,44.1 6.9,40.7 6.9,32.8 
			6.9,28.9 17.5,28.9 17.5,25.9 		"/>
	</g>
	<g>
		<path class="st6" d="M104.2,26.1c-0.1,0-0.1-0.1-0.1-0.1v-1.5c0-0.1,0.1-0.1,0.1-0.1s0.1,0.1,0.1,0.1v1.5
			C104.4,26,104.3,26.1,104.2,26.1z"/>
	</g>
	<g>
		<path class="st6" d="M85.3,26.1c-0.1,0-0.1-0.1-0.1-0.1v-1.5c0-0.1,0.1-0.1,0.1-0.1s0.1,0.1,0.1,0.1v1.5
			C85.4,26,85.4,26.1,85.3,26.1z"/>
	</g>
	<g>
		<path class="st6" d="M65.9,26.1c-0.1,0-0.1-0.1-0.1-0.1v-1.5c0-0.1,0.1-0.1,0.1-0.1s0.1,0.1,0.1,0.1v1.5
			C66,26,65.9,26.1,65.9,26.1z"/>
	</g>
	<g>
		<path class="st6" d="M46.4,26.1c-0.1,0-0.1-0.1-0.1-0.1v-1.5c0-0.1,0.1-0.1,0.1-0.1s0.1,0.1,0.1,0.1v1.5
			C46.5,26,46.5,26.1,46.4,26.1z"/>
	</g>
	<g>
		<path class="st6" d="M27,26.1c-0.1,0-0.1-0.1-0.1-0.1v-1.5c0-0.1,0.1-0.1,0.1-0.1s0.1,0.1,0.1,0.1v1.5C27.1,26,27.1,26.1,27,26.1z
			"/>
	</g>
	<g>
		<path class="st6" d="M6.9,29c-0.1,0-0.1-0.1-0.1-0.1v-4.3c0-0.1,0.1-0.1,0.1-0.1S7,24.5,7,24.6v4.3C7,29,6.9,29,6.9,29z"/>
	</g>
	<g>
		<path class="st6" d="M12.7,15.4H9.9c-0.1,0-0.1-0.1-0.1-0.1s0.1-0.1,0.1-0.1h2.7c0.1,0,0.1,0.1,0.1,0.1S12.7,15.4,12.7,15.4z"/>
	</g>
	<g>
		<path class="st6" d="M31.9,15.4h-2.7c-0.1,0-0.1-0.1-0.1-0.1s0.1-0.1,0.1-0.1h2.7c0.1,0,0.1,0.1,0.1,0.1S32,15.4,31.9,15.4z"/>
	</g>
	<g>
		<path class="st6" d="M51.4,15.4h-2.9c-0.1,0-0.1-0.1-0.1-0.1s0.1-0.1,0.1-0.1h2.9c0.1,0,0.1,0.1,0.1,0.1S51.5,15.4,51.4,15.4z"/>
	</g>
	<g>
		<path class="st6" d="M70.8,15.4h-2.9c-0.1,0-0.1-0.1-0.1-0.1s0.1-0.1,0.1-0.1h2.9c0.1,0,0.1,0.1,0.1,0.1S70.9,15.4,70.8,15.4z"/>
	</g>
	<g>
		<path class="st6" d="M89.8,15.4h-2.5c-0.1,0-0.1-0.1-0.1-0.1s0.1-0.1,0.1-0.1h2.5c0.1,0,0.1,0.1,0.1,0.1S89.9,15.4,89.8,15.4z"/>
	</g>
	<g>
		<path class="st6" d="M26,45.4h-7.9c-0.1,0-0.1-0.1-0.1-0.1v-1.2c0-0.1,0.1-0.1,0.1-0.1s0.1,0.1,0.1,0.1v1.1h7.6v-1.1
			C25.9,44,26,44,26,44s0.1,0.1,0.1,0.1v1.2C26.2,45.4,26.1,45.4,26,45.4z"/>
	</g>
	<g>
		<path class="st6" d="M45.5,45.4h-7.9c-0.1,0-0.1-0.1-0.1-0.1v-1.2c0-0.1,0.1-0.1,0.1-0.1s0.1,0.1,0.1,0.1v1.1h7.6v-1.1
			c0-0.1,0.1-0.1,0.1-0.1s0.1,0.1,0.1,0.1v1.2C45.6,45.4,45.5,45.4,45.5,45.4z"/>
	</g>
	<g>
		<path class="st6" d="M64.9,45.4H57c-0.1,0-0.1-0.1-0.1-0.1v-1.2C56.9,44,57,44,57,44s0.1,0.1,0.1,0.1v1.1h7.6v-1.1
			c0-0.1,0.1-0.1,0.1-0.1S65,44,65,44.1v1.2C65,45.4,65,45.4,64.9,45.4z"/>
	</g>
	<g>
		<path class="st6" d="M84.3,45.4h-7.9c-0.1,0-0.1-0.1-0.1-0.1v-1.2c0-0.1,0.1-0.1,0.1-0.1s0.1,0.1,0.1,0.1v1.1h7.6v-1.1
			c0-0.1,0.1-0.1,0.1-0.1s0.1,0.1,0.1,0.1v1.2C84.5,45.4,84.4,45.4,84.3,45.4z"/>
	</g>
	<g>
		<path class="st6" d="M104.2,45.4h-8.3c-0.1,0-0.1-0.1-0.1-0.1v-1.2c0-0.1,0.1-0.1,0.1-0.1S96,44,96,44.1v1.1h8.1v-4.5
			c0-0.1,0.1-0.1,0.1-0.1s0.1,0.1,0.1,0.1v4.7C104.4,45.4,104.3,45.4,104.2,45.4z"/>
	</g>
	<g>
		<path class="st6" d="M48.5,24.6h-3c-0.1,0-0.1-0.1-0.1-0.1V18H31.9c-0.1,0-0.1-0.1-0.1-0.1V12c0-0.1,0.1-0.1,0.1-0.1h16.6
			c0.1,0,0.1,0.1,0.1,0.1v12.4C48.6,24.5,48.6,24.6,48.5,24.6z M45.6,24.3h2.8V12.2H32.1v5.6h13.4c0.1,0,0.1,0.1,0.1,0.1V24.3z"/>
	</g>
	<g>
		<path class="st6" d="M67.9,24.6h-3c-0.1,0-0.1-0.1-0.1-0.1V18H51.4c-0.1,0-0.1-0.1-0.1-0.1V12c0-0.1,0.1-0.1,0.1-0.1h16.5
			c0.1,0,0.1,0.1,0.1,0.1v12.4C68.1,24.5,68,24.6,67.9,24.6z M65,24.3h2.8V12.2H51.5v5.6h13.4c0.1,0,0.1,0.1,0.1,0.1V24.3z"/>
	</g>
	<g>
		<path class="st6" d="M87.4,24.6h-3c-0.1,0-0.1-0.1-0.1-0.1V18H70.8c-0.1,0-0.1-0.1-0.1-0.1V12c0-0.1,0.1-0.1,0.1-0.1h16.5
			c0.1,0,0.1,0.1,0.1,0.1v12.4C87.5,24.5,87.4,24.6,87.4,24.6z M84.5,24.3h2.8V12.2H70.9v5.6h13.4c0.1,0,0.1,0.1,0.1,0.1V24.3z"/>
	</g>
	<g>
		<path class="st6" d="M106.4,24.6h-3c-0.1,0-0.1-0.1-0.1-0.1V18H89.8c-0.1,0-0.1-0.1-0.1-0.1V12c0-0.1,0.1-0.1,0.1-0.1h16.5
			c0.1,0,0.1,0.1,0.1,0.1v12.4C106.5,24.5,106.5,24.6,106.4,24.6z M103.5,24.3h2.8V12.2H90v5.6h13.4c0.1,0,0.1,0.1,0.1,0.1V24.3z"/>
	</g>
	<g>
		<path class="st6" d="M29.2,24.6h-3c-0.1,0-0.1-0.1-0.1-0.1V18H12.7c-0.1,0-0.1-0.1-0.1-0.1V12c0-0.1,0.1-0.1,0.1-0.1h16.5
			c0.1,0,0.1,0.1,0.1,0.1v12.4C29.3,24.5,29.3,24.6,29.2,24.6z M26.3,24.3h2.8V12.2H12.8v5.6h13.4c0.1,0,0.1,0.1,0.1,0.1V24.3z"/>
	</g>
	<g>
		<path class="st6" d="M9.9,24.7H6.9c-0.1,0-0.1-0.1-0.1-0.1V12c0-0.1,0.1-0.1,0.1-0.1h3.1c0.1,0,0.1,0.1,0.1,0.1v12.6
			C10.1,24.7,10,24.7,9.9,24.7z M7,24.5h2.8V12.2H7V24.5z"/>
	</g>
	<g>
		<path class="st6" d="M6.9,32.9H3.5c-0.1,0-0.1-0.1-0.1-0.1s0.1-0.1,0.1-0.1h3.4c0.1,0,0.1,0.1,0.1,0.1S6.9,32.9,6.9,32.9z"/>
	</g>
	<g>
		<path class="st6" d="M6.9,40.9H3.5c-0.1,0-0.1-0.1-0.1-0.1s0.1-0.1,0.1-0.1h3.4c0.1,0,0.1,0.1,0.1,0.1S6.9,40.9,6.9,40.9z"/>
	</g>
	<g>
		<path class="st6" d="M95.9,44.2H84.3c-0.1,0-0.1-0.1-0.1-0.1v-3.5c0-0.1,0.1-0.1,0.1-0.1s0.1,0.1,0.1,0.1V44h11.3v-3.3
			c0-0.1,0.1-0.1,0.1-0.1h8.2V26.1h-8.7v3c0,0.1-0.1,0.1-0.1,0.1h-10c-0.1,0-0.1-0.1-0.1-0.1s0.1-0.1,0.1-0.1h9.8v-3
			c0-0.1,0.1-0.1,0.1-0.1h9c0.1,0,0.1,0.1,0.1,0.1v14.7c0,0.1-0.1,0.1-0.1,0.1H96v3.3C96,44.2,96,44.2,95.9,44.2z"/>
	</g>
	<g>
		<path class="st6" d="M76.5,44.2H64.9c-0.1,0-0.1-0.1-0.1-0.1v-3.5c0-0.1,0.1-0.1,0.1-0.1s0.1,0.1,0.1,0.1V44h11.3v-3.3
			c0-0.1,0.1-0.1,0.1-0.1h8V29c0-0.1,0.1-0.1,0.1-0.1h0.6v-2.8h-9.2v3c0,0.1-0.1,0.1-0.1,0.1h-10c-0.1,0-0.1-0.1-0.1-0.1
			s0.1-0.1,0.1-0.1h9.8v-3c0-0.1,0.1-0.1,0.1-0.1h9.5c0.1,0,0.1,0.1,0.1,0.1V29c0,0.1-0.1,0.1-0.1,0.1h-0.6v11.5
			c0,0.1-0.1,0.1-0.1,0.1h-8v3.3C76.6,44.2,76.5,44.2,76.5,44.2z"/>
	</g>
	<g>
		<path class="st6" d="M57,44.2H45.5c-0.1,0-0.1-0.1-0.1-0.1v-3.5c0-0.1,0.1-0.1,0.1-0.1s0.1,0.1,0.1,0.1V44h11.3v-3.3
			c0-0.1,0.1-0.1,0.1-0.1h8V29c0-0.1,0.1-0.1,0.1-0.1h0.6v-2.8h-9.2v3c0,0.1-0.1,0.1-0.1,0.1h-10c-0.1,0-0.1-0.1-0.1-0.1
			s0.1-0.1,0.1-0.1h9.8v-3c0-0.1,0.1-0.1,0.1-0.1h9.5c0.1,0,0.1,0.1,0.1,0.1V29c0,0.1-0.1,0.1-0.1,0.1h-0.6v11.5
			c0,0.1-0.1,0.1-0.1,0.1h-8v3.3C57.2,44.2,57.1,44.2,57,44.2z"/>
	</g>
	<g>
		<path class="st6" d="M37.6,44.2H26c-0.1,0-0.1-0.1-0.1-0.1v-3.5c0-0.1,0.1-0.1,0.1-0.1s0.1,0.1,0.1,0.1V44h11.3v-3.3
			c0-0.1,0.1-0.1,0.1-0.1h8V29c0-0.1,0.1-0.1,0.1-0.1h0.6v-2.8h-9.2v3c0,0.1-0.1,0.1-0.1,0.1H27c-0.1,0-0.1-0.1-0.1-0.1
			s0.1-0.1,0.1-0.1h9.8v-3c0-0.1,0.1-0.1,0.1-0.1h9.5c0.1,0,0.1,0.1,0.1,0.1V29c0,0.1-0.1,0.1-0.1,0.1h-0.6v11.5
			c0,0.1-0.1,0.1-0.1,0.1h-8v3.3C37.7,44.2,37.7,44.2,37.6,44.2z"/>
	</g>
	<g>
		<path class="st6" d="M18.2,44.2H6.9c-0.1,0-0.1-0.1-0.1-0.1S6.8,44,6.9,44H18v-3.3c0-0.1,0.1-0.1,0.1-0.1h8V29
			c0-0.1,0.1-0.1,0.1-0.1h0.6v-2.8h-9.2v2.9c0,0.1-0.1,0.1-0.1,0.1H6.9c-0.1,0-0.1-0.1-0.1-0.1s0.1-0.1,0.1-0.1h10.5v-2.9
			c0-0.1,0.1-0.1,0.1-0.1H27c0.1,0,0.1,0.1,0.1,0.1V29c0,0.1-0.1,0.1-0.1,0.1h-0.6v11.5c0,0.1-0.1,0.1-0.1,0.1h-8v3.3
			C18.3,44.2,18.2,44.2,18.2,44.2z"/>
	</g>
	<g>
		<path class="st6" d="M6.9,44.2H0.1C0,44.2,0,44.2,0,44.1V28.9c0-0.1,0.1-0.1,0.1-0.1h6.8c0.1,0,0.1,0.1,0.1,0.1v15.2
			C7,44.2,6.9,44.2,6.9,44.2z M0.2,44h6.5V29H0.2V44z"/>
	</g>
	<g>
		<path class="st6" d="M3.5,40.9c-0.1,0-0.1-0.1-0.1-0.1v-7.9c0-0.1,0.1-0.1,0.1-0.1s0.1,0.1,0.1,0.1v7.9
			C3.6,40.8,3.5,40.9,3.5,40.9z"/>
	</g>
</g>
</svg>
