<?xml version="1.0" encoding="utf-8"?>
<!-- Generator: Adobe Illustrator 25.2.0, SVG Export Plug-In . SVG Version: 6.00 Build 0)  -->
<svg version="1.1" id="Layer_1" xmlns="http://www.w3.org/2000/svg" xmlns:xlink="http://www.w3.org/1999/xlink" x="0px" y="0px"
	 viewBox="0 0 116.79 75.07" style="enable-background:new 0 0 116.79 75.07;" xml:space="preserve">
<style type="text/css">
	.st0{fill:#AABCCE;}
	.st1{fill:#041C2A;}
	.st2{enable-background:new    ;}
	.st3{clip-path:url(#SVGID_2_);}
	.st4{fill:#245169;}
	.st5{fill:#FFFFFF;}
	.st6{fill:#00516B;}
</style>
<g>
	<g>
		<g>
			<g>
				<polygon class="st0" points="93.9,56.7 90.72,62.23 96.96,62.3 				"/>
			</g>
			<g>
				<path class="st1" d="M94.05,61.62c3.55,0.04,6.39,2.94,6.35,6.48c-0.04,3.55-2.94,6.39-6.48,6.35
					c-3.55-0.04-6.39-2.94-6.35-6.48C87.59,64.44,90.5,61.58,94.05,61.62"/>
			</g>
		</g>
		<g class="st2">
			<path class="st0" d="M91.46,66.37c-0.01-0.42-0.06-0.71-0.42-0.83c-0.04-0.02-0.07-0.04-0.07-0.05c0-0.03,0.02-0.06,0.1-0.06
				c0.08,0,0.39,0.03,0.58,0.03c0.2,0,0.42-0.01,0.59-0.02c0.28,0.4,0.61,0.76,0.96,1.11l2.62,2.79v-2.62c0-0.67-0.23-1-0.44-1.12
				c-0.1-0.06-0.18-0.06-0.18-0.09c0-0.04,0.05-0.07,0.13-0.07c0.12,0,0.46,0.03,0.61,0.03c0.16,0,0.38-0.03,0.54-0.03
				c0.11,0,0.13,0.04,0.13,0.06c0,0.02-0.04,0.05-0.12,0.09c-0.2,0.08-0.42,0.29-0.42,1.14v3.18c0,0.42-0.02,0.75-0.08,0.75h-0.02
				c-0.08,0-0.17-0.18-0.66-0.74c-0.96-1.1-2.37-2.69-3.6-3.88v3.2c0,0.8,0.23,1.04,0.4,1.14c0.11,0.07,0.17,0.07,0.17,0.11
				c0,0.02-0.02,0.03-0.06,0.03c-0.09,0-0.35-0.02-0.63-0.02c-0.16,0-0.6,0.02-0.69,0.02c-0.06,0-0.09-0.01-0.09-0.03
				c0-0.05,0.2-0.08,0.31-0.18c0.25-0.22,0.34-0.53,0.34-1.23V66.37z"/>
		</g>
	</g>
	<g>
		<g>
			<defs>
				
					<rect id="SVGID_1_" x="87.13" y="56.68" transform="matrix(0.9985 -0.0553 0.0553 0.9985 -3.4893 5.2904)" width="13.46" height="18.04"/>
			</defs>
			<clipPath id="SVGID_2_">
				<use xlink:href="#SVGID_1_"  style="overflow:visible;"/>
			</clipPath>
			<g class="st3">
				<path class="st0" d="M93.97,74.65c-1.64,0-3.2-0.59-4.43-1.7c-1.32-1.19-2.11-2.82-2.21-4.59c-0.1-1.78,0.5-3.48,1.69-4.81
					c1.19-1.33,2.82-2.11,4.59-2.21l0.01,0.24l-0.01-0.24c1.77-0.09,3.48,0.5,4.81,1.69c1.33,1.19,2.11,2.82,2.21,4.59
					c0.1,1.77-0.5,3.48-1.69,4.81c-1.19,1.33-2.82,2.11-4.59,2.21C94.22,74.65,94.1,74.65,93.97,74.65z M93.99,61.82
					c-0.12,0-0.23,0-0.35,0.01c-1.65,0.09-3.16,0.82-4.26,2.05c-1.1,1.23-1.66,2.81-1.56,4.46c0.09,1.65,0.82,3.16,2.05,4.26
					s2.82,1.66,4.46,1.56c1.65-0.09,3.16-0.82,4.26-2.05c1.1-1.23,1.66-2.81,1.56-4.46c-0.09-1.65-0.82-3.16-2.05-4.26
					C96.96,62.38,95.51,61.82,93.99,61.82z"/>
			</g>
		</g>
	</g>
</g>
<g>
	<g>
		<g>
			<g>
				<path class="st4" d="M38.19,3.28h-0.37V0.39h-1.08V0.06h2.54v0.34h-1.08V3.28z"/>
				<path class="st4" d="M41.33,3.34c-0.98,0-1.64-0.77-1.64-1.66S40.35,0,41.34,0s1.64,0.77,1.64,1.66
					C42.98,2.56,42.31,3.34,41.33,3.34z M41.33,0.34c-0.74,0-1.26,0.59-1.26,1.33S40.6,3,41.34,3s1.26-0.59,1.26-1.33
					S42.06,0.34,41.33,0.34z"/>
				<path class="st4" d="M45.63,0.05h0.3l0.88,2.7l0.92-2.69h0.38L46.97,3.3h-0.31l-0.88-2.62L44.88,3.3h-0.3l-1.15-3.25h0.4
					l0.92,2.69L45.63,0.05z"/>
				<path class="st4" d="M51.24,0.06h0.36v3.23h-0.29l-2.08-2.65v2.65h-0.35V0.06h0.34l2.03,2.58V0.06z"/>
				<path class="st4" d="M52.97,1.83v1.45H52.6V0.06h0.36v1.43h1.86V0.06h0.36v3.23h-0.36V1.83H52.97z"/>
				<path class="st4" d="M57.69,3.34c-0.98,0-1.64-0.77-1.64-1.66S56.72,0,57.7,0s1.64,0.77,1.64,1.66
					C59.34,2.56,58.67,3.34,57.69,3.34z M57.69,0.34c-0.74,0-1.26,0.59-1.26,1.33S56.96,3,57.7,3s1.26-0.59,1.26-1.33
					S58.43,0.34,57.69,0.34z"/>
				<path class="st4" d="M61.75,2.4h-0.02l-1.17-1.72v2.61H60.2V0.06h0.37l1.17,1.76l1.17-1.76h0.37v3.23h-0.36V0.67L61.75,2.4z"/>
				<path class="st4" d="M66.63,0.39h-1.97v1.1h1.76v0.33h-1.76v1.13h1.99v0.33H64.3V0.06h2.33V0.39z"/>
				<path class="st4" d="M68.63,1.49c0.72,0.16,1.05,0.42,1.05,0.92c0,0.56-0.46,0.92-1.1,0.92c-0.51,0-0.93-0.17-1.32-0.52
					l0.23-0.27C67.83,2.85,68.15,3,68.6,3c0.43,0,0.72-0.23,0.72-0.55c0-0.3-0.16-0.47-0.84-0.62c-0.74-0.16-1.08-0.4-1.08-0.94
					c0-0.52,0.45-0.88,1.06-0.88c0.47,0,0.81,0.13,1.13,0.4l-0.21,0.28c-0.3-0.24-0.6-0.35-0.93-0.35c-0.42,0-0.69,0.23-0.69,0.53
					C67.76,1.17,67.92,1.34,68.63,1.49z"/>
			</g>
			<g>
				<path class="st4" d="M43.46,56.76H43.1l-0.34-0.77h-1.58l-0.34,0.77H40.5l1.32-2.93h0.31L43.46,56.76z M41.98,54.21l-0.66,1.48
					h1.32L41.98,54.21z"/>
				<path class="st4" d="M44.1,53.85h0.33v2.6h1.63v0.3H44.1V53.85z"/>
				<path class="st4" d="M49.45,56.76H49.1l-0.34-0.77h-1.58l-0.34,0.77H46.5l1.32-2.93h0.31L49.45,56.76z M47.97,54.21l-0.66,1.48
					h1.32L47.97,54.21z"/>
				<path class="st4" d="M51.09,55.15c0.65,0.14,0.95,0.38,0.95,0.83c0,0.5-0.41,0.83-0.99,0.83c-0.46,0-0.84-0.15-1.19-0.46
					l0.2-0.24c0.3,0.27,0.59,0.41,1,0.41c0.39,0,0.65-0.2,0.65-0.5c0-0.27-0.14-0.43-0.75-0.56c-0.67-0.15-0.98-0.36-0.98-0.84
					c0-0.46,0.4-0.8,0.96-0.8c0.42,0,0.73,0.12,1.02,0.36l-0.19,0.25c-0.27-0.22-0.54-0.32-0.84-0.32c-0.38,0-0.62,0.21-0.62,0.47
					C50.3,54.86,50.45,55.01,51.09,55.15z"/>
				<path class="st4" d="M55.25,56.76h-0.41l-1.12-1.41l-0.62,0.63v0.78h-0.33v-2.91h0.33v1.74l1.67-1.74h0.42l-1.24,1.27
					L55.25,56.76z"/>
				<path class="st4" d="M58.53,56.76h-0.35l-0.34-0.77h-1.58l-0.34,0.77h-0.34l1.32-2.93h0.31L58.53,56.76z M57.05,54.21
					l-0.66,1.48h1.32L57.05,54.21z"/>
				<path class="st4" d="M61.54,55.15c0.65,0.14,0.95,0.38,0.95,0.83c0,0.5-0.42,0.83-0.99,0.83c-0.46,0-0.84-0.15-1.19-0.46
					l0.2-0.24c0.3,0.27,0.59,0.41,1,0.41c0.39,0,0.65-0.2,0.65-0.5c0-0.27-0.15-0.43-0.76-0.56c-0.67-0.15-0.98-0.36-0.98-0.84
					c0-0.46,0.4-0.8,0.96-0.8c0.42,0,0.73,0.12,1.02,0.36l-0.19,0.25c-0.27-0.22-0.54-0.32-0.84-0.32c-0.38,0-0.62,0.21-0.62,0.47
					C60.75,54.86,60.9,55.01,61.54,55.15z"/>
				<path class="st4" d="M64.27,56.76h-0.33v-2.6h-0.98v-0.3h2.28v0.3h-0.98V56.76z"/>
				<path class="st4" d="M65.43,56.76v-0.44h0.38v0.44H65.43z"/>
			</g>
			<g>
				<path class="st4" d="M116.77,38.91v0.35L116,39.61v1.58l0.77,0.34v0.34l-2.93-1.32v-0.31L116.77,38.91z M114.22,40.4l1.48,0.66
					v-1.32L114.22,40.4z"/>
				<path class="st4" d="M113.86,38.27v-0.33h2.6V36.3h0.3v1.96H113.86z"/>
				<path class="st4" d="M115.74,34.59v0.71h1.03v0.33h-2.91v-1.09c0-0.66,0.35-1.09,0.93-1.09
					C115.42,33.45,115.74,33.97,115.74,34.59z M114.16,34.56v0.73h1.28v-0.72c0-0.48-0.26-0.8-0.64-0.8
					C114.38,33.78,114.16,34.09,114.16,34.56z"/>
				<path class="st4" d="M115.46,32.45h1.31v0.33h-2.91v-0.33h1.29v-1.68h-1.29v-0.33h2.91v0.33h-1.31V32.45z"/>
				<path class="st4" d="M116.77,26.84v0.35L116,27.53v1.58l0.77,0.34v0.34l-2.93-1.32v-0.31L116.77,26.84z M114.22,28.32l1.48,0.66
					v-1.32L114.22,28.32z"/>
				<path class="st4" d="M116.77,22.16v0.35L116,22.86v1.58l0.77,0.34v0.34l-2.93-1.32v-0.31L116.77,22.16z M114.22,23.65l1.48,0.66
					v-1.32L114.22,23.65z"/>
				<path class="st4" d="M113.86,19.74v-0.35l2.93,1.25v0.29l-2.93,1.25v-0.37l2.5-1.03L113.86,19.74z"/>
				<path class="st4" d="M114.16,16.64v1.77h0.99v-1.59h0.3v1.59h1.02v-1.79h0.3v2.12h-2.91v-2.1H114.16z"/>
				<path class="st4" d="M116.77,15.98h-0.44v-0.38h0.44V15.98z"/>
			</g>
			<g>
				<g>
					<polygon class="st5" points="89.9,11.97 89.9,15.21 87.42,15.21 87.42,11.97 70.87,11.97 70.87,15.21 67.99,15.21 67.99,11.97 
						51.44,11.97 51.44,15.21 48.56,15.21 48.56,11.97 32,11.97 32,15.21 29.27,15.21 29.27,11.97 12.72,11.97 12.72,15.21 
						9.99,15.21 9.99,11.97 6.92,11.97 6.92,24.54 6.92,28.86 0.13,28.86 0.13,44.04 6.92,44.04 7.61,44.04 18.22,44.04 
						18.22,45.23 26.08,45.23 26.08,44.04 37.65,44.04 37.65,45.23 45.51,45.23 45.51,44.04 57.08,44.04 57.08,45.23 64.95,45.23 
						64.95,44.04 76.52,44.04 76.52,45.23 84.38,45.23 84.38,44.04 95.95,44.04 95.95,45.23 104.29,45.23 104.29,40.57 
						104.29,25.88 104.29,24.42 106.45,24.42 106.45,11.97 					"/>
				</g>
				<g>
					<polygon class="st5" points="104.29,25.88 104.29,40.57 95.95,40.57 95.95,44.04 84.38,44.04 84.38,40.57 84.65,40.57 
						84.65,28.97 85.34,28.97 95.3,28.97 95.3,25.88 					"/>
				</g>
				<g>
					<polygon class="st5" points="85.34,25.88 85.34,28.97 84.65,28.97 84.65,40.57 84.38,40.57 76.52,40.57 76.52,44.04 
						64.95,44.04 64.95,40.57 65.22,40.57 65.22,28.97 65.91,28.97 75.87,28.97 75.87,25.88 					"/>
				</g>
				<g>
					<polygon class="st5" points="65.91,25.88 65.91,28.97 65.22,28.97 65.22,40.57 64.95,40.57 57.08,40.57 57.08,44.04 
						45.51,44.04 45.51,40.57 45.79,40.57 45.79,28.97 46.47,28.97 56.43,28.97 56.43,25.88 					"/>
				</g>
				<g>
					<polygon class="st5" points="46.47,25.88 46.47,28.97 45.79,28.97 45.79,40.57 45.51,40.57 37.65,40.57 37.65,44.04 
						26.08,44.04 26.08,40.57 26.36,40.57 26.36,28.97 27.04,28.97 37,28.97 37,25.88 					"/>
				</g>
				<g>
					<polygon class="st6" points="27.04,25.88 27.04,28.97 26.36,28.97 26.36,40.57 26.08,40.57 18.22,40.57 18.22,44.04 
						7.61,44.04 6.92,44.04 6.92,40.68 6.92,32.76 6.92,28.86 17.57,28.86 17.57,25.88 					"/>
				</g>
				<g>
					<path class="st6" d="M104.29,26c-0.07,0-0.12-0.06-0.12-0.12v-1.46c0-0.07,0.06-0.12,0.12-0.12s0.12,0.06,0.12,0.12v1.46
						C104.41,25.95,104.36,26,104.29,26z"/>
				</g>
				<g>
					<path class="st6" d="M85.34,26c-0.07,0-0.12-0.06-0.12-0.12v-1.46c0-0.07,0.06-0.12,0.12-0.12s0.12,0.06,0.12,0.12v1.46
						C85.46,25.95,85.41,26,85.34,26z"/>
				</g>
				<g>
					<path class="st6" d="M65.91,26c-0.07,0-0.12-0.06-0.12-0.12v-1.46c0-0.07,0.06-0.12,0.12-0.12s0.12,0.06,0.12,0.12v1.46
						C66.03,25.95,65.98,26,65.91,26z"/>
				</g>
				<g>
					<path class="st6" d="M46.47,26c-0.07,0-0.12-0.06-0.12-0.12v-1.46c0-0.07,0.06-0.12,0.12-0.12s0.12,0.06,0.12,0.12v1.46
						C46.59,25.95,46.53,26,46.47,26z"/>
				</g>
				<g>
					<path class="st6" d="M27.04,26c-0.07,0-0.12-0.06-0.12-0.12v-1.46c0-0.07,0.06-0.12,0.12-0.12s0.12,0.06,0.12,0.12v1.46
						C27.16,25.95,27.1,26,27.04,26z"/>
				</g>
				<g>
					<path class="st6" d="M6.92,28.98c-0.07,0-0.12-0.06-0.12-0.12v-4.32c0-0.07,0.06-0.12,0.12-0.12s0.12,0.06,0.12,0.12v4.32
						C7.04,28.93,6.98,28.98,6.92,28.98z"/>
				</g>
				<g>
					<path class="st6" d="M12.72,15.33H9.99c-0.07,0-0.12-0.06-0.12-0.12s0.06-0.12,0.12-0.12h2.73c0.07,0,0.12,0.06,0.12,0.12
						S12.78,15.33,12.72,15.33z"/>
				</g>
				<g>
					<path class="st6" d="M32,15.33h-2.73c-0.07,0-0.12-0.06-0.12-0.12s0.06-0.12,0.12-0.12H32c0.07,0,0.12,0.06,0.12,0.12
						S32.06,15.33,32,15.33z"/>
				</g>
				<g>
					<path class="st6" d="M51.44,15.33h-2.88c-0.07,0-0.12-0.06-0.12-0.12s0.06-0.12,0.12-0.12h2.88c0.07,0,0.12,0.06,0.12,0.12
						S51.5,15.33,51.44,15.33z"/>
				</g>
				<g>
					<path class="st6" d="M70.87,15.33h-2.88c-0.07,0-0.12-0.06-0.12-0.12s0.06-0.12,0.12-0.12h2.88c0.07,0,0.12,0.06,0.12,0.12
						S70.94,15.33,70.87,15.33z"/>
				</g>
				<g>
					<path class="st6" d="M89.9,15.33h-2.48c-0.07,0-0.12-0.06-0.12-0.12s0.06-0.12,0.12-0.12h2.48c0.07,0,0.12,0.06,0.12,0.12
						S89.97,15.33,89.9,15.33z"/>
				</g>
				<g>
					<path class="st6" d="M26.08,45.35h-7.86c-0.07,0-0.12-0.06-0.12-0.12v-1.19c0-0.07,0.06-0.12,0.12-0.12s0.12,0.06,0.12,0.12
						v1.07h7.61v-1.07c0-0.07,0.06-0.12,0.12-0.12s0.12,0.06,0.12,0.12v1.19C26.2,45.3,26.15,45.35,26.08,45.35z"/>
				</g>
				<g>
					<path class="st6" d="M45.51,45.35h-7.86c-0.07,0-0.12-0.06-0.12-0.12v-1.19c0-0.07,0.06-0.12,0.12-0.12s0.12,0.06,0.12,0.12
						v1.07h7.61v-1.07c0-0.07,0.06-0.12,0.12-0.12s0.12,0.06,0.12,0.12v1.19C45.63,45.3,45.57,45.35,45.51,45.35z"/>
				</g>
				<g>
					<path class="st6" d="M64.95,45.35h-7.87c-0.07,0-0.12-0.06-0.12-0.12v-1.19c0-0.07,0.06-0.12,0.12-0.12s0.12,0.06,0.12,0.12
						v1.07h7.62v-1.07c0-0.07,0.06-0.12,0.12-0.12s0.12,0.06,0.12,0.12v1.19C65.07,45.3,65.02,45.35,64.95,45.35z"/>
				</g>
				<g>
					<path class="st6" d="M84.38,45.35h-7.86c-0.07,0-0.12-0.06-0.12-0.12v-1.19c0-0.07,0.06-0.12,0.12-0.12s0.12,0.06,0.12,0.12
						v1.07h7.61v-1.07c0-0.07,0.06-0.12,0.12-0.12s0.12,0.06,0.12,0.12v1.19C84.5,45.3,84.45,45.35,84.38,45.35z"/>
				</g>
				<g>
					<path class="st6" d="M104.29,45.35h-8.34c-0.07,0-0.12-0.06-0.12-0.12v-1.19c0-0.07,0.06-0.12,0.12-0.12s0.12,0.06,0.12,0.12
						v1.07h8.09v-4.54c0-0.07,0.06-0.12,0.12-0.12s0.12,0.06,0.12,0.12v4.66C104.41,45.3,104.36,45.35,104.29,45.35z"/>
				</g>
				<g>
					<path class="st6" d="M48.56,24.54h-3.05c-0.07,0-0.12-0.06-0.12-0.12v-6.51H32c-0.07,0-0.12-0.06-0.12-0.12v-5.82
						c0-0.07,0.06-0.12,0.12-0.12h16.56c0.07,0,0.12,0.06,0.12,0.12v12.45C48.68,24.49,48.62,24.54,48.56,24.54z M45.63,24.29h2.8
						v-12.2H32.12v5.57h13.39c0.07,0,0.12,0.06,0.12,0.12V24.29z"/>
				</g>
				<g>
					<path class="st6" d="M67.99,24.54h-3.05c-0.07,0-0.12-0.06-0.12-0.12v-6.51H51.44c-0.07,0-0.12-0.06-0.12-0.12v-5.82
						c0-0.07,0.06-0.12,0.12-0.12h16.55c0.07,0,0.12,0.06,0.12,0.12v12.45C68.11,24.49,68.06,24.54,67.99,24.54z M65.06,24.29h2.8
						v-12.2h-16.3v5.57h13.38c0.07,0,0.12,0.06,0.12,0.12V24.29z"/>
				</g>
				<g>
					<path class="st6" d="M87.42,24.54h-3.04c-0.07,0-0.12-0.06-0.12-0.12v-6.51H70.87c-0.07,0-0.12-0.06-0.12-0.12v-5.82
						c0-0.07,0.06-0.12,0.12-0.12h16.55c0.07,0,0.12,0.06,0.12,0.12v12.45C87.54,24.49,87.49,24.54,87.42,24.54z M84.5,24.29h2.79
						v-12.2h-16.3v5.57h13.38c0.07,0,0.12,0.06,0.12,0.12V24.29z"/>
				</g>
				<g>
					<path class="st6" d="M106.45,24.54h-3.05c-0.07,0-0.12-0.06-0.12-0.12v-6.51H89.9c-0.07,0-0.12-0.06-0.12-0.12v-5.82
						c0-0.07,0.06-0.12,0.12-0.12h16.55c0.07,0,0.12,0.06,0.12,0.12v12.45C106.57,24.49,106.52,24.54,106.45,24.54z M103.52,24.29
						h2.8v-12.2h-16.3v5.57h13.38c0.07,0,0.12,0.06,0.12,0.12V24.29z"/>
				</g>
				<g>
					<path class="st6" d="M29.27,24.54h-3.04c-0.07,0-0.12-0.06-0.12-0.12v-6.51H12.72c-0.07,0-0.12-0.06-0.12-0.12v-5.82
						c0-0.07,0.06-0.12,0.12-0.12h16.55c0.07,0,0.12,0.06,0.12,0.12v12.45C29.39,24.49,29.34,24.54,29.27,24.54z M26.35,24.29h2.79
						v-12.2h-16.3v5.57h13.39c0.07,0,0.12,0.06,0.12,0.12V24.29z"/>
				</g>
				<g>
					<path class="st6" d="M9.99,24.66H6.92c-0.07,0-0.12-0.06-0.12-0.12V11.97c0-0.07,0.06-0.12,0.12-0.12h3.07
						c0.07,0,0.12,0.06,0.12,0.12v12.57C10.11,24.61,10.05,24.66,9.99,24.66z M7.04,24.41h2.82V12.09H7.04V24.41z"/>
				</g>
				<g>
					<path class="st6" d="M6.92,32.88H3.53c-0.07,0-0.12-0.06-0.12-0.12s0.06-0.12,0.12-0.12h3.39c0.07,0,0.12,0.06,0.12,0.12
						S6.99,32.88,6.92,32.88z"/>
				</g>
				<g>
					<path class="st6" d="M6.92,40.8H3.53c-0.07,0-0.12-0.06-0.12-0.12s0.06-0.12,0.12-0.12h3.39c0.07,0,0.12,0.06,0.12,0.12
						S6.99,40.8,6.92,40.8z"/>
				</g>
				<g>
					<path class="st6" d="M95.95,44.16H84.38c-0.07,0-0.12-0.06-0.12-0.12v-3.47c0-0.07,0.06-0.12,0.12-0.12s0.12,0.06,0.12,0.12
						v3.35h11.32v-3.35c0-0.07,0.06-0.12,0.12-0.12h8.21V26h-8.74v2.96c0,0.07-0.06,0.12-0.12,0.12h-9.96
						c-0.07,0-0.12-0.06-0.12-0.12s0.06-0.12,0.12-0.12h9.83v-2.96c0-0.07,0.06-0.12,0.12-0.12h8.99c0.07,0,0.12,0.06,0.12,0.12
						v14.69c0,0.07-0.06,0.12-0.12,0.12h-8.21v3.35C96.07,44.11,96.02,44.16,95.95,44.16z"/>
				</g>
				<g>
					<path class="st6" d="M76.52,44.16H64.95c-0.07,0-0.12-0.06-0.12-0.12v-3.47c0-0.07,0.06-0.12,0.12-0.12s0.12,0.06,0.12,0.12
						v3.35h11.32v-3.35c0-0.07,0.06-0.12,0.12-0.12h8V28.97c0-0.07,0.06-0.12,0.12-0.12h0.56V26h-9.22v2.96
						c0,0.07-0.06,0.12-0.12,0.12h-9.96c-0.07,0-0.12-0.06-0.12-0.12s0.06-0.12,0.12-0.12h9.83v-2.96c0-0.07,0.06-0.12,0.12-0.12
						h9.47c0.07,0,0.12,0.06,0.12,0.12v3.09c0,0.07-0.06,0.12-0.12,0.12h-0.56v11.47c0,0.07-0.06,0.12-0.12,0.12h-8v3.35
						C76.64,44.11,76.59,44.16,76.52,44.16z"/>
				</g>
				<g>
					<path class="st6" d="M57.08,44.16H45.51c-0.07,0-0.12-0.06-0.12-0.12v-3.47c0-0.07,0.06-0.12,0.12-0.12s0.12,0.06,0.12,0.12
						v3.35h11.32v-3.35c0-0.07,0.06-0.12,0.12-0.12h8.02V28.97c0-0.07,0.06-0.12,0.12-0.12h0.56V26h-9.23v2.96
						c0,0.07-0.06,0.12-0.12,0.12h-9.96c-0.07,0-0.12-0.06-0.12-0.12s0.06-0.12,0.12-0.12h9.83v-2.96c0-0.07,0.06-0.12,0.12-0.12
						h9.48c0.07,0,0.12,0.06,0.12,0.12v3.09c0,0.07-0.06,0.12-0.12,0.12h-0.56v11.47c0,0.07-0.06,0.12-0.12,0.12H57.2v3.35
						C57.2,44.11,57.15,44.16,57.08,44.16z"/>
				</g>
				<g>
					<path class="st6" d="M37.65,44.16H26.08c-0.07,0-0.12-0.06-0.12-0.12v-3.47c0-0.07,0.06-0.12,0.12-0.12s0.12,0.06,0.12,0.12
						v3.35h11.32v-3.35c0-0.07,0.06-0.12,0.12-0.12h8.02V28.97c0-0.07,0.06-0.12,0.12-0.12h0.56V26h-9.22v2.96
						c0,0.07-0.06,0.12-0.12,0.12h-9.96c-0.07,0-0.12-0.06-0.12-0.12s0.06-0.12,0.12-0.12h9.83v-2.96c0-0.07,0.06-0.12,0.12-0.12
						h9.47c0.07,0,0.12,0.06,0.12,0.12v3.09c0,0.07-0.06,0.12-0.12,0.12h-0.56v11.47c0,0.07-0.06,0.12-0.12,0.12h-8.02v3.35
						C37.77,44.11,37.71,44.16,37.65,44.16z"/>
				</g>
				<g>
					<path class="st6" d="M18.22,44.16H6.92c-0.07,0-0.12-0.06-0.12-0.12s0.06-0.12,0.12-0.12h11.18v-3.34
						c0-0.07,0.06-0.12,0.12-0.12h8.01V28.97c0-0.07,0.06-0.12,0.12-0.12h0.56V26h-9.22v2.85c0,0.07-0.06,0.12-0.12,0.12H6.92
						c-0.07,0-0.12-0.06-0.12-0.12s0.06-0.12,0.12-0.12h10.52v-2.85c0-0.07,0.06-0.12,0.12-0.12h9.47c0.07,0,0.12,0.06,0.12,0.12
						v3.09c0,0.07-0.06,0.12-0.12,0.12h-0.56v11.47c0,0.07-0.06,0.12-0.12,0.12h-8.01v3.34C18.34,44.11,18.28,44.16,18.22,44.16z"/>
				</g>
				<g>
					<path class="st6" d="M6.92,44.16H0.13C0.06,44.16,0,44.11,0,44.04V28.86c0-0.07,0.06-0.12,0.12-0.12h6.79
						c0.07,0,0.12,0.06,0.12,0.12v15.18C7.04,44.11,6.98,44.16,6.92,44.16z M0.25,43.91h6.54V28.98H0.25V43.91z"/>
				</g>
				<g>
					<path class="st6" d="M3.53,40.8c-0.07,0-0.12-0.06-0.12-0.12v-7.92c0-0.07,0.06-0.12,0.12-0.12s0.12,0.06,0.12,0.12v7.92
						C3.65,40.75,3.59,40.8,3.53,40.8z"/>
				</g>
			</g>
		</g>
	</g>
</g>
</svg>
