<?xml version="1.0" encoding="utf-8"?>
<!-- Generator: Adobe Illustrator 25.2.0, SVG Export Plug-In . SVG Version: 6.00 Build 0)  -->
<svg version="1.1" id="Layer_1" xmlns="http://www.w3.org/2000/svg" xmlns:xlink="http://www.w3.org/1999/xlink" x="0px" y="0px"
	 viewBox="0 0 188.38 144.6" style="enable-background:new 0 0 188.38 144.6;" xml:space="preserve">
<style type="text/css">
	.st0{fill:#245169;}
	.st1{fill:#FFFFFF;}
	.st2{fill:#00516B;}
</style>
<g>
	<path class="st0" d="M24.77,4.29H23.2v2.28h-0.73V0.11h2.41c1.46,0,2.41,0.77,2.41,2.06C27.3,3.57,26.14,4.29,24.77,4.29z
		 M24.83,0.78H23.2v2.84h1.59c1.07,0,1.77-0.57,1.77-1.43C26.56,1.26,25.87,0.78,24.83,0.78z"/>
	<path class="st0" d="M33.47,0.77h-3.94v2.2h3.52v0.66h-3.52V5.9h3.98v0.66H28.8V0.11h4.66v0.66H33.47z"/>
	<path class="st0" d="M39.91,0.11h0.71v6.45h-0.58l-4.17-5.29v5.29h-0.71V0.11h0.68l4.06,5.17V0.11H39.91z"/>
	<path class="st0" d="M45.07,6.56h-0.74V0.78h-2.17V0.11h5.07v0.67h-2.17v5.78H45.07z"/>
	<path class="st0" d="M49.5,3.66v2.9h-0.73V0.11h0.73v2.87h3.72V0.11h0.73v6.45h-0.73v-2.9C53.22,3.66,49.5,3.66,49.5,3.66z"/>
	<path class="st0" d="M58.95,6.67c-1.96,0-3.28-1.54-3.28-3.33C55.66,1.56,57,0,58.96,0s3.28,1.54,3.28,3.33S60.91,6.67,58.95,6.67z
		 M58.95,0.67c-1.47,0-2.53,1.18-2.53,2.65S57.49,6,58.96,6s2.52-1.18,2.52-2.65S60.42,0.67,58.95,0.67z"/>
	<path class="st0" d="M69.24,3.81c0,1.88-1.08,2.86-2.69,2.86c-1.59,0-2.68-0.98-2.68-2.8V0.11h0.73v3.7c0,1.39,0.74,2.18,1.97,2.18
		c1.19,0,1.94-0.72,1.94-2.13V0.11h0.73C69.24,0.11,69.24,3.81,69.24,3.81z"/>
	<path class="st0" d="M73.46,2.99c1.44,0.31,2.1,0.84,2.1,1.83c0,1.11-0.92,1.83-2.2,1.83c-1.02,0-1.86-0.34-2.64-1.03l0.45-0.53
		C71.85,5.7,72.49,6,73.39,6c0.87,0,1.44-0.45,1.44-1.11c0-0.61-0.32-0.95-1.68-1.24c-1.48-0.32-2.17-0.8-2.17-1.87
		c0-1.03,0.89-1.77,2.12-1.77c0.94,0,1.61,0.27,2.27,0.79l-0.42,0.56c-0.6-0.49-1.2-0.7-1.86-0.7c-0.84,0-1.37,0.46-1.37,1.05
		C71.71,2.34,72.04,2.68,73.46,2.99z"/>
	<path class="st0" d="M81.88,0.77h-3.94v2.2h3.52v0.66h-3.52V5.9h3.98v0.66h-4.71V0.11h4.66v0.66H81.88z"/>
	<path class="st0" d="M85.89,2.99c1.44,0.31,2.1,0.84,2.1,1.83c0,1.11-0.92,1.83-2.2,1.83c-1.02,0-1.86-0.34-2.64-1.03l0.45-0.53
		C84.28,5.7,84.92,6,85.82,6c0.87,0,1.44-0.45,1.44-1.11c0-0.61-0.32-0.95-1.68-1.24c-1.48-0.32-2.17-0.8-2.17-1.87
		c0-1.03,0.89-1.77,2.12-1.77c0.94,0,1.61,0.27,2.27,0.79l-0.42,0.56c-0.6-0.49-1.2-0.7-1.86-0.7c-0.84,0-1.37,0.46-1.37,1.05
		C84.14,2.34,84.47,2.68,85.89,2.99z"/>
	<path class="st0" d="M92.29,4.15V3.44h3.67v0.71H92.29z"/>
</g>
<g>
	<path class="st0" d="M104.72,1.37h-3.51v2.07h3.14v0.6h-3.14v2.53h-0.65v-5.8h4.17L104.72,1.37L104.72,1.37z"/>
	<path class="st0" d="M106.16,0.76h0.65v5.19h3.26v0.6h-3.92L106.16,0.76L106.16,0.76z"/>
	<path class="st0" d="M113.82,6.66c-1.76,0-2.95-1.38-2.95-2.99s1.2-3.01,2.97-3.01c1.77,0,2.95,1.38,2.95,2.99
		S115.59,6.66,113.82,6.66z M113.82,1.27c-1.33,0-2.27,1.06-2.27,2.39s0.96,2.4,2.29,2.4s2.27-1.06,2.27-2.39
		S115.15,1.27,113.82,1.27z"/>
	<path class="st0" d="M121.03,6.66c-1.76,0-2.95-1.38-2.95-2.99s1.2-3.01,2.97-3.01c1.77,0,2.95,1.38,2.95,2.99
		S122.8,6.66,121.03,6.66z M121.03,1.27c-1.33,0-2.27,1.06-2.27,2.39s0.96,2.4,2.29,2.4s2.27-1.06,2.27-2.39
		S122.36,1.27,121.03,1.27z"/>
	<path class="st0" d="M129.55,6.56l-1.68-2.25h-1.66v2.25h-0.65v-5.8h2.49c1.28,0,2.1,0.69,2.1,1.73c0,0.97-0.66,1.53-1.57,1.7
		l1.78,2.37C130.36,6.56,129.55,6.56,129.55,6.56z M128,1.37h-1.79v2.35h1.78c0.87,0,1.49-0.45,1.49-1.2
		C129.48,1.8,128.93,1.37,128,1.37z"/>
	<path class="st0" d="M134.53,2.26l-0.48-0.35c0.52-0.78,1.07-1.23,2.09-1.23c1.05,0,1.8,0.7,1.8,1.65c0,0.85-0.45,1.38-1.47,2.26
		l-1.55,1.38h3.07v0.6h-4.05V6.06l2.1-1.86c0.89-0.8,1.21-1.24,1.21-1.82c0-0.68-0.54-1.11-1.17-1.11
		C135.42,1.27,134.99,1.62,134.53,2.26z"/>
	<path class="st0" d="M139.13,0.76h3.94v0.49l-2.63,5.31h-0.73l2.62-5.2h-3.19L139.13,0.76L139.13,0.76z"/>
</g>
<g>
	<path class="st0" d="M62.95,144.52h-0.7l-0.68-1.53h-3.16l-0.69,1.53h-0.67l2.64-5.84h0.61L62.95,144.52z M59.99,139.44l-1.33,2.96
		h2.64L59.99,139.44z"/>
	<path class="st0" d="M64.25,138.72h0.65v5.2h3.26v0.6h-3.92L64.25,138.72L64.25,138.72z"/>
	<path class="st0" d="M74.95,144.52h-0.7l-0.68-1.53h-3.16l-0.69,1.53h-0.67l2.64-5.84h0.61L74.95,144.52z M71.99,139.44l-1.33,2.96
		h2.64L71.99,139.44z"/>
	<path class="st0" d="M78.22,141.3c1.29,0.28,1.89,0.75,1.89,1.65c0,1-0.83,1.65-1.98,1.65c-0.92,0-1.67-0.31-2.37-0.93l0.41-0.48
		c0.6,0.55,1.18,0.82,1.99,0.82c0.78,0,1.29-0.41,1.29-0.99c0-0.55-0.29-0.85-1.51-1.11c-1.33-0.29-1.95-0.72-1.95-1.68
		c0-0.93,0.8-1.59,1.91-1.59c0.85,0,1.45,0.24,2.04,0.71l-0.38,0.5c-0.54-0.44-1.08-0.63-1.67-0.63c-0.75,0-1.23,0.42-1.23,0.95
		C76.64,140.72,76.94,141.03,78.22,141.3z"/>
	<path class="st0" d="M86.54,144.52h-0.82l-2.23-2.81l-1.23,1.25v1.56H81.6v-5.8h0.65v3.46l3.33-3.46h0.85l-2.49,2.54L86.54,144.52z
		"/>
	<path class="st0" d="M93.09,144.52h-0.7l-0.68-1.53h-3.16l-0.69,1.53h-0.67l2.64-5.84h0.61L93.09,144.52z M90.13,139.44l-1.33,2.96
		h2.64L90.13,139.44z"/>
	<path class="st0" d="M99.12,141.3c1.29,0.28,1.89,0.75,1.89,1.65c0,1-0.83,1.65-1.98,1.65c-0.92,0-1.67-0.31-2.37-0.93l0.41-0.48
		c0.61,0.55,1.19,0.82,1.99,0.82c0.78,0,1.29-0.41,1.29-0.99c0-0.55-0.29-0.85-1.51-1.11c-1.33-0.29-1.95-0.72-1.95-1.68
		c0-0.93,0.8-1.59,1.91-1.59c0.84,0,1.45,0.24,2.04,0.71l-0.38,0.5c-0.54-0.44-1.08-0.63-1.67-0.63c-0.75,0-1.23,0.42-1.23,0.95
		C97.55,140.72,97.85,141.03,99.12,141.3z"/>
	<path class="st0" d="M104.58,144.52h-0.66v-5.2h-1.95v-0.6h4.56v0.6h-1.95V144.52z"/>
	<path class="st0" d="M106.91,144.52v-0.87h0.76v0.87H106.91z"/>
</g>
<g>
	<path class="st0" d="M188.34,94.92v0.7l-1.53,0.68v3.16l1.53,0.69v0.67l-5.84-2.64v-0.61L188.34,94.92z M183.26,97.87l2.96,1.33
		v-2.64L183.26,97.87z"/>
	<path class="st0" d="M182.54,93.61v-0.65h5.2V89.7h0.6v3.92L182.54,93.61L182.54,93.61z"/>
	<path class="st0" d="M186.29,86.25v1.41h2.05v0.65h-5.8v-2.17c0-1.31,0.7-2.17,1.85-2.17C185.65,83.97,186.29,85.02,186.29,86.25z
		 M183.15,86.19v1.47h2.55v-1.43c0-0.96-0.51-1.59-1.28-1.59C183.58,84.64,183.15,85.26,183.15,86.19z"/>
	<path class="st0" d="M185.73,81.96h2.61v0.65h-5.8v-0.65h2.58v-3.35h-2.58v-0.65h5.8v0.65h-2.61V81.96z"/>
	<path class="st0" d="M188.34,70.74v0.7l-1.53,0.68v3.16l1.53,0.69v0.67L182.5,74v-0.61L188.34,70.74z M183.26,73.7l2.96,1.33v-2.64
		L183.26,73.7z"/>
	<path class="st0" d="M188.34,61.39v0.7l-1.53,0.68v3.16l1.53,0.69v0.67l-5.84-2.64v-0.61L188.34,61.39z M183.26,64.34l2.96,1.33
		v-2.64L183.26,64.34z"/>
	<path class="st0" d="M182.54,56.54v-0.7l5.84,2.49v0.58l-5.84,2.49v-0.73l5-2.06L182.54,56.54z"/>
	<path class="st0" d="M183.14,50.34v3.54h1.98v-3.17h0.6v3.17h2.03V50.3h0.6v4.23h-5.8v-4.19
		C182.55,50.34,183.14,50.34,183.14,50.34z"/>
	<path class="st0" d="M188.34,49h-0.87v-0.76h0.87V49z"/>
</g>
<g>
	<g>
		<polygon class="st1" points="165.11,77.25 165.11,121.57 90.61,121.57 90.61,109.04 154.57,109.04 154.57,77.25 		"/>
	</g>
	<g>
		<polygon class="st2" points="165.11,72.93 165.11,77.25 154.57,77.25 154.57,109.03 90.61,109.03 90.61,74.39 106.07,74.39 
			106.07,72.41 113.79,72.41 113.79,64.37 110.57,64.37 110.57,54.89 113.93,54.89 113.93,53.37 132.47,53.37 132.47,64.09 
			154.57,64.09 154.57,72.93 158.61,72.93 		"/>
	</g>
	<g>
		<polygon class="st1" points="158.61,53.37 158.61,72.93 154.57,72.93 154.57,64.09 132.47,64.09 132.47,53.37 113.93,53.37 
			113.93,41.21 113.93,35.93 136.41,35.93 136.41,53.37 		"/>
	</g>
	<g>
		<polygon class="st1" points="113.93,53.37 113.93,54.89 110.57,54.89 103.97,54.89 103.97,48.05 103.97,41.21 111.05,41.21 
			113.93,41.21 		"/>
	</g>
	<g>
		<polygon class="st1" points="113.93,27.02 113.93,35.7 112.49,35.7 112.49,30.17 111.05,30.17 111.05,27.02 		"/>
	</g>
	<g>
		<rect x="111.04" y="35.93" class="st1" width="2.88" height="5.28"/>
	</g>
	<g>
		<polygon class="st1" points="113.79,64.37 113.79,72.41 106.07,72.41 106.07,74.39 90.61,74.39 75.11,74.39 75.11,72.41 
			70.95,72.41 70.95,54.89 77.23,54.89 77.23,66.25 90.61,66.25 103.97,66.25 103.97,54.89 110.57,54.89 110.57,64.37 		"/>
	</g>
	<g>
		<polygon class="st1" points="111.05,35.93 111.05,41.21 103.97,41.21 77.23,41.21 67.27,41.21 67.27,35.93 		"/>
	</g>
	<g>
		<polygon class="st1" points="103.97,54.89 103.97,66.25 97.29,60.57 		"/>
	</g>
	<g>
		<polygon class="st1" points="103.97,48.05 103.97,54.89 90.61,54.89 77.23,54.89 77.23,48.05 		"/>
	</g>
	<g>
		<rect x="77.22" y="41.21" class="st1" width="26.74" height="6.84"/>
	</g>
	<g>
		<polygon class="st1" points="103.97,54.89 97.29,60.57 90.61,54.89 		"/>
	</g>
	<g>
		<polygon class="st1" points="103.97,66.25 90.61,66.25 97.29,60.57 		"/>
	</g>
	<g>
		<polygon class="st1" points="97.29,60.57 90.61,66.25 90.61,54.89 		"/>
	</g>
	<g>
		<rect x="50.59" y="109.03" class="st1" width="40.02" height="12.54"/>
	</g>
	<g>
		<polygon class="st1" points="90.61,54.89 90.61,66.25 83.93,60.57 		"/>
	</g>
	<g>
		<polygon class="st1" points="90.61,54.89 83.93,60.57 77.23,54.89 		"/>
	</g>
	<g>
		<polygon class="st1" points="90.61,66.25 77.23,66.25 83.93,60.57 		"/>
	</g>
	<g>
		<polygon class="st1" points="83.93,60.57 77.23,66.25 77.23,54.89 		"/>
	</g>
	<g>
		<polygon class="st1" points="77.23,48.05 77.23,54.89 70.95,54.89 67.27,54.89 67.27,53.37 67.27,41.21 77.23,41.21 		"/>
	</g>
	<g>
		<polygon class="st1" points="67.27,53.37 67.27,54.89 70.95,54.89 70.95,72.41 75.11,72.41 75.11,74.39 90.61,74.39 90.61,109.03 
			50.59,109.03 26.67,109.03 26.67,88.09 26.31,88.09 26.31,77.25 26.31,75.15 26.67,75.15 26.67,72.93 26.67,64.09 45.27,64.09 
			48.73,64.09 48.73,53.37 		"/>
	</g>
	<g>
		<polygon class="st1" points="67.27,35.93 67.27,41.21 67.27,53.37 48.73,53.37 48.15,53.37 48.15,35.93 		"/>
	</g>
	<g>
		<polygon class="st1" points="48.73,53.37 48.73,64.09 45.27,64.09 45.27,54.23 45.27,35.93 48.15,35.93 48.15,53.37 		"/>
	</g>
	<g>
		<rect x="45.27" y="21.33" class="st1" width="2.88" height="8.3"/>
	</g>
	<g>
		<polygon class="st1" points="45.27,54.23 45.27,64.09 26.67,64.09 26.67,72.94 13.13,72.94 11.25,72.94 11.25,54.23 		"/>
	</g>
	<g>
		<polygon class="st1" points="26.67,88.09 26.67,109.04 26.67,110.05 0.85,110.05 0.85,77.25 13.13,77.25 26.31,77.25 26.31,88.09 
					"/>
	</g>
	<g>
		<polygon class="st1" points="26.31,75.15 26.31,77.25 13.13,77.25 13.13,72.94 26.67,72.94 26.67,75.15 		"/>
	</g>
	<g>
		<polygon class="st1" points="13.13,72.93 13.13,77.25 0.85,77.25 0.13,77.25 0.13,72.93 11.25,72.93 		"/>
	</g>
	<g>
		<path class="st2" d="M103.97,66.38c-0.03,0-0.06-0.01-0.08-0.03L90.61,55.06l-13.3,11.29c-0.05,0.05-0.13,0.04-0.18-0.01
			s-0.04-0.13,0.01-0.18L90.52,54.8c0.05-0.04,0.12-0.04,0.16,0l13.36,11.36c0.05,0.04,0.06,0.12,0.01,0.18
			C104.04,66.36,104,66.38,103.97,66.38z"/>
	</g>
	<g>
		<path class="st2" d="M90.61,66.38c-0.03,0-0.06-0.01-0.08-0.03L77.15,54.99c-0.05-0.04-0.06-0.12-0.01-0.18
			c0.04-0.05,0.12-0.06,0.18-0.01l13.3,11.29L103.9,54.8c0.05-0.04,0.13-0.04,0.18,0.01c0.04,0.05,0.04,0.13-0.01,0.18L90.69,66.35
			C90.66,66.37,90.63,66.38,90.61,66.38z"/>
	</g>
	<g>
		<path class="st2" d="M90.61,66.38c-0.07,0-0.12-0.06-0.12-0.12V54.89c0-0.07,0.06-0.12,0.12-0.12s0.12,0.06,0.12,0.12v11.36
			C90.73,66.32,90.67,66.38,90.61,66.38z"/>
	</g>
	<g>
		<path class="st2" d="M77.23,55.02c-0.07,0-0.12-0.06-0.12-0.12V41.21c0-0.07,0.06-0.12,0.12-0.12s0.12,0.06,0.12,0.12v13.68
			C77.35,54.96,77.29,55.02,77.23,55.02z"/>
	</g>
	<g>
		<path class="st2" d="M103.97,55.02c-0.07,0-0.12-0.06-0.12-0.12V41.21c0-0.07,0.06-0.12,0.12-0.12s0.12,0.06,0.12,0.12v13.68
			C104.09,54.96,104.03,55.02,103.97,55.02z"/>
	</g>
	<g>
		<path class="st2" d="M90.61,121.7H50.59c-0.07,0-0.12-0.06-0.12-0.12v-12.54c0-0.07,0.06-0.12,0.12-0.12s0.12,0.06,0.12,0.12
			v12.42h39.9c0.07,0,0.12,0.06,0.12,0.12S90.67,121.7,90.61,121.7z"/>
	</g>
	<g>
		<path class="st2" d="M26.67,110.18H0.85c-0.07,0-0.12-0.06-0.12-0.12v-32.8c0-0.07,0.06-0.12,0.12-0.12s0.12,0.06,0.12,0.12v32.68
			h25.57v-0.89c0-0.07,0.06-0.12,0.12-0.12s0.12,0.06,0.12,0.12v1.02C26.79,110.12,26.73,110.18,26.67,110.18z"/>
	</g>
	<g>
		<path class="st2" d="M158.61,73.06c-0.07,0-0.12-0.06-0.12-0.12V53.5h-22.08c-0.07,0-0.12-0.06-0.12-0.12V36.06H45.27
			c-0.07,0-0.12-0.06-0.12-0.12s0.06-0.12,0.12-0.12h91.14c0.07,0,0.12,0.06,0.12,0.12v17.31h22.08c0.07,0,0.12,0.06,0.12,0.12
			v19.56C158.73,73,158.68,73.06,158.61,73.06z"/>
	</g>
	<g>
		<path class="st2" d="M11.25,73.06c-0.07,0-0.12-0.06-0.12-0.12v-18.7c0-0.07,0.06-0.12,0.12-0.12h34.02
			c0.07,0,0.12,0.06,0.12,0.12s-0.06,0.12-0.12,0.12h-33.9v18.58C11.37,73,11.31,73.06,11.25,73.06z"/>
	</g>
	<g>
		<path class="st2" d="M165.11,121.7h-74.5c-0.07,0-0.12-0.06-0.12-0.12v-12.54c0-0.07,0.06-0.12,0.12-0.12s0.12,0.06,0.12,0.12
			v12.42h74.25v-44.2c0-0.07,0.06-0.12,0.12-0.12s0.12,0.06,0.12,0.12v44.32C165.23,121.64,165.18,121.7,165.11,121.7z"/>
	</g>
	<g>
		<path class="st2" d="M67.27,41.34c-0.07,0-0.12-0.06-0.12-0.12v-5.28c0-0.07,0.06-0.12,0.12-0.12s0.12,0.06,0.12,0.12v5.28
			C67.39,41.28,67.33,41.34,67.27,41.34z"/>
	</g>
	<g>
		<path class="st2" d="M113.93,41.34c-0.07,0-0.12-0.06-0.12-0.12v-5.28c0-0.07,0.06-0.12,0.12-0.12s0.12,0.06,0.12,0.12v5.28
			C114.05,41.28,113.99,41.34,113.93,41.34z"/>
	</g>
	<g>
		<path class="st2" d="M113.93,53.5c-0.07,0-0.12-0.06-0.12-0.12V41.34H67.39v12.04c0,0.07-0.06,0.12-0.12,0.12
			s-0.12-0.06-0.12-0.12V41.21c0-0.07,0.06-0.12,0.12-0.12h46.66c0.07,0,0.12,0.06,0.12,0.12v12.16
			C114.05,53.44,114,53.5,113.93,53.5z"/>
	</g>
	<g>
		<path class="st2" d="M77.23,55.02h-6.28c-0.07,0-0.12-0.06-0.12-0.12s0.06-0.12,0.12-0.12h6.28c0.07,0,0.12,0.06,0.12,0.12
			S77.29,55.02,77.23,55.02z"/>
	</g>
	<g>
		<path class="st2" d="M110.57,55.02h-6.6c-0.07,0-0.12-0.06-0.12-0.12s0.06-0.12,0.12-0.12h6.6c0.07,0,0.12,0.06,0.12,0.12
			S110.64,55.02,110.57,55.02z"/>
	</g>
	<g>
		<path class="st2" d="M103.97,66.38H77.23c-0.07,0-0.12-0.06-0.12-0.12V54.89c0-0.07,0.06-0.12,0.12-0.12h26.74
			c0.07,0,0.12,0.06,0.12,0.12v11.36C104.09,66.32,104.04,66.38,103.97,66.38z M77.35,66.13h26.49V55.02H77.35V66.13z"/>
	</g>
	<g>
		<path class="st2" d="M103.97,48.18H77.23c-0.07,0-0.12-0.06-0.12-0.12s0.06-0.12,0.12-0.12h26.74c0.07,0,0.12,0.06,0.12,0.12
			S104.04,48.18,103.97,48.18z"/>
	</g>
	<g>
		<path class="st2" d="M154.57,109.16H90.61c-0.07,0-0.12-0.06-0.12-0.12s0.06-0.12,0.12-0.12h63.84V77.25
			c0-0.07,0.06-0.12,0.12-0.12h10.42v-4.07h-10.42c-0.07,0-0.12-0.06-0.12-0.12v-8.72h-21.98c-0.07,0-0.12-0.06-0.12-0.12V53.5
			h-18.29v1.4c0,0.07-0.06,0.12-0.12,0.12h-3.23v9.23h3.09c0.07,0,0.12,0.06,0.12,0.12v8.04c0,0.07-0.06,0.12-0.12,0.12h-7.59v1.86
			c0,0.07-0.06,0.12-0.12,0.12H90.61c-0.07,0-0.12-0.06-0.12-0.12s0.06-0.12,0.12-0.12h15.34v-1.86c0-0.07,0.06-0.12,0.12-0.12h7.59
			V64.5h-3.09c-0.07,0-0.12-0.06-0.12-0.12V54.9c0-0.07,0.06-0.12,0.12-0.12h3.23v-1.4c0-0.07,0.06-0.12,0.12-0.12h18.54
			c0.07,0,0.12,0.06,0.12,0.12v10.59h21.98c0.07,0,0.12,0.06,0.12,0.12v8.72h10.42c0.07,0,0.12,0.06,0.12,0.12v4.32
			c0,0.07-0.06,0.12-0.12,0.12h-10.42v31.66C154.69,109.1,154.64,109.16,154.57,109.16z"/>
	</g>
	<g>
		<path class="st2" d="M90.61,109.16H26.67c-0.07,0-0.12-0.06-0.12-0.12V88.22h-0.23c-0.07,0-0.12-0.06-0.12-0.12V75.15
			c0-0.07,0.06-0.12,0.12-0.12h0.23V64.09c0-0.07,0.06-0.12,0.12-0.12H48.6v-10.6c0-0.07,0.06-0.12,0.12-0.12h18.54
			c0.07,0,0.12,0.06,0.12,0.12v1.4h3.56c0.07,0,0.12,0.06,0.12,0.12v17.4h4.03c0.07,0,0.12,0.06,0.12,0.12v1.85h15.38
			c0.07,0,0.12,0.06,0.12,0.12v34.64C90.73,109.1,90.67,109.16,90.61,109.16z M26.79,108.91h63.69V74.52H75.11
			c-0.07,0-0.12-0.06-0.12-0.12v-1.85h-4.03c-0.07,0-0.12-0.06-0.12-0.12v-17.4h-3.56c-0.07,0-0.12-0.06-0.12-0.12v-1.4H48.85V64.1
			c0,0.07-0.06,0.12-0.12,0.12H26.79v10.94c0,0.07-0.06,0.12-0.12,0.12h-0.23v12.69h0.23c0.07,0,0.12,0.06,0.12,0.12V108.91z"/>
	</g>
	<g>
		<path class="st2" d="M13.12,77.38h-13C0.06,77.38,0,77.32,0,77.25v-4.32c0-0.07,0.06-0.12,0.12-0.12h13
			c0.07,0,0.12,0.06,0.12,0.12v4.32C13.25,77.32,13.19,77.38,13.12,77.38z M0.25,77.13H13v-4.07H0.25V77.13z"/>
	</g>
	<g>
		<path class="st2" d="M48.15,29.76h-2.88c-0.07,0-0.12-0.06-0.12-0.12v-8.3c0-0.07,0.06-0.12,0.12-0.12h2.88
			c0.07,0,0.12,0.06,0.12,0.12v8.3C48.27,29.7,48.22,29.76,48.15,29.76z M45.39,29.51h2.63v-8.05h-2.63V29.51z"/>
	</g>
	<g>
		<path class="st2" d="M113.93,35.82h-1.44c-0.07,0-0.12-0.06-0.12-0.12v-5.4h-1.31c-0.07,0-0.12-0.06-0.12-0.12v-3.16
			c0-0.07,0.06-0.12,0.12-0.12h2.88c0.07,0,0.12,0.06,0.12,0.12v8.68C114.05,35.76,113.99,35.82,113.93,35.82z M112.61,35.57h1.19
			v-8.43h-2.63v2.91h1.31c0.07,0,0.12,0.06,0.12,0.12L112.61,35.57L112.61,35.57z"/>
	</g>
	<g>
		<path class="st2" d="M111.05,41.3c-0.07,0-0.12-0.06-0.12-0.12v-2c0-0.07,0.06-0.12,0.12-0.12s0.12,0.06,0.12,0.12v2
			C111.17,41.24,111.11,41.3,111.05,41.3z M111.05,38.3c-0.07,0-0.12-0.06-0.12-0.12v-2c0-0.07,0.06-0.12,0.12-0.12
			s0.12,0.06,0.12,0.12v2C111.17,38.24,111.11,38.3,111.05,38.3z M111.05,35.3c-0.07,0-0.12-0.06-0.12-0.12v-2
			c0-0.07,0.06-0.12,0.12-0.12s0.12,0.06,0.12,0.12v2C111.17,35.24,111.11,35.3,111.05,35.3z M111.05,32.3
			c-0.07,0-0.12-0.06-0.12-0.12v-2c0-0.07,0.06-0.12,0.12-0.12s0.12,0.06,0.12,0.12v2C111.17,32.24,111.11,32.3,111.05,32.3z"/>
	</g>
	<g>
		<path class="st2" d="M48.73,53.5h-0.58c-0.07,0-0.12-0.06-0.12-0.12s0.06-0.12,0.12-0.12h0.58c0.07,0,0.12,0.06,0.12,0.12
			S48.79,53.5,48.73,53.5z"/>
	</g>
	<g>
		<path class="st2" d="M48.15,53.5c-0.07,0-0.12-0.06-0.12-0.12v-2c0-0.07,0.06-0.12,0.12-0.12s0.12,0.06,0.12,0.12v2
			C48.27,53.44,48.21,53.5,48.15,53.5z M48.15,50.5c-0.07,0-0.12-0.06-0.12-0.12v-2c0-0.07,0.06-0.12,0.12-0.12s0.12,0.06,0.12,0.12
			v2C48.27,50.44,48.21,50.5,48.15,50.5z M48.15,47.5c-0.07,0-0.12-0.06-0.12-0.12v-2c0-0.07,0.06-0.12,0.12-0.12
			s0.12,0.06,0.12,0.12v2C48.27,47.44,48.21,47.5,48.15,47.5z M48.15,44.5c-0.07,0-0.12-0.06-0.12-0.12v-2
			c0-0.07,0.06-0.12,0.12-0.12s0.12,0.06,0.12,0.12v2C48.27,44.44,48.21,44.5,48.15,44.5z M48.15,41.5c-0.07,0-0.12-0.06-0.12-0.12
			v-2c0-0.07,0.06-0.12,0.12-0.12s0.12,0.06,0.12,0.12v2C48.27,41.44,48.21,41.5,48.15,41.5z M48.15,38.5
			c-0.07,0-0.12-0.06-0.12-0.12v-2c0-0.07,0.06-0.12,0.12-0.12s0.12,0.06,0.12,0.12v2C48.27,38.44,48.21,38.5,48.15,38.5z
			 M48.15,35.5c-0.07,0-0.12-0.06-0.12-0.12v-2c0-0.07,0.06-0.12,0.12-0.12s0.12,0.06,0.12,0.12v2
			C48.27,35.44,48.21,35.5,48.15,35.5z M48.15,32.5c-0.07,0-0.12-0.06-0.12-0.12v-2c0-0.07,0.06-0.12,0.12-0.12s0.12,0.06,0.12,0.12
			v2C48.27,32.44,48.21,32.5,48.15,32.5z"/>
	</g>
	<g>
		<path class="st2" d="M45.27,64.22c-0.07,0-0.12-0.06-0.12-0.12v-1.46c0-0.07,0.06-0.12,0.12-0.12s0.12,0.06,0.12,0.12v1.46
			C45.39,64.16,45.33,64.22,45.27,64.22z M45.27,61.76c-0.07,0-0.12-0.06-0.12-0.12v-2c0-0.07,0.06-0.12,0.12-0.12
			s0.12,0.06,0.12,0.12v2C45.39,61.7,45.33,61.76,45.27,61.76z M45.27,58.76c-0.07,0-0.12-0.06-0.12-0.12v-2
			c0-0.07,0.06-0.12,0.12-0.12s0.12,0.06,0.12,0.12v2C45.39,58.7,45.33,58.76,45.27,58.76z M45.27,55.76
			c-0.07,0-0.12-0.06-0.12-0.12v-2c0-0.07,0.06-0.12,0.12-0.12s0.12,0.06,0.12,0.12v2C45.39,55.7,45.33,55.76,45.27,55.76z
			 M45.27,52.76c-0.07,0-0.12-0.06-0.12-0.12v-2c0-0.07,0.06-0.12,0.12-0.12s0.12,0.06,0.12,0.12v2
			C45.39,52.7,45.33,52.76,45.27,52.76z M45.27,49.76c-0.07,0-0.12-0.06-0.12-0.12v-2c0-0.07,0.06-0.12,0.12-0.12
			s0.12,0.06,0.12,0.12v2C45.39,49.7,45.33,49.76,45.27,49.76z M45.27,46.76c-0.07,0-0.12-0.06-0.12-0.12v-2
			c0-0.07,0.06-0.12,0.12-0.12s0.12,0.06,0.12,0.12v2C45.39,46.7,45.33,46.76,45.27,46.76z M45.27,43.76
			c-0.07,0-0.12-0.06-0.12-0.12v-2c0-0.07,0.06-0.12,0.12-0.12s0.12,0.06,0.12,0.12v2C45.39,43.7,45.33,43.76,45.27,43.76z
			 M45.27,40.76c-0.07,0-0.12-0.06-0.12-0.12v-2c0-0.07,0.06-0.12,0.12-0.12s0.12,0.06,0.12,0.12v2
			C45.39,40.7,45.33,40.76,45.27,40.76z M45.27,37.76c-0.07,0-0.12-0.06-0.12-0.12v-2c0-0.07,0.06-0.12,0.12-0.12
			s0.12,0.06,0.12,0.12v2C45.39,37.7,45.33,37.76,45.27,37.76z M45.27,34.76c-0.07,0-0.12-0.06-0.12-0.12v-2
			c0-0.07,0.06-0.12,0.12-0.12s0.12,0.06,0.12,0.12v2C45.39,34.7,45.33,34.76,45.27,34.76z M45.27,31.76
			c-0.07,0-0.12-0.06-0.12-0.12v-2c0-0.07,0.06-0.12,0.12-0.12s0.12,0.06,0.12,0.12v2C45.39,31.7,45.33,31.76,45.27,31.76z"/>
	</g>
	<g>
		<path class="st2" d="M26.67,73.06h-1.54C25.06,73.06,25,73,25,72.94s0.06-0.12,0.12-0.12h1.54c0.07,0,0.12,0.06,0.12,0.12
			S26.73,73.06,26.67,73.06z M24.12,73.06h-2C22.06,73.06,22,73,22,72.94s0.06-0.12,0.12-0.12h2c0.07,0,0.12,0.06,0.12,0.12
			S24.19,73.06,24.12,73.06z M21.12,73.06h-2C19.06,73.06,19,73,19,72.94s0.06-0.12,0.12-0.12h2c0.07,0,0.12,0.06,0.12,0.12
			S21.19,73.06,21.12,73.06z M18.12,73.06h-2C16.06,73.06,16,73,16,72.94s0.06-0.12,0.12-0.12h2c0.07,0,0.12,0.06,0.12,0.12
			S18.19,73.06,18.12,73.06z M15.12,73.06h-2C13.06,73.06,13,73,13,72.94s0.06-0.12,0.12-0.12h2c0.07,0,0.12,0.06,0.12,0.12
			S15.19,73.06,15.12,73.06z"/>
	</g>
	<g>
		<path class="st2" d="M26.31,77.38h-1.18c-0.07,0-0.12-0.06-0.12-0.12s0.06-0.12,0.12-0.12h1.18c0.07,0,0.12,0.06,0.12,0.12
			S26.37,77.38,26.31,77.38z M24.12,77.38h-2c-0.07,0-0.12-0.06-0.12-0.12s0.06-0.12,0.12-0.12h2c0.07,0,0.12,0.06,0.12,0.12
			S24.19,77.38,24.12,77.38z M21.12,77.38h-2c-0.07,0-0.12-0.06-0.12-0.12s0.06-0.12,0.12-0.12h2c0.07,0,0.12,0.06,0.12,0.12
			S21.19,77.38,21.12,77.38z M18.12,77.38h-2c-0.07,0-0.12-0.06-0.12-0.12s0.06-0.12,0.12-0.12h2c0.07,0,0.12,0.06,0.12,0.12
			S18.19,77.38,18.12,77.38z M15.12,77.38h-2c-0.07,0-0.12-0.06-0.12-0.12s0.06-0.12,0.12-0.12h2c0.07,0,0.12,0.06,0.12,0.12
			S15.19,77.38,15.12,77.38z"/>
	</g>
</g>
</svg>
