bb3<?xml version="1.0" encoding="utf-8"?>
<!-- Generator: Adobe Illustrator 25.2.0, SVG Export Plug-In . SVG Version: 6.00 Build 0)  -->
<svg version="1.1" xmlns="http://www.w3.org/2000/svg" xmlns:xlink="http://www.w3.org/1999/xlink" x="0px" y="0px"
	 viewBox="0 0 85.8 50.4" style="enable-background:new 0 0 85.8 50.4;" xml:space="preserve">
<style type="text/css">
	.bb0{fill:#FFFFFF;stroke:#00516B;stroke-width:0.25;stroke-linecap:round;stroke-linejoin:round;stroke-miterlimit:10;}
	.bb1{fill:#667986;stroke:#00516B;stroke-width:0.25;stroke-linecap:round;stroke-linejoin:round;stroke-miterlimit:10;}
	.bb2{fill:none;stroke:#00516B;stroke-width:0.25;stroke-linecap:round;stroke-linejoin:round;stroke-miterlimit:10;}
	.bb3{fill:none;}
	.bb4{fill:#245169;}
	.bb5{font-family:'Gotham-Book';}
	.bb6{font-size:3.722px;}
</style>
<g id="base">
	<polygon class="bb0" points="85.7,50.3 85.7,44 82.6,44 82.6,28.1 82.6,25.9 77.3,25.9 77.3,21.8 80.9,21.8 80.9,8 75.2,8 75.2,4
		57,4 57,3 55.6,3 55.6,4 48.6,4 48.6,1.2 33.9,1.2 24.1,1.2 24.1,0.1 22.7,0.1 22.7,4 5.6,4 5.6,25.9 0.1,25.9 0.1,28.1 0.4,28.1
		0.4,44.5 13.4,44.5 13.4,44 26.8,44 26.8,49 27,49 27,50.3 45.4,50.3 	"/>
	<polygon class="bb1" points="33.9,1.2 33.9,10.1 33.7,10.1 33.7,16.9 35.5,16.9 35.5,25.7 37.6,25.7 37.6,26.7 53.1,26.7
		53.1,25.7 56.9,25.7 56.9,21.6 55.3,21.6 55.3,16.9 57,16.9 57,10.1 56.7,10.1 56.7,7.3 56.3,7.3 56.3,4.5 55.6,4.5 55.6,4 48.6,4
		48.6,1.2 	"/>
	<polyline class="bb2" points="38.7,22.6 42,19.7 45.4,16.9 48.7,19.7 52,22.6 	"/>
	<polyline class="bb2" points="38.7,16.9 42,19.7 45.4,22.6 48.7,19.7 52,16.9 	"/>
	<line class="bb2" x1="45.4" y1="22.6" x2="45.4" y2="16.9"/>
	<polyline class="bb2" points="38.7,16.9 38.7,13.5 38.7,10.1 	"/>
	<polyline class="bb2" points="52,16.9 52,13.5 52,10.1 	"/>
	<polyline class="bb2" points="26.8,44 26.8,49 27,49 27,50.3 45.4,50.3 	"/>
	<polyline class="bb2" points="45.4,44 45.4,50.3 85.7,50.3 85.7,44 82.6,44 82.6,28.1 	"/>
	<polyline class="bb2" points="77.3,21.8 80.9,21.8 80.9,8 75.2,8 75.2,4 57,4 	"/>
	<polyline class="bb2" points="0.4,28.1 0.4,44.5 13.4,44.5 13.4,44 	"/>
	<polyline class="bb2" points="22.7,4 5.6,4 5.6,25.9 	"/>
	<line class="bb2" x1="33.9" y1="1.2" x2="24.1" y2="1.2"/>
	<line class="bb2" x1="56.7" y1="10.1" x2="56.7" y2="7.3"/>
	<polyline class="bb2" points="55.6,4 48.6,4 48.6,1.2 33.9,1.2 33.9,10.1 	"/>
	<line class="bb2" x1="38.7" y1="16.9" x2="35.5" y2="16.9"/>
	<line class="bb2" x1="55.3" y1="16.9" x2="52" y2="16.9"/>
	<polyline class="bb2" points="33.7,16.1 33.7,10.1 33.9,10.1 38.7,10.1 52,10.1 56.7,10.1 57,10.1 57,16.1 	"/>
	<polygon class="bb2" points="38.7,22.6 45.4,22.6 52,22.6 52,16.9 45.4,16.9 38.7,16.9 	"/>
	<line class="bb2" x1="38.7" y1="13.5" x2="52" y2="13.5"/>
	<polygon class="bb2" points="45.4,44 77.3,44 77.3,28.1 82.6,28.1 82.6,25.9 77.3,25.9 77.3,21.8 77.3,21.5 66.3,21.5 66.3,16.1
		57,16.1 57,16.9 55.3,16.9 55.3,21.6 56.9,21.6 56.9,25.7 53.1,25.7 53.1,26.7 45.4,26.7 	"/>
	<polygon class="bb2" points="45.4,26.7 37.6,26.7 37.6,25.7 35.5,25.7 35.5,16.9 33.7,16.9 33.7,16.1 24.4,16.1 24.4,21.5
		13.4,21.5 13.4,27 13.2,27 13.2,33.5 13.4,33.5 13.4,44 26.8,44 45.4,44 	"/>
	<polygon class="bb2" points="5.6,25.9 0.1,25.9 0.1,28.1 0.4,28.1 6.6,28.1 6.6,25.9 	"/>
	<polygon class="bb2" points="22.7,4 22.7,4.3 24.1,4.3 24.1,1.2 24.1,0.1 22.7,0.1 	"/>
	<polygon class="bb2" points="55.6,4 55.6,3 57,3 57,4 57,7.3 56.7,7.3 56.3,7.3 56.3,4.5 55.6,4.5 	"/>
</g>
<g id="shape-sph2">
	<polygon class="bb0" points="45.4,26.7 37.6,26.7 37.6,25.7 35.5,25.7 35.5,16.9 33.7,16.9 33.7,16.1 24.4,16.1 24.4,21.5
		13.4,21.5 13.4,27 13.2,27 13.2,33.5 13.4,33.5 13.4,44 26.8,44 45.4,44 	"/>
</g>
<g id="shape-sph1">
	<polygon class="bb0" points="45.4,44 77.3,44 77.3,28.1 82.6,28.1 82.6,25.9 77.3,25.9 77.3,21.8 77.3,21.5 66.3,21.5 66.3,16.1
		57,16.1 57,16.9 55.3,16.9 55.3,21.6 56.9,21.6 56.9,25.7 53.1,25.7 53.1,26.7 45.4,26.7 	"/>
</g>




<g id="trigger-sph2" data-plan="SPH2">
	<polygon class="bb3" points="45.4,26.7 37.6,26.7 37.6,25.7 35.5,25.7 35.5,16.9 33.7,16.9 33.7,16.1 24.4,16.1 24.4,21.5
		13.4,21.5 13.4,27 13.2,27 13.2,33.5 13.4,33.5 13.4,44 26.8,44 45.4,44 	"/>
	<g>
		<text transform="matrix(1 0 0 1 20 32)" class="bb4 bb5 bb6 title">2602</text>
	</g>
	<g>
		<text transform="matrix(1 0 0 1 20 35)" class="bb4 bb5 bb6 label">3BR + 2BA</text>
	</g>
	<g>
		<text transform="matrix(1 0 0 1 20 38)" class="bb4 bb5 bb6 label">SPH2</text>
	</g>
</g>




<g id="trigger-sph1" data-plan="SPH1">
	<polygon class="bb3" points="45.4,44 77.3,44 77.3,28.1 82.6,28.1 82.6,25.9 77.3,25.9 77.3,21.8 77.3,21.5 66.3,21.5 66.3,16.1
		57,16.1 57,16.9 55.3,16.9 55.3,21.6 56.9,21.6 56.9,25.7 53.1,25.7 53.1,26.7 45.4,26.7 	"/>
	<g>
		<text transform="matrix(1 0 0 1 54 32)" class="bb4 bb5 bb6 title">2601</text>
	</g>
	<g>
		<text transform="matrix(1 0 0 1 54 35)" class="bb4 bb5 bb6 label">3BR + 2BA</text>
	</g>
	<g>
		<text transform="matrix(1 0 0 1 54 38)" class="bb4 bb5 bb6 label">SPH2</text>
	</g>
</g>
</svg>
