<?xml version="1.0" encoding="utf-8"?>
<!-- Generator: Adobe Illustrator 25.2.0, SVG Export Plug-In . SVG Version: 6.00 Build 0)  -->
<svg version="1.1" xmlns="http://www.w3.org/2000/svg" xmlns:xlink="http://www.w3.org/1999/xlink" x="0px" y="0px"
	 viewBox="0 0 94.9 73.6" style="enable-background:new 0 0 94.9 73.6;" xml:space="preserve">
<style type="text/css">
	.st0{fill:#FFFFFF;}
	.st1{fill:none;stroke:#00516B;stroke-width:0.25;stroke-linecap:round;stroke-linejoin:round;stroke-miterlimit:10;}
	.st2{fill:#FFFFFF;stroke:#00516B;stroke-width:0.25;stroke-linecap:round;stroke-linejoin:round;stroke-miterlimit:10;}
	.st3{fill:none;}
	.st4{fill:#245169;}
	.st5{font-family:'Gotham-Book';}
	.st6{font-size:3.722px;}
	.st7{font-size:4.1447px;}
	.st8{font-size:4.6077px;}
</style>
<g id="base">
	<polygon class="st0" points="85.7,61.5 85.7,55.2 82.6,55.2 82.6,39.3 82.6,37.1 77.3,37.1 77.3,33 80.9,33 80.9,19.2 75.2,19.2
		75.2,15.2 57,15.2 57,14.1 55.6,14.1 55.6,15.2 48.6,15.2 48.6,12.4 33.9,12.4 24.1,12.4 24.1,11.3 22.7,11.3 22.7,15.2 5.6,15.2
		5.6,37.1 0.1,37.1 0.1,39.3 0.4,39.3 0.4,55.7 13.4,55.7 13.4,55.2 26.8,55.2 26.8,60.2 27,60.2 27,61.5 45.4,61.5 	"/>
	<polyline class="st1" points="38.7,33.8 42,30.9 45.4,28.1 48.7,30.9 52,33.8 	"/>
	<polyline class="st1" points="38.7,28.1 42,30.9 45.4,33.8 48.7,30.9 52,28.1 	"/>
	<line class="st1" x1="45.4" y1="33.8" x2="45.4" y2="28.1"/>
	<polyline class="st1" points="38.7,28.1 38.7,24.7 38.7,21.2 	"/>
	<polyline class="st1" points="52,28.1 52,24.7 52,21.2 	"/>
	<polyline class="st1" points="26.8,55.2 26.8,60.2 27,60.2 27,61.5 45.4,61.5 	"/>
	<polyline class="st1" points="45.4,55.2 45.4,61.5 85.7,61.5 85.7,55.2 82.6,55.2 82.6,39.3 	"/>
	<polyline class="st1" points="77.3,33 80.9,33 80.9,19.2 75.2,19.2 75.2,15.2 57,15.2 	"/>
	<polyline class="st1" points="0.4,39.3 0.4,55.7 13.4,55.7 13.4,55.2 	"/>
	<polyline class="st1" points="22.7,15.2 5.6,15.2 5.6,37.1 	"/>
	<line class="st1" x1="33.9" y1="12.4" x2="24.1" y2="12.4"/>
	<line class="st1" x1="56.7" y1="21.2" x2="56.7" y2="18.5"/>
	<polyline class="st1" points="55.6,15.2 48.6,15.2 48.6,12.4 33.9,12.4 33.9,21.2 	"/>
	<line class="st1" x1="38.7" y1="28.1" x2="35.5" y2="28.1"/>
	<line class="st1" x1="55.3" y1="28.1" x2="52" y2="28.1"/>
	<polyline class="st1" points="33.7,27.3 33.7,21.2 33.9,21.2 38.7,21.2 52,21.2 56.7,21.2 57,21.2 57,27.3 	"/>
	<polygon class="st1" points="38.7,33.8 45.4,33.8 52,33.8 52,28.1 45.4,28.1 38.7,28.1 	"/>
	<line class="st1" x1="38.7" y1="24.7" x2="52" y2="24.7"/>
	<polygon class="st1" points="45.4,55.2 77.3,55.2 77.3,39.3 82.6,39.3 82.6,37.1 77.3,37.1 77.3,33 77.3,32.7 66.3,32.7 66.3,27.3
		57,27.3 57,28.1 55.3,28.1 55.3,32.8 56.9,32.8 56.9,36.9 53.1,36.9 53.1,37.8 45.4,37.8 	"/>
	<polygon class="st1" points="45.4,37.8 37.6,37.8 37.6,36.9 35.5,36.9 35.5,28.1 33.7,28.1 33.7,27.3 24.4,27.3 24.4,32.7
		13.4,32.7 13.4,38.2 13.2,38.2 13.2,44.7 13.4,44.7 13.4,55.2 26.8,55.2 45.4,55.2 	"/>
	<polygon class="st1" points="5.6,37.1 0.1,37.1 0.1,39.3 0.4,39.3 6.6,39.3 6.6,37.1 	"/>
	<polygon class="st1" points="22.7,15.2 22.7,15.5 24.1,15.5 24.1,12.4 24.1,11.3 22.7,11.3 	"/>
	<polygon class="st1" points="55.6,15.2 55.6,14.1 57,14.1 57,15.2 57,18.5 56.7,18.5 56.3,18.5 56.3,15.7 55.6,15.7 	"/>
</g>
<g id="shape-sph2">
	<polygon class="st2" points="45.4,37.8 37.6,37.8 37.6,36.9 35.5,36.9 35.5,28.1 33.7,28.1 33.7,27.3 24.4,27.3 24.4,32.7
		13.4,32.7 13.4,38.2 13.2,38.2 13.2,44.7 13.4,44.7 13.4,55.2 26.8,55.2 45.4,55.2 	"/>
</g>
<g id="shape-sph1">
	<polygon class="st2" points="45.4,55.2 77.3,55.2 77.3,39.3 82.6,39.3 82.6,37.1 77.3,37.1 77.3,33 77.3,32.7 66.3,32.7 66.3,27.3
		57,27.3 57,28.1 55.3,28.1 55.3,32.8 56.9,32.8 56.9,36.9 53.1,36.9 53.1,37.8 45.4,37.8 	"/>
</g>
<g id="trigger-sph2" data-plan="SPH2">
	<polygon class="st3" points="45.4,37.8 37.6,37.8 37.6,36.9 35.5,36.9 35.5,28.1 33.7,28.1 33.7,27.3 24.4,27.3 24.4,32.7
		13.4,32.7 13.4,38.2 13.2,38.2 13.2,44.7 13.4,44.7 13.4,55.2 26.8,55.2 45.4,55.2 	"/>
	<g>
		<text transform="matrix(1 0 0 1 26 42.5275)" class="st4 st5 st6">2602</text>
	</g>
	<g>
		<text transform="matrix(1 0 0 1 20.7001 46.485)" class="st4 st5 st6">3BR + 2BA</text>
	</g>
	<g>
		<text transform="matrix(1 0 0 1 25.5 50.4396)" class="st4 st5 st6">SPH2</text>
	</g>
</g>
<g id="trigger-sph1" data-plan="SPH1">
	<polygon class="st3" points="45.4,55.2 77.3,55.2 77.3,39.3 82.6,39.3 82.6,37.1 77.3,37.1 77.3,33 77.3,32.7 66.3,32.7 66.3,27.3
		57,27.3 57,28.1 55.3,28.1 55.3,32.8 56.9,32.8 56.9,36.9 53.1,36.9 53.1,37.8 45.4,37.8 	"/>
	<g>
		<text transform="matrix(1 0 0 1 60 42.5275)" class="st4 st5 st6">2601</text>
	</g>
	<g>
		<text transform="matrix(1 0 0 1 54.2463 46.485)" class="st4 st5 st6">3BR + 2BA</text>
	</g>
	<g>
		<text transform="matrix(1 0 0 1 59.5 50.4396)" class="st4 st5 st6">SPH1</text>
	</g>
</g>
<g id="text-streets">
	<text transform="matrix(1 0 0 1 28.4132 72.8925)"><tspan x="0" y="0" class="st4 st5 st7">AL</tspan><tspan x="6" y="0" class="st4 st5 st7">A</tspan><tspan x="9.3" y="0" class="st4 st5 st7">S</tspan><tspan x="12" y="0" class="st4 st5 st7">K</tspan><tspan x="15.1" y="0" class="st4 st5 st7">A </tspan><tspan x="19.7" y="0" class="st4 st5 st7">S</tspan><tspan x="22.4" y="0" class="st4 st5 st7">T</tspan><tspan x="24.8" y="0" class="st4 st5 st7">.</tspan></text>
	<text transform="matrix(0 -1 1 0 94.2217 51.2041)"><tspan x="0" y="0" class="st4 st5 st7">ALPHA </tspan><tspan x="16.7" y="0" class="st4 st5 st7">A</tspan><tspan x="19.7" y="0" class="st4 st5 st7">VE</tspan><tspan x="25.7" y="0" class="st4 st5 st7">.</tspan></text>
</g>
<g id="text-type">
	<g>
		<text transform="matrix(1 0 0 1 27.591 3.9158)" class="st4 st5 st8">SUB-PENTHOUSE</text>
	</g>
</g>
</svg>
