<?xml version="1.0" encoding="utf-8"?>
<!-- Generator: Adobe Illustrator 25.2.0, SVG Export Plug-In . SVG Version: 6.00 Build 0)  -->
<svg version="1.1" xmlns="http://www.w3.org/2000/svg" xmlns:xlink="http://www.w3.org/1999/xlink" x="0px" y="0px"
	 viewBox="0 0 82.2 62.9" style="enable-background:new 0 0 82.2 62.9;" xml:space="preserve">
<style type="text/css">
	.st0{fill:#FFFFFF;}
	.st1{fill:none;stroke:#00516B;stroke-width:0.1956;stroke-linecap:round;stroke-linejoin:round;stroke-miterlimit:10;}
	.st2{fill:none;}
	.st3{fill:#245169;}
	.st4{font-family:'Gotham-Book';}
	.st5{font-size:2.2021px;}
	.st6{font-size:4.1447px;}
	.st7{font-size:4.6077px;}
</style>
<g id="base">
	<path class="st0" d="M68.8,47.3L68.8,47.3V33h-5.6v0.5l0,0V33v-3.9v0h4.5V13.3h-4.8v2.7H48.1l0,0.2h-5.8v-2.4H22v2.2v0h0h-3.9v-4.5
		H6.1v4.8h2.7V33H4.6v1.7v0H0.1v15.5h4.8v-2.7h0h19.2l0,0h0v1.1h1.3h0v3.4h46v-4.8H68.8z M21.2,33.6L21.2,33.6l0-3h1.9v-0.2l0,0h4.7
		v-0.6h3.5V26l3.4,0l-0.1,4.5l10.5,0l0-4.5l3.3,0h0.4v4.5h3.7v3.1h0.7v2.8h-4.4v0v-2H36.7v0H28v-1.2h-3.3l0,0.5H21.2z"/>
	<polyline class="st1" points="48.8,36.3 48.8,34.3 36.7,34.3 	"/>
	<polyline class="st1" points="34.6,30.4 37.2,28.2 39.8,26 42.4,28.2 45.1,30.4 	"/>
	<polyline class="st1" points="34.6,26 37.2,28.2 39.8,30.4 42.4,28.2 45.1,26 	"/>
	<line class="st1" x1="39.8" y1="30.4" x2="39.8" y2="26"/>
	<line class="st1" x1="42.3" y1="16.1" x2="48.1" y2="16.1"/>
	<polyline class="st1" points="4.6,34.7 0.1,34.7 0.1,50.2 4.9,50.2 4.9,47.6 	"/>
	<polyline class="st1" points="25.4,48.7 25.4,52.1 36.7,52.1 48.8,52.1 60.6,52.1 71.4,52.1 71.4,47.3 68.8,47.3 	"/>
	<polyline class="st1" points="8.7,16.2 6.1,16.2 6.1,11.4 18.2,11.4 18.2,15.9 	"/>
	<polyline class="st1" points="62.8,15.9 62.8,13.3 67.6,13.3 67.6,29.1 63.1,29.1 	"/>
	<line class="st1" x1="36.7" y1="48.7" x2="36.7" y2="52.1"/>
	<line class="st1" x1="48.8" y1="48.7" x2="48.8" y2="52.1"/>
	<polyline class="st1" points="34.6,26 34.6,23.1 34.6,20.3 	"/>
	<polyline class="st1" points="45.1,26 45.1,23.1 45.1,20.3 	"/>
	<line class="st1" x1="60.6" y1="52.1" x2="60.6" y2="47.6"/>
	<line class="st1" x1="34.6" y1="26" x2="31.3" y2="26"/>
	<line class="st1" x1="48.4" y1="26" x2="45.1" y2="26"/>
	<polyline class="st1" points="42.3,20.3 45.1,20.3 48.1,20.3 	"/>
	<polygon class="st1" points="34.6,30.4 39.8,30.4 45.1,30.4 45.1,26 39.8,26 34.6,26 	"/>
	<polyline class="st1" points="28,34.3 28,33.1 24.6,33.1 24.6,33.6 	"/>
	<polyline class="st1" points="23.1,30.4 27.8,30.4 27.8,29.9 	"/>
	<line class="st1" x1="34.6" y1="23.1" x2="45.1" y2="23.1"/>
</g>
<g id="shape-f">
	<polygon class="st1" points="48.8,36.3 53.2,36.3 53.2,37.1 58.2,37.1 58.2,41.8 60.6,41.8 60.6,47.6 49.4,47.6 48.8,47.6 	"/>
</g>
<g id="shape-e">
	<polygon class="st1" points="53.2,36.3 53.2,33.6 63.1,33.6 63.1,33 68.8,33 68.8,47.3 68.8,47.6 60.6,47.6 60.6,41.8 58.2,41.8
		58.2,37.1 53.2,37.1 	"/>
</g>
<g id="shape-d-d1">
	<polygon class="st1" points="21.2,33.6 24.6,33.6 24.6,35 24.6,47.6 24.1,47.6 4.9,47.6 4.6,47.6 4.6,34.7 4.6,33 8.7,33 8.7,33.6
			"/>
</g>
<g id="shape-c1">
	<polygon class="st1" points="23.1,28.6 23.1,15.9 22,15.9 18.2,15.9 8.7,15.9 8.7,16.2 8.7,33 8.7,33.6 21.2,33.6 21.2,30.6
		23.1,30.6 23.1,30.4 	"/>
</g>
<g id="shape-c">
	<polygon class="st1" points="63.1,33.6 63.1,29.1 63.1,15.9 62.8,15.9 48.1,15.9 48.1,16.1 48.1,20.3 48.4,20.3 48.4,26 48.8,26
		48.8,30.4 52.5,30.4 52.5,33.6 53.2,33.6 	"/>
</g>
<g id="shape-b">
	<polygon class="st1" points="22,15.9 22,13.7 42.3,13.7 42.3,16.1 42.3,20.3 34.6,20.3 31.3,20.3 31.3,26 31.3,29.9 27.8,29.9
		27.8,28.6 23.1,28.6 23.1,15.9 	"/>
</g>
<g id="shape-a1">
	<polygon class="st1" points="24.1,47.6 24.1,48.7 25.4,48.7 36.7,48.7 36.7,34.3 28,34.3 28,35 24.6,35 24.6,47.6 	"/>
</g>
<g id="shape-a">
	<polygon class="st1" points="36.7,48.7 48.8,48.7 49.4,48.7 49.4,47.6 48.8,47.6 48.8,34.3 36.7,34.3 	"/>
</g>



<g id="trigger-c" data-plan="C">
	<polygon class="st2" points="63.1,33.6 63.1,29.1 63.1,15.9 62.8,15.9 48.1,15.9 48.1,16.1 48.1,20.3 48.4,20.3 48.4,26 48.8,26
		48.8,30.4 52.5,30.4 52.5,33.6 53.2,33.6 	"/>
	<g>
		<text transform="matrix(1 0 0 1 54 22.8804)" class="st3 st4 st5">301</text>
	</g>
	<g>
		<text transform="matrix(1 0 0 1 51.5 25.0051)" class="st3 st4 st5">2BR+2BA</text>
	</g>
	<g>
		<text transform="matrix(1 0 0 1 55 26.9878)" class="st3 st4 st5">C</text>
	</g>
</g>



<g id="trigger-e" data-plan="E">
	<polygon class="st2" points="53.2,36.3 53.2,33.6 63.1,33.6 63.1,33 68.8,33 68.8,47.3 68.8,47.6 60.6,47.6 60.6,41.8 58.2,41.8
		58.2,37.1 53.2,37.1 	"/>
	<g>
		<text transform="matrix(1 0 0 1 62 36.6871)" class="st3 st4 st5">302</text>
	</g>
	<g>
		<text transform="matrix(1 0 0 1 59 38.8118)" class="st3 st4 st5">1BR+1BA</text>
	</g>
	<g>
		<text transform="matrix(1 0 0 1 63 40.7945)" class="st3 st4 st5">E</text>
	</g>
</g>



<g id="trigger-f" data-plan="F">
	<polygon class="st2" points="48.8,36.3 53.2,36.3 53.2,37.1 58.2,37.1 58.2,41.8 60.6,41.8 60.6,47.6 49.4,47.6 48.8,47.6 	"/>
	<g>
		<text transform="matrix(1 0 0 1 53 42.2927)" class="st3 st4 st5">303</text>
	</g>
	<g>
		<text transform="matrix(1 0 0 1 50 44.4174)" class="st3 st4 st5">STU+1BA</text>
	</g>
	<g>
		<text transform="matrix(1 0 0 1 54 46.4001)" class="st3 st4 st5">F</text>
	</g>
</g>



<g id="trigger-a" data-plan="A">
	<polygon class="st2" points="36.7,48.7 48.8,48.7 49.4,48.7 49.4,47.6 48.8,47.6 48.8,34.3 36.7,34.3 	"/>
	<g>
		<text transform="matrix(1 0 0 1 41 40.5505)" class="st3 st4 st5">304</text>
	</g>
	<g>
		<text transform="matrix(1 0 0 1 38 42.6753)" class="st3 st4 st5">1BR+1BA</text>
	</g>
	<g>
		<text transform="matrix(1 0 0 1 42 44.658)" class="st3 st4 st5">A</text>
	</g>
</g>



<g id="trigger-a1" data-plan="A1">
	<polygon class="st2" points="24.1,47.6 24.1,48.7 25.4,48.7 36.7,48.7 36.7,34.3 28,34.3 28,35 24.6,35 24.6,47.6 	"/>
	<g>
		<text transform="matrix(1 0 0 1 29 40.5505)" class="st3 st4 st5">305</text>
	</g>
	<g>
		<text transform="matrix(1 0 0 1 26 42.6753)" class="st3 st4 st5">1BR+1BA</text>
	</g>
	<g>
		<text transform="matrix(1 0 0 1 29.5 44.658)" class="st3 st4 st5">A1</text>
	</g>
</g>



<g id="trigger-d-d1" data-plan="D">
	<polygon class="st2" points="21.2,33.6 24.6,33.6 24.6,35 24.6,47.6 24.1,47.6 4.9,47.6 4.6,47.6 4.6,34.7 4.6,33 8.7,33 8.7,33.6
			"/>
	<g>
		<text transform="matrix(1 0 0 1 12.5 38.9762)" class="st3 st4 st5">306</text>
	</g>
	<g>
		<text transform="matrix(1 0 0 1 10 41.318)" class="st3 st4 st5">2BR+2BA</text>
	</g>
	<g>
		<text transform="matrix(1 0 0 1 13.5 43.6573)" class="st3 st4 st5">D</text>
	</g>
</g>



<g id="trigger-c1" data-plan="C1">
	<polygon class="st2" points="23.1,28.6 23.1,15.9 22,15.9 18.2,15.9 8.7,15.9 8.7,16.2 8.7,33 8.7,33.6 21.2,33.6 21.2,30.6
		23.1,30.6 23.1,30.4 	"/>
	<g>
		<text transform="matrix(1 0 0 1 14 22.6491)" class="st3 st4 st5">307</text>
	</g>
	<g>
		<text transform="matrix(1 0 0 1 11.5 24.9909)" class="st3 st4 st5">2BR+2BA</text>
	</g>
	<g>
		<text transform="matrix(1 0 0 1 14.5 27.3302)" class="st3 st4 st5">C1</text>
	</g>
</g>



<g id="trigger-b" data-plan="B">
	<polygon class="st2" points="22,15.9 22,13.7 42.3,13.7 42.3,16.1 42.3,20.3 34.6,20.3 31.3,20.3 31.3,26 31.3,29.9 27.8,29.9
		27.8,28.6 23.1,28.6 23.1,15.9 	"/>
	<g>
		<text transform="matrix(1 0 0 1 30.5 15.5795)" class="st3 st4 st5">308</text>
	</g>
	<g>
		<text transform="matrix(1 0 0 1 28 17.7042)" class="st3 st4 st5">1BR+1BA</text>
	</g>
	<g>
		<text transform="matrix(1 0 0 1 31.5 19.6869)" class="st3 st4 st5">B</text>
	</g>
</g>











<g id="text-streets">
	<g>
		<text transform="matrix(1 0 0 1 26.3128 62.2222)" class="st3 st4 st6">ALASKA ST.</text>
	</g>
	<g>
		<text transform="matrix(0 -1 1 0 81.5375 44.2527)" class="st3 st4 st6">ALPHA AVE.</text>
	</g>
</g>
<g id="text-type">
	<g>
		<text transform="matrix(1 0 0 1 32.2204 3.9165)" class="st3 st4 st7">TOWER</text>
	</g>
</g>
</svg>
