<?xml version="1.0" encoding="utf-8"?>
<!-- Generator: Adobe Illustrator 25.2.0, SVG Export Plug-In . SVG Version: 6.00 Build 0)  -->
<svg version="1.1" xmlns="http://www.w3.org/2000/svg" xmlns:xlink="http://www.w3.org/1999/xlink" x="0px" y="0px"
	 viewBox="0 0 94.9 73.6" style="enable-background:new 0 0 94.9 73.6;" xml:space="preserve">
<style type="text/css">
	.st0{fill:#FFFFFF;}
	.st1{fill:none;stroke:#00516B;stroke-width:0.25;stroke-linecap:round;stroke-linejoin:round;stroke-miterlimit:10;}

		.st2{fill:none;stroke:#00516B;stroke-width:0.25;stroke-linecap:round;stroke-linejoin:round;stroke-miterlimit:10;stroke-dasharray:2,1;}
	.st3{fill:none;}
	.st4{fill:#245169;}
	.st5{font-family:'Gotham-Book';}
	.st6{font-size:3.722px;}
	.st7{font-size:4.1447px;}
	.st8{font-size:4.6077px;}
</style>
<g id="base">
	<polygon class="st0" points="79.4,37.1 79.4,37.1 79.4,27.3 68.3,27.3 68.3,18.6 57,18.6 57,18.6 55.6,18.6 55.6,18.6 31,18.6
		24.1,18.6 22.7,18.6 22.7,27.8 5.7,27.8 5.7,37.1 0.1,37.1 0.1,39.3 0.5,39.5 0.5,55.7 13.4,55.7 13.4,55.2 25.4,55.2 25.4,61.4
		45.4,61.4 45.4,61.4 82.6,61.4 82.6,39.3 82.6,39.3 82.6,37.1 	"/>
	<polygon class="st0" points="57,14.1 57,18.5 56.3,18.5 56.3,15.7 55.6,15.7 55.6,14.1 	"/>
	<rect x="22.7" y="11.3" class="st0" width="1.4" height="4.1"/>
	<polygon class="st1" points="33.7,27.3 33.7,28.1 35.5,28.1 35.5,36.8 37.6,36.8 37.6,37.8 45.4,37.8 45.4,55.2 25.4,55.2
		13.4,55.2 13.4,44.7 13.2,44.7 13.2,39.3 13.2,38.2 13.4,38.2 13.4,37.1 13.4,32.7 22.7,32.7 24.4,32.7 24.4,27.3 	"/>
	<polyline class="st1" points="38.7,33.8 42,30.9 45.4,28.1 48.7,30.9 52,33.8 	"/>
	<polyline class="st1" points="38.7,28.1 42,30.9 45.4,33.8 48.7,30.9 52,28.1 	"/>
	<line class="st1" x1="45.4" y1="33.8" x2="45.4" y2="28.1"/>
	<polyline class="st1" points="38.7,28.1 38.7,24.7 38.7,21.2 	"/>
	<polyline class="st1" points="52,28.1 52,24.7 52,21.2 	"/>
	<polyline class="st1" points="25.4,55.2 25.4,61.4 45.4,61.4 	"/>
	<polyline class="st1" points="13.4,55.2 13.4,55.7 0.5,55.7 0.5,39.3 	"/>
	<polyline class="st1" points="22.7,18.6 24.1,18.6 33.7,18.6 55.6,18.6 57,18.6 68.3,18.6 68.3,27.3 79.4,27.3 79.4,37.1 	"/>
	<polyline class="st1" points="5.7,37.1 5.7,27.8 22.7,27.8 	"/>
	<polyline class="st1" points="45.4,55.2 45.4,61.4 82.6,61.4 82.6,39.3 	"/>
	<line class="st1" x1="33.7" y1="21.2" x2="33.7" y2="18.6"/>
	<line class="st1" x1="57" y1="21.2" x2="57" y2="18.6"/>
	<polyline class="st1" points="33.7,27.3 33.7,21.2 38.7,21.2 52,21.2 55.6,21.2 57,21.2 57,27.3 	"/>
	<line class="st1" x1="38.7" y1="28.1" x2="35.5" y2="28.1"/>
	<line class="st1" x1="55.3" y1="28.1" x2="52" y2="28.1"/>
	<polygon class="st1" points="38.7,33.8 45.4,33.8 52,33.8 52,28.1 45.4,28.1 38.7,28.1 	"/>
	<line class="st1" x1="38.7" y1="24.7" x2="52" y2="24.7"/>
	<polyline class="st1" points="45.4,55.2 77.3,55.2 77.3,39.3 82.6,39.3 82.6,37.1 79.4,37.1 77.3,37.1 77.3,32.7 66.3,32.7
		66.3,27.3 57,27.3 57,28.1 55.3,28.1 55.3,32.8 57,32.8 57,36.8 53.1,36.8 53.1,37.8 45.4,37.8 	"/>
	<polygon class="st1" points="5.7,37.1 0.1,37.1 0.1,39.3 0.5,39.3 6.6,39.3 6.6,37.1 	"/>
	<rect x="22.7" y="11.3" class="st1" width="1.4" height="4.1"/>
	<polygon class="st1" points="55.6,14.1 57,14.1 57,18.5 56.3,18.5 56.3,15.7 55.6,15.7 	"/>
	<polyline class="st2" points="55.6,15.7 55.6,18.6 55.6,21.2 	"/>
	<line class="st2" x1="24.4" y1="27.3" x2="24.1" y2="27.3"/>
	<polyline class="st2" points="24.1,27.3 24.1,18.6 24.1,15.5 	"/>
	<polyline class="st2" points="22.7,15.5 22.7,18.6 22.7,27.8 22.7,32.7 	"/>
	<line class="st2" x1="6.6" y1="37.1" x2="13.4" y2="37.1"/>
	<line class="st2" x1="6.6" y1="39.3" x2="13.2" y2="39.3"/>
</g>
<g id="shape-ph2">
	<polygon class="st1" points="45.4,37.8 37.6,37.8 37.6,36.8 35.5,36.8 35.5,28.1 33.7,28.1 33.7,27.3 24.4,27.3 24.4,32.7
		22.7,32.7 13.4,32.7 13.4,37.1 13.4,38.2 13.2,38.2 13.2,39.3 13.2,44.7 13.4,44.7 13.4,55.2 25.4,55.2 45.4,55.2 	"/>
</g>
<g id="shape-ph1">
	<polygon class="st1" points="82.6,37.1 82.6,39.3 77.3,39.3 77.3,55.2 45.4,55.2 45.4,37.8 53.1,37.8 53.1,36.8 57,36.8 57,32.8
		55.3,32.8 55.3,28.1 57,28.1 57,27.3 66.3,27.3 66.3,32.7 77.3,32.7 77.3,37.1 79.4,37.1 	"/>
</g>


<g id="trigger-ph2" data-plan="PH2">
	<polygon id="hotspot-ph2" class="st3" points="45.4,37.8 37.6,37.8 37.6,36.8 35.5,36.8 35.5,28.1 33.7,28.1 33.7,27.3 24.4,27.3
		24.4,32.7 22.7,32.7 13.4,32.7 13.4,37.1 13.4,38.2 13.2,38.2 13.2,39.3 13.2,44.7 13.4,44.7 13.4,55.2 25.4,55.2 45.4,55.2 	"/>
	<g>
		<text transform="matrix(1 0 0 1 26 42.5275)" class="st4 st5 st6">2702</text>
	</g>
	<g>
		<text transform="matrix(1 0 0 1 20.7001 46.485)" class="st4 st5 st6">3BR + 2BA</text>
	</g>
	<g>
		<text transform="matrix(1 0 0 1 26.5 50.4396)" class="st4 st5 st6">PH2</text>
	</g>
</g>
<g id="trigger-ph1" data-plan="PH1">
	<polygon id="hotspot-ph1" class="st3" points="82.6,37.1 82.6,39.3 77.3,39.3 77.3,55.2 45.4,55.2 45.4,37.8 53.1,37.8 53.1,36.8
		57,36.8 57,32.8 55.3,32.8 55.3,28.1 57,28.1 57,27.3 66.3,27.3 66.3,32.7 77.3,32.7 77.3,37.1 79.4,37.1 	"/>
	<g>
		<text transform="matrix(1 0 0 1 60 42.5275)" class="st4 st5 st6">2701</text>
	</g>
	<g>
		<text transform="matrix(1 0 0 1 54.2463 46.485)" class="st4 st5 st6">3BR + 2BA</text>
	</g>
	<g>
		<text transform="matrix(1 0 0 1 60.5 50.4396)" class="st4 st5 st6">PH1</text>
	</g>
</g>
<g id="text-streets">
	<text transform="matrix(1 0 0 1 28.4252 72.8926)"><tspan x="0" y="0" class="st4 st5 st7">AL</tspan><tspan x="6" y="0" class="st4 st5 st7">A</tspan><tspan x="9.3" y="0" class="st4 st5 st7">S</tspan><tspan x="12" y="0" class="st4 st5 st7">K</tspan><tspan x="15.1" y="0" class="st4 st5 st7">A </tspan><tspan x="19.7" y="0" class="st4 st5 st7">S</tspan><tspan x="22.4" y="0" class="st4 st5 st7">T</tspan><tspan x="24.8" y="0" class="st4 st5 st7">.</tspan></text>
	<text transform="matrix(0 -1 1 0 94.2324 51.2041)"><tspan x="0" y="0" class="st4 st5 st7">ALPHA </tspan><tspan x="16.7" y="0" class="st4 st5 st7">A</tspan><tspan x="19.7" y="0" class="st4 st5 st7">VE</tspan><tspan x="25.7" y="0" class="st4 st5 st7">.</tspan></text>
</g>
<g id="text-type">
	<g>
		<text transform="matrix(1 0 0 1 33.1652 3.9158)" class="st4 st5 st8">PENTHOUSE</text>
	</g>
</g>
</svg>
