<?xml version="1.0" encoding="utf-8"?>
<!-- Generator: Adobe Illustrator 25.2.0, SVG Export Plug-In . SVG Version: 6.00 Build 0)  -->
<svg version="1.1" xmlns="http://www.w3.org/2000/svg" xmlns:xlink="http://www.w3.org/1999/xlink" x="0px" y="0px"
	 viewBox="0 0 71.5 40.9" style="enable-background:new 0 0 71.5 40.9;" xml:space="preserve">
<style type="text/css">
	.cc0{fill:#FFFFFF;stroke:#00516B;stroke-width:0.1956;stroke-linecap:round;stroke-linejoin:round;stroke-miterlimit:10;}
	.cc1{fill:#667986;stroke:#00516B;stroke-width:0.1956;stroke-linecap:round;stroke-linejoin:round;stroke-miterlimit:10;}
	.cc2{fill:none;stroke:#00516B;stroke-width:0.1956;stroke-linecap:round;stroke-linejoin:round;stroke-miterlimit:10;}
	.cc3{fill:none;}
	.cc4{fill:#245169;}
	.cc5{font-family:'Gotham-Book';}
	.cc6{font-size:2.2021px;}
</style>
<g id="base">
	<path class="cc0" d="M68.8,36L68.8,36V21.7h-5.6v0.5l0,0v-0.5v-3.9v0h4.5V1.9h-4.8v2.7H48.1l0,0.2h-5.8V2.4H22v2.2v0h0h-3.9V0.1
		H6.1v4.8h2.7v16.8H4.6v1.7v0H0.1v15.5h4.8v-2.7h0h19.2l0,0h0v1.1h1.3h0v3.4h46V36H68.8z M21.2,22.3L21.2,22.3l0-3h1.9v-0.2l0-1.8
		h4.7l0,1.3h3.5v-3.9l3.4,0l-0.1,4.5l10.5,0l0-4.5l3.3,0h0.4v4.5h3.7v3.1h0.7V25h-4.4v0v-2H36.7v0H28v0.7h-3.3l0-1.4H21.2z"/>
	<polygon class="cc1" points="48.4,9 31.3,9 31.3,18.5 27.8,18.5 27.8,17.3 23.1,17.3 23.1,19.3 21.2,19.3 21.2,22.3 24.6,22.3
		24.6,23.7 28,23.7 28,23 48.8,23 48.8,25 53.2,25 53.2,22.3 52.5,22.3 52.5,19.1 48.8,19.1 48.8,14.7 48.4,14.7 	"/>
	<polyline class="cc2" points="48.8,25 48.8,23 36.7,23 	"/>
	<polyline class="cc2" points="34.6,19.1 37.2,16.9 39.8,14.7 42.4,16.9 45.1,19.1 	"/>
	<polyline class="cc2" points="34.6,14.7 37.2,16.9 39.8,19.1 42.4,16.9 45.1,14.7 	"/>
	<line class="cc2" x1="39.8" y1="19.1" x2="39.8" y2="14.7"/>
	<line class="cc2" x1="42.3" y1="4.8" x2="48.1" y2="4.8"/>
	<polyline class="cc2" points="4.6,23.4 0.1,23.4 0.1,38.9 4.9,38.9 4.9,36.3 	"/>
	<polyline class="cc2" points="25.4,37.4 25.4,40.8 36.7,40.8 48.8,40.8 60.6,40.8 71.4,40.8 71.4,35.9 68.8,35.9 	"/>
	<polyline class="cc2" points="8.7,4.9 6.1,4.9 6.1,0.1 18.2,0.1 18.2,4.6 	"/>
	<polyline class="cc2" points="62.8,4.6 62.8,1.9 67.6,1.9 67.6,17.8 63.1,17.8 	"/>
	<line class="cc2" x1="36.7" y1="37.4" x2="36.7" y2="40.8"/>
	<line class="cc2" x1="48.8" y1="37.4" x2="48.8" y2="40.8"/>
	<polyline class="cc2" points="34.6,14.7 34.6,11.8 34.6,9 	"/>
	<polyline class="cc2" points="45.1,14.7 45.1,11.8 45.1,9 	"/>
	<line class="cc2" x1="60.6" y1="40.8" x2="60.6" y2="36.3"/>
	<line class="cc2" x1="34.6" y1="14.7" x2="31.3" y2="14.7"/>
	<line class="cc2" x1="48.4" y1="14.7" x2="45.1" y2="14.7"/>
	<polyline class="cc2" points="42.3,9 45.1,9 48.1,9 	"/>
	<polygon class="cc2" points="34.6,19.1 39.8,19.1 45.1,19.1 45.1,14.7 39.8,14.7 34.6,14.7 	"/>
	<polyline class="cc2" points="28,23 28,21.8 24.6,21.8 24.6,22.3 	"/>
	<polyline class="cc2" points="23.1,19.1 27.8,19.1 27.8,18.5 	"/>
	<line class="cc2" x1="34.6" y1="11.8" x2="45.1" y2="11.8"/>
</g>
<g id="shape-f">
	<polygon class="cc0" points="48.8,25 53.2,25 53.2,25.8 58.2,25.8 58.2,30.5 60.6,30.5 60.6,36.3 49.4,36.3 48.8,36.3 	"/>
</g>
<g id="shape-e">
	<polygon class="cc0" points="53.2,25 53.2,22.3 63.1,22.3 63.1,21.7 68.8,21.7 68.8,35.9 68.8,36.3 60.6,36.3 60.6,30.5 58.2,30.5
		58.2,25.8 53.2,25.8 	"/>
</g>
<g id="shape-d-d1">
	<polygon class="cc0" points="21.2,22.3 24.6,22.3 24.6,23.7 24.6,36.3 24.1,36.3 4.9,36.3 4.6,36.3 4.6,23.4 4.6,21.7 8.7,21.7
		8.7,22.3 	"/>
</g>
<g id="shape-c1">
	<polygon class="cc0" points="23.1,17.3 23.1,4.6 22,4.6 18.2,4.6 8.7,4.6 8.7,4.9 8.7,21.7 8.7,22.3 21.2,22.3 21.2,19.3
		23.1,19.3 23.1,19.1 	"/>
</g>
<g id="shape-c">
	<polygon class="cc0" points="63.1,22.3 63.1,17.8 63.1,4.6 62.8,4.6 48.1,4.6 48.1,4.8 48.1,9 48.4,9 48.4,14.7 48.8,14.7
		48.8,19.1 52.5,19.1 52.5,22.3 53.2,22.3 	"/>
</g>
<g id="shape-b">
	<polygon class="cc0" points="22,4.6 22,2.4 42.3,2.4 42.3,4.8 42.3,9 34.6,9 31.3,9 31.3,14.7 31.3,18.5 27.8,18.5 27.8,17.3
		23.1,17.3 23.1,4.6 	"/>
</g>
<g id="shape-a1">
	<polygon class="cc0" points="24.1,36.3 24.1,37.4 25.4,37.4 36.7,37.4 36.7,23 28,23 28,23.7 24.6,23.7 24.6,36.3 	"/>
</g>
<g id="shape-a">
	<polygon class="cc0" points="36.7,37.4 48.8,37.4 49.4,37.4 49.4,36.3 48.8,36.3 48.8,23 36.7,23 	"/>
</g>






<g id="trigger-c" data-plan="C">
	<polygon class="cc3" points="63.1,22.3 63.1,17.8 63.1,4.6 62.8,4.6 48.1,4.6 48.1,4.8 48.1,9 48.4,9 48.4,14.7 48.8,14.7
		48.8,19.1 52.5,19.1 52.5,22.3 53.2,22.3 	"/>
	<g>
		<text transform="matrix(1 0 0 1 52 11.5703)" class="cc4 cc5 cc6">301</text>
	</g>
	<g>
		<text transform="matrix(1 0 0 1 52 13.695)" class="cc4 cc5 cc6">2BR+2BA</text>
	</g>
	<g>
		<text transform="matrix(1 0 0 1 52 15.6777)" class="cc4 cc5 cc6">C</text>
	</g>
</g>




<g id="trigger-e" data-plan="E">
	<polygon class="cc3" points="53.2,25 53.2,22.3 63.1,22.3 63.1,21.7 68.8,21.7 68.8,35.9 68.8,36.3 60.6,36.3 60.6,30.5 58.2,30.5
		58.2,25.8 53.2,25.8 	"/>
	<g>
		<text transform="matrix(1 0 0 1 60.1 25.3771)" class="cc4 cc5 cc6">302</text>
	</g>
	<g>
		<text transform="matrix(1 0 0 1 60.1 27.5018)" class="cc4 cc5 cc6">1BR+1BA</text>
	</g>
	<g>
		<text transform="matrix(1 0 0 1 60.1 29.4845)" class="cc4 cc5 cc6">E</text>
	</g>
</g>




<g id="trigger-f" data-plan="F">
	<polygon class="cc3" points="48.8,25 53.2,25 53.2,25.8 58.2,25.8 58.2,30.5 60.6,30.5 60.6,36.3 49.4,36.3 48.8,36.3 	"/>
	<g>
		<text transform="matrix(1 0 0 1 50 30.9827)" class="cc4 cc5 cc6">303</text>
	</g>
	<g>
		<text transform="matrix(1 0 0 1 50 33.1074)" class="cc4 cc5 cc6">STU+1BA</text>
	</g>
	<g>
		<text transform="matrix(1 0 0 1 50 35.0901)" class="cc4 cc5 cc6">F</text>
	</g>
</g>




<g id="trigger-a" data-plan="A">
	<polygon class="cc3" points="36.7,37.4 48.8,37.4 49.4,37.4 49.4,36.3 48.8,36.3 48.8,23 36.7,23 	"/>
	<g>
		<text transform="matrix(1 0 0 1 38 29.2405)" class="cc4 cc5 cc6">304</text>
	</g>
	<g>
		<text transform="matrix(1 0 0 1 38 31.3652)" class="cc4 cc5 cc6">1BR+1BA</text>
	</g>
	<g>
		<text transform="matrix(1 0 0 1 38 33.3479)" class="cc4 cc5 cc6">A</text>
	</g>
</g>




<g id="trigger-a1" data-plan="A1">
	<polygon class="cc3" points="24.1,36.3 24.1,37.4 25.4,37.4 36.7,37.4 36.7,23 28,23 28,23.7 24.6,23.7 24.6,36.3 	"/>
	<g>
		<text transform="matrix(1 0 0 1 26 29.2405)" class="cc4 cc5 cc6">305</text>
	</g>
	<g>
		<text transform="matrix(1 0 0 1 26 31.3652)" class="cc4 cc5 cc6">1BR+1BA</text>
	</g>
	<g>
		<text transform="matrix(1 0 0 1 26 33.3479)" class="cc4 cc5 cc6">A1</text>
	</g>
</g>




<g id="trigger-d-d1" data-plan="D">
	<polygon class="cc3" points="21.2,22.3 24.6,22.3 24.6,23.7 24.6,36.3 24.1,36.3 4.9,36.3 4.6,36.3 4.6,23.4 4.6,21.7 8.7,21.7
		8.7,22.3 	"/>
	<g>
		<text transform="matrix(1 0 0 1 9 27.6661)" class="cc4 cc5 cc6">306</text>
	</g>
	<g>
		<text transform="matrix(1 0 0 1 9 30.0079)" class="cc4 cc5 cc6">2BR+2BA</text>
	</g>
	<g>
		<text transform="matrix(1 0 0 1 9 32.3473)" class="cc4 cc5 cc6">D1</text>
	</g>
</g>




<g id="trigger-c1" data-plan="C1">
	<polygon class="cc3" points="23.1,17.3 23.1,4.6 22,4.6 18.2,4.6 8.7,4.6 8.7,4.9 8.7,21.7 8.7,22.3 21.2,22.3 21.2,19.3
		23.1,19.3 23.1,19.1 	"/>
	<g>
		<text transform="matrix(1 0 0 1 10 11.339)" class="cc4 cc5 cc6">307</text>
	</g>
	<g>
		<text transform="matrix(1 0 0 1 10 13.6808)" class="cc4 cc5 cc6">2BR+2BA</text>
	</g>
	<g>
		<text transform="matrix(1 0 0 1 10 16.0202)" class="cc4 cc5 cc6">C1</text>
	</g>
</g>




<g id="trigger-b" data-plan="B">
	<polygon class="cc3" points="22,4.6 22,2.4 42.3,2.4 42.3,4.8 42.3,9 34.6,9 31.3,9 31.3,14.7 31.3,18.5 27.8,18.5 27.8,17.3
		23.1,17.3 23.1,4.6 	"/>
	<g>
		<text transform="matrix(1 0 0 1 25 5.5)" class="cc4 cc5 cc6">308</text>
	</g>
	<g>
		<text transform="matrix(1 0 0 1 25 7.5)" class="cc4 cc5 cc6">1BR+1BA</text>
	</g>
	<g>
		<text transform="matrix(1 0 0 1 25 9.5)" class="cc4 cc5 cc6">B</text>
	</g>
</g>











</svg>
