<?xml version="1.0" encoding="utf-8"?>
<!-- Generator: Adobe Illustrator 25.2.0, SVG Export Plug-In . SVG Version: 6.00 Build 0)  -->
<svg version="1.1" id="Layer_1" xmlns="http://www.w3.org/2000/svg" xmlns:xlink="http://www.w3.org/1999/xlink" x="0px" y="0px"
	 viewBox="0 0 82.7 43.1" style="enable-background:new 0 0 82.7 43.1;" xml:space="preserve">
<style type="text/css">
	.dd0{fill:#FFFFFF;stroke:#00516B;stroke-width:0.25;stroke-linecap:round;stroke-linejoin:round;stroke-miterlimit:10;}
	.dd1{fill:#667986;}
	.dd2{fill:none;stroke:#00516B;stroke-width:0.25;stroke-linecap:round;stroke-linejoin:round;stroke-miterlimit:10;}
	.dd3{fill:none;stroke:#00516B;stroke-width:0.25;stroke-linecap:round;stroke-linejoin:round;stroke-miterlimit:10;stroke-dasharray:2,1;}
	.dd4{fill:none;}
	.dd5{fill:#00516B;}
	.dd6{font-family:'Gotham-Book';}
	.dd7{font-size:3.722px;}
</style>
<g id="base">
	<polygon class="dd0" points="79.4,18.6 79.4,18.6 79.4,8.8 68.3,8.8 68.3,0.1 57,0.1 57,0.1 55.6,0.1 55.6,0.1 31,0.1 24.1,0.1
		22.7,0.1 22.7,9.3 5.7,9.3 5.7,18.6 0.1,18.6 0.1,20.8 0.5,21 0.5,37.2 13.4,37.2 13.4,36.7 25.4,36.7 25.4,42.9 45.4,42.9
		45.4,42.9 82.6,42.9 82.6,20.8 82.6,20.8 82.6,18.6 	"/>
	<polygon class="dd1" points="33.7,0.1 33.7,9.6 35.5,9.6 35.5,18.3 37.7,18.3 37.7,19.4 53,19.4 53,18.4 57,18.4 57,14.3
		55.3,14.3 55.3,9.6 57,9.6 57,0 	"/>
	<polygon class="dd2" points="33.7,8.8 33.7,9.6 35.5,9.6 35.5,18.4 37.6,18.4 37.6,19.4 45.4,19.4 45.4,36.7 25.4,36.7 13.4,36.7
		13.4,26.2 13.2,26.2 13.2,20.8 13.2,19.7 13.4,19.7 13.4,18.6 13.4,14.2 22.7,14.2 24.4,14.2 24.4,8.8 	"/>
	<polyline class="dd2" points="38.7,15.3 42,12.4 45.4,9.6 48.7,12.4 52,15.3 	"/>
	<polyline class="dd2" points="38.7,9.6 42,12.4 45.4,15.3 48.7,12.4 52,9.6 	"/>
	<line class="dd2" x1="45.4" y1="15.3" x2="45.4" y2="9.6"/>
	<polyline class="dd2" points="38.7,9.6 38.7,6.2 38.7,2.8 	"/>
	<polyline class="dd2" points="52,9.6 52,6.2 52,2.8 	"/>
	<polyline class="dd2" points="25.4,36.7 25.4,42.9 45.4,42.9 	"/>
	<polyline class="dd2" points="13.4,36.7 13.4,37.2 0.5,37.2 0.5,20.8 	"/>
	<polyline class="dd2" points="22.7,0.1 24.1,0.1 33.7,0.1 55.6,0.1 57,0.1 68.3,0.1 68.3,8.8 79.4,8.8 79.4,18.6 	"/>
	<polyline class="dd2" points="5.7,18.6 5.7,9.3 22.7,9.3 	"/>
	<polyline class="dd2" points="45.4,36.7 45.4,42.9 82.6,42.9 82.6,20.8 	"/>
	<line class="dd2" x1="33.7" y1="2.8" x2="33.7" y2="0.1"/>
	<line class="dd2" x1="57" y1="2.8" x2="57" y2="0.1"/>
	<polyline class="dd2" points="33.7,8.8 33.7,2.8 38.7,2.8 52,2.8 55.6,2.8 57,2.8 57,8.8 	"/>
	<line class="dd2" x1="38.7" y1="9.6" x2="35.5" y2="9.6"/>
	<line class="dd2" x1="55.3" y1="9.6" x2="52" y2="9.6"/>
	<polygon class="dd2" points="38.7,15.3 45.4,15.3 52,15.3 52,9.6 45.4,9.6 38.7,9.6 	"/>
	<line class="dd2" x1="38.7" y1="6.2" x2="52" y2="6.2"/>
	<polyline class="dd2" points="45.4,36.7 77.3,36.7 77.3,20.8 82.6,20.8 82.6,18.6 79.4,18.6 77.3,18.6 77.3,14.2 66.3,14.2
		66.3,8.8 57,8.8 57,9.6 55.3,9.6 55.3,14.3 57,14.3 57,18.4 53.1,18.4 53.1,19.4 45.4,19.4 	"/>
	<polygon class="dd2" points="5.7,18.6 0.1,18.6 0.1,20.8 0.5,20.8 6.6,20.8 6.6,18.6 	"/>
	<line class="dd3" x1="24.4" y1="8.8" x2="24.1" y2="8.8"/>
	<line class="dd3" x1="24.1" y1="8.8" x2="24.1" y2="0.1"/>
	<polyline class="dd3" points="22.7,0.1 22.7,9.3 22.7,14.2 	"/>
	<line class="dd3" x1="6.6" y1="18.6" x2="13.4" y2="18.6"/>
	<line class="dd3" x1="6.6" y1="20.8" x2="13.2" y2="20.8"/>
</g>
<g id="shape-ph2">
	<polygon class="bb0" points="45.4,19.4 37.6,19.4 37.6,18.4 35.5,18.4 35.5,9.6 33.7,9.6 33.7,8.8 24.4,8.8 24.4,14.2 22.7,14.2
		13.4,14.2 13.4,18.6 13.4,19.7 13.2,19.7 13.2,20.8 13.2,26.2 13.4,26.2 13.4,36.7 25.4,36.7 45.4,36.7 	"/>
</g>
<g id="shape-ph1">
	<polygon class="bb0" points="82.6,18.6 82.6,20.8 77.3,20.8 77.3,36.7 45.4,36.7 45.4,19.4 53.1,19.4 53.1,18.4 57,18.4 57,14.3
		55.3,14.3 55.3,9.6 57,9.6 57,8.8 66.3,8.8 66.3,14.2 77.3,14.2 77.3,18.6 79.4,18.6 	"/>
</g>




<g id="trigger-ph2" data-plan="PH2">
	<polygon id="hotspot-ph2" class="dd4" points="45.4,19.4 37.6,19.4 37.6,18.4 35.5,18.4 35.5,9.6 33.7,9.6 33.7,8.8 24.4,8.8
		24.4,14.2 22.7,14.2 13.4,14.2 13.4,18.6 13.4,19.7 13.2,19.7 13.2,20.8 13.2,26.2 13.4,26.2 13.4,36.7 25.4,36.7 45.4,36.7 	"/>
	<text transform="matrix(1 0 0 1 19 25)" class="dd5 dd6 dd7 title">2702</text>
	<text transform="matrix(1 0 0 1 19 28)" class="dd5 dd6 dd7 label">3br + 2ba</text>
	<text transform="matrix(1 0 0 1 19 31)" class="dd5 dd6 dd7 label">PH2</text>
</g>




<g id="trigger-ph1" data-plan="PH1">
	<polygon id="hotspot-ph1" class="dd4" points="82.6,18.6 82.6,20.8 77.3,20.8 77.3,36.7 45.4,36.7 45.4,19.4 53.1,19.4 53.1,18.4
		57,18.4 57,14.3 55.3,14.3 55.3,9.6 57,9.6 57,8.8 66.3,8.8 66.3,14.2 77.3,14.2 77.3,18.6 79.4,18.6 	"/>
	<text transform="matrix(1 0 0 1 53 25)" class="dd5 dd6 dd7 title">2701</text>
	<text transform="matrix(1 0 0 1 53 28)" class="dd5 dd6 dd7 label">3br + 2ba</text>
	<text transform="matrix(1 0 0 1 53 31)" class="dd5 dd6 dd7 label">PH1</text>
</g>
</svg>
