<svg width="263" height="280" viewBox="0 0 263 280" fill="none" xmlns="http://www.w3.org/2000/svg">
<g clip-path="url(#clip0_0_1)">
<path d="M31.8 171.8V171.9H20.3H20.2V171.8V157.4V157.3H20.3H31.8H31.9V157.4V171.8V171.9H31.8V171.8H31.7V157.5H20.4V171.7H31.8V171.8H31.7H31.8Z" fill="#99A4B3"/>
<path d="M31.8 232.3V232.4H20.3L20.2 232.3V217.9V217.8L20.3 217.7H31.8L31.9 217.8V217.9V232.3L31.8 232.4V232.3H31.7V218H20.4V232.1H31.8V232.3H31.7H31.8Z" fill="#99A4B3"/>
<path d="M230.5 174.4V174.2H242L242.1 174.3V174.4V188.8L242 188.9H230.5L230.4 188.8H230.3V174.4L230.4 174.3L230.5 174.2V174.4H230.6V188.6H241.9V174.5H230.5V174.4H230.6H230.5Z" fill="#99A4B3"/>
<path d="M230.5 116.8V116.7H241.9V102.5H230.6V116.8H230.5V116.7V116.8H230.3V102.4L230.4 102.3H230.5H242H242.1V102.4V116.8V116.9H242H230.5H230.4L230.3 116.8H230.5Z" fill="#99A4B3"/>
<path d="M18.9 67.4H19V123.1H22.5V101.8H21.5V124.8H64.4V101.8H63.4V123.1H74.6L74.7 123.2L74.8 123.3V148.1H75.8V126.7H72.2V156.1V156.2H72.1H19V173.1H77.9L78 173.2V216.4V216.5H77.9H19V233.4H99.5V219.6L99.6 219.5H99.7H103H103.1V219.6V227.9H133.7V196.5H103.1V199.2H124.5V198.1H99.7H99.6L99.5 198V152.1H99.6L99.7 152H101.2V129.2H99.7H99.6L99.5 129.1V126.7H96.2L96.1 126.6V123.3L96.2 123.2V123.1H129.4V120.7L129.5 120.6H154.3V119.6H133V123.1H151.2L151.3 123.2V123.3V191.9H243.3V173H184.4H184.3V172.9V118.2V118.1H184.4H243.3V96.8H219.3L219.2 96.7L219.1 96.6V95.1H197.8V96.6V96.7L197.7 96.8H189.5L178.9 102.9H178.8H178.7L178.1 101.8V101.6L188.8 95.4H188.9L189 95.5L189.4 96.2V93.3V93.2H189.5H191.7V77.6H133V93.2H135.2H135.3V93.3V96.6L145.8 102.6L146.3 101.7L135.8 95.7L135.3 96.7L135.2 96.8H133V99.2H132.9V99.3H129.5L129.4 99.2V96.8H47.7L47.6 96.7L47.5 96.6V92.3H44.1H44L43.9 92.2V91.1H44L44.1 91H47.5V67.5H18.9V67.4H19H18.9V67.3H47.7L47.8 67.4V91.1L47.7 91.2V91.3H44.2V92.1H47.7L47.8 92.2V96.5H129.5L129.6 96.6V99H132.7V96.6H132.8L132.9 96.5H135.1L135.7 95.5L135.9 95.4L146.5 101.6V101.7L146 102.9H145.9H145.8L135.1 96.7L135 96.6V93.4H132.9H132.8L132.7 93.3V77.5L132.8 77.4H132.9H191.8H191.9V77.5V93.3V93.4H191.8H189.6V96.6L189.5 96.8L189.4 96.7L188.8 95.7L178.4 101.8L178.9 102.6L189.4 96.5H189.5H197.5V95L197.6 94.9H197.7H219.3L219.4 95V96.5H243.4L243.5 96.6V118.2V118.3H243.4H184.5V172.8H243.4H243.5V172.9V192V192.1H243.4H151.2H151.1V192V123.4H132.9H132.8L132.7 123.3V119.5L132.8 119.4H132.9H154.4H154.5L154.6 119.5V120.7L154.5 120.8L154.4 120.9H129.6V123.3V123.4H129.5H96.4V126.5H99.7L99.8 126.6V129H101.3H101.4V129.1V152.1V152.2L101.3 152.3H99.8V197.9H124.6H124.7V198V199.3V199.4H124.6H103H102.9V199.3V196.4V196.3H103H133.8H133.9L134 196.4V228L133.9 228.1H133.8H103H102.9V228V219.7H99.8V233.6H99.7V233.7H18.9L18.8 233.6H18.7V216.4L18.8 216.3H18.9H77.8V173.4H18.9L18.8 173.3L18.7 173.2V156.1L18.8 156H18.9H72V126.6V126.5H72.1H75.9H76V126.6V148.2V148.3H75.9H74.6L74.5 148.2V123.4H63.3H63.2V123.3V101.7V101.6H63.3H64.6H64.7V101.7V124.9V125H64.6H21.4H21.3V124.9V101.7V101.6H21.4H22.6H22.7L22.8 101.7V123.3L22.7 123.4H22.6H18.9H18.8L18.7 123.3V67.4L18.8 67.3H18.9V67.4Z" fill="#99A4B3"/>
<path d="M149.2 102.8L149.1 102.7L159.8 96.5H164.8H164.9L175.5 102.6L176 101.8L165.5 95.7L164.9 96.7L164.8 96.8L164.7 96.6V93.4H160V96.6L159.9 96.8L159.7 96.7L159.2 95.7L148.7 101.8L149.3 102.7L149.2 102.8L149.1 102.7L149.2 102.8L149.1 102.9L148.4 101.8L148.5 101.6L159.2 95.4L159.3 95.5L159.7 96.2V93.3L159.8 93.2H164.8H164.9L165 93.3V96.2L165.4 95.5L165.5 95.4L176.2 101.6L176.3 101.7V101.8L175.6 102.9H175.5L164.8 96.8H159.9L149.2 102.9H149.1L149.2 102.8Z" fill="#99A4B3"/>
<path d="M21.5 233.6V232.3L21.7 232.1L21.8 232.3V233.6L21.7 233.7L21.5 233.6Z" fill="#99A4B3"/>
<path d="M21.5 101.7V67.4L21.7 67.3L21.8 67.4V101.7L21.7 101.8L21.5 101.7Z" fill="#99A4B3"/>
<path d="M21.5 217.9V216.4L21.7 216.3L21.8 216.4V217.9L21.7 218L21.5 217.9Z" fill="#99A4B3"/>
<path d="M21.5 124.9V123.3L21.7 123.1L21.8 123.3V124.9L21.7 125L21.5 124.9Z" fill="#99A4B3"/>
<path d="M21.5 173.2V171.8L21.7 171.7L21.8 171.8V173.2L21.7 173.4L21.5 173.2Z" fill="#99A4B3"/>
<path d="M21.5 157.4V156.1L21.7 156L21.8 156.1V157.4L21.7 157.5L21.5 157.4Z" fill="#99A4B3"/>
<path d="M26.9 233.6V232.3L27.1 232.1L27.2 232.3V233.6L27.1 233.7L26.9 233.6Z" fill="#99A4B3"/>
<path d="M26.9 124.9V67.4L27.1 67.3L27.2 67.4V124.9L27.1 125L26.9 124.9Z" fill="#99A4B3"/>
<path d="M26.9 217.9V216.4L27.1 216.3L27.2 216.4V217.9L27.1 218L26.9 217.9Z" fill="#99A4B3"/>
<path d="M26.9 157.4V156.1L27.1 156L27.2 156.1V157.4L27.1 157.5L26.9 157.4Z" fill="#99A4B3"/>
<path d="M26.9 173.2V171.8L27.1 171.7L27.2 171.8V173.2L27.1 173.4L26.9 173.2Z" fill="#99A4B3"/>
<path d="M32.3 233.6V216.4L32.5 216.3L32.6 216.4V233.6L32.5 233.7L32.3 233.6Z" fill="#99A4B3"/>
<path d="M32.3 124.9V67.4L32.5 67.3L32.6 67.4V124.9L32.5 125L32.3 124.9Z" fill="#99A4B3"/>
<path d="M32.3 173.2V156.1L32.5 156L32.6 156.1V173.2L32.5 173.4L32.3 173.2Z" fill="#99A4B3"/>
<path d="M37.7 233.6V216.4L37.9 216.3L38 216.4V233.6L37.9 233.7L37.7 233.6Z" fill="#99A4B3"/>
<path d="M37.7 124.9V67.4L37.9 67.3L38 67.4V124.9L37.9 125L37.7 124.9Z" fill="#99A4B3"/>
<path d="M37.7 173.2V156.1L37.9 156L38 156.1V173.2L37.9 173.4L37.7 173.2Z" fill="#99A4B3"/>
<path d="M43.1 233.6V216.4L43.2 216.3L43.4 216.4V233.6L43.2 233.7L43.1 233.6Z" fill="#99A4B3"/>
<path d="M43.1 124.9V67.4L43.2 67.3L43.4 67.4V124.9L43.2 125L43.1 124.9Z" fill="#99A4B3"/>
<path d="M43.1 173.2V156.1L43.2 156L43.4 156.1V173.2L43.2 173.4L43.1 173.2Z" fill="#99A4B3"/>
<path d="M48.5 233.6V216.4L48.6 216.3L48.8 216.4V233.6L48.6 233.7L48.5 233.6Z" fill="#99A4B3"/>
<path d="M48.5 124.9V96.6L48.6 96.5L48.8 96.6V124.9L48.6 125L48.5 124.9Z" fill="#99A4B3"/>
<path d="M48.5 173.2V156.1L48.6 156L48.8 156.1V173.2L48.6 173.4L48.5 173.2Z" fill="#99A4B3"/>
<path d="M53.9 233.6V216.4L54 216.3L54.2 216.4V233.6L54 233.7L53.9 233.6Z" fill="#99A4B3"/>
<path d="M53.9 124.9V96.6L54 96.5L54.2 96.6V124.9L54 125L53.9 124.9Z" fill="#99A4B3"/>
<path d="M53.9 173.2V156.1L54 156L54.2 156.1V173.2L54 173.4L53.9 173.2Z" fill="#99A4B3"/>
<path d="M59.3 233.6V216.4L59.4 216.3L59.6 216.4V233.6L59.4 233.7L59.3 233.6Z" fill="#99A4B3"/>
<path d="M59.3 124.9V96.6L59.4 96.5L59.6 96.6V124.9L59.4 125L59.3 124.9Z" fill="#99A4B3"/>
<path d="M59.3 173.2V156.1L59.4 156L59.6 156.1V173.2L59.4 173.4L59.3 173.2Z" fill="#99A4B3"/>
<path d="M64.7 233.6V216.4L64.8 216.3L65 216.4V233.6L64.8 233.7L64.7 233.6Z" fill="#99A4B3"/>
<path d="M64.7 123.3V96.6L64.8 96.5L65 96.6V123.3L64.8 123.4L64.7 123.3Z" fill="#99A4B3"/>
<path d="M64.7 173.2V156.1L64.8 156L65 156.1V173.2L64.8 173.4L64.7 173.2Z" fill="#99A4B3"/>
<path d="M70.1 233.6V216.4L70.2 216.3L70.4 216.4V233.6L70.2 233.7L70.1 233.6Z" fill="#99A4B3"/>
<path d="M70.1 123.3V96.6L70.2 96.5L70.4 96.6V123.3L70.2 123.4L70.1 123.3Z" fill="#99A4B3"/>
<path d="M70.1 173.2V156.1L70.2 156L70.4 156.1V173.2L70.2 173.4L70.1 173.2Z" fill="#99A4B3"/>
<path d="M75.5 233.6V216.4L75.6 216.3L75.8 216.4V233.6L75.6 233.7L75.5 233.6Z" fill="#99A4B3"/>
<path d="M75.5 126.6V96.6L75.6 96.5L75.8 96.6V126.6L75.6 126.7L75.5 126.6Z" fill="#99A4B3"/>
<path d="M75.5 173.2V148.2L75.6 148.1L75.8 148.2V173.2L75.6 173.4L75.5 173.2Z" fill="#99A4B3"/>
<path d="M80.9 233.6V96.6L81 96.5L81.2 96.6V233.6L81 233.7L80.9 233.6Z" fill="#99A4B3"/>
<path d="M86.3 233.6V96.6L86.4 96.5L86.6 96.6V233.6L86.4 233.7L86.3 233.6Z" fill="#99A4B3"/>
<path d="M91.7 233.6V96.6L91.8 96.5L91.9 96.6V233.6L91.8 233.7L91.7 233.6Z" fill="#99A4B3"/>
<path d="M97.1 233.6V126.6L97.2 126.5L97.3 126.6V233.6L97.2 233.7L97.1 233.6Z" fill="#99A4B3"/>
<path d="M97.1 123.3V96.6L97.2 96.5L97.3 96.6V123.3L97.2 123.4L97.1 123.3Z" fill="#99A4B3"/>
<path d="M102.5 219.6V198L102.6 197.9L102.7 198V219.6L102.6 219.7L102.5 219.6Z" fill="#99A4B3"/>
<path d="M102.5 123.3V96.6L102.6 96.5L102.7 96.6V123.3L102.6 123.4L102.5 123.3Z" fill="#99A4B3"/>
<path d="M107.9 228V199.3L108 199.2L108.1 199.3V228L108 228.1L107.9 228Z" fill="#99A4B3"/>
<path d="M107.9 123.3V96.6L108 96.5L108.1 96.6V123.3L108 123.4L107.9 123.3Z" fill="#99A4B3"/>
<path d="M107.9 198V196.4L108 196.3L108.1 196.4V198L108 198.1L107.9 198Z" fill="#99A4B3"/>
<path d="M113.3 228V199.3L113.4 199.2L113.5 199.3V228L113.4 228.1L113.3 228Z" fill="#99A4B3"/>
<path d="M113.3 123.3V96.6L113.4 96.5L113.5 96.6V123.3L113.4 123.4L113.3 123.3Z" fill="#99A4B3"/>
<path d="M113.3 198V196.4L113.4 196.3L113.5 196.4V198L113.4 198.1L113.3 198Z" fill="#99A4B3"/>
<path d="M118.7 228V199.3L118.8 199.2L118.9 199.3V228L118.8 228.1L118.7 228Z" fill="#99A4B3"/>
<path d="M118.7 123.3V96.6L118.8 96.5L118.9 96.6V123.3L118.8 123.4L118.7 123.3Z" fill="#99A4B3"/>
<path d="M118.7 198V196.4L118.8 196.3L118.9 196.4V198L118.8 198.1L118.7 198Z" fill="#99A4B3"/>
<path d="M124.1 228V199.3L124.2 199.2L124.3 199.3V228L124.2 228.1L124.1 228Z" fill="#99A4B3"/>
<path d="M124.1 123.3V96.6L124.2 96.5L124.3 96.6V123.3L124.2 123.4L124.1 123.3Z" fill="#99A4B3"/>
<path d="M124.1 198V196.4L124.2 196.3L124.3 196.4V198L124.2 198.1L124.1 198Z" fill="#99A4B3"/>
<path d="M129.5 228V196.4L129.6 196.3L129.7 196.4V228L129.6 228.1L129.5 228Z" fill="#99A4B3"/>
<path d="M129.5 120.7V99.2L129.6 99L129.7 99.2V120.7L129.6 120.9L129.5 120.7Z" fill="#99A4B3"/>
<path d="M134.9 123.3V120.7L135 120.6L135.1 120.7V123.3L135 123.4L134.9 123.3Z" fill="#99A4B3"/>
<path d="M134.9 93.3V77.5L135 77.4L135.1 77.5V93.3L135 93.4L134.9 93.3Z" fill="#99A4B3"/>
<path d="M134.9 119.5V96.6L135 96.5L135.1 96.6V119.5L135 119.6L134.9 119.5Z" fill="#99A4B3"/>
<path d="M140.3 123.3V120.7L140.4 120.6L140.5 120.7V123.3L140.4 123.4L140.3 123.3Z" fill="#99A4B3"/>
<path d="M140.3 98.2V77.5L140.4 77.4L140.5 77.5V98.2L140.4 98.3L140.3 98.2Z" fill="#99A4B3"/>
<path d="M140.3 119.5V99.7L140.4 99.5L140.5 99.7V119.5L140.4 119.6L140.3 119.5Z" fill="#99A4B3"/>
<path d="M145.7 123.3V120.7L145.8 120.6L145.9 120.7V123.3L145.8 123.4L145.7 123.3Z" fill="#99A4B3"/>
<path d="M145.7 101.3V77.5L145.8 77.4L145.9 77.5V101.3L145.8 101.4L145.7 101.3Z" fill="#99A4B3"/>
<path d="M145.7 119.5V102.8L145.8 102.7L145.9 102.8V119.5L145.8 119.6L145.7 119.5Z" fill="#99A4B3"/>
<path d="M151.1 100.2V77.5L151.2 77.4L151.3 77.5V100.2L151.2 100.3L151.1 100.2Z" fill="#99A4B3"/>
<path d="M151.1 123.3V120.7L151.2 120.6L151.3 120.7V123.3L151.2 123.4L151.1 123.3Z" fill="#99A4B3"/>
<path d="M151.1 119.5V101.6L151.2 101.5L151.3 101.6V119.5L151.2 119.6L151.1 119.5Z" fill="#99A4B3"/>
<path d="M156.5 192V98.5L156.6 98.4L156.7 98.5V192L156.6 192.1L156.5 192Z" fill="#99A4B3"/>
<path d="M156.5 97.1V77.5L156.6 77.4L156.7 77.5V97.1L156.6 97.2L156.5 97.1Z" fill="#99A4B3"/>
<path d="M161.9 192V96.6L162 96.5L162.1 96.6V192L162 192.1L161.9 192Z" fill="#99A4B3"/>
<path d="M161.9 93.3V77.5L162 77.4L162.1 77.5V93.3L162 93.4L161.9 93.3Z" fill="#99A4B3"/>
<path d="M167.3 192V98.1L167.4 98L167.5 98.1V192L167.4 192.1L167.3 192Z" fill="#99A4B3"/>
<path d="M167.3 96.7V77.5L167.4 77.4L167.5 77.5V96.7L167.4 96.8L167.3 96.7Z" fill="#99A4B3"/>
<path d="M172.7 192V101.2L172.8 101.1L172.9 101.2V192L172.8 192.1L172.7 192Z" fill="#99A4B3"/>
<path d="M172.7 99.8V77.5L172.8 77.4L172.9 77.5V99.8L172.8 99.9L172.7 99.8Z" fill="#99A4B3"/>
<path d="M178.1 192V101.7L178.2 101.6L178.3 101.7V192L178.2 192.1L178.1 192Z" fill="#99A4B3"/>
<path d="M178.1 101.7V77.5L178.2 77.4L178.3 77.5V101.7L178.2 101.8L178.1 101.7Z" fill="#99A4B3"/>
<path d="M183.5 192V100L183.6 99.9L183.7 100V192L183.6 192.1L183.5 192Z" fill="#99A4B3"/>
<path d="M183.5 98.6V77.5L183.6 77.4L183.7 77.5V98.6L183.6 98.7L183.5 98.6Z" fill="#99A4B3"/>
<path d="M188.9 192V172.9L189 172.8L189.1 172.9V192L189 192.1L188.9 192Z" fill="#99A4B3"/>
<path d="M188.9 95.7V77.5L189 77.4L189.1 77.5V95.7L189 95.9L188.9 95.7Z" fill="#99A4B3"/>
<path d="M188.9 118.2V96.9L189 96.8L189.1 96.9V118.2L189 118.3L188.9 118.2Z" fill="#99A4B3"/>
<path d="M194.3 192V172.9L194.4 172.8L194.5 172.9V192L194.4 192.1L194.3 192Z" fill="#99A4B3"/>
<path d="M194.3 118.2V96.6L194.4 96.5L194.5 96.6V118.2L194.4 118.3L194.3 118.2Z" fill="#99A4B3"/>
<path d="M199.7 192V172.9L199.8 172.8L199.9 172.9V192L199.8 192.1L199.7 192Z" fill="#99A4B3"/>
<path d="M199.7 118.2V95L199.8 94.9L199.9 95V118.2L199.8 118.3L199.7 118.2Z" fill="#99A4B3"/>
<path d="M205.1 192V172.9L205.2 172.8L205.3 172.9V192L205.2 192.1L205.1 192Z" fill="#99A4B3"/>
<path d="M205.1 118.2V95L205.2 94.9L205.3 95V118.2L205.2 118.3L205.1 118.2Z" fill="#99A4B3"/>
<path d="M210.5 192V172.9L210.6 172.8L210.7 172.9V192L210.6 192.1L210.5 192Z" fill="#99A4B3"/>
<path d="M210.5 118.2V95L210.6 94.9L210.7 95V118.2L210.6 118.3L210.5 118.2Z" fill="#99A4B3"/>
<path d="M215.9 192V172.9L216 172.8L216.1 172.9V192L216 192.1L215.9 192Z" fill="#99A4B3"/>
<path d="M215.9 118.2V95L216 94.9L216.1 95V118.2L216 118.3L215.9 118.2Z" fill="#99A4B3"/>
<path d="M221.3 192V172.9L221.4 172.8L221.5 172.9V192L221.4 192.1L221.3 192Z" fill="#99A4B3"/>
<path d="M221.3 118.2V96.6L221.4 96.5L221.5 96.6V118.2L221.4 118.3L221.3 118.2Z" fill="#99A4B3"/>
<path d="M226.7 192V172.9L226.8 172.8L226.9 172.9V192L226.8 192.1L226.7 192Z" fill="#99A4B3"/>
<path d="M226.7 118.2V96.6L226.8 96.5L226.9 96.6V118.2L226.8 118.3L226.7 118.2Z" fill="#99A4B3"/>
<path d="M232.1 192V188.8L232.2 188.6L232.3 188.8V192L232.2 192.1L232.1 192Z" fill="#99A4B3"/>
<path d="M232.1 102.4V96.6L232.2 96.5L232.3 96.6V102.4L232.2 102.5L232.1 102.4Z" fill="#99A4B3"/>
<path d="M232.1 174.4V172.9L232.2 172.8L232.3 172.9V174.4L232.2 174.5L232.1 174.4Z" fill="#99A4B3"/>
<path d="M232.1 118.2V116.8L232.2 116.7L232.3 116.8V118.2L232.2 118.3L232.1 118.2Z" fill="#99A4B3"/>
<path d="M237.5 192V188.8L237.6 188.6L237.7 188.8V192L237.6 192.1L237.5 192Z" fill="#99A4B3"/>
<path d="M237.5 102.4V96.6L237.6 96.5L237.7 96.6V102.4L237.6 102.5L237.5 102.4Z" fill="#99A4B3"/>
<path d="M237.5 174.4V172.9L237.6 172.8L237.7 172.9V174.4L237.6 174.5L237.5 174.4Z" fill="#99A4B3"/>
<path d="M237.5 118.2V116.8L237.6 116.7L237.7 116.8V118.2L237.6 118.3L237.5 118.2Z" fill="#99A4B3"/>
<path d="M242.9 192V172.9L243 172.8L243.1 172.9V192L243 192.1L242.9 192Z" fill="#99A4B3"/>
<path d="M242.9 118.2V96.6L243 96.5L243.1 96.6V118.2L243 118.3L242.9 118.2Z" fill="#99A4B3"/>
<path d="M193 31.2H193.1V34.7L202 50V50.1L201.9 50.2L201.5 50.4H201.3L193.1 36.2V63.9H195.2V64L195.3 64.1V93.2H197.5V71.7L197.6 71.6H197.7H198.9H199V71.7V93.3V93.4H198.9H197.8V94.9H219.1V93.3L219.2 93.2H219.3H227.1V53.4V53.3L227.2 53.2H243.3V31.3H193V31.2H193.1H193V31.1H243.4H243.5V31.2V53.4L243.4 53.5H227.3V93.3V93.4H227.2H219.4V95L219.3 95.1H197.7H197.6L197.5 95V93.3L197.6 93.2H197.7H198.8V71.8H197.8V93.3V93.4H197.7H195.2H195.1L195 93.3V64.2H193H192.9V64.1V35.8L193 35.7H193.1L201.4 50.2L201.7 50L192.9 34.8V34.7V31.2V31.1H193V31.2Z" fill="#99A4B3"/>
<path d="M103 168.3V168.2H146V147.2H130H129.9V147.1V126.7H103.1V130.3H125.9V129.2H101.4V152H103L103.1 152.1V168.3H103V168.2V168.3H102.9V152.3H101.3L101.2 152.2V152.1V129.1V129H101.3H126H126.1V129.1V130.4V130.5H126H103H102.9V130.4V126.6V126.5H103H130H130.1V126.6V147H146.2H146.3V147.1V168.3V168.4L146.2 168.5H103L102.9 168.4V168.3H103Z" fill="#99A4B3"/>
<path d="M242.8 37.9H242.7L242.6 37.7L240.5 37.3H240.4C240.2 37.3 240.1 37.3 240 37.4C239.7 37.6 239.4 37.9 239.2 38.2L239.1 38.3C236.8 38.2 234.5 37.9 232.2 37.4C231.5 37.2 230.8 37.2 230 37.2C229 37.2 228.1 37.3 227.2 37.6C226.4 37.8 225.7 38.2 225 38.7C224.4 39.2 223.8 39.8 223.4 40.4C223.1 41 222.9 41.6 222.9 42.2C222.9 42.8 223.1 43.5 223.4 44C223.8 44.7 224.3 45.3 225 45.7C225.7 46.2 226.4 46.5 227.2 46.8C228.1 47.1 229.1 47.2 230 47.2C230.7 47.2 231.5 47.1 232.2 47C234.5 46.6 236.8 46.3 239.1 46.1L239.2 46.2C239.4 46.5 239.7 46.8 240 47C240.1 47.1 240.3 47.1 240.4 47.1H240.5L242.6 46.7L242.7 46.5V37.8H242.8H242.9V46.5C242.9 46.7 242.8 46.9 242.6 46.9L240.5 47.3H240.3C240.1 47.3 239.9 47.2 239.7 47.1C239.4 46.9 239.1 46.6 238.8 46.2L238.9 46.1V46.2C236.6 46.3 234.3 46.6 232.1 47.1C231.4 47.3 230.6 47.3 229.9 47.3C228.9 47.3 228 47.2 227 46.9C226.2 46.7 225.4 46.3 224.7 45.8C224 45.3 223.5 44.7 223.1 44C222.8 43.4 222.6 42.7 222.6 42.1C222.6 41.4 222.8 40.7 223.1 40.2C223.5 39.5 224.1 38.9 224.7 38.4C225.4 37.9 226.2 37.5 227 37.3C227.9 37 228.9 36.9 229.9 36.9C230.7 36.9 231.4 37 232.1 37.2C234.4 37.6 236.6 37.9 238.9 38.1V38.2L238.8 38.1C239 37.8 239.3 37.5 239.7 37.2C239.9 37.1 240.1 37 240.3 37H240.5L242.6 37.4C242.8 37.4 242.9 37.6 242.9 37.8H242.8V37.9Z" fill="#99A4B3"/>
<path d="M145.6 153.4H145.5L145.4 153.2L143.3 152.8H143.2C143 152.8 142.9 152.8 142.8 152.9C142.5 153.1 142.2 153.4 142 153.7L141.9 153.8C139.6 153.7 137.3 153.4 135 152.9C134.3 152.7 133.6 152.7 132.8 152.7C131.8 152.7 130.9 152.8 130 153.1C129.2 153.3 128.5 153.7 127.8 154.2C127.2 154.7 126.6 155.3 126.2 155.9C125.9 156.5 125.7 157.1 125.7 157.7C125.7 158.3 125.9 159 126.2 159.5C126.6 160.2 127.1 160.8 127.8 161.2C128.5 161.7 129.2 162 130 162.3C130.9 162.6 131.9 162.7 132.8 162.7C133.5 162.7 134.3 162.6 135 162.5C137.3 162.1 139.6 161.8 141.9 161.6L142 161.7C142.2 162 142.5 162.3 142.8 162.5C142.9 162.6 143.1 162.6 143.2 162.6H143.3L145.4 162.2L145.5 162V153.3H145.6H145.7V162C145.7 162.2 145.6 162.4 145.4 162.4L143.3 162.8H143.1C142.9 162.8 142.7 162.7 142.5 162.6C142.2 162.4 141.9 162.1 141.6 161.7L141.7 161.6V161.7C139.4 161.8 137.1 162.1 134.9 162.6C134.2 162.8 133.4 162.9 132.7 162.9C131.7 162.9 130.8 162.8 129.8 162.5C129 162.3 128.2 161.9 127.5 161.4C126.8 160.9 126.3 160.3 125.9 159.6C125.6 159 125.4 158.3 125.4 157.7C125.4 157 125.6 156.3 125.9 155.8C126.3 155.1 126.9 154.5 127.5 154C128.2 153.5 129 153.1 129.8 152.9C130.7 152.6 131.7 152.5 132.7 152.5C133.5 152.5 134.2 152.6 134.9 152.7C137.2 153.1 139.4 153.4 141.7 153.6V153.7L141.6 153.6C141.8 153.3 142.1 153 142.5 152.7C142.7 152.6 142.9 152.5 143.1 152.5H143.3L145.4 152.9C145.6 152.9 145.7 153.1 145.7 153.3H145.6V153.4Z" fill="#99A4B3"/>
<path d="M67.1 126.6V126.7H64.6H64.5V126.6V125H21.5V126.6V126.7H21.4H19V131.1H22.8V130L22.9 129.9H42.3L42.4 130V131.1H43.6V130H43.7L43.8 129.9H63.2L63.3 130V131.1H67V126.6H67.1V126.7V126.6H67.2V131.2V131.3H67.1H63.2H63.1V131.2V130.2H43.9V131.2L43.8 131.3H42.3H42.2V131.2V130.2H23V131.2V131.3H22.9H18.9H18.8L18.7 131.2V126.6L18.8 126.5H18.9H21.3V124.9V124.8H21.4H64.6H64.7V124.9V126.5H67.1H67.2V126.6H67.1Z" fill="#99A4B3"/>
<path d="M51.8 124.9V130L51.7 130.2L51.6 130V124.9L51.7 124.8L51.8 124.9Z" fill="#99A4B3"/>
<path d="M34.5 124.9V130L34.4 130.2L34.3 130V124.9L34.4 124.8L34.5 124.9Z" fill="#99A4B3"/>
<path d="M109.8 168.3V130.4L110 130.3L110.1 130.4V168.3L110 168.5L109.8 168.3Z" fill="#99A4B3"/>
<path d="M109.8 129.1V126.6L110 126.5L110.1 126.6V129.1L110 129.2L109.8 129.1Z" fill="#99A4B3"/>
<path d="M118.5 168.3V130.4L118.6 130.3L118.7 130.4V168.3L118.6 168.5L118.5 168.3Z" fill="#99A4B3"/>
<path d="M118.5 129.1V126.6L118.6 126.5L118.7 126.6V129.1L118.6 129.2L118.5 129.1Z" fill="#99A4B3"/>
<path d="M127.1 168.3V161.1L127.2 161L127.4 161.1V168.3L127.2 168.5L127.1 168.3Z" fill="#99A4B3"/>
<path d="M127.1 154.3V126.6L127.2 126.5L127.4 126.6V154.3L127.2 154.5L127.1 154.3Z" fill="#99A4B3"/>
<path d="M135.7 168.3V162.5L135.9 162.3L136 162.5V168.3L135.9 168.5L135.7 168.3Z" fill="#99A4B3"/>
<path d="M135.7 153V147.1L135.9 147L136 147.1V153L135.9 153.1L135.7 153Z" fill="#99A4B3"/>
<path d="M144.4 168.3V162.5L144.5 162.4L144.6 162.5V168.3L144.5 168.5L144.4 168.3Z" fill="#99A4B3"/>
<path d="M144.4 152.9V147.1L144.5 147L144.6 147.1V152.9L144.5 153.1L144.4 152.9Z" fill="#99A4B3"/>
<path d="M146.2 161.3H145.6L145.5 161.1L145.6 161H146.2L146.3 161.1L146.2 161.3Z" fill="#99A4B3"/>
<path d="M127.3 161.3H103L102.9 161.1L103 161H127.3L127.4 161.1L127.3 161.3Z" fill="#99A4B3"/>
<path d="M130 144H101.3L101.2 143.9L101.3 143.7H130L130.1 143.9L130 144Z" fill="#99A4B3"/>
<path d="M201.5 95V50.2L201.6 50.1L201.7 50.2V95L201.6 95.1L201.5 95Z" fill="#99A4B3"/>
<path d="M201.5 49.7V31.2L201.6 31.1L201.7 31.2V49.7L201.6 49.8L201.5 49.7Z" fill="#99A4B3"/>
<path d="M210.1 95V31.2L210.3 31.1L210.4 31.2V95L210.3 95.1L210.1 95Z" fill="#99A4B3"/>
<path d="M218.8 95V31.2L218.9 31.1L219 31.2V95L218.9 95.1L218.8 95Z" fill="#99A4B3"/>
<path d="M227.4 53.4V47.2L227.5 47L227.7 47.2V53.4L227.5 53.5L227.4 53.4Z" fill="#99A4B3"/>
<path d="M227.4 37.4V31.2L227.5 31.1L227.7 31.2V37.4L227.5 37.5L227.4 37.4Z" fill="#99A4B3"/>
<path d="M236 53.4V46.6L236.2 46.5L236.3 46.6V53.4L236.2 53.5L236 53.4Z" fill="#99A4B3"/>
<path d="M236 38V31.2L236.2 31.1L236.3 31.2V38L236.2 38.1L236 38Z" fill="#99A4B3"/>
<path d="M227.2 77.8H198.9L198.8 77.7L198.9 77.6H227.2L227.3 77.7L227.2 77.8Z" fill="#99A4B3"/>
<path d="M197.7 77.8H195.2L195 77.7L195.2 77.6H197.7L197.8 77.7L197.7 77.8Z" fill="#99A4B3"/>
<path d="M227.2 60.5H193L192.9 60.4L193 60.3H227.2L227.3 60.4L227.2 60.5Z" fill="#99A4B3"/>
<path d="M243.4 43.3H242.8L242.7 43.2L242.8 43H243.4L243.5 43.2L243.4 43.3Z" fill="#99A4B3"/>
<path d="M197.2 43.3H193L192.9 43.2L193 43H197.2L197.4 43.2L197.2 43.3Z" fill="#99A4B3"/>
<path d="M222.8 43.3H197.9L197.7 43.2L197.9 43H222.8L222.9 43.2L222.8 43.3Z" fill="#99A4B3"/>
<path fill-rule="evenodd" clip-rule="evenodd" d="M12.4 270H23.9V237.6H24.6V233.6H18.9V156.1H72.1V126.6H74.6V123.3H64.6V126.6H67.1V152.8H18.9V126.6H21.4V123.3H18.9V67.4H27.9V63.3H27.1V60.1H23.9V11.3H12.4V270Z" fill="#22576F"/>
<path fill-rule="evenodd" clip-rule="evenodd" d="M99.5 240.8V237.6H98.9V233.6H99.7V219.6H103V233.6H121.1V228H143.9V196.4H103V198H99.7V152.1H103V191.4H146.2V126.6H103V129.1H99.7V126.6H96.2V123.3H129.5V120.7H132.9V123.3H151.2V240.8H99.5Z" fill="#22576F"/>
<path fill-rule="evenodd" clip-rule="evenodd" d="M222.3 31.2H148.3V64.1H195.2V93.3H197.7V96.6H189.5V93.3H191.8V67.4H132.9V93.3H135.2V96.6H132.9V99.2H129.5V67.4H49.8V63.3H50.5V60.1H140V22.9H222.3V31.2Z" fill="#22576F"/>
<path fill-rule="evenodd" clip-rule="evenodd" d="M242.2 22.9H245.6V11.3H252.1V270H245.6V199.3H242.3V196H241.6V192H243.4V96.6H219.3V93.3H243.4V31.2H242.2V22.9Z" fill="#22576F"/>
<path d="M164.8 93.3H159.8V96.6H164.8V93.3Z" fill="#22576F"/>
<path d="M178.7 192.1H151.2L151.1 192L151.2 191.9H178.7L178.9 192L178.7 192.1Z" fill="#22576F"/>
<path d="M178.7 199.4H151.2L151.1 199.3L151.2 199.2H178.7L178.9 199.3L178.7 199.4Z" fill="#22576F"/>
<path d="M101 91.3H44.2V92.1H101.3L101.5 92.2L101.3 92.4H44.1L44 92.3L43.9 92.2V91.1H44L44.1 91H101L101.1 91.1L101 91.3Z" fill="#22576F"/>
<path d="M242.2 31.3H222.3L222.2 31.2L222.3 31.1H242.2L242.3 31.2L242.2 31.3Z" fill="#22576F"/>
<path d="M242.2 28.1H222.3L222.2 28L222.3 27.8H242.2L242.3 28L242.2 28.1Z" fill="#22576F"/>
<path d="M136.6 228V225.8L136.7 225.7L136.8 225.8V228L136.7 228.1L136.6 228Z" fill="#22576F"/>
<path d="M136.6 204.8V200.6L136.7 200.5L136.8 200.6V204.8L136.7 204.9L136.6 204.8ZM136.6 211.1V206.9L136.7 206.8L136.8 206.9V211.1L136.7 211.2L136.6 211.1ZM136.6 217.4V213.2L136.7 213.1L136.8 213.2V217.4L136.7 217.5L136.6 217.4ZM136.6 223.7V219.5L136.7 219.4L136.8 219.5V223.7L136.7 223.8L136.6 223.7Z" fill="#22576F"/>
<path d="M136.6 198.5V196.4L136.7 196.3L136.8 196.4V198.5L136.7 198.7L136.6 198.5Z" fill="#22576F"/>
<path d="M180.3 74.7H178.2L178 74.6L178.2 74.5H180.3L180.4 74.6L180.3 74.7Z" fill="#22576F"/>
<path d="M141.8 74.7H137.3L137.2 74.6L137.3 74.5H141.8L141.9 74.6L141.8 74.7ZM148.6 74.7H144.1L144 74.6L144.1 74.5H148.6L148.7 74.6L148.6 74.7ZM155.4 74.7H150.9L150.8 74.6L150.9 74.5H155.4L155.5 74.6L155.4 74.7ZM162.3 74.7H157.8L157.7 74.6L157.8 74.5H162.3L162.4 74.6L162.3 74.7ZM169.1 74.7H164.6L164.5 74.6L164.6 74.5H169.1L169.2 74.6L169.1 74.7ZM175.9 74.7H171.4L171.3 74.6L171.4 74.5H175.9L176 74.6L175.9 74.7Z" fill="#22576F"/>
<path d="M135 74.7H132.9L132.7 74.6L132.9 74.5H135L135.1 74.6L135 74.7Z" fill="#22576F"/>
<path d="M50.5 63.5H27.1L27 63.3L27.1 63.2H50.5L50.7 63.3L50.5 63.5Z" fill="#22576F"/>
<path d="M50.5 60.2H27.1L27 60.1L27.1 60H50.5L50.7 60.1L50.5 60.2Z" fill="#22576F"/>
<path d="M23.9 237.5H99.5L99.6 237.6L99.5 237.7H23.9L23.8 237.6L23.9 237.5Z" fill="#22576F"/>
<path d="M23.9 240.7H99.5L99.6 240.8L99.5 241H23.9L23.8 240.8L23.9 240.7Z" fill="#22576F"/>
<path d="M178.7 195.9H242.3L242.5 196L242.3 196.2H178.7L178.6 196L178.7 195.9Z" fill="#22576F"/>
<path d="M178.7 199.2H242.3L242.5 199.3L242.3 199.4H178.7L178.6 199.3L178.7 199.2Z" fill="#22576F"/>
<path d="M148.8 243V242.9H150.9H151L151.1 243V250.3H243.4L243.5 250.4V252.6V252.7H243.4H148.8H148.7V252.6V243V242.9H148.8V243H148.9V252.5H243.3V250.6H150.9L150.8 250.5V250.4V243.1H148.8V243H148.9H148.8Z" fill="#22576F"/>
<path d="M152.6 199.3V199.4H151.2H151.1V199.3V196L151.2 195.9H152.6L152.7 196H152.8V199.3L152.7 199.4H152.6V199.3H152.5V196.2H151.3V199.2H152.6V199.3H152.5H152.6Z" fill="#22576F"/>
<path d="M178.9 192V196L178.7 196.2L178.6 196V192L178.7 191.9L178.9 192Z" fill="#22576F"/>
<path d="M177.3 96.6C177.3 98.7 177.9 100.8 178.9 102.7V102.9H178.7C177.6 101 177 98.9 177 96.7L177.1 96.6H177.3Z" fill="#22576F"/>
<path d="M175.4 102.7C176.5 100.8 177 98.7 177 96.6L177.1 96.5L177.2 96.6C177.2 98.8 176.6 100.9 175.5 102.8H175.3L175.4 102.7Z" fill="#22576F"/>
<path d="M189.5 96.6L189.6 96.7L178.9 102.9H178.8H178.7L178.1 101.8V101.6L188.8 95.4H188.9L189 95.5L189.6 96.6V96.7L189.5 96.6L189.4 96.7L188.8 95.7L178.4 101.8L178.9 102.6L189.4 96.5L189.5 96.6L189.4 96.7L189.5 96.6Z" fill="#22576F"/>
<path d="M164.8 96.6L164.9 96.5L175.5 102.6L176 101.8L165.5 95.7L164.9 96.7L164.8 96.6L164.9 96.5L164.8 96.6H164.7L165.4 95.5V95.4H165.5L176.2 101.6L176.3 101.8L175.6 102.9H175.5L164.8 96.7L164.7 96.6H164.8Z" fill="#22576F"/>
<path d="M103 129.1V129H126H126.1V129.1V130.4V130.5H126H103H102.9V130.4V129.1V129H103V129.1H103.1V130.2H125.9V129.2H103V129.1H103.1H103Z" fill="#22576F"/>
<path d="M103 152C109.3 152 115.1 149.4 119.2 145.3C123.3 141.2 125.9 135.4 125.9 129.1L126 129L126.1 129.1C126.1 141.9 115.7 152.3 102.9 152.3L102.8 152.2L103 152Z" fill="#22576F"/>
<path d="M103 198V197.9H124.6H124.7V198V199.3V199.4H124.6H103H102.9V199.3V198V197.9H103V198H103.1V199.2H124.5V198.2H103V198H103.1H103Z" fill="#22576F"/>
<path d="M103 219.5C108.9 219.5 114.3 217.1 118.2 213.2C122.1 209.3 124.5 203.9 124.5 198L124.6 197.9L124.7 198C124.7 210 115 219.7 103 219.7L102.9 219.6L103 219.5Z" fill="#22576F"/>
<path d="M197.7 71.7V71.6H198.9H199L199.1 71.7V93.3L199 93.4H198.9H197.7H197.6L197.5 93.3V71.7L197.6 71.6H197.7V71.7H197.8V93.2H198.8V71.8H197.7V71.7H197.8H197.7Z" fill="#22576F"/>
<path d="M219.1 93.3C219.1 87.4 216.7 82 212.8 78.1C208.9 74.2 203.5 71.8 197.6 71.8L197.5 71.7L197.6 71.6C209.6 71.6 219.3 81.3 219.3 93.3L219.2 93.4L219.1 93.3Z" fill="#22576F"/>
<path d="M18.9 144H21L21.1 144.1L21 144.3H18.9L18.7 144.1L18.9 144Z" fill="#22576F"/>
<path d="M59 144H63L63.1 144.1L63 144.2H59L58.9 144.1L59 144ZM53 144H57L57.1 144.1L57 144.2H53L52.9 144.1L53 144ZM47 144H51L51.1 144.1L51 144.2H47L46.9 144.1L47 144ZM41 144H45L45.1 144.1L45 144.2H41L40.9 144.1L41 144ZM35 144H39L39.1 144.1L39 144.2H35L34.9 144.1L35 144ZM29 144H33L33.1 144.1L33 144.2H29L28.9 144.1L29 144ZM23 144H27L27.1 144.1L27 144.2H23L22.9 144.1L23 144Z" fill="#22576F"/>
<path d="M64.9 144H67.1L67.2 144.1L67.1 144.3H64.9L64.8 144.1L64.9 144Z" fill="#22576F"/>
<path d="M242.2 23.1H222.3L222.2 22.9L222.3 22.8H242.2L242.3 22.9L242.2 23.1Z" fill="#22576F"/>
<path d="M47.5 93.3V92.2L47.7 92.1L47.8 92.2V93.3L47.7 93.4L47.5 93.3Z" fill="#22576F"/>
<path d="M47.5 91.1V67.4L47.7 67.3L47.8 67.4V91.1L47.7 91.3L47.5 91.1Z" fill="#22576F"/>
<path d="M97.9 93.3V92.2L98 92.1L98.2 92.2V93.3L98 93.4L97.9 93.3Z" fill="#22576F"/>
<path d="M97.9 91.1V81.6L98 81.5L98.2 81.6V91.1L98 91.3L97.9 91.1Z" fill="#22576F"/>
<path d="M97.9 80.3V78.9L98 78.8L98.2 78.9V80.3L98 80.4L97.9 80.3Z" fill="#22576F"/>
<path d="M94.8 67.3L97.8 78.7L100.3 79.4L100.4 79.6L100.3 79.7L96.4 81L98.5 81.6L98.6 81.7L101.7 93.3V93.4L101.5 93.3L98.4 81.8L95.9 81.1L95.8 81L95.9 80.9L99.9 79.6L97.7 79L97.6 78.9L94.5 67.4L94.6 67.2L94.8 67.3Z" fill="#22576F"/>
<path d="M54.7 93.3V92.2L54.9 92.1L55 92.2V93.3L54.9 93.4L54.7 93.3Z" fill="#22576F"/>
<path d="M54.7 91.1V67.4L54.9 67.3L55 67.4V91.1L54.9 91.3L54.7 91.1Z" fill="#22576F"/>
<path d="M61.9 93.3V92.2L62.1 92.1L62.2 92.2V93.3L62.1 93.4L61.9 93.3Z" fill="#22576F"/>
<path d="M61.9 91.1V67.4L62.1 67.3L62.2 67.4V91.1L62.1 91.3L61.9 91.1Z" fill="#22576F"/>
<path d="M69.1 93.3V92.2L69.2 92.1L69.4 92.2V93.3L69.2 93.4L69.1 93.3Z" fill="#22576F"/>
<path d="M69.1 91.1V67.4L69.2 67.3L69.4 67.4V91.1L69.2 91.3L69.1 91.1Z" fill="#22576F"/>
<path d="M76.3 93.3V92.2L76.4 92.1L76.6 92.2V93.3L76.4 93.4L76.3 93.3Z" fill="#22576F"/>
<path d="M76.3 91.1V67.4L76.4 67.3L76.6 67.4V91.1L76.4 91.3L76.3 91.1Z" fill="#22576F"/>
<path d="M83.5 93.3V92.2L83.6 92.1L83.8 92.2V93.3L83.6 93.4L83.5 93.3Z" fill="#22576F"/>
<path d="M83.5 91.1V67.4L83.6 67.3L83.8 67.4V91.1L83.6 91.3L83.5 91.1Z" fill="#22576F"/>
<path d="M90.7 93.3V92.2L90.8 92.1L91 92.2V93.3L90.8 93.4L90.7 93.3Z" fill="#22576F"/>
<path d="M90.7 91.1V67.4L90.8 67.3L91 67.4V91.1L90.8 91.3L90.7 91.1Z" fill="#22576F"/>
<path d="M242.2 31.2V31.3H240.8H240.7L240.6 31.2V28L240.7 27.9L240.8 27.8H242.2L242.3 27.9V28V31.2V31.3H242.2V31.2H242.1V28.1H240.9V31.1H242.2V31.2H242.1H242.2Z" fill="#22576F"/>
<path d="M223.7 31.2V31.3H222.3H222.2V31.2V28V27.9L222.3 27.8H223.7L223.8 27.9V28V31.2V31.3H223.7V31.2H223.6V28.1H222.4V31.1H223.7V31.2H223.6H223.7Z" fill="#22576F"/>
<path d="M240.8 28.8H223.7L223.6 28.7L223.7 28.6H240.8L240.9 28.7L240.8 28.8Z" fill="#22576F"/>
<path d="M240.8 29.5H223.7L223.6 29.4L223.7 29.3H240.8L240.9 29.4L240.8 29.5Z" fill="#22576F"/>
<path d="M145.7 102.7C146.8 100.8 147.3 98.7 147.3 96.6L147.4 96.5L147.5 96.6C147.5 98.8 146.9 100.9 145.8 102.8H145.6L145.7 102.7Z" fill="#22576F"/>
<path d="M147.6 96.6C147.6 98.7 148.2 100.8 149.2 102.7V102.9H149C147.9 101 147.3 98.9 147.3 96.7L147.4 96.6H147.6Z" fill="#22576F"/>
<path d="M135.2 96.6V96.5L145.8 102.6L146.3 101.8L135.8 95.7L135.3 96.7L135.2 96.6V96.5V96.6H135.1L135.7 95.5L135.8 95.4H135.9L146.5 101.6L146.6 101.7V101.8L146 102.9H145.9H145.8L135.1 96.7V96.6H135.2Z" fill="#22576F"/>
<path d="M159.8 96.6L159.9 96.7L149.2 102.9H149.1H149L148.4 101.8L148.5 101.6L159.2 95.4L159.3 95.5L160 96.6V96.7H159.9L159.8 96.6L159.7 96.7L159.2 95.7L148.7 101.8L149.2 102.6L159.8 96.5V96.6L159.7 96.7L159.8 96.6Z" fill="#22576F"/>
<path d="M132.9 120.7V120.6H154.3V119.6H133V120.7H132.9V120.6V120.7H132.7V119.5L132.8 119.4H132.9H154.4H154.5L154.6 119.5V120.7L154.5 120.8L154.4 120.9H132.9L132.8 120.8L132.7 120.7H132.9Z" fill="#22576F"/>
<path d="M154.3 120.7C154.3 114.8 151.9 109.4 148 105.5C144.1 101.6 138.7 99.2 132.8 99.2L132.7 99.1L132.8 99C144.8 99 154.5 108.7 154.5 120.7L154.4 120.8L154.3 120.7Z" fill="#22576F"/>
<path d="M74.6 148.2V148.1H75.8V126.7H74.8V148.2H74.6V148.1V148.2H74.5V126.6L74.6 126.5H75.9H76V126.6V148.2V148.3H75.9H74.6L74.5 148.2H74.6Z" fill="#22576F"/>
<path d="M74.6 148.1C80.5 148.1 85.9 145.7 89.8 141.8C93.7 137.9 96.1 132.5 96.1 126.6L96.2 126.5L96.3 126.6C96.3 138.6 86.6 148.3 74.6 148.3L74.5 148.2L74.6 148.1Z" fill="#22576F"/>
<path d="M64.6 101.7V101.8H63.4V123.1H64.4V101.7H64.6V101.8V101.7H64.7V123.3V123.4H64.6H63.3H63.2V123.3V101.7V101.6L63.3 101.5H64.6L64.7 101.6V101.7H64.6Z" fill="#22576F"/>
<path d="M22.6 101.7V101.8H21.5V123.1H22.5V101.7H22.6V101.8V101.7H22.8V123.3L22.7 123.4H22.6H21.4H21.3V123.3V101.7V101.6L21.4 101.5H22.6L22.7 101.6L22.8 101.7H22.6Z" fill="#22576F"/>
<path d="M64.6 101.8C58.7 101.8 53.3 104.2 49.4 108.1C45.5 112 43.1 117.4 43.1 123.3L43 123.4L42.9 123.3C42.9 111.3 52.6 101.6 64.6 101.6L64.7 101.7L64.6 101.8Z" fill="#22576F"/>
<path d="M42.9 123.3C42.9 117.4 40.5 112 36.6 108.1C32.7 104.2 27.3 101.8 21.4 101.8L21.3 101.7L21.4 101.6C33.4 101.6 43.1 111.3 43.1 123.3L43 123.4L42.9 123.3Z" fill="#22576F"/>
<path d="M50.5 63.3V63.5H49.1L49 63.4V63.3V60.1V60H49.1H50.5H50.6L50.7 60.1V63.3L50.6 63.4L50.5 63.5V63.3H50.4V60.2H49.2V63.2H50.5V63.3H50.4H50.5Z" fill="#22576F"/>
<path d="M28.6 63.3V63.5H27.1V63.4L27 63.3V60.1L27.1 60H28.6H28.7V60.1V63.3V63.4L28.6 63.5V63.3H28.5V60.2H27.3V63.2H28.6V63.3H28.5H28.6Z" fill="#22576F"/>
<path d="M49.1 61H28.6L28.5 60.8L28.6 60.7H49.1L49.2 60.8L49.1 61Z" fill="#22576F"/>
<path d="M49.1 61.7H28.6L28.5 61.5L28.6 61.4H49.1L49.2 61.5L49.1 61.7Z" fill="#22576F"/>
<path d="M49.8 67.5H27.9L27.7 67.4L27.9 67.3H49.8L49.9 67.4L49.8 67.5Z" fill="#22576F"/>
<path d="M23.9 237.6V237.5H25.3H25.4L25.5 237.6V240.8L25.4 240.9L25.3 241H23.9L23.8 240.9V240.8V237.6V237.5H23.9V237.6H24V240.7H25.2V237.7H23.9V237.6H24H23.9Z" fill="#22576F"/>
<path d="M98 237.6V237.5H99.5H99.6V237.6V240.8V240.9L99.5 241H98L97.9 240.9V240.8V237.6V237.5H98V237.6H98.2V240.7H99.4V237.7H98V237.6H98.2H98Z" fill="#22576F"/>
<path d="M40.5 237.6V237.5H41.9H42V237.6V240.8V240.9L41.9 241H40.5L40.4 240.9L40.3 240.8V237.6L40.4 237.5H40.5V237.6H40.6V240.7H41.8V237.7H40.5V237.6H40.6H40.5Z" fill="#22576F"/>
<path d="M25.3 240H40.5L40.6 240.1L40.5 240.3H25.3L25.2 240.1L25.3 240Z" fill="#22576F"/>
<path d="M25.3 239.3H40.5L40.6 239.4L40.5 239.5H25.3L25.2 239.4L25.3 239.3Z" fill="#22576F"/>
<path d="M81.5 237.6V237.5H82.9H83V237.6V240.8V240.9L82.9 241H81.5L81.4 240.9V240.8V237.6V237.5H81.5V237.6H81.6V240.7H82.8V237.7H81.5V237.6H81.6H81.5Z" fill="#22576F"/>
<path d="M41.9 240H81.5L81.6 240.1L81.5 240.3H41.9L41.8 240.1L41.9 240Z" fill="#22576F"/>
<path d="M41.9 239.3H81.5L81.6 239.4L81.5 239.5H41.9L41.8 239.4L41.9 239.3Z" fill="#22576F"/>
<path d="M82.9 240H98L98.2 240.1L98 240.3H82.9L82.8 240.1L82.9 240Z" fill="#22576F"/>
<path d="M82.9 239.3H98L98.2 239.4L98 239.5H82.9L82.8 239.4L82.9 239.3Z" fill="#22576F"/>
<path d="M24.6 233.4H98.8L98.9 233.6L98.8 233.7H24.6L24.5 233.6L24.6 233.4Z" fill="#22576F"/>
<path d="M178.7 196V195.9H180.2L180.3 196V199.3V199.4H180.2H178.7H178.6V199.3V196L178.7 195.9V196H178.9V199.2H180.1V196.2H178.7V196H178.9H178.7Z" fill="#22576F"/>
<path d="M240.9 196V195.9H242.3L242.4 196H242.5V199.3L242.4 199.4H242.3H240.9H240.8V199.3V196L240.9 195.9V196H241V199.2H242.2V196.2H240.9V196H241H240.9Z" fill="#22576F"/>
<path d="M197.4 196V195.9H198.9L199 196V199.3V199.4H198.9H197.4L197.3 199.3V196H197.4V195.9V196H197.6V199.2H198.8V196.2H197.4V196H197.6H197.4Z" fill="#22576F"/>
<path d="M180.2 198.4H197.4L197.6 198.6L197.4 198.7H180.2L180.1 198.6L180.2 198.4Z" fill="#22576F"/>
<path d="M180.2 197.7H197.4L197.6 197.8L197.4 198H180.2L180.1 197.8L180.2 197.7Z" fill="#22576F"/>
<path d="M219 196V195.9H220.5L220.6 196V199.3V199.4H220.5H219L218.9 199.3V196H219V195.9V196H219.2V199.2H220.4V196.2H219V196H219.2H219Z" fill="#22576F"/>
<path d="M198.9 198.4H219L219.2 198.6L219 198.7H198.9L198.8 198.6L198.9 198.4Z" fill="#22576F"/>
<path d="M198.9 197.7H219L219.2 197.8L219 198H198.9L198.8 197.8L198.9 197.7Z" fill="#22576F"/>
<path d="M220.5 198.4H240.9L241 198.6L240.9 198.7H220.5L220.4 198.6L220.5 198.4Z" fill="#22576F"/>
<path d="M220.5 197.7H240.9L241 197.8L240.9 198H220.5L220.4 197.8L220.5 197.7Z" fill="#22576F"/>
<path d="M178.7 191.9H241.6L241.7 192L241.6 192.1H178.7L178.6 192L178.7 191.9Z" fill="#22576F"/>
<path d="M152.6 225.4V225.2H153.8V199.4H152.8V225.4H152.6V225.2V225.4H152.5V199.3L152.6 199.2H153.9H154V199.3V225.4V225.5H153.9H152.6L152.5 225.4H152.6Z" fill="#22576F"/>
<path d="M152.6 225.3C159.8 225.3 166.3 222.4 171 217.7C175.7 213 178.6 206.5 178.6 199.3L178.7 199.2L178.8 199.3C178.8 213.8 167.1 225.5 152.6 225.5L152.5 225.4L152.6 225.3Z" fill="#22576F"/>
<path d="M20.2 216.4V173.2L20.3 173.1L20.4 173.2V216.4L20.3 216.5L20.2 216.4Z" fill="#22576F"/>
<path d="M18.9 173.2V173.1H77.9L78 173.2V216.4V216.5H77.9H18.9H18.8L18.7 216.4V173.2H18.8L18.9 173.1V173.2H19V216.3H77.8V173.4H18.9V173.2H19H18.9Z" fill="#22576F"/>
<path d="M35.7 193V193.1C34.1 192.6 32.4 192.4 30.7 192.4C29 192.4 27.3 192.6 25.7 193.1H25.6V193C26 190 26.1 187 26.1 184C26.1 181 25.9 178 25.6 175V174.9H25.7C27.3 175.4 29 175.6 30.7 175.6C32.4 175.6 34.1 175.4 35.7 174.9H35.8V175C35.4 178 35.3 181 35.3 184C35.3 187 35.5 190 35.8 193H35.7H35.6C35.2 190 35.1 187 35.1 184C35.1 181 35.3 178 35.6 175H35.7V175.1C34 175.6 32.3 175.8 30.6 175.8C28.9 175.8 27.2 175.6 25.5 175.1V175H25.6C26 178 26.1 181 26.1 184C26.1 187 25.9 190 25.6 193H25.5V192.9C27.2 192.4 28.9 192.2 30.6 192.2C32.3 192.2 34 192.4 35.7 192.9V193Z" fill="#22576F"/>
<path d="M32.5 194.2C30.6 193.7 28.7 193.5 26.8 193.5C24.9 193.5 23 193.7 21.1 194.2H21V194.1C21.5 190.8 21.7 187.4 21.7 184C21.7 180.6 21.5 177.3 21 173.9V173.8H21.1C23 174.3 24.9 174.5 26.8 174.5C28.7 174.5 30.6 174.3 32.5 173.8H32.6V173.9C32.5 174.5 32.4 175 32.4 175.6L32.3 175.7L32.2 175.6C32.3 175 32.3 174.4 32.4 173.9H32.5V174C30.6 174.5 28.7 174.7 26.7 174.7C24.8 174.7 22.8 174.5 20.9 174V173.9H21C21.5 177.2 21.7 180.6 21.7 184C21.7 187.4 21.5 190.7 21 194.1H20.9V194C22.8 193.5 24.7 193.3 26.7 193.3C28.6 193.3 30.6 193.5 32.5 194L32.6 194.2H32.5Z" fill="#22576F"/>
<path d="M35.7 196.6V196.7C34 197.2 32.3 197.4 30.6 197.4C28.9 197.4 27.2 197.2 25.5 196.7V196.6H25.6C26 199.6 26.1 202.6 26.1 205.6C26.1 208.6 25.9 211.6 25.6 214.6H25.5V214.5C27.2 214 28.9 213.8 30.6 213.8C32.3 213.8 34 214 35.7 214.5V214.6H35.6C35.2 211.6 35.1 208.6 35.1 205.6C35.1 202.6 35.3 199.6 35.6 196.6H35.7H35.8C35.4 199.6 35.3 202.6 35.3 205.6C35.3 208.6 35.5 211.6 35.8 214.6V214.7H35.7C34.1 214.2 32.4 214 30.7 214C29 214 27.3 214.2 25.7 214.7H25.6V214.6C26 211.6 26.1 208.6 26.1 205.6C26.1 202.6 25.9 199.6 25.6 196.6V196.5H25.7C27.3 197 29 197.2 30.7 197.2C32.4 197.2 34.1 197 35.7 196.5V196.6Z" fill="#22576F"/>
<path d="M32.6 195.7C30.7 196.2 28.8 196.4 26.8 196.4C24.9 196.4 22.9 196.2 21 195.7V195.6H21.1C21.6 198.9 21.8 202.3 21.8 205.7C21.8 209.1 21.6 212.4 21.1 215.8H21V215.7C22.9 215.2 24.8 215 26.8 215C28.7 215 30.7 215.2 32.6 215.7V215.8H32.5C32.4 215.2 32.3 214.7 32.3 214.1L32.4 214L32.5 214.1C32.6 214.7 32.6 215.2 32.7 215.8V215.9H32.6C30.7 215.4 28.8 215.2 26.9 215.2C25 215.2 23.1 215.4 21.2 215.9H21.1V215.8C21.6 212.5 21.8 209.1 21.8 205.7C21.8 202.3 21.6 199 21.1 195.6V195.5H21.2C23.1 196 25 196.2 26.9 196.2C28.8 196.2 30.7 196 32.6 195.5L32.8 195.6L32.6 195.7Z" fill="#22576F"/>
<path d="M27.6 173.2V174.7L27.5 174.8L27.4 174.7V173.2L27.5 173.1L27.6 173.2Z" fill="#22576F"/>
<path d="M37 173.2V216.4L36.9 216.5L36.7 216.4V173.2L36.9 173.1L37 173.2Z" fill="#22576F"/>
<path d="M27.6 193.4V196.3L27.5 196.4L27.4 196.3V193.4L27.5 193.3L27.6 193.4Z" fill="#22576F"/>
<path d="M27.6 215V216.4L27.5 216.5L27.4 216.4V215L27.5 214.9L27.6 215Z" fill="#22576F"/>
<path d="M32.4 192.4C32.5 193 32.5 193.5 32.6 194.1L32.5 194.2L32.4 194.1C32.3 193.5 32.2 193 32.2 192.4L32.3 192.3L32.4 192.4Z" fill="#22576F"/>
<path d="M32.7 195.6C32.6 196.2 32.5 196.7 32.5 197.3L32.4 197.4L32.3 197.3C32.4 196.7 32.4 196.1 32.5 195.6L32.6 195.5L32.7 195.6Z" fill="#22576F"/>
<path d="M31.8 217.9V218H20.4V232.1H31.7V217.9H31.8V218V217.9H31.9V232.3L31.8 232.4H20.3L20.2 232.3V217.9V217.8L20.3 217.7H31.8L31.9 217.8V217.9H31.8Z" fill="#22576F"/>
<path d="M31.8 171.8V171.9H20.3H20.2V171.8V157.4V157.3H20.3H31.8H31.9V157.4V171.8V171.9H31.8V171.8H31.7V157.5H20.4V171.7H31.8V171.8H31.7H31.8Z" fill="#22576F"/>
<path d="M21.8 225.1H21.7C21.7 222.7 23.7 220.7 26.1 220.7C28.5 220.7 30.5 222.7 30.5 225.1C30.5 227.5 28.5 229.5 26.1 229.5C23.7 229.5 21.7 227.5 21.7 225.1H21.8H21.9C21.9 226.2 22.4 227.3 23.1 228C23.9 228.8 24.9 229.2 26 229.2C27.1 229.2 28.2 228.7 28.9 228C29.7 227.2 30.1 226.2 30.1 225.1C30.1 224 29.6 222.9 28.9 222.2C28.1 221.4 27.1 221 26 221C24.9 221 23.8 221.5 23.1 222.2C22.3 223 21.9 224 21.9 225.1H21.8Z" fill="#22576F"/>
<path d="M25 225.1H24.9C24.9 224.4 25.4 223.9 26.1 223.9C26.8 223.9 27.3 224.4 27.3 225.1C27.3 225.8 26.8 226.3 26.1 226.3C25.4 226.3 24.9 225.8 24.9 225.1H25H25.1C25.1 225.6 25.5 226.1 26.1 226.1C26.6 226.1 27.1 225.7 27.1 225.1C27.1 224.6 26.7 224.1 26.1 224.1C25.6 224.1 25.1 224.5 25.1 225.1H25Z" fill="#22576F"/>
<path d="M30.3 225.2H27.2L27 225.1L27.2 224.9H30.3L30.5 225.1L30.3 225.2Z" fill="#22576F"/>
<path d="M25 225.2H21.8L21.7 225.1L21.8 224.9H25L25.1 225.1L25 225.2Z" fill="#22576F"/>
<path d="M25.9 229.3V226.2L26.1 226L26.2 226.2V229.3L26.1 229.5L25.9 229.3Z" fill="#22576F"/>
<path d="M25.9 224V220.8L26.1 220.7L26.2 220.8V224L26.1 224.1L25.9 224Z" fill="#22576F"/>
<path d="M21.8 164.6H21.7C21.7 162.2 23.7 160.2 26.1 160.2C28.5 160.2 30.5 162.2 30.5 164.6C30.5 167 28.5 169 26.1 169C23.7 169 21.7 167 21.7 164.6H21.8H21.9C21.9 165.7 22.4 166.8 23.1 167.5C23.9 168.3 24.9 168.7 26 168.7C27.1 168.7 28.2 168.2 28.9 167.5C29.7 166.7 30.1 165.7 30.1 164.6C30.1 163.5 29.6 162.4 28.9 161.7C28.1 160.9 27.1 160.5 26 160.5C24.9 160.5 23.8 161 23.1 161.7C22.3 162.5 21.9 163.5 21.9 164.6H21.8Z" fill="#22576F"/>
<path d="M25 164.6H24.9C24.9 163.9 25.4 163.4 26.1 163.4C26.8 163.4 27.3 163.9 27.3 164.6C27.3 165.3 26.8 165.8 26.1 165.8C25.4 165.8 24.9 165.3 24.9 164.6H25H25.1C25.1 165.1 25.5 165.6 26.1 165.6C26.6 165.6 27.1 165.2 27.1 164.6C27.1 164.1 26.7 163.6 26.1 163.6C25.6 163.6 25.1 164 25.1 164.6H25Z" fill="#22576F"/>
<path d="M30.3 164.7H27.2L27 164.6L27.2 164.5H30.3L30.5 164.6L30.3 164.7Z" fill="#22576F"/>
<path d="M25 164.7H21.8L21.7 164.6L21.8 164.5H25L25.1 164.6L25 164.7Z" fill="#22576F"/>
<path d="M25.9 168.9V165.7L26.1 165.6L26.2 165.7V168.9L26.1 169L25.9 168.9Z" fill="#22576F"/>
<path d="M25.9 163.5V160.3L26.1 160.2L26.2 160.3V163.5L26.1 163.6L25.9 163.5Z" fill="#22576F"/>
<path d="M242.1 118.2V172.9L242 173.1L241.9 172.9V118.2L242 118.1L242.1 118.2Z" fill="#22576F"/>
<path d="M243.4 172.9V173.1H184.4L184.3 173V172.9V118.2V118.1H184.4H243.4H243.5V118.2V172.9V173L243.4 173.1V172.9H243.3V118.4H184.5V172.8H243.4V172.9H243.3H243.4Z" fill="#22576F"/>
<path d="M226.6 147.4V147.3C228.2 147.8 229.9 148 231.6 148C233.3 148 235 147.8 236.6 147.3H236.7V147.4C236.3 151.2 236.2 155.1 236.2 158.9C236.2 162.7 236.4 166.6 236.7 170.4V170.5H236.6C235 170 233.3 169.8 231.6 169.8C229.9 169.8 228.2 170 226.6 170.5H226.5V170.4C226.9 166.6 227 162.7 227 158.9C227 155.1 226.8 151.2 226.5 147.4H226.6H226.7C227.1 151.2 227.2 155.1 227.2 158.9C227.2 162.7 227 166.6 226.7 170.4H226.6V170.3C228.3 169.8 230 169.6 231.7 169.6C233.4 169.6 235.1 169.8 236.8 170.3V170.4H236.7C236.3 166.6 236.2 162.7 236.2 158.9C236.2 155.1 236.4 151.2 236.7 147.4H236.8V147.5C235.1 148 233.4 148.2 231.7 148.2C230 148.2 228.3 148 226.6 147.5V147.4Z" fill="#22576F"/>
<path d="M229.8 146.2C231.7 146.7 233.6 146.9 235.5 146.9C237.4 146.9 239.3 146.7 241.2 146.2H241.3V146.3C240.8 150.5 240.6 154.7 240.6 158.9C240.6 163.1 240.8 167.3 241.3 171.5V171.6H241.2C239.3 171.1 237.4 170.9 235.5 170.9C233.6 170.9 231.7 171.1 229.8 171.6H229.7V171.5C229.8 170.9 229.9 170.4 229.9 169.8L230 169.7L230.1 169.8C230 170.4 230 171 229.9 171.5H229.8V171.4C231.7 170.9 233.6 170.7 235.6 170.7C237.5 170.7 239.5 170.9 241.4 171.4V171.5H241.3C240.8 167.3 240.6 163.1 240.6 158.9C240.6 154.7 240.8 150.5 241.3 146.3H241.4V146.4C239.5 146.9 237.6 147.1 235.6 147.1C233.7 147.1 231.7 146.9 229.8 146.4L229.7 146.2H229.8Z" fill="#22576F"/>
<path d="M226.6 143.8V143.7C228.3 143.2 230 143 231.7 143C233.4 143 235.1 143.2 236.8 143.7V143.8H236.7C236.3 140 236.2 136.1 236.2 132.3C236.2 128.5 236.4 124.6 236.7 120.8H236.8V120.9C235.1 121.4 233.4 121.6 231.7 121.6C230 121.6 228.3 121.4 226.6 120.9V120.8H226.7C227.1 124.6 227.2 128.5 227.2 132.3C227.2 136.1 227 140 226.7 143.8H226.6H226.5C226.9 140 227 136.1 227 132.3C227 128.5 226.8 124.6 226.5 120.8V120.7H226.6C228.2 121.2 229.9 121.4 231.6 121.4C233.3 121.4 235 121.2 236.6 120.7H236.7V120.8C236.3 124.6 236.2 128.5 236.2 132.3C236.2 136.1 236.4 140 236.7 143.8V143.9H236.6C235 143.4 233.3 143.2 231.6 143.2C229.9 143.2 228.2 143.4 226.6 143.9V143.8Z" fill="#22576F"/>
<path d="M229.7 144.7C231.6 144.2 233.5 144 235.5 144C237.4 144 239.4 144.2 241.3 144.7V144.8H241.2C240.7 140.6 240.5 136.4 240.5 132.2C240.5 128 240.7 123.8 241.2 119.6H241.3V119.7C239.4 120.2 237.5 120.4 235.5 120.4C233.6 120.4 231.6 120.2 229.7 119.7V119.6H229.8C229.9 120.2 230 120.7 230 121.3L229.9 121.4L229.8 121.3C229.7 120.7 229.7 120.2 229.6 119.6V119.5H229.7C231.6 120 233.5 120.2 235.4 120.2C237.3 120.2 239.2 120 241.1 119.5H241.2V119.6C240.7 123.8 240.5 128 240.5 132.2C240.5 136.4 240.7 140.6 241.2 144.8V144.9H241.1C239.2 144.4 237.3 144.2 235.4 144.2C233.5 144.2 231.6 144.4 229.7 144.9L229.5 144.8L229.7 144.7Z" fill="#22576F"/>
<path d="M234.7 172.9V170.8L234.8 170.7L234.9 170.8V172.9L234.8 173.1L234.7 172.9Z" fill="#22576F"/>
<path d="M225.3 172.9V118.2L225.4 118.1L225.6 118.2V172.9L225.4 173.1L225.3 172.9Z" fill="#22576F"/>
<path d="M234.7 147V144.1L234.8 144L234.9 144.1V147L234.8 147.1L234.7 147Z" fill="#22576F"/>
<path d="M234.7 120.4V118.2L234.8 118.1L234.9 118.2V120.4L234.8 120.5L234.7 120.4Z" fill="#22576F"/>
<path d="M229.8 148C229.7 147.4 229.7 146.9 229.6 146.3L229.7 146.2L229.8 146.3C229.9 146.9 230 147.4 230 148L229.9 148.1L229.8 148Z" fill="#22576F"/>
<path d="M229.6 144.8C229.7 144.2 229.8 143.7 229.8 143.1L229.9 143L230 143.1C229.9 143.7 229.9 144.3 229.8 144.8L229.7 144.9L229.6 144.8Z" fill="#22576F"/>
<path d="M230.5 174.4V174.2H242L242.1 174.3V174.4V188.8L242 188.9H230.5L230.4 188.8H230.3V174.4L230.4 174.3L230.5 174.2V174.4H230.6V188.6H241.9V174.5H230.5V174.4H230.6H230.5Z" fill="#22576F"/>
<path d="M230.5 116.8V116.7H241.9V102.5H230.6V116.8H230.5V116.7V116.8H230.3V102.4L230.4 102.3H230.5H242H242.1V102.4V116.8V116.9H242H230.5H230.4L230.3 116.8H230.5Z" fill="#22576F"/>
<path d="M231.9 181.6H231.8C231.8 179.2 233.8 177.2 236.2 177.2C238.6 177.2 240.6 179.2 240.6 181.6C240.6 184 238.6 186 236.2 186C233.8 186 231.8 184 231.8 181.6H231.9H232C232 182.7 232.5 183.8 233.2 184.5C234 185.3 235 185.7 236.1 185.7C237.2 185.7 238.3 185.2 239 184.5C239.8 183.7 240.2 182.7 240.2 181.6C240.2 180.5 239.7 179.4 239 178.7C238.2 177.9 237.2 177.5 236.1 177.5C235 177.5 233.9 178 233.2 178.7C232.4 179.5 232 180.5 232 181.6H231.9Z" fill="#22576F"/>
<path d="M235.1 181.6H235C235 180.9 235.5 180.4 236.2 180.4C236.9 180.4 237.4 180.9 237.4 181.6C237.4 182.3 236.9 182.8 236.2 182.8C235.5 182.8 235 182.3 235 181.6H235.1H235.2C235.2 182.1 235.6 182.6 236.2 182.6C236.7 182.6 237.2 182.2 237.2 181.6C237.2 181.1 236.8 180.6 236.2 180.6C235.7 180.6 235.2 181 235.2 181.6H235.1Z" fill="#22576F"/>
<path d="M236.1 185.8V182.7L236.2 182.5L236.3 182.7V185.8L236.2 186L236.1 185.8Z" fill="#22576F"/>
<path d="M236.1 180.5V177.3L236.2 177.2L236.3 177.3V180.5L236.2 180.6L236.1 180.5Z" fill="#22576F"/>
<path d="M231.9 181.4H235.1L235.2 181.6L235.1 181.7H231.9L231.8 181.6L231.9 181.4Z" fill="#22576F"/>
<path d="M237.3 181.4H240.5L240.6 181.6L240.5 181.7H237.3L237.2 181.6L237.3 181.4Z" fill="#22576F"/>
<path d="M231.9 109.6H231.8C231.8 107.2 233.8 105.2 236.2 105.2C238.6 105.2 240.6 107.2 240.6 109.6C240.6 112 238.6 114 236.2 114C233.8 114 231.8 112 231.8 109.6H231.9H232C232 110.7 232.5 111.8 233.2 112.5C234 113.3 235 113.7 236.1 113.7C237.2 113.7 238.3 113.2 239 112.5C239.8 111.7 240.2 110.7 240.2 109.6C240.2 108.5 239.7 107.4 239 106.7C238.2 105.9 237.2 105.5 236.1 105.5C235 105.5 233.9 106 233.2 106.7C232.4 107.5 232 108.5 232 109.6H231.9Z" fill="#22576F"/>
<path d="M235.1 109.6H235C235 108.9 235.5 108.4 236.2 108.4C236.9 108.4 237.4 108.9 237.4 109.6C237.4 110.3 236.9 110.8 236.2 110.8C235.5 110.8 235 110.3 235 109.6H235.1H235.2C235.2 110.1 235.6 110.6 236.2 110.6C236.7 110.6 237.2 110.2 237.2 109.6C237.2 109.1 236.8 108.6 236.2 108.6C235.7 108.6 235.2 109 235.2 109.6H235.1Z" fill="#22576F"/>
<path d="M236.3 105.3V108.5L236.2 108.6L236.1 108.5V105.3L236.2 105.2L236.3 105.3Z" fill="#22576F"/>
<path d="M236.3 110.7V113.9L236.2 114L236.1 113.9V110.7L236.2 110.6L236.3 110.7Z" fill="#22576F"/>
<path d="M231.9 109.5H235.1L235.2 109.6L235.1 109.7H231.9L231.8 109.6L231.9 109.5Z" fill="#22576F"/>
<path d="M237.3 109.5H240.5L240.6 109.6L240.5 109.7H237.3L237.2 109.6L237.3 109.5Z" fill="#22576F"/>
<path d="M201.4 50.3L201.3 50.4L191.2 33L191.3 32.8L191.7 32.5H191.8L191.9 32.6L202 50V50.1L201.9 50.2L201.5 50.4H201.3L201.4 50.3L201.3 50.2L201.7 50L191.8 32.8L191.5 33L201.5 50.3H201.4L201.3 50.2L201.4 50.3Z" fill="#22576F"/>
<path d="M193.1 31.2V34.7L193 34.8L192.9 34.7V31.2L193 31.1L193.1 31.2Z" fill="#22576F"/>
<path d="M193.1 35.8V64.1L193 64.2L192.9 64.1V35.8L193 35.6L193.1 35.8Z" fill="#22576F"/>
<path d="M191.9 31.2V32.7L191.8 32.8H191.3L191.2 32.7H191.1V31.2L191.3 31.1L191.4 31.2V32.5H191.7V31.2L191.8 31.1L191.9 31.2Z" fill="#22576F"/>
<path d="M191.8 52.8V52.9H191.4V63.9H191.7V52.8H191.8V52.9V52.8H191.9V64.1V64.2H191.8H191.3H191.2L191.1 64.1V52.8L191.2 52.7L191.3 52.6H191.8L191.9 52.7V52.8H191.8Z" fill="#22576F"/>
<path d="M148.4 47.9H150.3L150.4 48L150.3 48.1H148.4L148.2 48L148.4 47.9Z" fill="#22576F"/>
<path d="M150.1 48V47.3L150.3 47.2L150.4 47.3V48L150.3 48.1L150.1 48Z" fill="#22576F"/>
<path d="M150.3 47.4H148.4L148.2 47.3L148.4 47.2H150.3L150.4 47.3L150.3 47.4Z" fill="#22576F"/>
<path d="M148.3 48H148.4L148.5 48.1L148.4 48.2H148.3L148.1 48.1L148.3 48Z" fill="#22576F"/>
<path d="M148.2 48.1V47.2L148.4 47.1L148.5 47.2V48.1L148.4 48.2L148.2 48.1Z" fill="#22576F"/>
<path d="M148.4 47.3H148.3L148.1 47.2L148.3 47.1H148.4L148.5 47.2L148.4 47.3Z" fill="#22576F"/>
<path d="M150.2 49.3V46.7L150.4 46.6L150.5 46.7V49.3L150.4 49.4L150.2 49.3Z" fill="#22576F"/>
<path d="M150.2 45.8H149.7L149.6 45.7L149.7 45.6H150.2L150.3 45.7L150.2 45.8Z" fill="#22576F"/>
<path d="M149.8 45.7V47.3L149.7 47.4L149.6 47.3V45.7L149.7 45.6L149.8 45.7Z" fill="#22576F"/>
<path d="M149.8 48V49.3L149.7 49.4L149.6 49.3V48L149.7 47.9L149.8 48Z" fill="#22576F"/>
<path d="M149.7 49.2H150.4L150.5 49.3L150.4 49.4H149.7L149.6 49.3L149.7 49.2Z" fill="#22576F"/>
<path d="M150.4 48.7H149.7L149.6 48.6L149.7 48.5H150.4L150.5 48.6L150.4 48.7Z" fill="#22576F"/>
<path d="M151.3 47.2C151.8 47.2 152.2 46.8 152.2 46.2V46.1C152.2 45.5 151.8 45.1 151.4 45H151.2L151.1 44.9L151.2 44.8H151.4C152 44.9 152.4 45.4 152.4 46.1V46.2C152.4 46.9 151.9 47.4 151.3 47.4H151.2L151.1 47.3L151.3 47.2Z" fill="#22576F"/>
<path d="M150.3 46.1H150.4C150.4 46.4 150.5 46.7 150.7 46.9C150.9 47.1 151.1 47.2 151.3 47.2C151.5 47.2 151.7 47.1 151.9 46.9C152.1 46.7 152.2 46.4 152.2 46.1C152.2 45.8 152.1 45.5 151.9 45.3C151.7 45.1 151.5 45 151.3 45C151.1 45 150.9 45.1 150.7 45.3C150.5 45.5 150.4 45.8 150.4 46.1H150.3H150.2C150.2 45.4 150.7 44.8 151.3 44.8C151.9 44.8 152.4 45.4 152.4 46.1C152.4 46.8 151.9 47.4 151.3 47.4C150.7 47.4 150.2 46.8 150.2 46.1H150.3Z" fill="#22576F"/>
<path d="M150.4 46.9L150.3 46.8L150.1 46.6H150H149.9L149.8 46.4L149.9 46.3H150L150.2 46.4H150.3L150.5 46.6L150.6 46.7L150.5 46.9H150.4Z" fill="#22576F"/>
<path d="M150.6 45.5L150.5 45.6L150.3 45.8H150.2L150 45.9H149.9L149.8 45.8L149.9 45.7H150L150.1 45.6L150.3 45.4L150.4 45.3H150.6V45.5Z" fill="#22576F"/>
<path d="M150 45.9L149.9 46.1V46.2L150.1 46.4V46.6H149.9L149.7 46.4V46.2C149.7 46 149.8 45.8 150 45.8L150.2 45.9H150Z" fill="#22576F"/>
<path d="M148.1 48.1V47.2L148.3 47.1L148.4 47.2V48.1L148.3 48.2L148.1 48.1Z" fill="#22576F"/>
<path d="M156.3 46.7H156.2C156.2 45.7 157 44.9 158 44.9C159 44.9 159.8 45.7 159.8 46.7C159.8 47.7 159 48.5 158 48.5C157 48.5 156.2 47.7 156.2 46.7H156.3H156.4C156.4 47.6 157.1 48.3 158 48.3C158.9 48.3 159.6 47.6 159.6 46.7C159.6 45.8 158.9 45.1 158 45.1C157.1 45.1 156.4 45.8 156.4 46.7H156.3Z" fill="#22576F"/>
<path d="M190 64.1V31.2L190.1 31.1L190.2 31.2V64.1L190.1 64.2L190 64.1Z" fill="#22576F"/>
<path d="M190.1 32.4H179.2L179.1 32.3L179.2 32.2H190.1L190.2 32.3L190.1 32.4Z" fill="#22576F"/>
<path d="M177.6 32.4H152.4V45.7L152.3 45.8L152.2 45.7V32.3V32.2H152.3H177.6L177.8 32.3L177.6 32.4Z" fill="#22576F"/>
<path d="M191.8 52.6C195.3 52.6 198.8 51.7 201.8 49.9H202V50.1C198.9 51.9 195.4 52.8 191.9 52.8L191.8 52.7V52.6Z" fill="#22576F"/>
<path d="M177.6 32H179.2L179.3 32.2L179.2 32.3H177.6L177.5 32.2L177.6 32Z" fill="#22576F"/>
<path d="M181 31.9H175.8L175.7 31.8L175.8 31.7H181L181.1 31.8L181 31.9Z" fill="#22576F"/>
<path d="M175.9 31.7C176.5 31.9 177.1 32 177.7 32L177.8 32.1L177.7 32.2C177.1 32.2 176.5 32 175.9 31.9L175.8 31.7H175.9Z" fill="#22576F"/>
<path d="M179.2 32C179.8 32 180.4 31.8 181 31.7L181.2 31.8L181 32C180.4 32.2 179.8 32.3 179.2 32.3L179.1 32.2L179.2 32Z" fill="#22576F"/>
<path d="M181.2 31.6L181.1 31.8L181 31.9L180.9 31.8V31.6L181 31.5L181.2 31.6Z" fill="#22576F"/>
<path d="M175.7 31.8V31.6L175.8 31.5L175.9 31.6V31.8L175.8 31.9L175.7 31.8Z" fill="#22576F"/>
<path d="M180.9 31.8V31.7H181.1V31.9L180.9 32V31.8Z" fill="#22576F"/>
<path d="M175.9 31.7V31.8V32L175.7 31.9V31.7H175.9Z" fill="#22576F"/>
<path d="M179.3 32.2V32.8L179.2 33L179.1 32.8V32.2L179.2 32L179.3 32.2Z" fill="#22576F"/>
<path d="M177.5 32.8V32.2L177.6 32L177.8 32.2V32.8L177.6 33L177.5 32.8Z" fill="#22576F"/>
<path d="M177.8 33.1H178.4L178.5 33.2L178.4 33.4H177.8L177.7 33.2L177.8 33.1Z" fill="#22576F"/>
<path d="M178.4 33.1L178.5 33.2L178.4 33.4L178.3 33.2L178.4 33.1Z" fill="#22576F"/>
<path d="M179.2 33.4H179L178.9 33.2L179 33.1H179.2L179.3 33.2L179.2 33.4Z" fill="#22576F"/>
<path d="M177.8 33.4H177.7L177.5 33.2L177.7 33.1H177.8L177.9 33.2L177.8 33.4Z" fill="#22576F"/>
<path d="M178.4 33.1H179L179.1 33.2L179 33.4H178.4L178.3 33.2L178.4 33.1Z" fill="#22576F"/>
<path d="M179.3 33.3V34.3L179.1 34.5L179 34.3V33.2L179.2 33.1L179.3 33.3Z" fill="#22576F"/>
<path d="M177.6 34.3L177.5 33.3L177.7 33.1L177.8 33.2V34.3L177.7 34.5L177.6 34.3Z" fill="#22576F"/>
<path d="M179.1 33.3V33.1L179.3 33.2L179.2 33.3H179.1Z" fill="#22576F"/>
<path d="M177.8 33.3H177.7H177.6V33.2V33.1L177.8 33.2V33.3Z" fill="#22576F"/>
<path d="M177.8 34.3V34.5H177.6V34.4V34.3H177.8Z" fill="#22576F"/>
<path d="M179 34.3H179.1H179.2V34.4V34.5H179V34.3Z" fill="#22576F"/>
<path d="M177.7 34.2C177.9 34.2 178.2 34.2 178.4 34.2C178.6 34.2 178.9 34.2 179.1 34.2L179.2 34.3L179.1 34.4C178.9 34.4 178.6 34.4 178.4 34.4C178.2 34.4 177.9 34.4 177.7 34.4L177.6 34.3L177.7 34.2Z" fill="#22576F"/>
<path d="M179 33.2C179.1 33.1 179.1 33 179.1 32.9L179.2 32.8L179.3 32.9C179.3 33.1 179.3 33.2 179.2 33.4H179V33.2Z" fill="#22576F"/>
<path d="M177.8 32.8C177.8 32.9 177.8 33 177.9 33.1V33.3H177.7C177.6 33.2 177.6 33 177.6 32.8L177.7 32.7L177.8 32.8Z" fill="#22576F"/>
<path d="M175.7 31.6V31.2L175.8 31.1L175.9 31.2V31.6L175.8 31.7L175.7 31.6Z" fill="#22576F"/>
<path d="M180.9 31.6V31.2L181 31.1L181.2 31.2V31.6L181 31.7L180.9 31.6Z" fill="#22576F"/>
<path d="M190.1 63.1H152.3H152.2V63V46.5L152.3 46.4L152.4 46.5V62.9H190.1L190.2 63L190.1 63.1Z" fill="#22576F"/>
<path d="M233.7 63H233.6C233.6 62.3 234.1 61.8 234.8 61.8C235.5 61.8 236 62.3 236 63C236 63.7 235.5 64.2 234.8 64.2C234.1 64.2 233.6 63.7 233.6 63H233.7H233.8C233.8 63.5 234.2 64 234.8 64C235.3 64 235.8 63.6 235.8 63C235.8 62.5 235.4 62 234.8 62C234.3 62 233.8 62.4 233.8 63H233.7Z" fill="#22576F"/>
<path d="M234.1 63H234C234 62.6 234.3 62.2 234.8 62.2C235.2 62.2 235.6 62.5 235.6 63C235.6 63.4 235.3 63.8 234.8 63.8C234.4 63.8 234 63.5 234 63H234.1H234.2C234.2 63.3 234.4 63.5 234.7 63.5C235 63.5 235.2 63.3 235.2 63C235.2 62.7 235 62.5 234.7 62.5C234.4 62.5 234.2 62.7 234.2 63H234.1Z" fill="#22576F"/>
<path d="M237.7 62.5H241.1L241.2 62.6L241.1 62.7H237.7L237.6 62.6L237.7 62.5Z" fill="#22576F"/>
<path d="M237.7 62.7L237.6 62.8L237.5 62.9L237.4 62.8C237.4 62.6 237.6 62.4 237.8 62.4L237.9 62.5L237.7 62.7Z" fill="#22576F"/>
<path d="M237.6 63.3L237.7 63.4L237.8 63.5L237.7 63.6C237.5 63.6 237.3 63.4 237.3 63.2L237.4 63.1L237.6 63.3Z" fill="#22576F"/>
<path d="M237.6 62.8V63.3L237.4 63.4L237.3 63.3V62.8L237.4 62.7L237.6 62.8Z" fill="#22576F"/>
<path d="M241.1 63.5L240.9 63.4L240.8 63.3L240.9 63.2C241 63.2 241.2 63.3 241.3 63.4V63.6L241.1 63.5Z" fill="#22576F"/>
<path d="M240.9 62.7L241.1 62.6H241.3V62.8C241.2 62.9 241.1 63 240.9 63L240.8 62.9L240.9 62.7Z" fill="#22576F"/>
<path d="M239.3 62.7H240.9L241 62.8L240.9 62.9H239.3L239.2 62.8L239.3 62.7Z" fill="#22576F"/>
<path d="M240.9 63.4H239.3L239.2 63.3L239.3 63.2H240.9L241 63.3L240.9 63.4Z" fill="#22576F"/>
<path d="M239.2 63.1L239.4 63.2V63.4H239.2L239.1 63.2V63.1H239.2Z" fill="#22576F"/>
<path d="M239.3 62.9V63.2L239.1 63.3L239 63.2V62.9L239.1 62.8L239.3 62.9Z" fill="#22576F"/>
<path d="M241.3 63.7H241.1L241 63.6L241.1 63.5C241.2 63.5 241.3 63.5 241.4 63.6L241.5 63.8L241.3 63.7Z" fill="#22576F"/>
<path d="M241.1 62.5H241.3L241.5 62.6L241.4 62.8C241.3 62.8 241.2 62.9 241.1 62.9L241 62.8L241.1 62.5Z" fill="#22576F"/>
<path d="M241.1 63.6H237.7L237.6 63.5L237.7 63.4H241.1L241.2 63.5L241.1 63.6Z" fill="#22576F"/>
<path d="M241.2 63.4C241.3 63.5 241.5 63.6 241.6 63.6C241.7 63.6 241.9 63.6 242 63.5C242.1 63.4 242.2 63.2 242.2 63.1C242.2 63 242.2 62.8 242.1 62.7C242 62.6 241.8 62.5 241.7 62.5C241.6 62.5 241.4 62.5 241.3 62.6H241.1V62.4C241.3 62.3 241.5 62.2 241.6 62.2C241.8 62.2 242 62.3 242.2 62.5C242.3 62.7 242.4 62.9 242.4 63C242.4 63.2 242.3 63.4 242.1 63.6C241.9 63.7 241.7 63.8 241.6 63.8C241.4 63.8 241.2 63.7 241 63.5V63.3L241.2 63.4Z" fill="#22576F"/>
<path d="M241.3 63.3C241.4 63.4 241.5 63.4 241.6 63.4C241.7 63.4 241.8 63.4 241.9 63.3C242 63.2 242 63.1 242 63C242 62.9 242 62.8 241.9 62.7C241.8 62.6 241.7 62.6 241.6 62.6C241.5 62.6 241.4 62.6 241.3 62.7H241.1V62.5C241.2 62.4 241.4 62.3 241.6 62.3C241.8 62.3 242 62.4 242.1 62.5C242.2 62.6 242.3 62.8 242.3 63C242.3 63.2 242.2 63.4 242.1 63.5C242 63.6 241.8 63.7 241.6 63.7C241.4 63.7 241.2 63.6 241.1 63.5V63.3H241.3Z" fill="#22576F"/>
<path d="M239.4 62.9L239.2 63H239.1V62.9L239.2 62.7H239.4V62.9Z" fill="#22576F"/>
<path d="M240 62.6C239.8 59.9 237.5 57.8 234.8 57.8C234.6 57.8 234.5 57.8 234.3 57.8C231.6 58 229.5 60.3 229.5 63C229.5 63.2 229.5 63.3 229.5 63.5C229.7 66.2 232 68.3 234.7 68.3C234.9 68.3 235 68.3 235.2 68.3C237.8 68.1 239.8 66.1 240 63.5L240.1 63.4L240.2 63.5C240 66.2 237.8 68.3 235.2 68.5C235 68.5 234.9 68.5 234.7 68.5C231.9 68.5 229.5 66.3 229.2 63.4C229.2 63.2 229.2 63.1 229.2 62.9C229.2 60.1 231.4 57.7 234.2 57.4C234.4 57.4 234.5 57.4 234.7 57.4C237.5 57.4 240 59.6 240.2 62.5L240.1 62.6H240Z" fill="#22576F"/>
<path d="M233.7 82.5H233.6C233.6 81.8 234.1 81.3 234.8 81.3C235.5 81.3 236 81.8 236 82.5C236 83.2 235.5 83.7 234.8 83.7C234.1 83.7 233.6 83.2 233.6 82.5H233.7H233.8C233.8 83 234.2 83.5 234.8 83.5C235.3 83.5 235.8 83.1 235.8 82.5C235.8 82 235.4 81.5 234.8 81.5C234.3 81.5 233.8 81.9 233.8 82.5H233.7Z" fill="#22576F"/>
<path d="M234.1 82.5H234C234 82.1 234.3 81.7 234.8 81.7C235.2 81.7 235.6 82 235.6 82.5C235.6 82.9 235.3 83.3 234.8 83.3C234.4 83.3 234 83 234 82.5H234.1H234.2C234.2 82.8 234.4 83 234.7 83C235 83 235.2 82.8 235.2 82.5C235.2 82.2 235 82 234.7 82C234.4 82 234.2 82.2 234.2 82.5H234.1Z" fill="#22576F"/>
<path d="M237.7 81.9H241.1L241.2 82L241.1 82.2H237.7L237.6 82L237.7 81.9Z" fill="#22576F"/>
<path d="M237.7 82.2L237.6 82.3L237.5 82.4L237.4 82.3C237.4 82.1 237.6 81.9 237.8 81.9L237.9 82L237.7 82.2Z" fill="#22576F"/>
<path d="M237.6 82.7L237.7 82.8L237.8 82.9L237.7 83C237.5 83 237.3 82.8 237.3 82.6L237.4 82.5L237.6 82.7Z" fill="#22576F"/>
<path d="M237.6 82.3V82.7L237.4 82.8L237.3 82.7V82.3L237.4 82.2L237.6 82.3Z" fill="#22576F"/>
<path d="M241.1 83L240.9 82.9L240.8 82.8L240.9 82.7C241 82.7 241.2 82.8 241.3 82.9V83.1L241.1 83Z" fill="#22576F"/>
<path d="M240.9 82.1L241.1 82H241.3V82.2C241.2 82.3 241.1 82.4 240.9 82.4L240.8 82.3L240.9 82.1Z" fill="#22576F"/>
<path d="M239.3 82.1H240.9L241 82.3L240.9 82.4H239.3L239.2 82.3L239.3 82.1Z" fill="#22576F"/>
<path d="M240.9 82.9H239.3L239.2 82.8L239.3 82.6H240.9L241 82.8L240.9 82.9Z" fill="#22576F"/>
<path d="M239.2 82.5L239.4 82.7V82.8H239.2L239.1 82.7V82.5H239.2Z" fill="#22576F"/>
<path d="M239.3 82.4V82.6L239.1 82.7L239 82.6V82.4L239.1 82.3L239.3 82.4Z" fill="#22576F"/>
<path d="M241.3 83.1H241.1L241 83L241.1 82.9C241.2 82.9 241.3 82.9 241.4 83L241.5 83.2L241.3 83.1Z" fill="#22576F"/>
<path d="M241.1 81.9H241.3L241.5 82L241.4 82.2C241.3 82.2 241.2 82.3 241.1 82.3L241 82L241.1 81.9Z" fill="#22576F"/>
<path d="M241.1 83.1H237.7L237.6 83L237.7 82.8H241.1L241.2 83L241.1 83.1Z" fill="#22576F"/>
<path d="M241.2 82.9C241.3 83 241.5 83.1 241.6 83.1C241.7 83.1 241.9 83.1 242 83C242.1 82.9 242.2 82.7 242.2 82.6C242.2 82.5 242.2 82.3 242.1 82.2C242 82.1 241.8 82 241.7 82C241.6 82 241.4 82 241.3 82.1H241.1V82C241.3 81.9 241.5 81.8 241.6 81.8C241.8 81.8 242 81.9 242.2 82.1C242.3 82.3 242.4 82.5 242.4 82.6C242.4 82.8 242.3 83 242.1 83.2C241.9 83.3 241.7 83.4 241.6 83.4C241.4 83.4 241.2 83.3 241 83.1V82.9H241.2Z" fill="#22576F"/>
<path d="M241.3 82.8C241.4 82.9 241.5 82.9 241.6 82.9C241.7 82.9 241.8 82.9 241.9 82.8C242 82.7 242 82.6 242 82.5C242 82.4 242 82.3 241.9 82.2C241.8 82.1 241.7 82.1 241.6 82.1C241.5 82.1 241.4 82.1 241.3 82.2H241.1V82C241.2 81.9 241.4 81.8 241.6 81.8C241.8 81.8 242 81.9 242.1 82C242.2 82.1 242.3 82.3 242.3 82.5C242.3 82.7 242.2 82.9 242.1 83C242 83.1 241.8 83.2 241.6 83.2C241.4 83.2 241.2 83.1 241.1 83V82.8H241.3Z" fill="#22576F"/>
<path d="M239.4 82.4L239.2 82.5H239.1V82.3L239.2 82.2H239.4V82.4Z" fill="#22576F"/>
<path d="M240 82.1C239.8 79.4 237.5 77.3 234.8 77.3C234.6 77.3 234.5 77.3 234.3 77.3C231.6 77.5 229.5 79.8 229.5 82.5C229.5 82.7 229.5 82.8 229.5 83C229.7 85.7 232 87.8 234.7 87.8C234.9 87.8 235 87.8 235.2 87.8C237.8 87.6 239.8 85.6 240 83L240.1 82.9L240.2 83C240 85.7 237.8 87.8 235.2 88C235 88 234.9 88 234.7 88C231.9 88 229.5 85.8 229.2 82.9C229.2 82.7 229.2 82.6 229.2 82.4C229.2 79.6 231.4 77.2 234.2 76.9C234.4 76.9 234.5 76.9 234.7 76.9C237.5 76.9 240 79.1 240.2 82L240.1 82.1H240Z" fill="#22576F"/>
<path d="M229.9 47.3C230.9 47.3 231.8 47.2 232.7 46.9C233.5 46.7 234.2 46.3 234.9 45.8C235.1 45.6 235.4 45.4 235.6 45.2H235.8V45.4C235.6 45.6 235.4 45.8 235.1 46C234.4 46.5 233.6 46.9 232.8 47.1C231.9 47.4 230.9 47.5 229.9 47.5L229.8 47.4L229.9 47.3Z" fill="#22576F"/>
<path d="M229.9 47.6C228.9 47.6 228 47.5 227 47.2C226.2 47 225.4 46.6 224.7 46.1C224 45.6 223.5 45 223.1 44.3C222.8 43.7 222.6 43 222.6 42.4C222.6 41.7 222.8 41 223.1 40.5C223.5 39.8 224.1 39.2 224.7 38.7C225.4 38.2 226.2 37.8 227 37.6C227.9 37.3 228.9 37.2 229.9 37.2C230.9 37.2 231.8 37.3 232.8 37.6C233.6 37.8 234.4 38.2 235.1 38.7C235.3 38.9 235.6 39.1 235.8 39.3V39.4V45.6L235.7 45.7L235.6 45.6V39.4H235.7L235.6 39.5C235.4 39.3 235.2 39.1 234.9 38.9C234.2 38.4 233.5 38.1 232.7 37.8C231.8 37.5 230.8 37.4 229.9 37.4C228.9 37.4 228 37.5 227.1 37.8C226.3 38 225.6 38.4 224.9 38.9C224.3 39.4 223.7 40 223.3 40.6C223 41.2 222.8 41.8 222.8 42.4C222.8 43 223 43.7 223.3 44.2C223.7 44.9 224.2 45.5 224.9 45.9C225.6 46.4 226.3 46.7 227.1 47C228 47.3 229 47.4 229.9 47.4L230 47.5L229.9 47.6Z" fill="#22576F"/>
<path d="M239 46.5C236.7 46.6 234.4 46.9 232.2 47.4L232.1 47.3L232.2 47.2C234.5 46.8 236.8 46.5 239.1 46.3L239.2 46.4L239 46.5Z" fill="#22576F"/>
<path d="M238.2 40.3H238.1C238.2 39.8 238.4 39.3 238.6 38.8C238.9 38.2 239.3 37.7 239.8 37.4C240 37.3 240.2 37.2 240.4 37.2H240.6L242.7 37.6C242.9 37.6 243 37.8 243 38V46.7C243 46.9 242.9 47.1 242.7 47.1L240.6 47.5H240.4C240.2 47.5 240 47.4 239.8 47.3C239.3 46.9 238.9 46.4 238.6 45.9C238.4 45.4 238.2 44.9 238.1 44.4C238 43.7 237.9 43.1 237.9 42.4C237.9 41.7 238 41 238.1 40.4L238.2 40.3H238.3C238.2 41 238.1 41.6 238.1 42.3C238.1 43 238.2 43.6 238.3 44.3C238.4 44.8 238.6 45.3 238.8 45.8C239.1 46.3 239.4 46.8 239.9 47.1C240 47.2 240.2 47.2 240.3 47.2H240.4L242.5 46.8L242.6 46.6V37.9L242.5 37.7L240.4 37.3H240.3C240.1 37.3 240 37.3 239.9 37.4C239.4 37.7 239 38.2 238.8 38.7C238.6 39.2 238.4 39.7 238.3 40.2L238.2 40.3Z" fill="#22576F"/>
<path d="M239 38.4C236.7 38.3 234.4 38 232.1 37.5L232 37.4L232.1 37.3C234.4 37.7 236.6 38 238.9 38.2L239 38.3V38.4Z" fill="#22576F"/>
<path d="M239.7 42.3H239.6C239.6 41.9 239.9 41.6 240.3 41.6C240.7 41.6 241 41.9 241 42.3C241 42.7 240.7 43 240.3 43C239.9 43 239.6 42.7 239.6 42.3H239.7H239.8C239.8 42.5 240 42.7 240.2 42.7C240.4 42.7 240.6 42.5 240.6 42.3C240.6 42.1 240.4 41.9 240.2 41.9C240 41.9 239.8 42.1 239.8 42.3H239.7Z" fill="#22576F"/>
<path d="M132.7 162.8C133.7 162.8 134.6 162.7 135.5 162.4C136.3 162.2 137 161.8 137.7 161.3C137.9 161.1 138.2 160.9 138.4 160.7H138.6V160.9C138.4 161.1 138.2 161.3 137.9 161.5C137.2 162 136.4 162.4 135.6 162.6C134.7 162.9 133.7 163 132.7 163L132.6 162.9L132.7 162.8Z" fill="#22576F"/>
<path d="M132.7 163C131.7 163 130.8 162.9 129.8 162.6C129 162.4 128.2 162 127.5 161.5C126.8 161 126.3 160.4 125.9 159.7C125.6 159.1 125.4 158.4 125.4 157.8C125.4 157.1 125.6 156.4 125.9 155.9C126.3 155.2 126.9 154.6 127.5 154.1C128.2 153.6 129 153.2 129.8 153C130.7 152.7 131.7 152.6 132.7 152.6C133.7 152.6 134.6 152.7 135.6 153C136.4 153.2 137.2 153.6 137.9 154.1C138.1 154.3 138.4 154.5 138.6 154.7V154.8V161L138.5 161.1L138.4 161V154.8H138.5L138.4 154.9C138.2 154.7 138 154.5 137.7 154.3C137 153.8 136.3 153.5 135.5 153.2C134.6 152.9 133.6 152.8 132.7 152.8C131.7 152.8 130.8 152.9 129.9 153.2C129.1 153.4 128.4 153.8 127.7 154.3C127.1 154.8 126.5 155.4 126.1 156C125.8 156.6 125.6 157.2 125.6 157.8C125.6 158.4 125.8 159.1 126.1 159.6C126.5 160.3 127 160.9 127.7 161.3C128.4 161.8 129.1 162.1 129.9 162.4C130.8 162.7 131.8 162.8 132.7 162.8L132.8 162.9L132.7 163Z" fill="#22576F"/>
<path d="M141.7 161.9C139.4 162 137.1 162.3 134.9 162.8L134.8 162.7L134.9 162.6C137.2 162.2 139.5 161.9 141.8 161.7L141.9 161.8L141.7 161.9Z" fill="#22576F"/>
<path d="M140.9 155.7H140.8C140.9 155.2 141.1 154.7 141.3 154.2C141.6 153.6 142 153.1 142.5 152.8C142.7 152.7 142.9 152.6 143.1 152.6H143.3L145.4 153C145.6 153 145.7 153.2 145.7 153.4V162.1C145.7 162.3 145.6 162.5 145.4 162.5L143.3 162.9H143.1C142.9 162.9 142.7 162.8 142.5 162.7C142 162.3 141.6 161.8 141.3 161.3C141.1 160.8 140.9 160.3 140.8 159.8C140.7 159.1 140.6 158.5 140.6 157.8C140.6 157.1 140.7 156.4 140.8 155.8L140.9 155.7H141C140.9 156.4 140.8 157 140.8 157.7C140.8 158.4 140.9 159 141 159.7C141.1 160.2 141.3 160.7 141.5 161.2C141.8 161.7 142.1 162.2 142.6 162.5C142.7 162.6 142.9 162.6 143 162.6H143.1L145.2 162.2L145.3 162V153.3L145.2 153.1L143.1 152.7H143C142.8 152.7 142.7 152.7 142.6 152.8C142.1 153.1 141.7 153.6 141.5 154.1C141.3 154.6 141.1 155.1 141 155.6L140.9 155.7Z" fill="#22576F"/>
<path d="M141.7 153.8C139.4 153.7 137.1 153.4 134.8 152.9L134.7 152.8L134.8 152.7C137.1 153.1 139.3 153.4 141.6 153.6L141.7 153.7V153.8Z" fill="#22576F"/>
<path d="M142.4 157.7H142.3C142.3 157.3 142.6 157 143 157C143.4 157 143.7 157.3 143.7 157.7C143.7 158.1 143.4 158.4 143 158.4C142.6 158.4 142.3 158.1 142.3 157.7H142.4H142.5C142.5 157.9 142.7 158.1 142.9 158.1C143.1 158.1 143.3 157.9 143.3 157.7C143.3 157.5 143.1 157.3 142.9 157.3C142.7 157.3 142.5 157.5 142.5 157.7H142.4Z" fill="#22576F"/>
<path d="M42.3 130V130.2H23V131.1H42.2V130H42.3V130.2V130H42.4V131.2V131.3H42.3H22.9H22.8V131.2V130L22.9 129.9H42.3L42.4 130H42.3Z" fill="#22576F"/>
<path d="M63.2 130V130.2H43.9V131.1H63.1V130H63.2V130.2V130H63.3V131.2V131.3H63.2H43.8H43.7L43.6 131.2V130H43.7L43.8 129.9H63.2L63.3 130H63.2Z" fill="#22576F"/>
<path d="M42.4 131.2V132.3L42.3 132.4L42.2 132.3V131.2L42.3 131.1L42.4 131.2Z" fill="#22576F"/>
<path d="M42.4 145.9V148L42.3 148.1L42.2 148V145.9L42.3 145.8L42.4 145.9ZM42.4 142.7V144.8L42.3 144.9L42.2 144.8V142.7L42.3 142.6L42.4 142.7ZM42.4 139.6V141.7L42.3 141.8L42.2 141.7V139.6L42.3 139.5L42.4 139.6ZM42.4 136.5V138.6L42.3 138.7L42.2 138.6V136.5L42.3 136.4L42.4 136.5ZM42.4 133.3V135.4L42.3 135.5L42.2 135.4V133.3L42.3 133.2L42.4 133.3Z" fill="#22576F"/>
<path d="M42.4 149V150.1L42.3 150.2L42.2 150.1V149L42.3 148.9L42.4 149Z" fill="#22576F"/>
<path d="M42.3 150.2H41.2L41.1 150.1L41.2 150H42.3L42.4 150.1L42.3 150.2Z" fill="#22576F"/>
<path d="M27.2 150.2H25L24.9 150.1L25 150H27.2L27.3 150.1L27.2 150.2ZM30.4 150.2H28.2L28.1 150.1L28.2 150H30.4L30.5 150.1L30.4 150.2ZM33.7 150.2H31.5L31.4 150.1L31.5 150H33.7L33.8 150.1L33.7 150.2ZM36.9 150.2H34.7L34.6 150.1L34.7 150H36.9L37 150.1L36.9 150.2ZM40.2 150.2H38L37.9 150.1L38 150H40.2L40.3 150.1L40.2 150.2Z" fill="#22576F"/>
<path d="M24 150.2H22.9L22.8 150.1L22.9 150H24L24.1 150.1L24 150.2Z" fill="#22576F"/>
<path d="M22.8 150.1V149L22.9 148.9L23 149V150.1L22.9 150.2L22.8 150.1Z" fill="#22576F"/>
<path d="M22.8 135.4V133.3L22.9 133.2L23 133.3V135.4L22.9 135.5L22.8 135.4ZM22.8 138.6V136.5L22.9 136.4L23 136.5V138.6L22.9 138.7L22.8 138.6ZM22.8 141.7V139.6L22.9 139.5L23 139.6V141.7L22.9 141.8L22.8 141.7ZM22.8 144.8V142.7L22.9 142.6L23 142.7V144.8L22.9 144.9L22.8 144.8ZM22.8 148V145.9L22.9 145.8L23 145.9V148L22.9 148.1L22.8 148Z" fill="#22576F"/>
<path d="M22.8 132.3V131.2L22.9 131.1L23 131.2V132.3L22.9 132.4L22.8 132.3Z" fill="#22576F"/>
<path d="M43.9 131.2V132.3L43.8 132.4L43.6 132.3V131.2L43.8 131.1L43.9 131.2Z" fill="#22576F"/>
<path d="M43.9 145.9V148L43.8 148.1L43.7 148V145.9L43.8 145.8L43.9 145.9ZM43.9 142.7V144.8L43.8 144.9L43.7 144.8V142.7L43.8 142.6L43.9 142.7ZM43.9 139.6V141.7L43.8 141.8L43.7 141.7V139.6L43.8 139.5L43.9 139.6ZM43.9 136.5V138.6L43.8 138.7L43.7 138.6V136.5L43.8 136.4L43.9 136.5ZM43.9 133.3V135.4L43.8 135.5L43.7 135.4V133.3L43.8 133.2L43.9 133.3Z" fill="#22576F"/>
<path d="M43.9 149V150.1L43.8 150.2L43.6 150.1V149L43.8 148.9L43.9 149Z" fill="#22576F"/>
<path d="M43.8 150H44.8L45 150.1L44.8 150.2H43.8L43.6 150.1L43.8 150Z" fill="#22576F"/>
<path d="M58.9 150H61.1L61.2 150.1L61.1 150.2H58.9L58.8 150.1L58.9 150ZM55.6 150H57.8L57.9 150.1L57.8 150.2H55.6L55.5 150.1L55.6 150ZM52.4 150H54.6L54.7 150.1L54.6 150.2H52.4L52.3 150.1L52.4 150ZM49.2 150H51.4L51.5 150.1L51.4 150.2H49.2L49.1 150.1L49.2 150ZM45.9 150H48.1L48.2 150.1L48.1 150.2H45.9L45.8 150.1L45.9 150Z" fill="#22576F"/>
<path d="M62.1 150H63.2L63.3 150.1L63.2 150.2H62.1L62 150.1L62.1 150Z" fill="#22576F"/>
<path d="M63.1 150.1V149L63.2 148.9L63.3 149V150.1L63.2 150.2L63.1 150.1Z" fill="#22576F"/>
<path d="M63.1 135.4V133.3L63.2 133.2L63.3 133.3V135.4L63.2 135.5L63.1 135.4ZM63.1 138.6V136.5L63.2 136.4L63.3 136.5V138.6L63.2 138.7L63.1 138.6ZM63.1 141.7V139.6L63.2 139.5L63.3 139.6V141.7L63.2 141.8L63.1 141.7ZM63.1 144.8V142.7L63.2 142.6L63.3 142.7V144.8L63.2 144.9L63.1 144.8ZM63.1 148V145.9L63.2 145.8L63.3 145.9V148L63.2 148.1L63.1 148Z" fill="#22576F"/>
<path d="M63.1 132.3V131.2L63.2 131.1L63.3 131.2V132.3L63.2 132.4L63.1 132.3Z" fill="#22576F"/>
<path d="M143.5 180.6H141.8L141.7 180.5L141.8 180.4H143.5L143.6 180.5L143.5 180.6Z" fill="#22576F"/>
<path d="M141.8 180.6H140.9L140.8 180.5L140.9 180.4H141.8L141.9 180.5L141.8 180.6Z" fill="#22576F"/>
<path d="M141 180.6C140.7 180.6 140.5 180.3 140.5 180C140.5 179.7 140.7 179.5 141 179.5L141.1 179.6L141 179.7C140.9 179.7 140.8 179.8 140.8 180C140.8 180.2 140.9 180.3 141 180.3L141.1 180.4L141 180.6Z" fill="#22576F"/>
<path d="M143.5 179.7H141.8L141.7 179.6L141.8 179.5H143.5L143.6 179.6L143.5 179.7Z" fill="#22576F"/>
<path d="M141.8 179.7H140.9L140.8 179.6L140.9 179.5H141.8L141.9 179.6L141.8 179.7Z" fill="#22576F"/>
<path d="M145.5 182.4H145.6L145.7 182.5L145.6 182.6H145.5L145.4 182.5L145.5 182.4Z" fill="#22576F"/>
<path d="M145.5 182.4H145.6L145.7 182.5L145.6 182.6H145.5L145.4 182.5L145.5 182.4Z" fill="#22576F"/>
<path d="M146.2 182.5L145.6 182.6L145.5 182.5L145.6 182.4L146.1 182.3L146.3 182.4L146.2 182.5Z" fill="#22576F"/>
<path d="M143.4 180.6V179.5L143.5 179.3L143.6 179.5V180.6L143.5 180.7L143.4 180.6Z" fill="#22576F"/>
<path d="M143.4 180.6V179.5L143.6 179.3L143.7 179.5V180.6L143.6 180.7L143.4 180.6Z" fill="#22576F"/>
<path d="M143.5 180.6V179.5L143.7 179.3L143.8 179.5V180.6L143.7 180.7L143.5 180.6Z" fill="#22576F"/>
<path d="M145.3 180.6L145.4 180.8L145.3 180.9L145.2 180.8L145.3 180.6Z" fill="#22576F"/>
<path d="M143.5 180.5L143.7 180.6L143.5 180.7L143.4 180.6L143.5 180.5Z" fill="#22576F"/>
<path d="M143.5 180.5L143.7 180.6L143.5 180.7L143.4 180.6L143.5 180.5Z" fill="#22576F"/>
<path d="M143.7 180.5H145.3L145.4 180.6L145.3 180.7H143.7L143.5 180.6L143.7 180.5Z" fill="#22576F"/>
<path d="M143.7 180.7H143.6L143.4 180.6L143.6 180.4H143.7L143.8 180.6L143.7 180.7Z" fill="#22576F"/>
<path d="M142.6 180.1H143.3L143.4 180.2L143.3 180.3H142.6L142.5 180.2L142.6 180.1Z" fill="#22576F"/>
<path d="M142.6 179.7H143.3L143.4 179.8L143.3 180H142.6L142.5 179.8L142.6 179.7Z" fill="#22576F"/>
<path d="M143.7 179.6H143.6L143.4 179.5L143.6 179.4H143.7L143.8 179.5L143.7 179.6Z" fill="#22576F"/>
<path d="M145.2 180.7V179.3L145.3 179.2L145.4 179.3V180.7L145.3 180.9L145.2 180.7Z" fill="#22576F"/>
<path d="M145.2 180.8V180.7L145.3 180.6L145.5 180.7V180.8L145.3 180.9L145.2 180.8Z" fill="#22576F"/>
<path d="M145.2 180.8V179.3L145.3 179.2L145.5 179.3V180.8L145.3 180.9L145.2 180.8Z" fill="#22576F"/>
<path d="M143.7 179.3H145.3L145.4 179.5L145.3 179.6H143.7L143.5 179.5L143.7 179.3Z" fill="#22576F"/>
<path d="M143.5 179.3L143.7 179.5L143.5 179.6L143.4 179.5L143.5 179.3Z" fill="#22576F"/>
<path d="M143.5 179.3L143.7 179.5L143.5 179.6L143.4 179.5L143.5 179.3Z" fill="#22576F"/>
<path d="M145.3 179.2L145.4 179.3L145.3 179.4L145.2 179.3L145.3 179.2Z" fill="#22576F"/>
<path d="M145.3 182.4V177.7L145.4 177.5L145.6 177.7V182.4L145.4 182.5L145.3 182.4Z" fill="#22576F"/>
<path d="M146.3 177.7V182.4L146.2 182.5L146 182.4V177.7L146.2 177.6L146.3 177.7Z" fill="#22576F"/>
<path d="M145.5 177.5H145.6L145.7 177.6L145.6 177.7H145.5L145.4 177.6L145.5 177.5Z" fill="#22576F"/>
<path d="M145.5 177.5H145.6L145.7 177.6L145.6 177.7H145.5L145.4 177.6L145.5 177.5Z" fill="#22576F"/>
<path d="M146.1 177.8L145.6 177.7L145.5 177.6L145.6 177.5L146.2 177.6L146.3 177.7L146.1 177.8Z" fill="#22576F"/>
<path d="M145.3 181.1C145.3 181 145.2 180.9 145.2 180.8L145.3 180.6L145.5 180.7C145.5 180.8 145.6 180.9 145.6 181L145.5 181.2L145.3 181.1Z" fill="#22576F"/>
<path d="M145.2 179.3C145.2 179.2 145.3 179.1 145.3 179L145.5 178.9L145.6 179.1C145.6 179.2 145.5 179.3 145.5 179.4L145.3 179.5L145.2 179.3Z" fill="#22576F"/>
<path d="M142.2 180H142.1C142.1 179.8 142.3 179.6 142.5 179.6C142.7 179.6 142.9 179.8 142.9 180C142.9 180.2 142.7 180.4 142.5 180.4C142.3 180.4 142.1 180.2 142.1 180H142.2H142.3L142.4 180.1L142.5 180L142.4 179.9L142.3 180H142.2Z" fill="#22576F"/>
<path d="M143.4 180.4L143.2 180.2L143.3 180.1C143.5 180.1 143.6 180.2 143.6 180.4L143.5 180.5L143.4 180.4Z" fill="#22576F"/>
<path d="M143.3 179.7L143.5 179.5L143.6 179.6C143.6 179.8 143.5 179.9 143.3 179.9L143.2 179.8L143.3 179.7Z" fill="#22576F"/>
<path d="M145.5 182.3L145.6 182.4V182.6H145.4V182.5V182.3H145.5Z" fill="#22576F"/>
<path d="M145.6 177.7H145.5H145.4V177.6V177.5H145.6V177.7Z" fill="#22576F"/>
<path d="M145.4 179.4H145.2V179.2H145.4V179.4Z" fill="#22576F"/>
<path d="M145.4 180.6V180.7V180.8H145.2V180.6H145.4Z" fill="#22576F"/>
<path d="M143.5 179.6V179.5V179.4H143.6V179.6H143.5Z" fill="#22576F"/>
<path d="M143.6 179.5V179.6H143.4V179.4H143.6V179.5Z" fill="#22576F"/>
<path d="M143.6 180.5V180.7H143.4V180.5H143.6Z" fill="#22576F"/>
<path d="M143.5 180.5H143.6V180.7H143.5V180.5Z" fill="#22576F"/>
<path d="M138.3 180H138.2C138.2 179.3 138.7 178.8 139.4 178.8C140.1 178.8 140.6 179.3 140.6 180C140.6 180.7 140.1 181.2 139.4 181.2C138.7 181.2 138.2 180.7 138.2 180H138.3H138.4C138.4 180.5 138.8 181 139.4 181C139.9 181 140.4 180.6 140.4 180C140.4 179.5 140 179 139.4 179C138.9 179 138.4 179.4 138.4 180H138.3Z" fill="#22576F"/>
<path d="M103 168.3V168.2H146.2H146.3V168.3V191.4V191.5H146.2H103H102.9V191.4V168.3V168.2H103V168.3H103.1V191.2H146V168.5H103V168.3H103.1H103Z" fill="#22576F"/>
<path d="M143.1 180.5V188.5L143 188.6H142.9H116.7L116.6 188.5L116.7 188.4H142.8V180.5L142.9 180.4L143.1 180.5Z" fill="#22576F"/>
<path d="M115.2 188.6H106L105.9 188.5V171.6L106 171.5H142.9H143L143.1 171.6V179.6L142.9 179.7L142.8 179.6V171.7H106.2V188.4H115.2L115.3 188.5L115.2 188.6Z" fill="#22576F"/>
<path d="M141.6 180.5V187.2V187.3L141.5 187.4H112.7L112.6 187.3V187.2V172.8V172.7H112.7H141.5H141.6V172.8V179.6L141.5 179.7L141.4 179.6V173H112.8V187.1H141.4V180.5L141.5 180.4L141.6 180.5Z" fill="#22576F"/>
<path d="M115.2 190.3H116.7L116.9 190.4L116.7 190.5H115.2L115 190.4L115.2 190.3Z" fill="#22576F"/>
<path d="M118.5 190.9H113.3L113.2 190.8L113.3 190.7H118.5L118.7 190.8L118.5 190.9Z" fill="#22576F"/>
<path d="M115.2 190.5C114.6 190.5 114 190.7 113.4 190.8L113.2 190.7L113.3 190.5C113.9 190.3 114.5 190.2 115.1 190.2L115.2 190.3V190.5Z" fill="#22576F"/>
<path d="M118.5 190.8C117.9 190.6 117.3 190.5 116.7 190.5L116.6 190.4L116.7 190.3C117.3 190.3 117.9 190.5 118.5 190.6L118.6 190.8H118.5Z" fill="#22576F"/>
<path d="M118.4 191V190.8L118.5 190.7L118.7 190.8V191L118.6 191.1L118.4 191Z" fill="#22576F"/>
<path d="M113.5 190.8L113.4 191L113.3 191.1L113.2 191V190.8L113.3 190.7L113.5 190.8Z" fill="#22576F"/>
<path d="M118.5 190.9L118.4 190.8V190.6H118.6V190.7V190.9H118.5Z" fill="#22576F"/>
<path d="M113.5 190.8L113.4 190.9H113.3L113.2 190.7L113.3 190.6H113.5V190.8Z" fill="#22576F"/>
<path d="M116.6 190.4V189.7L116.7 189.6L116.8 189.7V190.4L116.7 190.5L116.6 190.4Z" fill="#22576F"/>
<path d="M115.3 189.7V190.4L115.2 190.5L115 190.4V189.7L115.2 189.6L115.3 189.7Z" fill="#22576F"/>
<path d="M115.3 189.2H115.9L116.1 189.3L115.9 189.5H115.3L115.2 189.3L115.3 189.2Z" fill="#22576F"/>
<path d="M115.9 189.2L116.1 189.3L115.9 189.5L115.8 189.3L115.9 189.2Z" fill="#22576F"/>
<path d="M116.7 189.5H116.6L116.4 189.3L116.6 189.2H116.7L116.8 189.3L116.7 189.5Z" fill="#22576F"/>
<path d="M115.3 189.5H115.2L115.1 189.3L115.2 189.2H115.3L115.5 189.3L115.3 189.5Z" fill="#22576F"/>
<path d="M115.9 189.2H116.6L116.7 189.3L116.6 189.5H115.9L115.8 189.3L115.9 189.2Z" fill="#22576F"/>
<path d="M116.6 189.3L116.5 188.2L116.7 188.1L116.8 188.2V189.3L116.7 189.5L116.6 189.3Z" fill="#22576F"/>
<path d="M115.3 188.2V189.3L115.2 189.5L115.1 189.3V188.2L115.2 188.1L115.3 188.2Z" fill="#22576F"/>
<path d="M116.6 189.2H116.8V189.4H116.6V189.2Z" fill="#22576F"/>
<path d="M115.3 189.2V189.3V189.4H115.1V189.2H115.3Z" fill="#22576F"/>
<path d="M115.3 188.3H115.1V188.2V188.1H115.3V188.3Z" fill="#22576F"/>
<path d="M116.6 188.3V188.1H116.7L116.8 188.2V188.3H116.6Z" fill="#22576F"/>
<path d="M116.6 188.3C116.4 188.3 116.1 188.3 115.9 188.3C115.7 188.3 115.4 188.3 115.2 188.3L115.1 188.2L115.2 188.1C115.4 188.1 115.7 188.1 115.9 188.1C116.1 188.1 116.4 188.1 116.6 188.1L116.7 188.2L116.6 188.3Z" fill="#22576F"/>
<path d="M116.6 189.7C116.6 189.6 116.6 189.5 116.5 189.4V189.2H116.7C116.8 189.3 116.8 189.5 116.8 189.7L116.7 189.8L116.6 189.7Z" fill="#22576F"/>
<path d="M115.4 189.4C115.3 189.5 115.3 189.6 115.3 189.7L115.2 189.8L115.1 189.7C115.1 189.5 115.1 189.4 115.2 189.2H115.4V189.4Z" fill="#22576F"/>
<path d="M113.4 191V191.4L113.3 191.5L113.2 191.4V191L113.3 190.8L113.4 191Z" fill="#22576F"/>
<path d="M118.7 191V191.4L118.6 191.5L118.4 191.4V191L118.6 190.8L118.7 191Z" fill="#22576F"/>
<path d="M136.4 137.4H136.3C136.3 136.7 136.8 136.2 137.5 136.2C138.2 136.2 138.7 136.7 138.7 137.4C138.7 138.1 138.2 138.6 137.5 138.6C136.8 138.6 136.3 138.1 136.3 137.4H136.4H136.5C136.5 137.9 136.9 138.4 137.5 138.4C138 138.4 138.5 138 138.5 137.4C138.5 136.9 138.1 136.4 137.5 136.4C137 136.4 136.5 136.8 136.5 137.4H136.4Z" fill="#22576F"/>
<path d="M136.9 137.4H136.8C136.8 137 137.1 136.6 137.6 136.6C138 136.6 138.4 136.9 138.4 137.4C138.4 137.8 138.1 138.2 137.6 138.2C137.2 138.2 136.8 137.9 136.8 137.4H136.9H137C137 137.7 137.2 137.9 137.5 137.9C137.8 137.9 138 137.7 138 137.4C138 137.1 137.8 136.9 137.5 136.9C137.2 136.9 137 137.1 137 137.4H136.9Z" fill="#22576F"/>
<path d="M142.8 136.9C142.6 134.2 140.3 132.1 137.6 132.1C137.4 132.1 137.3 132.1 137.1 132.1C134.4 132.3 132.3 134.6 132.3 137.3C132.3 137.5 132.3 137.6 132.3 137.8C132.5 140.5 134.8 142.6 137.5 142.6C137.7 142.6 137.8 142.6 138 142.6C140.6 142.4 142.6 140.4 142.8 137.8L142.9 137.7L143 137.8C142.8 140.5 140.6 142.6 138 142.8C137.8 142.8 137.7 142.8 137.5 142.8C134.7 142.8 132.3 140.6 132 137.8C132 137.6 132 137.5 132 137.3C132 134.5 134.2 132.1 137 131.8C137.2 131.8 137.3 131.8 137.5 131.8C140.3 131.8 142.7 134 143 136.8L142.9 136.9H142.8Z" fill="#22576F"/>
<path d="M140.4 137.7H143.9L144 137.9L143.9 138H140.4L140.3 137.9L140.4 137.7Z" fill="#22576F"/>
<path d="M140.3 137.6L140.4 137.7L140.5 137.8L140.4 137.9C140.2 137.9 140 137.7 140 137.5L140.1 137.4L140.3 137.6Z" fill="#22576F"/>
<path d="M140.4 137.1L140.3 137.2L140.2 137.3L140.1 137.2C140.1 137 140.3 136.8 140.5 136.8L140.6 136.9L140.4 137.1Z" fill="#22576F"/>
<path d="M140.1 137.6V137.2L140.2 137.1L140.3 137.2V137.6L140.2 137.7L140.1 137.6Z" fill="#22576F"/>
<path d="M143.6 137L143.8 136.9H144V137.1C143.9 137.2 143.8 137.3 143.6 137.3L143.5 137.2L143.6 137Z" fill="#22576F"/>
<path d="M143.8 137.8L143.6 137.7L143.5 137.6L143.6 137.5C143.7 137.5 143.9 137.6 144 137.7V137.9L143.8 137.8Z" fill="#22576F"/>
<path d="M142 137.5H143.6L143.8 137.6L143.6 137.8H142L141.9 137.6L142 137.5Z" fill="#22576F"/>
<path d="M143.6 137.3H142L141.9 137.1L142 137H143.6L143.8 137.1L143.6 137.3Z" fill="#22576F"/>
<path d="M142.1 137.2L142 137.4H141.8V137.2L141.9 137.1H142.1V137.2Z" fill="#22576F"/>
<path d="M141.8 137.5V137.3L141.9 137.2L142 137.3V137.5L141.9 137.6L141.8 137.5Z" fill="#22576F"/>
<path d="M143.9 136.8H144.1L144.3 136.9L144.2 137.1C144.1 137.1 144 137.2 143.9 137.2L143.8 137.1L143.9 136.8Z" fill="#22576F"/>
<path d="M144.1 138H143.9L143.8 137.9L143.9 137.8C144 137.8 144.1 137.8 144.2 137.9L144.3 138.1L144.1 138Z" fill="#22576F"/>
<path d="M143.9 137.1H140.4L140.3 136.9L140.4 136.8H143.9L144 136.9L143.9 137.1Z" fill="#22576F"/>
<path d="M143.9 137.8C144 137.9 144.2 138 144.3 138C144.4 138 144.6 138 144.7 137.9C144.8 137.8 144.9 137.6 144.9 137.5C144.9 137.4 144.9 137.2 144.8 137.1C144.7 137 144.5 136.9 144.4 136.9C144.3 136.9 144.1 136.9 144 137H143.8V136.8C144 136.7 144.2 136.6 144.3 136.6C144.5 136.6 144.7 136.7 144.9 136.9C145 137.1 145.1 137.3 145.1 137.4C145.1 137.6 145 137.8 144.8 138C144.6 138.1 144.4 138.2 144.3 138.2C144.1 138.2 143.9 138.1 143.7 137.9V137.7L143.9 137.8Z" fill="#22576F"/>
<path d="M144 137.7C144.1 137.8 144.2 137.8 144.3 137.8C144.4 137.8 144.5 137.8 144.6 137.7C144.7 137.6 144.7 137.5 144.7 137.4C144.7 137.3 144.7 137.2 144.6 137.1C144.5 137 144.4 137 144.3 137C144.2 137 144.1 137 144 137.1V137L144.1 137.1H143.9V136.9C144 136.8 144.2 136.7 144.4 136.7C144.6 136.7 144.8 136.8 144.9 136.9C145 137 145.1 137.2 145.1 137.4C145.1 137.6 145 137.8 144.9 137.9C144.8 138 144.6 138.1 144.4 138.1C144.2 138.1 144 138 143.9 137.9V137.7H144Z" fill="#22576F"/>
<path d="M142 137.4L142.1 137.5V137.7H141.9L141.8 137.6V137.4H142Z" fill="#22576F"/>
<path d="M245.6 255.3H146.2H146.1L146 255.2V240.8L146.2 240.7L146.3 240.8V255.1H245.6L245.7 255.2L245.6 255.3Z" fill="#22576F"/>
<path d="M47.7 96.6V96.5H129.4V93.4H47.8V96.6H47.7V96.5V96.6H47.5V93.3L47.6 93.2H47.7H129.5H129.6V93.3V96.6V96.7L129.5 96.8H47.7L47.6 96.7L47.5 96.6H47.7Z" fill="#22576F"/>
<path d="M227.2 53.4V53.2H243.4L243.5 53.3V53.4V93.3V93.4H243.4H227.2H227.1V93.3V53.4V53.3L227.2 53.2V53.4H227.4V93.2H243.3V53.5H227.2V53.4H227.4H227.2Z" fill="#22576F"/>
<path d="M151.1 44.9V31.3H148.4V63.9H151.1V47.3L151.2 47.2L151.4 47.3V64.1L151.3 64.2H151.2H148.3H148.2L148.1 64.1V31.2L148.2 31.1H148.3H151.2H151.3L151.4 31.2V44.9L151.2 45L151.1 44.9Z" fill="#22576F"/>
<path d="M103 233.6V233.4H120.9V228.1H103.1V233.6H103V233.4V233.6H102.9V228V227.9H103H121.1H121.2V228V233.6V233.7H121.1H103H102.9V233.6H103Z" fill="#22576F"/>
<path d="M180.3 77.5V77.3H191.7V67.5H180.4V77.5H180.3V77.3V77.5H180.2V67.4V67.3H180.3H191.8H191.9V67.4V77.5V77.6H191.8H180.3H180.2V77.5H180.3Z" fill="#22576F"/>
<path d="M18.9 152.8V152.6H67V131.3H19V152.8H18.9V152.6V152.8H18.7V131.2L18.8 131.1H18.9H67.1H67.2V131.2V152.8V152.9H67.1H18.9H18.8L18.7 152.8H18.9Z" fill="#22576F"/>
<path d="M130 147.1V147H146V126.7H130.1V147.1H130V147V147.1H129.8V126.6L129.9 126.5H130H146.2H146.3V126.6V147.1V147.2H146.2H130H129.9L129.8 147.1H130Z" fill="#22576F"/>
<path d="M134 196.4V228L133.8 228.1L133.7 228V196.4L133.8 196.3L134 196.4Z" fill="#22576F"/>
<path d="M132.9 77.3H180.3L180.4 77.5L180.3 77.6H132.9L132.7 77.5L132.9 77.3Z" fill="#22576F"/>
<path d="M12.4 270V269.9H23.8V237.6V237.5H23.9H24.5V233.7H18.9H18.8L18.7 233.6V156.1L18.8 156H18.9H72V126.6V126.5H72.1H74.5V123.4H64.7V126.5H67.1H67.2V126.6V152.8V152.9H67.1H18.9H18.8L18.7 152.8V126.6L18.8 126.5H18.9H21.3V123.4H18.9H18.8L18.7 123.3V67.4L18.8 67.3H18.9H27.7V63.5H27.1V63.4L27 63.3V60.2H23.9H23.8V60.1V11.4H12.5V270H12.4V269.9V270H12.3V11.3V11.2L12.4 11.1H23.9L24 11.2V11.3V60H27.1H27.2L27.3 60.1V63.2H27.9L28 63.3V67.4V67.5H27.9H19V123.1H21.4L21.5 123.2V123.3V126.6V126.7H21.4H19V152.6H67V126.7H64.6H64.5L64.4 126.6V123.3L64.5 123.2L64.6 123.1H74.6L74.7 123.2L74.8 123.3V126.6L74.7 126.7H74.6H72.3V156.1L72.2 156.2H72.1H19V233.4H24.6L24.7 233.5L24.8 233.6V237.6L24.7 237.7H24.6H24V270V270.1H23.9H12.4H12.3V270H12.4Z" fill="#22576F"/>
<path d="M99.5 240.8H99.4V237.7H98.9H98.8V237.6V233.6V233.5L98.9 233.4H99.5V219.6L99.6 219.5H99.7H103H103.1V219.6V233.4H120.9V228L121 227.9H121.1H143.8V196.5H103.1V198V198.1L103 198.2H99.7L99.6 198.1L99.5 198V152.1H99.6L99.7 152H103L103.1 152.1V191.2H146V126.7H103.1V129.1V129.2H103H99.7H99.6L99.5 129.1V126.7H96.2H96.1V126.6V123.3V123.2L96.2 123.1H129.4V120.7L129.5 120.6H132.9V120.7H133V123.1H151.2L151.3 123.2V123.3V240.8V240.9L151.2 241H99.5L99.4 240.9V240.8H99.5V240.7H151.1V123.4H132.9H132.8L132.7 123.3V120.9H129.6V123.3V123.4H129.5H96.4V126.5H99.7L99.8 126.6V129H102.9V126.6V126.5H103H146.2H146.3V126.6V191.4V191.5H146.2H103H102.9V191.4V152.3H99.8V197.9H102.9V196.4V196.3H103H143.9H144V196.4V228V228.1H143.9H121.2V233.6V233.7H121.1H103H102.9V233.6V219.7H99.8V233.6L99.7 233.7H99.1V237.5H99.5H99.6V237.6V240.8H99.5V240.7V240.8Z" fill="#22576F"/>
<path d="M222.3 31.2V31.3H148.4V63.9H195.2V64L195.3 64.1V93.2H197.7H197.8V93.3V96.6V96.7L197.7 96.8H189.5L189.4 96.7V96.6V93.3V93.2H189.5H191.7V67.5H133V93.2H135.2H135.3V93.3V96.6V96.7L135.2 96.8H133V99.2H132.9V99.3H129.5L129.4 99.2V67.5H49.8H49.7V67.4V63.3L49.8 63.2H50.4V60.1V60H50.5H139.9V22.9V22.8H140H222.3H222.4V22.9V31.2V31.3H222.3V31.2H222.2V23.1H140.1V60.1V60.2H140H50.7V63.3L50.6 63.4L50.5 63.5H49.9V67.3H129.5H129.6V67.4V99H132.7V96.6L132.8 96.5H132.9H135V93.4H132.9H132.8L132.7 93.3V67.4L132.8 67.3H132.9H191.8H191.9V67.4V93.3V93.4H191.8H189.6V96.5H197.5V93.4H195.2H195.1L195 93.3V64.2H148.3H148.2L148.1 64.1V31.2L148.2 31.1H148.3H222.3V31.2H222.2H222.3Z" fill="#22576F"/>
<path d="M242.2 22.9V22.8H245.5V11.3V11.2L245.6 11.1H252.1V11.2L252.2 11.3V270L252.1 270.1H245.6H245.5V270V199.4H242.3L242.2 199.3V196.2H241.6L241.5 196.1V196V192V191.9H241.6H243.3V96.8H219.3L219.2 96.7L219.1 96.6V93.3L219.2 93.2H219.3H243.3V31.3H242.2H242.1V31.2V22.9V22.8H242.2V22.9H242.3V31.1H243.4H243.5V31.2V93.3V93.4H243.4H219.4V96.5H243.4H243.5V96.6V192V192.1H243.4H241.7V195.9H242.3L242.4 196H242.5V199.2H245.6H245.7V199.3V269.9H251.9V11.4H245.7V22.9V23L245.6 23.1H242.2V22.9H242.3H242.2Z" fill="#22576F"/>
<path d="M159.8 96.6V96.5H164.7V93.4H160V96.6H159.8V96.5V96.6H159.7V93.3L159.8 93.2H164.8H164.9L165 93.3V96.6L164.9 96.7L164.8 96.8H159.8V96.7L159.7 96.6H159.8Z" fill="#22576F"/>
<path d="M49 80.3C49 79.6 48.4 79 47.7 79C47 79 46.4 79.6 46.4 80.3C46.4 81 47 81.6 47.7 81.6C48.4 81.6 49 81 49 80.3H49.1V80.4H47.7H47.6V80.3V80.2H47.7H91.4L88.6 79.2V80.3L88.5 80.4L88.4 80.3V79L88.5 78.9H88.6L92.2 80.2L92.3 80.3L92.2 80.4H47.8H47.7V80.3V80.2H47.8H49.2H49.3V80.3C49.3 81.2 48.6 81.9 47.7 81.9C46.8 81.9 46.1 81.2 46.1 80.3C46.1 79.4 46.8 78.7 47.7 78.7C48.6 78.7 49.3 79.4 49.3 80.3L49.2 80.4L49 80.3Z" fill="#22576F"/>
<path d="M47.1 193.8C47.1 194.2 46.9 194.4 46.6 194.5C47 194.6 47.3 194.8 47.3 195.3C47.3 195.8 46.8 196.2 46.2 196.2H44.8V193H46.1C46.7 193 47.1 193.3 47.1 193.8ZM46.8 193.8C46.8 193.5 46.6 193.3 46.1 193.3H45.2V194.4H46.1C46.5 194.4 46.8 194.2 46.8 193.8ZM47 195.2C47 194.9 46.7 194.7 46.2 194.7H45.2V195.8H46.2C46.7 195.8 47 195.6 47 195.2Z" fill="#22576F"/>
<path d="M50.5 193.3H48.6V194.4H50.3V194.7H48.6V195.8H50.5V196.1H48.2V193H50.5V193.3Z" fill="#22576F"/>
<path d="M52.6 196.1H51.5V193H52.6C53.6 193 54.3 193.7 54.3 194.6C54.3 195.5 53.5 196.1 52.6 196.1ZM52.6 193.3H51.9V195.8H52.6C53.4 195.8 53.9 195.3 53.9 194.6C53.9 193.9 53.4 193.3 52.6 193.3Z" fill="#22576F"/>
<path d="M57.4 196.1L56.5 194.9H55.6V196.1H55.2V193H56.5C57.2 193 57.6 193.4 57.6 193.9C57.6 194.4 57.2 194.7 56.8 194.8L57.8 196.1H57.4ZM56.5 193.3H55.5V194.6H56.5C57 194.6 57.3 194.4 57.3 194C57.3 193.5 57 193.3 56.5 193.3Z" fill="#22576F"/>
<path d="M60.1 196.2C59.2 196.2 58.5 195.5 58.5 194.6C58.5 193.7 59.1 193 60.1 193C61 193 61.7 193.7 61.7 194.6C61.7 195.5 61 196.2 60.1 196.2ZM60.1 193.3C59.4 193.3 58.9 193.9 58.9 194.6C58.9 195.3 59.4 195.9 60.1 195.9C60.8 195.9 61.3 195.3 61.3 194.6C61.3 193.9 60.8 193.3 60.1 193.3Z" fill="#22576F"/>
<path d="M64.1 196.2C63.2 196.2 62.5 195.5 62.5 194.6C62.5 193.7 63.1 193 64.1 193C65 193 65.7 193.7 65.7 194.6C65.7 195.5 65.1 196.2 64.1 196.2ZM64.1 193.3C63.4 193.3 62.9 193.9 62.9 194.6C62.9 195.3 63.4 195.9 64.1 195.9C64.8 195.9 65.3 195.3 65.3 194.6C65.3 193.9 64.8 193.3 64.1 193.3Z" fill="#22576F"/>
<path d="M68.2 195.3L67 193.6V196.1H66.7V193H67.1L68.2 194.7L69.3 193H69.7V196.1H69.3V193.6L68.2 195.3Z" fill="#22576F"/>
<path d="M195.7 143.2H195V144.3H194.6V141.2H195.8C196.5 141.2 197 141.6 197 142.2C197 142.9 196.4 143.2 195.7 143.2ZM195.8 141.5H195V142.9H195.8C196.3 142.9 196.7 142.6 196.7 142.2C196.6 141.8 196.3 141.5 195.8 141.5Z" fill="#22576F"/>
<path d="M199.8 144.3L198.9 143.1H198V144.3H197.6V141.2H198.9C199.6 141.2 200 141.6 200 142.1C200 142.6 199.6 142.9 199.2 143L200.2 144.3H199.8ZM198.9 141.5H197.9V142.8H198.9C199.4 142.8 199.7 142.6 199.7 142.2C199.7 141.8 199.4 141.5 198.9 141.5Z" fill="#22576F"/>
<path d="M201.2 141.2V144.3H200.8V141.2H201.2Z" fill="#22576F"/>
<path d="M204.4 141.2H204.7V144.3H204.4L202.4 141.7V144.3H202.1V141.2H202.4L204.4 143.7V141.2Z" fill="#22576F"/>
<path d="M207.1 144.4C206.2 144.4 205.5 143.7 205.5 142.8C205.5 141.9 206.2 141.2 207.1 141.2C207.7 141.2 208 141.4 208.3 141.7L208.1 142C207.8 141.8 207.5 141.6 207.1 141.6C206.4 141.6 205.9 142.2 205.9 142.9C205.9 143.6 206.4 144.2 207.1 144.2C207.5 144.2 207.8 144 208.1 143.8L208.3 144C208 144.2 207.6 144.4 207.1 144.4Z" fill="#22576F"/>
<path d="M209.3 141.2V144.3H209V141.2H209.3Z" fill="#22576F"/>
<path d="M211.4 143.2H210.6V144.3H210.2V141.2H211.4C212.1 141.2 212.6 141.6 212.6 142.2C212.6 142.9 212 143.2 211.4 143.2ZM211.4 141.5H210.6V142.9H211.4C211.9 142.9 212.3 142.6 212.3 142.2C212.2 141.8 211.9 141.5 211.4 141.5Z" fill="#22576F"/>
<path d="M216.1 144.3H215.7L215.3 143.5H213.6L213.2 144.3H213L214.4 141.2H214.7L216.1 144.3ZM214.5 141.6L213.8 143.2H215.2L214.5 141.6Z" fill="#22576F"/>
<path d="M216.8 141.2H217.2V144H219V144.3H216.9V141.2H216.8Z" fill="#22576F"/>
<path d="M194.3 147C194.3 147.4 194.1 147.6 193.8 147.7C194.2 147.8 194.5 148 194.5 148.5C194.5 149 194 149.4 193.4 149.4H192V146.3H193.3C193.9 146.2 194.3 146.5 194.3 147ZM193.9 147C193.9 146.7 193.7 146.5 193.2 146.5H192.3V147.6H193.2C193.7 147.6 193.9 147.4 193.9 147ZM194.1 148.4C194.1 148.1 193.8 147.9 193.3 147.9H192.3V149H193.3C193.8 149 194.1 148.8 194.1 148.4Z" fill="#22576F"/>
<path d="M197.7 146.5H195.8V147.6H197.5V147.9H195.8V149H197.7V149.3H195.4V146.2H197.7V146.5Z" fill="#22576F"/>
<path d="M199.7 149.3H198.6V146.2H199.7C200.7 146.2 201.4 146.9 201.4 147.8C201.4 148.7 200.7 149.3 199.7 149.3ZM199.7 146.5H199V149H199.7C200.5 149 201 148.5 201 147.8C201 147.1 200.5 146.5 199.7 146.5Z" fill="#22576F"/>
<path d="M204.5 149.3L203.6 148.1H202.7V149.3H202.3V146.2H203.6C204.3 146.2 204.7 146.6 204.7 147.1C204.7 147.6 204.3 147.9 203.9 148L204.9 149.3H204.5ZM203.7 146.5H202.7V147.8H203.7C204.2 147.8 204.5 147.6 204.5 147.2C204.5 146.7 204.2 146.5 203.7 146.5Z" fill="#22576F"/>
<path d="M207.3 149.4C206.4 149.4 205.7 148.7 205.7 147.8C205.7 146.9 206.3 146.2 207.3 146.2C208.2 146.2 208.9 146.9 208.9 147.8C208.9 148.7 208.2 149.4 207.3 149.4ZM207.3 146.5C206.6 146.5 206.1 147.1 206.1 147.8C206.1 148.5 206.6 149.1 207.3 149.1C208 149.1 208.5 148.5 208.5 147.8C208.5 147.1 208 146.5 207.3 146.5Z" fill="#22576F"/>
<path d="M211.3 149.4C210.4 149.4 209.7 148.7 209.7 147.8C209.7 146.9 210.3 146.2 211.3 146.2C212.2 146.2 212.9 146.9 212.9 147.8C212.9 148.7 212.2 149.4 211.3 149.4ZM211.3 146.5C210.6 146.5 210.1 147.1 210.1 147.8C210.1 148.5 210.6 149.1 211.3 149.1C212 149.1 212.5 148.5 212.5 147.8C212.5 147.1 212 146.5 211.3 146.5Z" fill="#22576F"/>
<path d="M215.4 148.5L214.2 146.8V149.3H213.9V146.2H214.3L215.4 147.9L216.5 146.2H216.9V149.3H216.5V146.8L215.4 148.5Z" fill="#22576F"/>
<path d="M188.9 224.7C188.9 225.1 188.7 225.3 188.4 225.4C188.8 225.5 189.1 225.7 189.1 226.2C189.1 226.7 188.6 227.1 188 227.1H186.6V224H187.9C188.5 223.9 188.9 224.2 188.9 224.7ZM188.5 224.7C188.5 224.4 188.3 224.2 187.8 224.2H186.9V225.3H187.8C188.2 225.3 188.5 225.1 188.5 224.7ZM188.7 226.1C188.7 225.8 188.4 225.6 187.9 225.6H186.9V226.7H187.9C188.4 226.7 188.7 226.5 188.7 226.1Z" fill="#22576F"/>
<path d="M192.8 227H192.4L192 226.2H190.3L190 227H189.6L191 223.9H191.3L192.8 227ZM191.2 224.3L190.5 225.9H191.9L191.2 224.3Z" fill="#22576F"/>
<path d="M193.7 223.9H194.1V226.7H195.9V227H193.8V223.9H193.7Z" fill="#22576F"/>
<path d="M197.9 227.1C197 227.1 196.3 226.4 196.3 225.5C196.3 224.6 197 223.9 197.9 223.9C198.5 223.9 198.8 224.1 199.1 224.4L198.9 224.7C198.6 224.5 198.3 224.3 197.9 224.3C197.2 224.3 196.7 224.9 196.7 225.6C196.7 226.3 197.2 226.9 197.9 226.9C198.3 226.9 198.6 226.7 198.9 226.5L199.1 226.7C198.8 226.9 198.5 227.1 197.9 227.1Z" fill="#22576F"/>
<path d="M201.4 227.1C200.5 227.1 199.8 226.4 199.8 225.5C199.8 224.6 200.4 223.9 201.4 223.9C202.3 223.9 203 224.6 203 225.5C203 226.4 202.3 227.1 201.4 227.1ZM201.4 224.2C200.7 224.2 200.2 224.8 200.2 225.5C200.2 226.2 200.7 226.8 201.4 226.8C202.1 226.8 202.6 226.2 202.6 225.5C202.6 224.8 202.1 224.2 201.4 224.2Z" fill="#22576F"/>
<path d="M206.3 223.9H206.6V227H206.3L204.3 224.4V227H204V223.9H204.3L206.3 226.4V223.9Z" fill="#22576F"/>
<path d="M209.1 227H208.7V225.8L207.4 223.9H207.8L208.9 225.5L210 223.9H210.4L209.1 225.8V227Z" fill="#22576F"/>
<path d="M202.4 63.1H200.5V64.2H202.2V64.5H200.5V65.6H202.4V65.9H200.1V62.8H202.4V63.1Z" fill="#22576F"/>
<path d="M205.6 62.8H205.9V65.9H205.6L203.6 63.3V65.9H203.3V62.8H203.6L205.6 65.3V62.8Z" fill="#22576F"/>
<path d="M208.2 64.2C208.9 64.4 209.2 64.6 209.2 65.1C209.2 65.6 208.8 66 208.1 66C207.6 66 207.2 65.8 206.8 65.5L207 65.2C207.3 65.5 207.6 65.6 208.1 65.6C208.5 65.6 208.8 65.4 208.8 65.1C208.8 64.8 208.6 64.6 208 64.5C207.3 64.3 207 64.1 207 63.6C207 63.1 207.4 62.7 208 62.7C208.5 62.7 208.8 62.8 209.1 63.1L208.9 63.4C208.6 63.2 208.3 63.1 208 63.1C207.6 63.1 207.3 63.3 207.3 63.6C207.4 63.9 207.5 64 208.2 64.2Z" fill="#22576F"/>
<path d="M212.7 64.6C212.7 65.5 212.2 66 211.4 66C210.6 66 210.1 65.5 210.1 64.6V62.8H210.5V64.6C210.5 65.3 210.9 65.7 211.5 65.7C212.1 65.7 212.4 65.4 212.4 64.7V62.9H212.8V64.6H212.7Z" fill="#22576F"/>
<path d="M214.2 62.8V65.9H213.8V62.8H214.2Z" fill="#22576F"/>
<path d="M216.5 65.9H216.1V63.1H215.1V62.8H217.6V63.1H216.6V65.9H216.5Z" fill="#22576F"/>
<path d="M220.7 63.1H218.8V64.2H220.5V64.5H218.8V65.6H220.7V65.9H218.4V62.8H220.7V63.1Z" fill="#22576F"/>
<path d="M106.3 153.6H104.4V154.7H106.1V155H104.4V156.1H106.3V156.4H104V153.3H106.3V153.6Z" fill="#22576F"/>
<path d="M109.5 153.3H109.8V156.4H109.5L107.5 153.8V156.4H107.2V153.3H107.5L109.5 155.8V153.3Z" fill="#22576F"/>
<path d="M112.1 154.7C112.8 154.9 113.1 155.1 113.1 155.6C113.1 156.1 112.7 156.5 112 156.5C111.5 156.5 111.1 156.3 110.7 156L110.9 155.7C111.2 156 111.5 156.1 112 156.1C112.4 156.1 112.7 155.9 112.7 155.6C112.7 155.3 112.5 155.1 111.9 155C111.2 154.8 110.9 154.6 110.9 154.1C110.9 153.6 111.3 153.2 111.9 153.2C112.4 153.2 112.7 153.3 113 153.6L112.8 153.9C112.5 153.7 112.2 153.6 111.9 153.6C111.5 153.6 111.2 153.8 111.2 154.1C111.3 154.4 111.5 154.5 112.1 154.7Z" fill="#22576F"/>
<path d="M116.7 155.1C116.7 156 116.2 156.5 115.4 156.5C114.6 156.5 114.1 156 114.1 155.1V153.3H114.5V155.1C114.5 155.8 114.9 156.2 115.5 156.2C116.1 156.2 116.4 155.9 116.4 155.2V153.4H116.8V155.1H116.7Z" fill="#22576F"/>
<path d="M118.2 153.3V156.4H117.8V153.3H118.2Z" fill="#22576F"/>
<path d="M120.4 156.4H120V153.6H119V153.3H121.5V153.6H120.5V156.4H120.4Z" fill="#22576F"/>
<path d="M124.6 153.6H122.7V154.7H124.4V155H122.7V156.1H124.6V156.4H122.3V153.3H124.6V153.6Z" fill="#22576F"/>
<path d="M189.5 123.8H189.1L187.9 122.3L187.2 123V123.8H186.8V120.7H187.2V122.6L189 120.7H189.5L188.2 122.1L189.5 123.8Z" fill="#22576F"/>
<path d="M182.5 70.9H182.9V73.7H184.7V74H182.6V70.9H182.5Z" fill="#22576F"/>
<path d="M185.8 70.9V74H185.4V70.9H185.8Z" fill="#22576F"/>
<path d="M189.3 70.9H189.6V74H189.3L187.3 71.4V74H187V70.9H187.3L189.3 73.4V70.9Z" fill="#22576F"/>
<path d="M32.4 138.9H31.3V135.8H32.4C33.4 135.8 34.1 136.5 34.1 137.4C34.1 138.3 33.4 138.9 32.4 138.9ZM32.4 136.1H31.7V138.6H32.4C33.2 138.6 33.7 138.1 33.7 137.4C33.7 136.7 33.2 136.1 32.4 136.1Z" fill="#22576F"/>
<path d="M53.3 135.8H53.6L54.5 138.4L55.4 135.8H55.8L54.7 138.9H54.4L53.5 136.4L52.6 138.9H52.3L51.2 135.8H51.6L52.5 138.4L53.3 135.8Z" fill="#22576F"/>
<path d="M38.8 81.8H37.7V78.7H38.8C39.8 78.7 40.5 79.4 40.5 80.3C40.5 81.2 39.7 81.8 38.8 81.8ZM38.8 79H38V81.5H38.7C39.5 81.5 40 81 40 80.3C40.1 79.6 39.5 79 38.8 79Z" fill="#22576F"/>
<path d="M43.7 78.7H44V81.8H43.7L41.7 79.2V81.8H41.4V78.7H41.7L43.7 81.2V78.7Z" fill="#22576F"/>
</g>
<defs>
<clipPath id="clip0_0_1">
<rect width="866.2" height="487.5" fill="white" transform="translate(-614 -144)"/>
</clipPath>
</defs>
</svg>
