<?xml version="1.0" encoding="utf-8"?>
<!-- Generator: Adobe Illustrator 25.1.0, SVG Export Plug-In . SVG Version: 6.00 Build 0)  -->
<svg version="1.1" id="Layer_1" xmlns="http://www.w3.org/2000/svg" xmlns:xlink="http://www.w3.org/1999/xlink" x="0px" y="0px"
	 viewBox="0 0 675.45 438.39" style="enable-background:new 0 0 675.45 438.39;" xml:space="preserve">
<style type="text/css">
	.st0{fill:none;stroke:#93A1B1;stroke-width:0.289;stroke-linejoin:round;stroke-miterlimit:10;}
	.st1{fill:none;stroke:#00516B;stroke-width:0.301;stroke-linecap:round;stroke-linejoin:round;stroke-miterlimit:10;}
	
		.st2{fill:none;stroke:#00516B;stroke-width:0.301;stroke-linecap:round;stroke-linejoin:round;stroke-miterlimit:10;stroke-dasharray:4.824,2.412;}
	.st3{fill-rule:evenodd;clip-rule:evenodd;fill:#00516B;}
	.st4{fill:#00516B;}
</style>
<rect x="15.12" y="138.59" class="st0" width="19.75" height="24.69"/>
<rect x="15.12" y="15.12" class="st0" width="19.75" height="24.69"/>
<path class="st0" d="M310.93,126.74h-10.28l-0.44,4.08l1.08,4.09v1.08c-7.12,1.44-14.46,1.44-21.58,0v-1.08l1.08-4.09l-0.44-4.08
	h-12.9l-0.44,4.08l1.08,4.09v1.08c-7.12,1.44-14.46,1.44-21.58,0v-1.08l1.08-4.09l-0.44-4.08h-10.28V87.23h10.28l0.44-4.08
	l-1.08-4.09v-1.08c7.12-1.44,14.46-1.44,21.58,0v1.08L267,83.15l0.44,4.08h12.9l0.44-4.08l-1.08-4.09v-1.08
	c7.12-1.44,14.46-1.44,21.58,0v1.08l-1.08,4.09l0.44,4.08h10.28V126.74z"/>
<polygon class="st0" points="460.54,54.63 460.54,91.67 495.11,91.67 495.11,15.12 386.46,15.12 386.46,54.63 "/>
<path class="st0" d="M403.18,102.45c0-10.23,8.29-18.52,18.52-18.52c10.23,0,18.52,8.29,18.52,18.52c0,10.23-8.29,18.52-18.52,18.52
	C411.47,120.97,403.18,112.68,403.18,102.45z"/>
<rect x="356.78" y="15.12" class="st0" width="24.74" height="25.95"/>
<polygon class="st0" points="133.19,349.86 133.19,343.22 117.76,343.22 117.76,385.67 133.19,385.67 133.19,379.49 138.9,379.49 
	137.03,378.41 151.85,352.75 153.72,353.83 138.9,379.49 138.9,418.69 195,418.69 195,374.24 197.16,374.24 197.16,418.69 
	201.48,418.69 201.48,176.23 370.15,176.23 370.15,161.42 454.11,161.42 454.11,176.23 497.58,176.23 497.58,173.3 504.52,173.3 
	504.52,126.38 497.58,126.38 497.58,12.65 340.31,12.65 340.31,43.52 253.73,43.52 253.73,44.57 275.64,44.57 275.64,43.52 
	276.26,43.52 276.26,44.87 253.11,44.87 253.11,43.52 184.2,43.52 184.2,70.19 185.74,70.19 185.74,49.08 184.2,49.08 184.2,45.99 
	186.21,45.99 186.21,73.28 184.2,73.28 184.2,98 186.98,98 186.98,99.23 184.2,99.23 184.2,127.63 153.33,127.63 153.33,132.71 
	144.69,132.71 144.69,12.65 12.65,12.65 12.65,42.28 113.9,42.28 113.9,136.12 12.65,136.12 12.65,179.01 50.47,179.01 
	50.47,181.09 68.99,181.09 68.99,182.64 50.47,182.64 50.47,184.72 29.94,184.72 29.94,250.31 50.47,250.31 50.47,252.4 
	68.99,252.4 68.99,253.17 87.51,253.17 87.51,250.31 91.83,250.31 91.83,230.4 104.18,230.4 104.18,184.72 87.51,184.72 
	87.51,179.01 144.69,179.01 144.69,172.53 102.71,172.53 102.71,174.69 153.33,174.69 153.33,191.2 171.85,191.2 171.85,189.04 
	147.62,189.04 147.62,184.72 144.92,184.72 144.92,230.4 147.62,230.4 147.62,226.08 171.85,226.08 171.85,223.92 153.33,223.92 
	153.33,286.27 138.9,286.27 138.9,304.79 141.06,304.79 141.06,283.42 104.02,283.42 104.02,304.79 106.18,304.79 106.18,286.27 
	97.54,286.27 97.54,291.21 94.69,291.21 94.69,333.19 97.54,333.19 97.54,337.51 138.9,337.51 138.9,349.86 "/>
<line class="st0" x1="12.65" y1="21.91" x2="15.12" y2="21.91"/>
<line class="st0" x1="495.11" y1="21.91" x2="497.58" y2="21.91"/>
<line class="st0" x1="34.88" y1="21.91" x2="144.69" y2="21.91"/>
<line class="st0" x1="381.52" y1="21.91" x2="386.46" y2="21.91"/>
<line class="st0" x1="340.31" y1="21.91" x2="356.78" y2="21.91"/>
<line class="st0" x1="12.65" y1="31.17" x2="15.12" y2="31.17"/>
<line class="st0" x1="495.11" y1="31.17" x2="497.58" y2="31.17"/>
<line class="st0" x1="34.88" y1="31.17" x2="144.69" y2="31.17"/>
<line class="st0" x1="381.52" y1="31.17" x2="386.46" y2="31.17"/>
<line class="st0" x1="340.31" y1="31.17" x2="356.78" y2="31.17"/>
<line class="st0" x1="12.65" y1="40.43" x2="144.69" y2="40.43"/>
<line class="st0" x1="495.11" y1="40.43" x2="497.58" y2="40.43"/>
<line class="st0" x1="340.31" y1="40.43" x2="356.78" y2="40.43"/>
<line class="st0" x1="381.52" y1="40.43" x2="386.46" y2="40.43"/>
<line class="st0" x1="113.9" y1="49.69" x2="144.69" y2="49.69"/>
<line class="st0" x1="495.11" y1="49.69" x2="497.58" y2="49.69"/>
<line class="st0" x1="184.2" y1="49.69" x2="185.74" y2="49.69"/>
<line class="st0" x1="186.21" y1="49.69" x2="386.46" y2="49.69"/>
<line class="st0" x1="113.9" y1="58.95" x2="144.69" y2="58.95"/>
<line class="st0" x1="495.11" y1="58.95" x2="497.58" y2="58.95"/>
<line class="st0" x1="184.2" y1="58.95" x2="185.74" y2="58.95"/>
<line class="st0" x1="186.21" y1="58.95" x2="460.54" y2="58.95"/>
<line class="st0" x1="113.9" y1="68.21" x2="144.69" y2="68.21"/>
<line class="st0" x1="495.11" y1="68.21" x2="497.58" y2="68.21"/>
<line class="st0" x1="184.2" y1="68.21" x2="185.74" y2="68.21"/>
<line class="st0" x1="186.21" y1="68.21" x2="460.54" y2="68.21"/>
<line class="st0" x1="113.9" y1="77.47" x2="144.69" y2="77.47"/>
<line class="st0" x1="495.11" y1="77.47" x2="497.58" y2="77.47"/>
<line class="st0" x1="184.2" y1="77.47" x2="249.42" y2="77.47"/>
<line class="st0" x1="298.37" y1="77.47" x2="460.54" y2="77.47"/>
<line class="st0" x1="265.16" y1="77.47" x2="282.63" y2="77.47"/>
<line class="st0" x1="113.9" y1="86.73" x2="144.69" y2="86.73"/>
<line class="st0" x1="495.11" y1="86.73" x2="497.58" y2="86.73"/>
<line class="st0" x1="184.2" y1="86.73" x2="247.19" y2="86.73"/>
<line class="st0" x1="431.49" y1="86.73" x2="460.54" y2="86.73"/>
<line class="st0" x1="267.39" y1="86.73" x2="280.4" y2="86.73"/>
<line class="st0" x1="300.6" y1="86.73" x2="411.91" y2="86.73"/>
<line class="st0" x1="113.9" y1="95.99" x2="144.69" y2="95.99"/>
<line class="st0" x1="439.06" y1="95.99" x2="497.58" y2="95.99"/>
<line class="st0" x1="184.2" y1="95.99" x2="236.85" y2="95.99"/>
<line class="st0" x1="310.93" y1="95.99" x2="404.34" y2="95.99"/>
<line class="st0" x1="113.9" y1="105.25" x2="144.69" y2="105.25"/>
<line class="st0" x1="440.01" y1="105.25" x2="497.58" y2="105.25"/>
<line class="st0" x1="184.2" y1="105.25" x2="236.85" y2="105.25"/>
<line class="st0" x1="310.93" y1="105.25" x2="403.39" y2="105.25"/>
<line class="st0" x1="113.9" y1="114.51" x2="144.69" y2="114.51"/>
<line class="st0" x1="435.76" y1="114.51" x2="497.58" y2="114.51"/>
<line class="st0" x1="184.2" y1="114.51" x2="236.85" y2="114.51"/>
<line class="st0" x1="310.93" y1="114.51" x2="407.65" y2="114.51"/>
<line class="st0" x1="113.9" y1="123.77" x2="144.69" y2="123.77"/>
<line class="st0" x1="310.93" y1="123.77" x2="497.58" y2="123.77"/>
<line class="st0" x1="184.2" y1="123.77" x2="236.85" y2="123.77"/>
<line class="st0" x1="113.9" y1="133.03" x2="246.99" y2="133.03"/>
<line class="st0" x1="300.8" y1="133.03" x2="504.53" y2="133.03"/>
<line class="st0" x1="267.58" y1="133.03" x2="280.2" y2="133.03"/>
<line class="st0" x1="12.65" y1="142.29" x2="15.12" y2="142.29"/>
<line class="st0" x1="34.88" y1="142.29" x2="504.52" y2="142.29"/>
<line class="st0" x1="12.65" y1="151.55" x2="15.12" y2="151.55"/>
<line class="st0" x1="34.88" y1="151.55" x2="504.52" y2="151.55"/>
<line class="st0" x1="12.65" y1="160.81" x2="15.12" y2="160.81"/>
<line class="st0" x1="34.88" y1="160.81" x2="504.52" y2="160.81"/>
<line class="st0" x1="12.65" y1="170.08" x2="370.15" y2="170.08"/>
<line class="st0" x1="454.11" y1="170.08" x2="504.53" y2="170.08"/>
<line class="st0" x1="50.47" y1="179.34" x2="87.51" y2="179.34"/>
<line class="st0" x1="153.33" y1="179.34" x2="201.48" y2="179.34"/>
<line class="st0" x1="29.94" y1="188.6" x2="104.18" y2="188.6"/>
<line class="st0" x1="153.33" y1="188.6" x2="201.48" y2="188.6"/>
<line class="st0" x1="144.92" y1="188.6" x2="147.62" y2="188.6"/>
<line class="st0" x1="29.94" y1="197.86" x2="104.18" y2="197.86"/>
<line class="st0" x1="144.92" y1="197.86" x2="201.48" y2="197.86"/>
<line class="st0" x1="29.94" y1="207.12" x2="104.18" y2="207.12"/>
<line class="st0" x1="144.92" y1="207.12" x2="201.48" y2="207.12"/>
<line class="st0" x1="29.94" y1="216.38" x2="104.18" y2="216.38"/>
<line class="st0" x1="144.92" y1="216.38" x2="201.48" y2="216.38"/>
<line class="st0" x1="29.94" y1="225.64" x2="104.18" y2="225.64"/>
<line class="st0" x1="171.85" y1="225.64" x2="201.48" y2="225.64"/>
<line class="st0" x1="144.92" y1="225.64" x2="153.33" y2="225.64"/>
<line class="st0" x1="29.94" y1="234.9" x2="91.83" y2="234.9"/>
<line class="st0" x1="153.33" y1="234.9" x2="201.48" y2="234.9"/>
<line class="st0" x1="29.94" y1="244.16" x2="91.83" y2="244.16"/>
<line class="st0" x1="153.33" y1="244.16" x2="201.48" y2="244.16"/>
<line class="st0" x1="153.33" y1="253.42" x2="201.48" y2="253.42"/>
<line class="st0" x1="153.33" y1="262.68" x2="201.48" y2="262.68"/>
<line class="st0" x1="153.33" y1="271.94" x2="201.48" y2="271.94"/>
<line class="st0" x1="153.33" y1="281.2" x2="201.48" y2="281.2"/>
<line class="st0" x1="97.54" y1="290.46" x2="104.02" y2="290.46"/>
<line class="st0" x1="141.06" y1="290.46" x2="201.48" y2="290.46"/>
<line class="st0" x1="106.18" y1="290.46" x2="138.9" y2="290.46"/>
<line class="st0" x1="94.69" y1="299.72" x2="104.02" y2="299.72"/>
<line class="st0" x1="141.06" y1="299.72" x2="201.48" y2="299.72"/>
<line class="st0" x1="106.18" y1="299.72" x2="138.9" y2="299.72"/>
<line class="st0" x1="94.69" y1="308.98" x2="201.48" y2="308.98"/>
<line class="st0" x1="94.69" y1="318.24" x2="201.48" y2="318.24"/>
<line class="st0" x1="94.69" y1="327.5" x2="201.48" y2="327.5"/>
<line class="st0" x1="97.54" y1="336.76" x2="201.48" y2="336.76"/>
<line class="st0" x1="117.76" y1="346.02" x2="133.19" y2="346.02"/>
<line class="st0" x1="138.9" y1="346.02" x2="201.48" y2="346.02"/>
<line class="st0" x1="117.76" y1="355.28" x2="150.39" y2="355.28"/>
<line class="st0" x1="152.88" y1="355.28" x2="201.48" y2="355.28"/>
<line class="st0" x1="117.76" y1="364.54" x2="145.04" y2="364.54"/>
<line class="st0" x1="147.54" y1="364.54" x2="201.48" y2="364.54"/>
<line class="st0" x1="117.76" y1="373.8" x2="139.69" y2="373.8"/>
<line class="st0" x1="142.19" y1="373.8" x2="201.48" y2="373.8"/>
<line class="st0" x1="117.76" y1="383.06" x2="133.19" y2="383.06"/>
<line class="st0" x1="197.16" y1="383.06" x2="201.48" y2="383.06"/>
<line class="st0" x1="138.9" y1="383.06" x2="195" y2="383.06"/>
<line class="st0" x1="138.9" y1="392.32" x2="195" y2="392.32"/>
<line class="st0" x1="197.16" y1="392.32" x2="201.48" y2="392.32"/>
<line class="st0" x1="138.9" y1="401.58" x2="195" y2="401.58"/>
<line class="st0" x1="197.16" y1="401.58" x2="201.48" y2="401.58"/>
<line class="st0" x1="138.9" y1="410.84" x2="195" y2="410.84"/>
<line class="st0" x1="197.16" y1="410.84" x2="201.48" y2="410.84"/>
<polygon class="st1" points="124.7,429.19 124.7,396.16 0.15,396.16 0.15,0.15 13.89,0.15 13.89,5.71 15.12,5.71 15.12,12.65 
	12.65,12.65 12.65,179.01 50.47,179.01 50.47,180.47 12.81,180.47 12.81,183.25 50.47,183.25 50.47,184.72 12.65,184.72 
	12.65,250.31 50.47,250.31 50.47,251.78 12.81,251.78 12.81,254.56 50.47,254.56 50.47,256.02 12.65,256.02 12.65,335.66 
	17.74,335.66 17.74,377.64 91.83,377.64 91.83,333.19 97.54,333.19 97.54,337.51 138.9,337.51 138.9,349.86 133.19,349.86 
	133.19,343.22 100.47,343.22 100.47,385.66 133.19,385.66 133.19,379.49 138.9,379.49 138.9,418.69 152.71,418.69 152.71,429.19 "/>
<polygon class="st1" points="675.3,188.73 675.3,34.94 655.85,34.94 655.85,67.58 662.8,67.58 662.8,173.3 497.58,173.3 
	497.58,176.23 201.48,176.23 201.48,418.69 197.16,418.69 197.16,429.19 213.99,429.19 213.99,188.73 "/>
<polygon class="st1" points="112.04,12.65 112.04,5.71 113.28,5.71 113.28,0.15 168.84,0.15 168.84,5.71 170.08,5.71 170.08,12.65 
	153.33,12.65 153.33,132.71 144.69,132.71 144.69,12.65 "/>
<polygon class="st1" points="282.12,0.15 282.12,5.71 280.89,5.71 280.89,12.65 312.84,12.65 312.84,43.42 340.31,43.42 
	340.31,5.71 338.92,5.71 338.92,0.15 "/>
<line class="st1" x1="144.92" y1="230.4" x2="144.92" y2="184.72"/>
<line class="st1" x1="117.76" y1="343.22" x2="117.76" y2="385.66"/>
<line class="st1" x1="117.76" y1="385.67" x2="109.42" y2="385.67"/>
<line class="st1" x1="655.85" y1="62.1" x2="510.08" y2="62.1"/>
<rect x="153.33" y="95.53" class="st1" width="30.87" height="1.24"/>
<rect x="153.33" y="126.4" class="st1" width="30.87" height="1.24"/>
<polyline class="st1" points="280.73,43.52 184.2,43.52 184.2,95.53 "/>
<rect x="311.6" y="12.65" class="st1" width="1.23" height="30.87"/>
<rect x="280.73" y="12.65" class="st1" width="1.23" height="30.87"/>
<rect x="12.65" y="295.53" class="st1" width="27.78" height="37.04"/>
<polyline class="st1" points="29.94,184.72 29.94,202 12.65,202 "/>
<line class="st1" x1="29.94" y1="250.31" x2="29.94" y2="202"/>
<line class="st1" x1="104.18" y1="184.72" x2="104.18" y2="230.4"/>
<rect x="107.38" y="239.85" class="st1" width="33.34" height="37.04"/>
<line class="st1" x1="107.38" y1="268.25" x2="140.72" y2="268.25"/>
<polyline class="st1" points="137.01,268.25 137.01,273.19 111.08,273.19 111.08,268.25 "/>
<rect x="181.73" y="96.77" class="st1" width="2.47" height="29.63"/>
<rect x="184.2" y="98" class="st1" width="2.78" height="1.23"/>
<line class="st1" x1="155.8" y1="126.4" x2="155.8" y2="96.77"/>
<polyline class="st1" points="232.49,19.13 247.4,19.13 247.4,41.36 219,41.36 219,19.13 231.06,19.13 "/>
<path class="st1" d="M233.2,17.9c0.68,0,1.23-0.55,1.23-1.23c0-0.68-0.55-1.23-1.23-1.23c-0.68,0-1.24,0.55-1.24,1.23
	c0,0.22,0.06,0.43,0.17,0.62"/>
<line class="st1" x1="233.2" y1="17.9" x2="228.18" y2="26.6"/>
<line class="st1" x1="232.13" y1="17.28" x2="227.11" y2="25.98"/>
<path class="st1" d="M227.11,25.98c-0.17,0.3-0.07,0.67,0.22,0.84c0.3,0.17,0.68,0.07,0.85-0.23"/>
<line class="st1" x1="234.02" y1="15.74" x2="235.67" y2="15.74"/>
<line class="st1" x1="234.02" y1="17.59" x2="235.05" y2="17.59"/>
<line class="st1" x1="235.67" y1="17.59" x2="235.67" y2="15.74"/>
<line class="st1" x1="235.36" y1="16.97" x2="235.36" y2="18.67"/>
<line class="st1" x1="235.05" y1="16.97" x2="235.05" y2="18.67"/>
<line class="st1" x1="235.05" y1="18.67" x2="235.36" y2="18.67"/>
<line class="st1" x1="235.05" y1="16.97" x2="235.36" y2="16.97"/>
<line class="st1" x1="235.36" y1="17.59" x2="235.67" y2="17.59"/>
<line class="st1" x1="230.96" y1="21.78" x2="229.89" y2="21.17"/>
<path class="st1" d="M231.35,25.31c0-1.02,0.83-1.85,1.85-1.85c1.02,0,1.85,0.83,1.85,1.85c0,1.02-0.83,1.85-1.85,1.85
	C232.18,27.16,231.35,26.33,231.35,25.31z"/>
<path class="st1" d="M25.63,308.43c0-1.03,0.83-1.86,1.86-1.86s1.86,0.83,1.86,1.86c0,1.03-0.83,1.86-1.86,1.86
	S25.63,309.46,25.63,308.43z"/>
<path class="st1" d="M26.41,308.43c0-0.6,0.48-1.08,1.08-1.08c0.6,0,1.08,0.48,1.08,1.08c0,0.6-0.48,1.08-1.08,1.08
	C26.9,309.51,26.41,309.02,26.41,308.43z"/>
<line class="st1" x1="22.49" y1="309.22" x2="16.63" y2="309.22"/>
<path class="st1" d="M22.49,309.22c0.24,0,0.44-0.19,0.44-0.44"/>
<path class="st1" d="M22.92,308.07c0-0.24-0.2-0.44-0.44-0.44"/>
<line class="st1" x1="22.92" y1="308.78" x2="22.92" y2="308.07"/>
<path class="st1" d="M16.51,307.78c0.12,0.14,0.3,0.22,0.49,0.22"/>
<path class="st1" d="M16.99,308.85c-0.19,0-0.37,0.08-0.49,0.22"/>
<line class="st1" x1="19.75" y1="308.85" x2="16.99" y2="308.85"/>
<line class="st1" x1="16.99" y1="308" x2="19.75" y2="308"/>
<path class="st1" d="M19.99,308.24c0-0.13-0.11-0.24-0.24-0.24"/>
<line class="st1" x1="19.99" y1="308.61" x2="19.99" y2="308.24"/>
<path class="st1" d="M16.17,307.54c0.14,0.06,0.3,0.1,0.46,0.1"/>
<path class="st1" d="M16.63,309.22c-0.16,0-0.32,0.03-0.46,0.1"/>
<line class="st1" x1="16.63" y1="307.63" x2="22.48" y2="307.63"/>
<path class="st1" d="M16.64,307.63c-0.44-0.48-1.18-0.5-1.66-0.07c-0.48,0.44-0.51,1.18-0.07,1.65c0.44,0.48,1.18,0.51,1.66,0.07
	c0.02-0.02,0.04-0.04,0.07-0.07"/>
<path class="st1" d="M16.51,307.78c-0.36-0.4-0.97-0.44-1.37-0.08c-0.4,0.36-0.44,0.97-0.08,1.37c0.35,0.4,0.97,0.44,1.37,0.08
	c0.03-0.02,0.06-0.05,0.08-0.08"/>
<path class="st1" d="M19.75,308.85c0.13,0,0.24-0.11,0.24-0.24"/>
<path class="st1" d="M18.27,309.22c0.44,5.1,4.92,8.87,10.02,8.43c5.1-0.44,8.87-4.92,8.43-10.02c-0.44-5.1-4.92-8.87-10.02-8.43
	c-4.49,0.39-8.05,3.95-8.43,8.43"/>
<line class="st1" x1="182.04" y1="45.87" x2="182.04" y2="73.4"/>
<line class="st1" x1="156.73" y1="45.87" x2="156.73" y2="73.4"/>
<line class="st1" x1="181.61" y1="73.83" x2="157.16" y2="73.83"/>
<line class="st1" x1="181.61" y1="45.43" x2="157.16" y2="45.43"/>
<path class="st1" d="M181.61,73.83c0.24,0,0.43-0.19,0.43-0.43"/>
<path class="st1" d="M156.73,73.4c0,0.24,0.19,0.43,0.43,0.43"/>
<path class="st1" d="M157.16,45.43c-0.24,0-0.43,0.19-0.43,0.43"/>
<path class="st1" d="M182.04,45.87c0-0.24-0.19-0.43-0.43-0.43"/>
<line class="st1" x1="157.96" y1="46.36" x2="177.72" y2="46.36"/>
<line class="st1" x1="157.96" y1="72.91" x2="177.72" y2="72.91"/>
<line class="st1" x1="157.34" y1="72.29" x2="157.34" y2="60.25"/>
<line class="st1" x1="178.33" y1="72.29" x2="178.33" y2="60.25"/>
<path class="st1" d="M157.34,72.29c0,0.34,0.28,0.62,0.62,0.62"/>
<path class="st1" d="M157.96,46.36c-0.34,0-0.62,0.28-0.62,0.62"/>
<path class="st1" d="M178.33,46.98c0-0.34-0.28-0.62-0.62-0.62"/>
<path class="st1" d="M177.72,72.91c0.34,0,0.62-0.28,0.62-0.62"/>
<line class="st1" x1="157.96" y1="59.63" x2="177.72" y2="59.63"/>
<line class="st1" x1="157.34" y1="59.02" x2="157.34" y2="46.98"/>
<line class="st1" x1="178.33" y1="59.02" x2="178.33" y2="46.98"/>
<path class="st1" d="M178.33,60.25c0-0.34-0.28-0.62-0.62-0.62"/>
<path class="st1" d="M157.96,59.63c-0.34,0-0.62,0.28-0.62,0.62"/>
<path class="st1" d="M177.72,59.63c0.34,0,0.62-0.28,0.62-0.62"/>
<path class="st1" d="M157.34,59.02c0,0.34,0.28,0.62,0.62,0.62"/>
<rect x="158.27" y="60.56" class="st1" width="19.14" height="11.42"/>
<line class="st1" x1="160.18" y1="72.6" x2="160.18" y2="59.94"/>
<line class="st1" x1="176.64" y1="72.6" x2="176.64" y2="59.94"/>
<line class="st1" x1="166.76" y1="46.67" x2="166.76" y2="59.32"/>
<line class="st1" x1="170.05" y1="46.67" x2="170.05" y2="59.32"/>
<line class="st1" x1="173.35" y1="46.67" x2="173.35" y2="49.87"/>
<line class="st1" x1="178.03" y1="67.23" x2="175.51" y2="67.23"/>
<line class="st1" x1="178.03" y1="52.04" x2="175.51" y2="52.04"/>
<line class="st1" x1="163.47" y1="46.67" x2="163.47" y2="49.87"/>
<path class="st1" d="M171.88,67.23c0-0.81,0.66-1.47,1.47-1.47c0.81,0,1.47,0.66,1.47,1.47c0,0.81-0.66,1.47-1.47,1.47
	C172.54,68.69,171.88,68.04,171.88,67.23z"/>
<path class="st1" d="M171.88,52.04c0-0.81,0.66-1.47,1.47-1.47c0.81,0,1.47,0.66,1.47,1.47c0,0.81-0.66,1.47-1.47,1.47
	C172.54,53.5,171.88,52.85,171.88,52.04z"/>
<path class="st1" d="M161.69,67.23c0-0.98,0.79-1.77,1.77-1.77c0.98,0,1.77,0.8,1.77,1.77c0,0.98-0.79,1.78-1.77,1.78
	C162.49,69,161.69,68.21,161.69,67.23z"/>
<path class="st1" d="M161.08,52.04c0-1.32,1.07-2.39,2.39-2.39c1.32,0,2.39,1.07,2.39,2.39c0,1.32-1.07,2.39-2.39,2.39
	C162.15,54.43,161.08,53.36,161.08,52.04z"/>
<rect x="158.27" y="47.29" class="st1" width="19.14" height="11.42"/>
<line class="st1" x1="176.64" y1="59.32" x2="176.64" y2="46.67"/>
<line class="st1" x1="173.35" y1="59.94" x2="173.35" y2="65.07"/>
<line class="st1" x1="173.35" y1="59.94" x2="173.35" y2="65.07"/>
<line class="st1" x1="170.05" y1="59.94" x2="170.05" y2="72.6"/>
<line class="st1" x1="166.76" y1="59.94" x2="166.76" y2="72.6"/>
<line class="st1" x1="163.47" y1="59.94" x2="163.47" y2="65.07"/>
<line class="st1" x1="160.18" y1="59.32" x2="160.18" y2="46.67"/>
<line class="st1" x1="171.19" y1="67.23" x2="165.63" y2="67.23"/>
<line class="st1" x1="173.35" y1="69.39" x2="173.35" y2="72.6"/>
<line class="st1" x1="173.35" y1="69.39" x2="173.35" y2="72.6"/>
<line class="st1" x1="163.47" y1="69.39" x2="163.47" y2="72.6"/>
<line class="st1" x1="161.31" y1="67.23" x2="157.65" y2="67.23"/>
<line class="st1" x1="161.31" y1="52.04" x2="157.65" y2="52.04"/>
<line class="st1" x1="163.47" y1="54.2" x2="163.47" y2="59.32"/>
<line class="st1" x1="171.19" y1="52.04" x2="165.63" y2="52.04"/>
<line class="st1" x1="173.35" y1="54.2" x2="173.35" y2="59.32"/>
<path class="st1" d="M181.13,63.55c-0.13-0.5-0.63-0.79-1.13-0.67c-0.49,0.13-0.79,0.63-0.66,1.13c0.13,0.49,0.63,0.79,1.13,0.67
	c0.33-0.09,0.58-0.34,0.67-0.67"/>
<rect x="179.59" y="63.55" class="st1" width="1.85" height="0.46"/>
<path class="st1" d="M181.13,55.25c-0.13-0.5-0.63-0.79-1.13-0.67c-0.49,0.13-0.79,0.63-0.66,1.13c0.13,0.49,0.63,0.79,1.13,0.67
	c0.33-0.09,0.58-0.34,0.67-0.67"/>
<rect x="179.59" y="55.25" class="st1" width="1.85" height="0.46"/>
<path class="st1" d="M181.13,60.78c-0.13-0.5-0.63-0.79-1.13-0.67c-0.49,0.13-0.79,0.64-0.66,1.13c0.13,0.49,0.63,0.79,1.13,0.67
	c0.33-0.09,0.58-0.34,0.67-0.67"/>
<rect x="179.59" y="60.78" class="st1" width="1.85" height="0.46"/>
<path class="st1" d="M181.13,58.02c-0.13-0.5-0.63-0.79-1.13-0.66c-0.49,0.13-0.79,0.63-0.66,1.13c0.13,0.5,0.63,0.79,1.13,0.67
	c0.33-0.09,0.58-0.34,0.67-0.67"/>
<rect x="179.59" y="58.02" class="st1" width="1.85" height="0.46"/>
<rect x="185.74" y="45.99" class="st1" width="0.46" height="27.29"/>
<rect x="184.2" y="45.99" class="st1" width="1.54" height="3.09"/>
<rect x="184.2" y="70.19" class="st1" width="1.54" height="3.09"/>
<polyline class="st1" points="275.64,43.52 275.64,44.56 253.73,44.56 253.73,43.52 "/>
<polyline class="st1" points="276.26,43.52 276.26,44.87 253.11,44.87 253.11,43.52 "/>
<path class="st1" d="M30.94,283.94c1.58,0.47,3.23,0.71,4.88,0.71"/>
<path class="st1" d="M27.1,282.05c1.17,0.84,2.47,1.48,3.84,1.89"/>
<path class="st1" d="M25.93,281.06c0.36,0.36,0.75,0.69,1.17,0.99"/>
<path class="st1" d="M35.82,284.65c1.65,0,3.3-0.24,4.88-0.71c1.38-0.41,2.68-1.05,3.84-1.89c1.12-0.81,2.06-1.84,2.75-3.04
	c0.57-0.98,0.87-2.1,0.87-3.23c0-1.13-0.3-2.25-0.87-3.23c-0.69-1.2-1.63-2.23-2.75-3.04c-1.17-0.84-2.47-1.48-3.84-1.89
	c-1.58-0.47-3.23-0.71-4.88-0.71c-1.65,0-3.3,0.24-4.88,0.71c-1.38,0.41-2.68,1.05-3.85,1.89c-0.41,0.3-0.8,0.63-1.17,0.99v10.57"/>
<path class="st1" d="M20.3,282.73c3.94,0.23,7.87,0.73,11.74,1.5"/>
<path class="st1" d="M21.68,272.34c-0.17-0.88-0.45-1.74-0.83-2.56c-0.45-0.96-1.14-1.78-2-2.39c-0.33-0.24-0.74-0.32-1.14-0.25
	l-3.65,0.7c-0.24,0.05-0.41,0.26-0.41,0.5v14.89c0,0.24,0.17,0.45,0.41,0.5l3.65,0.7c0.4,0.08,0.81-0.01,1.14-0.25
	c0.86-0.61,1.55-1.44,2-2.39c0.38-0.82,0.66-1.68,0.83-2.56c0.22-1.13,0.33-2.29,0.33-3.44C22.01,274.62,21.9,273.47,21.68,272.34z"
	/>
<path class="st1" d="M20.3,268.83c3.94-0.23,7.87-0.73,11.74-1.5"/>
<path class="st1" d="M17.27,275.78c0-0.51,0.41-0.93,0.93-0.93s0.93,0.42,0.93,0.93c0,0.51-0.41,0.93-0.93,0.93
	S17.27,276.29,17.27,275.78z"/>
<rect x="73.73" y="314.77" transform="matrix(0.5 -0.866 0.866 0.5 -250.4423 230.2561)" class="st1" width="0.93" height="34.49"/>
<line class="st1" x1="91.83" y1="338.22" x2="85.86" y2="338.22"/>
<line class="st1" x1="84" y1="338.22" x2="17.74" y2="338.22"/>
<polyline class="st1" points="91.83,340.24 89.36,340.24 89.36,341.17 91.83,341.17 "/>
<rect x="17.75" y="340.24" class="st1" width="37.12" height="0.93"/>
<line class="st1" x1="17.91" y1="357.27" x2="21.14" y2="357.27"/>
<line class="st1" x1="21.14" y1="357.27" x2="21.14" y2="358.5"/>
<line class="st1" x1="21.14" y1="358.5" x2="17.91" y2="358.5"/>
<line class="st1" x1="17.74" y1="357.11" x2="17.91" y2="357.11"/>
<line class="st1" x1="17.91" y1="357.11" x2="17.91" y2="358.66"/>
<line class="st1" x1="17.91" y1="358.66" x2="17.74" y2="358.66"/>
<line class="st1" x1="21.34" y1="355.08" x2="21.34" y2="359.52"/>
<line class="st1" x1="21.07" y1="361.23" x2="20.17" y2="361.23"/>
<line class="st1" x1="20.17" y1="361.23" x2="20.17" y2="358.5"/>
<line class="st1" x1="20.17" y1="357.27" x2="20.17" y2="355.08"/>
<line class="st1" x1="20.17" y1="355.08" x2="21.34" y2="355.08"/>
<line class="st1" x1="21.34" y1="356.24" x2="20.17" y2="356.24"/>
<path class="st1" d="M22.99,358.47c0.09-0.01,0.18-0.01,0.27,0c0.91,0.09,1.59,1.08,1.51,2.21c-0.07,1.12-0.87,1.96-1.78,1.87"/>
<path class="st1" d="M21.2,360.51c0-1.13,0.73-2.05,1.65-2.05c0.91,0,1.66,0.91,1.66,2.04c0,1.13-0.74,2.05-1.65,2.05
	C21.94,362.56,21.2,361.64,21.2,360.51z"/>
<path class="st1" d="M21.51,359.32c-0.05,0.06-0.1,0.12-0.15,0.19c-0.11,0.13-0.22,0.25-0.36,0.34c-0.09,0.05-0.19,0.09-0.29,0.11
	c-0.05,0.01-0.1,0.01-0.15,0.01"/>
<path class="st1" d="M21.51,361.7c-0.05-0.06-0.11-0.13-0.16-0.19c-0.11-0.13-0.22-0.25-0.36-0.34c-0.09-0.05-0.19-0.09-0.29-0.11
	c-0.05-0.01-0.1-0.01-0.14-0.01"/>
<path class="st1" d="M20.56,359.96c-0.3,0.13-0.44,0.48-0.31,0.78c0.06,0.14,0.17,0.25,0.31,0.31"/>
<line class="st1" x1="17.74" y1="357.11" x2="17.74" y2="358.66"/>
<path class="st1" d="M26.49,359.47c0-1.59,1.29-2.88,2.88-2.88c1.59,0,2.88,1.29,2.88,2.88c0,1.59-1.29,2.88-2.88,2.88
	C27.77,362.35,26.49,361.06,26.49,359.47z"/>
<line class="st1" x1="17.74" y1="343.16" x2="91.83" y2="343.16"/>
<line class="st1" x1="19.6" y1="357.27" x2="19.6" y2="343.16"/>
<polyline class="st1" points="89.97,343.16 89.97,375.79 70.93,375.79 "/>
<polyline class="st1" points="68.27,375.79 19.6,375.79 19.6,358.5 "/>
<path class="st1" d="M59.48,323c-3.03,5.24-4.62,11.19-4.62,17.25"/>
<line class="st1" x1="68.25" y1="376" x2="70.95" y2="376"/>
<line class="st1" x1="74.08" y1="376.63" x2="65.13" y2="376.63"/>
<path class="st1" d="M68.25,376c-1.03,0.08-2.06,0.26-3.06,0.54"/>
<path class="st1" d="M74.01,376.54c-1-0.27-2.02-0.45-3.06-0.54"/>
<line class="st1" x1="74.09" y1="376.95" x2="74.08" y2="376.63"/>
<line class="st1" x1="65.13" y1="376.63" x2="65.11" y2="376.95"/>
<path class="st1" d="M74.08,376.63c0-0.04-0.03-0.08-0.07-0.09"/>
<path class="st1" d="M65.2,376.54c-0.04,0.01-0.07,0.05-0.07,0.09"/>
<line class="st1" x1="70.93" y1="376" x2="70.93" y2="374.83"/>
<line class="st1" x1="68.27" y1="374.83" x2="68.27" y2="376"/>
<line class="st1" x1="68.55" y1="374.16" x2="69.59" y2="374.16"/>
<line class="st1" x1="69.59" y1="374.16" x2="69.61" y2="374.16"/>
<line class="st1" x1="70.88" y1="374.16" x2="70.65" y2="374.16"/>
<line class="st1" x1="68.55" y1="374.16" x2="68.32" y2="374.16"/>
<line class="st1" x1="69.61" y1="374.16" x2="70.65" y2="374.16"/>
<line class="st1" x1="70.89" y1="374.14" x2="70.86" y2="372.27"/>
<line class="st1" x1="68.34" y1="372.27" x2="68.31" y2="374.14"/>
<path class="st1" d="M70.88,374.16c0.01,0,0.01-0.01,0.01-0.01"/>
<path class="st1" d="M68.31,374.14c0,0.01,0.01,0.01,0.01,0.02"/>
<path class="st1" d="M68.38,372.23c-0.02,0-0.04,0.02-0.04,0.04"/>
<path class="st1" d="M70.86,372.27c0-0.02-0.02-0.04-0.04-0.04"/>
<path class="st1" d="M70.82,372.23c-0.82-0.03-1.63-0.03-2.45,0"/>
<path class="st1" d="M70.93,374.83c0-0.24-0.06-0.47-0.19-0.67"/>
<path class="st1" d="M68.46,374.16c-0.12,0.2-0.19,0.44-0.19,0.68"/>
<line class="st1" x1="65.11" y1="376.95" x2="65.11" y2="377.64"/>
<line class="st1" x1="74.09" y1="376.95" x2="74.09" y2="377.64"/>
<line class="st1" x1="15.12" y1="136.12" x2="15.12" y2="42.28"/>
<rect x="12.65" y="42.29" class="st1" width="101.24" height="93.84"/>
<path class="st1" d="M36.11,87.97c-6.48-1.65-13.27-1.65-19.76,0c1.65-14.36,1.65-28.86,0-43.21c6.48,1.65,13.27,1.65,19.76,0
	c-0.14,0.98-0.12,1.81-0.23,2.8"/>
<path class="st1" d="M41.51,86.12c-5.7-1.5-11.68-1.5-17.38,0c1.45-13.13,1.45-26.38,0-39.51c5.7,1.5,11.68,1.5,17.38,0
	C39.66,46.61,39.66,86.12,41.51,86.12z"/>
<path class="st1" d="M41.51,131.9c-5.7-1.5-11.68-1.5-17.38,0c1.45-13.13,1.45-26.38,0-39.51c5.7,1.5,11.68,1.5,17.38,0
	C39.66,92.39,39.66,131.9,41.51,131.9z"/>
<path class="st1" d="M36.11,90.44c-6.48,1.65-13.27,1.65-19.76,0c1.65,14.36,1.65,28.86,0,43.21c6.48-1.65,13.27-1.65,19.76,0
	c-0.14-0.98-0.27-1.71-0.39-2.7"/>
<line class="st1" x1="27.47" y1="42.28" x2="27.47" y2="45.97"/>
<line class="st1" x1="43.52" y1="42.28" x2="43.52" y2="136.12"/>
<line class="st1" x1="27.47" y1="86.75" x2="27.47" y2="91.65"/>
<line class="st1" x1="27.47" y1="132.44" x2="27.47" y2="136.12"/>
<path class="st1" d="M35.74,85.14c0.12,0.99,0.23,1.84,0.37,2.83"/>
<path class="st1" d="M36.11,90.44c-0.14,0.98-0.27,1.97-0.39,2.95"/>
<rect x="15.12" y="15.12" class="st1" width="19.76" height="24.69"/>
<rect x="15.12" y="138.59" class="st1" width="19.76" height="24.69"/>
<path class="st1" d="M17.66,150.94c0-4.05,3.29-7.34,7.34-7.34s7.34,3.29,7.34,7.34c0,4.05-3.29,7.34-7.34,7.34
	S17.66,154.99,17.66,150.94z"/>
<path class="st1" d="M23.11,150.94c0-1.04,0.84-1.88,1.88-1.88c1.04,0,1.89,0.84,1.89,1.88c0,1.04-0.84,1.89-1.89,1.89
	C23.96,152.82,23.11,151.98,23.11,150.94z"/>
<line class="st1" x1="25" y1="158.28" x2="25" y2="152.82"/>
<line class="st1" x1="25" y1="149.05" x2="25" y2="143.6"/>
<line class="st1" x1="17.66" y1="150.94" x2="23.11" y2="150.94"/>
<line class="st1" x1="26.88" y1="150.94" x2="32.34" y2="150.94"/>
<path class="st1" d="M17.66,27.47c0-4.05,3.29-7.34,7.34-7.34s7.34,3.29,7.34,7.34c0,4.05-3.29,7.34-7.34,7.34
	S17.66,31.52,17.66,27.47z"/>
<path class="st1" d="M23.11,27.47c0-1.04,0.84-1.88,1.88-1.88c1.04,0,1.89,0.84,1.89,1.88c0,1.04-0.84,1.89-1.89,1.89
	C23.96,29.35,23.11,28.51,23.11,27.47z"/>
<line class="st1" x1="25" y1="34.81" x2="25" y2="29.35"/>
<line class="st1" x1="25" y1="25.58" x2="25" y2="20.13"/>
<line class="st1" x1="17.66" y1="27.47" x2="23.11" y2="27.47"/>
<line class="st1" x1="26.88" y1="27.47" x2="32.34" y2="27.47"/>
<rect x="370.15" y="161.41" class="st1" width="83.96" height="14.82"/>
<line class="st1" x1="495.11" y1="15.12" x2="386.46" y2="15.12"/>
<line class="st1" x1="386.46" y1="54.63" x2="386.46" y2="15.12"/>
<line class="st1" x1="391.4" y1="54.63" x2="391.4" y2="21.29"/>
<line class="st1" x1="490.17" y1="20.06" x2="386.46" y2="20.06"/>
<line class="st1" x1="460.54" y1="54.63" x2="386.46" y2="54.63"/>
<line class="st1" x1="460.54" y1="54.63" x2="460.54" y2="22.53"/>
<line class="st1" x1="425.97" y1="54.63" x2="425.97" y2="22.53"/>
<line class="st1" x1="386.46" y1="21.29" x2="391.4" y2="21.29"/>
<line class="st1" x1="495.11" y1="15.12" x2="495.11" y2="91.67"/>
<line class="st1" x1="460.54" y1="91.67" x2="495.11" y2="91.67"/>
<line class="st1" x1="490.17" y1="20.06" x2="490.17" y2="54.63"/>
<line class="st1" x1="460.54" y1="54.63" x2="460.54" y2="91.67"/>
<line class="st1" x1="460.54" y1="54.63" x2="490.17" y2="54.63"/>
<line class="st1" x1="495.11" y1="54.63" x2="490.17" y2="54.63"/>
<line class="st1" x1="495.11" y1="54.63" x2="495.11" y2="57.1"/>
<line class="st1" x1="490.17" y1="22.53" x2="391.4" y2="22.53"/>
<path class="st1" d="M403.18,102.45c0-10.23,8.29-18.52,18.52-18.52c10.23,0,18.52,8.29,18.52,18.52c0,10.23-8.29,18.52-18.52,18.52
	C411.47,120.97,403.18,112.68,403.18,102.45z"/>
<path class="st1" d="M359.27,28.09c0-5.45,4.42-9.88,9.88-9.88c5.46,0,9.88,4.42,9.88,9.88c0,5.46-4.42,9.88-9.88,9.88
	C363.69,37.97,359.27,33.55,359.27,28.09z"/>
<path class="st1" d="M366.61,28.09c0-1.4,1.14-2.54,2.54-2.54c1.4,0,2.54,1.14,2.54,2.54c0,1.4-1.14,2.54-2.54,2.54
	C367.75,30.63,366.61,29.49,366.61,28.09z"/>
<line class="st1" x1="359.27" y1="28.09" x2="366.61" y2="28.09"/>
<line class="st1" x1="371.69" y1="28.09" x2="379.03" y2="28.09"/>
<line class="st1" x1="369.15" y1="37.97" x2="369.15" y2="30.63"/>
<line class="st1" x1="369.15" y1="25.56" x2="369.15" y2="18.22"/>
<rect x="386.2" y="170.06" class="st1" width="51.86" height="1.23"/>
<polyline class="st1" points="404.72,170.06 404.72,165.12 419.54,165.12 419.54,170.06 "/>
<polyline class="st1" points="419.54,171.29 419.54,173.76 404.72,173.76 404.72,171.29 "/>
<rect x="236.85" y="87.23" class="st1" width="74.08" height="39.51"/>
<path class="st1" d="M301.29,77.98c-7.12-1.44-14.46-1.44-21.58,0"/>
<path class="st1" d="M301.29,79.06c-7.12-1.44-14.46-1.44-21.58,0"/>
<path class="st1" d="M300.21,83.15c-6.43-1.13-13-1.13-19.42,0"/>
<line class="st1" x1="301.29" y1="79.06" x2="300.21" y2="83.15"/>
<line class="st1" x1="300.21" y1="83.15" x2="300.65" y2="87.23"/>
<line class="st1" x1="279.71" y1="79.06" x2="280.79" y2="83.15"/>
<line class="st1" x1="280.79" y1="83.15" x2="280.34" y2="87.23"/>
<line class="st1" x1="279.71" y1="77.98" x2="279.71" y2="79.06"/>
<line class="st1" x1="301.29" y1="77.98" x2="301.29" y2="79.06"/>
<path class="st1" d="M268.08,77.98c-7.12-1.44-14.46-1.44-21.58,0"/>
<path class="st1" d="M268.08,79.06c-7.12-1.44-14.46-1.44-21.58,0"/>
<path class="st1" d="M267,83.15c-6.43-1.13-13-1.13-19.42,0"/>
<line class="st1" x1="246.5" y1="79.06" x2="247.57" y2="83.15"/>
<line class="st1" x1="247.57" y1="83.15" x2="247.13" y2="87.23"/>
<line class="st1" x1="268.08" y1="79.06" x2="267" y2="83.15"/>
<line class="st1" x1="267" y1="83.15" x2="267.44" y2="87.23"/>
<line class="st1" x1="268.08" y1="77.98" x2="268.08" y2="79.06"/>
<line class="st1" x1="246.5" y1="77.98" x2="246.5" y2="79.06"/>
<path class="st1" d="M279.71,135.98c7.12,1.44,14.46,1.44,21.58,0"/>
<path class="st1" d="M279.71,134.9c7.12,1.44,14.46,1.44,21.58,0"/>
<path class="st1" d="M280.79,130.81c6.42,1.13,13,1.13,19.42,0"/>
<line class="st1" x1="301.29" y1="134.9" x2="300.21" y2="130.81"/>
<line class="st1" x1="300.21" y1="130.81" x2="300.65" y2="126.74"/>
<line class="st1" x1="279.71" y1="134.9" x2="280.79" y2="130.81"/>
<line class="st1" x1="280.79" y1="130.81" x2="280.34" y2="126.74"/>
<line class="st1" x1="279.71" y1="135.98" x2="279.71" y2="134.9"/>
<line class="st1" x1="301.29" y1="135.98" x2="301.29" y2="134.9"/>
<path class="st1" d="M246.5,135.98c7.12,1.44,14.46,1.44,21.58,0"/>
<path class="st1" d="M246.5,134.9c7.12,1.44,14.46,1.44,21.58,0"/>
<path class="st1" d="M247.57,130.81c6.42,1.13,13,1.13,19.42,0"/>
<line class="st1" x1="246.5" y1="134.9" x2="247.57" y2="130.81"/>
<line class="st1" x1="247.57" y1="130.81" x2="247.13" y2="126.74"/>
<line class="st1" x1="268.08" y1="134.9" x2="267" y2="130.81"/>
<line class="st1" x1="267" y1="130.81" x2="267.44" y2="126.74"/>
<line class="st1" x1="268.08" y1="135.98" x2="268.08" y2="134.9"/>
<line class="st1" x1="246.5" y1="135.98" x2="246.5" y2="134.9"/>
<rect x="153.33" y="189.04" class="st1" width="18.52" height="2.16"/>
<rect x="153.33" y="223.92" class="st1" width="18.52" height="2.16"/>
<path class="st1" d="M153.33,207.56c10.23,0,18.52-8.29,18.52-18.52"/>
<path class="st1" d="M171.85,226.08c0-10.23-8.29-18.52-18.52-18.52"/>
<rect x="73.11" y="300.77" transform="matrix(0.5 -0.866 0.866 0.5 -241.555 225.1304)" class="st1" width="2.16" height="41.98"/>
<path class="st1" d="M91.83,291.21c-15,0-28.86,8-36.36,20.99"/>
<rect x="102.71" y="172.53" class="st1" width="41.98" height="2.16"/>
<path class="st1" d="M144.69,132.71c-23.19,0-41.98,18.8-41.98,41.98"/>
<rect x="504.52" y="0.15" class="st1" width="5.56" height="5.55"/>
<rect x="504.52" y="5.71" class="st1" width="5.56" height="2.47"/>
<rect x="504.52" y="59.01" class="st1" width="5.56" height="2.47"/>
<line class="st1" x1="508.85" y1="8.18" x2="508.85" y2="59.01"/>
<line class="st1" x1="507.61" y1="8.18" x2="507.61" y2="59.01"/>
<line class="st1" x1="497.58" y1="12.65" x2="497.58" y2="126.38"/>
<rect x="504.52" y="61.48" class="st1" width="5.56" height="2.47"/>
<rect x="504.52" y="123.91" class="st1" width="5.56" height="2.47"/>
<line class="st1" x1="508.85" y1="63.95" x2="508.85" y2="123.91"/>
<line class="st1" x1="507.61" y1="63.95" x2="507.61" y2="123.91"/>
<line class="st1" x1="504.52" y1="126.38" x2="497.58" y2="126.38"/>
<rect x="504.52" y="170.83" class="st1" width="5.56" height="2.47"/>
<rect x="504.52" y="126.38" class="st1" width="5.56" height="2.47"/>
<rect x="512.63" y="65.96" class="st1" width="140.76" height="3.7"/>
<rect x="281.97" y="42.59" class="st1" width="29.63" height="0.93"/>
<rect x="356.78" y="15.12" class="st1" width="24.74" height="25.95"/>
<rect x="502.05" y="0.15" class="st1" width="2.47" height="5.55"/>
<rect x="338.92" y="0.15" class="st1" width="2.47" height="5.55"/>
<rect x="467.02" y="0.15" class="st1" width="2.47" height="5.55"/>
<line class="st1" x1="502.06" y1="1.39" x2="469.49" y2="1.39"/>
<line class="st1" x1="502.06" y1="2.62" x2="469.49" y2="2.62"/>
<rect x="398.19" y="0.15" class="st1" width="2.47" height="5.55"/>
<line class="st1" x1="467.02" y1="1.39" x2="400.66" y2="1.39"/>
<line class="st1" x1="467.02" y1="2.62" x2="400.66" y2="2.62"/>
<line class="st1" x1="398.19" y1="1.39" x2="341.39" y2="1.39"/>
<line class="st1" x1="398.19" y1="2.62" x2="341.39" y2="2.62"/>
<line class="st1" x1="497.58" y1="12.65" x2="340.15" y2="12.65"/>
<rect x="279.65" y="0.15" class="st1" width="2.47" height="5.55"/>
<rect x="168.84" y="0.15" class="st1" width="2.47" height="5.55"/>
<rect x="227.91" y="0.15" class="st1" width="2.47" height="5.55"/>
<line class="st1" x1="279.65" y1="1.39" x2="230.38" y2="1.39"/>
<line class="st1" x1="279.65" y1="2.62" x2="230.38" y2="2.62"/>
<line class="st1" x1="227.91" y1="1.39" x2="171.31" y2="1.39"/>
<line class="st1" x1="227.91" y1="2.62" x2="171.31" y2="2.62"/>
<line class="st1" x1="280.89" y1="12.65" x2="170.07" y2="12.65"/>
<rect x="110.81" y="0.15" class="st1" width="2.47" height="5.55"/>
<rect x="13.89" y="0.15" class="st1" width="2.47" height="5.55"/>
<rect x="51.54" y="0.15" class="st1" width="2.47" height="5.55"/>
<line class="st1" x1="110.81" y1="1.39" x2="54.01" y2="1.39"/>
<line class="st1" x1="110.81" y1="2.62" x2="54.01" y2="2.62"/>
<line class="st1" x1="51.54" y1="1.39" x2="16.36" y2="1.39"/>
<line class="st1" x1="51.54" y1="2.62" x2="16.36" y2="2.62"/>
<line class="st1" x1="112.04" y1="12.65" x2="15.12" y2="12.65"/>
<rect x="130.56" y="365.04" transform="matrix(0.5 -0.866 0.866 0.5 -244.3804 308.9471)" class="st1" width="29.63" height="2.16"/>
<path class="st1" d="M153.72,353.83c-4.5-2.6-9.62-3.97-14.82-3.97"/>
<rect x="104.02" y="286.27" class="st1" width="2.16" height="18.52"/>
<rect x="138.9" y="286.27" class="st1" width="2.16" height="18.52"/>
<path class="st1" d="M104.02,304.79c10.23,0,18.52-8.29,18.52-18.52"/>
<path class="st1" d="M122.54,286.27c0,10.23,8.29,18.52,18.52,18.52"/>
<rect x="31.95" y="252.4" class="st1" width="37.04" height="1.54"/>
<rect x="31.95" y="181.09" class="st1" width="37.04" height="1.54"/>
<rect x="510.08" y="168.67" class="st1" width="41.98" height="2.16"/>
<path class="st1" d="M552.06,170.83c0-23.18-18.8-41.98-41.98-41.98"/>
<rect x="195" y="374.24" class="st1" width="2.16" height="44.45"/>
<path class="st1" d="M197.16,374.24c-24.55,0-44.45,19.9-44.45,44.45"/>
<line class="st1" x1="504.52" y1="5.71" x2="504.52" y2="61.48"/>
<line class="st1" x1="510.08" y1="5.71" x2="510.08" y2="61.48"/>
<line class="st1" x1="504.52" y1="61.48" x2="504.52" y2="126.38"/>
<line class="st1" x1="510.08" y1="61.48" x2="510.08" y2="126.38"/>
<line class="st1" x1="504.52" y1="5.71" x2="338.92" y2="5.71"/>
<line class="st1" x1="504.52" y1="0.15" x2="338.92" y2="0.15"/>
<line class="st1" x1="282.12" y1="5.71" x2="168.84" y2="5.71"/>
<line class="st1" x1="282.12" y1="0.15" x2="168.84" y2="0.15"/>
<line class="st1" x1="113.28" y1="5.71" x2="13.89" y2="5.71"/>
<line class="st1" x1="113.28" y1="0.15" x2="13.89" y2="0.15"/>
<rect x="107.38" y="239.85" class="st1" width="33.34" height="37.04"/>
<polygon class="st1" points="147.62,236.11 147.62,280.56 141.06,280.56 141.06,283.42 104.02,283.42 104.02,280.56 100.47,280.56 
	100.47,236.11 "/>
<path class="st1" d="M13.66,268.33c0-0.24,0.17-0.45,0.41-0.5l3.65-0.7c0.4-0.08,0.81,0.01,1.14,0.25c0.56,0.4,1.05,0.89,1.45,1.45
	c3.94-0.23,7.87-0.73,11.74-1.5c1.24-0.28,2.51-0.42,3.79-0.42c1.65,0,3.3,0.24,4.88,0.71c1.38,0.41,2.68,1.05,3.84,1.89
	c1.12,0.81,2.06,1.84,2.75,3.04c0.57,0.98,0.86,2.1,0.86,3.23c0,1.14-0.3,2.25-0.86,3.23c-0.69,1.2-1.63,2.24-2.75,3.04
	c-1.17,0.84-2.47,1.48-3.84,1.89c-1.58,0.47-3.23,0.71-4.88,0.71c-1.27,0-2.54-0.14-3.79-0.42c-3.87-0.77-7.8-1.27-11.74-1.5
	c-0.4,0.56-0.89,1.05-1.45,1.44c-0.33,0.23-0.74,0.32-1.14,0.25l-3.65-0.7c-0.24-0.04-0.41-0.25-0.41-0.49V268.33z"/>
<polygon class="st1" points="91.83,338.22 85.86,338.22 59.48,323 59.02,323.8 84,338.22 17.74,338.22 17.74,335.66 12.65,335.66 
	12.65,332.57 40.43,332.57 40.43,295.53 12.65,295.53 12.65,256.02 50.47,256.02 50.47,253.94 68.99,253.94 68.99,253.17 
	87.51,253.17 87.51,256.02 91.83,256.02 91.83,291.21 94.69,291.21 94.69,333.19 91.83,333.19 55.48,312.2 56.56,310.33 
	92.91,331.32 91.83,333.19 "/>
<line class="st1" x1="510.08" y1="170.83" x2="510.08" y2="128.85"/>
<line class="st1" x1="504.52" y1="170.83" x2="504.52" y2="128.85"/>
<line class="st1" x1="197.16" y1="418.69" x2="152.71" y2="418.69"/>
<line class="st1" x1="197.16" y1="429.19" x2="152.71" y2="429.19"/>
<line class="st1" x1="20.6" y1="338.22" x2="20.6" y2="332.57"/>
<line class="st1" x1="20.6" y1="268.81" x2="20.6" y2="256.02"/>
<line class="st1" x1="20.6" y1="295.53" x2="20.6" y2="282.75"/>
<line class="st1" x1="35.42" y1="338.22" x2="35.42" y2="332.57"/>
<line class="st1" x1="35.42" y1="266.91" x2="35.42" y2="256.02"/>
<line class="st1" x1="35.42" y1="295.53" x2="35.42" y2="284.64"/>
<line class="st1" x1="50.24" y1="338.22" x2="50.24" y2="256.02"/>
<line class="st1" x1="65.05" y1="338.22" x2="65.05" y2="327.28"/>
<line class="st1" x1="65.05" y1="315.24" x2="65.05" y2="253.94"/>
<line class="st1" x1="65.05" y1="326.21" x2="65.05" y2="317.73"/>
<line class="st1" x1="79.87" y1="338.22" x2="79.87" y2="335.83"/>
<line class="st1" x1="79.87" y1="323.79" x2="79.87" y2="253.17"/>
<line class="st1" x1="79.87" y1="334.76" x2="79.87" y2="326.28"/>
<line class="st1" x1="94.69" y1="308.59" x2="40.43" y2="308.59"/>
<line class="st1" x1="91.83" y1="278.96" x2="47.33" y2="278.96"/>
<line class="st1" x1="13.66" y1="278.96" x2="12.65" y2="278.96"/>
<line class="st1" x1="147.62" y1="268.6" x2="140.72" y2="268.6"/>
<line class="st1" x1="107.38" y1="268.6" x2="100.47" y2="268.6"/>
<line class="st1" x1="147.62" y1="253.78" x2="140.72" y2="253.78"/>
<line class="st1" x1="107.38" y1="253.78" x2="100.47" y2="253.78"/>
<line class="st1" x1="147.62" y1="238.97" x2="100.47" y2="238.97"/>
<line class="st1" x1="124.05" y1="236.11" x2="124.05" y2="239.85"/>
<line class="st1" x1="124.05" y1="276.89" x2="124.05" y2="283.42"/>
<polygon class="st1" points="91.83,291.21 97.54,291.21 97.54,286.27 104.02,286.27 104.02,280.56 100.47,280.56 100.47,236.11 
	147.62,236.11 147.62,280.56 141.06,280.56 141.06,286.27 153.33,286.27 153.33,226.08 147.62,226.08 147.62,230.4 130.11,230.4 
	130.11,184.72 147.62,184.72 147.62,189.04 153.33,189.04 153.33,174.69 144.69,174.69 144.69,179.01 87.51,179.01 87.51,184.72 
	121.46,184.72 121.46,230.4 91.83,230.4 91.83,250.31 87.51,250.31 87.51,256.02 91.83,256.02 "/>
<line class="st2" x1="279.5" y1="43.52" x2="279.5" y2="15.28"/>
<line class="st2" x1="279.5" y1="15.28" x2="249.87" y2="15.28"/>
<line class="st2" x1="249.87" y1="15.28" x2="249.87" y2="43.52"/>
<line class="st2" x1="249.87" y1="42.28" x2="279.5" y2="42.28"/>
<line class="st2" x1="168.15" y1="12.65" x2="168.15" y2="95.53"/>
<line class="st2" x1="112.82" y1="385.67" x2="112.82" y2="343.22"/>
<line class="st2" x1="25" y1="202" x2="25" y2="250.31"/>
<line class="st2" x1="109.12" y1="230.4" x2="109.12" y2="184.72"/>
<polygon class="st3" points="124.7,429.19 124.7,396.16 0.15,396.16 0.15,0.15 13.89,0.15 13.89,5.71 15.12,5.71 15.12,12.65 
	12.65,12.65 12.65,179.01 50.47,179.01 50.47,180.47 12.81,180.47 12.81,183.25 50.47,183.25 50.47,184.72 12.65,184.72 
	12.65,250.31 50.47,250.31 50.47,251.78 12.81,251.78 12.81,254.56 50.47,254.56 50.47,256.02 12.65,256.02 12.65,335.66 
	17.74,335.66 17.74,377.64 91.83,377.64 91.83,333.19 97.54,333.19 97.54,337.51 138.9,337.51 138.9,349.86 133.19,349.86 
	133.19,343.22 100.47,343.22 100.47,385.66 133.19,385.66 133.19,379.49 138.9,379.49 138.9,418.69 152.71,418.69 152.71,429.19 "/>
<polygon class="st1" points="124.7,429.19 124.7,396.16 0.15,396.16 0.15,0.15 13.89,0.15 13.89,5.71 15.12,5.71 15.12,12.65 
	12.65,12.65 12.65,179.01 50.47,179.01 50.47,180.47 12.81,180.47 12.81,183.25 50.47,183.25 50.47,184.72 12.65,184.72 
	12.65,250.31 50.47,250.31 50.47,251.78 12.81,251.78 12.81,254.56 50.47,254.56 50.47,256.02 12.65,256.02 12.65,335.66 
	17.74,335.66 17.74,377.64 91.83,377.64 91.83,333.19 97.54,333.19 97.54,337.51 138.9,337.51 138.9,349.86 133.19,349.86 
	133.19,343.22 100.47,343.22 100.47,385.66 133.19,385.66 133.19,379.49 138.9,379.49 138.9,418.69 152.71,418.69 152.71,429.19 "/>
<polygon class="st3" points="675.3,188.73 675.3,34.94 655.85,34.94 655.85,67.58 662.8,67.58 662.8,173.3 497.58,173.3 
	497.58,176.23 201.48,176.23 201.48,418.69 197.16,418.69 197.16,429.19 213.99,429.19 213.99,188.73 "/>
<polygon class="st1" points="675.3,188.73 675.3,34.94 655.85,34.94 655.85,67.58 662.8,67.58 662.8,173.3 497.58,173.3 
	497.58,176.23 201.48,176.23 201.48,418.69 197.16,418.69 197.16,429.19 213.99,429.19 213.99,188.73 "/>
<polygon class="st3" points="91.83,291.21 97.54,291.21 97.54,286.27 104.02,286.27 104.02,280.56 100.47,280.56 100.47,236.11 
	147.62,236.11 147.62,280.56 141.06,280.56 141.06,286.27 153.33,286.27 153.33,226.08 147.62,226.08 147.62,230.4 130.11,230.4 
	130.11,184.72 147.62,184.72 147.62,189.04 153.33,189.04 153.33,174.69 144.69,174.69 144.69,179.01 87.51,179.01 87.51,184.72 
	121.46,184.72 121.46,230.4 91.83,230.4 91.83,250.31 87.51,250.31 87.51,256.02 91.83,256.02 "/>
<polygon class="st1" points="91.83,291.21 97.54,291.21 97.54,286.27 104.02,286.27 104.02,280.56 100.47,280.56 100.47,236.11 
	147.62,236.11 147.62,280.56 141.06,280.56 141.06,286.27 153.33,286.27 153.33,226.08 147.62,226.08 147.62,230.4 130.11,230.4 
	130.11,184.72 147.62,184.72 147.62,189.04 153.33,189.04 153.33,174.69 144.69,174.69 144.69,179.01 87.51,179.01 87.51,184.72 
	121.46,184.72 121.46,230.4 91.83,230.4 91.83,250.31 87.51,250.31 87.51,256.02 91.83,256.02 "/>
<polygon class="st3" points="112.04,12.65 112.04,5.71 113.28,5.71 113.28,0.15 168.84,0.15 168.84,5.71 170.08,5.71 170.08,12.65 
	153.33,12.65 153.33,132.71 144.69,132.71 144.69,12.65 "/>
<polygon class="st1" points="112.04,12.65 112.04,5.71 113.28,5.71 113.28,0.15 168.84,0.15 168.84,5.71 170.08,5.71 170.08,12.65 
	153.33,12.65 153.33,132.71 144.69,132.71 144.69,12.65 "/>
<polygon class="st3" points="282.12,0.15 282.12,5.71 280.89,5.71 280.89,12.65 312.84,12.65 312.84,43.42 340.31,43.42 
	340.31,5.71 338.92,5.71 338.92,0.15 "/>
<polygon class="st1" points="282.12,0.15 282.12,5.71 280.89,5.71 280.89,12.65 312.84,12.65 312.84,43.42 340.31,43.42 
	340.31,5.71 338.92,5.71 338.92,0.15 "/>
<path class="st4" d="M137.41,208.87h-1.22v1.78h-0.57v-5.04h1.89c1.14,0,1.89,0.61,1.89,1.61
	C139.4,208.31,138.49,208.87,137.41,208.87z M137.46,206.13h-1.27v2.22h1.25c0.83,0,1.38-0.45,1.38-1.12
	C138.82,206.51,138.28,206.13,137.46,206.13z"/>
<path class="st4" d="M119.32,251.64h0.47l1.38,4.21l1.44-4.2h0.6l-1.8,5.08h-0.48l-1.38-4.09l-1.39,4.09h-0.47l-1.8-5.08h0.62
	l1.44,4.2L119.32,251.64z"/>
<path class="st4" d="M126.66,250.95l-3.34,6.67h-0.51l3.34-6.67H126.66z"/>
<path class="st4" d="M129.21,256.7h-1.75v-5.04h1.75c1.58,0,2.68,1.09,2.68,2.51C131.89,255.59,130.8,256.7,129.21,256.7z
	 M129.21,252.18h-1.18v3.99h1.18c1.28,0,2.09-0.86,2.09-1.99C131.3,253.06,130.49,252.18,129.21,252.18z"/>
<path class="st4" d="M170.66,110.15h-3.05v1.8h2.73v0.52h-2.73v2.2h-0.57v-5.04h3.62V110.15z"/>
<path class="st4" d="M287.86,29.2h-1.22v1.78h-0.57v-5.04h1.89c1.14,0,1.89,0.6,1.89,1.61C289.84,28.63,288.94,29.2,287.86,29.2z
	 M287.91,26.46h-1.27v2.22h1.25c0.83,0,1.38-0.45,1.38-1.12C289.27,26.83,288.73,26.46,287.91,26.46z"/>
<path class="st4" d="M293.59,25.23l-3.34,6.67h-0.51l3.34-6.67H293.59z"/>
<path class="st4" d="M296.82,29.59h-0.03l-1.84-2.69v4.08h-0.55v-5.04h0.58l1.84,2.75l1.84-2.75h0.58v5.04h-0.57v-4.08L296.82,29.59
	z"/>
<path class="st4" d="M303.85,25.92h0.47l1.38,4.21l1.44-4.2h0.6l-1.8,5.08h-0.48l-1.38-4.09l-1.39,4.09h-0.47l-1.8-5.08h0.62
	l1.44,4.2L303.85,25.92z"/>
<path class="st4" d="M260.33,31.87h-1.75v-5.04h1.75c1.58,0,2.68,1.09,2.68,2.51C263.01,30.77,261.91,31.87,260.33,31.87z
	 M260.33,27.35h-1.18v3.99h1.18c1.28,0,2.09-0.86,2.09-1.99S261.6,27.35,260.33,27.35z"/>
<path class="st4" d="M267.16,26.81h0.47l1.38,4.21l1.44-4.2h0.6l-1.8,5.08h-0.48l-1.38-4.09l-1.39,4.09h-0.47l-1.8-5.08h0.62
	l1.44,4.2L267.16,26.81z"/>
<path class="st4" d="M15.17,191.4h0.57v4.52h2.84v0.53h-3.41V191.4z"/>
<path class="st4" d="M20.39,191.4v5.04h-0.57v-5.04H20.39z"/>
<path class="st4" d="M25.72,191.4h0.55v5.04h-0.45l-3.25-4.13v4.13h-0.55v-5.04h0.53l3.18,4.04V191.4z"/>
<path class="st4" d="M166.25,433.86h-3.08v1.72h2.75v0.52h-2.75v1.76h3.11v0.52h-3.68v-5.04h3.64V433.86z"/>
<path class="st4" d="M171.28,433.35h0.55v5.04h-0.45l-3.25-4.13v4.13h-0.55v-5.04h0.53l3.18,4.04V433.35z"/>
<path class="st4" d="M175.31,438.39h-0.58v-4.52h-1.69v-0.53h3.96v0.53h-1.69V438.39z"/>
<path class="st4" d="M181.68,438.39l-1.46-1.96h-1.44v1.96h-0.57v-5.04h2.17c1.11,0,1.82,0.6,1.82,1.5c0,0.84-0.58,1.33-1.37,1.48
	l1.55,2.06H181.68z M180.33,433.87h-1.56v2.04h1.55c0.76,0,1.3-0.39,1.3-1.04C181.62,434.25,181.15,433.87,180.33,433.87z"/>
<path class="st4" d="M185.54,438.39h-0.58v-2l-2.1-3.05h0.69l1.7,2.52l1.71-2.52h0.66l-2.1,3.04V438.39z"/>
<path class="st4" d="M53.44,209.99h0.47l1.38,4.21l1.44-4.2h0.6l-1.8,5.08h-0.48l-1.38-4.09l-1.39,4.09H51.8L50,210h0.62l1.44,4.2
	L53.44,209.99z"/>
<path class="st4" d="M62.55,215.04h-0.61l-0.59-1.33h-2.74l-0.6,1.33h-0.58l2.3-5.08h0.53L62.55,215.04z M59.98,210.63l-1.15,2.57
	h2.3L59.98,210.63z"/>
<path class="st4" d="M63.69,210h0.57v4.52h2.84v0.53h-3.41V210z"/>
<path class="st4" d="M72.59,215.04h-0.71l-1.94-2.44l-1.07,1.09v1.35H68.3V210h0.57v3.01l2.9-3.01h0.73l-2.16,2.2L72.59,215.04z"/>
<path class="st4" d="M73.02,213.17v-0.58h2v0.58H73.02z"/>
<path class="st4" d="M76.97,210v5.04H76.4V210H76.97z"/>
<path class="st4" d="M82.3,210h0.55v5.04H82.4l-3.26-4.13v4.13h-0.55V210h0.53l3.18,4.04V210z"/>
<path class="st4" d="M54.43,223.78c-1.46,0-2.53-1.14-2.53-2.6c0-1.44,1.07-2.61,2.55-2.61c0.92,0,1.46,0.32,1.97,0.8l-0.39,0.42
	c-0.42-0.4-0.9-0.69-1.58-0.69c-1.12,0-1.95,0.9-1.95,2.07c0,1.17,0.84,2.09,1.95,2.09c0.69,0,1.14-0.27,1.63-0.73l0.37,0.37
	C55.92,223.42,55.35,223.78,54.43,223.78z"/>
<path class="st4" d="M57.59,218.65h0.57v4.52H61v0.53h-3.41V218.65z"/>
<path class="st4" d="M64.25,223.78c-1.53,0-2.56-1.2-2.56-2.6s1.04-2.61,2.58-2.61c1.53,0,2.56,1.2,2.56,2.6
	C66.83,222.56,65.79,223.78,64.25,223.78z M64.25,219.09c-1.15,0-1.97,0.92-1.97,2.07s0.84,2.09,1.99,2.09
	c1.15,0,1.97-0.92,1.97-2.07S65.4,219.09,64.25,219.09z"/>
<path class="st4" d="M69.95,220.89c1.12,0.25,1.64,0.66,1.64,1.43c0,0.87-0.72,1.43-1.72,1.43c-0.8,0-1.46-0.27-2.06-0.81l0.35-0.42
	c0.53,0.48,1.03,0.71,1.73,0.71c0.68,0,1.12-0.35,1.12-0.86c0-0.48-0.25-0.74-1.31-0.96c-1.16-0.25-1.69-0.63-1.69-1.46
	c0-0.81,0.7-1.38,1.66-1.38c0.73,0,1.26,0.21,1.77,0.62l-0.33,0.44c-0.47-0.38-0.94-0.55-1.46-0.55c-0.66,0-1.07,0.36-1.07,0.82
	C68.58,220.39,68.84,220.66,69.95,220.89z"/>
<path class="st4" d="M76.54,219.17h-3.08v1.72h2.75v0.52h-2.75v1.76h3.11v0.52H72.9v-5.04h3.64V219.17z"/>
<path class="st4" d="M79.77,223.69H79.2v-4.52H77.5v-0.53h3.96v0.53h-1.69V223.69z"/>
<path class="st4" d="M58.38,286.61c0,0.66-0.4,1-0.8,1.17c0.6,0.18,1.08,0.53,1.08,1.22c0,0.87-0.73,1.38-1.83,1.38h-2.24v-5.04
	h2.15C57.73,285.35,58.38,285.84,58.38,286.61z M57.8,286.69c0-0.5-0.4-0.83-1.12-0.83h-1.53v1.74h1.49
	C57.33,287.6,57.8,287.29,57.8,286.69z M58.08,288.98c0-0.55-0.46-0.87-1.34-0.87h-1.59v1.78h1.69
	C57.61,289.88,58.08,289.54,58.08,288.98z"/>
<path class="st4" d="M64.63,290.39h-0.61l-0.59-1.33h-2.74l-0.6,1.33h-0.58l2.3-5.08h0.53L64.63,290.39z M62.06,285.98l-1.15,2.57
	h2.3L62.06,285.98z"/>
<path class="st4" d="M67.03,290.39h-0.58v-4.52h-1.69v-0.53h3.96v0.53h-1.69V290.39z"/>
<path class="st4" d="M70.51,288.13v2.27h-0.57v-5.04h0.57v2.24h2.91v-2.24h0.57v5.04h-0.57v-2.27H70.51z"/>
<path class="st4" d="M568.39,121.39c0,0.66-0.4,1-0.8,1.17c0.6,0.18,1.08,0.53,1.08,1.22c0,0.87-0.73,1.38-1.83,1.38h-2.24v-5.04
	h2.15C567.75,120.13,568.39,120.62,568.39,121.39z M567.82,121.47c0-0.5-0.4-0.83-1.12-0.83h-1.53v1.74h1.49
	C567.34,122.38,567.82,122.07,567.82,121.47z M568.1,123.76c0-0.55-0.46-0.87-1.34-0.87h-1.59v1.78h1.69
	C567.62,124.66,568.1,124.32,568.1,123.76z"/>
<path class="st4" d="M574.65,125.17h-0.61l-0.59-1.33h-2.74l-0.6,1.33h-0.58l2.3-5.08h0.53L574.65,125.17z M572.08,120.76
	l-1.15,2.57h2.3L572.08,120.76z"/>
<path class="st4" d="M575.78,120.13h0.57v4.52h2.84v0.53h-3.41V120.13z"/>
<path class="st4" d="M582.41,125.26c-1.46,0-2.53-1.14-2.53-2.6c0-1.44,1.07-2.61,2.55-2.61c0.92,0,1.46,0.32,1.97,0.8l-0.39,0.42
	c-0.42-0.4-0.9-0.69-1.58-0.69c-1.12,0-1.95,0.9-1.95,2.07c0,1.17,0.84,2.09,1.95,2.09c0.69,0,1.15-0.27,1.63-0.73l0.37,0.37
	C583.9,124.91,583.32,125.26,582.41,125.26z"/>
<path class="st4" d="M587.76,125.26c-1.53,0-2.56-1.2-2.56-2.6s1.04-2.61,2.58-2.61s2.56,1.2,2.56,2.6
	C590.34,124.04,589.3,125.26,587.76,125.26z M587.76,120.57c-1.15,0-1.97,0.92-1.97,2.07s0.84,2.09,1.99,2.09s1.97-0.92,1.97-2.07
	S588.91,120.57,587.76,120.57z"/>
<path class="st4" d="M595.4,120.13h0.55v5.04h-0.45l-3.26-4.13v4.13h-0.55v-5.04h0.53l3.18,4.04V120.13z"/>
<path class="st4" d="M599.67,125.17h-0.58v-2l-2.1-3.05h0.69l1.7,2.52l1.71-2.52h0.66l-2.1,3.04V125.17z"/>
<path class="st4" d="M262.49,109.45h-1.75v-5.04h1.75c1.58,0,2.68,1.09,2.68,2.51C265.17,108.34,264.08,109.45,262.49,109.45z
	 M262.49,104.93h-1.18v3.99h1.18c1.28,0,2.09-0.86,2.09-1.99S263.77,104.93,262.49,104.93z"/>
<path class="st4" d="M267.13,104.4v5.04h-0.57v-5.04H267.13z"/>
<path class="st4" d="M272.46,104.4h0.55v5.04h-0.45l-3.26-4.13v4.13h-0.55v-5.04h0.53l3.18,4.04V104.4z"/>
<path class="st4" d="M275.21,104.4v5.04h-0.57v-5.04H275.21z"/>
<path class="st4" d="M280.54,104.4h0.55v5.04h-0.45l-3.25-4.13v4.13h-0.55v-5.04h0.53l3.18,4.04V104.4z"/>
<path class="st4" d="M285.01,109.53c-1.58,0-2.56-1.15-2.56-2.6c0-1.39,1.02-2.61,2.53-2.61c0.85,0,1.38,0.24,1.88,0.67l-0.37,0.43
	c-0.39-0.34-0.82-0.58-1.53-0.58c-1.12,0-1.92,0.94-1.92,2.07c0,1.21,0.77,2.1,2,2.1c0.58,0,1.11-0.22,1.46-0.5v-1.25h-1.53v-0.51
	h2.08v2.01C286.57,109.18,285.86,109.53,285.01,109.53z"/>
<path class="st4" d="M201.55,75.55h-0.71l-1.94-2.44l-1.07,1.09v1.35h-0.57v-5.04h0.57v3.01l2.89-3.01h0.74l-2.16,2.2L201.55,75.55z
	"/>
<path class="st4" d="M203.19,70.51v5.04h-0.57v-5.04H203.19z"/>
<path class="st4" d="M206.72,75.55h-0.58v-4.52h-1.69v-0.53h3.96v0.53h-1.69V75.55z"/>
<path class="st4" d="M211.59,75.64c-1.46,0-2.53-1.15-2.53-2.6c0-1.44,1.07-2.61,2.55-2.61c0.92,0,1.46,0.32,1.97,0.8l-0.39,0.42
	c-0.42-0.4-0.9-0.69-1.58-0.69c-1.12,0-1.95,0.9-1.95,2.07s0.84,2.09,1.95,2.09c0.69,0,1.15-0.27,1.63-0.73l0.37,0.37
	C213.08,75.29,212.5,75.64,211.59,75.64z"/>
<path class="st4" d="M215.32,73.28v2.27h-0.57v-5.04h0.57v2.24h2.91v-2.24h0.57v5.04h-0.57v-2.27H215.32z"/>
<path class="st4" d="M224.01,71.03h-3.08v1.72h2.75v0.52h-2.75v1.76h3.11v0.52h-3.68v-5.04h3.64V71.03z"/>
<path class="st4" d="M229.04,70.51h0.55v5.04h-0.45l-3.25-4.13v4.13h-0.55v-5.04h0.53l3.18,4.04V70.51z"/>
<path class="st4" d="M409.28,99.88h0.57v4.52h2.84v0.53h-3.41V99.88z"/>
<path class="st4" d="M414.51,99.88v5.04h-0.57v-5.04H414.51z"/>
<path class="st4" d="M419.93,99.88h0.61l-2.17,5.08h-0.5l-2.17-5.08h0.63l1.79,4.34L419.93,99.88z"/>
<path class="st4" d="M422.3,99.88v5.04h-0.57v-5.04H422.3z"/>
<path class="st4" d="M427.63,99.88h0.55v5.04h-0.45l-3.26-4.13v4.13h-0.55v-5.04h0.53l3.18,4.04V99.88z"/>
<path class="st4" d="M432.09,105.01c-1.58,0-2.56-1.15-2.56-2.6c0-1.39,1.02-2.61,2.53-2.61c0.85,0,1.38,0.25,1.88,0.67l-0.37,0.43
	c-0.39-0.34-0.82-0.58-1.53-0.58c-1.12,0-1.92,0.94-1.92,2.07c0,1.21,0.77,2.1,2,2.1c0.58,0,1.11-0.22,1.46-0.5v-1.25h-1.53v-0.51
	h2.08v2.01C433.64,104.65,432.94,105.01,432.09,105.01z"/>
<path class="st4" d="M62.02,89.12c0,0.66-0.4,1-0.8,1.17c0.6,0.18,1.08,0.53,1.08,1.22c0,0.87-0.73,1.38-1.83,1.38h-2.24v-5.04h2.15
	C61.37,87.86,62.02,88.35,62.02,89.12z M61.44,89.2c0-0.5-0.4-0.83-1.12-0.83h-1.53v1.74h1.49C60.97,90.11,61.44,89.8,61.44,89.2z
	 M61.72,91.48c0-0.55-0.46-0.87-1.34-0.87h-1.59v1.78h1.69C61.25,92.39,61.72,92.05,61.72,91.48z"/>
<path class="st4" d="M67.22,88.38h-3.08v1.72h2.75v0.52h-2.75v1.76h3.11v0.52h-3.68v-5.04h3.64V88.38z"/>
<path class="st4" d="M70.29,92.9h-1.75v-5.04h1.75c1.58,0,2.68,1.09,2.68,2.51C72.97,91.8,71.88,92.9,70.29,92.9z M70.29,88.39
	h-1.18v3.99h1.18c1.28,0,2.09-0.86,2.09-1.99S71.57,88.39,70.29,88.39z"/>
<path class="st4" d="M77.78,92.9l-1.46-1.96h-1.44v1.96h-0.57v-5.04h2.17c1.11,0,1.82,0.6,1.82,1.51c0,0.84-0.58,1.33-1.37,1.48
	l1.55,2.06H77.78z M76.44,88.39h-1.56v2.05h1.55c0.76,0,1.3-0.39,1.3-1.04C77.73,88.76,77.25,88.39,76.44,88.39z"/>
<path class="st4" d="M82.01,92.99c-1.53,0-2.56-1.2-2.56-2.6c0-1.4,1.04-2.61,2.58-2.61s2.56,1.2,2.56,2.6
	C84.58,91.77,83.54,92.99,82.01,92.99z M82.01,88.3c-1.15,0-1.97,0.92-1.97,2.07s0.84,2.09,1.99,2.09s1.97-0.92,1.97-2.07
	S83.16,88.3,82.01,88.3z"/>
<path class="st4" d="M88.27,92.99c-1.53,0-2.56-1.2-2.56-2.6c0-1.4,1.04-2.61,2.58-2.61s2.56,1.2,2.56,2.6
	C90.85,91.77,89.81,92.99,88.27,92.99z M88.27,88.3c-1.15,0-1.97,0.92-1.97,2.07s0.84,2.09,1.99,2.09s1.97-0.92,1.97-2.07
	S89.43,88.3,88.27,88.3z"/>
<path class="st4" d="M94.62,91.52h-0.03l-1.84-2.69v4.08H92.2v-5.04h0.58l1.84,2.75l1.84-2.75h0.58v5.04h-0.57v-4.08L94.62,91.52z"
	/>
<path class="st4" d="M100.86,127.47h-0.71l-1.94-2.44l-1.07,1.09v1.35h-0.57v-5.04h0.57v3.01l2.89-3.01h0.74l-2.16,2.2
	L100.86,127.47z"/>
</svg>
