<svg width="246" height="268" viewBox="0 0 246 268" fill="none" xmlns="http://www.w3.org/2000/svg">
<g clip-path="url(#clip0_0_1)">
<path d="M20.8 163.8V163.9H9.29999H9.20001V163.8V149.4V149.3H9.29999H20.8H20.9V149.4V163.8V163.9H20.8V163.8H20.7V149.5H9.40002V163.7H20.8V163.8H20.7H20.8Z" fill="#99A4B3"/>
<path d="M20.8 224.3V224.4H9.29999L9.20001 224.3V209.9V209.8L9.29999 209.7H20.8L20.9 209.8V209.9V224.3L20.8 224.4V224.3H20.7V210H9.40002V224.1H20.8V224.3H20.7H20.8Z" fill="#99A4B3"/>
<path d="M219.5 166.4V166.2H231L231.1 166.3V166.4V180.8L231 180.9H219.5L219.4 180.8H219.3V166.4L219.4 166.3L219.5 166.2V166.4H219.6V180.6H230.9V166.5H219.5V166.4H219.6H219.5Z" fill="#99A4B3"/>
<path d="M219.5 108.8V108.7H230.9V94.5H219.6V108.8H219.5V108.7V108.8H219.3V94.4L219.4 94.3H219.5H231H231.1V94.4V108.8V108.9H231H219.5H219.4L219.3 108.8H219.5Z" fill="#99A4B3"/>
<path d="M138.2 94.8L138.1 94.7L148.8 88.5H153.8H153.9L164.5 94.6L165 93.8L154.5 87.7L153.9 88.7L153.8 88.8L153.7 88.6V85.4H149V88.6L148.9 88.8L148.7 88.7L148.2 87.7L137.7 93.8L138.3 94.7L138.2 94.8L138.1 94.7L138.2 94.8L138.1 94.9L137.4 93.8L137.5 93.6L148.2 87.4L148.3 87.5L148.7 88.2V85.3L148.8 85.2H153.8H153.9L154 85.3V88.2L154.4 87.5L154.5 87.4L165.2 93.6L165.3 93.7V93.8L164.6 94.9H164.5L153.8 88.8H148.9L138.2 94.9H138.1L138.2 94.8Z" fill="#99A4B3"/>
<path d="M7.90002 59.4H8V115.1H11.5V93.8H10.5V116.8H53.4V93.8H52.4V115.1H63.6L63.7 115.2L63.8 115.3V140.1H64.8V118.7H61.2V148.1V148.2H61.1H8V165.1H66.9L67 165.2V208.4V208.5H66.9H8V225.4H88.5V211.6L88.6 211.5H88.7H92H92.1V211.6V219.9H122.7V188.5H92.1V191.2H113.5V190.1H88.7H88.6L88.5 190V144.1H88.6L88.7 144H90.2V121.2H88.7H88.6L88.5 121.1V118.7H85.2L85.1 118.6V115.3L85.2 115.2V115.1H118.4V112.7L118.5 112.6H143.3V111.6H122V115.1H140.2L140.3 115.2V115.3V183.9H232.3V165H173.4H173.3V164.9V110.2V110.1H173.4H232.3V88.8H208.3L208.2 88.7L208.1 88.6V87.1H186.8V88.6V88.7L186.7 88.8H178.5L167.9 94.9H167.8H167.7L167.1 93.8V93.6L177.8 87.4H177.9L178 87.5L178.4 88.2V85.3V85.2H178.5H180.7V69.6H122V85.2H124.2H124.3V85.3V88.6L134.8 94.6L135.3 93.7L124.8 87.7L124.3 88.7L124.2 88.8H122V91.2H121.9V91.3H118.5L118.4 91.2V88.8H36.7L36.6 88.7L36.5 88.6V84.3H33.1L33 84.2L32.9 84.1V83.1L33 83L33.1 82.9H36.5V59.5H7.90002V59.4H8H7.90002V59.3H36.7L36.8 59.4V83.1H36.7V83.2H33.2V84H36.7V84.1H36.8V88.5H118.5L118.6 88.6V91H121.7V88.6H121.8L121.9 88.5H124.1L124.7 87.5L124.9 87.4L135.5 93.6V93.7L135 94.9H134.9H134.8L124.1 88.7L124 88.6V85.4H121.9H121.8L121.7 85.3V69.5L121.8 69.4H121.9H180.8H180.9V69.5V85.3V85.4H180.8H178.6V88.6L178.5 88.8L178.4 88.7L177.8 87.7L167.4 93.8L167.9 94.6L178.4 88.5H178.5H186.5V87L186.6 86.9H186.7H208.3L208.4 87V88.5H232.4L232.5 88.6V110.2V110.3H232.4H173.5V164.8H232.4H232.5V164.9V184V184.1H232.4H140.2H140.1V184V115.4H121.9H121.8L121.7 115.3V111.5L121.8 111.4H121.9H143.4H143.5L143.6 111.5V112.7L143.5 112.8L143.4 112.9H118.6V115.3V115.4H118.5H85.4V118.5H88.7L88.8 118.6V121H90.3H90.4V121.1V144.1V144.2L90.3 144.3H88.8V189.9H113.6H113.7V190V191.3V191.4H113.6H92H91.9V191.3V188.4V188.3H92H122.8H122.9L123 188.4V220L122.9 220.1H122.8H92H91.9V220V211.7H88.8V225.6H88.7V225.7H7.90002L7.79999 225.6H7.70001V208.4L7.79999 208.3H7.90002H66.8V165.4H7.90002L7.79999 165.3L7.70001 165.2V148.1L7.79999 148H7.90002H61V118.6V118.5H61.1H64.9H65V118.6V140.2V140.3H64.9H63.6L63.5 140.2V115.4H52.3H52.2V115.3V93.7V93.6H52.3H53.6H53.7V93.7V116.9V117H53.6H10.4H10.3V116.9V93.7V93.6H10.4H11.6H11.7L11.8 93.7V115.3L11.7 115.4H11.6H7.90002H7.79999L7.70001 115.3V59.4L7.79999 59.3H7.90002V59.4Z" fill="#99A4B3"/>
<path d="M10.5 225.6V224.3L10.7 224.1L10.8 224.3V225.6L10.7 225.7L10.5 225.6Z" fill="#99A4B3"/>
<path d="M10.5 93.7V59.4L10.7 59.3L10.8 59.4V93.7L10.7 93.8L10.5 93.7Z" fill="#99A4B3"/>
<path d="M10.5 209.9V208.4L10.7 208.3L10.8 208.4V209.9L10.7 210L10.5 209.9Z" fill="#99A4B3"/>
<path d="M10.5 116.9V115.3L10.7 115.1L10.8 115.3V116.9L10.7 117L10.5 116.9Z" fill="#99A4B3"/>
<path d="M10.5 165.2V163.8L10.7 163.7L10.8 163.8V165.2L10.7 165.4L10.5 165.2Z" fill="#99A4B3"/>
<path d="M10.5 149.4V148.1L10.7 148L10.8 148.1V149.4L10.7 149.5L10.5 149.4Z" fill="#99A4B3"/>
<path d="M15.9 225.6V224.3L16.1 224.1L16.2 224.3V225.6L16.1 225.7L15.9 225.6Z" fill="#99A4B3"/>
<path d="M15.9 116.9V59.4L16.1 59.3L16.2 59.4V116.9L16.1 117L15.9 116.9Z" fill="#99A4B3"/>
<path d="M15.9 209.9V208.4L16.1 208.3L16.2 208.4V209.9L16.1 210L15.9 209.9Z" fill="#99A4B3"/>
<path d="M15.9 149.4V148.1L16.1 148L16.2 148.1V149.4L16.1 149.5L15.9 149.4Z" fill="#99A4B3"/>
<path d="M15.9 165.2V163.8L16.1 163.7L16.2 163.8V165.2L16.1 165.4L15.9 165.2Z" fill="#99A4B3"/>
<path d="M21.3 225.6V208.4L21.5 208.3L21.6 208.4V225.6L21.5 225.7L21.3 225.6Z" fill="#99A4B3"/>
<path d="M21.3 116.9V59.4L21.5 59.3L21.6 59.4V116.9L21.5 117L21.3 116.9Z" fill="#99A4B3"/>
<path d="M21.3 165.2V148.1L21.5 148L21.6 148.1V165.2L21.5 165.4L21.3 165.2Z" fill="#99A4B3"/>
<path d="M26.7 225.6V208.4L26.9 208.3L27 208.4V225.6L26.9 225.7L26.7 225.6Z" fill="#99A4B3"/>
<path d="M26.7 116.9V59.4L26.9 59.3L27 59.4V116.9L26.9 117L26.7 116.9Z" fill="#99A4B3"/>
<path d="M26.7 165.2V148.1L26.9 148L27 148.1V165.2L26.9 165.4L26.7 165.2Z" fill="#99A4B3"/>
<path d="M32.1 225.6V208.4L32.2 208.3L32.4 208.4V225.6L32.2 225.7L32.1 225.6Z" fill="#99A4B3"/>
<path d="M32.1 116.9V59.4L32.2 59.3L32.4 59.4V116.9L32.2 117L32.1 116.9Z" fill="#99A4B3"/>
<path d="M32.1 165.2V148.1L32.2 148L32.4 148.1V165.2L32.2 165.4L32.1 165.2Z" fill="#99A4B3"/>
<path d="M37.5 225.6V208.4L37.6 208.3L37.8 208.4V225.6L37.6 225.7L37.5 225.6Z" fill="#99A4B3"/>
<path d="M37.5 116.9V88.6L37.6 88.5L37.8 88.6V116.9L37.6 117L37.5 116.9Z" fill="#99A4B3"/>
<path d="M37.5 165.2V148.1L37.6 148L37.8 148.1V165.2L37.6 165.4L37.5 165.2Z" fill="#99A4B3"/>
<path d="M42.9 225.6V208.4L43 208.3L43.2 208.4V225.6L43 225.7L42.9 225.6Z" fill="#99A4B3"/>
<path d="M42.9 116.9V88.6L43 88.5L43.2 88.6V116.9L43 117L42.9 116.9Z" fill="#99A4B3"/>
<path d="M42.9 165.2V148.1L43 148L43.2 148.1V165.2L43 165.4L42.9 165.2Z" fill="#99A4B3"/>
<path d="M48.3 225.6V208.4L48.4 208.3L48.6 208.4V225.6L48.4 225.7L48.3 225.6Z" fill="#99A4B3"/>
<path d="M48.3 116.9V88.6L48.4 88.5L48.6 88.6V116.9L48.4 117L48.3 116.9Z" fill="#99A4B3"/>
<path d="M48.3 165.2V148.1L48.4 148L48.6 148.1V165.2L48.4 165.4L48.3 165.2Z" fill="#99A4B3"/>
<path d="M53.7 225.6V208.4L53.8 208.3L54 208.4V225.6L53.8 225.7L53.7 225.6Z" fill="#99A4B3"/>
<path d="M53.7 115.3V88.6L53.8 88.5L54 88.6V115.3L53.8 115.4L53.7 115.3Z" fill="#99A4B3"/>
<path d="M53.7 165.2V148.1L53.8 148L54 148.1V165.2L53.8 165.4L53.7 165.2Z" fill="#99A4B3"/>
<path d="M59.1 225.6V208.4L59.2 208.3L59.4 208.4V225.6L59.2 225.7L59.1 225.6Z" fill="#99A4B3"/>
<path d="M59.1 115.3V88.6L59.2 88.5L59.4 88.6V115.3L59.2 115.4L59.1 115.3Z" fill="#99A4B3"/>
<path d="M59.1 165.2V148.1L59.2 148L59.4 148.1V165.2L59.2 165.4L59.1 165.2Z" fill="#99A4B3"/>
<path d="M64.5 225.6V208.4L64.6 208.3L64.8 208.4V225.6L64.6 225.7L64.5 225.6Z" fill="#99A4B3"/>
<path d="M64.5 118.6V88.6L64.6 88.5L64.8 88.6V118.6L64.6 118.7L64.5 118.6Z" fill="#99A4B3"/>
<path d="M64.5 165.2V140.2L64.6 140.1L64.8 140.2V165.2L64.6 165.4L64.5 165.2Z" fill="#99A4B3"/>
<path d="M69.9 225.6V88.6L70 88.5L70.2 88.6V225.6L70 225.7L69.9 225.6Z" fill="#99A4B3"/>
<path d="M75.3 225.6V88.6L75.4 88.5L75.6 88.6V225.6L75.4 225.7L75.3 225.6Z" fill="#99A4B3"/>
<path d="M80.7 225.6V88.6L80.8 88.5L80.9 88.6V225.6L80.8 225.7L80.7 225.6Z" fill="#99A4B3"/>
<path d="M86.1 225.6V118.6L86.2 118.5L86.3 118.6V225.6L86.2 225.7L86.1 225.6Z" fill="#99A4B3"/>
<path d="M86.1 115.3V88.6L86.2 88.5L86.3 88.6V115.3L86.2 115.4L86.1 115.3Z" fill="#99A4B3"/>
<path d="M91.5 211.6V190L91.6 189.9L91.7 190V211.6L91.6 211.7L91.5 211.6Z" fill="#99A4B3"/>
<path d="M91.5 115.3V88.6L91.6 88.5L91.7 88.6V115.3L91.6 115.4L91.5 115.3Z" fill="#99A4B3"/>
<path d="M96.9 220V191.3L97 191.2L97.1 191.3V220L97 220.1L96.9 220Z" fill="#99A4B3"/>
<path d="M96.9 115.3V88.6L97 88.5L97.1 88.6V115.3L97 115.4L96.9 115.3Z" fill="#99A4B3"/>
<path d="M96.9 190V188.4L97 188.3L97.1 188.4V190L97 190.1L96.9 190Z" fill="#99A4B3"/>
<path d="M102.3 220V191.3L102.4 191.2L102.5 191.3V220L102.4 220.1L102.3 220Z" fill="#99A4B3"/>
<path d="M102.3 115.3V88.6L102.4 88.5L102.5 88.6V115.3L102.4 115.4L102.3 115.3Z" fill="#99A4B3"/>
<path d="M102.3 190V188.4L102.4 188.3L102.5 188.4V190L102.4 190.1L102.3 190Z" fill="#99A4B3"/>
<path d="M107.7 220V191.3L107.8 191.2L107.9 191.3V220L107.8 220.1L107.7 220Z" fill="#99A4B3"/>
<path d="M107.7 115.3V88.6L107.8 88.5L107.9 88.6V115.3L107.8 115.4L107.7 115.3Z" fill="#99A4B3"/>
<path d="M107.7 190V188.4L107.8 188.3L107.9 188.4V190L107.8 190.1L107.7 190Z" fill="#99A4B3"/>
<path d="M113.1 220V191.3L113.2 191.2L113.3 191.3V220L113.2 220.1L113.1 220Z" fill="#99A4B3"/>
<path d="M113.1 115.3V88.6L113.2 88.5L113.3 88.6V115.3L113.2 115.4L113.1 115.3Z" fill="#99A4B3"/>
<path d="M113.1 190V188.4L113.2 188.3L113.3 188.4V190L113.2 190.1L113.1 190Z" fill="#99A4B3"/>
<path d="M118.5 220V188.4L118.6 188.3L118.7 188.4V220L118.6 220.1L118.5 220Z" fill="#99A4B3"/>
<path d="M118.5 112.7V91.2L118.6 91L118.7 91.2V112.7L118.6 112.9L118.5 112.7Z" fill="#99A4B3"/>
<path d="M123.9 115.3V112.7L124 112.6L124.1 112.7V115.3L124 115.4L123.9 115.3Z" fill="#99A4B3"/>
<path d="M123.9 85.3V69.5L124 69.4L124.1 69.5V85.3L124 85.4L123.9 85.3Z" fill="#99A4B3"/>
<path d="M123.9 111.5V88.6L124 88.5L124.1 88.6V111.5L124 111.6L123.9 111.5Z" fill="#99A4B3"/>
<path d="M129.3 115.3V112.7L129.4 112.6L129.5 112.7V115.3L129.4 115.4L129.3 115.3Z" fill="#99A4B3"/>
<path d="M129.3 90.2V69.5L129.4 69.4L129.5 69.5V90.2L129.4 90.3L129.3 90.2Z" fill="#99A4B3"/>
<path d="M129.3 111.5V91.7L129.4 91.5L129.5 91.7V111.5L129.4 111.6L129.3 111.5Z" fill="#99A4B3"/>
<path d="M134.7 115.3V112.7L134.8 112.6L134.9 112.7V115.3L134.8 115.4L134.7 115.3Z" fill="#99A4B3"/>
<path d="M134.7 93.3V69.5L134.8 69.4L134.9 69.5V93.3L134.8 93.4L134.7 93.3Z" fill="#99A4B3"/>
<path d="M134.7 111.5V94.8L134.8 94.7L134.9 94.8V111.5L134.8 111.6L134.7 111.5Z" fill="#99A4B3"/>
<path d="M140.1 92.2V69.5L140.2 69.4L140.3 69.5V92.2L140.2 92.3L140.1 92.2Z" fill="#99A4B3"/>
<path d="M140.1 115.3V112.7L140.2 112.6L140.3 112.7V115.3L140.2 115.4L140.1 115.3Z" fill="#99A4B3"/>
<path d="M140.1 111.5V93.6L140.2 93.5L140.3 93.6V111.5L140.2 111.6L140.1 111.5Z" fill="#99A4B3"/>
<path d="M145.5 184V90.5L145.6 90.4L145.7 90.5V184L145.6 184.1L145.5 184Z" fill="#99A4B3"/>
<path d="M145.5 89.1V69.5L145.6 69.4L145.7 69.5V89.1L145.6 89.2L145.5 89.1Z" fill="#99A4B3"/>
<path d="M150.9 184V88.6L151 88.5L151.1 88.6V184L151 184.1L150.9 184Z" fill="#99A4B3"/>
<path d="M150.9 85.3V69.5L151 69.4L151.1 69.5V85.3L151 85.4L150.9 85.3Z" fill="#99A4B3"/>
<path d="M156.3 184V90.1L156.4 90L156.5 90.1V184L156.4 184.1L156.3 184Z" fill="#99A4B3"/>
<path d="M156.3 88.7V69.5L156.4 69.4L156.5 69.5V88.7L156.4 88.8L156.3 88.7Z" fill="#99A4B3"/>
<path d="M161.7 184V93.2L161.8 93.1L161.9 93.2V184L161.8 184.1L161.7 184Z" fill="#99A4B3"/>
<path d="M161.7 91.8V69.5L161.8 69.4L161.9 69.5V91.8L161.8 91.9L161.7 91.8Z" fill="#99A4B3"/>
<path d="M167.1 184V93.7L167.2 93.6L167.3 93.7V184L167.2 184.1L167.1 184Z" fill="#99A4B3"/>
<path d="M167.1 93.7V69.5L167.2 69.4L167.3 69.5V93.7L167.2 93.8L167.1 93.7Z" fill="#99A4B3"/>
<path d="M172.5 184V92L172.6 91.9L172.7 92V184L172.6 184.1L172.5 184Z" fill="#99A4B3"/>
<path d="M172.5 90.6V69.5L172.6 69.4L172.7 69.5V90.6L172.6 90.7L172.5 90.6Z" fill="#99A4B3"/>
<path d="M177.9 184V164.9L178 164.8L178.1 164.9V184L178 184.1L177.9 184Z" fill="#99A4B3"/>
<path d="M177.9 87.7V69.5L178 69.4L178.1 69.5V87.7L178 87.9L177.9 87.7Z" fill="#99A4B3"/>
<path d="M177.9 110.2V88.9L178 88.8L178.1 88.9V110.2L178 110.3L177.9 110.2Z" fill="#99A4B3"/>
<path d="M183.3 184V164.9L183.4 164.8L183.5 164.9V184L183.4 184.1L183.3 184Z" fill="#99A4B3"/>
<path d="M183.3 110.2V88.6L183.4 88.5L183.5 88.6V110.2L183.4 110.3L183.3 110.2Z" fill="#99A4B3"/>
<path d="M188.7 184V164.9L188.8 164.8L188.9 164.9V184L188.8 184.1L188.7 184Z" fill="#99A4B3"/>
<path d="M188.7 110.2V87L188.8 86.9L188.9 87V110.2L188.8 110.3L188.7 110.2Z" fill="#99A4B3"/>
<path d="M194.1 184V164.9L194.2 164.8L194.3 164.9V184L194.2 184.1L194.1 184Z" fill="#99A4B3"/>
<path d="M194.1 110.2V87L194.2 86.9L194.3 87V110.2L194.2 110.3L194.1 110.2Z" fill="#99A4B3"/>
<path d="M199.5 184V164.9L199.6 164.8L199.7 164.9V184L199.6 184.1L199.5 184Z" fill="#99A4B3"/>
<path d="M199.5 110.2V87L199.6 86.9L199.7 87V110.2L199.6 110.3L199.5 110.2Z" fill="#99A4B3"/>
<path d="M204.9 184V164.9L205 164.8L205.1 164.9V184L205 184.1L204.9 184Z" fill="#99A4B3"/>
<path d="M204.9 110.2V87L205 86.9L205.1 87V110.2L205 110.3L204.9 110.2Z" fill="#99A4B3"/>
<path d="M210.3 184V164.9L210.4 164.8L210.5 164.9V184L210.4 184.1L210.3 184Z" fill="#99A4B3"/>
<path d="M210.3 110.2V88.6L210.4 88.5L210.5 88.6V110.2L210.4 110.3L210.3 110.2Z" fill="#99A4B3"/>
<path d="M215.7 184V164.9L215.8 164.8L215.9 164.9V184L215.8 184.1L215.7 184Z" fill="#99A4B3"/>
<path d="M215.7 110.2V88.6L215.8 88.5L215.9 88.6V110.2L215.8 110.3L215.7 110.2Z" fill="#99A4B3"/>
<path d="M221.1 184V180.8L221.2 180.6L221.3 180.8V184L221.2 184.1L221.1 184Z" fill="#99A4B3"/>
<path d="M221.1 94.4V88.6L221.2 88.5L221.3 88.6V94.4L221.2 94.5L221.1 94.4Z" fill="#99A4B3"/>
<path d="M221.1 166.4V164.9L221.2 164.8L221.3 164.9V166.4L221.2 166.5L221.1 166.4Z" fill="#99A4B3"/>
<path d="M221.1 110.2V108.8L221.2 108.7L221.3 108.8V110.2L221.2 110.3L221.1 110.2Z" fill="#99A4B3"/>
<path d="M226.5 184V180.8L226.6 180.6L226.7 180.8V184L226.6 184.1L226.5 184Z" fill="#99A4B3"/>
<path d="M226.5 94.4V88.6L226.6 88.5L226.7 88.6V94.4L226.6 94.5L226.5 94.4Z" fill="#99A4B3"/>
<path d="M226.5 166.4V164.9L226.6 164.8L226.7 164.9V166.4L226.6 166.5L226.5 166.4Z" fill="#99A4B3"/>
<path d="M226.5 110.2V108.8L226.6 108.7L226.7 108.8V110.2L226.6 110.3L226.5 110.2Z" fill="#99A4B3"/>
<path d="M231.9 184V164.9L232 164.8L232.1 164.9V184L232 184.1L231.9 184Z" fill="#99A4B3"/>
<path d="M231.9 110.2V88.6L232 88.5L232.1 88.6V110.2L232 110.3L231.9 110.2Z" fill="#99A4B3"/>
<path d="M182 23.2H182.1V26.7L191 42V42.1L190.9 42.2L190.5 42.4H190.3L182.1 28.2V55.9H184.2V56L184.3 56.1V85.2H186.5V63.7L186.6 63.6H186.7H187.9H188V63.7V85.3V85.4H187.9H186.8V86.9H208.1V85.3L208.2 85.2H208.3H216.1V45.4V45.3L216.2 45.2H232.3V23.3H182V23.2H182.1H182V23.1H232.4H232.5V23.2V45.4L232.4 45.5H216.3V85.3V85.4H216.2H208.4V87L208.3 87.1H186.7H186.6L186.5 87V85.3L186.6 85.2H186.7H187.8V63.8H186.8V85.3V85.4H186.7H184.2H184.1L184 85.3V56.2H182H181.9V56.1V27.8L182 27.7H182.1L190.4 42.2L190.7 42L181.9 26.8V26.7V23.2V23.1H182V23.2Z" fill="#99A4B3"/>
<path d="M231.8 29.9H231.7L231.6 29.7L229.5 29.3H229.4C229.2 29.3 229.1 29.3 229 29.4C228.7 29.6 228.4 29.9 228.2 30.2L228.1 30.3C225.8 30.2 223.5 29.9 221.2 29.4C220.5 29.2 219.8 29.2 219 29.2C218 29.2 217.1 29.3 216.2 29.6C215.4 29.8 214.7 30.2 214 30.7C213.4 31.2 212.8 31.8 212.4 32.4C212.1 33 211.9 33.6 211.9 34.2C211.9 34.8 212.1 35.5 212.4 36C212.8 36.7 213.3 37.3 214 37.7C214.7 38.2 215.4 38.5 216.2 38.8C217.1 39.1 218.1 39.2 219 39.2C219.7 39.2 220.5 39.1 221.2 39C223.5 38.6 225.8 38.3 228.1 38.1L228.2 38.2C228.4 38.5 228.7 38.8 229 39C229.1 39.1 229.3 39.1 229.4 39.1H229.5L231.6 38.7L231.7 38.5V29.8H231.8H231.9V38.5C231.9 38.7 231.8 38.9 231.6 38.9L229.5 39.3H229.3C229.1 39.3 228.9 39.2 228.7 39.1C228.4 38.9 228.1 38.6 227.8 38.2L227.9 38.1V38.2C225.6 38.3 223.3 38.6 221.1 39.1C220.4 39.3 219.6 39.3 218.9 39.3C217.9 39.3 217 39.2 216 38.9C215.2 38.7 214.4 38.3 213.7 37.8C213 37.3 212.5 36.7 212.1 36C211.8 35.4 211.6 34.7 211.6 34.1C211.6 33.4 211.8 32.7 212.1 32.2C212.5 31.5 213.1 30.9 213.7 30.4C214.4 29.9 215.2 29.5 216 29.3C216.9 29 217.9 28.9 218.9 28.9C219.7 28.9 220.4 29 221.1 29.2C223.4 29.6 225.6 29.9 227.9 30.1V30.2L227.8 30.1C228 29.8 228.3 29.5 228.7 29.2C228.9 29.1 229.1 29 229.3 29H229.5L231.6 29.4C231.8 29.4 231.9 29.6 231.9 29.8H231.8V29.9Z" fill="#99A4B3"/>
<path d="M56.1 118.6V118.7H53.6H53.5L53.4 118.6V117H10.5V118.6V118.7H10.4H8V123.1H11.8V122L11.9 121.9H31.3L31.4 122V123.1H32.6V122H32.7L32.8 121.9H52.2L52.3 122V123.1H56V118.6H56.1V118.7V118.6H56.2V123.2V123.3H56.1H52.2H52.1V123.2V122.2H32.9V123.2L32.8 123.3H31.3H31.2V123.2V122.2H12V123.2V123.3H11.9H7.90002H7.79999L7.70001 123.2V118.6L7.79999 118.5H7.90002H10.3V116.9V116.8H10.4H53.6H53.7V116.9V118.5H56.1H56.2V118.6H56.1Z" fill="#99A4B3"/>
<path d="M92 160.3V160.2H135V139.2H119H118.9V139.1V118.7H92.1V122.3H114.9V121.2H90.4V144H92L92.1 144.1V160.3H92V160.2V160.3H91.9V144.3H90.3L90.2 144.2V144.1V121.1V121H90.3H115H115.1V121.1V122.4V122.5H115H92H91.9V122.4V118.6V118.5H92H119H119.1V118.6V139H135.2H135.3V139.1V160.3V160.4L135.2 160.5H92L91.9 160.4V160.3H92Z" fill="#99A4B3"/>
<path d="M134.6 145.4H134.5L134.4 145.2L132.3 144.8H132.2C132 144.8 131.9 144.8 131.8 144.9C131.5 145.1 131.2 145.4 131 145.7L130.9 145.8C128.6 145.7 126.3 145.4 124 144.9C123.3 144.7 122.6 144.7 121.8 144.7C120.8 144.7 119.9 144.8 119 145.1C118.2 145.3 117.5 145.7 116.8 146.2C116.2 146.7 115.6 147.3 115.2 147.9C114.9 148.5 114.7 149.1 114.7 149.7C114.7 150.3 114.9 151 115.2 151.5C115.6 152.2 116.1 152.8 116.8 153.2C117.5 153.7 118.2 154 119 154.3C119.9 154.6 120.9 154.7 121.8 154.7C122.5 154.7 123.3 154.6 124 154.5C126.3 154.1 128.6 153.8 130.9 153.6L131 153.7C131.2 154 131.5 154.3 131.8 154.5C131.9 154.6 132.1 154.6 132.2 154.6H132.3L134.4 154.2L134.5 154V145.3H134.6H134.7V154C134.7 154.2 134.6 154.4 134.4 154.4L132.3 154.8H132.1C131.9 154.8 131.7 154.7 131.5 154.6C131.2 154.4 130.9 154.1 130.6 153.7L130.7 153.6V153.7C128.4 153.8 126.1 154.1 123.9 154.6C123.2 154.8 122.4 154.9 121.7 154.9C120.7 154.9 119.8 154.8 118.8 154.5C118 154.3 117.2 153.9 116.5 153.4C115.8 152.9 115.3 152.3 114.9 151.6C114.6 151 114.4 150.3 114.4 149.7C114.4 149 114.6 148.3 114.9 147.8C115.3 147.1 115.9 146.5 116.5 146C117.2 145.5 118 145.1 118.8 144.9C119.7 144.6 120.7 144.5 121.7 144.5C122.5 144.5 123.2 144.6 123.9 144.7C126.2 145.1 128.4 145.4 130.7 145.6V145.7L130.6 145.6C130.8 145.3 131.1 145 131.5 144.7C131.7 144.6 131.9 144.5 132.1 144.5H132.3L134.4 144.9C134.6 144.9 134.7 145.1 134.7 145.3H134.6V145.4Z" fill="#99A4B3"/>
<path d="M98.8 160.3V122.4L99 122.3L99.1 122.4V160.3L99 160.5L98.8 160.3Z" fill="#99A4B3"/>
<path d="M98.8 121.1V118.6L99 118.5L99.1 118.6V121.1L99 121.2L98.8 121.1Z" fill="#99A4B3"/>
<path d="M107.5 160.3V122.4L107.6 122.3L107.7 122.4V160.3L107.6 160.5L107.5 160.3Z" fill="#99A4B3"/>
<path d="M107.5 121.1V118.6L107.6 118.5L107.7 118.6V121.1L107.6 121.2L107.5 121.1Z" fill="#99A4B3"/>
<path d="M116.1 160.3V153.1L116.2 153L116.4 153.1V160.3L116.2 160.5L116.1 160.3Z" fill="#99A4B3"/>
<path d="M116.1 146.3V118.6L116.2 118.5L116.4 118.6V146.3L116.2 146.5L116.1 146.3Z" fill="#99A4B3"/>
<path d="M124.7 160.3V154.5L124.9 154.3L125 154.5V160.3L124.9 160.5L124.7 160.3Z" fill="#99A4B3"/>
<path d="M124.7 145V139.1L124.9 139L125 139.1V145L124.9 145.1L124.7 145Z" fill="#99A4B3"/>
<path d="M133.4 160.3V154.5L133.5 154.4L133.6 154.5V160.3L133.5 160.5L133.4 160.3Z" fill="#99A4B3"/>
<path d="M133.4 144.9V139.1L133.5 139L133.6 139.1V144.9L133.5 145.1L133.4 144.9Z" fill="#99A4B3"/>
<path d="M135.2 153.3H134.6L134.5 153.1L134.6 153H135.2L135.3 153.1L135.2 153.3Z" fill="#99A4B3"/>
<path d="M116.3 153.3H92L91.9 153.1L92 153H116.3L116.4 153.1L116.3 153.3Z" fill="#99A4B3"/>
<path d="M119 136H90.3L90.2 135.9L90.3 135.7H119L119.1 135.9L119 136Z" fill="#99A4B3"/>
<path d="M40.8 116.9V122L40.7 122.2L40.6 122V116.9L40.7 116.8L40.8 116.9Z" fill="#99A4B3"/>
<path d="M23.5 116.9V122L23.4 122.2L23.3 122V116.9L23.4 116.8L23.5 116.9Z" fill="#99A4B3"/>
<path d="M190.5 87V42.2L190.6 42.1L190.7 42.2V87L190.6 87.1L190.5 87Z" fill="#99A4B3"/>
<path d="M190.5 41.7V23.2L190.6 23.1L190.7 23.2V41.7L190.6 41.8L190.5 41.7Z" fill="#99A4B3"/>
<path d="M199.1 87V23.2L199.3 23.1L199.4 23.2V87L199.3 87.1L199.1 87Z" fill="#99A4B3"/>
<path d="M207.8 87V23.2L207.9 23.1L208 23.2V87L207.9 87.1L207.8 87Z" fill="#99A4B3"/>
<path d="M216.4 45.4V39.2L216.5 39L216.7 39.2V45.4L216.5 45.5L216.4 45.4Z" fill="#99A4B3"/>
<path d="M216.4 29.4V23.2L216.5 23.1L216.7 23.2V29.4L216.5 29.5L216.4 29.4Z" fill="#99A4B3"/>
<path d="M225 45.4V38.6L225.2 38.5L225.3 38.6V45.4L225.2 45.5L225 45.4Z" fill="#99A4B3"/>
<path d="M225 30V23.2L225.2 23.1L225.3 23.2V30L225.2 30.1L225 30Z" fill="#99A4B3"/>
<path d="M216.2 69.8H187.9L187.8 69.7L187.9 69.6H216.2L216.3 69.7L216.2 69.8Z" fill="#99A4B3"/>
<path d="M186.7 69.8H184.2L184 69.7L184.2 69.6H186.7L186.8 69.7L186.7 69.8Z" fill="#99A4B3"/>
<path d="M216.2 52.5H182L181.9 52.4L182 52.3H216.2L216.3 52.4L216.2 52.5Z" fill="#99A4B3"/>
<path d="M232.4 35.3H231.8L231.7 35.2L231.8 35H232.4L232.5 35.2L232.4 35.3Z" fill="#99A4B3"/>
<path d="M186.2 35.3H182L181.9 35.2L182 35H186.2L186.4 35.2L186.2 35.3Z" fill="#99A4B3"/>
<path d="M211.8 35.3H186.9L186.8 35.2L186.9 35H211.8L211.9 35.2L211.8 35.3Z" fill="#99A4B3"/>
<path fill-rule="evenodd" clip-rule="evenodd" d="M1.40002 262H12.9V229.6H13.6V225.6H7.90002V148.1H61.1V118.6H63.6V115.3H53.6V118.6H56.1V144.8H7.90002V118.6H10.4V115.3H7.90002V59.4H16.9V55.3H16.1V52.1H12.9V3.29999H1.40002V262Z" fill="#22576F"/>
<path fill-rule="evenodd" clip-rule="evenodd" d="M88.5 232.8V229.6H87.9V225.6H88.7V211.6H92V225.6H110.1V220H132.9V188.4H92V190H88.7V144.1H92V183.4H135.2V118.6H92V121.1H88.7V118.6H85.2V115.3H118.5V112.7H121.9V115.3H140.2V232.8H88.5Z" fill="#22576F"/>
<path d="M153.8 85.3H148.8V88.6H153.8V85.3Z" fill="#22576F"/>
<path fill-rule="evenodd" clip-rule="evenodd" d="M231.2 23.2H232.4V85.3H208.3V88.6H232.4V184H230.6V188H231.3V191.3H234.6V262H241.1V3.29999H234.6V14.9H231.2V23.2Z" fill="#22576F"/>
<path fill-rule="evenodd" clip-rule="evenodd" d="M211.3 14.9H129V52.1H39.5V55.3H38.8V59.4H118.5V91.2H121.9V88.6H124.2V85.3H121.9V59.4H180.8V85.3H178.5V88.6H186.7V85.3H184.2V56.1H137.3V23.2H211.3V14.9Z" fill="#22576F"/>
<path d="M167.7 184.1H140.2L140.1 184L140.2 183.9H167.7L167.9 184L167.7 184.1Z" fill="#22576F"/>
<path d="M167.7 191.4H140.2L140.1 191.3L140.2 191.2H167.7L167.9 191.3L167.7 191.4Z" fill="#22576F"/>
<path d="M90 83.3H33.2V84.1H90.3L90.5 84.2L90.3 84.4H33.1L33 84.3L32.9 84.2V83.1H33L33.1 83H90L90.1 83.1L90 83.3Z" fill="#22576F"/>
<path d="M231.2 23.3H211.3L211.2 23.2L211.3 23.1H231.2L231.3 23.2L231.2 23.3Z" fill="#22576F"/>
<path d="M231.2 20.1H211.3L211.2 20L211.3 19.8H231.2L231.3 20L231.2 20.1Z" fill="#22576F"/>
<path d="M125.6 220V217.8L125.7 217.7L125.8 217.8V220L125.7 220.1L125.6 220Z" fill="#22576F"/>
<path d="M125.6 196.8V192.6L125.7 192.5L125.8 192.6V196.8L125.7 196.9L125.6 196.8ZM125.6 203.1V198.9L125.7 198.8L125.8 198.9V203.1L125.7 203.2L125.6 203.1ZM125.6 209.4V205.2L125.7 205.1L125.8 205.2V209.4L125.7 209.5L125.6 209.4ZM125.6 215.7V211.5L125.7 211.4L125.8 211.5V215.7L125.7 215.8L125.6 215.7Z" fill="#22576F"/>
<path d="M125.6 190.5V188.4L125.7 188.3L125.8 188.4V190.5L125.7 190.7L125.6 190.5Z" fill="#22576F"/>
<path d="M167.7 187.9H231.3L231.5 188L231.3 188.2H167.7L167.6 188L167.7 187.9Z" fill="#22576F"/>
<path d="M167.7 191.2H231.3L231.5 191.3L231.3 191.4H167.7L167.6 191.3L167.7 191.2Z" fill="#22576F"/>
<path d="M169.3 66.7H167.2L167 66.6L167.2 66.5H169.3L169.4 66.6L169.3 66.7Z" fill="#22576F"/>
<path d="M130.8 66.7H126.3L126.2 66.6L126.3 66.5H130.8L130.9 66.6L130.8 66.7ZM137.6 66.7H133.1L133 66.6L133.1 66.5H137.6L137.7 66.6L137.6 66.7ZM144.4 66.7H139.9L139.8 66.6L139.9 66.5H144.4L144.5 66.6L144.4 66.7ZM151.3 66.7H146.8L146.7 66.6L146.8 66.5H151.3L151.4 66.6L151.3 66.7ZM158.1 66.7H153.6L153.5 66.6L153.6 66.5H158.1L158.2 66.6L158.1 66.7ZM164.9 66.7H160.4L160.3 66.6L160.4 66.5H164.9L165 66.6L164.9 66.7Z" fill="#22576F"/>
<path d="M124 66.7H121.9L121.7 66.6L121.9 66.5H124L124.1 66.6L124 66.7Z" fill="#22576F"/>
<path d="M39.5 55.5H16.1L16 55.3L16.1 55.2H39.5L39.7 55.3L39.5 55.5Z" fill="#22576F"/>
<path d="M39.5 52.2H16.1L16 52.1L16.1 52H39.5L39.7 52.1L39.5 52.2Z" fill="#22576F"/>
<path d="M12.9 229.5H88.5L88.6 229.6L88.5 229.7H12.9L12.8 229.6L12.9 229.5Z" fill="#22576F"/>
<path d="M12.9 232.7H88.5L88.6 232.8L88.5 233H12.9L12.8 232.8L12.9 232.7Z" fill="#22576F"/>
<path d="M137.8 235V234.9H139.9H140L140.1 235V242.3H232.4L232.5 242.4V244.6V244.7H232.4H137.8H137.7V244.6V235V234.9H137.8V235H137.9V244.5H232.3V242.6H139.9L139.8 242.5V242.4V235.1H137.8V235H137.9H137.8Z" fill="#22576F"/>
<path d="M92 190V189.9H113.6H113.7V190V191.3V191.4H113.6H92H91.9V191.3V190V189.9H92V190H92.1V191.2H113.5V190.2H92V190H92.1H92Z" fill="#22576F"/>
<path d="M92 211.5C97.9 211.5 103.3 209.1 107.2 205.2C111.1 201.3 113.5 195.9 113.5 190L113.6 189.9L113.7 190C113.7 202 104 211.7 92 211.7L91.9 211.6L92 211.5Z" fill="#22576F"/>
<path d="M166.3 88.6C166.3 90.7 166.9 92.8 167.9 94.7V94.9H167.7C166.6 93 166 90.9 166 88.7L166.1 88.6H166.3Z" fill="#22576F"/>
<path d="M164.4 94.7C165.5 92.8 166 90.7 166 88.6L166.1 88.5L166.2 88.6C166.2 90.8 165.6 92.9 164.5 94.8H164.3L164.4 94.7Z" fill="#22576F"/>
<path d="M178.5 88.6L178.6 88.7L167.9 94.9H167.8H167.7L167.1 93.8V93.6L177.8 87.4H177.9L178 87.5L178.6 88.6V88.7L178.5 88.6L178.4 88.7L177.8 87.7L167.4 93.8L167.9 94.6L178.4 88.5L178.5 88.6L178.4 88.7L178.5 88.6Z" fill="#22576F"/>
<path d="M153.8 88.6L153.9 88.5L164.5 94.6L165 93.8L154.5 87.7L153.9 88.7L153.8 88.6L153.9 88.5L153.8 88.6H153.7L154.4 87.5V87.4H154.5L165.2 93.6L165.3 93.8L164.6 94.9H164.5L153.8 88.7L153.7 88.6H153.8Z" fill="#22576F"/>
<path d="M186.7 63.7V63.6H187.9H188L188.1 63.7V85.3L188 85.4H187.9H186.7H186.6L186.5 85.3V63.7L186.6 63.6H186.7V63.7H186.8V85.2H187.8V63.8H186.7V63.7H186.8H186.7Z" fill="#22576F"/>
<path d="M208.1 85.3C208.1 79.4 205.7 74 201.8 70.1C197.9 66.2 192.5 63.8 186.6 63.8L186.5 63.7L186.6 63.6C198.6 63.6 208.3 73.3 208.3 85.3L208.2 85.4L208.1 85.3Z" fill="#22576F"/>
<path d="M141.6 191.3V191.4H140.2H140.1V191.3V188L140.2 187.9H141.6L141.7 188H141.8V191.3L141.7 191.4H141.6V191.3H141.5V188.2H140.3V191.2H141.6V191.3H141.5H141.6Z" fill="#22576F"/>
<path d="M167.9 184V188L167.7 188.2L167.6 188V184L167.7 183.9L167.9 184Z" fill="#22576F"/>
<path d="M7.90002 136H10L10.1 136.1L10 136.3H7.90002L7.70001 136.1L7.90002 136Z" fill="#22576F"/>
<path d="M48 136H52L52.1 136.1L52 136.2H48L47.9 136.1L48 136ZM42 136H46L46.1 136.1L46 136.2H42L41.9 136.1L42 136ZM36 136H40L40.1 136.1L40 136.2H36L35.9 136.1L36 136ZM30 136H34L34.1 136.1L34 136.2H30L29.9 136.1L30 136ZM24 136H28L28.1 136.1L28 136.2H24L23.9 136.1L24 136ZM18 136H22L22.1 136.1L22 136.2H18L17.9 136.1L18 136ZM12 136H16L16.1 136.1L16 136.2H12L11.9 136.1L12 136Z" fill="#22576F"/>
<path d="M53.9 136H56.1L56.2 136.1L56.1 136.3H53.9L53.8 136.1L53.9 136Z" fill="#22576F"/>
<path d="M92 121.1V121H115H115.1V121.1V122.4V122.5H115H92H91.9V122.4V121.1V121H92V121.1H92.1V122.2H114.9V121.2H92V121.1H92.1H92Z" fill="#22576F"/>
<path d="M92 144C98.3 144 104.1 141.4 108.2 137.3C112.3 133.2 114.9 127.4 114.9 121.1L115 121L115.1 121.1C115.1 133.9 104.7 144.3 91.9 144.3L91.8 144.2L92 144Z" fill="#22576F"/>
<path d="M231.2 15.1H211.3L211.2 14.9L211.3 14.8H231.2L231.3 14.9L231.2 15.1Z" fill="#22576F"/>
<path d="M36.5 85.3V84.2L36.7 84.1L36.8 84.2V85.3L36.7 85.4L36.5 85.3Z" fill="#22576F"/>
<path d="M36.5 83.1V59.4L36.7 59.3L36.8 59.4V83.1L36.7 83.3L36.5 83.1Z" fill="#22576F"/>
<path d="M86.9 85.3V84.2L87 84.1L87.2 84.2V85.3L87 85.4L86.9 85.3Z" fill="#22576F"/>
<path d="M86.9 83.1V73.6L87 73.5L87.2 73.6V83.1L87 83.3L86.9 83.1Z" fill="#22576F"/>
<path d="M86.9 72.3V70.9L87 70.8L87.2 70.9V72.3L87 72.4L86.9 72.3Z" fill="#22576F"/>
<path d="M83.8 59.3L86.8 70.7L89.3 71.4L89.4 71.6L89.3 71.7L85.4 73L87.5 73.6L87.6 73.7L90.7 85.3V85.4L90.5 85.3L87.4 73.8L84.9 73.1L84.8 73L84.9 72.9L88.9 71.6L86.7 71L86.6 70.9L83.5 59.4L83.6 59.2L83.8 59.3Z" fill="#22576F"/>
<path d="M43.7 85.3V84.2L43.9 84.1L44 84.2V85.3L43.9 85.4L43.7 85.3Z" fill="#22576F"/>
<path d="M43.7 83.1V59.4L43.9 59.3L44 59.4V83.1L43.9 83.3L43.7 83.1Z" fill="#22576F"/>
<path d="M50.9 85.3V84.2L51.1 84.1L51.2 84.2V85.3L51.1 85.4L50.9 85.3Z" fill="#22576F"/>
<path d="M50.9 83.1V59.4L51.1 59.3L51.2 59.4V83.1L51.1 83.3L50.9 83.1Z" fill="#22576F"/>
<path d="M58.1 85.3V84.2L58.2 84.1L58.4 84.2V85.3L58.2 85.4L58.1 85.3Z" fill="#22576F"/>
<path d="M58.1 83.1V59.4L58.2 59.3L58.4 59.4V83.1L58.2 83.3L58.1 83.1Z" fill="#22576F"/>
<path d="M65.3 85.3V84.2L65.4 84.1L65.6 84.2V85.3L65.4 85.4L65.3 85.3Z" fill="#22576F"/>
<path d="M65.3 83.1V59.4L65.4 59.3L65.6 59.4V83.1L65.4 83.3L65.3 83.1Z" fill="#22576F"/>
<path d="M72.5 85.3V84.2L72.6 84.1L72.8 84.2V85.3L72.6 85.4L72.5 85.3Z" fill="#22576F"/>
<path d="M72.5 83.1V59.4L72.6 59.3L72.8 59.4V83.1L72.6 83.3L72.5 83.1Z" fill="#22576F"/>
<path d="M79.7 85.3V84.2L79.8 84.1L80 84.2V85.3L79.8 85.4L79.7 85.3Z" fill="#22576F"/>
<path d="M79.7 83.1V59.4L79.8 59.3L80 59.4V83.1L79.8 83.3L79.7 83.1Z" fill="#22576F"/>
<path d="M231.2 23.2V23.3H229.8H229.7L229.6 23.2V20L229.7 19.9L229.8 19.8H231.2L231.3 19.9V20V23.2V23.3H231.2V23.2H231.1V20.1H229.9V23.1H231.2V23.2H231.1H231.2Z" fill="#22576F"/>
<path d="M212.7 23.2V23.3H211.3H211.2V23.2V20V19.9L211.3 19.8H212.7L212.8 19.9V20V23.2V23.3H212.7V23.2H212.6V20.1H211.4V23.1H212.7V23.2H212.6H212.7Z" fill="#22576F"/>
<path d="M229.8 20.8H212.7L212.6 20.7L212.7 20.6H229.8L229.9 20.7L229.8 20.8Z" fill="#22576F"/>
<path d="M229.8 21.5H212.7L212.6 21.4L212.7 21.3H229.8L229.9 21.4L229.8 21.5Z" fill="#22576F"/>
<path d="M167.7 188V187.9H169.2L169.3 188V191.3V191.4H169.2H167.7H167.6V191.3V188L167.7 187.9V188H167.9V191.2H169.1V188.2H167.7V188H167.9H167.7Z" fill="#22576F"/>
<path d="M229.9 188V187.9H231.3L231.4 188H231.5V191.3L231.4 191.4H231.3H229.9H229.8V191.3V188L229.9 187.9V188H230V191.2H231.2V188.2H229.9V188H230H229.9Z" fill="#22576F"/>
<path d="M186.4 188V187.9H187.9L188 188V191.3V191.4H187.9H186.4L186.3 191.3V188H186.4V187.9V188H186.6V191.2H187.8V188.2H186.4V188H186.6H186.4Z" fill="#22576F"/>
<path d="M169.2 190.4H186.4L186.6 190.6L186.4 190.7H169.2L169.1 190.6L169.2 190.4Z" fill="#22576F"/>
<path d="M169.2 189.7H186.4L186.6 189.8L186.4 190H169.2L169.1 189.8L169.2 189.7Z" fill="#22576F"/>
<path d="M208 188V187.9H209.5L209.6 188V191.3V191.4H209.5H208L207.9 191.3V188H208V187.9V188H208.2V191.2H209.4V188.2H208V188H208.2H208Z" fill="#22576F"/>
<path d="M187.9 190.4H208L208.2 190.6L208 190.7H187.9L187.8 190.6L187.9 190.4Z" fill="#22576F"/>
<path d="M187.9 189.7H208L208.2 189.8L208 190H187.9L187.8 189.8L187.9 189.7Z" fill="#22576F"/>
<path d="M209.5 190.4H229.9L230 190.6L229.9 190.7H209.5L209.4 190.6L209.5 190.4Z" fill="#22576F"/>
<path d="M209.5 189.7H229.9L230 189.8L229.9 190H209.5L209.4 189.8L209.5 189.7Z" fill="#22576F"/>
<path d="M167.7 183.9H230.6L230.7 184L230.6 184.1H167.7L167.6 184L167.7 183.9Z" fill="#22576F"/>
<path d="M141.6 217.4V217.3H142.8V191.4H141.8V217.4H141.6V217.3V217.4H141.5V191.3L141.6 191.2H142.9H143V191.3V217.4V217.5H142.9H141.6L141.5 217.4H141.6Z" fill="#22576F"/>
<path d="M141.6 217.3C148.8 217.3 155.3 214.4 160 209.7C164.7 205 167.6 198.5 167.6 191.3L167.7 191.2L167.8 191.3C167.8 205.8 156.1 217.5 141.6 217.5L141.5 217.4L141.6 217.3Z" fill="#22576F"/>
<path d="M134.7 94.7C135.8 92.8 136.3 90.7 136.3 88.6L136.4 88.5L136.5 88.6C136.5 90.8 135.9 92.9 134.8 94.8H134.6L134.7 94.7Z" fill="#22576F"/>
<path d="M136.6 88.6C136.6 90.7 137.2 92.8 138.2 94.7V94.9H138C136.9 93 136.3 90.9 136.3 88.7L136.4 88.6H136.6Z" fill="#22576F"/>
<path d="M124.2 88.6V88.5L134.8 94.6L135.3 93.8L124.8 87.7L124.3 88.7L124.2 88.6V88.5V88.6H124.1L124.7 87.5L124.8 87.4H124.9L135.5 93.6L135.6 93.7V93.8L135 94.9H134.9H134.8L124.1 88.7V88.6H124.2Z" fill="#22576F"/>
<path d="M148.8 88.6L148.9 88.7L138.2 94.9H138.1L137.4 93.8L137.5 93.6L148.2 87.4L148.3 87.5L149 88.6V88.7H148.9L148.8 88.6L148.7 88.7L148.2 87.7L137.7 93.8L138.2 94.6L148.8 88.5V88.6L148.7 88.7L148.8 88.6Z" fill="#22576F"/>
<path d="M121.9 112.7V112.6H143.3V111.6H122V112.7H121.9V112.6V112.7H121.7V111.5L121.8 111.4H121.9H143.4H143.5L143.6 111.5V112.7L143.5 112.8L143.4 112.9H121.9L121.8 112.8L121.7 112.7H121.9Z" fill="#22576F"/>
<path d="M143.3 112.7C143.3 106.8 140.9 101.4 137 97.5C133.1 93.6 127.7 91.2 121.8 91.2L121.7 91.1L121.8 91C133.8 91 143.5 100.7 143.5 112.7L143.4 112.8L143.3 112.7Z" fill="#22576F"/>
<path d="M63.6 140.2V140.1H64.8V118.7H63.8V140.2H63.6V140.1V140.2H63.5V118.6L63.6 118.5H64.9H65V118.6V140.2V140.3H64.9H63.6L63.5 140.2H63.6Z" fill="#22576F"/>
<path d="M63.6 140.1C69.5 140.1 74.9 137.7 78.8 133.8C82.7 129.9 85.1 124.5 85.1 118.6L85.2 118.5L85.3 118.6C85.3 130.6 75.6 140.3 63.6 140.3L63.5 140.2L63.6 140.1Z" fill="#22576F"/>
<path d="M53.6 93.7V93.8H52.4V115.1H53.4V93.7H53.6V93.8V93.7H53.7V115.3V115.4H53.6H52.3H52.2V115.3V93.7V93.6L52.3 93.5H53.6L53.7 93.6V93.7H53.6Z" fill="#22576F"/>
<path d="M11.6 93.7V93.8H10.5V115.1H11.5V93.7H11.6V93.8V93.7H11.8V115.3L11.7 115.4H11.6H10.4H10.3V115.3V93.7V93.6L10.4 93.5H11.6L11.7 93.6L11.8 93.7H11.6Z" fill="#22576F"/>
<path d="M53.6 93.8C47.7 93.8 42.3 96.2 38.4 100.1C34.5 104 32.1 109.4 32.1 115.3L32 115.4L31.9 115.3C31.9 103.3 41.6 93.6 53.6 93.6L53.7 93.7L53.6 93.8Z" fill="#22576F"/>
<path d="M31.9 115.3C31.9 109.4 29.5 104 25.6 100.1C21.7 96.2 16.3 93.8 10.4 93.8L10.3 93.7L10.4 93.6C22.4 93.6 32.1 103.3 32.1 115.3L32 115.4L31.9 115.3Z" fill="#22576F"/>
<path d="M39.5 55.3V55.5H38.1L38 55.4V55.3V52.1V52H38.1H39.5H39.6L39.7 52.1V55.3L39.6 55.4L39.5 55.5V55.3H39.4V52.2H38.2V55.2H39.5V55.3H39.4H39.5Z" fill="#22576F"/>
<path d="M17.6 55.3V55.5H16.1V55.4L16 55.3V52.1L16.1 52H17.6H17.7V52.1V55.3V55.4L17.6 55.5V55.3H17.5V52.2H16.3V55.2H17.6V55.3H17.5H17.6Z" fill="#22576F"/>
<path d="M38.1 53H17.6L17.5 52.8L17.6 52.7H38.1L38.2 52.8L38.1 53Z" fill="#22576F"/>
<path d="M38.1 53.7H17.6L17.5 53.5L17.6 53.4H38.1L38.2 53.5L38.1 53.7Z" fill="#22576F"/>
<path d="M38.8 59.5H16.9L16.7 59.4L16.9 59.3H38.8L38.9 59.4L38.8 59.5Z" fill="#22576F"/>
<path d="M12.9 229.6V229.5H14.3H14.4L14.5 229.6V232.8L14.4 232.9L14.3 233H12.9L12.8 232.9V232.8V229.6V229.5H12.9V229.6H13V232.7H14.2V229.7H12.9V229.6H13H12.9Z" fill="#22576F"/>
<path d="M87 229.6V229.5H88.5H88.6V229.6V232.8V232.9L88.5 233H87L86.9 232.9V232.8V229.6V229.5H87V229.6H87.2V232.7H88.4V229.7H87V229.6H87.2H87Z" fill="#22576F"/>
<path d="M29.5 229.6V229.5H30.9H31V229.6V232.8V232.9L30.9 233H29.5L29.4 232.9L29.3 232.8V229.6L29.4 229.5H29.5V229.6H29.6V232.7H30.8V229.7H29.5V229.6H29.6H29.5Z" fill="#22576F"/>
<path d="M14.3 232H29.5L29.6 232.1L29.5 232.3H14.3L14.2 232.1L14.3 232Z" fill="#22576F"/>
<path d="M14.3 231.3H29.5L29.6 231.4L29.5 231.5H14.3L14.2 231.4L14.3 231.3Z" fill="#22576F"/>
<path d="M70.5 229.6V229.5H71.9H72V229.6V232.8V232.9L71.9 233H70.5L70.4 232.9V232.8V229.6V229.5H70.5V229.6H70.6V232.7H71.8V229.7H70.5V229.6H70.6H70.5Z" fill="#22576F"/>
<path d="M30.9 232H70.5L70.6 232.1L70.5 232.3H30.9L30.8 232.1L30.9 232Z" fill="#22576F"/>
<path d="M30.9 231.3H70.5L70.6 231.4L70.5 231.5H30.9L30.8 231.4L30.9 231.3Z" fill="#22576F"/>
<path d="M71.9 232H87L87.2 232.1L87 232.3H71.9L71.8 232.1L71.9 232Z" fill="#22576F"/>
<path d="M71.9 231.3H87L87.2 231.4L87 231.5H71.9L71.8 231.4L71.9 231.3Z" fill="#22576F"/>
<path d="M13.6 225.4H87.8L87.9 225.6L87.8 225.7H13.6L13.5 225.6L13.6 225.4Z" fill="#22576F"/>
<path d="M9.20001 208.4V165.2L9.29999 165.1L9.40002 165.2V208.4L9.29999 208.5L9.20001 208.4Z" fill="#22576F"/>
<path d="M7.90002 165.2V165.1H66.9L67 165.2V208.4V208.5H66.9H7.90002H7.79999L7.70001 208.4V165.2H7.79999L7.90002 165.1V165.2H8V208.3H66.8V165.4H7.90002V165.2H8H7.90002Z" fill="#22576F"/>
<path d="M24.7 185V185.1C23.1 184.6 21.4 184.4 19.7 184.4C18 184.4 16.3 184.6 14.7 185.1H14.6V185C15 182 15.1 179 15.1 176C15.1 173 14.9 170 14.6 167V166.9H14.7C16.3 167.4 18 167.6 19.7 167.6C21.4 167.6 23.1 167.4 24.7 166.9H24.8V167C24.4 170 24.3 173 24.3 176C24.3 179 24.5 182 24.8 185H24.7H24.6C24.2 182 24.1 179 24.1 176C24.1 173 24.3 170 24.6 167H24.7V167.1C23 167.6 21.3 167.8 19.6 167.8C17.9 167.8 16.2 167.6 14.5 167.1V167H14.6C15 170 15.1 173 15.1 176C15.1 179 14.9 182 14.6 185H14.5V184.9C16.2 184.4 17.9 184.2 19.6 184.2C21.3 184.2 23 184.4 24.7 184.9V185Z" fill="#22576F"/>
<path d="M21.5 186.2C19.6 185.7 17.7 185.5 15.8 185.5C13.9 185.5 12 185.7 10.1 186.2H10V186.1C10.5 182.8 10.7 179.4 10.7 176C10.7 172.6 10.5 169.3 10 165.9V165.8H10.1C12 166.3 13.9 166.5 15.8 166.5C17.7 166.5 19.6 166.3 21.5 165.8H21.6V165.9C21.5 166.5 21.4 167 21.4 167.6L21.3 167.7L21.2 167.6C21.3 167 21.3 166.4 21.4 165.9H21.5V166C19.6 166.5 17.7 166.7 15.7 166.7C13.8 166.7 11.8 166.5 9.90002 166V165.9H10C10.5 169.2 10.7 172.6 10.7 176C10.7 179.4 10.5 182.7 10 186.1H9.90002V186C11.8 185.5 13.7 185.3 15.7 185.3C17.7 185.3 19.6 185.5 21.5 186L21.6 186.2H21.5Z" fill="#22576F"/>
<path d="M24.7 188.6V188.7C23 189.2 21.3 189.4 19.6 189.4C17.9 189.4 16.2 189.2 14.5 188.7V188.6H14.6C15 191.6 15.1 194.6 15.1 197.6C15.1 200.6 14.9 203.6 14.6 206.6H14.5V206.5C16.2 206 17.9 205.8 19.6 205.8C21.3 205.8 23 206 24.7 206.5V206.6H24.6C24.2 203.6 24.1 200.6 24.1 197.6C24.1 194.6 24.3 191.6 24.6 188.6H24.7H24.8C24.4 191.6 24.3 194.6 24.3 197.6C24.3 200.6 24.5 203.6 24.8 206.6V206.7H24.7C23.1 206.2 21.4 206 19.7 206C18 206 16.3 206.2 14.7 206.7H14.6V206.6C15 203.6 15.1 200.6 15.1 197.6C15.1 194.6 14.9 191.6 14.6 188.6V188.5H14.7C16.3 189 18 189.2 19.7 189.2C21.4 189.2 23.1 189 24.7 188.5V188.6Z" fill="#22576F"/>
<path d="M21.6 187.7C19.7 188.2 17.8 188.4 15.8 188.4C13.9 188.4 11.9 188.2 10 187.7V187.6H10.1C10.6 190.9 10.8 194.3 10.8 197.7C10.8 201.1 10.6 204.4 10.1 207.8H10V207.7C11.9 207.2 13.8 207 15.8 207C17.7 207 19.7 207.2 21.6 207.7V207.8H21.5C21.4 207.2 21.3 206.7 21.3 206.1L21.4 206L21.5 206.1C21.6 206.7 21.6 207.2 21.7 207.8V207.9H21.6C19.7 207.4 17.8 207.2 15.9 207.2C14 207.2 12.1 207.4 10.2 207.9H10.1V207.8C10.6 204.5 10.8 201.1 10.8 197.7C10.8 194.3 10.6 191 10.1 187.6V187.5H10.2C12.1 188 14 188.2 15.9 188.2C17.8 188.2 19.7 188 21.6 187.5L21.8 187.6L21.6 187.7Z" fill="#22576F"/>
<path d="M16.6 165.2V166.7L16.5 166.8L16.4 166.7V165.2L16.5 165.1L16.6 165.2Z" fill="#22576F"/>
<path d="M26 165.2V208.4L25.9 208.5L25.7 208.4V165.2L25.9 165.1L26 165.2Z" fill="#22576F"/>
<path d="M16.6 185.4V188.3L16.5 188.4L16.4 188.3V185.4L16.5 185.3L16.6 185.4Z" fill="#22576F"/>
<path d="M16.6 207V208.4L16.5 208.5L16.4 208.4V207L16.5 206.9L16.6 207Z" fill="#22576F"/>
<path d="M21.4 184.4C21.5 185 21.5 185.5 21.6 186.1L21.5 186.2L21.4 186.1C21.3 185.5 21.2 185 21.2 184.4L21.3 184.3L21.4 184.4Z" fill="#22576F"/>
<path d="M21.7 187.6C21.6 188.2 21.5 188.7 21.5 189.3L21.4 189.4L21.3 189.3C21.4 188.7 21.4 188.1 21.5 187.6L21.6 187.5L21.7 187.6Z" fill="#22576F"/>
<path d="M20.8 209.9V210H9.40002V224.1H20.7V209.9H20.8V210V209.9H20.9V224.3L20.8 224.4H9.29999L9.20001 224.3V209.9V209.8L9.29999 209.7H20.8L20.9 209.8V209.9H20.8Z" fill="#22576F"/>
<path d="M20.8 163.8V163.9H9.29999H9.20001V163.8V149.4V149.3H9.29999H20.8H20.9V149.4V163.8V163.9H20.8V163.8H20.7V149.5H9.40002V163.7H20.8V163.8H20.7H20.8Z" fill="#22576F"/>
<path d="M10.8 217.1H10.7C10.7 214.7 12.7 212.7 15.1 212.7C17.5 212.7 19.5 214.7 19.5 217.1C19.5 219.5 17.5 221.5 15.1 221.5C12.7 221.5 10.7 219.5 10.7 217.1H10.8H10.9C10.9 218.2 11.4 219.3 12.1 220C12.9 220.8 13.9 221.2 15 221.2C16.1 221.2 17.2 220.7 17.9 220C18.7 219.2 19.1 218.2 19.1 217.1C19.1 216 18.6 214.9 17.9 214.2C17.1 213.4 16.1 213 15 213C13.9 213 12.8 213.5 12.1 214.2C11.3 215 10.9 216 10.9 217.1H10.8Z" fill="#22576F"/>
<path d="M14 217.1H13.9C13.9 216.4 14.4 215.9 15.1 215.9C15.8 215.9 16.3 216.4 16.3 217.1C16.3 217.8 15.8 218.3 15.1 218.3C14.4 218.3 13.9 217.8 13.9 217.1H14H14.1C14.1 217.6 14.5 218.1 15.1 218.1C15.6 218.1 16.1 217.7 16.1 217.1C16.1 216.6 15.7 216.1 15.1 216.1C14.6 216.1 14.1 216.5 14.1 217.1H14Z" fill="#22576F"/>
<path d="M19.3 217.2H16.2L16 217.1L16.2 216.9H19.3L19.5 217.1L19.3 217.2Z" fill="#22576F"/>
<path d="M14 217.2H10.8L10.7 217.1L10.8 216.9H14L14.1 217.1L14 217.2Z" fill="#22576F"/>
<path d="M14.9 221.3V218.2L15.1 218L15.2 218.2V221.3L15.1 221.5L14.9 221.3Z" fill="#22576F"/>
<path d="M14.9 216V212.8L15.1 212.7L15.2 212.8V216L15.1 216.1L14.9 216Z" fill="#22576F"/>
<path d="M10.8 156.6H10.7C10.7 154.2 12.7 152.2 15.1 152.2C17.5 152.2 19.5 154.2 19.5 156.6C19.5 159 17.5 161 15.1 161C12.7 161 10.7 159 10.7 156.6H10.8H10.9C10.9 157.7 11.4 158.8 12.1 159.5C12.9 160.3 13.9 160.7 15 160.7C16.1 160.7 17.2 160.2 17.9 159.5C18.7 158.7 19.1 157.7 19.1 156.6C19.1 155.5 18.6 154.4 17.9 153.7C17.1 152.9 16.1 152.5 15 152.5C13.9 152.5 12.8 153 12.1 153.7C11.3 154.5 10.9 155.5 10.9 156.6H10.8Z" fill="#22576F"/>
<path d="M14 156.6H13.9C13.9 155.9 14.4 155.4 15.1 155.4C15.8 155.4 16.3 155.9 16.3 156.6C16.3 157.3 15.8 157.8 15.1 157.8C14.4 157.8 13.9 157.3 13.9 156.6H14H14.1C14.1 157.1 14.5 157.6 15.1 157.6C15.6 157.6 16.1 157.2 16.1 156.6C16.1 156.1 15.7 155.6 15.1 155.6C14.6 155.6 14.1 156 14.1 156.6H14Z" fill="#22576F"/>
<path d="M19.3 156.7H16.2L16 156.6L16.2 156.5H19.3L19.5 156.6L19.3 156.7Z" fill="#22576F"/>
<path d="M14 156.7H10.8L10.7 156.6L10.8 156.5H14L14.1 156.6L14 156.7Z" fill="#22576F"/>
<path d="M14.9 160.9V157.7L15.1 157.6L15.2 157.7V160.9L15.1 161L14.9 160.9Z" fill="#22576F"/>
<path d="M14.9 155.5V152.3L15.1 152.2L15.2 152.3V155.5L15.1 155.6L14.9 155.5Z" fill="#22576F"/>
<path d="M231.1 110.2V164.9L231 165.1L230.9 164.9V110.2L231 110.1L231.1 110.2Z" fill="#22576F"/>
<path d="M232.4 164.9V165.1H173.4L173.3 165V164.9V110.2V110.1H173.4H232.4H232.5V110.2V164.9V165L232.4 165.1V164.9H232.3V110.4H173.5V164.8H232.4V164.9H232.3H232.4Z" fill="#22576F"/>
<path d="M215.6 139.4V139.3C217.2 139.8 218.9 140 220.6 140C222.3 140 224 139.8 225.6 139.3H225.7V139.4C225.3 143.2 225.2 147.1 225.2 150.9C225.2 154.7 225.4 158.6 225.7 162.4V162.5H225.6C224 162 222.3 161.8 220.6 161.8C218.9 161.8 217.2 162 215.6 162.5H215.5V162.4C215.9 158.6 216 154.7 216 150.9C216 147.1 215.8 143.2 215.5 139.4H215.6H215.7C216.1 143.2 216.2 147.1 216.2 150.9C216.2 154.7 216 158.6 215.7 162.4H215.6V162.3C217.3 161.8 219 161.6 220.7 161.6C222.4 161.6 224.1 161.8 225.8 162.3V162.4H225.7C225.3 158.6 225.2 154.7 225.2 150.9C225.2 147.1 225.4 143.2 225.7 139.4H225.8V139.5C224.1 140 222.4 140.2 220.7 140.2C219 140.2 217.3 140 215.6 139.5V139.4Z" fill="#22576F"/>
<path d="M218.8 138.2C220.7 138.7 222.6 138.9 224.5 138.9C226.4 138.9 228.3 138.7 230.2 138.2H230.3V138.3C229.8 142.5 229.6 146.7 229.6 150.9C229.6 155.1 229.8 159.3 230.3 163.5V163.6H230.2C228.3 163.1 226.4 162.9 224.5 162.9C222.6 162.9 220.7 163.1 218.8 163.6H218.7V163.5C218.8 162.9 218.9 162.4 218.9 161.8L219 161.7L219.1 161.8C219 162.4 219 163 218.9 163.5H218.8V163.4C220.7 162.9 222.6 162.7 224.6 162.7C226.5 162.7 228.5 162.9 230.4 163.4V163.5H230.3C229.8 159.3 229.6 155.1 229.6 150.9C229.6 146.7 229.8 142.5 230.3 138.3H230.4V138.4C228.5 138.9 226.6 139.1 224.6 139.1C222.7 139.1 220.7 138.9 218.8 138.4L218.7 138.2H218.8Z" fill="#22576F"/>
<path d="M215.6 135.8V135.7C217.3 135.2 219 135 220.7 135C222.4 135 224.1 135.2 225.8 135.7V135.8H225.7C225.3 132 225.2 128.1 225.2 124.3C225.2 120.5 225.4 116.6 225.7 112.8H225.8V112.9C224.1 113.4 222.4 113.6 220.7 113.6C219 113.6 217.3 113.4 215.6 112.9V112.8H215.7C216.1 116.6 216.2 120.5 216.2 124.3C216.2 128.1 216 132 215.7 135.8H215.6H215.5C215.9 132 216 128.1 216 124.3C216 120.5 215.8 116.6 215.5 112.8V112.7H215.6C217.2 113.2 218.9 113.4 220.6 113.4C222.3 113.4 224 113.2 225.6 112.7H225.7V112.8C225.3 116.6 225.2 120.5 225.2 124.3C225.2 128.1 225.4 132 225.7 135.8V135.9H225.6C224 135.4 222.3 135.2 220.6 135.2C218.9 135.2 217.2 135.4 215.6 135.9V135.8Z" fill="#22576F"/>
<path d="M218.7 136.7C220.6 136.2 222.5 136 224.5 136C226.4 136 228.4 136.2 230.3 136.7V136.8H230.2C229.7 132.6 229.5 128.4 229.5 124.2C229.5 120 229.7 115.8 230.2 111.6H230.3V111.7C228.4 112.2 226.5 112.4 224.5 112.4C222.6 112.4 220.6 112.2 218.7 111.7V111.6H218.8C218.9 112.2 219 112.7 219 113.3L218.9 113.4L218.8 113.3C218.7 112.7 218.7 112.2 218.6 111.6V111.5H218.7C220.6 112 222.5 112.2 224.4 112.2C226.3 112.2 228.2 112 230.1 111.5H230.2V111.6C229.7 115.8 229.5 120 229.5 124.2C229.5 128.4 229.7 132.6 230.2 136.8V136.9H230.1C228.2 136.4 226.3 136.2 224.4 136.2C222.5 136.2 220.6 136.4 218.7 136.9L218.5 136.8L218.7 136.7Z" fill="#22576F"/>
<path d="M223.7 164.9V162.8L223.8 162.7L223.9 162.8V164.9L223.8 165.1L223.7 164.9Z" fill="#22576F"/>
<path d="M214.3 164.9V110.2L214.4 110.1L214.6 110.2V164.9L214.4 165.1L214.3 164.9Z" fill="#22576F"/>
<path d="M223.7 139V136.1L223.8 136L223.9 136.1V139L223.8 139.1L223.7 139Z" fill="#22576F"/>
<path d="M223.7 112.4V110.2L223.8 110.1L223.9 110.2V112.4L223.8 112.5L223.7 112.4Z" fill="#22576F"/>
<path d="M218.8 140C218.7 139.4 218.7 138.9 218.6 138.3L218.7 138.2L218.8 138.3C218.9 138.9 219 139.4 219 140L218.9 140.1L218.8 140Z" fill="#22576F"/>
<path d="M218.6 136.8C218.7 136.2 218.8 135.7 218.8 135.1L218.9 135L219 135.1C218.9 135.7 218.9 136.3 218.8 136.8L218.7 136.9L218.6 136.8Z" fill="#22576F"/>
<path d="M219.5 166.4V166.2H231L231.1 166.3V166.4V180.8L231 180.9H219.5L219.4 180.8H219.3V166.4L219.4 166.3L219.5 166.2V166.4H219.6V180.6H230.9V166.5H219.5V166.4H219.6H219.5Z" fill="#22576F"/>
<path d="M219.5 108.8V108.7H230.9V94.5H219.6V108.8H219.5V108.7V108.8H219.3V94.4L219.4 94.3H219.5H231H231.1V94.4V108.8V108.9H231H219.5H219.4L219.3 108.8H219.5Z" fill="#22576F"/>
<path d="M220.9 173.6H220.8C220.8 171.2 222.8 169.2 225.2 169.2C227.6 169.2 229.6 171.2 229.6 173.6C229.6 176 227.6 178 225.2 178C222.8 178 220.8 176 220.8 173.6H220.9H221C221 174.7 221.5 175.8 222.2 176.5C223 177.3 224 177.7 225.1 177.7C226.2 177.7 227.3 177.2 228 176.5C228.8 175.7 229.2 174.7 229.2 173.6C229.2 172.5 228.7 171.4 228 170.7C227.2 169.9 226.2 169.5 225.1 169.5C224 169.5 222.9 170 222.2 170.7C221.4 171.5 221 172.5 221 173.6H220.9Z" fill="#22576F"/>
<path d="M224.1 173.6H224C224 172.9 224.5 172.4 225.2 172.4C225.9 172.4 226.4 172.9 226.4 173.6C226.4 174.3 225.9 174.8 225.2 174.8C224.5 174.8 224 174.3 224 173.6H224.1H224.2C224.2 174.1 224.6 174.6 225.2 174.6C225.7 174.6 226.2 174.2 226.2 173.6C226.2 173.1 225.8 172.6 225.2 172.6C224.7 172.6 224.2 173 224.2 173.6H224.1Z" fill="#22576F"/>
<path d="M225.1 177.8V174.7L225.2 174.5L225.3 174.7V177.8L225.2 178L225.1 177.8Z" fill="#22576F"/>
<path d="M225.1 172.5V169.3L225.2 169.2L225.3 169.3V172.5L225.2 172.6L225.1 172.5Z" fill="#22576F"/>
<path d="M220.9 173.4H224.1L224.2 173.6L224.1 173.7H220.9L220.8 173.6L220.9 173.4Z" fill="#22576F"/>
<path d="M226.3 173.4H229.5L229.6 173.6L229.5 173.7H226.3L226.2 173.6L226.3 173.4Z" fill="#22576F"/>
<path d="M220.9 101.6H220.8C220.8 99.2 222.8 97.2 225.2 97.2C227.6 97.2 229.6 99.2 229.6 101.6C229.6 104 227.6 106 225.2 106C222.8 106 220.8 104 220.8 101.6H220.9H221C221 102.7 221.5 103.8 222.2 104.5C223 105.3 224 105.7 225.1 105.7C226.2 105.7 227.3 105.2 228 104.5C228.8 103.7 229.2 102.7 229.2 101.6C229.2 100.5 228.7 99.4 228 98.7C227.2 97.9 226.2 97.5 225.1 97.5C224 97.5 222.9 98 222.2 98.7C221.4 99.5 221 100.5 221 101.6H220.9Z" fill="#22576F"/>
<path d="M224.1 101.6H224C224 100.9 224.5 100.4 225.2 100.4C225.9 100.4 226.4 100.9 226.4 101.6C226.4 102.3 225.9 102.8 225.2 102.8C224.5 102.8 224 102.3 224 101.6H224.1H224.2C224.2 102.1 224.6 102.6 225.2 102.6C225.7 102.6 226.2 102.2 226.2 101.6C226.2 101.1 225.8 100.6 225.2 100.6C224.7 100.6 224.2 101 224.2 101.6H224.1Z" fill="#22576F"/>
<path d="M225.3 97.3V100.5L225.2 100.6L225.1 100.5V97.3L225.2 97.2L225.3 97.3Z" fill="#22576F"/>
<path d="M225.3 102.7V105.9L225.2 106L225.1 105.9V102.7L225.2 102.6L225.3 102.7Z" fill="#22576F"/>
<path d="M220.9 101.5H224.1L224.2 101.6L224.1 101.7H220.9L220.8 101.6L220.9 101.5Z" fill="#22576F"/>
<path d="M226.3 101.5H229.5L229.6 101.6L229.5 101.7H226.3L226.2 101.6L226.3 101.5Z" fill="#22576F"/>
<path d="M190.4 42.3L190.3 42.4L180.2 25L180.3 24.8L180.7 24.5H180.8L180.9 24.6L191 42V42.1L190.9 42.2L190.5 42.4H190.3L190.4 42.3L190.3 42.2L190.7 42L180.8 24.8L180.5 25L190.5 42.3H190.4L190.3 42.2L190.4 42.3Z" fill="#22576F"/>
<path d="M182.1 23.2V26.7L182 26.8L181.9 26.7V23.2L182 23.1L182.1 23.2Z" fill="#22576F"/>
<path d="M182.1 27.8V56.1L182 56.2L181.9 56.1V27.8L182 27.6L182.1 27.8Z" fill="#22576F"/>
<path d="M180.9 23.2V24.7L180.8 24.8H180.3L180.2 24.7H180.1V23.2L180.3 23.1L180.4 23.2V24.5H180.7V23.2L180.8 23.1L180.9 23.2Z" fill="#22576F"/>
<path d="M180.8 44.8V44.9H180.4V55.9H180.7V44.8H180.8V44.9V44.8H180.9V56.1V56.2H180.8H180.3H180.2L180.1 56.1V44.8L180.2 44.7L180.3 44.6H180.8L180.9 44.7V44.8H180.8Z" fill="#22576F"/>
<path d="M137.4 39.9H139.3L139.4 40L139.3 40.1H137.4L137.2 40L137.4 39.9Z" fill="#22576F"/>
<path d="M139.1 40V39.3L139.3 39.2L139.4 39.3V40L139.3 40.1L139.1 40Z" fill="#22576F"/>
<path d="M139.3 39.4H137.4L137.2 39.3L137.4 39.2H139.3L139.4 39.3L139.3 39.4Z" fill="#22576F"/>
<path d="M137.3 40H137.4L137.5 40.1L137.4 40.2H137.3L137.1 40.1L137.3 40Z" fill="#22576F"/>
<path d="M137.2 40.1V39.2L137.4 39.1L137.5 39.2V40.1L137.4 40.2L137.2 40.1Z" fill="#22576F"/>
<path d="M137.4 39.3H137.3L137.1 39.2L137.3 39.1H137.4L137.5 39.2L137.4 39.3Z" fill="#22576F"/>
<path d="M139.2 41.3V38.7L139.4 38.6L139.5 38.7V41.3L139.4 41.4L139.2 41.3Z" fill="#22576F"/>
<path d="M139.2 37.8H138.7L138.6 37.7L138.7 37.6H139.2L139.3 37.7L139.2 37.8Z" fill="#22576F"/>
<path d="M138.8 37.7V39.3L138.7 39.4L138.6 39.3V37.7L138.7 37.6L138.8 37.7Z" fill="#22576F"/>
<path d="M138.8 40V41.3L138.7 41.4L138.6 41.3V40L138.7 39.9L138.8 40Z" fill="#22576F"/>
<path d="M138.7 41.2H139.4L139.5 41.3L139.4 41.4H138.7L138.6 41.3L138.7 41.2Z" fill="#22576F"/>
<path d="M139.4 40.7H138.7L138.6 40.6L138.7 40.5H139.4L139.5 40.6L139.4 40.7Z" fill="#22576F"/>
<path d="M140.3 39.2C140.8 39.2 141.2 38.8 141.2 38.2V38.1C141.2 37.5 140.8 37.1 140.4 37H140.2L140.1 36.9L140.2 36.8H140.4C141 36.9 141.4 37.4 141.4 38.1V38.2C141.4 38.9 140.9 39.4 140.3 39.4H140.2L140.1 39.3L140.3 39.2Z" fill="#22576F"/>
<path d="M139.3 38.1H139.4C139.4 38.4 139.5 38.7 139.7 38.9C139.9 39.1 140.1 39.2 140.3 39.2C140.5 39.2 140.7 39.1 140.9 38.9C141.1 38.7 141.2 38.4 141.2 38.1C141.2 37.8 141.1 37.5 140.9 37.3C140.7 37.1 140.5 37 140.3 37C140.1 37 139.9 37.1 139.7 37.3C139.5 37.5 139.4 37.8 139.4 38.1H139.3H139.2C139.2 37.4 139.7 36.8 140.3 36.8C140.9 36.8 141.4 37.4 141.4 38.1C141.4 38.8 140.9 39.4 140.3 39.4C139.7 39.4 139.2 38.8 139.2 38.1H139.3Z" fill="#22576F"/>
<path d="M139.4 38.9L139.3 38.8L139.1 38.6H139H138.9L138.8 38.4L138.9 38.3H139L139.2 38.4H139.3L139.5 38.6L139.6 38.7L139.5 38.9H139.4Z" fill="#22576F"/>
<path d="M139.6 37.5L139.5 37.6L139.3 37.8H139.2L139 37.9H138.9L138.8 37.8L138.9 37.7H139L139.1 37.6L139.3 37.4L139.4 37.3H139.6V37.5Z" fill="#22576F"/>
<path d="M139 37.9L138.9 38.1V38.2L139.1 38.4V38.6H138.9L138.7 38.4V38.2C138.7 38 138.8 37.8 139 37.8L139.2 37.9H139Z" fill="#22576F"/>
<path d="M137.1 40.1V39.2L137.3 39.1L137.4 39.2V40.1L137.3 40.2L137.1 40.1Z" fill="#22576F"/>
<path d="M145.3 38.7H145.2C145.2 37.7 146 36.9 147 36.9C148 36.9 148.8 37.7 148.8 38.7C148.8 39.7 148 40.5 147 40.5C146 40.5 145.2 39.7 145.2 38.7H145.3H145.4C145.4 39.6 146.1 40.3 147 40.3C147.9 40.3 148.6 39.6 148.6 38.7C148.6 37.8 147.9 37.1 147 37.1C146.1 37.1 145.4 37.8 145.4 38.7H145.3Z" fill="#22576F"/>
<path d="M179 56.1V23.2L179.1 23.1L179.2 23.2V56.1L179.1 56.2L179 56.1Z" fill="#22576F"/>
<path d="M179.1 24.4H168.2L168.1 24.3L168.2 24.2H179.1L179.2 24.3L179.1 24.4Z" fill="#22576F"/>
<path d="M166.6 24.4H141.4V37.7L141.3 37.8L141.2 37.7V24.3V24.2H141.3H166.6L166.8 24.3L166.6 24.4Z" fill="#22576F"/>
<path d="M180.8 44.6C184.3 44.6 187.8 43.7 190.8 41.9H191V42.1C187.9 43.9 184.4 44.8 180.9 44.8L180.8 44.7V44.6Z" fill="#22576F"/>
<path d="M166.6 24H168.2L168.3 24.2L168.2 24.3H166.6L166.5 24.2L166.6 24Z" fill="#22576F"/>
<path d="M170 23.9H164.8L164.7 23.8L164.8 23.7H170L170.1 23.8L170 23.9Z" fill="#22576F"/>
<path d="M164.9 23.7C165.5 23.9 166.1 24 166.7 24L166.8 24.1L166.7 24.2C166.1 24.2 165.5 24 164.9 23.9L164.8 23.7H164.9Z" fill="#22576F"/>
<path d="M168.2 24C168.8 24 169.4 23.8 170 23.7L170.2 23.8L170 24C169.4 24.2 168.8 24.3 168.2 24.3L168.1 24.2L168.2 24Z" fill="#22576F"/>
<path d="M170.2 23.6L170.1 23.8L170 23.9L169.9 23.8V23.6L170 23.5L170.2 23.6Z" fill="#22576F"/>
<path d="M164.7 23.8V23.6L164.8 23.5L164.9 23.6V23.8L164.8 23.9L164.7 23.8Z" fill="#22576F"/>
<path d="M169.9 23.8V23.7H170.1V23.9L169.9 24V23.8Z" fill="#22576F"/>
<path d="M164.9 23.7V23.8V24L164.7 23.9V23.7H164.9Z" fill="#22576F"/>
<path d="M168.3 24.2V24.8L168.2 25L168.1 24.8V24.2L168.2 24L168.3 24.2Z" fill="#22576F"/>
<path d="M166.5 24.8V24.2L166.6 24L166.8 24.2V24.8L166.6 25L166.5 24.8Z" fill="#22576F"/>
<path d="M166.8 25.1H167.4L167.5 25.2L167.4 25.4H166.8L166.7 25.2L166.8 25.1Z" fill="#22576F"/>
<path d="M167.4 25.1L167.5 25.2L167.4 25.4L167.3 25.2L167.4 25.1Z" fill="#22576F"/>
<path d="M168.2 25.4H168L167.9 25.2L168 25.1H168.2L168.3 25.2L168.2 25.4Z" fill="#22576F"/>
<path d="M166.8 25.4H166.7L166.5 25.2L166.7 25.1H166.8L166.9 25.2L166.8 25.4Z" fill="#22576F"/>
<path d="M167.4 25.1H168L168.1 25.2L168 25.4H167.4L167.3 25.2L167.4 25.1Z" fill="#22576F"/>
<path d="M168.3 25.3V26.3L168.1 26.5L168 26.3V25.2L168.2 25.1L168.3 25.3Z" fill="#22576F"/>
<path d="M166.6 26.3L166.5 25.3L166.7 25.1L166.8 25.2V26.3L166.7 26.5L166.6 26.3Z" fill="#22576F"/>
<path d="M168.1 25.3V25.2H168.2H168.3V25.3H168.1Z" fill="#22576F"/>
<path d="M166.7 25.3H166.6V25.2V25.1L166.8 25.2L166.7 25.3Z" fill="#22576F"/>
<path d="M166.8 26.3V26.5H166.6V26.4V26.3H166.8Z" fill="#22576F"/>
<path d="M168 26.3H168.1H168.2V26.4V26.5H168V26.3Z" fill="#22576F"/>
<path d="M166.7 26.2C166.9 26.2 167.2 26.2 167.4 26.2C167.6 26.2 167.9 26.2 168.1 26.2L168.2 26.3L168.1 26.4C167.9 26.4 167.6 26.4 167.4 26.4C167.2 26.4 166.9 26.4 166.7 26.4L166.6 26.3L166.7 26.2Z" fill="#22576F"/>
<path d="M168 25.2C168.1 25.1 168.1 25 168.1 24.9L168.2 24.8L168.3 24.9C168.3 25.1 168.3 25.2 168.2 25.4H168V25.2Z" fill="#22576F"/>
<path d="M166.8 24.8C166.8 24.9 166.8 25 166.9 25.1V25.3H166.7C166.6 25.2 166.6 25 166.6 24.8L166.7 24.7L166.8 24.8Z" fill="#22576F"/>
<path d="M164.7 23.6V23.2L164.8 23.1L164.9 23.2V23.6L164.8 23.7L164.7 23.6Z" fill="#22576F"/>
<path d="M169.9 23.6V23.2L170 23.1L170.2 23.2V23.6L170 23.7L169.9 23.6Z" fill="#22576F"/>
<path d="M179.1 55.1H141.3H141.2V55V38.5L141.3 38.4L141.4 38.5V54.9H179.1L179.2 55L179.1 55.1Z" fill="#22576F"/>
<path d="M222.7 55H222.6C222.6 54.3 223.1 53.8 223.8 53.8C224.5 53.8 225 54.3 225 55C225 55.7 224.5 56.2 223.8 56.2C223.1 56.2 222.6 55.7 222.6 55H222.7H222.8C222.8 55.5 223.2 56 223.8 56C224.3 56 224.8 55.6 224.8 55C224.8 54.5 224.4 54 223.8 54C223.3 54 222.8 54.4 222.8 55H222.7Z" fill="#22576F"/>
<path d="M223.1 55H223C223 54.6 223.3 54.2 223.8 54.2C224.2 54.2 224.6 54.5 224.6 55C224.6 55.4 224.3 55.8 223.8 55.8C223.4 55.8 223 55.5 223 55H223.1H223.2C223.2 55.3 223.4 55.5 223.7 55.5C224 55.5 224.2 55.3 224.2 55C224.2 54.7 224 54.5 223.7 54.5C223.4 54.5 223.2 54.7 223.2 55H223.1Z" fill="#22576F"/>
<path d="M226.7 54.5H230.1L230.2 54.6L230.1 54.7H226.7L226.6 54.6L226.7 54.5Z" fill="#22576F"/>
<path d="M226.7 54.7L226.6 54.8L226.5 54.9L226.4 54.8C226.4 54.6 226.6 54.4 226.8 54.4L226.9 54.5L226.7 54.7Z" fill="#22576F"/>
<path d="M226.6 55.3L226.7 55.4L226.8 55.5L226.7 55.6C226.5 55.6 226.3 55.4 226.3 55.2L226.4 55.1L226.6 55.3Z" fill="#22576F"/>
<path d="M226.6 54.8V55.3L226.4 55.4L226.3 55.3V54.8L226.4 54.7L226.6 54.8Z" fill="#22576F"/>
<path d="M230.1 55.5L229.9 55.4L229.8 55.3L229.9 55.2C230 55.2 230.2 55.3 230.3 55.4V55.6L230.1 55.5Z" fill="#22576F"/>
<path d="M229.9 54.7L230.1 54.6H230.3V54.8C230.2 54.9 230.1 55 229.9 55L229.8 54.9L229.9 54.7Z" fill="#22576F"/>
<path d="M228.3 54.7H229.9L230 54.8L229.9 54.9H228.3L228.2 54.8L228.3 54.7Z" fill="#22576F"/>
<path d="M229.9 55.4H228.3L228.2 55.3L228.3 55.2H229.9L230 55.3L229.9 55.4Z" fill="#22576F"/>
<path d="M228.2 55.1L228.4 55.2V55.4H228.2L228.1 55.2V55.1H228.2Z" fill="#22576F"/>
<path d="M228.3 54.9V55.2L228.1 55.3L228 55.2V54.9L228.1 54.8L228.3 54.9Z" fill="#22576F"/>
<path d="M230.3 55.7H230.1L230 55.6L230.1 55.5C230.2 55.5 230.3 55.5 230.4 55.6L230.5 55.8L230.3 55.7Z" fill="#22576F"/>
<path d="M230.1 54.5H230.3L230.5 54.6L230.4 54.8C230.3 54.8 230.2 54.9 230.1 54.9L230 54.8L230.1 54.5Z" fill="#22576F"/>
<path d="M230.1 55.6H226.7L226.6 55.5L226.7 55.4H230.1L230.2 55.5L230.1 55.6Z" fill="#22576F"/>
<path d="M230.2 55.4C230.3 55.5 230.5 55.6 230.6 55.6C230.7 55.6 230.9 55.6 231 55.5C231.1 55.4 231.2 55.2 231.2 55.1C231.2 55 231.2 54.8 231.1 54.7C231 54.6 230.8 54.5 230.7 54.5C230.6 54.5 230.4 54.5 230.3 54.6H230.1V54.4C230.3 54.3 230.5 54.2 230.6 54.2C230.8 54.2 231 54.3 231.2 54.5C231.3 54.7 231.4 54.9 231.4 55C231.4 55.2 231.3 55.4 231.1 55.6C230.9 55.7 230.7 55.8 230.6 55.8C230.4 55.8 230.2 55.7 230 55.5V55.3L230.2 55.4Z" fill="#22576F"/>
<path d="M230.3 55.3C230.4 55.4 230.5 55.4 230.6 55.4C230.7 55.4 230.8 55.4 230.9 55.3C231 55.2 231 55.1 231 55C231 54.9 231 54.8 230.9 54.7C230.8 54.6 230.7 54.6 230.6 54.6C230.5 54.6 230.4 54.6 230.3 54.7H230.1V54.5C230.2 54.4 230.4 54.3 230.6 54.3C230.8 54.3 231 54.4 231.1 54.5C231.2 54.6 231.3 54.8 231.3 55C231.3 55.2 231.2 55.4 231.1 55.5C231 55.6 230.8 55.7 230.6 55.7C230.4 55.7 230.2 55.6 230.1 55.5V55.3H230.3Z" fill="#22576F"/>
<path d="M228.4 54.9L228.2 55H228.1V54.9L228.2 54.7H228.4V54.9Z" fill="#22576F"/>
<path d="M229 54.6C228.8 51.9 226.5 49.8 223.8 49.8C223.6 49.8 223.5 49.8 223.3 49.8C220.6 50 218.5 52.3 218.5 55C218.5 55.2 218.5 55.3 218.5 55.5C218.7 58.2 221 60.3 223.7 60.3C223.9 60.3 224 60.3 224.2 60.3C226.8 60.1 228.8 58.1 229 55.5L229.1 55.4L229.2 55.5C229 58.2 226.8 60.3 224.2 60.5C224 60.5 223.9 60.5 223.7 60.5C220.9 60.5 218.5 58.3 218.2 55.4C218.2 55.2 218.2 55.1 218.2 54.9C218.2 52.1 220.4 49.7 223.2 49.4C223.4 49.4 223.5 49.4 223.7 49.4C226.5 49.4 229 51.6 229.2 54.5L229.1 54.6H229Z" fill="#22576F"/>
<path d="M222.7 74.5H222.6C222.6 73.8 223.1 73.3 223.8 73.3C224.5 73.3 225 73.8 225 74.5C225 75.2 224.5 75.7 223.8 75.7C223.1 75.7 222.6 75.2 222.6 74.5H222.7H222.8C222.8 75 223.2 75.5 223.8 75.5C224.3 75.5 224.8 75.1 224.8 74.5C224.8 74 224.4 73.5 223.8 73.5C223.3 73.5 222.8 73.9 222.8 74.5H222.7Z" fill="#22576F"/>
<path d="M223.1 74.5H223C223 74.1 223.3 73.7 223.8 73.7C224.2 73.7 224.6 74 224.6 74.5C224.6 74.9 224.3 75.3 223.8 75.3C223.4 75.3 223 75 223 74.5H223.1H223.2C223.2 74.8 223.4 75 223.7 75C224 75 224.2 74.8 224.2 74.5C224.2 74.2 224 74 223.7 74C223.4 74 223.2 74.2 223.2 74.5H223.1Z" fill="#22576F"/>
<path d="M226.7 73.9H230.1L230.2 74L230.1 74.2H226.7L226.6 74L226.7 73.9Z" fill="#22576F"/>
<path d="M226.7 74.2L226.6 74.3L226.5 74.4L226.4 74.3C226.4 74.1 226.6 73.9 226.8 73.9L226.9 74L226.7 74.2Z" fill="#22576F"/>
<path d="M226.6 74.7L226.7 74.8L226.8 74.9L226.7 75C226.5 75 226.3 74.8 226.3 74.6L226.4 74.5L226.6 74.7Z" fill="#22576F"/>
<path d="M226.6 74.3V74.7L226.4 74.8L226.3 74.7V74.3L226.4 74.2L226.6 74.3Z" fill="#22576F"/>
<path d="M230.1 75L229.9 74.9L229.8 74.8L229.9 74.7C230 74.7 230.2 74.8 230.3 74.9V75.1L230.1 75Z" fill="#22576F"/>
<path d="M229.9 74.1L230.1 74H230.3V74.2C230.2 74.3 230.1 74.4 229.9 74.4L229.8 74.3L229.9 74.1Z" fill="#22576F"/>
<path d="M228.3 74.1H229.9L230 74.3L229.9 74.4H228.3L228.2 74.3L228.3 74.1Z" fill="#22576F"/>
<path d="M229.9 74.9H228.3L228.2 74.8L228.3 74.6H229.9L230 74.8L229.9 74.9Z" fill="#22576F"/>
<path d="M228.2 74.5L228.4 74.7V74.8H228.2L228.1 74.7V74.5H228.2Z" fill="#22576F"/>
<path d="M228.3 74.4V74.6L228.1 74.7L228 74.6V74.4L228.1 74.3L228.3 74.4Z" fill="#22576F"/>
<path d="M230.3 75.1H230.1L230 75L230.1 74.9C230.2 74.9 230.3 74.9 230.4 75L230.5 75.2L230.3 75.1Z" fill="#22576F"/>
<path d="M230.1 73.9H230.3L230.5 74L230.4 74.2C230.3 74.2 230.2 74.3 230.1 74.3L230 74L230.1 73.9Z" fill="#22576F"/>
<path d="M230.1 75.1H226.7L226.6 75L226.7 74.8H230.1L230.2 75L230.1 75.1Z" fill="#22576F"/>
<path d="M230.2 74.9C230.3 75 230.5 75.1 230.6 75.1C230.7 75.1 230.9 75.1 231 75C231.1 74.9 231.2 74.7 231.2 74.6C231.2 74.5 231.2 74.3 231.1 74.2C231 74.1 230.8 74 230.7 74C230.6 74 230.4 74 230.3 74.1H230.1V74C230.3 73.9 230.5 73.8 230.6 73.8C230.8 73.8 231 73.9 231.2 74.1C231.3 74.3 231.4 74.5 231.4 74.6C231.4 74.8 231.3 75 231.1 75.2C230.9 75.3 230.7 75.4 230.6 75.4C230.4 75.4 230.2 75.3 230 75.1V74.9H230.2Z" fill="#22576F"/>
<path d="M230.3 74.8C230.4 74.9 230.5 74.9 230.6 74.9C230.7 74.9 230.8 74.9 230.9 74.8C231 74.7 231 74.6 231 74.5C231 74.4 231 74.3 230.9 74.2C230.8 74.1 230.7 74.1 230.6 74.1C230.5 74.1 230.4 74.1 230.3 74.2H230.1V74C230.2 73.9 230.4 73.8 230.6 73.8C230.8 73.8 231 73.9 231.1 74C231.2 74.1 231.3 74.3 231.3 74.5C231.3 74.7 231.2 74.9 231.1 75C231 75.1 230.8 75.2 230.6 75.2C230.4 75.2 230.2 75.1 230.1 75V74.8H230.3Z" fill="#22576F"/>
<path d="M228.4 74.4L228.2 74.5H228.1V74.3L228.2 74.2H228.4V74.4Z" fill="#22576F"/>
<path d="M229 74.1C228.8 71.4 226.5 69.3 223.8 69.3C223.6 69.3 223.5 69.3 223.3 69.3C220.6 69.5 218.5 71.8 218.5 74.5C218.5 74.7 218.5 74.8 218.5 75C218.7 77.7 221 79.8 223.7 79.8C223.9 79.8 224 79.8 224.2 79.8C226.8 79.6 228.8 77.6 229 75L229.1 74.9L229.2 75C229 77.7 226.8 79.8 224.2 80C224 80 223.9 80 223.7 80C220.9 80 218.5 77.8 218.2 74.9C218.2 74.7 218.2 74.6 218.2 74.4C218.2 71.6 220.4 69.2 223.2 68.9C223.4 68.9 223.5 68.9 223.7 68.9C226.5 68.9 229 71.1 229.2 74L229.1 74.1H229Z" fill="#22576F"/>
<path d="M218.9 39.3C219.9 39.3 220.8 39.2 221.7 38.9C222.5 38.7 223.2 38.3 223.9 37.8C224.1 37.6 224.4 37.4 224.6 37.2H224.8V37.4C224.6 37.6 224.4 37.8 224.1 38C223.4 38.5 222.6 38.9 221.8 39.1C220.9 39.4 219.9 39.5 218.9 39.5L218.8 39.4L218.9 39.3Z" fill="#22576F"/>
<path d="M218.9 39.6C217.9 39.6 217 39.5 216 39.2C215.2 39 214.4 38.6 213.7 38.1C213 37.6 212.5 37 212.1 36.3C211.8 35.7 211.6 35 211.6 34.4C211.6 33.7 211.8 33 212.1 32.5C212.5 31.8 213.1 31.2 213.7 30.7C214.4 30.2 215.2 29.8 216 29.6C216.9 29.3 217.9 29.2 218.9 29.2C219.9 29.2 220.8 29.3 221.8 29.6C222.6 29.8 223.4 30.2 224.1 30.7C224.3 30.9 224.6 31.1 224.8 31.3V31.4V37.6L224.7 37.7L224.6 37.6V31.4H224.7L224.6 31.5C224.4 31.3 224.2 31.1 223.9 30.9C223.2 30.4 222.5 30.1 221.7 29.8C220.8 29.5 219.8 29.4 218.9 29.4C217.9 29.4 217 29.5 216.1 29.8C215.3 30 214.6 30.4 213.9 30.9C213.3 31.4 212.7 32 212.3 32.6C212 33.2 211.8 33.8 211.8 34.4C211.8 35 212 35.7 212.3 36.2C212.7 36.9 213.2 37.5 213.9 37.9C214.6 38.4 215.3 38.7 216.1 39C217 39.3 218 39.4 218.9 39.4L219 39.5L218.9 39.6Z" fill="#22576F"/>
<path d="M228 38.5C225.7 38.6 223.4 38.9 221.2 39.4L221.1 39.3L221.2 39.2C223.5 38.8 225.8 38.5 228.1 38.3L228.2 38.4L228 38.5Z" fill="#22576F"/>
<path d="M227.2 32.3H227.1C227.2 31.8 227.4 31.3 227.6 30.8C227.9 30.2 228.3 29.7 228.8 29.4C229 29.3 229.2 29.2 229.4 29.2H229.6L231.7 29.6C231.9 29.6 232 29.8 232 30V38.7C232 38.9 231.9 39.1 231.7 39.1L229.6 39.5H229.4C229.2 39.5 229 39.4 228.8 39.3C228.3 38.9 227.9 38.4 227.6 37.9C227.4 37.4 227.2 36.9 227.1 36.4C227 35.7 226.9 35.1 226.9 34.4C226.9 33.7 227 33 227.1 32.4L227.2 32.3H227.3C227.2 33 227.1 33.6 227.1 34.3C227.1 35 227.2 35.6 227.3 36.3C227.4 36.8 227.6 37.3 227.8 37.8C228.1 38.3 228.4 38.8 228.9 39.1C229 39.2 229.2 39.2 229.3 39.2H229.4L231.5 38.8L231.6 38.6V29.9L231.5 29.7L229.4 29.3H229.3C229.1 29.3 229 29.3 228.9 29.4C228.4 29.7 228 30.2 227.8 30.7C227.6 31.2 227.4 31.7 227.3 32.2L227.2 32.3Z" fill="#22576F"/>
<path d="M228 30.4C225.7 30.3 223.4 30 221.1 29.5L221 29.4L221.1 29.3C223.4 29.7 225.6 30 227.9 30.2L228 30.3V30.4Z" fill="#22576F"/>
<path d="M228.7 34.3H228.6C228.6 33.9 228.9 33.6 229.3 33.6C229.7 33.6 230 33.9 230 34.3C230 34.7 229.7 35 229.3 35C228.9 35 228.6 34.7 228.6 34.3H228.7H228.8C228.8 34.5 229 34.7 229.2 34.7C229.4 34.7 229.6 34.5 229.6 34.3C229.6 34.1 229.4 33.9 229.2 33.9C229 33.9 228.8 34.1 228.8 34.3H228.7Z" fill="#22576F"/>
<path d="M31.3 122V122.2H12V123.1H31.2V122H31.3V122.2V122H31.4V123.2V123.3H31.3H11.9H11.8V123.2V122L11.9 121.9H31.3L31.4 122H31.3Z" fill="#22576F"/>
<path d="M52.2 122V122.2H32.9V123.1H52.1V122H52.2V122.2V122H52.3V123.2V123.3H52.2H32.8H32.7L32.6 123.2V122H32.7L32.8 121.9H52.2L52.3 122H52.2Z" fill="#22576F"/>
<path d="M31.4 123.2V124.3L31.3 124.4L31.2 124.3V123.2L31.3 123.1L31.4 123.2Z" fill="#22576F"/>
<path d="M31.4 137.9V140L31.3 140.1L31.2 140V137.9L31.3 137.8L31.4 137.9ZM31.4 134.7V136.8L31.3 136.9L31.2 136.8V134.7L31.3 134.6L31.4 134.7ZM31.4 131.6V133.7L31.3 133.8L31.2 133.7V131.6L31.3 131.5L31.4 131.6ZM31.4 128.5V130.6L31.3 130.7L31.2 130.6V128.5L31.3 128.4L31.4 128.5ZM31.4 125.3V127.4L31.3 127.5L31.2 127.4V125.3L31.3 125.2L31.4 125.3Z" fill="#22576F"/>
<path d="M31.4 141V142.1L31.3 142.2L31.2 142.1V141L31.3 140.9L31.4 141Z" fill="#22576F"/>
<path d="M31.3 142.2H30.2L30.1 142.1L30.2 142H31.3L31.4 142.1L31.3 142.2Z" fill="#22576F"/>
<path d="M16.2 142.2H14L13.9 142.1L14 142H16.2L16.3 142.1L16.2 142.2ZM19.4 142.2H17.2L17.1 142.1L17.2 142H19.4L19.5 142.1L19.4 142.2ZM22.7 142.2H20.5L20.4 142.1L20.5 142H22.7L22.8 142.1L22.7 142.2ZM25.9 142.2H23.7L23.6 142.1L23.7 142H25.9L26 142.1L25.9 142.2ZM29.2 142.2H27L26.9 142.1L27 142H29.2L29.3 142.1L29.2 142.2Z" fill="#22576F"/>
<path d="M13 142.2H11.9L11.8 142.1L11.9 142H13L13.1 142.1L13 142.2Z" fill="#22576F"/>
<path d="M11.8 142.1V141L11.9 140.9L12 141V142.1L11.9 142.2L11.8 142.1Z" fill="#22576F"/>
<path d="M11.8 127.4V125.3L11.9 125.2L12 125.3V127.4L11.9 127.5L11.8 127.4ZM11.8 130.6V128.5L11.9 128.4L12 128.5V130.6L11.9 130.7L11.8 130.6ZM11.8 133.7V131.6L11.9 131.5L12 131.6V133.7L11.9 133.8L11.8 133.7ZM11.8 136.8V134.7L11.9 134.6L12 134.7V136.8L11.9 136.9L11.8 136.8ZM11.8 140V137.9L11.9 137.8L12 137.9V140L11.9 140.1L11.8 140Z" fill="#22576F"/>
<path d="M11.8 124.3V123.2L11.9 123.1L12 123.2V124.3L11.9 124.4L11.8 124.3Z" fill="#22576F"/>
<path d="M32.9 123.2V124.3L32.8 124.4L32.6 124.3V123.2L32.8 123.1L32.9 123.2Z" fill="#22576F"/>
<path d="M32.9 137.9V140L32.8 140.1L32.7 140V137.9L32.8 137.8L32.9 137.9ZM32.9 134.7V136.8L32.8 136.9L32.7 136.8V134.7L32.8 134.6L32.9 134.7ZM32.9 131.6V133.7L32.8 133.8L32.7 133.7V131.6L32.8 131.5L32.9 131.6ZM32.9 128.5V130.6L32.8 130.7L32.7 130.6V128.5L32.8 128.4L32.9 128.5ZM32.9 125.3V127.4L32.8 127.5L32.7 127.4V125.3L32.8 125.2L32.9 125.3Z" fill="#22576F"/>
<path d="M32.9 141V142.1L32.8 142.2L32.6 142.1V141L32.8 140.9L32.9 141Z" fill="#22576F"/>
<path d="M32.8 142H33.8L34 142.1L33.8 142.2H32.8L32.6 142.1L32.8 142Z" fill="#22576F"/>
<path d="M47.9 142H50.1L50.2 142.1L50.1 142.2H47.9L47.8 142.1L47.9 142ZM44.6 142H46.8L46.9 142.1L46.8 142.2H44.6L44.5 142.1L44.6 142ZM41.4 142H43.6L43.7 142.1L43.6 142.2H41.4L41.3 142.1L41.4 142ZM38.2 142H40.4L40.5 142.1L40.4 142.2H38.2L38.1 142.1L38.2 142ZM34.9 142H37.1L37.2 142.1L37.1 142.2H34.9L34.8 142.1L34.9 142Z" fill="#22576F"/>
<path d="M51.1 142H52.2L52.3 142.1L52.2 142.2H51.1L51 142.1L51.1 142Z" fill="#22576F"/>
<path d="M52.1 142.1V141L52.2 140.9L52.3 141V142.1L52.2 142.2L52.1 142.1Z" fill="#22576F"/>
<path d="M52.1 127.4V125.3L52.2 125.2L52.3 125.3V127.4L52.2 127.5L52.1 127.4ZM52.1 130.6V128.5L52.2 128.4L52.3 128.5V130.6L52.2 130.7L52.1 130.6ZM52.1 133.7V131.6L52.2 131.5L52.3 131.6V133.7L52.2 133.8L52.1 133.7ZM52.1 136.8V134.7L52.2 134.6L52.3 134.7V136.8L52.2 136.9L52.1 136.8ZM52.1 140V137.9L52.2 137.8L52.3 137.9V140L52.2 140.1L52.1 140Z" fill="#22576F"/>
<path d="M52.1 124.3V123.2L52.2 123.1L52.3 123.2V124.3L52.2 124.4L52.1 124.3Z" fill="#22576F"/>
<path d="M121.7 154.8C122.7 154.8 123.6 154.7 124.5 154.4C125.3 154.2 126 153.8 126.7 153.3C126.9 153.1 127.2 152.9 127.4 152.7H127.6V152.9C127.4 153.1 127.2 153.3 126.9 153.5C126.2 154 125.4 154.4 124.6 154.6C123.7 154.9 122.7 155 121.7 155L121.6 154.9L121.7 154.8Z" fill="#22576F"/>
<path d="M121.7 155C120.7 155 119.8 154.9 118.8 154.6C118 154.4 117.2 154 116.5 153.5C115.8 153 115.3 152.4 114.9 151.7C114.6 151.1 114.4 150.4 114.4 149.8C114.4 149.1 114.6 148.4 114.9 147.9C115.3 147.2 115.9 146.6 116.5 146.1C117.2 145.6 118 145.2 118.8 145C119.7 144.7 120.7 144.6 121.7 144.6C122.7 144.6 123.6 144.7 124.6 145C125.4 145.2 126.2 145.6 126.9 146.1C127.1 146.3 127.4 146.5 127.6 146.7V146.8V153L127.5 153.1L127.4 153V146.8H127.5L127.4 146.9C127.2 146.7 127 146.5 126.7 146.3C126 145.8 125.3 145.5 124.5 145.2C123.6 144.9 122.6 144.8 121.7 144.8C120.7 144.8 119.8 144.9 118.9 145.2C118.1 145.4 117.4 145.8 116.7 146.3C116.1 146.8 115.5 147.4 115.1 148C114.8 148.6 114.6 149.2 114.6 149.8C114.6 150.4 114.8 151.1 115.1 151.6C115.5 152.3 116 152.9 116.7 153.3C117.4 153.8 118.1 154.1 118.9 154.4C119.8 154.7 120.8 154.8 121.7 154.8L121.8 154.9L121.7 155Z" fill="#22576F"/>
<path d="M130.7 153.9C128.4 154 126.1 154.3 123.9 154.8L123.8 154.7L123.9 154.6C126.2 154.2 128.5 153.9 130.8 153.7L130.9 153.8L130.7 153.9Z" fill="#22576F"/>
<path d="M129.9 147.7H129.8C129.9 147.2 130.1 146.7 130.3 146.2C130.6 145.6 131 145.1 131.5 144.8C131.7 144.7 131.9 144.6 132.1 144.6H132.3L134.4 145C134.6 145 134.7 145.2 134.7 145.4V154.1C134.7 154.3 134.6 154.5 134.4 154.5L132.3 154.9H132.1C131.9 154.9 131.7 154.8 131.5 154.7C131 154.3 130.6 153.8 130.3 153.3C130.1 152.8 129.9 152.3 129.8 151.8C129.7 151.1 129.6 150.5 129.6 149.8C129.6 149.1 129.7 148.4 129.8 147.8L129.9 147.7H130C129.9 148.4 129.8 149 129.8 149.7C129.8 150.4 129.9 151 130 151.7C130.1 152.2 130.3 152.7 130.5 153.2C130.8 153.7 131.1 154.2 131.6 154.5C131.7 154.6 131.9 154.6 132 154.6H132.1L134.2 154.2L134.3 154V145.3L134.2 145.1L132.1 144.7H132C131.8 144.7 131.7 144.7 131.6 144.8C131.1 145.1 130.7 145.6 130.5 146.1C130.3 146.6 130.1 147.1 130 147.6L129.9 147.7Z" fill="#22576F"/>
<path d="M130.7 145.8C128.4 145.7 126.1 145.4 123.8 144.9L123.7 144.8L123.8 144.7C126.1 145.1 128.3 145.4 130.6 145.6L130.7 145.7V145.8Z" fill="#22576F"/>
<path d="M131.4 149.7H131.3C131.3 149.3 131.6 149 132 149C132.4 149 132.7 149.3 132.7 149.7C132.7 150.1 132.4 150.4 132 150.4C131.6 150.4 131.3 150.1 131.3 149.7H131.4H131.5C131.5 149.9 131.7 150.1 131.9 150.1C132.1 150.1 132.3 149.9 132.3 149.7C132.3 149.5 132.1 149.3 131.9 149.3C131.7 149.3 131.5 149.5 131.5 149.7H131.4Z" fill="#22576F"/>
<path d="M132.5 172.6H130.8L130.7 172.5L130.8 172.4H132.5L132.6 172.5L132.5 172.6Z" fill="#22576F"/>
<path d="M130.8 172.6H129.9L129.8 172.5L129.9 172.4H130.8L130.9 172.5L130.8 172.6Z" fill="#22576F"/>
<path d="M130 172.6C129.7 172.6 129.5 172.3 129.5 172C129.5 171.7 129.7 171.5 130 171.5L130.1 171.6L130 171.7C129.9 171.7 129.8 171.8 129.8 172C129.8 172.2 129.9 172.3 130 172.3L130.1 172.4L130 172.6Z" fill="#22576F"/>
<path d="M132.5 171.7H130.8L130.7 171.6L130.8 171.5H132.5L132.6 171.6L132.5 171.7Z" fill="#22576F"/>
<path d="M130.8 171.7H129.9L129.8 171.6L129.9 171.5H130.8L130.9 171.6L130.8 171.7Z" fill="#22576F"/>
<path d="M134.5 174.4H134.6L134.7 174.5L134.6 174.6H134.5L134.4 174.5L134.5 174.4Z" fill="#22576F"/>
<path d="M134.5 174.4H134.6L134.7 174.5L134.6 174.6H134.5L134.4 174.5L134.5 174.4Z" fill="#22576F"/>
<path d="M135.2 174.5L134.6 174.6L134.5 174.5L134.6 174.4L135.1 174.3L135.3 174.4L135.2 174.5Z" fill="#22576F"/>
<path d="M132.4 172.6V171.5L132.5 171.3L132.6 171.5V172.6L132.5 172.7L132.4 172.6Z" fill="#22576F"/>
<path d="M132.4 172.6V171.5L132.6 171.3L132.7 171.5V172.6L132.6 172.7L132.4 172.6Z" fill="#22576F"/>
<path d="M132.5 172.6V171.5L132.7 171.3L132.8 171.5V172.6L132.7 172.7L132.5 172.6Z" fill="#22576F"/>
<path d="M134.3 172.6L134.4 172.8L134.3 172.9L134.2 172.8L134.3 172.6Z" fill="#22576F"/>
<path d="M132.5 172.5L132.7 172.6L132.5 172.7L132.4 172.6L132.5 172.5Z" fill="#22576F"/>
<path d="M132.5 172.5L132.7 172.6L132.5 172.7L132.4 172.6L132.5 172.5Z" fill="#22576F"/>
<path d="M132.7 172.5H134.3L134.4 172.6L134.3 172.7H132.7L132.5 172.6L132.7 172.5Z" fill="#22576F"/>
<path d="M132.7 172.7H132.6L132.4 172.6L132.6 172.4H132.7L132.8 172.6L132.7 172.7Z" fill="#22576F"/>
<path d="M131.6 172.1H132.3L132.4 172.2L132.3 172.3H131.6L131.5 172.2L131.6 172.1Z" fill="#22576F"/>
<path d="M131.6 171.7H132.3L132.4 171.8L132.3 172H131.6L131.5 171.8L131.6 171.7Z" fill="#22576F"/>
<path d="M132.7 171.6H132.6L132.4 171.5L132.6 171.4H132.7L132.8 171.5L132.7 171.6Z" fill="#22576F"/>
<path d="M134.2 172.7V171.3L134.3 171.2L134.4 171.3V172.7L134.3 172.9L134.2 172.7Z" fill="#22576F"/>
<path d="M134.2 172.8V172.7L134.3 172.6L134.5 172.7V172.8L134.3 172.9L134.2 172.8Z" fill="#22576F"/>
<path d="M134.2 172.8V171.3L134.3 171.2L134.5 171.3V172.8L134.3 172.9L134.2 172.8Z" fill="#22576F"/>
<path d="M132.7 171.3H134.3L134.4 171.5L134.3 171.6H132.7L132.5 171.5L132.7 171.3Z" fill="#22576F"/>
<path d="M132.5 171.3L132.7 171.5L132.5 171.6L132.4 171.5L132.5 171.3Z" fill="#22576F"/>
<path d="M132.5 171.3L132.7 171.5L132.5 171.6L132.4 171.5L132.5 171.3Z" fill="#22576F"/>
<path d="M134.3 171.2L134.4 171.3L134.3 171.4L134.2 171.3L134.3 171.2Z" fill="#22576F"/>
<path d="M134.3 174.4V169.7L134.4 169.5L134.6 169.7V174.4L134.4 174.5L134.3 174.4Z" fill="#22576F"/>
<path d="M135.3 169.7V174.4L135.2 174.5L135 174.4V169.7L135.2 169.6L135.3 169.7Z" fill="#22576F"/>
<path d="M134.5 169.5H134.6L134.7 169.6L134.6 169.7H134.5L134.4 169.6L134.5 169.5Z" fill="#22576F"/>
<path d="M134.5 169.5H134.6L134.7 169.6L134.6 169.7H134.5L134.4 169.6L134.5 169.5Z" fill="#22576F"/>
<path d="M135.1 169.8L134.6 169.7L134.5 169.6L134.6 169.5L135.2 169.6L135.3 169.7L135.1 169.8Z" fill="#22576F"/>
<path d="M134.3 173.1C134.3 173 134.2 172.9 134.2 172.8L134.3 172.6L134.5 172.7C134.5 172.8 134.6 172.9 134.6 173L134.5 173.2L134.3 173.1Z" fill="#22576F"/>
<path d="M134.2 171.3C134.2 171.2 134.3 171.1 134.3 171L134.5 170.9L134.6 171.1C134.6 171.2 134.5 171.3 134.5 171.4L134.3 171.5L134.2 171.3Z" fill="#22576F"/>
<path d="M131.2 172H131.1C131.1 171.8 131.3 171.6 131.5 171.6C131.7 171.6 131.9 171.8 131.9 172C131.9 172.2 131.7 172.4 131.5 172.4C131.3 172.4 131.1 172.2 131.1 172H131.2H131.3L131.4 172.1L131.5 172L131.4 171.9L131.3 172H131.2Z" fill="#22576F"/>
<path d="M132.4 172.4L132.2 172.2L132.3 172.1C132.5 172.1 132.6 172.2 132.6 172.4L132.5 172.5L132.4 172.4Z" fill="#22576F"/>
<path d="M132.3 171.7L132.5 171.5L132.6 171.6C132.6 171.8 132.5 171.9 132.3 171.9L132.2 171.8L132.3 171.7Z" fill="#22576F"/>
<path d="M134.5 174.3L134.6 174.4V174.6H134.4V174.5V174.3H134.5Z" fill="#22576F"/>
<path d="M134.6 169.7H134.5H134.4V169.6V169.5H134.6V169.7Z" fill="#22576F"/>
<path d="M134.4 171.4H134.2V171.2H134.4V171.4Z" fill="#22576F"/>
<path d="M134.4 172.6V172.7V172.8H134.2V172.6H134.4Z" fill="#22576F"/>
<path d="M132.5 171.6V171.5V171.4H132.6V171.6H132.5Z" fill="#22576F"/>
<path d="M132.6 171.5V171.6H132.4V171.4H132.6V171.5Z" fill="#22576F"/>
<path d="M132.6 172.5V172.7H132.4V172.5H132.6Z" fill="#22576F"/>
<path d="M132.5 172.5H132.6V172.7H132.5V172.5Z" fill="#22576F"/>
<path d="M127.3 172H127.2C127.2 171.3 127.7 170.8 128.4 170.8C129.1 170.8 129.6 171.3 129.6 172C129.6 172.7 129.1 173.2 128.4 173.2C127.7 173.2 127.2 172.7 127.2 172H127.3H127.4C127.4 172.5 127.8 173 128.4 173C128.9 173 129.4 172.6 129.4 172C129.4 171.5 129 171 128.4 171C127.9 171 127.4 171.4 127.4 172H127.3Z" fill="#22576F"/>
<path d="M92 160.3V160.2H135.2H135.3V160.3V183.4V183.5H135.2H92H91.9V183.4V160.3V160.2H92V160.3H92.1V183.2H135V160.5H92V160.3H92.1H92Z" fill="#22576F"/>
<path d="M132.1 172.5V180.5L132 180.6H131.9H105.7L105.6 180.5L105.7 180.4H131.8V172.5L131.9 172.4L132.1 172.5Z" fill="#22576F"/>
<path d="M104.2 180.6H95L94.9 180.5V163.6L95 163.5H131.9H132L132.1 163.6V171.6L131.9 171.7L131.8 171.6V163.7H95.2V180.4H104.2L104.3 180.5L104.2 180.6Z" fill="#22576F"/>
<path d="M130.6 172.5V179.2V179.3L130.5 179.4H101.7L101.6 179.3V179.2V164.8V164.7H101.7H130.5H130.6V164.8V171.6L130.5 171.7L130.4 171.6V165H101.8V179.1H130.4V172.5L130.5 172.4L130.6 172.5Z" fill="#22576F"/>
<path d="M104.2 182.3H105.7L105.9 182.4L105.7 182.5H104.2L104 182.4L104.2 182.3Z" fill="#22576F"/>
<path d="M107.5 182.9H102.3L102.2 182.8L102.3 182.7H107.5L107.7 182.8L107.5 182.9Z" fill="#22576F"/>
<path d="M104.2 182.5C103.6 182.5 103 182.7 102.4 182.8L102.2 182.7L102.3 182.5C102.9 182.3 103.5 182.2 104.1 182.2L104.2 182.3V182.5Z" fill="#22576F"/>
<path d="M107.5 182.8C106.9 182.6 106.3 182.5 105.7 182.5L105.6 182.4L105.7 182.3C106.3 182.3 106.9 182.5 107.5 182.6L107.6 182.8H107.5Z" fill="#22576F"/>
<path d="M107.4 183V182.8L107.5 182.7L107.7 182.8V183L107.6 183.1L107.4 183Z" fill="#22576F"/>
<path d="M102.5 182.8L102.4 183L102.3 183.1L102.2 183V182.8L102.3 182.7L102.5 182.8Z" fill="#22576F"/>
<path d="M107.5 182.9L107.4 182.8V182.6H107.6V182.7V182.9H107.5Z" fill="#22576F"/>
<path d="M102.5 182.8L102.4 182.9H102.3L102.2 182.7L102.3 182.6H102.5V182.8Z" fill="#22576F"/>
<path d="M105.6 182.4V181.7L105.7 181.6L105.8 181.7V182.4L105.7 182.5L105.6 182.4Z" fill="#22576F"/>
<path d="M104.3 181.7V182.4L104.2 182.5L104 182.4V181.7L104.2 181.6L104.3 181.7Z" fill="#22576F"/>
<path d="M104.3 181.2H104.9L105.1 181.3L104.9 181.5H104.3L104.2 181.3L104.3 181.2Z" fill="#22576F"/>
<path d="M104.9 181.2L105.1 181.3L104.9 181.5L104.8 181.3L104.9 181.2Z" fill="#22576F"/>
<path d="M105.7 181.5H105.6L105.4 181.3L105.6 181.2H105.7L105.8 181.3L105.7 181.5Z" fill="#22576F"/>
<path d="M104.3 181.5H104.2L104.1 181.3L104.2 181.2H104.3L104.5 181.3L104.3 181.5Z" fill="#22576F"/>
<path d="M104.9 181.2H105.6L105.7 181.3L105.6 181.5H104.9L104.8 181.3L104.9 181.2Z" fill="#22576F"/>
<path d="M105.6 181.3L105.5 180.2L105.7 180.1L105.8 180.2V181.3L105.7 181.5L105.6 181.3Z" fill="#22576F"/>
<path d="M104.3 180.2V181.3L104.2 181.5L104.1 181.3V180.2L104.2 180.1L104.3 180.2Z" fill="#22576F"/>
<path d="M105.6 181.2H105.8V181.4H105.6V181.2Z" fill="#22576F"/>
<path d="M104.3 181.2V181.3V181.4H104.1V181.2H104.3Z" fill="#22576F"/>
<path d="M104.3 180.3H104.1V180.2V180.1H104.3V180.3Z" fill="#22576F"/>
<path d="M105.6 180.3V180.1H105.7L105.8 180.2V180.3H105.6Z" fill="#22576F"/>
<path d="M105.6 180.3C105.4 180.3 105.1 180.3 104.9 180.3C104.7 180.3 104.4 180.3 104.2 180.3L104.1 180.2L104.2 180.1C104.4 180.1 104.7 180.1 104.9 180.1C105.1 180.1 105.4 180.1 105.6 180.1L105.7 180.2L105.6 180.3Z" fill="#22576F"/>
<path d="M105.6 181.7C105.6 181.6 105.6 181.5 105.5 181.4V181.2H105.7C105.8 181.3 105.8 181.5 105.8 181.7L105.7 181.8L105.6 181.7Z" fill="#22576F"/>
<path d="M104.4 181.4C104.3 181.5 104.3 181.6 104.3 181.7L104.2 181.8L104.1 181.7C104.1 181.5 104.1 181.4 104.2 181.2H104.4V181.4Z" fill="#22576F"/>
<path d="M102.4 183V183.4L102.3 183.5L102.2 183.4V183L102.3 182.8L102.4 183Z" fill="#22576F"/>
<path d="M107.7 183V183.4L107.6 183.5L107.4 183.4V183L107.6 182.8L107.7 183Z" fill="#22576F"/>
<path d="M125.4 129.4H125.3C125.3 128.7 125.8 128.2 126.5 128.2C127.2 128.2 127.7 128.7 127.7 129.4C127.7 130.1 127.2 130.6 126.5 130.6C125.8 130.6 125.3 130.1 125.3 129.4H125.4H125.5C125.5 129.9 125.9 130.4 126.5 130.4C127 130.4 127.5 130 127.5 129.4C127.5 128.9 127.1 128.4 126.5 128.4C126 128.4 125.5 128.8 125.5 129.4H125.4Z" fill="#22576F"/>
<path d="M125.9 129.4H125.8C125.8 129 126.1 128.6 126.6 128.6C127 128.6 127.4 128.9 127.4 129.4C127.4 129.8 127.1 130.2 126.6 130.2C126.2 130.2 125.8 129.9 125.8 129.4H125.9H126C126 129.7 126.2 129.9 126.5 129.9C126.8 129.9 127 129.7 127 129.4C127 129.1 126.8 128.9 126.5 128.9C126.2 128.9 126 129.1 126 129.4H125.9Z" fill="#22576F"/>
<path d="M131.8 128.9C131.6 126.2 129.3 124.1 126.6 124.1C126.4 124.1 126.3 124.1 126.1 124.1C123.4 124.3 121.3 126.6 121.3 129.3C121.3 129.5 121.3 129.6 121.3 129.8C121.5 132.5 123.8 134.6 126.5 134.6C126.7 134.6 126.8 134.6 127 134.6C129.6 134.4 131.6 132.4 131.8 129.8L131.9 129.7L132 129.8C131.8 132.5 129.6 134.6 127 134.8C126.8 134.8 126.7 134.8 126.5 134.8C123.7 134.8 121.3 132.6 121 129.8C121 129.6 121 129.5 121 129.3C121 126.5 123.2 124.1 126 123.8C126.2 123.8 126.3 123.8 126.5 123.8C129.3 123.8 131.7 126 132 128.8L131.9 128.9H131.8Z" fill="#22576F"/>
<path d="M129.4 129.7H132.9L133 129.9L132.9 130H129.4L129.3 129.9L129.4 129.7Z" fill="#22576F"/>
<path d="M129.3 129.6L129.4 129.7L129.5 129.8L129.4 129.9C129.2 129.9 129 129.7 129 129.5L129.1 129.4L129.3 129.6Z" fill="#22576F"/>
<path d="M129.4 129.1L129.3 129.2L129.2 129.3L129.1 129.2C129.1 129 129.3 128.8 129.5 128.8L129.6 128.9L129.4 129.1Z" fill="#22576F"/>
<path d="M129.1 129.6V129.2L129.2 129.1L129.3 129.2V129.6L129.2 129.7L129.1 129.6Z" fill="#22576F"/>
<path d="M132.6 129L132.8 128.9H133V129.1C132.9 129.2 132.8 129.3 132.6 129.3L132.5 129.2L132.6 129Z" fill="#22576F"/>
<path d="M132.8 129.8L132.6 129.7L132.5 129.6L132.6 129.5C132.7 129.5 132.9 129.6 133 129.7V129.9L132.8 129.8Z" fill="#22576F"/>
<path d="M131 129.5H132.6L132.8 129.6L132.6 129.8H131L130.9 129.6L131 129.5Z" fill="#22576F"/>
<path d="M132.6 129.3H131L130.9 129.1L131 129H132.6L132.8 129.1L132.6 129.3Z" fill="#22576F"/>
<path d="M131.1 129.2L131 129.4H130.8V129.2L130.9 129.1H131.1V129.2Z" fill="#22576F"/>
<path d="M130.8 129.5V129.3L130.9 129.2L131 129.3V129.5L130.9 129.6L130.8 129.5Z" fill="#22576F"/>
<path d="M132.9 128.8H133.1L133.3 128.9L133.2 129.1C133.1 129.1 133 129.2 132.9 129.2L132.8 129.1L132.9 128.8Z" fill="#22576F"/>
<path d="M133.1 130H132.9L132.8 129.9L132.9 129.8C133 129.8 133.1 129.8 133.2 129.9L133.3 130.1L133.1 130Z" fill="#22576F"/>
<path d="M132.9 129.1H129.4L129.3 128.9L129.4 128.8H132.9L133 128.9L132.9 129.1Z" fill="#22576F"/>
<path d="M132.9 129.8C133 129.9 133.2 130 133.3 130C133.4 130 133.6 130 133.7 129.9C133.8 129.8 133.9 129.6 133.9 129.5C133.9 129.4 133.9 129.2 133.8 129.1C133.7 129 133.5 128.9 133.4 128.9C133.3 128.9 133.1 128.9 133 129H132.8V128.8C133 128.7 133.2 128.6 133.3 128.6C133.5 128.6 133.7 128.7 133.9 128.9C134 129.1 134.1 129.3 134.1 129.4C134.1 129.6 134 129.8 133.8 130C133.6 130.1 133.4 130.2 133.3 130.2C133.1 130.2 132.9 130.1 132.7 129.9V129.7L132.9 129.8Z" fill="#22576F"/>
<path d="M133 129.7C133.1 129.8 133.2 129.8 133.3 129.8C133.4 129.8 133.5 129.8 133.6 129.7C133.7 129.6 133.7 129.5 133.7 129.4C133.7 129.3 133.7 129.2 133.6 129.1C133.5 129 133.4 129 133.3 129C133.2 129 133.1 129 133 129.1V129L133.1 129.1H132.9V128.9C133 128.8 133.2 128.7 133.4 128.7C133.6 128.7 133.8 128.8 133.9 128.9C134 129 134.1 129.2 134.1 129.4C134.1 129.6 134 129.8 133.9 129.9C133.8 130 133.6 130.1 133.4 130.1C133.2 130.1 133 130 132.9 129.9V129.7H133Z" fill="#22576F"/>
<path d="M131 129.4L131.1 129.5V129.7H130.9L130.8 129.6V129.4H131Z" fill="#22576F"/>
<path d="M234.6 247.3H135.2H135.1L135 247.2V232.8L135.2 232.7L135.3 232.8V247.1H234.6L234.7 247.2L234.6 247.3Z" fill="#22576F"/>
<path d="M36.7 88.6V88.5H118.4V85.4H36.8V88.6H36.7V88.5V88.6H36.5V85.3L36.6 85.2H36.7H118.5H118.6V85.3V88.6V88.7L118.5 88.8H36.7L36.6 88.7L36.5 88.6H36.7Z" fill="#22576F"/>
<path d="M216.2 45.4V45.2H232.4L232.5 45.3V45.4V85.3V85.4H232.4H216.2H216.1V85.3V45.4V45.3L216.2 45.2V45.4H216.4V85.2H232.3V45.5H216.2V45.4H216.4H216.2Z" fill="#22576F"/>
<path d="M140.1 36.9V23.3H137.4V55.9H140.1V39.3L140.2 39.2L140.4 39.3V56.1L140.3 56.2H140.2H137.3H137.2L137.1 56.1V23.2L137.2 23.1H137.3H140.2H140.3L140.4 23.2V36.9L140.2 37L140.1 36.9Z" fill="#22576F"/>
<path d="M169.3 69.5V69.3H180.7V59.5H169.4V69.5H169.3V69.3V69.5H169.2V59.4V59.3H169.3H180.8H180.9V59.4V69.5V69.6H180.8H169.3H169.2V69.5H169.3Z" fill="#22576F"/>
<path d="M7.90002 144.8V144.6H56V123.3H8V144.8H7.90002V144.6V144.8H7.70001V123.2L7.79999 123.1H7.90002H56.1H56.2V123.2V144.8V144.9H56.1H7.90002H7.79999L7.70001 144.8H7.90002Z" fill="#22576F"/>
<path d="M92 225.6V225.4H109.9V220.1H92.1V225.6H92V225.4V225.6H91.9V220V219.9H92H110.1H110.2V220V225.6V225.7H110.1H92H91.9V225.6H92Z" fill="#22576F"/>
<path d="M123 188.4V220L122.8 220.1L122.7 220V188.4L122.8 188.3L123 188.4Z" fill="#22576F"/>
<path d="M119 139.1V139H135V118.7H119.1V139.1H119V139V139.1H118.8V118.6L118.9 118.5H119H135.2H135.3V118.6V139.1V139.2H135.2H119H118.9L118.8 139.1H119Z" fill="#22576F"/>
<path d="M121.9 69.3H169.3L169.4 69.5L169.3 69.6H121.9L121.7 69.5L121.9 69.3Z" fill="#22576F"/>
<path d="M1.40002 262V261.9H12.8V229.6V229.5H12.9H13.5V225.7H7.90002H7.79999L7.70001 225.6V148.1L7.79999 148H7.90002H61V118.6V118.5H61.1H63.5V115.4H53.7V118.5H56.1H56.2V118.6V144.8V144.9H56.1H7.90002H7.79999L7.70001 144.8V118.6L7.79999 118.5H7.90002H10.3V115.4H7.90002H7.79999L7.70001 115.3V59.4L7.79999 59.3H7.90002H16.7V55.5H16.1V55.4L16 55.3V52.2H12.9H12.8V52.1V3.39999H1.5V262H1.40002V261.9V262H1.29999V3.3V3.2L1.40002 3.10001H12.9L13 3.2V3.3V52H16.1H16.2L16.3 52.1V55.2H16.9L17 55.3V59.4V59.5H16.9H8V115.1H10.4L10.5 115.2V115.3V118.6V118.7H10.4H8V144.6H56V118.7H53.6H53.5L53.4 118.6V115.3L53.5 115.2L53.6 115.1H63.6L63.7 115.2L63.8 115.3V118.6L63.7 118.7H63.6H61.3V148.1L61.2 148.2H61.1H8V225.4H13.6L13.7 225.5L13.8 225.6V229.6L13.7 229.7H13.6H13V262V262.1H12.9H1.40002H1.29999V262H1.40002Z" fill="#22576F"/>
<path d="M88.5 232.8H88.4V229.7H87.9H87.8V229.6V225.6V225.5L87.9 225.4H88.5V211.6L88.6 211.5H88.7H92H92.1V211.6V225.4H109.9V220L110 219.9H110.1H132.8V188.5H92.1V190V190.1L92 190.2H88.7L88.6 190.1L88.5 190V144.1H88.6L88.7 144H92L92.1 144.1V183.2H135V118.7H92.1V121.1V121.2H92H88.7H88.6L88.5 121.1V118.7H85.2H85.1V118.6V115.3V115.2L85.2 115.1H118.4V112.7L118.5 112.6H121.9V112.7H122V115.1H140.2L140.3 115.2V115.3V232.8V232.9L140.2 233H88.5L88.4 232.9V232.8H88.5V232.7H140.1V115.4H121.9H121.8L121.7 115.3V112.9H118.6V115.3V115.4H118.5H85.4V118.5H88.7L88.8 118.6V121H91.9V118.6V118.5H92H135.2H135.3V118.6V183.4V183.5H135.2H92H91.9V183.4V144.3H88.8V189.9H91.9V188.4V188.3H92H132.9H133V188.4V220V220.1H132.9H110.2V225.6V225.7H110.1H92H91.9V225.6V211.7H88.8V225.6L88.7 225.7H88.1V229.5H88.5H88.6V229.6V232.8H88.5V232.7V232.8Z" fill="#22576F"/>
<path d="M231.2 23.2V23.1H232.4H232.5V23.2V85.3V85.4H232.4H208.4V88.5H232.4H232.5V88.6V184V184.1H232.4H230.7V187.9H231.3L231.4 188H231.5V191.2H234.6H234.7V191.3V261.9H240.9V3.39999H234.7V14.9V15L234.6 15.1H231.3V23.2H231.2V23.1V23.2H231.1V14.9V14.8H231.2H234.5V3.3V3.2L234.6 3.10001H241.1V3.2L241.2 3.3V262L241.1 262.1H234.6H234.5V262V191.4H231.3L231.2 191.3V188.2H230.6L230.5 188.1V188V184V183.9H230.6H232.3V88.8H208.3L208.2 88.7L208.1 88.6V85.3L208.2 85.2H208.3H232.3V23.3H231.2H231.1V23.2H231.2Z" fill="#22576F"/>
<path d="M211.3 14.9V15.1H129.1V52.1V52.2H129H39.7V55.3L39.6 55.4L39.5 55.5H38.9V59.3H118.5H118.6V59.4V91H121.7V88.6L121.8 88.5H121.9H124V85.4H121.9H121.8L121.7 85.3V59.4L121.8 59.3H121.9H180.8H180.9V59.4V85.3V85.4H180.8H178.6V88.5H186.5V85.4H184.2H184.1L184 85.3V56.2H137.3H137.2L137.1 56.1V23.2L137.2 23.1H137.3H211.2V14.9H211.3V15.1V14.9H211.4V23.2V23.3H211.3H137.4V55.9H184.2V56L184.3 56.1V85.2H186.7H186.8V85.3V88.6V88.7L186.7 88.8H178.5L178.4 88.7V88.6V85.3V85.2H178.5H180.7V59.5H122V85.2H124.2H124.3V85.3V88.6V88.7L124.2 88.8H122V91.2H121.9V91.3H118.5L118.4 91.2V59.5H38.8H38.7V59.4V55.3L38.8 55.2H39.4V52.1V52H39.5H128.9V14.9V14.8H129H211.3H211.4V14.9H211.3Z" fill="#22576F"/>
<path d="M38 72.3C38 71.6 37.4 71 36.7 71C36 71 35.4 71.6 35.4 72.3C35.4 73 36 73.6 36.7 73.6C37.4 73.6 38 73 38 72.3H38.1V72.4H36.7H36.6V72.3V72.2H36.7H80.4L77.6 71.2V72.3L77.5 72.4L77.4 72.3V71L77.5 70.9H77.6L81.2 72.2L81.3 72.3L81.2 72.4H36.8H36.7V72.3V72.2H36.8H38.2H38.3V72.3C38.3 73.2 37.6 73.9 36.7 73.9C35.8 73.9 35.1 73.2 35.1 72.3C35.1 71.4 35.8 70.7 36.7 70.7C37.6 70.7 38.3 71.4 38.3 72.3L38.2 72.4L38 72.3Z" fill="#22576F"/>
<path d="M35.6 186.3C35.6 186.7 35.4 186.9 35.1 187C35.5 187.1 35.8 187.3 35.8 187.8C35.8 188.3 35.4 188.7 34.7 188.7H33.3V185.6H34.6C35.2 185.5 35.6 185.8 35.6 186.3ZM35.3 186.3C35.3 186 35.1 185.8 34.6 185.8H33.7V186.9H34.6C35 186.9 35.3 186.7 35.3 186.3ZM35.4 187.8C35.4 187.5 35.1 187.3 34.6 187.3H33.6V188.4H34.6C35.1 188.3 35.4 188.1 35.4 187.8Z" fill="#22576F"/>
<path d="M39 185.8H37.1V186.9H38.8V187.2H37.1V188.3H39V188.6H36.7V185.5H39V185.8Z" fill="#22576F"/>
<path d="M41 188.6H40V185.5H41.1C42.1 185.5 42.8 186.2 42.8 187.1C42.8 188 42 188.6 41 188.6ZM41 185.8H40.3V188.3H41C41.8 188.3 42.3 187.8 42.3 187.1C42.3 186.4 41.8 185.8 41 185.8Z" fill="#22576F"/>
<path d="M45.8 188.6L44.9 187.4H44V188.6H43.6V185.5H44.9C45.6 185.5 46 185.9 46 186.4C46 186.9 45.6 187.2 45.2 187.3L46.2 188.6H45.8ZM45 185.8H44V187.1H45C45.5 187.1 45.8 186.9 45.8 186.5C45.8 186.1 45.5 185.8 45 185.8Z" fill="#22576F"/>
<path d="M48.6 188.7C47.7 188.7 47 188 47 187.1C47 186.2 47.6 185.5 48.6 185.5C49.5 185.5 50.2 186.2 50.2 187.1C50.2 188 49.5 188.7 48.6 188.7ZM48.6 185.8C47.9 185.8 47.4 186.4 47.4 187.1C47.4 187.8 47.9 188.4 48.6 188.4C49.3 188.4 49.8 187.8 49.8 187.1C49.8 186.4 49.3 185.8 48.6 185.8Z" fill="#22576F"/>
<path d="M52.6 188.7C51.7 188.7 51 188 51 187.1C51 186.2 51.6 185.5 52.6 185.5C53.5 185.5 54.2 186.2 54.2 187.1C54.2 188 53.5 188.7 52.6 188.7ZM52.6 185.8C51.9 185.8 51.4 186.4 51.4 187.1C51.4 187.8 51.9 188.4 52.6 188.4C53.3 188.4 53.8 187.8 53.8 187.1C53.8 186.4 53.3 185.8 52.6 185.8Z" fill="#22576F"/>
<path d="M56.7 187.8L55.5 186.1V188.6H55.2V185.5H55.6L56.7 187.2L57.8 185.5H58.2V188.6H57.8V186.1L56.7 187.8Z" fill="#22576F"/>
<path d="M183.9 135.2H183.1V136.3H182.7V133.2H183.9C184.6 133.2 185.1 133.6 185.1 134.2C185.1 134.9 184.5 135.2 183.9 135.2ZM183.9 133.5H183.1V134.9H183.9C184.4 134.9 184.8 134.6 184.8 134.2C184.7 133.8 184.4 133.5 183.9 133.5Z" fill="#22576F"/>
<path d="M187.9 136.3L187 135.1H186.1V136.3H185.7V133.2H187C187.7 133.2 188.1 133.6 188.1 134.1C188.1 134.6 187.7 134.9 187.3 135L188.3 136.3H187.9ZM187 133.5H186V134.8H187C187.5 134.8 187.8 134.6 187.8 134.2C187.8 133.8 187.6 133.5 187 133.5Z" fill="#22576F"/>
<path d="M189.3 133.2V136.3H189V133.2H189.3Z" fill="#22576F"/>
<path d="M192.6 133.2H192.9V136.3H192.6L190.6 133.7V136.3H190.3V133.2H190.6L192.6 135.7V133.2Z" fill="#22576F"/>
<path d="M195.2 136.4C194.3 136.4 193.6 135.7 193.6 134.8C193.6 133.9 194.3 133.2 195.2 133.2C195.8 133.2 196.1 133.4 196.4 133.7L196.2 134C195.9 133.8 195.6 133.6 195.2 133.6C194.5 133.6 194 134.2 194 134.9C194 135.6 194.5 136.2 195.2 136.2C195.6 136.2 195.9 136 196.2 135.8L196.4 136C196.1 136.2 195.8 136.4 195.2 136.4Z" fill="#22576F"/>
<path d="M197.5 133.2V136.3H197.1V133.2H197.5Z" fill="#22576F"/>
<path d="M199.5 135.2H198.7V136.3H198.3V133.2H199.5C200.2 133.2 200.7 133.6 200.7 134.2C200.7 134.9 200.2 135.2 199.5 135.2ZM199.5 133.5H198.7V134.9H199.5C200 134.9 200.4 134.6 200.4 134.2C200.4 133.8 200 133.5 199.5 133.5Z" fill="#22576F"/>
<path d="M204.3 136.3H203.9L203.5 135.5H201.8L201.4 136.3H201L202.4 133.2H202.7L204.3 136.3ZM202.7 133.6L202 135.2H203.4L202.7 133.6Z" fill="#22576F"/>
<path d="M204.9 133.2H205.3V136H207.1V136.3H205V133.2H204.9Z" fill="#22576F"/>
<path d="M184.1 139C184.1 139.4 183.9 139.6 183.6 139.7C184 139.8 184.3 140 184.3 140.5C184.3 141 183.8 141.4 183.2 141.4H181.8V138.3H183.1C183.7 138.2 184.1 138.5 184.1 139ZM183.7 139C183.7 138.7 183.5 138.5 183 138.5H182.1V139.6H183C183.4 139.6 183.7 139.4 183.7 139ZM183.9 140.4C183.9 140.1 183.6 139.9 183.1 139.9H182.1V141H183.1C183.6 141 183.9 140.8 183.9 140.4Z" fill="#22576F"/>
<path d="M187.5 138.5H185.6V139.6H187.3V139.9H185.6V141H187.5V141.3H185.2V138.2H187.5V138.5Z" fill="#22576F"/>
<path d="M189.5 141.3H188.4V138.2H189.5C190.5 138.2 191.2 138.9 191.2 139.8C191.2 140.7 190.5 141.3 189.5 141.3ZM189.5 138.5H188.8V141H189.5C190.3 141 190.8 140.5 190.8 139.8C190.8 139.1 190.3 138.5 189.5 138.5Z" fill="#22576F"/>
<path d="M194.3 141.3L193.4 140.1H192.5V141.3H192.1V138.2H193.4C194.1 138.2 194.5 138.6 194.5 139.1C194.5 139.6 194.1 139.9 193.7 140L194.7 141.3H194.3ZM193.5 138.5H192.5V139.8H193.5C194 139.8 194.3 139.6 194.3 139.2C194.3 138.7 194 138.5 193.5 138.5Z" fill="#22576F"/>
<path d="M197 141.4C196.1 141.4 195.4 140.7 195.4 139.8C195.4 138.9 196 138.2 197 138.2C197.9 138.2 198.6 138.9 198.6 139.8C198.6 140.7 198 141.4 197 141.4ZM197 138.5C196.3 138.5 195.8 139.1 195.8 139.8C195.8 140.5 196.3 141.1 197 141.1C197.7 141.1 198.2 140.5 198.2 139.8C198.2 139.1 197.7 138.5 197 138.5Z" fill="#22576F"/>
<path d="M201 141.4C200.1 141.4 199.4 140.7 199.4 139.8C199.4 138.9 200 138.2 201 138.2C201.9 138.2 202.6 138.9 202.6 139.8C202.6 140.7 202 141.4 201 141.4ZM201 138.5C200.3 138.5 199.8 139.1 199.8 139.8C199.8 140.5 200.3 141.1 201 141.1C201.7 141.1 202.2 140.5 202.2 139.8C202.2 139.1 201.8 138.5 201 138.5Z" fill="#22576F"/>
<path d="M205.1 140.5L203.9 138.8V141.3H203.6V138.2H204L205.1 139.9L206.2 138.2H206.6V141.3H206.2V138.8L205.1 140.5Z" fill="#22576F"/>
<path d="M178.8 116.1H178.4L177.2 114.6L176.5 115.3V116.1H176.1V113H176.5V114.9L178.3 113H178.8L177.5 114.4L178.8 116.1Z" fill="#22576F"/>
<path d="M192.7 54.7H190.8V55.8H192.5V56.1H190.8V57.2H192.7V57.5H190.4V54.4H192.7V54.7Z" fill="#22576F"/>
<path d="M196 54.3H196.3V57.4H196L194 54.8V57.4H193.7V54.3H194L196 56.8V54.3Z" fill="#22576F"/>
<path d="M198.5 55.7C199.2 55.9 199.5 56.1 199.5 56.6C199.5 57.1 199.1 57.5 198.4 57.5C197.9 57.5 197.5 57.3 197.1 57L197.3 56.7C197.6 57 197.9 57.1 198.4 57.1C198.8 57.1 199.1 56.9 199.1 56.6C199.1 56.3 198.9 56.1 198.3 56C197.6 55.8 197.3 55.6 197.3 55.1C197.3 54.6 197.7 54.2 198.3 54.2C198.8 54.2 199.1 54.3 199.4 54.6L199.2 54.9C198.9 54.7 198.6 54.6 198.3 54.6C197.9 54.6 197.6 54.8 197.6 55.1C197.7 55.4 197.9 55.6 198.5 55.7Z" fill="#22576F"/>
<path d="M203.1 56.1C203.1 57 202.6 57.5 201.8 57.5C201 57.5 200.5 57 200.5 56.1V54.3H200.9V56.1C200.9 56.8 201.3 57.2 201.9 57.2C202.5 57.2 202.8 56.9 202.8 56.2V54.4H203.2V56.1H203.1Z" fill="#22576F"/>
<path d="M204.6 54.3V57.4H204.2V54.3H204.6Z" fill="#22576F"/>
<path d="M206.8 57.5H206.4V54.7H205.4V54.4H207.9V54.7H206.9V57.5H206.8Z" fill="#22576F"/>
<path d="M211 54.7H209.1V55.8H210.8V56.1H209.1V57.2H211V57.5H208.7V54.4H211V54.7Z" fill="#22576F"/>
<path d="M177.7 216.1C177.7 216.5 177.5 216.7 177.2 216.8C177.6 216.9 177.9 217.1 177.9 217.6C177.9 218.1 177.5 218.5 176.8 218.5H175.4V215.4H176.7C177.3 215.3 177.7 215.6 177.7 216.1ZM177.4 216.2C177.4 215.9 177.2 215.7 176.7 215.7H175.8V216.8H176.7C177.1 216.7 177.4 216.5 177.4 216.2ZM177.5 217.6C177.5 217.3 177.2 217.1 176.7 217.1H175.7V218.2H176.7C177.2 218.1 177.5 217.9 177.5 217.6Z" fill="#22576F"/>
<path d="M181.7 218.5H181.3L180.9 217.7H179.2L178.8 218.5H178.4L179.8 215.4H180.1L181.7 218.5ZM180.1 215.7L179.4 217.3H180.8L180.1 215.7Z" fill="#22576F"/>
<path d="M182.5 215.3H182.9V218.1H184.7V218.4H182.6V215.3H182.5Z" fill="#22576F"/>
<path d="M186.8 218.5C185.9 218.5 185.2 217.8 185.2 216.9C185.2 216 185.9 215.3 186.8 215.3C187.4 215.3 187.7 215.5 188 215.8L187.8 216.1C187.5 215.9 187.2 215.7 186.8 215.7C186.1 215.7 185.6 216.3 185.6 217C185.6 217.7 186.1 218.3 186.8 218.3C187.2 218.3 187.5 218.1 187.8 217.9L188 218.1C187.7 218.3 187.4 218.5 186.8 218.5Z" fill="#22576F"/>
<path d="M190.3 218.5C189.4 218.5 188.7 217.8 188.7 216.9C188.7 216 189.3 215.3 190.3 215.3C191.2 215.3 191.9 216 191.9 216.9C191.9 217.8 191.2 218.5 190.3 218.5ZM190.3 215.6C189.6 215.6 189.1 216.2 189.1 216.9C189.1 217.6 189.6 218.2 190.3 218.2C191 218.2 191.5 217.6 191.5 216.9C191.5 216.2 191 215.6 190.3 215.6Z" fill="#22576F"/>
<path d="M195.2 215.3H195.5V218.4H195.2L193.2 215.8V218.4H192.9V215.3H193.2L195.2 217.8V215.3Z" fill="#22576F"/>
<path d="M198 218.5H197.6V217.3L196.3 215.4H196.7L197.8 217L198.9 215.4H199.3L198 217.3V218.5Z" fill="#22576F"/>
<path d="M95.3 145.6H93.4V146.7H95.1V147H93.4V148.1H95.3V148.4H93V145.3H95.3V145.6Z" fill="#22576F"/>
<path d="M98.6 145.3H98.9V148.4H98.6L96.6 145.8V148.4H96.3V145.3H96.6L98.6 147.8V145.3Z" fill="#22576F"/>
<path d="M101.1 146.6C101.8 146.8 102.1 147 102.1 147.5C102.1 148 101.7 148.4 101 148.4C100.5 148.4 100.1 148.2 99.7 147.9L99.9 147.6C100.2 147.9 100.5 148 101 148C101.4 148 101.7 147.8 101.7 147.5C101.7 147.2 101.5 147 100.9 146.9C100.2 146.7 99.9 146.5 99.9 146C99.9 145.5 100.3 145.1 100.9 145.1C101.4 145.1 101.7 145.2 102 145.5L101.8 145.8C101.5 145.6 101.2 145.5 100.9 145.5C100.5 145.5 100.2 145.7 100.2 146C100.3 146.3 100.5 146.5 101.1 146.6Z" fill="#22576F"/>
<path d="M105.7 147C105.7 147.9 105.2 148.4 104.4 148.4C103.6 148.4 103.1 147.9 103.1 147V145.2H103.5V147C103.5 147.7 103.9 148.1 104.5 148.1C105.1 148.1 105.4 147.8 105.4 147.1V145.3H105.8V147H105.7Z" fill="#22576F"/>
<path d="M107.2 145.3V148.4H106.8V145.3H107.2Z" fill="#22576F"/>
<path d="M109.4 148.4H109V145.6H108V145.3H110.5V145.6H109.5V148.4H109.4Z" fill="#22576F"/>
<path d="M113.6 145.6H111.7V146.7H113.4V147H111.7V148.1H113.6V148.4H111.3V145.3H113.6V145.6Z" fill="#22576F"/>
<path d="M171.5 63.1H171.9V65.9H173.7V66.2H171.6V63.1H171.5Z" fill="#22576F"/>
<path d="M174.8 63.1V66.2H174.4V63.1H174.8Z" fill="#22576F"/>
<path d="M178.3 63.1H178.6V66.2H178.3L176.3 63.6V66.2H176V63.1H176.3L178.3 65.6V63.1Z" fill="#22576F"/>
<path d="M21.4 130.9H20.3V127.8H21.4C22.4 127.8 23.1 128.5 23.1 129.4C23.1 130.3 22.4 130.9 21.4 130.9ZM21.4 128.2H20.7V130.7H21.4C22.2 130.7 22.7 130.2 22.7 129.5C22.7 128.7 22.2 128.2 21.4 128.2Z" fill="#22576F"/>
<path d="M42.9 127.8H43.2L44.1 130.4L45 127.8H45.4L44.3 130.9H44L43.1 128.4L42.2 130.9H41.9L40.8 127.8H41.2L42.1 130.4L42.9 127.8Z" fill="#22576F"/>
<path d="M27.4 73.9H26.3V70.8H27.4C28.4 70.8 29.1 71.5 29.1 72.4C29.1 73.3 28.3 73.9 27.4 73.9ZM27.4 71.1H26.7V73.6H27.4C28.2 73.6 28.7 73.1 28.7 72.4C28.7 71.6 28.2 71.1 27.4 71.1Z" fill="#22576F"/>
<path d="M32.3 70.7H32.6V73.8H32.3L30.3 71.2V73.8H30V70.7H30.3L32.3 73.2V70.7Z" fill="#22576F"/>
</g>
<defs>
<clipPath id="clip0_0_1">
<rect width="866.2" height="490.5" fill="white" transform="translate(-625 -152)"/>
</clipPath>
</defs>
</svg>
