<svg width="253" height="277" viewBox="0 0 253 277" fill="none" xmlns="http://www.w3.org/2000/svg">
<g clip-path="url(#clip0_0_1)">
<path d="M201.3 57.8V57.9H95.1L95 57.8V53.7H73.6V57.3L74 56.6H74.1H74.2L92.9 67.4V67.5L92.3 68.6L92.1 68.7L73.4 57.9H69V60.6L90.1 72.8H90.2V72.9L89.6 74L89.4 74.1L68.2 61.8V61.7L68.7 60.8H67.3V85H68.9H69V85.1V115.3V115.4L68.9 115.5H56.2V132.5H57.2V112L57.3 111.9H57.4H65.4V104.9H14.8V111.9H22.8H22.9V112V132.5H24V115.5H14.8V189.4H116.7V184V183.9H116.8H131.1V175.3L131.2 175.2H171.5L171.6 175.3V183.9H185.8V172.6L185.9 172.5H238.9V136.6H201.3H201.2V136.5V107.3V107.2H201.3H207.2L206.7 106.3V106.1L227.9 93.9L228 93.8L228.1 93.9L228.7 95V95.1V95.2L207.5 107.4V109.7H210.2L221.4 103.2L221.6 103.3L222.2 104.4V104.5L211 111H210.8L210.4 110.3V113.1V113.2L210.3 113.3H207.5V120.2H238.9V113.3H236.2L236.1 113.2V113.1V110.3L235.7 111H235.5L224.3 104.5L224.2 104.4L224.9 103.3L225 103.2L236.2 109.7H238.9V23.6H236.8H236.7V23.5V20.1H235.5V44.4V44.5L235.4 44.6H234.1L234 44.5V44.4V20.1H209.6V23.5V23.6H209.5H185.3V26.2H208.1V25.1H181.9H181.8V25V23.6H158.7V49.2H181.8V48L181.9 47.9H185.2L185.3 48V49.2H207.4H207.5V49.3V82.8V82.9H207.4H201.3H201.2V82.8V57.8H201.3V57.9V57.8H201.4V82.7H207.3V49.4H185.2H185.1V49.3V48.2H182V49.3V49.4H181.9H158.5L158.4 49.3V23.5L158.5 23.4H181.9H182V23.5V24.9H208.3L208.4 25V26.3L208.3 26.4H185.2H185.1V26.3V23.5V23.4H185.2H209.4V20V19.9H209.5H234.1H234.2V20V44.3H235.3V20V19.9H235.4H236.8H236.9V20V23.4H239.1H239.2V23.5V109.8V109.9H239.1H236.2H236.1L225 103.5L224.5 104.4L235.5 110.7L236.1 109.7H236.2L236.3 109.8V113H239.1H239.2V113.1V120.3V120.4H239.1H207.4H207.3V120.3V113.1V113H207.4H210.2V109.8V109.7H210.4L211 110.7L222 104.4L221.5 103.5L210.3 109.9H207.4H207.3V109.8V107.3V107.2L228.4 95L227.9 94.1L206.9 106.2L207.5 107.2V107.3L207.4 107.4H201.4V136.4H239.1H239.2V136.5V172.6V172.7L239.1 172.8H186V184V184.1H185.9H171.5H171.4V184V175.5H131.3V184V184.1H131.2H116.9V189.6L116.8 189.7H14.7L14.6 189.6V115.3V115.2H14.7H24.1H24.2V115.3V132.6V132.7H24.1H22.8H22.7V132.6V112.1H14.7H14.6V112V104.8V104.7H14.7H65.6L65.7 104.8V112L65.6 112.1H57.5V132.6L57.4 132.7H56.1H56V132.6V115.3V115.2H56.1H68.8V85.2H67.2H67.1V85.1V60.6L67.2 60.5H68.9L69 60.6V60.7L68.4 61.7L89.4 73.8L89.9 72.9L68.8 60.7V60.6V57.8V57.7L68.9 57.6H73.5V57.7L92.1 68.4L92.6 67.5L74.2 56.8L73.6 57.8L73.5 57.9L73.4 57.8V53.5V53.4H73.5H95.1H95.2V53.5V57.6H201.3L201.4 57.7V57.8H201.3Z" fill="#99A4B3"/>
<path d="M81.4 181.2L73.7 173.6V173.4L88.9 158.2H89.1L96.7 165.8C98.8 167.9 99.9 170.7 99.9 173.5C99.9 176.3 98.8 179.1 96.7 181.2C94.6 183.3 91.8 184.4 89 184.4C86.2 184.5 83.4 183.4 81.4 181.2C83.6 183.2 86.3 184.2 89 184.2C91.7 184.2 94.5 183.2 96.5 181.1C98.6 179 99.6 176.3 99.6 173.6C99.6 170.9 98.6 168.1 96.5 166.1L88.9 158.6L73.8 173.7L81.4 181.2Z" fill="#99A4B3"/>
<path d="M16.1 188.1H16V142.1V142L16.1 141.9H33.4L33.5 142V142.1V158.7H39.8V158.1V158H39.9H41L41.1 158.1V172.1L41 172.2H39.9H39.8V172.1V171.5H33.5V188.1V188.2H33.4H16.1H16V188.1H16.1V188H33.3V171.4V171.3H33.4H39.9H40V171.4V172H40.8V158.2H40V158.8V158.9H39.9H33.4H33.3V158.8V142.2H16.3V188.1H16.1V188V188.1Z" fill="#99A4B3"/>
<path d="M109.5 59.2V59.1H169.9H170V59.2V82.2V82.3L169.9 82.4H109.5L109.4 82.3L109.3 82.2V59.2L109.4 59.1H109.5V59.2H109.6V82.1H169.8V59.3H109.5V59.2H109.6H109.5Z" fill="#99A4B3"/>
<path d="M127.5 95.2V95.1H151.9H152V95.2V111L151.9 111.1H127.5L127.4 111V95.2V95.1H127.5V95.2H127.6V110.8H151.8V95.3H127.5V95.2H127.6H127.5Z" fill="#99A4B3"/>
<path d="M171.4 60.6V60.5H185.8L185.9 60.6V80.8V80.9H185.8H171.4H171.3L171.2 80.8V60.6H171.3L171.4 60.5V60.6H171.5V80.7H185.7V60.8H171.4V60.6H171.5H171.4Z" fill="#99A4B3"/>
<path d="M109.8 131.3H109.7L112.5 120.9L112.6 120.8H112.7L133.6 126.4L133.7 126.5V126.6L130.9 137C129.6 141.9 125.2 145.1 120.4 145.1C119.5 145.1 118.5 145 117.6 144.7C112.7 143.4 109.5 139 109.5 134.2C109.5 133.3 109.6 132.3 109.9 131.4L109.8 131.3H109.9C109.7 132.2 109.5 133.2 109.5 134.1C109.5 138.8 112.6 143.1 117.4 144.4C118.3 144.6 119.3 144.8 120.2 144.8C124.9 144.8 129.2 141.7 130.5 136.9L133.3 126.6L112.7 121.1L109.9 131.4L109.8 131.3Z" fill="#99A4B3"/>
<path d="M169.6 131.3H169.5L166.7 121L146.1 126.5L148.9 136.8C150.2 141.6 154.5 144.7 159.2 144.7C160.1 144.7 161 144.6 162 144.3C166.8 143 169.9 138.7 169.9 134C169.9 133.1 169.8 132.2 169.5 131.2L169.6 131.3H169.7C170 132.2 170.1 133.2 170.1 134.1C170.1 138.9 166.9 143.3 162 144.6C161.1 144.9 160.1 145 159.2 145C154.4 145 150 141.8 148.7 136.9L145.9 126.5L146 126.4L166.9 120.8H167L167.1 120.9L169.9 131.3H169.6Z" fill="#99A4B3"/>
<path d="M17.6 189.6V188.1L17.8 188L17.9 188.1V189.6L17.8 189.7L17.6 189.6Z" fill="#99A4B3"/>
<path d="M17.6 112V104.8L17.8 104.7L17.9 104.8V112L17.8 112.1L17.6 112Z" fill="#99A4B3"/>
<path d="M17.6 142.1V115.3L17.8 115.2L17.9 115.3V142.1L17.8 142.2L17.6 142.1Z" fill="#99A4B3"/>
<path d="M23 189.6V188.1L23.1 188L23.3 188.1V189.6L23.1 189.7L23 189.6Z" fill="#99A4B3"/>
<path d="M23 115.3V104.8L23.1 104.7L23.3 104.8V115.3L23.1 115.5L23 115.3Z" fill="#99A4B3"/>
<path d="M23 142.1V132.6L23.1 132.5L23.3 132.6V142.1L23.1 142.2L23 142.1Z" fill="#99A4B3"/>
<path d="M28.4 189.6V188.1L28.5 188L28.7 188.1V189.6L28.5 189.7L28.4 189.6Z" fill="#99A4B3"/>
<path d="M28.4 142.1V104.8L28.5 104.7L28.7 104.8V142.1L28.5 142.2L28.4 142.1Z" fill="#99A4B3"/>
<path d="M33.8 189.6V171.4L33.9 171.3L34.1 171.4V189.6L33.9 189.7L33.8 189.6Z" fill="#99A4B3"/>
<path d="M33.8 158.8V104.8L33.9 104.7L34.1 104.8V158.8L33.9 158.9L33.8 158.8Z" fill="#99A4B3"/>
<path d="M39.2 189.6V171.4L39.3 171.3L39.5 171.4V189.6L39.3 189.7L39.2 189.6Z" fill="#99A4B3"/>
<path d="M39.2 158.8V104.8L39.3 104.7L39.5 104.8V158.8L39.3 158.9L39.2 158.8Z" fill="#99A4B3"/>
<path d="M44.6 189.6V104.8L44.7 104.7L44.9 104.8V189.6L44.7 189.7L44.6 189.6Z" fill="#99A4B3"/>
<path d="M50 189.6V104.8L50.1 104.7L50.3 104.8V189.6L50.1 189.7L50 189.6Z" fill="#99A4B3"/>
<path d="M55.4 189.6V104.8L55.5 104.7L55.7 104.8V189.6L55.5 189.7L55.4 189.6Z" fill="#99A4B3"/>
<path d="M60.8 189.6V115.3L60.9 115.2L61.1 115.3V189.6L60.9 189.7L60.8 189.6Z" fill="#99A4B3"/>
<path d="M60.8 112V104.8L60.9 104.7L61.1 104.8V112L60.9 112.1L60.8 112Z" fill="#99A4B3"/>
<path d="M66.2 189.6V115.3L66.3 115.2L66.5 115.3V189.6L66.3 189.7L66.2 189.6Z" fill="#99A4B3"/>
<path d="M71.6 189.6V63.7L71.7 63.6L71.9 63.7V189.6L71.7 189.7L71.6 189.6Z" fill="#99A4B3"/>
<path d="M71.6 62.3V57.8L71.7 57.6L71.9 57.8V62.3L71.7 62.4L71.6 62.3Z" fill="#99A4B3"/>
<path d="M77 189.6V176.9L77.1 176.8L77.2 176.9V189.6L77.1 189.7L77 189.6Z" fill="#99A4B3"/>
<path d="M77 58.4V53.5L77.1 53.4L77.2 53.5V58.4L77.1 58.5L77 58.4Z" fill="#99A4B3"/>
<path d="M77 170.2V66.9L77.1 66.7L77.2 66.9V170.2L77.1 170.3L77 170.2Z" fill="#99A4B3"/>
<path d="M77 65.4V59.9L77.1 59.7L77.2 59.9V65.4L77.1 65.5L77 65.4Z" fill="#99A4B3"/>
<path d="M82.4 189.6V182.2L82.5 182.1L82.6 182.2V189.6L82.5 189.7L82.4 189.6Z" fill="#99A4B3"/>
<path d="M82.4 61.5V53.5L82.5 53.4L82.6 53.5V61.5L82.5 61.7L82.4 61.5Z" fill="#99A4B3"/>
<path d="M82.4 164.8V70L82.5 69.8L82.6 70V164.8L82.5 164.9L82.4 164.8Z" fill="#99A4B3"/>
<path d="M82.4 68.5V63L82.5 62.9L82.6 63V68.5L82.5 68.6L82.4 68.5Z" fill="#99A4B3"/>
<path d="M87.8 189.6V184.3L87.9 184.2L88 184.3V189.6L87.9 189.7L87.8 189.6Z" fill="#99A4B3"/>
<path d="M87.8 64.6V53.5L87.9 53.4L88 53.5V64.6L87.9 64.8L87.8 64.6Z" fill="#99A4B3"/>
<path d="M87.8 159.4V73.1L87.9 73L88 73.1V159.4L87.9 159.5L87.8 159.4Z" fill="#99A4B3"/>
<path d="M87.8 71.6V66.1L87.9 66L88 66.1V71.6L87.9 71.7L87.8 71.6Z" fill="#99A4B3"/>
<path d="M93.2 189.6V183.5L93.3 183.3L93.4 183.5V189.6L93.3 189.7L93.2 189.6Z" fill="#99A4B3"/>
<path d="M93.2 162.6V53.5L93.3 53.4L93.4 53.5V162.6L93.3 162.7L93.2 162.6Z" fill="#99A4B3"/>
<path d="M98.6 189.6V178.3L98.7 178.2L98.8 178.3V189.6L98.7 189.7L98.6 189.6Z" fill="#99A4B3"/>
<path d="M98.6 168.8V57.8L98.7 57.6L98.8 57.8V168.8L98.7 169L98.6 168.8Z" fill="#99A4B3"/>
<path d="M104 189.6V57.8L104.1 57.6L104.2 57.8V189.6L104.1 189.7L104 189.6Z" fill="#99A4B3"/>
<path d="M109.4 189.6V135.1L109.5 135L109.6 135.1V189.6L109.5 189.7L109.4 189.6Z" fill="#99A4B3"/>
<path d="M109.4 59.2V57.8L109.5 57.6L109.6 57.8V59.2L109.5 59.3L109.4 59.2Z" fill="#99A4B3"/>
<path d="M109.4 133V82.2L109.5 82.1L109.6 82.2V133L109.5 133.2L109.4 133Z" fill="#99A4B3"/>
<path d="M114.8 189.6V143.4L114.9 143.3L115 143.4V189.6L114.9 189.7L114.8 189.6Z" fill="#99A4B3"/>
<path d="M114.8 59.2V57.8L114.9 57.6L115 57.8V59.2L114.9 59.3L114.8 59.2Z" fill="#99A4B3"/>
<path d="M114.8 121.5V82.2L114.9 82.1L115 82.2V121.5L114.9 121.6L114.8 121.5Z" fill="#99A4B3"/>
<path d="M120.2 184V144.9L120.3 144.7L120.4 144.9V184L120.3 184.1L120.2 184Z" fill="#99A4B3"/>
<path d="M120.2 59.2V57.8L120.3 57.6L120.4 57.8V59.2L120.3 59.3L120.2 59.2Z" fill="#99A4B3"/>
<path d="M120.2 122.9V82.2L120.3 82.1L120.4 82.2V122.9L120.3 123L120.2 122.9Z" fill="#99A4B3"/>
<path d="M125.6 184V143.4L125.7 143.3L125.8 143.4V184L125.7 184.1L125.6 184Z" fill="#99A4B3"/>
<path d="M125.6 59.2V57.8L125.7 57.6L125.8 57.8V59.2L125.7 59.3L125.6 59.2Z" fill="#99A4B3"/>
<path d="M125.6 124.3V82.2L125.7 82.1L125.8 82.2V124.3L125.7 124.5L125.6 124.3Z" fill="#99A4B3"/>
<path d="M131 184V135.3L131.1 135.2L131.2 135.3V184L131.1 184.1L131 184Z" fill="#99A4B3"/>
<path d="M131 59.2V57.8L131.1 57.6L131.2 57.8V59.2L131.1 59.3L131 59.2Z" fill="#99A4B3"/>
<path d="M131 125.8V111L131.1 110.8L131.2 111V125.8L131.1 125.9L131 125.8Z" fill="#99A4B3"/>
<path d="M131 95.2V82.2L131.1 82.1L131.2 82.2V95.2L131.1 95.3L131 95.2Z" fill="#99A4B3"/>
<path d="M136.4 175.3V111L136.5 110.8L136.6 111V175.3L136.5 175.5L136.4 175.3Z" fill="#99A4B3"/>
<path d="M136.4 59.2V57.8L136.5 57.6L136.6 57.8V59.2L136.5 59.3L136.4 59.2Z" fill="#99A4B3"/>
<path d="M136.4 95.2V82.2L136.5 82.1L136.6 82.2V95.2L136.5 95.3L136.4 95.2Z" fill="#99A4B3"/>
<path d="M141.8 175.3V111L141.9 110.8L142 111V175.3L141.9 175.5L141.8 175.3Z" fill="#99A4B3"/>
<path d="M141.8 59.2V57.8L141.9 57.6L142 57.8V59.2L141.9 59.3L141.8 59.2Z" fill="#99A4B3"/>
<path d="M141.8 95.2V82.2L141.9 82.1L142 82.2V95.2L141.9 95.3L141.8 95.2Z" fill="#99A4B3"/>
<path d="M147.2 175.3V131.6L147.3 131.5L147.4 131.6V175.3L147.3 175.5L147.2 175.3Z" fill="#99A4B3"/>
<path d="M147.2 59.2V57.8L147.3 57.6L147.4 57.8V59.2L147.3 59.3L147.2 59.2Z" fill="#99A4B3"/>
<path d="M147.2 126.1V111L147.3 110.8L147.4 111V126.1L147.3 126.2L147.2 126.1Z" fill="#99A4B3"/>
<path d="M147.2 95.2V82.2L147.3 82.1L147.4 82.2V95.2L147.3 95.3L147.2 95.2Z" fill="#99A4B3"/>
<path d="M152.6 175.3V142.7L152.7 142.6L152.8 142.7V175.3L152.7 175.5L152.6 175.3Z" fill="#99A4B3"/>
<path d="M152.6 59.2V57.8L152.7 57.6L152.8 57.8V59.2L152.7 59.3L152.6 59.2Z" fill="#99A4B3"/>
<path d="M152.6 124.6V82.2L152.7 82.1L152.8 82.2V124.6L152.7 124.7L152.6 124.6Z" fill="#99A4B3"/>
<path d="M158 175.3V144.8L158.1 144.7L158.2 144.8V175.3L158.1 175.5L158 175.3Z" fill="#99A4B3"/>
<path d="M158 59.2V57.8L158.1 57.6L158.2 57.8V59.2L158.1 59.3L158 59.2Z" fill="#99A4B3"/>
<path d="M158 123.2V82.2L158.1 82.1L158.2 82.2V123.2L158.1 123.3L158 123.2Z" fill="#99A4B3"/>
<path d="M163.4 175.3V143.9L163.5 143.8L163.6 143.9V175.3L163.5 175.5L163.4 175.3Z" fill="#99A4B3"/>
<path d="M163.4 49.3V23.5L163.5 23.4L163.6 23.5V49.3L163.5 49.4L163.4 49.3Z" fill="#99A4B3"/>
<path d="M163.4 121.7V82.2L163.5 82.1L163.6 82.2V121.7L163.5 121.8L163.4 121.7Z" fill="#99A4B3"/>
<path d="M163.4 59.2V57.8L163.5 57.6L163.6 57.8V59.2L163.5 59.3L163.4 59.2Z" fill="#99A4B3"/>
<path d="M168.8 175.3V138.7L168.9 138.5L169 138.7V175.3L168.9 175.5L168.8 175.3Z" fill="#99A4B3"/>
<path d="M168.8 49.3V23.5L168.9 23.4L169 23.5V49.3L168.9 49.4L168.8 49.3Z" fill="#99A4B3"/>
<path d="M168.8 128.8V82.2L168.9 82.1L169 82.2V128.8L168.9 128.9L168.8 128.8Z" fill="#99A4B3"/>
<path d="M168.8 59.2V57.8L168.9 57.6L169 57.8V59.2L168.9 59.3L168.8 59.2Z" fill="#99A4B3"/>
<path d="M174.2 184V80.8L174.3 80.7L174.4 80.8V184L174.3 184.1L174.2 184Z" fill="#99A4B3"/>
<path d="M174.2 49.3V23.5L174.3 23.4L174.4 23.5V49.3L174.3 49.4L174.2 49.3Z" fill="#99A4B3"/>
<path d="M174.2 60.6V57.8L174.3 57.6L174.4 57.8V60.6L174.3 60.8L174.2 60.6Z" fill="#99A4B3"/>
<path d="M179.6 184V80.8L179.7 80.7L179.8 80.8V184L179.7 184.1L179.6 184Z" fill="#99A4B3"/>
<path d="M179.6 49.3V23.5L179.7 23.4L179.8 23.5V49.3L179.7 49.4L179.6 49.3Z" fill="#99A4B3"/>
<path d="M179.6 60.6V57.8L179.7 57.6L179.8 57.8V60.6L179.7 60.8L179.6 60.6Z" fill="#99A4B3"/>
<path d="M185 184V80.8L185.1 80.7L185.2 80.8V184L185.1 184.1L185 184Z" fill="#99A4B3"/>
<path d="M185 48V25L185.1 24.9L185.2 25V48L185.1 48.2L185 48Z" fill="#99A4B3"/>
<path d="M185 60.6V57.8L185.1 57.6L185.2 57.8V60.6L185.1 60.8L185 60.6Z" fill="#99A4B3"/>
<path d="M190.4 172.6V57.8L190.5 57.6L190.6 57.8V172.6L190.5 172.8L190.4 172.6Z" fill="#99A4B3"/>
<path d="M190.4 25V23.5L190.5 23.4L190.6 23.5V25L190.5 25.1L190.4 25Z" fill="#99A4B3"/>
<path d="M190.4 49.3V26.3L190.5 26.2L190.6 26.3V49.3L190.5 49.4L190.4 49.3Z" fill="#99A4B3"/>
<path d="M195.8 172.6V57.8L195.9 57.6L196 57.8V172.6L195.9 172.8L195.8 172.6Z" fill="#99A4B3"/>
<path d="M195.8 25V23.5L195.9 23.4L196 23.5V25L195.9 25.1L195.8 25Z" fill="#99A4B3"/>
<path d="M195.8 49.3V26.3L195.9 26.2L196 26.3V49.3L195.9 49.4L195.8 49.3Z" fill="#99A4B3"/>
<path d="M201.2 172.6V136.5L201.3 136.4L201.4 136.5V172.6L201.3 172.8L201.2 172.6Z" fill="#99A4B3"/>
<path d="M201.2 25V23.5L201.3 23.4L201.4 23.5V25L201.3 25.1L201.2 25Z" fill="#99A4B3"/>
<path d="M201.2 107.3V82.8L201.3 82.7L201.4 82.8V107.3L201.3 107.4L201.2 107.3Z" fill="#99A4B3"/>
<path d="M201.2 49.3V26.3L201.3 26.2L201.4 26.3V49.3L201.3 49.4L201.2 49.3Z" fill="#99A4B3"/>
<path d="M206.6 172.6V136.5L206.7 136.4L206.8 136.5V172.6L206.7 172.8L206.6 172.6Z" fill="#99A4B3"/>
<path d="M206.6 25V23.5L206.7 23.4L206.8 23.5V25L206.7 25.1L206.6 25Z" fill="#99A4B3"/>
<path d="M206.6 107.3V82.8L206.7 82.7L206.8 82.8V107.3L206.7 107.4L206.6 107.3Z" fill="#99A4B3"/>
<path d="M206.6 49.3V26.3L206.7 26.2L206.8 26.3V49.3L206.7 49.4L206.6 49.3Z" fill="#99A4B3"/>
<path d="M212 172.6V136.5L212.1 136.4L212.2 136.5V172.6L212.1 172.8L212 172.6Z" fill="#99A4B3"/>
<path d="M212 103.1V20L212.1 19.9L212.2 20V103.1L212.1 103.2L212 103.1Z" fill="#99A4B3"/>
<path d="M212 120.3V110.2L212.1 110.1L212.2 110.2V120.3L212.1 120.4L212 120.3Z" fill="#99A4B3"/>
<path d="M212 108.8V104.6L212.1 104.5L212.2 104.6V108.8L212.1 108.9L212 108.8Z" fill="#99A4B3"/>
<path d="M217.4 172.6V136.5L217.5 136.4L217.6 136.5V172.6L217.5 172.8L217.4 172.6Z" fill="#99A4B3"/>
<path d="M217.4 100V20L217.5 19.9L217.6 20V100L217.5 100.1L217.4 100Z" fill="#99A4B3"/>
<path d="M217.4 120.3V107.1L217.5 107L217.6 107.1V120.3L217.5 120.4L217.4 120.3Z" fill="#99A4B3"/>
<path d="M217.4 105.6V101.5L217.5 101.3L217.6 101.5V105.6L217.5 105.8L217.4 105.6Z" fill="#99A4B3"/>
<path d="M222.8 172.6V136.5L222.9 136.4L223 136.5V172.6L222.9 172.8L222.8 172.6Z" fill="#99A4B3"/>
<path d="M222.8 96.9V20L222.9 19.9L223 20V96.9L222.9 97L222.8 96.9Z" fill="#99A4B3"/>
<path d="M222.8 120.3V98.4L222.9 98.2L223 98.4V120.3L222.9 120.4L222.8 120.3Z" fill="#99A4B3"/>
<path d="M228.2 172.6V136.5L228.3 136.4L228.4 136.5V172.6L228.3 172.8L228.2 172.6Z" fill="#99A4B3"/>
<path d="M228.2 94.5V20L228.3 19.9L228.4 20V94.5L228.3 94.6L228.2 94.5Z" fill="#99A4B3"/>
<path d="M228.2 120.3V106.7L228.3 106.6L228.4 106.7V120.3L228.3 120.4L228.2 120.3Z" fill="#99A4B3"/>
<path d="M228.2 105.2V95.2L228.3 95.1L228.4 95.2V105.2L228.3 105.4L228.2 105.2Z" fill="#99A4B3"/>
<path d="M233.5 172.6V136.5L233.7 136.4L233.8 136.5V172.6L233.7 172.8L233.5 172.6Z" fill="#99A4B3"/>
<path d="M233.5 108.3V20L233.7 19.9L233.8 20V108.3L233.7 108.5L233.5 108.3Z" fill="#99A4B3"/>
<path d="M233.5 120.3V109.8L233.7 109.7L233.8 109.8V120.3L233.7 120.4L233.5 120.3Z" fill="#99A4B3"/>
<path d="M241.3 270.9H241.2V181.2H237.2V207V207.1H237.1H235.8H235.7V207V181.2H206.9H206.8L206.7 181.1V180.1H193.3V196.8V196.9L193.2 197H19.8V237.2L193.2 260.3L193.3 260.5V270.7H194.5V247.8V247.7H194.6H195.9H196V247.8V270.7H241.3V270.9H241.2H241.3V271H195.9L195.8 270.9V247.9H194.7V270.9L194.6 271H193.2L193.1 270.9V260.6L19.6 237.5L19.5 237.3V196.8H19.6V196.7H193.1V179.9L193.2 179.8H206.9V179.9H207V181H235.8H235.9V181.1V206.9H237V181.1V181H237.1H241.3H241.4V181.1V270.9L241.3 271V270.9Z" fill="#99A4B3"/>
<path d="M15.3 32.8H15.2C15.2 32.6 15.3 32.4 15.5 32.4L17.6 32H17.8C18 32 18.2 32.1 18.4 32.2C18.7 32.4 19 32.7 19.3 33.1L19.2 33.2V33.1C21.5 33 23.8 32.7 26 32.2C26.7 32 27.5 32 28.2 32C29.2 32 30.1 32.1 31.1 32.4C31.9 32.6 32.7 33 33.4 33.5C34.1 34 34.6 34.6 35 35.3C35.3 35.9 35.5 36.6 35.5 37.2C35.5 37.9 35.3 38.6 35 39.1C34.6 39.8 34 40.4 33.4 40.9C32.7 41.4 31.9 41.8 31.1 42C30.2 42.3 29.2 42.4 28.2 42.4C27.4 42.4 26.7 42.3 26 42.1C23.7 41.7 21.5 41.4 19.2 41.2V41.1L19.3 41.2C19.1 41.5 18.8 41.8 18.4 42.1C18.2 42.2 18 42.3 17.8 42.3H17.6L15.5 41.9C15.3 41.9 15.2 41.7 15.2 41.5V32.8H15.3H15.4V41.5L15.5 41.7L17.6 42.1H17.7C17.9 42.1 18 42.1 18.1 42C18.4 41.8 18.7 41.5 18.9 41.2L19 41.1C21.3 41.2 23.6 41.5 25.9 42C26.6 42.2 27.3 42.2 28.1 42.2C29.1 42.2 30 42.1 30.9 41.8C31.7 41.6 32.4 41.2 33.1 40.7C33.7 40.2 34.3 39.6 34.7 39C35 38.4 35.2 37.8 35.2 37.2C35.2 36.6 35 35.9 34.7 35.4C34.3 34.7 33.8 34.1 33.1 33.7C32.4 33.2 31.7 32.9 30.9 32.6C30 32.3 29 32.2 28.1 32.2C27.4 32.2 26.6 32.3 25.9 32.4C23.6 32.8 21.3 33.1 19 33.3L18.9 33.2C18.7 32.9 18.4 32.6 18.1 32.4C18 32.3 17.8 32.3 17.7 32.3H17.6L15.5 32.7L15.4 32.9H15.3V32.8Z" fill="#99A4B3"/>
<path d="M237.1 181.2H211.2L211.1 181.1L211.2 181H237.1L237.2 181.1L237.1 181.2Z" fill="#99A4B3"/>
<path d="M237.1 172.8H211.2L211.1 172.6L211.2 172.5H237.1L237.2 172.6L237.1 172.8Z" fill="#99A4B3"/>
<path d="M235.4 20.1H210.9L210.8 20L210.9 19.9H235.4L235.5 20L235.4 20.1Z" fill="#99A4B3"/>
<path d="M235.4 16.5H210.9L210.8 16.4L210.9 16.3H235.4L235.5 16.4L235.4 16.5Z" fill="#99A4B3"/>
<path d="M194.6 270.7H217.7L217.8 270.9L217.7 271H194.6L194.5 270.9L194.6 270.7Z" fill="#99A4B3"/>
<path d="M194.6 272.2H217.7L217.8 272.3L217.7 272.4H194.6L194.5 272.3L194.6 272.2Z" fill="#99A4B3"/>
<path d="M65.6 25.2V25.3H14.8V71H31.9C33.2 71 34.2 72 34.2 73.3V83.4C34.2 84.7 33.2 85.7 31.9 85.7H14.8V91.3H65.4V85.1V85H65.5H67V60.8H65.5H65.4V60.7V25.3H65.6V25.4V25.2H65.7V60.5H67.2H67.3V60.6V85.1V85.2H67.2H65.7V91.4V91.5H65.6H14.7H14.6V91.4V85.6V85.5H14.7H31.9C33 85.5 33.9 84.6 33.9 83.5V73.4C33.9 72.3 33 71.4 31.9 71.4H14.7H14.6V71.3V25.3V25.2H14.7H65.6Z" fill="#99A4B3"/>
<path d="M15.3 91.4V85.6L15.4 85.4L15.5 85.6V91.4L15.4 91.5L15.3 91.4Z" fill="#99A4B3"/>
<path d="M15.3 32.5V25.2L15.4 25.1L15.5 25.2V32.5L15.4 32.6L15.3 32.5Z" fill="#99A4B3"/>
<path d="M15.3 71.2V41.7L15.4 41.6L15.5 41.7V71.2L15.4 71.3L15.3 71.2Z" fill="#99A4B3"/>
<path d="M23.9 91.4V85.6L24 85.4L24.2 85.6V91.4L24 91.5L23.9 91.4Z" fill="#99A4B3"/>
<path d="M23.9 32.5V25.2L24 25.1L24.2 25.2V32.5L24 32.6L23.9 32.5Z" fill="#99A4B3"/>
<path d="M23.9 71.2V41.7L24 41.6L24.2 41.7V71.2L24 71.3L23.9 71.2Z" fill="#99A4B3"/>
<path d="M32.6 91.4V85.4L32.7 85.3L32.8 85.4V91.4L32.7 91.5L32.6 91.4Z" fill="#99A4B3"/>
<path d="M32.6 33V25.2L32.7 25.1L32.8 25.2V33L32.7 33.2L32.6 33Z" fill="#99A4B3"/>
<path d="M32.6 71.3V41.1L32.7 41L32.8 41.1V71.3L32.7 71.4L32.6 71.3Z" fill="#99A4B3"/>
<path d="M41.2 91.4V25.2L41.3 25.1L41.4 25.2V91.4L41.3 91.5L41.2 91.4Z" fill="#99A4B3"/>
<path d="M49.8 91.4V25.2L50 25.1L50.1 25.2V91.4L50 91.5L49.8 91.4Z" fill="#99A4B3"/>
<path d="M58.5 91.4V25.2L58.6 25.1L58.7 25.2V91.4L58.6 91.5L58.5 91.4Z" fill="#99A4B3"/>
<path d="M67.2 74.2H34L33.9 74.1L34 74H67.2L67.3 74.1L67.2 74.2Z" fill="#99A4B3"/>
<path d="M65.6 57H14.7L14.6 56.9L14.7 56.7H65.6L65.7 56.9L65.6 57Z" fill="#99A4B3"/>
<path d="M65.6 39.7H34.5L34.4 39.6L34.5 39.5H65.6L65.7 39.6L65.6 39.7Z" fill="#99A4B3"/>
<path d="M15.3 39.7H14.7L14.6 39.6L14.7 39.5H15.3L15.4 39.6L15.3 39.7Z" fill="#99A4B3"/>
<path d="M237.1 196.7H241.3L241.4 196.8L241.3 197H237.1L237 196.8L237.1 196.7Z" fill="#99A4B3"/>
<path d="M193.2 196.7H235.8L235.9 196.8L235.8 197H193.2L193.1 196.8L193.2 196.7Z" fill="#99A4B3"/>
<path d="M19.6 214H241.3L241.4 214.1L241.3 214.2H19.6L19.5 214.1L19.6 214Z" fill="#99A4B3"/>
<path d="M19.6 231.3H241.3L241.4 231.4L241.3 231.5H19.6L19.5 231.4L19.6 231.3Z" fill="#99A4B3"/>
<path d="M104.7 248.5H194.6L194.7 248.7L194.6 248.8H104.7L104.6 248.7L104.7 248.5Z" fill="#99A4B3"/>
<path d="M195.9 248.5H241.3L241.4 248.7L241.3 248.8H195.9L195.8 248.7L195.9 248.5Z" fill="#99A4B3"/>
<path d="M193.2 265.8H194.6L194.7 265.9L194.6 266.1H193.2L193.1 265.9L193.2 265.8Z" fill="#99A4B3"/>
<path d="M195.9 265.8H241.3L241.4 265.9L241.3 266.1H195.9L195.8 265.9L195.9 265.8Z" fill="#99A4B3"/>
<path d="M20.3 237.4V196.8L20.5 196.7L20.6 196.8V237.4L20.5 237.6L20.3 237.4Z" fill="#99A4B3"/>
<path d="M37.6 239.7V196.8L37.7 196.7L37.8 196.8V239.7L37.7 239.9L37.6 239.7Z" fill="#99A4B3"/>
<path d="M54.9 242V196.8L55 196.7L55.1 196.8V242L55 242.2L54.9 242Z" fill="#99A4B3"/>
<path d="M72.2 244.3V196.8L72.3 196.7L72.4 196.8V244.3L72.3 244.5L72.2 244.3Z" fill="#99A4B3"/>
<path d="M89.4 246.6V196.8L89.5 196.7L89.7 196.8V246.6L89.5 246.8L89.4 246.6Z" fill="#99A4B3"/>
<path d="M106.7 248.9V196.8L106.8 196.7L106.9 196.8V248.9L106.8 249.1L106.7 248.9Z" fill="#99A4B3"/>
<path d="M124 251.2V196.8L124.1 196.7L124.2 196.8V251.2L124.1 251.4L124 251.2Z" fill="#99A4B3"/>
<path d="M141.2 253.6V196.8L141.4 196.7L141.5 196.8V253.6L141.4 253.7L141.2 253.6Z" fill="#99A4B3"/>
<path d="M158.5 255.9V196.8L158.6 196.7L158.8 196.8V255.9L158.6 256L158.5 255.9Z" fill="#99A4B3"/>
<path d="M175.8 258.2V196.8L175.9 196.7L176 196.8V258.2L175.9 258.3L175.8 258.2Z" fill="#99A4B3"/>
<path d="M193.1 260.5V196.8L193.2 196.7L193.3 196.8V260.5L193.2 260.6L193.1 260.5Z" fill="#99A4B3"/>
<path d="M210.3 270.9V181.1L210.5 181L210.6 181.1V270.9L210.5 271L210.3 270.9Z" fill="#99A4B3"/>
<path d="M227.6 270.9V181.1L227.7 181L227.9 181.1V270.9L227.7 271L227.6 270.9Z" fill="#99A4B3"/>
<path fill-rule="evenodd" clip-rule="evenodd" d="M19.6 226H8.1V14.8H209.5V16.4H210.9V20H209.5V23.5H185.2V25H181.9V23.5H71.7V49.3H73.5V57.8H68.9V60.6H65.6V25.2H14.7V91.4H65.6V85.1H68.9V115.3H57.4V112H65.6V94.7H14.7V112H22.8V115.3H14.7V189.6H20.4V193.6H19.6V226Z" fill="#22576F"/>
<path fill-rule="evenodd" clip-rule="evenodd" d="M78 189.6L77.9 193.6H78.7V196.8H193.2V176.7H193.9V172.6H185.9V184H116.8V189.6H78Z" fill="#22576F"/>
<path d="M211.2 172.6H206.9V181.1H211.2V172.6Z" fill="#22576F"/>
<path fill-rule="evenodd" clip-rule="evenodd" d="M237.1 172.6V181.1H241.3V226H247.9V14.8H236.8V16.4H235.4V20H236.8V23.5H239.1V109.8H236.2V113.1H239.1V130.4H207.4V113.1H210.3V109.8H207.4V107.3H201.3V136.5H239.1V172.6H237.1Z" fill="#22576F"/>
<path fill-rule="evenodd" clip-rule="evenodd" d="M95.1 49.3V57.8H201.3V82.8H207.4V49.3H185.2V48H181.9V49.3H95.1Z" fill="#22576F"/>
<path d="M118.2 47H158.5L158.6 47.1H158.7V48.2L158.6 48.3L158.5 48.4H118.5L118.4 48.2L118.5 48.1H158.4V47.3H118.2L118.1 47.1L118.2 47Z" fill="#22576F"/>
<path d="M207.4 123.1H209.5L209.7 123.2L209.5 123.3H207.4L207.3 123.2L207.4 123.1Z" fill="#22576F"/>
<path d="M230.6 123.1H234.8L234.9 123.2L234.8 123.3H230.6L230.5 123.2L230.6 123.1ZM224.3 123.1H228.5L228.6 123.2L228.5 123.3H224.3L224.2 123.2L224.3 123.1ZM218 123.1H222.2L222.3 123.2L222.2 123.3H218L217.9 123.2L218 123.1ZM211.6 123.1H215.8L215.9 123.2L215.8 123.3H211.6L211.5 123.2L211.6 123.1Z" fill="#22576F"/>
<path d="M236.9 123.1H239.1L239.2 123.2L239.1 123.3H236.9L236.8 123.2L236.9 123.1Z" fill="#22576F"/>
<path d="M65.6 102.1H63.4L63.3 101.9L63.4 101.8H65.6L65.7 101.9L65.6 102.1Z" fill="#22576F"/>
<path d="M23.2 102.1H19L18.9 102L19 101.9H23.2L23.3 102L23.2 102.1ZM29.5 102.1H25.3L25.2 102L25.3 101.9H29.5L29.6 102L29.5 102.1ZM35.9 102.1H31.7L31.6 102L31.7 101.9H35.9L36 102L35.9 102.1ZM42.2 102.1H38L37.9 102L38 101.9H42.2L42.3 102L42.2 102.1ZM48.6 102.1H44.4L44.3 102L44.4 101.9H48.6L48.7 102L48.6 102.1ZM55 102.1H50.8L50.7 102L50.8 101.9H55L55.1 102L55 102.1ZM61.3 102.1H57.1L57 102L57.1 101.9H61.3L61.4 102L61.3 102.1Z" fill="#22576F"/>
<path d="M16.8 102.1H14.7L14.6 101.9L14.7 101.8H16.8L17 101.9L16.8 102.1Z" fill="#22576F"/>
<path d="M193.2 176.6H206.9L207 176.7L206.9 176.8H193.2L193.1 176.7L193.2 176.6Z" fill="#22576F"/>
<path d="M193.2 179.8H206.9L207 179.9L206.9 180.1H193.2L193.1 179.9L193.2 179.8Z" fill="#22576F"/>
<path d="M19.6 193.5H78.7L78.8 193.6L78.7 193.7H19.6L19.5 193.6L19.6 193.5Z" fill="#22576F"/>
<path d="M19.6 196.7H78.7L78.8 196.8L78.7 197H19.6L19.5 196.8L19.6 196.7Z" fill="#22576F"/>
<path d="M237.1 207V207.1H235.8H235.7V207V181.1V181H235.8H237.1H237.2V181.1V207V207.1H237.1V207H237V181.2H236V206.9H237.1V207H237H237.1Z" fill="#22576F"/>
<path d="M211.3 181.1C211.3 188.2 214.2 194.7 218.9 199.3C223.6 204 230 206.9 237.1 206.9L237.2 207L237.1 207.1C222.7 207.1 211.1 195.4 211.1 181.1L211.2 181L211.3 181.1Z" fill="#22576F"/>
<path d="M235.4 44.4V44.6H234.1L234 44.5V44.4V20V19.9H234.1H235.4H235.5V20V44.4V44.5L235.4 44.6V44.4H235.3V20.1H234.2V44.3H235.4V44.4H235.3H235.4Z" fill="#22576F"/>
<path d="M211 20C211 26.7 213.7 32.8 218.1 37.2C222.5 41.6 228.6 44.3 235.3 44.3L235.4 44.4L235.3 44.5C221.7 44.5 210.7 33.5 210.7 19.9L210.8 19.8L211 20Z" fill="#22576F"/>
<path d="M194.6 247.8V247.7H195.9H196V247.8V270.9L195.9 271H194.6L194.5 270.9V247.8V247.7H194.6V247.8H194.7V270.7H195.8V247.9H194.6V247.8H194.7H194.6Z" fill="#22576F"/>
<path d="M217.5 270.9C217.5 264.6 214.9 258.8 210.8 254.7C206.7 250.6 200.9 248 194.6 248L194.5 247.9L194.6 247.8C207.4 247.8 217.8 258.2 217.8 271L217.7 271.1L217.5 270.9Z" fill="#22576F"/>
<path d="M223.1 109.8C223.1 107.5 222.5 105.3 221.4 103.4V103.2H221.6C222.7 105.2 223.4 107.4 223.4 109.7L223.3 109.8H223.1Z" fill="#22576F"/>
<path d="M225.1 103.4C224 105.4 223.4 107.6 223.4 109.8L223.3 109.9L223.2 109.8C223.2 107.5 223.8 105.2 225 103.3H225.2L225.1 103.4Z" fill="#22576F"/>
<path d="M210.3 109.8L210.2 109.7L221.4 103.2H221.5L221.6 103.3L222.2 104.4V104.5L211 111H210.9H210.8L210.2 109.9V109.7L210.3 109.8L210.4 109.7L211 110.7L222 104.4L221.5 103.5L210.3 109.9V109.8L210.4 109.7L210.3 109.8Z" fill="#22576F"/>
<path d="M236.2 109.8L236.1 109.9L225 103.5L224.5 104.4L235.5 110.7L236.1 109.7L236.2 109.8L236.1 109.9L236.2 109.8L236.3 109.9L235.7 111H235.5L224.3 104.5L224.2 104.4L224.9 103.3V103.2H225L236.3 109.7V109.8V109.9L236.2 109.8Z" fill="#22576F"/>
<path d="M68.9 60.6L69 60.5L90.1 72.8H90.2V72.9L89.6 74L89.4 74.1L68.2 61.8H68.1L68.2 61.7L68.8 60.6L69 60.5L68.9 60.6L69 60.7L68.4 61.7L89.4 73.8L89.9 72.9L68.8 60.8L68.9 60.6L69 60.7L68.9 60.6Z" fill="#22576F"/>
<path d="M68.9 85C77.6 85 85.6 80.4 90 72.8H90.2V73C85.8 80.6 77.7 85.3 68.9 85.3L68.8 85.2L68.9 85Z" fill="#22576F"/>
<path d="M185.2 25V24.9H208.3L208.4 25V26.3L208.3 26.4H185.2H185.1V26.3V25V24.9H185.2V25H185.3V26.2H208.1V25.1H185.2V25H185.3H185.2Z" fill="#22576F"/>
<path d="M185.2 47.9C191.5 47.9 197.3 45.3 201.4 41.2C205.5 37.1 208.1 31.3 208.1 25L208.2 24.9L208.3 25C208.3 37.8 197.9 48.2 185.1 48.2L185 48.1L185.2 47.9Z" fill="#22576F"/>
<path d="M194.6 270.9V271H193.3V272.2H194.5V270.9H194.6V271V270.9H194.7V272.3V272.4H194.6H193.2H193.1V272.3V270.9V270.8L193.2 270.7H194.6L194.7 270.8V270.9H194.6Z" fill="#22576F"/>
<path d="M217.7 270.9V270.7H241.3L241.4 270.8V270.9V272.3V272.4H241.3H217.7H217.6L217.5 272.3V270.9L217.6 270.8L217.7 270.7V270.9H217.8V272.2H241.2V271H217.7V270.9H217.8H217.7Z" fill="#22576F"/>
<path d="M158.4 49.3V23.5L158.5 23.4L158.7 23.5V49.3L158.5 49.4L158.4 49.3Z" fill="#22576F"/>
<path d="M144 49.3V48.2L144.2 48.1L144.3 48.2V49.3L144.2 49.4L144 49.3Z" fill="#22576F"/>
<path d="M144 47.1V23.5L144.2 23.4L144.3 23.5V47.1L144.2 47.3L144 47.1Z" fill="#22576F"/>
<path d="M136.8 49.3V48.2L137 48.1L137.1 48.2V49.3L137 49.4L136.8 49.3Z" fill="#22576F"/>
<path d="M136.8 47.1V23.5L137 23.4L137.1 23.5V47.1L137 47.3L136.8 47.1Z" fill="#22576F"/>
<path d="M122.4 49.3V48.2L122.6 48.1L122.7 48.2V49.3L122.6 49.4L122.4 49.3Z" fill="#22576F"/>
<path d="M122.4 47.1V23.5L122.6 23.4L122.7 23.5V47.1L122.6 47.3L122.4 47.1Z" fill="#22576F"/>
<path d="M115.2 37.7V36.4L115.4 36.3L115.5 36.4V37.7L115.4 37.9L115.2 37.7Z" fill="#22576F"/>
<path d="M115.2 35.1V23.5L115.4 23.4L115.5 23.5V35.1L115.4 35.2L115.2 35.1Z" fill="#22576F"/>
<path d="M112 23.5L115.1 34.9L117.6 35.6V35.7V35.8L113.6 37.1L115.8 37.7L115.9 37.8L118.9 49.3V49.4L118.7 49.3L115.6 37.9L113.2 37.2L113.1 37.1L113.2 37L117.1 35.7L114.9 35.1V35L111.8 23.5L111.9 23.4L112 23.5Z" fill="#22576F"/>
<path d="M151.2 49.3V48.2L151.4 48.1L151.5 48.2V49.3L151.4 49.4L151.2 49.3Z" fill="#22576F"/>
<path d="M151.2 47.1V23.5L151.4 23.4L151.5 23.5V47.1L151.4 47.3L151.2 47.1Z" fill="#22576F"/>
<path d="M129.6 49.3V48.2L129.8 48.1L129.9 48.2V49.3L129.8 49.4L129.6 49.3Z" fill="#22576F"/>
<path d="M129.6 47.1V23.5L129.8 23.4L129.9 23.5V47.1L129.8 47.3L129.6 47.1Z" fill="#22576F"/>
<path d="M73.5 57.8V57.7L92.1 68.4L92.6 67.5L74.2 56.8L73.6 57.8H73.5V57.7V57.8L73.4 57.7L74 56.6H74.1H74.2L92.9 67.4V67.5L92.3 68.6L92.2 68.7H92.1L73.4 57.9V57.7L73.5 57.8Z" fill="#22576F"/>
<path d="M92.1 68.5C94 65.2 95 61.5 95 57.8L95.1 57.7L95.2 57.8C95.2 61.6 94.2 65.4 92.3 68.7H92.1V68.5Z" fill="#22576F"/>
<path d="M22.8 132.6V132.5H23.9V115.5H22.9V132.6H22.8V132.5V132.6H22.7V115.3V115.2H22.8H24.1H24.2V115.3V132.6V132.7H24.1H22.8H22.7V132.6H22.8Z" fill="#22576F"/>
<path d="M56.1 132.6V132.5H57.2V115.5H56.2V132.6H56.1V132.5V132.6H56V115.3V115.2H56.1H57.4L57.5 115.3V132.6L57.4 132.7H56.1H56V132.6H56.1Z" fill="#22576F"/>
<path d="M22.8 132.5C27.5 132.5 31.8 130.6 34.9 127.5C38 124.4 39.9 120.1 39.9 115.4L40 115.3L40.1 115.4C40.1 125 32.3 132.8 22.7 132.8L22.6 132.7L22.8 132.5Z" fill="#22576F"/>
<path d="M40.2 115.3C40.2 120 42.1 124.3 45.2 127.4C48.3 130.5 52.6 132.4 57.3 132.4L57.4 132.5L57.3 132.6C47.7 132.6 39.9 124.8 39.9 115.2L40 115.1L40.2 115.3Z" fill="#22576F"/>
<path d="M207.4 107.3L207.3 107.2L228.4 95L227.9 94.1L206.9 106.2L207.5 107.2L207.4 107.3L207.3 107.2L207.4 107.3H207.3L206.7 106.3L206.6 106.2L206.7 106.1L227.9 93.9L228 93.8L228.1 93.9L228.7 95V95.1V95.2L207.5 107.4L207.3 107.3H207.4Z" fill="#22576F"/>
<path d="M228.5 95.1C224.2 87.6 216.1 82.9 207.4 82.9L207.3 82.8L207.4 82.7C216.2 82.7 224.3 87.4 228.7 95V95.2L228.5 95.1Z" fill="#22576F"/>
<path d="M193.2 176.7V176.6H194.6H194.7V176.7V179.9V180L194.6 180.1H193.2L193.1 180V179.9V176.7V176.6H193.2V176.7H193.3V179.8H194.5V176.8H193.2V176.7H193.3H193.2Z" fill="#22576F"/>
<path d="M205.4 176.7V176.6H206.9L207 176.7V179.9L206.9 180V180.1H205.4L205.3 180V179.9V176.7V176.6H205.4V176.7H205.5V179.8H206.7V176.8H205.4V176.7H205.5H205.4Z" fill="#22576F"/>
<path d="M194.6 179.1H205.4L205.5 179.2L205.4 179.3H194.6L194.5 179.2L194.6 179.1Z" fill="#22576F"/>
<path d="M194.6 178.4H205.4L205.5 178.5L205.4 178.6H194.6L194.5 178.5L194.6 178.4Z" fill="#22576F"/>
<path d="M193.9 172.5H206.9L207 172.6L206.9 172.8H193.9L193.8 172.6L193.9 172.5Z" fill="#22576F"/>
<path d="M19.6 193.6V193.5H21.1H21.2V193.6V196.8V196.9L21.1 197H19.6V196.9L19.5 196.8V193.6L19.6 193.5V193.6H19.8V196.7H21V193.7H19.6V193.6H19.8H19.6Z" fill="#22576F"/>
<path d="M77.2 193.6V193.5H78.7L78.8 193.6V196.8L78.7 196.9V197H77.2L77.1 196.9V196.8V193.6V193.5H77.2V193.6H77.3V196.7H78.5V193.7H77.2V193.6H77.3H77.2Z" fill="#22576F"/>
<path d="M36.2 193.6V193.5H37.6H37.7L37.8 193.6V196.8L37.7 196.9L37.6 197H36.2L36.1 196.9V196.8V193.6V193.5H36.2V193.6H36.3V196.7H37.5V193.7H36.2V193.6H36.3H36.2Z" fill="#22576F"/>
<path d="M21.1 196H36.2L36.3 196.1L36.2 196.3H21.1L21 196.1L21.1 196Z" fill="#22576F"/>
<path d="M21.1 195.3H36.2L36.3 195.4L36.2 195.5H21.1L21 195.4L21.1 195.3Z" fill="#22576F"/>
<path d="M37.6 196H77.2L77.3 196.1L77.2 196.3H37.6L37.5 196.1L37.6 196Z" fill="#22576F"/>
<path d="M37.6 195.3H77.2L77.3 195.4L77.2 195.5H37.6L37.5 195.4L37.6 195.3Z" fill="#22576F"/>
<path d="M20.4 189.4H77.9L78.1 189.6L77.9 189.7H20.4L20.2 189.6L20.4 189.4Z" fill="#22576F"/>
<path d="M171.5 175.3V175.5H131.3V183.9H171.4V175.3H171.5V175.5V175.3H171.6V184V184.1H171.5H131.2H131.1V184V175.3L131.2 175.2H171.5L171.6 175.3H171.5Z" fill="#22576F"/>
<path d="M16.1 142.1V141.9H33.4L33.5 142V142.1V188.1V188.2H33.4H16.1H16V188.1V142.1V142L16.1 141.9V142.1H16.3V188H33.3V142.2H16.1V142.1H16.3H16.1Z" fill="#22576F"/>
<path d="M20.7 156.5V156.3H21.8L21.9 156.4V156.5V173.7V173.8L21.8 173.9H20.7L20.6 173.8V173.7V156.5V156.4L20.7 156.3V156.5H20.9V173.6H21.7V156.6H20.7V156.5H20.9H20.7Z" fill="#22576F"/>
<path d="M27 157.8V157.7H31.4H31.5V157.8V172.2V172.3H31.4H27L26.9 172.2V157.8L27 157.7V157.8H27.2V172.1H31.2V157.9H27V157.8H27.2H27Z" fill="#22576F"/>
<path d="M20.7 162.5H19.2V167.7H20.7L20.9 167.8L20.7 167.9H19.1H19V167.8V162.4V162.3H19.1H20.7L20.9 162.4L20.7 162.5Z" fill="#22576F"/>
<path d="M39.9 158.9H33.4L33.3 158.8L33.4 158.7H39.9L40 158.8L39.9 158.9Z" fill="#22576F"/>
<path d="M21.8 167.7H23.3V162.5H21.8L21.7 162.4L21.8 162.3H23.4H23.5L23.6 162.4V167.8L23.5 167.9H23.4H21.8L21.7 167.8L21.8 167.7Z" fill="#22576F"/>
<path d="M39.9 171.5H33.4L33.3 171.4L33.4 171.3H39.9L40 171.4L39.9 171.5Z" fill="#22576F"/>
<path d="M39.9 158.1V157.9H41L41.1 158V158.1V172.1V172.2H41H39.9H39.8V172.1V158.1V158L39.9 157.9V158.1H40V172H40.8V158.2H39.9V158.1H40H39.9Z" fill="#22576F"/>
<path d="M28.3 154.2V154.3C28.1 154.4 28 154.5 28 154.8V154.9C28.1 155.1 28.2 155.2 28.5 155.2H28.6C29.1 155.1 29.7 155 30.3 154.9C30.5 154.9 30.6 154.7 30.6 154.6C30.6 154.5 30.5 154.3 30.4 154.3C30.1 154.2 29.8 154.1 29.4 154.1C29.1 154.1 28.7 154.2 28.4 154.3L28.3 154.2V154.1C28.7 154 29 153.9 29.4 153.9C29.8 153.9 30.1 154 30.5 154.1C30.7 154.2 30.9 154.4 30.9 154.6C30.9 154.9 30.7 155.2 30.3 155.2C29.8 155.2 29.2 155.3 28.7 155.5H28.5C28.2 155.5 27.9 155.3 27.8 155V154.8C27.8 154.5 28 154.2 28.3 154.1V154.2Z" fill="#22576F"/>
<path d="M151.9 95.2V95.3H127.6V110.8H151.8V95.2H151.9V95.3V95.2H152V111V111.1H151.9H127.5H127.4L127.3 111V95.2L127.4 95.1H127.5H151.9H152V95.2H151.9Z" fill="#22576F"/>
<path d="M172.8 67.8H172.7C172.7 64.6 175.3 61.9 178.6 61.9C181.8 61.9 184.5 64.5 184.5 67.8C184.5 71 181.9 73.7 178.6 73.7C175.4 73.7 172.7 71.1 172.7 67.8H172.8H172.9C172.9 69.4 173.5 70.8 174.5 71.8C175.5 72.8 176.9 73.4 178.5 73.4C180.1 73.4 181.5 72.8 182.5 71.8C183.5 70.8 184.1 69.4 184.1 67.8C184.1 66.2 183.5 64.8 182.5 63.8C181.5 62.8 180.1 62.2 178.5 62.2C176.9 62.2 175.5 62.8 174.5 63.8C173.5 64.8 172.9 66.2 172.9 67.8H172.8Z" fill="#22576F"/>
<path d="M177.1 67.8H177C177 66.9 177.7 66.2 178.6 66.2C179.5 66.2 180.2 66.9 180.2 67.8C180.2 68.7 179.5 69.4 178.6 69.4C177.7 69.4 177 68.7 177 67.8H177.1H177.2C177.2 68.5 177.8 69.2 178.6 69.2C179.3 69.2 180 68.6 180 67.8C180 67.1 179.4 66.4 178.6 66.4C177.9 66.4 177.2 67 177.2 67.8H177.1Z" fill="#22576F"/>
<path d="M184.3 68H180.1L179.9 67.8L180.1 67.7H184.3L184.5 67.8L184.3 68Z" fill="#22576F"/>
<path d="M177.1 68H172.8L172.7 67.8L172.8 67.7H177.1L177.2 67.8L177.1 68Z" fill="#22576F"/>
<path d="M178.4 73.6V69.3L178.6 69.2L178.7 69.3V73.6L178.6 73.7L178.4 73.6Z" fill="#22576F"/>
<path d="M178.4 66.4V62.1L178.6 62L178.7 62.1V66.4L178.6 66.5L178.4 66.4Z" fill="#22576F"/>
<path d="M171.4 60.6V60.5H185.8L185.9 60.6V80.8V80.9H185.8H171.4H171.3L171.2 80.8V60.6H171.3L171.4 60.5V60.6H171.5V80.7H185.7V60.8H171.4V60.6H171.5H171.4Z" fill="#22576F"/>
<path d="M169.9 59.3H109.5L109.3 59.2L109.5 59.1H169.9L170 59.2L169.9 59.3Z" fill="#22576F"/>
<path d="M109.3 82.2V59.2L109.5 59.1L109.6 59.2V82.2L109.5 82.4L109.3 82.2Z" fill="#22576F"/>
<path d="M169.8 82.2V59.2L169.9 59.1L170 59.2V82.2L169.9 82.4L169.8 82.2Z" fill="#22576F"/>
<path d="M166.9 82.2V62.8L167 62.7L167.2 62.8V82.2L167 82.4L166.9 82.2Z" fill="#22576F"/>
<path d="M169.9 62.2H109.5L109.3 62.1L109.5 62H169.9L170 62.1L169.9 62.2Z" fill="#22576F"/>
<path d="M169.9 82.4H109.5L109.3 82.2L109.5 82.1H169.9L170 82.2L169.9 82.4Z" fill="#22576F"/>
<path d="M148.7 82.2V63.5L148.8 63.4L148.9 63.5V82.2L148.8 82.4L148.7 82.2Z" fill="#22576F"/>
<path d="M130.5 82.2V63.5L130.6 63.4L130.7 63.5V82.2L130.6 82.4L130.5 82.2Z" fill="#22576F"/>
<path d="M167 63.6H112.3L112.2 63.5L112.3 63.4H167L167.2 63.5L167 63.6Z" fill="#22576F"/>
<path d="M109.5 62.7H112.3L112.5 62.8L112.3 62.9H109.5L109.3 62.8L109.5 62.7Z" fill="#22576F"/>
<path d="M169.9 62.9H167L166.9 62.8L167 62.7H169.9L170 62.8L169.9 62.9Z" fill="#22576F"/>
<path d="M112.2 82.2V62.8L112.3 62.7L112.5 62.8V82.2L112.3 82.4L112.2 82.2Z" fill="#22576F"/>
<path d="M148.8 136.8C150.1 141.6 154.4 144.7 159.1 144.7C160 144.7 160.9 144.6 161.9 144.3C166.7 143 169.8 138.7 169.8 134C169.8 133.1 169.7 132.2 169.4 131.2L169.5 131L169.7 131.1C170 132 170.1 133 170.1 133.9C170.1 138.7 166.9 143.1 162 144.4C161.1 144.7 160.1 144.8 159.2 144.8C154.4 144.8 150 141.6 148.7 136.7L148.8 136.5V136.8Z" fill="#22576F"/>
<path d="M151.6 136.1C152.5 139.6 155.7 141.9 159.1 141.9C159.8 141.9 160.4 141.8 161.1 141.6C164.6 140.7 166.9 137.5 166.9 134.1C166.9 133.4 166.8 132.8 166.6 132.1L166.7 131.9L166.9 132C167.1 132.7 167.2 133.4 167.2 134.1C167.2 137.7 164.8 140.9 161.2 141.9C160.5 142.1 159.8 142.2 159.1 142.2C155.5 142.2 152.3 139.8 151.3 136.2L151.4 136L151.6 136.1Z" fill="#22576F"/>
<path d="M151.4 136.1L148.6 125.7L148.7 125.6L148.8 125.7L151.6 136.1L151.5 136.2L151.4 136.1Z" fill="#22576F"/>
<path d="M164.1 121.6L166.9 132L166.8 132.1L166.7 132L163.9 121.6V121.5L164.1 121.6Z" fill="#22576F"/>
<path d="M148.6 136.9L145.8 126.5L145.9 126.3L146 126.4L148.8 136.8L148.7 137L148.6 136.9Z" fill="#22576F"/>
<path d="M145.9 126.3L166.7 120.7L166.9 120.8L166.8 121L145.9 126.5H145.8L145.9 126.3Z" fill="#22576F"/>
<path d="M166.9 120.8L169.7 131.2L169.6 131.4L169.4 131.3L166.6 120.9L166.7 120.7L166.9 120.8Z" fill="#22576F"/>
<path d="M151.2 134.7C152.1 138.2 155.3 140.5 158.7 140.5C159.4 140.5 160 140.4 160.7 140.2C164.2 139.3 166.5 136.1 166.5 132.7C166.5 132 166.4 131.4 166.2 130.7L166.3 130.5L166.5 130.6C166.7 131.3 166.8 132 166.8 132.7C166.8 136.3 164.4 139.5 160.8 140.5C160.1 140.7 159.4 140.8 158.7 140.8C155.1 140.8 151.9 138.4 150.9 134.8L151 134.6L151.2 134.7Z" fill="#22576F"/>
<path d="M166.5 181.1V181.2H136.2H136.1V181.1V180.4V180.3H136.2H166.5H166.6V180.4V181.1V181.2H166.5V181.1H166.3V180.5H136.4V181H166.5V181.1H166.3H166.5Z" fill="#22576F"/>
<path d="M146.9 180.4V177.5V177.4H147H155.7H155.8V177.5V180.4L155.7 180.5L155.5 180.4V177.6H147.2V180.4L147 180.5L146.9 180.4Z" fill="#22576F"/>
<path d="M155.8 181.1V182.5V182.6L155.7 182.7H147L146.9 182.6V182.5V181.1L147 181L147.2 181.1V182.4H155.5V181.1L155.7 181L155.8 181.1Z" fill="#22576F"/>
<path d="M81.5 181.1C83.6 183.2 86.3 184.2 89 184.2C91.7 184.2 94.5 183.2 96.5 181.1C98.6 179 99.6 176.3 99.6 173.6C99.6 170.9 98.6 168.1 96.5 166.1V165.9H96.7C98.8 168 99.9 170.8 99.9 173.6C99.9 176.4 98.8 179.2 96.7 181.3C94.6 183.4 91.8 184.5 89 184.5C86.2 184.5 83.4 183.4 81.3 181.3V181.1H81.5Z" fill="#22576F"/>
<path d="M83.5 179.1C85 180.6 87 181.4 89 181.4C91 181.4 93 180.6 94.5 179.1C96 177.6 96.8 175.6 96.8 173.6C96.8 171.6 96 169.6 94.5 168.1V167.9H94.7C96.3 169.5 97.1 171.5 97.1 173.6C97.1 175.7 96.3 177.7 94.7 179.3C93.1 180.9 91.1 181.7 89 181.7C86.9 181.7 84.9 180.9 83.3 179.3V179.1H83.5Z" fill="#22576F"/>
<path d="M94.5 168.1L86.9 160.4V160.2H87.1L94.7 167.9V168.1H94.5Z" fill="#22576F"/>
<path d="M75.9 171.4L83.5 179.1V179.3H83.3L75.7 171.6V171.4H75.9Z" fill="#22576F"/>
<path d="M96.6 166L88.9 158.4V158.2H89.1L96.7 165.8V166H96.6Z" fill="#22576F"/>
<path d="M89.1 158.4L73.8 173.7H73.7V173.5L88.9 158.2H89.1V158.4Z" fill="#22576F"/>
<path d="M73.8 173.5L81.5 181.1V181.3H81.3L73.7 173.7V173.5H73.8Z" fill="#22576F"/>
<path d="M82.5 178.1C84 179.6 86 180.4 88 180.4C90 180.4 92 179.6 93.5 178.1C95 176.6 95.8 174.6 95.8 172.6C95.8 170.6 95 168.6 93.5 167.1V166.9H93.7C95.3 168.5 96.1 170.5 96.1 172.6C96.1 174.7 95.3 176.7 93.7 178.3C92.1 179.9 90.1 180.7 88 180.7C85.9 180.7 83.9 179.9 82.3 178.3V178.1H82.5Z" fill="#22576F"/>
<path d="M110 131.3C109.8 132.2 109.6 133.2 109.6 134.1C109.6 138.8 112.7 143.1 117.5 144.4C118.4 144.6 119.4 144.8 120.3 144.8C125 144.8 129.3 141.7 130.6 136.9L130.8 136.8L130.9 137C129.6 141.9 125.2 145.1 120.4 145.1C119.5 145.1 118.5 145 117.6 144.7C112.7 143.4 109.5 139 109.5 134.2C109.5 133.3 109.6 132.3 109.9 131.4L110.1 131.3H110Z" fill="#22576F"/>
<path d="M112.7 132C112.5 132.7 112.4 133.4 112.4 134C112.4 137.4 114.7 140.6 118.2 141.5C118.9 141.7 119.6 141.8 120.2 141.8C123.6 141.8 126.8 139.5 127.7 136L127.9 135.9L128 136.1C127 139.7 123.8 142.1 120.2 142.1C119.5 142.1 118.8 142 118.1 141.8C114.5 140.8 112.1 137.6 112.1 134C112.1 133.3 112.2 132.6 112.4 131.9L112.6 131.8L112.7 132Z" fill="#22576F"/>
<path d="M127.8 136.1L130.6 125.7L130.7 125.6L130.8 125.7L128 136.1L127.9 136.2L127.8 136.1Z" fill="#22576F"/>
<path d="M115.5 121.6L112.7 132L112.6 132.1L112.5 132L115.3 121.6L115.4 121.5L115.5 121.6Z" fill="#22576F"/>
<path d="M130.6 136.8L133.4 126.4L133.5 126.3L133.6 126.5L130.8 136.9L130.7 137L130.6 136.8Z" fill="#22576F"/>
<path d="M133.5 126.5L112.6 121L112.5 120.8L112.7 120.7L133.5 126.3L133.6 126.5H133.5Z" fill="#22576F"/>
<path d="M112.8 120.9L110 131.3L109.8 131.4L109.7 131.2L112.5 120.8L112.7 120.7L112.8 120.9Z" fill="#22576F"/>
<path d="M113.1 130.7C112.9 131.4 112.8 132.1 112.8 132.7C112.8 136.1 115.1 139.3 118.6 140.2C119.3 140.4 120 140.5 120.6 140.5C124 140.5 127.2 138.2 128.1 134.7L128.3 134.6L128.4 134.8C127.4 138.4 124.2 140.8 120.6 140.8C119.9 140.8 119.2 140.7 118.5 140.5C114.9 139.5 112.5 136.3 112.5 132.7C112.5 132 112.6 131.3 112.8 130.6L113 130.5L113.1 130.7Z" fill="#22576F"/>
<path d="M23.6 79H20.2L20.1 78.8L20.2 78.7H23.6L23.8 78.8L23.6 79Z" fill="#22576F"/>
<path d="M23.6 78.7L23.7 78.6L23.8 78.5L23.9 78.6C23.9 78.8 23.7 79 23.5 79L23.4 78.9L23.6 78.7Z" fill="#22576F"/>
<path d="M23.8 78.2L23.7 78.1L23.6 78L23.7 77.9C23.9 77.9 24.1 78.1 24.1 78.3L24 78.4L23.8 78.2Z" fill="#22576F"/>
<path d="M23.8 78.6V78.2L23.9 78L24 78.2V78.6L23.9 78.7L23.8 78.6Z" fill="#22576F"/>
<path d="M20.2 77.9L20.4 78L20.5 78.1L20.4 78.2C20.3 78.2 20.1 78.1 20 78V77.8L20.2 77.9Z" fill="#22576F"/>
<path d="M20.4 78.7L20.2 78.8H20V78.6C20.1 78.5 20.2 78.4 20.4 78.4L20.5 78.5L20.4 78.7Z" fill="#22576F"/>
<path d="M22 78.7H20.4L20.3 78.6L20.4 78.5H22L22.2 78.6L22 78.7Z" fill="#22576F"/>
<path d="M20.4 78H22L22.2 78.1L22 78.2H20.4L20.3 78.1L20.4 78Z" fill="#22576F"/>
<path d="M22.1 78.4L22 78.2V78H22.1L22.3 78.2V78.4H22.1Z" fill="#22576F"/>
<path d="M22.1 78.5V78.3L22.2 78.1L22.3 78.3V78.5L22.2 78.6L22.1 78.5Z" fill="#22576F"/>
<path d="M20 77.7H20.2L20.3 77.8L20.2 77.9C20.1 77.9 20 77.9 19.9 77.8L19.8 77.6L20 77.7Z" fill="#22576F"/>
<path d="M20.2 79H20L19.8 78.9L19.9 78.7C20 78.7 20.1 78.6 20.2 78.6L20.3 78.7L20.2 79Z" fill="#22576F"/>
<path d="M20.2 77.8H23.6L23.8 77.9L23.6 78H20.2L20.1 77.9L20.2 77.8Z" fill="#22576F"/>
<path d="M20.1 78C20 77.9 19.8 77.8 19.7 77.8C19.6 77.8 19.4 77.8 19.3 77.9C19.2 78 19.1 78.2 19.1 78.3C19.1 78.4 19.1 78.6 19.2 78.7C19.3 78.8 19.5 78.9 19.6 78.9C19.7 78.9 19.9 78.9 20 78.8H20.2V79C20 79.1 19.8 79.2 19.7 79.2C19.5 79.2 19.3 79.1 19.1 78.9C19 78.7 18.9 78.5 18.9 78.4C18.9 78.2 19 78 19.2 77.8C19.4 77.7 19.6 77.6 19.7 77.6C19.9 77.6 20.1 77.7 20.3 77.9V78.1L20.1 78Z" fill="#22576F"/>
<path d="M20.1 78.1C20 78 19.9 78 19.8 78C19.7 78 19.6 78 19.5 78.1C19.4 78.2 19.4 78.3 19.4 78.4C19.4 78.5 19.4 78.6 19.5 78.7C19.6 78.8 19.7 78.8 19.8 78.8C19.9 78.8 20 78.8 20.1 78.7H20.3V78.9C20.2 79 20 79.1 19.8 79.1C19.6 79.1 19.4 79 19.3 78.9C19.2 78.8 19.1 78.6 19.1 78.4C19.1 78.2 19.2 78 19.3 77.9C19.4 77.8 19.6 77.7 19.8 77.7C20 77.7 20.2 77.8 20.3 77.9V78.1H20.1Z" fill="#22576F"/>
<path d="M22 78.5L22.1 78.4H22.3V78.6L22.1 78.7H22V78.5Z" fill="#22576F"/>
<path d="M30.5 71H31.9L32 71.2L31.9 71.3H30.5L30.4 71.2L30.5 71Z" fill="#22576F"/>
<path d="M31.9 85.7H30.5L30.4 85.6L30.5 85.4H31.9L32 85.6L31.9 85.7Z" fill="#22576F"/>
<path d="M31.3 83.6C31.5 83.6 31.7 83.4 31.7 83.2L31.8 83.1L31.9 83.2C31.9 83.6 31.6 83.8 31.2 83.8L31.1 83.7L31.3 83.6Z" fill="#22576F"/>
<path d="M24.1 82.4C26.4 83.1 28.9 83.5 31.3 83.6L31.4 83.7L31.3 83.8C28.8 83.7 26.4 83.3 24 82.6L23.9 82.4H24.1Z" fill="#22576F"/>
<path d="M24.1 74.3C22.5 74.8 21.3 76.2 21.1 77.9L21 78L20.9 77.9C21.1 76.1 22.3 74.6 24 74.1L24.2 74.2L24.1 74.3Z" fill="#22576F"/>
<path d="M21.1 78.8C21.3 80.5 22.4 81.9 24.1 82.4L24.2 82.6L24 82.7C22.3 82.2 21 80.7 20.9 78.9L21 78.8H21.1Z" fill="#22576F"/>
<path d="M31.3 73.1C28.8 73.2 26.4 73.6 24.1 74.3L23.9 74.2L24 74C26.4 73.3 28.8 72.9 31.3 72.8L31.4 72.9L31.3 73.1Z" fill="#22576F"/>
<path d="M31.8 73.5C31.8 73.3 31.6 73.1 31.4 73.1L31.3 73L31.4 72.9C31.8 72.9 32.1 73.2 32.1 73.6L32 73.7L31.8 73.5Z" fill="#22576F"/>
<path d="M32 73.5V83.2L31.9 83.3L31.8 83.2V73.5L31.9 73.4L32 73.5Z" fill="#22576F"/>
<path d="M14.7 85.6V85.5H31.9C33 85.5 33.9 84.6 33.9 83.5V73.4C33.9 72.3 33 71.4 31.9 71.4H14.8V85.7H14.7V85.6H14.6V71.2V71.1H14.7H31.9C33.2 71.1 34.2 72.1 34.2 73.4V83.5C34.2 84.8 33.2 85.8 31.9 85.8H14.7V85.6Z" fill="#22576F"/>
<path d="M22.3 77.8C22.1 77.8 22 77.9 21.8 78H21.6V77.8C21.8 77.6 22 77.5 22.2 77.5L22.3 77.6V77.8Z" fill="#22576F"/>
<path d="M21.9 78.8C22 78.9 22.2 79 22.4 79L22.5 79.1L22.4 79.2C22.2 79.2 21.9 79.1 21.8 78.9V78.7L21.9 78.8Z" fill="#22576F"/>
<path d="M22.3 79C22.5 79 22.6 78.9 22.8 78.8H23V79C22.8 79.2 22.6 79.3 22.4 79.3L22.3 79.2V79Z" fill="#22576F"/>
<path d="M22.8 78C22.7 77.9 22.5 77.8 22.3 77.8L22.2 77.7L22.3 77.6C22.5 77.6 22.8 77.7 22.9 77.9V78.1L22.8 78Z" fill="#22576F"/>
<path d="M30.8 83.2C30.9 83.2 31 83.1 31 83L31.1 82.9L31.2 83C31.2 83.3 31 83.5 30.7 83.5L30.6 83.4L30.8 83.2Z" fill="#22576F"/>
<path d="M25.2 82.7C26.7 83 28.2 83.2 29.7 83.2C30.1 83.2 30.4 83.2 30.8 83.2L30.9 83.3L30.8 83.4C30.4 83.4 30.1 83.4 29.7 83.4C28.2 83.4 26.7 83.2 25.2 82.9L25.1 82.8L25.2 82.7Z" fill="#22576F"/>
<path d="M24.1 74.3C24 74.3 23.9 74.4 23.7 74.4L23.5 74.3L23.6 74.1C23.7 74.1 23.9 74 24 74L24.2 74.1L24.1 74.3Z" fill="#22576F"/>
<path d="M23.8 82.3C23.9 82.3 24 82.4 24.2 82.4L24.3 82.6L24.1 82.7C24 82.7 23.8 82.6 23.7 82.6L23.6 82.4L23.8 82.3Z" fill="#22576F"/>
<path d="M30.8 73.6C30.4 73.6 30.1 73.6 29.7 73.6C28.2 73.6 26.7 73.8 25.2 74.1L25.1 74L25.2 73.9C26.7 73.6 28.2 73.4 29.7 73.4C30.1 73.4 30.4 73.4 30.8 73.4L30.9 73.5L30.8 73.6Z" fill="#22576F"/>
<path d="M31 73.8C31 73.7 30.9 73.6 30.8 73.6L30.7 73.5L30.8 73.4C31.1 73.4 31.3 73.6 31.3 73.9L31.2 74L31 73.8Z" fill="#22576F"/>
<path d="M31 82.9V73.8L31.1 73.7L31.3 73.8V82.9L31.1 83.1L31 82.9Z" fill="#22576F"/>
<path d="M25.4 41.7C26.3 42 27.3 42.1 28.2 42.1L28.3 42.2L28.2 42.3C27.2 42.3 26.3 42.2 25.3 41.9L25.2 41.7H25.4Z" fill="#22576F"/>
<path d="M23.2 40.7C23.9 41.2 24.6 41.5 25.4 41.8L25.5 42L25.3 42.1C24.5 41.9 23.7 41.5 23 41V40.8L23.2 40.7Z" fill="#22576F"/>
<path d="M22.5 40.1C22.7 40.3 22.9 40.5 23.2 40.7V40.9H23C22.8 40.7 22.5 40.5 22.3 40.3V40.1H22.5Z" fill="#22576F"/>
<path d="M28.2 42.1C29.2 42.1 30.1 42 31 41.7C31.8 41.5 32.5 41.1 33.2 40.6C33.8 40.1 34.4 39.5 34.8 38.9C35.1 38.3 35.3 37.7 35.3 37.1C35.3 36.5 35.1 35.8 34.8 35.3C34.4 34.6 33.9 34 33.2 33.6C32.5 33.1 31.8 32.8 31 32.5C30.1 32.2 29.1 32.1 28.2 32.1C27.2 32.1 26.3 32.2 25.4 32.5C24.6 32.7 23.9 33.1 23.2 33.6C23 33.8 22.7 34 22.5 34.2L22.4 34.1H22.5V40.3L22.4 40.4L22.3 40.3V34V33.9C22.5 33.7 22.7 33.5 23 33.3C23.7 32.8 24.5 32.4 25.3 32.2C26.2 31.9 27.2 31.8 28.2 31.8C29.2 31.8 30.1 31.9 31.1 32.2C31.9 32.4 32.7 32.8 33.4 33.3C34.1 33.8 34.6 34.4 35 35.1C35.3 35.7 35.5 36.4 35.5 37C35.5 37.7 35.3 38.4 35 38.9C34.6 39.6 34 40.2 33.4 40.7C32.7 41.2 31.9 41.6 31.1 41.8C30.2 42.1 29.2 42.2 28.2 42.2L28.1 42.1H28.2Z" fill="#22576F"/>
<path d="M19.2 41C21.5 41.1 23.8 41.4 26.1 41.9L26.2 42L26.1 42.1C23.8 41.7 21.6 41.4 19.3 41.2L19.2 41.1V41Z" fill="#22576F"/>
<path d="M20 35.1H19.9C19.8 34.6 19.6 34.1 19.4 33.6C19.1 33.1 18.8 32.6 18.3 32.3C18.2 32.2 18 32.2 17.9 32.2H17.8L15.7 32.6L15.6 32.8V41.5L15.7 41.7L17.8 42.1H17.9C18.1 42.1 18.2 42.1 18.3 42C18.8 41.7 19.2 41.2 19.4 40.7C19.6 40.2 19.8 39.7 19.9 39.2C20 38.5 20.1 37.9 20.1 37.2C20.1 36.5 20 35.9 19.9 35.2L20 35.1H20.1C20.2 35.8 20.3 36.4 20.3 37.1C20.3 37.8 20.2 38.5 20.1 39.1C20 39.6 19.8 40.1 19.6 40.6C19.3 41.2 18.9 41.7 18.4 42C18.2 42.1 18 42.2 17.8 42.2H17.6L15.5 41.8C15.3 41.8 15.2 41.6 15.2 41.4V32.7C15.2 32.5 15.3 32.3 15.5 32.3L17.6 31.9H17.8C18 31.9 18.2 32 18.4 32.1C18.9 32.5 19.3 33 19.6 33.5C19.8 34 20 34.5 20.1 35L20 35.1Z" fill="#22576F"/>
<path d="M19.1 32.9C21.4 32.8 23.7 32.5 25.9 32L26 32.1L25.9 32.2C23.6 32.6 21.3 32.9 19 33.1L18.9 33L19.1 32.9Z" fill="#22576F"/>
<path d="M17.4 37.1H17.3C17.3 36.7 17.6 36.4 18 36.4C18.4 36.4 18.7 36.7 18.7 37.1C18.7 37.5 18.4 37.8 18 37.8C17.6 37.8 17.3 37.5 17.3 37.1H17.4H17.5C17.5 37.3 17.7 37.5 17.9 37.5C18.1 37.5 18.3 37.3 18.3 37.1C18.3 36.9 18.1 36.7 17.9 36.7C17.7 36.7 17.5 36.9 17.5 37.1H17.4Z" fill="#22576F"/>
<path d="M187.4 272.4H187.3V265.6L8.1 241.7L8 241.6V235.8V235.7H8.1L193.2 260.3L193.3 260.5V272.4V272.5H193.2H187.4H187.3V272.4H187.4V272.3H193.1V260.6L8.3 235.9V241.5L187.4 265.4L187.6 265.5V272.4H187.4V272.3V272.4Z" fill="#22576F"/>
<path d="M247.1 272.4V272.5H241.3H241.2V272.4V235.8V235.7H241.3L247.1 236.4L247.2 236.6V272.4V272.5H247.1V272.4H246.9V236.7L241.4 235.9V272.3H247.1V272.4H246.9H247.1Z" fill="#22576F"/>
<path d="M239.1 120.5H207.4L207.3 120.3L207.4 120.2H239.1L239.2 120.3L239.1 120.5Z" fill="#22576F"/>
<path d="M14.7 104.7H65.6L65.7 104.8L65.6 104.9H14.7L14.6 104.8L14.7 104.7Z" fill="#22576F"/>
<path d="M19.6 226V226.1H8.1H8V226V14.8V14.7L8.1 14.6H209.5L209.6 14.7V14.8V16.3H210.9H211V16.4V20V20.1H210.9H209.6V23.5V23.6H209.5H185.3V25V25.1H185.2H181.9H181.8V25V23.6H71.8V49.2H73.5H73.6V49.3V57.8V57.9H73.5H69V60.6V60.7L68.9 60.8H65.6L65.5 60.7L65.4 60.6V25.3H14.8V91.3H65.4V85.1L65.5 85H65.6H68.9H69V85.1V115.3V115.4L68.9 115.5H57.4L57.3 115.4L57.2 115.3V112L57.3 111.9H57.4H65.4V94.9H14.8V111.9H22.8H22.9V112V115.3V115.4L22.8 115.5H14.8V189.4H20.4L20.5 189.5V189.6V193.6V193.7H20.4H19.8V226L19.7 226.1H19.6V226H19.5V193.6L19.6 193.5H20.2V189.7H14.7H14.6V189.6V115.3V115.2H14.7H22.7V112.1H14.7H14.6V112V94.7V94.6H14.7H65.6H65.7V94.7V112V112.1H65.6H57.5V115.2H68.8V85.2H65.7V91.4V91.5H65.6H14.7H14.6V91.4V25.2V25.1H14.7H65.6H65.7V25.2V60.5H68.8V57.8V57.7L68.9 57.6H73.4V49.4H71.7H71.6V49.3V23.5V23.4H71.7H181.9H182V23.5V24.9H185.1V23.5V23.4H185.2H209.3V20L209.4 19.9H209.5H210.8V16.5H209.5H209.4L209.3 16.4V14.9H8.2V225.9H19.6V226H19.5H19.6Z" fill="#22576F"/>
<path d="M78 189.6H78.1V193.5H78.7L78.8 193.6V196.7H193.1V176.7V176.6H193.2H193.8V172.8H186V184V184.1H185.9H116.9V189.6V189.7H116.8H78V189.6H78.1H78V189.4H116.7V184V183.9H116.8H185.8V172.6L185.9 172.5H193.9L194 172.6V176.7V176.8H193.9H193.3V196.8V196.9L193.2 197H78.7L78.6 196.9L78.5 196.8V193.7H77.9L77.8 193.6V189.6L78 189.4V189.6Z" fill="#22576F"/>
<path d="M211.2 172.6V172.8H207V181H211.1V172.6H211.2V172.8V172.6H211.3V181.1V181.2H211.2H206.9H206.8L206.7 181.1V172.6H206.8L206.9 172.5H211.2L211.3 172.6H211.2Z" fill="#22576F"/>
<path d="M237.1 172.6H237.2V181H241.3H241.4V181.1V225.9H247.8V14.9H236.9V16.4V16.5H236.8H235.5V19.9H236.8H236.9V20V23.4H239.1H239.2V23.5V109.8V109.9H239.1H236.3V113H239.1H239.2V113.1V130.4V130.5H239.1H207.4H207.3V130.4V113.1V113H207.4H210.2V109.9H207.4H207.3V109.8V107.4H201.4V136.4H239.1H239.2V136.5V172.6V172.7L239.1 172.8H237.1V172.6H237.2H237.1V172.5H238.9V136.6H201.3H201.2V136.5V107.3V107.2H201.3H207.4H207.5V107.3V109.7H210.3H210.4V109.8V113.1V113.2L210.3 113.3H207.5V130.3H238.9V113.3H236.2L236.1 113.2V113.1V109.8V109.7H236.2H238.9V23.6H236.8H236.7V23.5V20.1H235.4H235.3V20V16.4V16.3H235.4H236.7V14.8V14.7L236.8 14.6H247.9L248 14.7V14.8V226V226.1H247.9H241.3H241.2V226V181.2H237.1H237V181.1V172.6L237.1 172.5V172.6Z" fill="#22576F"/>
<path d="M95.1 49.3H95.2V57.6H201.3L201.4 57.7V57.8V82.7H207.3V49.4H185.2H185.1V49.3V48.2H182V49.3V49.4H181.9H95.1V49.3H95.2H95.1V49.2H181.8V48L181.9 47.9H185.2L185.3 48V49.2H207.4H207.5V49.3V82.8V82.9H207.4H201.3H201.2V82.8V57.9H95.1H95L94.9 57.8V49.3L95 49.2H95.1V49.3Z" fill="#22576F"/>
<path d="M157 36.4C157 35.5 157.7 34.8 158.6 34.8C159.5 34.8 160.2 35.5 160.2 36.4C160.2 37.3 159.5 38 158.6 38C157.7 38 157 37.3 157 36.4L157.1 36.3H158.5H158.6V36.4V36.5H158.5H122.5L122.4 36.4L122.5 36.3L126.1 35H126.2L126.3 35.1V36.4L126.2 36.5L126.1 36.4V35.3L123.3 36.3H158.6H158.7V36.4V36.5H158.6H157.2V36.4H157.3C157.3 37.1 157.9 37.7 158.6 37.7C159.3 37.7 159.9 37.1 159.9 36.4C159.9 35.7 159.3 35.1 158.6 35.1C157.9 35.1 157.3 35.7 157.3 36.4L157.2 36.5L157 36.4Z" fill="#22576F"/>
<path d="M237.1 181.2H211.2L211.1 181.1L211.2 181H237.1L237.2 181.1L237.1 181.2Z" fill="#22576F"/>
<path d="M237.1 172.8H211.2L211.1 172.6L211.2 172.5H237.1L237.2 172.6L237.1 172.8Z" fill="#22576F"/>
<path d="M235.4 20.1H210.9L210.8 20L210.9 19.9H235.4L235.5 20L235.4 20.1Z" fill="#22576F"/>
<path d="M235.4 16.5H210.9L210.8 16.4L210.9 16.3H235.4L235.5 16.4L235.4 16.5Z" fill="#22576F"/>
<path d="M118.3 223.5H117.5V224.6H117.1V221.5H118.3C119 221.5 119.5 221.9 119.5 222.5C119.5 223.2 118.9 223.5 118.3 223.5ZM118.3 221.8H117.5V223.2H118.3C118.8 223.2 119.2 222.9 119.2 222.5C119.1 222 118.8 221.8 118.3 221.8Z" fill="#22576F"/>
<path d="M123 224.6H122.6L122.2 223.8H120.5L120.1 224.6H119.7L121.1 221.5H121.4L123 224.6ZM121.4 221.9L120.7 223.5H122.1L121.4 221.9Z" fill="#22576F"/>
<path d="M124.7 224.6H124.3V221.8H123.3V221.5H125.8V221.8H124.8V224.6H124.7Z" fill="#22576F"/>
<path d="M127 221.5V224.6H126.6V221.5H127Z" fill="#22576F"/>
<path d="M129.6 224.7C128.7 224.7 128 224 128 223.1C128 222.2 128.6 221.5 129.6 221.5C130.5 221.5 131.2 222.2 131.2 223.1C131.2 224 130.5 224.7 129.6 224.7ZM129.6 221.8C128.9 221.8 128.4 222.4 128.4 223.1C128.4 223.8 128.9 224.4 129.6 224.4C130.3 224.4 130.8 223.8 130.8 223.1C130.8 222.4 130.3 221.8 129.6 221.8Z" fill="#22576F"/>
<path d="M29.9 60.3H29.1V61.4H28.7V58.3H30C30.7 58.3 31.2 58.7 31.2 59.3C31.2 60 30.6 60.3 29.9 60.3ZM30 58.6H29.2V60H30C30.5 60 30.9 59.7 30.9 59.3C30.8 58.9 30.5 58.6 30 58.6Z" fill="#22576F"/>
<path d="M33.5 61.5C32.6 61.5 31.9 60.8 31.9 59.9C31.9 59 32.5 58.3 33.5 58.3C34.4 58.3 35.1 59 35.1 59.9C35.1 60.8 34.5 61.5 33.5 61.5ZM33.5 58.6C32.8 58.6 32.3 59.2 32.3 59.9C32.3 60.6 32.8 61.2 33.5 61.2C34.2 61.2 34.7 60.6 34.7 59.9C34.7 59.2 34.2 58.6 33.5 58.6Z" fill="#22576F"/>
<path d="M37.8 58.3H38.1L39 60.9L39.9 58.3H40.3L39.2 61.4H38.9L38 58.9L37.1 61.4H36.8L35.7 58.3H36.1L37 60.9L37.8 58.3Z" fill="#22576F"/>
<path d="M42.2 61.4H41.1V58.3H42.2C43.2 58.3 43.9 59 43.9 59.9C43.9 60.8 43.2 61.4 42.2 61.4ZM42.2 58.6H41.5V61.1H42.2C43 61.1 43.5 60.6 43.5 59.9C43.5 59.2 43 58.6 42.2 58.6Z" fill="#22576F"/>
<path d="M47.1 58.6H45.2V59.7H46.9V60H45.2V61.1H47.1V61.4H44.8V58.3H47.1V58.6Z" fill="#22576F"/>
<path d="M50.2 61.4L49.3 60.2H48.4V61.4H48V58.3H49.3C50 58.3 50.4 58.7 50.4 59.2C50.4 59.7 50 60 49.6 60.1L50.6 61.4H50.2ZM49.4 58.6H48.4V59.9H49.4C49.9 59.9 50.2 59.7 50.2 59.3C50.2 58.9 49.9 58.6 49.4 58.6Z" fill="#22576F"/>
<path d="M82.4 36.8C83.1 37 83.4 37.2 83.4 37.7C83.4 38.2 83 38.6 82.3 38.6C81.8 38.6 81.4 38.4 81 38.1L81.2 37.8C81.5 38.1 81.8 38.2 82.3 38.2C82.7 38.2 83 38 83 37.7C83 37.4 82.8 37.2 82.2 37.1C81.5 36.9 81.2 36.7 81.2 36.2C81.2 35.7 81.6 35.3 82.2 35.3C82.7 35.3 83 35.4 83.3 35.7L83.1 36C82.8 35.8 82.5 35.7 82.2 35.7C81.8 35.7 81.5 35.9 81.5 36.2C81.5 36.5 81.7 36.7 82.4 36.8Z" fill="#22576F"/>
<path d="M85.5 38.6H85.1V35.8H84.1V35.5H86.6V35.8H85.6V38.6H85.5Z" fill="#22576F"/>
<path d="M88.7 38.6C87.8 38.6 87.1 37.9 87.1 37C87.1 36.1 87.7 35.4 88.7 35.4C89.6 35.4 90.3 36.1 90.3 37C90.3 37.9 89.7 38.6 88.7 38.6ZM88.7 35.7C88 35.7 87.5 36.3 87.5 37C87.5 37.7 88 38.3 88.7 38.3C89.4 38.3 89.9 37.7 89.9 37C89.9 36.3 89.4 35.7 88.7 35.7Z" fill="#22576F"/>
<path d="M93.5 38.6L92.6 37.4H91.7V38.6H91.3V35.5H92.6C93.3 35.5 93.7 35.9 93.7 36.4C93.7 36.9 93.3 37.2 92.9 37.3L93.9 38.6H93.5ZM92.6 35.8H91.6V37.1H92.6C93.1 37.1 93.4 36.9 93.4 36.5C93.4 36 93.1 35.8 92.6 35.8Z" fill="#22576F"/>
<path d="M97.8 38.6H97.4L97 37.8H95.3L94.9 38.6H94.5L95.9 35.5H96.2L97.8 38.6ZM96.2 35.8L95.5 37.4H96.9L96.2 35.8Z" fill="#22576F"/>
<path d="M99.9 38.6C98.9 38.6 98.3 37.9 98.3 37C98.3 36.1 98.9 35.4 99.9 35.4C100.4 35.4 100.8 35.6 101.1 35.8L100.9 36.1C100.7 35.9 100.4 35.7 100 35.7C99.3 35.7 98.8 36.3 98.8 37C98.8 37.7 99.3 38.3 100 38.3C100.4 38.3 100.7 38.2 100.9 38V37.2H100V36.9H101.3V38.1C100.9 38.4 100.4 38.6 99.9 38.6Z" fill="#22576F"/>
<path d="M104.5 35.8H102.6V36.9H104.3V37.2H102.6V38.3H104.5V38.6H102.2V35.5H104.5V35.8Z" fill="#22576F"/>
<path d="M133.9 101.4H134.2L135.1 104L136 101.4H136.4L135.3 104.5H135L134 102L133.1 104.5H132.8L131.7 101.4H132.1L133 104L133.9 101.4Z" fill="#22576F"/>
<path d="M138.5 104.6C137.6 104.6 136.9 103.9 136.9 103C136.9 102.1 137.5 101.4 138.5 101.4C139.4 101.4 140.1 102.1 140.1 103C140.1 103.9 139.4 104.6 138.5 104.6ZM138.5 101.7C137.8 101.7 137.3 102.3 137.3 103C137.3 103.7 137.8 104.3 138.5 104.3C139.2 104.3 139.7 103.7 139.7 103C139.7 102.3 139.2 101.7 138.5 101.7Z" fill="#22576F"/>
<path d="M143.2 104.6L142.3 103.4H141.4V104.6H141V101.5H142.3C143 101.5 143.4 101.9 143.4 102.4C143.4 102.9 143 103.2 142.6 103.3L143.6 104.6H143.2ZM142.4 101.8H141.4V103.1H142.4C142.9 103.1 143.2 102.9 143.2 102.5C143.2 102 142.9 101.8 142.4 101.8Z" fill="#22576F"/>
<path d="M147.2 104.6H146.8L145.6 103.1L144.9 103.8V104.6H144.5V101.5H144.9V103.4L146.7 101.5H147.2L145.9 102.9L147.2 104.6Z" fill="#22576F"/>
<path d="M218.6 183.6H216.7V184.7H218.4V185H216.7V186.1H218.6V186.4H216.3V183.3H218.6V183.6Z" fill="#22576F"/>
<path d="M221.8 183.3H222.1V186.4H221.8L219.8 183.8V186.4H219.5V183.3H219.8L221.8 185.8V183.3Z" fill="#22576F"/>
<path d="M224.4 186.4H224V183.6H223V183.3H225.5V183.6H224.5V186.4H224.4Z" fill="#22576F"/>
<path d="M228.5 186.4L227.6 185.2H226.7V186.4H226.3V183.3H227.6C228.3 183.3 228.7 183.7 228.7 184.2C228.7 184.7 228.3 185 227.9 185.1L228.9 186.4H228.5ZM227.7 183.6H226.7V184.9H227.7C228.2 184.9 228.5 184.7 228.5 184.3C228.5 183.9 228.2 183.6 227.7 183.6Z" fill="#22576F"/>
<path d="M231.1 186.4H230.7V185.2L229.4 183.3H229.8L230.9 184.9L232 183.3H232.4L231.1 185.2V186.4Z" fill="#22576F"/>
<path d="M218.5 5.7H216.6V6.8H218.3V7.10001H216.6V8.2H218.5V8.5H216.2V5.39999H218.5V5.7Z" fill="#22576F"/>
<path d="M221.7 5.39999H222V8.5H221.7L219.7 5.89999V8.5H219.4V5.39999H219.7L221.7 7.89999V5.39999Z" fill="#22576F"/>
<path d="M224.3 8.5H224V5.7H223V5.39999H225.5V5.7H224.5V8.5H224.3Z" fill="#22576F"/>
<path d="M228.4 8.5L227.5 7.3H226.6V8.5H226.2V5.39999H227.5C228.2 5.39999 228.6 5.8 228.6 6.3C228.6 6.8 228.2 7.1 227.8 7.2L228.8 8.5H228.4ZM227.6 5.7H226.6V7H227.6C228.1 7 228.4 6.79999 228.4 6.39999C228.4 5.89999 228.1 5.7 227.6 5.7Z" fill="#22576F"/>
<path d="M231 8.5H230.6V7.3L229.3 5.39999H229.7L230.8 7L231.9 5.39999H232.3L231 7.3V8.5Z" fill="#22576F"/>
<path d="M164.5 36.5C164.5 37.4 164 37.9 163.2 37.9C162.4 37.9 161.9 37.4 161.9 36.5V34.7H162.3V36.5C162.3 37.2 162.7 37.6 163.3 37.6C163.9 37.6 164.2 37.3 164.2 36.6V34.8H164.6V36.5H164.5Z" fill="#22576F"/>
<path d="M166.7 36.7H166V37.8H165.6V34.7H166.8C167.5 34.7 168 35.1 168 35.7C168 36.3 167.4 36.7 166.7 36.7ZM166.8 35H166V36.4H166.8C167.3 36.4 167.7 36.1 167.7 35.7C167.6 35.2 167.3 35 166.8 35Z" fill="#22576F"/>
</g>
<defs>
<clipPath id="clip0_0_1">
<rect width="866.2" height="487.5" fill="white" transform="translate(8 -188)"/>
</clipPath>
</defs>
</svg>
