<?xml version="1.0" encoding="utf-8"?>
<!-- Generator: Adobe Illustrator 25.2.0, SVG Export Plug-In . SVG Version: 6.00 Build 0)  -->
<svg version="1.1" id="Layer_1" xmlns="http://www.w3.org/2000/svg" xmlns:xlink="http://www.w3.org/1999/xlink" x="0px" y="0px"
	 viewBox="0 0 267.4 321" style="enable-background:new 0 0 267.4 321;" xml:space="preserve">
<style type="text/css">
	.st0{fill:none;stroke:#92A0B1;stroke-width:0.24;stroke-linejoin:round;stroke-miterlimit:10;}
	.st1{fill:none;stroke:#00516B;stroke-width:0.25;stroke-linecap:round;stroke-linejoin:round;stroke-miterlimit:10;}
	.st2{fill:none;stroke:#00516B;stroke-width:0.25;stroke-linecap:round;stroke-linejoin:round;stroke-miterlimit:9.9998;}
	
		.st3{fill:none;stroke:#00516B;stroke-width:0.25;stroke-linecap:round;stroke-linejoin:round;stroke-miterlimit:10;stroke-dasharray:2,1;}
	.st4{fill-rule:evenodd;clip-rule:evenodd;fill:#00516B;}
	.st5{fill:#00516B;}
	.st6{fill:#245169;}
</style>
<line class="st0" x1="10.9" y1="200.5" x2="10.9" y2="198.8"/>
<line class="st0" x1="10.9" y1="114" x2="10.9" y2="106"/>
<line class="st0" x1="10.9" y1="147.5" x2="10.9" y2="117.7"/>
<line class="st0" x1="16.9" y1="200.5" x2="16.9" y2="198.8"/>
<line class="st0" x1="16.9" y1="117.7" x2="16.9" y2="106"/>
<line class="st0" x1="16.9" y1="147.5" x2="16.9" y2="137"/>
<line class="st0" x1="22.9" y1="200.5" x2="22.9" y2="198.8"/>
<line class="st0" x1="22.9" y1="147.5" x2="22.9" y2="106"/>
<line class="st0" x1="28.9" y1="200.5" x2="28.9" y2="180.2"/>
<line class="st0" x1="28.9" y1="166.2" x2="28.9" y2="106"/>
<line class="st0" x1="34.9" y1="200.5" x2="34.9" y2="180.2"/>
<line class="st0" x1="34.9" y1="166.2" x2="34.9" y2="106"/>
<line class="st0" x1="40.9" y1="200.5" x2="40.9" y2="106"/>
<line class="st0" x1="46.9" y1="200.5" x2="46.9" y2="106"/>
<line class="st0" x1="53" y1="200.5" x2="53" y2="106"/>
<line class="st0" x1="59" y1="200.5" x2="59" y2="117.7"/>
<line class="st0" x1="59" y1="114" x2="59" y2="106"/>
<line class="st0" x1="65" y1="200.5" x2="65" y2="117.7"/>
<line class="st0" x1="71" y1="200.5" x2="71" y2="60.2"/>
<line class="st0" x1="71" y1="58.6" x2="71" y2="53.6"/>
<line class="st0" x1="77" y1="200.5" x2="77" y2="186.4"/>
<line class="st0" x1="77" y1="54.3" x2="77" y2="48.9"/>
<line class="st0" x1="77" y1="178.9" x2="77" y2="63.7"/>
<line class="st0" x1="77" y1="62.1" x2="77" y2="55.9"/>
<line class="st0" x1="83" y1="200.5" x2="83" y2="192.2"/>
<line class="st0" x1="83" y1="57.8" x2="83" y2="48.9"/>
<line class="st0" x1="83" y1="172.8" x2="83" y2="67.2"/>
<line class="st0" x1="83" y1="65.6" x2="83" y2="59.4"/>
<line class="st0" x1="89" y1="200.5" x2="89" y2="194.6"/>
<line class="st0" x1="89" y1="61.3" x2="89" y2="48.9"/>
<line class="st0" x1="89" y1="166.8" x2="89" y2="70.7"/>
<line class="st0" x1="89" y1="69" x2="89" y2="62.9"/>
<line class="st0" x1="95.1" y1="200.5" x2="95.1" y2="193.7"/>
<line class="st0" x1="95.1" y1="170.4" x2="95.1" y2="48.9"/>
<line class="st0" x1="101.1" y1="200.5" x2="101.1" y2="187.9"/>
<line class="st0" x1="101.1" y1="177.4" x2="101.1" y2="53.6"/>
<line class="st0" x1="107.1" y1="200.5" x2="107.1" y2="53.6"/>
<line class="st0" x1="113.1" y1="200.5" x2="113.1" y2="139.8"/>
<line class="st0" x1="113.1" y1="55.2" x2="113.1" y2="53.6"/>
<line class="st0" x1="113.1" y1="137.5" x2="113.1" y2="80.9"/>
<line class="st0" x1="119.1" y1="200.5" x2="119.1" y2="149.1"/>
<line class="st0" x1="119.1" y1="55.2" x2="119.1" y2="53.6"/>
<line class="st0" x1="119.1" y1="124.6" x2="119.1" y2="80.9"/>
<line class="st0" x1="125.1" y1="194.2" x2="125.1" y2="150.6"/>
<line class="st0" x1="125.1" y1="55.2" x2="125.1" y2="53.6"/>
<line class="st0" x1="125.1" y1="126.2" x2="125.1" y2="80.9"/>
<line class="st0" x1="131.2" y1="194.2" x2="131.2" y2="149"/>
<line class="st0" x1="131.2" y1="55.2" x2="131.2" y2="53.6"/>
<line class="st0" x1="131.2" y1="127.8" x2="131.2" y2="80.9"/>
<line class="st0" x1="137.2" y1="194.2" x2="137.2" y2="140"/>
<line class="st0" x1="137.2" y1="55.2" x2="137.2" y2="53.6"/>
<line class="st0" x1="137.2" y1="129.4" x2="137.2" y2="112.9"/>
<line class="st0" x1="137.2" y1="95.3" x2="137.2" y2="80.9"/>
<line class="st0" x1="143.2" y1="184.6" x2="143.2" y2="112.9"/>
<line class="st0" x1="143.2" y1="55.2" x2="143.2" y2="53.6"/>
<line class="st0" x1="143.2" y1="95.3" x2="143.2" y2="80.9"/>
<line class="st0" x1="149.2" y1="184.6" x2="149.2" y2="112.9"/>
<line class="st0" x1="149.2" y1="55.2" x2="149.2" y2="53.6"/>
<line class="st0" x1="149.2" y1="95.3" x2="149.2" y2="80.9"/>
<line class="st0" x1="155.2" y1="184.6" x2="155.2" y2="135.9"/>
<line class="st0" x1="155.2" y1="44.2" x2="155.2" y2="15.4"/>
<line class="st0" x1="155.2" y1="129.7" x2="155.2" y2="112.9"/>
<line class="st0" x1="155.2" y1="55.2" x2="155.2" y2="53.6"/>
<line class="st0" x1="155.2" y1="95.3" x2="155.2" y2="80.9"/>
<line class="st0" x1="161.2" y1="184.6" x2="161.2" y2="148.3"/>
<line class="st0" x1="161.2" y1="44.2" x2="161.2" y2="15.4"/>
<line class="st0" x1="161.2" y1="128.1" x2="161.2" y2="80.9"/>
<line class="st0" x1="161.2" y1="55.2" x2="161.2" y2="53.6"/>
<line class="st0" x1="167.2" y1="184.6" x2="167.2" y2="150.6"/>
<line class="st0" x1="167.2" y1="44.2" x2="167.2" y2="15.4"/>
<line class="st0" x1="167.2" y1="126.5" x2="167.2" y2="80.9"/>
<line class="st0" x1="167.2" y1="55.2" x2="167.2" y2="53.6"/>
<line class="st0" x1="173.3" y1="184.6" x2="173.3" y2="149.6"/>
<line class="st0" x1="173.3" y1="44.2" x2="173.3" y2="15.4"/>
<line class="st0" x1="173.3" y1="124.9" x2="173.3" y2="80.9"/>
<line class="st0" x1="173.3" y1="55.2" x2="173.3" y2="53.6"/>
<line class="st0" x1="179.3" y1="184.6" x2="179.3" y2="143.7"/>
<line class="st0" x1="179.3" y1="44.2" x2="179.3" y2="15.4"/>
<line class="st0" x1="179.3" y1="132.7" x2="179.3" y2="80.9"/>
<line class="st0" x1="179.3" y1="55.2" x2="179.3" y2="53.6"/>
<line class="st0" x1="185.3" y1="194.2" x2="185.3" y2="79.3"/>
<line class="st0" x1="185.3" y1="44.2" x2="185.3" y2="15.4"/>
<line class="st0" x1="185.3" y1="56.8" x2="185.3" y2="53.6"/>
<line class="st0" x1="191.3" y1="194.2" x2="191.3" y2="79.3"/>
<line class="st0" x1="191.3" y1="44.2" x2="191.3" y2="15.4"/>
<line class="st0" x1="191.3" y1="56.8" x2="191.3" y2="53.6"/>
<line class="st0" x1="197.3" y1="194.2" x2="197.3" y2="79.3"/>
<line class="st0" x1="197.3" y1="42.8" x2="197.3" y2="17.1"/>
<line class="st0" x1="197.3" y1="56.8" x2="197.3" y2="53.6"/>
<line class="st0" x1="203.3" y1="181.6" x2="203.3" y2="53.6"/>
<line class="st0" x1="203.3" y1="17.1" x2="203.3" y2="15.4"/>
<line class="st0" x1="203.3" y1="44.2" x2="203.3" y2="18.5"/>
<line class="st0" x1="209.3" y1="181.6" x2="209.3" y2="53.6"/>
<line class="st0" x1="209.3" y1="17.1" x2="209.3" y2="15.4"/>
<line class="st0" x1="209.3" y1="44.2" x2="209.3" y2="18.5"/>
<line class="st0" x1="215.4" y1="181.6" x2="215.4" y2="141.4"/>
<line class="st0" x1="215.4" y1="17.1" x2="215.4" y2="15.4"/>
<line class="st0" x1="215.4" y1="108.8" x2="215.4" y2="81.5"/>
<line class="st0" x1="215.4" y1="44.2" x2="215.4" y2="18.5"/>
<line class="st0" x1="221.4" y1="181.6" x2="221.4" y2="141.4"/>
<line class="st0" x1="221.4" y1="17.1" x2="221.4" y2="15.4"/>
<line class="st0" x1="221.4" y1="108.8" x2="221.4" y2="81.5"/>
<line class="st0" x1="221.4" y1="44.2" x2="221.4" y2="18.5"/>
<line class="st0" x1="227.4" y1="181.6" x2="227.4" y2="141.4"/>
<line class="st0" x1="227.4" y1="66.5" x2="227.4" y2="11.5"/>
<line class="st0" x1="227.4" y1="123.3" x2="227.4" y2="112"/>
<line class="st0" x1="227.4" y1="104.1" x2="227.4" y2="73.1"/>
<line class="st0" x1="227.4" y1="110.4" x2="227.4" y2="105.8"/>
<line class="st0" x1="233.4" y1="181.6" x2="233.4" y2="141.4"/>
<line class="st0" x1="233.4" y1="66.5" x2="233.4" y2="11.5"/>
<line class="st0" x1="233.4" y1="123.3" x2="233.4" y2="108.6"/>
<line class="st0" x1="233.4" y1="100.7" x2="233.4" y2="73.1"/>
<line class="st0" x1="233.4" y1="106.9" x2="233.4" y2="102.3"/>
<line class="st0" x1="239.4" y1="181.6" x2="239.4" y2="141.4"/>
<line class="st0" x1="239.4" y1="66.5" x2="239.4" y2="11.5"/>
<line class="st0" x1="239.4" y1="123.3" x2="239.4" y2="98.8"/>
<line class="st0" x1="239.4" y1="97.2" x2="239.4" y2="73.1"/>
<line class="st0" x1="245.4" y1="181.6" x2="245.4" y2="141.4"/>
<line class="st0" x1="245.4" y1="66.5" x2="245.4" y2="11.5"/>
<line class="st0" x1="245.4" y1="123.3" x2="245.4" y2="108.1"/>
<line class="st0" x1="245.4" y1="94.5" x2="245.4" y2="73.1"/>
<line class="st0" x1="245.4" y1="106.5" x2="245.4" y2="95.3"/>
<line class="st0" x1="251.5" y1="181.6" x2="251.5" y2="141.4"/>
<line class="st0" x1="251.5" y1="66.5" x2="251.5" y2="11.5"/>
<line class="st0" x1="251.5" y1="123.3" x2="251.5" y2="111.6"/>
<line class="st0" x1="251.5" y1="110" x2="251.5" y2="73.1"/>
<polygon class="st0" points="215.4,53.6 97,53.6 97,48.9 73,48.9 73,53.6 73.7,52.4 94.5,64.4 93.8,65.6 73,53.6 67.8,53.6 
	67.8,56.8 91.5,70.4 90.8,71.6 67.1,58 67.8,56.8 66,56.8 66,84.1 67.8,84.1 67.8,117.7 53.6,117.7 53.6,137 55,137 55,114 
	64.1,114 64.1,106 7.4,106 7.4,114 16.5,114 16.5,137 17.9,137 17.9,117.7 7.4,117.7 7.4,200.5 121.2,200.5 121.2,194.2 
	137.3,194.2 137.3,184.6 182.2,184.6 182.2,194.2 198.2,194.2 198.2,181.6 257.5,181.6 257.5,141.4 215.4,141.4 215.4,108.8 
	222.2,108.8 221.5,107.6 245.1,93.9 245.8,95.1 222.2,108.8 222.2,111.6 225.4,111.6 237.9,104.4 238.6,105.6 226.1,112.8 
	225.4,111.6 225.4,115.3 222.2,115.3 222.2,123.3 257.5,123.3 257.5,115.3 254.3,115.3 254.3,111.6 253.6,112.8 241.1,105.6 
	241.8,104.4 254.3,111.6 257.5,111.6 257.5,73.1 225.2,73.1 225.2,74.7 224,74.7 224,73.1 222.2,73.1 222.2,66.5 224,66.5 224,64.9 
	225.2,64.9 225.2,66.5 257.5,66.5 257.5,15.4 255,15.4 255,11.5 253.4,11.5 253.4,38.8 252,38.8 252,11.5 224.5,11.5 224.5,15.4 
	197.5,15.4 197.5,18.5 223.1,18.5 223.1,17.1 193.8,17.1 193.8,15.4 155.1,15.4 155.1,44.2 193.8,44.2 193.8,42.8 197.5,42.8 
	197.5,44.2 222.2,44.2 222.2,81.5 215.4,81.5 "/>
<rect x="113.1" y="55.2" class="st0" width="67.4" height="25.7"/>
<rect x="133.1" y="95.3" class="st0" width="27.2" height="17.6"/>
<rect x="182" y="56.8" class="st0" width="16.1" height="22.5"/>
<g>
	<path class="st0" d="M81.8,191.1l-8.5-8.5l17-17l8.5,8.5c4.7,4.7,4.7,12.3,0,17C94.1,195.8,86.5,195.8,81.8,191.1z"/>
	<polygon class="st0" points="9.1,198.8 9.1,147.5 28.3,147.5 28.3,166.2 35.5,166.2 35.5,165.4 36.7,165.4 36.7,181 35.5,181 
		35.5,180.2 28.3,180.2 28.3,198.8 	"/>
	<path class="st0" d="M113.5,135.5l3.1-11.6l23.2,6.2l-3.1,11.6c-1.7,6.4-8.3,10.2-14.7,8.5C115.6,148.5,111.7,141.9,113.5,135.5z"
		/>
	<path class="st0" d="M180,135.5l-3.1-11.6l-23.2,6.2l3.1,11.6c1.7,6.4,8.3,10.2,14.7,8.5C177.9,148.5,181.7,141.9,180,135.5z"/>
	<path class="st1" d="M153.5,29.8c0-0.9,0.7-1.6,1.6-1.6c0.9,0,1.6,0.7,1.6,1.6c0,0.9-0.7,1.6-1.6,1.6S153.5,30.7,153.5,29.8h1.6
		h-26.5l4-1.5v1.5"/>
	<path class="st1" d="M239.8,71.7c0.8,0,1.4,0.6,1.4,1.4s-0.6,1.4-1.4,1.4s-1.4-0.6-1.4-1.4C238.5,72.3,239.1,71.7,239.8,71.7v1.4
		v-6.6l1.2,3.4h-1.2"/>
	<polygon class="st1" points="13,241.1 0.1,241.1 0.1,5.7 224.5,5.7 224.5,7.5 226.1,7.5 226.1,11.5 224.5,11.5 224.5,15.4 
		197.5,15.4 197.5,17.1 193.8,17.1 193.8,15.4 71,15.4 71,44.2 73,44.2 73,53.6 67.8,53.6 67.8,56.8 64.1,56.8 64.1,17.3 7.4,17.3 
		7.4,91.1 64.1,91.1 64.1,84.1 67.8,84.1 67.8,117.7 55,117.7 55,114 64.1,114 64.1,94.8 7.4,94.8 7.4,114 16.5,114 16.5,117.7 
		7.4,117.7 7.4,200.5 13.8,200.5 13.8,205 13,205 	"/>
	<polygon class="st1" points="77.9,200.5 77.9,205 78.7,205 78.7,208.6 206.3,208.6 206.3,186.1 207.1,186.1 207.1,181.6 
		198.2,181.6 198.2,194.2 121.2,194.2 121.2,200.5 	"/>
	<rect x="221.6" y="181.6" class="st1" width="4.8" height="9.4"/>
	<polygon class="st1" points="255.3,181.6 255.3,191 260,191 260,241.1 267.3,241.1 267.3,5.7 255,5.7 255,7.5 253.4,7.5 
		253.4,11.5 255,11.5 255,15.4 257.5,15.4 257.5,111.6 254.3,111.6 254.3,115.3 257.5,115.3 257.5,134.5 222.2,134.5 222.2,115.3 
		225.4,115.3 225.4,111.6 222.2,111.6 222.2,108.8 215.4,108.8 215.4,141.4 257.5,141.4 257.5,181.6 	"/>
	<polygon class="st1" points="97,44.2 97,53.6 215.4,53.6 215.4,81.5 222.2,81.5 222.2,44.2 197.5,44.2 197.5,42.8 193.8,42.8 
		193.8,44.2 	"/>
	<polygon class="st1" points="199.9,292.7 199.9,285.1 0.1,258.4 0.1,252 206.3,279.4 206.3,292.7 	"/>
	<polygon class="st1" points="266.4,292.7 260,292.7 260,252 266.4,252.8 	"/>
	<line class="st1" x1="257.5" y1="123.3" x2="222.2" y2="123.3"/>
	<line class="st1" x1="7.4" y1="106" x2="64.1" y2="106"/>
	<line class="st1" x1="17.4" y1="77.1" x2="13.6" y2="77.1"/>
	<path class="st1" d="M17.4,77.1c0.2,0,0.3-0.1,0.3-0.3"/>
	<path class="st1" d="M17.7,76.3c0-0.2-0.1-0.3-0.3-0.3"/>
	<line class="st1" x1="17.7" y1="76.8" x2="17.7" y2="76.3"/>
	<path class="st1" d="M13.5,76.1c0.1,0.1,0.2,0.1,0.3,0.1"/>
	<path class="st1" d="M13.9,76.8c-0.1,0-0.2,0-0.3,0.1"/>
	<line class="st1" x1="15.6" y1="76.8" x2="13.9" y2="76.8"/>
	<line class="st1" x1="13.9" y1="76.3" x2="15.6" y2="76.3"/>
	<path class="st1" d="M15.8,76.4c0-0.1-0.1-0.2-0.2-0.2"/>
	<line class="st1" x1="15.8" y1="76.7" x2="15.8" y2="76.4"/>
	<path class="st1" d="M13.3,76c0.1,0,0.2,0.1,0.3,0.1"/>
	<path class="st1" d="M13.6,77.1c-0.1,0-0.2,0-0.3,0.1"/>
	<line class="st1" x1="13.6" y1="76" x2="17.4" y2="76"/>
	<path class="st1" d="M13.6,76c-0.3-0.3-0.8-0.3-1.1,0c-0.3,0.3-0.3,0.8,0,1.1c0.3,0.3,0.8,0.3,1.1,0c0,0,0,0,0,0"/>
	<path class="st1" d="M13.5,76.1c-0.2-0.3-0.6-0.3-0.9,0s-0.3,0.6-0.1,0.9s0.6,0.3,0.9,0c0,0,0,0,0.1,0"/>
	<path class="st1" d="M15.6,76.8c0.1,0,0.2-0.1,0.2-0.2"/>
	<line class="st1" x1="25.1" y1="68.5" x2="26.6" y2="68.5"/>
	<line class="st1" x1="26.6" y1="84.6" x2="25.1" y2="84.6"/>
	<path class="st1" d="M26,82.5c0.3,0,0.6-0.2,0.6-0.6c0,0,0,0,0,0"/>
	<path class="st1" d="M17.9,81.2c2.6,0.8,5.3,1.3,8.1,1.4"/>
	<path class="st1" d="M17.9,71.9c-1.9,0.6-3.2,2.2-3.4,4.1"/>
	<path class="st1" d="M14.5,77.1c0.2,1.9,1.5,3.5,3.4,4.1"/>
	<path class="st1" d="M26,70.6c-2.7,0.1-5.5,0.6-8.1,1.4"/>
	<path class="st1" d="M26.6,71.2c0-0.3-0.3-0.6-0.6-0.6c0,0,0,0,0,0"/>
	<line class="st1" x1="26.6" y1="71.2" x2="26.6" y2="81.9"/>
	<path class="st1" d="M7.4,84.6h19.1c1.3,0,2.4-1.1,2.4-2.4V70.9c0-1.3-1.1-2.4-2.4-2.4H7.4V84.6z"/>
	<path class="st1" d="M16,75.7c-0.2,0-0.5,0.1-0.6,0.3"/>
	<path class="st1" d="M15.4,77.1c0.1,0.2,0.4,0.3,0.6,0.3"/>
	<path class="st1" d="M16,77.4c0.2,0,0.5-0.1,0.6-0.3"/>
	<path class="st1" d="M16.6,76c-0.1-0.2-0.4-0.3-0.6-0.3"/>
	<path class="st1" d="M25.4,82c0.2,0,0.4-0.2,0.4-0.4"/>
	<path class="st1" d="M19.1,81.5c2.1,0.5,4.2,0.6,6.3,0.5"/>
	<path class="st1" d="M17.9,71.9c-0.1,0-0.3,0.1-0.4,0.1"/>
	<path class="st1" d="M17.5,81.1c0.1,0,0.3,0.1,0.4,0.1"/>
	<path class="st1" d="M25.4,71.1c-2.1-0.1-4.2,0.1-6.3,0.5"/>
	<path class="st1" d="M25.8,71.5c0-0.2-0.2-0.4-0.4-0.4"/>
	<line class="st1" x1="25.8" y1="81.6" x2="25.8" y2="71.5"/>
	<path class="st1" d="M19.3,35.9c1,0.3,2.1,0.5,3.2,0.5"/>
	<path class="st1" d="M16.8,34.6c0.8,0.6,1.6,1,2.5,1.2"/>
	<path class="st1" d="M16.1,34c0.2,0.2,0.5,0.4,0.8,0.6"/>
	<path class="st1" d="M22.5,36.3c1.1,0,2.1-0.2,3.2-0.5c0.9-0.3,1.7-0.7,2.5-1.2c0.7-0.5,1.3-1.2,1.8-2c0.4-0.6,0.6-1.4,0.6-2.1
		s-0.2-1.5-0.6-2.1c-0.5-0.8-1.1-1.4-1.8-2c-0.8-0.6-1.6-1-2.5-1.2c-1-0.3-2.1-0.5-3.2-0.5s-2.1,0.2-3.2,0.5
		c-0.9,0.3-1.7,0.7-2.5,1.2c-0.3,0.2-0.5,0.4-0.8,0.6V34"/>
	<path class="st1" d="M12.4,35.1c2.6,0.1,5.1,0.5,7.6,1"/>
	<path class="st1" d="M13.3,28.3c-0.1-0.6-0.3-1.1-0.5-1.7c-0.3-0.6-0.7-1.2-1.3-1.6c-0.2-0.1-0.5-0.2-0.7-0.2l-2.4,0.4
		c-0.2,0-0.3,0.2-0.3,0.3v9.7c0,0.2,0.1,0.3,0.3,0.3l2.4,0.5c0.3,0,0.5,0,0.7-0.2c0.6-0.4,1-0.9,1.3-1.6c0.2-0.5,0.4-1.1,0.5-1.7
		c0.1-0.7,0.2-1.5,0.2-2.2S13.5,29.1,13.3,28.3z"/>
	<path class="st1" d="M12.4,26c2.6-0.1,5.1-0.5,7.6-1"/>
	<path class="st1" d="M10.4,30.6c0-0.3,0.3-0.6,0.6-0.6s0.6,0.3,0.6,0.6s-0.3,0.6-0.6,0.6S10.4,30.9,10.4,30.6z"/>
	<rect x="133.1" y="95.3" class="st1" width="27.2" height="17.6"/>
	<path class="st1" d="M183.6,64.8c0-3.5,2.9-6.4,6.4-6.4c3.5,0,6.4,2.9,6.4,6.4s-2.9,6.4-6.4,6.4S183.6,68.4,183.6,64.8z"/>
	<path class="st1" d="M188.4,64.8c0-0.9,0.7-1.6,1.6-1.6c0.9,0,1.6,0.7,1.6,1.6s-0.7,1.6-1.6,1.6C189.1,66.5,188.4,65.7,188.4,64.8z
		"/>
	<line class="st1" x1="196.5" y1="64.8" x2="191.7" y2="64.8"/>
	<line class="st1" x1="188.4" y1="64.8" x2="183.6" y2="64.8"/>
	<line class="st1" x1="190.1" y1="71.2" x2="190.1" y2="66.5"/>
	<line class="st1" x1="190.1" y1="63.2" x2="190.1" y2="58.4"/>
	<rect x="182" y="56.8" class="st1" width="16.1" height="22.5"/>
	<rect x="137.3" y="184.6" class="st1" width="44.9" height="9.6"/>
	<rect x="9.1" y="147.5" class="st1" width="19.2" height="51.3"/>
	<rect x="14.2" y="163.6" class="st1" width="1.2" height="19.2"/>
	<rect x="21.2" y="165" class="st1" width="4.8" height="16"/>
	<polyline class="st1" points="14.2,170.2 12.4,170.2 12.4,176.2 14.2,176.2 	"/>
	<line class="st1" x1="35.5" y1="166.2" x2="28.3" y2="166.2"/>
	<polyline class="st1" points="15.4,176.2 17.2,176.2 17.2,170.2 15.4,170.2 	"/>
	<line class="st1" x1="35.5" y1="180.2" x2="28.3" y2="180.2"/>
	<rect x="35.5" y="165.4" class="st1" width="1.2" height="15.6"/>
	<path class="st1" d="M22.6,161.1c-0.4,0.1-0.5,0.5-0.5,0.8c0.1,0.4,0.5,0.5,0.8,0.5c0.6-0.2,1.2-0.3,1.8-0.3c0.3,0,0.5-0.3,0.5-0.5
		c0-0.2-0.1-0.4-0.4-0.5C24.2,160.8,23.4,160.8,22.6,161.1z"/>
	<line class="st1" x1="180.4" y1="55.2" x2="113.1" y2="55.2"/>
	<line class="st1" x1="113.1" y1="80.9" x2="113.1" y2="55.2"/>
	<line class="st1" x1="180.4" y1="80.9" x2="180.4" y2="55.2"/>
	<line class="st1" x1="177.2" y1="80.9" x2="177.2" y2="59.2"/>
	<line class="st1" x1="180.4" y1="58.4" x2="113.1" y2="58.4"/>
	<line class="st1" x1="180.4" y1="80.9" x2="113.1" y2="80.9"/>
	<line class="st1" x1="156.9" y1="80.9" x2="156.9" y2="60"/>
	<line class="st1" x1="136.6" y1="80.9" x2="136.6" y2="60"/>
	<line class="st1" x1="177.2" y1="60" x2="116.3" y2="60"/>
	<line class="st1" x1="113.1" y1="59.2" x2="116.3" y2="59.2"/>
	<line class="st1" x1="180.4" y1="59.2" x2="177.2" y2="59.2"/>
	<line class="st1" x1="116.3" y1="80.9" x2="116.3" y2="59.2"/>
	<path class="st1" d="M156.8,141.7c1.7,6.4,8.3,10.2,14.7,8.5c6.4-1.7,10.2-8.3,8.5-14.7"/>
	<path class="st1" d="M159.9,140.9c1.3,4.7,6.1,7.5,10.8,6.2c4.7-1.3,7.5-6.1,6.2-10.8"/>
	<line class="st1" x1="159.9" y1="140.9" x2="156.8" y2="129.3"/>
	<line class="st1" x1="173.8" y1="124.7" x2="176.9" y2="136.3"/>
	<line class="st1" x1="156.8" y1="141.7" x2="153.7" y2="130.1"/>
	<line class="st1" x1="153.7" y1="130.1" x2="176.9" y2="123.9"/>
	<line class="st1" x1="176.9" y1="123.9" x2="180" y2="135.5"/>
	<path class="st1" d="M159.5,139.3c1.3,4.7,6.1,7.5,10.8,6.2c4.7-1.3,7.5-6.1,6.2-10.8"/>
	<rect x="142.9" y="190.2" class="st1" width="33.7" height="0.8"/>
	<polyline class="st1" points="154.9,190.2 154.9,187 164.5,187 164.5,190.2 	"/>
	<polyline class="st1" points="164.5,191 164.5,192.6 154.9,192.6 154.9,191 	"/>
	<path class="st1" d="M81.8,191.1c4.7,4.7,12.3,4.7,17,0c4.7-4.7,4.7-12.3,0-17"/>
	<path class="st1" d="M84,188.9c3.4,3.5,9,3.5,12.5,0c3.4-3.4,3.4-9,0-12.5"/>
	<line class="st1" x1="96.5" y1="176.4" x2="88" y2="167.9"/>
	<line class="st1" x1="75.5" y1="180.4" x2="84" y2="188.9"/>
	<line class="st1" x1="98.8" y1="174.1" x2="90.3" y2="165.6"/>
	<line class="st1" x1="90.3" y1="165.6" x2="73.3" y2="182.6"/>
	<line class="st1" x1="73.3" y1="182.6" x2="81.8" y2="191.1"/>
	<path class="st1" d="M82.9,187.7c3.4,3.4,9,3.4,12.5,0s3.4-9,0-12.5"/>
	<path class="st1" d="M113.5,135.5c-1.7,6.4,2.1,13,8.5,14.7s13-2.1,14.7-8.5"/>
	<path class="st1" d="M116.6,136.3c-1.3,4.7,1.5,9.5,6.2,10.8c4.7,1.3,9.5-1.5,10.8-6.2"/>
	<line class="st1" x1="133.6" y1="140.9" x2="136.7" y2="129.3"/>
	<line class="st1" x1="119.7" y1="124.7" x2="116.6" y2="136.3"/>
	<line class="st1" x1="136.7" y1="141.7" x2="139.8" y2="130.1"/>
	<line class="st1" x1="139.8" y1="130.1" x2="116.6" y2="123.9"/>
	<line class="st1" x1="116.6" y1="123.9" x2="113.5" y2="135.5"/>
	<path class="st1" d="M117,134.8c-1.3,4.7,1.5,9.5,6.2,10.8c4.7,1.3,9.5-1.5,10.8-6.2"/>
	<rect x="253.9" y="191" class="st1" width="1.4" height="28.9"/>
	<path class="st1" d="M226.4,191c0,15.9,12.9,28.9,28.9,28.9"/>
	<rect x="252" y="11.5" class="st1" width="1.4" height="27.3"/>
	<path class="st1" d="M226.1,11.5c0,15.1,12.2,27.3,27.3,27.3"/>
	<rect x="207.9" y="265.4" class="st1" width="1.4" height="25.7"/>
	<path class="st1" d="M233.6,291c0-14.2-11.5-25.7-25.7-25.7"/>
	<path class="st1" d="M239.8,111.6c0-2.5-0.7-5-1.9-7.2"/>
	<path class="st1" d="M241.8,104.4c-1.3,2.2-1.9,4.7-1.9,7.2"/>
	<rect x="224.8" y="107.9" transform="matrix(0.866 -0.5 0.5 0.866 -23.2089 130.5358)" class="st2" width="14.4" height="1.4"/>
	<rect x="247" y="101.4" transform="matrix(0.5 -0.866 0.866 0.5 29.7991 268.7547)" class="st2" width="1.4" height="14.4"/>
	<rect x="78.6" y="50.6" transform="matrix(0.5 -0.866 0.866 0.5 -15.9706 100.7734)" class="st2" width="1.4" height="27.3"/>
	<path class="st1" d="M67.8,84.1c9.7,0,18.7-5.2,23.6-13.6"/>
	<rect x="197.5" y="17.1" class="st1" width="25.7" height="1.4"/>
	<path class="st1" d="M197.5,42.8c14.2,0,25.7-11.5,25.7-25.7"/>
	<line class="st1" x1="155.1" y1="44.2" x2="155.1" y2="15.4"/>
	<line class="st1" x1="148.5" y1="44.2" x2="148.5" y2="43"/>
	<line class="st1" x1="148.5" y1="41.8" x2="148.5" y2="15.4"/>
	<line class="st1" x1="141.9" y1="44.2" x2="141.9" y2="43"/>
	<line class="st1" x1="141.9" y1="41.8" x2="141.9" y2="15.4"/>
	<line class="st1" x1="135.3" y1="44.2" x2="135.3" y2="43"/>
	<line class="st1" x1="135.3" y1="41.8" x2="135.3" y2="15.4"/>
	<line class="st1" x1="128.6" y1="44.2" x2="128.6" y2="43"/>
	<line class="st1" x1="128.6" y1="41.8" x2="128.6" y2="15.4"/>
	<line class="st1" x1="122" y1="31.3" x2="122" y2="29.8"/>
	<line class="st1" x1="122" y1="28.3" x2="122" y2="15.4"/>
	<rect x="206.3" y="291" class="st1" width="1.6" height="1.6"/>
	<rect x="233.6" y="291" class="st1" width="26.4" height="1.6"/>
	<line class="st1" x1="222.2" y1="66.5" x2="224" y2="66.5"/>
	<line class="st1" x1="225.2" y1="66.5" x2="257.5" y2="66.5"/>
	<line class="st1" x1="222.2" y1="73.1" x2="224" y2="73.1"/>
	<line class="st1" x1="225.2" y1="73.1" x2="257.5" y2="73.1"/>
	<polyline class="st1" points="118.2,15.4 121.6,28.2 124.4,29 119.6,30.6 122.5,31.4 125.9,44.2 	"/>
	<rect x="83" y="47" transform="matrix(0.5 -0.866 0.866 0.5 -9.2286 101.9941)" class="st2" width="1.4" height="24.1"/>
	<path class="st1" d="M93.8,65.6c2.1-3.7,3.2-7.8,3.2-12"/>
	<rect x="16.5" y="117.7" class="st1" width="1.4" height="19.2"/>
	<rect x="53.6" y="117.7" class="st1" width="1.4" height="19.2"/>
	<path class="st1" d="M16.5,137c10.6,0,19.2-8.6,19.2-19.2"/>
	<path class="st1" d="M35.7,117.7c0,10.6,8.6,19.2,19.2,19.2"/>
	<rect x="220" y="100.6" transform="matrix(0.866 -0.5 0.5 0.866 -19.3662 130.3943)" class="st2" width="27.3" height="1.4"/>
	<path class="st1" d="M245.8,95.1c-4.9-8.4-13.9-13.6-23.6-13.6"/>
	<rect x="206.3" y="186.1" class="st1" width="1.6" height="3.6"/>
	<rect x="220" y="186.1" class="st1" width="1.6" height="3.6"/>
	<line class="st1" x1="207.9" y1="188.9" x2="220" y2="188.9"/>
	<line class="st1" x1="207.9" y1="188.1" x2="220" y2="188.1"/>
	<line class="st1" x1="207.1" y1="181.6" x2="221.6" y2="181.6"/>
	<rect x="13" y="205" class="st1" width="1.6" height="3.6"/>
	<rect x="77.1" y="205" class="st1" width="1.6" height="3.6"/>
	<rect x="31.4" y="205" class="st1" width="1.6" height="3.6"/>
	<line class="st1" x1="14.6" y1="207.8" x2="31.4" y2="207.8"/>
	<line class="st1" x1="14.6" y1="207" x2="31.4" y2="207"/>
	<line class="st1" x1="33" y1="207.8" x2="77.1" y2="207.8"/>
	<line class="st1" x1="33" y1="207" x2="77.1" y2="207"/>
	<line class="st1" x1="13.8" y1="200.5" x2="77.9" y2="200.5"/>
	<polyline class="st1" points="125.2,41.8 155.1,41.8 155.1,43 125.6,43 	"/>
	<rect x="224" y="64.9" class="st1" width="1.2" height="9.8"/>
	<line class="st1" x1="206.3" y1="186.1" x2="221.6" y2="186.1"/>
	<line class="st1" x1="206.3" y1="189.7" x2="221.6" y2="189.7"/>
	<line class="st1" x1="13" y1="205" x2="78.7" y2="205"/>
	<line class="st1" x1="13" y1="208.6" x2="78.7" y2="208.6"/>
	<line class="st1" x1="206.3" y1="194.8" x2="253.9" y2="194.8"/>
	<line class="st1" x1="255.3" y1="194.8" x2="260" y2="194.8"/>
	<line class="st1" x1="13" y1="214" x2="253.9" y2="214"/>
	<line class="st1" x1="255.3" y1="214" x2="260" y2="214"/>
	<line class="st1" x1="13" y1="233.3" x2="260" y2="233.3"/>
	<line class="st1" x1="13" y1="252.5" x2="260" y2="252.5"/>
	<line class="st1" x1="148.8" y1="271.8" x2="207.9" y2="271.8"/>
	<line class="st1" x1="209.3" y1="271.8" x2="260" y2="271.8"/>
	<line class="st1" x1="29" y1="255.8" x2="29" y2="208.6"/>
	<line class="st1" x1="48.2" y1="258.4" x2="48.2" y2="208.6"/>
	<line class="st1" x1="67.5" y1="260.9" x2="67.5" y2="208.6"/>
	<line class="st1" x1="86.7" y1="263.5" x2="86.7" y2="208.6"/>
	<line class="st1" x1="106" y1="266.1" x2="106" y2="208.6"/>
	<line class="st1" x1="125.2" y1="268.6" x2="125.2" y2="208.6"/>
	<line class="st1" x1="144.5" y1="271.2" x2="144.5" y2="208.6"/>
	<line class="st1" x1="163.7" y1="273.8" x2="163.7" y2="208.6"/>
	<line class="st1" x1="183" y1="276.3" x2="183" y2="208.6"/>
	<line class="st1" x1="202.2" y1="278.9" x2="202.2" y2="208.6"/>
	<line class="st1" x1="221.5" y1="291" x2="221.5" y2="189.7"/>
	<line class="st1" x1="240.7" y1="291" x2="240.7" y2="191"/>
	<polygon class="st1" points="260,291 260,191 255.3,191 255.3,219.9 253.9,219.9 253.9,191 221.6,191 221.6,189.7 206.3,189.7 
		206.3,208.6 13,208.6 13,253.7 206.3,279.4 206.3,291 207.9,291 207.9,265.4 209.3,265.4 209.3,291 	"/>
	<line class="st1" x1="8.2" y1="91.1" x2="8.2" y2="84.6"/>
	<line class="st1" x1="8.2" y1="25.5" x2="8.2" y2="17.3"/>
	<line class="st1" x1="8.2" y1="68.5" x2="8.2" y2="35.7"/>
	<line class="st1" x1="17.9" y1="91.1" x2="17.9" y2="84.6"/>
	<line class="st1" x1="17.9" y1="25.5" x2="17.9" y2="17.3"/>
	<line class="st1" x1="17.9" y1="68.5" x2="17.9" y2="35.7"/>
	<line class="st1" x1="27.5" y1="91.1" x2="27.5" y2="84.4"/>
	<line class="st1" x1="27.5" y1="26.1" x2="27.5" y2="17.3"/>
	<line class="st1" x1="27.5" y1="68.7" x2="27.5" y2="35.1"/>
	<line class="st1" x1="37.1" y1="91.1" x2="37.1" y2="17.3"/>
	<line class="st1" x1="46.7" y1="91.1" x2="46.7" y2="17.3"/>
	<line class="st1" x1="56.4" y1="91.1" x2="56.4" y2="17.3"/>
	<line class="st1" x1="66" y1="71.8" x2="29" y2="71.8"/>
	<line class="st1" x1="64.1" y1="52.6" x2="7.4" y2="52.6"/>
	<line class="st1" x1="64.1" y1="33.3" x2="29.5" y2="33.3"/>
	<line class="st1" x1="8.1" y1="33.3" x2="7.4" y2="33.3"/>
	<path class="st1" d="M8.1,25.7c0-0.2,0.1-0.3,0.3-0.3l2.4-0.4c0.3-0.1,0.5,0,0.7,0.2c0.4,0.3,0.7,0.6,0.9,0.9
		c2.6-0.1,5.1-0.5,7.6-1c0.8-0.2,1.6-0.3,2.5-0.3c1.1,0,2.1,0.2,3.2,0.5c0.9,0.3,1.7,0.7,2.5,1.2c0.7,0.5,1.3,1.2,1.8,2
		c0.4,0.6,0.6,1.4,0.6,2.1S30.3,32,30,32.7c-0.5,0.8-1.1,1.4-1.8,2c-0.8,0.6-1.6,1-2.5,1.2c-1,0.3-2.1,0.5-3.2,0.5
		c-0.8,0-1.6-0.1-2.5-0.3c-2.5-0.5-5.1-0.8-7.6-1c-0.3,0.4-0.6,0.7-0.9,0.9c-0.2,0.1-0.5,0.2-0.7,0.2l-2.4-0.4
		c-0.1,0-0.3-0.2-0.3-0.3C8.1,35.4,8.1,25.7,8.1,25.7z"/>
	<line class="st1" x1="255.3" y1="191" x2="226.4" y2="191"/>
	<line class="st1" x1="255.3" y1="181.6" x2="226.4" y2="181.6"/>
	<line class="st1" x1="253.4" y1="11.5" x2="226.1" y2="11.5"/>
	<line class="st1" x1="253.4" y1="7.5" x2="226.1" y2="7.5"/>
	<line class="st1" x1="207.9" y1="291" x2="233.6" y2="291"/>
	<line class="st1" x1="207.9" y1="292.6" x2="233.6" y2="292.6"/>
	<path class="st1" d="M64.1,17.3H7.4v51.2h19.1c1.3,0,2.4,1.1,2.4,2.4v11.2c0,1.3-1.1,2.4-2.4,2.4H7.4v6.5h56.7v-7H66V56.8h-1.8
		V17.3z"/>
</g>
<g>
	<line class="st3" x1="222.2" y1="126.5" x2="257.5" y2="126.5"/>
	<line class="st3" x1="64.1" y1="102.8" x2="7.4" y2="102.8"/>
</g>
<polygon class="st4" points="13,241.1 0.1,241.1 0.1,5.7 224.5,5.7 224.5,7.5 226.1,7.5 226.1,11.5 224.5,11.5 224.5,15.4 
	197.5,15.4 197.5,17.1 193.8,17.1 193.8,15.4 71,15.4 71,44.2 73,44.2 73,53.6 67.8,53.6 67.8,56.8 64.1,56.8 64.1,17.3 7.4,17.3 
	7.4,91.1 64.1,91.1 64.1,84.1 67.8,84.1 67.8,117.7 55,117.7 55,114 64.1,114 64.1,94.8 7.4,94.8 7.4,114 16.5,114 16.5,117.7 
	7.4,117.7 7.4,200.5 13.8,200.5 13.8,205 13,205 "/>
<polygon class="st1" points="13,241.1 0.1,241.1 0.1,5.7 224.5,5.7 224.5,7.5 226.1,7.5 226.1,11.5 224.5,11.5 224.5,15.4 
	197.5,15.4 197.5,17.1 193.8,17.1 193.8,15.4 71,15.4 71,44.2 73,44.2 73,53.6 67.8,53.6 67.8,56.8 64.1,56.8 64.1,17.3 7.4,17.3 
	7.4,91.1 64.1,91.1 64.1,84.1 67.8,84.1 67.8,117.7 55,117.7 55,114 64.1,114 64.1,94.8 7.4,94.8 7.4,114 16.5,114 16.5,117.7 
	7.4,117.7 7.4,200.5 13.8,200.5 13.8,205 13,205 "/>
<polygon class="st4" points="77.9,200.5 77.9,205 78.7,205 78.7,208.6 206.3,208.6 206.3,186.1 207.1,186.1 207.1,181.6 
	198.2,181.6 198.2,194.2 121.2,194.2 121.2,200.5 "/>
<polygon class="st1" points="77.9,200.5 77.9,205 78.7,205 78.7,208.6 206.3,208.6 206.3,186.1 207.1,186.1 207.1,181.6 
	198.2,181.6 198.2,194.2 121.2,194.2 121.2,200.5 "/>
<rect x="221.6" y="181.6" class="st4" width="4.8" height="9.4"/>
<rect x="221.6" y="181.6" class="st1" width="4.8" height="9.4"/>
<polygon class="st4" points="255.3,181.6 255.3,191 260,191 260,241.1 267.3,241.1 267.3,5.7 255,5.7 255,7.5 253.4,7.5 253.4,11.5 
	255,11.5 255,15.4 257.5,15.4 257.5,111.6 254.3,111.6 254.3,115.3 257.5,115.3 257.5,134.5 222.2,134.5 222.2,115.3 225.4,115.3 
	225.4,111.6 222.2,111.6 222.2,108.8 215.4,108.8 215.4,141.4 257.5,141.4 257.5,181.6 "/>
<polygon class="st1" points="255.3,181.6 255.3,191 260,191 260,241.1 267.3,241.1 267.3,5.7 255,5.7 255,7.5 253.4,7.5 253.4,11.5 
	255,11.5 255,15.4 257.5,15.4 257.5,111.6 254.3,111.6 254.3,115.3 257.5,115.3 257.5,134.5 222.2,134.5 222.2,115.3 225.4,115.3 
	225.4,111.6 222.2,111.6 222.2,108.8 215.4,108.8 215.4,141.4 257.5,141.4 257.5,181.6 "/>
<polygon class="st4" points="97,44.2 97,53.6 215.4,53.6 215.4,81.5 222.2,81.5 222.2,44.2 197.5,44.2 197.5,42.8 193.8,42.8 
	193.8,44.2 "/>
<polygon class="st1" points="97,44.2 97,53.6 215.4,53.6 215.4,81.5 222.2,81.5 222.2,44.2 197.5,44.2 197.5,42.8 193.8,42.8 
	193.8,44.2 "/>
<g>
	<path class="st5" d="M234.3,0.3h-1.9v1.1h1.7v0.3h-1.7v1.1h1.9v0.3H232V0h2.3L234.3,0.3L234.3,0.3z"/>
	<path class="st5" d="M237.4,0h0.4v3.1h-0.3l-2-2.6v2.6h-0.4V0h0.3l2,2.5L237.4,0L237.4,0z"/>
	<path class="st5" d="M240,3.2h-0.4V0.3h-1.1V0h2.5v0.3H240V3.2z"/>
	<path class="st5" d="M243.9,3.2L243,1.9h-0.9v1.2h-0.4V0h1.4c0.7,0,1.1,0.4,1.1,0.9c0,0.5-0.4,0.8-0.9,0.9l1,1.3H243.9z M243.1,0.3
		h-1v1.3h1c0.5,0,0.8-0.2,0.8-0.6C243.9,0.6,243.6,0.3,243.1,0.3z"/>
	<path class="st5" d="M246.3,3.2H246V1.9L244.7,0h0.4l1.1,1.6l1.1-1.6h0.4l-1.3,1.9L246.3,3.2L246.3,3.2z"/>
</g>
<g>
	<path class="st5" d="M236,196.4h-1.9v1.1h1.7v0.3h-1.7v1.1h1.9v0.3h-2.3v-3.1h2.3L236,196.4L236,196.4z"/>
	<path class="st5" d="M239.2,196.1h0.4v3.1h-0.3l-2-2.6v2.6h-0.4v-3.1h0.3l2,2.5L239.2,196.1L239.2,196.1z"/>
	<path class="st5" d="M241.7,199.3h-0.4v-2.8h-1.1v-0.3h2.5v0.3h-1.1V199.3z"/>
	<path class="st5" d="M245.7,199.3l-0.9-1.2h-0.9v1.2h-0.4v-3.1h1.4c0.7,0,1.1,0.4,1.1,0.9c0,0.5-0.4,0.8-0.9,0.9l1,1.3L245.7,199.3
		L245.7,199.3z M244.8,196.5h-1v1.3h1c0.5,0,0.8-0.2,0.8-0.6C245.6,196.7,245.3,196.5,244.8,196.5z"/>
	<path class="st5" d="M248.1,199.3h-0.4V198l-1.3-1.9h0.4l1.1,1.6l1.1-1.6h0.4l-1.3,1.9L248.1,199.3L248.1,199.3z"/>
</g>
<g>
	<path class="st5" d="M160.7,30.2c0,0.9-0.5,1.4-1.3,1.4s-1.3-0.5-1.3-1.4v-1.8h0.4v1.8c0,0.7,0.4,1.1,1,1.1c0.6,0,0.9-0.4,0.9-1
		v-1.8h0.4L160.7,30.2L160.7,30.2z"/>
	<path class="st5" d="M162.8,30.4H162v1.1h-0.4v-3.1h1.2c0.7,0,1.2,0.4,1.2,1C164,30,163.5,30.4,162.8,30.4z M162.8,28.7H162v1.4
		h0.8c0.5,0,0.9-0.3,0.9-0.7C163.7,28.9,163.3,28.7,162.8,28.7z"/>
</g>
<g>
	<path class="st5" d="M240,77.7c0,0.9-0.5,1.4-1.3,1.4s-1.3-0.5-1.3-1.4v-1.8h0.4v1.8c0,0.7,0.4,1.1,1,1.1c0.6,0,0.9-0.4,0.9-1v-1.8
		h0.4L240,77.7L240,77.7z"/>
	<path class="st5" d="M242.1,77.9h-0.8V79H241v-3.1h1.2c0.7,0,1.2,0.4,1.2,1C243.3,77.5,242.8,77.9,242.1,77.9z M242.1,76.2h-0.8
		v1.4h0.8c0.5,0,0.9-0.3,0.9-0.7C243,76.4,242.6,76.2,242.1,76.2z"/>
</g>
<g>
	<path class="st5" d="M129.3,243.2h-0.8v1.1h-0.4v-3.1h1.2c0.7,0,1.2,0.4,1.2,1C130.5,242.9,130,243.2,129.3,243.2z M129.3,241.5
		h-0.8v1.4h0.8c0.5,0,0.9-0.3,0.9-0.7C130.2,241.7,129.8,241.5,129.3,241.5z"/>
	<path class="st5" d="M133.9,244.3h-0.4l-0.4-0.8h-1.7l-0.4,0.8h-0.4l1.4-3.2h0.3L133.9,244.3z M132.3,241.6l-0.7,1.6h1.4
		L132.3,241.6z"/>
	<path class="st5" d="M135.4,244.3H135v-2.8H134v-0.3h2.5v0.3h-1.1V244.3z"/>
	<path class="st5" d="M137.6,241.2v3.1h-0.4v-3.1H137.6z"/>
	<path class="st5" d="M140.1,244.4c-1,0-1.6-0.8-1.6-1.6s0.6-1.6,1.6-1.6s1.6,0.8,1.6,1.6S141,244.4,140.1,244.4z M140.1,241.4
		c-0.7,0-1.2,0.6-1.2,1.3s0.5,1.3,1.2,1.3s1.2-0.6,1.2-1.3C141.3,242,140.8,241.4,140.1,241.4z"/>
</g>
<g>
	<path class="st5" d="M141.4,102.5h0.3l0.9,2.6l0.9-2.6h0.4l-1.1,3.2h-0.3l-0.9-2.6l-0.9,2.6h-0.3l-1.1-3.2h0.4l0.9,2.6L141.4,102.5
		z"/>
	<path class="st5" d="M145.8,105.7c-1,0-1.6-0.8-1.6-1.6s0.6-1.6,1.6-1.6s1.6,0.8,1.6,1.6S146.8,105.7,145.8,105.7z M145.8,102.7
		c-0.7,0-1.2,0.6-1.2,1.3s0.5,1.3,1.2,1.3s1.2-0.6,1.2-1.3C147.1,103.3,146.5,102.7,145.8,102.7z"/>
	<path class="st5" d="M150.4,105.6l-0.9-1.2h-0.9v1.2h-0.4v-3.1h1.4c0.7,0,1.1,0.4,1.1,0.9c0,0.5-0.4,0.8-0.9,0.9l1,1.3L150.4,105.6
		L150.4,105.6z M149.6,102.8h-1v1.3h1c0.5,0,0.8-0.2,0.8-0.6C150.4,103,150.1,102.8,149.6,102.8z"/>
	<path class="st5" d="M154.3,105.6h-0.4l-1.2-1.5l-0.7,0.7v0.9h-0.4v-3.1h0.4v1.9l1.8-1.9h0.5l-1.4,1.4L154.3,105.6z"/>
</g>
<g>
	<path class="st5" d="M34.2,59.6h-0.8v1.1h-0.4v-3.1h1.2c0.7,0,1.2,0.4,1.2,1C35.4,59.3,34.9,59.6,34.2,59.6z M34.2,57.9h-0.8v1.4
		h0.8c0.5,0,0.9-0.3,0.9-0.7C35.1,58.1,34.7,57.9,34.2,57.9z"/>
	<path class="st5" d="M37.6,60.8c-1,0-1.6-0.8-1.6-1.6s0.7-1.6,1.6-1.6s1.6,0.8,1.6,1.6C39.3,60,38.6,60.8,37.6,60.8z M37.6,57.8
		c-0.7,0-1.2,0.6-1.2,1.3s0.5,1.3,1.2,1.3s1.2-0.6,1.2-1.3S38.4,57.8,37.6,57.8z"/>
	<path class="st5" d="M41.8,57.6h0.3l0.9,2.6l0.9-2.6h0.4l-1.1,3.2h-0.3L42,58.2l-0.9,2.6h-0.3l-1.1-3.2h0.4l0.9,2.6L41.8,57.6z"/>
	<path class="st5" d="M46.1,60.7H45v-3.1h1.1c1,0,1.7,0.7,1.7,1.6C47.8,60,47.1,60.7,46.1,60.7z M46.1,57.9h-0.7v2.5h0.7
		c0.8,0,1.3-0.5,1.3-1.2S46.9,57.9,46.1,57.9z"/>
	<path class="st5" d="M50.9,57.9H49V59h1.7v0.3H49v1.1h2v0.3h-2.3v-3.1h2.3L50.9,57.9L50.9,57.9z"/>
	<path class="st5" d="M53.9,60.7L53,59.5h-0.9v1.2h-0.4v-3.1h1.4c0.7,0,1.1,0.4,1.1,0.9c0,0.5-0.4,0.8-0.9,0.9l1,1.3L53.9,60.7
		L53.9,60.7z M53.1,57.9h-1v1.3h1c0.5,0,0.8-0.2,0.8-0.6C53.9,58.1,53.6,57.9,53.1,57.9z"/>
</g>
<g>
	<path class="st5" d="M84.3,31.2c0.7,0.1,1,0.4,1,0.9c0,0.5-0.4,0.9-1.1,0.9c-0.5,0-0.9-0.2-1.3-0.5l0.2-0.3
		c0.3,0.3,0.6,0.4,1.1,0.4c0.4,0,0.7-0.2,0.7-0.5c0-0.3-0.2-0.5-0.8-0.6c-0.7-0.2-1.1-0.4-1.1-0.9c0-0.5,0.4-0.9,1-0.9
		c0.5,0,0.8,0.1,1.1,0.4L85,30.4c-0.3-0.2-0.6-0.3-0.9-0.3c-0.4,0-0.7,0.2-0.7,0.5C83.5,30.8,83.6,31,84.3,31.2z"/>
	<path class="st5" d="M87.3,32.9h-0.4v-2.8h-1.1v-0.3h2.5v0.3h-1.1C87.3,30.1,87.3,32.9,87.3,32.9z"/>
	<path class="st5" d="M90.3,33c-1,0-1.6-0.8-1.6-1.6s0.7-1.6,1.6-1.6s1.6,0.8,1.6,1.6C92,32.2,91.3,33,90.3,33z M90.3,30
		c-0.7,0-1.2,0.6-1.2,1.3s0.5,1.3,1.2,1.3s1.2-0.6,1.2-1.3S91.1,30,90.3,30z"/>
	<path class="st5" d="M95,32.9l-0.9-1.2h-0.9v1.2h-0.4v-3.1h1.4c0.7,0,1.1,0.4,1.1,0.9c0,0.5-0.4,0.8-0.9,0.9l1,1.3H95z M94.1,30.1
		h-1v1.3h1c0.5,0,0.8-0.2,0.8-0.6C94.9,30.3,94.6,30.1,94.1,30.1z"/>
	<path class="st5" d="M99.1,32.9h-0.4l-0.4-0.8h-1.7l-0.4,0.8h-0.4l1.4-3.2h0.3L99.1,32.9z M97.5,30.1l-0.7,1.6h1.4L97.5,30.1z"/>
	<path class="st5" d="M101.1,33c-1,0-1.6-0.7-1.6-1.6c0-0.9,0.6-1.6,1.6-1.6c0.5,0,0.9,0.1,1.2,0.4l-0.2,0.3c-0.2-0.2-0.5-0.4-1-0.4
		c-0.7,0-1.2,0.6-1.2,1.3c0,0.8,0.5,1.3,1.2,1.3c0.4,0,0.7-0.1,0.9-0.3v-0.8h-1v-0.3h1.3v1.3C102,32.7,101.6,33,101.1,33z"/>
	<path class="st5" d="M105.5,30.1h-1.9v1.1h1.7v0.3h-1.7v1.1h1.9v0.3h-2.3v-3.1h2.3L105.5,30.1L105.5,30.1z"/>
</g>
<g>
	<path class="st6" d="M125,313.9h0.8v6.3h3.9v0.7H125C125,320.9,125,313.9,125,313.9z"/>
	<path class="st6" d="M134.3,321c-2.1,0-3.6-1.7-3.6-3.6s1.4-3.6,3.6-3.6s3.6,1.7,3.6,3.6S136.4,321,134.3,321z M134.3,314.5
		c-1.6,0-2.7,1.3-2.7,2.9s1.2,2.9,2.8,2.9c1.6,0,2.7-1.3,2.7-2.9S135.9,314.5,134.3,314.5z"/>
	<path class="st6" d="M143.6,313.8h0.6l1.9,5.8l2-5.8h0.8l-2.5,7h-0.7l-1.9-5.7l-1.9,5.7h-0.7l-2.5-7h0.9l2,5.8L143.6,313.8z"/>
	<path class="st6" d="M155.7,314.6h-4.3v2.4h3.8v0.7h-3.8v2.5h4.3v0.7h-5.1v-7h5.1V314.6z"/>
	<path class="st6" d="M162.4,320.9l-2-2.7h-2v2.7h-0.8v-7h3c1.5,0,2.5,0.8,2.5,2.1c0,1.2-0.8,1.8-1.9,2l2.1,2.9H162.4z M160.5,314.6
		h-2.2v2.8h2.1c1.1,0,1.8-0.5,1.8-1.5C162.3,315.1,161.6,314.6,160.5,314.6z"/>
</g>
</svg>
