<?xml version="1.0" encoding="utf-8"?>
<!-- Generator: Adobe Illustrator 25.4.1, SVG Export Plug-In . SVG Version: 6.00 Build 0)  -->
<svg version="1.1" id="Layer_1" xmlns="http://www.w3.org/2000/svg" xmlns:xlink="http://www.w3.org/1999/xlink" x="0px" y="0px"
	 viewBox="0 0 241.8970947 267.1622925" style="enable-background:new 0 0 241.8970947 267.1622925;" xml:space="preserve">
<style type="text/css">
	.st0{fill:none;stroke:#99A4B3;stroke-width:0.24;stroke-linecap:round;stroke-linejoin:round;stroke-miterlimit:10;}
	.st1{fill-rule:evenodd;clip-rule:evenodd;fill:#22566E;}
	.st2{fill:none;stroke:#22566E;stroke-width:0.25;stroke-linecap:round;stroke-linejoin:round;stroke-miterlimit:10;}
	.st3{fill:none;stroke:#22566E;stroke-width:0.25;stroke-linecap:round;stroke-linejoin:round;}
	
		.st4{fill:none;stroke:#22566E;stroke-width:0.25;stroke-linecap:round;stroke-linejoin:round;stroke-dasharray:4.2129998,2.1059999;}
	.st5{fill:none;stroke:#22566E;stroke-width:0.25;stroke-linecap:round;stroke-linejoin:round;stroke-dasharray:4.0799999,2.04;}
	.st6{fill:none;stroke:#22566E;stroke-width:0.25;stroke-linecap:round;stroke-linejoin:round;stroke-miterlimit:9.999999;}
	.st7{fill:none;stroke:#22566E;stroke-width:0.25;stroke-linecap:round;stroke-linejoin:round;stroke-miterlimit:10.0000019;}
	.st8{fill:none;stroke:#22566E;stroke-width:0.25;stroke-linecap:round;stroke-linejoin:round;stroke-miterlimit:10.000001;}
	.st9{fill:#22566E;}
</style>
<polygon class="st0" points="195.1700439,52.4198914 88.9620361,52.4198914 88.9620361,48.1918945 67.3700256,48.1918945 
	67.3700256,52.4198914 68.0000305,51.3289185 86.6990356,62.1249084 86.0690308,63.2159119 67.3700256,52.4198914 
	62.7820435,52.4198914 62.7820435,55.2989197 83.9740295,67.533905 83.3450317,68.6249084 62.1520386,56.3898926 
	62.7820435,55.2989197 61.118042,55.2989197 61.118042,79.7689209 62.7820435,79.7689209 62.7820435,109.9898987 
	49.98703,109.9898987 49.98703,127.2629089 51.2460327,127.2629089 51.2460327,106.6609192 59.4530334,106.6609192 
	59.4530334,99.4638977 10.2910461,99.4638977 10.2910461,106.6609192 16.6990356,106.6609192 16.6990356,127.2629089 
	17.9590454,127.2629089 17.9590454,109.9898987 10.2910461,109.9898987 10.2910461,184.2188873 110.6930237,184.2188873 
	110.6930237,178.6408997 125.0870361,178.6408997 125.0870361,170.0049133 165.3910217,170.0049133 165.3910217,178.6408997 
	179.7860413,178.6408997 179.7860413,167.3059082 232.9550171,167.3059082 232.9550171,131.1809082 195.1700439,131.1809082 
	195.1700439,101.9418945 201.2880249,101.9418945 200.65802,100.8508911 221.8500366,88.6159058 222.4800415,89.7069092 
	201.2880249,101.9418945 201.2880249,104.460907 204.1660156,104.460907 215.3860168,97.9839172 216.0160217,99.0739136 
	204.7960205,105.5519104 204.1660156,104.460907 204.1660156,107.789917 201.2880249,107.789917 201.2880249,114.986908 
	232.9550171,114.986908 232.9550171,107.789917 230.0760193,107.789917 230.0760193,104.460907 229.4470215,105.5519104 
	218.2270203,99.0739136 218.8570251,97.9839172 230.0760193,104.460907 232.9550171,104.460907 232.9550171,69.9139099 
	203.9860229,69.9139099 203.9860229,71.3539124 202.9070435,71.3539124 202.9070435,69.9139099 201.2880249,69.9139099 
	201.2880249,63.9768982 202.9070435,63.9768982 202.9070435,62.5368958 203.9860229,62.5368958 203.9860229,63.9768982 
	232.9550171,63.9768982 232.9550171,18.1429138 230.710022,18.1429138 230.710022,14.6349182 229.2700195,14.6349182 
	229.2700195,39.1049194 228.0110168,39.1049194 228.0110168,14.6349182 203.3600159,14.6349182 203.3600159,18.1429138 
	179.1110229,18.1429138 179.1110229,20.9319153 202.1420288,20.9319153 202.1420288,19.6729126 175.78302,19.6729126 
	175.78302,18.1429138 138.0420227,18.1429138 138.0420227,43.9629211 175.78302,43.9629211 175.78302,42.7039185 
	179.1110229,42.7039185 179.1110229,43.9629211 201.2880249,43.9629211 201.2880249,77.4709167 195.1700439,77.4709167 "/>
<rect x="103.356842" y="53.8590088" class="st0" width="60.4570007" height="23.0310059"/>
<rect x="121.3598328" y="89.8460083" class="st0" width="24.4490051" height="15.7730103"/>
<rect x="165.2528381" y="55.2990112" class="st0" width="14.4200134" height="20.1610107"/>
<path class="st0" d="M75.2718506,175.8552856l-7.6340027-7.6339722l15.2679749-15.2669983l7.6330261,7.6329956
	c4.21698,4.2160034,4.21698,11.052002,0,15.2679749C86.323822,180.0712891,79.4878235,180.0712891,75.2718506,175.8552856z"/>
<polygon class="st0" points="11.7303467,182.7796021 11.7303467,136.7176208 29.0033264,136.7176208 29.0033264,153.4506226 
	35.4813232,153.4506226 35.4813232,152.7316284 36.5603333,152.7316284 36.5603333,166.765625 35.4813232,166.765625 
	35.4813232,166.0456238 29.0033264,166.0456238 29.0033264,182.7796021 "/>
<path class="st0" d="M103.7244568,125.9245911l2.7939758-10.4279785l20.8560181,5.5879822l-2.7940063,10.428009
	c-1.5429993,5.7600098-7.4630127,9.177002-13.2220154,7.6340027
	C105.5994568,137.6036072,102.181427,131.6835938,103.7244568,125.9245911z"/>
<path class="st0" d="M163.445343,125.9245911l-2.7940063-10.4279785l-20.8560181,5.5879822l2.7940063,10.428009
	c1.5429993,5.7600098,7.4630127,9.177002,13.2220154,7.6340027S164.9883423,131.6835938,163.445343,125.9245911z"/>
<line class="st0" x1="11.6409302" y1="184.2189941" x2="11.6409302" y2="109.9900208"/>
<line class="st0" x1="11.6409302" y1="106.6612854" x2="11.6409302" y2="99.4642944"/>
<line class="st0" x1="17.0387573" y1="184.2189941" x2="17.0387573" y2="182.7799988"/>
<line class="st0" x1="17.0387573" y1="109.9901123" x2="17.0387573" y2="99.4641418"/>
<line class="st0" x1="17.0387573" y1="136.7172852" x2="17.0387573" y2="127.2633057"/>
<line class="st0" x1="22.4367371" y1="184.2189941" x2="22.4367371" y2="182.7799988"/>
<line class="st0" x1="22.4367371" y1="136.7172852" x2="22.4367371" y2="99.4642944"/>
<line class="st0" x1="27.8346558" y1="184.2189941" x2="27.8346558" y2="182.7799988"/>
<line class="st0" x1="27.8346558" y1="136.7172852" x2="27.8346558" y2="99.4642944"/>
<line class="st0" x1="33.2326355" y1="184.2189941" x2="33.2326355" y2="166.0460205"/>
<line class="st0" x1="33.2326355" y1="153.4508972" x2="33.2326355" y2="99.4638977"/>
<line class="st0" x1="38.6304321" y1="184.2189941" x2="38.6304321" y2="99.4640198"/>
<line class="st0" x1="44.0284424" y1="184.2189941" x2="44.0284424" y2="99.4640198"/>
<line class="st0" x1="49.426239" y1="184.2189941" x2="49.426239" y2="99.4640198"/>
<line class="st0" x1="54.8242493" y1="184.2189941" x2="54.8242493" y2="109.9900208"/>
<line class="st0" x1="54.8242493" y1="106.6612854" x2="54.8242493" y2="99.4642944"/>
<line class="st0" x1="60.2220459" y1="184.2189941" x2="60.2220459" y2="109.9900208"/>
<line class="st0" x1="65.6200562" y1="184.2189941" x2="65.6200562" y2="58.3919983"/>
<line class="st0" x1="65.6200562" y1="56.9371948" x2="65.6200562" y2="52.4201965"/>
<line class="st0" x1="71.0179443" y1="184.2189941" x2="71.0179443" y2="171.6020203"/>
<line class="st0" x1="71.0179443" y1="53.0714111" x2="71.0179443" y2="48.1914368"/>
<line class="st0" x1="71.0179443" y1="164.8416138" x2="71.0179443" y2="61.5076294"/>
<line class="st0" x1="71.0179443" y1="60.0535889" x2="71.0179443" y2="54.5256042"/>
<line class="st0" x1="76.4159546" y1="184.2189941" x2="76.4159546" y2="176.848999"/>
<line class="st0" x1="76.4159546" y1="56.1879883" x2="76.4159546" y2="48.1920166"/>
<line class="st0" x1="76.4159546" y1="159.4436035" x2="76.4159546" y2="64.6246033"/>
<line class="st0" x1="76.4159546" y1="63.1701965" x2="76.4159546" y2="57.6422119"/>
<line class="st0" x1="81.8137512" y1="184.2189941" x2="81.8137512" y2="178.9620056"/>
<line class="st0" x1="81.8137512" y1="59.3044128" x2="81.8137512" y2="48.1914368"/>
<line class="st0" x1="81.8137512" y1="154.0458069" x2="81.8137512" y2="67.7408142"/>
<line class="st0" x1="81.8137512" y1="66.2865906" x2="81.8137512" y2="60.758606"/>
<line class="st0" x1="87.211731" y1="184.2189941" x2="87.211731" y2="178.1210022"/>
<line class="st0" x1="87.211731" y1="157.2601013" x2="87.211731" y2="48.1911011"/>
<line class="st0" x1="92.6095581" y1="184.2189941" x2="92.6095581" y2="172.9519958"/>
<line class="st0" x1="92.6095581" y1="163.4906006" x2="92.6095581" y2="52.4196167"/>
<line class="st0" x1="98.0075378" y1="184.2189941" x2="98.0075378" y2="52.4200134"/>
<line class="st0" x1="103.4054565" y1="184.2189941" x2="103.4054565" y2="129.7449951"/>
<line class="st0" x1="103.4054565" y1="53.859314" x2="103.4054565" y2="52.4203186"/>
<line class="st0" x1="103.4054565" y1="127.692688" x2="103.4054565" y2="76.8907166"/>
<line class="st0" x1="108.8034363" y1="184.2189941" x2="108.8034363" y2="138.0960083"/>
<line class="st0" x1="108.8034363" y1="53.859314" x2="108.8034363" y2="52.4203186"/>
<line class="st0" x1="108.8034363" y1="116.1087952" x2="108.8034363" y2="76.8908081"/>
<line class="st0" x1="114.2012329" y1="178.641098" x2="114.2012329" y2="139.5140991"/>
<line class="st0" x1="114.2012329" y1="53.859314" x2="114.2012329" y2="52.4203186"/>
<line class="st0" x1="114.2012329" y1="117.5552063" x2="114.2012329" y2="76.8902283"/>
<line class="st0" x1="119.5992432" y1="178.641098" x2="119.5992432" y2="138.0401001"/>
<line class="st0" x1="119.5992432" y1="53.859314" x2="119.5992432" y2="52.4203186"/>
<line class="st0" x1="119.5992432" y1="119.0015869" x2="119.5992432" y2="76.8905945"/>
<line class="st0" x1="124.9970398" y1="178.641098" x2="124.9970398" y2="129.9580994"/>
<line class="st0" x1="124.9970398" y1="53.859314" x2="124.9970398" y2="52.4203186"/>
<line class="st0" x1="124.9970398" y1="120.4478149" x2="124.9970398" y2="105.6188354"/>
<line class="st0" x1="124.9970398" y1="89.8456116" x2="124.9970398" y2="76.890625"/>
<line class="st0" x1="130.39505" y1="170.0046082" x2="130.39505" y2="105.6186218"/>
<line class="st0" x1="130.39505" y1="53.859314" x2="130.39505" y2="52.4203186"/>
<line class="st0" x1="130.39505" y1="89.8456116" x2="130.39505" y2="76.890625"/>
<line class="st0" x1="135.7928467" y1="170.0046082" x2="135.7928467" y2="105.6186218"/>
<line class="st0" x1="135.7928467" y1="53.859314" x2="135.7928467" y2="52.4203186"/>
<line class="st0" x1="135.7928467" y1="89.8456116" x2="135.7928467" y2="76.890625"/>
<line class="st0" x1="141.1908569" y1="170.0046082" x2="141.1908569" y2="126.2936096"/>
<line class="st0" x1="141.1908569" y1="43.9631042" x2="141.1908569" y2="18.1431274"/>
<line class="st0" x1="141.1908569" y1="120.710907" x2="141.1908569" y2="105.618927"/>
<line class="st0" x1="141.1908569" y1="53.859314" x2="141.1908569" y2="52.4203186"/>
<line class="st0" x1="141.1908569" y1="89.8456116" x2="141.1908569" y2="76.890625"/>
<line class="st0" x1="146.5887451" y1="170.0046082" x2="146.5887451" y2="137.3916321"/>
<line class="st0" x1="146.5887451" y1="43.9631042" x2="146.5887451" y2="18.1431274"/>
<line class="st0" x1="146.5887451" y1="119.2645874" x2="146.5887451" y2="76.8905945"/>
<line class="st0" x1="146.5887451" y1="53.859314" x2="146.5887451" y2="52.4203186"/>
<line class="st0" x1="151.9867554" y1="170.0046082" x2="151.9867554" y2="139.4656372"/>
<line class="st0" x1="151.9867554" y1="43.9631042" x2="151.9867554" y2="18.1431274"/>
<line class="st0" x1="151.9867554" y1="117.8182983" x2="151.9867554" y2="76.8903198"/>
<line class="st0" x1="151.9867554" y1="53.859314" x2="151.9867554" y2="52.4203186"/>
<line class="st0" x1="157.384552" y1="170.0046082" x2="157.384552" y2="138.5916138"/>
<line class="st0" x1="157.384552" y1="43.9631042" x2="157.384552" y2="18.1431274"/>
<line class="st0" x1="157.384552" y1="116.3718872" x2="157.384552" y2="76.8908997"/>
<line class="st0" x1="157.384552" y1="53.859314" x2="157.384552" y2="52.4203186"/>
<line class="st0" x1="162.7825317" y1="170.0046082" x2="162.7825317" y2="133.3226318"/>
<line class="st0" x1="162.7825317" y1="43.9631042" x2="162.7825317" y2="18.1431274"/>
<line class="st0" x1="162.7825317" y1="123.4508057" x2="162.7825317" y2="76.8908081"/>
<line class="st0" x1="162.7825317" y1="53.859314" x2="162.7825317" y2="52.4203186"/>
<line class="st0" x1="168.1803589" y1="178.641098" x2="168.1803589" y2="75.4601135"/>
<line class="st0" x1="168.1803589" y1="43.9631042" x2="168.1803589" y2="18.1431274"/>
<line class="st0" x1="168.1803589" y1="55.2987061" x2="168.1803589" y2="52.4197083"/>
<line class="st0" x1="173.5783386" y1="178.641098" x2="173.5783386" y2="75.4601135"/>
<line class="st0" x1="173.5783386" y1="43.9631042" x2="173.5783386" y2="18.1431274"/>
<line class="st0" x1="173.5783386" y1="55.2987061" x2="173.5783386" y2="52.4197083"/>
<line class="st0" x1="178.9762573" y1="178.641098" x2="178.9762573" y2="75.4601135"/>
<line class="st0" x1="178.9762573" y1="42.7036133" x2="178.9762573" y2="19.6726379"/>
<line class="st0" x1="178.9762573" y1="55.2987061" x2="178.9762573" y2="52.4197083"/>
<line class="st0" x1="184.3742371" y1="167.3055115" x2="184.3742371" y2="52.4195251"/>
<line class="st0" x1="184.3742371" y1="19.6726074" x2="184.3742371" y2="18.1436157"/>
<line class="st0" x1="184.3742371" y1="43.9631042" x2="184.3742371" y2="20.9321289"/>
<line class="st0" x1="189.7720337" y1="167.3055115" x2="189.7720337" y2="52.4195251"/>
<line class="st0" x1="189.7720337" y1="19.6726074" x2="189.7720337" y2="18.1436157"/>
<line class="st0" x1="189.7720337" y1="43.9631042" x2="189.7720337" y2="20.9321289"/>
<line class="st0" x1="195.1700439" y1="167.3055115" x2="195.1700439" y2="131.1805115"/>
<line class="st0" x1="195.1700439" y1="19.6726074" x2="195.1700439" y2="18.1436157"/>
<line class="st0" x1="195.1700439" y1="101.9418945" x2="195.1700439" y2="77.4709167"/>
<line class="st0" x1="195.1700439" y1="43.9631042" x2="195.1700439" y2="20.9321289"/>
<line class="st0" x1="200.5678406" y1="167.3055115" x2="200.5678406" y2="131.1805115"/>
<line class="st0" x1="200.5678406" y1="19.6726074" x2="200.5678406" y2="18.1436157"/>
<line class="st0" x1="200.5678406" y1="101.9418945" x2="200.5678406" y2="77.4709167"/>
<line class="st0" x1="200.5678406" y1="43.9631042" x2="200.5678406" y2="20.9321289"/>
<line class="st0" x1="205.9658508" y1="167.3055115" x2="205.9658508" y2="131.1805115"/>
<line class="st0" x1="205.9658508" y1="63.976593" x2="205.9658508" y2="14.634613"/>
<line class="st0" x1="205.9658508" y1="114.9867859" x2="205.9658508" y2="104.8768005"/>
<line class="st0" x1="205.9658508" y1="97.7865906" x2="205.9658508" y2="69.9146118"/>
<line class="st0" x1="205.9658508" y1="103.4220886" x2="205.9658508" y2="99.2410889"/>
<line class="st0" x1="211.3636475" y1="167.3055115" x2="211.3636475" y2="131.1805115"/>
<line class="st0" x1="211.3636475" y1="63.976593" x2="211.3636475" y2="14.634613"/>
<line class="st0" x1="211.3636475" y1="114.9867859" x2="211.3636475" y2="101.7597961"/>
<line class="st0" x1="211.3636475" y1="94.6701965" x2="211.3636475" y2="69.9142151"/>
<line class="st0" x1="211.3636475" y1="100.3055115" x2="211.3636475" y2="96.1245117"/>
<line class="st0" x1="216.7616577" y1="167.3055115" x2="216.7616577" y2="131.1805115"/>
<line class="st0" x1="216.7616577" y1="63.976593" x2="216.7616577" y2="14.634613"/>
<line class="st0" x1="216.7616577" y1="114.9867859" x2="216.7616577" y2="93.0078125"/>
<line class="st0" x1="216.7616577" y1="91.5535889" x2="216.7616577" y2="69.9146118"/>
<line class="st0" x1="222.1595459" y1="167.3055115" x2="222.1595459" y2="131.1805115"/>
<line class="st0" x1="222.1595459" y1="63.976593" x2="222.1595459" y2="14.634613"/>
<line class="st0" x1="222.1595459" y1="114.9867859" x2="222.1595459" y2="101.3447876"/>
<line class="st0" x1="222.1595459" y1="89.1520081" x2="222.1595459" y2="69.914032"/>
<line class="st0" x1="222.1595459" y1="99.8901062" x2="222.1595459" y2="89.8911133"/>
<line class="st0" x1="227.5575562" y1="167.3055115" x2="227.5575562" y2="131.1805115"/>
<line class="st0" x1="227.5575562" y1="63.976593" x2="227.5575562" y2="14.634613"/>
<line class="st0" x1="227.5575562" y1="114.9867859" x2="227.5575562" y2="104.4608154"/>
<line class="st0" x1="227.5575562" y1="103.0065918" x2="227.5575562" y2="69.9146118"/>
<polygon class="st0" points="235.2045288,265.5079041 235.2045288,175.7619019 230.9765015,175.7619019 230.9765015,201.6719055 
	229.7165222,201.6719055 229.7165222,175.7619019 200.7475281,175.7619019 200.7475281,174.592926 187.0735168,174.592926 
	187.0735168,191.5059052 13.5305176,191.5059052 13.5305176,231.9899139 187.0735168,255.111908 187.0735168,265.5079041 
	188.5125122,265.5079041 188.5125122,242.4769135 189.772522,242.4769135 189.772522,265.5079041 "/>
<path class="st0" d="M10.8772583,27.4122925c0-0.1409912,0.0999756-0.26297,0.2389832-0.2889709l2.1260071-0.4070129
	c0.2309875-0.0440063,0.4700012,0.0079956,0.6629944,0.1440125c0.3259888,0.2319946,0.6109924,0.5159912,0.8420105,0.8429871
	c2.2989807-0.1369934,4.5849915-0.4289856,6.8439941-0.8739929c0.723999-0.1640015,1.4639893-0.2470093,2.2070007-0.2470093
	c0.9629822,0,1.9219971,0.1390076,2.8450012,0.4140015c0.803009,0.2390137,1.5599976,0.6109924,2.2409973,1.1000061
	c0.6539917,0.4710083,1.2000122,1.0749817,1.6029968,1.7729797c0.3299866,0.5730286,0.5029907,1.2230225,0.5029907,1.8840027
	c0,0.6610107-0.1730042,1.3110046-0.5029907,1.8840027c-0.4029846,0.697998-0.9490051,1.302002-1.6029968,1.7730103
	c-0.6809998,0.4890137-1.4379883,0.8609924-2.2409973,1.1000061c-0.9230042,0.2749939-1.882019,0.4140015-2.8450012,0.4140015
	c-0.7430115,0-1.4830017-0.0830078-2.2070007-0.2470093c-2.2590027-0.4450073-4.5450134-0.7369995-6.8439941-0.8739929
	c-0.2310181,0.3259888-0.5160217,0.6109924-0.8420105,0.8429871c-0.1929932,0.1360168-0.4320068,0.1880188-0.6629944,0.1440125
	l-2.1260071-0.4070129c-0.1390076-0.0270081-0.2389832-0.1479797-0.2389832-0.2890015V27.4122925z"/>
<line class="st0" x1="230.9761353" y1="175.7622986" x2="205.0661316" y2="175.7622986"/>
<line class="st0" x1="230.9761353" y1="167.3055115" x2="205.0661316" y2="167.3055115"/>
<line class="st0" x1="229.2701416" y1="14.634613" x2="204.7991333" y2="14.634613"/>
<line class="st0" x1="229.2701416" y1="11.0358887" x2="204.7991333" y2="11.0358887"/>
<line class="st0" x1="188.5125427" y1="265.5079041" x2="211.5435181" y2="265.5079041"/>
<line class="st0" x1="188.5125427" y1="266.9472961" x2="211.5435181" y2="266.9472961"/>
<path class="st0" d="M59.4534302,19.8525085H10.2914124v45.9750061h17.1830139c1.1929932,0,2.1589966,0.9670105,2.1589966,2.1589966
	v10.0760193c0,1.1929932-0.9660034,2.1600037-2.1589966,2.1600037H10.2914124v5.8369751h49.1620178v-6.289978h1.6639709V55.2985229
	h-1.6639709V19.8525085z"/>
<line class="st0" x1="11.0072327" y1="86.0592041" x2="11.0072327" y2="80.222229"/>
<line class="st0" x1="11.0072327" y1="27.1682129" x2="11.0072327" y2="19.8522339"/>
<line class="st0" x1="11.0072327" y1="65.8276062" x2="11.0072327" y2="36.338623"/>
<line class="st0" x1="19.6439514" y1="86.0592041" x2="19.6439514" y2="80.222229"/>
<line class="st0" x1="19.6439514" y1="27.1741028" x2="19.6439514" y2="19.8521118"/>
<line class="st0" x1="19.6439514" y1="65.8276062" x2="19.6439514" y2="36.3326111"/>
<line class="st0" x1="28.2804565" y1="86.0592041" x2="28.2804565" y2="80.0662231"/>
<line class="st0" x1="28.2804565" y1="27.7051086" x2="28.2804565" y2="19.8521118"/>
<line class="st0" x1="28.2804565" y1="65.9837036" x2="28.2804565" y2="35.8017273"/>
<line class="st0" x1="36.9171448" y1="86.0592041" x2="36.9171448" y2="19.8522034"/>
<line class="st0" x1="45.553833" y1="86.0592041" x2="45.553833" y2="19.8522034"/>
<line class="st0" x1="54.1905518" y1="86.0592041" x2="54.1905518" y2="19.8522034"/>
<line class="st0" x1="61.1178589" y1="68.7858887" x2="29.6338501" y2="68.7858887"/>
<line class="st0" x1="59.4534302" y1="51.5125122" x2="10.2914124" y2="51.5125122"/>
<line class="st0" x1="59.4534302" y1="34.2392883" x2="30.0864258" y2="34.2392883"/>
<line class="st0" x1="10.8772583" y1="34.2392883" x2="10.2912292" y2="34.2392883"/>
<line class="st0" x1="230.9761353" y1="191.5061951" x2="235.2041016" y2="191.5061951"/>
<line class="st0" x1="187.0731506" y1="191.5061951" x2="229.7171326" y2="191.5061951"/>
<line class="st0" x1="13.5300293" y1="208.7796021" x2="235.2039795" y2="208.7796021"/>
<line class="st0" x1="13.5300293" y1="226.0527954" x2="235.2039795" y2="226.0527954"/>
<line class="st0" x1="98.612854" y1="243.3262024" x2="188.5128479" y2="243.3262024"/>
<line class="st0" x1="189.7720337" y1="243.3262024" x2="235.2039795" y2="243.3262024"/>
<line class="st0" x1="187.0731506" y1="260.5993958" x2="188.512146" y2="260.5993958"/>
<line class="st0" x1="189.7720337" y1="260.5993958" x2="235.2039795" y2="260.5993958"/>
<line class="st0" x1="14.3398438" y1="232.0980988" x2="14.3398438" y2="191.5061035"/>
<line class="st0" x1="31.6131592" y1="234.3993988" x2="31.6131592" y2="191.5064087"/>
<line class="st0" x1="48.8864441" y1="236.7008057" x2="48.8864441" y2="191.5058136"/>
<line class="st0" x1="66.1598511" y1="239.0021973" x2="66.1598511" y2="191.5062103"/>
<line class="st0" x1="83.433136" y1="241.3036041" x2="83.433136" y2="191.5066071"/>
<line class="st0" x1="100.7064514" y1="243.6051025" x2="100.7064514" y2="191.5061035"/>
<line class="st0" x1="117.9797363" y1="245.9064941" x2="117.9797363" y2="191.5065002"/>
<line class="st0" x1="135.2531433" y1="248.207901" x2="135.2531433" y2="191.5059052"/>
<line class="st0" x1="152.5264587" y1="250.5093994" x2="152.5264587" y2="191.5064087"/>
<line class="st0" x1="169.7997437" y1="252.8108063" x2="169.7997437" y2="191.5058136"/>
<line class="st0" x1="187.0731506" y1="255.1121979" x2="187.0731506" y2="191.5062103"/>
<line class="st0" x1="204.346344" y1="265.5079041" x2="204.346344" y2="175.7619019"/>
<line class="st0" x1="221.619751" y1="265.5079041" x2="221.619751" y2="175.7619019"/>
<polygon class="st1" points="13.5300293,220.6549988 0.125,220.6549988 0.125,9.4169922 203.3600159,9.4169922 
	203.3600159,11.0360107 204.8000183,11.0360107 204.8000183,14.6350098 203.3600159,14.6350098 203.3600159,18.1430054 
	179.1110229,18.1430054 179.1110229,19.6730042 175.7820129,19.6730042 175.7820129,18.1430054 65.5710144,18.1430054 
	65.5710144,43.9630127 67.3700256,43.9630127 67.3700256,52.4200134 62.7820129,52.4200134 62.7820129,55.2990112 
	59.4530029,55.2990112 59.4530029,19.8529968 10.2910156,19.8529968 10.2910156,86.059021 59.4530029,86.059021 
	59.4530029,79.7690125 62.7820129,79.7690125 62.7820129,109.9900208 51.2460022,109.9900208 51.2460022,106.6610107 
	59.4530029,106.6610107 59.4530029,89.3880005 10.2910156,89.3880005 10.2910156,106.6610107 16.6990051,106.6610107 
	16.6990051,109.9900208 10.2910156,109.9900208 10.2910156,184.2190094 14.2610168,184.2190094 14.2610168,188.2680054 
	13.5300293,188.2680054 "/>
<polygon class="st1" points="71.8389587,184.2189941 71.8279419,188.2669983 72.546936,188.2669983 72.546936,191.5059967 
	187.072937,191.5059967 187.072937,171.3540039 187.7929382,171.3540039 187.7929382,167.3050232 179.7859497,167.3050232 
	179.7859497,178.6410065 110.6929321,178.6410065 110.6929321,184.2189941 "/>
<rect x="200.7478638" y="167.3049927" class="st1" width="4.3179932" height="8.4570007"/>
<polygon class="st1" points="230.9761353,167.3055115 230.9761353,175.7625122 235.2041016,175.7625122 235.2041016,220.6545105 
	241.7720947,220.6545105 241.7720947,9.4165039 230.7091064,9.4165039 230.7091064,11.0355225 229.2701111,11.0355225 
	229.2701111,14.6345215 230.7091064,14.6345215 230.7091064,18.1435242 232.9550781,18.1435242 232.9550781,104.4615173 
	230.0761108,104.4615173 230.0761108,107.7895203 232.9550781,107.7895203 232.9550781,125.0635376 201.2871094,125.0635376 
	201.2871094,107.7895203 204.1661072,107.7895203 204.1661072,104.4615173 201.2871094,104.4615173 201.2871094,101.9415283 
	195.1701355,101.9415283 195.1701355,131.1805115 232.9550781,131.1805115 232.9550781,167.3055115 "/>
<polygon class="st1" points="88.9621582,43.9631042 88.9621582,52.420105 195.1701355,52.420105 195.1701355,77.4711304 
	201.2871399,77.4711304 201.2871399,43.9631042 179.111145,43.9631042 179.111145,42.7041321 175.782135,42.7041321 
	175.782135,43.9631042 "/>
<rect x="202.9068298" y="62.5369873" class="st2" width="1.0799866" height="8.8160095"/>
<polyline class="st2" points="106.3724365,20.3023987 138.0424194,20.3023987 138.0424194,19.2224121 106.0834351,19.2224121 "/>
<line class="st3" x1="201.2875366" y1="117.8656921" x2="203.4295349" y2="117.8656921"/>
<line class="st4" x1="205.5360413" y1="117.8656921" x2="229.7600403" y2="117.8656921"/>
<line class="st3" x1="230.8132324" y1="117.8656921" x2="232.9552002" y2="117.8656921"/>
<line class="st3" x1="59.4534302" y1="96.5852051" x2="57.3114014" y2="96.5852051"/>
<line class="st5" x1="55.2715454" y1="96.5852051" x2="13.4535217" y2="96.5852051"/>
<line class="st3" x1="12.4334412" y1="96.5852051" x2="10.2914124" y2="96.5852051"/>
<line class="st2" x1="187.0731506" y1="171.3539124" x2="200.7481384" y2="171.3539124"/>
<line class="st2" x1="187.0731506" y1="174.5927124" x2="200.7481384" y2="174.5927124"/>
<line class="st2" x1="13.5300293" y1="188.2675018" x2="72.5470276" y2="188.2675018"/>
<line class="st2" x1="13.5300293" y1="191.5061951" x2="72.5470276" y2="191.5061951"/>
<rect x="229.7168274" y="175.7619934" class="st2" width="1.2590027" height="25.9100037"/>
<path class="st2" d="M205.0662537,175.7622986c0,14.3100128,11.5999756,25.9100037,25.9099426,25.9100037"/>
<rect x="228.0108337" y="14.6340027" class="st2" width="1.2590027" height="24.4710083"/>
<path class="st2" d="M204.79953,14.634613c0,13.5150146,10.9559937,24.4710083,24.4709778,24.4710083"/>
<rect x="188.5128479" y="242.477005" class="st2" width="1.2590027" height="23.0309906"/>
<path class="st2" d="M211.5436401,265.5079041c0-12.719986-10.3110046-23.0309906-23.0310059-23.0309906"/>
<path class="st2" d="M217.1215515,104.4609985c0-2.2739868-0.5990295-4.5079956-1.7360229-6.4779968"/>
<path class="st2" d="M218.8571472,97.9833984c-1.1370239,1.9690247-1.7360229,4.2030029-1.7360229,6.4780273"/>
<rect x="203.6134491" y="101.1376114" transform="matrix(0.8660018 -0.5000409 0.5000409 0.8660018 -22.7361202 118.6907196)" class="st6" width="12.9549408" height="1.2598343"/>
<rect x="223.5220795" y="95.2900009" transform="matrix(0.5000399 -0.8660024 0.8660024 0.5000399 23.9361839 244.9958496)" class="st6" width="1.2598419" height="12.9549561"/>
<rect x="72.433342" y="49.7265511" transform="matrix(0.4999944 -0.8660287 0.8660287 0.4999944 -17.1285706 94.2560806)" class="st7" width="1.259842" height="24.4703083"/>
<path class="st2" d="M62.7822571,79.7694092c8.742981,0,16.8209839-4.6639709,21.1919861-12.2349854"/>
<rect x="179.1108398" y="19.6730042" class="st2" width="23.0310059" height="1.2590027"/>
<path class="st2" d="M179.111145,42.7036133c12.7199707,0,23.0309753-10.3109741,23.0309753-23.0309753"/>
<rect x="187.0738525" y="265.5079956" class="st2" width="1.4389954" height="1.4389954"/>
<rect x="211.5438538" y="265.5079956" class="st2" width="23.6609802" height="1.4389954"/>
<line class="st2" x1="201.2875366" y1="63.976593" x2="202.9065247" y2="63.976593"/>
<line class="st2" x1="203.9864502" y1="63.976593" x2="232.9554443" y2="63.976593"/>
<line class="st2" x1="201.2875366" y1="69.9142151" x2="202.9065247" y2="69.9142151"/>
<line class="st2" x1="203.9864502" y1="69.9142151" x2="232.9554443" y2="69.9142151"/>
<line class="st2" x1="138.0420532" y1="43.9631042" x2="138.0420532" y2="18.1431274"/>
<line class="st2" x1="116.4504395" y1="43.9631042" x2="116.4504395" y2="20.302124"/>
<line class="st2" x1="116.4504395" y1="19.2228088" x2="116.4504395" y2="18.1428223"/>
<line class="st2" x1="109.2531433" y1="32.383606" x2="109.2531433" y2="31.0536194"/>
<line class="st2" x1="109.2531433" y1="29.7228088" x2="109.2531433" y2="20.3028259"/>
<line class="st2" x1="109.2531433" y1="19.2228088" x2="109.2531433" y2="18.1428223"/>
<polyline class="st2" points="105.7938538,18.1430969 108.8678284,29.6141052 111.4118347,30.3330994 107.0938416,31.7731018 
	109.6388245,32.493103 112.7128296,43.9631042 "/>
<line class="st2" x1="130.8447571" y1="43.9631042" x2="130.8447571" y2="20.302124"/>
<line class="st2" x1="130.8447571" y1="19.2228088" x2="130.8447571" y2="18.1428223"/>
<line class="st2" x1="123.6475525" y1="43.9631042" x2="123.6475525" y2="20.302124"/>
<line class="st2" x1="123.6475525" y1="19.2228088" x2="123.6475525" y2="18.1428223"/>
<rect x="76.4050369" y="46.4765015" transform="matrix(0.5000057 -0.8660221 0.8660221 0.5000057 -11.0821333 95.3498459)" class="st8" width="1.259819" height="21.5918045"/>
<path class="st2" d="M86.0693359,63.2156982c1.894989-3.2819824,2.8929749-7.0059814,2.8929749-10.79599"/>
<rect x="16.6998291" y="109.9899902" class="st2" width="1.2600098" height="17.2730103"/>
<rect x="49.9868469" y="109.9899902" class="st2" width="1.2600098" height="17.2730103"/>
<path class="st2" d="M16.6994324,127.2633057c9.539978,0,17.2729797-7.7339783,17.2729797-17.2729797"/>
<path class="st2" d="M33.9728394,109.9901123c0,9.5400085,7.7339783,17.2730103,17.2729797,17.2730103"/>
<rect x="199.333374" y="94.6490021" transform="matrix(0.8660292 -0.4999934 0.4999934 0.8660292 -19.2948265 118.5474625)" class="st2" width="24.4703064" height="1.2598267"/>
<path class="st2" d="M222.4797363,89.706604c-4.3710022-7.5709839-12.4500122-12.2349854-21.1920166-12.2349854"/>
<rect x="187.0728455" y="171.3540039" class="st2" width="1.4389954" height="3.2390137"/>
<rect x="199.3088379" y="171.3540039" class="st2" width="1.4389954" height="3.2390137"/>
<line class="st2" x1="188.5125427" y1="173.8728943" x2="199.3085327" y2="173.8728943"/>
<line class="st2" x1="188.5125427" y1="173.1531982" x2="199.3085327" y2="173.1531982"/>
<line class="st2" x1="187.7928467" y1="167.3055115" x2="200.7478333" y2="167.3055115"/>
<rect x="13.5298462" y="188.2669983" class="st2" width="1.4389954" height="3.2389984"/>
<rect x="71.1078491" y="188.2669983" class="st2" width="1.4389954" height="3.2389984"/>
<rect x="30.0838318" y="188.2669983" class="st2" width="1.4389954" height="3.2389984"/>
<line class="st2" x1="14.9695435" y1="190.786499" x2="30.0835266" y2="190.786499"/>
<line class="st2" x1="14.9695435" y1="190.066803" x2="30.0835266" y2="190.066803"/>
<line class="st2" x1="31.5231323" y1="190.786499" x2="71.1081238" y2="190.786499"/>
<line class="st2" x1="31.5231323" y1="190.066803" x2="71.1081238" y2="190.066803"/>
<line class="st2" x1="14.2498474" y1="184.2189941" x2="71.8388367" y2="184.2189941"/>
<rect x="121.3608398" y="89.8460083" class="st2" width="24.4490051" height="15.7730103"/>
<ellipse class="st2" cx="172.4626465" cy="62.4960136" rx="5.7579956" ry="5.7580004"/>
<path class="st2" d="M170.9838562,62.4960022c0-0.8169861,0.6619873-1.4789734,1.4789734-1.4789734
	c0.8160095,0,1.4779968,0.6619873,1.4779968,1.4789734c0,0.8170166-0.6619873,1.4790039-1.4779968,1.4790039
	C171.6458435,63.9750061,170.9838562,63.3130188,170.9838562,62.4960022z"/>
<line class="st2" x1="178.2202454" y1="62.4960022" x2="173.9412231" y2="62.4960022"/>
<line class="st2" x1="170.9838562" y1="62.4960022" x2="166.704834" y2="62.4960022"/>
<line class="st2" x1="172.4625549" y1="68.2539062" x2="172.4625549" y2="63.9749146"/>
<line class="st2" x1="172.4625549" y1="61.0173035" x2="172.4625549" y2="56.7383118"/>
<rect x="165.2528381" y="55.2990112" class="st2" width="14.4200134" height="20.1610107"/>
<rect x="125.0878296" y="170.0050049" class="st2" width="40.3040161" height="8.6369934"/>
<rect x="11.7298584" y="136.7170105" class="st2" width="17.2730103" height="46.0619965"/>
<rect x="16.3258362" y="151.1119995" class="st2" width="1.0799866" height="17.2730103"/>
<rect x="22.6428528" y="152.446991" class="st2" width="4.3179932" height="14.3940125"/>
<polyline class="st2" points="16.3254395,157.049408 14.7064209,157.049408 14.7064209,162.4474182 16.3254395,162.4474182 "/>
<line class="st2" x1="35.4811401" y1="153.4508972" x2="29.0031128" y2="153.4508972"/>
<polyline class="st2" points="17.4050293,162.4473877 19.0240173,162.4473877 19.0240173,157.049408 17.4050293,157.049408 "/>
<line class="st2" x1="35.4811401" y1="166.04599" x2="29.0031128" y2="166.04599"/>
<rect x="35.480835" y="152.7309875" class="st2" width="1.0799866" height="14.0350037"/>
<path class="st2" d="M23.9155579,148.8772888c-0.3160095,0.0920105-0.4980164,0.4230042-0.4060059,0.7390137
	c0.0910034,0.3110046,0.4129944,0.4920044,0.7259827,0.4089966c0.5350037-0.1430054,1.0830078-0.2279968,1.6350098-0.2550049
	c0.2590027-0.0130005,0.4580078-0.2330017,0.4459839-0.4909973c-0.0089722-0.1929932-0.1349792-0.3599854-0.3179932-0.4219971
	C25.3225403,148.6282959,24.5875549,148.6353149,23.9155579,148.8772888z"/>
<line class="st2" x1="163.8132324" y1="53.859314" x2="103.3562317" y2="53.859314"/>
<line class="st2" x1="103.3565369" y1="76.8904114" x2="103.3565369" y2="53.859436"/>
<line class="st2" x1="163.8132324" y1="76.8904114" x2="163.8132324" y2="53.859436"/>
<line class="st2" x1="160.9342346" y1="76.8904114" x2="160.9342346" y2="57.4584351"/>
<line class="st2" x1="163.8132324" y1="56.7383118" x2="103.3562317" y2="56.7383118"/>
<line class="st2" x1="163.8132324" y1="76.8904114" x2="103.3562317" y2="76.8904114"/>
<line class="st2" x1="142.701355" y1="76.8904114" x2="142.701355" y2="58.1774292"/>
<line class="st2" x1="124.4683533" y1="76.8904114" x2="124.4683533" y2="58.1774292"/>
<line class="st2" x1="160.9342346" y1="58.1777954" x2="106.2352295" y2="58.1777954"/>
<line class="st2" x1="103.3565369" y1="57.4580078" x2="106.2355347" y2="57.4580078"/>
<line class="st2" x1="163.8132324" y1="57.4580078" x2="160.9342041" y2="57.4580078"/>
<line class="st2" x1="106.2353516" y1="76.8904114" x2="106.2353516" y2="57.4584351"/>
<path class="st2" d="M142.5893555,131.5130005c1.5429993,5.7590027,7.4629822,9.177002,13.2219849,7.6340027
	c5.7590027-1.5439758,9.177002-7.4629822,7.6340027-13.2219849"/>
<path class="st2" d="M145.3702393,130.7677002c1.1319885,4.2240295,5.4729919,6.730011,9.6959839,5.5980225
	c4.223999-1.131012,6.730011-5.4730225,5.5979919-9.6960144"/>
<line class="st2" x1="145.3702393" y1="130.7677002" x2="142.5762329" y2="120.3397217"/>
<line class="st2" x1="157.8703308" y1="116.2417908" x2="160.6643066" y2="126.6697998"/>
<line class="st2" x1="142.5893555" y1="131.5130005" x2="139.7953491" y2="121.085022"/>
<line class="st2" x1="139.7951355" y1="121.0848999" x2="160.651123" y2="115.4969177"/>
<line class="st2" x1="160.6511536" y1="115.4966125" x2="163.4451294" y2="125.9246216"/>
<path class="st2" d="M144.9975586,129.3774109c1.1319885,4.2240295,5.4729919,6.730011,9.6959839,5.5980225
	c4.223999-1.132019,6.730011-5.4730225,5.5979919-9.6960144"/>
<rect x="130.1258545" y="175.0419922" class="st2" width="30.2279968" height="0.7200012"/>
<polyline class="st2" points="140.9209595,175.042511 140.9209595,172.1635132 149.5579529,172.1635132 149.5579529,175.042511 "/>
<polyline class="st2" points="149.5576477,175.7622986 149.5576477,177.2013245 140.9206238,177.2013245 140.9206238,175.7622986 
	"/>
<path class="st2" d="M75.2718506,175.8552856c4.2159729,4.2160034,11.0519714,4.2160034,15.2669983,0
	c4.21698-4.2159729,4.21698-11.0519714,0-15.2679749"/>
<path class="st2" d="M77.3075562,173.8197021c3.09198,3.0920105,8.1039734,3.0920105,11.1959839,0
	c3.0920105-3.09198,3.0920105-8.1039734,0-11.1959839"/>
<line class="st2" x1="88.5036316" y1="162.6234131" x2="80.8696289" y2="154.9894409"/>
<line class="st2" x1="69.6735535" y1="166.185791" x2="77.3075256" y2="173.8197937"/>
<line class="st2" x1="90.5393372" y1="160.5877075" x2="82.9053345" y2="152.9537354"/>
<line class="st2" x1="82.9055481" y1="152.9538879" x2="67.6375427" y2="168.2218933"/>
<line class="st2" x1="67.6379395" y1="168.2215881" x2="75.2719116" y2="175.8555908"/>
<path class="st2" d="M76.2895508,172.8017883c3.09198,3.0920105,8.1039734,3.0920105,11.1959839,0
	c3.0920105-3.09198,3.0920105-8.1039734,0-11.1959839"/>
<path class="st2" d="M103.7244568,125.9245911c-1.5430298,5.7590027,1.875,11.6790161,7.6339722,13.2220154
	c5.7590027,1.5429993,11.6790161-1.8739929,13.2220154-7.6340027"/>
<path class="st2" d="M106.5051575,126.6697083c-1.132019,4.2230225,1.375,8.5650024,5.5979919,9.6960144
	c4.223999,1.1319885,8.5650024-1.3739929,9.6959839-5.5979919"/>
<line class="st2" x1="121.79953" y1="130.7677002" x2="124.5935059" y2="120.3397217"/>
<line class="st2" x1="109.2993469" y1="116.2417908" x2="106.5053406" y2="126.6697998"/>
<line class="st2" x1="124.5804443" y1="131.5130005" x2="127.3744202" y2="121.085022"/>
<line class="st2" x1="127.3744507" y1="121.0848999" x2="106.5184326" y2="115.4969177"/>
<line class="st2" x1="106.5186462" y1="115.4966125" x2="103.7246399" y2="125.9246216"/>
<path class="st2" d="M106.8777466,125.2793884c-1.132019,4.2230225,1.375,8.5640259,5.5979919,9.6960144
	s8.5650024-1.3739929,9.6959839-5.5979919"/>
<line class="st2" x1="19.2397461" y1="73.487915" x2="15.8247375" y2="73.487915"/>
<path class="st2" d="M19.2397461,73.487915c0.1409912,0,0.2549744-0.1139832,0.2549744-0.2549744"/>
<path class="st2" d="M19.494751,72.8168945c0-0.1409912-0.1140137-0.2549744-0.2550049-0.2549744"/>
<line class="st2" x1="19.494751" y1="73.2329102" x2="19.494751" y2="72.816925"/>
<path class="st2" d="M15.7534485,72.6487122c0.071991,0.0820007,0.1759949,0.1280212,0.2849731,0.1280212"/>
<path class="st2" d="M16.0386353,73.2728882c-0.1090088,0-0.2130127,0.0470276-0.2850037,0.1280212"/>
<line class="st2" x1="17.644043" y1="73.2728882" x2="16.039032" y2="73.2728882"/>
<line class="st2" x1="16.0386353" y1="72.7770996" x2="17.6436157" y2="72.7770996"/>
<path class="st2" d="M17.7858582,72.9189148c0-0.0779724-0.0640259-0.1419983-0.1420288-0.1419983"/>
<line class="st2" x1="17.7858582" y1="73.1308899" x2="17.7858582" y2="72.9189148"/>
<path class="st2" d="M15.5568542,72.5057983c0.0839844,0.0370178,0.1759949,0.0560303,0.2679749,0.0560303"/>
<path class="st2" d="M15.824646,73.487915c-0.0920105,0-0.1830139,0.0190125-0.2680054,0.0560303"/>
<line class="st2" x1="15.8244324" y1="72.5618896" x2="19.2394104" y2="72.5618896"/>
<path class="st2" d="M15.8313293,72.5618896c-0.256012-0.2769775-0.6880188-0.2949829-0.9650269-0.0389709
	c-0.2769775,0.2559814-0.2939758,0.6879883-0.0390015,0.9649963c0.256012,0.2769775,0.6880188,0.2949829,0.9650269,0.0390015
	c0.0139771-0.0120239,0.0269775-0.026001,0.0390015-0.0390015"/>
<path class="st2" d="M15.7534485,72.6487122c-0.2080078-0.2339783-0.5660095-0.2559814-0.8000183-0.0479736
	c-0.2340088,0.2079773-0.256012,0.565979-0.0480042,0.7999878s0.5660095,0.256012,0.8000183,0.0480042
	c0.0169983-0.0150146,0.0329895-0.0310059,0.0480042-0.0480042"/>
<path class="st2" d="M17.644043,73.2728882c0.0779724,0,0.1419983-0.0639954,0.1419983-0.1419983"/>
<line class="st2" x1="26.1386414" y1="65.8276062" x2="27.4746399" y2="65.8276062"/>
<line class="st2" x1="27.4747314" y1="80.2221985" x2="26.1387024" y2="80.2221985"/>
<path class="st2" d="M26.9144592,78.4071045c0.2979736,0.0110168,0.5489807-0.2209778,0.5599976-0.5189819
	c0-0.0069885,0-0.0140076,0-0.019989"/>
<path class="st2" d="M19.6553345,77.1843872c2.3569946,0.7180176,4.7969971,1.1290283,7.2589722,1.2230225"/>
<path class="st2" d="M19.6553345,68.865387c-1.6670227,0.5080261-2.8700256,1.9630127-3.0560303,3.6970215"/>
<path class="st2" d="M16.5996399,73.487915c0.1859741,1.7330017,1.38797,3.1880188,3.0559998,3.6970215"/>
<path class="st2" d="M26.9144592,67.6427002c-2.4620056,0.0930176-4.9020081,0.5040283-7.2590027,1.2230225"/>
<path class="st2" d="M27.4747314,68.1820984c0-0.2979736-0.2420044-0.539978-0.5400085-0.539978
	c-0.007019,0-0.0130005,0-0.0200195,0.0010071"/>
<line class="st2" x1="27.4747314" y1="68.1820984" x2="27.4747314" y2="77.868103"/>
<path class="st2" d="M10.2914429,80.2221985h17.1829834c1.1929932,0,2.1589966-0.96698,2.1589966-2.1589966V67.9872131
	c0-1.1929932-0.9660034-2.1600037-2.1589966-2.1600037H10.2914429V80.2221985z"/>
<path class="st2" d="M17.938446,72.3052063c-0.2130127,0-0.4140015,0.0940247-0.5510254,0.257019"/>
<path class="st2" d="M17.3873291,73.487915c0.1369934,0.1630249,0.3389893,0.257019,0.5509949,0.257019"/>
<path class="st2" d="M17.938446,73.7445984c0.2129822,0,0.4139709-0.0939941,0.5509949-0.2569885"/>
<path class="st2" d="M18.4894409,72.5618896c-0.1370239-0.1629944-0.3390198-0.2569885-0.5510254-0.2569885"/>
<path class="st2" d="M26.4064331,77.9559937c0.190979-0.0109863,0.3389893-0.1679993,0.3389893-0.3589783"/>
<path class="st2" d="M20.7794495,77.5021057c1.8469849,0.401001,3.7399902,0.553009,5.6269836,0.45401"/>
<path class="st2" d="M19.6904297,68.8576965c-0.1270142,0.0370178-0.2520142,0.0800171-0.375,0.1280212"/>
<path class="st2" d="M19.3166504,77.0645142c0.1229858,0.0480042,0.2469788,0.0910034,0.3739929,0.1280212"/>
<path class="st2" d="M26.4064331,68.093811c-1.8870239-0.098999-3.7800293,0.053009-5.6270142,0.45401"/>
<path class="st2" d="M26.7457581,68.4530945c0-0.190979-0.1490173-0.3479919-0.3390198-0.3589783"/>
<line class="st2" x1="26.7457581" y1="77.5967102" x2="26.7457581" y2="68.4527283"/>
<path class="st2" d="M20.9521484,36.5100098c0.9229736,0.2750244,1.8819885,0.4150085,2.8459778,0.4150085"/>
<path class="st2" d="M18.711731,35.4100952c0.6799927,0.4890137,1.4379883,0.8610229,2.2399902,1.1000061"/>
<path class="st2" d="M18.0311584,34.8344116c0.2109985,0.2090149,0.4389954,0.4020081,0.6809998,0.5760193"/>
<path class="st2" d="M23.7979431,36.9248047c0.9639893,0,1.9219971-0.1399841,2.8459778-0.414978
	c0.803009-0.2390137,1.5599976-0.6109924,2.2400208-1.1000061c0.6539917-0.4700012,1.2009888-1.0750122,1.6029968-1.7730103
	c0.3299866-0.572998,0.5039978-1.2219849,0.5039978-1.8840027c0-0.6609802-0.1740112-1.3099976-0.5039978-1.8829956
	c-0.4020081-0.697998-0.9490051-1.3029785-1.6029968-1.7729797c-0.6800232-0.4890137-1.4370117-0.8610229-2.2400208-1.1000061
	c-0.9239807-0.2749939-1.8819885-0.4150085-2.8459778-0.4150085c-0.9640198,0-1.9220276,0.1400146-2.8460083,0.4150085
	c-0.803009,0.2389832-1.5599976,0.6109924-2.2400208,1.1000061c-0.2419739,0.1729736-0.4689941,0.3659973-0.6809998,0.5749817
	v6.1629944"/>
<path class="st2" d="M14.7474365,35.8037109c2.2979736,0.1360168,4.5849915,0.428009,6.8439941,0.8740234"/>
<path class="st2" d="M15.5536499,29.7479858c-0.0990295-0.5149841-0.2620239-1.0159912-0.4840088-1.4909973
	c-0.2600098-0.5579834-0.6620178-1.039978-1.1650085-1.3959961c-0.1919861-0.1369934-0.4320068-0.1889954-0.6629944-0.144989
	l-2.125,0.4069824c-0.1390076,0.0270081-0.2390137,0.1480103-0.2390137,0.2890015v8.6820068
	c0,0.1410217,0.1000061,0.2630005,0.2390137,0.2890015l2.125,0.4070129
	c0.2309875,0.0440063,0.4710083-0.0079956,0.6629944-0.1440125c0.5029907-0.3569946,0.9049988-0.8379822,1.1650085-1.3970032
	c0.2219849-0.4750061,0.3849792-0.9750061,0.4840088-1.4899902c0.1279907-0.6610107,0.1919861-1.3330078,0.1919861-2.006012
	S15.6816406,30.4089966,15.5536499,29.7479858z"/>
<path class="st2" d="M14.7474365,27.7029114c2.2979736-0.1359863,4.5849915-0.4279785,6.8439941-0.8739929"/>
<path class="st2" d="M12.9805298,31.7532959c0-0.2979736,0.2419739-0.539978,0.539978-0.539978
	s0.5400085,0.2420044,0.5400085,0.539978c0,0.2980042-0.2420044,0.5400085-0.5400085,0.5400085
	S12.9805298,32.0513,12.9805298,31.7532959z"/>
<polygon class="st2" points="181.3152466,267.0372925 181.3152466,260.1533203 0.1252441,236.0122986 0.1252441,230.2042999 
	187.0732422,255.1123047 187.0732422,267.0372925 "/>
<polygon class="st2" points="240.9622192,267.0372925 235.2041626,267.0372925 235.2041626,230.4562988 240.9622192,231.2232971 "/>
<line class="st2" x1="232.9553223" y1="114.9867859" x2="201.287323" y2="114.9867859"/>
<line class="st2" x1="10.2914429" y1="99.4639893" x2="59.4534302" y2="99.4639893"/>
<polygon class="st2" points="13.5300293,220.6549988 0.125,220.6549988 0.125,9.4169922 203.3600159,9.4169922 
	203.3600159,11.0360107 204.8000183,11.0360107 204.8000183,14.6350098 203.3600159,14.6350098 203.3600159,18.1430054 
	179.1110229,18.1430054 179.1110229,19.6730042 175.7820129,19.6730042 175.7820129,18.1430054 65.5710144,18.1430054 
	65.5710144,43.9630127 67.3700256,43.9630127 67.3700256,52.4200134 62.7820129,52.4200134 62.7820129,55.2990112 
	59.4530029,55.2990112 59.4530029,19.8529968 10.2910156,19.8529968 10.2910156,86.059021 59.4530029,86.059021 
	59.4530029,79.7690125 62.7820129,79.7690125 62.7820129,109.9900208 51.2460022,109.9900208 51.2460022,106.6610107 
	59.4530029,106.6610107 59.4530029,89.3880005 10.2910156,89.3880005 10.2910156,106.6610107 16.6990051,106.6610107 
	16.6990051,109.9900208 10.2910156,109.9900208 10.2910156,184.2190094 14.2610168,184.2190094 14.2610168,188.2680054 
	13.5300293,188.2680054 "/>
<polygon class="st2" points="71.8389587,184.2189941 71.8279419,188.2669983 72.546936,188.2669983 72.546936,191.5059967 
	187.072937,191.5059967 187.072937,171.3540039 187.7929382,171.3540039 187.7929382,167.3050232 179.7859497,167.3050232 
	179.7859497,178.6410065 110.6929321,178.6410065 110.6929321,184.2189941 "/>
<rect x="200.7478638" y="167.3049927" class="st2" width="4.3179932" height="8.4570007"/>
<polygon class="st2" points="230.9761353,167.3055115 230.9761353,175.7625122 235.2041016,175.7625122 235.2041016,220.6545105 
	241.7720947,220.6545105 241.7720947,9.4165039 230.7091064,9.4165039 230.7091064,11.0355225 229.2701111,11.0355225 
	229.2701111,14.6345215 230.7091064,14.6345215 230.7091064,18.1435242 232.9550781,18.1435242 232.9550781,104.4615173 
	230.0761108,104.4615173 230.0761108,107.7895203 232.9550781,107.7895203 232.9550781,125.0635376 201.2871094,125.0635376 
	201.2871094,107.7895203 204.1661072,107.7895203 204.1661072,104.4615173 201.2871094,104.4615173 201.2871094,101.9415283 
	195.1701355,101.9415283 195.1701355,131.1805115 232.9550781,131.1805115 232.9550781,167.3055115 "/>
<polygon class="st2" points="88.9621582,43.9631042 88.9621582,52.420105 195.1701355,52.420105 195.1701355,77.4711304 
	201.2871399,77.4711304 201.2871399,43.9631042 179.111145,43.9631042 179.111145,42.7041321 175.782135,42.7041321 
	175.782135,43.9631042 "/>
<path class="st2" d="M217.1213379,68.6907043c0.6759949,0,1.223999,0.5480042,1.223999,1.2240295
	c0,0.6749878-0.5480042,1.2229919-1.223999,1.2229919c-0.6760254,0-1.2230225-0.5480042-1.2230225-1.2229919
	C215.8983154,69.2387085,216.4453125,68.6907043,217.1213379,68.6907043v1.2240295v-5.9380188l1.1129761,3.0580139h-1.1129761"/>
<path class="st2" d="M136.6026306,31.0534058c0-0.7949829,0.6439819-1.4399719,1.4389954-1.4399719
	c0.7949829,0,1.4400024,0.644989,1.4400024,1.4399719c0,0.7950134-0.6450195,1.4390259-1.4400024,1.4390259
	C137.2466125,32.4924316,136.6026306,31.8484192,136.6026306,31.0534058h1.4389954h-21.5910034l3.5979919-1.3099976v1.3099976"/>
<line class="st2" x1="230.9761353" y1="175.7622986" x2="205.0661316" y2="175.7622986"/>
<line class="st2" x1="230.9761353" y1="167.3055115" x2="205.0661316" y2="167.3055115"/>
<line class="st2" x1="229.2701416" y1="14.634613" x2="204.7991333" y2="14.634613"/>
<line class="st2" x1="229.2701416" y1="11.0358887" x2="204.7991333" y2="11.0358887"/>
<line class="st2" x1="188.5125427" y1="265.5079041" x2="211.5435181" y2="265.5079041"/>
<line class="st2" x1="188.5125427" y1="266.9472961" x2="211.5435181" y2="266.9472961"/>
<g>
	<path class="st9" d="M112.1624146,218.1591797h-0.7578125v1.1005859h-0.3515625v-3.1191406h1.1669922
		c0.7041016,0,1.1669922,0.375,1.1669922,0.9941406C113.3870239,217.8115234,112.8264771,218.1591797,112.1624146,218.1591797z
		 M112.1936646,216.4658203h-0.7890625v1.3730469h0.7705078c0.5175781,0,0.8554688-0.2763672,0.8554688-0.6914062
		C113.0305786,216.6982422,112.6965942,216.4658203,112.1936646,216.4658203z"/>
	<path class="st9" d="M116.9202271,219.2597656h-0.3779297l-0.3652344-0.8242188h-1.6982422l-0.3701172,0.8242188h-0.3603516
		l1.4208984-3.1416016h0.3300781L116.9202271,219.2597656z M115.3303833,216.5283203l-0.7128906,1.5908203h1.4208984
		L115.3303833,216.5283203z"/>
	<path class="st9" d="M118.5745239,219.2597656h-0.3564453v-2.7939453h-1.046875v-0.3251953h2.4501953v0.3251953h-1.046875
		V219.2597656z"/>
	<path class="st9" d="M120.8557739,216.140625v3.1191406h-0.3515625v-3.1191406H120.8557739z"/>
	<path class="st9" d="M123.4465942,219.3134766c-0.9482422,0-1.5859375-0.7441406-1.5859375-1.6083984
		s0.6464844-1.6171875,1.5957031-1.6171875c0.9482422,0,1.5859375,0.7431641,1.5859375,1.6083984
		C125.0422974,218.5605469,124.395813,219.3134766,123.4465942,219.3134766z M123.4465942,216.4130859
		c-0.7128906,0-1.2207031,0.5703125-1.2207031,1.2832031s0.5175781,1.2919922,1.2304688,1.2919922
		s1.2207031-0.5703125,1.2207031-1.2832031S124.1594849,216.4130859,123.4465942,216.4130859z"/>
</g>
<g>
	<path class="st9" d="M128.020813,96.3007812h0.2900391l0.8554688,2.6064453l0.890625-2.5976562h0.3701172l-1.1142578,3.1416016
		h-0.2978516l-0.8554688-2.53125l-0.8603516,2.53125h-0.2939453l-1.1142578-3.1416016h0.3837891l0.890625,2.5976562
		L128.020813,96.3007812z"/>
	<path class="st9" d="M132.6321411,99.4824219c-0.9492188,0-1.5869141-0.7441406-1.5869141-1.6083984
		s0.6464844-1.6181641,1.5957031-1.6181641c0.9482422,0,1.5859375,0.7441406,1.5859375,1.609375
		C134.2268677,98.7294922,133.5803833,99.4824219,132.6321411,99.4824219z M132.6321411,96.5820312
		c-0.7128906,0-1.2216797,0.5703125-1.2216797,1.2832031s0.5175781,1.2919922,1.2304688,1.2919922
		s1.2207031-0.5703125,1.2207031-1.2832031S133.3450317,96.5820312,132.6321411,96.5820312z"/>
	<path class="st9" d="M137.3782349,99.4287109l-0.9042969-1.2119141h-0.8916016v1.2119141h-0.3515625v-3.1191406h1.3408203
		c0.6865234,0,1.1269531,0.3701172,1.1269531,0.9316406c0,0.5214844-0.3564453,0.8242188-0.8466797,0.9130859l0.9580078,1.2744141
		H137.3782349z M136.5452271,96.6347656h-0.9628906v1.265625h0.9580078c0.4677734,0,0.8017578-0.2402344,0.8017578-0.6464844
		C137.3421021,96.8671875,137.0481567,96.6347656,136.5452271,96.6347656z"/>
	<path class="st9" d="M141.3674927,99.4287109h-0.4414062l-1.1982422-1.5107422l-0.6640625,0.6728516v0.8378906h-0.3515625
		v-3.1191406h0.3515625v1.8623047l1.7910156-1.8623047h0.4550781l-1.3369141,1.3632812L141.3674927,99.4287109z"/>
</g>
<g>
	<path class="st9" d="M24.6751099,54.9882812h-0.7578125v1.1005859h-0.3515625v-3.1191406h1.1669922
		c0.7041016,0,1.1669922,0.3740234,1.1669922,0.9941406C25.8997192,54.640625,25.3391724,54.9882812,24.6751099,54.9882812z
		 M24.7063599,53.2949219h-0.7890625v1.3730469h0.7705078c0.5175781,0,0.8554688-0.2763672,0.8554688-0.6914062
		C25.5432739,53.5273438,25.2092896,53.2949219,24.7063599,53.2949219z"/>
	<path class="st9" d="M28.2493286,56.1425781c-0.9492188,0-1.5869141-0.7441406-1.5869141-1.6083984
		s0.6464844-1.6181641,1.5957031-1.6181641c0.9482422,0,1.5859375,0.7441406,1.5859375,1.609375
		C29.8440552,55.3896484,29.1975708,56.1425781,28.2493286,56.1425781z M28.2493286,53.2421875
		c-0.7128906,0-1.2216797,0.5703125-1.2216797,1.2832031s0.5175781,1.2919922,1.2304688,1.2919922
		s1.2207031-0.5703125,1.2207031-1.2832031S28.9622192,53.2421875,28.2493286,53.2421875z"/>
	<path class="st9" d="M32.5901489,52.9609375h0.2900391l0.8554688,2.6064453l0.890625-2.5976562h0.3701172l-1.1142578,3.1416016
		h-0.2978516l-0.8554688-2.53125l-0.8603516,2.53125h-0.2939453l-1.1142578-3.1416016h0.3837891l0.890625,2.5976562
		L32.5901489,52.9609375z"/>
	<path class="st9" d="M36.9417114,56.0888672h-1.0820312v-3.1191406h1.0820312c0.9804688,0,1.6582031,0.6728516,1.6582031,1.5556641
		C38.5999146,55.4072266,37.9221802,56.0888672,36.9417114,56.0888672z M36.9417114,53.2949219h-0.7304688v2.46875h0.7304688
		c0.7890625,0,1.2919922-0.5351562,1.2919922-1.2294922C38.2337036,53.8388672,37.7307739,53.2949219,36.9417114,53.2949219z"/>
	<path class="st9" d="M41.848938,53.2910156h-1.9023438v1.0644531h1.7021484v0.3212891h-1.7021484v1.0908203h1.9248047v0.3212891
		h-2.2763672v-3.1191406h2.2539062V53.2910156z"/>
	<path class="st9" d="M44.9329224,56.0888672l-0.9042969-1.2119141h-0.8916016v1.2119141h-0.3515625v-3.1191406h1.3408203
		c0.6865234,0,1.1269531,0.3701172,1.1269531,0.9316406c0,0.5214844-0.3564453,0.8242188-0.8466797,0.9130859l0.9580078,1.2744141
		H44.9329224z M44.0999146,53.2949219h-0.9628906v1.265625h0.9580078c0.4677734,0,0.8017578-0.2402344,0.8017578-0.6464844
		C44.8967896,53.5273438,44.6028442,53.2949219,44.0999146,53.2949219z"/>
</g>
<g>
	<path class="st9" d="M76.2659302,31.4853516c0.6953125,0.1513672,1.015625,0.4052734,1.015625,0.8862305
		c0,0.5395508-0.4453125,0.8867188-1.0644531,0.8867188c-0.4951172,0-0.9003906-0.1645508-1.2744141-0.4990234l0.2177734-0.2583008
		c0.3251953,0.2939453,0.6376953,0.440918,1.0693359,0.440918c0.4189453,0,0.6953125-0.2182617,0.6953125-0.534668
		c0-0.2939453-0.15625-0.4589844-0.8105469-0.5966797c-0.7177734-0.15625-1.046875-0.3876953-1.046875-0.9047852
		c0-0.4990234,0.4316406-0.8554688,1.0244141-0.8554688c0.4541016,0,0.7792969,0.1293945,1.0957031,0.3833008l-0.2050781,0.2719727
		c-0.2890625-0.2363281-0.5791016-0.3388672-0.8994141-0.3388672c-0.4052734,0-0.6640625,0.2226562-0.6640625,0.5078125
		C75.4192505,31.1733398,75.5794067,31.3378906,76.2659302,31.4853516z"/>
	<path class="st9" d="M79.4163208,33.2138672h-0.3564453v-2.793457h-1.046875v-0.3256836h2.4501953v0.3256836h-1.046875V33.2138672z
		"/>
	<path class="st9" d="M82.6106567,33.2675781c-0.9482422,0-1.5859375-0.7441406-1.5859375-1.6088867
		c0-0.8642578,0.6464844-1.6171875,1.5957031-1.6171875c0.9482422,0,1.5859375,0.7441406,1.5859375,1.6083984
		S83.5598755,33.2675781,82.6106567,33.2675781z M82.6106567,30.3666992c-0.7128906,0-1.2207031,0.5703125-1.2207031,1.2832031
		s0.5175781,1.2919922,1.2304688,1.2919922s1.2207031-0.5703125,1.2207031-1.2832031S83.3235474,30.3666992,82.6106567,30.3666992z"
		/>
	<path class="st9" d="M87.3577271,33.2138672l-0.9042969-1.2119141h-0.8916016v1.2119141h-0.3515625v-3.1191406h1.3408203
		c0.6865234,0,1.1269531,0.3701172,1.1269531,0.9316406c0,0.5209961-0.3564453,0.8242188-0.8466797,0.9130859l0.9580078,1.2744141
		H87.3577271z M86.5247192,30.4204102h-0.9628906v1.2651367h0.9580078c0.4677734,0,0.8017578-0.2407227,0.8017578-0.6459961
		C87.3215942,30.6518555,87.0276489,30.4204102,86.5247192,30.4204102z"/>
	<path class="st9" d="M91.6712036,33.2138672h-0.3779297l-0.3662109-0.8242188h-1.6972656l-0.3691406,0.8242188h-0.3613281
		l1.4208984-3.1411133h0.3300781L91.6712036,33.2138672z M90.0813599,30.4824219l-0.7128906,1.5908203h1.4208984
		L90.0813599,30.4824219z"/>
	<path class="st9" d="M93.8079224,33.2675781c-0.9804688,0-1.5869141-0.7128906-1.5869141-1.6088867
		c0-0.8598633,0.6289062-1.6171875,1.5644531-1.6171875c0.5253906,0,0.8505859,0.1513672,1.1630859,0.4145508l-0.2275391,0.2670898
		c-0.2412109-0.2094727-0.5078125-0.3564453-0.9492188-0.3564453c-0.6904297,0-1.1855469,0.5834961-1.1855469,1.2832031
		c0,0.7485352,0.4775391,1.3012695,1.234375,1.3012695c0.3564453,0,0.6865234-0.1381836,0.9003906-0.3120117v-0.7753906h-0.9492188
		v-0.3164062h1.2880859v1.2431641C94.7698364,33.0488281,94.333313,33.2675781,93.8079224,33.2675781z"/>
	<path class="st9" d="M98.3889771,30.4160156h-1.9023438v1.0644531h1.7021484v0.3208008h-1.7021484v1.0917969h1.9248047v0.3208008
		h-2.2763672v-3.1191406h2.2539062V30.4160156z"/>
</g>
<g>
	<path class="st9" d="M213.2717896,181.4228516h-1.9023438v1.0644531h1.7021484v0.3212891h-1.7021484v1.0917969h1.9248047v0.3203125
		h-2.2763672v-3.1191406h2.2539062V181.4228516z"/>
	<path class="st9" d="M216.5022583,181.1015625h0.34375v3.1191406h-0.28125l-2.0136719-2.5576172v2.5576172h-0.3427734v-3.1191406
		h0.3291016l1.9648438,2.5V181.1015625z"/>
	<path class="st9" d="M219.1155396,184.2207031h-0.3564453v-2.7939453h-1.046875v-0.3251953h2.4501953v0.3251953h-1.046875
		V184.2207031z"/>
	<path class="st9" d="M223.1751099,184.2207031l-0.9042969-1.2119141h-0.8916016v1.2119141h-0.3515625v-3.1191406h1.3408203
		c0.6865234,0,1.1269531,0.3701172,1.1269531,0.9316406c0,0.5214844-0.3564453,0.8242188-0.8466797,0.9130859l0.9580078,1.2744141
		H223.1751099z M222.3421021,181.4267578h-0.9628906v1.265625h0.9580078c0.4677734,0,0.8017578-0.2402344,0.8017578-0.6455078
		C223.1389771,181.6591797,222.8450317,181.4267578,222.3421021,181.4267578z"/>
	<path class="st9" d="M225.7190552,184.2207031h-0.3564453v-1.234375l-1.296875-1.8847656h0.4277344l1.0517578,1.5595703
		l1.0605469-1.5595703h0.4101562l-1.296875,1.8808594V184.2207031z"/>
</g>
<g>
	<path class="st9" d="M211.5354614,0.3203125h-1.9023438v1.0649414h1.7021484v0.3208008h-1.7021484v1.0917969h1.9248047v0.3208008
		h-2.2763672V0h2.2539062V0.3203125z"/>
	<path class="st9" d="M214.7659302,0h0.34375v3.1186523h-0.28125l-2.0136719-2.5576172v2.5576172h-0.3427734V0h0.3291016
		l1.9648438,2.4995117V0z"/>
	<path class="st9" d="M217.3792114,3.1186523h-0.3564453v-2.793457h-1.046875V0h2.4501953v0.3251953h-1.046875V3.1186523z"/>
	<path class="st9" d="M221.4387817,3.1186523l-0.9042969-1.2119141h-0.8916016v1.2119141h-0.3515625V0h1.3408203
		c0.6865234,0,1.1269531,0.3696289,1.1269531,0.9311523c0,0.5209961-0.3564453,0.8242188-0.8466797,0.9130859l0.9580078,1.2744141
		H221.4387817z M220.6057739,0.3251953h-0.9628906V1.590332h0.9580078c0.4677734,0,0.8017578-0.2407227,0.8017578-0.6459961
		C221.4026489,0.5566406,221.1087036,0.3251953,220.6057739,0.3251953z"/>
	<path class="st9" d="M223.9827271,3.1186523h-0.3564453v-1.234375L222.3294067,0h0.4277344l1.0517578,1.559082L224.8694458,0
		h0.4101562l-1.296875,1.8798828V3.1186523z"/>
</g>
<g>
	<path class="st9" d="M216.4260864,75.3476562c0,0.9091797-0.5205078,1.3808594-1.3007812,1.3808594
		c-0.7705078,0-1.2958984-0.4716797-1.2958984-1.3544922v-1.8134766h0.3515625v1.7910156
		c0,0.6728516,0.3564453,1.0517578,0.953125,1.0517578c0.5751953,0,0.9404297-0.3476562,0.9404297-1.0292969v-1.8134766h0.3515625
		V75.3476562z"/>
	<path class="st9" d="M218.6604614,75.5791016h-0.7578125v1.1005859h-0.3515625v-3.1191406h1.1669922
		c0.7041016,0,1.1669922,0.375,1.1669922,0.9941406C219.8850708,75.2314453,219.3245239,75.5791016,218.6604614,75.5791016z
		 M218.6917114,73.8857422h-0.7890625v1.3730469h0.7705078c0.5175781,0,0.8554688-0.2763672,0.8554688-0.6914062
		C219.5286255,74.1181641,219.1946411,73.8857422,218.6917114,73.8857422z"/>
</g>
<g>
	<path class="st9" d="M145.2131958,31.1557617c0,0.9086914-0.5205078,1.3808594-1.3007812,1.3808594
		c-0.7705078,0-1.2958984-0.472168-1.2958984-1.3544922v-1.8129883h0.3515625v1.7910156
		c0,0.6728516,0.3564453,1.0512695,0.953125,1.0512695c0.5751953,0,0.9404297-0.347168,0.9404297-1.0292969v-1.8129883h0.3515625
		V31.1557617z"/>
	<path class="st9" d="M147.4475708,31.387207h-0.7578125v1.1005859h-0.3515625v-3.1186523h1.1669922
		c0.7041016,0,1.1669922,0.3740234,1.1669922,0.9931641C148.6721802,31.0395508,148.1116333,31.387207,147.4475708,31.387207z
		 M147.4788208,29.6943359h-0.7890625v1.3720703h0.7705078c0.5175781,0,0.8554688-0.2763672,0.8554688-0.6904297
		C148.3157349,29.9257812,147.9817505,29.6943359,147.4788208,29.6943359z"/>
</g>
</svg>
