<svg width="256" height="283" viewBox="0 0 256 283" fill="none" xmlns="http://www.w3.org/2000/svg">
<g clip-path="url(#clip0_0_1)">
<path d="M200.3 58.8V58.9H94.1L94 58.8V54.7H72.6V58.3L73 57.6H73.1H73.2L91.9 68.4V68.5L91.3 69.6L91.1 69.7L72.4 58.9H68V61.6L89.1 73.8H89.2V73.9L88.6 75L88.4 75.1L67.2 62.8V62.7L67.7 61.8H66.3V86H67.9H68V86.1V116.3V116.4L67.9 116.5H55.2V133.5H56.2V113L56.3 112.9H56.4H64.4V105.9H13.8V112.9H21.8H21.9V113V133.5H23V116.5H13.8V190.4H115.7V185V184.9H115.8H130.1V176.3L130.2 176.2H170.5L170.6 176.3V184.9H184.8V173.6L184.9 173.5H237.9V137.6H200.3H200.2V137.5V108.3V108.2H200.3H206.2L205.7 107.3V107.1L226.9 94.9L227 94.8L227.1 94.9L227.7 96V96.1V96.2L206.5 108.4V110.7H209.2L220.4 104.2L220.6 104.3L221.2 105.4V105.5L210 112H209.8L209.4 111.3V114.1V114.2L209.3 114.3H206.5V121.2H237.9V114.3H235.2L235.1 114.2V114.1V111.3L234.7 112H234.5L223.3 105.5L223.2 105.4L223.9 104.3L224 104.2L235.2 110.7H237.9V24.6H235.8H235.7V24.5V21.1H234.5V45.4V45.5L234.4 45.6H233.1L233 45.5V45.4V21.1H208.6V24.5V24.6H208.5H184.3V27.2H207.1V26.1H180.9H180.8V26V24.6H157.7V50.2H180.8V49L180.9 48.9H184.2L184.3 49V50.2H206.4H206.5V50.3V83.8V83.9H206.4H200.3H200.2V83.8V58.8H200.3V58.9V58.8H200.4V83.7H206.3V50.4H184.2H184.1V50.3V49.2H181V50.3V50.4H180.9H157.5L157.4 50.3V24.5L157.5 24.4H180.9H181V24.5V25.9H207.3L207.4 26V27.3L207.3 27.4H184.2H184.1V27.3V24.5V24.4H184.2H208.4V21V20.9H208.5H233.1H233.2V21V45.3H234.3V21V20.9H234.4H235.8H235.9V21V24.4H238.1H238.2V24.5V110.8V110.9H238.1H235.2H235.1L224 104.5L223.5 105.4L234.5 111.7L235.1 110.7H235.2L235.3 110.8V114H238.1H238.2V114.1V121.3V121.4H238.1H206.4H206.3V121.3V114.1V114H206.4H209.2V110.8V110.7H209.4L210 111.7L221 105.4L220.5 104.5L209.3 110.9H206.4H206.3V110.8V108.3V108.2L227.4 96L226.9 95.1L205.9 107.2L206.5 108.2V108.3L206.4 108.4H200.4V137.4H238.1H238.2V137.5V173.6V173.7L238.1 173.8H185V185V185.1H184.9H170.5H170.4V185V176.5H130.3V185V185.1H130.2H115.9V190.6L115.8 190.7H13.7L13.6 190.6V116.3V116.2H13.7H23.1H23.2V116.3V133.6V133.7H23.1H21.8H21.7V133.6V113.1H13.7H13.6V113V105.8V105.7H13.7H64.6L64.7 105.8V113L64.6 113.1H56.5V133.6L56.4 133.7H55.1H55V133.6V116.3V116.2H55.1H67.8V86.2H66.2H66.1V86.1V61.6L66.2 61.5H67.9L68 61.6V61.7L67.4 62.7L88.4 74.8L88.9 73.9L67.8 61.7V61.6V58.8V58.7L67.9 58.6H72.5V58.7L91.1 69.4L91.6 68.5L73.2 57.8L72.6 58.8L72.5 58.9L72.4 58.8V54.5V54.4H72.5H94.1H94.2V54.5V58.6H200.3L200.4 58.7V58.8H200.3Z" fill="#99A4B3"/>
<path d="M80.4 182.2L72.7 174.6V174.4L87.9 159.2H88.1L95.7 166.8C97.8 168.9 98.9 171.7 98.9 174.5C98.9 177.3 97.8 180.1 95.7 182.2C93.6 184.3 90.8 185.4 88 185.4C85.2 185.5 82.4 184.4 80.4 182.2C82.6 184.2 85.3 185.2 88 185.2C90.7 185.2 93.5 184.2 95.5 182.1C97.6 180 98.6 177.3 98.6 174.6C98.6 171.9 97.6 169.1 95.5 167.1L87.9 159.6L72.8 174.7L80.4 182.2Z" fill="#99A4B3"/>
<path d="M15.1 189.1H15V143.1V143L15.1 142.9H32.4L32.5 143V143.1V159.7H38.8V159.1V159H38.9H40L40.1 159.1V173.1L40 173.2H38.9H38.8V173.1V172.5H32.5V189.1V189.2H32.4H15.1H15V189.1H15.1V189H32.3V172.4V172.3H32.4H38.9H39V172.4V173H39.8V159.2H39V159.8V159.9H38.9H32.4H32.3V159.8V143.2H15.3V189.1H15.1V189V189.1Z" fill="#99A4B3"/>
<path d="M108.5 60.2V60.1H168.9H169V60.2V83.2V83.3L168.9 83.4H108.5L108.4 83.3L108.3 83.2V60.2L108.4 60.1H108.5V60.2H108.6V83.1H168.8V60.3H108.5V60.2H108.6H108.5Z" fill="#99A4B3"/>
<path d="M126.5 96.2V96.1H150.9H151V96.2V112L150.9 112.1H126.5L126.4 112V96.2V96.1H126.5V96.2H126.6V111.8H150.8V96.3H126.5V96.2H126.6H126.5Z" fill="#99A4B3"/>
<path d="M170.4 61.6V61.5H184.8L184.9 61.6V81.8V81.9H184.8H170.4H170.3L170.2 81.8V61.6H170.3L170.4 61.5V61.6H170.5V81.7H184.7V61.8H170.4V61.6H170.5H170.4Z" fill="#99A4B3"/>
<path d="M108.8 132.3H108.7L111.5 121.9L111.6 121.8H111.7L132.6 127.4L132.7 127.5V127.6L129.9 138C128.6 142.9 124.2 146.1 119.4 146.1C118.5 146.1 117.5 146 116.6 145.7C111.7 144.4 108.5 140 108.5 135.2C108.5 134.3 108.6 133.3 108.9 132.4L108.8 132.3H108.9C108.7 133.2 108.5 134.2 108.5 135.1C108.5 139.8 111.6 144.1 116.4 145.4C117.3 145.6 118.3 145.8 119.2 145.8C123.9 145.8 128.2 142.7 129.5 137.9L132.3 127.6L111.7 122.1L108.9 132.4L108.8 132.3Z" fill="#99A4B3"/>
<path d="M168.6 132.3H168.5L165.7 122L145.1 127.5L147.9 137.8C149.2 142.6 153.5 145.7 158.2 145.7C159.1 145.7 160 145.6 161 145.3C165.8 144 168.9 139.7 168.9 135C168.9 134.1 168.8 133.2 168.5 132.2L168.6 132.3H168.7C169 133.2 169.1 134.2 169.1 135.1C169.1 139.9 165.9 144.3 161 145.6C160.1 145.9 159.1 146 158.2 146C153.4 146 149 142.8 147.7 137.9L144.9 127.5L145 127.4L165.9 121.8H166L166.1 121.9L168.9 132.3H168.6Z" fill="#99A4B3"/>
<path d="M16.6 190.6V189.1L16.8 189L16.9 189.1V190.6L16.8 190.7L16.6 190.6Z" fill="#99A4B3"/>
<path d="M16.6 113V105.8L16.8 105.7L16.9 105.8V113L16.8 113.1L16.6 113Z" fill="#99A4B3"/>
<path d="M16.6 143.1V116.3L16.8 116.2L16.9 116.3V143.1L16.8 143.2L16.6 143.1Z" fill="#99A4B3"/>
<path d="M22 190.6V189.1L22.1 189L22.3 189.1V190.6L22.1 190.7L22 190.6Z" fill="#99A4B3"/>
<path d="M22 116.3V105.8L22.1 105.7L22.3 105.8V116.3L22.1 116.5L22 116.3Z" fill="#99A4B3"/>
<path d="M22 143.1V133.6L22.1 133.5L22.3 133.6V143.1L22.1 143.2L22 143.1Z" fill="#99A4B3"/>
<path d="M27.4 190.6V189.1L27.5 189L27.7 189.1V190.6L27.5 190.7L27.4 190.6Z" fill="#99A4B3"/>
<path d="M27.4 143.1V105.8L27.5 105.7L27.7 105.8V143.1L27.5 143.2L27.4 143.1Z" fill="#99A4B3"/>
<path d="M32.8 190.6V172.4L32.9 172.3L33.1 172.4V190.6L32.9 190.7L32.8 190.6Z" fill="#99A4B3"/>
<path d="M32.8 159.8V105.8L32.9 105.7L33.1 105.8V159.8L32.9 159.9L32.8 159.8Z" fill="#99A4B3"/>
<path d="M38.2 190.6V172.4L38.3 172.3L38.5 172.4V190.6L38.3 190.7L38.2 190.6Z" fill="#99A4B3"/>
<path d="M38.2 159.8V105.8L38.3 105.7L38.5 105.8V159.8L38.3 159.9L38.2 159.8Z" fill="#99A4B3"/>
<path d="M43.6 190.6V105.8L43.7 105.7L43.9 105.8V190.6L43.7 190.7L43.6 190.6Z" fill="#99A4B3"/>
<path d="M49 190.6V105.8L49.1 105.7L49.3 105.8V190.6L49.1 190.7L49 190.6Z" fill="#99A4B3"/>
<path d="M54.4 190.6V105.8L54.5 105.7L54.7 105.8V190.6L54.5 190.7L54.4 190.6Z" fill="#99A4B3"/>
<path d="M59.8 190.6V116.3L59.9 116.2L60.1 116.3V190.6L59.9 190.7L59.8 190.6Z" fill="#99A4B3"/>
<path d="M59.8 113V105.8L59.9 105.7L60.1 105.8V113L59.9 113.1L59.8 113Z" fill="#99A4B3"/>
<path d="M65.2 190.6V116.3L65.3 116.2L65.5 116.3V190.6L65.3 190.7L65.2 190.6Z" fill="#99A4B3"/>
<path d="M70.6 190.6V64.7L70.7 64.6L70.9 64.7V190.6L70.7 190.7L70.6 190.6Z" fill="#99A4B3"/>
<path d="M70.6 63.3V58.8L70.7 58.6L70.9 58.8V63.3L70.7 63.4L70.6 63.3Z" fill="#99A4B3"/>
<path d="M76 190.6V177.9L76.1 177.8L76.2 177.9V190.6L76.1 190.7L76 190.6Z" fill="#99A4B3"/>
<path d="M76 59.4V54.5L76.1 54.4L76.2 54.5V59.4L76.1 59.5L76 59.4Z" fill="#99A4B3"/>
<path d="M76 171.2V67.9L76.1 67.7L76.2 67.9V171.2L76.1 171.3L76 171.2Z" fill="#99A4B3"/>
<path d="M76 66.4V60.9L76.1 60.7L76.2 60.9V66.4L76.1 66.5L76 66.4Z" fill="#99A4B3"/>
<path d="M81.4 190.6V183.2L81.5 183.1L81.6 183.2V190.6L81.5 190.7L81.4 190.6Z" fill="#99A4B3"/>
<path d="M81.4 62.5V54.5L81.5 54.4L81.6 54.5V62.5L81.5 62.7L81.4 62.5Z" fill="#99A4B3"/>
<path d="M81.4 165.8V71L81.5 70.8L81.6 71V165.8L81.5 165.9L81.4 165.8Z" fill="#99A4B3"/>
<path d="M81.4 69.5V64L81.5 63.9L81.6 64V69.5L81.5 69.6L81.4 69.5Z" fill="#99A4B3"/>
<path d="M86.8 190.6V185.3L86.9 185.2L87 185.3V190.6L86.9 190.7L86.8 190.6Z" fill="#99A4B3"/>
<path d="M86.8 65.6V54.5L86.9 54.4L87 54.5V65.6L86.9 65.8L86.8 65.6Z" fill="#99A4B3"/>
<path d="M86.8 160.4V74.1L86.9 74L87 74.1V160.4L86.9 160.5L86.8 160.4Z" fill="#99A4B3"/>
<path d="M86.8 72.6V67.1L86.9 67L87 67.1V72.6L86.9 72.7L86.8 72.6Z" fill="#99A4B3"/>
<path d="M92.2 190.6V184.5L92.3 184.3L92.4 184.5V190.6L92.3 190.7L92.2 190.6Z" fill="#99A4B3"/>
<path d="M92.2 163.6V54.5L92.3 54.4L92.4 54.5V163.6L92.3 163.7L92.2 163.6Z" fill="#99A4B3"/>
<path d="M97.6 190.6V179.3L97.7 179.2L97.8 179.3V190.6L97.7 190.7L97.6 190.6Z" fill="#99A4B3"/>
<path d="M97.6 169.8V58.8L97.7 58.6L97.8 58.8V169.8L97.7 170L97.6 169.8Z" fill="#99A4B3"/>
<path d="M103 190.6V58.8L103.1 58.6L103.2 58.8V190.6L103.1 190.7L103 190.6Z" fill="#99A4B3"/>
<path d="M108.4 190.6V136.1L108.5 136L108.6 136.1V190.6L108.5 190.7L108.4 190.6Z" fill="#99A4B3"/>
<path d="M108.4 60.2V58.8L108.5 58.6L108.6 58.8V60.2L108.5 60.3L108.4 60.2Z" fill="#99A4B3"/>
<path d="M108.4 134V83.2L108.5 83.1L108.6 83.2V134L108.5 134.2L108.4 134Z" fill="#99A4B3"/>
<path d="M113.8 190.6V144.4L113.9 144.3L114 144.4V190.6L113.9 190.7L113.8 190.6Z" fill="#99A4B3"/>
<path d="M113.8 60.2V58.8L113.9 58.6L114 58.8V60.2L113.9 60.3L113.8 60.2Z" fill="#99A4B3"/>
<path d="M113.8 122.5V83.2L113.9 83.1L114 83.2V122.5L113.9 122.6L113.8 122.5Z" fill="#99A4B3"/>
<path d="M119.2 185V145.9L119.3 145.7L119.4 145.9V185L119.3 185.1L119.2 185Z" fill="#99A4B3"/>
<path d="M119.2 60.2V58.8L119.3 58.6L119.4 58.8V60.2L119.3 60.3L119.2 60.2Z" fill="#99A4B3"/>
<path d="M119.2 123.9V83.2L119.3 83.1L119.4 83.2V123.9L119.3 124L119.2 123.9Z" fill="#99A4B3"/>
<path d="M124.6 185V144.4L124.7 144.3L124.8 144.4V185L124.7 185.1L124.6 185Z" fill="#99A4B3"/>
<path d="M124.6 60.2V58.8L124.7 58.6L124.8 58.8V60.2L124.7 60.3L124.6 60.2Z" fill="#99A4B3"/>
<path d="M124.6 125.3V83.2L124.7 83.1L124.8 83.2V125.3L124.7 125.5L124.6 125.3Z" fill="#99A4B3"/>
<path d="M130 185V136.3L130.1 136.2L130.2 136.3V185L130.1 185.1L130 185Z" fill="#99A4B3"/>
<path d="M130 60.2V58.8L130.1 58.6L130.2 58.8V60.2L130.1 60.3L130 60.2Z" fill="#99A4B3"/>
<path d="M130 126.8V112L130.1 111.8L130.2 112V126.8L130.1 126.9L130 126.8Z" fill="#99A4B3"/>
<path d="M130 96.2V83.2L130.1 83.1L130.2 83.2V96.2L130.1 96.3L130 96.2Z" fill="#99A4B3"/>
<path d="M135.4 176.3V112L135.5 111.8L135.6 112V176.3L135.5 176.5L135.4 176.3Z" fill="#99A4B3"/>
<path d="M135.4 60.2V58.8L135.5 58.6L135.6 58.8V60.2L135.5 60.3L135.4 60.2Z" fill="#99A4B3"/>
<path d="M135.4 96.2V83.2L135.5 83.1L135.6 83.2V96.2L135.5 96.3L135.4 96.2Z" fill="#99A4B3"/>
<path d="M140.8 176.3V112L140.9 111.8L141 112V176.3L140.9 176.5L140.8 176.3Z" fill="#99A4B3"/>
<path d="M140.8 60.2V58.8L140.9 58.6L141 58.8V60.2L140.9 60.3L140.8 60.2Z" fill="#99A4B3"/>
<path d="M140.8 96.2V83.2L140.9 83.1L141 83.2V96.2L140.9 96.3L140.8 96.2Z" fill="#99A4B3"/>
<path d="M146.2 176.3V132.6L146.3 132.5L146.4 132.6V176.3L146.3 176.5L146.2 176.3Z" fill="#99A4B3"/>
<path d="M146.2 60.2V58.8L146.3 58.6L146.4 58.8V60.2L146.3 60.3L146.2 60.2Z" fill="#99A4B3"/>
<path d="M146.2 127.1V112L146.3 111.8L146.4 112V127.1L146.3 127.2L146.2 127.1Z" fill="#99A4B3"/>
<path d="M146.2 96.2V83.2L146.3 83.1L146.4 83.2V96.2L146.3 96.3L146.2 96.2Z" fill="#99A4B3"/>
<path d="M151.6 176.3V143.7L151.7 143.6L151.8 143.7V176.3L151.7 176.5L151.6 176.3Z" fill="#99A4B3"/>
<path d="M151.6 60.2V58.8L151.7 58.6L151.8 58.8V60.2L151.7 60.3L151.6 60.2Z" fill="#99A4B3"/>
<path d="M151.6 125.6V83.2L151.7 83.1L151.8 83.2V125.6L151.7 125.7L151.6 125.6Z" fill="#99A4B3"/>
<path d="M157 176.3V145.8L157.1 145.7L157.2 145.8V176.3L157.1 176.5L157 176.3Z" fill="#99A4B3"/>
<path d="M157 60.2V58.8L157.1 58.6L157.2 58.8V60.2L157.1 60.3L157 60.2Z" fill="#99A4B3"/>
<path d="M157 124.2V83.2L157.1 83.1L157.2 83.2V124.2L157.1 124.3L157 124.2Z" fill="#99A4B3"/>
<path d="M162.4 176.3V144.9L162.5 144.8L162.6 144.9V176.3L162.5 176.5L162.4 176.3Z" fill="#99A4B3"/>
<path d="M162.4 50.3V24.5L162.5 24.4L162.6 24.5V50.3L162.5 50.4L162.4 50.3Z" fill="#99A4B3"/>
<path d="M162.4 122.7V83.2L162.5 83.1L162.6 83.2V122.7L162.5 122.8L162.4 122.7Z" fill="#99A4B3"/>
<path d="M162.4 60.2V58.8L162.5 58.6L162.6 58.8V60.2L162.5 60.3L162.4 60.2Z" fill="#99A4B3"/>
<path d="M167.8 176.3V139.7L167.9 139.5L168 139.7V176.3L167.9 176.5L167.8 176.3Z" fill="#99A4B3"/>
<path d="M167.8 50.3V24.5L167.9 24.4L168 24.5V50.3L167.9 50.4L167.8 50.3Z" fill="#99A4B3"/>
<path d="M167.8 129.8V83.2L167.9 83.1L168 83.2V129.8L167.9 129.9L167.8 129.8Z" fill="#99A4B3"/>
<path d="M167.8 60.2V58.8L167.9 58.6L168 58.8V60.2L167.9 60.3L167.8 60.2Z" fill="#99A4B3"/>
<path d="M173.2 185V81.8L173.3 81.7L173.4 81.8V185L173.3 185.1L173.2 185Z" fill="#99A4B3"/>
<path d="M173.2 50.3V24.5L173.3 24.4L173.4 24.5V50.3L173.3 50.4L173.2 50.3Z" fill="#99A4B3"/>
<path d="M173.2 61.6V58.8L173.3 58.6L173.4 58.8V61.6L173.3 61.8L173.2 61.6Z" fill="#99A4B3"/>
<path d="M178.6 185V81.8L178.7 81.7L178.8 81.8V185L178.7 185.1L178.6 185Z" fill="#99A4B3"/>
<path d="M178.6 50.3V24.5L178.7 24.4L178.8 24.5V50.3L178.7 50.4L178.6 50.3Z" fill="#99A4B3"/>
<path d="M178.6 61.6V58.8L178.7 58.6L178.8 58.8V61.6L178.7 61.8L178.6 61.6Z" fill="#99A4B3"/>
<path d="M184 185V81.8L184.1 81.7L184.2 81.8V185L184.1 185.1L184 185Z" fill="#99A4B3"/>
<path d="M184 49V26L184.1 25.9L184.2 26V49L184.1 49.2L184 49Z" fill="#99A4B3"/>
<path d="M184 61.6V58.8L184.1 58.6L184.2 58.8V61.6L184.1 61.8L184 61.6Z" fill="#99A4B3"/>
<path d="M189.4 173.6V58.8L189.5 58.6L189.6 58.8V173.6L189.5 173.8L189.4 173.6Z" fill="#99A4B3"/>
<path d="M189.4 26V24.5L189.5 24.4L189.6 24.5V26L189.5 26.1L189.4 26Z" fill="#99A4B3"/>
<path d="M189.4 50.3V27.3L189.5 27.2L189.6 27.3V50.3L189.5 50.4L189.4 50.3Z" fill="#99A4B3"/>
<path d="M194.8 173.6V58.8L194.9 58.6L195 58.8V173.6L194.9 173.8L194.8 173.6Z" fill="#99A4B3"/>
<path d="M194.8 26V24.5L194.9 24.4L195 24.5V26L194.9 26.1L194.8 26Z" fill="#99A4B3"/>
<path d="M194.8 50.3V27.3L194.9 27.2L195 27.3V50.3L194.9 50.4L194.8 50.3Z" fill="#99A4B3"/>
<path d="M200.2 173.6V137.5L200.3 137.4L200.4 137.5V173.6L200.3 173.8L200.2 173.6Z" fill="#99A4B3"/>
<path d="M200.2 26V24.5L200.3 24.4L200.4 24.5V26L200.3 26.1L200.2 26Z" fill="#99A4B3"/>
<path d="M200.2 108.3V83.8L200.3 83.7L200.4 83.8V108.3L200.3 108.4L200.2 108.3Z" fill="#99A4B3"/>
<path d="M200.2 50.3V27.3L200.3 27.2L200.4 27.3V50.3L200.3 50.4L200.2 50.3Z" fill="#99A4B3"/>
<path d="M205.6 173.6V137.5L205.7 137.4L205.8 137.5V173.6L205.7 173.8L205.6 173.6Z" fill="#99A4B3"/>
<path d="M205.6 26V24.5L205.7 24.4L205.8 24.5V26L205.7 26.1L205.6 26Z" fill="#99A4B3"/>
<path d="M205.6 108.3V83.8L205.7 83.7L205.8 83.8V108.3L205.7 108.4L205.6 108.3Z" fill="#99A4B3"/>
<path d="M205.6 50.3V27.3L205.7 27.2L205.8 27.3V50.3L205.7 50.4L205.6 50.3Z" fill="#99A4B3"/>
<path d="M211 173.6V137.5L211.1 137.4L211.2 137.5V173.6L211.1 173.8L211 173.6Z" fill="#99A4B3"/>
<path d="M211 104.1V21L211.1 20.9L211.2 21V104.1L211.1 104.2L211 104.1Z" fill="#99A4B3"/>
<path d="M211 121.3V111.2L211.1 111.1L211.2 111.2V121.3L211.1 121.4L211 121.3Z" fill="#99A4B3"/>
<path d="M211 109.8V105.6L211.1 105.5L211.2 105.6V109.8L211.1 109.9L211 109.8Z" fill="#99A4B3"/>
<path d="M216.4 173.6V137.5L216.5 137.4L216.6 137.5V173.6L216.5 173.8L216.4 173.6Z" fill="#99A4B3"/>
<path d="M216.4 101V21L216.5 20.9L216.6 21V101L216.5 101.1L216.4 101Z" fill="#99A4B3"/>
<path d="M216.4 121.3V108.1L216.5 108L216.6 108.1V121.3L216.5 121.4L216.4 121.3Z" fill="#99A4B3"/>
<path d="M216.4 106.6V102.5L216.5 102.3L216.6 102.5V106.6L216.5 106.8L216.4 106.6Z" fill="#99A4B3"/>
<path d="M221.8 173.6V137.5L221.9 137.4L222 137.5V173.6L221.9 173.8L221.8 173.6Z" fill="#99A4B3"/>
<path d="M221.8 97.9V21L221.9 20.9L222 21V97.9L221.9 98L221.8 97.9Z" fill="#99A4B3"/>
<path d="M221.8 121.3V99.4L221.9 99.2L222 99.4V121.3L221.9 121.4L221.8 121.3Z" fill="#99A4B3"/>
<path d="M227.2 173.6V137.5L227.3 137.4L227.4 137.5V173.6L227.3 173.8L227.2 173.6Z" fill="#99A4B3"/>
<path d="M227.2 95.5V21L227.3 20.9L227.4 21V95.5L227.3 95.6L227.2 95.5Z" fill="#99A4B3"/>
<path d="M227.2 121.3V107.7L227.3 107.6L227.4 107.7V121.3L227.3 121.4L227.2 121.3Z" fill="#99A4B3"/>
<path d="M227.2 106.2V96.2L227.3 96.1L227.4 96.2V106.2L227.3 106.4L227.2 106.2Z" fill="#99A4B3"/>
<path d="M232.5 173.6V137.5L232.7 137.4L232.8 137.5V173.6L232.7 173.8L232.5 173.6Z" fill="#99A4B3"/>
<path d="M232.5 109.3V21L232.7 20.9L232.8 21V109.3L232.7 109.5L232.5 109.3Z" fill="#99A4B3"/>
<path d="M232.5 121.3V110.8L232.7 110.7L232.8 110.8V121.3L232.7 121.4L232.5 121.3Z" fill="#99A4B3"/>
<path d="M240.3 271.9H240.2V182.2H236.2V208V208.1H236.1H234.8H234.7V208V182.2H205.9H205.8L205.7 182.1V181.1H192.3V197.8V197.9L192.2 198H18.8V238.2L192.2 261.3L192.3 261.5V271.7H193.5V248.8V248.7H193.6H194.9H195V248.8V271.7H240.3V271.9H240.2H240.3V272H194.9L194.8 271.9V248.9H193.7V271.9L193.6 272H192.2L192.1 271.9V261.6L18.6 238.5L18.5 238.3V197.8H18.6V197.7H192.1V180.9L192.2 180.8H205.9V180.9H206V182H234.8H234.9V182.1V207.9H236V182.1V182H236.1H240.3H240.4V182.1V271.9L240.3 272V271.9Z" fill="#99A4B3"/>
<path d="M14.3 33.8H14.2C14.2 33.6 14.3 33.4 14.5 33.4L16.6 33H16.8C17 33 17.2 33.1 17.4 33.2C17.7 33.4 18 33.7 18.3 34.1L18.2 34.2V34.1C20.5 34 22.8 33.7 25 33.2C25.7 33 26.5 33 27.2 33C28.2 33 29.1 33.1 30.1 33.4C30.9 33.6 31.7 34 32.4 34.5C33.1 35 33.6 35.6 34 36.3C34.3 36.9 34.5 37.6 34.5 38.2C34.5 38.9 34.3 39.6 34 40.1C33.6 40.8 33 41.4 32.4 41.9C31.7 42.4 30.9 42.8 30.1 43C29.2 43.3 28.2 43.4 27.2 43.4C26.4 43.4 25.7 43.3 25 43.1C22.7 42.7 20.5 42.4 18.2 42.2V42.1L18.3 42.2C18.1 42.5 17.8 42.8 17.4 43.1C17.2 43.2 17 43.3 16.8 43.3H16.6L14.5 42.9C14.3 42.9 14.2 42.7 14.2 42.5V33.8H14.3H14.4V42.5L14.5 42.7L16.6 43.1H16.7C16.9 43.1 17 43.1 17.1 43C17.4 42.8 17.7 42.5 17.9 42.2L18 42.1C20.3 42.2 22.6 42.5 24.9 43C25.6 43.2 26.3 43.2 27.1 43.2C28.1 43.2 29 43.1 29.9 42.8C30.7 42.6 31.4 42.2 32.1 41.7C32.7 41.2 33.3 40.6 33.7 40C34 39.4 34.2 38.8 34.2 38.2C34.2 37.6 34 36.9 33.7 36.4C33.3 35.7 32.8 35.1 32.1 34.7C31.4 34.2 30.7 33.9 29.9 33.6C29 33.3 28 33.2 27.1 33.2C26.4 33.2 25.6 33.3 24.9 33.4C22.6 33.8 20.3 34.1 18 34.3L17.9 34.2C17.7 33.9 17.4 33.6 17.1 33.4C17 33.3 16.8 33.3 16.7 33.3H16.6L14.5 33.7L14.4 33.9H14.3V33.8Z" fill="#99A4B3"/>
<path d="M236.1 182.2H210.2L210.1 182.1L210.2 182H236.1L236.2 182.1L236.1 182.2Z" fill="#99A4B3"/>
<path d="M236.1 173.8H210.2L210.1 173.6L210.2 173.5H236.1L236.2 173.6L236.1 173.8Z" fill="#99A4B3"/>
<path d="M234.4 21.1H209.9L209.8 21L209.9 20.9H234.4L234.5 21L234.4 21.1Z" fill="#99A4B3"/>
<path d="M234.4 17.5H209.9L209.8 17.4L209.9 17.3H234.4L234.5 17.4L234.4 17.5Z" fill="#99A4B3"/>
<path d="M193.6 271.7H216.7L216.8 271.9L216.7 272H193.6L193.5 271.9L193.6 271.7Z" fill="#99A4B3"/>
<path d="M193.6 273.2H216.7L216.8 273.3L216.7 273.4H193.6L193.5 273.3L193.6 273.2Z" fill="#99A4B3"/>
<path d="M64.6 26.2V26.3H13.8V72H30.9C32.2 72 33.2 73 33.2 74.3V84.4C33.2 85.7 32.2 86.7 30.9 86.7H13.8V92.3H64.4V86.1V86H64.5H66V61.8H64.5H64.4V61.7V26.3H64.6V26.4V26.2H64.7V61.5H66.2H66.3V61.6V86.1V86.2H66.2H64.7V92.4V92.5H64.6H13.7H13.6V92.4V86.6V86.5H13.7H30.9C32 86.5 32.9 85.6 32.9 84.5V74.4C32.9 73.3 32 72.4 30.9 72.4H13.7H13.6V72.3V26.3V26.2H13.7H64.6Z" fill="#99A4B3"/>
<path d="M14.3 92.4V86.6L14.4 86.4L14.5 86.6V92.4L14.4 92.5L14.3 92.4Z" fill="#99A4B3"/>
<path d="M14.3 33.5V26.2L14.4 26.1L14.5 26.2V33.5L14.4 33.6L14.3 33.5Z" fill="#99A4B3"/>
<path d="M14.3 72.2V42.7L14.4 42.6L14.5 42.7V72.2L14.4 72.3L14.3 72.2Z" fill="#99A4B3"/>
<path d="M22.9 92.4V86.6L23 86.4L23.2 86.6V92.4L23 92.5L22.9 92.4Z" fill="#99A4B3"/>
<path d="M22.9 33.5V26.2L23 26.1L23.2 26.2V33.5L23 33.6L22.9 33.5Z" fill="#99A4B3"/>
<path d="M22.9 72.2V42.7L23 42.6L23.2 42.7V72.2L23 72.3L22.9 72.2Z" fill="#99A4B3"/>
<path d="M31.6 92.4V86.4L31.7 86.3L31.8 86.4V92.4L31.7 92.5L31.6 92.4Z" fill="#99A4B3"/>
<path d="M31.6 34V26.2L31.7 26.1L31.8 26.2V34L31.7 34.2L31.6 34Z" fill="#99A4B3"/>
<path d="M31.6 72.3V42.1L31.7 42L31.8 42.1V72.3L31.7 72.4L31.6 72.3Z" fill="#99A4B3"/>
<path d="M40.2 92.4V26.2L40.3 26.1L40.4 26.2V92.4L40.3 92.5L40.2 92.4Z" fill="#99A4B3"/>
<path d="M48.8 92.4V26.2L49 26.1L49.1 26.2V92.4L49 92.5L48.8 92.4Z" fill="#99A4B3"/>
<path d="M57.5 92.4V26.2L57.6 26.1L57.7 26.2V92.4L57.6 92.5L57.5 92.4Z" fill="#99A4B3"/>
<path d="M66.2 75.2H33L32.9 75.1L33 75H66.2L66.3 75.1L66.2 75.2Z" fill="#99A4B3"/>
<path d="M64.6 58H13.7L13.6 57.9L13.7 57.7H64.6L64.7 57.9L64.6 58Z" fill="#99A4B3"/>
<path d="M64.6 40.7H33.5L33.4 40.6L33.5 40.5H64.6L64.7 40.6L64.6 40.7Z" fill="#99A4B3"/>
<path d="M14.3 40.7H13.7L13.6 40.6L13.7 40.5H14.3L14.4 40.6L14.3 40.7Z" fill="#99A4B3"/>
<path d="M236.1 197.7H240.3L240.4 197.8L240.3 198H236.1L236 197.8L236.1 197.7Z" fill="#99A4B3"/>
<path d="M192.2 197.7H234.8L234.9 197.8L234.8 198H192.2L192.1 197.8L192.2 197.7Z" fill="#99A4B3"/>
<path d="M18.6 215H240.3L240.4 215.1L240.3 215.2H18.6L18.5 215.1L18.6 215Z" fill="#99A4B3"/>
<path d="M18.6 232.3H240.3L240.4 232.4L240.3 232.5H18.6L18.5 232.4L18.6 232.3Z" fill="#99A4B3"/>
<path d="M103.7 249.5H193.6L193.7 249.7L193.6 249.8H103.7L103.6 249.7L103.7 249.5Z" fill="#99A4B3"/>
<path d="M194.9 249.5H240.3L240.4 249.7L240.3 249.8H194.9L194.8 249.7L194.9 249.5Z" fill="#99A4B3"/>
<path d="M192.2 266.8H193.6L193.7 266.9L193.6 267.1H192.2L192.1 266.9L192.2 266.8Z" fill="#99A4B3"/>
<path d="M194.9 266.8H240.3L240.4 266.9L240.3 267.1H194.9L194.8 266.9L194.9 266.8Z" fill="#99A4B3"/>
<path d="M19.3 238.4V197.8L19.5 197.7L19.6 197.8V238.4L19.5 238.6L19.3 238.4Z" fill="#99A4B3"/>
<path d="M36.6 240.7V197.8L36.7 197.7L36.8 197.8V240.7L36.7 240.9L36.6 240.7Z" fill="#99A4B3"/>
<path d="M53.9 243V197.8L54 197.7L54.1 197.8V243L54 243.2L53.9 243Z" fill="#99A4B3"/>
<path d="M71.2 245.3V197.8L71.3 197.7L71.4 197.8V245.3L71.3 245.5L71.2 245.3Z" fill="#99A4B3"/>
<path d="M88.4 247.6V197.8L88.5 197.7L88.7 197.8V247.6L88.5 247.8L88.4 247.6Z" fill="#99A4B3"/>
<path d="M105.7 249.9V197.8L105.8 197.7L105.9 197.8V249.9L105.8 250.1L105.7 249.9Z" fill="#99A4B3"/>
<path d="M123 252.2V197.8L123.1 197.7L123.2 197.8V252.2L123.1 252.4L123 252.2Z" fill="#99A4B3"/>
<path d="M140.2 254.6V197.8L140.4 197.7L140.5 197.8V254.6L140.4 254.7L140.2 254.6Z" fill="#99A4B3"/>
<path d="M157.5 256.9V197.8L157.6 197.7L157.8 197.8V256.9L157.6 257L157.5 256.9Z" fill="#99A4B3"/>
<path d="M174.8 259.2V197.8L174.9 197.7L175 197.8V259.2L174.9 259.3L174.8 259.2Z" fill="#99A4B3"/>
<path d="M192.1 261.5V197.8L192.2 197.7L192.3 197.8V261.5L192.2 261.6L192.1 261.5Z" fill="#99A4B3"/>
<path d="M209.3 271.9V182.1L209.5 182L209.6 182.1V271.9L209.5 272L209.3 271.9Z" fill="#99A4B3"/>
<path d="M226.6 271.9V182.1L226.7 182L226.9 182.1V271.9L226.7 272L226.6 271.9Z" fill="#99A4B3"/>
<path fill-rule="evenodd" clip-rule="evenodd" d="M18.6 227H7.10001V15.8H208.5V17.4H209.9V21H208.5V24.5H184.2V26H180.9V24.5H70.7V50.3H72.5V58.8H67.9V61.6H64.6V26.2H13.7V92.4H64.6V86.1H67.9V116.3H56.4V113H64.6V95.7H13.7V113H21.8V116.3H13.7V190.6H19.4V194.6H18.6V227Z" fill="#22576F"/>
<path fill-rule="evenodd" clip-rule="evenodd" d="M77 190.6L76.9 194.6H77.7V197.8H192.2V177.7H192.9V173.6H184.9V185H115.8V190.6H77Z" fill="#22576F"/>
<path d="M210.2 173.6H205.9V182.1H210.2V173.6Z" fill="#22576F"/>
<path fill-rule="evenodd" clip-rule="evenodd" d="M236.1 173.6V182.1H240.3V227H246.9V15.8H235.8V17.4H234.4V21H235.8V24.5H238.1V110.8H235.2V114.1H238.1V131.4H206.4V114.1H209.3V110.8H206.4V108.3H200.3V137.5H238.1V173.6H236.1Z" fill="#22576F"/>
<path fill-rule="evenodd" clip-rule="evenodd" d="M94.1 50.3V58.8H200.3V83.8H206.4V50.3H184.2V49H180.9V50.3H94.1Z" fill="#22576F"/>
<path d="M117.2 48H157.5L157.6 48.1H157.7V49.2L157.6 49.3L157.5 49.4H117.5L117.4 49.2L117.5 49.1H157.4V48.3H117.2L117.1 48.1L117.2 48Z" fill="#22576F"/>
<path d="M206.4 124.1H208.5L208.7 124.2L208.5 124.3H206.4L206.3 124.2L206.4 124.1Z" fill="#22576F"/>
<path d="M229.6 124.1H233.8L233.9 124.2L233.8 124.3H229.6L229.5 124.2L229.6 124.1ZM223.3 124.1H227.5L227.6 124.2L227.5 124.3H223.3L223.2 124.2L223.3 124.1ZM217 124.1H221.2L221.3 124.2L221.2 124.3H217L216.9 124.2L217 124.1ZM210.6 124.1H214.8L214.9 124.2L214.8 124.3H210.6L210.5 124.2L210.6 124.1Z" fill="#22576F"/>
<path d="M235.9 124.1H238.1L238.2 124.2L238.1 124.3H235.9L235.8 124.2L235.9 124.1Z" fill="#22576F"/>
<path d="M64.6 103.1H62.4L62.3 102.9L62.4 102.8H64.6L64.7 102.9L64.6 103.1Z" fill="#22576F"/>
<path d="M22.2 103.1H18L17.9 103L18 102.9H22.2L22.3 103L22.2 103.1ZM28.5 103.1H24.3L24.2 103L24.3 102.9H28.5L28.6 103L28.5 103.1ZM34.9 103.1H30.7L30.6 103L30.7 102.9H34.9L35 103L34.9 103.1ZM41.2 103.1H37L36.9 103L37 102.9H41.2L41.3 103L41.2 103.1ZM47.6 103.1H43.4L43.3 103L43.4 102.9H47.6L47.7 103L47.6 103.1ZM54 103.1H49.8L49.7 103L49.8 102.9H54L54.1 103L54 103.1ZM60.3 103.1H56.1L56 103L56.1 102.9H60.3L60.4 103L60.3 103.1Z" fill="#22576F"/>
<path d="M15.8 103.1H13.7L13.6 102.9L13.7 102.8H15.8L16 102.9L15.8 103.1Z" fill="#22576F"/>
<path d="M192.2 177.6H205.9L206 177.7L205.9 177.8H192.2L192.1 177.7L192.2 177.6Z" fill="#22576F"/>
<path d="M192.2 180.8H205.9L206 180.9L205.9 181.1H192.2L192.1 180.9L192.2 180.8Z" fill="#22576F"/>
<path d="M18.6 194.5H77.7L77.8 194.6L77.7 194.7H18.6L18.5 194.6L18.6 194.5Z" fill="#22576F"/>
<path d="M18.6 197.7H77.7L77.8 197.8L77.7 198H18.6L18.5 197.8L18.6 197.7Z" fill="#22576F"/>
<path d="M236.1 208V208.1H234.8H234.7V208V182.1V182H234.8H236.1H236.2V182.1V208V208.1H236.1V208H236V182.2H235V207.9H236.1V208H236H236.1Z" fill="#22576F"/>
<path d="M210.3 182.1C210.3 189.2 213.2 195.7 217.9 200.3C222.6 205 229 207.9 236.1 207.9L236.2 208L236.1 208.1C221.7 208.1 210.1 196.4 210.1 182.1L210.2 182L210.3 182.1Z" fill="#22576F"/>
<path d="M234.4 45.4V45.6H233.1L233 45.5V45.4V21V20.9H233.1H234.4H234.5V21V45.4V45.5L234.4 45.6V45.4H234.3V21.1H233.2V45.3H234.4V45.4H234.3H234.4Z" fill="#22576F"/>
<path d="M210 21C210 27.7 212.7 33.8 217.1 38.2C221.5 42.6 227.6 45.3 234.3 45.3L234.4 45.4L234.3 45.5C220.7 45.5 209.7 34.5 209.7 20.9L209.8 20.8L210 21Z" fill="#22576F"/>
<path d="M193.6 248.8V248.7H194.9H195V248.8V271.9L194.9 272H193.6L193.5 271.9V248.8V248.7H193.6V248.8H193.7V271.7H194.8V248.9H193.6V248.8H193.7H193.6Z" fill="#22576F"/>
<path d="M216.5 271.9C216.5 265.6 213.9 259.8 209.8 255.7C205.7 251.6 199.9 249 193.6 249L193.5 248.9L193.6 248.8C206.4 248.8 216.8 259.2 216.8 272L216.7 272.1L216.5 271.9Z" fill="#22576F"/>
<path d="M222.1 110.8C222.1 108.5 221.5 106.3 220.4 104.4V104.2H220.6C221.7 106.2 222.4 108.4 222.4 110.7L222.3 110.8H222.1Z" fill="#22576F"/>
<path d="M224.1 104.4C223 106.4 222.4 108.6 222.4 110.8L222.3 110.9L222.2 110.8C222.2 108.5 222.8 106.2 224 104.3H224.2L224.1 104.4Z" fill="#22576F"/>
<path d="M209.3 110.8L209.2 110.7L220.4 104.2H220.5L220.6 104.3L221.2 105.4V105.5L210 112H209.8L209.2 110.9V110.7L209.3 110.8L209.4 110.7L210 111.7L221 105.4L220.5 104.5L209.3 110.9V110.8L209.4 110.7L209.3 110.8Z" fill="#22576F"/>
<path d="M235.2 110.8L235.1 110.9L224 104.5L223.5 105.4L234.5 111.7L235.1 110.7L235.2 110.8L235.1 110.9L235.2 110.8L235.3 110.9L234.7 112H234.5L223.3 105.5L223.2 105.4L223.9 104.3V104.2H224L235.3 110.7V110.8V110.9L235.2 110.8Z" fill="#22576F"/>
<path d="M67.9 61.6L68 61.5L89.1 73.8H89.2V73.9L88.6 75L88.4 75.1L67.2 62.8H67.1L67.2 62.7L67.8 61.6L68 61.5L67.9 61.6L68 61.7L67.4 62.7L88.4 74.8L88.9 73.9L67.8 61.8L67.9 61.6L68 61.7L67.9 61.6Z" fill="#22576F"/>
<path d="M67.9 86C76.6 86 84.6 81.4 89 73.8H89.2V74C84.8 81.6 76.7 86.3 67.9 86.3L67.8 86.2L67.9 86Z" fill="#22576F"/>
<path d="M184.2 26V25.9H207.3L207.4 26V27.3L207.3 27.4H184.2H184.1V27.3V26V25.9H184.2V26H184.3V27.2H207.1V26.1H184.2V26H184.3H184.2Z" fill="#22576F"/>
<path d="M184.2 48.9C190.5 48.9 196.3 46.3 200.4 42.2C204.5 38.1 207.1 32.3 207.1 26L207.2 25.9L207.3 26C207.3 38.8 196.9 49.2 184.1 49.2L184 49.1L184.2 48.9Z" fill="#22576F"/>
<path d="M193.6 271.9V272H192.3V273.2H193.5V271.9H193.6V272V271.9H193.7V273.3V273.4H193.6H192.2H192.1V273.3V271.9V271.8L192.2 271.7H193.6L193.7 271.8V271.9H193.6Z" fill="#22576F"/>
<path d="M216.7 271.9V271.7H240.3L240.4 271.8V271.9V273.3V273.4H240.3H216.7H216.6L216.5 273.3V271.9L216.6 271.8L216.7 271.7V271.9H216.8V273.2H240.2V272H216.7V271.9H216.8H216.7Z" fill="#22576F"/>
<path d="M157.4 50.3V24.5L157.5 24.4L157.7 24.5V50.3L157.5 50.4L157.4 50.3Z" fill="#22576F"/>
<path d="M143 50.3V49.2L143.2 49.1L143.3 49.2V50.3L143.2 50.4L143 50.3Z" fill="#22576F"/>
<path d="M143 48.1V24.5L143.2 24.4L143.3 24.5V48.1L143.2 48.3L143 48.1Z" fill="#22576F"/>
<path d="M135.8 50.3V49.2L136 49.1L136.1 49.2V50.3L136 50.4L135.8 50.3Z" fill="#22576F"/>
<path d="M135.8 48.1V24.5L136 24.4L136.1 24.5V48.1L136 48.3L135.8 48.1Z" fill="#22576F"/>
<path d="M121.4 50.3V49.2L121.6 49.1L121.7 49.2V50.3L121.6 50.4L121.4 50.3Z" fill="#22576F"/>
<path d="M121.4 48.1V24.5L121.6 24.4L121.7 24.5V48.1L121.6 48.3L121.4 48.1Z" fill="#22576F"/>
<path d="M114.2 38.7V37.4L114.4 37.3L114.5 37.4V38.7L114.4 38.9L114.2 38.7Z" fill="#22576F"/>
<path d="M114.2 36.1V24.5L114.4 24.4L114.5 24.5V36.1L114.4 36.2L114.2 36.1Z" fill="#22576F"/>
<path d="M111 24.5L114.1 35.9L116.6 36.6V36.7V36.8L112.6 38.1L114.8 38.7L114.9 38.8L117.9 50.3V50.4L117.7 50.3L114.6 38.9L112.2 38.2L112.1 38.1L112.2 38L116.1 36.7L113.9 36.1V36L110.8 24.5L110.9 24.4L111 24.5Z" fill="#22576F"/>
<path d="M150.2 50.3V49.2L150.4 49.1L150.5 49.2V50.3L150.4 50.4L150.2 50.3Z" fill="#22576F"/>
<path d="M150.2 48.1V24.5L150.4 24.4L150.5 24.5V48.1L150.4 48.3L150.2 48.1Z" fill="#22576F"/>
<path d="M128.6 50.3V49.2L128.8 49.1L128.9 49.2V50.3L128.8 50.4L128.6 50.3Z" fill="#22576F"/>
<path d="M128.6 48.1V24.5L128.8 24.4L128.9 24.5V48.1L128.8 48.3L128.6 48.1Z" fill="#22576F"/>
<path d="M72.5 58.8V58.7L91.1 69.4L91.6 68.5L73.2 57.8L72.6 58.8H72.5V58.7V58.8L72.4 58.7L73 57.6H73.1H73.2L91.9 68.4V68.5L91.3 69.6L91.1 69.7L72.4 58.9V58.7L72.5 58.8Z" fill="#22576F"/>
<path d="M91.1 69.5C93 66.2 94 62.5 94 58.8L94.1 58.7L94.2 58.8C94.2 62.6 93.2 66.4 91.3 69.7H91.1V69.5Z" fill="#22576F"/>
<path d="M21.8 133.6V133.5H22.9V116.5H21.9V133.6H21.8V133.5V133.6H21.7V116.3V116.2H21.8H23.1H23.2V116.3V133.6V133.7H23.1H21.8H21.7V133.6H21.8Z" fill="#22576F"/>
<path d="M55.1 133.6V133.5H56.2V116.5H55.2V133.6H55.1V133.5V133.6H55V116.3V116.2H55.1H56.4L56.5 116.3V133.6L56.4 133.7H55.1H55V133.6H55.1Z" fill="#22576F"/>
<path d="M21.8 133.5C26.5 133.5 30.8 131.6 33.9 128.5C37 125.4 38.9 121.1 38.9 116.4L39 116.3L39.1 116.4C39.1 126 31.3 133.8 21.7 133.8L21.6 133.7L21.8 133.5Z" fill="#22576F"/>
<path d="M39.2 116.3C39.2 121 41.1 125.3 44.2 128.4C47.3 131.5 51.6 133.4 56.3 133.4L56.4 133.5L56.3 133.6C46.7 133.6 38.9 125.8 38.9 116.2L39 116.1L39.2 116.3Z" fill="#22576F"/>
<path d="M206.4 108.3L206.3 108.2L227.4 96L226.9 95.1L205.9 107.2L206.5 108.2L206.4 108.3L206.3 108.2L206.4 108.3H206.3L205.7 107.3L205.6 107.2L205.7 107.1L226.9 94.9H227.1L227.7 96V96.1V96.2L206.5 108.4L206.3 108.3H206.4Z" fill="#22576F"/>
<path d="M227.5 96.1C223.2 88.6 215.1 83.9 206.4 83.9L206.3 83.8L206.4 83.7C215.2 83.7 223.3 88.4 227.7 96V96.2L227.5 96.1Z" fill="#22576F"/>
<path d="M192.2 177.7V177.6H193.6H193.7V177.7V180.9V181L193.6 181.1H192.2L192.1 181V180.9V177.7V177.6H192.2V177.7H192.3V180.8H193.5V177.8H192.2V177.7H192.3H192.2Z" fill="#22576F"/>
<path d="M204.4 177.7V177.6H205.9L206 177.7V180.9L205.9 181V181.1H204.4L204.3 181V180.9V177.7V177.6H204.4V177.7H204.5V180.8H205.7V177.8H204.4V177.7H204.5H204.4Z" fill="#22576F"/>
<path d="M193.6 180.1H204.4L204.5 180.2L204.4 180.3H193.6L193.5 180.2L193.6 180.1Z" fill="#22576F"/>
<path d="M193.6 179.4H204.4L204.5 179.5L204.4 179.6H193.6L193.5 179.5L193.6 179.4Z" fill="#22576F"/>
<path d="M192.9 173.5H205.9L206 173.6L205.9 173.8H192.9L192.8 173.6L192.9 173.5Z" fill="#22576F"/>
<path d="M18.6 194.6V194.5H20.1H20.2V194.6V197.8V197.9L20.1 198H18.6V197.9L18.5 197.8V194.6L18.6 194.5V194.6H18.8V197.7H20V194.7H18.6V194.6H18.8H18.6Z" fill="#22576F"/>
<path d="M76.2 194.6V194.5H77.7L77.8 194.6V197.8L77.7 197.9V198H76.2L76.1 197.9V197.8V194.6V194.5H76.2V194.6H76.3V197.7H77.5V194.7H76.2V194.6H76.3H76.2Z" fill="#22576F"/>
<path d="M35.2 194.6V194.5H36.6H36.7L36.8 194.6V197.8L36.7 197.9L36.6 198H35.2L35.1 197.9V197.8V194.6V194.5H35.2V194.6H35.3V197.7H36.5V194.7H35.2V194.6H35.3H35.2Z" fill="#22576F"/>
<path d="M20.1 197H35.2L35.3 197.1L35.2 197.3H20.1L20 197.1L20.1 197Z" fill="#22576F"/>
<path d="M20.1 196.3H35.2L35.3 196.4L35.2 196.5H20.1L20 196.4L20.1 196.3Z" fill="#22576F"/>
<path d="M36.6 197H76.2L76.3 197.1L76.2 197.3H36.6L36.5 197.1L36.6 197Z" fill="#22576F"/>
<path d="M36.6 196.3H76.2L76.3 196.4L76.2 196.5H36.6L36.5 196.4L36.6 196.3Z" fill="#22576F"/>
<path d="M19.4 190.4H76.9L77.1 190.6L76.9 190.7H19.4L19.2 190.6L19.4 190.4Z" fill="#22576F"/>
<path d="M170.5 176.3V176.5H130.3V184.9H170.4V176.3H170.5V176.5V176.3H170.6V185V185.1H170.5H130.2H130.1V185V176.3L130.2 176.2H170.5L170.6 176.3H170.5Z" fill="#22576F"/>
<path d="M15.1 143.1V142.9H32.4L32.5 143V143.1V189.1V189.2H32.4H15.1H15V189.1V143.1V143L15.1 142.9V143.1H15.3V189H32.3V143.2H15.1V143.1H15.3H15.1Z" fill="#22576F"/>
<path d="M19.7 157.5V157.3H20.8L20.9 157.4V157.5V174.7V174.8L20.8 174.9H19.7L19.6 174.8V174.7V157.5V157.4L19.7 157.3V157.5H19.9V174.6H20.7V157.6H19.7V157.5H19.9H19.7Z" fill="#22576F"/>
<path d="M26 158.8V158.7H30.4H30.5V158.8V173.2V173.3H30.4H26L25.9 173.2V158.8L26 158.7V158.8H26.2V173.1H30.2V158.9H26V158.8H26.2H26Z" fill="#22576F"/>
<path d="M19.7 163.5H18.2V168.7H19.7L19.9 168.8L19.7 168.9H18.1H18V168.8V163.4V163.3H18.1H19.7L19.9 163.4L19.7 163.5Z" fill="#22576F"/>
<path d="M38.9 159.9H32.4L32.3 159.8L32.4 159.7H38.9L39 159.8L38.9 159.9Z" fill="#22576F"/>
<path d="M20.8 168.7H22.3V163.5H20.8L20.7 163.4L20.8 163.3H22.4H22.5L22.6 163.4V168.8L22.5 168.9H22.4H20.8L20.7 168.8L20.8 168.7Z" fill="#22576F"/>
<path d="M38.9 172.5H32.4L32.3 172.4L32.4 172.3H38.9L39 172.4L38.9 172.5Z" fill="#22576F"/>
<path d="M38.9 159.1V158.9H40L40.1 159V159.1V173.1V173.2H40H38.9H38.8V173.1V159.1V159L38.9 158.9V159.1H39V173H39.8V159.2H38.9V159.1H39H38.9Z" fill="#22576F"/>
<path d="M27.3 155.2V155.3C27.1 155.4 27 155.5 27 155.8V155.9C27.1 156.1 27.2 156.2 27.5 156.2H27.6C28.1 156.1 28.7 156 29.3 155.9C29.5 155.9 29.6 155.7 29.6 155.6C29.6 155.5 29.5 155.3 29.4 155.3C29.1 155.2 28.8 155.1 28.4 155.1C28.1 155.1 27.7 155.2 27.4 155.3L27.3 155.2V155.1C27.7 155 28 154.9 28.4 154.9C28.8 154.9 29.1 155 29.5 155.1C29.7 155.2 29.9 155.4 29.9 155.6C29.9 155.9 29.7 156.2 29.3 156.2C28.8 156.2 28.2 156.3 27.7 156.5H27.5C27.2 156.5 26.9 156.3 26.8 156V155.8C26.8 155.5 27 155.2 27.3 155.1V155.2Z" fill="#22576F"/>
<path d="M150.9 96.2V96.3H126.6V111.8H150.8V96.2H150.9V96.3V96.2H151V112V112.1H150.9H126.5H126.4L126.3 112V96.2L126.4 96.1H126.5H150.9H151V96.2H150.9Z" fill="#22576F"/>
<path d="M171.8 68.8H171.7C171.7 65.6 174.3 62.9 177.6 62.9C180.8 62.9 183.5 65.5 183.5 68.8C183.5 72 180.9 74.7 177.6 74.7C174.4 74.7 171.7 72.1 171.7 68.8H171.8H171.9C171.9 70.4 172.5 71.8 173.5 72.8C174.5 73.8 175.9 74.4 177.5 74.4C179.1 74.4 180.5 73.8 181.5 72.8C182.5 71.8 183.1 70.4 183.1 68.8C183.1 67.2 182.5 65.8 181.5 64.8C180.5 63.8 179.1 63.2 177.5 63.2C175.9 63.2 174.5 63.8 173.5 64.8C172.5 65.8 171.9 67.2 171.9 68.8H171.8Z" fill="#22576F"/>
<path d="M176.1 68.8H176C176 67.9 176.7 67.2 177.6 67.2C178.5 67.2 179.2 67.9 179.2 68.8C179.2 69.7 178.5 70.4 177.6 70.4C176.7 70.4 176 69.7 176 68.8H176.1H176.2C176.2 69.5 176.8 70.2 177.6 70.2C178.3 70.2 179 69.6 179 68.8C179 68.1 178.4 67.4 177.6 67.4C176.9 67.4 176.2 68 176.2 68.8H176.1Z" fill="#22576F"/>
<path d="M183.3 69H179.1L178.9 68.8L179.1 68.7H183.3L183.5 68.8L183.3 69Z" fill="#22576F"/>
<path d="M176.1 69H171.8L171.7 68.8L171.8 68.7H176.1L176.2 68.8L176.1 69Z" fill="#22576F"/>
<path d="M177.4 74.6V70.3L177.6 70.2L177.7 70.3V74.6L177.6 74.7L177.4 74.6Z" fill="#22576F"/>
<path d="M177.4 67.4V63.1L177.6 63L177.7 63.1V67.4L177.6 67.5L177.4 67.4Z" fill="#22576F"/>
<path d="M170.4 61.6V61.5H184.8L184.9 61.6V81.8V81.9H184.8H170.4H170.3L170.2 81.8V61.6H170.3L170.4 61.5V61.6H170.5V81.7H184.7V61.8H170.4V61.6H170.5H170.4Z" fill="#22576F"/>
<path d="M168.9 60.3H108.5L108.3 60.2L108.5 60.1H168.9L169 60.2L168.9 60.3Z" fill="#22576F"/>
<path d="M108.3 83.2V60.2L108.5 60.1L108.6 60.2V83.2L108.5 83.4L108.3 83.2Z" fill="#22576F"/>
<path d="M168.8 83.2V60.2L168.9 60.1L169 60.2V83.2L168.9 83.4L168.8 83.2Z" fill="#22576F"/>
<path d="M165.9 83.2V63.8L166 63.7L166.2 63.8V83.2L166 83.4L165.9 83.2Z" fill="#22576F"/>
<path d="M168.9 63.2H108.5L108.3 63.1L108.5 63H168.9L169 63.1L168.9 63.2Z" fill="#22576F"/>
<path d="M168.9 83.4H108.5L108.3 83.2L108.5 83.1H168.9L169 83.2L168.9 83.4Z" fill="#22576F"/>
<path d="M147.7 83.2V64.5L147.8 64.4L147.9 64.5V83.2L147.8 83.4L147.7 83.2Z" fill="#22576F"/>
<path d="M129.5 83.2V64.5L129.6 64.4L129.7 64.5V83.2L129.6 83.4L129.5 83.2Z" fill="#22576F"/>
<path d="M166 64.6H111.3L111.2 64.5L111.3 64.4H166L166.2 64.5L166 64.6Z" fill="#22576F"/>
<path d="M108.5 63.7H111.3L111.5 63.8L111.3 63.9H108.5L108.3 63.8L108.5 63.7Z" fill="#22576F"/>
<path d="M168.9 63.9H166L165.9 63.8L166 63.7H168.9L169 63.8L168.9 63.9Z" fill="#22576F"/>
<path d="M111.2 83.2V63.8L111.3 63.7L111.5 63.8V83.2L111.3 83.4L111.2 83.2Z" fill="#22576F"/>
<path d="M147.8 137.8C149.1 142.6 153.4 145.7 158.1 145.7C159 145.7 159.9 145.6 160.9 145.3C165.7 144 168.8 139.7 168.8 135C168.8 134.1 168.7 133.2 168.4 132.2L168.5 132L168.7 132.1C169 133 169.1 134 169.1 134.9C169.1 139.7 165.9 144.1 161 145.4C160.1 145.7 159.1 145.8 158.2 145.8C153.4 145.8 149 142.6 147.7 137.7L147.8 137.5V137.8Z" fill="#22576F"/>
<path d="M150.6 137.1C151.5 140.6 154.7 142.9 158.1 142.9C158.8 142.9 159.4 142.8 160.1 142.6C163.6 141.7 165.9 138.5 165.9 135.1C165.9 134.4 165.8 133.8 165.6 133.1L165.7 132.9L165.9 133C166.1 133.7 166.2 134.4 166.2 135.1C166.2 138.7 163.8 141.9 160.2 142.9C159.5 143.1 158.8 143.2 158.1 143.2C154.5 143.2 151.3 140.8 150.3 137.2L150.4 137L150.6 137.1Z" fill="#22576F"/>
<path d="M150.4 137.1L147.6 126.7L147.7 126.6L147.8 126.7L150.6 137.1L150.5 137.2L150.4 137.1Z" fill="#22576F"/>
<path d="M163.1 122.6L165.9 133L165.8 133.1L165.7 133L162.9 122.6V122.5L163.1 122.6Z" fill="#22576F"/>
<path d="M147.6 137.9L144.8 127.5L144.9 127.3L145 127.4L147.8 137.8L147.7 138L147.6 137.9Z" fill="#22576F"/>
<path d="M144.9 127.3L165.7 121.7L165.9 121.8L165.8 122L144.9 127.5H144.8L144.9 127.3Z" fill="#22576F"/>
<path d="M165.9 121.8L168.7 132.2L168.6 132.4L168.4 132.3L165.6 121.9L165.7 121.7L165.9 121.8Z" fill="#22576F"/>
<path d="M150.2 135.7C151.1 139.2 154.3 141.5 157.7 141.5C158.4 141.5 159 141.4 159.7 141.2C163.2 140.3 165.5 137.1 165.5 133.7C165.5 133 165.4 132.4 165.2 131.7L165.3 131.5L165.5 131.6C165.7 132.3 165.8 133 165.8 133.7C165.8 137.3 163.4 140.5 159.8 141.5C159.1 141.7 158.4 141.8 157.7 141.8C154.1 141.8 150.9 139.4 149.9 135.8L150 135.6L150.2 135.7Z" fill="#22576F"/>
<path d="M165.5 182.1V182.2H135.2H135.1V182.1V181.4V181.3H135.2H165.5H165.6V181.4V182.1V182.2H165.5V182.1H165.3V181.5H135.4V182H165.5V182.1H165.3H165.5Z" fill="#22576F"/>
<path d="M145.9 181.4V178.5V178.4H146H154.7H154.8V178.5V181.4L154.7 181.5L154.5 181.4V178.6H146.2V181.4L146 181.5L145.9 181.4Z" fill="#22576F"/>
<path d="M154.8 182.1V183.5V183.6L154.7 183.7H146L145.9 183.6V183.5V182.1L146 182L146.2 182.1V183.4H154.5V182.1L154.7 182L154.8 182.1Z" fill="#22576F"/>
<path d="M80.5 182.1C82.6 184.2 85.3 185.2 88 185.2C90.7 185.2 93.5 184.2 95.5 182.1C97.6 180 98.6 177.3 98.6 174.6C98.6 171.9 97.6 169.1 95.5 167.1V166.9H95.7C97.8 169 98.9 171.8 98.9 174.6C98.9 177.4 97.8 180.2 95.7 182.3C93.6 184.4 90.8 185.5 88 185.5C85.2 185.5 82.4 184.4 80.3 182.3V182.1H80.5Z" fill="#22576F"/>
<path d="M82.5 180.1C84 181.6 86 182.4 88 182.4C90 182.4 92 181.6 93.5 180.1C95 178.6 95.8 176.6 95.8 174.6C95.8 172.6 95 170.6 93.5 169.1V168.9H93.7C95.3 170.5 96.1 172.5 96.1 174.6C96.1 176.7 95.3 178.7 93.7 180.3C92.1 181.9 90.1 182.7 88 182.7C85.9 182.7 83.9 181.9 82.3 180.3V180.1H82.5Z" fill="#22576F"/>
<path d="M93.5 169.1L85.9 161.4V161.2H86.1L93.7 168.9V169.1H93.5Z" fill="#22576F"/>
<path d="M74.9 172.4L82.5 180.1V180.3H82.3L74.7 172.6V172.4H74.9Z" fill="#22576F"/>
<path d="M95.6 167L87.9 159.4V159.2H88.1L95.7 166.8V167H95.6Z" fill="#22576F"/>
<path d="M88.1 159.4L72.8 174.7H72.7V174.5L87.9 159.2H88.1V159.4Z" fill="#22576F"/>
<path d="M72.8 174.5L80.5 182.1V182.3H80.3L72.7 174.7V174.5H72.8Z" fill="#22576F"/>
<path d="M81.5 179.1C83 180.6 85 181.4 87 181.4C89 181.4 91 180.6 92.5 179.1C94 177.6 94.8 175.6 94.8 173.6C94.8 171.6 94 169.6 92.5 168.1V167.9H92.7C94.3 169.5 95.1 171.5 95.1 173.6C95.1 175.7 94.3 177.7 92.7 179.3C91.1 180.9 89.1 181.7 87 181.7C84.9 181.7 82.9 180.9 81.3 179.3V179.1H81.5Z" fill="#22576F"/>
<path d="M109 132.3C108.8 133.2 108.6 134.2 108.6 135.1C108.6 139.8 111.7 144.1 116.5 145.4C117.4 145.6 118.4 145.8 119.3 145.8C124 145.8 128.3 142.7 129.6 137.9L129.8 137.8L129.9 138C128.6 142.9 124.2 146.1 119.4 146.1C118.5 146.1 117.5 146 116.6 145.7C111.7 144.4 108.5 140 108.5 135.2C108.5 134.3 108.6 133.3 108.9 132.4L109.1 132.3H109Z" fill="#22576F"/>
<path d="M111.7 133C111.5 133.7 111.4 134.4 111.4 135C111.4 138.4 113.7 141.6 117.2 142.5C117.9 142.7 118.6 142.8 119.2 142.8C122.6 142.8 125.8 140.5 126.7 137L126.9 136.9L127 137.1C126 140.7 122.8 143.1 119.2 143.1C118.5 143.1 117.8 143 117.1 142.8C113.5 141.8 111.1 138.6 111.1 135C111.1 134.3 111.2 133.6 111.4 132.9L111.6 132.8L111.7 133Z" fill="#22576F"/>
<path d="M126.8 137.1L129.6 126.7L129.7 126.6L129.8 126.7L127 137.1L126.9 137.2L126.8 137.1Z" fill="#22576F"/>
<path d="M114.5 122.6L111.7 133L111.6 133.1L111.5 133L114.3 122.6L114.4 122.5L114.5 122.6Z" fill="#22576F"/>
<path d="M129.6 137.8L132.4 127.4L132.5 127.3L132.6 127.5L129.8 137.9L129.7 138L129.6 137.8Z" fill="#22576F"/>
<path d="M132.5 127.5L111.6 122L111.5 121.8L111.7 121.7L132.5 127.3L132.6 127.5H132.5Z" fill="#22576F"/>
<path d="M111.8 121.9L109 132.3L108.8 132.4L108.7 132.2L111.5 121.8L111.7 121.7L111.8 121.9Z" fill="#22576F"/>
<path d="M112.1 131.7C111.9 132.4 111.8 133.1 111.8 133.7C111.8 137.1 114.1 140.3 117.6 141.2C118.3 141.4 119 141.5 119.6 141.5C123 141.5 126.2 139.2 127.1 135.7L127.3 135.6L127.4 135.8C126.4 139.4 123.2 141.8 119.6 141.8C118.9 141.8 118.2 141.7 117.5 141.5C113.9 140.5 111.5 137.3 111.5 133.7C111.5 133 111.6 132.3 111.8 131.6L112 131.5L112.1 131.7Z" fill="#22576F"/>
<path d="M22.6 80H19.2L19.1 79.8L19.2 79.7H22.6L22.8 79.8L22.6 80Z" fill="#22576F"/>
<path d="M22.6 79.7L22.7 79.6L22.8 79.5L22.9 79.6C22.9 79.8 22.7 80 22.5 80L22.4 79.9L22.6 79.7Z" fill="#22576F"/>
<path d="M22.8 79.2L22.7 79.1L22.6 79L22.7 78.9C22.9 78.9 23.1 79.1 23.1 79.3L23 79.4L22.8 79.2Z" fill="#22576F"/>
<path d="M22.8 79.6V79.2L22.9 79L23 79.2V79.6L22.9 79.7L22.8 79.6Z" fill="#22576F"/>
<path d="M19.2 78.9L19.4 79L19.5 79.1L19.4 79.2C19.3 79.2 19.1 79.1 19 79V78.8L19.2 78.9Z" fill="#22576F"/>
<path d="M19.4 79.7L19.2 79.8H19V79.6C19.1 79.5 19.2 79.4 19.4 79.4L19.5 79.5L19.4 79.7Z" fill="#22576F"/>
<path d="M21 79.7H19.4L19.3 79.6L19.4 79.5H21L21.2 79.6L21 79.7Z" fill="#22576F"/>
<path d="M19.4 79H21L21.2 79.1L21 79.2H19.4L19.3 79.1L19.4 79Z" fill="#22576F"/>
<path d="M21.1 79.4L21 79.2V79H21.1L21.3 79.2V79.4H21.1Z" fill="#22576F"/>
<path d="M21.1 79.5V79.3L21.2 79.1L21.3 79.3V79.5L21.2 79.6L21.1 79.5Z" fill="#22576F"/>
<path d="M19 78.7H19.2L19.3 78.8L19.2 78.9C19.1 78.9 19 78.9 18.9 78.8L18.8 78.6L19 78.7Z" fill="#22576F"/>
<path d="M19.2 80H19L18.8 79.9L18.9 79.7C19 79.7 19.1 79.6 19.2 79.6L19.3 79.7L19.2 80Z" fill="#22576F"/>
<path d="M19.2 78.8H22.6L22.8 78.9L22.6 79H19.2L19.1 78.9L19.2 78.8Z" fill="#22576F"/>
<path d="M19.1 79C19 78.9 18.8 78.8 18.7 78.8C18.6 78.8 18.4 78.8 18.3 78.9C18.2 79 18.1 79.2 18.1 79.3C18.1 79.4 18.1 79.6 18.2 79.7C18.3 79.8 18.5 79.9 18.6 79.9C18.7 79.9 18.9 79.9 19 79.8H19.2V80C19 80.1 18.8 80.2 18.7 80.2C18.5 80.2 18.3 80.1 18.1 79.9C18 79.7 17.9 79.5 17.9 79.4C17.9 79.2 18 79 18.2 78.8C18.4 78.7 18.6 78.6 18.7 78.6C18.9 78.6 19.1 78.7 19.3 78.9V79.1L19.1 79Z" fill="#22576F"/>
<path d="M19.1 79.1C19 79 18.9 79 18.8 79C18.7 79 18.6 79 18.5 79.1C18.4 79.2 18.4 79.3 18.4 79.4C18.4 79.5 18.4 79.6 18.5 79.7C18.6 79.8 18.7 79.8 18.8 79.8C18.9 79.8 19 79.8 19.1 79.7H19.3V79.9C19.2 80 19 80.1 18.8 80.1C18.6 80.1 18.4 80 18.3 79.9C18.2 79.8 18.1 79.6 18.1 79.4C18.1 79.2 18.2 79 18.3 78.9C18.4 78.8 18.6 78.7 18.8 78.7C19 78.7 19.2 78.8 19.3 78.9V79.1H19.1Z" fill="#22576F"/>
<path d="M21 79.5L21.1 79.4H21.3V79.6L21.1 79.7H21V79.5Z" fill="#22576F"/>
<path d="M29.5 72H30.9L31 72.2L30.9 72.3H29.5L29.4 72.2L29.5 72Z" fill="#22576F"/>
<path d="M30.9 86.7H29.5L29.4 86.6L29.5 86.4H30.9L31 86.6L30.9 86.7Z" fill="#22576F"/>
<path d="M30.3 84.6C30.5 84.6 30.7 84.4 30.7 84.2L30.8 84.1L30.9 84.2C30.9 84.6 30.6 84.8 30.2 84.8L30.1 84.7L30.3 84.6Z" fill="#22576F"/>
<path d="M23.1 83.4C25.4 84.1 27.9 84.5 30.3 84.6L30.4 84.7L30.3 84.8C27.8 84.7 25.4 84.3 23 83.6L22.9 83.4H23.1Z" fill="#22576F"/>
<path d="M23.1 75.3C21.5 75.8 20.3 77.2 20.1 78.9L20 79L19.9 78.9C20.1 77.1 21.3 75.6 23 75.1L23.2 75.2L23.1 75.3Z" fill="#22576F"/>
<path d="M20.1 79.8C20.3 81.5 21.4 82.9 23.1 83.4L23.2 83.6L23 83.7C21.3 83.2 20 81.7 19.9 79.9L20 79.8H20.1Z" fill="#22576F"/>
<path d="M30.3 74.1C27.8 74.2 25.4 74.6 23.1 75.3L22.9 75.2L23 75C25.4 74.3 27.8 73.9 30.3 73.8L30.4 73.9L30.3 74.1Z" fill="#22576F"/>
<path d="M30.8 74.5C30.8 74.3 30.6 74.1 30.4 74.1L30.3 74L30.4 73.9C30.8 73.9 31.1 74.2 31.1 74.6L31 74.7L30.8 74.5Z" fill="#22576F"/>
<path d="M31 74.5V84.2L30.9 84.3L30.8 84.2V74.5L30.9 74.4L31 74.5Z" fill="#22576F"/>
<path d="M13.7 86.6V86.5H30.9C32 86.5 32.9 85.6 32.9 84.5V74.4C32.9 73.3 32 72.4 30.9 72.4H13.8V86.7H13.7V86.6H13.6V72.2V72.1H13.7H30.9C32.2 72.1 33.2 73.1 33.2 74.4V84.5C33.2 85.8 32.2 86.8 30.9 86.8H13.7V86.6Z" fill="#22576F"/>
<path d="M21.3 78.8C21.1 78.8 21 78.9 20.8 79H20.6V78.8C20.8 78.6 21 78.5 21.2 78.5L21.3 78.6V78.8Z" fill="#22576F"/>
<path d="M20.9 79.8C21 79.9 21.2 80 21.4 80L21.5 80.1L21.4 80.2C21.2 80.2 20.9 80.1 20.8 79.9V79.7L20.9 79.8Z" fill="#22576F"/>
<path d="M21.3 80C21.5 80 21.6 79.9 21.8 79.8H22V80C21.8 80.2 21.6 80.3 21.4 80.3L21.3 80.2V80Z" fill="#22576F"/>
<path d="M21.8 79C21.7 78.9 21.5 78.8 21.3 78.8L21.2 78.7L21.3 78.6C21.5 78.6 21.8 78.7 21.9 78.9V79.1L21.8 79Z" fill="#22576F"/>
<path d="M29.8 84.2C29.9 84.2 30 84.1 30 84L30.1 83.9L30.2 84C30.2 84.3 30 84.5 29.7 84.5L29.6 84.4L29.8 84.2Z" fill="#22576F"/>
<path d="M24.2 83.7C25.7 84 27.2 84.2 28.7 84.2C29.1 84.2 29.4 84.2 29.8 84.2L29.9 84.3L29.8 84.4C29.4 84.4 29.1 84.4 28.7 84.4C27.2 84.4 25.7 84.2 24.2 83.9L24.1 83.8L24.2 83.7Z" fill="#22576F"/>
<path d="M23.1 75.3C23 75.3 22.9 75.4 22.7 75.4L22.5 75.3L22.6 75.1C22.7 75.1 22.9 75 23 75L23.2 75.1L23.1 75.3Z" fill="#22576F"/>
<path d="M22.8 83.3C22.9 83.3 23 83.4 23.2 83.4L23.3 83.6L23.1 83.7C23 83.7 22.8 83.6 22.7 83.6L22.6 83.4L22.8 83.3Z" fill="#22576F"/>
<path d="M29.8 74.6C29.4 74.6 29.1 74.6 28.7 74.6C27.2 74.6 25.7 74.8 24.2 75.1L24.1 75L24.2 74.9C25.7 74.6 27.2 74.4 28.7 74.4C29.1 74.4 29.4 74.4 29.8 74.4L29.9 74.5L29.8 74.6Z" fill="#22576F"/>
<path d="M30 74.8C30 74.7 29.9 74.6 29.8 74.6L29.7 74.5L29.8 74.4C30.1 74.4 30.3 74.6 30.3 74.9L30.2 75L30 74.8Z" fill="#22576F"/>
<path d="M30 83.9V74.8L30.1 74.7L30.3 74.8V83.9L30.1 84.1L30 83.9Z" fill="#22576F"/>
<path d="M24.4 42.7C25.3 43 26.3 43.1 27.2 43.1L27.3 43.2L27.2 43.3C26.2 43.3 25.3 43.2 24.3 42.9L24.2 42.7H24.4Z" fill="#22576F"/>
<path d="M22.2 41.7C22.9 42.2 23.6 42.5 24.4 42.8L24.5 43L24.3 43.1C23.5 42.9 22.7 42.5 22 42V41.8L22.2 41.7Z" fill="#22576F"/>
<path d="M21.5 41.1C21.7 41.3 21.9 41.5 22.2 41.7V41.9H22C21.8 41.7 21.5 41.5 21.3 41.3V41.1H21.5Z" fill="#22576F"/>
<path d="M27.2 43.1C28.2 43.1 29.1 43 30 42.7C30.8 42.5 31.5 42.1 32.2 41.6C32.8 41.1 33.4 40.5 33.8 39.9C34.1 39.3 34.3 38.7 34.3 38.1C34.3 37.5 34.1 36.8 33.8 36.3C33.4 35.6 32.9 35 32.2 34.6C31.5 34.1 30.8 33.8 30 33.5C29.1 33.2 28.1 33.1 27.2 33.1C26.2 33.1 25.3 33.2 24.4 33.5C23.6 33.7 22.9 34.1 22.2 34.6C22 34.8 21.7 35 21.5 35.2L21.4 35.1H21.5V41.3L21.4 41.4L21.3 41.3V35.1V35C21.5 34.8 21.7 34.6 22 34.4C22.7 33.9 23.5 33.5 24.3 33.3C25.2 33 26.2 32.9 27.2 32.9C28.2 32.9 29.1 33 30.1 33.3C30.9 33.5 31.7 33.9 32.4 34.4C33.1 34.9 33.6 35.5 34 36.2C34.3 36.8 34.5 37.5 34.5 38.1C34.5 38.8 34.3 39.5 34 40C33.6 40.7 33 41.3 32.4 41.8C31.7 42.3 30.9 42.7 30.1 42.9C29.2 43.2 28.2 43.3 27.2 43.3L27.1 43.2L27.2 43.1Z" fill="#22576F"/>
<path d="M18.2 42C20.5 42.1 22.8 42.4 25.1 42.9L25.2 43L25.1 43.1C22.8 42.7 20.6 42.4 18.3 42.2L18.2 42.1V42Z" fill="#22576F"/>
<path d="M19 36.1H18.9C18.8 35.6 18.6 35.1 18.4 34.6C18.1 34.1 17.8 33.6 17.3 33.3C17.2 33.2 17 33.2 16.9 33.2H16.8L14.7 33.6L14.6 33.8V42.5L14.7 42.7L16.8 43.1H16.9C17.1 43.1 17.2 43.1 17.3 43C17.8 42.7 18.2 42.2 18.4 41.7C18.6 41.2 18.8 40.7 18.9 40.2C19 39.5 19.1 38.9 19.1 38.2C19.1 37.5 19 36.9 18.9 36.2L19 36.1H19.1C19.2 36.8 19.3 37.4 19.3 38.1C19.3 38.8 19.2 39.5 19.1 40.1C19 40.6 18.8 41.1 18.6 41.6C18.3 42.2 17.9 42.7 17.4 43C17.2 43.1 17 43.2 16.8 43.2H16.6L14.5 42.8C14.3 42.8 14.2 42.6 14.2 42.4V33.7C14.2 33.5 14.3 33.3 14.5 33.3L16.6 32.9H16.8C17 32.9 17.2 33 17.4 33.1C17.9 33.5 18.3 34 18.6 34.5C18.8 35 19 35.5 19.1 36L19 36.1Z" fill="#22576F"/>
<path d="M18.1 33.9C20.4 33.8 22.7 33.5 24.9 33L25 33.1L24.9 33.2C22.6 33.6 20.3 33.9 18 34.1L17.9 34L18.1 33.9Z" fill="#22576F"/>
<path d="M16.4 38.1H16.3C16.3 37.7 16.6 37.4 17 37.4C17.4 37.4 17.7 37.7 17.7 38.1C17.7 38.5 17.4 38.8 17 38.8C16.6 38.8 16.3 38.5 16.3 38.1H16.4H16.5C16.5 38.3 16.7 38.5 16.9 38.5C17.1 38.5 17.3 38.3 17.3 38.1C17.3 37.9 17.1 37.7 16.9 37.7C16.7 37.7 16.5 37.9 16.5 38.1H16.4Z" fill="#22576F"/>
<path d="M186.4 273.4H186.3V266.6L7.1 242.7L7 242.6V236.8V236.7H7.1L192.2 261.3L192.3 261.5V273.4V273.5H192.2H186.4H186.3V273.4H186.4V273.3H192.1V261.6L7.3 236.9V242.5L186.4 266.4L186.6 266.5V273.4H186.4V273.3V273.4Z" fill="#22576F"/>
<path d="M246.1 273.4V273.5H240.3H240.2V273.4V236.8V236.7H240.3L246.1 237.4L246.2 237.6V273.4V273.5H246.1V273.4H245.9V237.7L240.4 236.9V273.3H246.1V273.4H245.9H246.1Z" fill="#22576F"/>
<path d="M238.1 121.5H206.4L206.3 121.3L206.4 121.2H238.1L238.2 121.3L238.1 121.5Z" fill="#22576F"/>
<path d="M13.7 105.7H64.6L64.7 105.8L64.6 105.9H13.7L13.6 105.8L13.7 105.7Z" fill="#22576F"/>
<path d="M18.6 227V227.1H7.1H7V227V15.8V15.7L7.1 15.6H208.5L208.6 15.7V15.8V17.3H209.9H210V17.4V21V21.1H209.9H208.6V24.5V24.6H208.5H184.3V26V26.1H184.2H180.9H180.8V26V24.6H70.8V50.2H72.5H72.6V50.3V58.8V58.9H72.5H68V61.6V61.7L67.9 61.8H64.6L64.5 61.7L64.4 61.6V26.3H13.8V92.3H64.4V86.1L64.5 86H64.6H67.9H68V86.1V116.3V116.4L67.9 116.5H56.4L56.3 116.4L56.2 116.3V113L56.3 112.9H56.4H64.4V95.9H13.8V112.9H21.8H21.9V113V116.3V116.4L21.8 116.5H13.8V190.4H19.4L19.5 190.5V190.6V194.6V194.7H19.4H18.8V227L18.7 227.1H18.6V227H18.5V194.6L18.6 194.5H19.2V190.7H13.7H13.6V190.6V116.3V116.2H13.7H21.7V113.1H13.7H13.6V113V95.7V95.6H13.7H64.6H64.7V95.7V113V113.1H64.6H56.5V116.2H67.8V86.2H64.7V92.4V92.5H64.6H13.7H13.6V92.4V26.2V26.1H13.7H64.6H64.7V26.2V61.5H67.8V58.8V58.7L67.9 58.6H72.4V50.4H70.7H70.6V50.3V24.5V24.4H70.7H180.9H181V24.5V25.9H184.1V24.5V24.4H184.2H208.3V21L208.4 20.9H208.5H209.8V17.5H208.5H208.4L208.3 17.4V15.9H7.2V226.9H18.6V227H18.5H18.6Z" fill="#22576F"/>
<path d="M77 190.6H77.1V194.5H77.7L77.8 194.6V197.7H192.1V177.7V177.6H192.2H192.8V173.8H185V185V185.1H184.9H115.9V190.6V190.7H115.8H77V190.6H77.1H77V190.4H115.7V185V184.9H115.8H184.8V173.6L184.9 173.5H192.9L193 173.6V177.7V177.8H192.9H192.3V197.8V197.9L192.2 198H77.7L77.6 197.9L77.5 197.8V194.7H76.9L76.8 194.6V190.6L77 190.4V190.6Z" fill="#22576F"/>
<path d="M210.2 173.6V173.8H206V182H210.1V173.6H210.2V173.8V173.6H210.3V182.1V182.2H210.2H205.9H205.8L205.7 182.1V173.6H205.8L205.9 173.5H210.2L210.3 173.6H210.2Z" fill="#22576F"/>
<path d="M236.1 173.6H236.2V182H240.3H240.4V182.1V226.9H246.8V15.9H235.9V17.4V17.5H235.8H234.5V20.9H235.8H235.9V21V24.4H238.1H238.2V24.5V110.8V110.9H238.1H235.3V114H238.1H238.2V114.1V131.4V131.5H238.1H206.4H206.3V131.4V114.1V114H206.4H209.2V110.9H206.4H206.3V110.8V108.4H200.4V137.4H238.1H238.2V137.5V173.6V173.7L238.1 173.8H236.1V173.6H236.2H236.1V173.5H237.9V137.6H200.3H200.2V137.5V108.3V108.2H200.3H206.4H206.5V108.3V110.7H209.3H209.4V110.8V114.1V114.2L209.3 114.3H206.5V131.3H237.9V114.3H235.2L235.1 114.2V114.1V110.8V110.7H235.2H237.9V24.6H235.8H235.7V24.5V21.1H234.4H234.3V21V17.4V17.3H234.4H235.7V15.8V15.7L235.8 15.6H246.9L247 15.7V15.8V227V227.1H246.9H240.3H240.2V227V182.2H236.1H236V182.1V173.6L236.1 173.5V173.6Z" fill="#22576F"/>
<path d="M94.1 50.3H94.2V58.6H200.3L200.4 58.7V58.8V83.7H206.3V50.4H184.2H184.1V50.3V49.2H181V50.3V50.4H180.9H94.1V50.3H94.2H94.1V50.2H180.8V49L180.9 48.9H184.2L184.3 49V50.2H206.4H206.5V50.3V83.8V83.9H206.4H200.3H200.2V83.8V58.9H94.1H94L93.9 58.8V50.3L94 50.2H94.1V50.3Z" fill="#22576F"/>
<path d="M156 37.4C156 36.5 156.7 35.8 157.6 35.8C158.5 35.8 159.2 36.5 159.2 37.4C159.2 38.3 158.5 39 157.6 39C156.7 39 156 38.3 156 37.4L156.1 37.3H157.5H157.6V37.4V37.5H157.5H121.5L121.4 37.4L121.5 37.3L125.1 36H125.2L125.3 36.1V37.4L125.2 37.5L125.1 37.4V36.3L122.3 37.3H157.6H157.7V37.4V37.5H157.6H156.2V37.4H156.3C156.3 38.1 156.9 38.7 157.6 38.7C158.3 38.7 158.9 38.1 158.9 37.4C158.9 36.7 158.3 36.1 157.6 36.1C156.9 36.1 156.3 36.7 156.3 37.4L156.2 37.5L156 37.4Z" fill="#22576F"/>
<path d="M236.1 182.2H210.2L210.1 182.1L210.2 182H236.1L236.2 182.1L236.1 182.2Z" fill="#22576F"/>
<path d="M236.1 173.8H210.2L210.1 173.6L210.2 173.5H236.1L236.2 173.6L236.1 173.8Z" fill="#22576F"/>
<path d="M234.4 21.1H209.9L209.8 21L209.9 20.9H234.4L234.5 21L234.4 21.1Z" fill="#22576F"/>
<path d="M234.4 17.5H209.9L209.8 17.4L209.9 17.3H234.4L234.5 17.4L234.4 17.5Z" fill="#22576F"/>
<path d="M117.3 224.5H116.5V225.6H116.1V222.5H117.3C118 222.5 118.5 222.9 118.5 223.5C118.5 224.2 117.9 224.5 117.3 224.5ZM117.3 222.8H116.5V224.2H117.3C117.8 224.2 118.2 223.9 118.2 223.5C118.1 223 117.8 222.8 117.3 222.8Z" fill="#22576F"/>
<path d="M122 225.6H121.6L121.2 224.8H119.5L119.1 225.6H118.7L120.1 222.5H120.4L122 225.6ZM120.4 222.9L119.7 224.5H121.1L120.4 222.9Z" fill="#22576F"/>
<path d="M123.7 225.6H123.3V222.8H122.3V222.5H124.8V222.8H123.8V225.6H123.7Z" fill="#22576F"/>
<path d="M126 222.5V225.6H125.6V222.5H126Z" fill="#22576F"/>
<path d="M128.6 225.7C127.7 225.7 127 225 127 224.1C127 223.2 127.6 222.5 128.6 222.5C129.5 222.5 130.2 223.2 130.2 224.1C130.2 225 129.5 225.7 128.6 225.7ZM128.6 222.8C127.9 222.8 127.4 223.4 127.4 224.1C127.4 224.8 127.9 225.4 128.6 225.4C129.3 225.4 129.8 224.8 129.8 224.1C129.8 223.4 129.3 222.8 128.6 222.8Z" fill="#22576F"/>
<path d="M28.9 61.3H28.1V62.4H27.7V59.3H29C29.7 59.3 30.2 59.7 30.2 60.3C30.2 61 29.6 61.3 28.9 61.3ZM29 59.6H28.2V61H29C29.5 61 29.9 60.7 29.9 60.3C29.8 59.9 29.5 59.6 29 59.6Z" fill="#22576F"/>
<path d="M32.5 62.5C31.6 62.5 30.9 61.8 30.9 60.9C30.9 60 31.5 59.3 32.5 59.3C33.4 59.3 34.1 60 34.1 60.9C34.1 61.8 33.5 62.5 32.5 62.5ZM32.5 59.6C31.8 59.6 31.3 60.2 31.3 60.9C31.3 61.6 31.8 62.2 32.5 62.2C33.2 62.2 33.7 61.6 33.7 60.9C33.7 60.2 33.2 59.6 32.5 59.6Z" fill="#22576F"/>
<path d="M36.8 59.3H37.1L38 61.9L38.9 59.3H39.3L38.2 62.4H37.9L37 59.9L36.1 62.4H35.8L34.7 59.3H35.1L36 61.9L36.8 59.3Z" fill="#22576F"/>
<path d="M41.2 62.4H40.1V59.3H41.2C42.2 59.3 42.9 60 42.9 60.9C42.9 61.8 42.2 62.4 41.2 62.4ZM41.2 59.6H40.5V62.1H41.2C42 62.1 42.5 61.6 42.5 60.9C42.5 60.2 42 59.6 41.2 59.6Z" fill="#22576F"/>
<path d="M46.1 59.6H44.2V60.7H45.9V61H44.2V62.1H46.1V62.4H43.8V59.3H46.1V59.6Z" fill="#22576F"/>
<path d="M49.2 62.4L48.3 61.2H47.4V62.4H47V59.3H48.3C49 59.3 49.4 59.7 49.4 60.2C49.4 60.7 49 61 48.6 61.1L49.6 62.4H49.2ZM48.4 59.6H47.4V60.9H48.4C48.9 60.9 49.2 60.7 49.2 60.3C49.2 59.9 48.9 59.6 48.4 59.6Z" fill="#22576F"/>
<path d="M81.4 37.8C82.1 38 82.4 38.2 82.4 38.7C82.4 39.2 82 39.6 81.3 39.6C80.8 39.6 80.4 39.4 80 39.1L80.2 38.8C80.5 39.1 80.8 39.2 81.3 39.2C81.7 39.2 82 39 82 38.7C82 38.4 81.8 38.2 81.2 38.1C80.5 37.9 80.2 37.7 80.2 37.2C80.2 36.7 80.6 36.3 81.2 36.3C81.7 36.3 82 36.4 82.3 36.7L82.1 37C81.8 36.8 81.5 36.7 81.2 36.7C80.8 36.7 80.5 36.9 80.5 37.2C80.5 37.5 80.7 37.7 81.4 37.8Z" fill="#22576F"/>
<path d="M84.5 39.6H84.1V36.8H83.1V36.5H85.6V36.8H84.6V39.6H84.5Z" fill="#22576F"/>
<path d="M87.7 39.6C86.8 39.6 86.1 38.9 86.1 38C86.1 37.1 86.7 36.4 87.7 36.4C88.6 36.4 89.3 37.1 89.3 38C89.3 38.9 88.7 39.6 87.7 39.6ZM87.7 36.7C87 36.7 86.5 37.3 86.5 38C86.5 38.7 87 39.3 87.7 39.3C88.4 39.3 88.9 38.7 88.9 38C88.9 37.3 88.4 36.7 87.7 36.7Z" fill="#22576F"/>
<path d="M92.5 39.6L91.6 38.4H90.7V39.6H90.3V36.5H91.6C92.3 36.5 92.7 36.9 92.7 37.4C92.7 37.9 92.3 38.2 91.9 38.3L92.9 39.6H92.5ZM91.6 36.8H90.6V38.1H91.6C92.1 38.1 92.4 37.9 92.4 37.5C92.4 37 92.1 36.8 91.6 36.8Z" fill="#22576F"/>
<path d="M96.8 39.6H96.4L96 38.8H94.3L93.9 39.6H93.5L94.9 36.5H95.2L96.8 39.6ZM95.2 36.8L94.5 38.4H95.9L95.2 36.8Z" fill="#22576F"/>
<path d="M98.9 39.6C97.9 39.6 97.3 38.9 97.3 38C97.3 37.1 97.9 36.4 98.9 36.4C99.4 36.4 99.8 36.6 100.1 36.8L99.9 37.1C99.7 36.9 99.4 36.7 99 36.7C98.3 36.7 97.8 37.3 97.8 38C97.8 38.7 98.3 39.3 99 39.3C99.4 39.3 99.7 39.2 99.9 39V38.2H99V37.9H100.3V39.1C99.9 39.4 99.4 39.6 98.9 39.6Z" fill="#22576F"/>
<path d="M103.5 36.8H101.6V37.9H103.3V38.2H101.6V39.3H103.5V39.6H101.2V36.5H103.5V36.8Z" fill="#22576F"/>
<path d="M132.9 102.4H133.2L134.1 105L135 102.4H135.4L134.3 105.5H134L133 103L132.1 105.5H131.8L130.7 102.4H131.1L132 105L132.9 102.4Z" fill="#22576F"/>
<path d="M137.5 105.6C136.6 105.6 135.9 104.9 135.9 104C135.9 103.1 136.5 102.4 137.5 102.4C138.4 102.4 139.1 103.1 139.1 104C139.1 104.9 138.4 105.6 137.5 105.6ZM137.5 102.7C136.8 102.7 136.3 103.3 136.3 104C136.3 104.7 136.8 105.3 137.5 105.3C138.2 105.3 138.7 104.7 138.7 104C138.7 103.3 138.2 102.7 137.5 102.7Z" fill="#22576F"/>
<path d="M142.2 105.6L141.3 104.4H140.4V105.6H140V102.5H141.3C142 102.5 142.4 102.9 142.4 103.4C142.4 103.9 142 104.2 141.6 104.3L142.6 105.6H142.2ZM141.4 102.8H140.4V104.1H141.4C141.9 104.1 142.2 103.9 142.2 103.5C142.2 103 141.9 102.8 141.4 102.8Z" fill="#22576F"/>
<path d="M146.2 105.6H145.8L144.6 104.1L143.9 104.8V105.6H143.5V102.5H143.9V104.4L145.7 102.5H146.2L144.9 103.9L146.2 105.6Z" fill="#22576F"/>
<path d="M217.6 184.6H215.7V185.7H217.4V186H215.7V187.1H217.6V187.4H215.3V184.3H217.6V184.6Z" fill="#22576F"/>
<path d="M220.8 184.3H221.1V187.4H220.8L218.8 184.8V187.4H218.5V184.3H218.8L220.8 186.8V184.3Z" fill="#22576F"/>
<path d="M223.4 187.4H223V184.6H222V184.3H224.5V184.6H223.5V187.4H223.4Z" fill="#22576F"/>
<path d="M227.5 187.4L226.6 186.2H225.7V187.4H225.3V184.3H226.6C227.3 184.3 227.7 184.7 227.7 185.2C227.7 185.7 227.3 186 226.9 186.1L227.9 187.4H227.5ZM226.7 184.6H225.7V185.9H226.7C227.2 185.9 227.5 185.7 227.5 185.3C227.5 184.9 227.2 184.6 226.7 184.6Z" fill="#22576F"/>
<path d="M230.1 187.4H229.7V186.2L228.4 184.3H228.8L229.9 185.9L231 184.3H231.4L230.1 186.2V187.4Z" fill="#22576F"/>
<path d="M217.5 6.7H215.6V7.8H217.3V8.10001H215.6V9.2H217.5V9.5H215.2V6.39999H217.5V6.7Z" fill="#22576F"/>
<path d="M220.7 6.39999H221V9.5H220.7L218.7 6.89999V9.5H218.4V6.39999H218.7L220.7 8.89999V6.39999Z" fill="#22576F"/>
<path d="M223.3 9.5H223V6.7H222V6.39999H224.5V6.7H223.5V9.5H223.3Z" fill="#22576F"/>
<path d="M227.4 9.5L226.5 8.3H225.6V9.5H225.2V6.39999H226.5C227.2 6.39999 227.6 6.8 227.6 7.3C227.6 7.8 227.2 8.1 226.8 8.2L227.8 9.5H227.4ZM226.6 6.7H225.6V8H226.6C227.1 8 227.4 7.79999 227.4 7.39999C227.4 6.89999 227.1 6.7 226.6 6.7Z" fill="#22576F"/>
<path d="M230 9.5H229.6V8.3L228.3 6.39999H228.7L229.8 8L230.9 6.39999H231.3L230 8.3V9.5Z" fill="#22576F"/>
<path d="M163.5 37.5C163.5 38.4 163 38.9 162.2 38.9C161.4 38.9 160.9 38.4 160.9 37.5V35.7H161.3V37.5C161.3 38.2 161.7 38.6 162.3 38.6C162.9 38.6 163.2 38.3 163.2 37.6V35.8H163.6V37.5H163.5Z" fill="#22576F"/>
<path d="M165.7 37.7H165V38.8H164.6V35.7H165.8C166.5 35.7 167 36.1 167 36.7C167 37.3 166.4 37.7 165.7 37.7ZM165.8 36H165V37.4H165.8C166.3 37.4 166.7 37.1 166.7 36.7C166.6 36.2 166.3 36 165.8 36Z" fill="#22576F"/>
</g>
<defs>
<clipPath id="clip0_0_1">
<rect width="866.2" height="487.5" fill="white" transform="translate(7 -187)"/>
</clipPath>
</defs>
</svg>
