<?xml version="1.0" encoding="utf-8"?>
<!-- Generator: Adobe Illustrator 25.4.1, SVG Export Plug-In . SVG Version: 6.00 Build 0)  -->
<svg version="1.1" id="Layer_1" xmlns="http://www.w3.org/2000/svg" xmlns:xlink="http://www.w3.org/1999/xlink" x="0px" y="0px"
	 viewBox="0 0 240.0084229 267.1536255" style="enable-background:new 0 0 240.0084229 267.1536255;" xml:space="preserve">
<style type="text/css">
	.st0{fill:none;stroke:#99A4B3;stroke-width:0.24;stroke-linecap:round;stroke-linejoin:round;stroke-miterlimit:10;}
	.st1{fill-rule:evenodd;clip-rule:evenodd;fill:#22566E;}
	.st2{fill:none;stroke:#22566E;stroke-width:0.25;stroke-linecap:round;stroke-linejoin:round;stroke-miterlimit:10;}
	.st3{fill:none;stroke:#22566E;stroke-width:0.25;stroke-linecap:round;stroke-linejoin:round;}
	
		.st4{fill:none;stroke:#22566E;stroke-width:0.25;stroke-linecap:round;stroke-linejoin:round;stroke-dasharray:4.2129998,2.1059999;}
	.st5{fill:none;stroke:#22566E;stroke-width:0.25;stroke-linecap:round;stroke-linejoin:round;stroke-dasharray:4.2350001,2.118;}
	.st6{fill:none;stroke:#22566E;stroke-width:0.25;stroke-linecap:round;stroke-linejoin:round;stroke-miterlimit:9.999999;}
	.st7{fill:none;stroke:#22566E;stroke-width:0.25;stroke-linecap:round;stroke-linejoin:round;stroke-miterlimit:10.0000019;}
	.st8{fill:none;stroke:#22566E;stroke-width:0.25;stroke-linecap:round;stroke-linejoin:round;stroke-miterlimit:10.000001;}
	.st9{fill:#22566E;}
</style>
<polygon class="st0" points="193.2813416,52.4108276 87.0733337,52.4108276 87.0733337,48.1828308 65.4813232,48.1828308 
	65.4813232,52.4108276 66.1113281,51.3198547 84.8103333,62.1158447 84.1803284,63.2068481 65.4813232,52.4108276 
	60.8933411,52.4108276 60.8933411,55.289856 82.0853271,67.5248413 81.4553223,68.6158447 60.2633362,56.3808289 
	60.8933411,55.289856 59.2293396,55.289856 59.2293396,79.7608337 60.8933411,79.7608337 60.8933411,109.980835 
	48.0973206,109.980835 48.0973206,127.2548523 49.3573303,127.2548523 49.3573303,106.6518555 57.5643311,106.6518555 
	57.5643311,99.454834 6.6933289,99.454834 6.6933289,106.6518555 14.8103333,106.6518555 14.8103333,127.2548523 
	16.070343,127.2548523 16.070343,109.980835 6.6933289,109.980835 6.6933289,184.2098236 108.8033447,184.2098236 
	108.8033447,178.6318359 123.1983337,178.6318359 123.1983337,169.9958496 163.5023193,169.9958496 163.5023193,178.6318359 
	177.8973389,178.6318359 177.8973389,167.2968445 231.0662842,167.2968445 231.0662842,131.1718445 193.2813416,131.1718445 
	193.2813416,101.9328308 199.3993225,101.9328308 198.7693176,100.8418274 219.9613037,88.606842 220.5913086,89.6978455 
	199.3993225,101.9328308 199.3993225,104.4518433 202.2773132,104.4518433 213.4973145,97.9748535 214.1273193,99.0648499 
	202.9073181,105.5428467 202.2773132,104.4518433 202.2773132,107.7808533 199.3993225,107.7808533 199.3993225,114.9778442 
	231.0662842,114.9778442 231.0662842,107.7808533 228.1882935,107.7808533 228.1882935,104.4518433 227.5582886,105.5428467 
	216.3383179,99.0648499 216.9683228,97.9748535 228.1882935,104.4518433 231.0662842,104.4518433 231.0662842,18.1338501 
	228.8212891,18.1338501 228.8212891,14.6258545 227.3812866,14.6258545 227.3812866,39.0958557 226.1223145,39.0958557 
	226.1223145,14.6258545 201.4713135,14.6258545 201.4713135,18.1338501 177.2223206,18.1338501 177.2223206,20.9228516 
	200.2533264,20.9228516 200.2533264,19.6638489 173.8933411,19.6638489 173.8933411,18.1338501 150.5473328,18.1338501 
	150.5473328,43.9538574 173.8933411,43.9538574 173.8933411,42.6948547 177.2223206,42.6948547 177.2223206,43.9538574 
	199.3993225,43.9538574 199.3993225,77.461853 193.2813416,77.461853 "/>
<path class="st0" d="M73.3829346,175.8465271l-7.6190186-7.6489868l15.2380066-15.2380066l7.6489868,7.6190186
	c4.2160034,4.2160034,4.2160034,11.052002,0,15.2679749C84.434906,180.0625305,77.5989075,180.0625305,73.3829346,175.8465271z"/>
<polygon class="st0" points="8.1319275,182.7708282 8.1319275,136.7088318 25.4049072,136.7088318 25.4049072,153.4418335 
	31.8829041,153.4418335 31.8829041,152.7228394 32.9619141,152.7228394 32.9619141,166.7568359 31.8829041,166.7568359 
	31.8829041,166.0368347 25.4049072,166.0368347 25.4049072,182.7708282 "/>
<rect x="101.4677429" y="53.8499146" class="st0" width="60.4570007" height="23.0310059"/>
<rect x="119.4717407" y="89.8369141" class="st0" width="24.4490051" height="15.7739868"/>
<rect x="163.363739" y="55.289917" class="st0" width="14.4200134" height="20.1610107"/>
<path class="st0" d="M101.8355408,125.9157104l2.7939758-10.4279785l20.8560181,5.5879822l-2.7940063,10.428009
	c-1.5429993,5.7600098-7.4630127,9.177002-13.2220154,7.6340027
	C103.7105408,137.5947266,100.292511,131.6747131,101.8355408,125.9157104z"/>
<path class="st0" d="M161.5565491,125.9157104l-2.7940063-10.4279785l-20.8560181,5.5879822l2.7940063,10.428009
	c1.5429993,5.7600098,7.4630127,9.177002,13.2220154,7.6340027S163.0995483,131.6747131,161.5565491,125.9157104z"/>
<line class="st0" x1="9.7519226" y1="184.2102203" x2="9.7519226" y2="182.771225"/>
<line class="st0" x1="9.7519226" y1="106.6523132" x2="9.7519226" y2="99.4553223"/>
<line class="st0" x1="9.7519226" y1="136.7084351" x2="9.7519226" y2="109.9814453"/>
<line class="st0" x1="15.1497498" y1="184.2102203" x2="15.1497498" y2="182.771225"/>
<line class="st0" x1="15.1497498" y1="109.9811096" x2="15.1497498" y2="99.4551392"/>
<line class="st0" x1="15.1497498" y1="136.7084351" x2="15.1497498" y2="127.2544556"/>
<line class="st0" x1="20.5477295" y1="184.2102203" x2="20.5477295" y2="182.771225"/>
<line class="st0" x1="20.5477295" y1="136.7084351" x2="20.5477295" y2="99.4554443"/>
<line class="st0" x1="25.9456482" y1="184.2102203" x2="25.9456482" y2="166.0372314"/>
<line class="st0" x1="25.9456482" y1="153.4420166" x2="25.9456482" y2="99.4550171"/>
<line class="st0" x1="31.3436279" y1="184.2102203" x2="31.3436279" y2="166.0372314"/>
<line class="st0" x1="31.3436279" y1="153.4420166" x2="31.3436279" y2="99.4550171"/>
<line class="st0" x1="36.7414246" y1="184.2102203" x2="36.7414246" y2="99.4552307"/>
<line class="st0" x1="42.1394348" y1="184.2102203" x2="42.1394348" y2="99.4552307"/>
<line class="st0" x1="47.537323" y1="184.2102203" x2="47.537323" y2="99.4552307"/>
<line class="st0" x1="52.9353333" y1="184.2102203" x2="52.9353333" y2="109.9812317"/>
<line class="st0" x1="52.9353333" y1="106.6523132" x2="52.9353333" y2="99.4553223"/>
<line class="st0" x1="58.3331299" y1="184.2102203" x2="58.3331299" y2="109.9812317"/>
<line class="st0" x1="63.7311401" y1="184.2102203" x2="63.7311401" y2="58.3822327"/>
<line class="st0" x1="63.7311401" y1="56.9282227" x2="63.7311401" y2="52.4112244"/>
<line class="st0" x1="69.1290283" y1="184.2102203" x2="69.1290283" y2="171.5762329"/>
<line class="st0" x1="69.1290283" y1="53.0624084" x2="69.1290283" y2="48.1824341"/>
<line class="st0" x1="69.1290283" y1="164.8327332" x2="69.1290283" y2="61.4987488"/>
<line class="st0" x1="69.1290283" y1="60.0446167" x2="69.1290283" y2="54.5166321"/>
<line class="st0" x1="74.5270386" y1="184.2102203" x2="74.5270386" y2="176.8402405"/>
<line class="st0" x1="74.5270386" y1="56.1789246" x2="74.5270386" y2="48.1829529"/>
<line class="st0" x1="74.5270386" y1="159.4347229" x2="74.5270386" y2="64.6157227"/>
<line class="st0" x1="74.5270386" y1="63.1612244" x2="74.5270386" y2="57.6332397"/>
<line class="st0" x1="79.9248352" y1="184.2102203" x2="79.9248352" y2="178.9532318"/>
<line class="st0" x1="79.9248352" y1="59.2953186" x2="79.9248352" y2="48.1823425"/>
<line class="st0" x1="79.9248352" y1="154.0369263" x2="79.9248352" y2="67.7319336"/>
<line class="st0" x1="79.9248352" y1="66.2776184" x2="79.9248352" y2="60.7496338"/>
<line class="st0" x1="85.3228455" y1="184.2102203" x2="85.3228455" y2="178.1122284"/>
<line class="st0" x1="85.3228455" y1="157.2642212" x2="85.3228455" y2="48.1822205"/>
<line class="st0" x1="90.7206421" y1="184.2102203" x2="90.7206421" y2="172.9432373"/>
<line class="st0" x1="90.7206421" y1="163.48172" x2="90.7206421" y2="52.4107361"/>
<line class="st0" x1="96.1186218" y1="184.2102203" x2="96.1186218" y2="52.4112244"/>
<line class="st0" x1="101.5165405" y1="184.2102203" x2="101.5165405" y2="129.7362366"/>
<line class="st0" x1="101.5165405" y1="53.8503113" x2="101.5165405" y2="52.4113159"/>
<line class="st0" x1="101.5165405" y1="127.6838074" x2="101.5165405" y2="76.8818359"/>
<line class="st0" x1="106.9145508" y1="184.2102203" x2="106.9145508" y2="138.0872192"/>
<line class="st0" x1="106.9145508" y1="53.8503113" x2="106.9145508" y2="52.4113159"/>
<line class="st0" x1="106.9145508" y1="116.099823" x2="106.9145508" y2="76.8818359"/>
<line class="st0" x1="112.3123474" y1="178.6323242" x2="112.3123474" y2="139.5053406"/>
<line class="st0" x1="112.3123474" y1="53.8503113" x2="112.3123474" y2="52.4113159"/>
<line class="st0" x1="112.3123474" y1="117.5463257" x2="112.3123474" y2="76.8813477"/>
<line class="st0" x1="117.7104492" y1="178.6323242" x2="117.7104492" y2="138.0313416"/>
<line class="st0" x1="117.7104492" y1="53.8503113" x2="117.7104492" y2="52.4113159"/>
<line class="st0" x1="117.7104492" y1="118.9926147" x2="117.7104492" y2="76.8816223"/>
<line class="st0" x1="123.1082458" y1="178.6323242" x2="123.1082458" y2="129.9483337"/>
<line class="st0" x1="123.1082458" y1="53.8503113" x2="123.1082458" y2="52.4113159"/>
<line class="st0" x1="123.1082458" y1="120.4389343" x2="123.1082458" y2="105.6099548"/>
<line class="st0" x1="123.1082458" y1="89.8365173" x2="123.1082458" y2="76.8815308"/>
<line class="st0" x1="128.5062256" y1="169.9957275" x2="128.5062256" y2="105.6097412"/>
<line class="st0" x1="128.5062256" y1="53.8503113" x2="128.5062256" y2="52.4113159"/>
<line class="st0" x1="128.5062256" y1="89.8365173" x2="128.5062256" y2="76.8815308"/>
<line class="st0" x1="133.9040222" y1="169.9957275" x2="133.9040222" y2="105.6097412"/>
<line class="st0" x1="133.9040222" y1="53.8503113" x2="133.9040222" y2="52.4113159"/>
<line class="st0" x1="133.9040222" y1="89.8365173" x2="133.9040222" y2="76.8815308"/>
<line class="st0" x1="139.302124" y1="169.9957275" x2="139.302124" y2="126.284729"/>
<line class="st0" x1="139.302124" y1="53.8503113" x2="139.302124" y2="52.4113159"/>
<line class="st0" x1="139.302124" y1="120.7020264" x2="139.302124" y2="105.6100464"/>
<line class="st0" x1="139.302124" y1="89.8365173" x2="139.302124" y2="76.8815308"/>
<line class="st0" x1="144.6999207" y1="169.9957275" x2="144.6999207" y2="137.3827515"/>
<line class="st0" x1="144.6999207" y1="53.8503113" x2="144.6999207" y2="52.4113159"/>
<line class="st0" x1="144.6999207" y1="119.2557068" x2="144.6999207" y2="76.8817139"/>
<line class="st0" x1="150.0979309" y1="169.9957275" x2="150.0979309" y2="139.4567566"/>
<line class="st0" x1="150.0979309" y1="53.8503113" x2="150.0979309" y2="52.4113159"/>
<line class="st0" x1="150.0979309" y1="117.8094177" x2="150.0979309" y2="76.8814392"/>
<line class="st0" x1="155.4957275" y1="169.9957275" x2="155.4957275" y2="138.5827332"/>
<line class="st0" x1="155.4957275" y1="43.95401" x2="155.4957275" y2="18.1340332"/>
<line class="st0" x1="155.4957275" y1="116.362915" x2="155.4957275" y2="76.8809204"/>
<line class="st0" x1="155.4957275" y1="53.8503113" x2="155.4957275" y2="52.4113159"/>
<line class="st0" x1="160.8937378" y1="169.9957275" x2="160.8937378" y2="133.3137512"/>
<line class="st0" x1="160.8937378" y1="43.95401" x2="160.8937378" y2="18.1340332"/>
<line class="st0" x1="160.8937378" y1="123.441925" x2="160.8937378" y2="76.8809509"/>
<line class="st0" x1="160.8937378" y1="53.8503113" x2="160.8937378" y2="52.4113159"/>
<line class="st0" x1="166.291626" y1="178.6323242" x2="166.291626" y2="75.4513245"/>
<line class="st0" x1="166.291626" y1="43.95401" x2="166.291626" y2="18.1340332"/>
<line class="st0" x1="166.291626" y1="55.2897339" x2="166.291626" y2="52.4107361"/>
<line class="st0" x1="171.6896362" y1="178.6323242" x2="171.6896362" y2="75.4513245"/>
<line class="st0" x1="171.6896362" y1="43.95401" x2="171.6896362" y2="18.1340332"/>
<line class="st0" x1="171.6896362" y1="55.2897339" x2="171.6896362" y2="52.4107361"/>
<line class="st0" x1="177.0874329" y1="178.6323242" x2="177.0874329" y2="75.4513245"/>
<line class="st0" x1="177.0874329" y1="42.6946106" x2="177.0874329" y2="19.6636353"/>
<line class="st0" x1="177.0874329" y1="55.2897339" x2="177.0874329" y2="52.4107361"/>
<line class="st0" x1="182.4854431" y1="167.2966309" x2="182.4854431" y2="52.4106445"/>
<line class="st0" x1="182.4854431" y1="19.6634216" x2="182.4854431" y2="18.1344299"/>
<line class="st0" x1="182.4854431" y1="43.95401" x2="182.4854431" y2="20.9230347"/>
<line class="st0" x1="187.8833313" y1="167.2966309" x2="187.8833313" y2="52.4106445"/>
<line class="st0" x1="187.8833313" y1="19.6634216" x2="187.8833313" y2="18.1344299"/>
<line class="st0" x1="187.8833313" y1="43.95401" x2="187.8833313" y2="20.9230347"/>
<line class="st0" x1="193.2813416" y1="167.2966309" x2="193.2813416" y2="131.1716309"/>
<line class="st0" x1="193.2813416" y1="19.6634216" x2="193.2813416" y2="18.1344299"/>
<line class="st0" x1="193.2813416" y1="101.9329224" x2="193.2813416" y2="77.4619446"/>
<line class="st0" x1="193.2813416" y1="43.95401" x2="193.2813416" y2="20.9230347"/>
<line class="st0" x1="198.6791382" y1="167.2966309" x2="198.6791382" y2="131.1716309"/>
<line class="st0" x1="198.6791382" y1="19.6634216" x2="198.6791382" y2="18.1344299"/>
<line class="st0" x1="198.6791382" y1="101.9329224" x2="198.6791382" y2="77.4619446"/>
<line class="st0" x1="198.6791382" y1="43.95401" x2="198.6791382" y2="20.9230347"/>
<line class="st0" x1="204.0771484" y1="167.2966309" x2="204.0771484" y2="131.1716309"/>
<line class="st0" x1="204.0771484" y1="97.7776184" x2="204.0771484" y2="14.6256409"/>
<line class="st0" x1="204.0771484" y1="114.9779358" x2="204.0771484" y2="104.8679504"/>
<line class="st0" x1="204.0771484" y1="103.4131165" x2="204.0771484" y2="99.2321167"/>
<line class="st0" x1="209.4750366" y1="167.2966309" x2="209.4750366" y2="131.1716309"/>
<line class="st0" x1="209.4750366" y1="94.6612244" x2="209.4750366" y2="14.6252441"/>
<line class="st0" x1="209.4750366" y1="114.9779358" x2="209.4750366" y2="101.750946"/>
<line class="st0" x1="209.4750366" y1="100.2965088" x2="209.4750366" y2="96.115509"/>
<line class="st0" x1="214.8730469" y1="167.2966309" x2="214.8730469" y2="131.1716309"/>
<line class="st0" x1="214.8730469" y1="91.5446167" x2="214.8730469" y2="14.6256409"/>
<line class="st0" x1="214.8730469" y1="114.9779358" x2="214.8730469" y2="92.9989624"/>
<line class="st0" x1="220.270813" y1="167.2966309" x2="220.270813" y2="131.1716309"/>
<line class="st0" x1="220.270813" y1="89.1430359" x2="220.270813" y2="14.625061"/>
<line class="st0" x1="220.270813" y1="114.9779358" x2="220.270813" y2="101.3359375"/>
<line class="st0" x1="220.270813" y1="99.881134" x2="220.270813" y2="89.8821411"/>
<line class="st0" x1="225.6688232" y1="167.2966309" x2="225.6688232" y2="131.1716309"/>
<line class="st0" x1="225.6688232" y1="102.9977112" x2="225.6688232" y2="14.6257324"/>
<line class="st0" x1="225.6688232" y1="114.9779358" x2="225.6688232" y2="104.4519653"/>
<polygon class="st0" points="233.315918,265.4992065 233.315918,175.7532349 229.0878906,175.7532349 229.0878906,201.6632233 
	227.8278809,201.6632233 227.8278809,175.7532349 198.8589172,175.7532349 198.8589172,174.5842285 185.1838989,174.5842285 
	185.1838989,191.4972229 11.6408997,191.4972229 11.6408997,231.9812317 185.1838989,255.1032257 185.1838989,265.4992065 
	186.6239014,265.4992065 186.6239014,242.4682312 187.8829041,242.4682312 187.8829041,265.4992065 "/>
<path class="st0" d="M7.2789307,27.4032288c0-0.1409912,0.0999756-0.26297,0.2389832-0.2889709l2.125-0.4070129
	c0.2319946-0.0440063,0.4710083,0.0079956,0.6640015,0.1440125c0.3259888,0.2319946,0.6109924,0.5159912,0.8420105,0.8429871
	c2.2989807-0.1369934,4.5849915-0.4289856,6.8439941-0.8739929c0.723999-0.1640015,1.4639893-0.2470093,2.2070007-0.2470093
	c0.9629822,0,1.9219971,0.1390076,2.8450012,0.4140015c0.803009,0.2390137,1.5610046,0.6109924,2.2409973,1.1000061
	c0.6539917,0.4710083,1.2000122,1.0749817,1.6029968,1.7729797c0.3299866,0.5730286,0.5029907,1.2230225,0.5029907,1.8840027
	c0,0.6610107-0.1730042,1.3110046-0.5029907,1.8840027c-0.4029846,0.697998-0.9490051,1.302002-1.6029968,1.7730103
	c-0.6799927,0.4890137-1.4379883,0.8609924-2.2409973,1.1000061c-0.9230042,0.2749939-1.882019,0.4140015-2.8450012,0.4140015
	c-0.7430115,0-1.4830017-0.0820007-2.2070007-0.2470093c-2.2590027-0.4450073-4.5450134-0.7369995-6.8439941-0.8739929
	c-0.2310181,0.3269958-0.5160217,0.6109924-0.8420105,0.8429871c-0.1929932,0.1360168-0.4320068,0.1880188-0.6640015,0.1440125
	l-2.125-0.4070129c-0.1390076-0.0270081-0.2389832-0.1479797-0.2389832-0.2890015V27.4032288z"/>
<line class="st0" x1="229.0874634" y1="175.753418" x2="203.1774597" y2="175.753418"/>
<line class="st0" x1="229.0874634" y1="167.2966309" x2="203.1774597" y2="167.2966309"/>
<line class="st0" x1="227.3814087" y1="14.6255188" x2="202.9104004" y2="14.6255188"/>
<line class="st0" x1="227.3814087" y1="11.0267334" x2="202.9104004" y2="11.0267334"/>
<line class="st0" x1="186.6238403" y1="265.4992065" x2="209.6548157" y2="265.4992065"/>
<line class="st0" x1="186.6238403" y1="266.9386292" x2="209.6548157" y2="266.9386292"/>
<path class="st0" d="M57.5645447,19.8434143H6.6925354v45.9750061h17.1839905c1.1920166,0,2.1589966,0.9670105,2.1589966,2.1589966
	v10.0760193c0,1.1929932-0.96698,2.1600037-2.1589966,2.1600037H6.6925354v5.8369751h50.8720093v-6.289978h1.6639709V55.2894287
	h-1.6639709V19.8434143z"/>
<line class="st0" x1="7.408844" y1="86.0501099" x2="7.408844" y2="80.2131348"/>
<line class="st0" x1="7.408844" y1="27.1591187" x2="7.408844" y2="19.8431396"/>
<line class="st0" x1="7.408844" y1="65.818634" x2="7.408844" y2="36.3296509"/>
<line class="st0" x1="16.0455322" y1="86.0501099" x2="16.0455322" y2="80.2131348"/>
<line class="st0" x1="16.0455322" y1="27.1650085" x2="16.0455322" y2="19.8430176"/>
<line class="st0" x1="16.0455322" y1="65.818634" x2="16.0455322" y2="36.3236389"/>
<line class="st0" x1="24.682251" y1="86.0501099" x2="24.682251" y2="80.0571289"/>
<line class="st0" x1="24.682251" y1="27.6960144" x2="24.682251" y2="19.8430176"/>
<line class="st0" x1="24.682251" y1="65.9746094" x2="24.682251" y2="35.7926331"/>
<line class="st0" x1="33.3189392" y1="86.0501099" x2="33.3189392" y2="19.8431091"/>
<line class="st0" x1="41.9555359" y1="86.0501099" x2="41.9555359" y2="19.8431091"/>
<line class="st0" x1="50.5922241" y1="86.0501099" x2="50.5922241" y2="19.8431091"/>
<line class="st0" x1="59.2289429" y1="68.7769165" x2="26.0359192" y2="68.7769165"/>
<line class="st0" x1="57.5645447" y1="51.5035095" x2="6.6925354" y2="51.5035095"/>
<line class="st0" x1="57.5645447" y1="34.2302246" x2="26.4885254" y2="34.2302246"/>
<line class="st0" x1="7.2789307" y1="34.2302246" x2="6.6929016" y2="34.2302246"/>
<line class="st0" x1="229.0874634" y1="191.4974213" x2="233.3154297" y2="191.4974213"/>
<line class="st0" x1="185.1844482" y1="191.4974213" x2="227.8284302" y2="191.4974213"/>
<line class="st0" x1="11.6410217" y1="208.7708282" x2="233.315979" y2="208.7708282"/>
<line class="st0" x1="11.6410217" y1="226.0440216" x2="233.315979" y2="226.0440216"/>
<line class="st0" x1="96.7240295" y1="243.3175201" x2="186.6240234" y2="243.3175201"/>
<line class="st0" x1="187.8833313" y1="243.3175201" x2="233.3162842" y2="243.3175201"/>
<line class="st0" x1="185.1844482" y1="260.5907288" x2="186.6234436" y2="260.5907288"/>
<line class="st0" x1="187.8833313" y1="260.5907288" x2="233.3162842" y2="260.5907288"/>
<line class="st0" x1="12.4508362" y1="232.089325" x2="12.4508362" y2="191.4973297"/>
<line class="st0" x1="29.7241211" y1="234.390625" x2="29.7241211" y2="191.4976349"/>
<line class="st0" x1="46.9975281" y1="236.6921234" x2="46.9975281" y2="191.4971313"/>
<line class="st0" x1="64.2709351" y1="238.993515" x2="64.2709351" y2="191.4975281"/>
<line class="st0" x1="81.5442505" y1="241.2949219" x2="81.5442505" y2="191.496933"/>
<line class="st0" x1="98.817627" y1="243.5963287" x2="98.817627" y2="191.4973297"/>
<line class="st0" x1="116.0908508" y1="245.8978271" x2="116.0908508" y2="191.4978333"/>
<line class="st0" x1="133.3643494" y1="248.1992188" x2="133.3643494" y2="191.4972229"/>
<line class="st0" x1="150.6377258" y1="250.5006256" x2="150.6377258" y2="191.4976349"/>
<line class="st0" x1="167.9109497" y1="252.802124" x2="167.9109497" y2="191.4971313"/>
<line class="st0" x1="185.1844482" y1="255.1035156" x2="185.1844482" y2="191.4975281"/>
<line class="st0" x1="202.4576416" y1="265.4992065" x2="202.4576416" y2="175.7532349"/>
<line class="st0" x1="219.7310181" y1="265.4992065" x2="219.7310181" y2="175.7532349"/>
<polygon class="st1" points="11.6410217,220.646225 0.125,220.646225 0.125,9.4072266 201.4710083,9.4072266 
	201.4710083,11.0272217 202.9110107,11.0272217 202.9110107,14.6252441 201.4710083,14.6252441 201.4710083,18.1342468 
	177.2220154,18.1342468 177.2220154,19.6632385 173.8940125,19.6632385 173.8940125,18.1342468 63.6820068,18.1342468 
	63.6820068,43.9542236 65.4810181,43.9542236 65.4810181,52.4112244 60.8930054,52.4112244 60.8930054,55.2892456 
	57.5639954,55.2892456 57.5639954,19.8432312 6.6929932,19.8432312 6.6929932,86.0502319 57.5639954,86.0502319 
	57.5639954,79.7602234 60.8930054,79.7602234 60.8930054,109.9812317 49.3569946,109.9812317 49.3569946,106.6522217 
	57.5639954,106.6522217 57.5639954,89.3792419 6.6929932,89.3792419 6.6929932,106.6522217 14.8099976,106.6522217 
	14.8099976,109.9812317 6.6929932,109.9812317 6.6929932,184.2102356 12.3720093,184.2102356 12.3720093,188.2582245 
	11.6410217,188.2582245 "/>
<polygon class="st1" points="69.9500427,184.2102203 69.9390259,188.2582245 70.65802,188.2582245 70.65802,191.4972229 
	185.184021,191.4972229 185.184021,171.3452454 185.9040222,171.3452454 185.9040222,167.2962341 177.8970337,167.2962341 
	177.8970337,178.6322327 108.8040161,178.6322327 108.8040161,184.2102203 "/>
<rect x="198.8597412" y="167.296936" class="st1" width="4.3179932" height="8.4570007"/>
<polygon class="st1" points="229.0874634,167.2966309 229.0874634,175.7536316 233.3154297,175.7536316 233.3154297,220.646637 
	239.8834229,220.646637 239.8834229,9.4076233 228.8204346,9.4076233 228.8204346,11.0266418 227.3814087,11.0266418 
	227.3814087,14.6256409 228.8204346,14.6256409 228.8204346,18.1336365 231.0664062,18.1336365 231.0664062,104.4516296 
	228.187439,104.4516296 228.187439,107.7806396 231.0664062,107.7806396 231.0664062,125.0536499 199.3984375,125.0536499 
	199.3984375,107.7806396 202.2774353,107.7806396 202.2774353,104.4516296 199.3984375,104.4516296 199.3984375,101.9326477 
	193.2814636,101.9326477 193.2814636,131.1716309 231.0664062,131.1716309 231.0664062,167.2966309 "/>
<polygon class="st1" points="87.0732422,43.95401 87.0732422,52.4110107 193.2812195,52.4110107 193.2812195,77.4620361 
	199.399231,77.4620361 199.399231,43.95401 177.222229,43.95401 177.222229,42.6950378 173.8942261,42.6950378 
	173.8942261,43.95401 "/>
<polyline class="st2" points="110.2449341,41.7949219 150.5479126,41.7949219 150.5479126,42.874939 110.533905,42.874939 "/>
<line class="st3" x1="199.3988342" y1="117.8568115" x2="201.5408325" y2="117.8568115"/>
<line class="st4" x1="203.6473389" y1="117.8568115" x2="227.8713379" y2="117.8568115"/>
<line class="st3" x1="228.9246216" y1="117.8568115" x2="231.0665894" y2="117.8568115"/>
<line class="st3" x1="57.5645447" y1="96.5762329" x2="55.4225159" y2="96.5762329"/>
<line class="st5" x1="53.3048401" y1="96.5762329" x2="9.8938293" y2="96.5762329"/>
<line class="st3" x1="8.835022" y1="96.5762329" x2="6.6929932" y2="96.5762329"/>
<line class="st2" x1="185.1844482" y1="171.3451233" x2="198.859436" y2="171.3451233"/>
<line class="st2" x1="185.1844482" y1="174.5838318" x2="198.859436" y2="174.5838318"/>
<line class="st2" x1="11.6410217" y1="188.258728" x2="70.65802" y2="188.258728"/>
<line class="st2" x1="11.6410217" y1="191.4974213" x2="70.65802" y2="191.4974213"/>
<rect x="227.8287354" y="175.7529297" class="st2" width="1.2589722" height="25.9099884"/>
<path class="st2" d="M203.1775208,175.753418c0,14.3100128,11.5999756,25.9100037,25.9099426,25.9100037"/>
<rect x="226.1217041" y="14.6249084" class="st2" width="1.2600098" height="24.4710083"/>
<path class="st2" d="M202.9109497,14.6255188c0,13.5150146,10.9559937,24.4710083,24.4709473,24.4710083"/>
<rect x="186.6237488" y="242.467926" class="st2" width="1.2590027" height="23.0310059"/>
<path class="st2" d="M209.6549377,265.4992065c0-12.7199707-10.3110046-23.0309753-23.0310059-23.0309753"/>
<path class="st2" d="M215.2328491,104.4520264c0-2.2739868-0.5990295-4.5079956-1.7360229-6.4779968"/>
<path class="st2" d="M216.9685059,97.9745178c-1.1370239,1.9690247-1.7360229,4.2030029-1.7360229,6.4780273"/>
<rect x="201.7247467" y="101.1286316" transform="matrix(0.8660018 -0.5000409 0.5000409 0.8660018 -22.9847126 117.7450867)" class="st6" width="12.9549408" height="1.2598343"/>
<rect x="221.6334229" y="95.2810364" transform="matrix(0.5000389 -0.8660029 0.8660029 0.5000389 22.9998283 243.3560028)" class="st2" width="1.2598419" height="12.9549866"/>
<rect x="70.5443268" y="49.7175827" transform="matrix(0.4999944 -0.8660287 0.8660287 0.4999944 -18.0653191 92.615654)" class="st7" width="1.259842" height="24.4703083"/>
<path class="st2" d="M60.8932495,79.760437c8.742981,0,16.8209839-4.6639709,21.1919861-12.2349854"/>
<rect x="177.2227478" y="19.6639099" class="st2" width="23.0310059" height="1.2600098"/>
<path class="st2" d="M177.2223511,42.6946106c12.7199707,0,23.0309753-10.3109741,23.0309753-23.0309753"/>
<rect x="185.1847534" y="265.4989014" class="st2" width="1.4389954" height="1.4389954"/>
<rect x="209.6547241" y="265.4989014" class="st2" width="23.6610107" height="1.4389954"/>
<line class="st2" x1="150.5476379" y1="43.95401" x2="150.5476379" y2="18.1340332"/>
<line class="st2" x1="136.1532288" y1="43.95401" x2="136.1532288" y2="42.8740234"/>
<line class="st2" x1="136.1532288" y1="41.7949219" x2="136.1532288" y2="18.1339417"/>
<line class="st2" x1="128.9559326" y1="43.95401" x2="128.9559326" y2="42.8740234"/>
<line class="st2" x1="128.9559326" y1="41.7949219" x2="128.9559326" y2="18.1339417"/>
<line class="st2" x1="114.5615234" y1="43.95401" x2="114.5615234" y2="42.8740234"/>
<line class="st2" x1="114.5615234" y1="41.7949219" x2="114.5615234" y2="18.1339417"/>
<line class="st2" x1="107.3642273" y1="32.3745117" x2="107.3642273" y2="31.0445251"/>
<line class="st2" x1="107.3642273" y1="29.7137146" x2="107.3642273" y2="18.133728"/>
<polyline class="st2" points="103.9050293,18.1340332 106.9790039,29.6050415 109.5230103,30.3240356 105.2050171,31.7640381 
	107.75,32.4840393 110.8240051,43.9540405 "/>
<line class="st2" x1="143.3503418" y1="43.95401" x2="143.3503418" y2="42.8740234"/>
<line class="st2" x1="143.3503418" y1="41.7949219" x2="143.3503418" y2="18.1339417"/>
<line class="st2" x1="121.7586365" y1="43.95401" x2="121.7586365" y2="42.8740234"/>
<line class="st2" x1="121.7586365" y1="41.7949219" x2="121.7586365" y2="18.1339417"/>
<rect x="74.5161209" y="46.4674416" transform="matrix(0.5000057 -0.8660221 0.8660221 0.5000057 -12.018734 93.709465)" class="st8" width="1.259819" height="21.5918045"/>
<path class="st2" d="M84.1804504,63.2067261c1.894989-3.2819824,2.8929749-7.0059814,2.8929749-10.79599"/>
<rect x="14.81073" y="109.9809265" class="st2" width="1.2590027" height="17.2730103"/>
<rect x="48.0977478" y="109.9809265" class="st2" width="1.2600098" height="17.2730103"/>
<path class="st2" d="M14.8104248,127.2543335c9.539978,0,17.2729797-7.7339783,17.2729797-17.2729797"/>
<path class="st2" d="M32.0838318,109.9811096c0,9.5400085,7.7339783,17.2730103,17.2729797,17.2730103"/>
<rect x="197.4446716" y="94.6400299" transform="matrix(0.8660292 -0.4999934 0.4999934 0.8660292 -19.5433712 117.6019211)" class="st2" width="24.4703064" height="1.2598267"/>
<path class="st2" d="M220.5910645,89.6976318c-4.3710327-7.5709839-12.4500122-12.2349854-21.1920166-12.2349854"/>
<rect x="185.1847229" y="171.3449097" class="st2" width="1.4389954" height="3.2390137"/>
<rect x="197.4197388" y="171.3449097" class="st2" width="1.4389954" height="3.2390137"/>
<line class="st2" x1="186.6238403" y1="173.8641357" x2="197.4198303" y2="173.8641357"/>
<line class="st2" x1="186.6238403" y1="173.1444092" x2="197.4198303" y2="173.1444092"/>
<line class="st2" x1="185.9041443" y1="167.2966309" x2="198.8591309" y2="167.2966309"/>
<rect x="11.6407471" y="188.2589264" class="st2" width="1.4389954" height="3.2389984"/>
<rect x="69.21875" y="188.2589264" class="st2" width="1.4389954" height="3.2389984"/>
<rect x="28.1947327" y="188.2589264" class="st2" width="1.4389954" height="3.2389984"/>
<line class="st2" x1="13.0805359" y1="190.7777252" x2="28.194519" y2="190.7777252"/>
<line class="st2" x1="13.0805359" y1="190.0579224" x2="28.194519" y2="190.0579224"/>
<line class="st2" x1="29.6342468" y1="190.7777252" x2="69.2192383" y2="190.7777252"/>
<line class="st2" x1="29.6342468" y1="190.0579224" x2="69.2192383" y2="190.0579224"/>
<line class="st2" x1="12.3607483" y1="184.2102203" x2="69.9497375" y2="184.2102203"/>
<rect x="123.1987305" y="169.9959106" class="st2" width="40.3040161" height="8.6369934"/>
<rect x="8.1317444" y="136.7079163" class="st2" width="17.2730103" height="46.0619965"/>
<rect x="12.7267456" y="151.1029358" class="st2" width="1.0799866" height="17.2730103"/>
<rect x="19.0437317" y="152.4379272" class="st2" width="4.3179932" height="14.3940125"/>
<polyline class="st2" points="12.7270508,157.0406189 11.1080322,157.0406189 11.1080322,162.4386292 12.7270508,162.4386292 "/>
<line class="st2" x1="31.8827209" y1="153.4420166" x2="25.4057007" y2="153.4420166"/>
<polyline class="st2" points="13.8065491,162.4386292 15.4265442,162.4386292 15.4265442,157.0406494 13.8065491,157.0406494 "/>
<line class="st2" x1="31.8827209" y1="166.0371094" x2="25.4057007" y2="166.0371094"/>
<rect x="31.8827209" y="152.7219238" class="st2" width="1.0799866" height="14.0350037"/>
<path class="st2" d="M20.3170471,148.8684082c-0.3160095,0.0920105-0.4980164,0.4230042-0.4060059,0.7390137
	c0.0910034,0.3110046,0.4129944,0.4920044,0.7259827,0.4089966c0.5350037-0.1430054,1.0830078-0.2279968,1.6350098-0.2550049
	c0.2590027-0.0130005,0.4589844-0.2330017,0.4459839-0.4909973c-0.0089722-0.1929932-0.1349792-0.3599854-0.3179932-0.4219971
	C21.7240295,148.6194153,20.9890442,148.6264343,20.3170471,148.8684082z"/>
<rect x="119.4717407" y="89.8369141" class="st2" width="24.4490051" height="15.7739868"/>
<ellipse class="st2" cx="170.5739441" cy="62.48703" rx="5.7579956" ry="5.7580032"/>
<path class="st2" d="M169.0950317,62.48703c0-0.8169861,0.6619873-1.4789734,1.4789734-1.4789734
	c0.8160095,0,1.4779968,0.6619873,1.4779968,1.4789734c0,0.8170166-0.6619873,1.4790039-1.4779968,1.4790039
	C169.757019,63.9660339,169.0950317,63.3040466,169.0950317,62.48703z"/>
<line class="st2" x1="176.3314209" y1="62.48703" x2="172.0523987" y2="62.48703"/>
<line class="st2" x1="169.0950317" y1="62.48703" x2="164.8160095" y2="62.48703"/>
<line class="st2" x1="170.5737305" y1="68.2449341" x2="170.5737305" y2="63.9659424"/>
<line class="st2" x1="170.5737305" y1="61.0082092" x2="170.5737305" y2="56.7292175"/>
<rect x="163.363739" y="55.289917" class="st2" width="14.4200134" height="20.1610107"/>
<line class="st2" x1="161.9244385" y1="53.8503113" x2="101.4674377" y2="53.8503113"/>
<line class="st2" x1="101.4676208" y1="76.8814087" x2="101.4676208" y2="53.8504333"/>
<line class="st2" x1="161.9244385" y1="76.8814087" x2="161.9244385" y2="53.8504333"/>
<line class="st2" x1="159.0454407" y1="76.8814087" x2="159.0454407" y2="57.4494324"/>
<line class="st2" x1="161.9244385" y1="56.7293091" x2="101.4674377" y2="56.7293091"/>
<line class="st2" x1="161.9244385" y1="76.8814087" x2="101.4674377" y2="76.8814087"/>
<line class="st2" x1="140.8125305" y1="76.8814087" x2="140.8125305" y2="58.1684265"/>
<line class="st2" x1="122.5795288" y1="76.8814087" x2="122.5795288" y2="58.1684265"/>
<line class="st2" x1="159.0454407" y1="58.1687317" x2="104.3464355" y2="58.1687317"/>
<line class="st2" x1="101.4676208" y1="57.4490356" x2="104.3466187" y2="57.4490356"/>
<line class="st2" x1="161.9244385" y1="57.4490356" x2="159.0454102" y2="57.4490356"/>
<line class="st2" x1="104.3465271" y1="76.8814087" x2="104.3465271" y2="57.4494324"/>
<path class="st2" d="M140.700531,131.5041199c1.5429993,5.7590027,7.4629822,9.177002,13.2219849,7.6340027
	c5.7590027-1.5439758,9.177002-7.4629822,7.6340027-13.2219849"/>
<path class="st2" d="M143.4814453,130.7588196c1.1319885,4.2240295,5.4729919,6.730011,9.6959839,5.5980225
	c4.223999-1.131012,6.730011-5.4730225,5.5979919-9.6960144"/>
<line class="st2" x1="143.4814453" y1="130.7588196" x2="140.687439" y2="120.3308411"/>
<line class="st2" x1="155.9816284" y1="116.2329102" x2="158.7756042" y2="126.6609192"/>
<line class="st2" x1="140.700531" y1="131.5041199" x2="137.9065247" y2="121.0761414"/>
<line class="st2" x1="137.9063416" y1="121.0760193" x2="158.7623291" y2="115.4880371"/>
<line class="st2" x1="158.7623291" y1="115.4876099" x2="161.5563049" y2="125.9156189"/>
<path class="st2" d="M143.1088257,129.3684082c1.1319885,4.2240295,5.4729919,6.730011,9.6959839,5.5980225
	c4.223999-1.132019,6.730011-5.4730225,5.5979919-9.6960144"/>
<rect x="128.2367249" y="175.0339355" class="st2" width="30.2279968" height="0.7200012"/>
<polyline class="st2" points="139.032135,175.0337219 139.032135,172.1547241 147.6691284,172.1547241 147.6691284,175.0337219 "/>
<polyline class="st2" points="147.6688232,175.753418 147.6688232,177.1924438 139.0317993,177.1924438 139.0317993,175.753418 "/>
<path class="st2" d="M73.3829346,175.8465271c4.2159729,4.2160034,11.0519714,4.2160034,15.2679749,0
	c4.2160034-4.2159729,4.2160034-11.0519714,0-15.2679749"/>
<path class="st2" d="M75.4185486,173.8108215c3.09198,3.0920105,8.1039734,3.0920105,11.1959839,0
	c3.0920105-3.09198,3.0920105-8.1039734,0-11.1959839"/>
<line class="st2" x1="86.6147461" y1="162.6145325" x2="78.9807434" y2="154.9805603"/>
<line class="st2" x1="67.7846375" y1="166.1769104" x2="75.4186096" y2="173.8109131"/>
<line class="st2" x1="88.6504211" y1="160.5788269" x2="81.0164185" y2="152.9448547"/>
<line class="st2" x1="81.0166321" y1="152.9451294" x2="65.7486267" y2="168.2131348"/>
<line class="st2" x1="65.7490234" y1="168.2127075" x2="73.3829956" y2="175.8467102"/>
<path class="st2" d="M74.4006348,172.7929077c3.09198,3.0920105,8.1039734,3.0920105,11.1959839,0
	c3.0920105-3.09198,3.0920105-8.1039734,0-11.1959839"/>
<path class="st2" d="M101.8355408,125.9157104c-1.5430298,5.7590027,1.875,11.6790161,7.6339722,13.2220154
	c5.7590027,1.5429993,11.6790161-1.8739929,13.2220154-7.6340027"/>
<path class="st2" d="M104.616333,126.6608276c-1.132019,4.2230225,1.375,8.5650024,5.5979919,9.6960144
	c4.223999,1.1319885,8.5650024-1.3739929,9.6959839-5.5979919"/>
<line class="st2" x1="119.9106445" y1="130.7588196" x2="122.7046204" y2="120.3308411"/>
<line class="st2" x1="107.4104309" y1="116.2329102" x2="104.6164246" y2="126.6609192"/>
<line class="st2" x1="122.6916504" y1="131.5041199" x2="125.4856262" y2="121.0761414"/>
<line class="st2" x1="125.4856262" y1="121.0760193" x2="104.6296082" y2="115.4880371"/>
<line class="st2" x1="104.6297302" y1="115.4876099" x2="101.8357239" y2="125.9156189"/>
<path class="st2" d="M104.9889221,125.2704163c-1.132019,4.2230225,1.375,8.5640259,5.5979919,9.6960144
	s8.5650024-1.3739929,9.6959839-5.5979919"/>
<line class="st2" x1="15.6413269" y1="73.4789124" x2="12.2263184" y2="73.4789124"/>
<path class="st2" d="M15.6413269,73.4789124c0.1409912,0,0.2549744-0.1139832,0.2549744-0.2549744"/>
<path class="st2" d="M15.8963318,72.8079224c0-0.1409912-0.1140137-0.2549744-0.2550049-0.2549744"/>
<line class="st2" x1="15.8963318" y1="73.2239075" x2="15.8963318" y2="72.8079224"/>
<path class="st2" d="M12.1549377,72.6397095c0.071991,0.0820007,0.1759949,0.1280212,0.2849731,0.1280212"/>
<path class="st2" d="M12.4402466,73.2638245c-0.1090088,0-0.2130127,0.0470276-0.2850037,0.1280212"/>
<line class="st2" x1="14.0456238" y1="73.2638245" x2="12.4406128" y2="73.2638245"/>
<line class="st2" x1="12.4404297" y1="72.7681274" x2="14.0454102" y2="72.7681274"/>
<path class="st2" d="M14.187439,72.9099121c0-0.0779724-0.0640259-0.1419983-0.1420288-0.1419983"/>
<line class="st2" x1="14.187439" y1="73.1219177" x2="14.187439" y2="72.9099426"/>
<path class="st2" d="M11.9584351,72.4967346c0.0849915,0.0370178,0.1759949,0.0560303,0.2679749,0.0560303"/>
<path class="st2" d="M12.2262268,73.4789124c-0.0920105,0-0.1830139,0.0190125-0.2680054,0.0560303"/>
<line class="st2" x1="12.2262268" y1="72.5529175" x2="15.6412048" y2="72.5529175"/>
<path class="st2" d="M12.2329407,72.5529175c-0.256012-0.2769775-0.6880188-0.2949829-0.9650269-0.0389709
	c-0.2769775,0.2559814-0.2939758,0.6879883-0.0390015,0.9649963c0.256012,0.2769775,0.6880188,0.2949829,0.9650269,0.0390015
	c0.0139771-0.0120239,0.0269775-0.026001,0.0390015-0.0390015"/>
<path class="st2" d="M12.1549377,72.6397095c-0.2080078-0.2339783-0.5660095-0.2559814-0.8000183-0.0479736
	c-0.2340088,0.2079773-0.256012,0.565979-0.0480042,0.7999878s0.5660095,0.256012,0.8000183,0.0480042
	c0.0169983-0.0150146,0.0329895-0.0310059,0.0480042-0.0480042"/>
<path class="st2" d="M14.0456238,73.2638245c0.0779724,0,0.1419983-0.0639954,0.1419983-0.1419983"/>
<line class="st2" x1="22.5402222" y1="65.818634" x2="23.8762207" y2="65.818634"/>
<line class="st2" x1="23.8763428" y1="80.2132263" x2="22.5403137" y2="80.2132263"/>
<path class="st2" d="M23.3162231,78.3981323c0.2979736,0.0110168,0.5489807-0.2209778,0.5599976-0.5189819
	c0-0.0069885,0-0.0140076,0-0.019989"/>
<path class="st2" d="M16.0569458,77.175415c2.3569946,0.7180176,4.7969971,1.1290283,7.2589722,1.2230225"/>
<path class="st2" d="M16.0569458,68.8564148c-1.6670227,0.5080261-2.8700256,1.9630127-3.0560303,3.6970215"/>
<path class="st2" d="M13.0012207,73.4789124c0.1859741,1.7330017,1.38797,3.1880188,3.0559998,3.6970215"/>
<path class="st2" d="M23.3162231,67.6336365c-2.4620056,0.0930176-4.9020081,0.5040283-7.2590027,1.2230225"/>
<path class="st2" d="M23.8763428,68.1731262c0-0.2979736-0.2420044-0.539978-0.5400085-0.539978
	c-0.007019,0-0.0130005,0-0.0200195,0.0010071"/>
<line class="st2" x1="23.8763428" y1="68.1731262" x2="23.8763428" y2="77.8591309"/>
<path class="st2" d="M6.6929321,80.2132263h17.1829834c1.1929932,0,2.1600037-0.96698,2.1600037-2.1589966V67.978241
	c0-1.1929932-0.9670105-2.1600037-2.1600037-2.1600037H6.6929321V80.2132263z"/>
<path class="st2" d="M14.3401489,72.2962341c-0.2130127,0-0.4140015,0.0940247-0.5510254,0.257019"/>
<path class="st2" d="M13.7891235,73.4789124c0.1369934,0.1630249,0.3379822,0.257019,0.5509949,0.257019"/>
<path class="st2" d="M14.3401489,73.7356262c0.2129822,0,0.4139709-0.0939941,0.5509949-0.2569885"/>
<path class="st2" d="M14.8910217,72.5529175c-0.1370239-0.1629944-0.3380127-0.2569885-0.5510254-0.2569885"/>
<path class="st2" d="M22.8082275,77.9470215c0.1899719-0.0109863,0.3389893-0.1679993,0.3389893-0.3589783"/>
<path class="st2" d="M17.1810303,77.4931335c1.8469849,0.401001,3.7399902,0.553009,5.6269836,0.45401"/>
<path class="st2" d="M16.0922241,68.8486328c-0.1270142,0.0370178-0.2520142,0.0800171-0.375,0.1280212"/>
<path class="st2" d="M15.7184448,77.0554199c0.1219788,0.0480042,0.2469788,0.0910034,0.3739929,0.1280212"/>
<path class="st2" d="M22.8082275,68.0847168c-1.8880005-0.098999-3.7800293,0.053009-5.6270142,0.45401"/>
<path class="st2" d="M23.147522,68.4441223c0-0.190979-0.1490173-0.3479919-0.3390198-0.3589783"/>
<line class="st2" x1="23.147522" y1="77.5877075" x2="23.147522" y2="68.4437256"/>
<path class="st2" d="M17.3537292,36.5009155c0.9229736,0.2750244,1.8819885,0.4150085,2.8459778,0.4150085"/>
<path class="st2" d="M15.1134338,35.4010315c0.6799927,0.4890137,1.4369812,0.8610229,2.2399902,1.1000061"/>
<path class="st2" d="M14.4327393,34.8253174c0.2109985,0.210022,0.4389954,0.4020081,0.6809998,0.5760193"/>
<path class="st2" d="M20.1995239,36.9157104c0.9639893,0,1.9219971-0.1399841,2.8459778-0.414978
	c0.803009-0.2390137,1.5599976-0.6109924,2.2400208-1.1000061c0.6539917-0.4700012,1.2009888-1.0750122,1.6029968-1.7730103
	c0.3299866-0.572998,0.5039978-1.2219849,0.5039978-1.8840027c0-0.6609802-0.1740112-1.3099976-0.5039978-1.8829956
	c-0.4020081-0.697998-0.9490051-1.3029785-1.6029968-1.7729797c-0.6800232-0.4890137-1.4370117-0.8610229-2.2400208-1.1000061
	c-0.9239807-0.2749939-1.8819885-0.4150085-2.8459778-0.4150085c-0.9640198,0-1.9220276,0.1400146-2.8460083,0.4150085
	c-0.803009,0.2389832-1.5599976,0.6109924-2.2400208,1.1000061c-0.2419739,0.1729736-0.4689941,0.3659973-0.6809998,0.5749817
	v6.1629944"/>
<path class="st2" d="M11.1491394,35.7946167c2.2979736,0.1360168,4.5849915,0.428009,6.8439941,0.8740234"/>
<path class="st2" d="M11.9553223,29.7389221c-0.1000061-0.5149841-0.2620239-1.0159912-0.4840088-1.4909973
	c-0.2610168-0.5579834-0.6620178-1.039978-1.1650085-1.3959961c-0.1919861-0.1369934-0.4320068-0.1889954-0.6629944-0.144989
	l-2.125,0.4069824c-0.1390076,0.0270081-0.2390137,0.1480103-0.2390137,0.2890015v8.6820068
	c0,0.1410217,0.1000061,0.2630005,0.2390137,0.2890015l2.125,0.4070129c0.2309875,0.0440063,0.4710083-0.007019,0.6629944-0.1440125
	c0.5029907-0.3569946,0.9039917-0.8379822,1.1650085-1.3970032c0.2219849-0.4750061,0.3840027-0.9750061,0.4840088-1.4899902
	c0.1279907-0.6610107,0.1919861-1.3330078,0.1919861-2.006012S12.083313,30.3999329,11.9553223,29.7389221z"/>
<path class="st2" d="M11.1491394,27.6939087c2.2979736-0.1359863,4.5849915-0.4279785,6.8439941-0.8739929"/>
<path class="st2" d="M9.3823242,31.7441101c0-0.2979736,0.2419739-0.539978,0.539978-0.539978
	s0.5400085,0.2420044,0.5400085,0.539978c0,0.2980042-0.2420044,0.5400085-0.5400085,0.5400085
	S9.3823242,32.0421143,9.3823242,31.7441101z"/>
<polygon class="st2" points="179.4265442,267.0286255 179.4265442,260.1446533 0.1255493,236.2556305 0.1255493,230.4476318 
	185.1845398,255.1036377 185.1845398,267.0286255 "/>
<polygon class="st2" points="239.0736084,267.0286255 233.3155518,267.0286255 233.3155518,230.4476318 239.0736084,231.2146301 "/>
<line class="st2" x1="231.0667114" y1="114.9779358" x2="199.3987122" y2="114.9779358"/>
<line class="st2" x1="6.6929321" y1="99.4550171" x2="57.5649109" y2="99.4550171"/>
<polygon class="st2" points="11.6410217,220.646225 0.125,220.646225 0.125,9.4072266 201.4710083,9.4072266 
	201.4710083,11.0272217 202.9110107,11.0272217 202.9110107,14.6252441 201.4710083,14.6252441 201.4710083,18.1342468 
	177.2220154,18.1342468 177.2220154,19.6632385 173.8940125,19.6632385 173.8940125,18.1342468 63.6820068,18.1342468 
	63.6820068,43.9542236 65.4810181,43.9542236 65.4810181,52.4112244 60.8930054,52.4112244 60.8930054,55.2892456 
	57.5639954,55.2892456 57.5639954,19.8432312 6.6929932,19.8432312 6.6929932,86.0502319 57.5639954,86.0502319 
	57.5639954,79.7602234 60.8930054,79.7602234 60.8930054,109.9812317 49.3569946,109.9812317 49.3569946,106.6522217 
	57.5639954,106.6522217 57.5639954,89.3792419 6.6929932,89.3792419 6.6929932,106.6522217 14.8099976,106.6522217 
	14.8099976,109.9812317 6.6929932,109.9812317 6.6929932,184.2102356 12.3720093,184.2102356 12.3720093,188.2582245 
	11.6410217,188.2582245 "/>
<polygon class="st2" points="69.9500427,184.2102203 69.9390259,188.2582245 70.65802,188.2582245 70.65802,191.4972229 
	185.184021,191.4972229 185.184021,171.3452454 185.9040222,171.3452454 185.9040222,167.2962341 177.8970337,167.2962341 
	177.8970337,178.6322327 108.8040161,178.6322327 108.8040161,184.2102203 "/>
<rect x="198.8597412" y="167.296936" class="st2" width="4.3179932" height="8.4570007"/>
<polygon class="st2" points="229.0874634,167.2966309 229.0874634,175.7536316 233.3154297,175.7536316 233.3154297,220.646637 
	239.8834229,220.646637 239.8834229,9.4076233 228.8204346,9.4076233 228.8204346,11.0266418 227.3814087,11.0266418 
	227.3814087,14.6256409 228.8204346,14.6256409 228.8204346,18.1336365 231.0664062,18.1336365 231.0664062,104.4516296 
	228.187439,104.4516296 228.187439,107.7806396 231.0664062,107.7806396 231.0664062,125.0536499 199.3984375,125.0536499 
	199.3984375,107.7806396 202.2774353,107.7806396 202.2774353,104.4516296 199.3984375,104.4516296 199.3984375,101.9326477 
	193.2814636,101.9326477 193.2814636,131.1716309 231.0664062,131.1716309 231.0664062,167.2966309 "/>
<polygon class="st2" points="87.0732422,43.95401 87.0732422,52.4110107 193.2812195,52.4110107 193.2812195,77.4620361 
	199.399231,77.4620361 199.399231,43.95401 177.222229,43.95401 177.222229,42.6950378 173.8942261,42.6950378 
	173.8942261,43.95401 "/>
<path class="st2" d="M149.1082458,31.0443115c0-0.7949829,0.6439819-1.4399719,1.4389954-1.4399719
	c0.7949829,0,1.4400024,0.644989,1.4400024,1.4399719c0,0.7950134-0.6450195,1.4390259-1.4400024,1.4390259
	C149.7522278,32.4833374,149.1082458,31.839325,149.1082458,31.0443115h1.4389954h-35.9860229l3.5980225-1.3099976v1.3099976"/>
<line class="st2" x1="229.0874634" y1="175.753418" x2="203.1774597" y2="175.753418"/>
<line class="st2" x1="229.0874634" y1="167.2966309" x2="203.1774597" y2="167.2966309"/>
<line class="st2" x1="227.3814087" y1="14.6255188" x2="202.9104004" y2="14.6255188"/>
<line class="st2" x1="227.3814087" y1="11.0267334" x2="202.9104004" y2="11.0267334"/>
<g>
	<path class="st9" d="M110.2733765,218.1503906h-0.7578125v1.1005859h-0.3515625v-3.1191406h1.1669922
		c0.7041016,0,1.1669922,0.3740234,1.1669922,0.9941406C111.4979858,217.8027344,110.937439,218.1503906,110.2733765,218.1503906z
		 M110.3046265,216.4570312h-0.7890625v1.3730469h0.7705078c0.5175781,0,0.8554688-0.2763672,0.8554688-0.6914062
		C111.1415405,216.6894531,110.8075562,216.4570312,110.3046265,216.4570312z"/>
	<path class="st9" d="M115.031189,219.2509766h-0.3779297l-0.3662109-0.8242188h-1.6972656l-0.3691406,0.8242188h-0.3613281
		l1.4208984-3.1416016h0.3300781L115.031189,219.2509766z M113.4413452,216.5195312l-0.7128906,1.5908203h1.4208984
		L113.4413452,216.5195312z"/>
	<path class="st9" d="M116.6854858,219.2509766h-0.3564453v-2.7939453h-1.046875v-0.3251953h2.4501953v0.3251953h-1.046875
		V219.2509766z"/>
	<path class="st9" d="M118.9667358,216.1318359v3.1191406h-0.3515625v-3.1191406H118.9667358z"/>
	<path class="st9" d="M121.5585327,219.3046875c-0.9492188,0-1.5869141-0.7441406-1.5869141-1.6083984
		s0.6464844-1.6181641,1.5957031-1.6181641c0.9482422,0,1.5859375,0.7441406,1.5859375,1.609375
		C123.1532593,218.5517578,122.5067749,219.3046875,121.5585327,219.3046875z M121.5585327,216.4042969
		c-0.7128906,0-1.2216797,0.5703125-1.2216797,1.2832031s0.5175781,1.2919922,1.2304688,1.2919922
		s1.2207031-0.5703125,1.2207031-1.2832031S122.2714233,216.4042969,121.5585327,216.4042969z"/>
</g>
<g>
	<path class="st9" d="M21.9286499,54.9794922h-0.7578125v1.1005859h-0.3515625v-3.1191406h1.1669922
		c0.7041016,0,1.1669922,0.375,1.1669922,0.9941406C23.1532593,54.6318359,22.5927124,54.9794922,21.9286499,54.9794922z
		 M21.9598999,53.2861328h-0.7890625v1.3730469h0.7705078c0.5175781,0,0.8554688-0.2763672,0.8554688-0.6914062
		C22.796814,53.5185547,22.4628296,53.2861328,21.9598999,53.2861328z"/>
	<path class="st9" d="M25.5018921,56.1337891c-0.9482422,0-1.5859375-0.7441406-1.5859375-1.6083984
		s0.6464844-1.6171875,1.5957031-1.6171875c0.9482422,0,1.5859375,0.7431641,1.5859375,1.6083984
		C27.0975952,55.3808594,26.4511108,56.1337891,25.5018921,56.1337891z M25.5018921,53.2333984
		c-0.7128906,0-1.2207031,0.5703125-1.2207031,1.2832031s0.5175781,1.2919922,1.2304688,1.2919922
		s1.2207031-0.5703125,1.2207031-1.2832031S26.2147827,53.2333984,25.5018921,53.2333984z"/>
	<path class="st9" d="M29.843689,52.9521484h0.2900391l0.8554688,2.6064453l0.890625-2.5976562h0.3701172l-1.1142578,3.1416016
		h-0.2978516l-0.8554688-2.53125l-0.8603516,2.53125H28.828064l-1.1142578-3.1416016h0.3837891l0.890625,2.5976562
		L29.843689,52.9521484z"/>
	<path class="st9" d="M34.1952515,56.0800781h-1.0820312v-3.1191406h1.0820312c0.9804688,0,1.6582031,0.6728516,1.6582031,1.5556641
		C35.8534546,55.3984375,35.1757202,56.0800781,34.1952515,56.0800781z M34.1952515,53.2861328h-0.7304688v2.46875h0.7304688
		c0.7890625,0,1.2929688-0.5351562,1.2929688-1.2294922C35.4882202,53.8300781,34.984314,53.2861328,34.1952515,53.2861328z"/>
	<path class="st9" d="M39.102478,53.2822266h-1.9023438v1.0644531h1.7021484v0.3212891h-1.7021484v1.0917969h1.9248047v0.3203125
		h-2.2763672v-3.1191406h2.2539062V53.2822266z"/>
	<path class="st9" d="M42.1864624,56.0800781l-0.9042969-1.2119141H40.390564v1.2119141h-0.3515625v-3.1191406h1.3408203
		c0.6865234,0,1.1269531,0.3701172,1.1269531,0.9316406c0,0.5214844-0.3564453,0.8242188-0.8466797,0.9130859l0.9580078,1.2744141
		H42.1864624z M41.3534546,53.2861328H40.390564v1.265625h0.9580078c0.4677734,0,0.8017578-0.2402344,0.8017578-0.6455078
		C42.1503296,53.5185547,41.8563843,53.2861328,41.3534546,53.2861328z"/>
</g>
<g>
	<path class="st9" d="M74.3720093,31.4765625c0.6953125,0.1513672,1.015625,0.4052734,1.015625,0.8862305
		c0,0.5395508-0.4453125,0.8867188-1.0644531,0.8867188c-0.4951172,0-0.9003906-0.1645508-1.2744141-0.4990234l0.2177734-0.2583008
		c0.3251953,0.2939453,0.6376953,0.440918,1.0693359,0.440918c0.4189453,0,0.6953125-0.2182617,0.6953125-0.534668
		c0-0.2939453-0.15625-0.4589844-0.8105469-0.5966797c-0.7177734-0.15625-1.046875-0.3876953-1.046875-0.9047852
		c0-0.4990234,0.4316406-0.8554688,1.0244141-0.8554688c0.4541016,0,0.7792969,0.1293945,1.0957031,0.3833008l-0.2050781,0.2719727
		c-0.2890625-0.2363281-0.5791016-0.3388672-0.8994141-0.3388672c-0.4052734,0-0.6640625,0.2226562-0.6640625,0.5078125
		C73.5253296,31.1645508,73.6854858,31.3291016,74.3720093,31.4765625z"/>
	<path class="st9" d="M77.5223999,33.2050781h-0.3564453v-2.793457h-1.046875v-0.3256836h2.4501953v0.3256836h-1.046875V33.2050781z
		"/>
	<path class="st9" d="M80.7265015,33.2587891c-0.9492188,0-1.5869141-0.7441406-1.5869141-1.6088867
		c0-0.8642578,0.6464844-1.6171875,1.5957031-1.6171875c0.9482422,0,1.5859375,0.7441406,1.5859375,1.6083984
		S81.6747437,33.2587891,80.7265015,33.2587891z M80.7265015,30.3579102c-0.7128906,0-1.2216797,0.5703125-1.2216797,1.2832031
		s0.5175781,1.2919922,1.2304688,1.2919922s1.2207031-0.5703125,1.2207031-1.2832031S81.4393921,30.3579102,80.7265015,30.3579102z"
		/>
	<path class="st9" d="M85.4725952,33.2050781l-0.9042969-1.2119141h-0.8916016v1.2119141h-0.3515625v-3.1191406h1.3408203
		c0.6865234,0,1.1269531,0.3701172,1.1269531,0.9316406c0,0.5209961-0.3564453,0.8242188-0.8466797,0.9130859l0.9580078,1.2744141
		H85.4725952z M84.6395874,30.4116211h-0.9628906v1.2651367h0.9580078c0.4677734,0,0.8017578-0.2407227,0.8017578-0.6459961
		C85.4364624,30.6430664,85.1425171,30.4116211,84.6395874,30.4116211z"/>
	<path class="st9" d="M89.7860718,33.2050781h-0.3779297l-0.3652344-0.8242188h-1.6982422l-0.3701172,0.8242188h-0.3603516
		l1.4208984-3.1411133h0.3300781L89.7860718,33.2050781z M88.196228,30.4736328l-0.7128906,1.5908203h1.4208984
		L88.196228,30.4736328z"/>
	<path class="st9" d="M91.921814,33.2587891c-0.9794922,0-1.5859375-0.7128906-1.5859375-1.6088867
		c0-0.8598633,0.6289062-1.6171875,1.5644531-1.6171875c0.5253906,0,0.8505859,0.1513672,1.1621094,0.4145508l-0.2265625,0.2670898
		c-0.2412109-0.2094727-0.5078125-0.3564453-0.9492188-0.3564453c-0.6904297,0-1.1855469,0.5834961-1.1855469,1.2832031
		c0,0.7485352,0.4775391,1.3012695,1.234375,1.3012695c0.3564453,0,0.6865234-0.1381836,0.9003906-0.3120117v-0.7753906h-0.9492188
		v-0.3164062h1.2880859v1.2431641C92.8847046,33.0400391,92.4481812,33.2587891,91.921814,33.2587891z"/>
	<path class="st9" d="M96.5038452,30.4072266h-1.9023438v1.0644531h1.7021484v0.3208008h-1.7021484v1.0917969h1.9248047v0.3208008
		H94.249939v-3.1191406h2.2539062V30.4072266z"/>
</g>
<g>
	<path class="st9" d="M125.8632202,96.0732422h0.2900391l0.8554688,2.6064453l0.890625-2.5976562h0.3701172l-1.1142578,3.1416016
		h-0.2978516l-0.8554688-2.53125l-0.8603516,2.53125h-0.2939453l-1.1142578-3.1416016h0.3837891l0.890625,2.5976562
		L125.8632202,96.0732422z"/>
	<path class="st9" d="M130.4745483,99.2548828c-0.9492188,0-1.5869141-0.7441406-1.5869141-1.6083984
		s0.6464844-1.6171875,1.5957031-1.6171875c0.9482422,0,1.5859375,0.7431641,1.5859375,1.6083984
		C132.0692749,98.5019531,131.4227905,99.2548828,130.4745483,99.2548828z M130.4745483,96.3544922
		c-0.7128906,0-1.2216797,0.5703125-1.2216797,1.2832031s0.5175781,1.2919922,1.2304688,1.2919922
		s1.2207031-0.5703125,1.2207031-1.2832031S131.187439,96.3544922,130.4745483,96.3544922z"/>
	<path class="st9" d="M135.2206421,99.2011719l-0.9042969-1.2119141h-0.8916016v1.2119141h-0.3515625v-3.1191406h1.3408203
		c0.6865234,0,1.1269531,0.3701172,1.1269531,0.9316406c0,0.5214844-0.3564453,0.8242188-0.8466797,0.9130859l0.9580078,1.2744141
		H135.2206421z M134.3876343,96.4072266h-0.9628906v1.265625h0.9580078c0.4677734,0,0.8017578-0.2402344,0.8017578-0.6455078
		C135.1845093,96.6396484,134.890564,96.4072266,134.3876343,96.4072266z"/>
	<path class="st9" d="M139.2098999,99.2011719h-0.4414062l-1.1982422-1.5107422l-0.6640625,0.6728516v0.8378906h-0.3515625
		v-3.1191406h0.3515625v1.8623047l1.7910156-1.8623047h0.4550781l-1.3369141,1.3632812L139.2098999,99.2011719z"/>
</g>
<g>
	<path class="st9" d="M210.6054077,178.2626953h-1.9023438v1.0644531h1.7021484v0.3212891h-1.7021484v1.0917969h1.9248047v0.3203125
		h-2.2763672v-3.1191406h2.2539062V178.2626953z"/>
	<path class="st9" d="M213.8358765,177.9414062h0.34375v3.1191406h-0.28125l-2.0136719-2.5576172v2.5576172h-0.3427734v-3.1191406
		h0.3291016l1.9648438,2.5V177.9414062z"/>
	<path class="st9" d="M216.4491577,181.0605469h-0.3564453v-2.7939453h-1.046875v-0.3251953h2.4501953v0.3251953h-1.046875
		V181.0605469z"/>
	<path class="st9" d="M220.508728,181.0605469l-0.9042969-1.2119141h-0.8916016v1.2119141h-0.3515625v-3.1191406h1.3408203
		c0.6865234,0,1.1269531,0.3701172,1.1269531,0.9316406c0,0.5214844-0.3564453,0.8242188-0.8466797,0.9130859l0.9580078,1.2744141
		H220.508728z M219.6757202,178.2666016h-0.9628906v1.265625h0.9580078c0.4677734,0,0.8017578-0.2402344,0.8017578-0.6455078
		C220.4725952,178.4990234,220.1786499,178.2666016,219.6757202,178.2666016z"/>
	<path class="st9" d="M223.0526733,181.0605469h-0.3564453v-1.234375l-1.296875-1.8847656h0.4277344l1.0517578,1.5595703
		l1.0605469-1.5595703h0.4101562l-1.296875,1.8808594V181.0605469z"/>
</g>
<g>
	<path class="st9" d="M210.5028687,0.3203125h-1.9023438v1.0649414h1.7021484v0.3208008h-1.7021484v1.0917969h1.9248047v0.3208008
		h-2.2763672V0h2.2539062V0.3203125z"/>
	<path class="st9" d="M213.7333374,0h0.34375v3.1186523h-0.28125l-2.0136719-2.5576172v2.5576172h-0.3427734V0h0.3291016
		l1.9648438,2.4995117V0z"/>
	<path class="st9" d="M216.3466187,3.1186523h-0.3564453v-2.793457h-1.046875V0h2.4501953v0.3251953h-1.046875V3.1186523z"/>
	<path class="st9" d="M220.406189,3.1186523l-0.9042969-1.2119141h-0.8916016v1.2119141h-0.3515625V0h1.3408203
		c0.6865234,0,1.1269531,0.3696289,1.1269531,0.9311523c0,0.5209961-0.3564453,0.8242188-0.8466797,0.9130859l0.9580078,1.2744141
		H220.406189z M219.5731812,0.3251953h-0.9628906V1.590332h0.9580078c0.4677734,0,0.8017578-0.2407227,0.8017578-0.6459961
		C220.3700562,0.5566406,220.0761108,0.3251953,219.5731812,0.3251953z"/>
	<path class="st9" d="M222.9501343,3.1186523h-0.3564453v-1.234375L221.296814,0h0.4277344l1.0517578,1.559082L223.836853,0
		h0.4101562l-1.296875,1.8798828V3.1186523z"/>
</g>
<g>
	<path class="st9" d="M156.5106812,31.1005859c0,0.9086914-0.5205078,1.3808594-1.3007812,1.3808594
		c-0.7705078,0-1.2958984-0.472168-1.2958984-1.3544922v-1.8134766h0.3515625v1.7915039
		c0,0.6728516,0.3564453,1.0512695,0.953125,1.0512695c0.5751953,0,0.9404297-0.3476562,0.9404297-1.0292969v-1.8134766h0.3515625
		V31.1005859z"/>
	<path class="st9" d="M158.7450562,31.3320312h-0.7578125v1.1005859h-0.3515625v-3.1191406h1.1669922
		c0.7041016,0,1.1669922,0.3745117,1.1669922,0.9936523C159.9696655,30.984375,159.4091187,31.3320312,158.7450562,31.3320312z
		 M158.7763062,29.6391602h-0.7890625v1.3720703h0.7705078c0.5175781,0,0.8554688-0.2763672,0.8554688-0.6904297
		C159.6132202,29.8706055,159.2792358,29.6391602,158.7763062,29.6391602z"/>
</g>
</svg>
