<svg width="252" height="267" viewBox="0 0 252 267" fill="none" xmlns="http://www.w3.org/2000/svg">
<g clip-path="url(#clip0_0_1)">
<path d="M23.8 165.8V165.9H12.3H12.2V165.8V151.4V151.3H12.3H23.8H23.9V151.4V165.8V165.9H23.8V165.8H23.7V151.5H12.4V165.7H23.8V165.8H23.7H23.8Z" fill="#99A4B3"/>
<path d="M23.8 226.3V226.4H12.3L12.2 226.3V211.9V211.8L12.3 211.7H23.8L23.9 211.8V211.9V226.3L23.8 226.4V226.3H23.7V212H12.4V226.1H23.8V226.3H23.7H23.8Z" fill="#99A4B3"/>
<path d="M222.5 168.4V168.2H234L234.1 168.3V168.4V182.8L234 182.9H222.5L222.4 182.8H222.3V168.4L222.4 168.3L222.5 168.2V168.4H222.6V182.6H233.9V168.5H222.5V168.4H222.6H222.5Z" fill="#99A4B3"/>
<path d="M222.5 110.8V110.7H233.9V96.5H222.6V110.8H222.5V110.7V110.8H222.3V96.4L222.4 96.3H222.5H234H234.1V96.4V110.8V110.9H234H222.5H222.4L222.3 110.8H222.5Z" fill="#99A4B3"/>
<path d="M10.9 61.4H11V117.1H14.5V95.8H13.5V118.8H56.4V95.8H55.4V117.1H66.6L66.7 117.2L66.8 117.3V142.1H67.8V120.7H64.2V150.1V150.2H64.1H11V167.1H69.9L70 167.2V210.4V210.5H69.9H11V227.4H91.5V213.6L91.6 213.5H91.7H95H95.1V213.6V221.9H125.7V190.5H95.1V193.2H116.5V192.1H91.7H91.6L91.5 192V146.1H91.6L91.7 146H93.2V123.2H91.7H91.6L91.5 123.1V120.7H88.2L88.1 120.6V117.3L88.2 117.2V117.1H121.4V114.7L121.5 114.6H146.3V113.6H125V117.1H143.2L143.3 117.2V117.3V185.9H235.3V167H176.4H176.3V166.9V112.2V112.1H176.4H235.3V90.8H211.3L211.2 90.7L211.1 90.6V89.1H189.8V90.6V90.7L189.7 90.8H181.5L170.9 96.9H170.7L170.1 95.8V95.6L180.8 89.4H180.9L181 89.5L181.4 90.2V87.3V87.2H181.5H183.7V71.6H125V87.2H127.2H127.3V87.3V90.6L137.8 96.6L138.3 95.7L127.8 89.7L127.3 90.7L127.2 90.8H125V93.2H124.9V93.3H121.5L121.4 93.2V90.8H39.7L39.6 90.7L39.5 90.6V86.3H36.1H36L35.9 86.2V85.1H36L36.1 85H39.5V61.5H10.9V61.4H11H10.9V61.3H39.7L39.8 61.4V85.1L39.7 85.2V85.3H36.2V86.1H39.7L39.8 86.2V90.5H121.5H121.6V90.6V93H124.7V90.6L124.8 90.5H124.9H127.1L127.7 89.5L127.9 89.4L138.5 95.6V95.7L138 96.9H137.9H137.8L127.1 90.7L127 90.6V87.4H124.9H124.8L124.7 87.3V71.5L124.8 71.4H124.9H183.8H183.9V71.5V87.3V87.4H183.8H181.6V90.6L181.5 90.8L181.4 90.7L180.8 89.7L170.4 95.8L170.9 96.6L181.4 90.5H181.5H189.6V89V88.9L189.7 88.8H211.3V88.9L211.4 89V90.5H235.4H235.5V90.6V112.2V112.3H235.4H176.5V166.8H235.4H235.5V166.9V186V186.1H235.4H143.2H143.1V186V117.4H124.9L124.8 117.3H124.7V113.5L124.8 113.4H124.9H146.4H146.5L146.6 113.5V114.7L146.5 114.8L146.4 114.9H121.6V117.3L121.5 117.4H88.4V120.5H91.7L91.8 120.6V123H93.3H93.4V123.1V146.1V146.2L93.3 146.3H91.8V191.9H116.6H116.7V192V193.3V193.4H116.6H95H94.9V193.3V190.4V190.3H95H125.8H125.9L126 190.4V222L125.9 222.1H125.8H95H94.9V222V213.7H91.8V227.6H91.7V227.7H10.9L10.8 227.6H10.7V210.4L10.8 210.3H10.9H69.8V167.4H10.9L10.8 167.3L10.7 167.2V150.1L10.8 150H10.9H64V120.6V120.5H64.1H67.9H68V120.6V142.2V142.3H67.9H66.6L66.5 142.2V117.4H55.3L55.2 117.3V95.7V95.6H55.3H56.6H56.7V95.7V118.9V119H56.6H13.4H13.3V118.9V95.7V95.6H13.4H14.6H14.7L14.8 95.7V117.3H14.7L14.6 117.4H10.9L10.8 117.3H10.7V61.4L10.8 61.3H10.9V61.4Z" fill="#99A4B3"/>
<path d="M141.2 96.8L141.1 96.7L151.8 90.5H156.8H156.9L167.5 96.6L168 95.8L157.5 89.7L156.9 90.7L156.8 90.8L156.7 90.6V87.4H152V90.6L151.9 90.8L151.7 90.7L151.2 89.7L140.7 95.8L141.3 96.7L141.2 96.8L141.1 96.7L141.2 96.8L141.1 96.9L140.4 95.8L140.5 95.6L151.2 89.4L151.3 89.5L151.7 90.2V87.3L151.8 87.2H156.8H156.9L157 87.3V90.2L157.4 89.5L157.5 89.4L168.2 95.6L168.3 95.7V95.8L167.6 96.9H167.5L156.8 90.8H151.9L141.2 96.9H141.1L141.2 96.8Z" fill="#99A4B3"/>
<path d="M13.5 227.6V226.3L13.7 226.1L13.8 226.3V227.6L13.7 227.7L13.5 227.6Z" fill="#99A4B3"/>
<path d="M13.5 95.7V61.4L13.7 61.3L13.8 61.4V95.7L13.7 95.8L13.5 95.7Z" fill="#99A4B3"/>
<path d="M13.5 211.9V210.4L13.7 210.3L13.8 210.4V211.9L13.7 212L13.5 211.9Z" fill="#99A4B3"/>
<path d="M13.5 118.9V117.3L13.7 117.1L13.8 117.3V118.9L13.7 119L13.5 118.9Z" fill="#99A4B3"/>
<path d="M13.5 167.2V165.8L13.7 165.7L13.8 165.8V167.2L13.7 167.4L13.5 167.2Z" fill="#99A4B3"/>
<path d="M13.5 151.4V150.1L13.7 150L13.8 150.1V151.4L13.7 151.5L13.5 151.4Z" fill="#99A4B3"/>
<path d="M18.9 227.6V226.3L19.1 226.1L19.2 226.3V227.6L19.1 227.7L18.9 227.6Z" fill="#99A4B3"/>
<path d="M18.9 118.9V61.4L19.1 61.3L19.2 61.4V118.9L19.1 119L18.9 118.9Z" fill="#99A4B3"/>
<path d="M18.9 211.9V210.4L19.1 210.3L19.2 210.4V211.9L19.1 212L18.9 211.9Z" fill="#99A4B3"/>
<path d="M18.9 151.4V150.1L19.1 150L19.2 150.1V151.4L19.1 151.5L18.9 151.4Z" fill="#99A4B3"/>
<path d="M18.9 167.2V165.8L19.1 165.7L19.2 165.8V167.2L19.1 167.4L18.9 167.2Z" fill="#99A4B3"/>
<path d="M24.3 227.6V210.4L24.5 210.3L24.6 210.4V227.6L24.5 227.7L24.3 227.6Z" fill="#99A4B3"/>
<path d="M24.3 118.9V61.4L24.5 61.3L24.6 61.4V118.9L24.5 119L24.3 118.9Z" fill="#99A4B3"/>
<path d="M24.3 167.2V150.1L24.5 150L24.6 150.1V167.2L24.5 167.4L24.3 167.2Z" fill="#99A4B3"/>
<path d="M29.7 227.6V210.4L29.9 210.3L30 210.4V227.6L29.9 227.7L29.7 227.6Z" fill="#99A4B3"/>
<path d="M29.7 118.9V61.4L29.9 61.3L30 61.4V118.9L29.9 119L29.7 118.9Z" fill="#99A4B3"/>
<path d="M29.7 167.2V150.1L29.9 150L30 150.1V167.2L29.9 167.4L29.7 167.2Z" fill="#99A4B3"/>
<path d="M35.1 227.6V210.4L35.2 210.3L35.4 210.4V227.6L35.2 227.7L35.1 227.6Z" fill="#99A4B3"/>
<path d="M35.1 118.9V61.4L35.2 61.3L35.4 61.4V118.9L35.2 119L35.1 118.9Z" fill="#99A4B3"/>
<path d="M35.1 167.2V150.1L35.2 150L35.4 150.1V167.2L35.2 167.4L35.1 167.2Z" fill="#99A4B3"/>
<path d="M40.5 227.6V210.4L40.6 210.3L40.8 210.4V227.6L40.6 227.7L40.5 227.6Z" fill="#99A4B3"/>
<path d="M40.5 118.9V90.6L40.6 90.5L40.8 90.6V118.9L40.6 119L40.5 118.9Z" fill="#99A4B3"/>
<path d="M40.5 167.2V150.1L40.6 150L40.8 150.1V167.2L40.6 167.4L40.5 167.2Z" fill="#99A4B3"/>
<path d="M45.9 227.6V210.4L46 210.3L46.2 210.4V227.6L46 227.7L45.9 227.6Z" fill="#99A4B3"/>
<path d="M45.9 118.9V90.6L46 90.5L46.2 90.6V118.9L46 119L45.9 118.9Z" fill="#99A4B3"/>
<path d="M45.9 167.2V150.1L46 150L46.2 150.1V167.2L46 167.4L45.9 167.2Z" fill="#99A4B3"/>
<path d="M51.3 227.6V210.4L51.4 210.3L51.6 210.4V227.6L51.4 227.7L51.3 227.6Z" fill="#99A4B3"/>
<path d="M51.3 118.9V90.6L51.4 90.5L51.6 90.6V118.9L51.4 119L51.3 118.9Z" fill="#99A4B3"/>
<path d="M51.3 167.2V150.1L51.4 150L51.6 150.1V167.2L51.4 167.4L51.3 167.2Z" fill="#99A4B3"/>
<path d="M56.7 227.6V210.4L56.8 210.3L57 210.4V227.6L56.8 227.7L56.7 227.6Z" fill="#99A4B3"/>
<path d="M56.7 117.3V90.6L56.8 90.5L57 90.6V117.3L56.8 117.4L56.7 117.3Z" fill="#99A4B3"/>
<path d="M56.7 167.2V150.1L56.8 150L57 150.1V167.2L56.8 167.4L56.7 167.2Z" fill="#99A4B3"/>
<path d="M62.1 227.6V210.4L62.2 210.3L62.4 210.4V227.6L62.2 227.7L62.1 227.6Z" fill="#99A4B3"/>
<path d="M62.1 117.3V90.6L62.2 90.5L62.4 90.6V117.3L62.2 117.4L62.1 117.3Z" fill="#99A4B3"/>
<path d="M62.1 167.2V150.1L62.2 150L62.4 150.1V167.2L62.2 167.4L62.1 167.2Z" fill="#99A4B3"/>
<path d="M67.5 227.6V210.4L67.6 210.3L67.8 210.4V227.6L67.6 227.7L67.5 227.6Z" fill="#99A4B3"/>
<path d="M67.5 120.6V90.6L67.6 90.5L67.8 90.6V120.6L67.6 120.7L67.5 120.6Z" fill="#99A4B3"/>
<path d="M67.5 167.2V142.2L67.6 142.1L67.8 142.2V167.2L67.6 167.4L67.5 167.2Z" fill="#99A4B3"/>
<path d="M72.9 227.6V90.6L73 90.5L73.2 90.6V227.6L73 227.7L72.9 227.6Z" fill="#99A4B3"/>
<path d="M78.3 227.6V90.6L78.4 90.5L78.6 90.6V227.6L78.4 227.7L78.3 227.6Z" fill="#99A4B3"/>
<path d="M83.7 227.6V90.6L83.8 90.5L83.9 90.6V227.6L83.8 227.7L83.7 227.6Z" fill="#99A4B3"/>
<path d="M89.1 227.6V120.6L89.2 120.5L89.3 120.6V227.6L89.2 227.7L89.1 227.6Z" fill="#99A4B3"/>
<path d="M89.1 117.3V90.6L89.2 90.5L89.3 90.6V117.3L89.2 117.4L89.1 117.3Z" fill="#99A4B3"/>
<path d="M94.5 213.6V192L94.6 191.9L94.7 192V213.6L94.6 213.7L94.5 213.6Z" fill="#99A4B3"/>
<path d="M94.5 117.3V90.6L94.6 90.5L94.7 90.6V117.3L94.6 117.4L94.5 117.3Z" fill="#99A4B3"/>
<path d="M99.9 222V193.3L100 193.2L100.1 193.3V222L100 222.1L99.9 222Z" fill="#99A4B3"/>
<path d="M99.9 117.3V90.6L100 90.5L100.1 90.6V117.3L100 117.4L99.9 117.3Z" fill="#99A4B3"/>
<path d="M99.9 192V190.4L100 190.3L100.1 190.4V192L100 192.1L99.9 192Z" fill="#99A4B3"/>
<path d="M105.3 222V193.3L105.4 193.2L105.5 193.3V222L105.4 222.1L105.3 222Z" fill="#99A4B3"/>
<path d="M105.3 117.3V90.6L105.4 90.5L105.5 90.6V117.3L105.4 117.4L105.3 117.3Z" fill="#99A4B3"/>
<path d="M105.3 192V190.4L105.4 190.3L105.5 190.4V192L105.4 192.1L105.3 192Z" fill="#99A4B3"/>
<path d="M110.7 222V193.3L110.8 193.2L110.9 193.3V222L110.8 222.1L110.7 222Z" fill="#99A4B3"/>
<path d="M110.7 117.3V90.6L110.8 90.5L110.9 90.6V117.3L110.8 117.4L110.7 117.3Z" fill="#99A4B3"/>
<path d="M110.7 192V190.4L110.8 190.3L110.9 190.4V192L110.8 192.1L110.7 192Z" fill="#99A4B3"/>
<path d="M116.1 222V193.3L116.2 193.2L116.3 193.3V222L116.2 222.1L116.1 222Z" fill="#99A4B3"/>
<path d="M116.1 117.3V90.6L116.2 90.5L116.3 90.6V117.3L116.2 117.4L116.1 117.3Z" fill="#99A4B3"/>
<path d="M116.1 192V190.4L116.2 190.3L116.3 190.4V192L116.2 192.1L116.1 192Z" fill="#99A4B3"/>
<path d="M121.5 222V190.4L121.6 190.3L121.7 190.4V222L121.6 222.1L121.5 222Z" fill="#99A4B3"/>
<path d="M121.5 114.7V93.2L121.6 93L121.7 93.2V114.7L121.6 114.9L121.5 114.7Z" fill="#99A4B3"/>
<path d="M126.9 117.3V114.7L127 114.6L127.1 114.7V117.3L127 117.4L126.9 117.3Z" fill="#99A4B3"/>
<path d="M126.9 87.3V71.5L127 71.4L127.1 71.5V87.3L127 87.4L126.9 87.3Z" fill="#99A4B3"/>
<path d="M126.9 113.5V90.6L127 90.5L127.1 90.6V113.5L127 113.6L126.9 113.5Z" fill="#99A4B3"/>
<path d="M132.3 117.3V114.7L132.4 114.6L132.5 114.7V117.3L132.4 117.4L132.3 117.3Z" fill="#99A4B3"/>
<path d="M132.3 92.2V71.5L132.4 71.4L132.5 71.5V92.2L132.4 92.3L132.3 92.2Z" fill="#99A4B3"/>
<path d="M132.3 113.5V93.7L132.4 93.5L132.5 93.7V113.5L132.4 113.6L132.3 113.5Z" fill="#99A4B3"/>
<path d="M137.7 117.3V114.7L137.8 114.6L137.9 114.7V117.3L137.8 117.4L137.7 117.3Z" fill="#99A4B3"/>
<path d="M137.7 95.3V71.5L137.8 71.4L137.9 71.5V95.3L137.8 95.4L137.7 95.3Z" fill="#99A4B3"/>
<path d="M137.7 113.5V96.8L137.8 96.7L137.9 96.8V113.5L137.8 113.6L137.7 113.5Z" fill="#99A4B3"/>
<path d="M143.1 94.2V71.5L143.2 71.4L143.3 71.5V94.2L143.2 94.3L143.1 94.2Z" fill="#99A4B3"/>
<path d="M143.1 117.3V114.7L143.2 114.6L143.3 114.7V117.3L143.2 117.4L143.1 117.3Z" fill="#99A4B3"/>
<path d="M143.1 113.5V95.6L143.2 95.5L143.3 95.6V113.5L143.2 113.6L143.1 113.5Z" fill="#99A4B3"/>
<path d="M148.5 186V92.5L148.6 92.4L148.7 92.5V186L148.6 186.1L148.5 186Z" fill="#99A4B3"/>
<path d="M148.5 91.1V71.5L148.6 71.4L148.7 71.5V91.1L148.6 91.2L148.5 91.1Z" fill="#99A4B3"/>
<path d="M153.9 186V90.6L154 90.5L154.1 90.6V186L154 186.1L153.9 186Z" fill="#99A4B3"/>
<path d="M153.9 87.3V71.5L154 71.4L154.1 71.5V87.3L154 87.4L153.9 87.3Z" fill="#99A4B3"/>
<path d="M159.3 186V92.1L159.4 92L159.5 92.1V186L159.4 186.1L159.3 186Z" fill="#99A4B3"/>
<path d="M159.3 90.7V71.5L159.4 71.4L159.5 71.5V90.7L159.4 90.8L159.3 90.7Z" fill="#99A4B3"/>
<path d="M164.7 186V95.2L164.8 95.1L164.9 95.2V186L164.8 186.1L164.7 186Z" fill="#99A4B3"/>
<path d="M164.7 93.8V71.5L164.8 71.4L164.9 71.5V93.8L164.8 93.9L164.7 93.8Z" fill="#99A4B3"/>
<path d="M170.1 186V95.7L170.2 95.6L170.3 95.7V186L170.2 186.1L170.1 186Z" fill="#99A4B3"/>
<path d="M170.1 95.7V71.5L170.2 71.4L170.3 71.5V95.7L170.2 95.8L170.1 95.7Z" fill="#99A4B3"/>
<path d="M175.5 186V94L175.6 93.9L175.7 94V186L175.6 186.1L175.5 186Z" fill="#99A4B3"/>
<path d="M175.5 92.6V71.5L175.6 71.4L175.7 71.5V92.6L175.6 92.7L175.5 92.6Z" fill="#99A4B3"/>
<path d="M180.9 186V166.9L181 166.8L181.1 166.9V186L181 186.1L180.9 186Z" fill="#99A4B3"/>
<path d="M180.9 89.7V71.5L181 71.4L181.1 71.5V89.7L181 89.9L180.9 89.7Z" fill="#99A4B3"/>
<path d="M180.9 112.2V90.9L181 90.8L181.1 90.9V112.2L181 112.3L180.9 112.2Z" fill="#99A4B3"/>
<path d="M186.3 186V166.9L186.4 166.8L186.5 166.9V186L186.4 186.1L186.3 186Z" fill="#99A4B3"/>
<path d="M186.3 112.2V90.6L186.4 90.5L186.5 90.6V112.2L186.4 112.3L186.3 112.2Z" fill="#99A4B3"/>
<path d="M191.7 186V166.9L191.8 166.8L191.9 166.9V186L191.8 186.1L191.7 186Z" fill="#99A4B3"/>
<path d="M191.7 112.2V89L191.8 88.9L191.9 89V112.2L191.8 112.3L191.7 112.2Z" fill="#99A4B3"/>
<path d="M197.1 186V166.9L197.2 166.8L197.3 166.9V186L197.2 186.1L197.1 186Z" fill="#99A4B3"/>
<path d="M197.1 112.2V89L197.2 88.9L197.3 89V112.2L197.2 112.3L197.1 112.2Z" fill="#99A4B3"/>
<path d="M202.5 186V166.9L202.6 166.8L202.7 166.9V186L202.6 186.1L202.5 186Z" fill="#99A4B3"/>
<path d="M202.5 112.2V89L202.6 88.9L202.7 89V112.2L202.6 112.3L202.5 112.2Z" fill="#99A4B3"/>
<path d="M207.9 186V166.9L208 166.8L208.1 166.9V186L208 186.1L207.9 186Z" fill="#99A4B3"/>
<path d="M207.9 112.2V89L208 88.9L208.1 89V112.2L208 112.3L207.9 112.2Z" fill="#99A4B3"/>
<path d="M213.3 186V166.9L213.4 166.8L213.5 166.9V186L213.4 186.1L213.3 186Z" fill="#99A4B3"/>
<path d="M213.3 112.2V90.6L213.4 90.5L213.5 90.6V112.2L213.4 112.3L213.3 112.2Z" fill="#99A4B3"/>
<path d="M218.7 186V166.9L218.8 166.8L218.9 166.9V186L218.8 186.1L218.7 186Z" fill="#99A4B3"/>
<path d="M218.7 112.2V90.6L218.8 90.5L218.9 90.6V112.2L218.8 112.3L218.7 112.2Z" fill="#99A4B3"/>
<path d="M224.1 186V182.8L224.2 182.6L224.3 182.8V186L224.2 186.1L224.1 186Z" fill="#99A4B3"/>
<path d="M224.1 96.4V90.6L224.2 90.5L224.3 90.6V96.4L224.2 96.5L224.1 96.4Z" fill="#99A4B3"/>
<path d="M224.1 168.4V166.9L224.2 166.8L224.3 166.9V168.4L224.2 168.5L224.1 168.4Z" fill="#99A4B3"/>
<path d="M224.1 112.2V110.8L224.2 110.7L224.3 110.8V112.2L224.2 112.3L224.1 112.2Z" fill="#99A4B3"/>
<path d="M229.5 186V182.8L229.6 182.6L229.7 182.8V186L229.6 186.1L229.5 186Z" fill="#99A4B3"/>
<path d="M229.5 96.4V90.6L229.6 90.5L229.7 90.6V96.4L229.6 96.5L229.5 96.4Z" fill="#99A4B3"/>
<path d="M229.5 168.4V166.9L229.6 166.8L229.7 166.9V168.4L229.6 168.5L229.5 168.4Z" fill="#99A4B3"/>
<path d="M229.5 112.2V110.8L229.6 110.7L229.7 110.8V112.2L229.6 112.3L229.5 112.2Z" fill="#99A4B3"/>
<path d="M234.9 186V166.9L235 166.8L235.1 166.9V186L235 186.1L234.9 186Z" fill="#99A4B3"/>
<path d="M234.9 112.2V90.6L235 90.5L235.1 90.6V112.2L235 112.3L234.9 112.2Z" fill="#99A4B3"/>
<path d="M185 25.2H185.1V28.7L194 44V44.1L193.9 44.2L193.5 44.4H193.3L185.1 30.2V57.9H187.2V58L187.3 58.1V87.2H189.6V65.7V65.6H189.7H190.9H191V65.7V87.3V87.4H190.9H189.8V88.8H211.1V87.3L211.2 87.2H211.3H219.1V47.4V47.3L219.2 47.2H235.3V25.3H185V25.2H185.1H185V25.1H235.4H235.5V25.2V47.4L235.4 47.5H219.3V87.3V87.4H219.2H211.4V89L211.3 89.1H189.7H189.6V89V87.3V87.2H189.7H190.8V65.8H189.8V87.3V87.4H189.7H187.2H187.1L187 87.3V58.2H185H184.9V58.1V29.8L185 29.7H185.1L193.4 44.2L193.7 44L184.9 28.8V28.7V25.2V25.1H185V25.2Z" fill="#99A4B3"/>
<path d="M95 162.3V162.2H138V141.2H122H121.9V141.1V120.7H95.1V124.3H117.9V123.2H93.4V146H95L95.1 146.1V162.3H95V162.2V162.3H94.9V146.3H93.3L93.2 146.2V146.1V123.1V123H93.3H118H118.1V123.1V124.4V124.5H118H95H94.9V124.4V120.6V120.5H95H122H122.1V120.6V141H138.2H138.3V141.1V162.3V162.4L138.2 162.5H95L94.9 162.4V162.3H95Z" fill="#99A4B3"/>
<path d="M234.8 31.9H234.7L234.6 31.7L232.5 31.3H232.4C232.2 31.3 232.1 31.3 232 31.4C231.7 31.6 231.4 31.9 231.2 32.2L231.1 32.3C228.8 32.2 226.5 31.9 224.2 31.4C223.5 31.2 222.8 31.2 222 31.2C221 31.2 220.1 31.3 219.2 31.6C218.4 31.8 217.7 32.2 217 32.7C216.4 33.2 215.8 33.8 215.4 34.4C215.1 35 214.9 35.6 214.9 36.2C214.9 36.8 215.1 37.5 215.4 38C215.8 38.7 216.3 39.3 217 39.7C217.7 40.2 218.4 40.5 219.2 40.8C220.1 41.1 221.1 41.2 222 41.2C222.7 41.2 223.5 41.1 224.2 41C226.5 40.6 228.8 40.3 231.1 40.1L231.2 40.2C231.4 40.5 231.7 40.8 232 41C232.1 41.1 232.3 41.1 232.4 41.1H232.5L234.6 40.7L234.7 40.5V31.8H234.8H234.9V40.5C234.9 40.7 234.8 40.9 234.6 40.9L232.5 41.3H232.3C232.1 41.3 231.9 41.2 231.7 41.1C231.4 40.9 231.1 40.6 230.8 40.2L230.9 40.1V40.2C228.6 40.3 226.3 40.6 224.1 41.1C223.4 41.3 222.6 41.3 221.9 41.3C220.9 41.3 220 41.2 219 40.9C218.2 40.7 217.4 40.3 216.7 39.8C216 39.3 215.5 38.7 215.1 38C214.8 37.4 214.6 36.7 214.6 36.1C214.6 35.4 214.8 34.7 215.1 34.2C215.5 33.5 216.1 32.9 216.7 32.4C217.4 31.9 218.2 31.5 219 31.3C219.9 31 220.9 30.9 221.9 30.9C222.7 30.9 223.4 31 224.1 31.2C226.4 31.6 228.6 31.9 230.9 32.1V32.2L230.8 32.1C231 31.8 231.3 31.5 231.7 31.2C231.9 31.1 232.1 31 232.3 31H232.5L234.6 31.4C234.8 31.4 234.9 31.6 234.9 31.8H234.8V31.9Z" fill="#99A4B3"/>
<path d="M137.6 147.4H137.5L137.4 147.2L135.3 146.8H135.2C135 146.8 134.9 146.8 134.8 146.9C134.5 147.1 134.2 147.4 134 147.7L133.9 147.8C131.6 147.7 129.3 147.4 127 146.9C126.3 146.7 125.6 146.7 124.8 146.7C123.8 146.7 122.9 146.8 122 147.1C121.2 147.3 120.5 147.7 119.8 148.2C119.2 148.7 118.6 149.3 118.2 149.9C117.9 150.5 117.7 151.1 117.7 151.7C117.7 152.3 117.9 153 118.2 153.5C118.6 154.2 119.1 154.8 119.8 155.2C120.5 155.7 121.2 156 122 156.3C122.9 156.6 123.9 156.7 124.8 156.7C125.5 156.7 126.3 156.6 127 156.5C129.3 156.1 131.6 155.8 133.9 155.6L134 155.7C134.2 156 134.5 156.3 134.8 156.5C134.9 156.6 135.1 156.6 135.2 156.6H135.3L137.4 156.2L137.5 156V147.3H137.6H137.7V156C137.7 156.2 137.6 156.4 137.4 156.4L135.3 156.8H135.1C134.9 156.8 134.7 156.7 134.5 156.6C134.2 156.4 133.9 156.1 133.6 155.7L133.7 155.6V155.7C131.4 155.8 129.1 156.1 126.9 156.6C126.2 156.8 125.4 156.9 124.7 156.9C123.7 156.9 122.8 156.8 121.8 156.5C121 156.3 120.2 155.9 119.5 155.4C118.8 154.9 118.3 154.3 117.9 153.6C117.6 153 117.4 152.3 117.4 151.7C117.4 151 117.6 150.3 117.9 149.8C118.3 149.1 118.9 148.5 119.5 148C120.2 147.5 121 147.1 121.8 146.9C122.7 146.6 123.7 146.5 124.7 146.5C125.5 146.5 126.2 146.6 126.9 146.7C129.2 147.1 131.4 147.4 133.7 147.6V147.7L133.6 147.6C133.8 147.3 134.1 147 134.5 146.7C134.7 146.6 134.9 146.5 135.1 146.5H135.3L137.4 146.9C137.6 146.9 137.7 147.1 137.7 147.3H137.6V147.4Z" fill="#99A4B3"/>
<path d="M59.1 120.6V120.7H56.6H56.5V120.6V119H13.5V120.6V120.7H13.4H11V125.1H14.8V124L14.9 123.9H34.3L34.4 124V125.1H35.6V124H35.7L35.8 123.9H55.2L55.3 124V125.1H59V120.6H59.1V120.7V120.6H59.2V125.2V125.3H59.1H55.2H55.1V125.2V124.2H35.9V125.2L35.8 125.3H34.3H34.2V125.2V124.2H15V125.2V125.3H14.9H10.9H10.8L10.7 125.2V120.6L10.8 120.5H10.9H13.3V118.9V118.8H13.4H56.6H56.7V118.9V120.5H59.1H59.2V120.6H59.1Z" fill="#99A4B3"/>
<path d="M43.8 118.9V124L43.7 124.2L43.6 124V118.9L43.7 118.8L43.8 118.9Z" fill="#99A4B3"/>
<path d="M26.5 118.9V124L26.4 124.2L26.3 124V118.9L26.4 118.8L26.5 118.9Z" fill="#99A4B3"/>
<path d="M101.8 162.3V124.4L102 124.3L102.1 124.4V162.3L102 162.5L101.8 162.3Z" fill="#99A4B3"/>
<path d="M101.8 123.1V120.6L102 120.5L102.1 120.6V123.1L102 123.2L101.8 123.1Z" fill="#99A4B3"/>
<path d="M110.5 162.3V124.4L110.6 124.3L110.7 124.4V162.3L110.6 162.5L110.5 162.3Z" fill="#99A4B3"/>
<path d="M110.5 123.1V120.6L110.6 120.5L110.7 120.6V123.1L110.6 123.2L110.5 123.1Z" fill="#99A4B3"/>
<path d="M119.1 162.3V155.1L119.2 155L119.4 155.1V162.3L119.2 162.5L119.1 162.3Z" fill="#99A4B3"/>
<path d="M119.1 148.3V120.6L119.2 120.5L119.4 120.6V148.3L119.2 148.5L119.1 148.3Z" fill="#99A4B3"/>
<path d="M127.7 162.3V156.5L127.9 156.3L128 156.5V162.3L127.9 162.5L127.7 162.3Z" fill="#99A4B3"/>
<path d="M127.7 147V141.1L127.9 141L128 141.1V147L127.9 147.1L127.7 147Z" fill="#99A4B3"/>
<path d="M136.4 162.3V156.5L136.5 156.4L136.6 156.5V162.3L136.5 162.5L136.4 162.3Z" fill="#99A4B3"/>
<path d="M136.4 146.9V141.1L136.5 141L136.6 141.1V146.9L136.5 147.1L136.4 146.9Z" fill="#99A4B3"/>
<path d="M138.2 155.3H137.6L137.5 155.1L137.6 155H138.2L138.3 155.1L138.2 155.3Z" fill="#99A4B3"/>
<path d="M119.3 155.3H95L94.9 155.1L95 155H119.3L119.4 155.1L119.3 155.3Z" fill="#99A4B3"/>
<path d="M122 138H93.3L93.2 137.9L93.3 137.7H122L122.1 137.9L122 138Z" fill="#99A4B3"/>
<path d="M193.5 89V44.2L193.6 44.1L193.7 44.2V89L193.6 89.1L193.5 89Z" fill="#99A4B3"/>
<path d="M193.5 43.7V25.2L193.6 25.1L193.7 25.2V43.7L193.6 43.8L193.5 43.7Z" fill="#99A4B3"/>
<path d="M202.1 89V25.2L202.3 25.1L202.4 25.2V89L202.3 89.1L202.1 89Z" fill="#99A4B3"/>
<path d="M210.8 89V25.2L210.9 25.1L211 25.2V89L210.9 89.1L210.8 89Z" fill="#99A4B3"/>
<path d="M219.4 47.4V41.2L219.5 41L219.7 41.2V47.4L219.5 47.5L219.4 47.4Z" fill="#99A4B3"/>
<path d="M219.4 31.4V25.2L219.5 25.1L219.7 25.2V31.4L219.5 31.5L219.4 31.4Z" fill="#99A4B3"/>
<path d="M228.1 47.4V40.6L228.2 40.5L228.3 40.6V47.4L228.2 47.5L228.1 47.4Z" fill="#99A4B3"/>
<path d="M228.1 32V25.2L228.2 25.1L228.3 25.2V32L228.2 32.1L228.1 32Z" fill="#99A4B3"/>
<path d="M219.2 71.8H190.9L190.8 71.7L190.9 71.6H219.2L219.3 71.7L219.2 71.8Z" fill="#99A4B3"/>
<path d="M189.7 71.8H187.2L187 71.7L187.2 71.6H189.7L189.8 71.7L189.7 71.8Z" fill="#99A4B3"/>
<path d="M219.2 54.5H185L184.9 54.4L185 54.3H219.2L219.3 54.4L219.2 54.5Z" fill="#99A4B3"/>
<path d="M235.4 37.3H234.8L234.7 37.1L234.8 37H235.4L235.5 37.1L235.4 37.3Z" fill="#99A4B3"/>
<path d="M189.2 37.3H185L184.9 37.1L185 37H189.2L189.4 37.1L189.2 37.3Z" fill="#99A4B3"/>
<path d="M214.8 37.3H189.9L189.8 37.1L189.9 37H214.8L214.9 37.1L214.8 37.3Z" fill="#99A4B3"/>
<path fill-rule="evenodd" clip-rule="evenodd" d="M214.3 25.2H140.3V58.1H187.2V87.3H189.7V90.6H181.5V87.3H183.8V61.4H124.9V87.3H127.2V90.6H124.9V93.2H121.5V61.4H41.8V57.3H42.5V54.1H132V16.9H214.3V25.2Z" fill="#22576F"/>
<path fill-rule="evenodd" clip-rule="evenodd" d="M234.2 16.9H237.6V5.29999H249.1V58.5H243.3V231.6H249.1V264H237.6V193.3H234.3V190H233.6V186H235.4V90.6H211.3V87.3H235.4V25.2H234.2V16.9Z" fill="#22576F"/>
<path fill-rule="evenodd" clip-rule="evenodd" d="M4.40002 264H15.9V231.6H16.6V227.6H10.9V150.1H64.1V120.6H66.6V117.3H56.6V120.6H59.1V146.8H10.9V120.6H13.4V117.3H10.9V61.4H19.9V57.3H19.1V54.1H15.9V5.29999H4.40002V264Z" fill="#22576F"/>
<path fill-rule="evenodd" clip-rule="evenodd" d="M91.5 234.8V231.6H90.9V227.6H91.7V213.6H95V227.6H113.1V222H135.9V190.4H95V192H91.7V146.1H95V185.4H138.2V120.6H95V123.1H91.7V120.6H88.2V117.3H121.5V114.7H124.9V117.3H143.2V234.8H91.5Z" fill="#22576F"/>
<path d="M156.8 87.3H151.8V90.6H156.8V87.3Z" fill="#22576F"/>
<path d="M170.7 186.1H143.2L143.1 186L143.2 185.9H170.7L170.9 186L170.7 186.1Z" fill="#22576F"/>
<path d="M170.7 193.4H143.2L143.1 193.3L143.2 193.2H170.7L170.9 193.3L170.7 193.4Z" fill="#22576F"/>
<path d="M93 85.3H36.2V86.1H93.3L93.5 86.2L93.3 86.4H36.1L36 86.3L35.9 86.2V85.1H36L36.1 85H93L93.1 85.1L93 85.3Z" fill="#22576F"/>
<path d="M234.2 25.3H214.3L214.2 25.2L214.3 25.1H234.2L234.3 25.2L234.2 25.3Z" fill="#22576F"/>
<path d="M234.2 22.1H214.3L214.2 22L214.3 21.8H234.2L234.3 22L234.2 22.1Z" fill="#22576F"/>
<path d="M128.6 222V219.8L128.7 219.7L128.8 219.8V222L128.7 222.1L128.6 222Z" fill="#22576F"/>
<path d="M128.6 198.8V194.6L128.7 194.5L128.8 194.6V198.8L128.7 198.9L128.6 198.8ZM128.6 205.1V200.9L128.7 200.8L128.8 200.9V205.1L128.7 205.2L128.6 205.1ZM128.6 211.4V207.2L128.7 207.1L128.8 207.2V211.4L128.7 211.5L128.6 211.4ZM128.6 217.7V213.5L128.7 213.4L128.8 213.5V217.7L128.7 217.8L128.6 217.7Z" fill="#22576F"/>
<path d="M128.6 192.5V190.4L128.7 190.3L128.8 190.4V192.5L128.7 192.7L128.6 192.5Z" fill="#22576F"/>
<path d="M172.3 68.7H170.2L170 68.6L170.2 68.5H172.3L172.4 68.6L172.3 68.7Z" fill="#22576F"/>
<path d="M133.8 68.7H129.3L129.2 68.6L129.3 68.5H133.8L133.9 68.6L133.8 68.7ZM140.6 68.7H136.1L136 68.6L136.1 68.5H140.6L140.7 68.6L140.6 68.7ZM147.4 68.7H142.9L142.8 68.6L142.9 68.5H147.4L147.5 68.6L147.4 68.7ZM154.3 68.7H149.8L149.7 68.6L149.8 68.5H154.3L154.4 68.6L154.3 68.7ZM161.1 68.7H156.6L156.5 68.6L156.6 68.5H161.1L161.2 68.6L161.1 68.7ZM167.9 68.7H163.4L163.3 68.6L163.4 68.5H167.9L168 68.6L167.9 68.7Z" fill="#22576F"/>
<path d="M127 68.7H124.9L124.7 68.6L124.9 68.5H127L127.1 68.6L127 68.7Z" fill="#22576F"/>
<path d="M42.5 57.5H19.1L19 57.3L19.1 57.2H42.5L42.7 57.3L42.5 57.5Z" fill="#22576F"/>
<path d="M42.5 54.2H19.1L19 54.1L19.1 54H42.5L42.7 54.1L42.5 54.2Z" fill="#22576F"/>
<path d="M15.9 231.5H91.5L91.6 231.6L91.5 231.7H15.9L15.8 231.6L15.9 231.5Z" fill="#22576F"/>
<path d="M15.9 234.7H91.5L91.6 234.8L91.5 235H15.9L15.8 234.8L15.9 234.7Z" fill="#22576F"/>
<path d="M170.7 189.9H234.3L234.5 190L234.3 190.2H170.7L170.6 190L170.7 189.9Z" fill="#22576F"/>
<path d="M170.7 193.2H234.3L234.5 193.3L234.3 193.4H170.7L170.6 193.3L170.7 193.2Z" fill="#22576F"/>
<path d="M140.8 237V236.9H142.9H143L143.1 237V244.3H235.4H235.5V244.4V246.6V246.7H235.4H140.8H140.7V246.6V237V236.9H140.8V237H140.9V246.5H235.3V244.6H142.9L142.8 244.5V244.4V237.1H140.8V237H140.9H140.8Z" fill="#22576F"/>
<path d="M144.6 193.3V193.4H143.2H143.1V193.3V190L143.2 189.9H144.6L144.7 190H144.8V193.3L144.7 193.4H144.6V193.3H144.5V190.2H143.3V193.2H144.6V193.3H144.5H144.6Z" fill="#22576F"/>
<path d="M170.9 186V190L170.7 190.2L170.6 190V186L170.7 185.9L170.9 186Z" fill="#22576F"/>
<path d="M169.3 90.6C169.3 92.7 169.9 94.8 170.9 96.7V96.9H170.7C169.6 95 169 92.9 169 90.7L169.1 90.6H169.3Z" fill="#22576F"/>
<path d="M167.4 96.7C168.5 94.8 169 92.7 169 90.6L169.1 90.5L169.2 90.6C169.2 92.8 168.6 94.9 167.5 96.8H167.3L167.4 96.7Z" fill="#22576F"/>
<path d="M181.5 90.6L181.6 90.7L170.9 96.9H170.8H170.7L170.1 95.8V95.6L180.8 89.4H180.9L181 89.5L181.6 90.6V90.7L181.5 90.6L181.4 90.7L180.8 89.7L170.4 95.8L170.9 96.6L181.4 90.5L181.5 90.6L181.4 90.7L181.5 90.6Z" fill="#22576F"/>
<path d="M156.8 90.6L156.9 90.5L167.5 96.6L168 95.8L157.5 89.7L156.9 90.7L156.8 90.6L156.9 90.5L156.8 90.6H156.7L157.4 89.5V89.4H157.5L168.2 95.6L168.3 95.8L167.6 96.9H167.5L156.8 90.7L156.7 90.6H156.8Z" fill="#22576F"/>
<path d="M95 123.1V123H118H118.1V123.1V124.4V124.5H118H95H94.9V124.4V123.1V123H95V123.1H95.1V124.2H117.9V123.2H95V123.1H95.1H95Z" fill="#22576F"/>
<path d="M95 146C101.3 146 107.1 143.4 111.2 139.3C115.3 135.2 117.9 129.4 117.9 123.1L118 123L118.1 123.1C118.1 135.9 107.7 146.3 94.9 146.3L94.8 146.2L95 146Z" fill="#22576F"/>
<path d="M95 192V191.9H116.6H116.7V192V193.3V193.4H116.6H95H94.9V193.3V192V191.9H95V192H95.1V193.2H116.5V192.2H95V192H95.1H95Z" fill="#22576F"/>
<path d="M95 213.5C100.9 213.5 106.3 211.1 110.2 207.2C114.1 203.3 116.5 197.9 116.5 192L116.6 191.9L116.7 192C116.7 204 107 213.7 95 213.7L94.9 213.6L95 213.5Z" fill="#22576F"/>
<path d="M189.7 65.7V65.6H190.9H191L191.1 65.7V87.3L191 87.4H190.9H189.7H189.6L189.5 87.3V65.7L189.6 65.6H189.7V65.7H189.8V87.2H190.8V65.8H189.7V65.7H189.8H189.7Z" fill="#22576F"/>
<path d="M211.1 87.3C211.1 81.4 208.7 76 204.8 72.1C200.9 68.2 195.5 65.8 189.6 65.8L189.5 65.7L189.6 65.6C201.6 65.6 211.3 75.3 211.3 87.3L211.2 87.4L211.1 87.3Z" fill="#22576F"/>
<path d="M10.9 138H13L13.1 138.1L13 138.3H10.9L10.7 138.1L10.9 138Z" fill="#22576F"/>
<path d="M51 138H55L55.1 138.1L55 138.2H51L50.9 138.1L51 138ZM45 138H49L49.1 138.1L49 138.2H45L44.9 138.1L45 138ZM39 138H43L43.1 138.1L43 138.2H39L38.9 138.1L39 138ZM33 138H37L37.1 138.1L37 138.2H33L32.9 138.1L33 138ZM27 138H31L31.1 138.1L31 138.2H27L26.9 138.1L27 138ZM21 138H25L25.1 138.1L25 138.2H21L20.9 138.1L21 138ZM15 138H19L19.1 138.1L19 138.2H15L14.9 138.1L15 138Z" fill="#22576F"/>
<path d="M56.9 138H59.1L59.2 138.1L59.1 138.3H56.9L56.8 138.1L56.9 138Z" fill="#22576F"/>
<path d="M234.2 17.1H214.3L214.2 16.9L214.3 16.8H234.2L234.3 16.9L234.2 17.1Z" fill="#22576F"/>
<path d="M39.5 87.3V86.2L39.7 86.1L39.8 86.2V87.3L39.7 87.4L39.5 87.3Z" fill="#22576F"/>
<path d="M39.5 85.1V61.4L39.7 61.3L39.8 61.4V85.1L39.7 85.3L39.5 85.1Z" fill="#22576F"/>
<path d="M89.9 87.3V86.2L90 86.1L90.2 86.2V87.3L90 87.4L89.9 87.3Z" fill="#22576F"/>
<path d="M89.9 85.1V75.6L90 75.5L90.2 75.6V85.1L90 85.3L89.9 85.1Z" fill="#22576F"/>
<path d="M89.9 74.3V72.9L90 72.8L90.2 72.9V74.3L90 74.4L89.9 74.3Z" fill="#22576F"/>
<path d="M86.8 61.3L89.8 72.7L92.3 73.4L92.4 73.6L92.3 73.7L88.4 75L90.5 75.6L90.6 75.7L93.7 87.3V87.4L93.5 87.3L90.4 75.8L87.9 75.1L87.8 75L87.9 74.9L91.9 73.6L89.7 73L89.6 72.9L86.5 61.4L86.6 61.2L86.8 61.3Z" fill="#22576F"/>
<path d="M46.7 87.3V86.2L46.9 86.1L47 86.2V87.3L46.9 87.4L46.7 87.3Z" fill="#22576F"/>
<path d="M46.7 85.1V61.4L46.9 61.3L47 61.4V85.1L46.9 85.3L46.7 85.1Z" fill="#22576F"/>
<path d="M53.9 87.3V86.2L54.1 86.1L54.2 86.2V87.3L54.1 87.4L53.9 87.3Z" fill="#22576F"/>
<path d="M53.9 85.1V61.4L54.1 61.3L54.2 61.4V85.1L54.1 85.3L53.9 85.1Z" fill="#22576F"/>
<path d="M61.1 87.3V86.2L61.2 86.1L61.4 86.2V87.3L61.2 87.4L61.1 87.3Z" fill="#22576F"/>
<path d="M61.1 85.1V61.4L61.2 61.3L61.4 61.4V85.1L61.2 85.3L61.1 85.1Z" fill="#22576F"/>
<path d="M68.3 87.3V86.2L68.4 86.1L68.6 86.2V87.3L68.4 87.4L68.3 87.3Z" fill="#22576F"/>
<path d="M68.3 85.1V61.4L68.4 61.3L68.6 61.4V85.1L68.4 85.3L68.3 85.1Z" fill="#22576F"/>
<path d="M75.5 87.3V86.2L75.6 86.1L75.8 86.2V87.3L75.6 87.4L75.5 87.3Z" fill="#22576F"/>
<path d="M75.5 85.1V61.4L75.6 61.3L75.8 61.4V85.1L75.6 85.3L75.5 85.1Z" fill="#22576F"/>
<path d="M82.7 87.3V86.2L82.8 86.1L83 86.2V87.3L82.8 87.4L82.7 87.3Z" fill="#22576F"/>
<path d="M82.7 85.1V61.4L82.8 61.3L83 61.4V85.1L82.8 85.3L82.7 85.1Z" fill="#22576F"/>
<path d="M234.2 25.2V25.3H232.8H232.7L232.6 25.2V22L232.7 21.9L232.8 21.8H234.2L234.3 21.9V22V25.2V25.3H234.2V25.2H234.1V22.1H232.9V25.1H234.2V25.2H234.1H234.2Z" fill="#22576F"/>
<path d="M215.7 25.2V25.3H214.3H214.2V25.2V22V21.9L214.3 21.8H215.7L215.8 21.9V22V25.2V25.3H215.7V25.2H215.6V22.1H214.4V25.1H215.7V25.2H215.6H215.7Z" fill="#22576F"/>
<path d="M232.8 22.8H215.7L215.6 22.7L215.7 22.6H232.8L232.9 22.7L232.8 22.8Z" fill="#22576F"/>
<path d="M232.8 23.5H215.7L215.6 23.4L215.7 23.3H232.8L232.9 23.4L232.8 23.5Z" fill="#22576F"/>
<path d="M137.7 96.7C138.8 94.8 139.3 92.7 139.3 90.6L139.4 90.5L139.5 90.6C139.5 92.8 138.9 94.9 137.8 96.8H137.6L137.7 96.7Z" fill="#22576F"/>
<path d="M139.6 90.6C139.6 92.7 140.2 94.8 141.2 96.7V96.9H141C139.9 95 139.3 92.9 139.3 90.7L139.4 90.6H139.6Z" fill="#22576F"/>
<path d="M127.2 90.6V90.5L137.8 96.6L138.3 95.8L127.8 89.7L127.3 90.7L127.2 90.6V90.5V90.6H127.1L127.7 89.5L127.8 89.4H127.9L138.5 95.6L138.6 95.7V95.8L138 96.9H137.9H137.8L127.1 90.7V90.6H127.2Z" fill="#22576F"/>
<path d="M151.8 90.6L151.9 90.7L141.2 96.9H141.1L140.4 95.8L140.5 95.6L151.2 89.4L151.3 89.5L152 90.6V90.7H151.9L151.8 90.6L151.7 90.7L151.2 89.7L140.7 95.8L141.2 96.6L151.8 90.5V90.6L151.7 90.7L151.8 90.6Z" fill="#22576F"/>
<path d="M124.9 114.7V114.6H146.3V113.6H125V114.7H124.9V114.6V114.7H124.7V113.5L124.8 113.4H124.9H146.4H146.5L146.6 113.5V114.7L146.5 114.8L146.4 114.9H124.9L124.8 114.8L124.7 114.7H124.9Z" fill="#22576F"/>
<path d="M146.3 114.7C146.3 108.8 143.9 103.4 140 99.5C136.1 95.6 130.7 93.2 124.8 93.2L124.7 93.1L124.8 93C136.8 93 146.5 102.7 146.5 114.7L146.4 114.8L146.3 114.7Z" fill="#22576F"/>
<path d="M66.6 142.2V142.1H67.8V120.7H66.8V142.2H66.6V142.1V142.2H66.5V120.6L66.6 120.5H67.9H68V120.6V142.2V142.3H67.9H66.6L66.5 142.2H66.6Z" fill="#22576F"/>
<path d="M66.6 142.1C72.5 142.1 77.9 139.7 81.8 135.8C85.7 131.9 88.1 126.5 88.1 120.6L88.2 120.5L88.3 120.6C88.3 132.6 78.6 142.3 66.6 142.3L66.5 142.2L66.6 142.1Z" fill="#22576F"/>
<path d="M56.6 95.7V95.8H55.4V117.1H56.4V95.7H56.6V95.8V95.7H56.7V117.3V117.4H56.6H55.3H55.2V117.3V95.7V95.6L55.3 95.5H56.6L56.7 95.6V95.7H56.6Z" fill="#22576F"/>
<path d="M14.6 95.7V95.8H13.5V117.1H14.5V95.7H14.6V95.8V95.7H14.8V117.3L14.7 117.4H14.6H13.4H13.3V117.3V95.7V95.6L13.4 95.5H14.6L14.7 95.6L14.8 95.7H14.6Z" fill="#22576F"/>
<path d="M56.6 95.8C50.7 95.8 45.3 98.2 41.4 102.1C37.5 106 35.1 111.4 35.1 117.3L35 117.4L34.9 117.3C34.9 105.3 44.6 95.6 56.6 95.6L56.7 95.7L56.6 95.8Z" fill="#22576F"/>
<path d="M34.9 117.3C34.9 111.4 32.5 106 28.6 102.1C24.7 98.2 19.3 95.8 13.4 95.8L13.3 95.7L13.4 95.6C25.4 95.6 35.1 105.3 35.1 117.3L35 117.4L34.9 117.3Z" fill="#22576F"/>
<path d="M42.5 57.3V57.5H41.1L41 57.4V57.3V54.1V54H41.1H42.5H42.6L42.7 54.1V57.3L42.6 57.4L42.5 57.5V57.3H42.4V54.2H41.2V57.2H42.5V57.3H42.4H42.5Z" fill="#22576F"/>
<path d="M20.6 57.3V57.5H19.1V57.4L19 57.3V54.1L19.1 54H20.6H20.7V54.1V57.3V57.4L20.6 57.5V57.3H20.5V54.2H19.3V57.2H20.6V57.3H20.5H20.6Z" fill="#22576F"/>
<path d="M41.1 55H20.6L20.5 54.8L20.6 54.7H41.1L41.2 54.8L41.1 55Z" fill="#22576F"/>
<path d="M41.1 55.7H20.6L20.5 55.5L20.6 55.4H41.1L41.2 55.5L41.1 55.7Z" fill="#22576F"/>
<path d="M41.8 61.5H19.9L19.7 61.4L19.9 61.3H41.8L41.9 61.4L41.8 61.5Z" fill="#22576F"/>
<path d="M15.9 231.6V231.5H17.3H17.4L17.5 231.6V234.8L17.4 234.9L17.3 235H15.9L15.8 234.9V234.8V231.6V231.5H15.9V231.6H16V234.7H17.2V231.7H15.9V231.6H16H15.9Z" fill="#22576F"/>
<path d="M90 231.6V231.5H91.5H91.6V231.6V234.8V234.9L91.5 235H90L89.9 234.9V234.8V231.6V231.5H90V231.6H90.2V234.7H91.4V231.7H90V231.6H90.2H90Z" fill="#22576F"/>
<path d="M32.5 231.6V231.5H33.9H34V231.6V234.8V234.9L33.9 235H32.5L32.4 234.9L32.3 234.8V231.6L32.4 231.5H32.5V231.6H32.6V234.7H33.8V231.7H32.5V231.6H32.6H32.5Z" fill="#22576F"/>
<path d="M17.3 234H32.5L32.6 234.1L32.5 234.3H17.3L17.2 234.1L17.3 234Z" fill="#22576F"/>
<path d="M17.3 233.3H32.5L32.6 233.4L32.5 233.5H17.3L17.2 233.4L17.3 233.3Z" fill="#22576F"/>
<path d="M73.5 231.6V231.5H74.9H75V231.6V234.8V234.9L74.9 235H73.5L73.4 234.9V234.8V231.6V231.5H73.5V231.6H73.6V234.7H74.8V231.7H73.5V231.6H73.6H73.5Z" fill="#22576F"/>
<path d="M33.9 234H73.5L73.6 234.1L73.5 234.3H33.9L33.8 234.1L33.9 234Z" fill="#22576F"/>
<path d="M33.9 233.3H73.5L73.6 233.4L73.5 233.5H33.9L33.8 233.4L33.9 233.3Z" fill="#22576F"/>
<path d="M74.9 234H90L90.2 234.1L90 234.3H74.9L74.8 234.1L74.9 234Z" fill="#22576F"/>
<path d="M74.9 233.3H90L90.2 233.4L90 233.5H74.9L74.8 233.4L74.9 233.3Z" fill="#22576F"/>
<path d="M16.6 227.4H90.8L90.9 227.6L90.8 227.7H16.6L16.5 227.6L16.6 227.4Z" fill="#22576F"/>
<path d="M170.7 190V189.9H172.2L172.3 190V193.3V193.4H172.2H170.7H170.6V193.3V190L170.7 189.9V190H170.9V193.2H172V190.2H170.7V190H170.9H170.7Z" fill="#22576F"/>
<path d="M232.9 190V189.9H234.3L234.4 190H234.5V193.3L234.4 193.4H234.3H232.9H232.8V193.3V190L232.9 189.9V190H233V193.2H234.2V190.2H232.9V190H233H232.9Z" fill="#22576F"/>
<path d="M189.4 190V189.9H190.9L191 190V193.3V193.4H190.9H189.4L189.3 193.3V190H189.4V189.9V190H189.6V193.2H190.8V190.2H189.4V190H189.6H189.4Z" fill="#22576F"/>
<path d="M172.2 192.4H189.4L189.6 192.6L189.4 192.7H172.2L172.1 192.6L172.2 192.4Z" fill="#22576F"/>
<path d="M172.2 191.7H189.4L189.6 191.8L189.4 192H172.2L172.1 191.8L172.2 191.7Z" fill="#22576F"/>
<path d="M211 190V189.9H212.5L212.6 190V193.3V193.4H212.5H211L210.9 193.3V190H211V189.9V190H211.2V193.2H212.4V190.2H211V190H211.2H211Z" fill="#22576F"/>
<path d="M190.9 192.4H211L211.2 192.6L211 192.7H190.9L190.8 192.6L190.9 192.4Z" fill="#22576F"/>
<path d="M190.9 191.7H211L211.2 191.8L211 192H190.9L190.8 191.8L190.9 191.7Z" fill="#22576F"/>
<path d="M212.5 192.4H232.9L233 192.6L232.9 192.7H212.5L212.4 192.6L212.5 192.4Z" fill="#22576F"/>
<path d="M212.5 191.7H232.9L233 191.8L232.9 192H212.5L212.4 191.8L212.5 191.7Z" fill="#22576F"/>
<path d="M170.7 185.9H233.6L233.7 186L233.6 186.1H170.7L170.6 186L170.7 185.9Z" fill="#22576F"/>
<path d="M144.6 219.4V219.2H145.8V193.4H144.8V219.4H144.6V219.2V219.4H144.5V193.3L144.6 193.2H145.9H146V193.3V219.4V219.5H145.9H144.6L144.5 219.4H144.6Z" fill="#22576F"/>
<path d="M144.6 219.3C151.8 219.3 158.3 216.4 163 211.7C167.7 207 170.6 200.5 170.6 193.3L170.7 193.2L170.8 193.3C170.8 207.8 159.1 219.5 144.6 219.5L144.5 219.4L144.6 219.3Z" fill="#22576F"/>
<path d="M12.2 210.4V167.2L12.3 167.1L12.4 167.2V210.4L12.3 210.5L12.2 210.4Z" fill="#22576F"/>
<path d="M10.9 167.2V167.1H69.9L70 167.2V210.4V210.5H69.9H10.9H10.8L10.7 210.4V167.2H10.8L10.9 167.1V167.2H11V210.3H69.8V167.4H10.9V167.2H11H10.9Z" fill="#22576F"/>
<path d="M27.7 187V187.1C26.1 186.6 24.4 186.4 22.7 186.4C21 186.4 19.3 186.6 17.7 187.1H17.6V187C18 184 18.1 181 18.1 178C18.1 175 17.9 172 17.6 169V168.9H17.7C19.3 169.4 21 169.6 22.7 169.6C24.4 169.6 26.1 169.4 27.7 168.9H27.8V169C27.4 172 27.3 175 27.3 178C27.3 181 27.5 184 27.8 187H27.7H27.6C27.2 184 27.1 181 27.1 178C27.1 175 27.3 172 27.6 169H27.7V169.1C26 169.6 24.3 169.8 22.6 169.8C20.9 169.8 19.2 169.6 17.5 169.1V169H17.6C18 172 18.1 175 18.1 178C18.1 181 17.9 184 17.6 187H17.5V186.9C19.2 186.4 20.9 186.2 22.6 186.2C24.3 186.2 26 186.4 27.7 186.9V187Z" fill="#22576F"/>
<path d="M24.5 188.2C22.6 187.7 20.7 187.5 18.8 187.5C16.9 187.5 15 187.7 13.1 188.2H13V188.1C13.5 184.8 13.7 181.4 13.7 178C13.7 174.6 13.5 171.3 13 167.9V167.8H13.1C15 168.3 16.9 168.5 18.8 168.5C20.7 168.5 22.6 168.3 24.5 167.8H24.6V167.9C24.5 168.5 24.4 169 24.4 169.6L24.3 169.7L24.2 169.6C24.3 169 24.3 168.4 24.4 167.9H24.5V168C22.6 168.5 20.7 168.7 18.7 168.7C16.8 168.7 14.8 168.5 12.9 168V167.9H13C13.5 171.2 13.7 174.6 13.7 178C13.7 181.4 13.5 184.7 13 188.1H12.9V188C14.8 187.5 16.7 187.3 18.7 187.3C20.7 187.3 22.6 187.5 24.5 188L24.6 188.2H24.5Z" fill="#22576F"/>
<path d="M27.7 190.6V190.7C26 191.2 24.3 191.4 22.6 191.4C20.9 191.4 19.2 191.2 17.5 190.7V190.6H17.6C18 193.6 18.1 196.6 18.1 199.6C18.1 202.6 17.9 205.6 17.6 208.6H17.5V208.5C19.2 208 20.9 207.8 22.6 207.8C24.3 207.8 26 208 27.7 208.5V208.6H27.6C27.2 205.6 27.1 202.6 27.1 199.6C27.1 196.6 27.3 193.6 27.6 190.6H27.7H27.8C27.4 193.6 27.3 196.6 27.3 199.6C27.3 202.6 27.5 205.6 27.8 208.6V208.7H27.7C26.1 208.2 24.4 208 22.7 208C21 208 19.3 208.2 17.7 208.7H17.6V208.6C18 205.6 18.1 202.6 18.1 199.6C18.1 196.6 17.9 193.6 17.6 190.6V190.5H17.7C19.3 191 21 191.2 22.7 191.2C24.4 191.2 26.1 191 27.7 190.5V190.6Z" fill="#22576F"/>
<path d="M24.6 189.7C22.7 190.2 20.8 190.4 18.8 190.4C16.9 190.4 14.9 190.2 13 189.7V189.6H13.1C13.6 192.9 13.8 196.3 13.8 199.7C13.8 203.1 13.6 206.4 13.1 209.8H13V209.7C14.9 209.2 16.8 209 18.8 209C20.7 209 22.7 209.2 24.6 209.7V209.8H24.5C24.4 209.2 24.3 208.7 24.3 208.1L24.4 208L24.5 208.1C24.6 208.7 24.6 209.2 24.7 209.8V209.9H24.6C22.7 209.4 20.8 209.2 18.9 209.2C17 209.2 15.1 209.4 13.2 209.9H13.1V209.8C13.6 206.5 13.8 203.1 13.8 199.7C13.8 196.3 13.6 193 13.1 189.6V189.5H13.2C15.1 190 17 190.2 18.9 190.2C20.8 190.2 22.7 190 24.6 189.5L24.8 189.6L24.6 189.7Z" fill="#22576F"/>
<path d="M19.6 167.2V168.7L19.5 168.8L19.4 168.7V167.2L19.5 167.1L19.6 167.2Z" fill="#22576F"/>
<path d="M29 167.2V210.4L28.9 210.5L28.7 210.4V167.2L28.9 167.1L29 167.2Z" fill="#22576F"/>
<path d="M19.6 187.4V190.3L19.5 190.4L19.4 190.3V187.4L19.5 187.3L19.6 187.4Z" fill="#22576F"/>
<path d="M19.6 209V210.4L19.5 210.5L19.4 210.4V209L19.5 208.9L19.6 209Z" fill="#22576F"/>
<path d="M24.4 186.4C24.5 187 24.5 187.5 24.6 188.1L24.5 188.2L24.4 188.1C24.3 187.5 24.2 187 24.2 186.4L24.3 186.3L24.4 186.4Z" fill="#22576F"/>
<path d="M24.7 189.6C24.6 190.2 24.5 190.7 24.5 191.3L24.4 191.4L24.3 191.3C24.4 190.7 24.4 190.1 24.5 189.6L24.6 189.5L24.7 189.6Z" fill="#22576F"/>
<path d="M23.8 211.9V212H12.4V226.1H23.7V211.9H23.8V212V211.9H23.9V226.3L23.8 226.4H12.3L12.2 226.3V211.9V211.8L12.3 211.7H23.8L23.9 211.8V211.9H23.8Z" fill="#22576F"/>
<path d="M23.8 165.8V165.9H12.3H12.2V165.8V151.4V151.3H12.3H23.8H23.9V151.4V165.8V165.9H23.8V165.8H23.7V151.5H12.4V165.7H23.8V165.8H23.7H23.8Z" fill="#22576F"/>
<path d="M13.8 219.1H13.7C13.7 216.7 15.7 214.7 18.1 214.7C20.5 214.7 22.5 216.7 22.5 219.1C22.5 221.5 20.5 223.5 18.1 223.5C15.7 223.5 13.7 221.5 13.7 219.1H13.8H13.9C13.9 220.2 14.4 221.3 15.1 222C15.9 222.8 16.9 223.2 18 223.2C19.1 223.2 20.2 222.7 20.9 222C21.7 221.2 22.1 220.2 22.1 219.1C22.1 218 21.6 216.9 20.9 216.2C20.1 215.4 19.1 215 18 215C16.9 215 15.8 215.5 15.1 216.2C14.3 217 13.9 218 13.9 219.1H13.8Z" fill="#22576F"/>
<path d="M17 219.1H16.9C16.9 218.4 17.4 217.9 18.1 217.9C18.8 217.9 19.3 218.4 19.3 219.1C19.3 219.8 18.8 220.3 18.1 220.3C17.4 220.3 16.9 219.8 16.9 219.1H17H17.1C17.1 219.6 17.5 220.1 18.1 220.1C18.6 220.1 19.1 219.7 19.1 219.1C19.1 218.6 18.7 218.1 18.1 218.1C17.6 218.1 17.1 218.5 17.1 219.1H17Z" fill="#22576F"/>
<path d="M22.3 219.2H19.2L19 219.1L19.2 218.9H22.3L22.5 219.1L22.3 219.2Z" fill="#22576F"/>
<path d="M17 219.2H13.8L13.7 219.1L13.8 218.9H17L17.1 219.1L17 219.2Z" fill="#22576F"/>
<path d="M17.9 223.3V220.2L18.1 220L18.2 220.2V223.3L18.1 223.5L17.9 223.3Z" fill="#22576F"/>
<path d="M17.9 218V214.8L18.1 214.7L18.2 214.8V218L18.1 218.1L17.9 218Z" fill="#22576F"/>
<path d="M13.8 158.6H13.7C13.7 156.2 15.7 154.2 18.1 154.2C20.5 154.2 22.5 156.2 22.5 158.6C22.5 161 20.5 163 18.1 163C15.7 163 13.7 161 13.7 158.6H13.8H13.9C13.9 159.7 14.4 160.8 15.1 161.5C15.9 162.3 16.9 162.7 18 162.7C19.1 162.7 20.2 162.2 20.9 161.5C21.7 160.7 22.1 159.7 22.1 158.6C22.1 157.5 21.6 156.4 20.9 155.7C20.1 154.9 19.1 154.5 18 154.5C16.9 154.5 15.8 155 15.1 155.7C14.3 156.5 13.9 157.5 13.9 158.6H13.8Z" fill="#22576F"/>
<path d="M17 158.6H16.9C16.9 157.9 17.4 157.4 18.1 157.4C18.8 157.4 19.3 157.9 19.3 158.6C19.3 159.3 18.8 159.8 18.1 159.8C17.4 159.8 16.9 159.3 16.9 158.6H17H17.1C17.1 159.1 17.5 159.6 18.1 159.6C18.6 159.6 19.1 159.2 19.1 158.6C19.1 158.1 18.7 157.6 18.1 157.6C17.6 157.6 17.1 158 17.1 158.6H17Z" fill="#22576F"/>
<path d="M22.3 158.7H19.2L19 158.6L19.2 158.5H22.3L22.5 158.6L22.3 158.7Z" fill="#22576F"/>
<path d="M17 158.7H13.8L13.7 158.6L13.8 158.5H17L17.1 158.6L17 158.7Z" fill="#22576F"/>
<path d="M17.9 162.9V159.7L18.1 159.6L18.2 159.7V162.9L18.1 163L17.9 162.9Z" fill="#22576F"/>
<path d="M17.9 157.5V154.3L18.1 154.2L18.2 154.3V157.5L18.1 157.6L17.9 157.5Z" fill="#22576F"/>
<path d="M234.1 112.2V166.9L234 167.1L233.9 166.9V112.2L234 112.1L234.1 112.2Z" fill="#22576F"/>
<path d="M235.4 166.9V167H176.4H176.3V166.9V112.2V112.1H176.4H235.4H235.5V112.2V166.9V167H235.4V166.9H235.3V112.4H176.5V166.8H235.4V166.9H235.3H235.4Z" fill="#22576F"/>
<path d="M218.6 141.4V141.3C220.2 141.8 221.9 142 223.6 142C225.3 142 227 141.8 228.6 141.3H228.7V141.4C228.3 145.2 228.2 149.1 228.2 152.9C228.2 156.7 228.4 160.6 228.7 164.4V164.5H228.6C227 164 225.3 163.8 223.6 163.8C221.9 163.8 220.2 164 218.6 164.5H218.5V164.4C218.9 160.6 219 156.7 219 152.9C219 149.1 218.8 145.2 218.5 141.4H218.6H218.7C219.1 145.2 219.2 149.1 219.2 152.9C219.2 156.7 219 160.6 218.7 164.4H218.6V164.3C220.3 163.8 222 163.6 223.7 163.6C225.4 163.6 227.1 163.8 228.8 164.3V164.4H228.7C228.3 160.6 228.2 156.7 228.2 152.9C228.2 149.1 228.4 145.2 228.7 141.4H228.8V141.5C227.1 142 225.4 142.2 223.7 142.2C222 142.2 220.3 142 218.6 141.5V141.4Z" fill="#22576F"/>
<path d="M221.8 140.2C223.7 140.7 225.6 140.9 227.5 140.9C229.4 140.9 231.3 140.7 233.2 140.2H233.3V140.3C232.8 144.5 232.6 148.7 232.6 152.9C232.6 157.1 232.8 161.3 233.3 165.5V165.6H233.2C231.3 165.1 229.4 164.9 227.5 164.9C225.6 164.9 223.7 165.1 221.8 165.6H221.7V165.5C221.8 164.9 221.9 164.4 221.9 163.8L222 163.7L222.1 163.8C222 164.4 222 165 221.9 165.5H221.8V165.4C223.7 164.9 225.6 164.7 227.6 164.7C229.5 164.7 231.5 164.9 233.4 165.4V165.5H233.3C232.8 161.3 232.6 157.1 232.6 152.9C232.6 148.7 232.8 144.5 233.3 140.3H233.4V140.4C231.5 140.9 229.6 141.1 227.6 141.1C225.7 141.1 223.7 140.9 221.8 140.4L221.7 140.2H221.8Z" fill="#22576F"/>
<path d="M218.6 137.8V137.7C220.3 137.2 222 137 223.7 137C225.4 137 227.1 137.2 228.8 137.7V137.8H228.7C228.3 134 228.2 130.1 228.2 126.3C228.2 122.5 228.4 118.6 228.7 114.8H228.8V114.9C227.1 115.4 225.4 115.6 223.7 115.6C222 115.6 220.3 115.4 218.6 114.9V114.8H218.7C219.1 118.6 219.2 122.5 219.2 126.3C219.2 130.1 219 134 218.7 137.8H218.6H218.5C218.9 134 219 130.1 219 126.3C219 122.5 218.8 118.6 218.5 114.8V114.7H218.6C220.2 115.2 221.9 115.4 223.6 115.4C225.3 115.4 227 115.2 228.6 114.7H228.7V114.8C228.3 118.6 228.2 122.5 228.2 126.3C228.2 130.1 228.4 134 228.7 137.8V137.9H228.6C227 137.4 225.3 137.2 223.6 137.2C221.9 137.2 220.2 137.4 218.6 137.9V137.8Z" fill="#22576F"/>
<path d="M221.7 138.7C223.6 138.2 225.5 138 227.5 138C229.4 138 231.4 138.2 233.3 138.7V138.8H233.2C232.7 134.6 232.5 130.4 232.5 126.2C232.5 122 232.7 117.8 233.2 113.6H233.3V113.7C231.4 114.2 229.5 114.4 227.5 114.4C225.6 114.4 223.6 114.2 221.7 113.7V113.6H221.8C221.9 114.2 222 114.7 222 115.3L221.9 115.4L221.8 115.3C221.7 114.7 221.7 114.2 221.6 113.6V113.5H221.7C223.6 114 225.5 114.2 227.4 114.2C229.3 114.2 231.2 114 233.1 113.5H233.2V113.6C232.7 117.8 232.5 122 232.5 126.2C232.5 130.4 232.7 134.6 233.2 138.8V138.9H233.1C231.2 138.4 229.3 138.2 227.4 138.2C225.5 138.2 223.6 138.4 221.7 138.9L221.5 138.8L221.7 138.7Z" fill="#22576F"/>
<path d="M226.7 166.9V164.8L226.8 164.7L226.9 164.8V166.9L226.8 167.1L226.7 166.9Z" fill="#22576F"/>
<path d="M217.3 166.9V112.2L217.4 112.1L217.6 112.2V166.9L217.4 167.1L217.3 166.9Z" fill="#22576F"/>
<path d="M226.7 141V138.1L226.8 138L226.9 138.1V141L226.8 141.1L226.7 141Z" fill="#22576F"/>
<path d="M226.7 114.4V112.2L226.8 112.1L226.9 112.2V114.4L226.8 114.5L226.7 114.4Z" fill="#22576F"/>
<path d="M221.8 142C221.7 141.4 221.7 140.9 221.6 140.3L221.7 140.2L221.8 140.3C221.9 140.9 222 141.4 222 142L221.9 142.1L221.8 142Z" fill="#22576F"/>
<path d="M221.6 138.8C221.7 138.2 221.8 137.7 221.8 137.1L221.9 137L222 137.1C221.9 137.7 221.9 138.3 221.8 138.8L221.7 138.9L221.6 138.8Z" fill="#22576F"/>
<path d="M222.5 168.4V168.2H234L234.1 168.3V168.4V182.8L234 182.9H222.5L222.4 182.8H222.3V168.4L222.4 168.3L222.5 168.2V168.4H222.6V182.6H233.9V168.5H222.5V168.4H222.6H222.5Z" fill="#22576F"/>
<path d="M222.5 110.8V110.7H233.9V96.5H222.6V110.8H222.5V110.7V110.8H222.3V96.4L222.4 96.3H222.5H234H234.1V96.4V110.8V110.9H234H222.5H222.4L222.3 110.8H222.5Z" fill="#22576F"/>
<path d="M223.9 175.6H223.8C223.8 173.2 225.8 171.2 228.2 171.2C230.6 171.2 232.6 173.2 232.6 175.6C232.6 178 230.6 180 228.2 180C225.8 180 223.8 178 223.8 175.6H223.9H224C224 176.7 224.5 177.8 225.2 178.5C226 179.3 227 179.7 228.1 179.7C229.2 179.7 230.3 179.2 231 178.5C231.8 177.7 232.2 176.7 232.2 175.6C232.2 174.5 231.7 173.4 231 172.7C230.2 171.9 229.2 171.5 228.1 171.5C227 171.5 225.9 172 225.2 172.7C224.4 173.5 224 174.5 224 175.6H223.9Z" fill="#22576F"/>
<path d="M227.1 175.6H227C227 174.9 227.5 174.4 228.2 174.4C228.9 174.4 229.4 174.9 229.4 175.6C229.4 176.3 228.9 176.8 228.2 176.8C227.5 176.8 227 176.3 227 175.6H227.1H227.2C227.2 176.1 227.6 176.6 228.2 176.6C228.7 176.6 229.2 176.2 229.2 175.6C229.2 175.1 228.8 174.6 228.2 174.6C227.7 174.6 227.2 175 227.2 175.6H227.1Z" fill="#22576F"/>
<path d="M228.1 179.8V176.7L228.2 176.5L228.3 176.7V179.8L228.2 180L228.1 179.8Z" fill="#22576F"/>
<path d="M228.1 174.5V171.3L228.2 171.2L228.3 171.3V174.5L228.2 174.6L228.1 174.5Z" fill="#22576F"/>
<path d="M223.9 175.4H227.1L227.2 175.6L227.1 175.7H223.9L223.8 175.6L223.9 175.4Z" fill="#22576F"/>
<path d="M229.3 175.4H232.5L232.6 175.6L232.5 175.7H229.3L229.2 175.6L229.3 175.4Z" fill="#22576F"/>
<path d="M223.9 103.6H223.8C223.8 101.2 225.8 99.2 228.2 99.2C230.6 99.2 232.6 101.2 232.6 103.6C232.6 106 230.6 108 228.2 108C225.8 108 223.8 106 223.8 103.6H223.9H224C224 104.7 224.5 105.8 225.2 106.5C226 107.3 227 107.7 228.1 107.7C229.2 107.7 230.3 107.2 231 106.5C231.8 105.7 232.2 104.7 232.2 103.6C232.2 102.5 231.7 101.4 231 100.7C230.2 99.9 229.2 99.5 228.1 99.5C227 99.5 225.9 100 225.2 100.7C224.4 101.5 224 102.5 224 103.6H223.9Z" fill="#22576F"/>
<path d="M227.1 103.6H227C227 102.9 227.5 102.4 228.2 102.4C228.9 102.4 229.4 102.9 229.4 103.6C229.4 104.3 228.9 104.8 228.2 104.8C227.5 104.8 227 104.3 227 103.6H227.1H227.2C227.2 104.1 227.6 104.6 228.2 104.6C228.7 104.6 229.2 104.2 229.2 103.6C229.2 103.1 228.8 102.6 228.2 102.6C227.7 102.6 227.2 103 227.2 103.6H227.1Z" fill="#22576F"/>
<path d="M228.3 99.3V102.5L228.2 102.6L228.1 102.5V99.3L228.2 99.2L228.3 99.3Z" fill="#22576F"/>
<path d="M228.3 104.7V107.9L228.2 108L228.1 107.9V104.7L228.2 104.6L228.3 104.7Z" fill="#22576F"/>
<path d="M223.9 103.5H227.1L227.2 103.6L227.1 103.7H223.9L223.8 103.6L223.9 103.5Z" fill="#22576F"/>
<path d="M229.3 103.5H232.5L232.6 103.6L232.5 103.7H229.3L229.2 103.6L229.3 103.5Z" fill="#22576F"/>
<path d="M193.4 44.3L193.3 44.4L183.2 27L183.3 26.8L183.7 26.5H183.8L183.9 26.6L194 44V44.1L193.9 44.2L193.5 44.4H193.3L193.4 44.3L193.3 44.2L193.7 44L183.8 26.8L183.5 27L193.5 44.3H193.4L193.3 44.2L193.4 44.3Z" fill="#22576F"/>
<path d="M185.1 25.2V28.7L185 28.8L184.9 28.7V25.2L185 25.1L185.1 25.2Z" fill="#22576F"/>
<path d="M185.1 29.8V58.1L185 58.2L184.9 58.1V29.8L185 29.6L185.1 29.8Z" fill="#22576F"/>
<path d="M183.9 25.2V26.7L183.8 26.8H183.3L183.2 26.7H183.1V25.2L183.3 25.1L183.4 25.2V26.5H183.7V25.2L183.8 25.1L183.9 25.2Z" fill="#22576F"/>
<path d="M183.8 46.8V46.9H183.4V57.9H183.7V46.8H183.8V46.9V46.8H183.9V58.1V58.2H183.8H183.3H183.2L183.1 58.1V46.8L183.2 46.7L183.3 46.6H183.8L183.9 46.7V46.8H183.8Z" fill="#22576F"/>
<path d="M140.4 41.9H142.3L142.4 42L142.3 42.1H140.4L140.2 42L140.4 41.9Z" fill="#22576F"/>
<path d="M142.1 42V41.3L142.3 41.2L142.4 41.3V42L142.3 42.1L142.1 42Z" fill="#22576F"/>
<path d="M142.3 41.4H140.4L140.2 41.3L140.4 41.2H142.3L142.4 41.3L142.3 41.4Z" fill="#22576F"/>
<path d="M140.3 42H140.4L140.5 42.1L140.4 42.2H140.3L140.1 42.1L140.3 42Z" fill="#22576F"/>
<path d="M140.2 42.1V41.2L140.4 41.1L140.5 41.2V42.1L140.4 42.2L140.2 42.1Z" fill="#22576F"/>
<path d="M140.4 41.3H140.3L140.1 41.2L140.3 41.1H140.4L140.5 41.2L140.4 41.3Z" fill="#22576F"/>
<path d="M142.2 43.3V40.7L142.4 40.6L142.5 40.7V43.3L142.4 43.4L142.2 43.3Z" fill="#22576F"/>
<path d="M142.2 39.8H141.7L141.6 39.7L141.7 39.6H142.2L142.3 39.7L142.2 39.8Z" fill="#22576F"/>
<path d="M141.8 39.7V41.3L141.7 41.4L141.6 41.3V39.7L141.7 39.6L141.8 39.7Z" fill="#22576F"/>
<path d="M141.8 42V43.3L141.7 43.4L141.6 43.3V42L141.7 41.9L141.8 42Z" fill="#22576F"/>
<path d="M141.7 43.2H142.4L142.5 43.3L142.4 43.4H141.7L141.6 43.3L141.7 43.2Z" fill="#22576F"/>
<path d="M142.4 42.7H141.7L141.6 42.6L141.7 42.5H142.4L142.5 42.6L142.4 42.7Z" fill="#22576F"/>
<path d="M143.3 41.2C143.8 41.2 144.2 40.8 144.2 40.2V40.1C144.2 39.5 143.8 39.1 143.4 39H143.2L143.1 38.9L143.2 38.8H143.4C144 38.9 144.4 39.4 144.4 40.1V40.2C144.4 40.9 143.9 41.4 143.3 41.4H143.2L143.1 41.3L143.3 41.2Z" fill="#22576F"/>
<path d="M142.3 40.1H142.4C142.4 40.4 142.5 40.7 142.7 40.9C142.9 41.1 143.1 41.2 143.3 41.2C143.5 41.2 143.7 41.1 143.9 40.9C144.1 40.7 144.2 40.4 144.2 40.1C144.2 39.8 144.1 39.5 143.9 39.3C143.7 39.1 143.5 39 143.3 39C143.1 39 142.9 39.1 142.7 39.3C142.5 39.5 142.4 39.8 142.4 40.1H142.3H142.2C142.2 39.4 142.7 38.8 143.3 38.8C143.9 38.8 144.4 39.4 144.4 40.1C144.4 40.8 143.9 41.4 143.3 41.4C142.7 41.4 142.2 40.8 142.2 40.1H142.3Z" fill="#22576F"/>
<path d="M142.4 40.9L142.3 40.8L142.1 40.6H142H141.9L141.8 40.4L141.9 40.3H142L142.2 40.4H142.3L142.5 40.6L142.6 40.7L142.5 40.9H142.4Z" fill="#22576F"/>
<path d="M142.6 39.5L142.5 39.6L142.3 39.8H142.2L142 39.9H141.9L141.8 39.8L141.9 39.7H142L142.1 39.6L142.3 39.4L142.4 39.3H142.6V39.5Z" fill="#22576F"/>
<path d="M142 39.9L141.9 40.1V40.2L142.1 40.4V40.6H141.9L141.7 40.4V40.2C141.7 40 141.8 39.8 142 39.8L142.2 39.9H142Z" fill="#22576F"/>
<path d="M140.1 42.1V41.2L140.3 41.1L140.4 41.2V42.1L140.3 42.2L140.1 42.1Z" fill="#22576F"/>
<path d="M148.3 40.7H148.2C148.2 39.7 149 38.9 150 38.9C151 38.9 151.8 39.7 151.8 40.7C151.8 41.7 151 42.5 150 42.5C149 42.5 148.2 41.7 148.2 40.7H148.3H148.4C148.4 41.6 149.1 42.3 150 42.3C150.9 42.3 151.6 41.6 151.6 40.7C151.6 39.8 150.9 39.1 150 39.1C149.1 39.1 148.4 39.8 148.4 40.7H148.3Z" fill="#22576F"/>
<path d="M182 58.1V25.2L182.1 25.1L182.2 25.2V58.1L182.1 58.2L182 58.1Z" fill="#22576F"/>
<path d="M182.1 26.4H171.2L171.1 26.3L171.2 26.2H182.1L182.2 26.3L182.1 26.4Z" fill="#22576F"/>
<path d="M169.6 26.4H144.4V39.7L144.3 39.8L144.2 39.7V26.3V26.2H144.3H169.6L169.8 26.3L169.6 26.4Z" fill="#22576F"/>
<path d="M183.8 46.6C187.3 46.6 190.8 45.7 193.8 43.9H194V44.1C190.9 45.9 187.4 46.8 183.9 46.8L183.8 46.7V46.6Z" fill="#22576F"/>
<path d="M169.6 26H171.2L171.3 26.2L171.2 26.3H169.6L169.5 26.2L169.6 26Z" fill="#22576F"/>
<path d="M173 25.9H167.8L167.7 25.8L167.8 25.7H173L173.1 25.8L173 25.9Z" fill="#22576F"/>
<path d="M167.9 25.7C168.5 25.9 169.1 26 169.7 26L169.8 26.1L169.7 26.2C169.1 26.2 168.5 26 167.9 25.9L167.8 25.7H167.9Z" fill="#22576F"/>
<path d="M171.2 26C171.8 26 172.4 25.8 173 25.7L173.2 25.8L173 26C172.4 26.2 171.8 26.3 171.2 26.3L171.1 26.2L171.2 26Z" fill="#22576F"/>
<path d="M173.2 25.6L173.1 25.8L173 25.9L172.9 25.8V25.6L173 25.5L173.2 25.6Z" fill="#22576F"/>
<path d="M167.7 25.8V25.6L167.8 25.5L167.9 25.6V25.8L167.8 25.9L167.7 25.8Z" fill="#22576F"/>
<path d="M172.9 25.8V25.7H173.1V25.9L172.9 26V25.8Z" fill="#22576F"/>
<path d="M167.9 25.7V25.8V26L167.7 25.9V25.7H167.9Z" fill="#22576F"/>
<path d="M171.3 26.2V26.8L171.2 27L171.1 26.8V26.2L171.2 26L171.3 26.2Z" fill="#22576F"/>
<path d="M169.5 26.8V26.2L169.6 26L169.8 26.2V26.8L169.6 27L169.5 26.8Z" fill="#22576F"/>
<path d="M169.8 27.1H170.4L170.5 27.2L170.4 27.4H169.8L169.7 27.2L169.8 27.1Z" fill="#22576F"/>
<path d="M170.4 27.1L170.5 27.2L170.4 27.4L170.3 27.2L170.4 27.1Z" fill="#22576F"/>
<path d="M171.2 27.4H171L170.9 27.2L171 27.1H171.2L171.3 27.2L171.2 27.4Z" fill="#22576F"/>
<path d="M169.8 27.4H169.7L169.5 27.2L169.7 27.1H169.8L169.9 27.2L169.8 27.4Z" fill="#22576F"/>
<path d="M170.4 27.1H171L171.1 27.2L171 27.4H170.4L170.3 27.2L170.4 27.1Z" fill="#22576F"/>
<path d="M171.3 27.3V28.3L171.1 28.5L171 28.3V27.2L171.2 27.1L171.3 27.3Z" fill="#22576F"/>
<path d="M169.6 28.3L169.5 27.3L169.7 27.1L169.8 27.2V28.3L169.7 28.5L169.6 28.3Z" fill="#22576F"/>
<path d="M171.1 27.3V27.2H171.2H171.3V27.3H171.1Z" fill="#22576F"/>
<path d="M169.7 27.3H169.6V27.2V27.1L169.8 27.2L169.7 27.3Z" fill="#22576F"/>
<path d="M169.8 28.3V28.5H169.6V28.4V28.3H169.8Z" fill="#22576F"/>
<path d="M171 28.3H171.1H171.2V28.4V28.5H171V28.3Z" fill="#22576F"/>
<path d="M169.7 28.2C169.9 28.2 170.2 28.2 170.4 28.2C170.6 28.2 170.9 28.2 171.1 28.2L171.2 28.3L171.1 28.4C170.9 28.4 170.6 28.4 170.4 28.4C170.2 28.4 169.9 28.4 169.7 28.4L169.6 28.3L169.7 28.2Z" fill="#22576F"/>
<path d="M171 27.2C171.1 27.1 171.1 27 171.1 26.9L171.2 26.8L171.3 26.9C171.3 27.1 171.3 27.2 171.2 27.4H171V27.2Z" fill="#22576F"/>
<path d="M169.8 26.8C169.8 26.9 169.8 27 169.9 27.1V27.3H169.7C169.6 27.2 169.6 27 169.6 26.8L169.7 26.7L169.8 26.8Z" fill="#22576F"/>
<path d="M167.7 25.6V25.2L167.8 25.1L167.9 25.2V25.6L167.8 25.7L167.7 25.6Z" fill="#22576F"/>
<path d="M172.9 25.6V25.2L173 25.1L173.2 25.2V25.6L173 25.7L172.9 25.6Z" fill="#22576F"/>
<path d="M182.1 57.1H144.3H144.2V57V40.5L144.3 40.4L144.4 40.5V56.9H182.1L182.2 57L182.1 57.1Z" fill="#22576F"/>
<path d="M225.7 57H225.6C225.6 56.3 226.1 55.8 226.8 55.8C227.5 55.8 228 56.3 228 57C228 57.7 227.5 58.2 226.8 58.2C226.1 58.2 225.6 57.7 225.6 57H225.7H225.8C225.8 57.5 226.2 58 226.8 58C227.3 58 227.8 57.6 227.8 57C227.8 56.5 227.4 56 226.8 56C226.3 56 225.8 56.4 225.8 57H225.7Z" fill="#22576F"/>
<path d="M226.1 57H226C226 56.6 226.3 56.2 226.8 56.2C227.2 56.2 227.6 56.5 227.6 57C227.6 57.4 227.3 57.8 226.8 57.8C226.4 57.8 226 57.5 226 57H226.1H226.2C226.2 57.3 226.4 57.5 226.7 57.5C227 57.5 227.2 57.3 227.2 57C227.2 56.7 227 56.5 226.7 56.5C226.4 56.5 226.2 56.7 226.2 57H226.1Z" fill="#22576F"/>
<path d="M229.7 56.5H233.1L233.2 56.6L233.1 56.7H229.7L229.6 56.6L229.7 56.5Z" fill="#22576F"/>
<path d="M229.7 56.7L229.6 56.8L229.5 56.9L229.4 56.8C229.4 56.6 229.6 56.4 229.8 56.4L229.9 56.5L229.7 56.7Z" fill="#22576F"/>
<path d="M229.6 57.3L229.7 57.4L229.8 57.5L229.7 57.6C229.5 57.6 229.3 57.4 229.3 57.2L229.4 57.1L229.6 57.3Z" fill="#22576F"/>
<path d="M229.6 56.8V57.3L229.4 57.4L229.3 57.3V56.8L229.4 56.7L229.6 56.8Z" fill="#22576F"/>
<path d="M233.1 57.5L232.9 57.4L232.8 57.3L232.9 57.2C233 57.2 233.2 57.3 233.3 57.4V57.6L233.1 57.5Z" fill="#22576F"/>
<path d="M232.9 56.7L233.1 56.6H233.3V56.8C233.2 56.9 233.1 57 232.9 57L232.8 56.9L232.9 56.7Z" fill="#22576F"/>
<path d="M231.3 56.7H232.9L233 56.8L232.9 56.9H231.3L231.2 56.8L231.3 56.7Z" fill="#22576F"/>
<path d="M232.9 57.4H231.3L231.2 57.3L231.3 57.2H232.9L233 57.3L232.9 57.4Z" fill="#22576F"/>
<path d="M231.2 57.1L231.4 57.2V57.4H231.2L231.1 57.2V57.1H231.2Z" fill="#22576F"/>
<path d="M231.3 56.9V57.2L231.1 57.3L231 57.2V56.9L231.1 56.8L231.3 56.9Z" fill="#22576F"/>
<path d="M233.3 57.7H233.1L233 57.6L233.1 57.5C233.2 57.5 233.3 57.5 233.4 57.6L233.5 57.8L233.3 57.7Z" fill="#22576F"/>
<path d="M233.1 56.5H233.3L233.5 56.6L233.4 56.8C233.3 56.8 233.2 56.9 233.1 56.9L233 56.8L233.1 56.5Z" fill="#22576F"/>
<path d="M233.1 57.6H229.7L229.6 57.5L229.7 57.4H233.1L233.2 57.5L233.1 57.6Z" fill="#22576F"/>
<path d="M233.2 57.4C233.3 57.5 233.5 57.6 233.6 57.6C233.7 57.6 233.9 57.6 234 57.5C234.1 57.4 234.2 57.2 234.2 57.1C234.2 57 234.2 56.8 234.1 56.7C234 56.6 233.8 56.5 233.7 56.5C233.6 56.5 233.4 56.5 233.3 56.6H233.1V56.4C233.3 56.3 233.5 56.2 233.6 56.2C233.8 56.2 234 56.3 234.2 56.5C234.3 56.7 234.4 56.9 234.4 57C234.4 57.2 234.3 57.4 234.1 57.6C233.9 57.7 233.7 57.8 233.6 57.8C233.4 57.8 233.2 57.7 233 57.5V57.3L233.2 57.4Z" fill="#22576F"/>
<path d="M233.3 57.3C233.4 57.4 233.5 57.4 233.6 57.4C233.7 57.4 233.8 57.4 233.9 57.3C234 57.2 234 57.1 234 57C234 56.9 234 56.8 233.9 56.7C233.8 56.6 233.7 56.6 233.6 56.6C233.5 56.6 233.4 56.6 233.3 56.7H233.1V56.5C233.2 56.4 233.4 56.3 233.6 56.3C233.8 56.3 234 56.4 234.1 56.5C234.2 56.6 234.3 56.8 234.3 57C234.3 57.2 234.2 57.4 234.1 57.5C234 57.6 233.8 57.7 233.6 57.7C233.4 57.7 233.2 57.6 233.1 57.5V57.3H233.3Z" fill="#22576F"/>
<path d="M231.4 56.9L231.2 57H231.1V56.9L231.2 56.7H231.4V56.9Z" fill="#22576F"/>
<path d="M232 56.6C231.8 53.9 229.5 51.8 226.8 51.8C226.6 51.8 226.5 51.8 226.3 51.8C223.6 52 221.5 54.3 221.5 57C221.5 57.2 221.5 57.3 221.5 57.5C221.7 60.2 224 62.3 226.7 62.3C226.9 62.3 227 62.3 227.2 62.3C229.8 62.1 231.8 60.1 232 57.5L232.1 57.4L232.2 57.5C232 60.2 229.8 62.3 227.2 62.5C227 62.5 226.9 62.5 226.7 62.5C223.9 62.5 221.5 60.3 221.2 57.4C221.2 57.2 221.2 57.1 221.2 56.9C221.2 54.1 223.4 51.7 226.3 51.4C226.5 51.4 226.6 51.4 226.8 51.4C229.6 51.4 232 53.6 232.3 56.5L232.2 56.6H232Z" fill="#22576F"/>
<path d="M225.7 76.5H225.6C225.6 75.8 226.1 75.3 226.8 75.3C227.5 75.3 228 75.8 228 76.5C228 77.2 227.5 77.7 226.8 77.7C226.1 77.7 225.6 77.2 225.6 76.5H225.7H225.8C225.8 77 226.2 77.5 226.8 77.5C227.3 77.5 227.8 77.1 227.8 76.5C227.8 76 227.4 75.5 226.8 75.5C226.3 75.5 225.8 75.9 225.8 76.5H225.7Z" fill="#22576F"/>
<path d="M226.1 76.5H226C226 76.1 226.3 75.7 226.8 75.7C227.2 75.7 227.6 76 227.6 76.5C227.6 76.9 227.3 77.3 226.8 77.3C226.4 77.3 226 77 226 76.5H226.1H226.2C226.2 76.8 226.4 77 226.7 77C227 77 227.2 76.8 227.2 76.5C227.2 76.2 227 76 226.7 76C226.4 76 226.2 76.2 226.2 76.5H226.1Z" fill="#22576F"/>
<path d="M229.7 75.9H233.1L233.2 76L233.1 76.2H229.7L229.6 76L229.7 75.9Z" fill="#22576F"/>
<path d="M229.7 76.2L229.6 76.3L229.5 76.4L229.4 76.3C229.4 76.1 229.6 75.9 229.8 75.9L229.9 76L229.7 76.2Z" fill="#22576F"/>
<path d="M229.6 76.7L229.7 76.8L229.8 76.9L229.7 77C229.5 77 229.3 76.8 229.3 76.6L229.4 76.5L229.6 76.7Z" fill="#22576F"/>
<path d="M229.6 76.3V76.7L229.4 76.8L229.3 76.7V76.3L229.4 76.2L229.6 76.3Z" fill="#22576F"/>
<path d="M233.1 77L232.9 76.9L232.8 76.8L232.9 76.7C233 76.7 233.2 76.8 233.3 76.9V77.1L233.1 77Z" fill="#22576F"/>
<path d="M232.9 76.1L233.1 76H233.3V76.2C233.2 76.3 233.1 76.4 232.9 76.4L232.8 76.3L232.9 76.1Z" fill="#22576F"/>
<path d="M231.3 76.1H232.9L233 76.3L232.9 76.4H231.3L231.2 76.3L231.3 76.1Z" fill="#22576F"/>
<path d="M232.9 76.9H231.3L231.2 76.8L231.3 76.6H232.9L233 76.8L232.9 76.9Z" fill="#22576F"/>
<path d="M231.2 76.5L231.4 76.7V76.8H231.2L231.1 76.7V76.5H231.2Z" fill="#22576F"/>
<path d="M231.3 76.4V76.6L231.1 76.7L231 76.6V76.4L231.1 76.3L231.3 76.4Z" fill="#22576F"/>
<path d="M233.3 77.1H233.1L233 77L233.1 76.9C233.2 76.9 233.3 76.9 233.4 77L233.5 77.2L233.3 77.1Z" fill="#22576F"/>
<path d="M233.1 75.9H233.3L233.5 76L233.4 76.2C233.3 76.2 233.2 76.3 233.1 76.3L233 76L233.1 75.9Z" fill="#22576F"/>
<path d="M233.1 77.1H229.7L229.6 77L229.7 76.8H233.1L233.2 77L233.1 77.1Z" fill="#22576F"/>
<path d="M233.2 76.9C233.3 77 233.5 77.1 233.6 77.1C233.7 77.1 233.9 77.1 234 77C234.1 76.9 234.2 76.7 234.2 76.6C234.2 76.5 234.2 76.3 234.1 76.2C234 76.1 233.8 76 233.7 76C233.6 76 233.4 76 233.3 76.1H233.1V76C233.3 75.9 233.5 75.8 233.6 75.8C233.8 75.8 234 75.9 234.2 76.1C234.3 76.3 234.4 76.5 234.4 76.6C234.4 76.8 234.3 77 234.1 77.2C233.9 77.3 233.7 77.4 233.6 77.4C233.4 77.4 233.2 77.3 233 77.1V76.9H233.2Z" fill="#22576F"/>
<path d="M233.3 76.8C233.4 76.9 233.5 76.9 233.6 76.9C233.7 76.9 233.8 76.9 233.9 76.8C234 76.7 234 76.6 234 76.5C234 76.4 234 76.3 233.9 76.2C233.8 76.1 233.7 76.1 233.6 76.1C233.5 76.1 233.4 76.1 233.3 76.2H233.1V76C233.2 75.9 233.4 75.8 233.6 75.8C233.8 75.8 234 75.9 234.1 76C234.2 76.1 234.3 76.3 234.3 76.5C234.3 76.7 234.2 76.9 234.1 77C234 77.1 233.8 77.2 233.6 77.2C233.4 77.2 233.2 77.1 233.1 77V76.8H233.3Z" fill="#22576F"/>
<path d="M231.4 76.4L231.2 76.5H231.1V76.3L231.2 76.2H231.4V76.4Z" fill="#22576F"/>
<path d="M232 76.1C231.8 73.4 229.5 71.3 226.8 71.3C226.6 71.3 226.5 71.3 226.3 71.3C223.6 71.5 221.5 73.8 221.5 76.5C221.5 76.7 221.5 76.8 221.5 77C221.7 79.7 224 81.8 226.7 81.8C226.9 81.8 227 81.8 227.2 81.8C229.8 81.6 231.8 79.6 232 77L232.1 76.9L232.2 77C232 79.7 229.8 81.8 227.2 82C227 82 226.9 82 226.7 82C223.9 82 221.5 79.8 221.2 76.9C221.2 76.7 221.2 76.6 221.2 76.4C221.2 73.6 223.4 71.2 226.3 70.9C226.5 70.9 226.6 70.9 226.8 70.9C229.6 70.9 232 73.1 232.3 75.9L232.2 76L232 76.1Z" fill="#22576F"/>
<path d="M221.9 41.3C222.9 41.3 223.8 41.2 224.7 40.9C225.5 40.7 226.2 40.3 226.9 39.8C227.1 39.6 227.4 39.4 227.6 39.2H227.8V39.4C227.6 39.6 227.4 39.8 227.1 40C226.4 40.5 225.6 40.9 224.8 41.1C223.9 41.4 222.9 41.5 221.9 41.5L221.8 41.4L221.9 41.3Z" fill="#22576F"/>
<path d="M221.9 41.6C220.9 41.6 220 41.5 219 41.2C218.2 41 217.4 40.6 216.7 40.1C216 39.6 215.5 39 215.1 38.3C214.8 37.7 214.6 37 214.6 36.4C214.6 35.7 214.8 35 215.1 34.5C215.5 33.8 216.1 33.2 216.7 32.7C217.4 32.2 218.2 31.8 219 31.6C219.9 31.3 220.9 31.2 221.9 31.2C222.9 31.2 223.8 31.3 224.8 31.6C225.6 31.8 226.4 32.2 227.1 32.7C227.3 32.9 227.6 33.1 227.8 33.3V33.4V39.6L227.7 39.7L227.6 39.6V33.4H227.7L227.6 33.5C227.4 33.3 227.2 33.1 226.9 32.9C226.2 32.4 225.5 32.1 224.7 31.8C223.8 31.5 222.8 31.4 221.9 31.4C220.9 31.4 220 31.5 219.1 31.8C218.3 32 217.6 32.4 216.9 32.9C216.3 33.4 215.7 34 215.3 34.6C215 35.2 214.8 35.8 214.8 36.4C214.8 37 215 37.7 215.3 38.2C215.7 38.9 216.2 39.5 216.9 39.9C217.6 40.4 218.3 40.7 219.1 41C220 41.3 221 41.4 221.9 41.4L222 41.5L221.9 41.6Z" fill="#22576F"/>
<path d="M231 40.5C228.7 40.6 226.4 40.9 224.2 41.4L224.1 41.3L224.2 41.2C226.5 40.8 228.8 40.5 231.1 40.3L231.2 40.4L231 40.5Z" fill="#22576F"/>
<path d="M230.2 34.3H230.1C230.2 33.8 230.4 33.3 230.6 32.8C230.9 32.2 231.3 31.7 231.8 31.4C232 31.3 232.2 31.2 232.4 31.2H232.6L234.7 31.6C234.9 31.6 235 31.8 235 32V40.7C235 40.9 234.9 41.1 234.7 41.1L232.6 41.5H232.4C232.2 41.5 232 41.4 231.8 41.3C231.3 40.9 230.9 40.4 230.6 39.9C230.4 39.4 230.2 38.9 230.1 38.4C230 37.7 229.9 37.1 229.9 36.4C229.9 35.7 230 35 230.1 34.4L230.2 34.3H230.3C230.2 35 230.1 35.6 230.1 36.3C230.1 37 230.2 37.6 230.3 38.3C230.4 38.8 230.6 39.3 230.8 39.8C231.1 40.3 231.4 40.8 231.9 41.1C232 41.2 232.2 41.2 232.3 41.2H232.4L234.5 40.8L234.6 40.6V31.9L234.5 31.7L232.4 31.3H232.3C232.1 31.3 232 31.3 231.9 31.4C231.4 31.7 231 32.2 230.8 32.7C230.6 33.2 230.4 33.7 230.3 34.2L230.2 34.3Z" fill="#22576F"/>
<path d="M231 32.4C228.7 32.3 226.4 32 224.1 31.5L224 31.4L224.1 31.3C226.4 31.7 228.6 32 230.9 32.2L231 32.3V32.4Z" fill="#22576F"/>
<path d="M231.7 36.3H231.6C231.6 35.9 231.9 35.6 232.3 35.6C232.7 35.6 233 35.9 233 36.3C233 36.7 232.7 37 232.3 37C231.9 37 231.6 36.7 231.6 36.3H231.7H231.8C231.8 36.5 232 36.7 232.2 36.7C232.4 36.7 232.6 36.5 232.6 36.3C232.6 36.1 232.4 35.9 232.2 35.9C232 35.9 231.8 36.1 231.8 36.3H231.7Z" fill="#22576F"/>
<path d="M124.7 156.8C125.7 156.8 126.6 156.7 127.5 156.4C128.3 156.2 129 155.8 129.7 155.3C129.9 155.1 130.2 154.9 130.4 154.7H130.6V154.9C130.4 155.1 130.2 155.3 129.9 155.5C129.2 156 128.4 156.4 127.6 156.6C126.7 156.9 125.7 157 124.7 157L124.6 156.9L124.7 156.8Z" fill="#22576F"/>
<path d="M124.7 157C123.7 157 122.8 156.9 121.8 156.6C121 156.4 120.2 156 119.5 155.5C118.8 155 118.3 154.4 117.9 153.7C117.6 153.1 117.4 152.4 117.4 151.8C117.4 151.1 117.6 150.4 117.9 149.9C118.3 149.2 118.9 148.6 119.5 148.1C120.2 147.6 121 147.2 121.8 147C122.7 146.7 123.7 146.6 124.7 146.6C125.7 146.6 126.6 146.7 127.6 147C128.4 147.2 129.2 147.6 129.9 148.1C130.1 148.3 130.4 148.5 130.6 148.7V148.8V155L130.5 155.1L130.4 155V148.8H130.5L130.4 148.9C130.2 148.7 130 148.5 129.7 148.3C129 147.8 128.3 147.5 127.5 147.2C126.6 146.9 125.6 146.8 124.7 146.8C123.7 146.8 122.8 146.9 121.9 147.2C121.1 147.4 120.4 147.8 119.7 148.3C119.1 148.8 118.5 149.4 118.1 150C117.8 150.6 117.6 151.2 117.6 151.8C117.6 152.4 117.8 153.1 118.1 153.6C118.5 154.3 119 154.9 119.7 155.3C120.4 155.8 121.1 156.1 121.9 156.4C122.8 156.7 123.8 156.8 124.7 156.8L124.8 156.9L124.7 157Z" fill="#22576F"/>
<path d="M133.7 155.9C131.4 156 129.1 156.3 126.9 156.8L126.8 156.7L126.9 156.6C129.2 156.2 131.5 155.9 133.8 155.7L133.9 155.8L133.7 155.9Z" fill="#22576F"/>
<path d="M132.9 149.7H132.8C132.9 149.2 133.1 148.7 133.3 148.2C133.6 147.6 134 147.1 134.5 146.8C134.7 146.7 134.9 146.6 135.1 146.6H135.3L137.4 147C137.6 147 137.7 147.2 137.7 147.4V156.1C137.7 156.3 137.6 156.5 137.4 156.5L135.3 156.9H135.1C134.9 156.9 134.7 156.8 134.5 156.7C134 156.3 133.6 155.8 133.3 155.3C133.1 154.8 132.9 154.3 132.8 153.8C132.7 153.1 132.6 152.5 132.6 151.8C132.6 151.1 132.7 150.4 132.8 149.8L132.9 149.7H133C132.9 150.4 132.8 151 132.8 151.7C132.8 152.4 132.9 153 133 153.7C133.1 154.2 133.3 154.7 133.5 155.2C133.8 155.7 134.1 156.2 134.6 156.5C134.7 156.6 134.9 156.6 135 156.6H135.1L137.2 156.2L137.3 156V147.3L137.2 147.1L135.1 146.7H135C134.8 146.7 134.7 146.7 134.6 146.8C134.1 147.1 133.7 147.6 133.5 148.1C133.3 148.6 133.1 149.1 133 149.6L132.9 149.7Z" fill="#22576F"/>
<path d="M133.7 147.8C131.4 147.7 129.1 147.4 126.8 146.9L126.7 146.8L126.8 146.7C129.1 147.1 131.3 147.4 133.6 147.6L133.7 147.7V147.8Z" fill="#22576F"/>
<path d="M134.4 151.7H134.3C134.3 151.3 134.6 151 135 151C135.4 151 135.7 151.3 135.7 151.7C135.7 152.1 135.4 152.4 135 152.4C134.6 152.4 134.3 152.1 134.3 151.7H134.4H134.5C134.5 151.9 134.7 152.1 134.9 152.1C135.1 152.1 135.3 151.9 135.3 151.7C135.3 151.5 135.1 151.3 134.9 151.3C134.7 151.3 134.5 151.5 134.5 151.7H134.4Z" fill="#22576F"/>
<path d="M34.3 124V124.2H15V125.1H34.2V124H34.3V124.2V124H34.4V125.2V125.3H34.3H14.9H14.8V125.2V124L14.9 123.9H34.3L34.4 124H34.3Z" fill="#22576F"/>
<path d="M55.2 124V124.2H35.9V125.1H55.1V124H55.2V124.2V124H55.3V125.2V125.3H55.2H35.8H35.7L35.6 125.2V124H35.7L35.8 123.9H55.2L55.3 124H55.2Z" fill="#22576F"/>
<path d="M34.4 125.2V126.3L34.3 126.4L34.2 126.3V125.2L34.3 125.1L34.4 125.2Z" fill="#22576F"/>
<path d="M34.4 139.9V142L34.3 142.1L34.2 142V139.9L34.3 139.8L34.4 139.9ZM34.4 136.7V138.8L34.3 138.9L34.2 138.8V136.7L34.3 136.6L34.4 136.7ZM34.4 133.6V135.7L34.3 135.8L34.2 135.7V133.6L34.3 133.5L34.4 133.6ZM34.4 130.5V132.6L34.3 132.7L34.2 132.6V130.5L34.3 130.4L34.4 130.5ZM34.4 127.3V129.4L34.3 129.5L34.2 129.4V127.3L34.3 127.2L34.4 127.3Z" fill="#22576F"/>
<path d="M34.4 143V144.1L34.3 144.2L34.2 144.1V143L34.3 142.9L34.4 143Z" fill="#22576F"/>
<path d="M34.3 144.2H33.2L33.1 144.1L33.2 144H34.3L34.4 144.1L34.3 144.2Z" fill="#22576F"/>
<path d="M19.2 144.2H17L16.9 144.1L17 144H19.2L19.3 144.1L19.2 144.2ZM22.4 144.2H20.2L20.1 144.1L20.2 144H22.4L22.5 144.1L22.4 144.2ZM25.7 144.2H23.5L23.4 144.1L23.5 144H25.7L25.8 144.1L25.7 144.2ZM28.9 144.2H26.7L26.6 144.1L26.7 144H28.9L29 144.1L28.9 144.2ZM32.2 144.2H30L29.9 144.1L30 144H32.2L32.3 144.1L32.2 144.2Z" fill="#22576F"/>
<path d="M16 144.2H14.9L14.8 144.1L14.9 144H16L16.1 144.1L16 144.2Z" fill="#22576F"/>
<path d="M14.8 144.1V143L14.9 142.9L15 143V144.1L14.9 144.2L14.8 144.1Z" fill="#22576F"/>
<path d="M14.8 129.4V127.3L14.9 127.2L15 127.3V129.4L14.9 129.5L14.8 129.4ZM14.8 132.6V130.5L14.9 130.4L15 130.5V132.6L14.9 132.7L14.8 132.6ZM14.8 135.7V133.6L14.9 133.5L15 133.6V135.7L14.9 135.8L14.8 135.7ZM14.8 138.8V136.7L14.9 136.6L15 136.7V138.8L14.9 138.9L14.8 138.8ZM14.8 142V139.9L14.9 139.8L15 139.9V142L14.9 142.1L14.8 142Z" fill="#22576F"/>
<path d="M14.8 126.3V125.2L14.9 125.1L15 125.2V126.3L14.9 126.4L14.8 126.3Z" fill="#22576F"/>
<path d="M35.9 125.2V126.3L35.8 126.4L35.6 126.3V125.2L35.8 125.1L35.9 125.2Z" fill="#22576F"/>
<path d="M35.9 139.9V142L35.8 142.1L35.7 142V139.9L35.8 139.8L35.9 139.9ZM35.9 136.7V138.8L35.8 138.9L35.7 138.8V136.7L35.8 136.6L35.9 136.7ZM35.9 133.6V135.7L35.8 135.8L35.7 135.7V133.6L35.8 133.5L35.9 133.6ZM35.9 130.5V132.6L35.8 132.7L35.7 132.6V130.5L35.8 130.4L35.9 130.5ZM35.9 127.3V129.4L35.8 129.5L35.7 129.4V127.3L35.8 127.2L35.9 127.3Z" fill="#22576F"/>
<path d="M35.9 143V144.1L35.8 144.2L35.6 144.1V143L35.8 142.9L35.9 143Z" fill="#22576F"/>
<path d="M35.8 144H36.8L37 144.1L36.8 144.2H35.8L35.6 144.1L35.8 144Z" fill="#22576F"/>
<path d="M50.9 144H53.1L53.2 144.1L53.1 144.2H50.9L50.8 144.1L50.9 144ZM47.6 144H49.8L49.9 144.1L49.8 144.2H47.6L47.5 144.1L47.6 144ZM44.4 144H46.6L46.7 144.1L46.6 144.2H44.4L44.3 144.1L44.4 144ZM41.2 144H43.4L43.5 144.1L43.4 144.2H41.2L41.1 144.1L41.2 144ZM37.9 144H40.1L40.2 144.1L40.1 144.2H37.9L37.8 144.1L37.9 144Z" fill="#22576F"/>
<path d="M54.1 144H55.2L55.3 144.1L55.2 144.2H54.1L54 144.1L54.1 144Z" fill="#22576F"/>
<path d="M55.1 144.1V143L55.2 142.9L55.3 143V144.1L55.2 144.2L55.1 144.1Z" fill="#22576F"/>
<path d="M55.1 129.4V127.3L55.2 127.2L55.3 127.3V129.4L55.2 129.5L55.1 129.4ZM55.1 132.6V130.5L55.2 130.4L55.3 130.5V132.6L55.2 132.7L55.1 132.6ZM55.1 135.7V133.6L55.2 133.5L55.3 133.6V135.7L55.2 135.8L55.1 135.7ZM55.1 138.8V136.7L55.2 136.6L55.3 136.7V138.8L55.2 138.9L55.1 138.8ZM55.1 142V139.9L55.2 139.8L55.3 139.9V142L55.2 142.1L55.1 142Z" fill="#22576F"/>
<path d="M55.1 126.3V125.2L55.2 125.1L55.3 125.2V126.3L55.2 126.4L55.1 126.3Z" fill="#22576F"/>
<path d="M135.5 174.6H133.8L133.7 174.5L133.8 174.4H135.5L135.6 174.5L135.5 174.6Z" fill="#22576F"/>
<path d="M133.8 174.6H132.9L132.8 174.5L132.9 174.4H133.8L133.9 174.5L133.8 174.6Z" fill="#22576F"/>
<path d="M133 174.6C132.7 174.6 132.5 174.3 132.5 174C132.5 173.7 132.7 173.5 133 173.5L133.1 173.6L133 173.7C132.9 173.7 132.8 173.8 132.8 174C132.8 174.2 132.9 174.3 133 174.3L133.1 174.4L133 174.6Z" fill="#22576F"/>
<path d="M135.5 173.7H133.8L133.7 173.6L133.8 173.5H135.5L135.6 173.6L135.5 173.7Z" fill="#22576F"/>
<path d="M133.8 173.7H132.9L132.8 173.6L132.9 173.5H133.8L133.9 173.6L133.8 173.7Z" fill="#22576F"/>
<path d="M137.5 176.4H137.6L137.7 176.5L137.6 176.6H137.5L137.4 176.5L137.5 176.4Z" fill="#22576F"/>
<path d="M137.5 176.4H137.6L137.7 176.5L137.6 176.6H137.5L137.4 176.5L137.5 176.4Z" fill="#22576F"/>
<path d="M138.2 176.5L137.6 176.6L137.5 176.5L137.6 176.4L138.1 176.3L138.3 176.4L138.2 176.5Z" fill="#22576F"/>
<path d="M135.4 174.6V173.5L135.5 173.3L135.6 173.5V174.6L135.5 174.7L135.4 174.6Z" fill="#22576F"/>
<path d="M135.4 174.6V173.5L135.6 173.3L135.7 173.5V174.6L135.6 174.7L135.4 174.6Z" fill="#22576F"/>
<path d="M135.5 174.6V173.5L135.7 173.3L135.8 173.5V174.6L135.7 174.7L135.5 174.6Z" fill="#22576F"/>
<path d="M137.3 174.6L137.4 174.8L137.3 174.9L137.2 174.8L137.3 174.6Z" fill="#22576F"/>
<path d="M135.5 174.5L135.7 174.6L135.5 174.7L135.4 174.6L135.5 174.5Z" fill="#22576F"/>
<path d="M135.5 174.5L135.7 174.6L135.5 174.7L135.4 174.6L135.5 174.5Z" fill="#22576F"/>
<path d="M135.7 174.5H137.3L137.4 174.6L137.3 174.7H135.7L135.5 174.6L135.7 174.5Z" fill="#22576F"/>
<path d="M135.7 174.7H135.6L135.4 174.6L135.6 174.4H135.7L135.8 174.6L135.7 174.7Z" fill="#22576F"/>
<path d="M134.6 174.1H135.3L135.4 174.2L135.3 174.3H134.6L134.5 174.2L134.6 174.1Z" fill="#22576F"/>
<path d="M134.6 173.7H135.3L135.4 173.8L135.3 174H134.6L134.5 173.8L134.6 173.7Z" fill="#22576F"/>
<path d="M135.7 173.6H135.6L135.4 173.5L135.6 173.4H135.7L135.8 173.5L135.7 173.6Z" fill="#22576F"/>
<path d="M137.2 174.7V173.3L137.3 173.2L137.4 173.3V174.7L137.3 174.9L137.2 174.7Z" fill="#22576F"/>
<path d="M137.2 174.8V174.7L137.3 174.6L137.5 174.7V174.8L137.3 174.9L137.2 174.8Z" fill="#22576F"/>
<path d="M137.2 174.8V173.3L137.3 173.2L137.5 173.3V174.8L137.3 174.9L137.2 174.8Z" fill="#22576F"/>
<path d="M135.7 173.3H137.3L137.4 173.5L137.3 173.6H135.7L135.5 173.5L135.7 173.3Z" fill="#22576F"/>
<path d="M135.5 173.3L135.7 173.5L135.5 173.6L135.4 173.5L135.5 173.3Z" fill="#22576F"/>
<path d="M135.5 173.3L135.7 173.5L135.5 173.6L135.4 173.5L135.5 173.3Z" fill="#22576F"/>
<path d="M137.3 173.2L137.4 173.3L137.3 173.4L137.2 173.3L137.3 173.2Z" fill="#22576F"/>
<path d="M137.3 176.4V171.7L137.4 171.5L137.6 171.7V176.4L137.4 176.5L137.3 176.4Z" fill="#22576F"/>
<path d="M138.3 171.7V176.4L138.2 176.5L138 176.4V171.7L138.2 171.6L138.3 171.7Z" fill="#22576F"/>
<path d="M137.5 171.5H137.6L137.7 171.6L137.6 171.7H137.5L137.4 171.6L137.5 171.5Z" fill="#22576F"/>
<path d="M137.5 171.5H137.6L137.7 171.6L137.6 171.7H137.5L137.4 171.6L137.5 171.5Z" fill="#22576F"/>
<path d="M138.1 171.8L137.6 171.7L137.5 171.6L137.6 171.5L138.2 171.6L138.3 171.7L138.1 171.8Z" fill="#22576F"/>
<path d="M137.3 175.1C137.3 175 137.2 174.9 137.2 174.8L137.3 174.6L137.5 174.7C137.5 174.8 137.6 174.9 137.6 175L137.5 175.2L137.3 175.1Z" fill="#22576F"/>
<path d="M137.2 173.3C137.2 173.2 137.3 173.1 137.3 173L137.5 172.9L137.6 173.1C137.6 173.2 137.5 173.3 137.5 173.4L137.3 173.5L137.2 173.3Z" fill="#22576F"/>
<path d="M134.2 174H134.1C134.1 173.8 134.3 173.6 134.5 173.6C134.7 173.6 134.9 173.8 134.9 174C134.9 174.2 134.7 174.4 134.5 174.4C134.3 174.4 134.1 174.2 134.1 174H134.2H134.3L134.4 174.1L134.5 174L134.4 173.9L134.3 174H134.2Z" fill="#22576F"/>
<path d="M135.4 174.4L135.2 174.2L135.3 174.1C135.5 174.1 135.6 174.2 135.6 174.4L135.5 174.5L135.4 174.4Z" fill="#22576F"/>
<path d="M135.3 173.7L135.5 173.5L135.6 173.6C135.6 173.8 135.5 173.9 135.3 173.9L135.2 173.8L135.3 173.7Z" fill="#22576F"/>
<path d="M137.5 176.3L137.6 176.4V176.6H137.4V176.5V176.3H137.5Z" fill="#22576F"/>
<path d="M137.6 171.7H137.5H137.4V171.6V171.5H137.6V171.7Z" fill="#22576F"/>
<path d="M137.4 173.4H137.2V173.2H137.4V173.4Z" fill="#22576F"/>
<path d="M137.4 174.6V174.7V174.8H137.2V174.6H137.4Z" fill="#22576F"/>
<path d="M135.5 173.6V173.5V173.4H135.6V173.6H135.5Z" fill="#22576F"/>
<path d="M135.6 173.5V173.6H135.4V173.4H135.6V173.5Z" fill="#22576F"/>
<path d="M135.6 174.5V174.7H135.4V174.5H135.6Z" fill="#22576F"/>
<path d="M135.5 174.5H135.6V174.7H135.5V174.5Z" fill="#22576F"/>
<path d="M130.3 174H130.2C130.2 173.3 130.7 172.8 131.4 172.8C132.1 172.8 132.6 173.3 132.6 174C132.6 174.7 132.1 175.2 131.4 175.2C130.7 175.2 130.2 174.7 130.2 174H130.3H130.4C130.4 174.5 130.8 175 131.4 175C131.9 175 132.4 174.6 132.4 174C132.4 173.5 132 173 131.4 173C130.9 173 130.4 173.4 130.4 174H130.3Z" fill="#22576F"/>
<path d="M95 162.3V162.2H138.2H138.3V162.3V185.4V185.5H138.2H95H94.9V185.4V162.3V162.2H95V162.3H95.1V185.2H138V162.5H95V162.3H95.1H95Z" fill="#22576F"/>
<path d="M135.1 174.5V182.5L135 182.6H134.9H108.7L108.6 182.5L108.7 182.4H134.8V174.5L134.9 174.4L135.1 174.5Z" fill="#22576F"/>
<path d="M107.2 182.6H98L97.9 182.5V165.6L98 165.5H134.9H135L135.1 165.6V173.6L134.9 173.7L134.8 173.6V165.7H98.2V182.4H107.2L107.3 182.5L107.2 182.6Z" fill="#22576F"/>
<path d="M133.6 174.5V181.2V181.3L133.5 181.4H104.7L104.6 181.3V181.2V166.8V166.7H104.7H133.5H133.6V166.8V173.6L133.5 173.7L133.4 173.6V167H104.8V181.1H133.4V174.5L133.5 174.4L133.6 174.5Z" fill="#22576F"/>
<path d="M107.2 184.3H108.7L108.9 184.4L108.7 184.5H107.2L107 184.4L107.2 184.3Z" fill="#22576F"/>
<path d="M110.5 184.9H105.3L105.2 184.8L105.3 184.7H110.5L110.7 184.8L110.5 184.9Z" fill="#22576F"/>
<path d="M107.2 184.5C106.6 184.5 106 184.7 105.4 184.8L105.2 184.7L105.3 184.5C105.9 184.3 106.5 184.2 107.1 184.2L107.2 184.3V184.5Z" fill="#22576F"/>
<path d="M110.5 184.8C109.9 184.6 109.3 184.5 108.7 184.5L108.6 184.4L108.7 184.3C109.3 184.3 109.9 184.5 110.5 184.6L110.6 184.8H110.5Z" fill="#22576F"/>
<path d="M110.4 185V184.8L110.5 184.7L110.7 184.8V185L110.6 185.1L110.4 185Z" fill="#22576F"/>
<path d="M105.5 184.8L105.4 185L105.3 185.1L105.2 185V184.8L105.3 184.7L105.5 184.8Z" fill="#22576F"/>
<path d="M110.5 184.9L110.4 184.8V184.6H110.6V184.7V184.9H110.5Z" fill="#22576F"/>
<path d="M105.5 184.8L105.4 184.9H105.3L105.2 184.7L105.3 184.6H105.5V184.8Z" fill="#22576F"/>
<path d="M108.6 184.4V183.7L108.7 183.6L108.8 183.7V184.4L108.7 184.5L108.6 184.4Z" fill="#22576F"/>
<path d="M107.3 183.7V184.4L107.2 184.5L107 184.4V183.7L107.2 183.6L107.3 183.7Z" fill="#22576F"/>
<path d="M107.3 183.2H107.9L108.1 183.3L107.9 183.5H107.3L107.2 183.3L107.3 183.2Z" fill="#22576F"/>
<path d="M107.9 183.2L108.1 183.3L107.9 183.5L107.8 183.3L107.9 183.2Z" fill="#22576F"/>
<path d="M108.7 183.5H108.6L108.4 183.3L108.6 183.2H108.7L108.8 183.3L108.7 183.5Z" fill="#22576F"/>
<path d="M107.3 183.5H107.2L107.1 183.3L107.2 183.2H107.3L107.5 183.3L107.3 183.5Z" fill="#22576F"/>
<path d="M107.9 183.2H108.6L108.7 183.3L108.6 183.5H107.9L107.8 183.3L107.9 183.2Z" fill="#22576F"/>
<path d="M108.6 183.3L108.5 182.2L108.7 182.1L108.8 182.2V183.3L108.7 183.5L108.6 183.3Z" fill="#22576F"/>
<path d="M107.3 182.2V183.3L107.2 183.5L107.1 183.3V182.2L107.2 182.1L107.3 182.2Z" fill="#22576F"/>
<path d="M108.6 183.2H108.8V183.4H108.6V183.2Z" fill="#22576F"/>
<path d="M107.3 183.2V183.3V183.4H107.1V183.2H107.3Z" fill="#22576F"/>
<path d="M107.3 182.3H107.1V182.2V182.1H107.3V182.3Z" fill="#22576F"/>
<path d="M108.6 182.3V182.1H108.7L108.8 182.2V182.3H108.6Z" fill="#22576F"/>
<path d="M108.6 182.3C108.4 182.3 108.1 182.3 107.9 182.3C107.7 182.3 107.4 182.3 107.2 182.3L107.1 182.2L107.2 182.1C107.4 182.1 107.7 182.1 107.9 182.1C108.1 182.1 108.4 182.1 108.6 182.1L108.7 182.2L108.6 182.3Z" fill="#22576F"/>
<path d="M108.6 183.7C108.6 183.6 108.6 183.5 108.5 183.4V183.2H108.7C108.8 183.3 108.8 183.5 108.8 183.7L108.7 183.8L108.6 183.7Z" fill="#22576F"/>
<path d="M107.4 183.4C107.3 183.5 107.3 183.6 107.3 183.7L107.2 183.8L107.1 183.7C107.1 183.5 107.1 183.4 107.2 183.2H107.4V183.4Z" fill="#22576F"/>
<path d="M105.4 185V185.4L105.3 185.5L105.2 185.4V185L105.3 184.8L105.4 185Z" fill="#22576F"/>
<path d="M110.7 185V185.4L110.6 185.5L110.4 185.4V185L110.6 184.8L110.7 185Z" fill="#22576F"/>
<path d="M128.4 131.4H128.3C128.3 130.7 128.8 130.2 129.5 130.2C130.2 130.2 130.7 130.7 130.7 131.4C130.7 132.1 130.2 132.6 129.5 132.6C128.8 132.6 128.3 132.1 128.3 131.4H128.4H128.5C128.5 131.9 128.9 132.4 129.5 132.4C130 132.4 130.5 132 130.5 131.4C130.5 130.9 130.1 130.4 129.5 130.4C129 130.4 128.5 130.8 128.5 131.4H128.4Z" fill="#22576F"/>
<path d="M128.9 131.4H128.8C128.8 131 129.1 130.6 129.6 130.6C130 130.6 130.4 130.9 130.4 131.4C130.4 131.8 130.1 132.2 129.6 132.2C129.2 132.2 128.8 131.9 128.8 131.4H128.9H129C129 131.7 129.2 131.9 129.5 131.9C129.8 131.9 130 131.7 130 131.4C130 131.1 129.8 130.9 129.5 130.9C129.2 130.9 129 131.1 129 131.4H128.9Z" fill="#22576F"/>
<path d="M134.8 130.9C134.6 128.2 132.3 126.1 129.6 126.1C129.4 126.1 129.3 126.1 129.1 126.1C126.4 126.3 124.3 128.6 124.3 131.3C124.3 131.5 124.3 131.6 124.3 131.8C124.5 134.5 126.8 136.6 129.5 136.6C129.7 136.6 129.8 136.6 130 136.6C132.6 136.4 134.6 134.4 134.8 131.8L134.9 131.7L135 131.8C134.8 134.5 132.6 136.6 130 136.8C129.8 136.8 129.7 136.8 129.5 136.8C126.7 136.8 124.3 134.6 124 131.8C124 131.6 124 131.5 124 131.3C124 128.5 126.2 126.1 129 125.8C129.2 125.8 129.3 125.8 129.5 125.8C132.3 125.8 134.7 128 135 130.8L134.9 130.9H134.8Z" fill="#22576F"/>
<path d="M132.4 131.7H135.9L136 131.9L135.9 132H132.4L132.3 131.9L132.4 131.7Z" fill="#22576F"/>
<path d="M132.3 131.6L132.4 131.7L132.5 131.8L132.4 131.9C132.2 131.9 132 131.7 132 131.5L132.1 131.4L132.3 131.6Z" fill="#22576F"/>
<path d="M132.4 131.1L132.3 131.2L132.2 131.3L132.1 131.2C132.1 131 132.3 130.8 132.5 130.8L132.6 130.9L132.4 131.1Z" fill="#22576F"/>
<path d="M132.1 131.6V131.2L132.2 131.1L132.3 131.2V131.6L132.2 131.7L132.1 131.6Z" fill="#22576F"/>
<path d="M135.6 131L135.8 130.9H136V131.1C135.9 131.2 135.8 131.3 135.6 131.3L135.5 131.2L135.6 131Z" fill="#22576F"/>
<path d="M135.8 131.8L135.6 131.7L135.5 131.6L135.6 131.5C135.7 131.5 135.9 131.6 136 131.7V131.9L135.8 131.8Z" fill="#22576F"/>
<path d="M134 131.5H135.6L135.8 131.6L135.6 131.8H134L133.9 131.6L134 131.5Z" fill="#22576F"/>
<path d="M135.6 131.3H134L133.9 131.1L134 131H135.6L135.8 131.1L135.6 131.3Z" fill="#22576F"/>
<path d="M134.1 131.2L134 131.4H133.8V131.2L133.9 131.1H134.1V131.2Z" fill="#22576F"/>
<path d="M133.8 131.5V131.3L133.9 131.2L134 131.3V131.5L133.9 131.6L133.8 131.5Z" fill="#22576F"/>
<path d="M135.9 130.8H136.1L136.3 130.9L136.2 131.1C136.1 131.1 136 131.2 135.9 131.2L135.8 131.1L135.9 130.8Z" fill="#22576F"/>
<path d="M136.1 132H135.9L135.8 131.9L135.9 131.8C136 131.8 136.1 131.8 136.2 131.9L136.3 132.1L136.1 132Z" fill="#22576F"/>
<path d="M135.9 131.1H132.4L132.3 130.9L132.4 130.8H135.9L136 130.9L135.9 131.1Z" fill="#22576F"/>
<path d="M135.9 131.8C136 131.9 136.2 132 136.3 132C136.4 132 136.6 132 136.7 131.9C136.8 131.8 136.9 131.6 136.9 131.5C136.9 131.4 136.9 131.2 136.8 131.1C136.7 131 136.5 130.9 136.4 130.9C136.3 130.9 136.1 130.9 136 131H135.8V130.8C136 130.7 136.2 130.6 136.3 130.6C136.5 130.6 136.7 130.7 136.9 130.9C137 131.1 137.1 131.3 137.1 131.4C137.1 131.6 137 131.8 136.8 132C136.6 132.1 136.4 132.2 136.3 132.2C136.1 132.2 135.9 132.1 135.7 131.9V131.7L135.9 131.8Z" fill="#22576F"/>
<path d="M136 131.7C136.1 131.8 136.2 131.8 136.3 131.8C136.4 131.8 136.5 131.8 136.6 131.7C136.7 131.6 136.7 131.5 136.7 131.4C136.7 131.3 136.7 131.2 136.6 131.1C136.5 131 136.4 131 136.3 131C136.2 131 136.1 131 136 131.1V131L136.1 131.1H135.9V130.9C136 130.8 136.2 130.7 136.4 130.7C136.6 130.7 136.8 130.8 136.9 130.9C137 131 137.1 131.2 137.1 131.4C137.1 131.6 137 131.8 136.9 131.9C136.8 132 136.6 132.1 136.4 132.1C136.2 132.1 136 132 135.9 131.9V131.7H136Z" fill="#22576F"/>
<path d="M134 131.4L134.1 131.5V131.7H133.9L133.8 131.6V131.4H134Z" fill="#22576F"/>
<path d="M237.6 249.3H138.2H138.1L138 249.2V234.8L138.2 234.7L138.3 234.8V249.1H237.6L237.7 249.2L237.6 249.3Z" fill="#22576F"/>
<path d="M39.7 90.6V90.5H121.4V87.4H39.8V90.6H39.7V90.5V90.6H39.5V87.3L39.6 87.2H39.7H121.5H121.6V87.3V90.6V90.7L121.5 90.8H39.7L39.6 90.7L39.5 90.6H39.7Z" fill="#22576F"/>
<path d="M219.2 47.4V47.2H235.4L235.5 47.3V47.4V87.3V87.4H235.4H219.2H219.1V87.3V47.4V47.3L219.2 47.2V47.4H219.4V87.2H235.3V47.5H219.2V47.4H219.4H219.2Z" fill="#22576F"/>
<path d="M143.1 38.9V25.3H140.4V57.9H143.1V41.3L143.2 41.2L143.4 41.3V58.1L143.3 58.2H143.2H140.3H140.2L140.1 58.1V25.2L140.2 25.1H140.3H143.2H143.3L143.4 25.2V38.9L143.2 39L143.1 38.9Z" fill="#22576F"/>
<path d="M95 227.6V227.4H112.9V222.1H95.1V227.6H95V227.4V227.6H94.9V222V221.9H95H113.1H113.2V222V227.6V227.7H113.1H95H94.9V227.6H95Z" fill="#22576F"/>
<path d="M172.3 71.5V71.3H183.7V61.5H172.4V71.5H172.3V71.3V71.5H172.2V61.4V61.3H172.3H183.8H183.9V61.4V71.5V71.6H183.8H172.3H172.2V71.5H172.3Z" fill="#22576F"/>
<path d="M10.9 146.8V146.6H59V125.3H11V146.8H10.9V146.6V146.8H10.7V125.2L10.8 125.1H10.9H59.1H59.2V125.2V146.8V146.9H59.1H10.9H10.8L10.7 146.8H10.9Z" fill="#22576F"/>
<path d="M122 141.1V141H138V120.7H122.1V141.1H122V141V141.1H121.8V120.6L121.9 120.5H122H138.2H138.3V120.6V141.1V141.2H138.2H122H121.9L121.8 141.1H122Z" fill="#22576F"/>
<path d="M126 190.4V222L125.8 222.1L125.7 222V190.4L125.8 190.3L126 190.4Z" fill="#22576F"/>
<path d="M124.9 71.3H172.3L172.4 71.5L172.3 71.6H124.9L124.7 71.5L124.9 71.3Z" fill="#22576F"/>
<path d="M214.3 25.2V25.3H140.4V57.9H187.2V58L187.3 58.1V87.2H189.7H189.8V87.3V90.6V90.7L189.7 90.8H181.5L181.4 90.7V90.6V87.3V87.2H181.5H183.7V61.5H125V87.2H127.2H127.3V87.3V90.6V90.7L127.2 90.8H125V93.2H124.9V93.3H121.5L121.4 93.2V61.5H41.8H41.7V61.4V57.3L41.8 57.2H42.4V54.1V54H42.5H131.9V16.9V16.8H132H214.3H214.4V16.9V25.2V25.3H214.3V25.2H214.2V17.1H132.1V54.1V54.2H132H42.7V57.3L42.6 57.4L42.5 57.5H41.9V61.3H121.5H121.6V61.4V93H124.7V90.6L124.8 90.5H124.9H127V87.4H124.9H124.8L124.7 87.3V61.4L124.8 61.3H124.9H183.8H183.9V61.4V87.3V87.4H183.8H181.6V90.5H189.5V87.4H187.2H187.1L187 87.3V58.2H140.3H140.2L140.1 58.1V25.2L140.2 25.1H140.3H214.3V25.2H214.2H214.3Z" fill="#22576F"/>
<path d="M234.2 16.9V16.8H237.5V5.3V5.2L237.6 5.10001H249.1L249.2 5.2V5.3V58.5V58.6H249.1H243.5V231.5H249.1H249.2V231.6V264V264.1H249.1H237.6H237.5V264V193.4H234.3L234.2 193.3V190.2H233.6L233.5 190.1V190V186V185.9H233.6H235.3V90.8H211.3L211.2 90.7L211.1 90.6V87.3L211.2 87.2H211.3H235.3V25.3H234.2H234.1V25.2V16.9V16.8H234.2V16.9H234.3V25.1H235.4H235.5V25.2V87.3V87.4H235.4H211.4V90.5H235.4H235.5V90.6V186V186.1H235.4H233.7V189.9H234.3L234.4 190H234.5V193.2H237.6H237.7V193.3V263.9H249V231.7H243.3L243.2 231.6V58.5L243.3 58.4H249V5.39999H237.7V16.9V17L237.6 17.1H234.2V16.9H234.3H234.2Z" fill="#22576F"/>
<path d="M4.40002 264V263.9H15.8V231.6V231.5H15.9H16.5V227.7H10.9H10.8L10.7 227.6V150.1L10.8 150H10.9H64V120.6V120.5H64.1H66.5V117.4H56.7V120.5H59.1H59.2V120.6V146.8V146.9H59.1H10.9H10.8L10.7 146.8V120.6L10.8 120.5H10.9H13.3V117.4H10.9H10.8L10.7 117.3V61.4L10.8 61.3H10.9H19.7V57.5H19.1V57.4L19 57.3V54.2H15.9H15.8V54.1V5.39999H4.5V264H4.40002V263.9V264H4.29999V5.3V5.2L4.40002 5.10001H15.9L16 5.2V5.3V54H19.1H19.2L19.3 54.1V57.2H19.9L20 57.3V61.4V61.5H19.9H11V117.1H13.4L13.5 117.2V117.3V120.6V120.7H13.4H11V146.6H59V120.7H56.6H56.5L56.4 120.6V117.3L56.5 117.2L56.6 117.1H66.6L66.7 117.2L66.8 117.3V120.6L66.7 120.7H66.6H64.3V150.1L64.2 150.2H64.1H11V227.4H16.6L16.7 227.5L16.8 227.6V231.6L16.7 231.7H16.6H16V264V264.1H15.9H4.40002H4.29999V264H4.40002Z" fill="#22576F"/>
<path d="M91.5 234.8H91.4V231.7H90.9H90.8V231.6V227.6V227.5L90.9 227.4H91.5V213.6L91.6 213.5H91.7H95H95.1V213.6V227.4H112.9V222L113 221.9H113.1H135.8V190.5H95.1V192V192.1L95 192.2H91.7L91.6 192.1L91.5 192V146.1H91.6L91.7 146H95L95.1 146.1V185.2H138V120.7H95.1V123.1V123.2H95H91.7H91.6L91.5 123.1V120.7H88.2H88.1V120.6V117.3V117.2L88.2 117.1H121.4V114.7L121.5 114.6H124.9V114.7H125V117.1H143.2L143.3 117.2V117.3V234.8V234.9L143.2 235H91.5L91.4 234.9V234.8H91.5V234.7H143.1V117.4H124.9H124.8L124.7 117.3V114.9H121.6V117.3V117.4H121.5H88.4V120.5H91.7L91.8 120.6V123H94.9V120.6V120.5H95H138.2H138.3V120.6V185.4V185.5H138.2H95H94.9V185.4V146.3H91.8V191.9H94.9V190.4V190.3H95H135.9H136V190.4V222V222.1H135.9H113.2V227.6V227.7H113.1H95H94.9V227.6V213.7H91.8V227.6L91.7 227.7H91.1V231.5H91.5H91.6V231.6V234.8H91.5V234.7V234.8Z" fill="#22576F"/>
<path d="M151.8 90.6V90.5H156.7V87.4H152V90.6H151.8V90.5V90.6H151.7V87.3L151.8 87.2H156.8H156.9L157 87.3V90.6L156.9 90.7L156.8 90.8H151.8V90.7L151.7 90.6H151.8Z" fill="#22576F"/>
<path d="M41 74.3C41 73.6 40.4 73 39.7 73C39 73 38.4 73.6 38.4 74.3C38.4 75 39 75.6 39.7 75.6C40.4 75.6 41 75 41 74.3H41.1V74.4H39.7H39.6V74.3V74.2H39.7H83.4L80.6 73.2V74.3L80.5 74.4L80.4 74.3V73L80.5 72.9H80.6L84.2 74.2L84.3 74.3L84.2 74.4H39.8H39.7V74.3V74.2H39.8H41.2H41.3V74.3C41.3 75.2 40.6 75.9 39.7 75.9C38.8 75.9 38.1 75.2 38.1 74.3C38.1 73.4 38.8 72.7 39.7 72.7C40.6 72.7 41.3 73.4 41.3 74.3L41.2 74.4L41 74.3Z" fill="#22576F"/>
<path d="M39.4 188.4C39.4 188.8 39.2 189 38.9 189.1C39.3 189.2 39.6 189.4 39.6 189.9C39.6 190.4 39.1 190.8 38.5 190.8H37V187.7H38.3C39 187.6 39.4 187.9 39.4 188.4ZM39 188.4C39 188.1 38.8 187.9 38.3 187.9H37.4V189H38.3C38.7 189 39 188.8 39 188.4ZM39.2 189.8C39.2 189.5 38.9 189.3 38.4 189.3H37.4V190.4H38.4C38.9 190.4 39.2 190.2 39.2 189.8Z" fill="#22576F"/>
<path d="M42.8 187.9H40.9V189H42.6V189.3H40.9V190.4H42.8V190.7H40.5V187.6H42.8V187.9Z" fill="#22576F"/>
<path d="M44.8 190.7H43.7V187.6H44.8C45.8 187.6 46.5 188.3 46.5 189.2C46.5 190.1 45.8 190.7 44.8 190.7ZM44.8 187.9H44.1V190.4H44.8C45.6 190.4 46.1 189.9 46.1 189.2C46.1 188.5 45.6 187.9 44.8 187.9Z" fill="#22576F"/>
<path d="M49.6 190.7L48.7 189.5H47.8V190.7H47.4V187.6H48.7C49.4 187.6 49.8 188 49.8 188.5C49.8 189 49.4 189.3 49 189.4L50 190.7H49.6ZM48.8 187.9H47.8V189.2H48.8C49.3 189.2 49.6 189 49.6 188.6C49.6 188.2 49.3 187.9 48.8 187.9Z" fill="#22576F"/>
<path d="M52.3 190.8C51.4 190.8 50.7 190.1 50.7 189.2C50.7 188.3 51.3 187.6 52.3 187.6C53.2 187.6 53.9 188.3 53.9 189.2C53.9 190.1 53.3 190.8 52.3 190.8ZM52.3 187.9C51.6 187.9 51.1 188.5 51.1 189.2C51.1 189.9 51.6 190.5 52.3 190.5C53 190.5 53.5 189.9 53.5 189.2C53.5 188.5 53 187.9 52.3 187.9Z" fill="#22576F"/>
<path d="M56.3 190.8C55.4 190.8 54.7 190.1 54.7 189.2C54.7 188.3 55.3 187.6 56.3 187.6C57.2 187.6 57.9 188.3 57.9 189.2C57.9 190.1 57.3 190.8 56.3 190.8ZM56.3 187.9C55.6 187.9 55.1 188.5 55.1 189.2C55.1 189.9 55.6 190.5 56.3 190.5C57 190.5 57.5 189.9 57.5 189.2C57.5 188.5 57.1 187.9 56.3 187.9Z" fill="#22576F"/>
<path d="M60.4 189.9L59.2 188.2V190.7H58.9V187.6H59.3L60.4 189.3L61.5 187.6H61.9V190.7H61.5V188.2L60.4 189.9Z" fill="#22576F"/>
<path d="M186 136.7H185.2V137.8H184.8V134.7H186C186.7 134.7 187.2 135.1 187.2 135.7C187.2 136.3 186.6 136.7 186 136.7ZM186 135H185.2V136.4H186C186.5 136.4 186.9 136.1 186.9 135.7C186.8 135.2 186.5 135 186 135Z" fill="#22576F"/>
<path d="M190 137.8L189.1 136.6H188.2V137.8H187.8V134.7H189.1C189.8 134.7 190.2 135.1 190.2 135.6C190.2 136.1 189.8 136.4 189.4 136.5L190.4 137.8H190ZM189.2 135H188.2V136.3H189.2C189.7 136.3 190 136.1 190 135.7C190 135.2 189.7 135 189.2 135Z" fill="#22576F"/>
<path d="M191.5 134.7V137.8H191.1V134.7H191.5Z" fill="#22576F"/>
<path d="M194.7 134.7H195V137.8H194.7L192.7 135.2V137.8H192.4V134.7H192.7L194.7 137.2V134.7Z" fill="#22576F"/>
<path d="M197.3 137.8C196.4 137.8 195.7 137.1 195.7 136.2C195.7 135.3 196.4 134.6 197.3 134.6C197.9 134.6 198.2 134.8 198.5 135.1L198.3 135.4C198 135.2 197.7 135 197.3 135C196.6 135 196.1 135.6 196.1 136.3C196.1 137 196.6 137.6 197.3 137.6C197.7 137.6 198 137.4 198.3 137.2L198.5 137.4C198.2 137.6 197.9 137.8 197.3 137.8Z" fill="#22576F"/>
<path d="M199.6 134.7V137.8H199.2V134.7H199.6Z" fill="#22576F"/>
<path d="M201.6 136.7H200.8V137.8H200.4V134.7H201.6C202.3 134.7 202.8 135.1 202.8 135.7C202.8 136.3 202.3 136.7 201.6 136.7ZM201.6 135H200.8V136.4H201.6C202.1 136.4 202.5 136.1 202.5 135.7C202.5 135.2 202.1 135 201.6 135Z" fill="#22576F"/>
<path d="M206.4 137.8H206L205.6 137H203.9L203.5 137.8H203.1L204.5 134.7H204.8L206.4 137.8ZM204.8 135L204.1 136.6H205.5L204.8 135Z" fill="#22576F"/>
<path d="M207 134.7H207.4V137.5H209.2V137.8H207V134.7Z" fill="#22576F"/>
<path d="M186.5 140.4C186.5 140.8 186.3 141 186 141.1C186.4 141.2 186.7 141.4 186.7 141.9C186.7 142.4 186.3 142.8 185.6 142.8H184.2V139.7H185.5C186.1 139.6 186.5 139.9 186.5 140.4ZM186.2 140.5C186.2 140.2 186 140 185.5 140H184.6V141.1H185.5C185.9 141 186.2 140.8 186.2 140.5ZM186.4 141.9C186.4 141.6 186.1 141.4 185.6 141.4H184.6V142.5H185.6C186.1 142.4 186.4 142.2 186.4 141.9Z" fill="#22576F"/>
<path d="M190 140H188.1V141.1H189.8V141.4H188.1V142.5H190V142.8H187.7V139.7H190V140Z" fill="#22576F"/>
<path d="M192 142.8H190.9V139.7H192C193 139.7 193.7 140.4 193.7 141.3C193.7 142.2 193 142.8 192 142.8ZM192 140H191.3V142.5H192C192.8 142.5 193.3 142 193.3 141.3C193.3 140.5 192.8 140 192 140Z" fill="#22576F"/>
<path d="M196.8 142.8L195.9 141.6H195V142.8H194.6V139.7H195.9C196.6 139.7 197 140.1 197 140.6C197 141.1 196.6 141.4 196.2 141.5L197.2 142.8H196.8ZM195.9 140H194.9V141.3H195.9C196.4 141.3 196.7 141.1 196.7 140.7C196.7 140.2 196.4 140 195.9 140Z" fill="#22576F"/>
<path d="M199.5 142.8C198.6 142.8 197.9 142.1 197.9 141.2C197.9 140.3 198.5 139.6 199.5 139.6C200.4 139.6 201.1 140.3 201.1 141.2C201.1 142.1 200.4 142.8 199.5 142.8ZM199.5 139.9C198.8 139.9 198.3 140.5 198.3 141.2C198.3 141.9 198.8 142.5 199.5 142.5C200.2 142.5 200.7 141.9 200.7 141.2C200.7 140.5 200.2 139.9 199.5 139.9Z" fill="#22576F"/>
<path d="M203.5 142.8C202.6 142.8 201.9 142.1 201.9 141.2C201.9 140.3 202.5 139.6 203.5 139.6C204.4 139.6 205.1 140.3 205.1 141.2C205.1 142.1 204.5 142.8 203.5 142.8ZM203.5 139.9C202.8 139.9 202.3 140.5 202.3 141.2C202.3 141.9 202.8 142.5 203.5 142.5C204.2 142.5 204.7 141.9 204.7 141.2C204.7 140.5 204.2 139.9 203.5 139.9Z" fill="#22576F"/>
<path d="M207.6 141.9L206.4 140.2V142.7H206.1V139.6H206.5L207.6 141.3L208.7 139.6H209.1V142.7H208.7V140.2L207.6 141.9Z" fill="#22576F"/>
<path d="M180.7 218.2C180.7 218.6 180.5 218.8 180.2 218.9C180.6 219 180.9 219.2 180.9 219.7C180.9 220.2 180.4 220.6 179.8 220.6H178.4V217.5H179.7C180.3 217.4 180.7 217.7 180.7 218.2ZM180.4 218.2C180.4 217.9 180.2 217.7 179.7 217.7H178.8V218.8H179.7C180.1 218.8 180.4 218.6 180.4 218.2ZM180.5 219.6C180.5 219.3 180.2 219.1 179.7 219.1H178.7V220.2H179.7C180.2 220.2 180.5 220 180.5 219.6Z" fill="#22576F"/>
<path d="M184.7 220.5H184.3L183.9 219.7H182.2L181.8 220.5H181.4L182.8 217.4H183.1L184.7 220.5ZM183.1 217.8L182.4 219.4H183.8L183.1 217.8Z" fill="#22576F"/>
<path d="M185.5 217.4H185.9V220.2H187.7V220.5H185.6V217.4H185.5Z" fill="#22576F"/>
<path d="M189.8 220.5C188.9 220.5 188.2 219.8 188.2 218.9C188.2 218 188.9 217.3 189.8 217.3C190.4 217.3 190.7 217.5 191 217.8L190.8 218.1C190.5 217.9 190.2 217.7 189.8 217.7C189.1 217.7 188.6 218.3 188.6 219C188.6 219.7 189.1 220.3 189.8 220.3C190.2 220.3 190.5 220.1 190.8 219.9L191 220.1C190.7 220.3 190.4 220.5 189.8 220.5Z" fill="#22576F"/>
<path d="M193.3 220.5C192.4 220.5 191.7 219.8 191.7 218.9C191.7 218 192.3 217.3 193.3 217.3C194.2 217.3 194.9 218 194.9 218.9C194.9 219.8 194.2 220.5 193.3 220.5ZM193.3 217.6C192.6 217.6 192.1 218.2 192.1 218.9C192.1 219.6 192.6 220.2 193.3 220.2C194 220.2 194.5 219.6 194.5 218.9C194.5 218.2 194 217.6 193.3 217.6Z" fill="#22576F"/>
<path d="M198.2 217.4H198.5V220.5H198.2L196.2 217.9V220.5H195.9V217.4H196.2L198.2 219.9V217.4Z" fill="#22576F"/>
<path d="M201 220.5H200.6V219.3L199.3 217.4H199.7L200.8 219L201.9 217.4H202.3L201 219.3V220.5Z" fill="#22576F"/>
<path d="M194.4 56.4H192.5V57.5H194.2V57.8H192.5V58.9H194.4V59.2H192.1V56.1H194.4V56.4Z" fill="#22576F"/>
<path d="M197.7 56.1H198V59.2H197.7L195.7 56.6V59.2H195.4V56.1H195.7L197.7 58.6V56.1Z" fill="#22576F"/>
<path d="M200.3 57.5C201 57.7 201.3 57.9 201.3 58.4C201.3 58.9 200.9 59.3 200.2 59.3C199.7 59.3 199.3 59.1 198.9 58.8L199.1 58.5C199.4 58.8 199.7 58.9 200.2 58.9C200.6 58.9 200.9 58.7 200.9 58.4C200.9 58.1 200.7 57.9 200.1 57.8C199.4 57.6 199.1 57.4 199.1 56.9C199.1 56.4 199.5 56 200.1 56C200.6 56 200.9 56.1 201.2 56.4L201 56.7C200.7 56.5 200.4 56.4 200.1 56.4C199.7 56.4 199.4 56.6 199.4 56.9C199.4 57.1 199.6 57.3 200.3 57.5Z" fill="#22576F"/>
<path d="M204.8 57.9C204.8 58.8 204.3 59.3 203.5 59.3C202.7 59.3 202.2 58.8 202.2 57.9V56.1H202.6V57.9C202.6 58.6 203 59 203.6 59C204.2 59 204.5 58.7 204.5 58V56.2H204.9V57.9H204.8Z" fill="#22576F"/>
<path d="M206.3 56.1V59.2H205.9V56.1H206.3Z" fill="#22576F"/>
<path d="M208.5 59.2H208.1V56.4H207.1V56.1H209.6V56.4H208.6V59.2H208.5Z" fill="#22576F"/>
<path d="M212.7 56.4H210.8V57.5H212.5V57.8H210.8V58.9H212.7V59.2H210.4V56.1H212.7V56.4Z" fill="#22576F"/>
<path d="M98.3 147.6H96.4V148.7H98.1V149H96.4V150.1H98.3V150.4H96V147.3H98.3V147.6Z" fill="#22576F"/>
<path d="M101.6 147.2H101.9V150.3H101.6L99.6 147.7V150.3H99.3V147.2H99.6L101.6 149.7V147.2Z" fill="#22576F"/>
<path d="M104.2 148.6C104.9 148.8 105.2 149 105.2 149.5C105.2 150 104.8 150.4 104.1 150.4C103.6 150.4 103.2 150.2 102.8 149.9L103 149.6C103.3 149.9 103.6 150 104.1 150C104.5 150 104.8 149.8 104.8 149.5C104.8 149.2 104.6 149 104 148.9C103.3 148.7 103 148.5 103 148C103 147.5 103.4 147.1 104 147.1C104.5 147.1 104.8 147.2 105.1 147.5L104.9 147.8C104.6 147.6 104.3 147.5 104 147.5C103.6 147.5 103.3 147.7 103.3 148C103.3 148.3 103.5 148.5 104.2 148.6Z" fill="#22576F"/>
<path d="M108.7 149C108.7 149.9 108.2 150.4 107.4 150.4C106.6 150.4 106.1 149.9 106.1 149V147.2H106.5V149C106.5 149.7 106.9 150.1 107.5 150.1C108.1 150.1 108.4 149.8 108.4 149.1V147.3H108.8V149H108.7Z" fill="#22576F"/>
<path d="M110.2 147.2V150.3H109.8V147.2H110.2Z" fill="#22576F"/>
<path d="M112.4 150.4H112V147.6H111V147.3H113.5V147.6H112.5V150.4H112.4Z" fill="#22576F"/>
<path d="M116.6 147.6H114.7V148.7H116.4V149H114.7V150.1H116.6V150.4H114.3V147.3H116.6V147.6Z" fill="#22576F"/>
<path d="M182.2 118.7H181.8L180.6 117.2L179.9 117.9V118.7H179.5V115.6H179.9V117.5L181.7 115.6H182.2L180.9 117L182.2 118.7Z" fill="#22576F"/>
<path d="M174.4 65.1H174.8V67.9H176.6V68.2H174.5V65.1H174.4Z" fill="#22576F"/>
<path d="M177.8 65.1V68.2H177.4V65.1H177.8Z" fill="#22576F"/>
<path d="M181.2 65.1H181.5V68.2H181.2L179.2 65.6V68.2H178.9V65.1H179.2L181.2 67.6V65.1Z" fill="#22576F"/>
<path d="M25 132.9H23.9V129.8H25C26 129.8 26.7 130.5 26.7 131.4C26.7 132.3 26 132.9 25 132.9ZM25 130.1H24.3V132.6H25C25.8 132.6 26.3 132.1 26.3 131.4C26.3 130.7 25.8 130.1 25 130.1Z" fill="#22576F"/>
<path d="M45.5 129.8H45.8L46.7 132.4L47.6 129.8H48L46.9 132.9H46.6L45.7 130.4L44.8 132.9H44.5L43.4 129.8H43.8L44.7 132.4L45.5 129.8Z" fill="#22576F"/>
<path d="M30.5 75.7H29.4V72.6H30.5C31.5 72.6 32.2 73.3 32.2 74.2C32.2 75.1 31.5 75.7 30.5 75.7ZM30.5 72.9H29.8V75.4H30.5C31.3 75.4 31.8 74.9 31.8 74.2C31.8 73.4 31.3 72.9 30.5 72.9Z" fill="#22576F"/>
<path d="M35.5 72.6H35.8V75.7H35.5L33.5 73.1V75.7H33.2V72.6H33.5L35.5 75.1V72.6Z" fill="#22576F"/>
</g>
<defs>
<clipPath id="clip0_0_1">
<rect width="871.2" height="487.3" fill="white" transform="translate(-622 -150)"/>
</clipPath>
</defs>
</svg>
