<?xml version="1.0" encoding="utf-8"?>
<!-- Generator: Adobe Illustrator 25.0.1, SVG Export Plug-In . SVG Version: 6.00 Build 0)  -->
<svg version="1.1" id="Layer_1" xmlns="http://www.w3.org/2000/svg" xmlns:xlink="http://www.w3.org/1999/xlink" x="0px" y="0px"
	 viewBox="0 0 208.69 278.65" style="enable-background:new 0 0 208.69 278.65;" xml:space="preserve">
<style type="text/css">
	.st0{fill:none;stroke:#92A0B1;stroke-width:0.24;stroke-linejoin:round;stroke-miterlimit:10;}
	.st1{fill:none;stroke:#00516B;stroke-width:0.25;stroke-linecap:round;stroke-linejoin:round;stroke-miterlimit:10;}
	
		.st2{fill:none;stroke:#00516B;stroke-width:0.25;stroke-linecap:round;stroke-linejoin:round;stroke-miterlimit:10;stroke-dasharray:4,2;}
	.st3{fill-rule:evenodd;clip-rule:evenodd;fill:#00516B;}
	.st4{fill:#00516B;}
</style>
<g>
	<path class="st0" d="M66.28,120.46c-0.82-2.72-0.82-5.63,0-8.35l-5.18-5.18c0.85-2.33,2.22-4.4,3.96-6.08
		c1.61-1.55,3.53-2.77,5.67-3.55l5.18,5.18c2.72-0.82,5.63-0.82,8.35,0l5.18-5.18c4.47,1.64,8,5.16,9.64,9.64l-5.18,5.18
		c0.82,2.72,0.82,5.63,0,8.35l5.18,5.18c-1.64,4.47-5.16,8-9.64,9.64l-5.18-5.18c-2.72,0.82-5.63,0.82-8.35,0l-5.18,5.18
		c-4.47-1.64-8-5.16-9.64-9.64L66.28,120.46z"/>
	<path class="st0" d="M132.95,149.88c0,2.6,0.31,5.19,0.92,7.72c0.5,2.07,1.3,4.05,2.37,5.88c1.01,1.73,2.38,3.22,4.01,4.38
		c1.15,0.82,2.52,1.25,3.93,1.25c1.41,0,2.78-0.44,3.93-1.25c1.63-1.16,3-2.65,4.01-4.38c1.07-1.83,1.87-3.82,2.37-5.88
		c0.61-2.53,0.92-5.12,0.92-7.72c0-2.6-0.31-5.19-0.92-7.72c-0.5-2.07-1.3-4.05-2.37-5.88c-1.01-1.73-2.38-3.22-4.01-4.38
		c-1.15-0.82-2.52-1.25-3.93-1.25c-1.41,0-2.78,0.44-3.93,1.25c-1.63,1.16-3,2.65-4.01,4.38c-1.07,1.83-1.87,3.82-2.37,5.88
		C133.26,144.69,132.95,147.28,132.95,149.88z"/>
	<path class="st0" d="M33.2,45.8v-6.22h-3.71v2.51H18.97V13.01h10.52v2.51h3.71l-1.22,0.7l12.03,20.83l1.21-0.7L33.2,15.52v-2.51
		h36.68v28.86h1.4V13.01h2.71v35.83l1.85,0v27.26h-1.85v6.51h34.97v23.75h6.51v-1.4h19.24v-1.4h-19.24v-0.9h-2.81v-8.82h43.99v8.82
		h-2.71v2.3h-19.24v1.4h66.24v16.22h-15.43c0.26-0.18,0.42-0.47,0.43-0.79c-0.03-0.16-0.14-0.28-0.3-0.33
		c-0.37-0.17-0.77-0.28-1.17-0.33c-0.56-0.08-1.12-0.12-1.69-0.12H167.5c-0.57,0-1.13,0.04-1.69,0.12c-0.4,0.05-0.8,0.17-1.17,0.33
		c-0.15,0.05-0.26,0.18-0.29,0.33c0.01,0.24,0.1,0.47,0.27,0.64c0.05,0.05,0.11,0.1,0.16,0.15h-1.22c-0.43,0-0.79,0.35-0.79,0.79
		v53.03c0,0.44,0.35,0.79,0.79,0.79h1.22c-0.06,0.05-0.11,0.1-0.16,0.15c-0.17,0.17-0.26,0.4-0.27,0.64
		c0.03,0.16,0.15,0.28,0.29,0.33c0.37,0.17,0.77,0.28,1.17,0.33c0.56,0.08,1.13,0.12,1.69,0.12h15.31c0.57,0,1.13-0.04,1.69-0.12
		c0.4-0.05,0.8-0.17,1.17-0.33c0.15-0.05,0.26-0.18,0.3-0.33c-0.01-0.32-0.17-0.61-0.43-0.79h15.43v16.22h-85.18v-10.72h-9.66v-0.39
		h-2.17v-5.71l1.06-1.83l2.69,1.55l0.2-0.34l9.92,5.73l0.79-1.37l-25.56-14.76l-0.79,1.37l9.92,5.73l-0.2,0.34l2.69,1.55l-1.11,1.92
		v5.82h-2.17v0.39h-9.66v15.23H59.65v-4.51H34.8v-1.5h-1.6v-4.21l4.81-8.33l-0.87-0.5l-4.81,8.33l0.87,0.5h-1v-19.24h1l-0.87,0.5
		l4.81,8.33l0.87-0.5l-4.81-8.33v-4.21h-4.01v-2.91h0.88v-15.03h-0.88v-42.2h1.3V86.39h-1.3V65.04h1.8v-0.8h-1.8V45.8H33.2z"/>
	<rect x="186.92" y="178.58" class="st0" width="12.83" height="13.63"/>
	<rect x="186.92" y="107.56" class="st0" width="12.83" height="13.63"/>
	<line class="st0" x1="21.17" y1="42.09" x2="21.17" y2="13.01"/>
	<line class="st0" x1="27.18" y1="42.09" x2="27.18" y2="13.01"/>
	<line class="st0" x1="33.2" y1="185.69" x2="33.2" y2="170.46"/>
	<line class="st0" x1="33.2" y1="39.57" x2="33.2" y2="18.33"/>
	<line class="st0" x1="33.2" y1="164.25" x2="33.2" y2="45.8"/>
	<line class="st0" x1="39.21" y1="193.41" x2="39.21" y2="28.74"/>
	<line class="st0" x1="39.21" y1="25.94" x2="39.21" y2="13.01"/>
	<line class="st0" x1="45.22" y1="193.41" x2="45.22" y2="13.01"/>
	<line class="st0" x1="51.23" y1="193.41" x2="51.23" y2="13.01"/>
	<line class="st0" x1="57.25" y1="193.41" x2="57.25" y2="13.01"/>
	<line class="st0" x1="63.26" y1="197.92" x2="63.26" y2="129.65"/>
	<line class="st0" x1="63.26" y1="102.91" x2="63.26" y2="13.01"/>
	<line class="st0" x1="63.26" y1="123.48" x2="63.26" y2="109.08"/>
	<line class="st0" x1="69.27" y1="197.92" x2="69.27" y2="134.65"/>
	<line class="st0" x1="69.27" y1="97.91" x2="69.27" y2="13.01"/>
	<line class="st0" x1="75.28" y1="197.92" x2="75.28" y2="130.73"/>
	<line class="st0" x1="75.28" y1="76.1" x2="75.28" y2="48.84"/>
	<line class="st0" x1="75.28" y1="101.83" x2="75.28" y2="82.61"/>
	<line class="st0" x1="81.3" y1="197.92" x2="81.3" y2="130.66"/>
	<line class="st0" x1="81.3" y1="101.9" x2="81.3" y2="82.61"/>
	<line class="st0" x1="87.31" y1="197.92" x2="87.31" y2="133.13"/>
	<line class="st0" x1="87.31" y1="99.43" x2="87.31" y2="82.61"/>
	<line class="st0" x1="93.32" y1="182.69" x2="93.32" y2="167.55"/>
	<line class="st0" x1="93.32" y1="99.34" x2="93.32" y2="82.61"/>
	<line class="st0" x1="93.32" y1="165.73" x2="93.32" y2="133.22"/>
	<line class="st0" x1="99.34" y1="182.69" x2="99.34" y2="171.02"/>
	<line class="st0" x1="99.34" y1="169.2" x2="99.34" y2="82.61"/>
	<line class="st0" x1="105.35" y1="182.29" x2="105.35" y2="174.95"/>
	<line class="st0" x1="105.35" y1="172.67" x2="105.35" y2="82.61"/>
	<line class="st0" x1="111.36" y1="182.69" x2="111.36" y2="177.97"/>
	<line class="st0" x1="111.36" y1="176.14" x2="111.36" y2="106.36"/>
	<line class="st0" x1="117.37" y1="193.41" x2="117.37" y2="181.44"/>
	<line class="st0" x1="117.37" y1="103.55" x2="117.37" y2="93.83"/>
	<line class="st0" x1="117.37" y1="179.62" x2="117.37" y2="104.96"/>
	<line class="st0" x1="123.39" y1="193.41" x2="123.39" y2="104.96"/>
	<line class="st0" x1="123.39" y1="103.55" x2="123.39" y2="93.83"/>
	<line class="st0" x1="129.4" y1="193.41" x2="129.4" y2="104.96"/>
	<line class="st0" x1="129.4" y1="103.55" x2="129.4" y2="93.83"/>
	<line class="st0" x1="135.41" y1="193.41" x2="135.41" y2="161.94"/>
	<line class="st0" x1="135.41" y1="104.96" x2="135.41" y2="93.83"/>
	<line class="st0" x1="135.41" y1="137.83" x2="135.41" y2="106.36"/>
	<line class="st0" x1="141.43" y1="193.41" x2="141.43" y2="168.55"/>
	<line class="st0" x1="141.43" y1="104.96" x2="141.43" y2="93.83"/>
	<line class="st0" x1="141.43" y1="131.22" x2="141.43" y2="106.36"/>
	<line class="st0" x1="147.44" y1="193.41" x2="147.44" y2="168.29"/>
	<line class="st0" x1="147.44" y1="104.96" x2="147.44" y2="93.83"/>
	<line class="st0" x1="147.44" y1="131.48" x2="147.44" y2="106.36"/>
	<line class="st0" x1="153.45" y1="193.41" x2="153.45" y2="160.77"/>
	<line class="st0" x1="153.45" y1="104.96" x2="153.45" y2="93.83"/>
	<line class="st0" x1="153.45" y1="139" x2="153.45" y2="106.36"/>
	<line class="st0" x1="159.46" y1="193.41" x2="159.46" y2="106.36"/>
	<line class="st0" x1="165.48" y1="193.41" x2="165.48" y2="178.59"/>
	<line class="st0" x1="165.48" y1="121.18" x2="165.48" y2="106.36"/>
	<line class="st0" x1="171.49" y1="193.41" x2="171.49" y2="178.77"/>
	<line class="st0" x1="171.49" y1="121" x2="171.49" y2="106.36"/>
	<line class="st0" x1="177.5" y1="193.41" x2="177.5" y2="178.77"/>
	<line class="st0" x1="177.5" y1="121" x2="177.5" y2="106.36"/>
	<line class="st0" x1="183.52" y1="193.41" x2="183.52" y2="178.75"/>
	<line class="st0" x1="183.52" y1="121.02" x2="183.52" y2="106.36"/>
	<line class="st0" x1="189.53" y1="193.41" x2="189.53" y2="192.21"/>
	<line class="st0" x1="189.53" y1="107.56" x2="189.53" y2="106.36"/>
	<line class="st0" x1="189.53" y1="178.58" x2="189.53" y2="177.19"/>
	<line class="st0" x1="189.53" y1="122.58" x2="189.53" y2="121.19"/>
	<line class="st0" x1="195.54" y1="193.41" x2="195.54" y2="192.21"/>
	<line class="st0" x1="195.54" y1="107.56" x2="195.54" y2="106.36"/>
	<line class="st0" x1="195.54" y1="178.58" x2="195.54" y2="177.19"/>
	<line class="st0" x1="195.54" y1="122.58" x2="195.54" y2="121.19"/>
</g>
<polygon class="st1" points="0.12,220.8 0.12,6.2 42.41,6.2 42.41,13.01 33.19,13.01 33.19,15.52 29.49,15.52 29.49,13.01 
	7.74,13.01 7.74,42.09 29.49,42.09 29.49,39.57 33.19,39.57 33.19,45.8 9.14,45.8 9.14,191.91 34.8,191.91 34.8,197.92 34,197.92 
	34,201.53 9.04,201.53 9.04,220.8 "/>
<polygon class="st1" points="81.6,6.2 71.28,6.2 71.28,13.01 73.98,13.01 73.98,48.84 77.69,48.84 77.69,27.49 129.4,27.49 
	129.4,30.8 156.66,30.8 156.66,78.9 77.69,78.9 77.69,76.09 73.98,76.09 73.98,82.61 108.96,82.61 108.96,106.36 115.47,106.36 
	115.47,102.65 112.66,102.65 112.66,82.61 156.66,82.61 156.66,102.65 153.95,102.65 153.95,106.36 200.95,106.36 200.95,193.41 
	189.43,193.41 189.43,197.92 190.23,197.92 190.23,201.53 208.57,201.53 208.57,98.74 164.27,98.74 164.27,19.87 81.6,19.87 "/>
<polygon class="st1" points="92.52,201.53 92.52,197.92 91.72,197.92 91.72,182.69 115.77,182.69 115.77,193.41 128.39,193.41 
	128.39,197.92 127.58,197.92 127.58,201.53 "/>
<polyline class="st1" points="2.53,220.8 2.53,278.53 206.46,278.53 206.46,201.53 "/>
<rect x="9.14" y="65.84" class="st1" width="20.04" height="0.8"/>
<rect x="9.14" y="45.8" class="st1" width="20.04" height="0.8"/>
<polygon class="st1" points="9.14,164.25 33.2,164.25 33.2,168.46 32.19,168.46 32.19,165.25 9.14,165.25 "/>
<polygon class="st1" points="33.2,187.7 32.19,187.7 32.19,190.9 9.14,190.9 9.14,191.91 33.2,191.91 "/>
<rect x="34.67" y="168.06" transform="matrix(0.866 -0.5 0.5 0.866 -81.7196 40.7387)" class="st1" width="1" height="9.62"/>
<rect x="30.36" y="182.78" transform="matrix(0.5 -0.866 0.866 0.5 -141.1457 122.103)" class="st1" width="9.62" height="1"/>
<line class="st1" x1="29.19" y1="66.64" x2="29.19" y2="164.25"/>
<line class="st1" x1="18.96" y1="13.01" x2="18.96" y2="42.09"/>
<line class="st1" x1="156.66" y1="93.83" x2="112.66" y2="93.83"/>
<rect x="77.69" y="27.49" class="st1" width="28.86" height="18.04"/>
<rect x="126.74" y="56.25" transform="matrix(0.866 -0.5 0.5 0.866 -16.7045 72.5551)" class="st1" width="0.6" height="22.4"/>
<line class="st1" x1="131.06" y1="78.9" x2="131.06" y2="75.02"/>
<line class="st1" x1="131.06" y1="73.82" x2="131.06" y2="30.8"/>
<polyline class="st1" points="132.38,78.9 132.38,77.3 132.98,77.3 132.98,78.9 "/>
<rect x="132.38" y="30.8" class="st1" width="0.6" height="24.1"/>
<line class="st1" x1="143.43" y1="30.91" x2="143.43" y2="33"/>
<line class="st1" x1="143.43" y1="33" x2="144.23" y2="33"/>
<line class="st1" x1="144.23" y1="33" x2="144.23" y2="30.91"/>
<line class="st1" x1="143.33" y1="30.8" x2="143.33" y2="30.91"/>
<line class="st1" x1="143.33" y1="30.91" x2="144.33" y2="30.91"/>
<line class="st1" x1="144.33" y1="30.91" x2="144.33" y2="30.8"/>
<line class="st1" x1="142.01" y1="33.13" x2="144.89" y2="33.13"/>
<line class="st1" x1="146" y1="32.96" x2="146" y2="32.37"/>
<line class="st1" x1="146" y1="32.37" x2="144.23" y2="32.37"/>
<line class="st1" x1="143.43" y1="32.37" x2="142.01" y2="32.37"/>
<line class="st1" x1="142.01" y1="32.37" x2="142.01" y2="33.13"/>
<line class="st1" x1="142.76" y1="33.13" x2="142.76" y2="32.37"/>
<g>
	<path class="st1" d="M144.21,34.2c-0.06,0.59,0.48,1.11,1.21,1.16c0.73,0.05,1.37-0.39,1.43-0.98c0.01-0.06,0.01-0.12,0-0.18"/>
	<path class="st1" d="M145.54,33.04c-0.73,0-1.33,0.48-1.33,1.07c0,0.59,0.59,1.08,1.32,1.08c0.73,0,1.33-0.48,1.33-1.07
		C146.86,33.53,146.27,33.04,145.54,33.04z"/>
	<path class="st1" d="M144.76,33.24c0.04-0.03,0.08-0.07,0.12-0.1c0.08-0.07,0.16-0.14,0.22-0.23c0.04-0.06,0.06-0.12,0.07-0.19
		c0-0.03,0.01-0.06,0.01-0.09"/>
	<path class="st1" d="M146.31,33.24c-0.04-0.03-0.08-0.07-0.12-0.1c-0.08-0.07-0.16-0.14-0.22-0.24c-0.03-0.06-0.06-0.12-0.07-0.19
		c0-0.03-0.01-0.06-0.01-0.09"/>
	<path class="st1" d="M145.89,32.63c-0.08-0.2-0.31-0.29-0.51-0.2c-0.09,0.04-0.16,0.11-0.2,0.2"/>
	<line class="st1" x1="143.33" y1="30.8" x2="144.33" y2="30.8"/>
	<path class="st1" d="M142.99,38.34c0-1.03,0.84-1.87,1.87-1.87c1.03,0,1.87,0.84,1.87,1.87c0,1.03-0.84,1.87-1.87,1.87
		C143.83,40.21,142.99,39.37,142.99,38.34z"/>
	<line class="st1" x1="134.27" y1="30.8" x2="134.27" y2="78.9"/>
	<line class="st1" x1="143.43" y1="32" x2="134.27" y2="32"/>
	<polyline class="st1" points="134.27,77.7 155.46,77.7 155.46,65.33 	"/>
	<polyline class="st1" points="155.46,63.61 155.46,32 144.23,32 	"/>
	<path class="st1" d="M132.38,54.9c-3.93,0-7.79,1.04-11.2,3"/>
	<line class="st1" x1="155.59" y1="63.59" x2="155.59" y2="65.35"/>
	<line class="st1" x1="156" y1="67.38" x2="156" y2="61.56"/>
	<path class="st1" d="M155.94,61.61c-0.18,0.65-0.29,1.31-0.35,1.98"/>
	<path class="st1" d="M155.59,65.35c0.05,0.67,0.17,1.34,0.35,1.98"/>
	<line class="st1" x1="156.21" y1="67.39" x2="156" y2="67.38"/>
	<line class="st1" x1="156" y1="61.56" x2="156.21" y2="61.55"/>
	<path class="st1" d="M155.94,67.33c0.01,0.03,0.03,0.05,0.06,0.05"/>
	<path class="st1" d="M156,61.56c-0.03,0-0.05,0.02-0.06,0.05"/>
	<line class="st1" x1="155.59" y1="65.33" x2="154.83" y2="65.33"/>
	<line class="st1" x1="154.83" y1="63.61" x2="155.59" y2="63.61"/>
	<line class="st1" x1="154.4" y1="63.79" x2="154.4" y2="64.46"/>
	<line class="st1" x1="154.4" y1="64.46" x2="154.4" y2="64.48"/>
	<line class="st1" x1="154.4" y1="65.3" x2="154.4" y2="65.15"/>
	<line class="st1" x1="154.4" y1="63.79" x2="154.4" y2="63.64"/>
	<line class="st1" x1="154.4" y1="64.48" x2="154.4" y2="65.15"/>
	<line class="st1" x1="154.39" y1="65.31" x2="153.17" y2="65.29"/>
	<line class="st1" x1="153.17" y1="63.65" x2="154.39" y2="63.63"/>
	<path class="st1" d="M154.39,65.31C154.39,65.31,154.4,65.31,154.39,65.31"/>
	<path class="st1" d="M154.4,63.64c0,0,0-0.01-0.01-0.01"/>
	<path class="st1" d="M153.17,63.65c-0.01,0-0.02,0.01-0.02,0.02"/>
	<path class="st1" d="M153.15,65.26c0,0.01,0.01,0.02,0.02,0.02"/>
	<path class="st1" d="M153.15,63.68c-0.02,0.53-0.02,1.06,0,1.59"/>
	<path class="st1" d="M154.4,65.21c0.13,0.08,0.28,0.12,0.44,0.12"/>
	<path class="st1" d="M154.83,63.61c-0.15,0-0.31,0.04-0.44,0.12"/>
	<line class="st1" x1="156.21" y1="61.55" x2="156.66" y2="61.55"/>
	<line class="st1" x1="156.21" y1="67.39" x2="156.66" y2="67.39"/>
	<rect x="27.58" y="46.6" class="st1" width="1.6" height="19.24"/>
	<rect x="29.19" y="64.24" class="st1" width="1.8" height="0.8"/>
	<line class="st1" x1="10.75" y1="46.6" x2="10.75" y2="65.84"/>
	<polyline class="st1" points="13.35,134.65 13.35,124.96 27.78,124.96 27.78,143.4 13.35,143.4 13.35,135.57 	"/>
	<path class="st1" d="M12.55,134.18c0-0.44-0.36-0.8-0.8-0.8c-0.44,0-0.8,0.36-0.8,0.8c0,0.44,0.36,0.8,0.8,0.8
		c0.14,0,0.28-0.04,0.4-0.11"/>
	<line class="st1" x1="12.55" y1="134.18" x2="18.2" y2="137.44"/>
	<line class="st1" x1="12.15" y1="134.88" x2="17.8" y2="138.14"/>
	<path class="st1" d="M17.8,138.14c0.19,0.11,0.44,0.05,0.55-0.15c0.11-0.19,0.05-0.44-0.15-0.55"/>
	<line class="st1" x1="11.15" y1="133.65" x2="11.15" y2="132.58"/>
	<line class="st1" x1="12.35" y1="133.65" x2="12.35" y2="132.98"/>
	<line class="st1" x1="12.35" y1="132.58" x2="11.15" y2="132.58"/>
	<line class="st1" x1="11.95" y1="132.78" x2="13.05" y2="132.78"/>
	<line class="st1" x1="11.95" y1="132.98" x2="13.05" y2="132.98"/>
	<line class="st1" x1="13.05" y1="132.98" x2="13.05" y2="132.78"/>
	<line class="st1" x1="11.95" y1="132.98" x2="11.95" y2="132.78"/>
	<line class="st1" x1="12.35" y1="132.78" x2="12.35" y2="132.58"/>
	<line class="st1" x1="15.07" y1="135.64" x2="14.67" y2="136.33"/>
	<path class="st1" d="M16.16,134.18c0-0.66,0.54-1.2,1.2-1.2c0.66,0,1.2,0.54,1.2,1.2c0,0.66-0.54,1.2-1.2,1.2
		C16.7,135.39,16.16,134.85,16.16,134.18z"/>
	<polyline class="st1" points="29.19,160.94 29.87,160.94 29.87,146.71 29.19,146.71 	"/>
	<polyline class="st1" points="29.19,161.34 30.07,161.34 30.07,146.31 29.19,146.31 	"/>
	<line class="st1" x1="27.78" y1="86.31" x2="27.78" y2="104.19"/>
	<line class="st1" x1="11.35" y1="86.31" x2="11.35" y2="104.19"/>
	<line class="st1" x1="27.5" y1="104.47" x2="11.63" y2="104.47"/>
	<line class="st1" x1="27.5" y1="86.03" x2="11.63" y2="86.03"/>
	<path class="st1" d="M27.5,104.47c0.15,0,0.28-0.12,0.28-0.28"/>
	<path class="st1" d="M11.35,104.19c0,0.16,0.12,0.28,0.28,0.28"/>
	<path class="st1" d="M11.63,86.03c-0.16,0-0.28,0.12-0.28,0.28"/>
	<path class="st1" d="M27.78,86.31c0-0.15-0.12-0.28-0.28-0.28"/>
	<line class="st1" x1="12.15" y1="86.63" x2="24.98" y2="86.63"/>
	<line class="st1" x1="12.15" y1="103.87" x2="24.98" y2="103.87"/>
	<line class="st1" x1="11.75" y1="103.47" x2="11.75" y2="95.65"/>
	<line class="st1" x1="25.38" y1="103.47" x2="25.38" y2="95.65"/>
	<path class="st1" d="M11.75,103.47c0,0.22,0.18,0.4,0.4,0.4"/>
	<path class="st1" d="M12.15,86.63c-0.22,0-0.4,0.18-0.4,0.4"/>
	<path class="st1" d="M25.38,87.03c0-0.22-0.18-0.4-0.4-0.4"/>
	<path class="st1" d="M24.98,103.87c0.22,0,0.4-0.18,0.4-0.4"/>
	<line class="st1" x1="12.15" y1="95.25" x2="24.98" y2="95.25"/>
	<line class="st1" x1="11.75" y1="94.85" x2="11.75" y2="87.03"/>
	<line class="st1" x1="25.38" y1="94.85" x2="25.38" y2="87.03"/>
	<path class="st1" d="M25.38,95.65c0-0.22-0.18-0.4-0.4-0.4"/>
	<path class="st1" d="M12.15,95.25c-0.22,0-0.4,0.18-0.4,0.4"/>
	<path class="st1" d="M24.98,95.25c0.22,0,0.4-0.18,0.4-0.4"/>
	<path class="st1" d="M11.75,94.85c0,0.22,0.18,0.4,0.4,0.4"/>
	<rect x="12.35" y="95.85" class="st1" width="12.43" height="7.42"/>
	<line class="st1" x1="13.59" y1="103.67" x2="13.59" y2="95.45"/>
	<line class="st1" x1="24.28" y1="103.67" x2="24.28" y2="95.45"/>
	<line class="st1" x1="17.86" y1="86.83" x2="17.86" y2="95.05"/>
	<line class="st1" x1="20" y1="86.83" x2="20" y2="95.05"/>
	<line class="st1" x1="22.14" y1="86.83" x2="22.14" y2="88.91"/>
	<line class="st1" x1="25.18" y1="100.18" x2="23.54" y2="100.18"/>
	<line class="st1" x1="25.18" y1="90.32" x2="23.54" y2="90.32"/>
	<line class="st1" x1="15.73" y1="86.83" x2="15.73" y2="88.91"/>
	<path class="st1" d="M21.19,100.18c0-0.52,0.43-0.95,0.95-0.95s0.95,0.43,0.95,0.95c0,0.53-0.43,0.95-0.95,0.95
		S21.19,100.71,21.19,100.18z"/>
	<path class="st1" d="M21.19,90.32c0-0.53,0.43-0.95,0.95-0.95s0.95,0.43,0.95,0.95c0,0.53-0.43,0.95-0.95,0.95
		S21.19,90.84,21.19,90.32z"/>
	<path class="st1" d="M14.57,100.18c0-0.64,0.52-1.15,1.15-1.15c0.64,0,1.15,0.52,1.15,1.15c0,0.64-0.52,1.15-1.15,1.15
		C15.09,101.34,14.57,100.82,14.57,100.18z"/>
	<path class="st1" d="M14.17,90.32c0-0.86,0.69-1.55,1.55-1.55s1.55,0.7,1.55,1.55c0,0.86-0.7,1.55-1.55,1.55
		S14.17,91.17,14.17,90.32z"/>
	<rect x="12.35" y="87.23" class="st1" width="12.43" height="7.42"/>
	<line class="st1" x1="24.28" y1="95.05" x2="24.28" y2="86.83"/>
	<line class="st1" x1="22.14" y1="95.45" x2="22.14" y2="98.78"/>
	<line class="st1" x1="22.14" y1="95.45" x2="22.14" y2="98.78"/>
	<line class="st1" x1="20" y1="95.45" x2="20" y2="103.67"/>
	<line class="st1" x1="17.86" y1="95.45" x2="17.86" y2="103.67"/>
	<line class="st1" x1="15.73" y1="95.45" x2="15.73" y2="98.78"/>
	<line class="st1" x1="13.59" y1="95.05" x2="13.59" y2="86.83"/>
	<line class="st1" x1="20.74" y1="100.18" x2="17.13" y2="100.18"/>
	<line class="st1" x1="22.14" y1="101.59" x2="22.14" y2="103.67"/>
	<line class="st1" x1="22.14" y1="101.59" x2="22.14" y2="103.67"/>
	<line class="st1" x1="15.73" y1="101.59" x2="15.73" y2="103.67"/>
	<line class="st1" x1="14.32" y1="100.18" x2="11.95" y2="100.18"/>
	<line class="st1" x1="14.32" y1="90.32" x2="11.95" y2="90.32"/>
	<line class="st1" x1="15.73" y1="91.72" x2="15.73" y2="95.05"/>
	<line class="st1" x1="20.74" y1="90.32" x2="17.13" y2="90.32"/>
	<line class="st1" x1="22.14" y1="91.72" x2="22.14" y2="95.05"/>
	<path class="st1" d="M27.19,97.79c-0.08-0.32-0.41-0.51-0.73-0.43c-0.32,0.08-0.52,0.41-0.43,0.73c0.08,0.32,0.41,0.51,0.73,0.43
		c0.21-0.05,0.38-0.22,0.43-0.43"/>
	<rect x="26.19" y="97.79" class="st1" width="1.2" height="0.3"/>
	<path class="st1" d="M27.19,92.41c-0.08-0.32-0.41-0.51-0.73-0.43c-0.32,0.08-0.52,0.41-0.43,0.73c0.08,0.32,0.41,0.51,0.73,0.43
		c0.21-0.05,0.38-0.22,0.43-0.43"/>
	<rect x="26.19" y="92.41" class="st1" width="1.2" height="0.3"/>
	<path class="st1" d="M27.19,96c-0.08-0.32-0.41-0.51-0.73-0.43c-0.32,0.08-0.52,0.41-0.43,0.73c0.08,0.32,0.41,0.51,0.73,0.43
		c0.21-0.05,0.38-0.22,0.43-0.43"/>
	<rect x="26.19" y="96" class="st1" width="1.2" height="0.3"/>
	<path class="st1" d="M27.19,94.2c-0.08-0.32-0.41-0.51-0.73-0.43c-0.32,0.08-0.52,0.41-0.43,0.73c0.08,0.32,0.41,0.51,0.73,0.43
		c0.21-0.05,0.38-0.22,0.43-0.43"/>
	<rect x="26.19" y="94.2" class="st1" width="1.2" height="0.3"/>
	<rect x="30.19" y="86.39" class="st1" width="0.3" height="17.72"/>
	<rect x="29.19" y="86.39" class="st1" width="1" height="2"/>
	<rect x="29.19" y="102.1" class="st1" width="1" height="2"/>
	<path class="st1" d="M90.91,37.13c0-0.67,0.54-1.21,1.21-1.21c0.67,0,1.21,0.54,1.21,1.21c0,0.67-0.54,1.21-1.21,1.21
		C91.45,38.34,90.91,37.8,90.91,37.13z"/>
	<path class="st1" d="M91.42,37.13c0-0.39,0.31-0.7,0.7-0.7c0.39,0,0.7,0.31,0.7,0.7c0,0.39-0.31,0.7-0.7,0.7
		C91.73,37.83,91.42,37.51,91.42,37.13z"/>
	<path class="st1" d="M91.61,31.14c-3.31,0.29-5.76,3.2-5.47,6.51c0.29,3.31,3.2,5.76,6.51,5.47c3.31-0.29,5.76-3.2,5.47-6.51
		c-0.25-2.91-2.56-5.22-5.48-5.47"/>
	<path class="st1" d="M113.51,39.37c-0.31,1.03-0.46,2.1-0.46,3.17"/>
	<path class="st1" d="M114.73,36.87c-0.55,0.76-0.96,1.6-1.23,2.5"/>
	<path class="st1" d="M115.38,36.11c-0.23,0.24-0.45,0.49-0.64,0.76"/>
	<path class="st1" d="M113.05,42.54c0,1.07,0.16,2.14,0.46,3.17c0.27,0.89,0.68,1.74,1.22,2.5c0.52,0.73,1.2,1.34,1.98,1.79
		c0.64,0.37,1.36,0.56,2.1,0.56c0.74,0,1.46-0.19,2.1-0.56c0.78-0.45,1.45-1.06,1.98-1.79c0.54-0.76,0.96-1.6,1.22-2.5
		c0.31-1.03,0.46-2.1,0.46-3.17c0-1.07-0.16-2.14-0.46-3.17c-0.27-0.89-0.68-1.74-1.22-2.5c-0.19-0.27-0.41-0.52-0.64-0.76h-6.86"/>
	<path class="st1" d="M114.3,32.45c-0.15,2.56-0.48,5.11-0.97,7.62"/>
	<path class="st1" d="M121.04,33.35c0.57-0.11,1.13-0.29,1.66-0.54c0.62-0.29,1.16-0.74,1.55-1.3c0.15-0.21,0.21-0.48,0.16-0.74
		l-0.45-2.37c-0.03-0.15-0.16-0.27-0.32-0.27h-9.67c-0.16,0-0.29,0.11-0.32,0.27l-0.45,2.37c-0.05,0.26,0.01,0.52,0.16,0.74
		c0.4,0.56,0.93,1.01,1.56,1.3c0.53,0.25,1.09,0.43,1.66,0.54c0.74,0.14,1.48,0.21,2.23,0.21C119.56,33.57,120.3,33.49,121.04,33.35
		z"/>
	<path class="st1" d="M123.32,32.45c0.15,2.56,0.48,5.11,0.97,7.62"/>
	<path class="st1" d="M118.21,31.09c0-0.33,0.27-0.6,0.6-0.6c0.33,0,0.6,0.27,0.6,0.6c0,0.33-0.27,0.6-0.6,0.6
		C118.47,31.69,118.21,31.42,118.21,31.09z"/>
	<line class="st1" x1="92.64" y1="33.88" x2="92.64" y2="30.07"/>
	<path class="st1" d="M92.35,34.16c0.16,0,0.28-0.13,0.28-0.28"/>
	<path class="st1" d="M91.61,33.88c0,0.16,0.13,0.28,0.28,0.28"/>
	<line class="st1" x1="92.35" y1="34.16" x2="91.89" y2="34.16"/>
	<path class="st1" d="M91.84,30.31c0-0.12-0.05-0.24-0.14-0.32"/>
	<path class="st1" d="M92.54,29.99c-0.09,0.08-0.14,0.2-0.14,0.32"/>
	<line class="st1" x1="92.4" y1="32.1" x2="92.4" y2="30.31"/>
	<line class="st1" x1="91.84" y1="30.31" x2="91.84" y2="32.1"/>
	<path class="st1" d="M91.84,32.1c0,0.09,0.07,0.16,0.16,0.16"/>
	<line class="st1" x1="92.24" y1="32.26" x2="92" y2="32.26"/>
	<path class="st1" d="M91.61,30.07c0-0.1-0.02-0.2-0.06-0.3"/>
	<path class="st1" d="M92.7,29.77c-0.04,0.09-0.06,0.2-0.06,0.3"/>
	<line class="st1" x1="91.61" y1="30.07" x2="91.61" y2="33.88"/>
	<path class="st1" d="M92.64,30.08c0.31-0.28,0.33-0.77,0.04-1.07c-0.28-0.31-0.77-0.33-1.07-0.04c-0.31,0.29-0.33,0.77-0.04,1.07
		c0.01,0.02,0.03,0.03,0.04,0.04"/>
	<path class="st1" d="M92.54,29.99c0.26-0.23,0.28-0.63,0.05-0.89c-0.23-0.26-0.63-0.29-0.89-0.05c-0.26,0.23-0.29,0.63-0.05,0.89
		c0.02,0.02,0.04,0.04,0.05,0.05"/>
	<path class="st1" d="M92.24,32.26c0.09,0,0.16-0.07,0.16-0.16"/>
	<rect x="189.91" y="122.58" class="st1" width="11.05" height="54.6"/>
	<line class="st1" x1="189.91" y1="177.19" x2="185.53" y2="177.19"/>
	<line class="st1" x1="162.76" y1="149.88" x2="189.91" y2="149.88"/>
	<path class="st1" d="M185.83,175.71c-2.81-7.87-2.81-16.48,0-24.35"/>
	<path class="st1" d="M185.83,175.71c1.14,0.39,2.38,0.39,3.52,0"/>
	<path class="st1" d="M189.35,175.71c0.2-0.53,0.38-1.07,0.55-1.61"/>
	<path class="st1" d="M185.83,151.36c1.14-0.38,2.38-0.38,3.52,0"/>
	<path class="st1" d="M189.35,151.36c0.2,0.53,0.38,1.07,0.55,1.61"/>
	<path class="st1" d="M187.59,176c0.26-8.31,0.26-16.62,0-24.93"/>
	<path class="st1" d="M185.83,148.41c-2.81-7.87-2.81-16.48,0-24.35"/>
	<path class="st1" d="M185.83,148.41c1.14,0.39,2.38,0.39,3.52,0"/>
	<path class="st1" d="M189.35,148.41c0.2-0.53,0.38-1.07,0.55-1.61"/>
	<path class="st1" d="M185.83,124.06c1.14-0.38,2.38-0.38,3.52,0"/>
	<path class="st1" d="M189.35,124.06c0.2,0.53,0.38,1.07,0.55,1.61"/>
	<path class="st1" d="M187.59,148.7c0.26-8.31,0.26-16.62,0-24.93"/>
	<path class="st1" d="M164.77,177.19h-1.22c-0.43,0-0.79-0.35-0.79-0.79v-53.03c0-0.44,0.35-0.79,0.79-0.79h1.22"/>
	<path class="st1" d="M167.5,176.4c-0.53,0-1.06,0.07-1.58,0.21c-0.49,0.12-0.95,0.37-1.31,0.73c-0.17,0.17-0.26,0.4-0.27,0.64
		c0.03,0.15,0.14,0.28,0.29,0.33c0.37,0.17,0.77,0.28,1.17,0.33c0.56,0.08,1.13,0.12,1.69,0.12h15.31c0.57,0,1.13-0.04,1.69-0.12
		c0.4-0.05,0.8-0.17,1.17-0.33c0.15-0.05,0.26-0.18,0.3-0.33c-0.01-0.24-0.1-0.47-0.27-0.64c-0.36-0.36-0.82-0.61-1.31-0.73
		c-0.51-0.14-1.04-0.21-1.57-0.21H167.5z"/>
	<path class="st1" d="M167.5,123.37c-0.53,0-1.06-0.07-1.58-0.21c-0.49-0.12-0.95-0.37-1.31-0.73c-0.17-0.17-0.26-0.4-0.27-0.64
		c0.03-0.16,0.14-0.28,0.29-0.33c0.37-0.17,0.77-0.28,1.17-0.33c0.56-0.08,1.13-0.12,1.69-0.12h15.31c0.57,0,1.13,0.04,1.69,0.12
		c0.4,0.06,0.8,0.17,1.17,0.33c0.15,0.05,0.26,0.18,0.3,0.33c-0.01,0.24-0.1,0.47-0.27,0.64c-0.36,0.36-0.82,0.61-1.31,0.73
		c-0.51,0.14-1.04,0.21-1.57,0.21H167.5z"/>
	<line class="st1" x1="185.53" y1="122.58" x2="189.91" y2="122.58"/>
	
		<rect x="104.63" y="158.87" transform="matrix(0.5004 -0.8658 0.8658 0.5004 -97.6564 178.0257)" class="st1" width="1.58" height="29.51"/>
	<polyline class="st1" points="102.16,172.66 101.97,173 107.69,176.3 107.89,175.96 	"/>
	<polyline class="st1" points="105,174.75 103.94,176.58 103.94,182.29 	"/>
	<polyline class="st1" points="103.55,182.29 103.55,176.47 104.66,174.55 	"/>
	<rect x="101.38" y="182.29" class="st1" width="4.73" height="0.39"/>
	<path class="st1" d="M65.66,116.28c0-7.97,6.46-14.43,14.43-14.43c7.97,0,14.43,6.46,14.43,14.43c0,7.97-6.46,14.43-14.43,14.43
		C72.12,130.71,65.66,124.25,65.66,116.28z"/>
	<line class="st1" x1="66.28" y1="112.1" x2="61.1" y2="106.93"/>
	<line class="st1" x1="70.74" y1="97.29" x2="75.92" y2="102.47"/>
	<path class="st1" d="M71.27,97.82c-4.47,1.64-8,5.16-9.64,9.64"/>
	<path class="st1" d="M70.74,97.29c-4.47,1.64-8,5.16-9.64,9.64"/>
	<path class="st1" d="M72.87,99.42c-4.47,1.64-8,5.16-9.64,9.64"/>
	<line class="st1" x1="84.27" y1="130.09" x2="89.45" y2="135.27"/>
	<line class="st1" x1="99.09" y1="125.63" x2="93.91" y2="120.46"/>
	<path class="st1" d="M88.92,134.74c4.47-1.64,8-5.16,9.64-9.64"/>
	<path class="st1" d="M89.45,135.27c4.47-1.64,8-5.16,9.64-9.64"/>
	<path class="st1" d="M87.32,133.15c4.47-1.64,8-5.16,9.64-9.64"/>
	<line class="st1" x1="75.92" y1="130.09" x2="70.74" y2="135.27"/>
	<line class="st1" x1="61.1" y1="125.63" x2="66.28" y2="120.46"/>
	<path class="st1" d="M61.64,125.1c1.64,4.47,5.16,8,9.64,9.64"/>
	<path class="st1" d="M61.1,125.63c1.64,4.47,5.16,8,9.64,9.64"/>
	<path class="st1" d="M63.23,123.51c1.64,4.47,5.16,8,9.64,9.64"/>
	<line class="st1" x1="93.91" y1="112.1" x2="99.09" y2="106.93"/>
	<line class="st1" x1="89.45" y1="97.29" x2="84.27" y2="102.47"/>
	<path class="st1" d="M98.55,107.46c-1.64-4.47-5.16-8-9.64-9.64"/>
	<path class="st1" d="M99.09,106.93c-1.64-4.47-5.16-8-9.64-9.64"/>
	<path class="st1" d="M96.96,109.05c-1.64-4.47-5.16-8-9.64-9.64"/>
	<path class="st1" d="M132.95,149.88c0,2.6,0.31,5.19,0.92,7.72c0.5,2.07,1.3,4.05,2.37,5.88c1.01,1.73,2.38,3.22,4.01,4.38
		c1.15,0.82,2.52,1.25,3.93,1.25c1.41,0,2.78-0.44,3.93-1.25c1.63-1.16,3-2.65,4.01-4.38c1.07-1.83,1.87-3.82,2.37-5.88
		c0.61-2.53,0.92-5.12,0.92-7.72c0-2.6-0.31-5.19-0.92-7.72c-0.5-2.07-1.3-4.05-2.37-5.88c-1.01-1.73-2.38-3.22-4.01-4.38
		c-1.15-0.82-2.52-1.25-3.93-1.25c-1.41,0-2.78,0.44-3.93,1.25c-1.63,1.16-3,2.65-4.01,4.38c-1.07,1.83-1.87,3.82-2.37,5.88
		C133.26,144.69,132.95,147.28,132.95,149.88z"/>
	<rect x="186.92" y="107.56" class="st1" width="12.83" height="13.63"/>
	<path class="st1" d="M188.57,185.39c0-2.63,2.13-4.77,4.77-4.77c2.63,0,4.77,2.14,4.77,4.77c0,2.63-2.13,4.77-4.77,4.77
		C190.7,190.16,188.57,188.03,188.57,185.39z"/>
	<path class="st1" d="M192.11,185.39c0-0.68,0.55-1.22,1.22-1.22c0.68,0,1.22,0.55,1.22,1.22c0,0.68-0.55,1.22-1.22,1.22
		C192.66,186.62,192.11,186.07,192.11,185.39z"/>
	<line class="st1" x1="193.34" y1="180.63" x2="193.34" y2="184.17"/>
	<line class="st1" x1="193.34" y1="186.62" x2="193.34" y2="190.16"/>
	<line class="st1" x1="198.1" y1="185.39" x2="194.56" y2="185.39"/>
	<line class="st1" x1="192.11" y1="185.39" x2="188.57" y2="185.39"/>
	<rect x="186.92" y="178.58" class="st1" width="12.83" height="13.63"/>
	<path class="st1" d="M188.57,114.38c0-2.63,2.13-4.77,4.77-4.77c2.63,0,4.77,2.14,4.77,4.77c0,2.63-2.13,4.77-4.77,4.77
		C190.7,119.14,188.57,117.01,188.57,114.38z"/>
	<path class="st1" d="M192.11,114.38c0-0.68,0.55-1.22,1.22-1.22c0.68,0,1.22,0.55,1.22,1.22c0,0.68-0.55,1.22-1.22,1.22
		C192.66,115.6,192.11,115.05,192.11,114.38z"/>
	<line class="st1" x1="193.34" y1="119.14" x2="193.34" y2="115.6"/>
	<line class="st1" x1="193.34" y1="113.15" x2="193.34" y2="109.61"/>
	<line class="st1" x1="198.1" y1="114.38" x2="194.56" y2="114.38"/>
	<line class="st1" x1="192.11" y1="114.38" x2="188.57" y2="114.38"/>
	<rect x="69.87" y="13.01" class="st1" width="1.4" height="28.86"/>
	<path class="st1" d="M42.42,13.01c0,15.94,12.92,28.86,28.86,28.86"/>
	<rect x="2.53" y="222.41" class="st1" width="3.4" height="49.61"/>
	<rect x="203.06" y="203.13" class="st1" width="3.4" height="68.88"/>
	<rect x="2.53" y="273.62" class="st1" width="203.93" height="2.4"/>
	<rect x="188.63" y="197.92" class="st1" width="1.6" height="3.61"/>
	<rect x="127.58" y="197.92" class="st1" width="1.6" height="3.61"/>
	<rect x="166.07" y="197.92" class="st1" width="1.6" height="3.61"/>
	<line class="st1" x1="188.63" y1="200.73" x2="167.67" y2="200.73"/>
	<line class="st1" x1="188.63" y1="199.92" x2="167.67" y2="199.92"/>
	<line class="st1" x1="166.07" y1="200.73" x2="129.19" y2="200.73"/>
	<line class="st1" x1="166.07" y1="199.92" x2="129.19" y2="199.92"/>
	<line class="st1" x1="189.43" y1="193.41" x2="128.39" y2="193.41"/>
	<rect x="89.33" y="197.92" class="st1" width="1.6" height="3.61"/>
	<rect x="60.45" y="197.92" class="st1" width="1.6" height="3.61"/>
	<line class="st1" x1="59.65" y1="197.92" x2="59.65" y2="193.41"/>
	<rect x="90.93" y="197.92" class="st1" width="1.59" height="3.61"/>
	<rect x="37.9" y="14.26" transform="matrix(0.866 -0.5 0.5 0.866 -7.9728 22.8212)" class="st1" width="1.4" height="24.05"/>
	<path class="st1" d="M33.2,39.57c4.22,0,8.37-1.11,12.02-3.22"/>
	<rect x="134.71" y="104.96" class="st1" width="19.24" height="1.4"/>
	<rect x="115.47" y="103.55" class="st1" width="19.24" height="1.4"/>
	<rect x="77.69" y="74.69" class="st1" width="27.26" height="1.4"/>
	<path class="st1" d="M104.95,76.09c0-15.05-12.2-27.26-27.26-27.26"/>
	<rect x="34" y="197.92" class="st1" width="1.6" height="3.61"/>
	<rect x="58.85" y="197.92" class="st1" width="1.6" height="3.61"/>
	<line class="st1" x1="35.6" y1="200.73" x2="58.85" y2="200.73"/>
	<line class="st1" x1="35.6" y1="199.92" x2="58.85" y2="199.92"/>
	<line class="st1" x1="34.9" y1="193.41" x2="59.65" y2="193.41"/>
	<rect x="62.06" y="201.53" class="st1" width="1.4" height="27.27"/>
	<path class="st1" d="M62.06,228.8c15.06,0,27.27-12.21,27.27-27.27"/>
	<line class="st1" x1="190.23" y1="197.92" x2="127.58" y2="197.92"/>
	<line class="st1" x1="190.23" y1="201.53" x2="127.58" y2="201.53"/>
	<line class="st1" x1="34" y1="197.92" x2="60.45" y2="197.92"/>
	<line class="st1" x1="34" y1="201.53" x2="60.45" y2="201.53"/>
	<line class="st1" x1="71.28" y1="13.01" x2="42.42" y2="13.01"/>
	<line class="st1" x1="71.28" y1="6.2" x2="42.42" y2="6.2"/>
	<path class="st1" d="M123.64,28.14c0.16,0,0.29,0.11,0.32,0.27l0.45,2.37c0.05,0.26-0.01,0.53-0.16,0.74
		c-0.26,0.36-0.58,0.68-0.94,0.94c0.15,2.56,0.48,5.11,0.97,7.62c0.18,0.81,0.28,1.63,0.28,2.46c0,1.07-0.16,2.14-0.46,3.17
		c-0.27,0.89-0.68,1.74-1.22,2.5c-0.52,0.73-1.2,1.34-1.98,1.79c-0.64,0.37-1.36,0.56-2.1,0.56c-0.74,0-1.46-0.19-2.1-0.56
		c-0.78-0.45-1.45-1.06-1.98-1.79c-0.54-0.76-0.96-1.6-1.22-2.5c-0.31-1.03-0.46-2.1-0.46-3.17c0-0.83,0.09-1.65,0.28-2.46
		c0.5-2.52,0.82-5.06,0.97-7.62c-0.36-0.26-0.68-0.57-0.94-0.94c-0.15-0.21-0.21-0.48-0.16-0.74l0.45-2.37
		c0.03-0.15,0.17-0.27,0.32-0.27H123.64z"/>
	<polygon class="st1" points="77.69,78.9 77.69,76.1 104.95,76.1 104.95,74.69 77.69,74.69 77.69,76.1 75.84,76.1 75.84,48.84 
		77.69,48.84 77.69,45.53 106.55,45.53 106.55,27.49 129.4,27.49 129.4,30.8 131.06,30.8 131.06,73.82 121.7,57.6 121.18,57.9 
		131.06,75.02 131.06,78.9 	"/>
	<line class="st1" x1="62.06" y1="201.53" x2="89.33" y2="201.53"/>
	<line class="st1" x1="62.06" y1="197.92" x2="89.33" y2="197.92"/>
	<line class="st1" x1="131.06" y1="69.48" x2="128.56" y2="69.48"/>
	<line class="st1" x1="127.86" y1="69.48" x2="75.84" y2="69.48"/>
	<line class="st1" x1="131.06" y1="59.86" x2="123" y2="59.86"/>
	<line class="st1" x1="122.31" y1="59.86" x2="75.84" y2="59.86"/>
	<line class="st1" x1="131.06" y1="50.24" x2="120.39" y2="50.24"/>
	<line class="st1" x1="117.22" y1="50.24" x2="75.84" y2="50.24"/>
	<line class="st1" x1="131.06" y1="40.62" x2="124.4" y2="40.62"/>
	<line class="st1" x1="113.21" y1="40.62" x2="106.55" y2="40.62"/>
	<line class="st1" x1="131.06" y1="31" x2="124.43" y2="31"/>
	<line class="st1" x1="113.18" y1="31" x2="106.55" y2="31"/>
	<line class="st1" x1="114.32" y1="27.49" x2="114.32" y2="28.14"/>
	<line class="st1" x1="114.32" y1="47.56" x2="114.32" y2="78.9"/>
	<line class="st1" x1="95.08" y1="45.53" x2="95.08" y2="74.69"/>
	<line class="st1" x1="95.08" y1="76.1" x2="95.08" y2="78.9"/>
</g>
<line class="st2" x1="29.19" y1="163.45" x2="10.85" y2="163.45"/>
<line class="st2" x1="10.85" y1="163.45" x2="10.85" y2="144.21"/>
<line class="st2" x1="10.85" y1="144.21" x2="29.19" y2="144.21"/>
<line class="st2" x1="28.39" y1="144.21" x2="28.39" y2="163.45"/>
<line class="st2" x1="198.74" y1="174.98" x2="131.51" y2="174.98"/>
<line class="st2" x1="131.51" y1="174.98" x2="131.51" y2="124.79"/>
<line class="st2" x1="131.51" y1="124.79" x2="198.74" y2="124.79"/>
<line class="st2" x1="198.74" y1="124.79" x2="198.74" y2="174.98"/>
<line class="st2" x1="18.76" y1="164.25" x2="18.76" y2="66.64"/>
<line class="st2" x1="15.76" y1="42.09" x2="15.76" y2="13.01"/>
<line class="st2" x1="112.66" y1="90.63" x2="156.66" y2="90.63"/>
<polygon class="st3" points="0.12,220.8 0.12,6.2 42.41,6.2 42.41,13.01 33.19,13.01 33.19,15.52 29.49,15.52 29.49,13.01 
	7.74,13.01 7.74,42.09 29.49,42.09 29.49,39.57 33.19,39.57 33.19,45.8 9.14,45.8 9.14,191.91 34.8,191.91 34.8,197.92 34,197.92 
	34,201.53 9.04,201.53 9.04,220.8 "/>
<polygon class="st1" points="0.12,220.8 0.12,6.2 42.41,6.2 42.41,13.01 33.19,13.01 33.19,15.52 29.49,15.52 29.49,13.01 
	7.74,13.01 7.74,42.09 29.49,42.09 29.49,39.57 33.19,39.57 33.19,45.8 9.14,45.8 9.14,191.91 34.8,191.91 34.8,197.92 34,197.92 
	34,201.53 9.04,201.53 9.04,220.8 "/>
<polygon class="st3" points="81.6,6.2 71.28,6.2 71.28,13.01 73.98,13.01 73.98,48.84 77.69,48.84 77.69,27.49 129.4,27.49 
	129.4,30.8 156.66,30.8 156.66,78.9 77.69,78.9 77.69,76.09 73.98,76.09 73.98,82.61 108.96,82.61 108.96,106.36 115.47,106.36 
	115.47,102.65 112.66,102.65 112.66,82.61 156.66,82.61 156.66,102.65 153.95,102.65 153.95,106.36 200.95,106.36 200.95,193.41 
	189.43,193.41 189.43,197.92 190.23,197.92 190.23,201.53 208.57,201.53 208.57,98.74 164.27,98.74 164.27,19.87 81.6,19.87 "/>
<polygon class="st1" points="81.6,6.2 71.28,6.2 71.28,13.01 73.98,13.01 73.98,48.84 77.69,48.84 77.69,27.49 129.4,27.49 
	129.4,30.8 156.66,30.8 156.66,78.9 77.69,78.9 77.69,76.09 73.98,76.09 73.98,82.61 108.96,82.61 108.96,106.36 115.47,106.36 
	115.47,102.65 112.66,102.65 112.66,82.61 156.66,82.61 156.66,102.65 153.95,102.65 153.95,106.36 200.95,106.36 200.95,193.41 
	189.43,193.41 189.43,197.92 190.23,197.92 190.23,201.53 208.57,201.53 208.57,98.74 164.27,98.74 164.27,19.87 81.6,19.87 "/>
<polygon class="st3" points="92.52,201.53 92.52,197.92 91.72,197.92 91.72,182.69 115.77,182.69 115.77,193.41 128.39,193.41 
	128.39,197.92 127.58,197.92 127.58,201.53 "/>
<polygon class="st1" points="92.52,201.53 92.52,197.92 91.72,197.92 91.72,182.69 115.77,182.69 115.77,193.41 128.39,193.41 
	128.39,197.92 127.58,197.92 127.58,201.53 "/>
<g>
	<path class="st4" d="M20.66,55.29h-1.99v1.17h1.78v0.34h-1.78v1.43H18.3v-3.28h2.36V55.29z"/>
</g>
<g>
	<path class="st4" d="M16.92,155.56h-1.14v-3.28h1.14c1.03,0,1.74,0.71,1.74,1.63C18.66,154.84,17.95,155.56,16.92,155.56z
		 M16.92,152.62h-0.77v2.6h0.77c0.83,0,1.36-0.56,1.36-1.29S17.75,152.62,16.92,152.62z"/>
	<path class="st4" d="M21.36,152.27h0.3l0.9,2.74l0.94-2.73h0.39l-1.17,3.3H22.4l-0.9-2.66l-0.9,2.66h-0.31l-1.17-3.3h0.4l0.94,2.73
		L21.36,152.27z"/>
</g>
<g>
	<path class="st4" d="M18.11,176.51h0.3l0.9,2.74l0.94-2.73h0.39l-1.17,3.3h-0.31l-0.9-2.66l-0.9,2.66h-0.31l-1.17-3.3h0.4
		l0.94,2.73L18.11,176.51z"/>
	<path class="st4" d="M22.87,176.06l-2.17,4.34h-0.33l2.17-4.34H22.87z"/>
	<path class="st4" d="M24.53,179.79h-1.14v-3.28h1.14c1.03,0,1.74,0.71,1.74,1.63C26.27,179.08,25.56,179.79,24.53,179.79z
		 M24.53,176.86h-0.77v2.6h0.77c0.83,0,1.36-0.56,1.36-1.29S25.36,176.86,24.53,176.86z"/>
</g>
<g>
	<path class="st4" d="M95.02,237.52c0,0.43-0.26,0.65-0.52,0.76c0.39,0.12,0.7,0.34,0.7,0.8c0,0.57-0.47,0.9-1.19,0.9h-1.46v-3.28
		h1.4C94.59,236.7,95.02,237.02,95.02,237.52z M94.64,237.57c0-0.33-0.26-0.54-0.73-0.54h-1v1.13h0.97
		C94.33,238.16,94.64,237.96,94.64,237.57z M94.82,239.05c0-0.36-0.3-0.57-0.87-0.57h-1.04v1.16h1.1
		C94.51,239.64,94.82,239.42,94.82,239.05z"/>
	<path class="st4" d="M99.08,239.98h-0.4l-0.38-0.87h-1.78l-0.39,0.87h-0.38l1.49-3.3h0.35L99.08,239.98z M97.4,237.11l-0.75,1.67
		h1.5L97.4,237.11z"/>
	<path class="st4" d="M99.81,236.7h0.37v2.94h1.85v0.34h-2.22V236.7z"/>
	<path class="st4" d="M104.12,240.03c-0.95,0-1.64-0.75-1.64-1.69c0-0.94,0.69-1.7,1.66-1.7c0.59,0,0.95,0.21,1.28,0.52l-0.25,0.27
		c-0.28-0.26-0.59-0.45-1.03-0.45c-0.73,0-1.27,0.58-1.27,1.35s0.55,1.36,1.27,1.36c0.45,0,0.75-0.17,1.06-0.47l0.24,0.24
		C105.09,239.8,104.71,240.03,104.12,240.03z"/>
	<path class="st4" d="M107.59,240.03c-1,0-1.67-0.78-1.67-1.69c0-0.91,0.68-1.7,1.68-1.7c1,0,1.67,0.78,1.67,1.69
		C109.27,239.24,108.59,240.03,107.59,240.03z M107.59,236.98c-0.75,0-1.28,0.6-1.28,1.35c0,0.75,0.54,1.36,1.29,1.36
		c0.75,0,1.28-0.6,1.28-1.35C108.89,237.59,108.34,236.98,107.59,236.98z"/>
	<path class="st4" d="M112.55,236.7h0.36v3.28h-0.3l-2.12-2.69v2.69h-0.36v-3.28h0.35l2.07,2.63V236.7z"/>
	<path class="st4" d="M115.33,239.98h-0.38v-1.3l-1.36-1.98h0.45l1.11,1.64l1.12-1.64h0.43l-1.36,1.98V239.98z"/>
</g>
<g>
	<path class="st4" d="M51.65,0.34h-2v1.12h1.79v0.34h-1.79v1.15h2.02v0.34h-2.39V0h2.37V0.34z"/>
	<path class="st4" d="M54.93,0h0.36v3.28h-0.3l-2.12-2.69v2.69h-0.36V0h0.35l2.07,2.63V0z"/>
	<path class="st4" d="M57.54,3.28h-0.38V0.34h-1.1V0h2.58v0.34h-1.1V3.28z"/>
	<path class="st4" d="M61.69,3.28L60.73,2H59.8v1.27h-0.37V0h1.41c0.72,0,1.18,0.39,1.18,0.98c0,0.55-0.37,0.87-0.89,0.96l1.01,1.34
		H61.69z M60.81,0.34H59.8v1.33h1.01c0.49,0,0.84-0.25,0.84-0.68C61.65,0.59,61.34,0.34,60.81,0.34z"/>
	<path class="st4" d="M64.19,3.28h-0.38v-1.3L62.45,0h0.45l1.11,1.64L65.12,0h0.43l-1.36,1.98V3.28z"/>
</g>
<g>
	<path class="st4" d="M100.93,54.41c0,0.43-0.26,0.65-0.52,0.76c0.39,0.12,0.7,0.34,0.7,0.8c0,0.57-0.47,0.9-1.19,0.9h-1.46v-3.28
		h1.4C100.51,53.59,100.93,53.9,100.93,54.41z M100.56,54.46c0-0.33-0.26-0.54-0.73-0.54h-1v1.13h0.97
		C100.25,55.05,100.56,54.85,100.56,54.46z M100.74,55.94c0-0.36-0.3-0.57-0.87-0.57h-1.04v1.16h1.1
		C100.43,56.53,100.74,56.31,100.74,55.94z"/>
	<path class="st4" d="M104.99,56.87h-0.4L104.21,56h-1.78l-0.39,0.87h-0.38l1.49-3.3h0.35L104.99,56.87z M103.32,53.99l-0.75,1.67
		h1.5L103.32,53.99z"/>
	<path class="st4" d="M106.55,56.87h-0.38v-2.94h-1.1v-0.34h2.58v0.34h-1.1V56.87z"/>
	<path class="st4" d="M108.8,55.39v1.48h-0.37v-3.28h0.37v1.46h1.89v-1.46h0.37v3.28h-0.37v-1.48H108.8z"/>
</g>
<g>
	<path class="st4" d="M37.02,138.19h-0.46l-1.26-1.59l-0.7,0.71v0.88h-0.37v-3.28h0.37v1.96l1.88-1.96h0.48l-1.41,1.43L37.02,138.19
		z"/>
	<path class="st4" d="M38.08,134.92v3.28h-0.37v-3.28H38.08z"/>
	<path class="st4" d="M40.37,138.19H40v-2.94h-1.1v-0.34h2.58v0.34h-1.1V138.19z"/>
	<path class="st4" d="M43.54,138.25c-0.95,0-1.64-0.75-1.64-1.69c0-0.94,0.69-1.7,1.66-1.7c0.59,0,0.95,0.21,1.28,0.52l-0.25,0.27
		c-0.28-0.26-0.59-0.45-1.03-0.45c-0.73,0-1.27,0.58-1.27,1.35s0.55,1.36,1.27,1.36c0.45,0,0.75-0.17,1.06-0.47l0.24,0.24
		C44.51,138.02,44.13,138.25,43.54,138.25z"/>
	<path class="st4" d="M45.95,136.72v1.48h-0.37v-3.28h0.37v1.46h1.89v-1.46h0.37v3.28h-0.37v-1.48H45.95z"/>
	<path class="st4" d="M51.59,135.25h-2v1.12h1.79v0.34h-1.79v1.15h2.02v0.34h-2.39v-3.28h2.37V135.25z"/>
	<path class="st4" d="M54.86,134.92h0.36v3.28h-0.3l-2.12-2.69v2.69h-0.36v-3.28h0.35l2.07,2.63V134.92z"/>
</g>
<g>
	<path class="st4" d="M137.35,145.46h0.37v2.94h1.85v0.34h-2.22V145.46z"/>
	<path class="st4" d="M140.74,145.46v3.28h-0.37v-3.28H140.74z"/>
	<path class="st4" d="M144.26,145.46h0.4l-1.41,3.3h-0.33l-1.41-3.3h0.41l1.17,2.83L144.26,145.46z"/>
	<path class="st4" d="M145.8,145.46v3.28h-0.37v-3.28H145.8z"/>
	<path class="st4" d="M149.26,145.46h0.36v3.28h-0.3l-2.12-2.69v2.69h-0.36v-3.28h0.35l2.07,2.63V145.46z"/>
	<path class="st4" d="M152.16,148.8c-1.03,0-1.67-0.75-1.67-1.69c0-0.9,0.66-1.7,1.64-1.7c0.55,0,0.89,0.16,1.22,0.44l-0.24,0.28
		c-0.25-0.22-0.53-0.38-1-0.38c-0.73,0-1.25,0.61-1.25,1.35c0,0.79,0.5,1.37,1.3,1.37c0.38,0,0.72-0.15,0.95-0.33v-0.81h-1v-0.33
		h1.35v1.31C153.17,148.57,152.71,148.8,152.16,148.8z"/>
	<path class="st4" d="M156.34,145l-2.17,4.34h-0.33l2.17-4.34H156.34z"/>
</g>
<g>
	<path class="st4" d="M135.9,152.54c0.73,0.16,1.07,0.43,1.07,0.93c0,0.57-0.47,0.93-1.12,0.93c-0.52,0-0.95-0.17-1.34-0.52
		l0.23-0.27c0.34,0.31,0.67,0.46,1.12,0.46c0.44,0,0.73-0.23,0.73-0.56c0-0.31-0.16-0.48-0.85-0.63c-0.75-0.16-1.1-0.41-1.1-0.95
		c0-0.52,0.45-0.9,1.08-0.9c0.48,0,0.82,0.14,1.15,0.4l-0.22,0.29c-0.3-0.25-0.61-0.36-0.95-0.36c-0.43,0-0.7,0.23-0.7,0.53
		C135.01,152.21,135.18,152.38,135.9,152.54z"/>
	<path class="st4" d="M137.81,151.07h0.37v2.94h1.85v0.34h-2.22V151.07z"/>
	<path class="st4" d="M143.17,151.41h-2v1.12h1.79v0.34h-1.79v1.15h2.02v0.34h-2.39v-3.28h2.37V151.41z"/>
	<path class="st4" d="M146.4,151.41h-2v1.12h1.79v0.34h-1.79v1.15h2.02v0.34h-2.39v-3.28h2.37V151.41z"/>
	<path class="st4" d="M148.43,153.2h-0.8v1.16h-0.37v-3.28h1.23c0.74,0,1.23,0.39,1.23,1.04
		C149.71,152.83,149.12,153.2,148.43,153.2z M148.46,151.42h-0.83v1.44h0.81c0.54,0,0.9-0.29,0.9-0.73
		C149.34,151.66,148.99,151.42,148.46,151.42z"/>
	<path class="st4" d="M150.88,151.07v3.28h-0.37v-3.28H150.88z"/>
	<path class="st4" d="M154.35,151.07h0.36v3.28h-0.3l-2.12-2.69v2.69h-0.36v-3.28h0.35l2.07,2.63V151.07z"/>
	<path class="st4" d="M157.25,154.41c-1.03,0-1.67-0.75-1.67-1.69c0-0.9,0.66-1.7,1.64-1.7c0.55,0,0.89,0.16,1.22,0.44l-0.24,0.28
		c-0.25-0.22-0.53-0.38-1-0.38c-0.73,0-1.25,0.61-1.25,1.35c0,0.79,0.5,1.37,1.3,1.37c0.38,0,0.72-0.15,0.95-0.33v-0.81h-1v-0.33
		h1.35v1.31C158.26,154.18,157.8,154.41,157.25,154.41z"/>
</g>
<g>
	<path class="st4" d="M72.7,118.69h-1.14v-3.28h1.14c1.03,0,1.74,0.71,1.74,1.63C74.44,117.97,73.73,118.69,72.7,118.69z
		 M72.7,115.75h-0.77v2.6h0.77c0.83,0,1.36-0.56,1.36-1.29S73.53,115.75,72.7,115.75z"/>
	<path class="st4" d="M75.71,115.41v3.28h-0.37v-3.28H75.71z"/>
	<path class="st4" d="M79.18,115.41h0.36v3.28h-0.3L77.13,116v2.69h-0.36v-3.28h0.35l2.07,2.63V115.41z"/>
	<path class="st4" d="M80.96,115.41v3.28h-0.37v-3.28H80.96z"/>
	<path class="st4" d="M84.42,115.41h0.36v3.28h-0.3L82.37,116v2.69h-0.36v-3.28h0.35l2.07,2.63V115.41z"/>
	<path class="st4" d="M87.32,118.75c-1.03,0-1.67-0.75-1.67-1.69c0-0.9,0.66-1.7,1.64-1.7c0.55,0,0.89,0.16,1.22,0.44l-0.24,0.28
		c-0.25-0.22-0.53-0.38-1-0.38c-0.73,0-1.25,0.61-1.25,1.35c0,0.79,0.5,1.37,1.3,1.37c0.38,0,0.72-0.15,0.95-0.33v-0.81h-1v-0.33
		h1.35v1.31C88.33,118.52,87.88,118.75,87.32,118.75z"/>
</g>
</svg>
