<?xml version="1.0" encoding="utf-8"?>
<!-- Generator: Adobe Illustrator 25.2.0, SVG Export Plug-In . SVG Version: 6.00 Build 0)  -->
<svg version="1.1" id="Layer_1" xmlns="http://www.w3.org/2000/svg" xmlns:xlink="http://www.w3.org/1999/xlink" x="0px" y="0px"
	 viewBox="0 0 267.4 534.1" style="enable-background:new 0 0 267.4 534.1;" xml:space="preserve">
<style type="text/css">
	.st0{fill:none;stroke:#92A0B1;stroke-width:0.24;stroke-linejoin:round;stroke-miterlimit:10;}
	.st1{fill:none;stroke:#92A0B1;stroke-width:0.24;stroke-linejoin:round;stroke-miterlimit:10.0003;}
	.st2{fill:none;stroke:#00516B;stroke-width:0.25;stroke-linecap:round;stroke-linejoin:round;stroke-miterlimit:10;}
	.st3{fill:none;stroke:#00516B;stroke-width:0.25;stroke-linecap:round;stroke-linejoin:round;stroke-miterlimit:10.0003;}

		.st4{fill:none;stroke:#00516B;stroke-width:0.25;stroke-linecap:round;stroke-linejoin:round;stroke-miterlimit:10;stroke-dasharray:2,1;}
	.st5{fill-rule:evenodd;clip-rule:evenodd;fill:#00516B;}
	.st6{fill:#00516B;}
	.st7{fill:#245169;}
</style>
<g>
	<line class="st0" x1="13.5" y1="420.7" x2="13.5" y2="352.6"/>
	<line class="st0" x1="13.5" y1="333.7" x2="13.5" y2="235.5"/>
	<line class="st0" x1="19.5" y1="420.7" x2="19.5" y2="356.3"/>
	<line class="st0" x1="19.5" y1="331.2" x2="19.5" y2="235.5"/>
	<line class="st0" x1="25.5" y1="420.7" x2="25.5" y2="419.1"/>
	<line class="st0" x1="25.5" y1="332.1" x2="25.5" y2="235.5"/>
	<line class="st0" x1="25.5" y1="393.4" x2="25.5" y2="359.3"/>
	<line class="st0" x1="31.5" y1="420.7" x2="31.5" y2="419.1"/>
	<line class="st0" x1="31.5" y1="335.4" x2="31.5" y2="235.5"/>
	<line class="st0" x1="31.5" y1="393.4" x2="31.5" y2="348.9"/>
	<line class="st0" x1="37.5" y1="420.7" x2="37.5" y2="419.1"/>
	<line class="st0" x1="37.5" y1="277" x2="37.5" y2="235.5"/>
	<line class="st0" x1="37.5" y1="393.4" x2="37.5" y2="278.5"/>
	<line class="st0" x1="43.5" y1="420.7" x2="43.5" y2="419.1"/>
	<line class="st0" x1="43.5" y1="277" x2="43.5" y2="268.1"/>
	<line class="st0" x1="43.5" y1="393.4" x2="43.5" y2="278.5"/>
	<line class="st0" x1="49.5" y1="420.7" x2="49.5" y2="419.1"/>
	<line class="st0" x1="49.5" y1="277" x2="49.5" y2="268.1"/>
	<line class="st0" x1="49.5" y1="393.4" x2="49.5" y2="379"/>
	<line class="st0" x1="49.5" y1="303.2" x2="49.5" y2="278.5"/>
	<line class="st0" x1="49.5" y1="356.5" x2="49.5" y2="316.5"/>
	<line class="st0" x1="55.6" y1="420.7" x2="55.6" y2="419.1"/>
	<line class="st0" x1="55.6" y1="277" x2="55.6" y2="268.1"/>
	<line class="st0" x1="55.6" y1="393.4" x2="55.6" y2="379"/>
	<line class="st0" x1="55.6" y1="303.2" x2="55.6" y2="278.5"/>
	<line class="st0" x1="55.6" y1="356.5" x2="55.6" y2="316.5"/>
	<line class="st0" x1="61.6" y1="420.7" x2="61.6" y2="419.1"/>
	<line class="st0" x1="61.6" y1="356.5" x2="61.6" y2="316.5"/>
	<line class="st0" x1="61.6" y1="393.4" x2="61.6" y2="379"/>
	<line class="st0" x1="67.6" y1="420.7" x2="67.6" y2="419.1"/>
	<line class="st0" x1="67.6" y1="356.5" x2="67.6" y2="316.5"/>
	<line class="st0" x1="67.6" y1="393.4" x2="67.6" y2="379"/>
	<line class="st0" x1="73.6" y1="420.7" x2="73.6" y2="419.1"/>
	<line class="st0" x1="73.6" y1="356.5" x2="73.6" y2="316.5"/>
	<line class="st0" x1="73.6" y1="393.4" x2="73.6" y2="379"/>
	<line class="st0" x1="79.6" y1="420.7" x2="79.6" y2="419.1"/>
	<line class="st0" x1="79.6" y1="393.4" x2="79.6" y2="316.5"/>
	<line class="st0" x1="85.6" y1="420.7" x2="85.6" y2="419.1"/>
	<line class="st0" x1="85.6" y1="393.4" x2="85.6" y2="316.5"/>
	<line class="st0" x1="91.6" y1="420.7" x2="91.6" y2="419.1"/>
	<line class="st0" x1="91.6" y1="393.4" x2="91.6" y2="316.5"/>
	<line class="st0" x1="97.7" y1="420.7" x2="97.7" y2="419.1"/>
	<line class="st0" x1="97.7" y1="367.8" x2="97.7" y2="306.9"/>
	<line class="st0" x1="103.7" y1="420.7" x2="103.7" y2="419.1"/>
	<line class="st0" x1="103.7" y1="367.8" x2="103.7" y2="306.9"/>
	<line class="st0" x1="109.7" y1="420.7" x2="109.7" y2="419.1"/>
	<line class="st0" x1="109.7" y1="367.8" x2="109.7" y2="306.9"/>
	<line class="st0" x1="115.7" y1="420.7" x2="115.7" y2="419.1"/>
	<line class="st0" x1="115.7" y1="367.8" x2="115.7" y2="306.9"/>
	<line class="st0" x1="121.7" y1="414.5" x2="121.7" y2="306.9"/>
	<line class="st0" x1="127.7" y1="414.5" x2="127.7" y2="410.5"/>
	<line class="st0" x1="127.7" y1="399.3" x2="127.7" y2="306.9"/>
	<line class="st0" x1="133.7" y1="414.5" x2="133.7" y2="410.6"/>
	<line class="st0" x1="133.7" y1="399.1" x2="133.7" y2="306.9"/>
	<line class="st0" x1="139.8" y1="414.5" x2="139.8" y2="306.9"/>
	<line class="st0" x1="139.8" y1="264.4" x2="139.8" y2="235.5"/>
	<line class="st0" x1="145.8" y1="414.5" x2="145.8" y2="235.5"/>
	<line class="st0" x1="151.8" y1="374.4" x2="151.8" y2="235.5"/>
	<line class="st0" x1="151.8" y1="227.4" x2="151.8" y2="192.3"/>
	<line class="st0" x1="157.8" y1="378.9" x2="157.8" y2="192.3"/>
	<line class="st0" x1="163.8" y1="378.9" x2="163.8" y2="192.3"/>
	<line class="st0" x1="169.8" y1="378.9" x2="169.8" y2="195.2"/>
	<line class="st0" x1="175.9" y1="378.9" x2="175.9" y2="195.2"/>
	<line class="st0" x1="181.9" y1="378.9" x2="181.9" y2="346.5"/>
	<line class="st0" x1="181.9" y1="333.4" x2="181.9" y2="195.2"/>
	<line class="st0" x1="187.9" y1="374.4" x2="187.9" y2="352.8"/>
	<line class="st0" x1="187.9" y1="327.1" x2="187.9" y2="297.5"/>
	<line class="st0" x1="187.9" y1="268.6" x2="187.9" y2="216.2"/>
	<line class="st0" x1="193.9" y1="374.4" x2="193.9" y2="359.2"/>
	<line class="st0" x1="193.9" y1="216" x2="193.9" y2="215.3"/>
	<line class="st0" x1="193.9" y1="320.7" x2="193.9" y2="305.5"/>
	<line class="st0" x1="193.9" y1="268.6" x2="193.9" y2="216.2"/>
	<line class="st0" x1="199.9" y1="374.4" x2="199.9" y2="359.5"/>
	<line class="st0" x1="199.9" y1="216" x2="199.9" y2="215.3"/>
	<line class="st0" x1="199.9" y1="320.4" x2="199.9" y2="305.5"/>
	<line class="st0" x1="199.9" y1="268.6" x2="199.9" y2="216.2"/>
	<line class="st0" x1="205.9" y1="374.4" x2="205.9" y2="352.8"/>
	<line class="st0" x1="205.9" y1="268.6" x2="205.9" y2="215.3"/>
	<line class="st0" x1="205.9" y1="327.1" x2="205.9" y2="297.5"/>
	<line class="st0" x1="211.9" y1="374.4" x2="211.9" y2="352.8"/>
	<line class="st0" x1="211.9" y1="268.6" x2="211.9" y2="215.3"/>
	<line class="st0" x1="211.9" y1="327.1" x2="211.9" y2="305.5"/>
	<line class="st0" x1="218" y1="374.4" x2="218" y2="359.4"/>
	<line class="st0" x1="218" y1="268.6" x2="218" y2="215.3"/>
	<line class="st0" x1="218" y1="320.5" x2="218" y2="305.5"/>
	<line class="st0" x1="224" y1="374.4" x2="224" y2="359.3"/>
	<line class="st0" x1="224" y1="268.6" x2="224" y2="215.3"/>
	<line class="st0" x1="224" y1="320.6" x2="224" y2="305.5"/>
	<line class="st0" x1="230" y1="374.4" x2="230" y2="352.8"/>
	<line class="st0" x1="230" y1="268.6" x2="230" y2="215.3"/>
	<line class="st0" x1="230" y1="327.1" x2="230" y2="297.5"/>
	<line class="st0" x1="236" y1="374.4" x2="236" y2="346.3"/>
	<line class="st0" x1="236" y1="333.6" x2="236" y2="305.5"/>
	<line class="st0" x1="242" y1="374.4" x2="242" y2="305.5"/>
	<line class="st0" x1="248" y1="374.4" x2="248" y2="305.5"/>
	<line class="st0" x1="254" y1="374.4" x2="254" y2="306.9"/>
	<polygon class="st0" points="257.5,374.4 185.5,374.4 185.5,378.9 154.6,378.9 154.6,374.4 146.7,374.4 146.7,414.5 121.2,414.5
		121.2,420.7 7.4,420.7 7.4,235.5 42.6,235.5 42.6,262 38.6,262 38.6,263.2 42.6,263.2 42.6,264.4 39.4,264.4 39.4,268.1
		59.2,268.1 59.2,278.5 35.1,278.5 35.1,277 61,277 61,301.1 59.2,301.1 59.2,303.2 45.8,303.2 45.8,306.9 49,306.9 49,316.5
		94,316.5 94,306.9 143.1,306.9 143.1,288.2 144.7,288.2 144.7,287.4 143.1,287.4 143.1,285 144.7,285 144.7,284.2 143.1,284.2
		143.1,264.4 138.7,264.4 138.7,235.5 152.6,235.5 152.6,227.4 149.7,227.4 149.7,192.3 165.4,192.3 165.4,195.2 183.6,195.2
		183.6,215.3 202.4,215.3 202.4,216 188.2,216 188.2,215.3 187.8,215.3 187.8,216.2 202.8,216.2 202.8,215.3 233.9,215.3
		233.9,248.6 232.9,248.6 232.9,234.9 233.9,234.9 233.9,232.9 232.6,232.9 232.6,250.6 233.9,250.6 233.9,268.6 186.7,268.6
		187.1,267.4 186.7,267.3 186.3,268.6 183.6,268.6 183.6,297.5 189.1,297.5 189.1,305.5 203.5,305.5 203.5,297.5 211.5,297.5
		211.5,305.5 226,305.5 226,297.5 234,297.5 234,305.5 248.4,305.5 248.4,297.5 253.9,297.5 253.9,306.9 257.5,306.9 	"/>
	<path class="st0" d="M239.4,332.9h-0.7l-2.7,0.7l-2.7-0.3v-6.2h-6.7l-0.3-2.6l0.7-2.6v-0.7c-4.6-0.9-9.4-0.9-14,0v0.7l0.7,2.6
		l-0.3,2.6h-8.4l-0.3-2.6l0.7-2.6v-0.7c-4.6-0.9-9.4-0.9-14,0v0.7l0.7,2.6l-0.3,2.6h-6.7v6.2l-2.6,0.3l-2.7-0.7h-0.7
		c-0.9,4.6-0.9,9.4,0,14h0.7l2.7-0.7l2.6,0.3v6.2h6.7l0.3,2.6l-0.7,2.7v0.7c4.6,0.9,9.4,0.9,14,0v-0.7l-0.7-2.7l0.3-2.6h8.4l0.3,2.6
		l-0.7,2.7v0.7c4.6,0.9,9.4,0.9,14,0v-0.7l-0.7-2.7l0.3-2.6h6.7v-6.2l2.7-0.3l2.7,0.7h0.7C240.3,342.3,240.3,337.6,239.4,332.9z"/>
	<polygon class="st0" points="94,393.4 94,367.8 119.6,367.8 119.6,419.1 23.4,419.1 23.4,393.4 	"/>
	<rect x="47.4" y="356.5" class="st0" width="32.1" height="22.5"/>
	<path class="st0" d="M26.9,332.8l10.4,6l-12,20.8l-10.4-6c-5.8-3.3-7.7-10.7-4.4-16.4C13.8,331.4,21.1,329.4,26.9,332.8z"/>
	<ellipse class="st1" cx="130.9" cy="404.9" rx="6.4" ry="6.4"/>
	<path class="st2" d="M60,16.1c-0.9,0-1.6-0.7-1.6-1.6c0-0.9,0.7-1.6,1.6-1.6c0.9,0,1.6,0.7,1.6,1.6C61.6,15.4,60.9,16.1,60,16.1
		v-1.6v28.9l-1.5-4H60"/>
	<path class="st2" d="M137.1,250c0-0.9,0.7-1.6,1.6-1.6c0.9,0,1.6,0.7,1.6,1.6c0,0.9-0.7,1.6-1.6,1.6S137.1,250.9,137.1,250h1.6
		h-33.1l4-1.5v1.5"/>
	<path class="st2" d="M44.2,250c0-0.9-0.7-1.6-1.6-1.6c-0.9,0-1.6,0.7-1.6,1.6c0,0.9,0.7,1.6,1.6,1.6
		C43.5,251.6,44.2,250.9,44.2,250h-1.6h46.3l-4-1.5v1.5"/>
	<polygon class="st2" points="13.8,420.7 13.8,425.2 13,425.2 13,461.3 0.1,461.3 0.1,173 13,173 13,227.4 16.6,227.4 16.6,231
		17.4,231 17.4,235.5 7.4,235.5 7.4,420.7 	"/>
	<polygon class="st2" points="97.2,428.8 97.2,425.2 96.4,425.2 96.4,420.7 121.2,420.7 121.2,414.5 146.7,414.5 146.7,374.4
		154.6,374.4 154.6,378.9 154.8,378.9 154.8,428.8 	"/>
	<polygon class="st2" points="256.4,382.5 256.4,374.4 257.5,374.4 257.5,306.9 253.9,306.9 253.9,195.2 234.3,195.2 234.3,186
		260,186 260,173 267.3,173 267.3,461.3 260,461.3 260,382.5 	"/>
	<rect x="165.4" y="186" class="st2" width="24" height="9.2"/>
	<polygon class="st2" points="45.8,306.9 143.1,306.9 143.1,303.2 121.9,303.2 121.9,273.8 143.1,273.8 143.1,264.4 39.4,264.4
		39.4,268.1 59.2,268.1 59.2,277 62.9,277 62.9,273.8 116.3,273.8 116.3,303.2 62.9,303.2 62.9,301.1 59.2,301.1 59.2,303.2
		45.8,303.2 	"/>
	<polygon class="st2" points="152.6,227.4 42.6,227.4 42.6,231 41.8,231 41.8,235.5 152.6,235.5 	"/>
	<polyline class="st2" points="260,444.8 149.2,444.8 149.2,428.8 	"/>
	<rect x="0.3" y="0.1" class="st2" width="40.5" height="168.1"/>
	<polyline class="st2" points="0.3,72.2 5.9,72.2 5.9,162.6 35.2,162.6 35.2,5.7 0.3,5.7 	"/>
	<polygon class="st2" points="265.5,0.1 79.3,0.1 79.3,77.9 259.9,77.9 259.9,166.5 265.5,166.5 	"/>
	<polyline class="st2" points="265.5,5.7 84.9,5.7 84.9,72.3 265.5,72.3 	"/>
	<polyline class="st2" points="253.9,297.5 183.6,297.5 183.6,268.6 233.9,268.6 233.9,215.3 183.6,215.3 183.6,195.2 	"/>
	<rect x="142.3" y="273.8" class="st2" width="0.8" height="12.4"/>
	<rect x="142.3" y="286.2" class="st2" width="0.8" height="17"/>
	<rect x="121.9" y="273.8" class="st2" width="20.4" height="0.8"/>
	<rect x="121.9" y="302.4" class="st2" width="20.4" height="0.8"/>
	<polyline class="st2" points="188.2,215.3 188.2,216 202.4,216 202.4,215.3 	"/>
	<polyline class="st2" points="187.8,215.3 187.8,216.2 202.8,216.2 202.8,215.3 	"/>
	<polyline class="st2" points="186.3,268.6 186.7,267.3 187.1,267.4 186.7,268.6 	"/>
	<path class="st2" d="M101.3,294.3c1.1,0,2.1-0.1,3.2-0.5c0.9-0.3,1.7-0.7,2.5-1.2c0.3-0.2,0.5-0.4,0.8-0.6"/>
	<path class="st2" d="M101.3,294.3c-1.1,0-2.1-0.1-3.2-0.5c-0.9-0.3-1.7-0.7-2.5-1.2c-0.7-0.5-1.3-1.2-1.8-2
		c-0.4-0.6-0.6-1.4-0.6-2.1c0-0.7,0.2-1.5,0.6-2.1c0.5-0.8,1.1-1.5,1.8-2c0.8-0.5,1.6-1,2.5-1.2c1-0.3,2.1-0.5,3.2-0.5
		s2.1,0.1,3.2,0.5c0.9,0.3,1.7,0.7,2.5,1.2c0.3,0.2,0.5,0.4,0.8,0.6v6.9"/>
	<path class="st2" d="M111.3,293c-2.6,0.1-5.1,0.5-7.6,1"/>
	<path class="st2" d="M110.4,286.3c0.1-0.6,0.3-1.1,0.5-1.7c0.3-0.6,0.7-1.2,1.3-1.6c0.2-0.1,0.5-0.2,0.7-0.2l2.4,0.5
		c0.2,0,0.3,0.2,0.3,0.3v9.7c0,0.2-0.1,0.3-0.3,0.3l-2.4,0.5c-0.3,0-0.5,0-0.7-0.2c-0.6-0.4-1-0.9-1.3-1.6c-0.2-0.5-0.4-1.1-0.5-1.7
		c-0.1-0.7-0.2-1.5-0.2-2.2S110.3,287,110.4,286.3z"/>
	<path class="st2" d="M111.3,284c-2.6-0.1-5.1-0.5-7.6-1"/>
	<path class="st2" d="M112.1,288.5c0-0.3,0.3-0.6,0.6-0.6c0.3,0,0.6,0.3,0.6,0.6c0,0.3-0.3,0.6-0.6,0.6S112.1,288.9,112.1,288.5z"/>
	<polyline class="st2" points="235.1,247.1 235.1,254.2 252.1,254.2 252.1,229.3 235.1,229.3 235.1,236.4 	"/>
	<polyline class="st2" points="235.9,247.4 235.9,253.4 251.3,253.4 251.3,230.1 235.9,230.1 235.9,236.1 	"/>
	<line class="st2" x1="235.9" y1="247.4" x2="238.3" y2="247.4"/>
	<line class="st2" x1="235.9" y1="236.1" x2="238.3" y2="236.1"/>
	<line class="st2" x1="238.3" y1="236.1" x2="238.3" y2="247.4"/>
	<line class="st2" x1="251.3" y1="237.3" x2="238.3" y2="237.3"/>
	<line class="st2" x1="251.3" y1="246.2" x2="238.3" y2="246.2"/>
	<polyline class="st2" points="250.7,246.6 238.7,246.6 238.7,247.8 236.3,247.8 236.3,252.8 250.7,252.8 250.7,246.6 	"/>
	<rect x="238.7" y="237.7" class="st2" width="12" height="8"/>
	<line class="st2" x1="251" y1="249.9" x2="248.9" y2="249.9"/>
	<line class="st2" x1="239.2" y1="249.9" x2="236.1" y2="249.9"/>
	<line class="st2" x1="246.8" y1="249.9" x2="241.4" y2="249.9"/>
	<line class="st2" x1="238.5" y1="247.6" x2="238.5" y2="248.2"/>
	<line class="st2" x1="238.5" y1="251.7" x2="238.5" y2="253.1"/>
	<line class="st2" x1="240.3" y1="253.1" x2="240.3" y2="251"/>
	<line class="st2" x1="240.3" y1="248.9" x2="240.3" y2="234.7"/>
	<line class="st2" x1="240.3" y1="232.5" x2="240.3" y2="230.4"/>
	<line class="st2" x1="247.9" y1="253.1" x2="247.9" y2="251"/>
	<line class="st2" x1="247.9" y1="248.9" x2="247.9" y2="244.3"/>
	<line class="st2" x1="247.9" y1="232.5" x2="247.9" y2="230.4"/>
	<line class="st2" x1="242.2" y1="253.1" x2="242.2" y2="251.7"/>
	<line class="st2" x1="242.2" y1="231.8" x2="242.2" y2="230.4"/>
	<line class="st2" x1="242.2" y1="248.2" x2="242.2" y2="244.3"/>
	<line class="st2" x1="247.9" y1="239.2" x2="247.9" y2="234.7"/>
	<line class="st2" x1="242.2" y1="239.2" x2="242.2" y2="235.3"/>
	<path class="st2" d="M243.5,241.8c0-0.8,0.7-1.5,1.5-1.5s1.5,0.7,1.5,1.5c0,0.8-0.7,1.5-1.5,1.5S243.5,242.6,243.5,241.8z"/>
	<path class="st2" d="M239.6,249.8c0-0.5,0.4-0.9,0.9-0.9s0.9,0.4,0.9,0.9s-0.4,0.9-0.9,0.9C240,250.8,239.6,250.3,239.6,249.8z"/>
	<path class="st2" d="M246.7,233.7c0-0.5,0.4-0.9,0.9-0.9s0.9,0.4,0.9,0.9s-0.4,0.9-0.9,0.9C247.1,234.6,246.7,234.2,246.7,233.7z"
		/>
	<path class="st2" d="M239.1,233.7c0-0.7,0.5-1.2,1.2-1.2c0.7,0,1.2,0.6,1.2,1.2c0,0.7-0.5,1.2-1.2,1.2
		C239.6,235,239.1,234.4,239.1,233.7z"/>
	<path class="st2" d="M246.6,249.8c0-0.7,0.5-1.2,1.2-1.2c0.7,0,1.2,0.6,1.2,1.2c0,0.7-0.5,1.2-1.2,1.2S246.6,250.5,246.6,249.8z"/>
	<path class="st2" d="M242.9,241.8c0-1.2,1-2.1,2.1-2.1s2.1,0.9,2.1,2.1s-1,2.1-2.1,2.1S242.9,242.9,242.9,241.8z"/>
	<path class="st2" d="M246,249.8c0-1,0.8-1.8,1.8-1.8s1.8,0.8,1.8,1.8c0,1-0.8,1.8-1.8,1.8C246.8,251.6,246,250.8,246,249.8z"/>
	<path class="st2" d="M239,249.8c0-0.9,0.7-1.5,1.5-1.5s1.5,0.7,1.5,1.5c0,0.9-0.7,1.5-1.5,1.5S239,250.7,239,249.8z"/>
	<path class="st2" d="M238.5,233.7c0-1,0.8-1.8,1.8-1.8c1,0,1.8,0.8,1.8,1.8c0,1-0.8,1.8-1.8,1.8S238.5,234.7,238.5,233.7z"/>
	<path class="st2" d="M246.1,233.7c0-0.9,0.7-1.5,1.5-1.5s1.5,0.7,1.5,1.5c0,0.9-0.7,1.5-1.5,1.5
		C246.7,235.3,246.1,234.6,246.1,233.7z"/>
	<line class="st2" x1="244.1" y1="253.1" x2="244.1" y2="242.8"/>
	<line class="st2" x1="246" y1="253.1" x2="246" y2="251.7"/>
	<line class="st2" x1="246" y1="248.2" x2="246" y2="242.8"/>
	<line class="st2" x1="246" y1="231.8" x2="246" y2="230.4"/>
	<line class="st2" x1="246" y1="240.7" x2="246" y2="235.3"/>
	<line class="st2" x1="244.1" y1="240.7" x2="244.1" y2="230.4"/>
	<line class="st2" x1="249.7" y1="230.4" x2="249.7" y2="231.8"/>
	<line class="st2" x1="249.7" y1="251.7" x2="249.7" y2="253.1"/>
	<line class="st2" x1="249.7" y1="235.3" x2="249.7" y2="248.2"/>
	<line class="st2" x1="238.5" y1="235.9" x2="238.5" y2="235.3"/>
	<line class="st2" x1="238.5" y1="231.8" x2="238.5" y2="230.4"/>
	<polyline class="st2" points="250.7,236.9 238.7,236.9 238.7,235.7 236.3,235.7 236.3,230.7 250.7,230.7 250.7,236.9 	"/>
	<line class="st2" x1="251" y1="233.6" x2="248.9" y2="233.6"/>
	<line class="st2" x1="239.2" y1="233.6" x2="236.1" y2="233.6"/>
	<line class="st2" x1="246.8" y1="233.6" x2="241.4" y2="233.6"/>
	<line class="st2" x1="251" y1="241.8" x2="247" y2="241.8"/>
	<line class="st2" x1="243.1" y1="241.8" x2="238.5" y2="241.8"/>
	<rect x="234.9" y="236.4" class="st2" width="3.1" height="10.6"/>
	<rect x="236.2" y="237.7" class="st2" width="1.3" height="0.4"/>
	<path class="st2" d="M236.3,238.1c0.1,0.3,0.5,0.5,0.8,0.4c0.2-0.1,0.3-0.2,0.4-0.4"/>
	<path class="st2" d="M237.5,237.7c-0.1-0.3-0.5-0.5-0.8-0.4c-0.2,0.1-0.3,0.2-0.4,0.4"/>
	<rect x="236.2" y="245.4" class="st2" width="1.3" height="0.4"/>
	<path class="st2" d="M237.5,245.4c-0.1-0.3-0.5-0.5-0.8-0.4c-0.2,0.1-0.3,0.2-0.4,0.4"/>
	<path class="st2" d="M236.3,245.8c0.1,0.3,0.5,0.5,0.8,0.4c0.2-0.1,0.3-0.2,0.4-0.4"/>
	<rect x="236.2" y="241.5" class="st2" width="1.3" height="0.4"/>
	<path class="st2" d="M237.5,241.5c-0.1-0.3-0.5-0.5-0.8-0.4c-0.2,0.1-0.3,0.2-0.4,0.4"/>
	<path class="st2" d="M236.3,242c0.1,0.3,0.5,0.5,0.8,0.4c0.2-0.1,0.3-0.2,0.4-0.4"/>
	<rect x="236.2" y="243.5" class="st2" width="1.3" height="0.4"/>
	<path class="st2" d="M237.5,243.5c-0.1-0.3-0.5-0.5-0.8-0.4c-0.2,0.1-0.3,0.2-0.4,0.4"/>
	<path class="st2" d="M236.3,243.9c0.1,0.3,0.5,0.5,0.8,0.4c0.2-0.1,0.3-0.2,0.4-0.4"/>
	<rect x="236.2" y="239.6" class="st2" width="1.3" height="0.4"/>
	<path class="st2" d="M237.5,239.6c-0.1-0.3-0.5-0.5-0.8-0.4c-0.2,0.1-0.3,0.2-0.4,0.4"/>
	<path class="st2" d="M236.3,240c0.1,0.3,0.5,0.5,0.8,0.4c0.2-0.1,0.3-0.2,0.4-0.4"/>
	<polyline class="st2" points="217.8,199.2 230.6,199.2 230.6,212.9 206.5,212.9 206.5,199.2 216.9,199.2 	"/>
	<line class="st2" x1="218.9" y1="199.2" x2="218.9" y2="212.9"/>
	<line class="st2" x1="218.1" y1="199.2" x2="218.1" y2="212.9"/>
	<path class="st2" d="M223.3,203.2c0-0.8,0.6-1.4,1.4-1.4s1.4,0.6,1.4,1.4c0,0.8-0.6,1.4-1.4,1.4S223.3,204,223.3,203.2z"/>
	<path class="st2" d="M210.9,203.2c0-0.8,0.6-1.4,1.4-1.4c0.8,0,1.4,0.6,1.4,1.4c0,0.8-0.6,1.4-1.4,1.4S210.9,204,210.9,203.2z"/>
	<path class="st2" d="M218.5,198c0.4,0,0.8-0.4,0.8-0.8s-0.4-0.8-0.8-0.8s-0.8,0.4-0.8,0.8c0,0.1,0,0.3,0.1,0.4"/>
	<line class="st2" x1="218.5" y1="198" x2="215.3" y2="203.7"/>
	<line class="st2" x1="217.8" y1="197.6" x2="214.6" y2="203.3"/>
	<path class="st2" d="M214.6,203.3c-0.1,0.2,0,0.4,0.1,0.6c0.2,0.1,0.4,0.1,0.5-0.1"/>
	<line class="st2" x1="219.1" y1="196.6" x2="220.1" y2="196.6"/>
	<line class="st2" x1="219.1" y1="197.8" x2="219.7" y2="197.8"/>
	<line class="st2" x1="220.1" y1="197.8" x2="220.1" y2="196.6"/>
	<line class="st2" x1="219.9" y1="197.4" x2="219.9" y2="198.5"/>
	<line class="st2" x1="219.7" y1="197.4" x2="219.7" y2="198.5"/>
	<line class="st2" x1="219.7" y1="198.5" x2="219.9" y2="198.5"/>
	<line class="st2" x1="219.7" y1="197.4" x2="219.9" y2="197.4"/>
	<line class="st2" x1="219.9" y1="197.8" x2="220.1" y2="197.8"/>
	<line class="st2" x1="217.1" y1="200.6" x2="216.4" y2="200.2"/>
	<rect x="140.7" y="286.2" class="st2" width="1.6" height="16.2"/>
	<line class="st2" x1="123.5" y1="274.6" x2="123.5" y2="302.4"/>
	<rect x="140.7" y="274.6" class="st2" width="1.6" height="11.6"/>
	<rect x="143.1" y="284.2" class="st2" width="1.6" height="0.8"/>
	<rect x="143.1" y="287.4" class="st2" width="1.6" height="0.8"/>
	<rect x="232.6" y="232.9" class="st2" width="0.3" height="17.7"/>
	<rect x="232.9" y="232.9" class="st2" width="1" height="2"/>
	<rect x="232.9" y="248.6" class="st2" width="1" height="2"/>
	<line class="st2" x1="211.5" y1="302.3" x2="226" y2="302.3"/>
	<polyline class="st2" points="211.5,297.5 211.5,305.5 226,305.5 226,297.5 	"/>
	<line class="st2" x1="189.1" y1="302.3" x2="203.5" y2="302.3"/>
	<polyline class="st2" points="189.1,297.5 189.1,305.5 203.5,305.5 203.5,297.5 	"/>
	<line class="st2" x1="248.4" y1="302.3" x2="234" y2="302.3"/>
	<polyline class="st2" points="248.4,297.5 248.4,305.5 234,305.5 234,297.5 	"/>
	<rect x="185.3" y="327.1" class="st2" width="48.1" height="25.7"/>
	<path class="st2" d="M213.1,358.8c4.6,0.9,9.4,0.9,14,0"/>
	<path class="st2" d="M213.1,358.1c4.6,0.9,9.4,0.9,14,0"/>
	<path class="st2" d="M213.8,355.4c4.2,0.7,8.4,0.7,12.6,0"/>
	<line class="st2" x1="227.1" y1="358.1" x2="226.4" y2="355.4"/>
	<line class="st2" x1="226.4" y1="355.4" x2="226.7" y2="352.8"/>
	<line class="st2" x1="213.1" y1="358.1" x2="213.8" y2="355.4"/>
	<line class="st2" x1="213.8" y1="355.4" x2="213.5" y2="352.8"/>
	<line class="st2" x1="213.1" y1="358.8" x2="213.1" y2="358.1"/>
	<line class="st2" x1="227.1" y1="358.8" x2="227.1" y2="358.1"/>
	<path class="st2" d="M191.5,358.8c4.6,0.9,9.4,0.9,14,0"/>
	<path class="st2" d="M191.5,358.1c4.6,0.9,9.4,0.9,14,0"/>
	<path class="st2" d="M192.2,355.4c4.2,0.7,8.4,0.7,12.6,0"/>
	<line class="st2" x1="191.5" y1="358.1" x2="192.2" y2="355.4"/>
	<line class="st2" x1="192.2" y1="355.4" x2="192" y2="352.8"/>
	<line class="st2" x1="205.6" y1="358.1" x2="204.9" y2="355.4"/>
	<line class="st2" x1="204.9" y1="355.4" x2="205.1" y2="352.8"/>
	<line class="st2" x1="205.6" y1="358.8" x2="205.6" y2="358.1"/>
	<line class="st2" x1="191.5" y1="358.8" x2="191.5" y2="358.1"/>
	<path class="st2" d="M227.1,321.1c-4.6-0.9-9.4-0.9-14,0"/>
	<path class="st2" d="M227.1,321.8c-4.6-0.9-9.4-0.9-14,0"/>
	<path class="st2" d="M226.4,324.5c-4.2-0.7-8.4-0.7-12.6,0"/>
	<line class="st2" x1="227.1" y1="321.8" x2="226.4" y2="324.5"/>
	<line class="st2" x1="226.4" y1="324.5" x2="226.7" y2="327.1"/>
	<line class="st2" x1="213.1" y1="321.8" x2="213.8" y2="324.5"/>
	<line class="st2" x1="213.8" y1="324.5" x2="213.5" y2="327.1"/>
	<line class="st2" x1="213.1" y1="321.1" x2="213.1" y2="321.8"/>
	<line class="st2" x1="227.1" y1="321.1" x2="227.1" y2="321.8"/>
	<path class="st2" d="M205.6,321.1c-4.6-0.9-9.4-0.9-14,0"/>
	<path class="st2" d="M205.6,321.8c-4.6-0.9-9.4-0.9-14,0"/>
	<path class="st2" d="M204.9,324.5c-4.2-0.7-8.4-0.7-12.6,0"/>
	<line class="st2" x1="191.5" y1="321.8" x2="192.2" y2="324.5"/>
	<line class="st2" x1="192.2" y1="324.5" x2="192" y2="327.1"/>
	<line class="st2" x1="205.6" y1="321.8" x2="204.9" y2="324.5"/>
	<line class="st2" x1="204.9" y1="324.5" x2="205.1" y2="327.1"/>
	<line class="st2" x1="205.6" y1="321.1" x2="205.6" y2="321.8"/>
	<line class="st2" x1="191.5" y1="321.1" x2="191.5" y2="321.8"/>
	<path class="st2" d="M179.3,332.9c-0.9,4.6-0.9,9.4,0,14"/>
	<path class="st2" d="M180,332.9c-0.9,4.6-0.9,9.4,0,14"/>
	<path class="st2" d="M182.6,333.6c-0.7,4.2-0.7,8.4,0,12.6"/>
	<line class="st2" x1="180" y1="347" x2="182.6" y2="346.3"/>
	<line class="st2" x1="182.6" y1="346.3" x2="185.3" y2="346.5"/>
	<line class="st2" x1="180" y1="332.9" x2="182.6" y2="333.6"/>
	<line class="st2" x1="182.6" y1="333.6" x2="185.3" y2="333.3"/>
	<line class="st2" x1="179.3" y1="332.9" x2="180" y2="332.9"/>
	<line class="st2" x1="179.3" y1="347" x2="180" y2="347"/>
	<path class="st2" d="M239.4,347c0.9-4.6,0.9-9.4,0-14"/>
	<path class="st2" d="M238.7,347c0.9-4.6,0.9-9.4,0-14"/>
	<path class="st2" d="M236,346.3c0.7-4.2,0.7-8.4,0-12.6"/>
	<line class="st2" x1="238.7" y1="347" x2="236" y2="346.3"/>
	<line class="st2" x1="236" y1="346.3" x2="233.4" y2="346.5"/>
	<line class="st2" x1="238.7" y1="332.9" x2="236" y2="333.6"/>
	<line class="st2" x1="236" y1="333.6" x2="233.4" y2="333.3"/>
	<line class="st2" x1="239.4" y1="332.9" x2="238.7" y2="332.9"/>
	<line class="st2" x1="239.4" y1="347" x2="238.7" y2="347"/>
	<ellipse class="st3" cx="130.9" cy="404.9" rx="6.4" ry="6.4"/>
	<path class="st2" d="M129.2,404.9c0-0.9,0.7-1.6,1.6-1.6s1.6,0.7,1.6,1.6s-0.7,1.6-1.6,1.6C129.9,406.5,129.2,405.8,129.2,404.9z"
		/>
	<line class="st2" x1="130.8" y1="398.4" x2="130.8" y2="403.2"/>
	<line class="st2" x1="130.8" y1="406.5" x2="130.8" y2="411.3"/>
	<line class="st2" x1="137.3" y1="404.9" x2="132.5" y2="404.9"/>
	<line class="st2" x1="129.2" y1="404.9" x2="124.4" y2="404.9"/>
	<rect x="49" y="306.9" class="st2" width="44.9" height="9.6"/>
	<rect x="47.4" y="356.5" class="st2" width="32.1" height="22.5"/>
	<path class="st2" d="M41.3,212.2c0-3.5,2.8-6.3,6.3-6.3c3.5,0,6.3,2.8,6.3,6.3c0,3.5-2.8,6.3-6.3,6.3
		C44.1,218.5,41.3,215.7,41.3,212.2z"/>
	<line class="st2" x1="247.9" y1="142.5" x2="247.9" y2="166.5"/>
	<line class="st2" x1="237.5" y1="170.6" x2="237.5" y2="166.5"/>
	<line class="st2" x1="236.7" y1="170.6" x2="237.5" y2="170.6"/>
	<line class="st2" x1="236.7" y1="166.5" x2="236.7" y2="170.6"/>
	<line class="st2" x1="233.9" y1="151.7" x2="233.1" y2="151.7"/>
	<line class="st2" x1="233.9" y1="158.1" x2="233.9" y2="151.7"/>
	<line class="st2" x1="233.1" y1="158.1" x2="233.9" y2="158.1"/>
	<line class="st2" x1="233.1" y1="151.7" x2="233.1" y2="158.1"/>
	<line class="st2" x1="235.1" y1="142.5" x2="235.1" y2="166.5"/>
	<line class="st2" x1="225.8" y1="142.5" x2="230.7" y2="142.5"/>
	<line class="st2" x1="225.8" y1="166.5" x2="225.8" y2="142.5"/>
	<line class="st2" x1="230.7" y1="166.5" x2="225.8" y2="166.5"/>
	<line class="st2" x1="230.7" y1="142.5" x2="230.7" y2="166.5"/>
	<line class="st2" x1="247.9" y1="141.7" x2="233.9" y2="141.7"/>
	<line class="st2" x1="247.9" y1="132.9" x2="247.9" y2="141.7"/>
	<line class="st2" x1="233.9" y1="132.9" x2="247.9" y2="132.9"/>
	<line class="st2" x1="233.9" y1="141.7" x2="233.9" y2="132.9"/>
	<line class="st2" x1="233.9" y1="176.2" x2="233.9" y2="167.3"/>
	<line class="st2" x1="247.9" y1="176.2" x2="233.9" y2="176.2"/>
	<line class="st2" x1="247.9" y1="167.3" x2="247.9" y2="176.2"/>
	<line class="st2" x1="233.9" y1="167.3" x2="236.7" y2="167.3"/>
	<line class="st2" x1="231.9" y1="166.5" x2="231.9" y2="142.5"/>
	<line class="st2" x1="251.1" y1="166.5" x2="231.9" y2="166.5"/>
	<line class="st2" x1="251.1" y1="142.5" x2="251.1" y2="166.5"/>
	<line class="st2" x1="231.9" y1="142.5" x2="251.1" y2="142.5"/>
	<line class="st2" x1="237.5" y1="167.3" x2="247.9" y2="167.3"/>
	<rect x="129.9" y="110.4" class="st2" width="57.7" height="30.5"/>
	<polyline class="st2" points="137.9,140.9 137.9,144.9 154,144.9 154,140.9 	"/>
	<line class="st2" x1="154" y1="144.9" x2="154" y2="148.9"/>
	<line class="st2" x1="137.9" y1="144.9" x2="137.9" y2="148.9"/>
	<line class="st2" x1="137.9" y1="148.9" x2="154" y2="148.9"/>
	<line class="st2" x1="137.9" y1="147.9" x2="154" y2="147.9"/>
	<polyline class="st2" points="137.9,110.4 137.9,106.4 154,106.4 154,110.4 	"/>
	<line class="st2" x1="154" y1="106.4" x2="154" y2="102.4"/>
	<line class="st2" x1="137.9" y1="106.4" x2="137.9" y2="102.4"/>
	<line class="st2" x1="137.9" y1="102.4" x2="154" y2="102.4"/>
	<line class="st2" x1="137.9" y1="103.4" x2="154" y2="103.4"/>
	<polyline class="st2" points="179.6,140.9 179.6,144.9 163.6,144.9 163.6,140.9 	"/>
	<line class="st2" x1="163.6" y1="144.9" x2="163.6" y2="148.9"/>
	<line class="st2" x1="179.6" y1="144.9" x2="179.6" y2="148.9"/>
	<line class="st2" x1="179.6" y1="148.9" x2="163.6" y2="148.9"/>
	<line class="st2" x1="179.6" y1="147.9" x2="163.6" y2="147.9"/>
	<polyline class="st2" points="179.6,110.4 179.6,106.4 163.6,106.4 163.6,110.4 	"/>
	<line class="st2" x1="163.6" y1="106.4" x2="163.6" y2="102.4"/>
	<line class="st2" x1="179.6" y1="106.4" x2="179.6" y2="102.4"/>
	<line class="st2" x1="179.6" y1="102.4" x2="163.6" y2="102.4"/>
	<line class="st2" x1="179.6" y1="103.4" x2="163.6" y2="103.4"/>
	<polyline class="st2" points="129.9,133.7 125.9,133.7 125.9,117.6 129.9,117.6 	"/>
	<line class="st2" x1="125.9" y1="117.6" x2="121.9" y2="117.6"/>
	<line class="st2" x1="125.9" y1="133.7" x2="121.9" y2="133.7"/>
	<line class="st2" x1="121.9" y1="133.7" x2="121.9" y2="117.6"/>
	<line class="st2" x1="122.9" y1="133.7" x2="122.9" y2="117.6"/>
	<polyline class="st2" points="187.6,133.7 191.7,133.7 191.7,117.6 187.6,117.6 	"/>
	<line class="st2" x1="191.7" y1="117.6" x2="195.7" y2="117.6"/>
	<line class="st2" x1="191.7" y1="133.7" x2="195.7" y2="133.7"/>
	<line class="st2" x1="195.7" y1="133.7" x2="195.7" y2="117.6"/>
	<line class="st2" x1="194.7" y1="133.7" x2="194.7" y2="117.6"/>
	<line class="st2" x1="24.2" y1="194.8" x2="34.1" y2="208.2"/>
	<line class="st2" x1="34.1" y1="208.2" x2="35.2" y2="207.4"/>
	<line class="st2" x1="35.2" y1="207.4" x2="25.3" y2="194"/>
	<line class="st2" x1="25.3" y1="194" x2="24.2" y2="194.8"/>
	<line class="st2" x1="25.3" y1="194" x2="27.3" y2="192.5"/>
	<line class="st2" x1="27.3" y1="192.5" x2="37.2" y2="205.9"/>
	<line class="st2" x1="35.2" y1="207.4" x2="37.2" y2="205.9"/>
	<line class="st2" x1="27.3" y1="192.5" x2="37.7" y2="184.9"/>
	<line class="st2" x1="37.7" y1="184.9" x2="47.6" y2="198.3"/>
	<line class="st2" x1="47.6" y1="198.3" x2="37.2" y2="205.9"/>
	<line class="st2" x1="25.4" y1="193.1" x2="24.6" y2="192.1"/>
	<line class="st2" x1="24.6" y1="192.1" x2="32.9" y2="186"/>
	<line class="st2" x1="32.9" y1="186" x2="34.5" y2="184.8"/>
	<line class="st2" x1="34.5" y1="184.8" x2="35.2" y2="185.9"/>
	<line class="st2" x1="35.2" y1="185.9" x2="25.4" y2="193.1"/>
	<line class="st2" x1="36.1" y1="207.6" x2="45.9" y2="200.3"/>
	<line class="st2" x1="45.9" y1="200.3" x2="46.6" y2="201.4"/>
	<line class="st2" x1="46.6" y1="201.4" x2="36.8" y2="208.6"/>
	<line class="st2" x1="36.8" y1="208.6" x2="36.1" y2="207.6"/>
	<line class="st2" x1="34.8" y1="185.4" x2="37.9" y2="183.1"/>
	<line class="st2" x1="37.9" y1="183.1" x2="49.4" y2="198.6"/>
	<line class="st2" x1="49.4" y1="198.6" x2="46.3" y2="200.9"/>
	<line class="st2" x1="25" y1="192.6" x2="22.4" y2="194.5"/>
	<line class="st2" x1="22.4" y1="194.5" x2="33.9" y2="210"/>
	<line class="st2" x1="33.9" y1="210" x2="36.4" y2="208.1"/>
	<line class="st2" x1="119.6" y1="419.1" x2="23.4" y2="419.1"/>
	<line class="st2" x1="23.4" y1="393.4" x2="23.4" y2="419.1"/>
	<line class="st2" x1="26.6" y1="393.4" x2="26.6" y2="415.1"/>
	<line class="st2" x1="116.4" y1="415.9" x2="23.4" y2="415.9"/>
	<line class="st2" x1="94" y1="393.4" x2="23.4" y2="393.4"/>
	<line class="st2" x1="94" y1="393.4" x2="94" y2="414.3"/>
	<line class="st2" x1="71.5" y1="393.4" x2="71.5" y2="414.3"/>
	<line class="st2" x1="23.4" y1="415.1" x2="26.6" y2="415.1"/>
	<line class="st2" x1="119.6" y1="419.1" x2="119.6" y2="367.8"/>
	<line class="st2" x1="94" y1="367.8" x2="119.6" y2="367.8"/>
	<line class="st2" x1="116.4" y1="415.9" x2="116.4" y2="393.4"/>
	<line class="st2" x1="94" y1="393.4" x2="94" y2="367.8"/>
	<line class="st2" x1="94" y1="393.4" x2="114.8" y2="393.4"/>
	<line class="st2" x1="119.6" y1="393.4" x2="116.4" y2="393.4"/>
	<line class="st2" x1="119.6" y1="393.4" x2="119.6" y2="391.8"/>
	<line class="st2" x1="114.8" y1="414.3" x2="26.6" y2="414.3"/>
	<line class="st2" x1="49" y1="393.4" x2="49" y2="414.3"/>
	<polyline class="st2" points="119.6,391.8 114.8,391.8 114.8,414.3 	"/>
	<rect x="54.7" y="312.5" class="st2" width="33.7" height="0.8"/>
	<polyline class="st2" points="66.7,312.5 66.7,309.3 76.3,309.3 76.3,312.5 	"/>
	<polyline class="st2" points="76.3,313.3 76.3,314.9 66.7,314.9 66.7,313.3 	"/>
	<path class="st2" d="M26.9,332.8c-5.8-3.3-13.1-1.4-16.4,4.4s-1.4,13.1,4.4,16.4"/>
	<path class="st2" d="M25.3,335.5c-4.2-2.4-9.6-1-12,3.2c-2.4,4.2-1,9.6,3.2,12"/>
	<line class="st2" x1="16.5" y1="350.8" x2="26.9" y2="356.8"/>
	<line class="st2" x1="35.7" y1="341.6" x2="25.3" y2="335.5"/>
	<line class="st2" x1="14.9" y1="353.6" x2="25.3" y2="359.6"/>
	<line class="st2" x1="25.3" y1="359.6" x2="37.3" y2="338.8"/>
	<line class="st2" x1="37.3" y1="338.8" x2="26.9" y2="332.8"/>
	<path class="st2" d="M26.7,336.3c-4.2-2.4-9.6-1-12,3.2c-2.4,4.2-1,9.6,3.2,12"/>
	<rect x="114.2" y="224.4" class="st2" width="31.9" height="1.4"/>
	<path class="st2" d="M146.1,193.9c-17.6,0-31.9,14.3-31.9,31.9"/>
	<polygon class="st2" points="152.1,431.2 154.5,431.2 154.5,439.5 257.6,439.5 257.6,441.9 152.1,441.9 	"/>
	<rect x="154.8" y="378.9" class="st2" width="1.6" height="3.6"/>
	<rect x="146.1" y="192.3" class="st2" width="3.6" height="1.6"/>
	<rect x="146.1" y="188.7" class="st2" width="3.6" height="3.6"/>
	<line class="st2" x1="40.8" y1="14.5" x2="42.8" y2="14.5"/>
	<line class="st2" x1="44" y1="14.5" x2="76.1" y2="14.5"/>
	<line class="st2" x1="77.3" y1="14.5" x2="79.3" y2="14.5"/>
	<line class="st2" x1="40.8" y1="24.2" x2="42.8" y2="24.2"/>
	<line class="st2" x1="44" y1="24.2" x2="76.1" y2="24.2"/>
	<line class="st2" x1="77.3" y1="24.2" x2="79.3" y2="24.2"/>
	<line class="st2" x1="40.8" y1="33.8" x2="42.8" y2="33.8"/>
	<line class="st2" x1="44" y1="33.8" x2="76.1" y2="33.8"/>
	<line class="st2" x1="77.3" y1="33.8" x2="79.3" y2="33.8"/>
	<line class="st2" x1="40.8" y1="43.4" x2="42.8" y2="43.4"/>
	<line class="st2" x1="44" y1="43.4" x2="76.1" y2="43.4"/>
	<line class="st2" x1="77.3" y1="43.4" x2="79.3" y2="43.4"/>
	<line class="st2" x1="185.5" y1="378.9" x2="185.5" y2="374.4"/>
	<rect x="232.7" y="188.7" class="st2" width="1.6" height="3.6"/>
	<rect x="189.4" y="188.7" class="st2" width="1.6" height="3.6"/>
	<rect x="203" y="188.7" class="st2" width="1.6" height="3.6"/>
	<line class="st2" x1="232.7" y1="189.5" x2="204.6" y2="189.5"/>
	<line class="st2" x1="232.7" y1="190.3" x2="204.6" y2="190.3"/>
	<line class="st2" x1="203" y1="189.5" x2="191" y2="189.5"/>
	<line class="st2" x1="203" y1="190.3" x2="191" y2="190.3"/>
	<line class="st2" x1="234.3" y1="195.2" x2="189.4" y2="195.2"/>
	<line class="st2" x1="234.3" y1="186" x2="189.4" y2="186"/>
	<rect x="146.1" y="225.8" class="st2" width="3.6" height="1.6"/>
	<line class="st2" x1="138.7" y1="264.4" x2="138.7" y2="235.5"/>
	<line class="st2" x1="132" y1="264.4" x2="132" y2="263.2"/>
	<line class="st2" x1="132" y1="262" x2="132" y2="235.5"/>
	<line class="st2" x1="125.4" y1="264.4" x2="125.4" y2="263.2"/>
	<line class="st2" x1="125.4" y1="262" x2="125.4" y2="235.5"/>
	<line class="st2" x1="118.8" y1="264.4" x2="118.8" y2="263.2"/>
	<line class="st2" x1="118.8" y1="262" x2="118.8" y2="235.5"/>
	<line class="st2" x1="112.2" y1="264.4" x2="112.2" y2="263.2"/>
	<line class="st2" x1="112.2" y1="262" x2="112.2" y2="235.5"/>
	<line class="st2" x1="105.6" y1="264.4" x2="105.6" y2="263.2"/>
	<line class="st2" x1="105.6" y1="262" x2="105.6" y2="235.5"/>
	<line class="st2" x1="42.6" y1="264.4" x2="42.6" y2="263.2"/>
	<line class="st2" x1="42.6" y1="262" x2="42.6" y2="235.5"/>
	<line class="st2" x1="49.2" y1="264.4" x2="49.2" y2="263.2"/>
	<line class="st2" x1="49.2" y1="262" x2="49.2" y2="235.5"/>
	<line class="st2" x1="55.9" y1="264.4" x2="55.9" y2="263.2"/>
	<line class="st2" x1="55.9" y1="262" x2="55.9" y2="235.5"/>
	<line class="st2" x1="62.5" y1="264.4" x2="62.5" y2="263.2"/>
	<line class="st2" x1="62.5" y1="262" x2="62.5" y2="235.5"/>
	<line class="st2" x1="69.1" y1="264.4" x2="69.1" y2="263.2"/>
	<line class="st2" x1="69.1" y1="262" x2="69.1" y2="235.5"/>
	<line class="st2" x1="75.7" y1="264.4" x2="75.7" y2="263.2"/>
	<line class="st2" x1="75.7" y1="262" x2="75.7" y2="235.5"/>
	<line class="st2" x1="82.3" y1="264.4" x2="82.3" y2="263.2"/>
	<line class="st2" x1="82.3" y1="262" x2="82.3" y2="235.5"/>
	<line class="st2" x1="88.9" y1="264.4" x2="88.9" y2="263.2"/>
	<line class="st2" x1="88.9" y1="262" x2="88.9" y2="235.6"/>
	<line class="st2" x1="95.6" y1="262" x2="95.6" y2="251.4"/>
	<line class="st2" x1="95.6" y1="250" x2="95.6" y2="248.5"/>
	<line class="st2" x1="95.6" y1="264.4" x2="95.6" y2="263.2"/>
	<polyline class="st2" points="91.8,235.6 95.2,248.4 98.1,249.2 93.2,250.8 96.1,251.6 99.5,264.4 	"/>
	<polyline class="st2" points="95,235.6 98.4,248.4 101.3,249.2 96.5,250.8 99.3,251.6 102.7,264.4 	"/>
	<line class="st2" x1="99" y1="251.5" x2="99" y2="249.9"/>
	<line class="st2" x1="99" y1="248.5" x2="99" y2="235.5"/>
	<rect x="35.1" y="277" class="st2" width="24.1" height="1.4"/>
	<path class="st2" d="M35.1,277c0,13.3,10.8,24.1,24.1,24.1"/>
	<rect x="163.8" y="188.7" class="st2" width="1.6" height="3.6"/>
	<rect x="149.7" y="188.7" class="st2" width="1.6" height="3.6"/>
	<line class="st2" x1="163.8" y1="189.5" x2="151.3" y2="189.5"/>
	<line class="st2" x1="163.8" y1="190.3" x2="151.3" y2="190.3"/>
	<rect x="41" y="227.4" class="st2" width="1.6" height="3.6"/>
	<rect x="16.6" y="227.4" class="st2" width="1.6" height="3.6"/>
	<line class="st2" x1="41" y1="228.2" x2="18.2" y2="228.2"/>
	<line class="st2" x1="41" y1="229" x2="18.2" y2="229"/>
	<line class="st2" x1="41.8" y1="235.5" x2="17.4" y2="235.5"/>
	<rect x="185.5" y="378.9" class="st2" width="1.6" height="3.6"/>
	<rect x="254.7" y="378.9" class="st2" width="1.6" height="3.6"/>
	<rect x="206.3" y="378.9" class="st2" width="1.6" height="3.6"/>
	<line class="st2" x1="187.1" y1="381.7" x2="206.3" y2="381.7"/>
	<line class="st2" x1="187.1" y1="380.9" x2="206.3" y2="380.9"/>
	<rect x="230.4" y="378.9" class="st2" width="1.6" height="3.6"/>
	<line class="st2" x1="207.9" y1="381.7" x2="230.4" y2="381.7"/>
	<line class="st2" x1="207.9" y1="380.9" x2="230.4" y2="380.9"/>
	<line class="st2" x1="232" y1="381.7" x2="254.7" y2="381.7"/>
	<line class="st2" x1="232" y1="380.9" x2="254.7" y2="380.9"/>
	<line class="st2" x1="185.5" y1="374.4" x2="256.4" y2="374.4"/>
	<rect x="13" y="425.2" class="st2" width="1.6" height="3.6"/>
	<rect x="95.6" y="425.2" class="st2" width="1.6" height="3.6"/>
	<rect x="31.4" y="425.2" class="st2" width="1.6" height="3.6"/>
	<line class="st2" x1="14.6" y1="428" x2="31.4" y2="428"/>
	<line class="st2" x1="14.6" y1="427.2" x2="31.4" y2="427.2"/>
	<rect x="77.1" y="425.2" class="st2" width="1.6" height="3.6"/>
	<line class="st2" x1="33" y1="428" x2="77.1" y2="428"/>
	<line class="st2" x1="33" y1="427.2" x2="77.1" y2="427.2"/>
	<line class="st2" x1="78.7" y1="428" x2="95.6" y2="428"/>
	<line class="st2" x1="78.7" y1="427.2" x2="95.6" y2="427.2"/>
	<line class="st2" x1="13.8" y1="420.7" x2="96.4" y2="420.7"/>
	<rect x="156.4" y="382.5" class="st2" width="1.4" height="29.1"/>
	<path class="st2" d="M156.4,411.6c16.1,0,29.1-13,29.1-29.1"/>
	<rect x="76.1" y="4.9" class="st2" width="1.2" height="57.7"/>
	<rect x="42.8" y="4.9" class="st2" width="1.2" height="57.7"/>
	<line class="st2" x1="234.3" y1="192.3" x2="189.4" y2="192.3"/>
	<line class="st2" x1="234.3" y1="188.7" x2="189.4" y2="188.7"/>
	<polyline class="st2" points="102.1,262 138.7,262 138.7,263.2 102.4,263.2 	"/>
	<polyline class="st2" points="98.9,262 38.6,262 38.6,263.2 99.2,263.2 	"/>
	<line class="st2" x1="165.4" y1="192.3" x2="149.7" y2="192.3"/>
	<line class="st2" x1="165.4" y1="188.7" x2="149.7" y2="188.7"/>
	<line class="st2" x1="42.6" y1="231" x2="16.6" y2="231"/>
	<line class="st2" x1="42.6" y1="227.4" x2="16.6" y2="227.4"/>
	<line class="st2" x1="185.5" y1="378.9" x2="256.4" y2="378.9"/>
	<line class="st2" x1="185.5" y1="382.5" x2="256.4" y2="382.5"/>
	<line class="st2" x1="13" y1="425.2" x2="97.2" y2="425.2"/>
	<line class="st2" x1="13" y1="428.8" x2="97.2" y2="428.8"/>
	<path class="st2" d="M0.3,8.1C0.6,8.4,0.8,8.7,1,9C1.4,8.4,1.8,8,2.3,7.6C4.7,6,8.1,6.5,9.8,9c0.3-0.4,0.7-0.8,1.1-1.2
		c2.1-1.5,5-1,6.5,1.2c0.4-0.6,0.9-1,1.4-1.4c2.6-1.8,6.2-1.2,8.1,1.4c0.3-0.2,0.7-0.4,1.1-0.4c1.8-0.4,3.6,0.7,4,2.6
		c0.5,0.4,1,0.9,1.4,1.4c1.8,2.6,1.2,6.2-1.4,8c0.4,0.3,0.8,0.6,1,1c1.3,1.9,0.9,4.5-1,5.8c0.5,0.4,0.9,0.8,1.3,1.3
		c1.7,2.4,1.1,5.6-1.3,7.3c0.5,0.4,1,0.8,1.4,1.4c1.8,2.5,1.1,6-1.4,7.7c0.5,0.3,0.9,0.8,1.2,1.2c1.6,2.3,1,5.4-1.2,7
		c0.5,0.3,0.9,0.8,1.3,1.3c1.6,2.3,1.1,5.6-1.3,7.2c0.4,0.3,0.8,0.7,1.1,1.1c1.4,2,0.9,4.8-1.1,6.3c0.4,0.3,0.8,0.6,1,1
		c1.4,1.9,0.9,4.6-1,5.9c0.5,0.3,0.9,0.7,1.2,1.2c1.5,2.2,1,5.1-1.2,6.6c0.5,0.3,0.8,0.7,1.1,1.2c1.5,2.1,1,5.1-1.1,6.5
		c0.5,0.3,0.9,0.7,1.2,1.2c1.5,2.2,1,5.2-1.2,6.7c0.4,0.3,0.8,0.7,1.1,1.1c1.4,2,0.9,4.8-1.1,6.2c0.6,0.4,1,0.9,1.4,1.4
		c1.8,2.6,1.2,6.3-1.4,8.1c0.5,0.3,0.9,0.8,1.3,1.3c1.6,2.4,1.1,5.6-1.3,7.3c0.5,0.4,1,0.8,1.4,1.3c1.7,2.5,1.1,5.9-1.4,7.6
		c0.4,0.3,0.8,0.7,1.1,1.1c1.5,2.1,1,5-1.1,6.4c0.5,0.3,0.9,0.7,1.2,1.2c1.5,2.2,1,5.2-1.2,6.7c0.4,0.3,0.8,0.7,1.1,1.1
		c1.5,2.1,1,4.9-1.1,6.4c-0.1,0.5-0.4,1-0.7,1.4c-1.4,2.1-4.3,2.6-6.3,1.1c-0.3,0.4-0.6,0.7-1,1c-1.9,1.3-4.4,0.9-5.7-1
		c-0.4,0.5-0.8,1-1.3,1.3c-2.4,1.7-5.8,1.1-7.5-1.3c-0.5-0.3-1-0.8-1.4-1.3c-1.8-2.4-1.3-5.7,1.1-7.5c-0.5-0.4-0.9-0.8-1.3-1.3
		c-1.6-2.3-1.1-5.6,1.3-7.2c-0.5-0.3-0.9-0.8-1.2-1.2c-1.6-2.3-1-5.4,1.2-6.9c-0.4-0.3-0.8-0.6-1.1-1.1c-1.4-1.9-0.9-4.6,1.1-6
		c-0.4-0.3-0.8-0.6-1-1.1c-1.4-1.9-0.9-4.6,1-5.9c-0.5-0.3-0.9-0.7-1.2-1.2c-1.5-2.2-1-5.2,1.2-6.8c-0.4-0.3-0.8-0.6-1-1.1
		c-1.4-1.9-0.9-4.6,1-5.9c-0.5-0.4-1-0.9-1.4-1.4c-1.8-2.6-1.2-6.2,1.4-8c-0.5-0.3-0.9-0.8-1.3-1.3c-1.7-2.4-1.1-5.6,1.3-7.3
		c-0.5-0.3-0.9-0.7-1.2-1.2c-1.5-2.2-1-5.2,1.2-6.7c-0.5-0.3-0.9-0.8-1.2-1.2c-1.6-2.3-1-5.4,1.2-7c-0.4,0.3-0.8,0.6-1.3,0.8
		C5.5,72.5,3,71.3,2.2,69c-0.5,0.7-1.1,1.3-1.9,1.7"/>
	<path class="st2" d="M265.5,70.2c-1.8,1.1-4.1,0.6-5.3-1.2c-0.3,0.4-0.6,0.8-1,1.1c-1.9,1.3-4.6,0.9-5.9-1.1
		c-0.3,0.5-0.8,0.9-1.3,1.3c-2.3,1.7-5.6,1.1-7.2-1.3c-0.3,0.5-0.7,0.9-1.2,1.2c-2.2,1.6-5.3,1-6.8-1.2c-0.3,0.5-0.8,0.9-1.3,1.3
		c-2.4,1.7-5.7,1.1-7.3-1.3c-0.3,0.4-0.7,0.8-1.2,1.2c-2.1,1.5-5.1,1-6.6-1.2c-0.3,0.4-0.7,0.8-1.1,1.2c-2.1,1.5-5,1-6.5-1.2
		c-0.3,0.5-0.7,0.9-1.2,1.2c-2.2,1.6-5.3,1-6.8-1.2c-0.3,0.4-0.6,0.7-1,1c-1.9,1.3-4.4,0.8-5.7-1c-0.3,0.5-0.7,0.9-1.2,1.2
		c-2.2,1.5-5.2,1-6.7-1.2c-0.3,0.4-0.6,0.7-1,1c-1.9,1.3-4.5,0.9-5.8-1c-0.4,0.5-0.8,1-1.4,1.4c-2.5,1.8-6,1.2-7.8-1.4
		c-0.3,0.4-0.6,0.7-1,1c-1.8,1.2-4.3,0.8-5.5-1c-0.3,0.4-0.7,0.8-1.1,1.1c-2,1.4-4.8,0.9-6.2-1.1c-0.4,0.5-0.8,1-1.4,1.3
		c-2.5,1.8-5.9,1.1-7.7-1.3c-0.3,0.5-0.8,0.9-1.2,1.2c-2.3,1.6-5.4,1-7-1.2c-0.4,0.5-0.8,1-1.3,1.3c-2.4,1.7-5.8,1.1-7.5-1.3
		c-0.4,0.5-0.8,1-1.3,1.3c-2.5,1.7-5.8,1.1-7.5-1.3c-0.4,0.5-0.8,1-1.3,1.3c-2.5,1.7-5.9,1.1-7.6-1.3c-0.3,0.4-0.6,0.8-1,1
		c-1.9,1.3-4.6,0.9-5.9-1c-0.3,0.5-0.8,0.9-1.3,1.3c-2.3,1.6-5.5,1.1-7.2-1.3c-0.3,0.4-0.6,0.8-1.1,1.1c-2,1.4-4.7,0.9-6.1-1.1
		c-0.4,0.2-0.8,0.4-1.2,0.5c-2,0.5-4-0.7-4.6-2.7c-0.4-0.3-0.8-0.7-1.1-1.1c-1.4-2-0.9-4.8,1.1-6.2c-0.5-0.4-1-0.8-1.4-1.4
		c-1.8-2.5-1.2-6,1.4-7.8c-0.5-0.3-0.9-0.8-1.3-1.3c-1.7-2.4-1.1-5.7,1.3-7.4c-0.4-0.3-0.7-0.6-1-1c-1.3-1.8-0.8-4.3,1-5.6
		c-0.5-0.4-1-0.8-1.4-1.4c-1.8-2.6-1.2-6.1,1.4-7.9c-0.5-0.3-0.9-0.7-1.2-1.2c-1.5-2.2-1-5.1,1.2-6.7c-0.5-0.4-1-0.8-1.4-1.4
		c-1.8-2.5-1.2-6,1.4-7.8c0.3-0.5,0.7-0.9,1.2-1.2c2.1-1.5,5.1-1,6.6,1.2c0.4-0.5,0.8-1,1.4-1.3c2.5-1.7,5.9-1.1,7.7,1.3
		c0.3-0.5,0.8-0.9,1.3-1.3c2.3-1.6,5.5-1.1,7.2,1.3c0.3-0.4,0.6-0.8,1-1c1.9-1.3,4.5-0.9,5.9,1c0.4-0.5,0.8-0.9,1.3-1.3
		c2.4-1.7,5.7-1.1,7.4,1.3c0.4-0.6,0.9-1,1.4-1.4c2.6-1.8,6.2-1.2,8,1.4c0.4-0.5,0.8-1,1.4-1.4c2.5-1.8,6-1.2,7.8,1.4
		c0.3-0.4,0.7-0.8,1.1-1.1c2.1-1.5,5-1,6.5,1.1c0.3-0.4,0.7-0.8,1.1-1.1c2-1.4,4.8-0.9,6.3,1.1c0.3-0.4,0.6-0.7,1-1
		c1.8-1.2,4.3-0.8,5.5,1c0.3-0.5,0.7-0.9,1.2-1.2c2.2-1.5,5.1-1,6.6,1.2c0.4-0.5,0.8-0.9,1.3-1.3c2.4-1.7,5.7-1.1,7.3,1.3
		c0.3-0.4,0.7-0.8,1.1-1.1c2-1.4,4.7-0.9,6.1,1.1c0.4-0.5,0.8-1,1.4-1.4c2.5-1.8,6-1.1,7.7,1.4c0.3-0.5,0.7-0.9,1.2-1.2
		c2.1-1.5,5.1-1,6.6,1.2c0.4-0.5,0.8-1,1.4-1.3c2.5-1.7,5.9-1.1,7.6,1.3c0.4-0.5,0.8-1,1.4-1.4c2.5-1.8,5.9-1.1,7.7,1.4
		c0.4-0.5,0.8-0.9,1.3-1.3c2.4-1.7,5.7-1.1,7.4,1.3c0.3-0.5,0.8-0.9,1.3-1.3c2.4-1.7,5.7-1.1,7.4,1.3c0.4-0.6,0.9-1,1.4-1.4
		c2.6-1.8,6.2-1.2,8,1.4c0.3-0.5,0.8-0.9,1.2-1.2c2.3-1.6,5.5-1.1,7.1,1.2c0.7-1,1.7-1.6,2.9-1.7"/>
	<line class="st2" x1="40.8" y1="58.6" x2="42.8" y2="58.6"/>
	<line class="st2" x1="77.3" y1="58.6" x2="79.3" y2="58.6"/>
	<line class="st2" x1="44" y1="58.6" x2="76.1" y2="58.6"/>
	<line class="st2" x1="40.8" y1="77.9" x2="79.3" y2="77.9"/>
	<line class="st2" x1="40.8" y1="97.1" x2="259.9" y2="97.1"/>
	<line class="st2" x1="40.8" y1="116.4" x2="129.9" y2="116.4"/>
	<line class="st2" x1="187.6" y1="116.4" x2="259.9" y2="116.4"/>
	<line class="st2" x1="40.8" y1="135.6" x2="129.9" y2="135.6"/>
	<line class="st2" x1="247.9" y1="135.6" x2="259.9" y2="135.6"/>
	<line class="st2" x1="187.6" y1="135.6" x2="233.9" y2="135.6"/>
	<line class="st2" x1="40.8" y1="154.9" x2="225.8" y2="154.9"/>
	<line class="st2" x1="251.1" y1="154.9" x2="259.9" y2="154.9"/>
	<line class="st2" x1="230.7" y1="154.9" x2="231.9" y2="154.9"/>
	<line class="st2" x1="13" y1="174.1" x2="233.9" y2="174.1"/>
	<line class="st2" x1="247.9" y1="174.1" x2="259.9" y2="174.1"/>
	<line class="st2" x1="13" y1="193.4" x2="24" y2="193.4"/>
	<line class="st2" x1="45.5" y1="193.4" x2="146.1" y2="193.4"/>
	<line class="st2" x1="13" y1="212.6" x2="41.3" y2="212.6"/>
	<line class="st2" x1="53.9" y1="212.6" x2="146.1" y2="212.6"/>
	<line class="st2" x1="21.5" y1="227.4" x2="21.5" y2="168.2"/>
	<line class="st2" x1="40.8" y1="227.4" x2="40.8" y2="205.7"/>
	<line class="st2" x1="40.8" y1="186.9" x2="40.8" y2="168.2"/>
	<line class="st2" x1="60" y1="227.4" x2="60" y2="43.4"/>
	<line class="st2" x1="79.3" y1="227.4" x2="79.3" y2="77.9"/>
	<line class="st2" x1="98.5" y1="227.4" x2="98.5" y2="77.9"/>
	<line class="st2" x1="117.8" y1="227.4" x2="117.8" y2="225.8"/>
	<line class="st2" x1="117.8" y1="224.4" x2="117.8" y2="77.9"/>
	<line class="st2" x1="137" y1="227.4" x2="137" y2="225.8"/>
	<line class="st2" x1="137" y1="110.4" x2="137" y2="77.9"/>
	<line class="st2" x1="137" y1="224.4" x2="137" y2="140.9"/>
	<line class="st2" x1="156.3" y1="188.7" x2="156.3" y2="140.9"/>
	<line class="st2" x1="156.3" y1="110.4" x2="156.3" y2="77.9"/>
	<line class="st2" x1="175.5" y1="186" x2="175.5" y2="148.9"/>
	<line class="st2" x1="175.5" y1="102.4" x2="175.5" y2="77.9"/>
	<line class="st2" x1="194.8" y1="186" x2="194.8" y2="133.7"/>
	<line class="st2" x1="194.8" y1="117.6" x2="194.8" y2="77.9"/>
	<line class="st2" x1="214" y1="186" x2="214" y2="77.9"/>
	<line class="st2" x1="233.3" y1="186" x2="233.3" y2="166.5"/>
	<line class="st2" x1="233.3" y1="142.5" x2="233.3" y2="77.9"/>
	<line class="st2" x1="252.5" y1="186" x2="252.5" y2="77.9"/>
	<polygon class="st2" points="13,227.4 13,168.2 40.8,168.2 40.8,43.4 42.8,43.4 42.8,62.7 44,62.7 44,43.4 76.1,43.4 76.1,62.7
		77.3,62.7 77.3,43.4 79.3,43.4 79.3,77.9 259.9,77.9 259.9,186 165.4,186 165.4,188.7 146.1,188.7 146.1,224.4 114.2,224.4
		114.2,225.8 146.1,225.8 146.1,227.4 	"/>
	<line class="st2" x1="146.1" y1="225.8" x2="146.1" y2="193.9"/>
	<line class="st2" x1="149.7" y1="225.8" x2="149.7" y2="193.9"/>
	<line class="st2" x1="89.9" y1="303.2" x2="89.9" y2="273.8"/>
	<line class="st2" x1="99.5" y1="303.2" x2="99.5" y2="294.2"/>
	<line class="st2" x1="99.5" y1="282.9" x2="99.5" y2="273.8"/>
	<line class="st2" x1="109.1" y1="303.2" x2="109.1" y2="293.2"/>
	<line class="st2" x1="109.1" y1="283.8" x2="109.1" y2="273.8"/>
	<line class="st2" x1="116.3" y1="288.5" x2="115.7" y2="288.5"/>
	<line class="st2" x1="93.2" y1="288.5" x2="61" y2="288.5"/>
	<path class="st2" d="M115.7,283.7c0-0.2-0.1-0.3-0.3-0.3l-2.4-0.5c-0.3,0-0.5,0-0.7,0.2c-0.4,0.3-0.7,0.6-0.9,0.9
		c-2.6-0.1-5.1-0.5-7.6-1c-0.8-0.2-1.6-0.3-2.5-0.3c-1.1,0-2.1,0.1-3.2,0.5c-0.9,0.3-1.7,0.7-2.5,1.2c-0.7,0.5-1.3,1.2-1.8,2
		c-0.4,0.6-0.6,1.4-0.6,2.1c0,0.7,0.2,1.5,0.6,2.1c0.5,0.8,1.1,1.5,1.8,2c0.8,0.5,1.6,1,2.5,1.2c1,0.3,2.1,0.5,3.2,0.5
		c0.8,0,1.6-0.1,2.5-0.3c2.5-0.5,5.1-0.8,7.6-1c0.3,0.4,0.6,0.7,0.9,0.9c0.2,0.1,0.5,0.2,0.7,0.2l2.4-0.5c0.2,0,0.3-0.2,0.3-0.3
		V283.7z"/>
	<path class="st2" d="M41.3,212.2c0-3.5,2.8-6.3,6.3-6.3c3.5,0,6.3,2.8,6.3,6.3c0,3.5-2.8,6.3-6.3,6.3
		C44.1,218.5,41.3,215.7,41.3,212.2z"/>
	<polygon class="st2" points="36.8,208.6 36.4,208.1 33.9,210 22.4,194.5 25,192.6 24.6,192.1 34.5,184.8 34.8,185.4 37.9,183.1
		49.4,198.6 46.3,200.9 46.6,201.4 	"/>
	<rect x="233.9" y="132.9" class="st2" width="14" height="8.8"/>
	<rect x="225.8" y="142.5" class="st2" width="4.8" height="24.1"/>
	<polygon class="st2" points="251.1,142.5 251.1,166.5 237.5,166.5 237.5,167.3 247.9,167.3 247.9,176.2 233.9,176.2 233.9,167.3
		236.7,167.3 236.7,166.5 231.9,166.5 231.9,142.5 	"/>
	<polygon class="st2" points="129.9,110.4 137.9,110.4 137.9,102.4 154,102.4 154,110.4 163.6,110.4 163.6,102.4 179.6,102.4
		179.6,110.4 187.6,110.4 187.6,117.6 195.7,117.6 195.7,133.7 187.6,133.7 187.6,140.9 179.6,140.9 179.6,148.9 163.6,148.9
		163.6,140.9 154,140.9 154,148.9 137.9,148.9 137.9,140.9 129.9,140.9 129.9,133.7 121.9,133.7 121.9,117.6 129.9,117.6 	"/>
	<line class="st2" x1="156.4" y1="382.5" x2="185.5" y2="382.5"/>
	<line class="st2" x1="156.4" y1="378.9" x2="185.5" y2="378.9"/>
	<line class="st2" x1="70.6" y1="303.2" x2="70.6" y2="281.7"/>
	<line class="st2" x1="80.3" y1="303.2" x2="80.3" y2="281.7"/>
	<path class="st2" d="M69.9,273.8h13.6v7.9H69.9c-0.4,0-0.6-0.3-0.6-0.6v-6.6C69.2,274.1,69.5,273.8,69.9,273.8z"/>
	<path class="st2" d="M79.5,278.2v1.8c0,0.4-0.3,0.6-0.6,0.6H71c-0.4,0-0.6-0.3-0.6-0.6v-4.4c0-0.4,0.3-0.6,0.6-0.6h7.9
		c0.4,0,0.6,0.3,0.6,0.6v1.8"/>
	<path class="st2" d="M80.7,277.8c0-0.4,0.4-0.8,0.8-0.8s0.8,0.4,0.8,0.8s-0.4,0.8-0.8,0.8C81,278.6,80.7,278.2,80.7,277.8z"/>
	<line class="st2" x1="80.8" y1="278.2" x2="77.9" y2="278.2"/>
	<line class="st2" x1="80.8" y1="277.4" x2="77.9" y2="277.4"/>
	<line class="st2" x1="77.9" y1="277.4" x2="77.5" y2="277.5"/>
	<line class="st2" x1="77.5" y1="278.1" x2="77.9" y2="278.2"/>
	<line class="st2" x1="77.5" y1="277.5" x2="77.5" y2="278.1"/>
	<line class="st2" x1="80.7" y1="277.7" x2="79.5" y2="277.7"/>
	<line class="st2" x1="80.7" y1="277.9" x2="79.5" y2="277.9"/>
	<line class="st2" x1="79.5" y1="277.7" x2="79.5" y2="277.9"/>
	<path class="st2" d="M78,277.4c-0.2-0.4-0.7-0.5-1.1-0.3c-0.4,0.2-0.5,0.7-0.3,1.1c0.2,0.4,0.7,0.5,1.1,0.3
		c0.1-0.1,0.2-0.2,0.3-0.3"/>
</g>
<line class="st4" x1="185.7" y1="215.3" x2="185.7" y2="196.9"/>
<line class="st4" x1="185.7" y1="196.9" x2="204.9" y2="196.9"/>
<line class="st4" x1="204.9" y1="196.9" x2="204.9" y2="215.3"/>
<line class="st4" x1="204.9" y1="214.5" x2="185.7" y2="214.5"/>
<line class="st4" x1="203.1" y1="268.6" x2="203.1" y2="270.2"/>
<line class="st4" x1="203.1" y1="270.2" x2="185.2" y2="270.2"/>
<line class="st4" x1="185.2" y1="270.2" x2="185.2" y2="268.6"/>
<line class="st4" x1="185.2" y1="268.6" x2="203.1" y2="268.6"/>
<line class="st4" x1="203.1" y1="270.2" x2="203.1" y2="286.1"/>
<line class="st4" x1="203.1" y1="286.1" x2="185.2" y2="286.1"/>
<line class="st4" x1="185.2" y1="286.1" x2="185.2" y2="270.2"/>
<g>
	<path class="st4" d="M232.3,276.5c0-5.3,4.3-9.6,9.6-9.6s9.6,4.3,9.6,9.6s-4.3,9.6-9.6,9.6S232.3,281.8,232.3,276.5z"/>
	<line class="st4" x1="253.9" y1="297.5" x2="244.3" y2="297.5"/>
	<line class="st4" x1="244.3" y1="297.5" x2="244.3" y2="195.2"/>
	<line class="st4" x1="183.6" y1="287.9" x2="253.9" y2="287.9"/>
</g>
<polygon class="st5" points="13.8,420.7 13.8,425.2 13,425.2 13,461.3 0.1,461.3 0.1,173 13,173 13,227.4 16.6,227.4 16.6,231
	17.4,231 17.4,235.5 7.4,235.5 7.4,420.7 "/>
<polygon class="st2" points="13.8,420.7 13.8,425.2 13,425.2 13,461.3 0.1,461.3 0.1,173 13,173 13,227.4 16.6,227.4 16.6,231
	17.4,231 17.4,235.5 7.4,235.5 7.4,420.7 "/>
<polygon class="st5" points="97.2,428.8 97.2,425.2 96.4,425.2 96.4,420.7 121.2,420.7 121.2,414.5 146.7,414.5 146.7,374.4
	154.6,374.4 154.6,378.9 154.8,378.9 154.8,428.8 "/>
<polygon class="st2" points="97.2,428.8 97.2,425.2 96.4,425.2 96.4,420.7 121.2,420.7 121.2,414.5 146.7,414.5 146.7,374.4
	154.6,374.4 154.6,378.9 154.8,378.9 154.8,428.8 "/>
<polygon class="st5" points="256.4,382.5 256.4,374.4 257.5,374.4 257.5,306.9 253.9,306.9 253.9,195.2 234.3,195.2 234.3,186
	260,186 260,173 267.3,173 267.3,461.3 260,461.3 260,382.5 "/>
<polygon class="st2" points="256.4,382.5 256.4,374.4 257.5,374.4 257.5,306.9 253.9,306.9 253.9,195.2 234.3,195.2 234.3,186
	260,186 260,173 267.3,173 267.3,461.3 260,461.3 260,382.5 "/>
<rect x="165.4" y="186" class="st5" width="24" height="9.2"/>
<rect x="165.4" y="186" class="st2" width="24" height="9.2"/>
<polygon class="st5" points="45.8,306.9 143.1,306.9 143.1,303.2 121.9,303.2 121.9,273.8 143.1,273.8 143.1,264.4 39.4,264.4
	39.4,268.1 59.2,268.1 59.2,277 62.9,277 62.9,273.8 116.3,273.8 116.3,303.2 62.9,303.2 62.9,301.1 59.2,301.1 59.2,303.2
	45.8,303.2 "/>
<polygon class="st2" points="45.8,306.9 143.1,306.9 143.1,303.2 121.9,303.2 121.9,273.8 143.1,273.8 143.1,264.4 39.4,264.4
	39.4,268.1 59.2,268.1 59.2,277 62.9,277 62.9,273.8 116.3,273.8 116.3,303.2 62.9,303.2 62.9,301.1 59.2,301.1 59.2,303.2
	45.8,303.2 "/>
<polygon class="st5" points="152.6,227.4 42.6,227.4 42.6,231 41.8,231 41.8,235.5 152.6,235.5 "/>
<polygon class="st2" points="152.6,227.4 42.6,227.4 42.6,231 41.8,231 41.8,235.5 152.6,235.5 "/>
<g>
	<path class="st6" d="M123,208.6h-1.9v1.1h1.7v0.3h-1.7v1.1h2v0.3h-2.3v-3.1h2.3L123,208.6L123,208.6z"/>
	<path class="st6" d="M126.1,208.3h0.4v3.1h-0.3l-2-2.6v2.6h-0.4v-3.1h0.3l2,2.5L126.1,208.3L126.1,208.3z"/>
	<path class="st6" d="M128.7,211.4h-0.4v-2.8h-1.1v-0.3h2.5v0.3h-1.1L128.7,211.4L128.7,211.4z"/>
	<path class="st6" d="M132.6,211.4l-0.9-1.2h-0.9v1.2h-0.4v-3.1h1.4c0.7,0,1.1,0.4,1.1,0.9c0,0.5-0.4,0.8-0.9,0.9l1,1.3H132.6z
		 M131.8,208.6h-1v1.3h1c0.5,0,0.8-0.2,0.8-0.6C132.6,208.8,132.3,208.6,131.8,208.6z"/>
	<path class="st6" d="M135,211.4h-0.4v-1.2l-1.3-1.9h0.4l1.1,1.6l1.1-1.6h0.4l-1.3,1.9L135,211.4L135,211.4z"/>
</g>
<g>
	<path class="st6" d="M145.4,250.4c0,0.9-0.5,1.4-1.3,1.4s-1.3-0.5-1.3-1.4v-1.8h0.4v1.8c0,0.7,0.4,1.1,1,1.1c0.6,0,1-0.4,1-1v-1.8
		h0.4L145.4,250.4L145.4,250.4z"/>
	<path class="st6" d="M147.4,250.6h-0.8v1.1h-0.4v-3.1h1.2c0.7,0,1.2,0.4,1.2,1C148.7,250.3,148.1,250.6,147.4,250.6z M147.5,248.9
		h-0.8v1.4h0.8c0.5,0,0.9-0.3,0.9-0.7C148.3,249.2,148,248.9,147.5,248.9z"/>
</g>
<g>
	<path class="st6" d="M34.2,251.7h-1.1v-3.1h1.1c1,0,1.7,0.7,1.7,1.6C35.9,251.1,35.2,251.7,34.2,251.7z M34.2,248.9h-0.7v2.5h0.7
		c0.8,0,1.3-0.5,1.3-1.2S35,248.9,34.2,248.9z"/>
	<path class="st6" d="M39.1,248.6h0.4v3.1h-0.3l-2-2.6v2.6h-0.4v-3.1h0.3l2,2.5L39.1,248.6L39.1,248.6z"/>
</g>
<g>
	<path class="st6" d="M192.9,207.7h-1.1v-3.1h1.1c1,0,1.7,0.7,1.7,1.6C194.5,207,193.9,207.7,192.9,207.7z M192.9,204.9h-0.7v2.5
		h0.7c0.8,0,1.3-0.5,1.3-1.2S193.7,204.9,192.9,204.9z"/>
	<path class="st6" d="M197.1,204.5h0.3l0.9,2.6l0.9-2.6h0.4l-1.1,3.2h-0.3l-0.9-2.6l-0.9,2.6h-0.3l-1.1-3.2h0.4l0.9,2.6L197.1,204.5
		z"/>
</g>
<g>
	<path class="st6" d="M191.9,279.3L191.9,279.3l-1.2-1.7v2.5h-0.4V277h0.4l1.1,1.7l1.1-1.7h0.4v3.1H193v-2.5L191.9,279.3z"/>
	<path class="st6" d="M196.3,277h0.3l0.9,2.6l0.9-2.6h0.4l-1.1,3.2h-0.3l-0.9-2.6l-0.9,2.6h-0.3l-1.1-3.2h0.4l0.9,2.6L196.3,277z"/>
</g>
<g>
	<path class="st6" d="M236.5,273.4h0.4v2.8h1.8v0.3h-2.1V273.4z"/>
	<path class="st6" d="M240.5,274.8c0.7,0.1,1,0.4,1,0.9c0,0.5-0.5,0.9-1.1,0.9c-0.5,0-0.9-0.2-1.3-0.5l0.2-0.3
		c0.3,0.3,0.6,0.5,1.1,0.5c0.4,0,0.7-0.2,0.7-0.5c0-0.3-0.2-0.5-0.8-0.6c-0.7-0.2-1.1-0.4-1.1-0.9c0-0.5,0.4-0.9,1-0.9
		c0.5,0,0.8,0.1,1.1,0.4l-0.2,0.3c-0.3-0.2-0.6-0.3-0.9-0.3c-0.4,0-0.7,0.2-0.7,0.5S239.8,274.6,240.5,274.8z"/>
</g>
<g>
	<path class="st6" d="M165.7,39.4H165v1.1h-0.4v-3.2h1.2c0.7,0,1.2,0.4,1.2,1C167,39.1,166.4,39.4,165.7,39.4z M165.8,37.7H165v1.4
		h0.8c0.5,0,0.9-0.3,0.9-0.7C166.6,38,166.3,37.7,165.8,37.7z"/>
	<path class="st6" d="M167.7,37.4h0.4v2.8h1.8v0.3h-2.1L167.7,37.4L167.7,37.4z"/>
	<path class="st6" d="M173.5,40.6h-0.4l-0.4-0.8h-1.7l-0.4,0.8h-0.4l1.4-3.2h0.3L173.5,40.6z M171.9,37.8l-0.7,1.6h1.4L171.9,37.8z"
		/>
	<path class="st6" d="M176.6,37.4h0.4v3.2h-0.3l-2-2.6v2.6h-0.4v-3.2h0.3l2,2.5L176.6,37.4L176.6,37.4z"/>
	<path class="st6" d="M179.1,40.6h-0.4v-2.8h-1.1v-0.3h2.5v0.3h-1.1L179.1,40.6L179.1,40.6z"/>
	<path class="st6" d="M183.2,37.7h-1.9v1.1h1.7v0.3h-1.7v1.1h2v0.3h-2.3v-3.2h2.3L183.2,37.7L183.2,37.7z"/>
	<path class="st6" d="M186.2,40.6l-0.9-1.2h-0.9v1.2H184v-3.2h1.4c0.7,0,1.1,0.4,1.1,0.9c0,0.5-0.4,0.8-0.9,0.9l1,1.3
		C186.6,40.6,186.2,40.6,186.2,40.6z M185.3,37.7h-1V39h1c0.5,0,0.8-0.2,0.8-0.7C186.1,38,185.8,37.7,185.3,37.7z"/>
</g>
<g>
	<path class="st6" d="M10.9,85h-0.8v1.1H9.8V83H11c0.7,0,1.2,0.4,1.2,1C12.2,84.7,11.6,85,10.9,85z M11,83.3h-0.8v1.4H11
		c0.5,0,0.9-0.3,0.9-0.7C11.8,83.6,11.5,83.3,11,83.3z"/>
	<path class="st6" d="M12.9,83h0.4v2.8h1.8v0.3h-2.1L12.9,83L12.9,83z"/>
	<path class="st6" d="M18.7,86.2h-0.4L18,85.3h-1.7l-0.4,0.8h-0.4L17,83h0.3L18.7,86.2z M17.1,83.4L16.4,85h1.4L17.1,83.4z"/>
	<path class="st6" d="M21.8,83h0.4v3.2h-0.3l-2-2.6v2.6h-0.4V83h0.3l2,2.5L21.8,83L21.8,83z"/>
	<path class="st6" d="M24.3,86.2h-0.4v-2.8h-1.1V83h2.5v0.3h-1.1L24.3,86.2L24.3,86.2z"/>
	<path class="st6" d="M28.4,83.3h-1.9v1.1h1.7v0.3h-1.7v1.1h2v0.3h-2.3V83h2.3L28.4,83.3L28.4,83.3z"/>
	<path class="st6" d="M31.4,86.2l-0.9-1.2h-0.9v1.2h-0.4V83h1.4c0.7,0,1.1,0.4,1.1,0.9c0,0.5-0.4,0.8-0.9,0.9l1,1.3H31.4z
		 M30.5,83.3h-1v1.3h1c0.5,0,0.8-0.2,0.8-0.7C31.3,83.6,31,83.3,30.5,83.3z"/>
</g>
<g>
	<path class="st6" d="M60.1,10.1c0,0.9-0.5,1.4-1.3,1.4s-1.3-0.5-1.3-1.4V8.3h0.4v1.8c0,0.7,0.4,1.1,1,1.1c0.6,0,1-0.4,1-1V8.3h0.4
		L60.1,10.1L60.1,10.1z"/>
	<path class="st6" d="M62.2,10.4h-0.8v1.1H61V8.3h1.2c0.7,0,1.2,0.4,1.2,1C63.4,10,62.8,10.4,62.2,10.4z M62.2,8.7h-0.8v1.4h0.8
		c0.5,0,0.9-0.3,0.9-0.7C63,8.9,62.7,8.7,62.2,8.7z"/>
</g>
<g>
	<path class="st6" d="M133.6,287.7h-1.9v1.1h1.7v0.3h-1.7v1.4h-0.4v-3.1h2.3L133.6,287.7L133.6,287.7z"/>
</g>
<g>
	<path class="st6" d="M196,411c0,0.4-0.2,0.6-0.5,0.7c0.4,0.1,0.7,0.3,0.7,0.8c0,0.5-0.5,0.9-1.1,0.9h-1.4v-3.1h1.3
		C195.6,410.3,196,410.6,196,411z M195.7,411.1c0-0.3-0.2-0.5-0.7-0.5h-1v1.1h0.9C195.4,411.7,195.7,411.5,195.7,411.1z
		 M195.8,412.5c0-0.4-0.3-0.5-0.8-0.5h-1v1.1h1.1C195.5,413.1,195.8,412.9,195.8,412.5z"/>
	<path class="st6" d="M199.9,413.4h-0.4l-0.4-0.8h-1.7l-0.4,0.8h-0.4l1.4-3.2h0.3L199.9,413.4z M198.3,410.7l-0.7,1.6h1.4
		L198.3,410.7z"/>
	<path class="st6" d="M200.6,410.3h0.4v2.8h1.8v0.3h-2.1L200.6,410.3L200.6,410.3z"/>
	<path class="st6" d="M204.8,413.5c-0.9,0-1.6-0.7-1.6-1.6s0.7-1.6,1.6-1.6c0.6,0,0.9,0.2,1.2,0.5l-0.2,0.3c-0.3-0.2-0.6-0.4-1-0.4
		c-0.7,0-1.2,0.6-1.2,1.3s0.5,1.3,1.2,1.3c0.4,0,0.7-0.2,1-0.5l0.2,0.2C205.7,413.2,205.3,413.5,204.8,413.5z"/>
	<path class="st6" d="M208.1,413.5c-1,0-1.6-0.8-1.6-1.6s0.6-1.6,1.6-1.6s1.6,0.8,1.6,1.6S209.1,413.5,208.1,413.5z M208.1,410.5
		c-0.7,0-1.2,0.6-1.2,1.3s0.5,1.3,1.2,1.3s1.2-0.6,1.2-1.3S208.8,410.5,208.1,410.5z"/>
	<path class="st6" d="M212.9,410.3h0.4v3.1H213l-2-2.6v2.6h-0.4v-3.1h0.3l2,2.5L212.9,410.3L212.9,410.3z"/>
	<path class="st6" d="M215.6,413.4h-0.4v-1.2l-1.3-1.9h0.4l1.1,1.6l1.1-1.6h0.4l-1.3,1.9L215.6,413.4L215.6,413.4z"/>
</g>
<g>
	<path class="st6" d="M83.3,145.8h-0.8v1.1h-0.4v-3.1h1.2c0.7,0,1.2,0.4,1.2,1C84.5,145.5,83.9,145.8,83.3,145.8z M83.3,144.1h-0.8
		v1.4h0.8c0.5,0,0.9-0.3,0.9-0.7C84.1,144.4,83.8,144.1,83.3,144.1z"/>
	<path class="st6" d="M87.9,146.9h-0.4l-0.4-0.8h-1.7l-0.4,0.8h-0.4l1.4-3.2h0.3L87.9,146.9z M86.3,144.2l-0.7,1.6H87L86.3,144.2z"
		/>
	<path class="st6" d="M89.4,146.9H89v-2.8h-1.1v-0.3h2.5v0.3h-1.1L89.4,146.9L89.4,146.9z"/>
	<path class="st6" d="M91.6,143.8v3.1h-0.4v-3.1H91.6z"/>
	<path class="st6" d="M94,147c-1,0-1.6-0.8-1.6-1.6s0.6-1.6,1.6-1.6s1.6,0.8,1.6,1.6C95.6,146.2,95,147,94,147z M94,144.1
		c-0.7,0-1.2,0.6-1.2,1.3s0.5,1.3,1.2,1.3s1.2-0.6,1.2-1.3S94.8,144.1,94,144.1z"/>
</g>
<g>
	<path class="st6" d="M67.8,294.6H67v1.1h-0.4v-3.1h1.2c0.7,0,1.2,0.4,1.2,1C69.1,294.2,68.5,294.6,67.8,294.6z M67.8,292.9H67v1.4
		h0.8c0.5,0,0.9-0.3,0.9-0.7C68.7,293.1,68.4,292.9,67.8,292.9z"/>
	<path class="st6" d="M71.3,295.7c-1,0-1.6-0.8-1.6-1.6s0.6-1.6,1.6-1.6s1.6,0.8,1.6,1.6C72.9,295,72.2,295.7,71.3,295.7z
		 M71.3,292.8c-0.7,0-1.2,0.6-1.2,1.3s0.5,1.3,1.2,1.3s1.2-0.6,1.2-1.3S72,292.8,71.3,292.8z"/>
	<path class="st6" d="M75.5,292.5h0.3l0.9,2.6l0.9-2.6h0.4l-1.1,3.2h-0.3l-0.9-2.6l-0.9,2.6h-0.3l-1.1-3.2h0.4l0.9,2.6L75.5,292.5z"
		/>
	<path class="st6" d="M79.7,295.7h-1.1v-3.1h1.1c1,0,1.7,0.7,1.7,1.6C81.4,295,80.7,295.7,79.7,295.7z M79.7,292.9H79v2.5h0.7
		c0.8,0,1.3-0.5,1.3-1.2S80.5,292.9,79.7,292.9z"/>
	<path class="st6" d="M84.5,292.9h-1.9v1.1h1.7v0.3h-1.7v1.1h2v0.3h-2.3v-3.1h2.3L84.5,292.9L84.5,292.9z"/>
	<path class="st6" d="M87.5,295.7l-0.9-1.2h-0.9v1.2h-0.4v-3.1h1.4c0.7,0,1.1,0.4,1.1,0.9c0,0.5-0.4,0.8-0.9,0.9l1,1.3L87.5,295.7
		L87.5,295.7z M86.7,292.9h-1v1.3h1c0.5,0,0.8-0.2,0.8-0.6C87.5,293.1,87.2,292.9,86.7,292.9z"/>
</g>
<g>
	<path class="st6" d="M198.3,244.3h-0.5l-1.2-1.5l-0.7,0.7v0.9h-0.4v-3.1h0.4v1.9l1.8-1.9h0.5l-1.4,1.4L198.3,244.3z"/>
	<path class="st6" d="M199.3,241.2v3.1H199v-3.1H199.3z"/>
	<path class="st6" d="M201.5,244.3h-0.4v-2.8h-1.1v-0.3h2.5v0.3h-1.1L201.5,244.3L201.5,244.3z"/>
	<path class="st6" d="M204.6,244.4c-0.9,0-1.6-0.7-1.6-1.6s0.7-1.6,1.6-1.6c0.6,0,0.9,0.2,1.2,0.5l-0.2,0.3c-0.3-0.2-0.6-0.4-1-0.4
		c-0.7,0-1.2,0.6-1.2,1.3c0,0.7,0.5,1.3,1.2,1.3c0.4,0,0.7-0.2,1-0.4l0.2,0.2C205.5,244.2,205.1,244.4,204.6,244.4z"/>
	<path class="st6" d="M206.9,242.9v1.4h-0.4v-3.1h0.4v1.4h1.8v-1.4h0.4v3.1h-0.4v-1.4H206.9z"/>
	<path class="st6" d="M212.3,241.5h-1.9v1.1h1.7v0.3h-1.7v1.1h2v0.3h-2.3v-3.1h2.3L212.3,241.5L212.3,241.5z"/>
	<path class="st6" d="M215.5,241.2h0.4v3.1h-0.3l-2-2.6v2.6h-0.4v-3.1h0.3l2,2.5L215.5,241.2L215.5,241.2z"/>
</g>
<g>
	<path class="st6" d="M202.2,341.5h-1.1v-3.1h1.1c1,0,1.7,0.7,1.7,1.6S203.2,341.5,202.2,341.5z M202.2,338.7h-0.7v2.5h0.7
		c0.8,0,1.3-0.5,1.3-1.2S203,338.7,202.2,338.7z"/>
	<path class="st6" d="M205.1,338.3v3.1h-0.4v-3.1H205.1z"/>
	<path class="st6" d="M208.4,338.3h0.4v3.1h-0.3l-2-2.6v2.6h-0.4v-3.1h0.3l2,2.5L208.4,338.3L208.4,338.3z"/>
	<path class="st6" d="M210.2,338.3v3.1h-0.4v-3.1H210.2z"/>
	<path class="st6" d="M213.5,338.3h0.4v3.1h-0.3l-2-2.6v2.6h-0.4v-3.1h0.3l2,2.5L213.5,338.3L213.5,338.3z"/>
	<path class="st6" d="M216.3,341.5c-1,0-1.6-0.7-1.6-1.6c0-0.9,0.6-1.6,1.6-1.6c0.5,0,0.9,0.1,1.2,0.4l-0.2,0.3
		c-0.2-0.2-0.5-0.4-1-0.4c-0.7,0-1.2,0.6-1.2,1.3c0,0.8,0.5,1.3,1.2,1.3c0.4,0,0.7-0.1,0.9-0.3v-0.8h-1v-0.3h1.3v1.3
		C217.3,341.3,216.8,341.5,216.3,341.5z"/>
</g>
<g>
	<path class="st6" d="M55.7,366.2h0.4v2.8h1.8v0.3h-2.1L55.7,366.2L55.7,366.2z"/>
	<path class="st6" d="M59,366.2v3.1h-0.4v-3.1H59z"/>
	<path class="st6" d="M62.4,366.2h0.4l-1.4,3.2h-0.3l-1.4-3.2h0.4l1.1,2.7L62.4,366.2z"/>
	<path class="st6" d="M63.8,366.2v3.1h-0.4v-3.1H63.8z"/>
	<path class="st6" d="M67.2,366.2h0.4v3.1h-0.3l-2-2.6v2.6h-0.4v-3.1h0.3l2,2.5L67.2,366.2L67.2,366.2z"/>
	<path class="st6" d="M70,369.4c-1,0-1.6-0.7-1.6-1.6c0-0.9,0.6-1.6,1.6-1.6c0.5,0,0.9,0.1,1.2,0.4l-0.2,0.3c-0.2-0.2-0.5-0.4-1-0.4
		c-0.7,0-1.2,0.6-1.2,1.3c0,0.8,0.5,1.3,1.2,1.3c0.4,0,0.7-0.1,0.9-0.3V368h-1v-0.3h1.3v1.3C70.9,369.1,70.5,369.4,70,369.4z"/>
</g>

</svg>
