<?xml version="1.0" encoding="utf-8"?>
<!-- Generator: Adobe Illustrator 25.2.0, SVG Export Plug-In . SVG Version: 6.00 Build 0)  -->
<svg version="1.1" id="Layer_1" xmlns="http://www.w3.org/2000/svg" xmlns:xlink="http://www.w3.org/1999/xlink" x="0px" y="0px"
	 viewBox="0 0 272.9 368.4" style="enable-background:new 0 0 272.9 368.4;" xml:space="preserve">
<style type="text/css">
	.st0{fill:none;stroke:#92A0B1;stroke-width:0.24;stroke-linejoin:round;stroke-miterlimit:10;}
	.st1{fill:none;stroke:#00516B;stroke-width:0.25;stroke-linecap:round;stroke-linejoin:round;stroke-miterlimit:10;}
	.st2{fill:none;stroke:#00516B;stroke-width:0.25;stroke-linecap:round;stroke-linejoin:round;stroke-miterlimit:9.9998;}
	.st3{fill:none;stroke:#00516B;stroke-width:0.25;stroke-linecap:round;stroke-linejoin:round;stroke-miterlimit:10.0001;}

		.st4{fill:none;stroke:#00516B;stroke-width:0.25;stroke-linecap:round;stroke-linejoin:round;stroke-miterlimit:10;stroke-dasharray:2,1;}
	.st5{fill-rule:evenodd;clip-rule:evenodd;fill:#00516B;}
	.st6{fill:#00516B;}
	.st7{fill:#245169;}
</style>
<g>
	<g>
		<g>
			<g>
				<line class="st0" x1="10.9" y1="247.8" x2="10.9" y2="246.4"/>
				<line class="st0" x1="10.9" y1="100.9" x2="10.9" y2="62.7"/>
				<line class="st0" x1="10.9" y1="230.3" x2="10.9" y2="228.7"/>
				<line class="st0" x1="10.9" y1="126.8" x2="10.9" y2="124.9"/>
				<line class="st0" x1="10.9" y1="180.6" x2="10.9" y2="179"/>
				<line class="st0" x1="10.9" y1="163" x2="10.9" y2="161.5"/>
				<line class="st0" x1="17" y1="247.8" x2="17" y2="246.4"/>
				<line class="st0" x1="17" y1="126.8" x2="17" y2="62.7"/>
				<line class="st0" x1="17" y1="230.3" x2="17" y2="228.7"/>
				<line class="st0" x1="17" y1="163" x2="17" y2="161.5"/>
				<line class="st0" x1="17" y1="180.6" x2="17" y2="179"/>
				<line class="st0" x1="23" y1="247.8" x2="23" y2="228.7"/>
				<line class="st0" x1="23" y1="126.8" x2="23" y2="62.7"/>
				<line class="st0" x1="23" y1="180.6" x2="23" y2="161.5"/>
				<line class="st0" x1="29" y1="247.8" x2="29" y2="228.7"/>
				<line class="st0" x1="29" y1="126.8" x2="29" y2="62.7"/>
				<line class="st0" x1="29" y1="180.6" x2="29" y2="161.5"/>
				<line class="st0" x1="35" y1="247.8" x2="35" y2="228.7"/>
				<line class="st0" x1="35" y1="126.8" x2="35" y2="62.7"/>
				<line class="st0" x1="35" y1="180.6" x2="35" y2="161.5"/>
				<line class="st0" x1="41" y1="247.8" x2="41" y2="228.7"/>
				<line class="st0" x1="41" y1="126.8" x2="41" y2="95.3"/>
				<line class="st0" x1="41" y1="180.6" x2="41" y2="161.5"/>
				<line class="st0" x1="47" y1="247.8" x2="47" y2="228.7"/>
				<line class="st0" x1="47" y1="126.8" x2="47" y2="95.3"/>
				<line class="st0" x1="47" y1="180.6" x2="47" y2="161.5"/>
				<line class="st0" x1="53.1" y1="247.8" x2="53.1" y2="228.7"/>
				<line class="st0" x1="53.1" y1="126.8" x2="53.1" y2="95.3"/>
				<line class="st0" x1="53.1" y1="180.6" x2="53.1" y2="161.5"/>
				<line class="st0" x1="59.1" y1="247.8" x2="59.1" y2="228.7"/>
				<line class="st0" x1="59.1" y1="124.9" x2="59.1" y2="95.3"/>
				<line class="st0" x1="59.1" y1="180.6" x2="59.1" y2="161.5"/>
				<line class="st0" x1="65.1" y1="247.8" x2="65.1" y2="228.7"/>
				<line class="st0" x1="65.1" y1="124.9" x2="65.1" y2="95.3"/>
				<line class="st0" x1="65.1" y1="180.6" x2="65.1" y2="161.5"/>
				<line class="st0" x1="71.1" y1="247.8" x2="71.1" y2="228.7"/>
				<line class="st0" x1="71.1" y1="180.6" x2="71.1" y2="95.3"/>
				<line class="st0" x1="77.1" y1="247.8" x2="77.1" y2="95.3"/>
				<line class="st0" x1="83.1" y1="247.8" x2="83.1" y2="95.3"/>
				<line class="st0" x1="89.1" y1="247.8" x2="89.1" y2="95.3"/>
				<line class="st0" x1="95.2" y1="247.8" x2="95.2" y2="128.6"/>
				<line class="st0" x1="95.2" y1="124.9" x2="95.2" y2="95.3"/>
				<line class="st0" x1="101.2" y1="236.6" x2="101.2" y2="209.6"/>
				<line class="st0" x1="101.2" y1="124.9" x2="101.2" y2="95.3"/>
				<line class="st0" x1="101.2" y1="208.2" x2="101.2" y2="206.4"/>
				<line class="st0" x1="107.2" y1="236.6" x2="107.2" y2="209.6"/>
				<line class="st0" x1="107.2" y1="124.9" x2="107.2" y2="95.3"/>
				<line class="st0" x1="107.2" y1="208.2" x2="107.2" y2="206.4"/>
				<line class="st0" x1="113.2" y1="236.6" x2="113.2" y2="209.6"/>
				<line class="st0" x1="113.2" y1="124.9" x2="113.2" y2="95.3"/>
				<line class="st0" x1="113.2" y1="208.2" x2="113.2" y2="206.4"/>
				<line class="st0" x1="119.2" y1="236.6" x2="119.2" y2="209.6"/>
				<line class="st0" x1="119.2" y1="91.5" x2="119.2" y2="73.9"/>
				<line class="st0" x1="119.2" y1="208.2" x2="119.2" y2="206.4"/>
				<line class="st0" x1="119.2" y1="120.7" x2="119.2" y2="95.3"/>
				<line class="st0" x1="119.2" y1="124.9" x2="119.2" y2="122.1"/>
				<line class="st0" x1="125.2" y1="236.6" x2="125.2" y2="206.4"/>
				<line class="st0" x1="125.2" y1="96.4" x2="125.2" y2="73.9"/>
				<line class="st0" x1="125.2" y1="124.9" x2="125.2" y2="122.1"/>
				<line class="st0" x1="125.2" y1="120.7" x2="125.2" y2="98"/>
				<line class="st0" x1="131.2" y1="236.6" x2="131.2" y2="206.4"/>
				<line class="st0" x1="131.2" y1="99.8" x2="131.2" y2="73.9"/>
				<line class="st0" x1="131.2" y1="124.9" x2="131.2" y2="122.1"/>
				<line class="st0" x1="131.2" y1="120.7" x2="131.2" y2="101.5"/>
				<line class="st0" x1="137.3" y1="124.9" x2="137.3" y2="122.1"/>
				<line class="st0" x1="137.3" y1="103.3" x2="137.3" y2="73.9"/>
				<line class="st0" x1="137.3" y1="120.7" x2="137.3" y2="104.7"/>
				<line class="st0" x1="143.3" y1="124.9" x2="143.3" y2="104.3"/>
				<line class="st0" x1="143.3" y1="102.7" x2="143.3" y2="73.9"/>
				<line class="st0" x1="149.3" y1="124.9" x2="149.3" y2="100.9"/>
				<line class="st0" x1="149.3" y1="99.2" x2="149.3" y2="73.9"/>
				<line class="st0" x1="155.3" y1="206" x2="155.3" y2="97.4"/>
				<line class="st0" x1="155.3" y1="95.8" x2="155.3" y2="73.9"/>
				<line class="st0" x1="161.3" y1="206" x2="161.3" y2="96.6"/>
				<line class="st0" x1="161.3" y1="95" x2="161.3" y2="73.9"/>
				<line class="st0" x1="167.3" y1="206" x2="167.3" y2="100.1"/>
				<line class="st0" x1="167.3" y1="98.5" x2="167.3" y2="73.9"/>
				<line class="st0" x1="173.3" y1="206" x2="173.3" y2="103.5"/>
				<line class="st0" x1="173.3" y1="101.9" x2="173.3" y2="73.9"/>
				<line class="st0" x1="179.4" y1="206" x2="179.4" y2="73.9"/>
				<line class="st0" x1="185.4" y1="206" x2="185.4" y2="102.2"/>
				<line class="st0" x1="185.4" y1="100.6" x2="185.4" y2="73.9"/>
				<line class="st0" x1="191.4" y1="201.5" x2="191.4" y2="98.8"/>
				<line class="st0" x1="191.4" y1="97.2" x2="191.4" y2="73.9"/>
				<line class="st0" x1="197.4" y1="201.5" x2="197.4" y2="178.9"/>
				<line class="st0" x1="197.4" y1="95.1" x2="197.4" y2="73.9"/>
				<line class="st0" x1="197.4" y1="117.9" x2="197.4" y2="95.3"/>
				<line class="st0" x1="203.4" y1="201.5" x2="203.4" y2="178.9"/>
				<line class="st0" x1="203.4" y1="117.9" x2="203.4" y2="95.3"/>
				<line class="st0" x1="209.4" y1="201.5" x2="209.4" y2="178.9"/>
				<line class="st0" x1="209.4" y1="117.9" x2="209.4" y2="93.4"/>
				<line class="st0" x1="215.5" y1="201.5" x2="215.5" y2="178.9"/>
				<line class="st0" x1="215.5" y1="117.9" x2="215.5" y2="93.4"/>
				<line class="st0" x1="221.5" y1="201.5" x2="221.5" y2="178.9"/>
				<line class="st0" x1="221.5" y1="117.9" x2="221.5" y2="93.4"/>
				<line class="st0" x1="227.5" y1="201.5" x2="227.5" y2="178.9"/>
				<line class="st0" x1="227.5" y1="117.9" x2="227.5" y2="93.4"/>
				<line class="st0" x1="233.5" y1="201.5" x2="233.5" y2="178.9"/>
				<line class="st0" x1="233.5" y1="117.9" x2="233.5" y2="95.3"/>
				<line class="st0" x1="239.5" y1="201.5" x2="239.5" y2="178.9"/>
				<line class="st0" x1="239.5" y1="117.9" x2="239.5" y2="95.3"/>
				<line class="st0" x1="245.5" y1="201.5" x2="245.5" y2="196.5"/>
				<line class="st0" x1="245.5" y1="100.3" x2="245.5" y2="95.3"/>
				<line class="st0" x1="245.5" y1="180.5" x2="245.5" y2="178.9"/>
				<line class="st0" x1="245.5" y1="117.9" x2="245.5" y2="116.3"/>
				<line class="st0" x1="251.5" y1="201.5" x2="251.5" y2="196.5"/>
				<line class="st0" x1="251.5" y1="100.3" x2="251.5" y2="95.3"/>
				<line class="st0" x1="251.5" y1="180.5" x2="251.5" y2="178.9"/>
				<line class="st0" x1="251.5" y1="117.9" x2="251.5" y2="116.3"/>
				<rect x="8.9" y="163" class="st0" width="12.8" height="16"/>
				<rect x="8.9" y="230.3" class="st0" width="12.8" height="16"/>
				<rect x="243.1" y="180.5" class="st0" width="12.8" height="16"/>
				<rect x="243.1" y="100.3" class="st0" width="12.8" height="16"/>
				<polygon class="st0" points="7.3,62.7 7.3,124.9 11.5,124.9 11.5,100.9 10.1,100.9 10.1,126.8 58.3,126.8 58.3,100.9
					56.9,100.9 56.9,124.9 69.5,124.9 69.5,152.7 70.9,152.7 70.9,128.6 66.7,128.6 66.7,161.5 7.3,161.5 7.3,180.6 73.1,180.6
					73.1,228.7 7.3,228.7 7.3,247.8 97.4,247.8 97.4,232.3 101.1,232.3 101.1,236.6 135.5,236.6 135.5,206.4 101.1,206.4
					101.1,209.6 125.1,209.6 125.1,208.2 97.4,208.2 97.4,157.1 99.2,157.1 99.2,131.4 97.4,131.4 97.4,128.6 93.6,128.6
					93.6,124.9 114.2,124.9 114.2,122.1 142,122.1 142,120.7 117.9,120.7 117.9,124.9 154.8,124.9 154.8,206 185.5,206 185.5,201.5
					257.6,201.5 257.6,178.9 191.8,178.9 191.8,117.9 257.6,117.9 257.6,95.3 230.6,95.3 230.6,93.4 206.6,93.4 206.6,95.3
					197.5,95.3 180.8,104.9 180.1,103.7 196.8,94 197.5,95.3 197.5,91.5 200.1,91.5 200.1,73.9 117.9,73.9 117.9,91.5 120.5,91.5
					120.5,95.3 137.2,104.9 137.8,103.6 121.2,94 120.5,95.3 117.9,95.3 117.9,98.1 114.2,98.1 114.2,95.3 39.4,95.3 39.4,90.2
					35.4,90.2 35.4,89 39.4,89 39.4,62.7 				"/>
				<polygon class="st0" points="142.3,104.9 141.6,103.7 158.3,94 159,95.3 159.7,94 176.4,103.7 175.7,104.9 159,95.3 				"/>
				<path class="st1" d="M41,77.1c0-0.9-0.7-1.6-1.6-1.6c-0.9,0-1.6,0.7-1.6,1.6c0,0.9,0.7,1.6,1.6,1.6C40.3,78.7,41,77.9,41,77.1
					h-1.6h52.9l-4-1.5v1.5"/>
				<polygon class="st1" points="0.1,288.4 13,288.4 13,252.3 13.8,252.3 13.8,247.8 7.3,247.8 7.3,161.5 66.7,161.5 66.7,128.6
					69.5,128.6 69.5,124.9 58.3,124.9 58.3,128.6 61.1,128.6 61.1,157.8 7.3,157.8 7.3,128.6 10.1,128.6 10.1,124.9 7.3,124.9
					7.3,62.7 17.4,62.7 17.4,58.2 16.6,58.2 16.6,54.6 13,54.6 13,0.1 0.1,0.1 				"/>
				<polygon class="st1" points="97.2,256 97.2,252.3 96.6,252.3 96.6,247.8 97.4,247.8 97.4,232.3 101.1,232.3 101.1,247.8
					121.2,247.8 121.2,241.6 146.7,241.6 146.7,206.4 101.1,206.4 101.1,208.2 97.4,208.2 97.4,157.1 101.1,157.1 101.1,200.8
					149.2,200.8 149.2,128.6 101.1,128.6 101.1,131.4 97.4,131.4 97.4,128.6 93.6,128.6 93.6,124.9 114.2,124.9 114.2,122.1
					117.9,122.1 117.9,124.9 154.8,124.9 154.8,256 				"/>
				<polygon class="st1" points="41.8,62.7 41.8,58.2 42.6,58.2 42.6,54.6 142.3,54.6 142.3,13.1 234,13.1 234,22.4 151.5,22.4
					151.5,59 203.8,59 203.8,91.5 206.6,91.5 206.6,95.3 197.5,95.3 197.5,91.5 200.1,91.5 200.1,62.7 117.9,62.7 117.9,91.5
					120.5,91.5 120.5,95.3 117.9,95.3 117.9,98.1 114.2,98.1 114.2,62.7 				"/>
				<polygon class="st1" points="260,288.4 260,209.6 256.4,209.6 256.4,206 255.6,206 255.6,201.5 257.6,201.5 257.6,95.3
					230.6,95.3 230.6,91.5 257.6,91.5 257.6,22.4 256.2,22.4 256.2,13.1 260,13.1 260,0.1 272.8,0.1 272.8,59.5 266.4,59.5
					266.4,252.3 272.8,252.3 272.8,288.4 				"/>
				<polyline class="st1" points="260,272 149.2,272 149.2,256 				"/>
				<rect x="39.4" y="91.5" class="st1" width="74.8" height="3.7"/>
				<rect x="239.5" y="47" class="st1" width="18" height="44.5"/>
				<rect x="131.1" y="128.6" class="st1" width="18" height="22.5"/>
				<line class="st1" x1="135.5" y1="236.6" x2="101.1" y2="236.6"/>
				<line class="st1" x1="135.5" y1="236.6" x2="135.5" y2="206.4"/>
				<line class="st1" x1="117.9" y1="73.9" x2="200.1" y2="73.9"/>
				<rect x="10.5" y="132.5" class="st1" width="21.7" height="22.4"/>
				<rect x="36.2" y="132.5" class="st1" width="21.7" height="22.4"/>
				<line class="st1" x1="10.5" y1="152.2" x2="32.2" y2="152.2"/>
				<line class="st1" x1="36.2" y1="152.2" x2="57.9" y2="152.2"/>
				<rect x="205.2" y="22.6" transform="matrix(0.866 -0.5 0.5 0.866 10.6175 107.2674)" class="st2" width="0.6" height="22.4"/>
				<line class="st1" x1="201.5" y1="22.4" x2="201.5" y2="26.2"/>
				<line class="st1" x1="201.5" y1="27.4" x2="201.5" y2="59"/>
				<polyline class="st1" points="200.1,22.4 200.1,24 199.5,24 199.5,22.4 				"/>
				<rect x="199.5" y="46.4" class="st1" width="0.6" height="12.6"/>
				<line class="st1" x1="151.6" y1="40.3" x2="153.7" y2="40.3"/>
				<line class="st1" x1="153.7" y1="40.3" x2="153.7" y2="41.1"/>
				<line class="st1" x1="153.7" y1="41.1" x2="151.6" y2="41.1"/>
				<line class="st1" x1="151.5" y1="40.2" x2="151.6" y2="40.2"/>
				<line class="st1" x1="151.6" y1="40.2" x2="151.6" y2="41.2"/>
				<line class="st1" x1="151.6" y1="41.2" x2="151.5" y2="41.2"/>
				<line class="st1" x1="153.9" y1="38.8" x2="153.9" y2="41.7"/>
				<line class="st1" x1="153.7" y1="42.8" x2="153.1" y2="42.8"/>
				<line class="st1" x1="153.1" y1="42.8" x2="153.1" y2="41.1"/>
				<line class="st1" x1="153.1" y1="40.3" x2="153.1" y2="38.8"/>
				<line class="st1" x1="153.1" y1="38.8" x2="153.9" y2="38.8"/>
				<line class="st1" x1="153.9" y1="39.6" x2="153.1" y2="39.6"/>
				<path class="st1" d="M154.9,41c0.1,0,0.1,0,0.2,0c0.6,0.1,1,0.7,1,1.4c0,0.7-0.6,1.3-1.2,1.2"/>
				<path class="st1" d="M153.8,42.4c0-0.7,0.5-1.3,1.1-1.3s1.1,0.6,1.1,1.3c0,0.7-0.5,1.3-1.1,1.3
					C154.3,43.7,153.8,43.1,153.8,42.4z"/>
				<path class="st1" d="M154,41.6c0,0-0.1,0.1-0.1,0.1c-0.1,0.1-0.1,0.2-0.2,0.2c-0.1,0-0.1,0.1-0.2,0.1c0,0-0.1,0-0.1,0"/>
				<path class="st1" d="M154,43.1c0,0-0.1-0.1-0.1-0.1c-0.1-0.1-0.1-0.2-0.2-0.2c-0.1,0-0.1-0.1-0.2-0.1c0,0-0.1,0-0.1,0"/>
				<path class="st1" d="M153.4,42c-0.2,0.1-0.3,0.3-0.2,0.5c0,0.1,0.1,0.2,0.2,0.2"/>
				<line class="st1" x1="151.5" y1="40.2" x2="151.5" y2="41.2"/>
				<path class="st1" d="M157.2,41.7c0-1,0.8-1.9,1.9-1.9c1,0,1.9,0.8,1.9,1.9s-0.8,1.9-1.9,1.9C158,43.6,157.2,42.7,157.2,41.7z"/>
				<line class="st1" x1="198.2" y1="59" x2="198.2" y2="22.4"/>
				<line class="st1" x1="198.2" y1="57.8" x2="186.1" y2="57.8"/>
				<polyline class="st1" points="184.4,57.8 152.7,57.8 152.7,41.1 				"/>
				<path class="st1" d="M200.1,46.4c3.9,0,7.8-1,11.2-3"/>
				<line class="st1" x1="184.3" y1="57.9" x2="186.1" y2="57.9"/>
				<line class="st1" x1="188.1" y1="58.3" x2="182.3" y2="58.3"/>
				<path class="st1" d="M184.3,57.9c-0.7,0.1-1.3,0.2-2,0.4"/>
				<path class="st1" d="M188.1,58.3c-0.7-0.2-1.3-0.3-2-0.4"/>
				<line class="st1" x1="188.1" y1="58.5" x2="188.1" y2="58.3"/>
				<line class="st1" x1="182.3" y1="58.3" x2="182.3" y2="58.5"/>
				<path class="st1" d="M188.1,58.3C188.1,58.3,188.1,58.3,188.1,58.3"/>
				<path class="st1" d="M182.4,58.3C182.3,58.3,182.3,58.3,182.4,58.3"/>
				<line class="st1" x1="186.1" y1="57.9" x2="186.1" y2="57.1"/>
				<line class="st1" x1="184.4" y1="57.1" x2="184.4" y2="57.9"/>
				<line class="st1" x1="184.5" y1="56.7" x2="185.2" y2="56.7"/>
				<line class="st1" x1="185.2" y1="56.7" x2="185.2" y2="56.7"/>
				<line class="st1" x1="186" y1="56.7" x2="185.9" y2="56.7"/>
				<line class="st1" x1="184.5" y1="56.7" x2="184.4" y2="56.7"/>
				<line class="st1" x1="185.2" y1="56.7" x2="185.9" y2="56.7"/>
				<line class="st1" x1="186.1" y1="56.7" x2="186" y2="55.5"/>
				<line class="st1" x1="184.4" y1="55.5" x2="184.4" y2="56.7"/>
				<path class="st1" d="M186,56.7C186.1,56.7,186.1,56.7,186,56.7"/>
				<path class="st1" d="M184.4,56.7C184.4,56.7,184.4,56.7,184.4,56.7"/>
				<path class="st1" d="M184.4,55.5C184.4,55.5,184.4,55.5,184.4,55.5"/>
				<path class="st1" d="M186,55.5C186,55.5,186,55.5,186,55.5"/>
				<path class="st1" d="M186,55.5c-0.5,0-1.1,0-1.6,0"/>
				<path class="st1" d="M186.1,57.1c0-0.1,0-0.3-0.1-0.4"/>
				<path class="st1" d="M184.5,56.7c-0.1,0.1-0.1,0.3-0.1,0.4"/>
				<line class="st1" x1="182.3" y1="58.5" x2="182.3" y2="59"/>
				<line class="st1" x1="188.1" y1="58.5" x2="188.1" y2="59"/>
				<polyline class="st1" points="198.2,23.6 152.7,23.6 152.7,40.3 				"/>
				<path class="st1" d="M246.7,57.8c0-0.7,0.5-1.2,1.2-1.2c0.7,0,1.2,0.5,1.2,1.2c0,0.7-0.5,1.2-1.2,1.2
					C247.2,59,246.7,58.5,246.7,57.8z"/>
				<path class="st1" d="M247.2,57.8c0-0.4,0.3-0.7,0.7-0.7s0.7,0.3,0.7,0.7s-0.3,0.7-0.7,0.7C247.5,58.5,247.2,58.2,247.2,57.8z"/>
				<line class="st1" x1="251.2" y1="57.3" x2="255" y2="57.3"/>
				<path class="st1" d="M251.2,57.3c-0.2,0-0.3,0.1-0.3,0.3"/>
				<path class="st1" d="M250.9,58.1c0,0.2,0.1,0.3,0.3,0.3"/>
				<line class="st1" x1="250.9" y1="57.6" x2="250.9" y2="58.1"/>
				<path class="st1" d="M255.1,58.2c-0.1-0.1-0.2-0.1-0.3-0.1"/>
				<path class="st1" d="M254.7,57.6c0.1,0,0.2-0.1,0.3-0.1"/>
				<line class="st1" x1="252.9" y1="57.6" x2="254.7" y2="57.6"/>
				<line class="st1" x1="254.7" y1="58.1" x2="252.9" y2="58.1"/>
				<path class="st1" d="M252.8,57.9c0,0.1,0.1,0.2,0.2,0.2"/>
				<line class="st1" x1="252.8" y1="57.7" x2="252.8" y2="57.9"/>
				<path class="st1" d="M255.3,58.4c-0.1,0-0.2-0.1-0.3-0.1"/>
				<path class="st1" d="M255,57.3c0.1,0,0.2,0,0.3-0.1"/>
				<line class="st1" x1="255" y1="58.3" x2="251.2" y2="58.3"/>
				<path class="st1" d="M255,58.3c0.3,0.3,0.8,0.3,1.1,0c0.3-0.3,0.3-0.8,0-1.1s-0.8-0.3-1.1,0c0,0,0,0,0,0"/>
				<path class="st1" d="M255.1,58.2c0.2,0.3,0.6,0.3,0.9,0.1s0.3-0.6,0-0.9c-0.2-0.3-0.6-0.3-0.9-0.1c0,0,0,0,0,0.1"/>
				<path class="st1" d="M252.9,57.6c-0.1,0-0.2,0.1-0.2,0.2"/>
				<path class="st1" d="M253.9,57.3c-0.3-3.3-3.2-5.8-6.5-5.5c-3.3,0.3-5.8,3.2-5.5,6.5s3.2,5.8,6.5,5.5c2.9-0.2,5.2-2.6,5.5-5.5"
					/>
				<path class="st1" d="M246.7,80.8c0-0.7,0.5-1.2,1.2-1.2c0.7,0,1.2,0.5,1.2,1.2c0,0.7-0.5,1.2-1.2,1.2S246.7,81.4,246.7,80.8z"/>
				<path class="st1" d="M247.2,80.8c0-0.4,0.3-0.7,0.7-0.7s0.7,0.3,0.7,0.7s-0.3,0.7-0.7,0.7C247.5,81.5,247.2,81.1,247.2,80.8z"/>
				<line class="st1" x1="251.2" y1="80.2" x2="255" y2="80.2"/>
				<path class="st1" d="M251.2,80.2c-0.2,0-0.3,0.1-0.3,0.3"/>
				<path class="st1" d="M250.9,81c0,0.2,0.1,0.3,0.3,0.3"/>
				<line class="st1" x1="250.9" y1="80.5" x2="250.9" y2="81"/>
				<path class="st1" d="M255.1,81.2c-0.1-0.1-0.2-0.1-0.3-0.1"/>
				<path class="st1" d="M254.7,80.5c0.1,0,0.2-0.1,0.3-0.1"/>
				<line class="st1" x1="252.9" y1="80.5" x2="254.7" y2="80.5"/>
				<line class="st1" x1="254.7" y1="81" x2="252.9" y2="81"/>
				<path class="st1" d="M252.8,80.9c0,0.1,0.1,0.2,0.2,0.2"/>
				<line class="st1" x1="252.8" y1="80.6" x2="252.8" y2="80.9"/>
				<path class="st1" d="M255.3,81.3c-0.1,0-0.2-0.1-0.3-0.1"/>
				<path class="st1" d="M255,80.2c0.1,0,0.2,0,0.3-0.1"/>
				<line class="st1" x1="255" y1="81.3" x2="251.2" y2="81.3"/>
				<path class="st1" d="M255,81.3c0.3,0.3,0.8,0.3,1.1,0c0.3-0.3,0.3-0.8,0-1.1c-0.3-0.3-0.8-0.3-1.1,0c0,0,0,0,0,0"/>
				<path class="st1" d="M255.1,81.2c0.2,0.3,0.6,0.3,0.9,0.1s0.3-0.6,0-0.9c-0.2-0.3-0.6-0.3-0.9-0.1c0,0,0,0,0,0.1"/>
				<path class="st1" d="M252.9,80.5c-0.1,0-0.2,0.1-0.2,0.2"/>
				<path class="st1" d="M253.9,80.2c-0.3-3.3-3.2-5.8-6.5-5.5c-3.3,0.3-5.8,3.2-5.5,6.5s3.2,5.8,6.5,5.5c2.9-0.2,5.2-2.6,5.5-5.5"
					/>
				<path class="st1" d="M242.5,40.5c1.1,0,2.1-0.1,3.2-0.5c0.9-0.3,1.7-0.7,2.5-1.2c0.3-0.2,0.5-0.4,0.8-0.6"/>
				<path class="st1" d="M242.5,40.5c-1.1,0-2.1-0.1-3.2-0.5c-0.9-0.3-1.7-0.7-2.5-1.2c-0.7-0.5-1.3-1.2-1.8-2
					c-0.4-0.6-0.6-1.4-0.6-2.1s0.2-1.5,0.6-2.1c0.5-0.8,1.1-1.4,1.8-2c0.8-0.6,1.6-1,2.5-1.2c1-0.3,2.1-0.5,3.2-0.5s2.1,0.1,3.2,0.5
					c0.9,0.3,1.7,0.7,2.5,1.2c0.3,0.2,0.5,0.4,0.8,0.6v6.9"/>
				<path class="st1" d="M252.6,39.2c-2.6,0.1-5.1,0.5-7.6,1"/>
				<path class="st1" d="M251.7,32.5c0.1-0.6,0.3-1.1,0.5-1.7c0.3-0.6,0.7-1.2,1.3-1.6c0.2-0.1,0.5-0.2,0.7-0.2l2.4,0.4
					c0.2,0,0.3,0.2,0.3,0.3v9.7c0,0.2-0.1,0.3-0.3,0.3l-2.4,0.4c-0.3,0.1-0.5,0-0.7-0.2c-0.6-0.4-1-0.9-1.3-1.6
					c-0.2-0.5-0.4-1.1-0.5-1.7c-0.1-0.7-0.2-1.5-0.2-2.2C251.5,33.9,251.5,33.2,251.7,32.5z"/>
				<path class="st1" d="M252.6,30.2c-2.6-0.1-5.1-0.5-7.6-1"/>
				<path class="st1" d="M253.4,34.7c0-0.3,0.3-0.6,0.6-0.6s0.6,0.3,0.6,0.6s-0.3,0.6-0.6,0.6S253.4,35,253.4,34.7z"/>
				<path class="st1" d="M134.1,168.9c1.1,0,2.1-0.1,3.2-0.5c0.9-0.3,1.7-0.7,2.5-1.2c0.3-0.2,0.5-0.4,0.8-0.6"/>
				<path class="st1" d="M134.1,168.9c-1.1,0-2.1-0.1-3.2-0.5c-0.9-0.3-1.7-0.7-2.5-1.2c-0.7-0.5-1.3-1.2-1.8-2
					c-0.4-0.6-0.6-1.4-0.6-2.1c0-0.7,0.2-1.5,0.6-2.1c0.5-0.8,1.1-1.5,1.8-2c0.8-0.5,1.6-1,2.5-1.2c1-0.3,2.1-0.5,3.2-0.5
					s2.1,0.1,3.2,0.5c0.9,0.3,1.7,0.7,2.5,1.2c0.3,0.2,0.5,0.4,0.8,0.6v6.9"/>
				<path class="st1" d="M144.2,167.6c-2.6,0.1-5.1,0.5-7.6,1"/>
				<path class="st1" d="M143.3,160.9c0.1-0.6,0.3-1.1,0.5-1.7c0.3-0.6,0.7-1.2,1.3-1.6c0.2-0.1,0.5-0.2,0.7-0.2l2.4,0.5
					c0.2,0,0.3,0.2,0.3,0.3v9.7c0,0.2-0.1,0.3-0.3,0.3l-2.4,0.5c-0.3,0-0.5,0-0.7-0.2c-0.6-0.4-1-0.9-1.3-1.6
					c-0.2-0.5-0.4-1.1-0.5-1.7c-0.1-0.7-0.2-1.5-0.2-2.2S143.2,161.6,143.3,160.9z"/>
				<path class="st1" d="M144.2,158.6c-2.6-0.1-5.1-0.5-7.6-1"/>
				<path class="st1" d="M145,163.1c0-0.3,0.3-0.6,0.6-0.6c0.3,0,0.6,0.3,0.6,0.6c0,0.3-0.3,0.6-0.6,0.6S145,163.5,145,163.1z"/>
				<path class="st1" d="M138.3,139.9c0-0.7,0.5-1.2,1.2-1.2c0.7,0,1.2,0.5,1.2,1.2c0,0.7-0.5,1.2-1.2,1.2
					C138.9,141.1,138.3,140.5,138.3,139.9z"/>
				<path class="st1" d="M138.8,139.9c0-0.4,0.3-0.7,0.7-0.7s0.7,0.3,0.7,0.7s-0.3,0.7-0.7,0.7C139.2,140.6,138.8,140.3,138.8,139.9
					z"/>
				<path class="st1" d="M145.5,139.3c-0.3-3.3-3.2-5.8-6.5-5.5c-3.3,0.3-5.8,3.2-5.5,6.5c0.3,3.3,3.2,5.8,6.5,5.5
					c2.9-0.2,5.2-2.6,5.5-5.5"/>
				<line class="st1" x1="146.2" y1="188.7" x2="144.3" y2="188.7"/>
				<line class="st1" x1="144.3" y1="188.7" x2="143.3" y2="188.7"/>
				<path class="st1" d="M143.4,188.7C143.4,188.7,143.4,188.7,143.4,188.7c-0.3,0-0.4-0.3-0.4-0.5s0.2-0.5,0.4-0.5"/>
				<line class="st1" x1="146.2" y1="187.7" x2="144.3" y2="187.7"/>
				<line class="st1" x1="144.3" y1="187.7" x2="143.3" y2="187.7"/>
				<line class="st1" x1="148.5" y1="190.9" x2="148.6" y2="190.9"/>
				<line class="st1" x1="148.5" y1="190.9" x2="148.6" y2="190.9"/>
				<line class="st1" x1="149.2" y1="190.8" x2="148.6" y2="190.9"/>
				<line class="st1" x1="146.2" y1="188.8" x2="146.2" y2="187.6"/>
				<line class="st1" x1="146.3" y1="188.8" x2="146.3" y2="187.6"/>
				<line class="st1" x1="146.4" y1="188.8" x2="146.4" y2="187.6"/>
				<line class="st1" x1="148.2" y1="189" x2="148.2" y2="189"/>
				<line class="st1" x1="146.2" y1="188.8" x2="146.3" y2="188.8"/>
				<line class="st1" x1="146.2" y1="188.8" x2="146.3" y2="188.8"/>
				<line class="st1" x1="146.4" y1="188.8" x2="148.2" y2="188.8"/>
				<line class="st1" x1="146.4" y1="188.8" x2="146.3" y2="188.8"/>
				<line class="st1" x1="145.2" y1="188.4" x2="146" y2="188.4"/>
				<line class="st1" x1="145.2" y1="188" x2="146" y2="188"/>
				<line class="st1" x1="146.4" y1="187.6" x2="146.3" y2="187.6"/>
				<line class="st1" x1="148.2" y1="189" x2="148.2" y2="187.4"/>
				<line class="st1" x1="148.3" y1="189" x2="148.3" y2="189"/>
				<line class="st1" x1="148.3" y1="189" x2="148.3" y2="187.4"/>
				<line class="st1" x1="146.4" y1="187.6" x2="148.2" y2="187.6"/>
				<line class="st1" x1="146.2" y1="187.5" x2="146.3" y2="187.5"/>
				<line class="st1" x1="146.2" y1="187.5" x2="146.3" y2="187.5"/>
				<line class="st1" x1="148.2" y1="187.4" x2="148.2" y2="187.4"/>
				<line class="st1" x1="148.4" y1="190.8" x2="148.4" y2="185.5"/>
				<line class="st1" x1="149.2" y1="185.6" x2="149.2" y2="190.8"/>
				<line class="st1" x1="148.5" y1="185.5" x2="148.6" y2="185.5"/>
				<line class="st1" x1="148.5" y1="185.5" x2="148.6" y2="185.5"/>
				<line class="st1" x1="149.2" y1="185.6" x2="148.6" y2="185.5"/>
				<path class="st1" d="M148.4,189.3c0-0.1-0.1-0.2-0.1-0.3"/>
				<path class="st1" d="M148.3,187.4c0-0.1,0.1-0.2,0.1-0.3"/>
				<path class="st1" d="M144.8,188.2c0-0.1,0.1-0.3,0.3-0.3s0.3,0.1,0.3,0.3s-0.1,0.3-0.3,0.3C144.9,188.4,144.8,188.3,144.8,188.2
					z"/>
				<path class="st1" d="M146.2,188.6c0-0.1-0.1-0.2-0.2-0.2"/>
				<path class="st1" d="M146,188c0.1,0,0.2-0.1,0.2-0.2"/>
				<path class="st1" d="M148.4,190.8C148.4,190.9,148.4,190.9,148.4,190.8"/>
				<path class="st1" d="M148.5,185.5C148.4,185.5,148.4,185.5,148.5,185.5"/>
				<path class="st1" d="M148.2,187.4C148.2,187.4,148.2,187.4,148.2,187.4"/>
				<path class="st1" d="M148.2,189C148.2,189,148.2,189,148.2,189"/>
				<path class="st1" d="M146.3,187.6C146.3,187.5,146.3,187.5,146.3,187.6"/>
				<path class="st1" d="M146.2,187.5C146.2,187.5,146.2,187.6,146.2,187.5"/>
				<path class="st1" d="M146.2,188.8C146.2,188.8,146.2,188.8,146.2,188.8"/>
				<path class="st1" d="M146.3,188.8C146.3,188.8,146.3,188.8,146.3,188.8"/>
				<path class="st1" d="M140.4,188.2c0-0.7,0.5-1.2,1.2-1.2s1.2,0.5,1.2,1.2s-0.5,1.2-1.2,1.2S140.4,188.8,140.4,188.2z"/>
				<rect x="101.1" y="175.2" class="st1" width="48.1" height="25.7"/>
				<polyline class="st1" points="145.6,188.7 145.6,197.6 116.3,197.6 				"/>
				<polyline class="st1" points="114.7,197.6 104.5,197.6 104.5,178.8 145.6,178.8 145.6,187.7 				"/>
				<polyline class="st1" points="144,188.7 144,196.2 111.9,196.2 111.9,180.2 144,180.2 144,187.7 				"/>
				<line class="st1" x1="114.6" y1="199.8" x2="116.4" y2="199.8"/>
				<line class="st1" x1="118.4" y1="200.2" x2="112.6" y2="200.2"/>
				<path class="st1" d="M114.6,199.8c-0.7,0.1-1.3,0.2-2,0.4"/>
				<path class="st1" d="M118.4,200.1c-0.7-0.2-1.3-0.3-2-0.4"/>
				<line class="st1" x1="118.4" y1="200.4" x2="118.4" y2="200.2"/>
				<line class="st1" x1="112.6" y1="200.2" x2="112.6" y2="200.4"/>
				<path class="st1" d="M118.4,200.2C118.4,200.1,118.4,200.1,118.4,200.2"/>
				<path class="st1" d="M112.6,200.1C112.6,200.1,112.6,200.1,112.6,200.1"/>
				<line class="st1" x1="116.4" y1="199.8" x2="116.4" y2="199"/>
				<line class="st1" x1="114.6" y1="199" x2="114.6" y2="199.8"/>
				<line class="st1" x1="114.8" y1="198.6" x2="115.5" y2="198.6"/>
				<line class="st1" x1="115.5" y1="198.6" x2="115.5" y2="198.6"/>
				<line class="st1" x1="116.3" y1="198.6" x2="116.2" y2="198.6"/>
				<line class="st1" x1="114.8" y1="198.6" x2="114.7" y2="198.6"/>
				<line class="st1" x1="115.5" y1="198.6" x2="116.2" y2="198.6"/>
				<line class="st1" x1="116.3" y1="198.5" x2="116.3" y2="197.3"/>
				<line class="st1" x1="114.7" y1="197.3" x2="114.7" y2="198.5"/>
				<path class="st1" d="M116.3,198.6C116.3,198.6,116.3,198.5,116.3,198.6"/>
				<path class="st1" d="M114.7,198.5C114.7,198.6,114.7,198.6,114.7,198.5"/>
				<path class="st1" d="M114.7,197.3C114.7,197.3,114.7,197.3,114.7,197.3"/>
				<path class="st1" d="M116.3,197.3C116.3,197.3,116.3,197.3,116.3,197.3"/>
				<path class="st1" d="M116.3,197.3c-0.5,0-1.1,0-1.6,0"/>
				<path class="st1" d="M116.4,199c0-0.1,0-0.3-0.1-0.4"/>
				<path class="st1" d="M114.8,198.6c-0.1,0.1-0.1,0.3-0.1,0.4"/>
				<line class="st1" x1="112.6" y1="200.4" x2="112.6" y2="200.8"/>
				<line class="st1" x1="118.4" y1="200.4" x2="118.4" y2="200.8"/>
				<line class="st1" x1="142.8" y1="140.4" x2="146.6" y2="140.4"/>
				<path class="st1" d="M142.5,140.1c0,0.2,0.1,0.3,0.3,0.3"/>
				<path class="st1" d="M142.8,139.3c-0.2,0-0.3,0.1-0.3,0.3"/>
				<line class="st1" x1="142.5" y1="140.1" x2="142.5" y2="139.6"/>
				<path class="st1" d="M146.4,139.6c0.1,0,0.2,0,0.3-0.1"/>
				<path class="st1" d="M146.7,140.3c-0.1-0.1-0.2-0.1-0.3-0.1"/>
				<line class="st1" x1="144.6" y1="140.1" x2="146.4" y2="140.1"/>
				<line class="st1" x1="146.4" y1="139.6" x2="144.6" y2="139.6"/>
				<path class="st1" d="M144.6,139.6c-0.1,0-0.2,0.1-0.2,0.2"/>
				<line class="st1" x1="144.4" y1="140" x2="144.4" y2="139.7"/>
				<path class="st1" d="M146.6,139.3c0.1,0,0.2,0,0.3-0.1"/>
				<path class="st1" d="M146.9,140.4c-0.1,0-0.2-0.1-0.3-0.1"/>
				<line class="st1" x1="146.6" y1="139.3" x2="142.8" y2="139.3"/>
				<path class="st1" d="M146.6,140.4c0.3,0.3,0.8,0.3,1.1,0c0.3-0.3,0.3-0.8,0-1.1c-0.3-0.3-0.8-0.3-1.1,0c0,0,0,0,0,0"/>
				<path class="st1" d="M146.7,140.3c0.2,0.3,0.6,0.3,0.9,0c0.3-0.2,0.3-0.6,0-0.9c-0.2-0.3-0.6-0.3-0.9,0c0,0,0,0,0,0"/>
				<path class="st1" d="M144.4,140c0,0.1,0.1,0.2,0.2,0.2"/>
				<line class="st1" x1="8.9" y1="228.7" x2="8.9" y2="180.6"/>
				<rect x="7.3" y="180.6" class="st1" width="65.8" height="48.1"/>
				<path class="st1" d="M26.1,202.7c-3.7-1.1-7.6-1.1-11.2,0c0.8-6.7,0.8-13.4,0-20c3.7,1.1,7.6,1.1,11.2,0
					C25.3,189.3,25.3,196,26.1,202.7z"/>
				<path class="st1" d="M22.6,203.9c-4.2-1.1-8.6-1.1-12.8,0c1.1-7.5,1.1-15,0-22.5c4.2,1.1,8.6,1.1,12.8,0
					c-0.1,0.6-0.2,1.3-0.2,1.9"/>
				<path class="st1" d="M26.1,206.7c-3.7,1.1-7.6,1.1-11.2,0c0.8,6.7,0.8,13.4,0,20c3.7-1.1,7.6-1.1,11.2,0
					C25.3,220.1,25.3,213.3,26.1,206.7z"/>
				<path class="st1" d="M22.6,205.5c-4.2,1.1-8.6,1.1-12.8,0c1.1,7.5,1.1,15,0,22.5c4.2-1.1,8.6-1.1,12.8,0
					c-0.1-0.6-0.2-1.3-0.2-1.9"/>
				<line class="st1" x1="17" y1="180.6" x2="17" y2="182.2"/>
				<line class="st1" x1="27.4" y1="180.6" x2="27.4" y2="228.7"/>
				<line class="st1" x1="17" y1="203.1" x2="17" y2="206.3"/>
				<line class="st1" x1="17" y1="227.1" x2="17" y2="228.7"/>
				<path class="st1" d="M22.3,202c0.1,0.6,0.2,1.3,0.2,1.9"/>
				<path class="st1" d="M22.6,205.5c-0.1,0.6-0.2,1.3-0.2,1.9"/>
				<rect x="8.9" y="230.3" class="st1" width="12.8" height="16"/>
				<rect x="8.9" y="163" class="st1" width="12.8" height="16"/>
				<path class="st1" d="M10.6,238.4c0-2.6,2.1-4.8,4.8-4.8c2.6,0,4.8,2.1,4.8,4.8c0,2.6-2.1,4.8-4.8,4.8
					C12.7,243.1,10.6,241,10.6,238.4z"/>
				<path class="st1" d="M14.1,238.4c0-0.7,0.5-1.2,1.2-1.2s1.2,0.5,1.2,1.2c0,0.7-0.5,1.2-1.2,1.2S14.1,239,14.1,238.4z"/>
				<line class="st1" x1="20.1" y1="238.4" x2="16.6" y2="238.4"/>
				<line class="st1" x1="14.1" y1="238.4" x2="10.6" y2="238.4"/>
				<line class="st1" x1="15.4" y1="243.1" x2="15.4" y2="239.6"/>
				<line class="st1" x1="15.4" y1="237.1" x2="15.4" y2="233.6"/>
				<path class="st1" d="M10.6,171c0-2.6,2.1-4.8,4.8-4.8c2.6,0,4.8,2.1,4.8,4.8c0,2.6-2.1,4.8-4.8,4.8
					C12.7,175.8,10.6,173.6,10.6,171z"/>
				<path class="st1" d="M14.1,171c0-0.7,0.5-1.2,1.2-1.2s1.2,0.5,1.2,1.2c0,0.7-0.5,1.2-1.2,1.2C14.7,172.2,14.1,171.7,14.1,171z"
					/>
				<line class="st1" x1="20.1" y1="171" x2="16.6" y2="171"/>
				<line class="st1" x1="14.1" y1="171" x2="10.6" y2="171"/>
				<line class="st1" x1="15.4" y1="175.8" x2="15.4" y2="172.2"/>
				<line class="st1" x1="15.4" y1="169.8" x2="15.4" y2="166.2"/>
				<line class="st1" x1="256" y1="117.9" x2="256" y2="178.9"/>
				<rect x="191.8" y="117.9" class="st1" width="65.8" height="61"/>
				<ellipse class="st1" cx="244.4" cy="163.2" rx="7.7" ry="18.8"/>
				<path class="st1" d="M242.3,149.2c4.2,1.1,8.6,1.1,12.8,0c-1.1,9.3-1.1,18.7,0,28.1c-4.2-1.1-8.6-1.1-12.8,0
					c0.1-0.6,0.2-1.3,0.2-1.9"/>
				<path class="st1" d="M238.8,146.4c3.7-1.1,7.6-1.1,11.2,0c-0.8-8.5-0.8-17.1,0-25.7c-3.7,1.1-7.6,1.1-11.2,0
					C239.6,129.3,239.6,137.8,238.8,146.4z"/>
				<path class="st1" d="M242.3,147.6c4.2-1.1,8.6-1.1,12.8,0c-1.1-9.3-1.1-18.7,0-28.1c-4.2,1.1-8.6,1.1-12.8,0
					c0.1,0.6,0.2,1.3,0.2,1.9"/>
				<line class="st1" x1="247.9" y1="178.9" x2="247.9" y2="176.5"/>
				<line class="st1" x1="237.5" y1="178.9" x2="237.5" y2="117.9"/>
				<line class="st1" x1="247.9" y1="150" x2="247.9" y2="146.8"/>
				<line class="st1" x1="247.9" y1="120.3" x2="247.9" y2="117.9"/>
				<path class="st1" d="M242.6,151.1c-0.1-0.6-0.2-1.3-0.2-1.9"/>
				<path class="st1" d="M242.3,147.6c0.1-0.6,0.2-1.3,0.2-1.9"/>
				<rect x="243.1" y="180.5" class="st1" width="12.8" height="16"/>
				<rect x="243.1" y="100.3" class="st1" width="12.8" height="16"/>
				<path class="st1" d="M244.8,188.5c0-2.6,2.1-4.8,4.8-4.8c2.6,0,4.8,2.1,4.8,4.8c0,2.6-2.1,4.8-4.8,4.8S244.8,191.1,244.8,188.5z
					"/>
				<path class="st1" d="M248.3,188.5c0-0.7,0.5-1.2,1.2-1.2c0.7,0,1.2,0.5,1.2,1.2c0,0.7-0.5,1.2-1.2,1.2
					C248.9,189.7,248.3,189.2,248.3,188.5z"/>
				<line class="st1" x1="249.5" y1="193.3" x2="249.5" y2="189.7"/>
				<line class="st1" x1="249.5" y1="187.3" x2="249.5" y2="183.7"/>
				<line class="st1" x1="244.8" y1="188.5" x2="248.3" y2="188.5"/>
				<line class="st1" x1="250.8" y1="188.5" x2="254.3" y2="188.5"/>

					<ellipse transform="matrix(1 -3.649161e-03 3.649161e-03 1 -0.3935 0.9113)" class="st3" cx="249.5" cy="108.3" rx="4.8" ry="4.8"/>
				<path class="st1" d="M248.3,108.3c0-0.7,0.5-1.2,1.2-1.2c0.7,0,1.2,0.5,1.2,1.2c0,0.7-0.5,1.2-1.2,1.2S248.3,109,248.3,108.3z"
					/>
				<line class="st1" x1="249.5" y1="103.5" x2="249.5" y2="107.1"/>
				<line class="st1" x1="249.5" y1="109.5" x2="249.5" y2="113.1"/>
				<line class="st1" x1="244.8" y1="108.3" x2="248.3" y2="108.3"/>
				<line class="st1" x1="250.8" y1="108.3" x2="254.3" y2="108.3"/>
				<polygon class="st1" points="152.1,258.4 154.5,258.4 154.5,266.6 257.6,266.6 257.6,269 152.1,269 				"/>
				<rect x="154.8" y="206" class="st1" width="1.6" height="3.6"/>
				<line class="st1" x1="185.5" y1="201.5" x2="185.5" y2="206"/>
				<line class="st1" x1="256.2" y1="13.1" x2="234" y2="13.1"/>
				<line class="st1" x1="39.4" y1="91.4" x2="39.4" y2="90.2"/>
				<line class="st1" x1="39.4" y1="89" x2="39.4" y2="62.7"/>
				<line class="st1" x1="46" y1="91.4" x2="46" y2="90.2"/>
				<line class="st1" x1="46" y1="89" x2="46" y2="62.7"/>
				<line class="st1" x1="52.7" y1="91.4" x2="52.7" y2="90.2"/>
				<line class="st1" x1="52.7" y1="89" x2="52.7" y2="62.7"/>
				<line class="st1" x1="59.3" y1="91.4" x2="59.3" y2="90.2"/>
				<line class="st1" x1="59.3" y1="89" x2="59.3" y2="62.7"/>
				<line class="st1" x1="65.9" y1="91.4" x2="65.9" y2="90.2"/>
				<line class="st1" x1="65.9" y1="89" x2="65.9" y2="62.7"/>
				<line class="st1" x1="72.5" y1="91.4" x2="72.5" y2="90.2"/>
				<line class="st1" x1="72.5" y1="89" x2="72.5" y2="62.7"/>
				<line class="st1" x1="79.1" y1="91.4" x2="79.1" y2="90.2"/>
				<line class="st1" x1="79.1" y1="89" x2="79.1" y2="62.7"/>
				<line class="st1" x1="85.7" y1="91.4" x2="85.7" y2="90.2"/>
				<line class="st1" x1="85.7" y1="89" x2="85.7" y2="62.7"/>
				<line class="st1" x1="92.3" y1="91.4" x2="92.3" y2="90.2"/>
				<line class="st1" x1="92.3" y1="89" x2="92.3" y2="62.7"/>
				<line class="st1" x1="99" y1="91.4" x2="99" y2="90.2"/>
				<line class="st1" x1="99" y1="89" x2="99" y2="78.5"/>
				<line class="st1" x1="99" y1="77.1" x2="99" y2="75.5"/>
				<path class="st1" d="M178.2,95.3c0,3.4,0.9,6.7,2.6,9.6"/>
				<path class="st1" d="M175.7,104.9c1.7-2.9,2.6-6.2,2.6-9.6"/>
				<rect x="179.2" y="98.8" transform="matrix(0.866 -0.5 0.5 0.866 -24.4341 107.7159)" class="st2" width="19.2" height="1.4"/>
				<rect x="167" y="89.9" transform="matrix(0.5 -0.866 0.866 0.5 -2.3242 194.932)" class="st2" width="1.4" height="19.2"/>
				<rect x="101.1" y="131.4" class="st1" width="25.7" height="1.4"/>
				<path class="st1" d="M101.1,157.1c14.2,0,25.7-11.5,25.7-25.7"/>
				<rect x="101.1" y="208.2" class="st1" width="24.1" height="1.4"/>
				<path class="st1" d="M101.1,232.3c13.3,0,24.1-10.8,24.1-24.1"/>
				<rect x="206.6" y="67.5" class="st1" width="1.4" height="24.1"/>
				<path class="st1" d="M230.6,91.5c0-13.3-10.8-24.1-24.1-24.1"/>
				<polyline class="st1" points="95.2,62.6 98.6,75.4 101.5,76.2 96.7,77.8 99.5,78.6 102.9,91.4 				"/>
				<rect x="117.9" y="120.7" class="st1" width="24.1" height="1.4"/>
				<path class="st1" d="M142,122.1c0-13.3-10.8-24.1-24.1-24.1"/>
				<rect x="69.5" y="128.6" class="st1" width="1.4" height="24.1"/>
				<path class="st1" d="M69.5,152.7c13.3,0,24.1-10.8,24.1-24.1"/>
				<rect x="56.9" y="100.9" class="st1" width="1.4" height="24.1"/>
				<rect x="10.1" y="100.9" class="st1" width="1.4" height="24.1"/>
				<path class="st1" d="M58.3,100.9c-13.3,0-24.1,10.8-24.1,24.1"/>
				<path class="st1" d="M34.2,124.9c0-13.3-10.8-24.1-24.1-24.1"/>
				<path class="st1" d="M137.2,104.9c1.7-2.9,2.6-6.2,2.6-9.6"/>
				<path class="st1" d="M139.7,95.3c0,3.4,0.9,6.7,2.6,9.6"/>
				<rect x="128.5" y="89.8" transform="matrix(0.5 -0.866 0.866 0.5 -21.5655 161.5946)" class="st2" width="1.4" height="19.2"/>
				<rect x="140.7" y="98.8" transform="matrix(0.866 -0.5 0.5 0.866 -29.5939 88.4668)" class="st2" width="19.2" height="1.4"/>
				<rect x="254.6" y="18.7" class="st1" width="1.6" height="3.6"/>
				<rect x="234" y="18.7" class="st1" width="1.6" height="3.6"/>
				<line class="st1" x1="254.6" y1="19.6" x2="235.6" y2="19.6"/>
				<line class="st1" x1="254.6" y1="20.4" x2="235.6" y2="20.4"/>
				<rect x="41" y="54.6" class="st1" width="1.6" height="3.6"/>
				<rect x="16.6" y="54.6" class="st1" width="1.6" height="3.6"/>
				<line class="st1" x1="41" y1="55.4" x2="18.2" y2="55.4"/>
				<line class="st1" x1="41" y1="56.2" x2="18.2" y2="56.2"/>
				<line class="st1" x1="41.8" y1="62.7" x2="17.4" y2="62.7"/>
				<rect x="13" y="252.3" class="st1" width="1.6" height="3.6"/>
				<rect x="95.6" y="252.3" class="st1" width="1.6" height="3.6"/>
				<rect x="31.4" y="252.3" class="st1" width="1.6" height="3.6"/>
				<line class="st1" x1="14.6" y1="255.2" x2="31.4" y2="255.2"/>
				<line class="st1" x1="14.6" y1="254.3" x2="31.4" y2="254.3"/>
				<rect x="77.1" y="252.3" class="st1" width="1.6" height="3.6"/>
				<line class="st1" x1="33" y1="255.2" x2="77.1" y2="255.2"/>
				<line class="st1" x1="33" y1="254.3" x2="77.1" y2="254.3"/>
				<line class="st1" x1="78.7" y1="255.2" x2="95.6" y2="255.2"/>
				<line class="st1" x1="78.7" y1="254.3" x2="95.6" y2="254.3"/>
				<line class="st1" x1="13.8" y1="247.8" x2="96.4" y2="247.8"/>
				<rect x="185.5" y="206" class="st1" width="1.6" height="3.6"/>
				<rect x="254.7" y="206" class="st1" width="1.6" height="3.6"/>
				<rect x="206.3" y="206" class="st1" width="1.6" height="3.6"/>
				<line class="st1" x1="187.1" y1="208.8" x2="206.3" y2="208.8"/>
				<line class="st1" x1="187.1" y1="208" x2="206.3" y2="208"/>
				<rect x="230.4" y="206" class="st1" width="1.6" height="3.6"/>
				<line class="st1" x1="207.9" y1="208.8" x2="230.4" y2="208.8"/>
				<line class="st1" x1="207.9" y1="208" x2="230.4" y2="208"/>
				<line class="st1" x1="232" y1="208.8" x2="254.7" y2="208.8"/>
				<line class="st1" x1="232" y1="208" x2="254.7" y2="208"/>
				<line class="st1" x1="185.5" y1="201.5" x2="255.6" y2="201.5"/>
				<rect x="156.4" y="209.6" class="st1" width="1.4" height="29.1"/>
				<path class="st1" d="M156.4,238.7c16.1,0,29.1-13,29.1-29.1"/>
				<polyline class="st1" points="102.3,89 35.4,89 35.4,90.2 102.6,90.2 				"/>
				<line class="st1" x1="256.2" y1="22.4" x2="234" y2="22.4"/>
				<line class="st1" x1="256.2" y1="18.7" x2="234" y2="18.7"/>
				<line class="st1" x1="42.6" y1="58.2" x2="16.6" y2="58.2"/>
				<line class="st1" x1="42.6" y1="54.6" x2="16.6" y2="54.6"/>
				<line class="st1" x1="13" y1="252.3" x2="97.2" y2="252.3"/>
				<line class="st1" x1="13" y1="256" x2="97.2" y2="256"/>
				<line class="st1" x1="185.5" y1="206" x2="256.4" y2="206"/>
				<line class="st1" x1="185.5" y1="209.6" x2="256.4" y2="209.6"/>
				<line class="st1" x1="211.1" y1="93.4" x2="211.1" y2="43.5"/>
				<line class="st1" x1="211.1" y1="42.9" x2="211.1" y2="22.4"/>
				<line class="st1" x1="220.7" y1="93.4" x2="220.7" y2="22.4"/>
				<line class="st1" x1="230.3" y1="93.4" x2="230.3" y2="22.4"/>
				<line class="st1" x1="240" y1="47" x2="240" y2="40.2"/>
				<line class="st1" x1="240" y1="29.2" x2="240" y2="22.4"/>
				<line class="st1" x1="249.6" y1="47" x2="249.6" y2="39.5"/>
				<line class="st1" x1="249.6" y1="29.9" x2="249.6" y2="22.4"/>
				<line class="st1" x1="239.5" y1="74.2" x2="208" y2="74.2"/>
				<line class="st1" x1="206.6" y1="74.2" x2="203.8" y2="74.2"/>
				<line class="st1" x1="239.5" y1="54.9" x2="201.5" y2="54.9"/>
				<line class="st1" x1="257.6" y1="35.7" x2="256.9" y2="35.7"/>
				<line class="st1" x1="206.2" y1="35.7" x2="201.5" y2="35.7"/>
				<line class="st1" x1="234.6" y1="35.7" x2="206.9" y2="35.7"/>
				<polygon class="st1" points="257.6,22.4 256.2,22.4 254.6,22.4 234,22.4 201.5,22.4 201.5,26.2 211.3,43.4 210.8,43.7
					201.5,27.4 201.5,59 203.8,59 203.8,91.5 206.6,91.5 206.6,67.5 208,67.5 208,91.5 206.6,91.5 206.6,93.4 230.6,93.4
					230.6,91.5 239.5,91.5 239.5,47 257.6,47 				"/>
				<line class="st1" x1="108.8" y1="175.2" x2="108.8" y2="132.8"/>
				<line class="st1" x1="108.8" y1="131.4" x2="108.8" y2="128.6"/>
				<line class="st1" x1="118.5" y1="175.2" x2="118.5" y2="132.8"/>
				<line class="st1" x1="118.5" y1="131.4" x2="118.5" y2="128.6"/>
				<line class="st1" x1="128.1" y1="175.2" x2="128.1" y2="166.9"/>
				<line class="st1" x1="128.1" y1="159.3" x2="128.1" y2="128.6"/>
				<line class="st1" x1="137.7" y1="175.2" x2="137.7" y2="168.4"/>
				<line class="st1" x1="137.7" y1="157.8" x2="137.7" y2="151.1"/>
				<line class="st1" x1="147.3" y1="175.2" x2="147.3" y2="168.5"/>
				<line class="st1" x1="147.3" y1="157.8" x2="147.3" y2="151.1"/>
				<line class="st1" x1="149.2" y1="167.1" x2="148.5" y2="167.1"/>
				<line class="st1" x1="128.4" y1="167.1" x2="101.1" y2="167.1"/>
				<line class="st1" x1="131.1" y1="147.9" x2="99.2" y2="147.9"/>
				<polygon class="st1" points="101.1,175.2 149.2,175.2 149.2,151.1 131.1,151.1 131.1,128.6 101.1,128.6 101.1,132.8
					126.7,132.8 126.7,131.4 99.2,131.4 99.2,157.1 101.1,157.1 				"/>
				<line class="st1" x1="7.3" y1="136.4" x2="10.5" y2="136.4"/>
				<line class="st1" x1="57.9" y1="136.4" x2="61.1" y2="136.4"/>
				<line class="st1" x1="32.2" y1="136.4" x2="36.2" y2="136.4"/>
				<line class="st1" x1="7.3" y1="146" x2="10.5" y2="146"/>
				<line class="st1" x1="57.9" y1="146" x2="61.1" y2="146"/>
				<line class="st1" x1="32.2" y1="146" x2="36.2" y2="146"/>
				<line class="st1" x1="7.3" y1="155.7" x2="61.1" y2="155.7"/>
				<line class="st1" x1="24.6" y1="157.8" x2="24.6" y2="154.9"/>
				<line class="st1" x1="24.6" y1="132.5" x2="24.6" y2="126.8"/>
				<line class="st1" x1="43.8" y1="157.8" x2="43.8" y2="154.9"/>
				<line class="st1" x1="43.8" y1="132.5" x2="43.8" y2="126.8"/>
				<rect x="10.5" y="132.5" class="st1" width="21.7" height="22.4"/>
				<rect x="36.2" y="132.5" class="st1" width="21.7" height="22.4"/>
				<polygon class="st1" points="61.1,157.8 61.1,128.6 58.3,128.6 58.3,126.8 10.1,126.8 10.1,128.6 7.3,128.6 7.3,157.8 				"/>
				<path class="st1" d="M256.9,29.9c0-0.2-0.1-0.3-0.3-0.3l-2.4-0.4c-0.3-0.1-0.5,0-0.7,0.2c-0.4,0.3-0.7,0.6-0.9,0.9
					c-2.6-0.1-5.1-0.5-7.6-1c-0.8-0.2-1.6-0.3-2.5-0.3c-1.1,0-2.1,0.1-3.2,0.5c-0.9,0.3-1.7,0.7-2.5,1.2c-0.7,0.5-1.3,1.2-1.8,2
					c-0.4,0.6-0.6,1.4-0.6,2.1s0.2,1.5,0.6,2.1c0.5,0.8,1.1,1.4,1.8,2c0.8,0.5,1.6,1,2.5,1.2c1,0.3,2.1,0.5,3.2,0.5
					c0.8,0,1.7-0.1,2.5-0.3c2.5-0.5,5.1-0.8,7.6-1c0.3,0.4,0.6,0.7,0.9,0.9c0.2,0.1,0.5,0.2,0.7,0.2l2.4-0.4c0.2,0,0.3-0.2,0.3-0.3
					V29.9z"/>
				<path class="st1" d="M148.5,158.3c0-0.2-0.1-0.3-0.3-0.3l-2.4-0.5c-0.3,0-0.5,0-0.7,0.2c-0.4,0.3-0.7,0.6-0.9,0.9
					c-2.6-0.1-5.1-0.5-7.6-1c-0.8-0.2-1.6-0.3-2.5-0.3c-1.1,0-2.1,0.1-3.2,0.5c-0.9,0.3-1.7,0.7-2.5,1.2c-0.7,0.5-1.3,1.2-1.8,2
					c-0.4,0.6-0.6,1.4-0.6,2.1c0,0.7,0.2,1.5,0.6,2.1c0.5,0.8,1.1,1.5,1.8,2c0.8,0.5,1.6,1,2.5,1.2c1,0.3,2.1,0.5,3.2,0.5
					c0.8,0,1.7-0.1,2.5-0.3c2.5-0.5,5.1-0.8,7.6-1c0.3,0.4,0.6,0.7,0.9,0.9c0.2,0.1,0.5,0.2,0.7,0.2l2.4-0.5c0.2,0,0.3-0.2,0.3-0.3
					V158.3z"/>
				<line class="st1" x1="156.4" y1="209.6" x2="185.5" y2="209.6"/>
				<line class="st1" x1="156.4" y1="206" x2="185.5" y2="206"/>
			</g>
			<g>
				<line class="st4" x1="101.1" y1="239.8" x2="138.7" y2="239.8"/>
				<line class="st4" x1="138.7" y1="206.4" x2="138.7" y2="239.8"/>
				<line class="st4" x1="200.1" y1="70.7" x2="117.9" y2="70.7"/>
			</g>
			<polygon class="st5" points="0.1,288.4 13,288.4 13,252.3 13.8,252.3 13.8,247.8 7.3,247.8 7.3,161.5 66.7,161.5 66.7,128.6
				69.5,128.6 69.5,124.9 58.3,124.9 58.3,128.6 61.1,128.6 61.1,157.8 7.3,157.8 7.3,128.6 10.1,128.6 10.1,124.9 7.3,124.9
				7.3,62.7 17.4,62.7 17.4,58.2 16.6,58.2 16.6,54.6 13,54.6 13,0.1 0.1,0.1 			"/>
			<polygon class="st1" points="0.1,288.4 13,288.4 13,252.3 13.8,252.3 13.8,247.8 7.3,247.8 7.3,161.5 66.7,161.5 66.7,128.6
				69.5,128.6 69.5,124.9 58.3,124.9 58.3,128.6 61.1,128.6 61.1,157.8 7.3,157.8 7.3,128.6 10.1,128.6 10.1,124.9 7.3,124.9
				7.3,62.7 17.4,62.7 17.4,58.2 16.6,58.2 16.6,54.6 13,54.6 13,0.1 0.1,0.1 			"/>
			<polygon class="st5" points="97.2,256 97.2,252.3 96.6,252.3 96.6,247.8 97.4,247.8 97.4,232.3 101.1,232.3 101.1,247.8
				121.2,247.8 121.2,241.6 146.7,241.6 146.7,206.4 101.1,206.4 101.1,208.2 97.4,208.2 97.4,157.1 101.1,157.1 101.1,200.8
				149.2,200.8 149.2,128.6 101.1,128.6 101.1,131.4 97.4,131.4 97.4,128.6 93.6,128.6 93.6,124.9 114.2,124.9 114.2,122.1
				117.9,122.1 117.9,124.9 154.8,124.9 154.8,256 			"/>
			<polygon class="st1" points="97.2,256 97.2,252.3 96.6,252.3 96.6,247.8 97.4,247.8 97.4,232.3 101.1,232.3 101.1,247.8
				121.2,247.8 121.2,241.6 146.7,241.6 146.7,206.4 101.1,206.4 101.1,208.2 97.4,208.2 97.4,157.1 101.1,157.1 101.1,200.8
				149.2,200.8 149.2,128.6 101.1,128.6 101.1,131.4 97.4,131.4 97.4,128.6 93.6,128.6 93.6,124.9 114.2,124.9 114.2,122.1
				117.9,122.1 117.9,124.9 154.8,124.9 154.8,256 			"/>
			<polygon class="st5" points="41.8,62.7 41.8,58.2 42.6,58.2 42.6,54.6 142.3,54.6 142.3,13.1 234,13.1 234,22.4 151.5,22.4
				151.5,59 203.8,59 203.8,91.5 206.6,91.5 206.6,95.3 197.5,95.3 197.5,91.5 200.1,91.5 200.1,62.7 117.9,62.7 117.9,91.5
				120.5,91.5 120.5,95.3 117.9,95.3 117.9,98.1 114.2,98.1 114.2,62.7 			"/>
			<polygon class="st1" points="41.8,62.7 41.8,58.2 42.6,58.2 42.6,54.6 142.3,54.6 142.3,13.1 234,13.1 234,22.4 151.5,22.4
				151.5,59 203.8,59 203.8,91.5 206.6,91.5 206.6,95.3 197.5,95.3 197.5,91.5 200.1,91.5 200.1,62.7 117.9,62.7 117.9,91.5
				120.5,91.5 120.5,95.3 117.9,95.3 117.9,98.1 114.2,98.1 114.2,62.7 			"/>
			<polygon class="st5" points="260,288.4 260,209.6 256.4,209.6 256.4,206 255.6,206 255.6,201.5 257.6,201.5 257.6,95.3
				230.6,95.3 230.6,91.5 257.6,91.5 257.6,22.4 256.2,22.4 256.2,13.1 260,13.1 260,0.1 272.8,0.1 272.8,59.5 266.4,59.5
				266.4,252.3 272.8,252.3 272.8,288.4 			"/>
			<polygon class="st1" points="260,288.4 260,209.6 256.4,209.6 256.4,206 255.6,206 255.6,201.5 257.6,201.5 257.6,95.3
				230.6,95.3 230.6,91.5 257.6,91.5 257.6,22.4 256.2,22.4 256.2,13.1 260,13.1 260,0.1 272.8,0.1 272.8,59.5 266.4,59.5
				266.4,252.3 272.8,252.3 272.8,288.4 			"/>
			<g>
				<path class="st6" d="M31,78.7h-1.1v-3.1H31c1,0,1.7,0.7,1.7,1.6C32.7,78,32,78.7,31,78.7z M31,75.9h-0.7v2.5H31
					c0.8,0,1.3-0.5,1.3-1.2S31.8,75.9,31,75.9z"/>
				<path class="st6" d="M35.9,75.6h0.3v3.1h-0.3l-2-2.6v2.6h-0.3v-3.1h0.3l2,2.5V75.6z"/>
			</g>
			<g>
				<path class="st6" d="M21.1,144.3H20v-3.1h1.1c1,0,1.7,0.7,1.7,1.6S22.1,144.3,21.1,144.3z M21.1,141.5h-0.7v2.5h0.7
					c0.8,0,1.3-0.5,1.3-1.2S21.9,141.5,21.1,141.5z"/>
			</g>
			<g>
				<path class="st6" d="M46.9,141.2h0.3l0.9,2.6l0.9-2.6h0.4l-1.1,3.2h-0.3l-0.9-2.6l-0.9,2.6h-0.3l-1.1-3.2h0.4l0.9,2.6
					L46.9,141.2z"/>
			</g>
			<g>
				<path class="st6" d="M40,204.7c0,0.4-0.2,0.6-0.5,0.7c0.4,0.1,0.7,0.3,0.7,0.8c0,0.5-0.5,0.9-1.1,0.9h-1.4v-3.1H39
					C39.6,203.9,40,204.2,40,204.7z M39.6,204.8c0-0.3-0.2-0.5-0.7-0.5h-1v1.1h0.9C39.3,205.3,39.6,205.1,39.6,204.8z M39.8,206.2
					c0-0.4-0.3-0.5-0.8-0.5h-1v1.1H39C39.5,206.8,39.8,206.5,39.8,206.2z"/>
				<path class="st6" d="M43.2,204.3h-1.9v1.1H43v0.3h-1.7v1.1h2v0.3H41v-3.1h2.3L43.2,204.3L43.2,204.3z"/>
				<path class="st6" d="M45.1,207.1h-1.1v-3.1h1.1c1,0,1.7,0.7,1.7,1.6S46.1,207.1,45.1,207.1z M45.1,204.3h-0.7v2.5h0.7
					c0.8,0,1.3-0.5,1.3-1.2S45.9,204.3,45.1,204.3z"/>
				<path class="st6" d="M49.8,207.1l-0.9-1.2H48v1.2h-0.4v-3.1H49c0.7,0,1.1,0.4,1.1,0.9c0,0.5-0.4,0.8-0.9,0.9l1,1.3L49.8,207.1
					L49.8,207.1z M49,204.3h-1v1.3h1c0.5,0,0.8-0.2,0.8-0.6C49.8,204.5,49.5,204.3,49,204.3z"/>
				<path class="st6" d="M52.5,207.1c-1,0-1.6-0.8-1.6-1.6s0.7-1.6,1.6-1.6c1,0,1.6,0.8,1.6,1.6S53.4,207.1,52.5,207.1z M52.5,204.2
					c-0.7,0-1.2,0.6-1.2,1.3s0.5,1.3,1.2,1.3s1.2-0.6,1.2-1.3C53.7,204.8,53.2,204.2,52.5,204.2z"/>
				<path class="st6" d="M56.4,207.1c-1,0-1.6-0.8-1.6-1.6s0.7-1.6,1.6-1.6c1,0,1.6,0.8,1.6,1.6S57.3,207.1,56.4,207.1z M56.4,204.2
					c-0.7,0-1.2,0.6-1.2,1.3s0.5,1.3,1.2,1.3s1.2-0.6,1.2-1.3C57.6,204.8,57.1,204.2,56.4,204.2z"/>
				<path class="st6" d="M60.3,206.2L60.3,206.2l-1.2-1.7v2.5h-0.3v-3.1h0.4l1.2,1.7l1.2-1.7h0.4v3.1h-0.4v-2.5L60.3,206.2z"/>
			</g>
			<g>
				<path class="st6" d="M206.7,145.9L206.7,145.9l-1.2-1.7v2.5h-0.3v-3.1h0.4l1.2,1.7l1.2-1.7h0.4v3.1h-0.4v-2.5L206.7,145.9z"/>
				<path class="st6" d="M212.1,146.8h-0.4l-0.4-0.8h-1.7l-0.4,0.8H209l1.4-3.2h0.3L212.1,146.8z M210.5,144l-0.7,1.6h1.4L210.5,144
					z"/>
				<path class="st6" d="M213.9,145c0.7,0.1,1,0.4,1,0.9c0,0.5-0.5,0.9-1.1,0.9c-0.5,0-0.9-0.2-1.3-0.5l0.2-0.3
					c0.3,0.3,0.6,0.5,1.1,0.5c0.4,0,0.7-0.2,0.7-0.5c0-0.3-0.2-0.5-0.8-0.6c-0.7-0.2-1.1-0.4-1.1-0.9c0-0.5,0.4-0.9,1-0.9
					c0.5,0,0.8,0.1,1.1,0.4l-0.2,0.3c-0.3-0.2-0.6-0.3-0.9-0.3c-0.4,0-0.7,0.2-0.7,0.5C213.1,144.7,213.2,144.9,213.9,145z"/>
				<path class="st6" d="M216.9,146.8h-0.4V144h-1.1v-0.3h2.5v0.3h-1.1V146.8z"/>
				<path class="st6" d="M221,144h-1.9v1.1h1.7v0.3h-1.7v1.1h2v0.3h-2.3v-3.1h2.3L221,144L221,144z"/>
				<path class="st6" d="M224,146.8l-0.9-1.2h-0.9v1.2h-0.4v-3.1h1.4c0.7,0,1.1,0.4,1.1,0.9c0,0.5-0.4,0.8-0.9,0.9l1,1.3L224,146.8
					L224,146.8z M223.1,144h-1v1.3h1c0.5,0,0.8-0.2,0.8-0.6C223.9,144.2,223.6,144,223.1,144z"/>
			</g>
			<g>
				<path class="st6" d="M204.9,149.8c0,0.4-0.2,0.6-0.5,0.7c0.4,0.1,0.7,0.3,0.7,0.8c0,0.5-0.5,0.9-1.1,0.9h-1.4V149h1.3
					C204.5,149,204.9,149.3,204.9,149.8z M204.6,149.9c0-0.3-0.2-0.5-0.7-0.5h-1v1.1h0.9C204.3,150.4,204.6,150.2,204.6,149.9z
					 M204.8,151.3c0-0.4-0.3-0.5-0.8-0.5h-1v1.1h1.1C204.5,151.9,204.8,151.6,204.8,151.3z"/>
				<path class="st6" d="M208.2,149.4h-1.9v1.1h1.7v0.3h-1.7v1.1h2v0.3h-2.3V149h2.3L208.2,149.4L208.2,149.4z"/>
				<path class="st6" d="M210.1,152.2H209V149h1.1c1,0,1.7,0.7,1.7,1.6S211.1,152.2,210.1,152.2z M210.1,149.4h-0.7v2.5h0.7
					c0.8,0,1.3-0.5,1.3-1.2S210.9,149.4,210.1,149.4z"/>
				<path class="st6" d="M214.8,152.2l-0.9-1.2H213v1.2h-0.4V149h1.4c0.7,0,1.1,0.4,1.1,0.9c0,0.5-0.4,0.8-0.9,0.9l1,1.3
					L214.8,152.2L214.8,152.2z M214,149.4h-1v1.3h1c0.5,0,0.8-0.2,0.8-0.6C214.8,149.6,214.5,149.4,214,149.4z"/>
				<path class="st6" d="M217.4,152.2c-1,0-1.6-0.8-1.6-1.6s0.7-1.6,1.6-1.6c1,0,1.6,0.8,1.6,1.6S218.4,152.2,217.4,152.2z
					 M217.4,149.3c-0.7,0-1.2,0.6-1.2,1.3s0.5,1.3,1.2,1.3s1.2-0.6,1.2-1.3C218.7,149.9,218.2,149.3,217.4,149.3z"/>
				<path class="st6" d="M221.3,152.2c-1,0-1.6-0.8-1.6-1.6s0.7-1.6,1.6-1.6c1,0,1.6,0.8,1.6,1.6S222.3,152.2,221.3,152.2z
					 M221.3,149.3c-0.7,0-1.2,0.6-1.2,1.3s0.5,1.3,1.2,1.3s1.2-0.6,1.2-1.3C222.6,149.9,222.1,149.3,221.3,149.3z"/>
				<path class="st6" d="M225.3,151.3L225.3,151.3l-1.2-1.7v2.5h-0.3V149h0.4l1.2,1.7l1.2-1.7h0.4v3.1h-0.4v-2.5L225.3,151.3z"/>
			</g>
			<g>
				<path class="st6" d="M195.7,238.2c0,0.4-0.2,0.6-0.5,0.7c0.4,0.1,0.7,0.3,0.7,0.8c0,0.5-0.5,0.9-1.1,0.9h-1.4v-3.1h1.3
					C195.3,237.4,195.7,237.7,195.7,238.2z M195.4,238.2c0-0.3-0.2-0.5-0.7-0.5h-1v1.1h0.9C195.1,238.8,195.4,238.6,195.4,238.2z
					 M195.5,239.7c0-0.4-0.3-0.5-0.8-0.5h-1v1.1h1.1C195.2,240.2,195.5,240,195.5,239.7z"/>
				<path class="st6" d="M199.6,240.5h-0.4l-0.4-0.8h-1.7l-0.4,0.8h-0.4l1.4-3.2h0.3L199.6,240.5z M198,237.8l-0.7,1.6h1.4
					L198,237.8z"/>
				<path class="st6" d="M200.3,237.4h0.4v2.8h1.8v0.3h-2.1V237.4z"/>
				<path class="st6" d="M204.5,240.6c-0.9,0-1.6-0.7-1.6-1.6s0.7-1.6,1.6-1.6c0.6,0,0.9,0.2,1.2,0.5l-0.2,0.3
					c-0.3-0.2-0.6-0.4-1-0.4c-0.7,0-1.2,0.6-1.2,1.3s0.5,1.3,1.2,1.3c0.4,0,0.7-0.2,1-0.5l0.2,0.2
					C205.4,240.4,205,240.6,204.5,240.6z"/>
				<path class="st6" d="M207.8,240.6c-1,0-1.6-0.8-1.6-1.6s0.7-1.6,1.6-1.6c1,0,1.6,0.8,1.6,1.6S208.8,240.6,207.8,240.6z
					 M207.8,237.7c-0.7,0-1.2,0.6-1.2,1.3s0.5,1.3,1.2,1.3s1.2-0.6,1.2-1.3C209.1,238.2,208.5,237.7,207.8,237.7z"/>
				<path class="st6" d="M212.6,237.4h0.3v3.1h-0.3l-2-2.6v2.6h-0.3v-3.1h0.3l2,2.5V237.4z"/>
				<path class="st6" d="M215.3,240.5h-0.4v-1.2l-1.3-1.9h0.4l1.1,1.6l1.1-1.6h0.4l-1.3,1.9L215.3,240.5L215.3,240.5z"/>
			</g>
			<g>
				<path class="st6" d="M213.8,59.5h-1.9v1.1h1.7v0.3h-1.7V62h2v0.3h-2.3v-3.1h2.3L213.8,59.5L213.8,59.5z"/>
				<path class="st6" d="M216.9,59.2h0.3v3.1H217l-2-2.6v2.6h-0.3v-3.1h0.3l2,2.5V59.2z"/>
				<path class="st6" d="M219.4,60.6c0.7,0.1,1,0.4,1,0.9c0,0.5-0.5,0.9-1.1,0.9c-0.5,0-0.9-0.2-1.3-0.5l0.2-0.3
					c0.3,0.3,0.6,0.4,1.1,0.4c0.4,0,0.7-0.2,0.7-0.5c0-0.3-0.2-0.5-0.8-0.6c-0.7-0.2-1.1-0.4-1.1-0.9c0-0.5,0.4-0.9,1-0.9
					c0.5,0,0.8,0.1,1.1,0.4l-0.2,0.3c-0.3-0.2-0.6-0.3-0.9-0.3c-0.4,0-0.7,0.2-0.7,0.5C218.5,60.2,218.7,60.4,219.4,60.6z"/>
				<path class="st6" d="M223.8,61c0,0.9-0.5,1.4-1.3,1.4c-0.8,0-1.3-0.5-1.3-1.4v-1.8h0.4V61c0,0.7,0.4,1.1,1,1.1c0.6,0,1-0.4,1-1
					v-1.8h0.4L223.8,61L223.8,61z"/>
				<path class="st6" d="M225.1,59.2v3.1h-0.4v-3.1H225.1z"/>
				<path class="st6" d="M227.3,62.3H227v-2.8h-1.1v-0.3h2.5v0.3h-1.1V62.3z"/>
				<path class="st6" d="M231.4,59.5h-1.9v1.1h1.7v0.3h-1.7V62h2v0.3h-2.3v-3.1h2.3L231.4,59.5L231.4,59.5z"/>
			</g>
			<g>
				<path class="st6" d="M106.5,158.7h-1.9v1.1h1.7v0.3h-1.7v1.1h2v0.3h-2.3v-3.1h2.3L106.5,158.7L106.5,158.7z"/>
				<path class="st6" d="M109.6,158.4h0.3v3.1h-0.3l-2-2.6v2.6h-0.3v-3.1h0.3l2,2.5V158.4z"/>
				<path class="st6" d="M112.1,159.8c0.7,0.1,1,0.4,1,0.9c0,0.5-0.5,0.9-1.1,0.9c-0.5,0-0.9-0.2-1.3-0.5l0.2-0.3
					c0.3,0.3,0.6,0.5,1.1,0.5c0.4,0,0.7-0.2,0.7-0.5c0-0.3-0.2-0.5-0.8-0.6c-0.7-0.2-1.1-0.4-1.1-0.9c0-0.5,0.4-0.9,1-0.9
					c0.5,0,0.8,0.1,1.1,0.4l-0.2,0.3c-0.3-0.2-0.6-0.3-0.9-0.3c-0.4,0-0.7,0.2-0.7,0.5C111.2,159.5,111.4,159.6,112.1,159.8z"/>
				<path class="st6" d="M116.5,160.2c0,0.9-0.5,1.4-1.3,1.4c-0.8,0-1.3-0.5-1.3-1.4v-1.8h0.4v1.8c0,0.7,0.4,1.1,1,1.1
					c0.6,0,1-0.4,1-1v-1.8h0.4L116.5,160.2L116.5,160.2z"/>
				<path class="st6" d="M117.8,158.4v3.1h-0.4v-3.1H117.8z"/>
				<path class="st6" d="M120,161.5h-0.4v-2.8h-1.1v-0.3h2.5v0.3H120V161.5z"/>
				<path class="st6" d="M124.1,158.7h-1.9v1.1h1.7v0.3h-1.7v1.1h2v0.3h-2.3v-3.1h2.3L124.1,158.7L124.1,158.7z"/>
			</g>
			<g>
				<path class="st6" d="M199.3,128.3h-0.5l-1.2-1.5l-0.7,0.7v0.9h-0.4v-3.1h0.4v1.9l1.8-1.9h0.5l-1.3,1.4L199.3,128.3z"/>
			</g>
		</g>
	</g>
</g>
</svg>
