<svg width="250" height="273" viewBox="0 0 250 273" fill="none" xmlns="http://www.w3.org/2000/svg">
<g clip-path="url(#clip0_0_1)">
<path d="M198.3 54.8V54.9H92.1L92 54.8V50.7H70.6V54.3L71 53.6H71.1H71.2L89.9 64.4V64.5L89.3 65.6L89.1 65.7L70.4 54.9H66V57.6L87.1 69.8H87.2V69.9L86.6 71L86.4 71.1L65.2 58.8H65.1L65.2 58.7L65.7 57.8H64.3V82H65.9H66V82.1V112.3V112.4L65.9 112.5H53.2V129.5H54.2V109L54.3 108.9H54.4H62.4V101.9H11.8V108.9H19.8H19.9V109V129.5H21V112.5H11.8V186.4H113.7V181V180.9H113.8H128.1V172.3L128.2 172.2H168.5L168.6 172.3V180.9H182.8V169.6L182.9 169.5H235.9V133.6H198.3H198.2V133.5V104.3V104.2H198.3H204.2L203.7 103.3V103.1L224.9 90.9L225 90.8L225.1 90.9L225.7 92V92.1V92.2L204.5 104.4V106.7H207.2L218.4 100.2L218.6 100.3L219.2 101.4V101.5L208 108H207.8L207.4 107.3V110.1V110.2L207.3 110.3H204.5V117.2H235.9V110.3H233.2L233.1 110.2V110.1V107.3L232.7 108H232.5L221.3 101.5L221.2 101.4L221.9 100.3L222 100.2L233.2 106.7H235.9V76.7H207.2V78V78.1H207.1H206H205.9V78V76.7H204.4L204.3 76.6V76.5V54.9L204.4 54.8H205.9V53.5V53.4H206H207.1H207.2V53.5V54.8H235.9V20.6H233.8H233.7V20.5V17.1H232.5V41.4V41.5L232.4 41.6H231.1L231 41.5V41.4V17.1H206.6V20.5V20.6H206.5H178.2V22L178.1 22.1H178H174.8V23.3V23.4H174.7H151.7H151.6V23.3V22V21.9H151.7H174.6V20.6H148.5V46.2H174.6V45L174.7 44.9H178L178.1 45H178.2V46.2H204.4H204.5V46.3V79.8V79.9H204.4H198.3H198.2V79.8V54.8H198.3V54.9V54.8H198.4V79.7H204.3V46.4H178L177.9 46.3V45.2H174.8V46.3V46.4H174.7H148.4H148.3L148.2 46.3V20.5L148.3 20.4H148.4H174.7H174.8V20.5V22V22.1H174.7H151.8V23.2H174.6V22V21.9H174.7H177.9V20.5L178 20.4H206.4V17V16.9H206.5H231.1H231.2V17V41.3H232.3V17V16.9H232.4H233.8H233.9V17V20.4H236.1H236.2V20.5V54.9V55L236.1 55.1H207.1L207 55V54.9V53.6H206.1V54.9V55L206 55.1H204.5V76.4H206H206.1V76.5V77.9H207V76.5V76.4H207.1H236.1H236.2V76.5V106.8V106.9H236.1H233.2H233.1L222 100.5L221.5 101.4L232.5 107.7L233.1 106.7H233.2L233.3 106.8V110H236.1H236.2V110.1V117.3V117.4H236.1H204.4H204.3V117.3V110.1V110H204.4H207.2V106.8V106.7H207.4L208 107.7L219 101.4L218.5 100.5L207.3 106.9H204.4H204.3V106.8V104.3V104.2L225.4 92L224.9 91.1L203.9 103.2L204.5 104.2V104.3L204.4 104.4H198.4V133.4H236.1H236.2V133.5V169.6V169.7L236.1 169.8H183V181V181.1H182.9H168.5H168.4V181V172.5H128.3V181V181.1H128.2H113.9V186.6L113.8 186.7H11.7L11.6 186.6V112.3V112.2H11.7H21.1H21.2V112.3V129.6V129.7H21.1H19.8H19.7V129.6V109.1H11.7H11.6V109V101.8V101.7H11.7H62.6L62.7 101.8V109L62.6 109.1H54.5V129.6L54.4 129.7H53.1H53V129.6V112.3V112.2H53.1H65.8V82.2H64.2H64.1V82.1V57.6L64.2 57.5H65.9L66 57.6V57.7L65.4 58.7L86.4 70.8L86.9 69.9L65.8 57.7V57.6V54.8V54.7L65.9 54.6H70.5V54.7L89.1 65.4L89.6 64.5L71.2 53.8L70.6 54.8L70.5 54.9L70.4 54.8V50.5V50.4H70.5H92.1H92.2V50.5V54.6H198.3L198.4 54.7V54.8H198.3Z" fill="#99A4B3"/>
<path d="M78.4 178.2L70.7 170.6V170.4L85.9 155.2H86.1L93.7 162.8C95.8 164.9 96.9 167.7 96.9 170.5C96.9 173.3 95.8 176.1 93.7 178.2C91.6 180.3 88.8 181.4 86 181.4C83.2 181.5 80.4 180.4 78.4 178.2C80.6 180.2 83.3 181.2 86 181.2C88.7 181.2 91.5 180.2 93.5 178.1C95.6 176 96.6 173.3 96.6 170.6C96.6 167.9 95.6 165.1 93.5 163.1L85.9 155.6L70.8 170.7L78.4 178.2Z" fill="#99A4B3"/>
<path d="M13.1 185.1H13V139.1V139L13.1 138.9H30.4L30.5 139V139.1V155.7H36.8V155.1V155H36.9H38L38.1 155.1V169.1L38 169.2H36.9H36.8V169.1V168.5H30.5V185.1V185.2H30.4H13.1H13V185.1H13.1V185H30.3V168.4V168.3H30.4H36.9H37V168.4V169H37.8V155.2H37V155.8V155.9H36.9H30.4H30.3V155.8V139.2H13.3V185.1H13.1V185V185.1Z" fill="#99A4B3"/>
<path d="M106.5 56.2V56.1H166.9H167V56.2V79.2V79.3L166.9 79.4H106.5L106.4 79.3L106.3 79.2V56.2L106.4 56.1H106.5V56.2H106.6V79.1H166.8V56.3H106.5V56.2H106.6H106.5Z" fill="#99A4B3"/>
<path d="M124.5 92.2V92.1H148.9H149V92.2V108L148.9 108.1H124.5L124.4 108V92.2V92.1H124.5V92.2H124.6V107.8H148.8V92.3H124.5V92.2H124.6H124.5Z" fill="#99A4B3"/>
<path d="M168.4 57.6V57.5H182.8L182.9 57.6V77.8V77.9H182.8H168.4H168.3L168.2 77.8V57.6H168.3L168.4 57.5V57.6H168.5V77.7H182.7V57.8H168.4V57.6H168.5H168.4Z" fill="#99A4B3"/>
<path d="M106.8 128.3H106.7L109.5 117.9L109.6 117.8H109.7L130.6 123.4L130.7 123.5V123.6L127.9 134C126.6 138.9 122.2 142.1 117.4 142.1C116.5 142.1 115.5 142 114.6 141.7C109.7 140.4 106.5 136 106.5 131.2C106.5 130.3 106.6 129.3 106.9 128.4L106.8 128.3H106.9C106.7 129.2 106.5 130.2 106.5 131.1C106.5 135.8 109.6 140.1 114.4 141.4C115.3 141.6 116.3 141.8 117.2 141.8C121.9 141.8 126.2 138.7 127.5 133.9L130.3 123.6L109.7 118.1L106.9 128.4L106.8 128.3Z" fill="#99A4B3"/>
<path d="M166.6 128.3H166.5L163.7 118L143.1 123.5L145.9 133.8C147.2 138.6 151.5 141.7 156.2 141.7C157.1 141.7 158 141.6 159 141.3C163.8 140 166.9 135.7 166.9 131C166.9 130.1 166.8 129.2 166.5 128.2L166.6 128.3H166.7C167 129.2 167.1 130.2 167.1 131.1C167.1 135.9 163.9 140.3 159 141.6C158.1 141.9 157.1 142 156.2 142C151.4 142 147 138.8 145.7 133.9L142.9 123.5L143 123.4L163.9 117.8H164L164.1 117.9L166.9 128.3H166.6Z" fill="#99A4B3"/>
<path d="M14.6 186.6V185.1L14.8 185L14.9 185.1V186.6L14.8 186.7L14.6 186.6Z" fill="#99A4B3"/>
<path d="M14.6 109V101.8L14.8 101.7L14.9 101.8V109L14.8 109.1L14.6 109Z" fill="#99A4B3"/>
<path d="M14.6 139.1V112.3L14.8 112.2L14.9 112.3V139.1L14.8 139.2L14.6 139.1Z" fill="#99A4B3"/>
<path d="M20 186.6V185.1L20.1 185L20.3 185.1V186.6L20.1 186.7L20 186.6Z" fill="#99A4B3"/>
<path d="M20 112.3V101.8L20.1 101.7L20.3 101.8V112.3L20.1 112.5L20 112.3Z" fill="#99A4B3"/>
<path d="M20 139.1V129.6L20.1 129.5L20.3 129.6V139.1L20.1 139.2L20 139.1Z" fill="#99A4B3"/>
<path d="M25.4 186.6V185.1L25.5 185L25.7 185.1V186.6L25.5 186.7L25.4 186.6Z" fill="#99A4B3"/>
<path d="M25.4 139.1V101.8L25.5 101.7L25.7 101.8V139.1L25.5 139.2L25.4 139.1Z" fill="#99A4B3"/>
<path d="M30.8 186.6V168.4L30.9 168.3L31.1 168.4V186.6L30.9 186.7L30.8 186.6Z" fill="#99A4B3"/>
<path d="M30.8 155.8V101.8L30.9 101.7L31.1 101.8V155.8L30.9 155.9L30.8 155.8Z" fill="#99A4B3"/>
<path d="M36.2 186.6V168.4L36.3 168.3L36.5 168.4V186.6L36.3 186.7L36.2 186.6Z" fill="#99A4B3"/>
<path d="M36.2 155.8V101.8L36.3 101.7L36.5 101.8V155.8L36.3 155.9L36.2 155.8Z" fill="#99A4B3"/>
<path d="M41.6 186.6V101.8L41.7 101.7L41.9 101.8V186.6L41.7 186.7L41.6 186.6Z" fill="#99A4B3"/>
<path d="M47 186.6V101.8L47.1 101.7L47.3 101.8V186.6L47.1 186.7L47 186.6Z" fill="#99A4B3"/>
<path d="M52.4 186.6V101.8L52.5 101.7L52.7 101.8V186.6L52.5 186.7L52.4 186.6Z" fill="#99A4B3"/>
<path d="M57.8 186.6V112.3L57.9 112.2L58.1 112.3V186.6L57.9 186.7L57.8 186.6Z" fill="#99A4B3"/>
<path d="M57.8 109V101.8L57.9 101.7L58.1 101.8V109L57.9 109.1L57.8 109Z" fill="#99A4B3"/>
<path d="M63.2 186.6V112.3L63.3 112.2L63.5 112.3V186.6L63.3 186.7L63.2 186.6Z" fill="#99A4B3"/>
<path d="M68.6 186.6V60.7L68.7 60.6L68.9 60.7V186.6L68.7 186.7L68.6 186.6Z" fill="#99A4B3"/>
<path d="M68.6 59.3V54.8L68.7 54.6L68.9 54.8V59.3L68.7 59.4L68.6 59.3Z" fill="#99A4B3"/>
<path d="M74 186.6V173.9L74.1 173.8L74.2 173.9V186.6L74.1 186.7L74 186.6Z" fill="#99A4B3"/>
<path d="M74 55.4V50.5L74.1 50.4L74.2 50.5V55.4L74.1 55.5L74 55.4Z" fill="#99A4B3"/>
<path d="M74 167.2V63.9L74.1 63.7L74.2 63.9V167.2L74.1 167.3L74 167.2Z" fill="#99A4B3"/>
<path d="M74 62.4V56.9L74.1 56.7L74.2 56.9V62.4L74.1 62.5L74 62.4Z" fill="#99A4B3"/>
<path d="M79.4 186.6V179.2L79.5 179.1L79.6 179.2V186.6L79.5 186.7L79.4 186.6Z" fill="#99A4B3"/>
<path d="M79.4 58.5V50.5L79.5 50.4L79.6 50.5V58.5L79.5 58.7L79.4 58.5Z" fill="#99A4B3"/>
<path d="M79.4 161.8V67L79.5 66.8L79.6 67V161.8L79.5 161.9L79.4 161.8Z" fill="#99A4B3"/>
<path d="M79.4 65.5V60L79.5 59.9L79.6 60V65.5L79.5 65.6L79.4 65.5Z" fill="#99A4B3"/>
<path d="M84.8 186.6V181.3L84.9 181.2L85 181.3V186.6L84.9 186.7L84.8 186.6Z" fill="#99A4B3"/>
<path d="M84.8 61.6V50.5L84.9 50.4L85 50.5V61.6L84.9 61.8L84.8 61.6Z" fill="#99A4B3"/>
<path d="M84.8 156.4V70.1L84.9 70L85 70.1V156.4L84.9 156.5L84.8 156.4Z" fill="#99A4B3"/>
<path d="M84.8 68.6V63.1L84.9 63L85 63.1V68.6L84.9 68.7L84.8 68.6Z" fill="#99A4B3"/>
<path d="M90.2 186.6V180.5L90.3 180.3L90.4 180.5V186.6L90.3 186.7L90.2 186.6Z" fill="#99A4B3"/>
<path d="M90.2 159.6V50.5L90.3 50.4L90.4 50.5V159.6L90.3 159.7L90.2 159.6Z" fill="#99A4B3"/>
<path d="M95.6 186.6V175.3L95.7 175.2L95.8 175.3V186.6L95.7 186.7L95.6 186.6Z" fill="#99A4B3"/>
<path d="M95.6 165.8V54.8L95.7 54.6L95.8 54.8V165.8L95.7 166L95.6 165.8Z" fill="#99A4B3"/>
<path d="M101 186.6V54.8L101.1 54.6L101.2 54.8V186.6L101.1 186.7L101 186.6Z" fill="#99A4B3"/>
<path d="M106.4 186.6V132.1L106.5 132L106.6 132.1V186.6L106.5 186.7L106.4 186.6Z" fill="#99A4B3"/>
<path d="M106.4 56.2V54.8L106.5 54.6L106.6 54.8V56.2L106.5 56.3L106.4 56.2Z" fill="#99A4B3"/>
<path d="M106.4 130V79.2L106.5 79.1L106.6 79.2V130L106.5 130.2L106.4 130Z" fill="#99A4B3"/>
<path d="M111.8 186.6V140.4L111.9 140.3L112 140.4V186.6L111.9 186.7L111.8 186.6Z" fill="#99A4B3"/>
<path d="M111.8 56.2V54.8L111.9 54.6L112 54.8V56.2L111.9 56.3L111.8 56.2Z" fill="#99A4B3"/>
<path d="M111.8 118.5V79.2L111.9 79.1L112 79.2V118.5L111.9 118.6L111.8 118.5Z" fill="#99A4B3"/>
<path d="M117.2 181V141.9L117.3 141.7L117.4 141.9V181L117.3 181.1L117.2 181Z" fill="#99A4B3"/>
<path d="M117.2 56.2V54.8L117.3 54.6L117.4 54.8V56.2L117.3 56.3L117.2 56.2Z" fill="#99A4B3"/>
<path d="M117.2 119.9V79.2L117.3 79.1L117.4 79.2V119.9L117.3 120L117.2 119.9Z" fill="#99A4B3"/>
<path d="M122.6 181V140.4L122.7 140.3L122.8 140.4V181L122.7 181.1L122.6 181Z" fill="#99A4B3"/>
<path d="M122.6 56.2V54.8L122.7 54.6L122.8 54.8V56.2L122.7 56.3L122.6 56.2Z" fill="#99A4B3"/>
<path d="M122.6 121.3V79.2L122.7 79.1L122.8 79.2V121.3L122.7 121.5L122.6 121.3Z" fill="#99A4B3"/>
<path d="M128 181V132.3L128.1 132.2L128.2 132.3V181L128.1 181.1L128 181Z" fill="#99A4B3"/>
<path d="M128 56.2V54.8L128.1 54.6L128.2 54.8V56.2L128.1 56.3L128 56.2Z" fill="#99A4B3"/>
<path d="M128 122.8V108L128.1 107.8L128.2 108V122.8L128.1 122.9L128 122.8Z" fill="#99A4B3"/>
<path d="M128 92.2V79.2L128.1 79.1L128.2 79.2V92.2L128.1 92.3L128 92.2Z" fill="#99A4B3"/>
<path d="M133.4 172.3V108L133.5 107.8L133.6 108V172.3L133.5 172.5L133.4 172.3Z" fill="#99A4B3"/>
<path d="M133.4 56.2V54.8L133.5 54.6L133.6 54.8V56.2L133.5 56.3L133.4 56.2Z" fill="#99A4B3"/>
<path d="M133.4 92.2V79.2L133.5 79.1L133.6 79.2V92.2L133.5 92.3L133.4 92.2Z" fill="#99A4B3"/>
<path d="M138.8 172.3V108L138.9 107.8L139 108V172.3L138.9 172.5L138.8 172.3Z" fill="#99A4B3"/>
<path d="M138.8 56.2V54.8L138.9 54.6L139 54.8V56.2L138.9 56.3L138.8 56.2Z" fill="#99A4B3"/>
<path d="M138.8 92.2V79.2L138.9 79.1L139 79.2V92.2L138.9 92.3L138.8 92.2Z" fill="#99A4B3"/>
<path d="M144.2 172.3V128.6L144.3 128.5L144.4 128.6V172.3L144.3 172.5L144.2 172.3Z" fill="#99A4B3"/>
<path d="M144.2 56.2V54.8L144.3 54.6L144.4 54.8V56.2L144.3 56.3L144.2 56.2Z" fill="#99A4B3"/>
<path d="M144.2 123.1V108L144.3 107.8L144.4 108V123.1L144.3 123.2L144.2 123.1Z" fill="#99A4B3"/>
<path d="M144.2 92.2V79.2L144.3 79.1L144.4 79.2V92.2L144.3 92.3L144.2 92.2Z" fill="#99A4B3"/>
<path d="M149.6 172.3V139.7L149.7 139.6L149.8 139.7V172.3L149.7 172.5L149.6 172.3Z" fill="#99A4B3"/>
<path d="M149.6 46.3V20.5L149.7 20.4L149.8 20.5V46.3L149.7 46.4L149.6 46.3Z" fill="#99A4B3"/>
<path d="M149.6 121.6V79.2L149.7 79.1L149.8 79.2V121.6L149.7 121.7L149.6 121.6Z" fill="#99A4B3"/>
<path d="M149.6 56.2V54.8L149.7 54.6L149.8 54.8V56.2L149.7 56.3L149.6 56.2Z" fill="#99A4B3"/>
<path d="M155 172.3V141.8L155.1 141.7L155.2 141.8V172.3L155.1 172.5L155 172.3Z" fill="#99A4B3"/>
<path d="M155 22V20.5L155.1 20.4L155.2 20.5V22L155.1 22.1L155 22Z" fill="#99A4B3"/>
<path d="M155 120.2V79.2L155.1 79.1L155.2 79.2V120.2L155.1 120.3L155 120.2Z" fill="#99A4B3"/>
<path d="M155 46.3V23.3L155.1 23.2L155.2 23.3V46.3L155.1 46.4L155 46.3Z" fill="#99A4B3"/>
<path d="M155 56.2V54.8L155.1 54.6L155.2 54.8V56.2L155.1 56.3L155 56.2Z" fill="#99A4B3"/>
<path d="M160.4 172.3V140.9L160.5 140.8L160.6 140.9V172.3L160.5 172.5L160.4 172.3Z" fill="#99A4B3"/>
<path d="M160.4 22V20.5L160.5 20.4L160.6 20.5V22L160.5 22.1L160.4 22Z" fill="#99A4B3"/>
<path d="M160.4 118.7V79.2L160.5 79.1L160.6 79.2V118.7L160.5 118.8L160.4 118.7Z" fill="#99A4B3"/>
<path d="M160.4 46.3V23.3L160.5 23.2L160.6 23.3V46.3L160.5 46.4L160.4 46.3Z" fill="#99A4B3"/>
<path d="M160.4 56.2V54.8L160.5 54.6L160.6 54.8V56.2L160.5 56.3L160.4 56.2Z" fill="#99A4B3"/>
<path d="M165.8 172.3V135.7L165.9 135.5L166 135.7V172.3L165.9 172.5L165.8 172.3Z" fill="#99A4B3"/>
<path d="M165.8 22V20.5L165.9 20.4L166 20.5V22L165.9 22.1L165.8 22Z" fill="#99A4B3"/>
<path d="M165.8 125.8V79.2L165.9 79.1L166 79.2V125.8L165.9 125.9L165.8 125.8Z" fill="#99A4B3"/>
<path d="M165.8 46.3V23.3L165.9 23.2L166 23.3V46.3L165.9 46.4L165.8 46.3Z" fill="#99A4B3"/>
<path d="M165.8 56.2V54.8L165.9 54.6L166 54.8V56.2L165.9 56.3L165.8 56.2Z" fill="#99A4B3"/>
<path d="M171.2 181V77.8L171.3 77.7L171.4 77.8V181L171.3 181.1L171.2 181Z" fill="#99A4B3"/>
<path d="M171.2 22V20.5L171.3 20.4L171.4 20.5V22L171.3 22.1L171.2 22Z" fill="#99A4B3"/>
<path d="M171.2 57.6V54.8L171.3 54.6L171.4 54.8V57.6L171.3 57.8L171.2 57.6Z" fill="#99A4B3"/>
<path d="M171.2 46.3V23.3L171.3 23.2L171.4 23.3V46.3L171.3 46.4L171.2 46.3Z" fill="#99A4B3"/>
<path d="M176.6 181V77.8L176.7 77.7L176.8 77.8V181L176.7 181.1L176.6 181Z" fill="#99A4B3"/>
<path d="M176.6 45V22L176.7 21.9L176.8 22V45L176.7 45.2L176.6 45Z" fill="#99A4B3"/>
<path d="M176.6 57.6V54.8L176.7 54.6L176.8 54.8V57.6L176.7 57.8L176.6 57.6Z" fill="#99A4B3"/>
<path d="M182 181V77.8L182.1 77.7L182.2 77.8V181L182.1 181.1L182 181Z" fill="#99A4B3"/>
<path d="M182 46.3V20.5L182.1 20.4L182.2 20.5V46.3L182.1 46.4L182 46.3Z" fill="#99A4B3"/>
<path d="M182 57.6V54.8L182.1 54.6L182.2 54.8V57.6L182.1 57.8L182 57.6Z" fill="#99A4B3"/>
<path d="M187.4 169.6V54.8L187.5 54.6L187.6 54.8V169.6L187.5 169.8L187.4 169.6Z" fill="#99A4B3"/>
<path d="M187.4 46.3V20.5L187.5 20.4L187.6 20.5V46.3L187.5 46.4L187.4 46.3Z" fill="#99A4B3"/>
<path d="M192.8 169.6V54.8L192.9 54.6L193 54.8V169.6L192.9 169.8L192.8 169.6Z" fill="#99A4B3"/>
<path d="M192.8 46.3V20.5L192.9 20.4L193 20.5V46.3L192.9 46.4L192.8 46.3Z" fill="#99A4B3"/>
<path d="M198.2 169.6V133.5L198.3 133.4L198.4 133.5V169.6L198.3 169.8L198.2 169.6Z" fill="#99A4B3"/>
<path d="M198.2 46.3V20.5L198.3 20.4L198.4 20.5V46.3L198.3 46.4L198.2 46.3Z" fill="#99A4B3"/>
<path d="M198.2 104.3V79.8L198.3 79.7L198.4 79.8V104.3L198.3 104.4L198.2 104.3Z" fill="#99A4B3"/>
<path d="M203.6 169.6V133.5L203.7 133.4L203.8 133.5V169.6L203.7 169.8L203.6 169.6Z" fill="#99A4B3"/>
<path d="M203.6 46.3V20.5L203.7 20.4L203.8 20.5V46.3L203.7 46.4L203.6 46.3Z" fill="#99A4B3"/>
<path d="M203.6 104.3V79.8L203.7 79.7L203.8 79.8V104.3L203.7 104.4L203.6 104.3Z" fill="#99A4B3"/>
<path d="M209 169.6V133.5L209.1 133.4L209.2 133.5V169.6L209.1 169.8L209 169.6Z" fill="#99A4B3"/>
<path d="M209 54.9V17L209.1 16.9L209.2 17V54.9L209.1 55.1L209 54.9Z" fill="#99A4B3"/>
<path d="M209 117.3V107.2L209.1 107.1L209.2 107.2V117.3L209.1 117.4L209 117.3Z" fill="#99A4B3"/>
<path d="M209 100.1V76.5L209.1 76.4L209.2 76.5V100.1L209.1 100.2L209 100.1Z" fill="#99A4B3"/>
<path d="M209 105.8V101.6L209.1 101.5L209.2 101.6V105.8L209.1 105.9L209 105.8Z" fill="#99A4B3"/>
<path d="M214.4 169.6V133.5L214.5 133.4L214.6 133.5V169.6L214.5 169.8L214.4 169.6Z" fill="#99A4B3"/>
<path d="M214.4 54.9V17L214.5 16.9L214.6 17V54.9L214.5 55.1L214.4 54.9Z" fill="#99A4B3"/>
<path d="M214.4 117.3V104.1L214.5 104L214.6 104.1V117.3L214.5 117.4L214.4 117.3Z" fill="#99A4B3"/>
<path d="M214.4 97V76.5L214.5 76.4L214.6 76.5V97L214.5 97.1L214.4 97Z" fill="#99A4B3"/>
<path d="M214.4 102.6V98.5L214.5 98.3L214.6 98.5V102.6L214.5 102.8L214.4 102.6Z" fill="#99A4B3"/>
<path d="M219.8 169.6V133.5L219.9 133.4L220 133.5V169.6L219.9 169.8L219.8 169.6Z" fill="#99A4B3"/>
<path d="M219.8 54.9V17L219.9 16.9L220 17V54.9L219.9 55.1L219.8 54.9Z" fill="#99A4B3"/>
<path d="M219.8 117.3V95.4L219.9 95.2L220 95.4V117.3L219.9 117.4L219.8 117.3Z" fill="#99A4B3"/>
<path d="M219.8 93.9V76.5L219.9 76.4L220 76.5V93.9L219.9 94L219.8 93.9Z" fill="#99A4B3"/>
<path d="M225.2 169.6V133.5L225.3 133.4L225.4 133.5V169.6L225.3 169.8L225.2 169.6Z" fill="#99A4B3"/>
<path d="M225.2 54.9V17L225.3 16.9L225.4 17V54.9L225.3 55.1L225.2 54.9Z" fill="#99A4B3"/>
<path d="M225.2 117.3V103.7L225.3 103.6L225.4 103.7V117.3L225.3 117.4L225.2 117.3Z" fill="#99A4B3"/>
<path d="M225.2 91.5V76.5L225.3 76.4L225.4 76.5V91.5L225.3 91.6L225.2 91.5Z" fill="#99A4B3"/>
<path d="M225.2 102.2V92.2L225.3 92.1L225.4 92.2V102.2L225.3 102.4L225.2 102.2Z" fill="#99A4B3"/>
<path d="M230.5 169.6V133.5L230.7 133.4L230.8 133.5V169.6L230.7 169.8L230.5 169.6Z" fill="#99A4B3"/>
<path d="M230.5 54.9V17L230.7 16.9L230.8 17V54.9L230.7 55.1L230.5 54.9Z" fill="#99A4B3"/>
<path d="M230.5 117.3V106.8L230.7 106.7L230.8 106.8V117.3L230.7 117.4L230.5 117.3Z" fill="#99A4B3"/>
<path d="M230.5 105.3V76.5L230.7 76.4L230.8 76.5V105.3L230.7 105.5L230.5 105.3Z" fill="#99A4B3"/>
<path d="M238.3 267.9H238.2V178.2H234.2V204V204.1H234.1H232.8H232.7V204V178.2H203.9H203.8L203.7 178.1V177.1H190.3V193.8V193.9L190.2 194H16.8V234.2L190.2 257.3L190.3 257.5V267.7H191.5V244.8V244.7H191.6H192.9H193V244.8V267.7H238.3V267.9H238.2H238.3V268H192.9L192.8 267.9V244.9H191.7V267.9L191.6 268H190.2L190.1 267.9V257.6L16.6 234.5L16.5 234.3V193.8H16.6V193.7H190.1V176.9L190.2 176.8H203.9V176.9H204V178H232.8H232.9V178.1V203.9H234V178.1V178H234.1H238.3H238.4V178.1V267.9L238.3 268V267.9Z" fill="#99A4B3"/>
<path d="M12.3 29.8H12.2C12.2 29.6 12.3 29.4 12.5 29.4L14.6 29H14.8C15 29 15.2 29.1 15.4 29.2C15.7 29.4 16 29.7 16.3 30.1L16.2 30.2V30.1C18.5 30 20.8 29.7 23 29.2C23.7 29 24.5 29 25.2 29C26.2 29 27.1 29.1 28.1 29.4C28.9 29.6 29.7 30 30.4 30.5C31.1 31 31.6 31.6 32 32.3C32.3 32.9 32.5 33.6 32.5 34.2C32.5 34.9 32.3 35.6 32 36.1C31.6 36.8 31 37.4 30.4 37.9C29.7 38.4 28.9 38.8 28.1 39C27.2 39.3 26.2 39.4 25.2 39.4C24.4 39.4 23.7 39.3 23 39.1C20.7 38.7 18.5 38.4 16.2 38.2V38.1L16.3 38.2C16.1 38.5 15.8 38.8 15.4 39.1C15.2 39.2 15 39.3 14.8 39.3H14.6L12.5 38.9C12.3 38.9 12.2 38.7 12.2 38.5V29.8H12.3H12.4V38.5L12.5 38.7L14.6 39.1H14.7C14.9 39.1 15 39.1 15.1 39C15.4 38.8 15.7 38.5 15.9 38.2L16 38.1C18.3 38.2 20.6 38.5 22.9 39C23.6 39.2 24.3 39.2 25.1 39.2C26.1 39.2 27 39.1 27.9 38.8C28.7 38.6 29.4 38.2 30.1 37.7C30.7 37.2 31.3 36.6 31.7 36C32 35.4 32.2 34.8 32.2 34.2C32.2 33.6 32 32.9 31.7 32.4C31.3 31.7 30.8 31.1 30.1 30.7C29.4 30.2 28.7 29.9 27.9 29.6C27 29.3 26 29.2 25.1 29.2C24.4 29.2 23.6 29.3 22.9 29.4C20.6 29.8 18.3 30.1 16 30.3L15.9 30.2C15.7 29.9 15.4 29.6 15.1 29.4C15 29.3 14.8 29.3 14.7 29.3H14.6L12.5 29.7L12.4 29.9H12.3V29.8Z" fill="#99A4B3"/>
<path d="M234.1 178.2H208.2L208.1 178.1L208.2 178H234.1L234.2 178.1L234.1 178.2Z" fill="#99A4B3"/>
<path d="M234.1 169.8H208.2L208.1 169.6L208.2 169.5H234.1L234.2 169.6L234.1 169.8Z" fill="#99A4B3"/>
<path d="M232.4 17.1H207.9L207.8 17L207.9 16.9H232.4L232.5 17L232.4 17.1Z" fill="#99A4B3"/>
<path d="M232.4 13.5H207.9L207.8 13.4L207.9 13.3H232.4L232.5 13.4L232.4 13.5Z" fill="#99A4B3"/>
<path d="M191.6 267.7H214.7L214.8 267.9L214.7 268H191.6L191.5 267.9L191.6 267.7Z" fill="#99A4B3"/>
<path d="M191.6 269.2H214.7L214.8 269.3L214.7 269.4H191.6L191.5 269.3L191.6 269.2Z" fill="#99A4B3"/>
<path d="M62.6 22.2V22.3H11.8V68H28.9C30.2 68 31.2 69 31.2 70.3V80.4C31.2 81.7 30.2 82.7 28.9 82.7H11.8V88.3H62.4V82.1V82H62.5H64V57.8H62.5H62.4V57.7V22.3H62.6V22.4V22.2H62.7V57.5H64.2H64.3V57.6V82.1V82.2H64.2H62.7V88.4V88.5H62.6H11.7H11.6V88.4V82.6V82.5H11.7H28.9C30 82.5 30.9 81.6 30.9 80.5V70.4C30.9 69.3 30 68.4 28.9 68.4H11.7H11.6V68.3V22.3V22.2H11.7H62.6Z" fill="#99A4B3"/>
<path d="M12.3 88.4V82.6L12.4 82.4L12.5 82.6V88.4L12.4 88.5L12.3 88.4Z" fill="#99A4B3"/>
<path d="M12.3 29.5V22.2L12.4 22.1L12.5 22.2V29.5L12.4 29.6L12.3 29.5Z" fill="#99A4B3"/>
<path d="M12.3 68.2V38.7L12.4 38.6L12.5 38.7V68.2L12.4 68.3L12.3 68.2Z" fill="#99A4B3"/>
<path d="M20.9 88.4V82.6L21 82.4L21.2 82.6V88.4L21 88.5L20.9 88.4Z" fill="#99A4B3"/>
<path d="M20.9 29.5V22.2L21 22.1L21.2 22.2V29.5L21 29.6L20.9 29.5Z" fill="#99A4B3"/>
<path d="M20.9 68.2V38.7L21 38.6L21.2 38.7V68.2L21 68.3L20.9 68.2Z" fill="#99A4B3"/>
<path d="M29.6 88.4V82.4L29.7 82.3L29.8 82.4V88.4L29.7 88.5L29.6 88.4Z" fill="#99A4B3"/>
<path d="M29.6 30V22.2L29.7 22.1L29.8 22.2V30L29.7 30.2L29.6 30Z" fill="#99A4B3"/>
<path d="M29.6 68.3V38.1L29.7 38L29.8 38.1V68.3L29.7 68.4L29.6 68.3Z" fill="#99A4B3"/>
<path d="M38.2 88.4V22.2L38.3 22.1L38.4 22.2V88.4L38.3 88.5L38.2 88.4Z" fill="#99A4B3"/>
<path d="M46.8 88.4V22.2L47 22.1L47.1 22.2V88.4L47 88.5L46.8 88.4Z" fill="#99A4B3"/>
<path d="M55.5 88.4V22.2L55.6 22.1L55.7 22.2V88.4L55.6 88.5L55.5 88.4Z" fill="#99A4B3"/>
<path d="M64.2 71.2H31L30.9 71.1L31 71H64.2L64.3 71.1L64.2 71.2Z" fill="#99A4B3"/>
<path d="M62.6 54H11.7L11.6 53.9L11.7 53.7H62.6L62.7 53.9L62.6 54Z" fill="#99A4B3"/>
<path d="M62.6 36.7H31.5L31.4 36.6L31.5 36.5H62.6L62.7 36.6L62.6 36.7Z" fill="#99A4B3"/>
<path d="M12.3 36.7H11.7L11.6 36.6L11.7 36.5H12.3L12.4 36.6L12.3 36.7Z" fill="#99A4B3"/>
<path d="M234.1 193.7H238.3L238.4 193.8L238.3 194H234.1L234 193.8L234.1 193.7Z" fill="#99A4B3"/>
<path d="M190.2 193.7H232.8L232.9 193.8L232.8 194H190.2L190.1 193.8L190.2 193.7Z" fill="#99A4B3"/>
<path d="M16.6 211H238.3L238.4 211.1L238.3 211.2H16.6L16.5 211.1L16.6 211Z" fill="#99A4B3"/>
<path d="M16.6 228.3H238.3L238.4 228.4L238.3 228.5H16.6L16.5 228.4L16.6 228.3Z" fill="#99A4B3"/>
<path d="M101.7 245.5H191.6L191.7 245.7L191.6 245.8H101.7L101.6 245.7L101.7 245.5Z" fill="#99A4B3"/>
<path d="M192.9 245.5H238.3L238.4 245.7L238.3 245.8H192.9L192.8 245.7L192.9 245.5Z" fill="#99A4B3"/>
<path d="M190.2 262.8H191.6L191.7 262.9L191.6 263.1H190.2L190.1 262.9L190.2 262.8Z" fill="#99A4B3"/>
<path d="M192.9 262.8H238.3L238.4 262.9L238.3 263.1H192.9L192.8 262.9L192.9 262.8Z" fill="#99A4B3"/>
<path d="M17.3 234.4V193.8L17.5 193.7L17.6 193.8V234.4L17.5 234.6L17.3 234.4Z" fill="#99A4B3"/>
<path d="M34.6 236.7V193.8L34.7 193.7L34.8 193.8V236.7L34.7 236.9L34.6 236.7Z" fill="#99A4B3"/>
<path d="M51.9 239V193.8L52 193.7L52.1 193.8V239L52 239.2L51.9 239Z" fill="#99A4B3"/>
<path d="M69.2 241.3V193.8L69.3 193.7L69.4 193.8V241.3L69.3 241.5L69.2 241.3Z" fill="#99A4B3"/>
<path d="M86.4 243.6V193.8L86.5 193.7L86.7 193.8V243.6L86.5 243.8L86.4 243.6Z" fill="#99A4B3"/>
<path d="M103.7 245.9V193.8L103.8 193.7L103.9 193.8V245.9L103.8 246.1L103.7 245.9Z" fill="#99A4B3"/>
<path d="M121 248.2V193.8L121.1 193.7L121.2 193.8V248.2L121.1 248.4L121 248.2Z" fill="#99A4B3"/>
<path d="M138.2 250.6V193.8L138.4 193.7L138.5 193.8V250.6L138.4 250.7L138.2 250.6Z" fill="#99A4B3"/>
<path d="M155.5 252.9V193.8L155.6 193.7L155.8 193.8V252.9L155.6 253L155.5 252.9Z" fill="#99A4B3"/>
<path d="M172.8 255.2V193.8L172.9 193.7L173 193.8V255.2L172.9 255.3L172.8 255.2Z" fill="#99A4B3"/>
<path d="M190.1 257.5V193.8L190.2 193.7L190.3 193.8V257.5L190.2 257.6L190.1 257.5Z" fill="#99A4B3"/>
<path d="M207.3 267.9V178.1L207.5 178L207.6 178.1V267.9L207.5 268L207.3 267.9Z" fill="#99A4B3"/>
<path d="M224.6 267.9V178.1L224.7 178L224.9 178.1V267.9L224.7 268L224.6 267.9Z" fill="#99A4B3"/>
<path fill-rule="evenodd" clip-rule="evenodd" d="M16.6 223H5.10001V11.8H206.5V13.4H207.9V17H206.5V20.5H178V22H174.7V20.5H68.7V46.3H70.5V54.8H65.9V57.6H62.6V22.2H11.7V88.4H62.6V82.1H65.9V112.3H54.4V109H62.6V91.7H11.7V109H19.8V112.3H11.7V186.6H17.4V190.6H16.6V223Z" fill="#22576F"/>
<path fill-rule="evenodd" clip-rule="evenodd" d="M75 186.6L74.9 190.6H75.7V193.8H190.2V173.7H190.9V169.6H182.9V181H113.8V186.6H75Z" fill="#22576F"/>
<path d="M208.2 169.6H203.9V178.1H208.2V169.6Z" fill="#22576F"/>
<path fill-rule="evenodd" clip-rule="evenodd" d="M234.1 169.6V178.1H238.3V223H244.9V11.8H233.8V13.4H232.4V17H233.8V20.5H236.1V106.8H233.2V110.1H236.1V127.4H204.4V110.1H207.3V106.8H204.4V104.3H198.3V133.5H236.1V169.6H234.1Z" fill="#22576F"/>
<path fill-rule="evenodd" clip-rule="evenodd" d="M92.1 46.3V54.8H198.3V79.8H204.4V46.3H178V45H174.7V46.3H92.1Z" fill="#22576F"/>
<path d="M206 53.5V53.4H207.1H207.2V53.5V78V78.1H207.1H206H205.9V78V53.5V53.4H206V53.5H206.1V77.8H207V53.6H206V53.5H206.1H206Z" fill="#22576F"/>
<path d="M109.5 22.5H148.2V21.7H109.2L109.1 21.6L109.2 21.4H148.4V21.5L148.5 21.6V22.6L148.4 22.7V22.8H109.5L109.4 22.6L109.5 22.5Z" fill="#22576F"/>
<path d="M204.4 120.1H206.5L206.7 120.2L206.5 120.3H204.4L204.3 120.2L204.4 120.1Z" fill="#22576F"/>
<path d="M227.6 120.1H231.8L231.9 120.2L231.8 120.3H227.6L227.5 120.2L227.6 120.1ZM221.3 120.1H225.5L225.6 120.2L225.5 120.3H221.3L221.2 120.2L221.3 120.1ZM215 120.1H219.2L219.3 120.2L219.2 120.3H215L214.9 120.2L215 120.1ZM208.6 120.1H212.8L212.9 120.2L212.8 120.3H208.6L208.5 120.2L208.6 120.1Z" fill="#22576F"/>
<path d="M233.9 120.1H236.1L236.2 120.2L236.1 120.3H233.9L233.8 120.2L233.9 120.1Z" fill="#22576F"/>
<path d="M62.6 99.1H60.4L60.3 98.9L60.4 98.8H62.6L62.7 98.9L62.6 99.1Z" fill="#22576F"/>
<path d="M20.2 99.1H16L15.9 99L16 98.9H20.2L20.3 99L20.2 99.1ZM26.5 99.1H22.3L22.2 99L22.3 98.9H26.5L26.6 99L26.5 99.1ZM32.9 99.1H28.7L28.6 99L28.7 98.9H32.9L33 99L32.9 99.1ZM39.2 99.1H35L34.9 99L35 98.9H39.2L39.3 99L39.2 99.1ZM45.6 99.1H41.4L41.3 99L41.4 98.9H45.6L45.7 99L45.6 99.1ZM52 99.1H47.8L47.7 99L47.8 98.9H52L52.1 99L52 99.1ZM58.3 99.1H54.1L54 99L54.1 98.9H58.3L58.4 99L58.3 99.1Z" fill="#22576F"/>
<path d="M13.8 99.1H11.7L11.6 98.9L11.7 98.8H13.8L14 98.9L13.8 99.1Z" fill="#22576F"/>
<path d="M190.2 173.6H203.9L204 173.7L203.9 173.8H190.2L190.1 173.7L190.2 173.6Z" fill="#22576F"/>
<path d="M190.2 176.8H203.9L204 176.9L203.9 177.1H190.2L190.1 176.9L190.2 176.8Z" fill="#22576F"/>
<path d="M16.6 190.5H75.7L75.8 190.6L75.7 190.7H16.6L16.5 190.6L16.6 190.5Z" fill="#22576F"/>
<path d="M16.6 193.7H75.7L75.8 193.8L75.7 194H16.6L16.5 193.8L16.6 193.7Z" fill="#22576F"/>
<path d="M234.1 204V204.1H232.8H232.7V204V178.1V178H232.8H234.1H234.2V178.1V204V204.1H234.1V204H234V178.2H233V203.9H234.1V204H234H234.1Z" fill="#22576F"/>
<path d="M208.3 178.1C208.3 185.2 211.2 191.7 215.9 196.3C220.6 201 227 203.9 234.1 203.9L234.2 204L234.1 204.1C219.7 204.1 208.1 192.4 208.1 178.1L208.2 178L208.3 178.1Z" fill="#22576F"/>
<path d="M232.4 41.4V41.6H231.1L231 41.5V41.4V17V16.9H231.1H232.4H232.5V17V41.4V41.5L232.4 41.6V41.4H232.3V17.1H231.2V41.3H232.4V41.4H232.3H232.4Z" fill="#22576F"/>
<path d="M208 17C208 23.7 210.7 29.8 215.1 34.2C219.5 38.6 225.6 41.3 232.3 41.3L232.4 41.4L232.3 41.5C218.7 41.5 207.7 30.5 207.7 16.9L207.8 16.8L208 17Z" fill="#22576F"/>
<path d="M191.6 244.8V244.7H192.9H193V244.8V267.9L192.9 268H191.6L191.5 267.9V244.8V244.7H191.6V244.8H191.7V267.7H192.8V244.9H191.6V244.8H191.7H191.6Z" fill="#22576F"/>
<path d="M214.5 267.9C214.5 261.6 211.9 255.8 207.8 251.7C203.7 247.6 197.9 245 191.6 245L191.5 244.9L191.6 244.8C204.4 244.8 214.8 255.2 214.8 268L214.7 268.1L214.5 267.9Z" fill="#22576F"/>
<path d="M220.1 106.8C220.1 104.5 219.5 102.3 218.4 100.4V100.2H218.6C219.7 102.2 220.4 104.4 220.4 106.7L220.3 106.8H220.1Z" fill="#22576F"/>
<path d="M222.1 100.4C221 102.4 220.4 104.6 220.4 106.8L220.3 106.9L220.2 106.8C220.2 104.5 220.8 102.2 222 100.3H222.2L222.1 100.4Z" fill="#22576F"/>
<path d="M207.3 106.8L207.2 106.7L218.4 100.2L218.6 100.3L219.2 101.4V101.5L208 108H207.9H207.8L207.2 106.9V106.7L207.3 106.8L207.4 106.7L208 107.7L219 101.4L218.5 100.5L207.3 106.9V106.8L207.4 106.7L207.3 106.8Z" fill="#22576F"/>
<path d="M233.2 106.8L233.1 106.9L222 100.5L221.5 101.4L232.5 107.7L233.1 106.7L233.2 106.8L233.1 106.9L233.2 106.8L233.3 106.9L232.7 108H232.6H232.5L221.3 101.5L221.2 101.4L221.9 100.3V100.2H222L233.3 106.7V106.8V106.9L233.2 106.8Z" fill="#22576F"/>
<path d="M65.9 57.6L66 57.5L87.1 69.8H87.2V69.9L86.6 71L86.4 71.1L65.2 58.8H65.1L65.2 58.7L65.8 57.6L66 57.5L65.9 57.6L66 57.7L65.4 58.7L86.4 70.8L86.9 69.9L65.8 57.7L65.9 57.6L66 57.7L65.9 57.6Z" fill="#22576F"/>
<path d="M65.9 82C74.6 82 82.6 77.4 87 69.8H87.2V70C82.8 77.6 74.7 82.3 65.9 82.3L65.8 82.2L65.9 82Z" fill="#22576F"/>
<path d="M191.6 267.9V268H190.3V269.2H191.5V267.9H191.6V268V267.9H191.7V269.3V269.4H191.6H190.2H190.1V269.3V267.9V267.8L190.2 267.7H191.6L191.7 267.8V267.9H191.6Z" fill="#22576F"/>
<path d="M214.7 267.9V267.7H238.3L238.4 267.8V267.9V269.3V269.4H238.3H214.7H214.6L214.5 269.3V267.9L214.6 267.8L214.7 267.7V267.9H214.8V269.2H238.2V268H214.7V267.9H214.8H214.7Z" fill="#22576F"/>
<path d="M204.4 69.2H206L206.1 69.3L206 69.5H204.4L204.3 69.3L204.4 69.2Z" fill="#22576F"/>
<path d="M207.1 69.2H236.1L236.2 69.3L236.1 69.5H207.1L207 69.3L207.1 69.2Z" fill="#22576F"/>
<path d="M204.4 76.4H206L206.1 76.5L206 76.7H204.4L204.3 76.5L204.4 76.4Z" fill="#22576F"/>
<path d="M207.1 76.4H236.1L236.2 76.5L236.1 76.7H207.1L207 76.5L207.1 76.4Z" fill="#22576F"/>
<path d="M204.4 62H206L206.1 62.1L206 62.3H204.4L204.3 62.1L204.4 62Z" fill="#22576F"/>
<path d="M207.1 62H236.1L236.2 62.1L236.1 62.3H207.1L207 62.1L207.1 62Z" fill="#22576F"/>
<path d="M204.4 54.8H206L206.1 54.9L206 55.1H204.4L204.3 54.9L204.4 54.8Z" fill="#22576F"/>
<path d="M207.1 54.8H236.1L236.2 54.9L236.1 55.1H207.1L207 54.9L207.1 54.8Z" fill="#22576F"/>
<path d="M148.2 46.3V20.5L148.4 20.4L148.5 20.5V46.3L148.4 46.4L148.2 46.3Z" fill="#22576F"/>
<path d="M133.8 46.3V22.6L134 22.5L134.1 22.6V46.3L134 46.4L133.8 46.3Z" fill="#22576F"/>
<path d="M133.8 21.6V20.5L134 20.4L134.1 20.5V21.6L134 21.7L133.8 21.6Z" fill="#22576F"/>
<path d="M126.6 46.3V22.6L126.8 22.5L126.9 22.6V46.3L126.8 46.4L126.6 46.3Z" fill="#22576F"/>
<path d="M126.6 21.6V20.5L126.8 20.4L126.9 20.5V21.6L126.8 21.7L126.6 21.6Z" fill="#22576F"/>
<path d="M119.4 46.3V22.6L119.6 22.5L119.7 22.6V46.3L119.6 46.4L119.4 46.3Z" fill="#22576F"/>
<path d="M119.4 21.6V20.5L119.6 20.4L119.7 20.5V21.6L119.6 21.7L119.4 21.6Z" fill="#22576F"/>
<path d="M112.2 34.7V33.4L112.4 33.3L112.5 33.4V34.7L112.4 34.9L112.2 34.7Z" fill="#22576F"/>
<path d="M112.2 32.1V22.6L112.4 22.5L112.5 22.6V32.1L112.4 32.2L112.2 32.1Z" fill="#22576F"/>
<path d="M112.2 21.6V20.5L112.4 20.4L112.5 20.5V21.6L112.4 21.7L112.2 21.6Z" fill="#22576F"/>
<path d="M109 20.5L112.1 31.9L114.6 32.6V32.7V32.8L110.6 34.1L112.8 34.7L112.9 34.8L115.9 46.3V46.4L115.7 46.3L112.6 34.9L110.2 34.2L110.1 34.1L110.2 34L114.1 32.7L111.9 32.1V32L108.8 20.5L108.9 20.4L109 20.5Z" fill="#22576F"/>
<path d="M141 46.3V22.6L141.2 22.5L141.3 22.6V46.3L141.2 46.4L141 46.3Z" fill="#22576F"/>
<path d="M141 21.6V20.5L141.2 20.4L141.3 20.5V21.6L141.2 21.7L141 21.6Z" fill="#22576F"/>
<path d="M174.7 22V22.1H151.8V23.1H174.6V22H174.7V22.1V22H174.8V23.3V23.4H174.7H151.7H151.6V23.3V22V21.9H151.7H174.7H174.8V22H174.7Z" fill="#22576F"/>
<path d="M151.8 22C151.8 28.3 154.4 34.1 158.5 38.2C162.6 42.3 168.4 44.9 174.7 44.9L174.8 45L174.7 45.1C161.9 45.1 151.5 34.7 151.5 21.9L151.6 21.8L151.8 22Z" fill="#22576F"/>
<path d="M70.5 54.8V54.7L89.1 65.4L89.6 64.5L71.2 53.8L70.6 54.8H70.5V54.7V54.8L70.4 54.7L71 53.6H71.2L89.9 64.4V64.5L89.3 65.6L89.2 65.7H89.1L70.4 54.9V54.8V54.7L70.5 54.8Z" fill="#22576F"/>
<path d="M89.1 65.5C91 62.2 92 58.5 92 54.8L92.1 54.7L92.2 54.8C92.2 58.6 91.2 62.4 89.3 65.7H89.1V65.5Z" fill="#22576F"/>
<path d="M19.8 129.6V129.5H20.9V112.5H19.9V129.6H19.8V129.5V129.6H19.7V112.3V112.2H19.8H21.1H21.2V112.3V129.6V129.7H21.1H19.8H19.7V129.6H19.8Z" fill="#22576F"/>
<path d="M53.1 129.6V129.5H54.2V112.5H53.2V129.6H53.1V129.5V129.6H53V112.3V112.2H53.1H54.4L54.5 112.3V129.6L54.4 129.7H53.1H53V129.6H53.1Z" fill="#22576F"/>
<path d="M19.8 129.5C24.5 129.5 28.8 127.6 31.9 124.5C35 121.4 36.9 117.1 36.9 112.4L37 112.3L37.1 112.4C37.1 122 29.3 129.8 19.7 129.8L19.6 129.7L19.8 129.5Z" fill="#22576F"/>
<path d="M37.2 112.3C37.2 117 39.1 121.3 42.2 124.4C45.3 127.5 49.6 129.4 54.3 129.4L54.4 129.5L54.3 129.6C44.7 129.6 36.9 121.8 36.9 112.2L37 112.1L37.2 112.3Z" fill="#22576F"/>
<path d="M204.4 104.3L204.3 104.2L225.4 92L224.9 91.1L203.9 103.2L204.5 104.2L204.4 104.3L204.3 104.2L204.4 104.3H204.3L203.7 103.3L203.6 103.2L203.7 103.1L224.9 90.9L225 90.8L225.1 90.9L225.7 92V92.1V92.2L204.5 104.4L204.3 104.3H204.4Z" fill="#22576F"/>
<path d="M225.5 92.1C221.2 84.6 213.1 79.9 204.4 79.9L204.3 79.8L204.4 79.7C213.2 79.7 221.3 84.4 225.7 92V92.2L225.5 92.1Z" fill="#22576F"/>
<path d="M190.2 173.7V173.6H191.6H191.7V173.7V176.9V177L191.6 177.1H190.2L190.1 177V176.9V173.7V173.6H190.2V173.7H190.3V176.8H191.5V173.8H190.2V173.7H190.3H190.2Z" fill="#22576F"/>
<path d="M202.4 173.7V173.6H203.9L204 173.7V176.9L203.9 177V177.1H202.4L202.3 177V176.9V173.7V173.6H202.4V173.7H202.5V176.8H203.7V173.8H202.4V173.7H202.5H202.4Z" fill="#22576F"/>
<path d="M191.6 176.1H202.4L202.5 176.2L202.4 176.3H191.6L191.5 176.2L191.6 176.1Z" fill="#22576F"/>
<path d="M191.6 175.4H202.4L202.5 175.5L202.4 175.6H191.6L191.5 175.5L191.6 175.4Z" fill="#22576F"/>
<path d="M190.9 169.5H203.9L204 169.6L203.9 169.8H190.9L190.8 169.6L190.9 169.5Z" fill="#22576F"/>
<path d="M16.6 190.6V190.5H18.1H18.2V190.6V193.8V193.9L18.1 194H16.6V193.9L16.5 193.8V190.6L16.6 190.5V190.6H16.8V193.7H18V190.7H16.6V190.6H16.8H16.6Z" fill="#22576F"/>
<path d="M74.2 190.6V190.5H75.7L75.8 190.6V193.8L75.7 193.9V194H74.2L74.1 193.9V193.8V190.6V190.5H74.2V190.6H74.3V193.7H75.5V190.7H74.2V190.6H74.3H74.2Z" fill="#22576F"/>
<path d="M33.2 190.6V190.5H34.6H34.7L34.8 190.6V193.8L34.7 193.9L34.6 194H33.2L33.1 193.9V193.8V190.6V190.5H33.2V190.6H33.3V193.7H34.5V190.7H33.2V190.6H33.3H33.2Z" fill="#22576F"/>
<path d="M18.1 193H33.2L33.3 193.1L33.2 193.3H18.1L18 193.1L18.1 193Z" fill="#22576F"/>
<path d="M18.1 192.3H33.2L33.3 192.4L33.2 192.5H18.1L18 192.4L18.1 192.3Z" fill="#22576F"/>
<path d="M34.6 193H74.2L74.3 193.1L74.2 193.3H34.6L34.5 193.1L34.6 193Z" fill="#22576F"/>
<path d="M34.6 192.3H74.2L74.3 192.4L74.2 192.5H34.6L34.5 192.4L34.6 192.3Z" fill="#22576F"/>
<path d="M17.4 186.4H74.9L75.1 186.6L74.9 186.7H17.4L17.2 186.6L17.4 186.4Z" fill="#22576F"/>
<path d="M168.5 172.3V172.5H128.3V180.9H168.4V172.3H168.5V172.5V172.3H168.6V181V181.1H168.5H128.2H128.1V181V172.3L128.2 172.2H168.5L168.6 172.3H168.5Z" fill="#22576F"/>
<path d="M13.1 139.1V138.9H30.4L30.5 139V139.1V185.1V185.2H30.4H13.1H13V185.1V139.1V139L13.1 138.9V139.1H13.3V185H30.3V139.2H13.1V139.1H13.3H13.1Z" fill="#22576F"/>
<path d="M17.7 153.5V153.3H18.8L18.9 153.4V153.5V170.7V170.8L18.8 170.9H17.7L17.6 170.8V170.7V153.5V153.4L17.7 153.3V153.5H17.9V170.6H18.7V153.6H17.7V153.5H17.9H17.7Z" fill="#22576F"/>
<path d="M24 154.8V154.7H28.4H28.5V154.8V169.2V169.3H28.4H24L23.9 169.2V154.8L24 154.7V154.8H24.2V169.1H28.2V154.9H24V154.8H24.2H24Z" fill="#22576F"/>
<path d="M17.7 159.5H16.2V164.7H17.7L17.9 164.8L17.7 164.9H16.1H16V164.8V159.4V159.3H16.1H17.7L17.9 159.4L17.7 159.5Z" fill="#22576F"/>
<path d="M36.9 155.9H30.4L30.3 155.8L30.4 155.7H36.9L37 155.8L36.9 155.9Z" fill="#22576F"/>
<path d="M18.8 164.7H20.3V159.5H18.8L18.7 159.4L18.8 159.3H20.4H20.5L20.6 159.4V164.8L20.5 164.9H20.4H18.8L18.7 164.8L18.8 164.7Z" fill="#22576F"/>
<path d="M36.9 168.5H30.4L30.3 168.4L30.4 168.3H36.9L37 168.4L36.9 168.5Z" fill="#22576F"/>
<path d="M36.9 155.1V154.9H38L38.1 155V155.1V169.1V169.2H38H36.9H36.8V169.1V155.1V155L36.9 154.9V155.1H37V169H37.8V155.2H36.9V155.1H37H36.9Z" fill="#22576F"/>
<path d="M25.3 151.2V151.3C25.1 151.4 25 151.5 25 151.8V151.9C25.1 152.1 25.2 152.2 25.5 152.2H25.6C26.1 152.1 26.7 152 27.3 151.9C27.5 151.9 27.6 151.7 27.6 151.6C27.6 151.5 27.5 151.3 27.4 151.3C27.1 151.2 26.8 151.1 26.4 151.1C26.1 151.1 25.7 151.2 25.4 151.3L25.3 151.2V151.1C25.7 151 26 150.9 26.4 150.9C26.8 150.9 27.1 151 27.5 151.1C27.7 151.2 27.9 151.4 27.9 151.6C27.9 151.9 27.7 152.2 27.3 152.2C26.8 152.2 26.2 152.3 25.7 152.5H25.5C25.2 152.5 24.9 152.3 24.8 152V151.8C24.8 151.5 25 151.2 25.3 151.1V151.2Z" fill="#22576F"/>
<path d="M148.9 92.2V92.3H124.6V107.8H148.8V92.2H148.9V92.3V92.2H149V108V108.1H148.9H124.5H124.4L124.3 108V92.2L124.4 92.1H124.5H148.9H149V92.2H148.9Z" fill="#22576F"/>
<path d="M169.8 64.8H169.7C169.7 61.6 172.3 58.9 175.6 58.9C178.8 58.9 181.5 61.5 181.5 64.8C181.5 68 178.9 70.7 175.6 70.7C172.4 70.7 169.7 68.1 169.7 64.8H169.8H169.9C169.9 66.4 170.5 67.8 171.5 68.8C172.5 69.8 173.9 70.4 175.5 70.4C177.1 70.4 178.5 69.8 179.5 68.8C180.5 67.8 181.1 66.4 181.1 64.8C181.1 63.2 180.5 61.8 179.5 60.8C178.5 59.8 177.1 59.2 175.5 59.2C173.9 59.2 172.5 59.8 171.5 60.8C170.5 61.8 169.9 63.2 169.9 64.8H169.8Z" fill="#22576F"/>
<path d="M174.1 64.8H174C174 63.9 174.7 63.2 175.6 63.2C176.5 63.2 177.2 63.9 177.2 64.8C177.2 65.7 176.5 66.4 175.6 66.4C174.7 66.4 174 65.7 174 64.8H174.1H174.2C174.2 65.5 174.8 66.2 175.6 66.2C176.3 66.2 177 65.6 177 64.8C177 64.1 176.4 63.4 175.6 63.4C174.9 63.4 174.2 64 174.2 64.8H174.1Z" fill="#22576F"/>
<path d="M181.3 65H177.1L176.9 64.8L177.1 64.7H181.3L181.5 64.8L181.3 65Z" fill="#22576F"/>
<path d="M174.1 65H169.8L169.7 64.8L169.8 64.7H174.1L174.2 64.8L174.1 65Z" fill="#22576F"/>
<path d="M175.4 70.6V66.3L175.6 66.2L175.7 66.3V70.6L175.6 70.7L175.4 70.6Z" fill="#22576F"/>
<path d="M175.4 63.4V59.1L175.6 59L175.7 59.1V63.4L175.6 63.5L175.4 63.4Z" fill="#22576F"/>
<path d="M168.4 57.6V57.5H182.8L182.9 57.6V77.8V77.9H182.8H168.4H168.3L168.2 77.8V57.6H168.3L168.4 57.5V57.6H168.5V77.7H182.7V57.8H168.4V57.6H168.5H168.4Z" fill="#22576F"/>
<path d="M166.9 56.3H106.5L106.3 56.2L106.5 56.1H166.9L167 56.2L166.9 56.3Z" fill="#22576F"/>
<path d="M106.3 79.2V56.2L106.5 56.1L106.6 56.2V79.2L106.5 79.4L106.3 79.2Z" fill="#22576F"/>
<path d="M166.8 79.2V56.2L166.9 56.1L167 56.2V79.2L166.9 79.4L166.8 79.2Z" fill="#22576F"/>
<path d="M163.9 79.2V59.8L164 59.7L164.2 59.8V79.2L164 79.4L163.9 79.2Z" fill="#22576F"/>
<path d="M166.9 59.2H106.5L106.3 59.1L106.5 59H166.9L167 59.1L166.9 59.2Z" fill="#22576F"/>
<path d="M166.9 79.4H106.5L106.3 79.2L106.5 79.1H166.9L167 79.2L166.9 79.4Z" fill="#22576F"/>
<path d="M145.7 79.2V60.5L145.8 60.4L145.9 60.5V79.2L145.8 79.4L145.7 79.2Z" fill="#22576F"/>
<path d="M127.5 79.2V60.5L127.6 60.4L127.7 60.5V79.2L127.6 79.4L127.5 79.2Z" fill="#22576F"/>
<path d="M164 60.6H109.3L109.2 60.5L109.3 60.4H164L164.2 60.5L164 60.6Z" fill="#22576F"/>
<path d="M106.5 59.7H109.3L109.5 59.8L109.3 59.9H106.5L106.3 59.8L106.5 59.7Z" fill="#22576F"/>
<path d="M166.9 59.9H164L163.9 59.8L164 59.7H166.9L167 59.8L166.9 59.9Z" fill="#22576F"/>
<path d="M109.2 79.2V59.8L109.3 59.7L109.5 59.8V79.2L109.3 79.4L109.2 79.2Z" fill="#22576F"/>
<path d="M145.8 133.8C147.1 138.6 151.4 141.7 156.1 141.7C157 141.7 157.9 141.6 158.9 141.3C163.7 140 166.8 135.7 166.8 131C166.8 130.1 166.7 129.2 166.4 128.2L166.5 128L166.7 128.1C167 129 167.1 130 167.1 130.9C167.1 135.7 163.9 140.1 159 141.4C158.1 141.7 157.1 141.8 156.2 141.8C151.4 141.8 147 138.6 145.7 133.7L145.8 133.5V133.8Z" fill="#22576F"/>
<path d="M148.6 133.1C149.5 136.6 152.7 138.9 156.1 138.9C156.8 138.9 157.4 138.8 158.1 138.6C161.6 137.7 163.9 134.5 163.9 131.1C163.9 130.4 163.8 129.8 163.6 129.1L163.7 128.9L163.9 129C164.1 129.7 164.2 130.4 164.2 131.1C164.2 134.7 161.8 137.9 158.2 138.9C157.5 139.1 156.8 139.2 156.1 139.2C152.5 139.2 149.3 136.8 148.3 133.2L148.4 133L148.6 133.1Z" fill="#22576F"/>
<path d="M148.4 133.1L145.6 122.7L145.7 122.6L145.8 122.7L148.6 133.1L148.5 133.2L148.4 133.1Z" fill="#22576F"/>
<path d="M161.1 118.6L163.9 129L163.8 129.1L163.7 129L160.9 118.6V118.5L161.1 118.6Z" fill="#22576F"/>
<path d="M145.6 133.9L142.8 123.5L142.9 123.3L143 123.4L145.8 133.8L145.7 134L145.6 133.9Z" fill="#22576F"/>
<path d="M142.9 123.3L163.7 117.7L163.9 117.8L163.8 118L142.9 123.5H142.8L142.9 123.3Z" fill="#22576F"/>
<path d="M163.9 117.8L166.7 128.2L166.6 128.4L166.4 128.3L163.6 117.9L163.7 117.7L163.9 117.8Z" fill="#22576F"/>
<path d="M148.2 131.7C149.1 135.2 152.3 137.5 155.7 137.5C156.4 137.5 157 137.4 157.7 137.2C161.2 136.3 163.5 133.1 163.5 129.7C163.5 129 163.4 128.4 163.2 127.7L163.3 127.5L163.5 127.6C163.7 128.3 163.8 129 163.8 129.7C163.8 133.3 161.4 136.5 157.8 137.5C157.1 137.7 156.4 137.8 155.7 137.8C152.1 137.8 148.9 135.4 147.9 131.8L148 131.6L148.2 131.7Z" fill="#22576F"/>
<path d="M163.5 178.1V178.2H133.2H133.1V178.1V177.4V177.3H133.2H163.5H163.6V177.4V178.1V178.2H163.5V178.1H163.3V177.5H133.4V178H163.5V178.1H163.3H163.5Z" fill="#22576F"/>
<path d="M143.9 177.4V174.5V174.4H144H152.7H152.8V174.5V177.4L152.7 177.5L152.5 177.4V174.6H144.2V177.4L144 177.5L143.9 177.4Z" fill="#22576F"/>
<path d="M152.8 178.1V179.5V179.6L152.7 179.7H144L143.9 179.6V179.5V178.1L144 178L144.2 178.1V179.4H152.5V178.1L152.7 178L152.8 178.1Z" fill="#22576F"/>
<path d="M78.5 178.1C80.6 180.2 83.3 181.2 86 181.2C88.7 181.2 91.5 180.2 93.5 178.1C95.6 176 96.6 173.3 96.6 170.6C96.6 167.9 95.6 165.1 93.5 163.1V162.9H93.7C95.8 165 96.9 167.8 96.9 170.6C96.9 173.4 95.8 176.2 93.7 178.3C91.6 180.4 88.8 181.5 86 181.5C83.2 181.5 80.4 180.4 78.3 178.3V178.1H78.5Z" fill="#22576F"/>
<path d="M80.5 176.1C82 177.6 84 178.4 86 178.4C88 178.4 90 177.6 91.5 176.1C93 174.6 93.8 172.6 93.8 170.6C93.8 168.6 93 166.6 91.5 165.1V164.9H91.7C93.3 166.5 94.1 168.5 94.1 170.6C94.1 172.7 93.3 174.7 91.7 176.3C90.1 177.9 88.1 178.7 86 178.7C83.9 178.7 81.9 177.9 80.3 176.3V176.1H80.5Z" fill="#22576F"/>
<path d="M91.5 165.1L83.9 157.4V157.2H84.1L91.7 164.9V165.1H91.5Z" fill="#22576F"/>
<path d="M72.9 168.4L80.5 176.1V176.3H80.3L72.7 168.6V168.4H72.9Z" fill="#22576F"/>
<path d="M93.6 163L85.9 155.4V155.2H86.1L93.7 162.8V163H93.6Z" fill="#22576F"/>
<path d="M86.1 155.4L70.8 170.7H70.7V170.5L85.9 155.2H86.1V155.4Z" fill="#22576F"/>
<path d="M70.8 170.5L78.5 178.1V178.3H78.3L70.7 170.7V170.5H70.8Z" fill="#22576F"/>
<path d="M79.5 175.1C81 176.6 83 177.4 85 177.4C87 177.4 89 176.6 90.5 175.1C92 173.6 92.8 171.6 92.8 169.6C92.8 167.6 92 165.6 90.5 164.1V163.9H90.7C92.3 165.5 93.1 167.5 93.1 169.6C93.1 171.7 92.3 173.7 90.7 175.3C89.1 176.9 87.1 177.7 85 177.7C82.9 177.7 80.9 176.9 79.3 175.3V175.1H79.5Z" fill="#22576F"/>
<path d="M107 128.3C106.8 129.2 106.6 130.2 106.6 131.1C106.6 135.8 109.7 140.1 114.5 141.4C115.4 141.6 116.4 141.8 117.3 141.8C122 141.8 126.3 138.7 127.6 133.9L127.8 133.8L127.9 134C126.6 138.9 122.2 142.1 117.4 142.1C116.5 142.1 115.5 142 114.6 141.7C109.7 140.4 106.5 136 106.5 131.2C106.5 130.3 106.6 129.3 106.9 128.4L107.1 128.3H107Z" fill="#22576F"/>
<path d="M109.7 129C109.5 129.7 109.4 130.4 109.4 131C109.4 134.4 111.7 137.6 115.2 138.5C115.9 138.7 116.6 138.8 117.2 138.8C120.6 138.8 123.8 136.5 124.7 133L124.9 132.9L125 133.1C124 136.7 120.8 139.1 117.2 139.1C116.5 139.1 115.8 139 115.1 138.8C111.5 137.8 109.1 134.6 109.1 131C109.1 130.3 109.2 129.6 109.4 128.9L109.6 128.8L109.7 129Z" fill="#22576F"/>
<path d="M124.8 133.1L127.6 122.7L127.7 122.6L127.8 122.7L125 133.1L124.9 133.2L124.8 133.1Z" fill="#22576F"/>
<path d="M112.5 118.6L109.7 129L109.6 129.1L109.5 129L112.3 118.6L112.4 118.5L112.5 118.6Z" fill="#22576F"/>
<path d="M127.6 133.8L130.4 123.4L130.5 123.3L130.6 123.5L127.8 133.9L127.7 134L127.6 133.8Z" fill="#22576F"/>
<path d="M130.5 123.5L109.6 118L109.5 117.8L109.7 117.7L130.5 123.3L130.6 123.5H130.5Z" fill="#22576F"/>
<path d="M109.8 117.9L107 128.3L106.8 128.4L106.7 128.2L109.5 117.8L109.7 117.7L109.8 117.9Z" fill="#22576F"/>
<path d="M110.1 127.7C109.9 128.4 109.8 129.1 109.8 129.7C109.8 133.1 112.1 136.3 115.6 137.2C116.3 137.4 117 137.5 117.6 137.5C121 137.5 124.2 135.2 125.1 131.7L125.3 131.6L125.4 131.8C124.4 135.4 121.2 137.8 117.6 137.8C116.9 137.8 116.2 137.7 115.5 137.5C111.9 136.5 109.5 133.3 109.5 129.7C109.5 129 109.6 128.3 109.8 127.6L110 127.5L110.1 127.7Z" fill="#22576F"/>
<path d="M20.6 76H17.2L17.1 75.8L17.2 75.7H20.6L20.8 75.8L20.6 76Z" fill="#22576F"/>
<path d="M20.6 75.7L20.7 75.6L20.8 75.5L20.9 75.6C20.9 75.8 20.7 76 20.5 76L20.4 75.9L20.6 75.7Z" fill="#22576F"/>
<path d="M20.8 75.2L20.7 75.1L20.6 75L20.7 74.9C20.9 74.9 21.1 75.1 21.1 75.3L21 75.4L20.8 75.2Z" fill="#22576F"/>
<path d="M20.8 75.6V75.2L20.9 75L21 75.2V75.6L20.9 75.7L20.8 75.6Z" fill="#22576F"/>
<path d="M17.2 74.9L17.4 75L17.5 75.1L17.4 75.2C17.3 75.2 17.1 75.1 17 75V74.8L17.2 74.9Z" fill="#22576F"/>
<path d="M17.4 75.7L17.2 75.8H17V75.6C17.1 75.5 17.2 75.4 17.4 75.4L17.5 75.5L17.4 75.7Z" fill="#22576F"/>
<path d="M19 75.7H17.4L17.3 75.6L17.4 75.5H19L19.2 75.6L19 75.7Z" fill="#22576F"/>
<path d="M17.4 75H19L19.2 75.1L19 75.2H17.4L17.3 75.1L17.4 75Z" fill="#22576F"/>
<path d="M19.1 75.3L19 75.2V75H19.1L19.3 75.2V75.3H19.1Z" fill="#22576F"/>
<path d="M19.1 75.5V75.3L19.2 75.1L19.3 75.3V75.5L19.2 75.6L19.1 75.5Z" fill="#22576F"/>
<path d="M17 74.7H17.2L17.3 74.8L17.2 74.9C17.1 74.9 17 74.9 16.9 74.8L16.8 74.6L17 74.7Z" fill="#22576F"/>
<path d="M17.2 76H17L16.8 75.9L16.9 75.7C17 75.7 17.1 75.6 17.2 75.6L17.3 75.7L17.2 76Z" fill="#22576F"/>
<path d="M17.2 74.8H20.6L20.8 74.9L20.6 75H17.2L17.1 74.9L17.2 74.8Z" fill="#22576F"/>
<path d="M17.1 75C17 74.9 16.8 74.8 16.7 74.8C16.6 74.8 16.4 74.8 16.3 74.9C16.2 75 16.1 75.2 16.1 75.3C16.1 75.4 16.1 75.6 16.2 75.7C16.3 75.8 16.5 75.9 16.6 75.9C16.7 75.9 16.9 75.9 17 75.8H17.2V76C17 76.1 16.8 76.2 16.7 76.2C16.5 76.2 16.3 76.1 16.1 75.9C16 75.7 15.9 75.5 15.9 75.4C15.9 75.2 16 75 16.2 74.8C16.4 74.7 16.6 74.6 16.7 74.6C16.9 74.6 17.1 74.7 17.3 74.9V75.1L17.1 75Z" fill="#22576F"/>
<path d="M17.1 75.1C17 75 16.9 75 16.8 75C16.7 75 16.6 75 16.5 75.1C16.4 75.2 16.4 75.3 16.4 75.4C16.4 75.5 16.4 75.6 16.5 75.7C16.6 75.8 16.7 75.8 16.8 75.8C16.9 75.8 17 75.8 17.1 75.7H17.3V75.9C17.2 76 17 76.1 16.8 76.1C16.6 76.1 16.4 76 16.3 75.9C16.2 75.8 16.1 75.6 16.1 75.4C16.1 75.2 16.2 75 16.3 74.9C16.4 74.8 16.6 74.7 16.8 74.7C17 74.7 17.2 74.8 17.3 74.9V75.1H17.1Z" fill="#22576F"/>
<path d="M19 75.5L19.1 75.4H19.3V75.6L19.1 75.7H19V75.5Z" fill="#22576F"/>
<path d="M27.5 68H28.9L29 68.2L28.9 68.3H27.5L27.4 68.2L27.5 68Z" fill="#22576F"/>
<path d="M28.9 82.7H27.5L27.4 82.6L27.5 82.4H28.9L29 82.6L28.9 82.7Z" fill="#22576F"/>
<path d="M28.3 80.6C28.5 80.6 28.7 80.4 28.7 80.2L28.8 80.1L28.9 80.2C28.9 80.6 28.6 80.8 28.2 80.8L28.1 80.7L28.3 80.6Z" fill="#22576F"/>
<path d="M21.1 79.4C23.4 80.1 25.9 80.5 28.3 80.6L28.4 80.7L28.3 80.8C25.8 80.7 23.4 80.3 21 79.6L20.9 79.4H21.1Z" fill="#22576F"/>
<path d="M21.1 71.3C19.5 71.8 18.3 73.2 18.1 74.9L18 75L17.9 74.9C18.1 73.1 19.3 71.6 21 71.1L21.2 71.2L21.1 71.3Z" fill="#22576F"/>
<path d="M18.1 75.8C18.3 77.5 19.4 78.9 21.1 79.4L21.2 79.6L21 79.7C19.3 79.2 18 77.7 17.9 75.9L18 75.8H18.1Z" fill="#22576F"/>
<path d="M28.3 70.1C25.8 70.2 23.4 70.6 21.1 71.3L20.9 71.2L21 71C23.4 70.3 25.8 69.9 28.3 69.8L28.4 69.9L28.3 70.1Z" fill="#22576F"/>
<path d="M28.8 70.5C28.8 70.3 28.6 70.1 28.4 70.1L28.3 70L28.4 69.9C28.8 69.9 29.1 70.2 29.1 70.6L29 70.7L28.8 70.5Z" fill="#22576F"/>
<path d="M29 70.5V80.2L28.9 80.3L28.8 80.2V70.5L28.9 70.4L29 70.5Z" fill="#22576F"/>
<path d="M11.7 82.6V82.5H28.9C30 82.5 30.9 81.6 30.9 80.5V70.4C30.9 69.3 30 68.4 28.9 68.4H11.8V82.7H11.7V82.6H11.6V68.2V68.1H11.7H28.9C30.2 68.1 31.2 69.1 31.2 70.4V80.5C31.2 81.8 30.2 82.8 28.9 82.8H11.7V82.6Z" fill="#22576F"/>
<path d="M19.3 74.8C19.1 74.8 19 74.9 18.8 75H18.6V74.8C18.8 74.6 19 74.5 19.2 74.5L19.3 74.6V74.8Z" fill="#22576F"/>
<path d="M18.9 75.8C19 75.9 19.2 76 19.4 76L19.5 76.1L19.4 76.2C19.2 76.2 18.9 76.1 18.8 75.9V75.7L18.9 75.8Z" fill="#22576F"/>
<path d="M19.3 76C19.5 76 19.6 75.9 19.8 75.8H20V76C19.8 76.2 19.6 76.3 19.4 76.3L19.3 76.2V76Z" fill="#22576F"/>
<path d="M19.8 75C19.7 74.9 19.5 74.8 19.3 74.8L19.2 74.7L19.3 74.6C19.5 74.6 19.8 74.7 19.9 74.9V75.1L19.8 75Z" fill="#22576F"/>
<path d="M27.8 80.2C27.9 80.2 28 80.1 28 80L28.1 79.9L28.2 80C28.2 80.3 28 80.5 27.7 80.5L27.6 80.4L27.8 80.2Z" fill="#22576F"/>
<path d="M22.2 79.7C23.7 80 25.2 80.2 26.7 80.2C27.1 80.2 27.4 80.2 27.8 80.2L27.9 80.3L27.8 80.4C27.4 80.4 27 80.4 26.7 80.4C25.2 80.4 23.7 80.2 22.2 79.9L22.1 79.8L22.2 79.7Z" fill="#22576F"/>
<path d="M21.1 71.3C21 71.3 20.9 71.4 20.7 71.4L20.5 71.3L20.6 71.1C20.7 71.1 20.9 71 21 71L21.2 71.1L21.1 71.3Z" fill="#22576F"/>
<path d="M20.8 79.3C20.9 79.3 21 79.4 21.2 79.4L21.3 79.6L21.1 79.7C21 79.7 20.8 79.6 20.7 79.6L20.6 79.4L20.8 79.3Z" fill="#22576F"/>
<path d="M27.8 70.6C27.4 70.6 27.1 70.6 26.7 70.6C25.2 70.6 23.7 70.8 22.2 71.1L22.1 71L22.2 70.9C23.7 70.6 25.2 70.4 26.7 70.4C27.1 70.4 27.5 70.4 27.8 70.4L27.9 70.5L27.8 70.6Z" fill="#22576F"/>
<path d="M28 70.8C28 70.7 27.9 70.6 27.8 70.6L27.7 70.5L27.8 70.4C28.1 70.4 28.3 70.6 28.3 70.9L28.2 71L28 70.8Z" fill="#22576F"/>
<path d="M28 79.9V70.8L28.1 70.7L28.3 70.8V79.9L28.1 80.1L28 79.9Z" fill="#22576F"/>
<path d="M22.4 38.7C23.3 39 24.3 39.1 25.2 39.1L25.3 39.2L25.2 39.3C24.2 39.3 23.3 39.2 22.3 38.9L22.2 38.7H22.4Z" fill="#22576F"/>
<path d="M20.2 37.7C20.9 38.2 21.6 38.5 22.4 38.8L22.5 39L22.3 39.1C21.5 38.9 20.7 38.5 20 38V37.8L20.2 37.7Z" fill="#22576F"/>
<path d="M19.5 37.1C19.7 37.3 19.9 37.5 20.2 37.7V37.9H20C19.8 37.7 19.5 37.5 19.3 37.3V37.1H19.5Z" fill="#22576F"/>
<path d="M25.2 39.1C26.2 39.1 27.1 39 28 38.7C28.8 38.5 29.5 38.1 30.2 37.6C30.8 37.1 31.4 36.5 31.8 35.9C32.1 35.3 32.3 34.7 32.3 34.1C32.3 33.5 32.1 32.8 31.8 32.3C31.4 31.6 30.9 31 30.2 30.6C29.5 30.1 28.8 29.8 28 29.5C27.1 29.2 26.1 29.1 25.2 29.1C24.2 29.1 23.3 29.2 22.4 29.5C21.6 29.7 20.9 30.1 20.2 30.6C20 30.8 19.7 31 19.5 31.2L19.4 31.1H19.5V37.3L19.4 37.4L19.3 37.3V31V30.9C19.5 30.7 19.7 30.5 20 30.3C20.7 29.8 21.5 29.4 22.3 29.2C23.2 28.9 24.2 28.8 25.2 28.8C26.2 28.8 27.1 28.9 28.1 29.2C28.9 29.4 29.7 29.8 30.4 30.3C31.1 30.8 31.6 31.4 32 32.1C32.3 32.7 32.5 33.4 32.5 34C32.5 34.7 32.3 35.4 32 35.9C31.6 36.6 31 37.2 30.4 37.7C29.7 38.2 28.9 38.6 28.1 38.8C27.2 39.1 26.2 39.2 25.2 39.2L25.1 39.1H25.2Z" fill="#22576F"/>
<path d="M16.2 38C18.5 38.1 20.8 38.4 23.1 38.9L23.2 39L23.1 39.1C20.8 38.7 18.6 38.4 16.3 38.2L16.2 38.1V38Z" fill="#22576F"/>
<path d="M17 32.1H16.9C16.8 31.6 16.6 31.1 16.4 30.6C16.1 30.1 15.8 29.6 15.3 29.3C15.2 29.2 15 29.2 14.9 29.2H14.8L12.7 29.6L12.6 29.8V38.5L12.7 38.7L14.8 39.1H14.9C15.1 39.1 15.2 39.1 15.3 39C15.8 38.7 16.2 38.2 16.4 37.7C16.6 37.2 16.8 36.7 16.9 36.2C17 35.5 17.1 34.9 17.1 34.2C17.1 33.5 17 32.9 16.9 32.2L17 32.1H17.1C17.2 32.8 17.3 33.4 17.3 34.1C17.3 34.8 17.2 35.5 17.1 36.1C17 36.6 16.8 37.1 16.6 37.6C16.3 38.2 15.9 38.7 15.4 39C15.2 39.1 15 39.2 14.8 39.2H14.6L12.5 38.8C12.3 38.8 12.2 38.6 12.2 38.4V29.7C12.2 29.5 12.3 29.3 12.5 29.3L14.6 28.9H14.8C15 28.9 15.2 29 15.4 29.1C15.9 29.5 16.3 30 16.6 30.5C16.8 31 17 31.5 17.1 32L17 32.1Z" fill="#22576F"/>
<path d="M16.1 29.9C18.4 29.8 20.7 29.5 22.9 29L23 29.1L22.9 29.2C20.6 29.6 18.3 29.9 16 30.1L15.9 30L16.1 29.9Z" fill="#22576F"/>
<path d="M14.4 34.1H14.3C14.3 33.7 14.6 33.4 15 33.4C15.4 33.4 15.7 33.7 15.7 34.1C15.7 34.5 15.4 34.8 15 34.8C14.6 34.8 14.3 34.5 14.3 34.1H14.4H14.5C14.5 34.3 14.7 34.5 14.9 34.5C15.1 34.5 15.3 34.3 15.3 34.1C15.3 33.9 15.1 33.7 14.9 33.7C14.7 33.7 14.5 33.9 14.5 34.1H14.4Z" fill="#22576F"/>
<path d="M184.4 269.4H184.3V262.6L5.1 238.7L5 238.6V232.8V232.7H5.1L190.2 257.3L190.3 257.5V269.4V269.5H190.2H184.4H184.3V269.4H184.4V269.3H190.1V257.6L5.3 232.9V238.5L184.4 262.4L184.6 262.5V269.4H184.4V269.3V269.4Z" fill="#22576F"/>
<path d="M244.1 269.4V269.5H238.3H238.2V269.4V223V222.9H238.3H244.1L244.2 223V269.4V269.5H244.1V269.4H243.9V223.1H238.4V269.3H244.1V269.4H243.9H244.1Z" fill="#22576F"/>
<path d="M236.1 117.5H204.4L204.3 117.3L204.4 117.2H236.1L236.2 117.3L236.1 117.5Z" fill="#22576F"/>
<path d="M11.7 101.7H62.6L62.7 101.8L62.6 101.9H11.7L11.6 101.8L11.7 101.7Z" fill="#22576F"/>
<path d="M16.6 223V223.1H5.1H5V223V11.8V11.7L5.1 11.6H206.5L206.6 11.7V11.8V13.3H207.9H208V13.4V17V17.1H207.9H206.6V20.5V20.6H206.5H178.2V22L178.1 22.1H178H174.7H174.6V22V20.6H68.8V46.2H70.5H70.6V46.3V54.8V54.9H70.5H66V57.6V57.7L65.9 57.8H62.6L62.5 57.7L62.4 57.6V22.3H11.8V88.3H62.4V82.1L62.5 82H62.6H65.9H66V82.1V112.3V112.4L65.9 112.5H54.4L54.3 112.4L54.2 112.3V109L54.3 108.9H54.4H62.4V91.9H11.8V108.9H19.8H19.9V109V112.3V112.4L19.8 112.5H11.8V186.4H17.4L17.5 186.5V186.6V190.6V190.7H17.4H16.8V223L16.7 223.1H16.6V223H16.5V190.6L16.6 190.5H17.2V186.7H11.7H11.6V186.6V112.3V112.2H11.7H19.7V109.1H11.7H11.6V109V91.7V91.6H11.7H62.6H62.7V91.7V109V109.1H62.6H54.5V112.2H65.8V82.2H62.7V88.4V88.5H62.6H11.7H11.6V88.4V22.2V22.1H11.7H62.6H62.7V22.2V57.5H65.8V54.8V54.7L65.9 54.6H70.4V46.4H68.7H68.6V46.3V20.5V20.4H68.7H174.7H174.8V20.5V21.9H177.9V20.5L178 20.4H206.3V17L206.4 16.9H206.5H207.8V13.5H206.5H206.4L206.3 13.4V11.9H5.2V222.9H16.6V223H16.5H16.6Z" fill="#22576F"/>
<path d="M75 186.6H75.1V190.5H75.7L75.8 190.6V193.7H190.1V173.7V173.6H190.2H190.8V169.8H183V181V181.1H182.9H113.9V186.6V186.7H113.8H75V186.6H75.1H75V186.4H113.7V181V180.9H113.8H182.8V169.6L182.9 169.5H190.9L191 169.6V173.7V173.8H190.9H190.3V193.8V193.9L190.2 194H75.7L75.6 193.9L75.5 193.8V190.7H74.9L74.8 190.6V186.6L75 186.4V186.6Z" fill="#22576F"/>
<path d="M208.2 169.6V169.8H204V178H208.1V169.6H208.2V169.8V169.6H208.3V178.1V178.2H208.2H203.9H203.8L203.7 178.1V169.6H203.8L203.9 169.5H208.2L208.3 169.6H208.2Z" fill="#22576F"/>
<path d="M234.1 169.6H234.2V178H238.3H238.4V178.1V222.9H244.8V11.9H233.9V13.4V13.5H233.8H232.5V16.9H233.8H233.9V17V20.4H236.1H236.2V20.5V106.8V106.9H236.1H233.3V110H236.1H236.2V110.1V127.4V127.5H236.1H204.4H204.3V127.4V110.1V110H204.4H207.2V106.9H204.4H204.3V106.8V104.4H198.4V133.4H236.1H236.2V133.5V169.6V169.7L236.1 169.8H234.1V169.6H234.2H234.1V169.5H235.9V133.6H198.3H198.2V133.5V104.3V104.2H198.3H204.4H204.5V104.3V106.7H207.3H207.4V106.8V110.1V110.2L207.3 110.3H204.5V127.3H235.9V110.3H233.2L233.1 110.2V110.1V106.8V106.7H233.2H235.9V20.6H233.8H233.7V20.5V17.1H232.4H232.3V17V13.4V13.3H232.4H233.7V11.8V11.7L233.8 11.6H244.9L245 11.7V11.8V223V223.1H244.9H238.3H238.2V223V178.2H234.1H234V178.1V169.6L234.1 169.5V169.6Z" fill="#22576F"/>
<path d="M92.1 46.3H92.2V54.6H198.3L198.4 54.7V54.8V79.7H204.3V46.4H178L177.9 46.3V45.2H174.8V46.3V46.4H174.7H92.1V46.3H92.2H92.1V46.2H174.6V45L174.7 44.9H178L178.1 45H178.2V46.2H204.4H204.5V46.3V79.8V79.9H204.4H198.3H198.2V79.8V54.9H92.1H92L91.9 54.8V46.3L92 46.2H92.1V46.3Z" fill="#22576F"/>
<path d="M220.2 75.2C220.9 75.2 221.5 75.8 221.5 76.5C221.5 77.2 220.9 77.8 220.2 77.8C219.5 77.8 218.9 77.2 218.9 76.5C218.9 75.8 219.5 75.2 220.2 75.2L220.3 75.3V76.5V76.6H220.2H220.1V76.5V54.9L220.2 54.8L220.3 54.9L221.4 58V58.1L221.3 58.2H220.2L220.1 58.1L220.2 58H221.1L220.3 55.8V76.7V76.8H220.2H220.1V76.7V75.5H220.2V75.6C219.6 75.6 219.1 76.1 219.1 76.7C219.1 77.3 219.6 77.8 220.2 77.8C220.8 77.8 221.3 77.3 221.3 76.7C221.3 76.1 220.8 75.6 220.2 75.6L220.1 75.5L220.2 75.2Z" fill="#22576F"/>
<path d="M146.8 33.4C146.8 32.5 147.5 31.8 148.4 31.8C149.3 31.8 150 32.5 150 33.4C150 34.3 149.3 35 148.4 35C147.5 35 146.8 34.3 146.8 33.4L146.9 33.3H148.3H148.4V33.4V33.5H148.3H119.5L119.4 33.4L119.5 33.3L123.1 32H123.2L123.3 32.1V33.4L123.2 33.5L123.1 33.4V32.3L120.3 33.3H148.4H148.5V33.4V33.5H148.4H147V33.4H147.1C147.1 34.1 147.7 34.7 148.4 34.7C149.1 34.7 149.7 34.1 149.7 33.4C149.7 32.7 149.1 32.1 148.4 32.1C147.7 32.1 147.1 32.7 147.1 33.4L147 33.5L146.8 33.4Z" fill="#22576F"/>
<path d="M234.1 178.2H208.2L208.1 178.1L208.2 178H234.1L234.2 178.1L234.1 178.2Z" fill="#22576F"/>
<path d="M234.1 169.8H208.2L208.1 169.6L208.2 169.5H234.1L234.2 169.6L234.1 169.8Z" fill="#22576F"/>
<path d="M232.4 17.1H207.9L207.8 17L207.9 16.9H232.4L232.5 17L232.4 17.1Z" fill="#22576F"/>
<path d="M232.4 13.5H207.9L207.8 13.4L207.9 13.3H232.4L232.5 13.4L232.4 13.5Z" fill="#22576F"/>
<path d="M115.3 220.5H114.5V221.6H114.1V218.5H115.3C116 218.5 116.5 218.9 116.5 219.5C116.5 220.2 115.9 220.5 115.3 220.5ZM115.3 218.8H114.5V220.2H115.3C115.8 220.2 116.2 219.9 116.2 219.5C116.1 219 115.8 218.8 115.3 218.8Z" fill="#22576F"/>
<path d="M120 221.6H119.6L119.2 220.8H117.5L117.1 221.6H116.7L118.1 218.5H118.4L120 221.6ZM118.4 218.9L117.7 220.5H119.1L118.4 218.9Z" fill="#22576F"/>
<path d="M121.7 221.6H121.3V218.8H120.3V218.5H122.8V218.8H121.8V221.6H121.7Z" fill="#22576F"/>
<path d="M124 218.5V221.6H123.6V218.5H124Z" fill="#22576F"/>
<path d="M126.6 221.7C125.7 221.7 125 221 125 220.1C125 219.2 125.6 218.5 126.6 218.5C127.5 218.5 128.2 219.2 128.2 220.1C128.2 221 127.5 221.7 126.6 221.7ZM126.6 218.8C125.9 218.8 125.4 219.4 125.4 220.1C125.4 220.8 125.9 221.4 126.6 221.4C127.3 221.4 127.8 220.8 127.8 220.1C127.8 219.4 127.3 218.8 126.6 218.8Z" fill="#22576F"/>
<path d="M26.9 58H26.1V59.1H25.7V56H27C27.7 56 28.2 56.4 28.2 57C28.2 57.6 27.6 58 26.9 58ZM27 56.3H26.2V57.7H27C27.5 57.7 27.9 57.4 27.9 57C27.8 56.5 27.5 56.3 27 56.3Z" fill="#22576F"/>
<path d="M30.5 59.1C29.6 59.1 28.9 58.4 28.9 57.5C28.9 56.6 29.5 55.9 30.5 55.9C31.4 55.9 32.1 56.6 32.1 57.5C32.1 58.4 31.5 59.1 30.5 59.1ZM30.5 56.2C29.8 56.2 29.3 56.8 29.3 57.5C29.3 58.2 29.8 58.8 30.5 58.8C31.2 58.8 31.7 58.2 31.7 57.5C31.7 56.8 31.2 56.2 30.5 56.2Z" fill="#22576F"/>
<path d="M34.9 56H35.2L36.1 58.6L37 56H37.4L36.3 59.1H36L35.1 56.6L34.2 59.1H33.9L32.8 56H33.2L34.1 58.6L34.9 56Z" fill="#22576F"/>
<path d="M39.2 59.1H38.1V56H39.2C40.2 56 40.9 56.7 40.9 57.6C40.9 58.5 40.2 59.1 39.2 59.1ZM39.2 56.3H38.5V58.8H39.2C40 58.8 40.5 58.3 40.5 57.6C40.5 56.8 40 56.3 39.2 56.3Z" fill="#22576F"/>
<path d="M44.1 56.3H42.2V57.4H43.9V57.7H42.2V58.8H44.1V59.1H41.8V56H44.1V56.3Z" fill="#22576F"/>
<path d="M47.2 59.1L46.3 57.9H45.4V59.1H45V56H46.3C47 56 47.4 56.4 47.4 56.9C47.4 57.4 47 57.7 46.6 57.8L47.6 59.1H47.2ZM46.4 56.3H45.4V57.6H46.4C46.9 57.6 47.2 57.4 47.2 57C47.2 56.5 46.9 56.3 46.4 56.3Z" fill="#22576F"/>
<path d="M79.4 33.8C80.1 34 80.4 34.2 80.4 34.7C80.4 35.2 80 35.6 79.3 35.6C78.8 35.6 78.4 35.4 78 35.1L78.2 34.8C78.5 35.1 78.8 35.2 79.3 35.2C79.7 35.2 80 35 80 34.7C80 34.4 79.8 34.2 79.2 34.1C78.5 33.9 78.2 33.7 78.2 33.2C78.2 32.7 78.6 32.3 79.2 32.3C79.7 32.3 80 32.4 80.3 32.7L80.1 33C79.8 32.8 79.5 32.7 79.2 32.7C78.8 32.7 78.5 32.9 78.5 33.2C78.6 33.5 78.7 33.7 79.4 33.8Z" fill="#22576F"/>
<path d="M82.5 35.6H82.1V32.8H81.1V32.5H83.6V32.8H82.6V35.6H82.5Z" fill="#22576F"/>
<path d="M85.8 35.6C84.9 35.6 84.2 34.9 84.2 34C84.2 33.1 84.8 32.4 85.8 32.4C86.7 32.4 87.4 33.1 87.4 34C87.4 34.9 86.7 35.6 85.8 35.6ZM85.8 32.7C85.1 32.7 84.6 33.3 84.6 34C84.6 34.7 85.1 35.3 85.8 35.3C86.5 35.3 87 34.7 87 34C87 33.3 86.5 32.7 85.8 32.7Z" fill="#22576F"/>
<path d="M90.5 35.6L89.6 34.4H88.7V35.6H88.3V32.5H89.6C90.3 32.5 90.7 32.9 90.7 33.4C90.7 33.9 90.3 34.2 89.9 34.3L90.9 35.6H90.5ZM89.7 32.8H88.7V34.1H89.7C90.2 34.1 90.5 33.9 90.5 33.5C90.5 33 90.2 32.8 89.7 32.8Z" fill="#22576F"/>
<path d="M94.8 35.6H94.4L94 34.8H92.3L91.9 35.6H91.5L92.9 32.5H93.2L94.8 35.6ZM93.2 32.8L92.5 34.4H93.9L93.2 32.8Z" fill="#22576F"/>
<path d="M96.9 35.6C95.9 35.6 95.3 34.9 95.3 34C95.3 33.1 95.9 32.4 96.9 32.4C97.4 32.4 97.8 32.6 98.1 32.8L97.9 33.1C97.7 32.9 97.4 32.7 97 32.7C96.3 32.7 95.8 33.3 95.8 34C95.8 34.7 96.3 35.3 97 35.3C97.4 35.3 97.7 35.2 97.9 35V34.2H97V33.9H98.3V35.1C97.9 35.4 97.5 35.6 96.9 35.6Z" fill="#22576F"/>
<path d="M101.5 32.8H99.6V33.9H101.3V34.2H99.6V35.3H101.5V35.6H99.2V32.5H101.5V32.8Z" fill="#22576F"/>
<path d="M131.1 98.1H131.4L132.3 100.7L133.2 98.1H133.6L132.5 101.2H132.2L131.3 98.7L130.4 101.2H130.1L129 98.1H129.4L130.3 100.7L131.1 98.1Z" fill="#22576F"/>
<path d="M135.7 101.3C134.8 101.3 134.1 100.6 134.1 99.7C134.1 98.8 134.7 98.1 135.7 98.1C136.6 98.1 137.3 98.8 137.3 99.7C137.3 100.6 136.7 101.3 135.7 101.3ZM135.7 98.4C135 98.4 134.5 99 134.5 99.7C134.5 100.4 135 101 135.7 101C136.4 101 136.9 100.4 136.9 99.7C136.9 99 136.5 98.4 135.7 98.4Z" fill="#22576F"/>
<path d="M140.5 101.2L139.6 100H138.7V101.2H138.3V98.1H139.6C140.3 98.1 140.7 98.5 140.7 99C140.7 99.5 140.3 99.8 139.9 99.9L140.9 101.2H140.5ZM139.7 98.5H138.7V99.8H139.7C140.2 99.8 140.5 99.6 140.5 99.2C140.5 98.7 140.2 98.5 139.7 98.5Z" fill="#22576F"/>
<path d="M144.5 101.2H144L142.8 99.7L142.1 100.4V101.2H141.7V98.1H142.1V100L143.9 98.1H144.4L143.1 99.5L144.5 101.2Z" fill="#22576F"/>
<path d="M215.5 182.4H213.6V183.5H215.3V183.8H213.6V184.9H215.5V185.2H213.2V182.1H215.5V182.4Z" fill="#22576F"/>
<path d="M218.8 182.1H219.1V185.2H218.8L216.8 182.6V185.2H216.5V182.1H216.8L218.8 184.6V182.1Z" fill="#22576F"/>
<path d="M221.4 185.2H221V182.4H220V182.1H222.5V182.4H221.5V185.2H221.4Z" fill="#22576F"/>
<path d="M225.4 185.2L224.5 184H223.6V185.2H223.2V182.1H224.5C225.2 182.1 225.6 182.5 225.6 183C225.6 183.5 225.2 183.8 224.8 183.9L225.8 185.2H225.4ZM224.6 182.5H223.6V183.8H224.6C225.1 183.8 225.4 183.6 225.4 183.2C225.4 182.7 225.1 182.5 224.6 182.5Z" fill="#22576F"/>
<path d="M228 185.2H227.6V184L226.3 182.1H226.7L227.8 183.7L228.9 182.1H229.3L228 184V185.2Z" fill="#22576F"/>
<path d="M214.3 2.7H212.4V3.8H214.1V4.10001H212.4V5.2H214.3V5.5H212V2.39999H214.3V2.7Z" fill="#22576F"/>
<path d="M217.5 2.3H217.8V5.39999H217.5L215.5 2.8V5.39999H215.2V2.3H215.5L217.5 4.8V2.3Z" fill="#22576F"/>
<path d="M220.1 5.5H219.7V2.7H218.7V2.39999H221.2V2.7H220.2V5.5H220.1Z" fill="#22576F"/>
<path d="M224.2 5.5L223.3 4.3H222.4V5.5H222V2.39999H223.3C224 2.39999 224.4 2.8 224.4 3.3C224.4 3.8 224 4.1 223.6 4.2L224.6 5.5H224.2ZM223.4 2.7H222.4V4H223.4C223.9 4 224.2 3.79999 224.2 3.39999C224.2 2.89999 223.9 2.7 223.4 2.7Z" fill="#22576F"/>
<path d="M226.7 5.5H226.3V4.3L225 2.39999H225.4L226.5 4L227.6 2.39999H228L226.7 4.3V5.5Z" fill="#22576F"/>
<path d="M218.1 82.1H217V79H218.1C219.1 79 219.8 79.7 219.8 80.6C219.8 81.5 219.1 82.1 218.1 82.1ZM218.1 79.3H217.4V81.8H218.1C218.9 81.8 219.4 81.3 219.4 80.6C219.4 79.9 218.9 79.3 218.1 79.3Z" fill="#22576F"/>
<path d="M223.1 79H223.4V82.1H223.1L221.1 79.5V82.1H220.8V79H221.1L223.1 81.5V79Z" fill="#22576F"/>
<path d="M154.6 33.5C154.6 34.4 154.1 34.9 153.3 34.9C152.5 34.9 152 34.4 152 33.5V31.7H152.4V33.5C152.4 34.2 152.8 34.6 153.4 34.6C154 34.6 154.3 34.3 154.3 33.6V31.8H154.7V33.5H154.6Z" fill="#22576F"/>
<path d="M156.8 33.7H156V34.8H155.6V31.7H156.8C157.5 31.7 158 32.1 158 32.7C158 33.4 157.5 33.7 156.8 33.7ZM156.8 32H156V33.4H156.8C157.3 33.4 157.7 33.1 157.7 32.7C157.7 32.3 157.3 32 156.8 32Z" fill="#22576F"/>
</g>
<defs>
<clipPath id="clip0_0_1">
<rect width="871.2" height="487.3" fill="white" transform="translate(5 -191)"/>
</clipPath>
</defs>
</svg>
