<?xml version="1.0" encoding="utf-8"?>
<!-- Generator: Adobe Illustrator 25.2.0, SVG Export Plug-In . SVG Version: 6.00 Build 0)  -->
<svg version="1.1" id="Layer_1" xmlns="http://www.w3.org/2000/svg" xmlns:xlink="http://www.w3.org/1999/xlink" x="0px" y="0px"
	 viewBox="0 0 267.4 321" style="enable-background:new 0 0 267.4 321;" xml:space="preserve">
<style type="text/css">
	.st0{fill:#93A1B1;}
	.st1{fill:#00516B;}
	.st2{fill-rule:evenodd;clip-rule:evenodd;fill:#00516B;}
	.st3{fill:#245169;}
</style>
<g>
	<g>
		<rect x="10.7" y="198.8" class="st0" width="0.2" height="1.6"/>
	</g>
	<g>
		<rect x="10.7" y="106" class="st0" width="0.2" height="8"/>
	</g>
	<g>
		<rect x="10.7" y="117.7" class="st0" width="0.2" height="29.8"/>
	</g>
	<g>
		<rect x="16.7" y="198.8" class="st0" width="0.2" height="1.6"/>
	</g>
	<g>
		<rect x="16.7" y="106" class="st0" width="0.2" height="11.7"/>
	</g>
	<g>
		<rect x="16.7" y="137" class="st0" width="0.2" height="10.5"/>
	</g>
	<g>
		<rect x="22.8" y="198.8" class="st0" width="0.2" height="1.6"/>
	</g>
	<g>
		<rect x="22.8" y="106" class="st0" width="0.2" height="41.5"/>
	</g>
	<g>
		<rect x="28.8" y="180.2" class="st0" width="0.2" height="20.2"/>
	</g>
	<g>
		<rect x="28.8" y="106" class="st0" width="0.2" height="60.2"/>
	</g>
	<g>
		<rect x="34.8" y="180.2" class="st0" width="0.2" height="20.2"/>
	</g>
	<g>
		<rect x="34.8" y="106" class="st0" width="0.2" height="60.2"/>
	</g>
	<g>
		<rect x="40.8" y="106" class="st0" width="0.2" height="94.4"/>
	</g>
	<g>
		<rect x="46.8" y="106" class="st0" width="0.2" height="94.4"/>
	</g>
	<g>
		<rect x="52.8" y="106" class="st0" width="0.2" height="94.4"/>
	</g>
	<g>
		<rect x="58.9" y="117.7" class="st0" width="0.2" height="82.7"/>
	</g>
	<g>
		<rect x="58.9" y="106" class="st0" width="0.2" height="8"/>
	</g>
	<g>
		<rect x="64.9" y="117.7" class="st0" width="0.2" height="82.7"/>
	</g>
	<g>
		<rect x="70.9" y="60.2" class="st0" width="0.2" height="140.2"/>
	</g>
	<g>
		<rect x="70.9" y="53.6" class="st0" width="0.2" height="5"/>
	</g>
	<g>
		<rect x="76.9" y="186.4" class="st0" width="0.2" height="14.1"/>
	</g>
	<g>
		<rect x="76.9" y="48.9" class="st0" width="0.2" height="5.4"/>
	</g>
	<g>
		<rect x="76.9" y="63.7" class="st0" width="0.2" height="115.1"/>
	</g>
	<g>
		<rect x="76.9" y="55.9" class="st0" width="0.2" height="6.2"/>
	</g>
	<g>
		<rect x="82.9" y="192.2" class="st0" width="0.2" height="8.2"/>
	</g>
	<g>
		<rect x="82.9" y="48.9" class="st0" width="0.2" height="8.9"/>
	</g>
	<g>
		<rect x="82.9" y="67.2" class="st0" width="0.2" height="105.7"/>
	</g>
	<g>
		<rect x="82.9" y="59.4" class="st0" width="0.2" height="6.2"/>
	</g>
	<g>
		<rect x="88.9" y="194.6" class="st0" width="0.2" height="5.9"/>
	</g>
	<g>
		<rect x="88.9" y="48.9" class="st0" width="0.2" height="12.4"/>
	</g>
	<g>
		<rect x="88.9" y="70.7" class="st0" width="0.2" height="96.2"/>
	</g>
	<g>
		<rect x="88.9" y="62.9" class="st0" width="0.2" height="6.2"/>
	</g>
	<g>
		<rect x="94.9" y="193.7" class="st0" width="0.2" height="6.8"/>
	</g>
	<g>
		<rect x="94.9" y="48.9" class="st0" width="0.2" height="121.5"/>
	</g>
	<g>
		<rect x="101" y="187.9" class="st0" width="0.2" height="12.6"/>
	</g>
	<g>
		<rect x="101" y="53.6" class="st0" width="0.2" height="123.8"/>
	</g>
	<g>
		<rect x="107" y="53.6" class="st0" width="0.2" height="146.9"/>
	</g>
	<g>
		<rect x="113" y="139.8" class="st0" width="0.2" height="60.7"/>
	</g>
	<g>
		<rect x="113" y="53.6" class="st0" width="0.2" height="1.6"/>
	</g>
	<g>
		<rect x="113" y="80.9" class="st0" width="0.2" height="56.6"/>
	</g>
	<g>
		<rect x="119" y="149.1" class="st0" width="0.2" height="51.4"/>
	</g>
	<g>
		<rect x="119" y="53.6" class="st0" width="0.2" height="1.6"/>
	</g>
	<g>
		<rect x="119" y="80.9" class="st0" width="0.2" height="43.7"/>
	</g>
	<g>
		<rect x="125" y="150.6" class="st0" width="0.2" height="43.6"/>
	</g>
	<g>
		<rect x="125" y="53.6" class="st0" width="0.2" height="1.6"/>
	</g>
	<g>
		<rect x="125" y="80.9" class="st0" width="0.2" height="45.3"/>
	</g>
	<g>
		<rect x="131" y="149" class="st0" width="0.2" height="45.2"/>
	</g>
	<g>
		<rect x="131" y="53.6" class="st0" width="0.2" height="1.6"/>
	</g>
	<g>
		<rect x="131" y="80.9" class="st0" width="0.2" height="46.9"/>
	</g>
	<g>
		<rect x="137" y="140" class="st0" width="0.2" height="54.2"/>
	</g>
	<g>
		<rect x="137" y="53.6" class="st0" width="0.2" height="1.6"/>
	</g>
	<g>
		<rect x="137" y="112.9" class="st0" width="0.2" height="16.5"/>
	</g>
	<g>
		<rect x="137" y="80.9" class="st0" width="0.2" height="14.4"/>
	</g>
	<g>
		<rect x="143.1" y="112.9" class="st0" width="0.2" height="71.7"/>
	</g>
	<g>
		<rect x="143.1" y="53.6" class="st0" width="0.2" height="1.6"/>
	</g>
	<g>
		<rect x="143.1" y="80.9" class="st0" width="0.2" height="14.4"/>
	</g>
	<g>
		<rect x="149.1" y="112.9" class="st0" width="0.2" height="71.7"/>
	</g>
	<g>
		<rect x="149.1" y="53.6" class="st0" width="0.2" height="1.6"/>
	</g>
	<g>
		<rect x="149.1" y="80.9" class="st0" width="0.2" height="14.4"/>
	</g>
	<g>
		<rect x="155.1" y="135.9" class="st0" width="0.2" height="48.7"/>
	</g>
	<g>
		<rect x="155.1" y="15.4" class="st0" width="0.2" height="28.8"/>
	</g>
	<g>
		<rect x="155.1" y="112.9" class="st0" width="0.2" height="16.8"/>
	</g>
	<g>
		<rect x="155.1" y="53.6" class="st0" width="0.2" height="1.6"/>
	</g>
	<g>
		<rect x="155.1" y="80.9" class="st0" width="0.2" height="14.4"/>
	</g>
	<g>
		<rect x="161.1" y="148.3" class="st0" width="0.2" height="36.3"/>
	</g>
	<g>
		<rect x="161.1" y="15.4" class="st0" width="0.2" height="28.8"/>
	</g>
	<g>
		<rect x="161.1" y="80.9" class="st0" width="0.2" height="47.2"/>
	</g>
	<g>
		<rect x="161.1" y="53.6" class="st0" width="0.2" height="1.6"/>
	</g>
	<g>
		<rect x="167.1" y="150.6" class="st0" width="0.2" height="34"/>
	</g>
	<g>
		<rect x="167.1" y="15.4" class="st0" width="0.2" height="28.8"/>
	</g>
	<g>
		<rect x="167.1" y="80.9" class="st0" width="0.2" height="45.6"/>
	</g>
	<g>
		<rect x="167.1" y="53.6" class="st0" width="0.2" height="1.6"/>
	</g>
	<g>
		<rect x="173.1" y="149.6" class="st0" width="0.2" height="35"/>
	</g>
	<g>
		<rect x="173.1" y="15.4" class="st0" width="0.2" height="28.8"/>
	</g>
	<g>
		<rect x="173.1" y="80.9" class="st0" width="0.2" height="44"/>
	</g>
	<g>
		<rect x="173.1" y="53.6" class="st0" width="0.2" height="1.6"/>
	</g>
	<g>
		<rect x="179.1" y="143.7" class="st0" width="0.2" height="40.9"/>
	</g>
	<g>
		<rect x="179.1" y="15.4" class="st0" width="0.2" height="28.8"/>
	</g>
	<g>
		<rect x="179.1" y="80.9" class="st0" width="0.2" height="51.9"/>
	</g>
	<g>
		<rect x="179.1" y="53.6" class="st0" width="0.2" height="1.6"/>
	</g>
	<g>
		<rect x="185.2" y="79.3" class="st0" width="0.2" height="115"/>
	</g>
	<g>
		<rect x="185.2" y="15.4" class="st0" width="0.2" height="28.8"/>
	</g>
	<g>
		<rect x="185.2" y="53.6" class="st0" width="0.2" height="3.2"/>
	</g>
	<g>
		<rect x="191.2" y="79.3" class="st0" width="0.2" height="115"/>
	</g>
	<g>
		<rect x="191.2" y="15.4" class="st0" width="0.2" height="28.8"/>
	</g>
	<g>
		<rect x="191.2" y="53.6" class="st0" width="0.2" height="3.2"/>
	</g>
	<g>
		<rect x="197.2" y="79.3" class="st0" width="0.2" height="115"/>
	</g>
	<g>
		<rect x="197.2" y="17.1" class="st0" width="0.2" height="25.7"/>
	</g>
	<g>
		<rect x="197.2" y="53.6" class="st0" width="0.2" height="3.2"/>
	</g>
	<g>
		<rect x="203.2" y="53.6" class="st0" width="0.2" height="128"/>
	</g>
	<g>
		<rect x="203.2" y="15.4" class="st0" width="0.2" height="1.7"/>
	</g>
	<g>
		<rect x="203.2" y="18.5" class="st0" width="0.2" height="25.7"/>
	</g>
	<g>
		<rect x="209.2" y="53.6" class="st0" width="0.2" height="128"/>
	</g>
	<g>
		<rect x="209.2" y="15.4" class="st0" width="0.2" height="1.7"/>
	</g>
	<g>
		<rect x="209.2" y="18.5" class="st0" width="0.2" height="25.7"/>
	</g>
	<g>
		<rect x="215.2" y="141.4" class="st0" width="0.2" height="40.3"/>
	</g>
	<g>
		<rect x="215.2" y="15.4" class="st0" width="0.2" height="1.7"/>
	</g>
	<g>
		<rect x="215.2" y="81.5" class="st0" width="0.2" height="27.3"/>
	</g>
	<g>
		<rect x="215.2" y="18.5" class="st0" width="0.2" height="25.7"/>
	</g>
	<g>
		<rect x="221.3" y="141.4" class="st0" width="0.2" height="40.3"/>
	</g>
	<g>
		<rect x="221.3" y="15.4" class="st0" width="0.2" height="1.7"/>
	</g>
	<g>
		<rect x="221.3" y="81.5" class="st0" width="0.2" height="27.3"/>
	</g>
	<g>
		<rect x="221.3" y="18.5" class="st0" width="0.2" height="25.7"/>
	</g>
	<g>
		<rect x="227.3" y="141.4" class="st0" width="0.2" height="40.3"/>
	</g>
	<g>
		<rect x="227.3" y="11.5" class="st0" width="0.2" height="92.7"/>
	</g>
	<g>
		<rect x="227.3" y="112" class="st0" width="0.2" height="11.3"/>
	</g>
	<g>
		<rect x="227.3" y="105.8" class="st0" width="0.2" height="4.7"/>
	</g>
	<g>
		<rect x="233.3" y="141.4" class="st0" width="0.2" height="40.3"/>
	</g>
	<g>
		<rect x="233.3" y="11.5" class="st0" width="0.2" height="89.2"/>
	</g>
	<g>
		<rect x="233.3" y="108.6" class="st0" width="0.2" height="14.7"/>
	</g>
	<g>
		<rect x="233.3" y="102.3" class="st0" width="0.2" height="4.7"/>
	</g>
	<g>
		<rect x="239.3" y="141.4" class="st0" width="0.2" height="40.3"/>
	</g>
	<g>
		<rect x="239.3" y="11.5" class="st0" width="0.2" height="85.7"/>
	</g>
	<g>
		<rect x="239.3" y="98.8" class="st0" width="0.2" height="24.5"/>
	</g>
	<g>
		<rect x="245.3" y="141.4" class="st0" width="0.2" height="40.3"/>
	</g>
	<g>
		<rect x="245.3" y="11.5" class="st0" width="0.2" height="83"/>
	</g>
	<g>
		<rect x="245.3" y="108.1" class="st0" width="0.2" height="15.2"/>
	</g>
	<g>
		<rect x="245.3" y="95.3" class="st0" width="0.2" height="11.1"/>
	</g>
	<g>
		<rect x="251.3" y="141.4" class="st0" width="0.2" height="40.3"/>
	</g>
	<g>
		<rect x="251.3" y="11.5" class="st0" width="0.2" height="98.5"/>
	</g>
	<g>
		<rect x="251.3" y="111.6" class="st0" width="0.2" height="11.7"/>
	</g>
	<g>
		<path class="st0" d="M121.2,200.6H7.4c-0.1,0-0.1-0.1-0.1-0.1v-82.7c0-0.1,0.1-0.1,0.1-0.1h8.9v-3.5H7.4c-0.1,0-0.1-0.1-0.1-0.1
			v-8c0-0.1,0.1-0.1,0.1-0.1h56.7c0.1,0,0.1,0.1,0.1,0.1v8c0,0.1-0.1,0.1-0.1,0.1h-9v3.5h12.6V84.2H66c-0.1,0-0.1-0.1-0.1-0.1V56.8
			c0-0.1,0.1-0.1,0.1-0.1h1.7v-3.1c0-0.1,0.1-0.1,0.1-0.1h5v-4.6c0-0.1,0.1-0.1,0.1-0.1H97c0.1,0,0.1,0.1,0.1,0.1v4.6h118.2
			c0.1,0,0.1,0.1,0.1,0.1v27.8h6.6V44.3h-24.6c-0.1,0-0.1-0.1-0.1-0.1v-1.3h-3.5v1.3c0,0.1-0.1,0.1-0.1,0.1h-38.6
			c-0.1,0-0.1-0.1-0.1-0.1V15.4c0-0.1,0.1-0.1,0.1-0.1h38.6c0.1,0,0.1,0.1,0.1,0.1V17h3.5v-1.6c0-0.1,0.1-0.1,0.1-0.1h26.9v-3.8
			c0-0.1,0.1-0.1,0.1-0.1h27.5c0.1,0,0.1,0.1,0.1,0.1v27.1h1.2V11.5c0-0.1,0.1-0.1,0.1-0.1h1.6c0.1,0,0.1,0.1,0.1,0.1v3.8h2.4
			c0.1,0,0.1,0.1,0.1,0.1v96.2c0,0.1-0.1,0.1-0.1,0.1h-3.1v3.5h3.1c0.1,0,0.1,0.1,0.1,0.1v8c0,0.1-0.1,0.1-0.1,0.1h-35.3
			c-0.1,0-0.1-0.1-0.1-0.1v-8c0-0.1,0.1-0.1,0.1-0.1h3.1v-3.5h-3.1c-0.1,0-0.1-0.1-0.1-0.1v-2.7h-6.6v32.3h42c0.1,0,0.1,0.1,0.1,0.1
			v40.3c0,0.1-0.1,0.1-0.1,0.1h-59.1v12.5c0,0.1-0.1,0.1-0.1,0.1h-16c-0.1,0-0.1-0.1-0.1-0.1v-9.5h-44.7v9.5c0,0.1-0.1,0.1-0.1,0.1
			h-15.9v6.1C121.3,200.5,121.3,200.6,121.2,200.6z M7.6,200.3h113.5v-6.1c0-0.1,0.1-0.1,0.1-0.1h15.9v-9.5c0-0.1,0.1-0.1,0.1-0.1
			h44.9c0.1,0,0.1,0.1,0.1,0.1v9.5h15.8v-12.5c0-0.1,0.1-0.1,0.1-0.1h59.1v-40h-42c-0.1,0-0.1-0.1-0.1-0.1v-32.6
			c0-0.1,0.1-0.1,0.1-0.1h6.6l-0.6-1c0-0.1,0-0.1,0-0.2L245,93.8c0.1,0,0.1,0,0.2,0l0.7,1.2c0,0,0,0.1,0,0.1c0,0,0,0.1-0.1,0.1
			l-23.6,13.6v2.6h3.1l12.5-7.2c0.1,0,0.1,0,0.2,0l0.7,1.2c0,0,0,0.1,0,0.1c0,0,0,0.1-0.1,0.1l-12.5,7.2c-0.1,0-0.1,0-0.2,0
			l-0.5-0.8v3.3c0,0.1-0.1,0.1-0.1,0.1h-3.1v7.8h35v-7.8h-3.1c-0.1,0-0.1-0.1-0.1-0.1V112l-0.5,0.8c0,0.1-0.1,0.1-0.2,0l-12.5-7.2
			c0,0,0,0-0.1-0.1c0,0,0-0.1,0-0.1l0.7-1.2c0-0.1,0.1-0.1,0.2,0l12.5,7.2h3.1V15.5H255c-0.1,0-0.1-0.1-0.1-0.1v-3.8h-1.4v27.1
			c0,0.1-0.1,0.1-0.1,0.1h-1.4c-0.1,0-0.1-0.1-0.1-0.1V11.6h-27.2v3.8c0,0.1-0.1,0.1-0.1,0.1h-26.9V17h25.5c0.1,0,0.1,0.1,0.1,0.1
			v1.4c0,0.1-0.1,0.1-0.1,0.1h-25.7c-0.1,0-0.1-0.1-0.1-0.1v-1.3h-3.6c-0.1,0-0.1-0.1-0.1-0.1v-1.6h-38.4V44h38.4v-1.3
			c0-0.1,0.1-0.1,0.1-0.1h3.7c0.1,0,0.1,0.1,0.1,0.1V44h24.6c0.1,0,0.1,0.1,0.1,0.1v37.3c0,0.1-0.1,0.1-0.1,0.1h-6.8
			c-0.1,0-0.1-0.1-0.1-0.1V53.7H97c-0.1,0-0.1-0.1-0.1-0.1V49H73.1v4.1l0.5-0.8c0,0,0,0,0.1-0.1c0,0,0.1,0,0.1,0l20.8,12
			c0.1,0,0.1,0.1,0,0.2l-0.7,1.2c0,0,0,0-0.1,0.1c0,0-0.1,0-0.1,0l-20.8-12h-5v3l23.6,13.6c0.1,0,0.1,0.1,0,0.2l-0.7,1.2
			c0,0,0,0-0.1,0.1c0,0-0.1,0-0.1,0L67.1,58.1c0,0,0,0-0.1-0.1c0,0,0-0.1,0-0.1l0.6-1h-1.5v27h1.7c0.1,0,0.1,0.1,0.1,0.1v33.7
			c0,0.1-0.1,0.1-0.1,0.1H55.1V137c0,0.1-0.1,0.1-0.1,0.1h-1.4c-0.1,0-0.1-0.1-0.1-0.1v-19.2c0-0.1,0.1-0.1,0.1-0.1h1.3V114
			c0-0.1,0.1-0.1,0.1-0.1h9v-7.8H7.6v7.8h8.9c0.1,0,0.1,0.1,0.1,0.1v3.6h1.3c0.1,0,0.1,0.1,0.1,0.1V137c0,0.1-0.1,0.1-0.1,0.1h-1.4
			c-0.1,0-0.1-0.1-0.1-0.1v-19.1H7.6V200.3z M53.7,136.9h1.2v-19h-1.2V136.9z M16.6,136.9h1.2v-19h-1.2V136.9z M225.5,111.6l0.6,1
			l12.3-7.1l-0.6-1L225.5,111.6z M241.2,105.5l12.3,7.1l0.6-1l-12.3-7.1L241.2,105.5z M221.6,107.6l0.6,1l23.4-13.5l-0.6-1
			L221.6,107.6z M67.3,58l23.4,13.5l0.6-1L67.9,57L67.3,58z M73.1,53.5l20.6,11.9l0.6-1L73.7,52.5L73.1,53.5z M197.6,18.4H223v-1.2
			h-25.4V18.4z"/>
	</g>
	<g>
		<g>
			<path class="st0" d="M90.3,194.8c-3.2,0-6.3-1.3-8.6-3.6l0,0l-8.5-8.5c0,0,0-0.1,0-0.2l17-17c0,0,0.1,0,0.2,0l8.5,8.5
				c4.7,4.7,4.7,12.4,0,17.2C96.6,193.5,93.5,194.8,90.3,194.8z M81.8,191c2.2,2.2,5.2,3.5,8.4,3.5c3.2,0,6.2-1.2,8.4-3.5
				c4.6-4.6,4.6-12.2,0-16.8l-8.4-8.4l-16.8,16.8L81.8,191z"/>
		</g>
		<g>
			<path class="st0" d="M28.3,199H9c-0.1,0-0.1-0.1-0.1-0.1v-51.3c0-0.1,0.1-0.1,0.1-0.1h19.2c0.1,0,0.1,0.1,0.1,0.1V166h7v-0.7
				c0-0.1,0.1-0.1,0.1-0.1h1.2c0.1,0,0.1,0.1,0.1,0.1V181c0,0.1-0.1,0.1-0.1,0.1h-1.2c-0.1,0-0.1-0.1-0.1-0.1v-0.7h-7v18.5
				C28.4,198.9,28.4,199,28.3,199z M9.2,198.7h19v-18.5c0-0.1,0.1-0.1,0.1-0.1h7.2c0.1,0,0.1,0.1,0.1,0.1v0.7h1v-15.4h-1v0.7
				c0,0.1-0.1,0.1-0.1,0.1h-7.2c-0.1,0-0.1-0.1-0.1-0.1v-18.5h-19V198.7z"/>
		</g>
		<g>
			<path class="st0" d="M180.4,81H113c-0.1,0-0.1-0.1-0.1-0.1V55.2c0-0.1,0.1-0.1,0.1-0.1h67.4c0.1,0,0.1,0.1,0.1,0.1v25.7
				C180.5,80.9,180.5,81,180.4,81z M113.2,80.7h67.1V55.3h-67.1V80.7z"/>
		</g>
		<g>
			<path class="st0" d="M160.4,113h-27.2c-0.1,0-0.1-0.1-0.1-0.1V95.3c0-0.1,0.1-0.1,0.1-0.1h27.2c0.1,0,0.1,0.1,0.1,0.1v17.6
				C160.5,112.9,160.4,113,160.4,113z M133.2,112.7h27V95.4h-27V112.7z"/>
		</g>
		<g>
			<path class="st0" d="M198.1,79.4H182c-0.1,0-0.1-0.1-0.1-0.1V56.8c0-0.1,0.1-0.1,0.1-0.1h16.1c0.1,0,0.1,0.1,0.1,0.1v22.5
				C198.2,79.3,198.2,79.4,198.1,79.4z M182.1,79.1H198V56.9h-15.8V79.1z"/>
		</g>
		<g>
			<path class="st0" d="M125.1,150.8c-1,0-2.1-0.1-3.1-0.4c-3.1-0.8-5.8-2.9-7.4-5.7c-1.6-2.8-2.1-6.1-1.2-9.2l3.1-11.6
				c0,0,0-0.1,0.1-0.1c0,0,0.1,0,0.1,0l23.2,6.2c0.1,0,0.1,0.1,0.1,0.1l-3.1,11.6C135.4,147.2,130.4,150.8,125.1,150.8z M116.7,124
				l-3.1,11.5l0,0c-0.8,3.1-0.4,6.3,1.2,9c1.6,2.8,4.2,4.7,7.2,5.5c6.3,1.7,12.9-2.1,14.6-8.4l3.1-11.5L116.7,124z"/>
		</g>
		<g>
			<path class="st0" d="M168.4,150.8c-5.4,0-10.3-3.6-11.7-9l-3.1-11.6c0,0,0-0.1,0-0.1c0,0,0,0,0.1-0.1l23.2-6.2
				c0.1,0,0.1,0,0.1,0.1l3.1,11.6l0,0c1.7,6.5-2.1,13.1-8.6,14.9C170.5,150.6,169.4,150.8,168.4,150.8z M153.8,130.2l3.1,11.5
				c1.7,6.3,8.2,10.1,14.6,8.4c6.3-1.7,10.1-8.2,8.4-14.6l-3.1-11.5L153.8,130.2z"/>
		</g>
		<g>
			<path class="st1" d="M155.1,31.5c-0.9,0-1.7-0.7-1.7-1.6h-24.7c-0.1,0-0.1,0-0.1-0.1c0-0.1,0-0.1,0.1-0.1l4-1.5c0,0,0.1,0,0.1,0
				c0,0,0.1,0.1,0.1,0.1v1.3h20.6c0.1-0.9,0.8-1.6,1.7-1.6c1,0,1.7,0.8,1.7,1.7S156.1,31.5,155.1,31.5z M153.6,29.9
				c0.1,0.8,0.7,1.4,1.5,1.4c0.8,0,1.5-0.7,1.5-1.5s-0.7-1.5-1.5-1.5c-0.8,0-1.4,0.6-1.5,1.4h1.5c0.1,0,0.1,0.1,0.1,0.1
				s-0.1,0.1-0.1,0.1H153.6z M129.4,29.7h3.2v-1.2L129.4,29.7z"/>
		</g>
		<g>
			<path class="st1" d="M13,241.2H0.1c-0.1,0-0.1-0.1-0.1-0.1V5.7c0-0.1,0.1-0.1,0.1-0.1h224.4c0.1,0,0.1,0.1,0.1,0.1v1.7h1.5
				c0.1,0,0.1,0.1,0.1,0.1v4c0,0.1-0.1,0.1-0.1,0.1h-1.5v3.8c0,0.1-0.1,0.1-0.1,0.1h-26.9v1.6c0,0.1-0.1,0.1-0.1,0.1h-3.7
				c-0.1,0-0.1-0.1-0.1-0.1v-1.6H71.1V44H73c0.1,0,0.1,0.1,0.1,0.1v9.4c0,0.1-0.1,0.1-0.1,0.1h-5v3.1c0,0.1-0.1,0.1-0.1,0.1h-3.7
				c-0.1,0-0.1-0.1-0.1-0.1V17.4H7.6v73.5H64v-6.9c0-0.1,0.1-0.1,0.1-0.1h3.7c0.1,0,0.1,0.1,0.1,0.1v33.7c0,0.1-0.1,0.1-0.1,0.1H55
				c-0.1,0-0.1-0.1-0.1-0.1V114c0-0.1,0.1-0.1,0.1-0.1h9v-19H7.6v19h8.9c0.1,0,0.1,0.1,0.1,0.1v3.7c0,0.1-0.1,0.1-0.1,0.1H7.6v82.5
				h6.2c0.1,0,0.1,0.1,0.1,0.1v4.5c0,0.1-0.1,0.1-0.1,0.1h-0.7v36C13.1,241.1,13,241.2,13,241.2z M0.2,240.9h12.6v-36
				c0-0.1,0.1-0.1,0.1-0.1h0.7v-4.3H7.4c-0.1,0-0.1-0.1-0.1-0.1v-82.7c0-0.1,0.1-0.1,0.1-0.1h8.9v-3.5H7.4c-0.1,0-0.1-0.1-0.1-0.1
				V94.8c0-0.1,0.1-0.1,0.1-0.1h56.7c0.1,0,0.1,0.1,0.1,0.1V114c0,0.1-0.1,0.1-0.1,0.1h-9v3.5h12.6V84.2h-3.5v6.9
				c0,0.1-0.1,0.1-0.1,0.1H7.4c-0.1,0-0.1-0.1-0.1-0.1V17.3c0-0.1,0.1-0.1,0.1-0.1h56.7c0.1,0,0.1,0.1,0.1,0.1v39.4h3.5v-3.1
				c0-0.1,0.1-0.1,0.1-0.1h5v-9.2h-1.9c-0.1,0-0.1-0.1-0.1-0.1V15.4c0-0.1,0.1-0.1,0.1-0.1h122.8c0.1,0,0.1,0.1,0.1,0.1V17h3.5v-1.6
				c0-0.1,0.1-0.1,0.1-0.1h26.9v-3.8c0-0.1,0.1-0.1,0.1-0.1h1.5V7.6h-1.5c-0.1,0-0.1-0.1-0.1-0.1V5.8H0.2V240.9z"/>
		</g>
		<g>
			<path class="st1" d="M206.3,208.7H78.7c-0.1,0-0.1-0.1-0.1-0.1v-3.5h-0.7c0,0-0.1,0-0.1,0s0-0.1,0-0.1l0-4.5
				c0-0.1,0.1-0.1,0.1-0.1h43.2v-6.1c0-0.1,0.1-0.1,0.1-0.1h76.9v-12.5c0-0.1,0.1-0.1,0.1-0.1h8.9c0.1,0,0.1,0.1,0.1,0.1v4.5
				c0,0.1-0.1,0.1-0.1,0.1h-0.7v22.3C206.5,208.6,206.4,208.7,206.3,208.7z M78.8,208.4h127.4v-22.3c0-0.1,0.1-0.1,0.1-0.1h0.7v-4.3
				h-8.7v12.5c0,0.1-0.1,0.1-0.1,0.1h-76.9v6.1c0,0.1-0.1,0.1-0.1,0.1H78.1l0,4.3h0.7c0.1,0,0.1,0.1,0.1,0.1V208.4z"/>
		</g>
		<g>
			<path class="st1" d="M226.4,191.2h-4.8c-0.1,0-0.1-0.1-0.1-0.1v-9.4c0-0.1,0.1-0.1,0.1-0.1h4.8c0.1,0,0.1,0.1,0.1,0.1v9.4
				C226.5,191.1,226.5,191.2,226.4,191.2z M221.7,190.9h4.6v-9.2h-4.6V190.9z"/>
		</g>
		<g>
			<path class="st1" d="M267.3,241.2H260c-0.1,0-0.1-0.1-0.1-0.1v-49.9h-4.6c-0.1,0-0.1-0.1-0.1-0.1v-9.4c0-0.1,0.1-0.1,0.1-0.1h2.1
				v-40h-42c-0.1,0-0.1-0.1-0.1-0.1v-32.6c0-0.1,0.1-0.1,0.1-0.1h6.8c0.1,0,0.1,0.1,0.1,0.1v2.7h3.1c0.1,0,0.1,0.1,0.1,0.1v3.7
				c0,0.1-0.1,0.1-0.1,0.1h-3.1v19h35v-19h-3.1c-0.1,0-0.1-0.1-0.1-0.1v-3.7c0-0.1,0.1-0.1,0.1-0.1h3.1V15.5H255
				c-0.1,0-0.1-0.1-0.1-0.1v-3.8h-1.5c-0.1,0-0.1-0.1-0.1-0.1v-4c0-0.1,0.1-0.1,0.1-0.1h1.5V5.7c0-0.1,0.1-0.1,0.1-0.1h12.3
				c0.1,0,0.1,0.1,0.1,0.1v235.4C267.4,241.1,267.4,241.2,267.3,241.2z M260.1,240.9h7.1V5.8h-12.1v1.7c0,0.1-0.1,0.1-0.1,0.1h-1.5
				v3.8h1.5c0.1,0,0.1,0.1,0.1,0.1v3.8h2.4c0.1,0,0.1,0.1,0.1,0.1v96.2c0,0.1-0.1,0.1-0.1,0.1h-3.1v3.5h3.1c0.1,0,0.1,0.1,0.1,0.1
				v19.2c0,0.1-0.1,0.1-0.1,0.1h-35.3c-0.1,0-0.1-0.1-0.1-0.1v-19.2c0-0.1,0.1-0.1,0.1-0.1h3.1v-3.5h-3.1c-0.1,0-0.1-0.1-0.1-0.1
				v-2.7h-6.6v32.3h42c0.1,0,0.1,0.1,0.1,0.1v40.3c0,0.1-0.1,0.1-0.1,0.1h-2.1v9.2h4.6c0.1,0,0.1,0.1,0.1,0.1V240.9z"/>
		</g>
		<g>
			<path class="st1" d="M222.2,81.6h-6.8c-0.1,0-0.1-0.1-0.1-0.1V53.7H97c-0.1,0-0.1-0.1-0.1-0.1v-9.4c0-0.1,0.1-0.1,0.1-0.1h96.6
				v-1.3c0-0.1,0.1-0.1,0.1-0.1h3.7c0.1,0,0.1,0.1,0.1,0.1V44h24.6c0.1,0,0.1,0.1,0.1,0.1v37.3C222.3,81.6,222.2,81.6,222.2,81.6z
				 M215.5,81.4h6.6V44.3h-24.6c-0.1,0-0.1-0.1-0.1-0.1v-1.3h-3.5v1.3c0,0.1-0.1,0.1-0.1,0.1H97.1v9.2h118.2c0.1,0,0.1,0.1,0.1,0.1
				V81.4z"/>
		</g>
		<g>
			<path class="st1" d="M206.3,292.9h-6.4c-0.1,0-0.1-0.1-0.1-0.1v-7.6L0.1,258.6c-0.1,0-0.1-0.1-0.1-0.1V252c0,0,0-0.1,0-0.1
				c0,0,0.1,0,0.1,0l206.2,27.5c0.1,0,0.1,0.1,0.1,0.1v13.3C206.5,292.8,206.4,292.9,206.3,292.9z M200,292.6h6.2v-13.1l-206-27.4
				v6.2l199.7,26.6c0.1,0,0.1,0.1,0.1,0.1V292.6z"/>
		</g>
		<g>
			<path class="st1" d="M266.4,292.9H260c-0.1,0-0.1-0.1-0.1-0.1V252c0,0,0-0.1,0-0.1c0,0,0.1,0,0.1,0l6.4,0.9
				c0.1,0,0.1,0.1,0.1,0.1v39.9C266.5,292.8,266.5,292.9,266.4,292.9z M260.1,292.6h6.2v-39.7l-6.2-0.8V292.6z"/>
		</g>
		<g>
			<path class="st1" d="M257.5,123.4h-35.3c-0.1,0-0.1-0.1-0.1-0.1s0.1-0.1,0.1-0.1h35.3c0.1,0,0.1,0.1,0.1,0.1
				S257.5,123.4,257.5,123.4z"/>
		</g>
		<g>
			<path class="st1" d="M64.1,106.1H7.4c-0.1,0-0.1-0.1-0.1-0.1s0.1-0.1,0.1-0.1h56.7c0.1,0,0.1,0.1,0.1,0.1S64.2,106.1,64.1,106.1z
				"/>
		</g>
		<g>
			<path class="st1" d="M17.4,77.2h-3.8c-0.1,0-0.1-0.1-0.1-0.1s0.1-0.1,0.1-0.1h3.8c0.1,0,0.1,0.1,0.1,0.1S17.5,77.2,17.4,77.2z"/>
		</g>
		<g>
			<path class="st1" d="M17.4,77.2c-0.1,0-0.1-0.1-0.1-0.1s0.1-0.1,0.1-0.1c0.1,0,0.2-0.1,0.2-0.2c0-0.1,0.1-0.1,0.1-0.1
				s0.1,0.1,0.1,0.1C17.8,77,17.6,77.2,17.4,77.2z"/>
		</g>
		<g>
			<path class="st1" d="M17.7,76.4c-0.1,0-0.1-0.1-0.1-0.1c0-0.1-0.1-0.2-0.2-0.2c-0.1,0-0.1-0.1-0.1-0.1s0.1-0.1,0.1-0.1
				c0.2,0,0.4,0.2,0.4,0.4C17.8,76.4,17.8,76.4,17.7,76.4z"/>
		</g>
		<g>
			<path class="st1" d="M17.7,76.9c-0.1,0-0.1-0.1-0.1-0.1v-0.5c0-0.1,0.1-0.1,0.1-0.1s0.1,0.1,0.1,0.1v0.5
				C17.8,76.8,17.8,76.9,17.7,76.9z"/>
		</g>
		<g>
			<path class="st1" d="M13.8,76.4c-0.2,0-0.3-0.1-0.4-0.2c0-0.1,0-0.1,0-0.2c0.1,0,0.1,0,0.2,0c0.1,0.1,0.1,0.1,0.2,0.1
				c0.1,0,0.1,0.1,0.1,0.1S13.9,76.4,13.8,76.4z"/>
		</g>
		<g>
			<path class="st1" d="M13.5,77.1C13.5,77.1,13.5,77.1,13.5,77.1c-0.1-0.1-0.1-0.2-0.1-0.2c0.1-0.1,0.3-0.2,0.4-0.2
				c0.1,0,0.1,0.1,0.1,0.1s-0.1,0.1-0.1,0.1C13.8,76.9,13.7,77,13.5,77.1C13.6,77.1,13.6,77.1,13.5,77.1z"/>
		</g>
		<g>
			<path class="st1" d="M15.6,76.9h-1.8c-0.1,0-0.1-0.1-0.1-0.1s0.1-0.1,0.1-0.1h1.8c0.1,0,0.1,0.1,0.1,0.1S15.7,76.9,15.6,76.9z"/>
		</g>
		<g>
			<path class="st1" d="M15.6,76.4h-1.8c-0.1,0-0.1-0.1-0.1-0.1s0.1-0.1,0.1-0.1h1.8c0.1,0,0.1,0.1,0.1,0.1S15.7,76.4,15.6,76.4z"/>
		</g>
		<g>
			<path class="st1" d="M15.8,76.6c-0.1,0-0.1-0.1-0.1-0.1c0,0,0,0,0,0c-0.1,0-0.1-0.1-0.1-0.1s0.1-0.1,0.1-0.1
				c0.2,0,0.3,0.1,0.3,0.3C15.9,76.5,15.9,76.6,15.8,76.6z"/>
		</g>
		<g>
			<path class="st1" d="M15.8,76.8c-0.1,0-0.1-0.1-0.1-0.1v-0.2c0-0.1,0.1-0.1,0.1-0.1s0.1,0.1,0.1,0.1v0.2
				C15.9,76.7,15.9,76.8,15.8,76.8z"/>
		</g>
		<g>
			<path class="st1" d="M13.6,76.2c-0.1,0-0.2,0-0.3-0.1c-0.1,0-0.1-0.1-0.1-0.2c0-0.1,0.1-0.1,0.2-0.1c0.1,0,0.2,0.1,0.2,0.1
				c0.1,0,0.1,0.1,0.1,0.1S13.7,76.2,13.6,76.2z"/>
		</g>
		<g>
			<path class="st1" d="M13.3,77.3c0,0-0.1,0-0.1-0.1c0-0.1,0-0.1,0.1-0.2c0.1,0,0.2-0.1,0.3-0.1c0.1,0,0.1,0.1,0.1,0.1
				s-0.1,0.1-0.1,0.1C13.5,77.2,13.4,77.2,13.3,77.3C13.3,77.2,13.3,77.3,13.3,77.3z"/>
		</g>
		<g>
			<path class="st1" d="M17.4,76.2h-3.8c-0.1,0-0.1-0.1-0.1-0.1s0.1-0.1,0.1-0.1h3.8c0.1,0,0.1,0.1,0.1,0.1S17.5,76.2,17.4,76.2z"/>
		</g>
		<g>
			<path class="st1" d="M13.1,77.4c-0.2,0-0.5-0.1-0.7-0.3c-0.2-0.2-0.2-0.4-0.2-0.6c0-0.2,0.1-0.5,0.3-0.6c0.2-0.2,0.4-0.2,0.6-0.2
				c0.2,0,0.5,0.1,0.6,0.3c0,0.1,0,0.1,0,0.2c-0.1,0-0.1,0-0.2,0c-0.1-0.1-0.3-0.2-0.4-0.2c-0.2,0-0.3,0.1-0.5,0.2
				c-0.1,0.1-0.2,0.3-0.2,0.4s0.1,0.3,0.2,0.5c0.2,0.3,0.6,0.3,0.9,0l0,0l0.2,0.2c0,0,0,0,0,0C13.5,77.4,13.3,77.4,13.1,77.4z"/>
		</g>
		<g>
			<path class="st1" d="M13.1,77.3c-0.2,0-0.4-0.1-0.6-0.3c-0.3-0.3-0.2-0.8,0.1-1.1c0.3-0.3,0.8-0.2,1.1,0.1c0,0.1,0,0.1,0,0.2
				s-0.1,0-0.2,0c-0.2-0.2-0.5-0.2-0.7,0c-0.2,0.2-0.2,0.5,0,0.7c0.2,0.2,0.5,0.2,0.7,0c0,0,0,0,0,0c0,0,0.1-0.1,0.2,0
				c0.1,0,0.1,0.1,0,0.2c0,0,0,0-0.1,0.1C13.4,77.2,13.2,77.3,13.1,77.3z"/>
		</g>
		<g>
			<path class="st1" d="M15.6,76.9c-0.1,0-0.1-0.1-0.1-0.1s0.1-0.1,0.1-0.1c0,0,0,0,0,0c0-0.1,0.1-0.1,0.1-0.1s0.1,0.1,0.1,0.1
				C15.9,76.8,15.8,76.9,15.6,76.9z"/>
		</g>
		<g>
			<path class="st1" d="M26.6,68.7h-1.5c-0.1,0-0.1-0.1-0.1-0.1s0.1-0.1,0.1-0.1h1.5c0.1,0,0.1,0.1,0.1,0.1S26.7,68.7,26.6,68.7z"/>
		</g>
		<g>
			<path class="st1" d="M26.6,84.7h-1.5c-0.1,0-0.1-0.1-0.1-0.1s0.1-0.1,0.1-0.1h1.5c0.1,0,0.1,0.1,0.1,0.1S26.7,84.7,26.6,84.7z"/>
		</g>
		<g>
			<path class="st1" d="M26,82.7C26,82.7,26,82.7,26,82.7c-0.1,0-0.2-0.1-0.1-0.1c0-0.1,0.1-0.1,0.1-0.1c0,0,0,0,0,0
				c0.3,0,0.5-0.2,0.5-0.5c0-0.1,0.1-0.1,0.1-0.1c0,0,0,0,0,0c0.1,0,0.1,0,0.1,0.1c0,0,0,0,0,0C26.7,82.4,26.4,82.7,26,82.7z"/>
		</g>
		<g>
			<path class="st1" d="M26,82.7C26,82.7,26,82.7,26,82.7c-2.8-0.1-5.5-0.6-8.1-1.4c-0.1,0-0.1-0.1-0.1-0.2c0-0.1,0.1-0.1,0.2-0.1
				c2.6,0.8,5.3,1.3,8.1,1.4c0.1,0,0.1,0.1,0.1,0.1C26.1,82.6,26,82.7,26,82.7z"/>
		</g>
		<g>
			<path class="st1" d="M14.5,76.2C14.5,76.2,14.5,76.2,14.5,76.2c-0.1,0-0.1-0.1-0.1-0.1c0.2-2,1.6-3.6,3.5-4.2
				c0.1,0,0.1,0,0.2,0.1c0,0.1,0,0.1-0.1,0.2c-1.8,0.6-3.1,2.1-3.3,4C14.6,76.1,14.5,76.2,14.5,76.2z"/>
		</g>
		<g>
			<path class="st1" d="M17.9,81.3C17.9,81.3,17.9,81.3,17.9,81.3c-1.9-0.6-3.3-2.2-3.5-4.2c0-0.1,0-0.1,0.1-0.1
				c0.1,0,0.1,0,0.1,0.1c0.2,1.9,1.5,3.5,3.3,4c0.1,0,0.1,0.1,0.1,0.2C18,81.3,17.9,81.3,17.9,81.3z"/>
		</g>
		<g>
			<path class="st1" d="M17.9,72c-0.1,0-0.1,0-0.1-0.1c0-0.1,0-0.1,0.1-0.2c2.6-0.8,5.4-1.3,8.1-1.4c0,0,0,0,0,0
				c0.1,0,0.1,0.1,0.1,0.1c0,0.1-0.1,0.1-0.1,0.1C23.2,70.8,20.5,71.2,17.9,72C17.9,72,17.9,72,17.9,72z"/>
		</g>
		<g>
			<path class="st1" d="M26.6,71.3c-0.1,0-0.1-0.1-0.1-0.1c0-0.3-0.2-0.5-0.5-0.5c-0.1,0-0.1-0.1-0.1-0.1s0-0.1,0.1-0.1
				c0.4,0,0.8,0.3,0.8,0.7C26.7,71.2,26.7,71.3,26.6,71.3z"/>
		</g>
		<g>
			<path class="st1" d="M26.6,82.1c-0.1,0-0.1-0.1-0.1-0.1V71.2c0-0.1,0.1-0.1,0.1-0.1s0.1,0.1,0.1,0.1v10.8
				C26.7,82,26.7,82.1,26.6,82.1z"/>
		</g>
		<g>
			<path class="st1" d="M26.6,84.7H7.4c-0.1,0-0.1-0.1-0.1-0.1v-16c0-0.1,0.1-0.1,0.1-0.1h19.1c1.4,0,2.5,1.1,2.5,2.5v11.2
				C29.1,83.6,28,84.7,26.6,84.7z M7.6,84.4h19c1.3,0,2.3-1,2.3-2.3V70.9c0-1.3-1-2.3-2.3-2.3h-19V84.4z"/>
		</g>
		<g>
			<path class="st1" d="M15.4,76.2C15.3,76.2,15.3,76.1,15.4,76.2c-0.1-0.1-0.1-0.2-0.1-0.2c0.2-0.2,0.4-0.3,0.7-0.3
				c0.1,0,0.1,0.1,0.1,0.1S16,75.9,16,75.9C15.8,75.9,15.6,76,15.4,76.2C15.4,76.1,15.4,76.2,15.4,76.2z"/>
		</g>
		<g>
			<path class="st1" d="M16,77.5c-0.3,0-0.5-0.1-0.7-0.3c0-0.1,0-0.1,0-0.2c0.1,0,0.1,0,0.2,0c0.1,0.2,0.3,0.2,0.5,0.2
				c0.1,0,0.1,0.1,0.1,0.1S16,77.5,16,77.5z"/>
		</g>
		<g>
			<path class="st1" d="M16,77.5c-0.1,0-0.1-0.1-0.1-0.1s0.1-0.1,0.1-0.1c0.2,0,0.4-0.1,0.5-0.2c0-0.1,0.1-0.1,0.2,0
				c0.1,0,0.1,0.1,0,0.2C16.5,77.4,16.2,77.5,16,77.5z"/>
		</g>
		<g>
			<path class="st1" d="M16.6,76.2C16.5,76.2,16.5,76.1,16.6,76.2c-0.2-0.2-0.4-0.3-0.6-0.3c-0.1,0-0.1-0.1-0.1-0.1s0.1-0.1,0.1-0.1
				c0.3,0,0.5,0.1,0.7,0.3C16.7,76,16.7,76.1,16.6,76.2C16.6,76.1,16.6,76.2,16.6,76.2z"/>
		</g>
		<g>
			<path class="st1" d="M25.4,82.2c-0.1,0-0.1-0.1-0.1-0.1c0-0.1,0-0.1,0.1-0.1c0.1,0,0.3-0.1,0.3-0.3c0-0.1,0.1-0.1,0.1-0.1
				s0.1,0.1,0.1,0.1C25.9,81.9,25.7,82.2,25.4,82.2C25.4,82.2,25.4,82.2,25.4,82.2z"/>
		</g>
		<g>
			<path class="st1" d="M24.2,82.2c-1.7,0-3.4-0.2-5.1-0.5c-0.1,0-0.1-0.1-0.1-0.1c0-0.1,0.1-0.1,0.1-0.1c2,0.4,4.1,0.6,6.2,0.5
				c0.1,0,0.1,0,0.1,0.1c0,0.1,0,0.1-0.1,0.1C25,82.2,24.6,82.2,24.2,82.2z"/>
		</g>
		<g>
			<path class="st1" d="M17.5,72.2c0,0-0.1,0-0.1-0.1c0-0.1,0-0.1,0.1-0.2c0.1-0.1,0.3-0.1,0.4-0.1c0.1,0,0.1,0,0.2,0.1S18,72,18,72
				C17.8,72.1,17.7,72.1,17.5,72.2C17.5,72.2,17.5,72.2,17.5,72.2z"/>
		</g>
		<g>
			<path class="st1" d="M17.9,81.3C17.9,81.3,17.9,81.3,17.9,81.3c-0.2,0-0.3-0.1-0.5-0.2c-0.1,0-0.1-0.1-0.1-0.2
				c0-0.1,0.1-0.1,0.2-0.1c0.1,0.1,0.3,0.1,0.4,0.1c0.1,0,0.1,0.1,0.1,0.2C18,81.3,18,81.3,17.9,81.3z"/>
		</g>
		<g>
			<path class="st1" d="M19.1,71.7c-0.1,0-0.1,0-0.1-0.1c0-0.1,0-0.1,0.1-0.1c2.1-0.4,4.2-0.6,6.3-0.5c0.1,0,0.1,0.1,0.1,0.1
				s-0.1,0.1-0.1,0.1C23.3,71.1,21.2,71.2,19.1,71.7C19.1,71.7,19.1,71.7,19.1,71.7z"/>
		</g>
		<g>
			<path class="st1" d="M25.8,71.6c-0.1,0-0.1-0.1-0.1-0.1c0-0.1-0.1-0.3-0.3-0.3c-0.1,0-0.1-0.1-0.1-0.1c0-0.1,0.1-0.1,0.1-0.1
				c0.3,0,0.5,0.2,0.5,0.5C25.9,71.5,25.8,71.6,25.8,71.6z"/>
		</g>
		<g>
			<path class="st1" d="M25.8,81.8c-0.1,0-0.1-0.1-0.1-0.1V71.5c0-0.1,0.1-0.1,0.1-0.1s0.1,0.1,0.1,0.1v10.2
				C25.9,81.7,25.8,81.8,25.8,81.8z"/>
		</g>
		<g>
			<path class="st1" d="M22.5,36.4c-1.1,0-2.2-0.2-3.2-0.5c-0.1,0-0.1-0.1-0.1-0.2c0-0.1,0.1-0.1,0.2-0.1c1,0.3,2.1,0.5,3.1,0.5
				c0.1,0,0.1,0.1,0.1,0.1S22.6,36.4,22.5,36.4z"/>
		</g>
		<g>
			<path class="st1" d="M19.3,36C19.3,36,19.3,36,19.3,36c-0.9-0.3-1.8-0.7-2.6-1.2c-0.1,0-0.1-0.1,0-0.2c0-0.1,0.1-0.1,0.2,0
				c0.7,0.5,1.6,0.9,2.5,1.2c0.1,0,0.1,0.1,0.1,0.2C19.4,36,19.4,36,19.3,36z"/>
		</g>
		<g>
			<path class="st1" d="M16.8,34.8C16.8,34.8,16.8,34.8,16.8,34.8c-0.4-0.2-0.6-0.4-0.8-0.7c0,0,0-0.1,0-0.2c0,0,0.1,0,0.2,0
				c0.2,0.2,0.5,0.4,0.7,0.6c0.1,0,0.1,0.1,0,0.2C16.9,34.7,16.9,34.8,16.8,34.8z"/>
		</g>
		<g>
			<path class="st1" d="M22.5,36.4c-0.1,0-0.1-0.1-0.1-0.1s0.1-0.1,0.1-0.1c1.1,0,2.1-0.2,3.1-0.5c0.9-0.3,1.7-0.7,2.5-1.2
				c0.7-0.5,1.3-1.2,1.8-1.9c0.4-0.6,0.5-1.3,0.5-2s-0.2-1.4-0.5-2c-0.4-0.8-1-1.4-1.8-1.9c-0.7-0.5-1.6-0.9-2.5-1.2
				c-2-0.6-4.2-0.6-6.3,0c-0.9,0.3-1.7,0.7-2.5,1.2c-0.2,0.2-0.5,0.4-0.7,0.6V34c0,0.1-0.1,0.1-0.1,0.1s-0.1-0.1-0.1-0.1v-6.9
				c0,0,0-0.1,0-0.1c0.2-0.2,0.5-0.5,0.8-0.7c0.8-0.6,1.6-1,2.5-1.2c2.1-0.6,4.3-0.6,6.4,0c0.9,0.3,1.8,0.7,2.5,1.2
				c0.7,0.5,1.4,1.2,1.8,2c0.4,0.7,0.6,1.4,0.6,2.2s-0.2,1.5-0.6,2.2c-0.5,0.8-1.1,1.5-1.8,2c-0.8,0.6-1.6,1-2.5,1.2
				C24.7,36.3,23.6,36.4,22.5,36.4z"/>
		</g>
		<g>
			<path class="st1" d="M20,36.2C20,36.2,20,36.2,20,36.2c-2.5-0.5-5.1-0.8-7.6-1c-0.1,0-0.1-0.1-0.1-0.1c0-0.1,0.1-0.1,0.1-0.1
				c2.6,0.2,5.1,0.5,7.6,1c0.1,0,0.1,0.1,0.1,0.1C20.1,36.1,20.1,36.2,20,36.2z"/>
		</g>
		<g>
			<path class="st1" d="M10.9,36.3c-0.1,0-0.1,0-0.2,0l-2.4-0.5c-0.2,0-0.4-0.2-0.4-0.4v-9.7c0-0.2,0.2-0.4,0.4-0.4l2.4-0.5
				c0.3-0.1,0.6,0,0.8,0.2c0.6,0.4,1,1,1.3,1.6c0.3,0.5,0.4,1.1,0.5,1.7l0,0c0.1,0.7,0.2,1.5,0.2,2.3c0,0.8-0.1,1.5-0.2,2.3
				c-0.1,0.6-0.3,1.2-0.5,1.7c-0.3,0.6-0.8,1.2-1.3,1.6C11.4,36.2,11.1,36.3,10.9,36.3z M10.9,25.1c-0.1,0-0.1,0-0.2,0l-2.4,0.5
				c-0.1,0-0.2,0.1-0.2,0.2v9.7c0,0.1,0.1,0.2,0.2,0.2l2.4,0.5c0.2,0,0.5,0,0.6-0.1c0.5-0.4,1-0.9,1.3-1.5c0.2-0.5,0.4-1.1,0.5-1.6
				c0.1-0.7,0.2-1.5,0.2-2.2s-0.1-1.5-0.2-2.2l0,0c-0.1-0.6-0.3-1.1-0.5-1.6c-0.3-0.6-0.7-1.1-1.3-1.5
				C11.3,25.1,11.1,25.1,10.9,25.1z"/>
		</g>
		<g>
			<path class="st1" d="M12.4,26.2c-0.1,0-0.1-0.1-0.1-0.1c0-0.1,0-0.1,0.1-0.1c2.5-0.2,5.1-0.5,7.6-1c0.1,0,0.1,0,0.1,0.1
				s0,0.1-0.1,0.1C17.5,25.7,15,26,12.4,26.2C12.4,26.2,12.4,26.2,12.4,26.2z"/>
		</g>
		<g>
			<path class="st1" d="M11,31.3c-0.4,0-0.7-0.3-0.7-0.7s0.3-0.7,0.7-0.7c0.4,0,0.7,0.3,0.7,0.7S11.4,31.3,11,31.3z M11,30.1
				c-0.3,0-0.5,0.2-0.5,0.5S10.8,31,11,31c0.3,0,0.5-0.2,0.5-0.5S11.3,30.1,11,30.1z"/>
		</g>
		<g>
			<path class="st1" d="M182.2,194.4h-44.9c-0.1,0-0.1-0.1-0.1-0.1v-9.6c0-0.1,0.1-0.1,0.1-0.1h44.9c0.1,0,0.1,0.1,0.1,0.1v9.6
				C182.3,194.3,182.2,194.4,182.2,194.4z M137.4,194.1H182v-9.4h-44.7V194.1z"/>
		</g>
		<g>
			<path class="st1" d="M28.3,199H9c-0.1,0-0.1-0.1-0.1-0.1v-51.3c0-0.1,0.1-0.1,0.1-0.1h19.2c0.1,0,0.1,0.1,0.1,0.1v51.3
				C28.4,198.9,28.4,199,28.3,199z M9.2,198.7h19v-51.1h-19V198.7z"/>
		</g>
		<g>
			<path class="st1" d="M15.4,182.9h-1.2c-0.1,0-0.1-0.1-0.1-0.1v-19.2c0-0.1,0.1-0.1,0.1-0.1h1.2c0.1,0,0.1,0.1,0.1,0.1v19.2
				C15.5,182.9,15.4,182.9,15.4,182.9z M14.3,182.7h1v-19h-1V182.7z"/>
		</g>
		<g>
			<path class="st1" d="M26,181.2h-4.8c-0.1,0-0.1-0.1-0.1-0.1v-16c0-0.1,0.1-0.1,0.1-0.1H26c0.1,0,0.1,0.1,0.1,0.1v16
				C26.1,181.2,26.1,181.2,26,181.2z M21.3,181h4.6v-15.8h-4.6V181z"/>
		</g>
		<g>
			<path class="st1" d="M14.2,176.3h-1.8c-0.1,0-0.1-0.1-0.1-0.1v-6c0-0.1,0.1-0.1,0.1-0.1h1.8c0.1,0,0.1,0.1,0.1,0.1
				s-0.1,0.1-0.1,0.1h-1.7v5.8h1.7c0.1,0,0.1,0.1,0.1,0.1S14.2,176.3,14.2,176.3z"/>
		</g>
		<g>
			<path class="st1" d="M35.5,166.3h-7.2c-0.1,0-0.1-0.1-0.1-0.1s0.1-0.1,0.1-0.1h7.2c0.1,0,0.1,0.1,0.1,0.1S35.6,166.3,35.5,166.3z
				"/>
		</g>
		<g>
			<path class="st1" d="M17.2,176.3h-1.8c-0.1,0-0.1-0.1-0.1-0.1s0.1-0.1,0.1-0.1h1.7v-5.8h-1.7c-0.1,0-0.1-0.1-0.1-0.1
				s0.1-0.1,0.1-0.1h1.8c0.1,0,0.1,0.1,0.1,0.1v6C17.3,176.3,17.2,176.3,17.2,176.3z"/>
		</g>
		<g>
			<path class="st1" d="M35.5,180.3h-7.2c-0.1,0-0.1-0.1-0.1-0.1s0.1-0.1,0.1-0.1h7.2c0.1,0,0.1,0.1,0.1,0.1S35.6,180.3,35.5,180.3z
				"/>
		</g>
		<g>
			<path class="st1" d="M36.7,181.1h-1.2c-0.1,0-0.1-0.1-0.1-0.1v-15.6c0-0.1,0.1-0.1,0.1-0.1h1.2c0.1,0,0.1,0.1,0.1,0.1V181
				C36.8,181.1,36.8,181.1,36.7,181.1z M35.6,180.9h1v-15.4h-1V180.9z"/>
		</g>
		<g>
			<path class="st1" d="M22.8,162.5c-0.3,0-0.7-0.2-0.8-0.6c-0.1-0.4,0.1-0.9,0.5-1c0.8-0.3,1.6-0.3,2.4,0c0.3,0.1,0.4,0.3,0.4,0.6
				c0,0.2-0.1,0.3-0.2,0.5s-0.3,0.2-0.4,0.2c-0.6,0-1.2,0.1-1.8,0.3C22.9,162.5,22.9,162.5,22.8,162.5z M23.8,161
				c-0.4,0-0.8,0.1-1.1,0.2c0,0,0,0,0,0c-0.3,0.1-0.4,0.4-0.4,0.7c0.1,0.3,0.4,0.4,0.7,0.4c0.6-0.2,1.2-0.3,1.8-0.3
				c0.1,0,0.2-0.1,0.3-0.1c0.1-0.1,0.1-0.2,0.1-0.3c0-0.2-0.1-0.3-0.3-0.4C24.6,161,24.2,161,23.8,161z M22.6,161.1L22.6,161.1
				L22.6,161.1z"/>
		</g>
		<g>
			<path class="st1" d="M160.4,113h-27.2c-0.1,0-0.1-0.1-0.1-0.1V95.3c0-0.1,0.1-0.1,0.1-0.1h27.2c0.1,0,0.1,0.1,0.1,0.1v17.6
				C160.5,112.9,160.4,113,160.4,113z M133.2,112.7h27V95.4h-27V112.7z"/>
		</g>
		<g>
			<path class="st1" d="M190.1,71.4c-3.6,0-6.5-2.9-6.5-6.5s2.9-6.5,6.5-6.5s6.5,2.9,6.5,6.5S193.7,71.4,190.1,71.4z M190.1,58.5
				c-3.5,0-6.3,2.8-6.3,6.3s2.8,6.3,6.3,6.3s6.3-2.8,6.3-6.3S193.5,58.5,190.1,58.5z"/>
		</g>
		<g>
			<path class="st1" d="M190.1,66.6c-1,0-1.8-0.8-1.8-1.8c0-1,0.8-1.8,1.8-1.8c1,0,1.8,0.8,1.8,1.8C191.8,65.8,191,66.6,190.1,66.6z
				 M190.1,63.3c-0.8,0-1.5,0.7-1.5,1.5c0,0.8,0.7,1.5,1.5,1.5c0.8,0,1.5-0.7,1.5-1.5C191.6,64,190.9,63.3,190.1,63.3z"/>
		</g>
		<g>
			<path class="st1" d="M196.5,64.9h-4.8c-0.1,0-0.1-0.1-0.1-0.1s0.1-0.1,0.1-0.1h4.8c0.1,0,0.1,0.1,0.1,0.1S196.5,64.9,196.5,64.9z
				"/>
		</g>
		<g>
			<path class="st1" d="M188.4,64.9h-4.8c-0.1,0-0.1-0.1-0.1-0.1s0.1-0.1,0.1-0.1h4.8c0.1,0,0.1,0.1,0.1,0.1S188.5,64.9,188.4,64.9z
				"/>
		</g>
		<g>
			<path class="st1" d="M190.1,71.4c-0.1,0-0.1-0.1-0.1-0.1v-4.8c0-0.1,0.1-0.1,0.1-0.1s0.1,0.1,0.1,0.1v4.8
				C190.2,71.3,190.1,71.4,190.1,71.4z"/>
		</g>
		<g>
			<path class="st1" d="M190.1,63.3c-0.1,0-0.1-0.1-0.1-0.1v-4.8c0-0.1,0.1-0.1,0.1-0.1s0.1,0.1,0.1,0.1v4.8
				C190.2,63.2,190.1,63.3,190.1,63.3z"/>
		</g>
		<g>
			<path class="st1" d="M198.1,79.4H182c-0.1,0-0.1-0.1-0.1-0.1V56.8c0-0.1,0.1-0.1,0.1-0.1h16.1c0.1,0,0.1,0.1,0.1,0.1v22.5
				C198.2,79.3,198.2,79.4,198.1,79.4z M182.1,79.1H198V56.9h-15.8V79.1z"/>
		</g>
		<g>
			<path class="st1" d="M180.4,55.3H113c-0.1,0-0.1-0.1-0.1-0.1s0.1-0.1,0.1-0.1h67.4c0.1,0,0.1,0.1,0.1,0.1S180.5,55.3,180.4,55.3z
				"/>
		</g>
		<g>
			<path class="st1" d="M113,81c-0.1,0-0.1-0.1-0.1-0.1V55.2c0-0.1,0.1-0.1,0.1-0.1s0.1,0.1,0.1,0.1v25.7
				C113.2,80.9,113.1,81,113,81z"/>
		</g>
		<g>
			<path class="st1" d="M180.4,81c-0.1,0-0.1-0.1-0.1-0.1V55.2c0-0.1,0.1-0.1,0.1-0.1s0.1,0.1,0.1,0.1v25.7
				C180.5,80.9,180.5,81,180.4,81z"/>
		</g>
		<g>
			<path class="st1" d="M177.2,81c-0.1,0-0.1-0.1-0.1-0.1V59.2c0-0.1,0.1-0.1,0.1-0.1s0.1,0.1,0.1,0.1v21.7
				C177.3,80.9,177.3,81,177.2,81z"/>
		</g>
		<g>
			<path class="st1" d="M180.4,58.5H113c-0.1,0-0.1-0.1-0.1-0.1s0.1-0.1,0.1-0.1h67.4c0.1,0,0.1,0.1,0.1,0.1S180.5,58.5,180.4,58.5z
				"/>
		</g>
		<g>
			<path class="st1" d="M180.4,81H113c-0.1,0-0.1-0.1-0.1-0.1s0.1-0.1,0.1-0.1h67.4c0.1,0,0.1,0.1,0.1,0.1S180.5,81,180.4,81z"/>
		</g>
		<g>
			<path class="st1" d="M156.9,81c-0.1,0-0.1-0.1-0.1-0.1V60c0-0.1,0.1-0.1,0.1-0.1s0.1,0.1,0.1,0.1v20.9C157,80.9,157,81,156.9,81z
				"/>
		</g>
		<g>
			<path class="st1" d="M136.6,81c-0.1,0-0.1-0.1-0.1-0.1V60c0-0.1,0.1-0.1,0.1-0.1s0.1,0.1,0.1,0.1v20.9
				C136.7,80.9,136.6,81,136.6,81z"/>
		</g>
		<g>
			<path class="st1" d="M177.2,60.1h-61c-0.1,0-0.1-0.1-0.1-0.1s0.1-0.1,0.1-0.1h61c0.1,0,0.1,0.1,0.1,0.1S177.3,60.1,177.2,60.1z"
				/>
		</g>
		<g>
			<path class="st1" d="M116.3,59.3H113c-0.1,0-0.1-0.1-0.1-0.1s0.1-0.1,0.1-0.1h3.2c0.1,0,0.1,0.1,0.1,0.1S116.3,59.3,116.3,59.3z"
				/>
		</g>
		<g>
			<path class="st1" d="M180.4,59.3h-3.2c-0.1,0-0.1-0.1-0.1-0.1s0.1-0.1,0.1-0.1h3.2c0.1,0,0.1,0.1,0.1,0.1S180.5,59.3,180.4,59.3z
				"/>
		</g>
		<g>
			<path class="st1" d="M116.3,81c-0.1,0-0.1-0.1-0.1-0.1V59.2c0-0.1,0.1-0.1,0.1-0.1s0.1,0.1,0.1,0.1v21.7
				C116.4,80.9,116.3,81,116.3,81z"/>
		</g>
		<g>
			<path class="st1" d="M168.4,150.8c-5.4,0-10.3-3.6-11.7-9c0-0.1,0-0.1,0.1-0.2c0.1,0,0.1,0,0.2,0.1c1.7,6.3,8.2,10.1,14.6,8.4
				c6.3-1.7,10.1-8.2,8.4-14.6c0-0.1,0-0.1,0.1-0.2c0.1,0,0.1,0,0.2,0.1c1.7,6.5-2.1,13.2-8.6,14.9
				C170.5,150.6,169.4,150.8,168.4,150.8z"/>
		</g>
		<g>
			<path class="st1" d="M168.4,147.6c-4,0-7.6-2.6-8.6-6.6c0-0.1,0-0.1,0.1-0.2c0.1,0,0.1,0,0.2,0.1c1.2,4.6,6,7.4,10.7,6.1
				c4.6-1.2,7.4-6,6.1-10.7c0-0.1,0-0.1,0.1-0.2c0.1,0,0.1,0,0.2,0.1c1.3,4.8-1.6,9.7-6.3,11C169.9,147.5,169.2,147.6,168.4,147.6z"
				/>
		</g>
		<g>
			<path class="st1" d="M159.9,141c-0.1,0-0.1,0-0.1-0.1l-3.1-11.6c0-0.1,0-0.1,0.1-0.2c0.1,0,0.1,0,0.2,0.1l3.1,11.6
				C160,140.9,160,141,159.9,141C159.9,141,159.9,141,159.9,141z"/>
		</g>
		<g>
			<path class="st1" d="M176.9,136.4c-0.1,0-0.1,0-0.1-0.1l-3.1-11.6c0-0.1,0-0.1,0.1-0.2c0.1,0,0.1,0,0.2,0.1l3.1,11.6
				C177,136.4,177,136.4,176.9,136.4C176.9,136.4,176.9,136.4,176.9,136.4z"/>
		</g>
		<g>
			<path class="st1" d="M156.8,141.8c-0.1,0-0.1,0-0.1-0.1l-3.1-11.6c0-0.1,0-0.1,0.1-0.2s0.1,0,0.2,0.1l3.1,11.6
				C156.9,141.8,156.9,141.8,156.8,141.8C156.8,141.8,156.8,141.8,156.8,141.8z"/>
		</g>
		<g>
			<path class="st1" d="M153.7,130.2c-0.1,0-0.1,0-0.1-0.1c0-0.1,0-0.1,0.1-0.2l23.2-6.2c0.1,0,0.1,0,0.2,0.1c0,0.1,0,0.1-0.1,0.2
				L153.7,130.2C153.7,130.2,153.7,130.2,153.7,130.2z"/>
		</g>
		<g>
			<path class="st1" d="M180,135.6c-0.1,0-0.1,0-0.1-0.1l-3.1-11.6c0-0.1,0-0.1,0.1-0.2c0.1,0,0.1,0,0.2,0.1l3.1,11.6
				C180.1,135.5,180.1,135.6,180,135.6C180,135.6,180,135.6,180,135.6z"/>
		</g>
		<g>
			<path class="st1" d="M168,146c-4,0-7.6-2.6-8.6-6.6c0-0.1,0-0.1,0.1-0.2c0.1,0,0.1,0,0.2,0.1c1.2,4.6,6,7.4,10.7,6.1
				c2.2-0.6,4.1-2,5.3-4.1c1.2-2,1.5-4.4,0.9-6.6c0-0.1,0-0.1,0.1-0.2c0.1,0,0.1,0,0.2,0.1c0.6,2.3,0.3,4.7-0.9,6.8
				c-1.2,2.1-3.1,3.6-5.4,4.2C169.5,145.9,168.7,146,168,146z"/>
		</g>
		<g>
			<path class="st1" d="M176.6,191.2h-33.7c-0.1,0-0.1-0.1-0.1-0.1v-0.8c0-0.1,0.1-0.1,0.1-0.1h33.7c0.1,0,0.1,0.1,0.1,0.1v0.8
				C176.7,191.1,176.6,191.2,176.6,191.2z M143,190.9h33.4v-0.6H143V190.9z"/>
		</g>
		<g>
			<path class="st1" d="M164.5,190.4c-0.1,0-0.1-0.1-0.1-0.1v-3.1H155v3.1c0,0.1-0.1,0.1-0.1,0.1s-0.1-0.1-0.1-0.1V187
				c0-0.1,0.1-0.1,0.1-0.1h9.6c0.1,0,0.1,0.1,0.1,0.1v3.2C164.7,190.3,164.6,190.4,164.5,190.4z"/>
		</g>
		<g>
			<path class="st1" d="M164.5,192.8h-9.6c-0.1,0-0.1-0.1-0.1-0.1V191c0-0.1,0.1-0.1,0.1-0.1s0.1,0.1,0.1,0.1v1.5h9.4V191
				c0-0.1,0.1-0.1,0.1-0.1s0.1,0.1,0.1,0.1v1.6C164.7,192.7,164.6,192.8,164.5,192.8z"/>
		</g>
		<g>
			<path class="st1" d="M90.3,194.8c-3.2,0-6.3-1.3-8.6-3.6c0,0,0-0.1,0-0.2s0.1,0,0.2,0c2.2,2.2,5.2,3.5,8.4,3.5s6.2-1.2,8.4-3.5
				c4.6-4.6,4.6-12.2,0-16.8c0,0,0-0.1,0-0.2s0.1,0,0.2,0c4.7,4.7,4.7,12.5,0,17.2C96.6,193.5,93.5,194.8,90.3,194.8z"/>
		</g>
		<g>
			<path class="st1" d="M90.3,191.6c-2.4,0-4.6-0.9-6.3-2.6c0,0,0-0.1,0-0.2c0,0,0.1,0,0.2,0c1.6,1.6,3.8,2.5,6.1,2.5
				s4.5-0.9,6.1-2.5c1.6-1.6,2.5-3.8,2.5-6.1s-0.9-4.5-2.5-6.1c0,0,0-0.1,0-0.2s0.1,0,0.2,0c1.7,1.7,2.6,3.9,2.6,6.3
				s-0.9,4.6-2.6,6.3C94.9,190.6,92.7,191.6,90.3,191.6z"/>
		</g>
		<g>
			<path class="st1" d="M96.5,176.5C96.5,176.5,96.4,176.5,96.5,176.5l-8.6-8.5c0,0,0-0.1,0-0.2s0.1,0,0.2,0l8.5,8.5
				C96.6,176.3,96.6,176.4,96.5,176.5C96.6,176.5,96.5,176.5,96.5,176.5z"/>
		</g>
		<g>
			<path class="st1" d="M84,189C84,189,84,189,84,189l-8.6-8.5c0,0,0-0.1,0-0.2s0.1,0,0.2,0l8.5,8.5C84.2,188.8,84.2,188.9,84,189
				C84.1,189,84.1,189,84,189z"/>
		</g>
		<g>
			<path class="st1" d="M98.8,174.2C98.7,174.2,98.7,174.2,98.8,174.2l-8.6-8.5c0,0,0-0.1,0-0.2s0.1,0,0.2,0l8.5,8.5
				C98.9,174.1,98.9,174.2,98.8,174.2C98.8,174.2,98.8,174.2,98.8,174.2z"/>
		</g>
		<g>
			<path class="st1" d="M73.2,182.7C73.2,182.7,73.2,182.7,73.2,182.7c-0.1-0.1-0.1-0.2-0.1-0.2l17-17c0,0,0.1,0,0.2,0s0,0.1,0,0.2
				L73.2,182.7C73.3,182.7,73.3,182.7,73.2,182.7z"/>
		</g>
		<g>
			<path class="st1" d="M81.8,191.3C81.7,191.3,81.7,191.2,81.8,191.3l-8.6-8.5c0,0,0-0.1,0-0.2s0.1,0,0.2,0l8.5,8.5
				C81.9,191.1,81.9,191.2,81.8,191.3C81.8,191.2,81.8,191.3,81.8,191.3z"/>
		</g>
		<g>
			<path class="st1" d="M89.1,190.4c-2.4,0-4.6-0.9-6.3-2.6c0,0,0-0.1,0-0.2s0.1,0,0.2,0c1.6,1.6,3.8,2.5,6.1,2.5s4.5-0.9,6.1-2.5
				c1.6-1.6,2.5-3.8,2.5-6.1s-0.9-4.5-2.5-6.1c0,0,0-0.1,0-0.2c0,0,0.1,0,0.2,0c1.7,1.7,2.6,3.9,2.6,6.3s-0.9,4.6-2.6,6.3
				C93.8,189.5,91.5,190.4,89.1,190.4z"/>
		</g>
		<g>
			<path class="st1" d="M125.1,150.8c-1,0-2.1-0.1-3.1-0.4c-3.1-0.8-5.8-2.9-7.4-5.7s-2.1-6.1-1.2-9.2c0-0.1,0.1-0.1,0.2-0.1
				c0.1,0,0.1,0.1,0.1,0.2c-0.8,3.1-0.4,6.3,1.2,9c1.6,2.8,4.2,4.7,7.2,5.5c6.3,1.7,12.9-2.1,14.6-8.4c0-0.1,0.1-0.1,0.2-0.1
				c0.1,0,0.1,0.1,0.1,0.2C135.4,147.2,130.4,150.8,125.1,150.8z"/>
		</g>
		<g>
			<path class="st1" d="M125.1,147.6c-0.8,0-1.6-0.1-2.3-0.3c-4.8-1.3-7.6-6.2-6.3-11c0-0.1,0.1-0.1,0.2-0.1c0.1,0,0.1,0.1,0.1,0.2
				c-1.2,4.6,1.5,9.4,6.1,10.7c2.2,0.6,4.6,0.3,6.6-0.9c2-1.2,3.5-3,4.1-5.3c0-0.1,0.1-0.1,0.2-0.1c0.1,0,0.1,0.1,0.1,0.2
				c-0.6,2.3-2.1,4.2-4.2,5.4C128.2,147.2,126.6,147.6,125.1,147.6z"/>
		</g>
		<g>
			<path class="st1" d="M133.6,141C133.6,141,133.6,141,133.6,141c-0.1,0-0.1-0.1-0.1-0.2l3.1-11.6c0-0.1,0.1-0.1,0.2-0.1
				c0.1,0,0.1,0.1,0.1,0.2l-3.1,11.6C133.7,141,133.7,141,133.6,141z"/>
		</g>
		<g>
			<path class="st1" d="M116.6,136.4C116.5,136.4,116.5,136.4,116.6,136.4c-0.1,0-0.1-0.1-0.1-0.2l3.1-11.6c0-0.1,0.1-0.1,0.2-0.1
				c0.1,0,0.1,0.1,0.1,0.2l-3.1,11.6C116.7,136.4,116.6,136.4,116.6,136.4z"/>
		</g>
		<g>
			<path class="st1" d="M136.7,141.8C136.7,141.8,136.7,141.8,136.7,141.8c-0.1,0-0.1-0.1-0.1-0.2l3.1-11.6c0-0.1,0.1-0.1,0.2-0.1
				c0.1,0,0.1,0.1,0.1,0.2l-3.1,11.6C136.8,141.8,136.8,141.8,136.7,141.8z"/>
		</g>
		<g>
			<path class="st1" d="M139.8,130.2C139.8,130.2,139.8,130.2,139.8,130.2l-23.3-6.2c-0.1,0-0.1-0.1-0.1-0.2s0.1-0.1,0.2-0.1
				l23.2,6.2c0.1,0,0.1,0.1,0.1,0.2C139.9,130.2,139.9,130.2,139.8,130.2z"/>
		</g>
		<g>
			<path class="st1" d="M113.5,135.6C113.4,135.6,113.4,135.6,113.5,135.6c-0.1,0-0.1-0.1-0.1-0.2l3.1-11.6c0-0.1,0.1-0.1,0.2-0.1
				c0.1,0,0.1,0.1,0.1,0.2l-3.1,11.6C113.6,135.6,113.5,135.6,113.5,135.6z"/>
		</g>
		<g>
			<path class="st1" d="M125.5,146c-0.8,0-1.5-0.1-2.3-0.3c-2.3-0.6-4.2-2.1-5.4-4.2c-1.2-2.1-1.5-4.5-0.9-6.8
				c0-0.1,0.1-0.1,0.2-0.1c0.1,0,0.1,0.1,0.1,0.2c-0.6,2.2-0.3,4.6,0.9,6.6s3,3.5,5.3,4.1c4.6,1.2,9.4-1.5,10.7-6.1
				c0-0.1,0.1-0.1,0.2-0.1c0.1,0,0.1,0.1,0.1,0.2C133.1,143.4,129.4,146,125.5,146z"/>
		</g>
		<g>
			<path class="st1" d="M255.3,220h-1.4c-0.1,0-0.1-0.1-0.1-0.1V191c0-0.1,0.1-0.1,0.1-0.1h1.4c0.1,0,0.1,0.1,0.1,0.1v28.9
				C255.4,220,255.3,220,255.3,220z M254,219.8h1.2v-28.6H254V219.8z"/>
		</g>
		<g>
			<path class="st1" d="M255.3,220c-16,0-29-13-29-29c0-0.1,0.1-0.1,0.1-0.1s0.1,0.1,0.1,0.1c0,15.9,12.9,28.7,28.7,28.7
				c0.1,0,0.1,0.1,0.1,0.1S255.3,220,255.3,220z"/>
		</g>
		<g>
			<path class="st1" d="M253.4,38.9H252c-0.1,0-0.1-0.1-0.1-0.1V11.5c0-0.1,0.1-0.1,0.1-0.1h1.4c0.1,0,0.1,0.1,0.1,0.1v27.3
				C253.5,38.8,253.4,38.9,253.4,38.9z M252.1,38.6h1.2v-27h-1.2V38.6z"/>
		</g>
		<g>
			<path class="st1" d="M253.4,38.9c-15.1,0-27.4-12.3-27.4-27.4c0-0.1,0.1-0.1,0.1-0.1s0.1,0.1,0.1,0.1c0,15,12.2,27.1,27.1,27.1
				c0.1,0,0.1,0.1,0.1,0.1S253.4,38.9,253.4,38.9z"/>
		</g>
		<g>
			<path class="st1" d="M209.3,291.2h-1.4c-0.1,0-0.1-0.1-0.1-0.1v-25.7c0-0.1,0.1-0.1,0.1-0.1h1.4c0.1,0,0.1,0.1,0.1,0.1V291
				C209.5,291.1,209.4,291.2,209.3,291.2z M208.1,290.9h1.2v-25.4h-1.2V290.9z"/>
		</g>
		<g>
			<path class="st1" d="M233.6,291.2c-0.1,0-0.1-0.1-0.1-0.1c0-14.1-11.5-25.5-25.5-25.5c-0.1,0-0.1-0.1-0.1-0.1s0.1-0.1,0.1-0.1
				c14.2,0,25.8,11.6,25.8,25.8C233.7,291.1,233.7,291.2,233.6,291.2z"/>
		</g>
		<g>
			<path class="st1" d="M239.8,111.7c-0.1,0-0.1-0.1-0.1-0.1c0-2.5-0.7-5-1.9-7.2c0-0.1,0-0.1,0-0.2c0.1,0,0.1,0,0.2,0
				c1.3,2.2,2,4.7,2,7.3C239.9,111.6,239.9,111.7,239.8,111.7z"/>
		</g>
		<g>
			<path class="st1" d="M239.8,111.7c-0.1,0-0.1-0.1-0.1-0.1c0-2.6,0.7-5.1,2-7.3c0-0.1,0.1-0.1,0.2,0c0.1,0,0.1,0.1,0,0.2
				c-1.3,2.2-1.9,4.6-1.9,7.2C239.9,111.6,239.9,111.7,239.8,111.7z"/>
		</g>
		<g>
			<path class="st1" d="M226.1,112.9c0,0-0.1,0-0.1-0.1l-0.7-1.2c0,0,0-0.1,0-0.1c0,0,0-0.1,0.1-0.1l12.5-7.2c0.1,0,0.1,0,0.2,0
				l0.7,1.2c0,0,0,0.1,0,0.1c0,0,0,0.1-0.1,0.1L226.1,112.9C226.1,112.9,226.1,112.9,226.1,112.9z M225.6,111.6l0.6,1l12.3-7.1
				l-0.6-1L225.6,111.6z"/>
		</g>
		<g>
			<path class="st1" d="M253.5,112.9C253.5,112.9,253.5,112.9,253.5,112.9l-12.6-7.2c0,0,0,0-0.1-0.1c0,0,0-0.1,0-0.1l0.7-1.2
				c0-0.1,0.1-0.1,0.2,0l12.5,7.2c0,0,0,0,0.1,0.1c0,0,0,0.1,0,0.1l-0.7,1.2C253.6,112.9,253.6,112.9,253.5,112.9z M241.2,105.5
				l12.3,7.1l0.6-1l-12.3-7.1L241.2,105.5z"/>
		</g>
		<g>
			<path class="st1" d="M90.8,71.8C90.7,71.8,90.7,71.8,90.8,71.8L67.1,58.1c0,0,0,0-0.1-0.1c0,0,0-0.1,0-0.1l0.7-1.2
				c0-0.1,0.1-0.1,0.2,0l23.6,13.6c0.1,0,0.1,0.1,0,0.2l-0.7,1.2C90.8,71.7,90.8,71.8,90.8,71.8C90.8,71.8,90.8,71.8,90.8,71.8z
				 M67.3,58l23.4,13.5l0.6-1L67.9,57L67.3,58z"/>
		</g>
		<g>
			<path class="st1" d="M67.8,84.2c-0.1,0-0.1-0.1-0.1-0.1s0.1-0.1,0.1-0.1c9.7,0,18.7-5.2,23.5-13.6c0-0.1,0.1-0.1,0.2,0
				s0.1,0.1,0,0.2C86.7,78.9,77.6,84.2,67.8,84.2z"/>
		</g>
		<g>
			<path class="st1" d="M223.1,18.6h-25.7c-0.1,0-0.1-0.1-0.1-0.1v-1.4c0-0.1,0.1-0.1,0.1-0.1h25.7c0.1,0,0.1,0.1,0.1,0.1v1.4
				C223.2,18.6,223.2,18.6,223.1,18.6z M197.6,18.4H223v-1.2h-25.4V18.4z"/>
		</g>
		<g>
			<path class="st1" d="M197.5,42.9c-0.1,0-0.1-0.1-0.1-0.1s0.1-0.1,0.1-0.1c14.1,0,25.5-11.5,25.5-25.5c0-0.1,0.1-0.1,0.1-0.1
				s0.1,0.1,0.1,0.1C223.2,31.3,211.7,42.9,197.5,42.9z"/>
		</g>
		<g>
			<path class="st1" d="M207.9,292.8h-1.6c-0.1,0-0.1-0.1-0.1-0.1V291c0-0.1,0.1-0.1,0.1-0.1h1.6c0.1,0,0.1,0.1,0.1,0.1v1.6
				C208.1,292.7,208,292.8,207.9,292.8z M206.5,292.5h1.4v-1.4h-1.4V292.5z"/>
		</g>
		<g>
			<path class="st1" d="M260,292.8h-26.4c-0.1,0-0.1-0.1-0.1-0.1V291c0-0.1,0.1-0.1,0.1-0.1H260c0.1,0,0.1,0.1,0.1,0.1v1.6
				C260.1,292.7,260,292.8,260,292.8z M233.7,292.5h26.1v-1.4h-26.1V292.5z"/>
		</g>
		<g>
			<path class="st1" d="M155.1,44.3c-0.1,0-0.1-0.1-0.1-0.1V15.4c0-0.1,0.1-0.1,0.1-0.1s0.1,0.1,0.1,0.1v28.8
				C155.2,44.2,155.2,44.3,155.1,44.3z"/>
		</g>
		<g>
			<path class="st1" d="M148.5,44.3c-0.1,0-0.1-0.1-0.1-0.1V43c0-0.1,0.1-0.1,0.1-0.1s0.1,0.1,0.1,0.1v1.2
				C148.6,44.2,148.6,44.3,148.5,44.3z"/>
		</g>
		<g>
			<path class="st1" d="M148.5,41.9c-0.1,0-0.1-0.1-0.1-0.1V15.4c0-0.1,0.1-0.1,0.1-0.1s0.1,0.1,0.1,0.1v26.4
				C148.6,41.8,148.6,41.9,148.5,41.9z"/>
		</g>
		<g>
			<path class="st1" d="M141.9,44.3c-0.1,0-0.1-0.1-0.1-0.1V43c0-0.1,0.1-0.1,0.1-0.1s0.1,0.1,0.1,0.1v1.2
				C142,44.2,141.9,44.3,141.9,44.3z"/>
		</g>
		<g>
			<path class="st1" d="M141.9,41.9c-0.1,0-0.1-0.1-0.1-0.1V15.4c0-0.1,0.1-0.1,0.1-0.1s0.1,0.1,0.1,0.1v26.4
				C142,41.8,141.9,41.9,141.9,41.9z"/>
		</g>
		<g>
			<path class="st1" d="M135.3,44.3c-0.1,0-0.1-0.1-0.1-0.1V43c0-0.1,0.1-0.1,0.1-0.1s0.1,0.1,0.1,0.1v1.2
				C135.4,44.2,135.3,44.3,135.3,44.3z"/>
		</g>
		<g>
			<path class="st1" d="M135.3,41.9c-0.1,0-0.1-0.1-0.1-0.1V15.4c0-0.1,0.1-0.1,0.1-0.1s0.1,0.1,0.1,0.1v26.4
				C135.4,41.8,135.3,41.9,135.3,41.9z"/>
		</g>
		<g>
			<path class="st1" d="M128.6,44.3c-0.1,0-0.1-0.1-0.1-0.1V43c0-0.1,0.1-0.1,0.1-0.1s0.1,0.1,0.1,0.1v1.2
				C128.8,44.2,128.7,44.3,128.6,44.3z"/>
		</g>
		<g>
			<path class="st1" d="M128.6,41.9c-0.1,0-0.1-0.1-0.1-0.1V15.4c0-0.1,0.1-0.1,0.1-0.1s0.1,0.1,0.1,0.1v26.4
				C128.8,41.8,128.7,41.9,128.6,41.9z"/>
		</g>
		<g>
			<path class="st1" d="M122,31.4c-0.1,0-0.1-0.1-0.1-0.1v-1.5c0-0.1,0.1-0.1,0.1-0.1s0.1,0.1,0.1,0.1v1.5
				C122.2,31.3,122.1,31.4,122,31.4z"/>
		</g>
		<g>
			<path class="st1" d="M122,28.4c-0.1,0-0.1-0.1-0.1-0.1V15.4c0-0.1,0.1-0.1,0.1-0.1s0.1,0.1,0.1,0.1v12.9
				C122.2,28.4,122.1,28.4,122,28.4z"/>
		</g>
		<g>
			<path class="st1" d="M125.9,44.3c-0.1,0-0.1,0-0.1-0.1l-3.4-12.7l-2.8-0.8c-0.1,0-0.1-0.1-0.1-0.1s0-0.1,0.1-0.1L124,29l-2.4-0.7
				c0,0-0.1,0-0.1-0.1l-3.4-12.8c0-0.1,0-0.1,0.1-0.2c0.1,0,0.1,0,0.2,0.1l3.4,12.7l2.8,0.8c0.1,0,0.1,0.1,0.1,0.1s0,0.1-0.1,0.1
				l-4.4,1.5l2.4,0.7c0,0,0.1,0,0.1,0.1l3.4,12.8C126,44.2,126,44.3,125.9,44.3C125.9,44.3,125.9,44.3,125.9,44.3z"/>
		</g>
		<g>
			<path class="st1" d="M93.8,65.7C93.8,65.7,93.7,65.7,93.8,65.7l-20.9-12c0,0,0,0-0.1-0.1c0,0,0-0.1,0-0.1l0.7-1.2
				c0-0.1,0.1-0.1,0.2,0l20.8,12c0.1,0,0.1,0.1,0,0.2l-0.7,1.2C93.9,65.7,93.9,65.7,93.8,65.7C93.8,65.7,93.8,65.7,93.8,65.7z
				 M73.1,53.5l20.6,11.9l0.6-1L73.7,52.5L73.1,53.5z"/>
		</g>
		<g>
			<path class="st1" d="M93.8,65.7C93.8,65.7,93.7,65.7,93.8,65.7c-0.1-0.1-0.1-0.1-0.1-0.2c2.1-3.6,3.2-7.8,3.2-12
				c0-0.1,0.1-0.1,0.1-0.1s0.1,0.1,0.1,0.1c0,4.2-1.1,8.4-3.2,12.1C93.9,65.7,93.8,65.7,93.8,65.7z"/>
		</g>
		<g>
			<path class="st1" d="M17.9,137.1h-1.4c-0.1,0-0.1-0.1-0.1-0.1v-19.2c0-0.1,0.1-0.1,0.1-0.1h1.4c0.1,0,0.1,0.1,0.1,0.1V137
				C18,137.1,18,137.1,17.9,137.1z M16.6,136.9h1.2v-19h-1.2V136.9z"/>
		</g>
		<g>
			<path class="st1" d="M55,137.1h-1.4c-0.1,0-0.1-0.1-0.1-0.1v-19.2c0-0.1,0.1-0.1,0.1-0.1H55c0.1,0,0.1,0.1,0.1,0.1V137
				C55.1,137.1,55.1,137.1,55,137.1z M53.7,136.9h1.2v-19h-1.2V136.9z"/>
		</g>
		<g>
			<path class="st1" d="M16.5,137.1c-0.1,0-0.1-0.1-0.1-0.1s0.1-0.1,0.1-0.1c10.5,0,19.1-8.6,19.1-19.1c0-0.1,0.1-0.1,0.1-0.1
				s0.1,0.1,0.1,0.1C35.9,128.4,27.2,137.1,16.5,137.1z"/>
		</g>
		<g>
			<path class="st1" d="M55,137.1c-10.7,0-19.4-8.7-19.4-19.4c0-0.1,0.1-0.1,0.1-0.1s0.1,0.1,0.1,0.1c0,10.5,8.6,19.1,19.1,19.1
				c0.1,0,0.1,0.1,0.1,0.1S55.1,137.1,55,137.1z"/>
		</g>
		<g>
			<path class="st1" d="M222.2,108.9c0,0-0.1,0-0.1-0.1l-0.7-1.2c0,0,0-0.1,0-0.1c0,0,0-0.1,0.1-0.1L245,93.8c0,0,0.1,0,0.1,0
				c0,0,0.1,0,0.1,0.1l0.7,1.2c0,0.1,0,0.1,0,0.2L222.2,108.9C222.2,108.9,222.2,108.9,222.2,108.9z M221.6,107.6l0.6,1l23.4-13.5
				l-0.6-1L221.6,107.6z"/>
		</g>
		<g>
			<path class="st1" d="M245.8,95.3c0,0-0.1,0-0.1-0.1c-4.8-8.4-13.8-13.6-23.5-13.6c-0.1,0-0.1-0.1-0.1-0.1s0.1-0.1,0.1-0.1
				c9.8,0,18.8,5.2,23.7,13.7C245.9,95.1,245.9,95.2,245.8,95.3C245.8,95.3,245.8,95.3,245.8,95.3z"/>
		</g>
		<g>
			<path class="st1" d="M207.9,189.8h-1.6c-0.1,0-0.1-0.1-0.1-0.1v-3.6c0-0.1,0.1-0.1,0.1-0.1h1.6c0.1,0,0.1,0.1,0.1,0.1v3.6
				C208.1,189.8,208,189.8,207.9,189.8z M206.5,189.6h1.4v-3.4h-1.4V189.6z"/>
		</g>
		<g>
			<path class="st1" d="M221.6,189.8H220c-0.1,0-0.1-0.1-0.1-0.1v-3.6c0-0.1,0.1-0.1,0.1-0.1h1.6c0.1,0,0.1,0.1,0.1,0.1v3.6
				C221.7,189.8,221.6,189.8,221.6,189.8z M220.1,189.6h1.4v-3.4h-1.4V189.6z"/>
		</g>
		<g>
			<path class="st1" d="M220,189h-12c-0.1,0-0.1-0.1-0.1-0.1s0.1-0.1,0.1-0.1h12c0.1,0,0.1,0.1,0.1,0.1S220,189,220,189z"/>
		</g>
		<g>
			<path class="st1" d="M220,188.2h-12c-0.1,0-0.1-0.1-0.1-0.1s0.1-0.1,0.1-0.1h12c0.1,0,0.1,0.1,0.1,0.1S220,188.2,220,188.2z"/>
		</g>
		<g>
			<path class="st1" d="M221.6,181.7h-14.4c-0.1,0-0.1-0.1-0.1-0.1s0.1-0.1,0.1-0.1h14.4c0.1,0,0.1,0.1,0.1,0.1
				S221.6,181.7,221.6,181.7z"/>
		</g>
		<g>
			<path class="st1" d="M14.6,208.7H13c-0.1,0-0.1-0.1-0.1-0.1V205c0-0.1,0.1-0.1,0.1-0.1h1.6c0.1,0,0.1,0.1,0.1,0.1v3.6
				C14.7,208.6,14.6,208.7,14.6,208.7z M13.1,208.4h1.4v-3.4h-1.4V208.4z"/>
		</g>
		<g>
			<path class="st1" d="M78.7,208.7h-1.6c-0.1,0-0.1-0.1-0.1-0.1V205c0-0.1,0.1-0.1,0.1-0.1h1.6c0.1,0,0.1,0.1,0.1,0.1v3.6
				C78.8,208.6,78.8,208.7,78.7,208.7z M77.2,208.4h1.4v-3.4h-1.4V208.4z"/>
		</g>
		<g>
			<path class="st1" d="M33,208.7h-1.6c-0.1,0-0.1-0.1-0.1-0.1V205c0-0.1,0.1-0.1,0.1-0.1H33c0.1,0,0.1,0.1,0.1,0.1v3.6
				C33.1,208.6,33.1,208.7,33,208.7z M31.5,208.4h1.4v-3.4h-1.4V208.4z"/>
		</g>
		<g>
			<path class="st1" d="M31.4,207.9H14.6c-0.1,0-0.1-0.1-0.1-0.1s0.1-0.1,0.1-0.1h16.8c0.1,0,0.1,0.1,0.1,0.1S31.5,207.9,31.4,207.9
				z"/>
		</g>
		<g>
			<path class="st1" d="M31.4,207.1H14.6c-0.1,0-0.1-0.1-0.1-0.1s0.1-0.1,0.1-0.1h16.8c0.1,0,0.1,0.1,0.1,0.1S31.5,207.1,31.4,207.1
				z"/>
		</g>
		<g>
			<path class="st1" d="M77.1,207.9H33c-0.1,0-0.1-0.1-0.1-0.1s0.1-0.1,0.1-0.1h44.1c0.1,0,0.1,0.1,0.1,0.1S77.2,207.9,77.1,207.9z"
				/>
		</g>
		<g>
			<path class="st1" d="M77.1,207.1H33c-0.1,0-0.1-0.1-0.1-0.1s0.1-0.1,0.1-0.1h44.1c0.1,0,0.1,0.1,0.1,0.1S77.2,207.1,77.1,207.1z"
				/>
		</g>
		<g>
			<path class="st1" d="M77.9,200.6H13.8c-0.1,0-0.1-0.1-0.1-0.1s0.1-0.1,0.1-0.1h64.2c0.1,0,0.1,0.1,0.1,0.1S78,200.6,77.9,200.6z"
				/>
		</g>
		<g>
			<path class="st1" d="M155.1,43.1h-29.6c-0.1,0-0.1-0.1-0.1-0.1s0.1-0.1,0.1-0.1H155v-1h-29.7c-0.1,0-0.1-0.1-0.1-0.1
				s0.1-0.1,0.1-0.1h29.9c0.1,0,0.1,0.1,0.1,0.1V43C155.2,43,155.2,43.1,155.1,43.1z"/>
		</g>
		<g>
			<path class="st1" d="M221.6,186.2h-15.2c-0.1,0-0.1-0.1-0.1-0.1s0.1-0.1,0.1-0.1h15.2c0.1,0,0.1,0.1,0.1,0.1
				S221.6,186.2,221.6,186.2z"/>
		</g>
		<g>
			<path class="st1" d="M221.6,189.8h-15.2c-0.1,0-0.1-0.1-0.1-0.1s0.1-0.1,0.1-0.1h15.2c0.1,0,0.1,0.1,0.1,0.1
				S221.6,189.8,221.6,189.8z"/>
		</g>
		<g>
			<path class="st1" d="M78.7,205.1H13c-0.1,0-0.1-0.1-0.1-0.1s0.1-0.1,0.1-0.1h65.8c0.1,0,0.1,0.1,0.1,0.1S78.8,205.1,78.7,205.1z"
				/>
		</g>
		<g>
			<path class="st1" d="M78.7,208.7H13c-0.1,0-0.1-0.1-0.1-0.1s0.1-0.1,0.1-0.1h65.8c0.1,0,0.1,0.1,0.1,0.1S78.8,208.7,78.7,208.7z"
				/>
		</g>
		<g>
			<path class="st1" d="M253.9,194.9h-47.5c-0.1,0-0.1-0.1-0.1-0.1s0.1-0.1,0.1-0.1h47.5c0.1,0,0.1,0.1,0.1,0.1
				S253.9,194.9,253.9,194.9z"/>
		</g>
		<g>
			<path class="st1" d="M260,194.9h-4.7c-0.1,0-0.1-0.1-0.1-0.1s0.1-0.1,0.1-0.1h4.7c0.1,0,0.1,0.1,0.1,0.1S260,194.9,260,194.9z"/>
		</g>
		<g>
			<path class="st1" d="M253.9,214.2H13c-0.1,0-0.1-0.1-0.1-0.1s0.1-0.1,0.1-0.1h240.9c0.1,0,0.1,0.1,0.1,0.1
				S253.9,214.2,253.9,214.2z"/>
		</g>
		<g>
			<path class="st1" d="M260,214.2h-4.7c-0.1,0-0.1-0.1-0.1-0.1s0.1-0.1,0.1-0.1h4.7c0.1,0,0.1,0.1,0.1,0.1S260,214.2,260,214.2z"/>
		</g>
		<g>
			<path class="st1" d="M260,233.4H13c-0.1,0-0.1-0.1-0.1-0.1s0.1-0.1,0.1-0.1h247c0.1,0,0.1,0.1,0.1,0.1S260,233.4,260,233.4z"/>
		</g>
		<g>
			<path class="st1" d="M260,252.7H13c-0.1,0-0.1-0.1-0.1-0.1s0.1-0.1,0.1-0.1h247c0.1,0,0.1,0.1,0.1,0.1S260,252.7,260,252.7z"/>
		</g>
		<g>
			<path class="st1" d="M207.9,271.9h-59.1c-0.1,0-0.1-0.1-0.1-0.1s0.1-0.1,0.1-0.1h59.1c0.1,0,0.1,0.1,0.1,0.1
				S208,271.9,207.9,271.9z"/>
		</g>
		<g>
			<path class="st1" d="M260,271.9h-50.6c-0.1,0-0.1-0.1-0.1-0.1s0.1-0.1,0.1-0.1H260c0.1,0,0.1,0.1,0.1,0.1S260,271.9,260,271.9z"
				/>
		</g>
		<g>
			<path class="st1" d="M29,255.9c-0.1,0-0.1-0.1-0.1-0.1v-47.2c0-0.1,0.1-0.1,0.1-0.1s0.1,0.1,0.1,0.1v47.2
				C29.1,255.9,29.1,255.9,29,255.9z"/>
		</g>
		<g>
			<path class="st1" d="M48.2,258.5c-0.1,0-0.1-0.1-0.1-0.1v-49.8c0-0.1,0.1-0.1,0.1-0.1s0.1,0.1,0.1,0.1v49.8
				C48.4,258.5,48.3,258.5,48.2,258.5z"/>
		</g>
		<g>
			<path class="st1" d="M67.5,261.1c-0.1,0-0.1-0.1-0.1-0.1v-52.4c0-0.1,0.1-0.1,0.1-0.1s0.1,0.1,0.1,0.1v52.4
				C67.6,261,67.6,261.1,67.5,261.1z"/>
		</g>
		<g>
			<path class="st1" d="M86.7,263.6c-0.1,0-0.1-0.1-0.1-0.1v-54.9c0-0.1,0.1-0.1,0.1-0.1s0.1,0.1,0.1,0.1v54.9
				C86.9,263.6,86.8,263.6,86.7,263.6z"/>
		</g>
		<g>
			<path class="st1" d="M106,266.2c-0.1,0-0.1-0.1-0.1-0.1v-57.5c0-0.1,0.1-0.1,0.1-0.1s0.1,0.1,0.1,0.1v57.5
				C106.1,266.1,106.1,266.2,106,266.2z"/>
		</g>
		<g>
			<path class="st1" d="M125.2,268.8c-0.1,0-0.1-0.1-0.1-0.1v-60.1c0-0.1,0.1-0.1,0.1-0.1s0.1,0.1,0.1,0.1v60.1
				C125.4,268.7,125.3,268.8,125.2,268.8z"/>
		</g>
		<g>
			<path class="st1" d="M144.5,271.3c-0.1,0-0.1-0.1-0.1-0.1v-62.6c0-0.1,0.1-0.1,0.1-0.1s0.1,0.1,0.1,0.1v62.6
				C144.6,271.3,144.6,271.3,144.5,271.3z"/>
		</g>
		<g>
			<path class="st1" d="M163.7,273.9c-0.1,0-0.1-0.1-0.1-0.1v-65.2c0-0.1,0.1-0.1,0.1-0.1s0.1,0.1,0.1,0.1v65.2
				C163.9,273.8,163.8,273.9,163.7,273.9z"/>
		</g>
		<g>
			<path class="st1" d="M183,276.5c-0.1,0-0.1-0.1-0.1-0.1v-67.8c0-0.1,0.1-0.1,0.1-0.1s0.1,0.1,0.1,0.1v67.8
				C183.1,276.4,183,276.5,183,276.5z"/>
		</g>
		<g>
			<path class="st1" d="M202.2,279c-0.1,0-0.1-0.1-0.1-0.1v-70.3c0-0.1,0.1-0.1,0.1-0.1s0.1,0.1,0.1,0.1v70.3
				C202.3,279,202.3,279,202.2,279z"/>
		</g>
		<g>
			<path class="st1" d="M221.5,291.2c-0.1,0-0.1-0.1-0.1-0.1V189.7c0-0.1,0.1-0.1,0.1-0.1s0.1,0.1,0.1,0.1V291
				C221.6,291.1,221.5,291.2,221.5,291.2z"/>
		</g>
		<g>
			<path class="st1" d="M240.7,291.2c-0.1,0-0.1-0.1-0.1-0.1V191c0-0.1,0.1-0.1,0.1-0.1s0.1,0.1,0.1,0.1v100
				C240.8,291.1,240.8,291.2,240.7,291.2z"/>
		</g>
		<g>
			<path class="st1" d="M260,291.2h-50.6c-0.1,0-0.1-0.1-0.1-0.1v-25.5h-1.2V291c0,0.1-0.1,0.1-0.1,0.1h-1.6c-0.1,0-0.1-0.1-0.1-0.1
				v-11.5L12.9,253.8c-0.1,0-0.1-0.1-0.1-0.1v-45.1c0-0.1,0.1-0.1,0.1-0.1h193.3v-18.7c0-0.1,0.1-0.1,0.1-0.1h15.2
				c0.1,0,0.1,0.1,0.1,0.1v1.2h32.2c0.1,0,0.1,0.1,0.1,0.1v28.7h1.2V191c0-0.1,0.1-0.1,0.1-0.1h4.7c0.1,0,0.1,0.1,0.1,0.1v100
				C260.1,291.1,260,291.2,260,291.2z M209.5,290.9h50.4v-99.8h-4.5v28.7c0,0.1-0.1,0.1-0.1,0.1h-1.4c-0.1,0-0.1-0.1-0.1-0.1v-28.7
				h-32.2c-0.1,0-0.1-0.1-0.1-0.1v-1.2h-15v18.7c0,0.1-0.1,0.1-0.1,0.1H13.1v44.9l193.3,25.8c0.1,0,0.1,0.1,0.1,0.1v11.5h1.4v-25.5
				c0-0.1,0.1-0.1,0.1-0.1h1.4c0.1,0,0.1,0.1,0.1,0.1V290.9z"/>
		</g>
		<g>
			<path class="st1" d="M8.2,91.2c-0.1,0-0.1-0.1-0.1-0.1v-6.5c0-0.1,0.1-0.1,0.1-0.1s0.1,0.1,0.1,0.1v6.5
				C8.4,91.1,8.3,91.2,8.2,91.2z"/>
		</g>
		<g>
			<path class="st1" d="M8.2,25.6c-0.1,0-0.1-0.1-0.1-0.1v-8.2c0-0.1,0.1-0.1,0.1-0.1s0.1,0.1,0.1,0.1v8.2
				C8.4,25.5,8.3,25.6,8.2,25.6z"/>
		</g>
		<g>
			<path class="st1" d="M8.2,68.7c-0.1,0-0.1-0.1-0.1-0.1V35.7c0-0.1,0.1-0.1,0.1-0.1s0.1,0.1,0.1,0.1v32.9
				C8.4,68.6,8.3,68.7,8.2,68.7z"/>
		</g>
		<g>
			<path class="st1" d="M17.9,91.2c-0.1,0-0.1-0.1-0.1-0.1v-6.5c0-0.1,0.1-0.1,0.1-0.1s0.1,0.1,0.1,0.1v6.5
				C18,91.1,17.9,91.2,17.9,91.2z"/>
		</g>
		<g>
			<path class="st1" d="M17.9,25.6c-0.1,0-0.1-0.1-0.1-0.1v-8.2c0-0.1,0.1-0.1,0.1-0.1s0.1,0.1,0.1,0.1v8.2
				C18,25.5,17.9,25.6,17.9,25.6z"/>
		</g>
		<g>
			<path class="st1" d="M17.9,68.7c-0.1,0-0.1-0.1-0.1-0.1V35.7c0-0.1,0.1-0.1,0.1-0.1s0.1,0.1,0.1,0.1v32.9
				C18,68.6,17.9,68.7,17.9,68.7z"/>
		</g>
		<g>
			<path class="st1" d="M27.5,91.2c-0.1,0-0.1-0.1-0.1-0.1v-6.7c0-0.1,0.1-0.1,0.1-0.1s0.1,0.1,0.1,0.1v6.7
				C27.6,91.1,27.6,91.2,27.5,91.2z"/>
		</g>
		<g>
			<path class="st1" d="M27.5,26.2c-0.1,0-0.1-0.1-0.1-0.1v-8.8c0-0.1,0.1-0.1,0.1-0.1s0.1,0.1,0.1,0.1V26
				C27.6,26.1,27.6,26.2,27.5,26.2z"/>
		</g>
		<g>
			<path class="st1" d="M27.5,68.8c-0.1,0-0.1-0.1-0.1-0.1V35.1c0-0.1,0.1-0.1,0.1-0.1s0.1,0.1,0.1,0.1v33.6
				C27.6,68.8,27.6,68.8,27.5,68.8z"/>
		</g>
		<g>
			<path class="st1" d="M37.1,91.2c-0.1,0-0.1-0.1-0.1-0.1V17.3c0-0.1,0.1-0.1,0.1-0.1s0.1,0.1,0.1,0.1v73.8
				C37.2,91.1,37.2,91.2,37.1,91.2z"/>
		</g>
		<g>
			<path class="st1" d="M46.7,91.2c-0.1,0-0.1-0.1-0.1-0.1V17.3c0-0.1,0.1-0.1,0.1-0.1s0.1,0.1,0.1,0.1v73.8
				C46.9,91.1,46.8,91.2,46.7,91.2z"/>
		</g>
		<g>
			<path class="st1" d="M56.4,91.2c-0.1,0-0.1-0.1-0.1-0.1V17.3c0-0.1,0.1-0.1,0.1-0.1s0.1,0.1,0.1,0.1v73.8
				C56.5,91.1,56.4,91.2,56.4,91.2z"/>
		</g>
		<g>
			<path class="st1" d="M66,71.9H29c-0.1,0-0.1-0.1-0.1-0.1s0.1-0.1,0.1-0.1h37c0.1,0,0.1,0.1,0.1,0.1S66.1,71.9,66,71.9z"/>
		</g>
		<g>
			<path class="st1" d="M64.1,52.7H7.4c-0.1,0-0.1-0.1-0.1-0.1s0.1-0.1,0.1-0.1h56.7c0.1,0,0.1,0.1,0.1,0.1S64.2,52.7,64.1,52.7z"/>
		</g>
		<g>
			<path class="st1" d="M64.1,33.5H29.5c-0.1,0-0.1-0.1-0.1-0.1s0.1-0.1,0.1-0.1h34.6c0.1,0,0.1,0.1,0.1,0.1S64.2,33.5,64.1,33.5z"
				/>
		</g>
		<g>
			<path class="st1" d="M8.1,33.5H7.4c-0.1,0-0.1-0.1-0.1-0.1s0.1-0.1,0.1-0.1h0.7c0.1,0,0.1,0.1,0.1,0.1S8.2,33.5,8.1,33.5z"/>
		</g>
		<g>
			<path class="st1" d="M22.5,36.4c-0.8,0-1.7-0.1-2.5-0.3c-2.5-0.5-5-0.8-7.5-1c-0.3,0.4-0.6,0.7-0.9,0.9c-0.2,0.2-0.5,0.2-0.8,0.2
				l-2.4-0.5c-0.2,0-0.4-0.2-0.4-0.4v-9.7c0-0.2,0.2-0.4,0.4-0.4l2.4-0.5c0.3-0.1,0.6,0,0.8,0.2c0.4,0.3,0.7,0.6,0.9,0.9
				c2.5-0.2,5.1-0.5,7.5-1c1.9-0.4,3.9-0.4,5.7,0.2c0.9,0.3,1.8,0.7,2.5,1.2c0.7,0.5,1.4,1.2,1.8,2c0.4,0.7,0.6,1.4,0.6,2.2
				c0,0.8-0.2,1.5-0.6,2.2c-0.5,0.8-1.1,1.5-1.8,2c-0.8,0.6-1.6,1-2.5,1.2C24.7,36.3,23.6,36.4,22.5,36.4z M12.4,34.9
				C12.4,34.9,12.4,34.9,12.4,34.9c2.6,0.2,5.1,0.5,7.6,1c1.9,0.4,3.8,0.4,5.6-0.2c0.9-0.3,1.7-0.7,2.5-1.2c0.7-0.5,1.3-1.2,1.8-1.9
				c0.4-0.6,0.5-1.3,0.5-2c0-0.7-0.2-1.4-0.5-2c-0.4-0.8-1-1.4-1.8-1.9c-0.7-0.5-1.6-0.9-2.5-1.2c-1.8-0.5-3.7-0.6-5.6-0.2
				c-2.5,0.5-5.1,0.8-7.6,1c0,0-0.1,0-0.1-0.1c-0.2-0.3-0.6-0.7-0.9-0.9c-0.2-0.1-0.4-0.2-0.6-0.1l-2.4,0.5c-0.1,0-0.2,0.1-0.2,0.2
				v9.7c0,0.1,0.1,0.2,0.2,0.2l2.4,0.5c0.2,0,0.5,0,0.6-0.1c0.4-0.3,0.7-0.6,0.9-0.9C12.3,35,12.4,34.9,12.4,34.9z"/>
		</g>
		<g>
			<path class="st1" d="M255.3,191.2h-28.9c-0.1,0-0.1-0.1-0.1-0.1s0.1-0.1,0.1-0.1h28.9c0.1,0,0.1,0.1,0.1,0.1
				S255.3,191.2,255.3,191.2z"/>
		</g>
		<g>
			<path class="st1" d="M255.3,181.7h-28.9c-0.1,0-0.1-0.1-0.1-0.1s0.1-0.1,0.1-0.1h28.9c0.1,0,0.1,0.1,0.1,0.1
				S255.3,181.7,255.3,181.7z"/>
		</g>
		<g>
			<path class="st1" d="M253.4,11.6h-27.3c-0.1,0-0.1-0.1-0.1-0.1s0.1-0.1,0.1-0.1h27.3c0.1,0,0.1,0.1,0.1,0.1
				S253.4,11.6,253.4,11.6z"/>
		</g>
		<g>
			<path class="st1" d="M253.4,7.6h-27.3c-0.1,0-0.1-0.1-0.1-0.1s0.1-0.1,0.1-0.1h27.3c0.1,0,0.1,0.1,0.1,0.1S253.4,7.6,253.4,7.6z"
				/>
		</g>
		<g>
			<path class="st1" d="M233.6,291.2h-25.7c-0.1,0-0.1-0.1-0.1-0.1s0.1-0.1,0.1-0.1h25.7c0.1,0,0.1,0.1,0.1,0.1
				S233.7,291.2,233.6,291.2z"/>
		</g>
		<g>
			<path class="st1" d="M233.6,292.8h-25.7c-0.1,0-0.1-0.1-0.1-0.1s0.1-0.1,0.1-0.1h25.7c0.1,0,0.1,0.1,0.1,0.1
				S233.7,292.8,233.6,292.8z"/>
		</g>
		<g>
			<path class="st1" d="M64.1,91.2H7.4c-0.1,0-0.1-0.1-0.1-0.1v-6.5c0-0.1,0.1-0.1,0.1-0.1h19.1c1.3,0,2.3-1,2.3-2.3V70.9
				c0-1.3-1-2.3-2.3-2.3H7.4c-0.1,0-0.1-0.1-0.1-0.1V17.3c0-0.1,0.1-0.1,0.1-0.1h56.7c0.1,0,0.1,0.1,0.1,0.1v39.4H66
				c0.1,0,0.1,0.1,0.1,0.1v27.3c0,0.1-0.1,0.1-0.1,0.1h-1.7v6.9C64.3,91.1,64.2,91.2,64.1,91.2z M7.6,90.9H64v-6.9
				c0-0.1,0.1-0.1,0.1-0.1h1.7v-27h-1.7c-0.1,0-0.1-0.1-0.1-0.1V17.4H7.6v51h19c1.4,0,2.5,1.1,2.5,2.5v11.2c0,1.4-1.1,2.5-2.5,2.5
				h-19V90.9z"/>
		</g>
	</g>
	<g>
		<g>
			<path class="st1" d="M223.2,126.6h-1c-0.1,0-0.1-0.1-0.1-0.1s0.1-0.1,0.1-0.1h1c0.1,0,0.1,0.1,0.1,0.1S223.2,126.6,223.2,126.6z"
				/>
		</g>
		<g>
			<path class="st1" d="M255.5,126.6h-2c-0.1,0-0.1-0.1-0.1-0.1s0.1-0.1,0.1-0.1h2c0.1,0,0.1,0.1,0.1,0.1S255.5,126.6,255.5,126.6z
				 M252.5,126.6h-2c-0.1,0-0.1-0.1-0.1-0.1s0.1-0.1,0.1-0.1h2c0.1,0,0.1,0.1,0.1,0.1S252.6,126.6,252.5,126.6z M249.6,126.6h-2
				c-0.1,0-0.1-0.1-0.1-0.1s0.1-0.1,0.1-0.1h2c0.1,0,0.1,0.1,0.1,0.1S249.7,126.6,249.6,126.6z M246.7,126.6h-2
				c-0.1,0-0.1-0.1-0.1-0.1s0.1-0.1,0.1-0.1h2c0.1,0,0.1,0.1,0.1,0.1S246.7,126.6,246.7,126.6z M243.7,126.6h-2
				c-0.1,0-0.1-0.1-0.1-0.1s0.1-0.1,0.1-0.1h2c0.1,0,0.1,0.1,0.1,0.1S243.8,126.6,243.7,126.6z M240.8,126.6h-2
				c-0.1,0-0.1-0.1-0.1-0.1s0.1-0.1,0.1-0.1h2c0.1,0,0.1,0.1,0.1,0.1S240.9,126.6,240.8,126.6z M237.9,126.6h-2
				c-0.1,0-0.1-0.1-0.1-0.1s0.1-0.1,0.1-0.1h2c0.1,0,0.1,0.1,0.1,0.1S237.9,126.6,237.9,126.6z M234.9,126.6h-2
				c-0.1,0-0.1-0.1-0.1-0.1s0.1-0.1,0.1-0.1h2c0.1,0,0.1,0.1,0.1,0.1S235,126.6,234.9,126.6z M232,126.6h-2c-0.1,0-0.1-0.1-0.1-0.1
				s0.1-0.1,0.1-0.1h2c0.1,0,0.1,0.1,0.1,0.1S232.1,126.6,232,126.6z M229,126.6h-2c-0.1,0-0.1-0.1-0.1-0.1s0.1-0.1,0.1-0.1h2
				c0.1,0,0.1,0.1,0.1,0.1S229.1,126.6,229,126.6z M226.1,126.6h-2c-0.1,0-0.1-0.1-0.1-0.1s0.1-0.1,0.1-0.1h2c0.1,0,0.1,0.1,0.1,0.1
				S226.2,126.6,226.1,126.6z"/>
		</g>
		<g>
			<path class="st1" d="M257.5,126.6h-1c-0.1,0-0.1-0.1-0.1-0.1s0.1-0.1,0.1-0.1h1c0.1,0,0.1,0.1,0.1,0.1S257.5,126.6,257.5,126.6z"
				/>
		</g>
		<g>
			<path class="st1" d="M64.1,102.9h-1c-0.1,0-0.1-0.1-0.1-0.1s0.1-0.1,0.1-0.1h1c0.1,0,0.1,0.1,0.1,0.1S64.2,102.9,64.1,102.9z"/>
		</g>
		<g>
			<path class="st1" d="M62.1,102.9h-2c-0.1,0-0.1-0.1-0.1-0.1s0.1-0.1,0.1-0.1h2c0.1,0,0.1,0.1,0.1,0.1S62.2,102.9,62.1,102.9z
				 M59.2,102.9h-2c-0.1,0-0.1-0.1-0.1-0.1s0.1-0.1,0.1-0.1h2c0.1,0,0.1,0.1,0.1,0.1S59.2,102.9,59.2,102.9z M56.2,102.9h-2
				c-0.1,0-0.1-0.1-0.1-0.1s0.1-0.1,0.1-0.1h2c0.1,0,0.1,0.1,0.1,0.1S56.2,102.9,56.2,102.9z M53.2,102.9h-2c-0.1,0-0.1-0.1-0.1-0.1
				s0.1-0.1,0.1-0.1h2c0.1,0,0.1,0.1,0.1,0.1S53.3,102.9,53.2,102.9z M50.2,102.9h-2c-0.1,0-0.1-0.1-0.1-0.1s0.1-0.1,0.1-0.1h2
				c0.1,0,0.1,0.1,0.1,0.1S50.3,102.9,50.2,102.9z M47.2,102.9h-2c-0.1,0-0.1-0.1-0.1-0.1s0.1-0.1,0.1-0.1h2c0.1,0,0.1,0.1,0.1,0.1
				S47.3,102.9,47.2,102.9z M44.2,102.9h-2c-0.1,0-0.1-0.1-0.1-0.1s0.1-0.1,0.1-0.1h2c0.1,0,0.1,0.1,0.1,0.1S44.3,102.9,44.2,102.9z
				 M41.3,102.9h-2c-0.1,0-0.1-0.1-0.1-0.1s0.1-0.1,0.1-0.1h2c0.1,0,0.1,0.1,0.1,0.1S41.3,102.9,41.3,102.9z M38.3,102.9h-2
				c-0.1,0-0.1-0.1-0.1-0.1s0.1-0.1,0.1-0.1h2c0.1,0,0.1,0.1,0.1,0.1S38.3,102.9,38.3,102.9z M35.3,102.9h-2c-0.1,0-0.1-0.1-0.1-0.1
				s0.1-0.1,0.1-0.1h2c0.1,0,0.1,0.1,0.1,0.1S35.4,102.9,35.3,102.9z M32.3,102.9h-2c-0.1,0-0.1-0.1-0.1-0.1s0.1-0.1,0.1-0.1h2
				c0.1,0,0.1,0.1,0.1,0.1S32.4,102.9,32.3,102.9z M29.3,102.9h-2c-0.1,0-0.1-0.1-0.1-0.1s0.1-0.1,0.1-0.1h2c0.1,0,0.1,0.1,0.1,0.1
				S29.4,102.9,29.3,102.9z M26.3,102.9h-2c-0.1,0-0.1-0.1-0.1-0.1s0.1-0.1,0.1-0.1h2c0.1,0,0.1,0.1,0.1,0.1S26.4,102.9,26.3,102.9z
				 M23.4,102.9h-2c-0.1,0-0.1-0.1-0.1-0.1s0.1-0.1,0.1-0.1h2c0.1,0,0.1,0.1,0.1,0.1S23.4,102.9,23.4,102.9z M20.4,102.9h-2
				c-0.1,0-0.1-0.1-0.1-0.1s0.1-0.1,0.1-0.1h2c0.1,0,0.1,0.1,0.1,0.1S20.4,102.9,20.4,102.9z M17.4,102.9h-2c-0.1,0-0.1-0.1-0.1-0.1
				s0.1-0.1,0.1-0.1h2c0.1,0,0.1,0.1,0.1,0.1S17.5,102.9,17.4,102.9z M14.4,102.9h-2c-0.1,0-0.1-0.1-0.1-0.1s0.1-0.1,0.1-0.1h2
				c0.1,0,0.1,0.1,0.1,0.1S14.5,102.9,14.4,102.9z M11.4,102.9h-2c-0.1,0-0.1-0.1-0.1-0.1s0.1-0.1,0.1-0.1h2c0.1,0,0.1,0.1,0.1,0.1
				S11.5,102.9,11.4,102.9z"/>
		</g>
		<g>
			<path class="st1" d="M8.4,102.9h-1c-0.1,0-0.1-0.1-0.1-0.1s0.1-0.1,0.1-0.1h1c0.1,0,0.1,0.1,0.1,0.1S8.5,102.9,8.4,102.9z"/>
		</g>
	</g>
	<g>
		<polygon class="st2" points="13,241.1 0.1,241.1 0.1,5.7 224.5,5.7 224.5,7.5 226.1,7.5 226.1,11.5 224.5,11.5 224.5,15.4 
			197.5,15.4 197.5,17.1 193.8,17.1 193.8,15.4 70.9,15.4 70.9,44.2 73,44.2 73,53.6 67.8,53.6 67.8,56.8 64.1,56.8 64.1,17.3 
			7.4,17.3 7.4,91.1 64.1,91.1 64.1,84.1 67.8,84.1 67.8,117.7 55,117.7 55,114 64.1,114 64.1,94.8 7.4,94.8 7.4,114 16.5,114 
			16.5,117.7 7.4,117.7 7.4,200.4 13.8,200.4 13.8,205 13,205 		"/>
	</g>
	<g>
		<path class="st1" d="M13,241.2H0.1c-0.1,0-0.1-0.1-0.1-0.1V5.7c0-0.1,0.1-0.1,0.1-0.1h224.4c0.1,0,0.1,0.1,0.1,0.1v1.7h1.5
			c0.1,0,0.1,0.1,0.1,0.1v4c0,0.1-0.1,0.1-0.1,0.1h-1.5v3.8c0,0.1-0.1,0.1-0.1,0.1h-26.9v1.6c0,0.1-0.1,0.1-0.1,0.1h-3.7
			c-0.1,0-0.1-0.1-0.1-0.1v-1.6H71.1V44H73c0.1,0,0.1,0.1,0.1,0.1v9.4c0,0.1-0.1,0.1-0.1,0.1h-5v3.1c0,0.1-0.1,0.1-0.1,0.1h-3.7
			c-0.1,0-0.1-0.1-0.1-0.1V17.4H7.6v73.5H64v-6.9c0-0.1,0.1-0.1,0.1-0.1h3.7c0.1,0,0.1,0.1,0.1,0.1v33.7c0,0.1-0.1,0.1-0.1,0.1H55
			c-0.1,0-0.1-0.1-0.1-0.1V114c0-0.1,0.1-0.1,0.1-0.1h9v-19H7.6v19h8.9c0.1,0,0.1,0.1,0.1,0.1v3.7c0,0.1-0.1,0.1-0.1,0.1H7.6v82.5
			h6.2c0.1,0,0.1,0.1,0.1,0.1v4.5c0,0.1-0.1,0.1-0.1,0.1h-0.7v36C13.1,241.1,13,241.2,13,241.2z M0.2,240.9h12.6v-36
			c0-0.1,0.1-0.1,0.1-0.1h0.7v-4.3H7.4c-0.1,0-0.1-0.1-0.1-0.1v-82.7c0-0.1,0.1-0.1,0.1-0.1h8.9v-3.5H7.4c-0.1,0-0.1-0.1-0.1-0.1
			V94.8c0-0.1,0.1-0.1,0.1-0.1h56.7c0.1,0,0.1,0.1,0.1,0.1V114c0,0.1-0.1,0.1-0.1,0.1h-9v3.5h12.6V84.2h-3.5v6.9
			c0,0.1-0.1,0.1-0.1,0.1H7.4c-0.1,0-0.1-0.1-0.1-0.1V17.3c0-0.1,0.1-0.1,0.1-0.1h56.7c0.1,0,0.1,0.1,0.1,0.1v39.4h3.5v-3.1
			c0-0.1,0.1-0.1,0.1-0.1h5v-9.2h-1.9c-0.1,0-0.1-0.1-0.1-0.1V15.4c0-0.1,0.1-0.1,0.1-0.1h122.8c0.1,0,0.1,0.1,0.1,0.1V17h3.5v-1.6
			c0-0.1,0.1-0.1,0.1-0.1h26.9v-3.8c0-0.1,0.1-0.1,0.1-0.1h1.5V7.6h-1.5c-0.1,0-0.1-0.1-0.1-0.1V5.8H0.2V240.9z"/>
	</g>
	<g>
		<polygon class="st2" points="77.9,200.4 77.9,205 78.7,205 78.7,208.6 206.3,208.6 206.3,186.1 207.1,186.1 207.1,181.6 
			198.2,181.6 198.2,194.2 121.2,194.2 121.2,200.4 		"/>
	</g>
	<g>
		<path class="st1" d="M206.3,208.7H78.7c-0.1,0-0.1-0.1-0.1-0.1v-3.5h-0.7c0,0-0.1,0-0.1,0s0-0.1,0-0.1l0-4.5
			c0-0.1,0.1-0.1,0.1-0.1h43.2v-6.1c0-0.1,0.1-0.1,0.1-0.1h76.9v-12.5c0-0.1,0.1-0.1,0.1-0.1h8.9c0.1,0,0.1,0.1,0.1,0.1v4.5
			c0,0.1-0.1,0.1-0.1,0.1h-0.7v22.3C206.5,208.6,206.4,208.7,206.3,208.7z M78.8,208.4h127.4v-22.3c0-0.1,0.1-0.1,0.1-0.1h0.7v-4.3
			h-8.7v12.5c0,0.1-0.1,0.1-0.1,0.1h-76.9v6.1c0,0.1-0.1,0.1-0.1,0.1H78.1l0,4.3h0.7c0.1,0,0.1,0.1,0.1,0.1V208.4z"/>
	</g>
	<g>
		<rect x="221.6" y="181.6" class="st2" width="4.8" height="9.4"/>
	</g>
	<g>
		<path class="st1" d="M226.4,191.2h-4.8c-0.1,0-0.1-0.1-0.1-0.1v-9.4c0-0.1,0.1-0.1,0.1-0.1h4.8c0.1,0,0.1,0.1,0.1,0.1v9.4
			C226.5,191.1,226.5,191.2,226.4,191.2z M221.7,190.9h4.6v-9.2h-4.6V190.9z"/>
	</g>
	<g>
		<polygon class="st2" points="255.3,181.6 255.3,191 260,191 260,241.1 267.3,241.1 267.3,5.7 255,5.7 255,7.5 253.4,7.5 
			253.4,11.5 255,11.5 255,15.4 257.5,15.4 257.5,111.6 254.3,111.6 254.3,115.3 257.5,115.3 257.5,134.5 222.2,134.5 222.2,115.3 
			225.4,115.3 225.4,111.6 222.2,111.6 222.2,108.8 215.4,108.8 215.4,141.4 257.5,141.4 257.5,181.6 		"/>
	</g>
	<g>
		<path class="st1" d="M267.3,241.2H260c-0.1,0-0.1-0.1-0.1-0.1v-49.9h-4.6c-0.1,0-0.1-0.1-0.1-0.1v-9.4c0-0.1,0.1-0.1,0.1-0.1h2.1
			v-40h-42c-0.1,0-0.1-0.1-0.1-0.1v-32.6c0-0.1,0.1-0.1,0.1-0.1h6.8c0.1,0,0.1,0.1,0.1,0.1v2.7h3.1c0.1,0,0.1,0.1,0.1,0.1v3.7
			c0,0.1-0.1,0.1-0.1,0.1h-3.1v19h35v-19h-3.1c-0.1,0-0.1-0.1-0.1-0.1v-3.7c0-0.1,0.1-0.1,0.1-0.1h3.1V15.5H255
			c-0.1,0-0.1-0.1-0.1-0.1v-3.8h-1.5c-0.1,0-0.1-0.1-0.1-0.1v-4c0-0.1,0.1-0.1,0.1-0.1h1.5V5.7c0-0.1,0.1-0.1,0.1-0.1h12.3
			c0.1,0,0.1,0.1,0.1,0.1v235.4C267.4,241.1,267.4,241.2,267.3,241.2z M260.1,240.9h7.1V5.8h-12.1v1.7c0,0.1-0.1,0.1-0.1,0.1h-1.5
			v3.8h1.5c0.1,0,0.1,0.1,0.1,0.1v3.8h2.4c0.1,0,0.1,0.1,0.1,0.1v96.2c0,0.1-0.1,0.1-0.1,0.1h-3.1v3.5h3.1c0.1,0,0.1,0.1,0.1,0.1
			v19.2c0,0.1-0.1,0.1-0.1,0.1h-35.3c-0.1,0-0.1-0.1-0.1-0.1v-19.2c0-0.1,0.1-0.1,0.1-0.1h3.1v-3.5h-3.1c-0.1,0-0.1-0.1-0.1-0.1
			v-2.7h-6.6v32.3h42c0.1,0,0.1,0.1,0.1,0.1v40.3c0,0.1-0.1,0.1-0.1,0.1h-2.1v9.2h4.6c0.1,0,0.1,0.1,0.1,0.1V240.9z"/>
	</g>
	<g>
		<polygon class="st2" points="97,44.2 97,53.6 215.4,53.6 215.4,81.5 222.2,81.5 222.2,44.2 197.5,44.2 197.5,42.8 193.8,42.8 
			193.8,44.2 		"/>
	</g>
	<g>
		<path class="st1" d="M222.2,81.6h-6.8c-0.1,0-0.1-0.1-0.1-0.1V53.7H97c-0.1,0-0.1-0.1-0.1-0.1v-9.4c0-0.1,0.1-0.1,0.1-0.1h96.6
			v-1.3c0-0.1,0.1-0.1,0.1-0.1h3.7c0.1,0,0.1,0.1,0.1,0.1V44h24.6c0.1,0,0.1,0.1,0.1,0.1v37.3C222.3,81.6,222.2,81.6,222.2,81.6z
			 M215.5,81.4h6.6V44.3h-24.6c-0.1,0-0.1-0.1-0.1-0.1v-1.3h-3.5v1.3c0,0.1-0.1,0.1-0.1,0.1H97.1v9.2h118.2c0.1,0,0.1,0.1,0.1,0.1
			V81.4z"/>
	</g>
	<g>
		<path class="st1" d="M234.3,0.3h-1.9v1.1h1.7v0.3h-1.7v1.1h1.9v0.3H232V0h2.3V0.3z"/>
		<path class="st1" d="M237.4,0h0.3v3.2h-0.3l-2-2.6v2.6h-0.3V0h0.3l2,2.5V0z"/>
		<path class="st1" d="M240,3.2h-0.4V0.3h-1.1V0h2.5v0.3H240V3.2z"/>
		<path class="st1" d="M243.9,3.2L243,1.9h-0.9v1.2h-0.4V0h1.4c0.7,0,1.1,0.4,1.1,0.9c0,0.5-0.4,0.8-0.9,0.9l1,1.3H243.9z
			 M243.1,0.3h-1v1.3h1c0.5,0,0.8-0.2,0.8-0.7C243.9,0.6,243.6,0.3,243.1,0.3z"/>
		<path class="st1" d="M246.3,3.2H246V1.9L244.7,0h0.4l1.1,1.6l1.1-1.6h0.4l-1.3,1.9V3.2z"/>
	</g>
	<g>
		<path class="st1" d="M160.7,30.1c0,0.9-0.5,1.4-1.3,1.4c-0.8,0-1.3-0.5-1.3-1.4v-1.8h0.4v1.8c0,0.7,0.4,1.1,1,1.1c0.6,0,1-0.4,1-1
			v-1.8h0.4V30.1z"/>
		<path class="st1" d="M162.8,30.4H162v1.1h-0.4v-3.2h1.2c0.7,0,1.2,0.4,1.2,1C164,30,163.5,30.4,162.8,30.4z M162.8,28.7H162v1.4
			h0.8c0.5,0,0.9-0.3,0.9-0.7C163.7,28.9,163.3,28.7,162.8,28.7z"/>
	</g>
	<g>
		<path class="st1" d="M129.3,243.9h-0.8v1.1h-0.4v-3.2h1.2c0.7,0,1.2,0.4,1.2,1C130.6,243.5,130,243.9,129.3,243.9z M129.3,242.1
			h-0.8v1.4h0.8c0.5,0,0.9-0.3,0.9-0.7C130.2,242.4,129.9,242.1,129.3,242.1z"/>
		<path class="st1" d="M133.9,245h-0.4l-0.4-0.8h-1.7l-0.4,0.8h-0.4l1.4-3.2h0.3L133.9,245z M132.3,242.2l-0.7,1.6h1.4L132.3,242.2z
			"/>
		<path class="st1" d="M135.4,245h-0.4v-2.8H134v-0.3h2.5v0.3h-1.1V245z"/>
		<path class="st1" d="M137.6,241.8v3.2h-0.4v-3.2H137.6z"/>
		<path class="st1" d="M140.1,245c-1,0-1.6-0.8-1.6-1.6c0-0.9,0.7-1.6,1.6-1.6c1,0,1.6,0.8,1.6,1.6S141.1,245,140.1,245z
			 M140.1,242.1c-0.7,0-1.2,0.6-1.2,1.3c0,0.7,0.5,1.3,1.2,1.3s1.2-0.6,1.2-1.3C141.3,242.7,140.8,242.1,140.1,242.1z"/>
	</g>
	<g>
		<path class="st1" d="M141.3,102.5h0.3l0.9,2.6l0.9-2.6h0.4l-1.1,3.2h-0.3l-0.9-2.6l-0.9,2.6h-0.3l-1.1-3.2h0.4l0.9,2.6
			L141.3,102.5z"/>
		<path class="st1" d="M145.8,105.7c-1,0-1.6-0.8-1.6-1.6c0-0.9,0.7-1.6,1.6-1.6c1,0,1.6,0.8,1.6,1.6S146.8,105.7,145.8,105.7z
			 M145.8,102.7c-0.7,0-1.2,0.6-1.2,1.3c0,0.7,0.5,1.3,1.2,1.3s1.2-0.6,1.2-1.3C147,103.3,146.5,102.7,145.8,102.7z"/>
		<path class="st1" d="M150.4,105.6l-0.9-1.2h-0.9v1.2h-0.4v-3.2h1.4c0.7,0,1.1,0.4,1.1,0.9c0,0.5-0.4,0.8-0.9,0.9l1,1.3H150.4z
			 M149.6,102.8h-1v1.3h1c0.5,0,0.8-0.2,0.8-0.7C150.4,103,150.1,102.8,149.6,102.8z"/>
		<path class="st1" d="M154.3,105.6h-0.4l-1.2-1.5l-0.7,0.7v0.8h-0.4v-3.2h0.4v1.9l1.8-1.9h0.5l-1.4,1.4L154.3,105.6z"/>
	</g>
	<g>
		<path class="st1" d="M34.3,61.1h-0.8v1.1h-0.4v-3.2h1.2c0.7,0,1.2,0.4,1.2,1C35.6,60.8,35,61.1,34.3,61.1z M34.4,59.4h-0.8v1.4
			h0.8c0.5,0,0.9-0.3,0.9-0.7C35.2,59.7,34.9,59.4,34.4,59.4z"/>
		<path class="st1" d="M37.8,62.3c-1,0-1.6-0.8-1.6-1.6c0-0.9,0.7-1.6,1.6-1.6c1,0,1.6,0.8,1.6,1.6C39.4,61.5,38.7,62.3,37.8,62.3z
			 M37.8,59.4c-0.7,0-1.2,0.6-1.2,1.3S37,62,37.8,62s1.2-0.6,1.2-1.3S38.5,59.4,37.8,59.4z"/>
		<path class="st1" d="M42,59.1h0.3l0.9,2.6l0.9-2.6h0.4l-1.1,3.2H43l-0.9-2.6l-0.9,2.6h-0.3l-1.1-3.2h0.4l0.9,2.6L42,59.1z"/>
		<path class="st1" d="M46.2,62.2h-1.1v-3.2h1.1c1,0,1.7,0.7,1.7,1.6C47.9,61.6,47.2,62.2,46.2,62.2z M46.2,59.4h-0.7v2.5h0.7
			c0.8,0,1.3-0.5,1.3-1.2S47,59.4,46.2,59.4z"/>
		<path class="st1" d="M51,59.4h-1.9v1.1h1.7v0.3h-1.7v1.1H51v0.3h-2.3v-3.2H51V59.4z"/>
		<path class="st1" d="M54,62.2L53.1,61h-0.9v1.2h-0.4v-3.2h1.4c0.7,0,1.1,0.4,1.1,0.9c0,0.5-0.4,0.8-0.9,0.9l1,1.3H54z M53.2,59.4
			h-1v1.3h1c0.5,0,0.8-0.2,0.8-0.7C54,59.7,53.7,59.4,53.2,59.4z"/>
	</g>
	<g>
		<path class="st1" d="M84.4,31.2c0.7,0.2,1,0.4,1,0.9c0,0.5-0.4,0.9-1.1,0.9c-0.5,0-0.9-0.2-1.3-0.5l0.2-0.3
			c0.3,0.3,0.6,0.4,1.1,0.4c0.4,0,0.7-0.2,0.7-0.5c0-0.3-0.2-0.5-0.8-0.6c-0.7-0.2-1.1-0.4-1.1-0.9c0-0.5,0.4-0.9,1-0.9
			c0.5,0,0.8,0.1,1.1,0.4l-0.2,0.3c-0.3-0.2-0.6-0.3-0.9-0.3c-0.4,0-0.7,0.2-0.7,0.5C83.5,30.8,83.7,31,84.4,31.2z"/>
		<path class="st1" d="M87.3,32.9H87v-2.8h-1.1v-0.3h2.5v0.3h-1.1V32.9z"/>
		<path class="st1" d="M90.4,33c-1,0-1.6-0.8-1.6-1.6c0-0.9,0.7-1.6,1.6-1.6c1,0,1.6,0.8,1.6,1.6C92,32.2,91.4,33,90.4,33z M90.4,30
			c-0.7,0-1.2,0.6-1.2,1.3s0.5,1.3,1.2,1.3s1.2-0.6,1.2-1.3S91.1,30,90.4,30z"/>
		<path class="st1" d="M95,32.9l-0.9-1.2h-0.9v1.2h-0.4v-3.2h1.4c0.7,0,1.1,0.4,1.1,0.9c0,0.5-0.4,0.8-0.9,0.9l1,1.3H95z M94.2,30.1
			h-1v1.3h1c0.5,0,0.8-0.2,0.8-0.7C95,30.3,94.7,30.1,94.2,30.1z"/>
		<path class="st1" d="M99.1,32.9h-0.4l-0.4-0.8h-1.7l-0.4,0.8h-0.4l1.4-3.2h0.3L99.1,32.9z M97.5,30.1l-0.7,1.6h1.4L97.5,30.1z"/>
		<path class="st1" d="M101.1,33c-1,0-1.6-0.7-1.6-1.6c0-0.9,0.6-1.6,1.6-1.6c0.5,0,0.9,0.2,1.2,0.4l-0.2,0.3
			c-0.2-0.2-0.5-0.4-1-0.4c-0.7,0-1.2,0.6-1.2,1.3c0,0.8,0.5,1.3,1.2,1.3c0.4,0,0.7-0.1,0.9-0.3v-0.8h-1v-0.3h1.3v1.3
			C102.1,32.7,101.7,33,101.1,33z"/>
		<path class="st1" d="M105.6,30.1h-1.9v1.1h1.7v0.3h-1.7v1.1h1.9v0.3h-2.3v-3.2h2.3V30.1z"/>
	</g>
	<g>
		<path class="st1" d="M234.4,196.3h-1.9v1.1h1.7v0.3h-1.7v1.1h1.9v0.3h-2.3V196h2.3V196.3z"/>
		<path class="st1" d="M237.5,196h0.3v3.2h-0.3l-2-2.6v2.6h-0.3V196h0.3l2,2.5V196z"/>
		<path class="st1" d="M240,199.1h-0.4v-2.8h-1.1V196h2.5v0.3H240V199.1z"/>
		<path class="st1" d="M244,199.1l-0.9-1.2h-0.9v1.2h-0.4V196h1.4c0.7,0,1.1,0.4,1.1,0.9c0,0.5-0.4,0.8-0.9,0.9l1,1.3H244z
			 M243.1,196.3h-1v1.3h1c0.5,0,0.8-0.2,0.8-0.7C244,196.5,243.7,196.3,243.1,196.3z"/>
		<path class="st1" d="M246.4,199.1H246v-1.2l-1.3-1.9h0.4l1.1,1.6l1.1-1.6h0.4l-1.3,1.9V199.1z"/>
	</g>
	<g>
		<path class="st3" d="M121,313.9h0.8v6.3h3.9v0.7H121V313.9z"/>
		<path class="st3" d="M130.3,321c-2.1,0-3.6-1.7-3.6-3.6c0-1.9,1.4-3.6,3.6-3.6s3.6,1.7,3.6,3.6C133.9,319.3,132.4,321,130.3,321z
			 M130.3,314.5c-1.6,0-2.7,1.3-2.7,2.9c0,1.6,1.2,2.9,2.8,2.9s2.7-1.3,2.7-2.9C133.1,315.8,131.9,314.5,130.3,314.5z"/>
		<path class="st3" d="M139.6,313.8h0.6l1.9,5.8l2-5.8h0.8l-2.5,7h-0.7l-1.9-5.7l-1.9,5.7h-0.7l-2.5-7h0.9l2,5.8L139.6,313.8z"/>
		<path class="st3" d="M151.7,314.6h-4.3v2.4h3.8v0.7h-3.8v2.4h4.3v0.7h-5.1v-7h5.1V314.6z"/>
		<path class="st3" d="M158.4,320.9l-2-2.7h-2v2.7h-0.8v-7h3c1.5,0,2.5,0.8,2.5,2.1c0,1.2-0.8,1.8-1.9,2l2.1,2.9H158.4z
			 M156.5,314.6h-2.2v2.8h2.1c1,0,1.8-0.5,1.8-1.4C158.3,315.1,157.6,314.6,156.5,314.6z"/>
	</g>
</g>
</svg>
