<?xml version="1.0" encoding="utf-8"?>
<!-- Generator: Adobe Illustrator 25.1.0, SVG Export Plug-In . SVG Version: 6.00 Build 0)  -->
<svg version="1.1" id="Layer_1" xmlns="http://www.w3.org/2000/svg" xmlns:xlink="http://www.w3.org/1999/xlink" x="0px" y="0px"
	 viewBox="0 0 498.12 539.94" style="enable-background:new 0 0 498.12 539.94;" xml:space="preserve">
<style type="text/css">
	.st0{fill:none;stroke:#93A1B1;stroke-width:0.289;stroke-linejoin:round;stroke-miterlimit:10;}
	.st1{fill:none;stroke:#00516B;stroke-width:0.301;stroke-linecap:round;stroke-linejoin:round;stroke-miterlimit:10;}
	
		.st2{fill:none;stroke:#00516B;stroke-width:0.301;stroke-linecap:round;stroke-linejoin:round;stroke-miterlimit:10;stroke-dasharray:4.824,2.412;}
	.st3{fill-rule:evenodd;clip-rule:evenodd;fill:#00516B;}
	.st4{fill:#00516B;}
</style>
<rect x="339.52" y="505.06" class="st0" width="20.99" height="19.75"/>
<rect x="239.51" y="505.06" class="st0" width="20.99" height="19.75"/>
<polygon class="st0" points="106.95,444.72 106.95,520.81 151.4,520.81 151.4,522.97 106.95,522.97 106.95,527.29 230.1,527.29 
	230.1,405.05 235.81,405.05 235.81,527.29 262.97,527.29 262.97,426.04 337.05,426.04 337.05,527.29 366.93,527.29 366.93,397.18 
	318.58,397.18 318.58,395.02 348.21,395.02 348.21,391.47 351.04,391.47 351.04,378.97 286.12,378.97 286.12,391.47 288.95,391.47 
	288.95,392.86 318.58,392.86 318.58,395.02 288.95,395.02 288.95,397.18 280.41,397.18 280.41,358.75 235.81,358.75 235.81,365.23 
	277.79,365.23 277.79,363.07 230.1,363.07 230.1,353.04 232.72,353.04 232.72,322.17 268.52,322.17 268.52,319.4 269.76,319.4 
	269.76,322.17 323.39,322.17 323.39,320.63 302.27,320.63 302.27,322.17 299.18,322.17 299.18,320.17 326.47,320.17 326.47,322.17 
	336.07,322.17 336.07,244.39 335.02,244.39 335.02,266.3 336.07,266.3 336.07,266.92 334.71,266.92 334.71,243.77 336.07,243.77 
	336.07,208.12 366.93,208.12 366.93,208.06 373.88,208.06 373.88,161.14 366.93,161.14 366.93,82.57 162.81,82.57 162.81,99.08 
	177.62,99.08 177.62,168.22 162.81,168.22 162.81,186.13 157.1,186.13 157.1,82.57 12.5,82.57 12.5,110.27 113.74,110.27 
	113.74,204.11 12.5,204.11 12.5,231.81 46.13,231.81 46.13,237.52 29.78,237.52 29.78,304.85 46.13,304.85 46.13,307.71 
	67.12,307.71 67.12,306.93 88.11,306.93 88.11,304.85 106.01,304.85 106.01,237.52 88.11,237.52 88.11,235.44 67.12,235.44 
	67.12,233.89 88.11,233.89 88.11,231.81 157.1,231.81 157.1,225.95 115.12,225.95 115.12,228.11 162.81,228.11 162.81,231.81 
	181.95,231.81 181.95,265.63 200.47,265.63 200.47,263.47 179.09,263.47 179.09,300.51 200.47,300.51 200.47,298.35 181.95,298.35 
	181.95,357.02 179.86,357.02 179.86,378.01 179.09,378.01 179.09,399 181.95,399 181.95,444.72 "/>
<polygon class="st0" points="224.97,124.55 224.97,85.04 333.62,85.04 333.62,161.59 299.05,161.59 299.05,124.55 "/>
<rect x="14.97" y="206.58" class="st0" width="19.76" height="22.77"/>
<rect x="14.97" y="85.04" class="st0" width="19.76" height="22.77"/>
<path class="st0" d="M337.3,99.85c0-6.82,5.53-12.35,12.35-12.35c6.82,0,12.35,5.53,12.35,12.35c0,6.82-5.53,12.35-12.35,12.35
	C342.83,112.2,337.3,106.67,337.3,99.85z"/>
<rect x="195.29" y="85.04" class="st0" width="24.74" height="25.95"/>
<path class="st0" d="M248.48,208.12v10.28l-4.08,0.44l-4.09-1.08h-1.08c-1.44,7.12-1.44,14.46,0,21.58h1.08l4.09-1.08l4.08,0.44
	v12.9l-4.08,0.44l-4.09-1.08h-1.08c-1.44,7.12-1.44,14.46,0,21.58h1.08l4.09-1.08l4.08,0.44v10.28h39.51v-10.28l4.08-0.44l4.09,1.08
	h1.08c1.44-7.12,1.44-14.46,0-21.58h-1.08l-4.09,1.08l-4.08-0.44v-12.9l4.08-0.44l4.09,1.08h1.08c1.44-7.12,1.44-14.46,0-21.58
	h-1.08l-4.09,1.08l-4.08-0.44v-10.28H248.48z"/>
<rect x="224.97" y="146.01" class="st0" width="41.94" height="27.06"/>
<line class="st0" x1="15.05" y1="231.81" x2="15.05" y2="229.34"/>
<line class="st0" x1="15.05" y1="85.04" x2="15.05" y2="82.57"/>
<line class="st0" x1="15.05" y1="206.58" x2="15.05" y2="204.11"/>
<line class="st0" x1="15.05" y1="110.27" x2="15.05" y2="107.8"/>
<line class="st0" x1="24.3" y1="231.81" x2="24.3" y2="229.34"/>
<line class="st0" x1="24.3" y1="85.04" x2="24.3" y2="82.57"/>
<line class="st0" x1="24.3" y1="206.58" x2="24.3" y2="204.11"/>
<line class="st0" x1="24.3" y1="110.27" x2="24.3" y2="107.8"/>
<line class="st0" x1="33.57" y1="304.85" x2="33.57" y2="237.52"/>
<line class="st0" x1="33.57" y1="85.04" x2="33.57" y2="82.57"/>
<line class="st0" x1="33.57" y1="231.81" x2="33.57" y2="229.34"/>
<line class="st0" x1="33.57" y1="110.27" x2="33.57" y2="107.8"/>
<line class="st0" x1="33.57" y1="206.58" x2="33.57" y2="204.11"/>
<line class="st0" x1="42.83" y1="304.85" x2="42.83" y2="237.52"/>
<line class="st0" x1="42.83" y1="110.27" x2="42.83" y2="82.57"/>
<line class="st0" x1="42.83" y1="231.81" x2="42.83" y2="204.11"/>
<line class="st0" x1="52.09" y1="307.71" x2="52.09" y2="204.11"/>
<line class="st0" x1="52.09" y1="110.27" x2="52.09" y2="82.57"/>
<line class="st0" x1="61.35" y1="307.71" x2="61.35" y2="204.11"/>
<line class="st0" x1="61.35" y1="110.27" x2="61.35" y2="82.57"/>
<line class="st0" x1="70.61" y1="306.93" x2="70.61" y2="235.44"/>
<line class="st0" x1="70.61" y1="110.27" x2="70.61" y2="82.57"/>
<line class="st0" x1="70.61" y1="233.89" x2="70.61" y2="204.11"/>
<line class="st0" x1="79.87" y1="306.93" x2="79.87" y2="235.44"/>
<line class="st0" x1="79.87" y1="110.27" x2="79.87" y2="82.57"/>
<line class="st0" x1="79.87" y1="233.89" x2="79.87" y2="204.11"/>
<line class="st0" x1="89.13" y1="304.85" x2="89.13" y2="237.52"/>
<line class="st0" x1="89.13" y1="110.27" x2="89.13" y2="82.57"/>
<line class="st0" x1="89.13" y1="231.81" x2="89.13" y2="204.11"/>
<line class="st0" x1="98.39" y1="304.85" x2="98.39" y2="237.52"/>
<line class="st0" x1="98.39" y1="110.27" x2="98.39" y2="82.57"/>
<line class="st0" x1="98.39" y1="231.81" x2="98.39" y2="204.11"/>
<line class="st0" x1="107.65" y1="527.29" x2="107.65" y2="522.97"/>
<line class="st0" x1="107.65" y1="110.27" x2="107.65" y2="82.57"/>
<line class="st0" x1="107.65" y1="520.81" x2="107.65" y2="444.72"/>
<line class="st0" x1="107.65" y1="231.81" x2="107.65" y2="204.11"/>
<line class="st0" x1="116.91" y1="527.29" x2="116.91" y2="522.97"/>
<line class="st0" x1="116.91" y1="225.95" x2="116.91" y2="82.57"/>
<line class="st0" x1="116.91" y1="520.81" x2="116.91" y2="444.72"/>
<line class="st0" x1="116.91" y1="231.81" x2="116.91" y2="228.11"/>
<line class="st0" x1="126.17" y1="527.29" x2="126.17" y2="522.97"/>
<line class="st0" x1="126.17" y1="225.95" x2="126.17" y2="82.57"/>
<line class="st0" x1="126.17" y1="520.81" x2="126.17" y2="444.72"/>
<line class="st0" x1="126.17" y1="231.81" x2="126.17" y2="228.11"/>
<line class="st0" x1="135.43" y1="527.29" x2="135.43" y2="522.97"/>
<line class="st0" x1="135.43" y1="225.95" x2="135.43" y2="82.57"/>
<line class="st0" x1="135.43" y1="520.81" x2="135.43" y2="444.72"/>
<line class="st0" x1="135.43" y1="231.81" x2="135.43" y2="228.11"/>
<line class="st0" x1="144.69" y1="527.29" x2="144.69" y2="522.97"/>
<line class="st0" x1="144.69" y1="225.95" x2="144.69" y2="82.57"/>
<line class="st0" x1="144.69" y1="520.81" x2="144.69" y2="444.72"/>
<line class="st0" x1="144.69" y1="231.81" x2="144.69" y2="228.11"/>
<line class="st0" x1="153.95" y1="527.29" x2="153.95" y2="444.72"/>
<line class="st0" x1="153.95" y1="225.95" x2="153.95" y2="82.57"/>
<line class="st0" x1="153.95" y1="231.81" x2="153.95" y2="228.11"/>
<line class="st0" x1="163.21" y1="527.29" x2="163.21" y2="444.72"/>
<line class="st0" x1="163.21" y1="99.08" x2="163.21" y2="82.57"/>
<line class="st0" x1="163.21" y1="231.81" x2="163.21" y2="168.22"/>
<line class="st0" x1="172.47" y1="527.29" x2="172.47" y2="444.72"/>
<line class="st0" x1="172.47" y1="99.08" x2="172.47" y2="82.57"/>
<line class="st0" x1="172.47" y1="231.81" x2="172.47" y2="168.22"/>
<line class="st0" x1="181.73" y1="527.29" x2="181.73" y2="444.72"/>
<line class="st0" x1="181.73" y1="231.81" x2="181.73" y2="82.57"/>
<line class="st0" x1="181.73" y1="399" x2="181.73" y2="357.02"/>
<line class="st0" x1="181.73" y1="300.51" x2="181.73" y2="263.47"/>
<line class="st0" x1="190.99" y1="527.29" x2="190.99" y2="300.51"/>
<line class="st0" x1="190.99" y1="263.47" x2="190.99" y2="82.57"/>
<line class="st0" x1="190.99" y1="298.35" x2="190.99" y2="265.63"/>
<line class="st0" x1="200.25" y1="527.29" x2="200.25" y2="300.51"/>
<line class="st0" x1="200.25" y1="85.04" x2="200.25" y2="82.57"/>
<line class="st0" x1="200.25" y1="298.35" x2="200.25" y2="265.63"/>
<line class="st0" x1="200.25" y1="263.47" x2="200.25" y2="110.98"/>
<line class="st0" x1="209.51" y1="527.29" x2="209.51" y2="110.98"/>
<line class="st0" x1="209.51" y1="85.04" x2="209.51" y2="82.57"/>
<line class="st0" x1="218.77" y1="527.29" x2="218.77" y2="110.98"/>
<line class="st0" x1="218.77" y1="85.04" x2="218.77" y2="82.57"/>
<line class="st0" x1="228.03" y1="527.29" x2="228.03" y2="173.07"/>
<line class="st0" x1="228.03" y1="85.04" x2="228.03" y2="82.57"/>
<line class="st0" x1="228.03" y1="146.01" x2="228.03" y2="124.55"/>
<line class="st0" x1="237.29" y1="527.29" x2="237.29" y2="365.23"/>
<line class="st0" x1="237.29" y1="85.04" x2="237.29" y2="82.57"/>
<line class="st0" x1="237.29" y1="363.07" x2="237.29" y2="358.75"/>
<line class="st0" x1="237.29" y1="146.01" x2="237.29" y2="124.55"/>
<line class="st0" x1="237.29" y1="322.17" x2="237.29" y2="173.07"/>
<line class="st0" x1="246.55" y1="527.29" x2="246.55" y2="524.82"/>
<line class="st0" x1="246.55" y1="85.04" x2="246.55" y2="82.57"/>
<line class="st0" x1="246.55" y1="505.06" x2="246.55" y2="365.23"/>
<line class="st0" x1="246.55" y1="146.01" x2="246.55" y2="124.55"/>
<line class="st0" x1="246.55" y1="363.07" x2="246.55" y2="358.75"/>
<line class="st0" x1="246.55" y1="218.61" x2="246.55" y2="173.07"/>
<line class="st0" x1="246.55" y1="322.17" x2="246.55" y2="271.71"/>
<line class="st0" x1="246.55" y1="251.82" x2="246.55" y2="238.5"/>
<line class="st0" x1="255.81" y1="527.29" x2="255.81" y2="524.82"/>
<line class="st0" x1="255.81" y1="85.04" x2="255.81" y2="82.57"/>
<line class="st0" x1="255.81" y1="505.06" x2="255.81" y2="365.23"/>
<line class="st0" x1="255.81" y1="146.01" x2="255.81" y2="124.55"/>
<line class="st0" x1="255.81" y1="363.07" x2="255.81" y2="358.75"/>
<line class="st0" x1="255.81" y1="208.12" x2="255.81" y2="173.07"/>
<line class="st0" x1="255.81" y1="322.17" x2="255.81" y2="282.2"/>
<line class="st0" x1="265.07" y1="426.04" x2="265.07" y2="365.23"/>
<line class="st0" x1="265.07" y1="85.04" x2="265.07" y2="82.57"/>
<line class="st0" x1="265.07" y1="363.07" x2="265.07" y2="358.75"/>
<line class="st0" x1="265.07" y1="146.01" x2="265.07" y2="124.55"/>
<line class="st0" x1="265.07" y1="322.17" x2="265.07" y2="282.2"/>
<line class="st0" x1="265.07" y1="208.12" x2="265.07" y2="173.07"/>
<line class="st0" x1="274.33" y1="426.04" x2="274.33" y2="365.23"/>
<line class="st0" x1="274.33" y1="85.04" x2="274.33" y2="82.57"/>
<line class="st0" x1="274.33" y1="363.07" x2="274.33" y2="358.75"/>
<line class="st0" x1="274.33" y1="208.12" x2="274.33" y2="124.55"/>
<line class="st0" x1="274.33" y1="322.17" x2="274.33" y2="282.2"/>
<line class="st0" x1="283.59" y1="426.04" x2="283.59" y2="397.18"/>
<line class="st0" x1="283.59" y1="85.04" x2="283.59" y2="82.57"/>
<line class="st0" x1="283.59" y1="322.17" x2="283.59" y2="282.2"/>
<line class="st0" x1="283.59" y1="208.12" x2="283.59" y2="124.55"/>
<line class="st0" x1="292.85" y1="426.04" x2="292.85" y2="395.02"/>
<line class="st0" x1="292.85" y1="85.04" x2="292.85" y2="82.57"/>
<line class="st0" x1="292.85" y1="392.86" x2="292.85" y2="378.97"/>
<line class="st0" x1="292.85" y1="218.64" x2="292.85" y2="124.55"/>
<line class="st0" x1="292.85" y1="322.17" x2="292.85" y2="271.68"/>
<line class="st0" x1="292.85" y1="251.85" x2="292.85" y2="238.47"/>
<line class="st0" x1="302.11" y1="426.04" x2="302.11" y2="395.02"/>
<line class="st0" x1="302.11" y1="85.04" x2="302.11" y2="82.57"/>
<line class="st0" x1="302.11" y1="392.86" x2="302.11" y2="378.97"/>
<line class="st0" x1="302.11" y1="320.17" x2="302.11" y2="161.59"/>
<line class="st0" x1="302.11" y1="322.17" x2="302.11" y2="322.17"/>
<line class="st0" x1="311.37" y1="426.04" x2="311.37" y2="395.02"/>
<line class="st0" x1="311.37" y1="85.04" x2="311.37" y2="82.57"/>
<line class="st0" x1="311.37" y1="392.86" x2="311.37" y2="378.97"/>
<line class="st0" x1="311.37" y1="320.17" x2="311.37" y2="161.59"/>
<line class="st0" x1="311.37" y1="322.17" x2="311.37" y2="320.63"/>
<line class="st0" x1="320.63" y1="426.04" x2="320.63" y2="397.18"/>
<line class="st0" x1="320.63" y1="85.04" x2="320.63" y2="82.57"/>
<line class="st0" x1="320.63" y1="395.02" x2="320.63" y2="378.97"/>
<line class="st0" x1="320.63" y1="320.17" x2="320.63" y2="161.59"/>
<line class="st0" x1="320.63" y1="322.17" x2="320.63" y2="320.63"/>
<line class="st0" x1="329.89" y1="426.04" x2="329.89" y2="397.18"/>
<line class="st0" x1="329.89" y1="85.04" x2="329.89" y2="82.57"/>
<line class="st0" x1="329.89" y1="395.02" x2="329.89" y2="378.97"/>
<line class="st0" x1="329.89" y1="322.17" x2="329.89" y2="161.59"/>
<line class="st0" x1="339.15" y1="527.29" x2="339.15" y2="397.18"/>
<line class="st0" x1="339.15" y1="93.35" x2="339.15" y2="82.57"/>
<line class="st0" x1="339.15" y1="395.02" x2="339.15" y2="378.97"/>
<line class="st0" x1="339.15" y1="208.12" x2="339.15" y2="106.36"/>
<line class="st0" x1="348.41" y1="527.29" x2="348.41" y2="524.82"/>
<line class="st0" x1="348.41" y1="87.57" x2="348.41" y2="82.57"/>
<line class="st0" x1="348.41" y1="505.06" x2="348.41" y2="397.18"/>
<line class="st0" x1="348.41" y1="208.12" x2="348.41" y2="112.14"/>
<line class="st0" x1="348.41" y1="391.47" x2="348.41" y2="378.97"/>
<line class="st0" x1="357.67" y1="527.29" x2="357.67" y2="524.82"/>
<line class="st0" x1="357.67" y1="90.47" x2="357.67" y2="82.57"/>
<line class="st0" x1="357.67" y1="505.06" x2="357.67" y2="397.18"/>
<line class="st0" x1="357.67" y1="208.12" x2="357.67" y2="109.24"/>
<line class="st0" x1="366.93" y1="208.06" x2="366.93" y2="161.14"/>
<polygon class="st1" points="379.43,539.79 379.43,519.88 373.88,519.88 373.88,518.65 366.93,518.65 366.93,527.29 235.81,527.29 
	235.81,405.05 230.1,405.05 230.1,527.29 106.95,527.29 106.95,522.97 96.46,522.97 96.46,539.79 "/>
<polygon class="st1" points="379.43,416.94 373.88,416.94 373.88,418.17 366.93,418.17 366.93,397.18 348.21,397.18 348.21,391.47 
	351.04,391.47 351.04,361.68 286.12,361.68 286.12,391.47 288.95,391.47 288.95,397.18 280.41,397.18 280.41,358.75 235.81,358.75 
	235.81,363.07 230.1,363.07 230.1,353.04 366.93,353.04 366.93,347.33 373.88,347.33 373.88,348.57 379.43,348.57 "/>
<path class="st1" d="M337.3,99.85c0-6.82,5.53-12.35,12.35-12.35c6.82,0,12.35,5.53,12.35,12.35c0,6.82-5.53,12.35-12.35,12.35
	C342.83,112.2,337.3,106.67,337.3,99.85z"/>
<polygon class="st1" points="191.99,82.57 191.99,75.62 190.76,75.62 190.76,70.07 112.35,70.07 112.35,75.62 111.12,75.62 
	111.12,82.57 157.1,82.57 157.1,186.13 162.81,186.13 162.81,82.57 "/>
<polygon class="st1" points="180.48,357.02 181.95,357.02 181.95,300.51 176.23,300.51 176.23,304.85 129.01,304.85 129.01,259.13 
	176.23,259.13 176.23,263.47 181.95,263.47 181.95,231.81 162.81,231.81 162.81,228.11 157.1,228.11 157.1,231.81 88.11,231.81 
	88.11,233.28 130.71,233.28 130.71,236.05 88.11,236.05 88.11,237.52 123.3,237.52 123.3,304.85 88.11,304.85 88.11,306.32 
	130.71,306.32 130.71,309.09 88.11,309.09 88.11,310.56 93.51,310.56 93.51,436.08 19.43,436.08 19.44,394.1 14.35,394.1 
	14.34,310.56 46.13,310.56 46.13,304.85 12.5,304.85 12.5,237.52 46.13,237.52 46.13,231.81 12.5,231.81 12.5,82.57 12.96,82.57 
	12.96,70.07 0.15,70.07 0.15,455.83 96.46,455.83 96.46,478.52 106.95,478.52 106.95,444.72 181.95,444.72 181.95,399 176.23,399 
	176.23,436.08 102.15,436.08 102.15,313.49 176.23,313.49 176.23,357.02 177.7,357.02 177.7,314.42 180.48,314.42 "/>
<polygon class="st1" points="379.43,261.31 373.88,261.31 373.88,262.54 366.93,262.54 366.93,208.06 379.43,208.06 "/>
<polyline class="st1" points="370.79,70.07 370.79,0.15 497.97,0.15 497.97,416.17 379.43,416.17 "/>
<rect x="14.34" y="310.56" class="st1" width="27.78" height="48.96"/>
<rect x="232.72" y="322.17" class="st1" width="1.24" height="30.87"/>
<rect x="270.99" y="322.17" class="st1" width="1.23" height="30.87"/>
<polyline class="st1" points="272.23,322.17 336.06,322.17 336.06,208.12 "/>
<rect x="336.06" y="208.12" class="st1" width="30.87" height="1.24"/>
<rect x="336.06" y="238.06" class="st1" width="30.87" height="1.24"/>
<polyline class="st1" points="29.78,237.52 29.78,254.81 12.5,254.81 "/>
<rect x="139.19" y="408.29" class="st1" width="37.04" height="27.78"/>
<line class="st1" x1="286.12" y1="378.97" x2="351.04" y2="378.97"/>
<line class="st1" x1="29.78" y1="304.85" x2="29.78" y2="254.81"/>
<line class="st1" x1="106.01" y1="237.52" x2="106.01" y2="304.85"/>
<path class="st1" d="M27.31,343.9c0-1.03,0.83-1.86,1.86-1.86s1.86,0.83,1.86,1.86c0,1.03-0.83,1.86-1.86,1.86
	S27.31,344.93,27.31,343.9z"/>
<path class="st1" d="M28.1,343.9c0-0.6,0.48-1.08,1.08-1.08c0.6,0,1.08,0.48,1.08,1.08c0,0.6-0.48,1.08-1.08,1.08
	C28.58,344.98,28.1,344.5,28.1,343.9z"/>
<line class="st1" x1="24.17" y1="344.69" x2="18.31" y2="344.69"/>
<path class="st1" d="M24.17,344.69c0.24,0,0.44-0.2,0.44-0.44"/>
<path class="st1" d="M24.61,343.54c0-0.24-0.2-0.44-0.44-0.44"/>
<line class="st1" x1="24.61" y1="344.25" x2="24.61" y2="343.54"/>
<path class="st1" d="M18.19,343.25c0.12,0.14,0.3,0.22,0.49,0.22"/>
<path class="st1" d="M18.68,344.32c-0.19,0-0.37,0.08-0.49,0.22"/>
<line class="st1" x1="21.43" y1="344.32" x2="18.68" y2="344.32"/>
<line class="st1" x1="18.68" y1="343.47" x2="21.43" y2="343.47"/>
<path class="st1" d="M21.68,343.72c0-0.13-0.11-0.24-0.24-0.24"/>
<line class="st1" x1="21.68" y1="344.08" x2="21.68" y2="343.72"/>
<path class="st1" d="M17.85,343.01c0.14,0.06,0.3,0.1,0.46,0.1"/>
<path class="st1" d="M18.31,344.69c-0.16,0-0.32,0.03-0.46,0.1"/>
<line class="st1" x1="18.31" y1="343.1" x2="24.17" y2="343.1"/>
<path class="st1" d="M18.32,343.1c-0.44-0.48-1.18-0.5-1.66-0.07c-0.48,0.44-0.51,1.18-0.07,1.66c0.44,0.48,1.18,0.51,1.65,0.07
	c0.02-0.02,0.05-0.04,0.07-0.07"/>
<path class="st1" d="M18.19,343.25c-0.36-0.4-0.97-0.44-1.37-0.08c-0.4,0.36-0.44,0.97-0.08,1.37c0.35,0.4,0.97,0.44,1.37,0.08
	c0.03-0.02,0.06-0.05,0.08-0.08"/>
<path class="st1" d="M21.43,344.32c0.13,0,0.24-0.11,0.24-0.24"/>
<path class="st1" d="M19.95,344.69c0.44,5.1,4.92,8.87,10.02,8.43c5.1-0.44,8.87-4.92,8.43-10.02c-0.44-5.1-4.92-8.87-10.02-8.43
	c-4.49,0.39-8.05,3.94-8.43,8.43"/>
<rect x="233.95" y="322.17" class="st1" width="37.04" height="2.47"/>
<rect x="268.52" y="319.4" class="st1" width="1.23" height="2.78"/>
<line class="st1" x1="270.99" y1="350.57" x2="233.95" y2="350.57"/>
<polyline class="st1" points="336.07,244.39 335.02,244.39 335.02,266.3 336.07,266.3 "/>
<polyline class="st1" points="336.07,243.77 334.71,243.77 334.71,266.92 336.07,266.92 "/>
<polyline class="st1" points="360.76,290.08 360.76,309.67 339.77,309.67 339.77,272.63 360.76,272.63 360.76,288.66 "/>
<line class="st1" x1="360.76" y1="291.77" x2="339.77" y2="291.77"/>
<line class="st1" x1="360.76" y1="290.54" x2="339.77" y2="290.54"/>
<path class="st1" d="M352.42,300.72c0-1.19,0.97-2.16,2.16-2.16s2.16,0.97,2.16,2.16c0,1.19-0.97,2.16-2.16,2.16
	S352.42,301.91,352.42,300.72z"/>
<path class="st1" d="M352.42,281.58c0-1.19,0.97-2.16,2.16-2.16s2.16,0.97,2.16,2.16c0,1.19-0.97,2.16-2.16,2.16
	S352.42,282.78,352.42,281.58z"/>
<path class="st1" d="M362.61,291.15c0,0.68,0.55,1.24,1.23,1.24s1.24-0.55,1.24-1.24c0-0.68-0.55-1.23-1.24-1.23
	c-0.22,0-0.43,0.06-0.62,0.17"/>
<line class="st1" x1="362.61" y1="291.15" x2="353.91" y2="286.13"/>
<line class="st1" x1="363.23" y1="290.08" x2="354.53" y2="285.06"/>
<path class="st1" d="M354.53,285.06c-0.29-0.17-0.67-0.07-0.84,0.23c-0.17,0.3-0.07,0.67,0.23,0.84"/>
<line class="st1" x1="364.77" y1="291.97" x2="364.77" y2="293.62"/>
<line class="st1" x1="362.92" y1="291.97" x2="362.92" y2="293.01"/>
<line class="st1" x1="362.92" y1="293.62" x2="364.77" y2="293.62"/>
<line class="st1" x1="363.54" y1="293.31" x2="361.84" y2="293.31"/>
<line class="st1" x1="363.54" y1="293" x2="361.84" y2="293"/>
<line class="st1" x1="361.84" y1="293" x2="361.84" y2="293.31"/>
<line class="st1" x1="363.54" y1="293" x2="363.54" y2="293.31"/>
<line class="st1" x1="362.92" y1="293.31" x2="362.92" y2="293.62"/>
<line class="st1" x1="358.73" y1="288.91" x2="359.34" y2="287.84"/>
<polyline class="st1" points="304.65,324.03 293.69,324.03 293.69,350.26 331.97,350.26 331.97,324.03 321.01,324.03 "/>
<polyline class="st1" points="304.19,325.26 294.93,325.26 294.93,349.03 330.73,349.03 330.73,325.26 321.47,325.26 "/>
<line class="st1" x1="304.19" y1="325.26" x2="304.19" y2="328.96"/>
<line class="st1" x1="321.47" y1="325.26" x2="321.47" y2="328.96"/>
<line class="st1" x1="321.47" y1="328.97" x2="304.19" y2="328.97"/>
<line class="st1" x1="319.62" y1="349.03" x2="319.62" y2="328.97"/>
<line class="st1" x1="306.04" y1="349.03" x2="306.04" y2="328.97"/>
<polyline class="st1" points="305.42,348.1 305.42,329.58 303.57,329.58 303.57,325.88 295.85,325.88 295.85,348.1 305.42,348.1 "/>
<rect x="306.66" y="329.58" class="st1" width="12.35" height="18.52"/>
<line class="st1" x1="300.26" y1="348.57" x2="300.26" y2="345.33"/>
<line class="st1" x1="300.26" y1="330.35" x2="300.26" y2="325.57"/>
<line class="st1" x1="300.26" y1="342" x2="300.26" y2="333.72"/>
<line class="st1" x1="303.88" y1="329.2" x2="302.96" y2="329.2"/>
<line class="st1" x1="297.56" y1="329.2" x2="295.39" y2="329.2"/>
<line class="st1" x1="295.39" y1="332.07" x2="298.62" y2="332.07"/>
<line class="st1" x1="301.9" y1="332.07" x2="323.76" y2="332.07"/>
<line class="st1" x1="327.04" y1="332.07" x2="330.27" y2="332.07"/>
<line class="st1" x1="295.39" y1="343.67" x2="298.62" y2="343.67"/>
<line class="st1" x1="301.9" y1="343.67" x2="308.86" y2="343.67"/>
<line class="st1" x1="327.04" y1="343.67" x2="330.27" y2="343.67"/>
<line class="st1" x1="295.39" y1="334.94" x2="297.56" y2="334.94"/>
<line class="st1" x1="328.1" y1="334.94" x2="330.27" y2="334.94"/>
<line class="st1" x1="302.96" y1="334.94" x2="308.86" y2="334.94"/>
<line class="st1" x1="316.8" y1="343.67" x2="323.76" y2="343.67"/>
<line class="st1" x1="316.8" y1="334.94" x2="322.7" y2="334.94"/>
<path class="st1" d="M310.49,339.34c0-1.29,1.05-2.34,2.34-2.34c1.29,0,2.34,1.05,2.34,2.34c0,1.29-1.05,2.34-2.34,2.34
	C311.54,341.68,310.49,340.63,310.49,339.34z"/>
<path class="st1" d="M298.96,332.42c0-0.8,0.64-1.44,1.44-1.44c0.8,0,1.44,0.64,1.44,1.44c0,0.8-0.65,1.44-1.44,1.44
	C299.6,333.86,298.96,333.22,298.96,332.42z"/>
<path class="st1" d="M323.77,343.25c0-0.8,0.64-1.44,1.44-1.44c0.79,0,1.44,0.64,1.44,1.44c0,0.8-0.65,1.44-1.44,1.44
	C324.41,344.69,323.77,344.05,323.77,343.25z"/>
<path class="st1" d="M323.3,332.07c0-1.05,0.85-1.9,1.9-1.9s1.91,0.85,1.91,1.9c0,1.05-0.85,1.91-1.91,1.91
	S323.3,333.12,323.3,332.07z"/>
<path class="st1" d="M298.55,343.67c0-1.05,0.85-1.9,1.9-1.9c1.05,0,1.91,0.85,1.91,1.9c0,1.05-0.85,1.91-1.91,1.91
	C299.4,345.58,298.55,344.72,298.55,343.67z"/>
<path class="st1" d="M309.56,339.34c0-1.8,1.46-3.27,3.27-3.27c1.8,0,3.26,1.46,3.26,3.27c0,1.8-1.46,3.27-3.26,3.27
	C311.03,342.61,309.56,341.14,309.56,339.34z"/>
<ellipse transform="matrix(0.9239 -0.3827 0.3827 0.9239 -108.6469 141.1399)" class="st1" cx="300.45" cy="343.67" rx="2.83" ry="2.83"/>
<path class="st1" d="M298.03,332.42c0-1.31,1.06-2.37,2.37-2.37s2.37,1.06,2.37,2.37c0,1.31-1.06,2.37-2.37,2.37
	S298.03,333.73,298.03,332.42z"/>
<path class="st1" d="M322.37,332.07c0-1.56,1.27-2.83,2.83-2.83c1.56,0,2.83,1.27,2.83,2.83c0,1.56-1.27,2.83-2.83,2.83
	C323.64,334.9,322.37,333.63,322.37,332.07z"/>
<path class="st1" d="M322.84,343.25c0-1.31,1.06-2.37,2.37-2.37c1.31,0,2.37,1.06,2.37,2.37c0,1.31-1.06,2.37-2.37,2.37
	C323.9,345.62,322.84,344.56,322.84,343.25z"/>
<line class="st1" x1="295.39" y1="337.88" x2="311.28" y2="337.88"/>
<line class="st1" x1="295.39" y1="340.8" x2="297.56" y2="340.8"/>
<line class="st1" x1="302.96" y1="340.8" x2="311.28" y2="340.8"/>
<line class="st1" x1="328.1" y1="340.8" x2="330.27" y2="340.8"/>
<line class="st1" x1="314.38" y1="340.8" x2="322.7" y2="340.8"/>
<line class="st1" x1="314.38" y1="337.88" x2="330.27" y2="337.88"/>
<line class="st1" x1="330.27" y1="346.54" x2="328.1" y2="346.54"/>
<line class="st1" x1="297.56" y1="346.54" x2="295.39" y2="346.54"/>
<line class="st1" x1="322.7" y1="346.54" x2="302.96" y2="346.54"/>
<line class="st1" x1="321.78" y1="329.2" x2="322.7" y2="329.2"/>
<line class="st1" x1="328.1" y1="329.2" x2="330.27" y2="329.2"/>
<polyline class="st1" points="320.24,348.1 320.24,329.58 322.09,329.58 322.09,325.88 329.81,325.88 329.81,348.1 320.24,348.1 "/>
<line class="st1" x1="325.4" y1="348.57" x2="325.4" y2="345.33"/>
<line class="st1" x1="325.4" y1="330.35" x2="325.4" y2="325.57"/>
<line class="st1" x1="325.4" y1="342" x2="325.4" y2="333.72"/>
<line class="st1" x1="312.83" y1="348.57" x2="312.83" y2="342.34"/>
<line class="st1" x1="312.83" y1="336.34" x2="312.83" y2="329.27"/>
<rect x="304.65" y="323.72" class="st1" width="16.36" height="4.78"/>
<rect x="318.41" y="325.76" class="st1" width="0.64" height="2.08"/>
<path class="st1" d="M318.41,325.92c-0.49,0.18-0.74,0.72-0.57,1.21c0.09,0.26,0.3,0.47,0.57,0.57"/>
<path class="st1" d="M319.04,327.69c0.49-0.18,0.74-0.71,0.57-1.2c-0.09-0.26-0.3-0.47-0.57-0.57"/>
<rect x="306.62" y="325.76" class="st1" width="0.63" height="2.08"/>
<path class="st1" d="M307.25,327.69c0.49-0.18,0.74-0.71,0.57-1.2c-0.09-0.26-0.3-0.47-0.57-0.57"/>
<path class="st1" d="M306.62,325.92c-0.49,0.18-0.74,0.72-0.57,1.21c0.09,0.26,0.3,0.47,0.57,0.57"/>
<rect x="312.51" y="325.76" class="st1" width="0.64" height="2.08"/>
<path class="st1" d="M313.15,327.69c0.49-0.18,0.74-0.71,0.57-1.2c-0.09-0.26-0.3-0.47-0.57-0.57"/>
<path class="st1" d="M312.51,325.92c-0.49,0.18-0.74,0.72-0.57,1.21c0.09,0.26,0.3,0.47,0.57,0.57"/>
<rect x="309.56" y="325.76" class="st1" width="0.63" height="2.08"/>
<path class="st1" d="M310.2,327.69c0.49-0.18,0.74-0.71,0.57-1.2c-0.09-0.26-0.3-0.47-0.57-0.57"/>
<path class="st1" d="M309.56,325.92c-0.49,0.18-0.74,0.72-0.57,1.21c0.09,0.26,0.3,0.47,0.57,0.57"/>
<rect x="315.46" y="325.76" class="st1" width="0.63" height="2.08"/>
<path class="st1" d="M316.09,327.69c0.49-0.18,0.74-0.71,0.57-1.2c-0.09-0.26-0.3-0.47-0.57-0.57"/>
<path class="st1" d="M315.46,325.92c-0.49,0.18-0.74,0.72-0.57,1.21c0.09,0.26,0.3,0.47,0.57,0.57"/>
<path class="st1" d="M155.85,421.24c0-1.03,0.83-1.86,1.86-1.86c1.03,0,1.86,0.83,1.86,1.86c0,1.03-0.84,1.86-1.86,1.86
	C156.68,423.1,155.85,422.27,155.85,421.24z"/>
<path class="st1" d="M156.63,421.24c0-0.6,0.48-1.08,1.08-1.08c0.6,0,1.08,0.48,1.08,1.08c0,0.6-0.48,1.08-1.08,1.08
	C157.12,422.32,156.63,421.83,156.63,421.24z"/>
<path class="st1" d="M158.51,430.46c5.1-0.44,8.87-4.92,8.43-10.02c-0.44-5.1-4.93-8.87-10.02-8.43c-5.1,0.44-8.87,4.93-8.43,10.02
	c0.39,4.49,3.95,8.04,8.43,8.43"/>
<rect x="299.19" y="320.17" class="st1" width="27.29" height="0.46"/>
<rect x="323.39" y="320.63" class="st1" width="3.09" height="1.54"/>
<rect x="299.19" y="320.63" class="st1" width="3.09" height="1.54"/>
<rect x="132.74" y="265.32" class="st1" width="37.04" height="33.34"/>
<line class="st1" x1="161.14" y1="265.32" x2="161.14" y2="298.66"/>
<polyline class="st1" points="161.14,294.95 166.08,294.95 166.08,269.03 161.14,269.03 "/>
<path class="st1" d="M128.83,417.79c0.47-1.58,0.71-3.23,0.71-4.88"/>
<path class="st1" d="M126.95,421.63c0.84-1.17,1.48-2.47,1.89-3.84"/>
<path class="st1" d="M125.96,422.8c0.36-0.36,0.69-0.75,0.99-1.17"/>
<path class="st1" d="M129.55,412.9c0-1.65-0.24-3.3-0.71-4.88c-0.41-1.38-1.05-2.68-1.89-3.84c-0.81-1.12-1.85-2.06-3.04-2.75
	c-0.98-0.57-2.1-0.86-3.23-0.86c-1.13,0-2.25,0.3-3.23,0.86c-1.2,0.69-2.24,1.63-3.04,2.75c-0.84,1.17-1.48,2.47-1.89,3.84
	c-0.47,1.58-0.71,3.23-0.71,4.88c0,1.65,0.24,3.3,0.71,4.88c0.41,1.38,1.05,2.68,1.89,3.85c0.3,0.42,0.63,0.8,0.99,1.17h10.57"/>
<path class="st1" d="M127.62,428.43c0.23-3.94,0.73-7.86,1.5-11.74"/>
<path class="st1" d="M117.23,427.05c-0.88,0.17-1.74,0.45-2.56,0.83c-0.96,0.45-1.78,1.14-2.4,2c-0.23,0.33-0.32,0.74-0.25,1.14
	l0.7,3.65c0.05,0.24,0.25,0.41,0.5,0.41h14.89c0.24,0,0.45-0.17,0.49-0.41l0.7-3.65c0.08-0.4-0.01-0.81-0.25-1.14
	c-0.61-0.86-1.44-1.55-2.4-2c-0.82-0.38-1.67-0.66-2.56-0.83c-1.13-0.22-2.29-0.33-3.44-0.33
	C119.52,426.72,118.37,426.83,117.23,427.05z"/>
<path class="st1" d="M113.72,428.43c-0.23-3.94-0.73-7.86-1.5-11.74"/>
<path class="st1" d="M119.75,430.54c0-0.51,0.42-0.93,0.93-0.93c0.51,0,0.93,0.42,0.93,0.93c0,0.51-0.42,0.93-0.93,0.93
	C120.16,431.46,119.75,431.05,119.75,430.54z"/>
<line class="st1" x1="106.74" y1="332.16" x2="109.61" y2="332.16"/>
<line class="st1" x1="109.61" y1="332.16" x2="111.15" y2="332.16"/>
<path class="st1" d="M111.07,332.16c0.02,0,0.05,0,0.08,0c0.34,0.03,0.6,0.4,0.58,0.83c-0.02,0.43-0.32,0.76-0.66,0.73"/>
<line class="st1" x1="106.74" y1="333.72" x2="109.61" y2="333.72"/>
<line class="st1" x1="109.61" y1="333.72" x2="111.15" y2="333.72"/>
<line class="st1" x1="103.23" y1="328.74" x2="103.09" y2="328.74"/>
<line class="st1" x1="103.28" y1="328.74" x2="103.09" y2="328.74"/>
<line class="st1" x1="102.15" y1="328.9" x2="103.09" y2="328.74"/>
<line class="st1" x1="106.74" y1="331.98" x2="106.74" y2="333.9"/>
<line class="st1" x1="106.63" y1="331.98" x2="106.63" y2="333.9"/>
<line class="st1" x1="106.45" y1="331.97" x2="106.45" y2="333.91"/>
<line class="st1" x1="103.64" y1="331.7" x2="103.61" y2="331.7"/>
<line class="st1" x1="106.72" y1="331.95" x2="106.65" y2="331.95"/>
<line class="st1" x1="106.72" y1="331.95" x2="106.65" y2="331.95"/>
<line class="st1" x1="106.45" y1="331.97" x2="103.67" y2="331.97"/>
<line class="st1" x1="106.45" y1="332.03" x2="106.63" y2="332.02"/>
<line class="st1" x1="108.24" y1="332.62" x2="107.09" y2="332.62"/>
<line class="st1" x1="108.24" y1="333.26" x2="107.09" y2="333.26"/>
<line class="st1" x1="106.45" y1="333.85" x2="106.63" y2="333.85"/>
<line class="st1" x1="103.67" y1="331.74" x2="103.67" y2="334.14"/>
<line class="st1" x1="103.6" y1="331.7" x2="103.6" y2="331.72"/>
<line class="st1" x1="103.6" y1="331.7" x2="103.6" y2="334.17"/>
<line class="st1" x1="106.45" y1="333.91" x2="103.67" y2="333.91"/>
<line class="st1" x1="106.72" y1="333.93" x2="106.65" y2="333.93"/>
<line class="st1" x1="106.72" y1="333.93" x2="106.65" y2="333.93"/>
<line class="st1" x1="103.64" y1="334.17" x2="103.61" y2="334.17"/>
<line class="st1" x1="103.4" y1="328.87" x2="103.4" y2="337.01"/>
<line class="st1" x1="102.15" y1="336.98" x2="102.15" y2="328.9"/>
<line class="st1" x1="103.23" y1="337.14" x2="103.09" y2="337.14"/>
<line class="st1" x1="103.28" y1="337.14" x2="103.09" y2="337.14"/>
<line class="st1" x1="102.15" y1="336.98" x2="103.09" y2="337.14"/>
<path class="st1" d="M103.4,331.18c0.05,0.18,0.12,0.36,0.2,0.53"/>
<path class="st1" d="M103.6,334.17c-0.08,0.17-0.15,0.35-0.2,0.53"/>
<path class="st1" d="M108.08,332.94c0-0.22,0.18-0.4,0.4-0.4c0.22,0,0.4,0.18,0.4,0.4c0,0.22-0.18,0.4-0.4,0.4
	C108.25,333.34,108.08,333.16,108.08,332.94z"/>
<path class="st1" d="M106.74,332.27c0,0.19,0.15,0.35,0.34,0.35"/>
<path class="st1" d="M107.09,333.26c-0.19,0-0.35,0.15-0.35,0.35"/>
<path class="st1" d="M103.4,328.87c0-0.07-0.06-0.12-0.12-0.12"/>
<path class="st1" d="M103.28,337.14c0.07,0,0.12-0.05,0.12-0.12"/>
<path class="st1" d="M103.64,334.17c0.02,0,0.04-0.02,0.04-0.04"/>
<path class="st1" d="M103.67,331.74c0-0.02-0.02-0.04-0.04-0.04"/>
<path class="st1" d="M106.63,333.9c0,0.01,0.01,0.03,0.02,0.03"/>
<path class="st1" d="M106.72,333.93c0.01,0,0.02-0.01,0.02-0.02"/>
<path class="st1" d="M106.74,331.98c0-0.01-0.01-0.02-0.03-0.02"/>
<path class="st1" d="M106.66,331.95c-0.01,0-0.03,0.01-0.03,0.03"/>
<path class="st1" d="M103.61,331.7c-0.01,0-0.01,0.01-0.01,0.01"/>
<path class="st1" d="M103.6,334.16c0,0.01,0.01,0.01,0.01,0.01"/>
<path class="st1" d="M112.03,332.94c0-1.02,0.83-1.85,1.85-1.85c1.02,0,1.85,0.83,1.85,1.85c0,1.02-0.83,1.85-1.85,1.85
	C112.86,334.79,112.03,333.96,112.03,332.94z"/>
<rect x="102.15" y="313.49" class="st1" width="74.08" height="39.51"/>
<polyline class="st1" points="107.71,332.16 107.71,318.43 152.74,318.43 "/>
<polyline class="st1" points="155.28,318.43 170.99,318.43 170.99,347.45 107.71,347.45 107.71,333.72 "/>
<polyline class="st1" points="110.18,332.16 110.18,320.59 159.57,320.59 159.57,345.29 110.18,345.29 110.18,333.72 "/>
<line class="st1" x1="155.36" y1="315.13" x2="152.66" y2="315.13"/>
<line class="st1" x1="149.54" y1="314.51" x2="158.49" y2="314.51"/>
<path class="st1" d="M155.36,315.13c1.03-0.08,2.05-0.26,3.05-0.53"/>
<path class="st1" d="M149.61,314.6c1,0.27,2.02,0.45,3.06,0.54"/>
<line class="st1" x1="149.52" y1="314.19" x2="149.54" y2="314.51"/>
<line class="st1" x1="158.49" y1="314.51" x2="158.5" y2="314.19"/>
<path class="st1" d="M149.54,314.51c0,0.04,0.03,0.08,0.07,0.09"/>
<path class="st1" d="M158.41,314.6c0.04-0.01,0.07-0.05,0.07-0.09"/>
<line class="st1" x1="152.68" y1="315.13" x2="152.68" y2="316.3"/>
<line class="st1" x1="155.34" y1="316.3" x2="155.34" y2="315.13"/>
<line class="st1" x1="155.06" y1="316.98" x2="154.02" y2="316.98"/>
<line class="st1" x1="154.02" y1="316.98" x2="154" y2="316.98"/>
<line class="st1" x1="152.73" y1="316.98" x2="152.96" y2="316.98"/>
<line class="st1" x1="155.06" y1="316.98" x2="155.29" y2="316.98"/>
<line class="st1" x1="154" y1="316.98" x2="152.96" y2="316.98"/>
<line class="st1" x1="152.72" y1="316.99" x2="152.75" y2="318.86"/>
<line class="st1" x1="155.27" y1="318.86" x2="155.3" y2="316.99"/>
<path class="st1" d="M152.73,316.98c-0.01,0-0.01,0.01-0.01,0.01"/>
<path class="st1" d="M155.3,316.99c0-0.01-0.01-0.01-0.02-0.01"/>
<path class="st1" d="M155.23,318.9c0.02,0,0.04-0.02,0.04-0.04"/>
<path class="st1" d="M152.75,318.86c0,0.02,0.02,0.04,0.04,0.04"/>
<path class="st1" d="M152.79,318.9c0.81,0.03,1.63,0.03,2.45,0"/>
<path class="st1" d="M152.68,316.3c0,0.24,0.06,0.47,0.18,0.68"/>
<path class="st1" d="M155.16,316.98c0.12-0.2,0.18-0.44,0.18-0.67"/>
<line class="st1" x1="158.5" y1="314.19" x2="158.5" y2="313.49"/>
<line class="st1" x1="149.52" y1="314.19" x2="149.52" y2="313.49"/>
<path class="st1" d="M32.62,386.2c1.58,0.47,3.23,0.71,4.88,0.71"/>
<path class="st1" d="M28.78,384.32c1.17,0.84,2.47,1.48,3.84,1.89"/>
<path class="st1" d="M27.61,383.33c0.36,0.36,0.75,0.69,1.17,0.99"/>
<path class="st1" d="M37.51,386.92c1.65,0,3.3-0.24,4.88-0.71c1.38-0.41,2.68-1.05,3.84-1.89c1.12-0.81,2.06-1.84,2.75-3.04
	c0.57-0.98,0.86-2.1,0.86-3.23s-0.3-2.25-0.86-3.23c-0.69-1.2-1.63-2.23-2.75-3.04c-1.17-0.84-2.47-1.48-3.84-1.89
	c-1.59-0.47-3.23-0.71-4.88-0.71c-1.65,0-3.3,0.24-4.88,0.71c-1.38,0.41-2.68,1.05-3.84,1.89c-0.41,0.3-0.8,0.63-1.17,0.99v10.57"/>
<path class="st1" d="M21.98,384.99c3.94,0.23,7.86,0.73,11.74,1.5"/>
<path class="st1" d="M23.36,374.6c-0.17-0.88-0.45-1.74-0.83-2.56c-0.45-0.96-1.14-1.78-2-2.39c-0.33-0.23-0.74-0.32-1.14-0.25
	l-3.65,0.7c-0.24,0.05-0.41,0.26-0.41,0.5v14.89c0,0.24,0.17,0.45,0.41,0.5l3.65,0.7c0.4,0.08,0.81-0.01,1.14-0.25
	c0.86-0.61,1.55-1.44,2-2.39c0.38-0.82,0.66-1.68,0.83-2.56c0.22-1.13,0.33-2.29,0.33-3.44C23.69,376.89,23.58,375.74,23.36,374.6z"
	/>
<path class="st1" d="M21.98,371.1c3.94-0.23,7.86-0.73,11.74-1.5"/>
<path class="st1" d="M18.95,378.04c0-0.51,0.41-0.93,0.93-0.93c0.51,0,0.93,0.42,0.93,0.93c0,0.51-0.42,0.93-0.93,0.93
	C19.36,378.97,18.95,378.56,18.95,378.04z"/>
<rect x="75.41" y="373.21" transform="matrix(0.5 -0.866 0.866 0.5 -300.2059 260.9313)" class="st1" width="0.93" height="34.49"/>
<line class="st1" x1="93.51" y1="396.66" x2="87.54" y2="396.66"/>
<line class="st1" x1="85.69" y1="396.66" x2="19.43" y2="396.66"/>
<polyline class="st1" points="93.51,398.68 91.04,398.68 91.04,399.6 93.51,399.6 "/>
<rect x="19.43" y="398.68" class="st1" width="37.12" height="0.93"/>
<line class="st1" x1="19.59" y1="415.7" x2="22.83" y2="415.7"/>
<line class="st1" x1="22.82" y1="415.7" x2="22.82" y2="416.94"/>
<line class="st1" x1="22.82" y1="416.94" x2="19.59" y2="416.94"/>
<line class="st1" x1="19.43" y1="415.55" x2="19.59" y2="415.55"/>
<line class="st1" x1="19.59" y1="415.55" x2="19.59" y2="417.09"/>
<line class="st1" x1="19.59" y1="417.09" x2="19.43" y2="417.09"/>
<line class="st1" x1="23.02" y1="413.51" x2="23.02" y2="417.95"/>
<line class="st1" x1="22.75" y1="419.66" x2="21.85" y2="419.66"/>
<line class="st1" x1="21.85" y1="419.66" x2="21.85" y2="416.94"/>
<line class="st1" x1="21.85" y1="415.7" x2="21.85" y2="413.51"/>
<line class="st1" x1="21.85" y1="413.51" x2="23.02" y2="413.51"/>
<line class="st1" x1="23.02" y1="414.67" x2="21.85" y2="414.67"/>
<path class="st1" d="M24.67,416.91c0.09-0.01,0.18-0.01,0.27,0c0.91,0.09,1.59,1.08,1.51,2.21c-0.07,1.12-0.87,1.96-1.78,1.87"/>
<path class="st1" d="M22.88,418.95c0-1.13,0.73-2.05,1.65-2.05c0.92,0,1.66,0.91,1.66,2.04c0,1.13-0.73,2.05-1.65,2.05
	C23.63,420.99,22.89,420.08,22.88,418.95z"/>
<path class="st1" d="M23.19,417.75c-0.05,0.06-0.1,0.12-0.16,0.19c-0.11,0.13-0.22,0.25-0.36,0.34c-0.09,0.05-0.19,0.09-0.29,0.11
	c-0.05,0.01-0.1,0.01-0.14,0.01"/>
<path class="st1" d="M23.2,420.14c-0.05-0.06-0.11-0.13-0.16-0.19c-0.11-0.13-0.22-0.25-0.36-0.34c-0.09-0.05-0.19-0.09-0.29-0.11
	c-0.05-0.01-0.1-0.01-0.14-0.01"/>
<path class="st1" d="M22.24,418.39c-0.3,0.13-0.44,0.48-0.31,0.78c0.06,0.14,0.17,0.25,0.31,0.31"/>
<line class="st1" x1="19.43" y1="415.55" x2="19.43" y2="417.09"/>
<path class="st1" d="M28.17,417.91c0-1.59,1.29-2.88,2.88-2.88c1.59,0,2.88,1.29,2.88,2.88c0,1.59-1.29,2.88-2.88,2.88
	C29.46,420.78,28.17,419.5,28.17,417.91z"/>
<line class="st1" x1="19.43" y1="401.59" x2="93.51" y2="401.59"/>
<line class="st1" x1="21.28" y1="415.7" x2="21.28" y2="401.59"/>
<polyline class="st1" points="91.66,401.59 91.66,434.22 72.62,434.22 "/>
<polyline class="st1" points="69.96,434.22 21.28,434.22 21.28,416.94 "/>
<path class="st1" d="M61.17,381.43c-3.03,5.24-4.62,11.19-4.62,17.25"/>
<line class="st1" x1="69.94" y1="434.44" x2="72.64" y2="434.44"/>
<line class="st1" x1="75.76" y1="435.06" x2="66.81" y2="435.06"/>
<path class="st1" d="M69.94,434.44c-1.03,0.08-2.06,0.26-3.06,0.54"/>
<path class="st1" d="M75.69,434.97c-1-0.27-2.02-0.45-3.06-0.53"/>
<line class="st1" x1="75.78" y1="435.38" x2="75.76" y2="435.06"/>
<line class="st1" x1="66.81" y1="435.06" x2="66.79" y2="435.38"/>
<path class="st1" d="M75.76,435.06c0-0.04-0.03-0.08-0.07-0.09"/>
<path class="st1" d="M66.88,434.97c-0.04,0.01-0.07,0.05-0.07,0.09"/>
<line class="st1" x1="72.62" y1="434.44" x2="72.62" y2="433.27"/>
<line class="st1" x1="69.96" y1="433.27" x2="69.96" y2="434.44"/>
<line class="st1" x1="70.24" y1="432.59" x2="71.28" y2="432.59"/>
<line class="st1" x1="71.28" y1="432.59" x2="71.3" y2="432.59"/>
<line class="st1" x1="72.56" y1="432.59" x2="72.33" y2="432.59"/>
<line class="st1" x1="70.24" y1="432.59" x2="70.01" y2="432.59"/>
<line class="st1" x1="71.3" y1="432.59" x2="72.33" y2="432.59"/>
<line class="st1" x1="72.58" y1="432.58" x2="72.55" y2="430.71"/>
<line class="st1" x1="70.03" y1="430.71" x2="69.99" y2="432.57"/>
<path class="st1" d="M72.56,432.59c0.01,0,0.01-0.01,0.01-0.01"/>
<path class="st1" d="M69.99,432.58c0,0.01,0.01,0.01,0.02,0.01"/>
<path class="st1" d="M70.06,430.67c-0.02,0-0.04,0.02-0.04,0.04"/>
<path class="st1" d="M72.55,430.71c0-0.02-0.02-0.04-0.04-0.04"/>
<path class="st1" d="M72.51,430.67c-0.82-0.03-1.63-0.03-2.45,0"/>
<path class="st1" d="M72.62,433.27c0-0.24-0.06-0.47-0.18-0.67"/>
<path class="st1" d="M70.14,432.59c-0.12,0.21-0.19,0.44-0.19,0.68"/>
<line class="st1" x1="66.79" y1="435.38" x2="66.79" y2="436.08"/>
<line class="st1" x1="75.78" y1="435.38" x2="75.78" y2="436.08"/>
<line class="st1" x1="156.92" y1="426.24" x2="156.92" y2="432.1"/>
<path class="st1" d="M157.36,425.8c-0.24,0-0.44,0.2-0.44,0.44"/>
<path class="st1" d="M158.51,426.24c0-0.24-0.2-0.44-0.44-0.44"/>
<line class="st1" x1="157.36" y1="425.8" x2="158.07" y2="425.8"/>
<path class="st1" d="M158.14,431.73c0,0.19,0.08,0.37,0.22,0.49"/>
<path class="st1" d="M157.07,432.22c0.14-0.12,0.22-0.3,0.22-0.49"/>
<line class="st1" x1="157.29" y1="428.98" x2="157.29" y2="431.73"/>
<line class="st1" x1="158.14" y1="431.73" x2="158.14" y2="428.98"/>
<path class="st1" d="M158.14,428.98c0-0.13-0.11-0.24-0.24-0.24"/>
<line class="st1" x1="157.53" y1="428.73" x2="157.9" y2="428.73"/>
<path class="st1" d="M158.51,432.1c0,0.16,0.03,0.32,0.1,0.46"/>
<path class="st1" d="M156.82,432.56c0.06-0.14,0.09-0.3,0.09-0.46"/>
<line class="st1" x1="158.51" y1="432.1" x2="158.51" y2="426.24"/>
<path class="st1" d="M156.92,432.09c-0.48,0.44-0.51,1.18-0.07,1.66c0.44,0.48,1.18,0.51,1.65,0.07c0.48-0.44,0.51-1.18,0.07-1.65
	c-0.02-0.02-0.04-0.05-0.07-0.07"/>
<path class="st1" d="M157.07,432.22c-0.4,0.36-0.44,0.97-0.08,1.37c0.36,0.4,0.97,0.44,1.37,0.08c0.4-0.36,0.44-0.97,0.08-1.37
	c-0.03-0.03-0.05-0.06-0.08-0.08"/>
<path class="st1" d="M157.53,428.73c-0.13,0-0.24,0.11-0.24,0.24"/>
<line class="st1" x1="14.97" y1="204.11" x2="14.97" y2="110.27"/>
<rect x="12.5" y="110.27" class="st1" width="101.25" height="93.84"/>
<path class="st1" d="M41.35,154.1c-5.65-1.65-11.64-1.65-17.29,0c1.23-13.14,1.23-26.37,0-39.51c5.64,1.65,11.64,1.65,17.29,0
	C40.12,127.73,40.12,140.96,41.35,154.1z"/>
<path class="st1" d="M35.96,155.95c-6.48-1.65-13.27-1.65-19.76,0c1.65-14.36,1.65-28.86,0-43.21c6.48,1.65,13.27,1.65,19.76,0
	c-0.14,0.98-0.27,1.97-0.39,2.95"/>
<path class="st1" d="M41.35,160.28c-5.65,1.65-11.64,1.65-17.29,0c1.23,13.14,1.23,26.37,0,39.51c5.64-1.65,11.64-1.65,17.29,0
	C40.12,186.64,40.12,173.42,41.35,160.28z"/>
<path class="st1" d="M35.96,158.42c-6.48,1.65-13.27,1.65-19.76,0c1.65,14.36,1.65,28.86,0,43.21c6.48-1.65,13.27-1.65,19.76,0
	c-0.14-0.98-0.27-1.97-0.39-2.95"/>
<line class="st1" x1="27.31" y1="110.27" x2="27.31" y2="113.95"/>
<line class="st1" x1="43.36" y1="110.27" x2="43.36" y2="204.11"/>
<line class="st1" x1="27.31" y1="154.74" x2="27.31" y2="159.64"/>
<line class="st1" x1="27.31" y1="200.42" x2="27.31" y2="204.11"/>
<path class="st1" d="M35.57,153c0.12,0.99,0.25,1.97,0.39,2.95"/>
<path class="st1" d="M35.96,158.42c-0.14,0.98-0.27,1.97-0.39,2.95"/>
<rect x="14.97" y="85.04" class="st1" width="19.76" height="22.76"/>
<rect x="14.97" y="206.58" class="st1" width="19.76" height="22.77"/>
<line class="st1" x1="337.05" y1="524.82" x2="262.97" y2="524.82"/>
<rect x="262.97" y="426.04" class="st1" width="74.08" height="101.25"/>
<path class="st1" d="M296.93,498.43c-1.65,5.65-1.65,11.64,0,17.29c-10.25-1.23-20.62-1.23-30.87,0c1.65-5.64,1.65-11.64,0-17.29
	C276.31,499.67,286.67,499.67,296.93,498.43z"/>
<path class="st1" d="M333.97,498.43c-1.65,5.65-1.65,11.64,0,17.29c-10.25-1.23-20.62-1.23-30.87,0c1.65-5.64,1.65-11.64,0-17.29
	C313.35,499.67,323.71,499.67,333.97,498.43z"/>
<path class="st1" d="M298.78,503.83c-1.65,6.48-1.65,13.27,0,19.76c-11.47-1.65-23.11-1.65-34.57,0c1.65-6.48,1.65-13.27,0-19.76
	c0.98,0.14,1.97,0.27,2.95,0.39"/>
<path class="st1" d="M301.25,503.83c1.65,6.48,1.65,13.27,0,19.76c11.47-1.65,23.11-1.65,34.57,0c-1.65-6.48-1.65-13.27,0-19.76
	c-0.98,0.14-1.97,0.27-2.95,0.39"/>
<line class="st1" x1="262.97" y1="512.47" x2="265.42" y2="512.47"/>
<line class="st1" x1="262.97" y1="496.42" x2="337.05" y2="496.42"/>
<line class="st1" x1="297.56" y1="512.47" x2="302.46" y2="512.47"/>
<line class="st1" x1="334.6" y1="512.47" x2="337.05" y2="512.47"/>
<path class="st1" d="M295.83,504.22c0.98-0.12,1.97-0.25,2.95-0.39"/>
<path class="st1" d="M301.25,503.83c0.98,0.14,1.97,0.27,2.95,0.39"/>
<rect x="339.52" y="505.06" class="st1" width="20.99" height="19.75"/>
<rect x="239.51" y="505.06" class="st1" width="20.99" height="19.75"/>
<rect x="162.81" y="99.08" class="st1" width="14.81" height="69.14"/>
<line class="st1" x1="333.62" y1="85.04" x2="224.97" y2="85.04"/>
<line class="st1" x1="224.97" y1="124.55" x2="224.97" y2="85.04"/>
<line class="st1" x1="229.91" y1="124.55" x2="229.91" y2="91.21"/>
<line class="st1" x1="328.68" y1="89.98" x2="224.97" y2="89.98"/>
<line class="st1" x1="299.05" y1="124.55" x2="224.97" y2="124.55"/>
<line class="st1" x1="299.05" y1="124.55" x2="299.05" y2="92.44"/>
<line class="st1" x1="264.48" y1="124.55" x2="264.48" y2="92.44"/>
<line class="st1" x1="224.97" y1="91.21" x2="229.91" y2="91.21"/>
<line class="st1" x1="333.62" y1="85.04" x2="333.62" y2="161.59"/>
<line class="st1" x1="299.05" y1="161.59" x2="333.62" y2="161.59"/>
<line class="st1" x1="328.68" y1="89.98" x2="328.68" y2="124.55"/>
<line class="st1" x1="299.05" y1="124.55" x2="299.05" y2="161.59"/>
<line class="st1" x1="299.05" y1="124.55" x2="328.68" y2="124.55"/>
<line class="st1" x1="333.62" y1="124.55" x2="328.68" y2="124.55"/>
<line class="st1" x1="333.62" y1="124.55" x2="333.62" y2="127.02"/>
<line class="st1" x1="328.68" y1="92.44" x2="229.91" y2="92.44"/>
<path class="st1" d="M342.68,514.94c0-4.05,3.29-7.34,7.34-7.34c4.05,0,7.34,3.29,7.34,7.34c0,4.05-3.29,7.34-7.34,7.34
	C345.96,522.28,342.68,518.99,342.68,514.94z"/>
<path class="st1" d="M348.13,514.94c0-1.04,0.84-1.89,1.88-1.89c1.04,0,1.89,0.84,1.89,1.89s-0.84,1.89-1.89,1.89
	C348.98,516.83,348.13,515.98,348.13,514.94z"/>
<line class="st1" x1="342.68" y1="514.94" x2="348.13" y2="514.94"/>
<line class="st1" x1="351.9" y1="514.94" x2="357.36" y2="514.94"/>
<line class="st1" x1="350.02" y1="507.6" x2="350.02" y2="513.05"/>
<line class="st1" x1="350.02" y1="516.83" x2="350.02" y2="522.28"/>
<rect x="248.48" y="208.12" class="st1" width="39.51" height="74.08"/>
<path class="st1" d="M297.24,239.34c1.44-7.12,1.44-14.46,0-21.58"/>
<path class="st1" d="M296.16,239.34c1.44-7.12,1.44-14.46,0-21.58"/>
<path class="st1" d="M292.07,238.27c1.13-6.42,1.13-13,0-19.42"/>
<line class="st1" x1="296.16" y1="217.76" x2="292.07" y2="218.84"/>
<line class="st1" x1="292.07" y1="218.84" x2="287.99" y2="218.4"/>
<line class="st1" x1="296.16" y1="239.34" x2="292.07" y2="238.27"/>
<line class="st1" x1="292.07" y1="238.27" x2="287.99" y2="238.71"/>
<line class="st1" x1="297.24" y1="239.34" x2="296.16" y2="239.34"/>
<line class="st1" x1="297.24" y1="217.76" x2="296.16" y2="217.76"/>
<path class="st1" d="M297.24,272.56c1.44-7.12,1.44-14.46,0-21.58"/>
<path class="st1" d="M296.16,272.56c1.44-7.12,1.44-14.46,0-21.58"/>
<path class="st1" d="M292.07,271.48c1.13-6.42,1.13-13,0-19.42"/>
<line class="st1" x1="296.16" y1="272.56" x2="292.07" y2="271.48"/>
<line class="st1" x1="292.07" y1="271.48" x2="287.99" y2="271.92"/>
<line class="st1" x1="296.16" y1="250.98" x2="292.07" y2="252.06"/>
<line class="st1" x1="292.07" y1="252.05" x2="287.99" y2="251.61"/>
<line class="st1" x1="297.24" y1="250.98" x2="296.16" y2="250.98"/>
<line class="st1" x1="297.24" y1="272.56" x2="296.16" y2="272.56"/>
<path class="st1" d="M239.24,217.76c-1.44,7.12-1.44,14.46,0,21.58"/>
<path class="st1" d="M240.32,217.76c-1.44,7.12-1.44,14.46,0,21.58"/>
<path class="st1" d="M244.41,218.84c-1.13,6.43-1.13,13,0,19.42"/>
<line class="st1" x1="240.32" y1="217.76" x2="244.41" y2="218.84"/>
<line class="st1" x1="244.41" y1="218.84" x2="248.48" y2="218.4"/>
<line class="st1" x1="240.32" y1="239.34" x2="244.41" y2="238.27"/>
<line class="st1" x1="244.41" y1="238.27" x2="248.48" y2="238.71"/>
<line class="st1" x1="239.24" y1="239.34" x2="240.32" y2="239.34"/>
<line class="st1" x1="239.24" y1="217.76" x2="240.32" y2="217.76"/>
<path class="st1" d="M239.24,250.98c-1.44,7.12-1.44,14.46,0,21.58"/>
<path class="st1" d="M240.32,250.98c-1.44,7.12-1.44,14.46,0,21.58"/>
<path class="st1" d="M244.41,252.05c-1.13,6.43-1.13,13,0,19.42"/>
<line class="st1" x1="240.32" y1="272.56" x2="244.41" y2="271.48"/>
<line class="st1" x1="244.41" y1="271.48" x2="248.48" y2="271.92"/>
<line class="st1" x1="240.32" y1="250.98" x2="244.41" y2="252.06"/>
<line class="st1" x1="244.41" y1="252.05" x2="248.48" y2="251.61"/>
<line class="st1" x1="239.24" y1="250.98" x2="240.32" y2="250.98"/>
<line class="st1" x1="239.24" y1="272.56" x2="240.32" y2="272.56"/>
<rect x="224.97" y="146.01" class="st1" width="41.94" height="27.06"/>
<path class="st1" d="M197.78,98.01c0-5.45,4.42-9.88,9.88-9.88c5.46,0,9.88,4.42,9.88,9.88c0,5.46-4.42,9.88-9.88,9.88
	C202.21,107.88,197.78,103.46,197.78,98.01z"/>
<path class="st1" d="M205.13,98.01c0-1.4,1.13-2.54,2.54-2.54c1.4,0,2.54,1.14,2.54,2.54c0,1.4-1.14,2.54-2.54,2.54
	C206.26,100.55,205.13,99.41,205.13,98.01z"/>
<line class="st1" x1="197.78" y1="98.01" x2="205.13" y2="98.01"/>
<line class="st1" x1="210.2" y1="98.01" x2="217.54" y2="98.01"/>
<line class="st1" x1="207.66" y1="107.89" x2="207.66" y2="100.54"/>
<line class="st1" x1="207.66" y1="95.47" x2="207.66" y2="88.13"/>
<ellipse transform="matrix(1.930629e-03 -1 1 1.930629e-03 -265.4139 763.9543)" class="st1" cx="250.01" cy="514.94" rx="7.34" ry="7.34"/>
<path class="st1" d="M248.12,514.94c0-1.04,0.84-1.89,1.88-1.89s1.89,0.84,1.89,1.89s-0.84,1.89-1.89,1.89
	S248.12,515.98,248.12,514.94z"/>
<line class="st1" x1="257.35" y1="514.94" x2="251.89" y2="514.94"/>
<line class="st1" x1="248.12" y1="514.94" x2="242.67" y2="514.94"/>
<line class="st1" x1="250.01" y1="507.6" x2="250.01" y2="513.05"/>
<line class="st1" x1="250.01" y1="516.83" x2="250.01" y2="522.28"/>
<path class="st1" d="M17.5,96.42c0-4.05,3.29-7.34,7.34-7.34c4.06,0,7.34,3.29,7.34,7.34c0,4.05-3.29,7.34-7.34,7.34
	C20.79,103.76,17.5,100.47,17.5,96.42z"/>
<path class="st1" d="M22.96,96.42c0-1.04,0.84-1.88,1.88-1.88c1.04,0,1.89,0.84,1.89,1.88c0,1.04-0.84,1.89-1.89,1.89
	C23.8,98.3,22.96,97.46,22.96,96.42z"/>
<line class="st1" x1="24.84" y1="103.76" x2="24.84" y2="98.3"/>
<line class="st1" x1="24.84" y1="94.53" x2="24.84" y2="89.08"/>
<line class="st1" x1="32.19" y1="96.42" x2="26.73" y2="96.42"/>
<line class="st1" x1="22.96" y1="96.42" x2="17.5" y2="96.42"/>
<path class="st1" d="M17.5,217.96c0-4.05,3.29-7.34,7.34-7.34c4.06,0,7.34,3.29,7.34,7.34c0,4.05-3.29,7.34-7.34,7.34
	C20.79,225.3,17.5,222.01,17.5,217.96z"/>
<path class="st1" d="M22.96,217.96c0-1.04,0.84-1.88,1.88-1.88c1.04,0,1.89,0.84,1.89,1.88c0,1.04-0.84,1.89-1.89,1.89
	C23.8,219.84,22.96,219,22.96,217.96z"/>
<line class="st1" x1="24.84" y1="225.3" x2="24.84" y2="219.84"/>
<line class="st1" x1="24.84" y1="216.07" x2="24.84" y2="210.62"/>
<line class="st1" x1="32.19" y1="217.96" x2="26.73" y2="217.96"/>
<line class="st1" x1="22.96" y1="217.96" x2="17.5" y2="217.96"/>
<rect x="167.75" y="107.72" class="st1" width="1.23" height="51.86"/>
<polyline class="st1" points="168.98,126.24 173.92,126.24 173.92,141.06 168.98,141.06 "/>
<polyline class="st1" points="167.75,141.06 165.28,141.06 165.28,126.24 167.75,126.24 "/>
<rect x="379.43" y="163.61" class="st1" width="41.98" height="2.16"/>
<path class="st1" d="M379.43,205.59c23.18,0,41.98-18.79,41.98-41.98"/>
<rect x="373.88" y="70.07" class="st1" width="5.55" height="5.55"/>
<polygon class="st1" points="383.14,412.31 494.1,412.31 494.1,4.01 374.65,4.01 374.65,66.36 378.35,66.36 378.35,7.71 490.4,7.71 
	490.4,408.6 383.14,408.6 "/>
<rect x="67.12" y="306.93" class="st1" width="41.98" height="1.54"/>
<rect x="67.12" y="233.89" class="st1" width="41.98" height="1.54"/>
<rect x="115.12" y="225.94" class="st1" width="41.98" height="2.16"/>
<path class="st1" d="M157.1,186.13c-23.19,0-41.98,18.8-41.98,41.98"/>
<rect x="318.58" y="395.02" class="st1" width="29.63" height="2.16"/>
<rect x="288.95" y="392.86" class="st1" width="29.63" height="2.16"/>
<rect x="235.81" y="363.07" class="st1" width="41.98" height="2.16"/>
<path class="st1" d="M235.81,405.05c23.19,0,41.98-18.79,41.98-41.98"/>
<rect x="181.95" y="263.47" class="st1" width="18.52" height="2.16"/>
<rect x="181.95" y="298.35" class="st1" width="18.52" height="2.16"/>
<path class="st1" d="M181.95,281.99c10.23,0,18.52-8.29,18.52-18.52"/>
<path class="st1" d="M200.47,300.51c0-10.23-8.29-18.52-18.52-18.52"/>
<rect x="336.07" y="209.35" class="st1" width="0.93" height="28.71"/>
<rect x="373.88" y="161.14" class="st1" width="5.55" height="2.47"/>
<rect x="373.88" y="205.59" class="st1" width="5.55" height="2.47"/>
<line class="st1" x1="366.93" y1="161.14" x2="373.88" y2="161.14"/>
<rect x="195.29" y="85.04" class="st1" width="24.74" height="25.95"/>
<rect x="178.32" y="336.03" class="st1" width="1.54" height="41.98"/>
<rect x="109.88" y="70.07" class="st1" width="2.47" height="5.55"/>
<rect x="12.96" y="70.07" class="st1" width="2.47" height="5.55"/>
<rect x="50.62" y="70.07" class="st1" width="2.47" height="5.55"/>
<line class="st1" x1="109.88" y1="71.3" x2="53.09" y2="71.3"/>
<line class="st1" x1="109.88" y1="72.54" x2="53.09" y2="72.54"/>
<line class="st1" x1="50.62" y1="71.3" x2="15.43" y2="71.3"/>
<line class="st1" x1="50.62" y1="72.54" x2="15.43" y2="72.54"/>
<line class="st1" x1="111.12" y1="82.57" x2="12.96" y2="82.57"/>
<rect x="371.41" y="70.07" class="st1" width="2.47" height="5.55"/>
<rect x="190.76" y="70.07" class="st1" width="2.47" height="5.55"/>
<rect x="309.21" y="70.07" class="st1" width="2.47" height="5.55"/>
<line class="st1" x1="371.41" y1="71.3" x2="311.68" y2="71.3"/>
<line class="st1" x1="371.41" y1="72.54" x2="311.68" y2="72.54"/>
<rect x="249.94" y="70.07" class="st1" width="2.47" height="5.55"/>
<line class="st1" x1="309.21" y1="71.3" x2="252.41" y2="71.3"/>
<line class="st1" x1="309.21" y1="72.54" x2="252.41" y2="72.54"/>
<line class="st1" x1="249.95" y1="71.3" x2="193.22" y2="71.3"/>
<line class="st1" x1="249.95" y1="72.54" x2="193.22" y2="72.54"/>
<line class="st1" x1="366.93" y1="82.57" x2="191.99" y2="82.57"/>
<rect x="373.88" y="158.67" class="st1" width="5.55" height="2.47"/>
<rect x="373.88" y="75.62" class="st1" width="5.55" height="2.47"/>
<rect x="373.88" y="117.15" class="st1" width="5.55" height="2.47"/>
<line class="st1" x1="378.2" y1="158.67" x2="378.2" y2="119.62"/>
<line class="st1" x1="376.96" y1="158.67" x2="376.96" y2="119.62"/>
<line class="st1" x1="378.2" y1="117.15" x2="378.2" y2="78.09"/>
<line class="st1" x1="376.96" y1="117.15" x2="376.96" y2="78.09"/>
<line class="st1" x1="366.93" y1="161.14" x2="366.93" y2="82.57"/>
<rect x="373.88" y="346.1" class="st1" width="5.55" height="2.47"/>
<rect x="373.88" y="261.31" class="st1" width="5.55" height="2.47"/>
<rect x="373.88" y="320.63" class="st1" width="5.55" height="2.47"/>
<line class="st1" x1="378.2" y1="346.1" x2="378.2" y2="323.1"/>
<line class="st1" x1="376.96" y1="346.1" x2="376.96" y2="323.1"/>
<line class="st1" x1="378.2" y1="320.63" x2="378.2" y2="263.78"/>
<line class="st1" x1="376.96" y1="320.63" x2="376.96" y2="263.78"/>
<line class="st1" x1="366.93" y1="347.33" x2="366.93" y2="262.54"/>
<rect x="373.88" y="517.41" class="st1" width="5.55" height="2.47"/>
<rect x="373.88" y="416.94" class="st1" width="5.55" height="2.47"/>
<rect x="373.88" y="477.44" class="st1" width="5.55" height="2.47"/>
<line class="st1" x1="378.2" y1="517.41" x2="378.2" y2="479.91"/>
<line class="st1" x1="376.96" y1="517.41" x2="376.96" y2="479.91"/>
<line class="st1" x1="378.2" y1="477.44" x2="378.2" y2="419.41"/>
<line class="st1" x1="376.96" y1="477.44" x2="376.96" y2="419.41"/>
<line class="st1" x1="366.93" y1="518.64" x2="366.93" y2="418.17"/>
<rect x="106.95" y="520.8" class="st1" width="44.45" height="2.16"/>
<path class="st1" d="M151.4,522.97c0-24.55-19.9-44.45-44.45-44.45"/>
<line class="st1" x1="112.35" y1="75.62" x2="12.96" y2="75.62"/>
<line class="st1" x1="112.35" y1="70.07" x2="12.96" y2="70.07"/>
<line class="st1" x1="373.88" y1="75.62" x2="190.76" y2="75.62"/>
<line class="st1" x1="373.88" y1="70.07" x2="190.76" y2="70.07"/>
<line class="st1" x1="373.88" y1="161.14" x2="373.88" y2="75.62"/>
<line class="st1" x1="379.43" y1="161.14" x2="379.43" y2="75.62"/>
<line class="st1" x1="373.88" y1="348.57" x2="373.88" y2="261.31"/>
<line class="st1" x1="379.43" y1="348.57" x2="379.43" y2="261.31"/>
<line class="st1" x1="373.88" y1="519.88" x2="373.88" y2="416.94"/>
<line class="st1" x1="379.43" y1="519.88" x2="379.43" y2="416.94"/>
<polygon class="st1" points="14.34,359.52 42.12,359.52 42.12,310.56 46.13,310.56 46.13,307.7 67.12,307.7 67.12,308.48 
	88.11,308.48 88.11,310.56 93.51,310.56 93.51,396.66 87.54,396.66 61.17,381.43 60.71,382.23 85.69,396.66 19.43,396.66 
	19.43,394.09 14.34,394.09 "/>
<path class="st1" d="M15.34,370.6c0-0.24,0.17-0.45,0.41-0.5l3.65-0.7c0.4-0.08,0.81,0.01,1.14,0.25c0.56,0.4,1.05,0.89,1.45,1.45
	c3.94-0.23,7.86-0.74,11.74-1.5c1.24-0.28,2.51-0.42,3.79-0.42c1.65,0,3.3,0.24,4.88,0.71c1.38,0.41,2.68,1.05,3.84,1.89
	c1.12,0.81,2.06,1.84,2.75,3.04c0.57,0.98,0.86,2.1,0.86,3.23c0,1.13-0.3,2.25-0.86,3.23c-0.69,1.2-1.63,2.24-2.75,3.04
	c-1.17,0.84-2.47,1.48-3.84,1.89c-1.58,0.47-3.23,0.71-4.88,0.71c-1.27,0-2.54-0.14-3.79-0.42c-3.88-0.77-7.8-1.27-11.74-1.5
	c-0.4,0.56-0.89,1.05-1.45,1.44c-0.33,0.23-0.74,0.32-1.14,0.25l-3.65-0.7c-0.24-0.05-0.41-0.26-0.41-0.5V370.6z"/>
<path class="st1" d="M113.23,435.07c-0.24,0-0.45-0.17-0.5-0.41l-0.7-3.65c-0.08-0.4,0.01-0.81,0.25-1.14
	c0.4-0.56,0.89-1.05,1.45-1.45c-0.23-3.94-0.73-7.86-1.5-11.74c-0.28-1.24-0.42-2.51-0.42-3.79c0-1.65,0.24-3.3,0.71-4.88
	c0.41-1.38,1.05-2.68,1.89-3.84c0.81-1.12,1.84-2.06,3.04-2.75c0.98-0.57,2.1-0.86,3.23-0.86c1.13,0,2.25,0.3,3.23,0.86
	c1.2,0.69,2.24,1.63,3.04,2.75c0.84,1.17,1.48,2.47,1.89,3.84c0.47,1.58,0.71,3.23,0.71,4.88c0,1.27-0.14,2.54-0.42,3.79
	c-0.77,3.88-1.27,7.8-1.5,11.74c0.56,0.4,1.05,0.89,1.44,1.45c0.23,0.33,0.32,0.74,0.25,1.14l-0.7,3.65
	c-0.05,0.24-0.26,0.41-0.5,0.41H113.23z"/>
<rect x="132.74" y="265.32" class="st1" width="37.04" height="33.34"/>
<polygon class="st1" points="129.01,304.85 176.24,304.85 176.24,300.51 179.09,300.51 179.09,263.47 176.24,263.47 176.24,259.13 
	129.01,259.13 "/>
<line class="st1" x1="379.43" y1="163.61" x2="379.43" y2="205.59"/>
<line class="st1" x1="373.88" y1="163.61" x2="373.88" y2="205.59"/>
<polygon class="st1" points="102.15,353 102.15,436.08 139.19,436.08 139.19,408.29 176.24,408.29 176.24,399 179.09,399 
	179.09,378.01 178.32,378.01 178.32,357.02 176.24,357.02 176.24,353 "/>
<line class="st1" x1="106.95" y1="522.97" x2="106.95" y2="478.52"/>
<line class="st1" x1="96.46" y1="522.97" x2="96.46" y2="478.52"/>
<line class="st1" x1="134.64" y1="304.85" x2="134.64" y2="298.66"/>
<line class="st1" x1="134.64" y1="265.32" x2="134.64" y2="259.13"/>
<line class="st1" x1="149.46" y1="304.85" x2="149.46" y2="298.66"/>
<line class="st1" x1="149.46" y1="265.32" x2="149.46" y2="259.13"/>
<line class="st1" x1="164.27" y1="304.85" x2="164.27" y2="298.66"/>
<line class="st1" x1="164.27" y1="265.32" x2="164.27" y2="259.13"/>
<line class="st1" x1="179.09" y1="281.99" x2="169.78" y2="281.99"/>
<line class="st1" x1="132.74" y1="281.99" x2="129.01" y2="281.99"/>
<line class="st1" x1="105.01" y1="436.07" x2="105.01" y2="353"/>
<line class="st1" x1="119.83" y1="436.07" x2="119.83" y2="435.07"/>
<line class="st1" x1="119.83" y1="400.62" x2="119.83" y2="353"/>
<line class="st1" x1="134.64" y1="436.07" x2="134.64" y2="353"/>
<line class="st1" x1="149.46" y1="408.29" x2="149.46" y2="353"/>
<line class="st1" x1="164.27" y1="408.29" x2="164.27" y2="353"/>
<line class="st1" x1="139.19" y1="412.27" x2="129.53" y2="412.27"/>
<line class="st1" x1="111.81" y1="412.27" x2="102.15" y2="412.27"/>
<line class="st1" x1="179.09" y1="382.64" x2="102.15" y2="382.64"/>
<line class="st1" x1="19.43" y1="369.4" x2="19.43" y2="359.52"/>
<line class="st1" x1="19.43" y1="394.1" x2="19.43" y2="386.69"/>
<line class="st1" x1="34.25" y1="396.66" x2="34.25" y2="386.6"/>
<line class="st1" x1="34.25" y1="369.49" x2="34.25" y2="359.52"/>
<line class="st1" x1="49.06" y1="396.66" x2="49.06" y2="381.13"/>
<line class="st1" x1="49.06" y1="374.96" x2="49.06" y2="307.7"/>
<line class="st1" x1="63.88" y1="396.66" x2="63.88" y2="384.06"/>
<line class="st1" x1="63.88" y1="382.99" x2="63.88" y2="307.7"/>
<line class="st1" x1="78.69" y1="396.66" x2="78.69" y2="392.62"/>
<line class="st1" x1="78.69" y1="391.55" x2="78.69" y2="308.48"/>
<line class="st1" x1="93.51" y1="396.6" x2="87.45" y2="396.6"/>
<line class="st1" x1="85.6" y1="396.6" x2="19.43" y2="396.6"/>
<line class="st1" x1="93.51" y1="366.97" x2="14.34" y2="366.97"/>
<line class="st1" x1="93.51" y1="337.34" x2="42.12" y2="337.34"/>
<line class="st2" x1="336.07" y1="240.53" x2="364.31" y2="240.53"/>
<line class="st2" x1="364.31" y1="240.53" x2="364.31" y2="270.16"/>
<line class="st2" x1="364.31" y1="270.16" x2="336.07" y2="270.16"/>
<line class="st2" x1="337.3" y1="270.16" x2="337.3" y2="240.53"/>
<line class="st2" x1="351.04" y1="374.03" x2="286.12" y2="374.03"/>
<line class="st2" x1="24.84" y1="254.81" x2="24.84" y2="304.85"/>
<line class="st2" x1="110.95" y1="304.85" x2="110.95" y2="237.52"/>
<polygon class="st3" points="379.43,539.79 379.43,519.88 373.88,519.88 373.88,518.65 366.93,518.65 366.93,527.29 235.81,527.29 
	235.81,405.05 230.1,405.05 230.1,527.29 106.95,527.29 106.95,522.97 96.46,522.97 96.46,539.79 "/>
<polygon class="st1" points="379.43,539.79 379.43,519.88 373.88,519.88 373.88,518.65 366.93,518.65 366.93,527.29 235.81,527.29 
	235.81,405.05 230.1,405.05 230.1,527.29 106.95,527.29 106.95,522.97 96.46,522.97 96.46,539.79 "/>
<polygon class="st3" points="379.43,416.94 373.88,416.94 373.88,418.17 366.93,418.17 366.93,397.18 348.21,397.18 348.21,391.47 
	351.04,391.47 351.04,361.68 286.12,361.68 286.12,391.47 288.95,391.47 288.95,397.18 280.41,397.18 280.41,358.75 235.81,358.75 
	235.81,363.07 230.1,363.07 230.1,353.04 366.93,353.04 366.93,347.33 373.88,347.33 373.88,348.57 379.43,348.57 "/>
<polygon class="st1" points="379.43,416.94 373.88,416.94 373.88,418.17 366.93,418.17 366.93,397.18 348.21,397.18 348.21,391.47 
	351.04,391.47 351.04,361.68 286.12,361.68 286.12,391.47 288.95,391.47 288.95,397.18 280.41,397.18 280.41,358.75 235.81,358.75 
	235.81,363.07 230.1,363.07 230.1,353.04 366.93,353.04 366.93,347.33 373.88,347.33 373.88,348.57 379.43,348.57 "/>
<path class="st3" d="M361.99,99.85c0-6.82-5.53-12.35-12.35-12.35c-6.82,0-12.35,5.53-12.35,12.35c0,6.82,5.53,12.35,12.35,12.35
	C356.47,112.2,361.99,106.67,361.99,99.85"/>
<path class="st1" d="M361.99,99.85c0-6.82-5.53-12.35-12.35-12.35c-6.82,0-12.35,5.53-12.35,12.35c0,6.82,5.53,12.35,12.35,12.35
	C356.47,112.2,361.99,106.67,361.99,99.85z"/>
<polygon class="st3" points="191.99,82.57 191.99,75.62 190.76,75.62 190.76,70.07 112.35,70.07 112.35,75.62 111.12,75.62 
	111.12,82.57 157.1,82.57 157.1,186.13 162.81,186.13 162.81,82.57 "/>
<polygon class="st1" points="191.99,82.57 191.99,75.62 190.76,75.62 190.76,70.07 112.35,70.07 112.35,75.62 111.12,75.62 
	111.12,82.57 157.1,82.57 157.1,186.13 162.81,186.13 162.81,82.57 "/>
<polygon class="st3" points="180.48,357.02 181.95,357.02 181.95,300.51 176.23,300.51 176.23,304.85 129.01,304.85 129.01,259.13 
	176.23,259.13 176.23,263.47 181.95,263.47 181.95,231.81 162.81,231.81 162.81,228.11 157.1,228.11 157.1,231.81 88.11,231.81 
	88.11,233.28 130.71,233.28 130.71,236.05 88.11,236.05 88.11,237.52 123.3,237.52 123.3,304.85 88.11,304.85 88.11,306.32 
	130.71,306.32 130.71,309.09 88.11,309.09 88.11,310.56 93.51,310.56 93.51,436.08 19.43,436.08 19.44,394.1 14.35,394.1 
	14.34,310.56 46.13,310.56 46.13,304.85 12.5,304.85 12.5,237.52 46.13,237.52 46.13,231.81 12.5,231.81 12.5,82.57 12.96,82.57 
	12.96,70.07 0.15,70.07 0.15,455.83 96.46,455.83 96.46,478.52 106.95,478.52 106.95,444.72 181.95,444.72 181.95,399 176.23,399 
	176.23,436.08 102.15,436.08 102.15,313.49 176.23,313.49 176.23,357.02 177.7,357.02 177.7,314.42 180.48,314.42 "/>
<polygon class="st1" points="180.48,357.02 181.95,357.02 181.95,300.51 176.23,300.51 176.23,304.85 129.01,304.85 129.01,259.13 
	176.23,259.13 176.23,263.47 181.95,263.47 181.95,231.81 162.81,231.81 162.81,228.11 157.1,228.11 157.1,231.81 88.11,231.81 
	88.11,233.28 130.71,233.28 130.71,236.05 88.11,236.05 88.11,237.52 123.3,237.52 123.3,304.85 88.11,304.85 88.11,306.32 
	130.71,306.32 130.71,309.09 88.11,309.09 88.11,310.56 93.51,310.56 93.51,436.08 19.43,436.08 19.44,394.1 14.35,394.1 
	14.34,310.56 46.13,310.56 46.13,304.85 12.5,304.85 12.5,237.52 46.13,237.52 46.13,231.81 12.5,231.81 12.5,82.57 12.96,82.57 
	12.96,70.07 0.15,70.07 0.15,455.83 96.46,455.83 96.46,478.52 106.95,478.52 106.95,444.72 181.95,444.72 181.95,399 176.23,399 
	176.23,436.08 102.15,436.08 102.15,313.49 176.23,313.49 176.23,357.02 177.7,357.02 177.7,314.42 180.48,314.42 "/>
<polygon class="st3" points="379.43,261.31 373.88,261.31 373.88,262.54 366.93,262.54 366.93,208.06 379.43,208.06 "/>
<polygon class="st1" points="379.43,261.31 373.88,261.31 373.88,262.54 366.93,262.54 366.93,208.06 379.43,208.06 "/>
<path class="st4" d="M142.39,279.41h0.47l1.38,4.21l1.44-4.2h0.6l-1.8,5.08H144l-1.38-4.09l-1.39,4.09h-0.47l-1.8-5.08h0.62
	l1.44,4.2L142.39,279.41z"/>
<path class="st4" d="M149.72,278.71l-3.34,6.67h-0.51l3.34-6.67H149.72z"/>
<path class="st4" d="M152.28,284.46h-1.75v-5.04h1.75c1.58,0,2.68,1.09,2.68,2.51C154.96,283.36,153.87,284.46,152.28,284.46z
	 M152.28,279.95h-1.18v3.99h1.18c1.28,0,2.09-0.86,2.09-1.99C154.37,280.82,153.56,279.95,152.28,279.95z"/>
<path class="st4" d="M254.37,336.18h-3.05v1.8h2.73v0.52h-2.73v2.2h-0.57v-5.04h3.62V336.18z"/>
<path class="st4" d="M345.83,258.44h-1.75v-5.04h1.75c1.58,0,2.68,1.09,2.68,2.51C348.51,257.33,347.41,258.44,345.83,258.44z
	 M345.83,253.92h-1.18v3.99h1.18c1.28,0,2.09-0.86,2.09-1.99C347.91,254.8,347.1,253.92,345.83,253.92z"/>
<path class="st4" d="M352.66,253.38h0.47l1.38,4.21l1.44-4.2h0.6l-1.8,5.08h-0.48l-1.38-4.09l-1.39,4.09h-0.47l-1.8-5.08h0.62
	l1.44,4.2L352.66,253.38z"/>
<path class="st4" d="M342.58,224.58h-1.22v1.78h-0.57v-5.04h1.89c1.14,0,1.89,0.6,1.89,1.61
	C344.56,224.02,343.65,224.58,342.58,224.58z M342.63,221.84h-1.27v2.22h1.25c0.83,0,1.38-0.45,1.38-1.12
	C343.98,222.22,343.44,221.84,342.63,221.84z"/>
<path class="st4" d="M348.3,220.61l-3.34,6.67h-0.51l3.34-6.67H348.3z"/>
<path class="st4" d="M351.52,224.98h-0.03l-1.84-2.69v4.08h-0.55v-5.04h0.58l1.84,2.75l1.84-2.75h0.58v5.04h-0.57v-4.08
	L351.52,224.98z"/>
<path class="st4" d="M358.56,221.3h0.47l1.38,4.21l1.44-4.2h0.6l-1.8,5.08h-0.48l-1.38-4.09l-1.39,4.09h-0.47l-1.8-5.08h0.62
	l1.44,4.2L358.56,221.3z"/>
<path class="st4" d="M15.31,244.22h0.57v4.52h2.84v0.53h-3.41V244.22z"/>
<path class="st4" d="M20.54,244.22v5.04h-0.57v-5.04H20.54z"/>
<path class="st4" d="M25.87,244.22h0.55v5.04h-0.45l-3.26-4.13v4.13h-0.55v-5.04h0.53l3.18,4.04V244.22z"/>
<path class="st4" d="M419.76,206.86c0,0.66-0.4,1-0.8,1.17c0.6,0.18,1.08,0.53,1.08,1.22c0,0.87-0.73,1.38-1.83,1.38h-2.24v-5.04
	h2.15C419.12,205.6,419.76,206.09,419.76,206.86z M419.19,206.94c0-0.5-0.4-0.83-1.12-0.83h-1.53v1.74h1.49
	C418.71,207.84,419.19,207.53,419.19,206.94z M419.47,209.22c0-0.55-0.46-0.87-1.34-0.87h-1.59v1.78h1.69
	C418.99,210.13,419.47,209.79,419.47,209.22z"/>
<path class="st4" d="M426.02,210.64h-0.61l-0.59-1.33h-2.74l-0.6,1.33h-0.58l2.3-5.08h0.53L426.02,210.64z M423.45,206.22
	l-1.15,2.57h2.3L423.45,206.22z"/>
<path class="st4" d="M427.15,205.6h0.57v4.52h2.84v0.53h-3.41V205.6z"/>
<path class="st4" d="M433.78,210.72c-1.46,0-2.53-1.14-2.53-2.6c0-1.44,1.07-2.61,2.55-2.61c0.92,0,1.46,0.32,1.97,0.8l-0.39,0.42
	c-0.42-0.4-0.9-0.69-1.58-0.69c-1.12,0-1.95,0.9-1.95,2.07c0,1.17,0.84,2.09,1.95,2.09c0.69,0,1.14-0.27,1.63-0.73l0.37,0.37
	C435.27,210.37,434.69,210.72,433.78,210.72z"/>
<path class="st4" d="M439.13,210.72c-1.53,0-2.56-1.2-2.56-2.6s1.04-2.61,2.58-2.61s2.56,1.2,2.56,2.6
	C441.71,209.51,440.67,210.72,439.13,210.72z M439.13,206.04c-1.15,0-1.97,0.92-1.97,2.07s0.84,2.09,1.99,2.09s1.97-0.92,1.97-2.07
	S440.28,206.04,439.13,206.04z"/>
<path class="st4" d="M446.77,205.6h0.55v5.04h-0.45l-3.26-4.13v4.13h-0.55v-5.04h0.53l3.18,4.04V205.6z"/>
<path class="st4" d="M451.04,210.64h-0.58v-2l-2.1-3.05h0.69l1.7,2.52l1.71-2.52h0.66l-2.1,3.04V210.64z"/>
<path class="st4" d="M47.32,263.75h0.47l1.38,4.21l1.44-4.2h0.6l-1.8,5.08h-0.48l-1.38-4.09l-1.39,4.09h-0.47l-1.8-5.08h0.62
	l1.44,4.2L47.32,263.75z"/>
<path class="st4" d="M56.44,268.8h-0.61l-0.59-1.33h-2.74l-0.6,1.33h-0.58l2.3-5.08h0.53L56.44,268.8z M53.87,264.39l-1.15,2.57h2.3
	L53.87,264.39z"/>
<path class="st4" d="M57.57,263.76h0.57v4.52h2.84v0.53h-3.41V263.76z"/>
<path class="st4" d="M66.47,268.8h-0.71l-1.94-2.44l-1.07,1.09v1.35h-0.57v-5.04h0.57v3.01l2.9-3.01h0.73l-2.16,2.2L66.47,268.8z"/>
<path class="st4" d="M66.9,266.93v-0.58h2v0.58H66.9z"/>
<path class="st4" d="M70.85,263.76v5.04h-0.57v-5.04H70.85z"/>
<path class="st4" d="M76.18,263.76h0.55v5.04h-0.45l-3.25-4.13v4.13h-0.55v-5.04h0.53l3.18,4.04V263.76z"/>
<path class="st4" d="M48.31,277.54c-1.46,0-2.53-1.14-2.53-2.6c0-1.44,1.07-2.61,2.55-2.61c0.92,0,1.46,0.32,1.97,0.8l-0.39,0.42
	c-0.42-0.4-0.9-0.69-1.58-0.69c-1.12,0-1.95,0.9-1.95,2.07c0,1.17,0.84,2.09,1.95,2.09c0.69,0,1.15-0.27,1.63-0.73l0.37,0.37
	C49.8,277.18,49.23,277.54,48.31,277.54z"/>
<path class="st4" d="M51.47,272.41h0.57v4.52h2.84v0.53h-3.41V272.41z"/>
<path class="st4" d="M58.13,277.54c-1.53,0-2.56-1.2-2.56-2.6s1.04-2.61,2.58-2.61s2.56,1.2,2.56,2.6
	C60.71,276.32,59.67,277.54,58.13,277.54z M58.13,272.85c-1.15,0-1.97,0.92-1.97,2.07s0.84,2.09,1.99,2.09s1.97-0.92,1.97-2.07
	S59.29,272.85,58.13,272.85z"/>
<path class="st4" d="M63.83,274.66c1.12,0.25,1.64,0.66,1.64,1.43c0,0.87-0.72,1.43-1.72,1.43c-0.8,0-1.46-0.27-2.06-0.81l0.35-0.42
	c0.53,0.48,1.03,0.71,1.73,0.71c0.68,0,1.12-0.35,1.12-0.86c0-0.48-0.25-0.74-1.31-0.96c-1.16-0.25-1.69-0.63-1.69-1.46
	c0-0.81,0.7-1.38,1.66-1.38c0.73,0,1.26,0.21,1.77,0.62l-0.33,0.44c-0.47-0.38-0.94-0.55-1.46-0.55c-0.66,0-1.07,0.36-1.07,0.82
	C62.46,274.15,62.72,274.42,63.83,274.66z"/>
<path class="st4" d="M70.43,272.93h-3.08v1.72h2.75v0.52h-2.75v1.76h3.11v0.52h-3.68v-5.04h3.64V272.93z"/>
<path class="st4" d="M73.65,277.45h-0.58v-4.52h-1.69v-0.53h3.96v0.53h-1.69V277.45z"/>
<path class="st4" d="M54.62,352.5h-3.08v1.72h2.75v0.52h-2.75v1.76h3.11v0.52h-3.68v-5.04h3.64V352.5z"/>
<path class="st4" d="M59.65,351.98h0.55v5.04h-0.45l-3.26-4.13v4.13h-0.55v-5.04h0.53l3.18,4.04V351.98z"/>
<path class="st4" d="M63.59,354.23c1.12,0.24,1.64,0.66,1.64,1.43c0,0.87-0.72,1.43-1.72,1.43c-0.8,0-1.46-0.27-2.06-0.81l0.35-0.42
	c0.53,0.48,1.03,0.71,1.73,0.71c0.68,0,1.12-0.35,1.12-0.86c0-0.48-0.25-0.74-1.31-0.96c-1.16-0.25-1.69-0.63-1.69-1.46
	c0-0.81,0.7-1.38,1.66-1.38c0.73,0,1.26,0.21,1.77,0.62l-0.33,0.44c-0.47-0.38-0.94-0.55-1.46-0.55c-0.66,0-1.07,0.36-1.07,0.82
	C62.22,353.73,62.48,353.99,63.59,354.23z"/>
<path class="st4" d="M70.65,354.87c0,1.47-0.84,2.23-2.1,2.23c-1.25,0-2.1-0.76-2.1-2.19v-2.93h0.57v2.9c0,1.09,0.58,1.7,1.54,1.7
	c0.93,0,1.52-0.56,1.52-1.66v-2.93h0.57V354.87z"/>
<path class="st4" d="M72.76,351.98v5.04h-0.57v-5.04H72.76z"/>
<path class="st4" d="M76.29,357.02h-0.58v-4.52h-1.69v-0.53h3.96v0.53h-1.69V357.02z"/>
<path class="st4" d="M82.84,352.5h-3.08v1.72h2.75v0.52h-2.75v1.76h3.11v0.52H79.2v-5.04h3.64V352.5z"/>
<path class="st4" d="M127.94,370.92c0,0.66-0.4,1-0.8,1.17c0.6,0.18,1.08,0.53,1.08,1.22c0,0.87-0.73,1.38-1.83,1.38h-2.24v-5.04
	h2.15C127.3,369.66,127.94,370.15,127.94,370.92z M127.37,371c0-0.5-0.4-0.83-1.12-0.83h-1.53v1.74h1.49
	C126.89,371.9,127.37,371.59,127.37,371z M127.65,373.28c0-0.55-0.46-0.87-1.34-0.87h-1.59v1.78h1.69
	C127.17,374.19,127.65,373.85,127.65,373.28z"/>
<path class="st4" d="M134.2,374.7h-0.61l-0.59-1.33h-2.74l-0.6,1.33h-0.58l2.3-5.08h0.53L134.2,374.7z M131.63,370.28l-1.15,2.57
	h2.3L131.63,370.28z"/>
<path class="st4" d="M136.6,374.7h-0.58v-4.52h-1.69v-0.53h3.96v0.53h-1.69V374.7z"/>
<path class="st4" d="M140.07,372.43v2.27h-0.57v-5.04h0.57v2.24h2.91v-2.24h0.57v5.04h-0.57v-2.27H140.07z"/>
<path class="st4" d="M256.84,248.88h-1.75v-5.04h1.75c1.58,0,2.68,1.09,2.68,2.51C259.52,247.77,258.42,248.88,256.84,248.88z
	 M256.84,244.36h-1.18v3.99h1.18c1.28,0,2.09-0.86,2.09-1.99C258.92,245.24,258.11,244.36,256.84,244.36z"/>
<path class="st4" d="M261.48,243.83v5.04h-0.57v-5.04H261.48z"/>
<path class="st4" d="M266.81,243.83h0.55v5.04h-0.45l-3.25-4.13v4.13h-0.55v-5.04h0.53l3.18,4.04V243.83z"/>
<path class="st4" d="M269.55,243.83v5.04h-0.57v-5.04H269.55z"/>
<path class="st4" d="M274.88,243.83h0.55v5.04h-0.45l-3.25-4.13v4.13h-0.55v-5.04h0.53l3.18,4.04V243.83z"/>
<path class="st4" d="M279.35,248.96c-1.58,0-2.56-1.15-2.56-2.6c0-1.39,1.01-2.61,2.53-2.61c0.85,0,1.38,0.25,1.88,0.67l-0.37,0.43
	c-0.39-0.34-0.82-0.58-1.53-0.58c-1.12,0-1.92,0.94-1.92,2.07c0,1.21,0.77,2.1,2,2.1c0.58,0,1.11-0.22,1.46-0.5v-1.25h-1.53v-0.51
	h2.08v2.01C280.9,248.61,280.19,248.96,279.35,248.96z"/>
<path class="st4" d="M277.18,300.71h-0.71l-1.94-2.44l-1.07,1.09v1.35h-0.57v-5.04h0.57v3.01l2.89-3.01h0.74l-2.16,2.2
	L277.18,300.71z"/>
<path class="st4" d="M278.82,295.67v5.04h-0.57v-5.04H278.82z"/>
<path class="st4" d="M282.35,300.71h-0.58v-4.52h-1.69v-0.53h3.96v0.53h-1.69V300.71z"/>
<path class="st4" d="M287.22,300.79c-1.46,0-2.53-1.14-2.53-2.6c0-1.44,1.07-2.61,2.55-2.61c0.92,0,1.46,0.32,1.97,0.8l-0.39,0.42
	c-0.42-0.4-0.9-0.69-1.58-0.69c-1.12,0-1.95,0.9-1.95,2.07c0,1.17,0.84,2.09,1.95,2.09c0.69,0,1.14-0.27,1.63-0.73l0.37,0.37
	C288.71,300.44,288.14,300.79,287.22,300.79z"/>
<path class="st4" d="M290.95,298.44v2.27h-0.57v-5.04h0.57v2.24h2.91v-2.24h0.57v5.04h-0.57v-2.27H290.95z"/>
<path class="st4" d="M299.63,296.18h-3.08v1.72h2.75v0.52h-2.75v1.76h3.11v0.52h-3.68v-5.04h3.64V296.18z"/>
<path class="st4" d="M304.66,295.67h0.55v5.04h-0.45l-3.25-4.13v4.13h-0.55v-5.04h0.53l3.18,4.04V295.67z"/>
<path class="st4" d="M233.52,156.98h0.57v4.52h2.84v0.53h-3.41V156.98z"/>
<path class="st4" d="M238.74,156.98v5.04h-0.57v-5.04H238.74z"/>
<path class="st4" d="M244.16,156.98h0.61l-2.17,5.08h-0.5l-2.17-5.08h0.63l1.79,4.34L244.16,156.98z"/>
<path class="st4" d="M246.53,156.98v5.04h-0.57v-5.04H246.53z"/>
<path class="st4" d="M251.86,156.98h0.55v5.04h-0.45l-3.25-4.13v4.13h-0.55v-5.04h0.53l3.18,4.04V156.98z"/>
<path class="st4" d="M256.32,162.1c-1.58,0-2.56-1.15-2.56-2.6c0-1.39,1.01-2.61,2.53-2.61c0.85,0,1.38,0.24,1.88,0.67l-0.37,0.43
	c-0.39-0.34-0.82-0.58-1.53-0.58c-1.12,0-1.92,0.94-1.92,2.07c0,1.21,0.77,2.1,2,2.1c0.58,0,1.11-0.22,1.46-0.5v-1.25h-1.53v-0.51
	h2.08v2.01C257.88,161.75,257.17,162.1,256.32,162.1z"/>
<path class="st4" d="M71.02,499.93h-3.08v1.72h2.75v0.52h-2.75v1.76h3.11v0.52h-3.68v-5.04h3.64V499.93z"/>
<path class="st4" d="M76.04,499.41h0.55v5.04h-0.45l-3.25-4.13v4.13h-0.55v-5.04h0.53l3.18,4.04V499.41z"/>
<path class="st4" d="M80.08,504.45H79.5v-4.52h-1.69v-0.53h3.96v0.53h-1.69V504.45z"/>
<path class="st4" d="M86.45,504.45l-1.46-1.96h-1.44v1.96h-0.57v-5.04h2.17c1.11,0,1.82,0.6,1.82,1.5c0,0.84-0.58,1.33-1.37,1.48
	l1.55,2.06H86.45z M85.1,499.94h-1.56v2.04h1.55c0.76,0,1.3-0.39,1.3-1.04C86.39,500.31,85.92,499.94,85.1,499.94z"/>
<path class="st4" d="M90.3,504.45h-0.58v-2l-2.1-3.05h0.69l1.7,2.52l1.71-2.52h0.66l-2.1,3.04V504.45z"/>
<path class="st4" d="M64.77,153.34h-0.03l-1.84-2.69v4.08h-0.55v-5.04h0.58l1.84,2.75l1.84-2.75h0.58v5.04h-0.57v-4.08L64.77,153.34
	z"/>
<path class="st4" d="M73.44,154.73h-0.61l-0.59-1.33h-2.74l-0.6,1.33h-0.58l2.3-5.08h0.53L73.44,154.73z M70.86,150.31l-1.15,2.57
	h2.3L70.86,150.31z"/>
<path class="st4" d="M76.28,151.93c1.12,0.24,1.64,0.66,1.64,1.43c0,0.87-0.72,1.43-1.72,1.43c-0.8,0-1.46-0.27-2.06-0.81l0.35-0.42
	c0.53,0.48,1.03,0.71,1.73,0.71c0.68,0,1.12-0.35,1.12-0.86c0-0.48-0.25-0.74-1.31-0.96c-1.16-0.25-1.69-0.63-1.69-1.46
	c0-0.81,0.7-1.38,1.66-1.38c0.73,0,1.26,0.21,1.77,0.62l-0.33,0.44c-0.47-0.38-0.94-0.55-1.46-0.55c-0.66,0-1.07,0.36-1.07,0.82
	C74.91,151.43,75.17,151.69,76.28,151.93z"/>
<path class="st4" d="M81.02,154.73h-0.58v-4.52h-1.69v-0.53h3.96v0.53h-1.69V154.73z"/>
<path class="st4" d="M87.57,150.2h-3.08v1.72h2.75v0.52h-2.75v1.76h3.11v0.52h-3.68v-5.04h3.64V150.2z"/>
<path class="st4" d="M92.36,154.73l-1.46-1.96h-1.44v1.96h-0.57v-5.04h2.17c1.11,0,1.82,0.6,1.82,1.51c0,0.84-0.58,1.33-1.37,1.48
	l1.55,2.06H92.36z M91.01,150.21h-1.56v2.05H91c0.76,0,1.3-0.39,1.3-1.04C92.3,150.58,91.82,150.21,91.01,150.21z"/>
<path class="st4" d="M61.91,159.59c0,0.66-0.4,1-0.8,1.17c0.6,0.18,1.08,0.53,1.08,1.22c0,0.87-0.73,1.38-1.83,1.38h-2.24v-5.04
	h2.15C61.26,158.33,61.91,158.82,61.91,159.59z M61.33,159.67c0-0.5-0.4-0.83-1.12-0.83h-1.53v1.74h1.49
	C60.86,160.58,61.33,160.27,61.33,159.67z M61.61,161.95c0-0.55-0.46-0.87-1.34-0.87h-1.59v1.78h1.69
	C61.14,162.86,61.61,162.52,61.61,161.95z"/>
<path class="st4" d="M67.11,158.85h-3.08v1.72h2.75v0.52h-2.75v1.76h3.11v0.52h-3.68v-5.04h3.64V158.85z"/>
<path class="st4" d="M70.18,163.37h-1.75v-5.04h1.75c1.58,0,2.68,1.09,2.68,2.51C72.86,162.27,71.77,163.37,70.18,163.37z
	 M70.18,158.86H69v3.99h1.18c1.28,0,2.09-0.86,2.09-1.99S71.46,158.86,70.18,158.86z"/>
<path class="st4" d="M77.68,163.37l-1.46-1.96h-1.44v1.96h-0.57v-5.04h2.17c1.11,0,1.82,0.6,1.82,1.51c0,0.84-0.58,1.33-1.37,1.48
	l1.55,2.06H77.68z M76.33,158.86h-1.56v2.05h1.55c0.76,0,1.3-0.39,1.3-1.04C77.62,159.23,77.15,158.86,76.33,158.86z"/>
<path class="st4" d="M81.9,163.46c-1.53,0-2.56-1.2-2.56-2.6c0-1.4,1.04-2.61,2.58-2.61s2.56,1.2,2.56,2.6
	C84.48,162.24,83.44,163.46,81.9,163.46z M81.9,158.77c-1.15,0-1.97,0.92-1.97,2.07s0.84,2.09,1.99,2.09s1.97-0.92,1.97-2.07
	S83.06,158.77,81.9,158.77z"/>
<path class="st4" d="M88.17,163.46c-1.53,0-2.56-1.2-2.56-2.6c0-1.4,1.04-2.61,2.58-2.61s2.56,1.2,2.56,2.6
	C90.75,162.24,89.7,163.46,88.17,163.46z M88.17,158.77c-1.15,0-1.97,0.92-1.97,2.07s0.84,2.09,1.99,2.09s1.97-0.92,1.97-2.07
	S89.32,158.77,88.17,158.77z"/>
<path class="st4" d="M94.52,161.99h-0.03l-1.84-2.69v4.08H92.1v-5.04h0.58l1.84,2.75l1.84-2.75h0.58v5.04h-0.57v-4.08L94.52,161.99z
	"/>
<path class="st4" d="M284.32,461.16c0,0.66-0.4,1-0.8,1.17c0.6,0.18,1.08,0.53,1.08,1.22c0,0.87-0.73,1.38-1.83,1.38h-2.24v-5.04
	h2.15C283.67,459.9,284.32,460.39,284.32,461.16z M283.75,461.24c0-0.5-0.4-0.83-1.12-0.83h-1.53v1.74h1.49
	C283.27,462.15,283.75,461.84,283.75,461.24z M284.03,463.52c0-0.55-0.46-0.87-1.34-0.87h-1.59v1.78h1.69
	C283.55,464.43,284.03,464.09,284.03,463.52z"/>
<path class="st4" d="M289.52,460.42h-3.08v1.72h2.75v0.52h-2.75v1.76h3.11v0.52h-3.68v-5.04h3.64V460.42z"/>
<path class="st4" d="M292.59,464.94h-1.75v-5.04h1.75c1.58,0,2.68,1.09,2.68,2.51C295.27,463.84,294.18,464.94,292.59,464.94z
	 M292.59,460.43h-1.18v3.99h1.18c1.28,0,2.09-0.86,2.09-1.99C294.68,461.31,293.87,460.43,292.59,460.43z"/>
<path class="st4" d="M300.09,464.94l-1.46-1.96h-1.44v1.96h-0.57v-5.04h2.17c1.11,0,1.82,0.6,1.82,1.51c0,0.84-0.58,1.33-1.37,1.48
	l1.55,2.06H300.09z M298.75,460.43h-1.56v2.04h1.55c0.76,0,1.3-0.39,1.3-1.04C300.04,460.8,299.56,460.43,298.75,460.43z"/>
<path class="st4" d="M304.32,465.03c-1.53,0-2.56-1.2-2.56-2.6s1.04-2.61,2.58-2.61s2.56,1.2,2.56,2.6
	C306.9,463.81,305.85,465.03,304.32,465.03z M304.32,460.34c-1.15,0-1.97,0.92-1.97,2.07s0.84,2.09,1.99,2.09s1.97-0.92,1.97-2.07
	S305.47,460.34,304.32,460.34z"/>
<path class="st4" d="M310.58,465.03c-1.53,0-2.56-1.2-2.56-2.6s1.04-2.61,2.58-2.61s2.56,1.2,2.56,2.6
	C313.16,463.81,312.12,465.03,310.58,465.03z M310.58,460.34c-1.15,0-1.97,0.92-1.97,2.07s0.84,2.09,1.99,2.09s1.97-0.92,1.97-2.07
	S311.74,460.34,310.58,460.34z"/>
<path class="st4" d="M316.93,463.56h-0.03l-1.84-2.69v4.08h-0.55v-5.04h0.58l1.84,2.75l1.84-2.75h0.58v5.04h-0.57v-4.08
	L316.93,463.56z"/>
<path class="st4" d="M100.71,195.47h-0.71l-1.94-2.44l-1.07,1.09v1.35h-0.57v-5.04h0.57v3.01l2.9-3.01h0.73l-2.16,2.2L100.71,195.47
	z"/>
</svg>
