<svg width="248" height="270" viewBox="0 0 248 270" fill="none" xmlns="http://www.w3.org/2000/svg">
<g clip-path="url(#clip0_0_1)">
<path d="M22.8 165.8V165.9H11.3H11.2V165.8V151.4V151.3H11.3H22.8H22.9V151.4V165.8V165.9H22.8V165.8H22.7V151.5H11.4V165.7H22.8V165.8H22.7H22.8Z" fill="#99A4B3"/>
<path d="M22.8 226.3V226.4H11.3L11.2 226.3V211.9V211.8L11.3 211.7H22.8L22.9 211.8V211.9V226.3L22.8 226.4V226.3H22.7V212H11.4V226.1H22.8V226.3H22.7H22.8Z" fill="#99A4B3"/>
<path d="M221.5 168.4V168.2H233L233.1 168.3V168.4V182.8L233 182.9H221.5L221.4 182.8H221.3V168.4L221.4 168.3L221.5 168.2V168.4H221.6V182.6H232.9V168.5H221.5V168.4H221.6H221.5Z" fill="#99A4B3"/>
<path d="M221.5 110.8V110.7H232.9V96.5H221.6V110.8H221.5V110.7V110.8H221.3V96.4L221.4 96.3H221.5H233H233.1V96.4V110.8V110.9H233H221.5H221.4L221.3 110.8H221.5Z" fill="#99A4B3"/>
<path d="M9.90002 61.4H10V117.1H13.5V95.8H12.5V118.8H55.4V95.8H54.4V117.1H65.6L65.7 117.2L65.8 117.3V142.1H66.8V120.7H63.2V150.1V150.2H63.1H10V167.1H68.9L69 167.2V210.4V210.5H68.9H10V227.4H90.5V213.6L90.6 213.5H90.7H94H94.1V213.6V221.9H124.7V190.5H94.1V193.2H115.5V192.1H90.7H90.6L90.5 192V146.1H90.6L90.7 146H92.2V123.2H90.7H90.6L90.5 123.1V120.7H87.2L87.1 120.6V117.3L87.2 117.2V117.1H120.4V114.7L120.5 114.6H145.3V113.6H124V117.1H142.2L142.3 117.2V117.3V185.9H234.3V167H175.4H175.3V166.9V112.2V112.1H175.4H234.3V90.8H210.3L210.2 90.7L210.1 90.6V89.1H188.8V90.6V90.7L188.7 90.8H180.5L169.9 96.9H169.8H169.7L169.1 95.8V95.6L179.8 89.4H179.9L180 89.5L180.4 90.2V87.3V87.2H180.5H182.7V71.6H124V87.2H126.2H126.3V87.3V90.6L136.8 96.6L137.3 95.7L126.8 89.7L126.3 90.7L126.2 90.8H124V93.2H123.9V93.3H120.5L120.4 93.2V90.8H38.7L38.6 90.7L38.5 90.6V86.3H35.1H35L34.9 86.2V85.1H35L35.1 85H38.5V61.5H9.90002V61.4H10H9.90002V61.3H38.7L38.8 61.4V85.1L38.7 85.2V85.3H35.2V86.1H38.7L38.8 86.2V90.5H120.5L120.6 90.6V93H123.7V90.6H123.8L123.9 90.5H126.1L126.7 89.5L126.9 89.4L137.5 95.6V95.7L137 96.9H136.9H136.8L126.1 90.7L126 90.6V87.4H123.9H123.8L123.7 87.3V71.5L123.8 71.4H123.9H182.8H182.9V71.5V87.3V87.4H182.8H180.6V90.6L180.5 90.8L180.4 90.7L179.8 89.7L169.4 95.8L169.9 96.6L180.4 90.5H180.5H188.5V89L188.6 88.9H188.7H210.3L210.4 89V90.5H234.4L234.5 90.6V112.2V112.3H234.4H175.5V166.8H234.4H234.5V166.9V186V186.1H234.4H142.2H142.1V186V117.4H123.9H123.8L123.7 117.3V113.5L123.8 113.4H123.9H145.4H145.5L145.6 113.5V114.7L145.5 114.8L145.4 114.9H120.6V117.3V117.4H120.5H87.4V120.5H90.7L90.8 120.6V123H92.3H92.4V123.1V146.1V146.2L92.3 146.3H90.8V191.9H115.6H115.7V192V193.3V193.4H115.6H94H93.9V193.3V190.4V190.3H94H124.8H124.9L125 190.4V222L124.9 222.1H124.8H94H93.9V222V213.7H90.8V227.6H90.7V227.7H9.90002L9.79999 227.6H9.70001V210.4L9.79999 210.3H9.90002H68.8V167.4H9.90002L9.79999 167.3L9.70001 167.2V150.1L9.79999 150H9.90002H63V120.6V120.5H63.1H66.9H67V120.6V142.2V142.3H66.9H65.6L65.5 142.2V117.4H54.3H54.2V117.3V95.7V95.6H54.3H55.6H55.7V95.7V118.9V119H55.6H12.4H12.3V118.9V95.7V95.6H12.4H13.6H13.7L13.8 95.7V117.3L13.7 117.4H13.6H9.90002H9.79999L9.70001 117.3V61.4L9.79999 61.3H9.90002V61.4Z" fill="#99A4B3"/>
<path d="M140.2 96.8L140.1 96.7L150.8 90.5H155.8H155.9L166.5 96.6L167 95.8L156.5 89.7L155.9 90.7L155.8 90.8L155.7 90.6V87.4H151V90.6L150.9 90.8L150.7 90.7L150.2 89.7L139.7 95.8L140.3 96.7L140.2 96.8L140.1 96.7L140.2 96.8L140.1 96.9L139.4 95.8L139.5 95.6L150.2 89.4L150.3 89.5L150.7 90.2V87.3L150.8 87.2H155.8H155.9L156 87.3V90.2L156.4 89.5L156.5 89.4L167.2 95.6L167.3 95.7V95.8L166.6 96.9H166.5L155.8 90.8H150.9L140.2 96.9H140.1L140.2 96.8Z" fill="#99A4B3"/>
<path d="M12.5 227.6V226.3L12.7 226.1L12.8 226.3V227.6L12.7 227.7L12.5 227.6Z" fill="#99A4B3"/>
<path d="M12.5 95.7V61.4L12.7 61.3L12.8 61.4V95.7L12.7 95.8L12.5 95.7Z" fill="#99A4B3"/>
<path d="M12.5 211.9V210.4L12.7 210.3L12.8 210.4V211.9L12.7 212L12.5 211.9Z" fill="#99A4B3"/>
<path d="M12.5 118.9V117.3L12.7 117.1L12.8 117.3V118.9L12.7 119L12.5 118.9Z" fill="#99A4B3"/>
<path d="M12.5 167.2V165.8L12.7 165.7L12.8 165.8V167.2L12.7 167.4L12.5 167.2Z" fill="#99A4B3"/>
<path d="M12.5 151.4V150.1L12.7 150L12.8 150.1V151.4L12.7 151.5L12.5 151.4Z" fill="#99A4B3"/>
<path d="M17.9 227.6V226.3L18.1 226.1L18.2 226.3V227.6L18.1 227.7L17.9 227.6Z" fill="#99A4B3"/>
<path d="M17.9 118.9V61.4L18.1 61.3L18.2 61.4V118.9L18.1 119L17.9 118.9Z" fill="#99A4B3"/>
<path d="M17.9 211.9V210.4L18.1 210.3L18.2 210.4V211.9L18.1 212L17.9 211.9Z" fill="#99A4B3"/>
<path d="M17.9 151.4V150.1L18.1 150L18.2 150.1V151.4L18.1 151.5L17.9 151.4Z" fill="#99A4B3"/>
<path d="M17.9 167.2V165.8L18.1 165.7L18.2 165.8V167.2L18.1 167.4L17.9 167.2Z" fill="#99A4B3"/>
<path d="M23.3 227.6V210.4L23.5 210.3L23.6 210.4V227.6L23.5 227.7L23.3 227.6Z" fill="#99A4B3"/>
<path d="M23.3 118.9V61.4L23.5 61.3L23.6 61.4V118.9L23.5 119L23.3 118.9Z" fill="#99A4B3"/>
<path d="M23.3 167.2V150.1L23.5 150L23.6 150.1V167.2L23.5 167.4L23.3 167.2Z" fill="#99A4B3"/>
<path d="M28.7 227.6V210.4L28.9 210.3L29 210.4V227.6L28.9 227.7L28.7 227.6Z" fill="#99A4B3"/>
<path d="M28.7 118.9V61.4L28.9 61.3L29 61.4V118.9L28.9 119L28.7 118.9Z" fill="#99A4B3"/>
<path d="M28.7 167.2V150.1L28.9 150L29 150.1V167.2L28.9 167.4L28.7 167.2Z" fill="#99A4B3"/>
<path d="M34.1 227.6V210.4L34.2 210.3L34.4 210.4V227.6L34.2 227.7L34.1 227.6Z" fill="#99A4B3"/>
<path d="M34.1 118.9V61.4L34.2 61.3L34.4 61.4V118.9L34.2 119L34.1 118.9Z" fill="#99A4B3"/>
<path d="M34.1 167.2V150.1L34.2 150L34.4 150.1V167.2L34.2 167.4L34.1 167.2Z" fill="#99A4B3"/>
<path d="M39.5 227.6V210.4L39.6 210.3L39.8 210.4V227.6L39.6 227.7L39.5 227.6Z" fill="#99A4B3"/>
<path d="M39.5 118.9V90.6L39.6 90.5L39.8 90.6V118.9L39.6 119L39.5 118.9Z" fill="#99A4B3"/>
<path d="M39.5 167.2V150.1L39.6 150L39.8 150.1V167.2L39.6 167.4L39.5 167.2Z" fill="#99A4B3"/>
<path d="M44.9 227.6V210.4L45 210.3L45.2 210.4V227.6L45 227.7L44.9 227.6Z" fill="#99A4B3"/>
<path d="M44.9 118.9V90.6L45 90.5L45.2 90.6V118.9L45 119L44.9 118.9Z" fill="#99A4B3"/>
<path d="M44.9 167.2V150.1L45 150L45.2 150.1V167.2L45 167.4L44.9 167.2Z" fill="#99A4B3"/>
<path d="M50.3 227.6V210.4L50.4 210.3L50.6 210.4V227.6L50.4 227.7L50.3 227.6Z" fill="#99A4B3"/>
<path d="M50.3 118.9V90.6L50.4 90.5L50.6 90.6V118.9L50.4 119L50.3 118.9Z" fill="#99A4B3"/>
<path d="M50.3 167.2V150.1L50.4 150L50.6 150.1V167.2L50.4 167.4L50.3 167.2Z" fill="#99A4B3"/>
<path d="M55.7 227.6V210.4L55.8 210.3L56 210.4V227.6L55.8 227.7L55.7 227.6Z" fill="#99A4B3"/>
<path d="M55.7 117.3V90.6L55.8 90.5L56 90.6V117.3L55.8 117.4L55.7 117.3Z" fill="#99A4B3"/>
<path d="M55.7 167.2V150.1L55.8 150L56 150.1V167.2L55.8 167.4L55.7 167.2Z" fill="#99A4B3"/>
<path d="M61.1 227.6V210.4L61.2 210.3L61.4 210.4V227.6L61.2 227.7L61.1 227.6Z" fill="#99A4B3"/>
<path d="M61.1 117.3V90.6L61.2 90.5L61.4 90.6V117.3L61.2 117.4L61.1 117.3Z" fill="#99A4B3"/>
<path d="M61.1 167.2V150.1L61.2 150L61.4 150.1V167.2L61.2 167.4L61.1 167.2Z" fill="#99A4B3"/>
<path d="M66.5 227.6V210.4L66.6 210.3L66.8 210.4V227.6L66.6 227.7L66.5 227.6Z" fill="#99A4B3"/>
<path d="M66.5 120.6V90.6L66.6 90.5L66.8 90.6V120.6L66.6 120.7L66.5 120.6Z" fill="#99A4B3"/>
<path d="M66.5 167.2V142.2L66.6 142.1L66.8 142.2V167.2L66.6 167.4L66.5 167.2Z" fill="#99A4B3"/>
<path d="M71.9 227.6V90.6L72 90.5L72.2 90.6V227.6L72 227.7L71.9 227.6Z" fill="#99A4B3"/>
<path d="M77.3 227.6V90.6L77.4 90.5L77.6 90.6V227.6L77.4 227.7L77.3 227.6Z" fill="#99A4B3"/>
<path d="M82.7 227.6V90.6L82.8 90.5L82.9 90.6V227.6L82.8 227.7L82.7 227.6Z" fill="#99A4B3"/>
<path d="M88.1 227.6V120.6L88.2 120.5L88.3 120.6V227.6L88.2 227.7L88.1 227.6Z" fill="#99A4B3"/>
<path d="M88.1 117.3V90.6L88.2 90.5L88.3 90.6V117.3L88.2 117.4L88.1 117.3Z" fill="#99A4B3"/>
<path d="M93.5 213.6V192L93.6 191.9L93.7 192V213.6L93.6 213.7L93.5 213.6Z" fill="#99A4B3"/>
<path d="M93.5 117.3V90.6L93.6 90.5L93.7 90.6V117.3L93.6 117.4L93.5 117.3Z" fill="#99A4B3"/>
<path d="M98.9 222V193.3L99 193.2L99.1 193.3V222L99 222.1L98.9 222Z" fill="#99A4B3"/>
<path d="M98.9 117.3V90.6L99 90.5L99.1 90.6V117.3L99 117.4L98.9 117.3Z" fill="#99A4B3"/>
<path d="M98.9 192V190.4L99 190.3L99.1 190.4V192L99 192.1L98.9 192Z" fill="#99A4B3"/>
<path d="M104.3 222V193.3L104.4 193.2L104.5 193.3V222L104.4 222.1L104.3 222Z" fill="#99A4B3"/>
<path d="M104.3 117.3V90.6L104.4 90.5L104.5 90.6V117.3L104.4 117.4L104.3 117.3Z" fill="#99A4B3"/>
<path d="M104.3 192V190.4L104.4 190.3L104.5 190.4V192L104.4 192.1L104.3 192Z" fill="#99A4B3"/>
<path d="M109.7 222V193.3L109.8 193.2L109.9 193.3V222L109.8 222.1L109.7 222Z" fill="#99A4B3"/>
<path d="M109.7 117.3V90.6L109.8 90.5L109.9 90.6V117.3L109.8 117.4L109.7 117.3Z" fill="#99A4B3"/>
<path d="M109.7 192V190.4L109.8 190.3L109.9 190.4V192L109.8 192.1L109.7 192Z" fill="#99A4B3"/>
<path d="M115.1 222V193.3L115.2 193.2L115.3 193.3V222L115.2 222.1L115.1 222Z" fill="#99A4B3"/>
<path d="M115.1 117.3V90.6L115.2 90.5L115.3 90.6V117.3L115.2 117.4L115.1 117.3Z" fill="#99A4B3"/>
<path d="M115.1 192V190.4L115.2 190.3L115.3 190.4V192L115.2 192.1L115.1 192Z" fill="#99A4B3"/>
<path d="M120.5 222V190.4L120.6 190.3L120.7 190.4V222L120.6 222.1L120.5 222Z" fill="#99A4B3"/>
<path d="M120.5 114.7V93.2L120.6 93L120.7 93.2V114.7L120.6 114.9L120.5 114.7Z" fill="#99A4B3"/>
<path d="M125.9 117.3V114.7L126 114.6L126.1 114.7V117.3L126 117.4L125.9 117.3Z" fill="#99A4B3"/>
<path d="M125.9 87.3V71.5L126 71.4L126.1 71.5V87.3L126 87.4L125.9 87.3Z" fill="#99A4B3"/>
<path d="M125.9 113.5V90.6L126 90.5L126.1 90.6V113.5L126 113.6L125.9 113.5Z" fill="#99A4B3"/>
<path d="M131.3 117.3V114.7L131.4 114.6L131.5 114.7V117.3L131.4 117.4L131.3 117.3Z" fill="#99A4B3"/>
<path d="M131.3 92.2V71.5L131.4 71.4L131.5 71.5V92.2L131.4 92.3L131.3 92.2Z" fill="#99A4B3"/>
<path d="M131.3 113.5V93.7L131.4 93.5L131.5 93.7V113.5L131.4 113.6L131.3 113.5Z" fill="#99A4B3"/>
<path d="M136.7 117.3V114.7L136.8 114.6L136.9 114.7V117.3L136.8 117.4L136.7 117.3Z" fill="#99A4B3"/>
<path d="M136.7 95.3V71.5L136.8 71.4L136.9 71.5V95.3L136.8 95.4L136.7 95.3Z" fill="#99A4B3"/>
<path d="M136.7 113.5V96.8L136.8 96.7L136.9 96.8V113.5L136.8 113.6L136.7 113.5Z" fill="#99A4B3"/>
<path d="M142.1 94.2V71.5L142.2 71.4L142.3 71.5V94.2L142.2 94.3L142.1 94.2Z" fill="#99A4B3"/>
<path d="M142.1 117.3V114.7L142.2 114.6L142.3 114.7V117.3L142.2 117.4L142.1 117.3Z" fill="#99A4B3"/>
<path d="M142.1 113.5V95.6L142.2 95.5L142.3 95.6V113.5L142.2 113.6L142.1 113.5Z" fill="#99A4B3"/>
<path d="M147.5 186V92.5L147.6 92.4L147.7 92.5V186L147.6 186.1L147.5 186Z" fill="#99A4B3"/>
<path d="M147.5 91.1V71.5L147.6 71.4L147.7 71.5V91.1L147.6 91.2L147.5 91.1Z" fill="#99A4B3"/>
<path d="M152.9 186V90.6L153 90.5L153.1 90.6V186L153 186.1L152.9 186Z" fill="#99A4B3"/>
<path d="M152.9 87.3V71.5L153 71.4L153.1 71.5V87.3L153 87.4L152.9 87.3Z" fill="#99A4B3"/>
<path d="M158.3 186V92.1L158.4 92L158.5 92.1V186L158.4 186.1L158.3 186Z" fill="#99A4B3"/>
<path d="M158.3 90.7V71.5L158.4 71.4L158.5 71.5V90.7L158.4 90.8L158.3 90.7Z" fill="#99A4B3"/>
<path d="M163.7 186V95.2L163.8 95.1L163.9 95.2V186L163.8 186.1L163.7 186Z" fill="#99A4B3"/>
<path d="M163.7 93.8V71.5L163.8 71.4L163.9 71.5V93.8L163.8 93.9L163.7 93.8Z" fill="#99A4B3"/>
<path d="M169.1 186V95.7L169.2 95.6L169.3 95.7V186L169.2 186.1L169.1 186Z" fill="#99A4B3"/>
<path d="M169.1 95.7V71.5L169.2 71.4L169.3 71.5V95.7L169.2 95.8L169.1 95.7Z" fill="#99A4B3"/>
<path d="M174.5 186V94L174.6 93.9L174.7 94V186L174.6 186.1L174.5 186Z" fill="#99A4B3"/>
<path d="M174.5 92.6V71.5L174.6 71.4L174.7 71.5V92.6L174.6 92.7L174.5 92.6Z" fill="#99A4B3"/>
<path d="M179.9 186V166.9L180 166.8L180.1 166.9V186L180 186.1L179.9 186Z" fill="#99A4B3"/>
<path d="M179.9 89.7V71.5L180 71.4L180.1 71.5V89.7L180 89.9L179.9 89.7Z" fill="#99A4B3"/>
<path d="M179.9 112.2V90.9L180 90.8L180.1 90.9V112.2L180 112.3L179.9 112.2Z" fill="#99A4B3"/>
<path d="M185.3 186V166.9L185.4 166.8L185.5 166.9V186L185.4 186.1L185.3 186Z" fill="#99A4B3"/>
<path d="M185.3 112.2V90.6L185.4 90.5L185.5 90.6V112.2L185.4 112.3L185.3 112.2Z" fill="#99A4B3"/>
<path d="M190.7 186V166.9L190.8 166.8L190.9 166.9V186L190.8 186.1L190.7 186Z" fill="#99A4B3"/>
<path d="M190.7 112.2V89L190.8 88.9L190.9 89V112.2L190.8 112.3L190.7 112.2Z" fill="#99A4B3"/>
<path d="M196.1 186V166.9L196.2 166.8L196.3 166.9V186L196.2 186.1L196.1 186Z" fill="#99A4B3"/>
<path d="M196.1 112.2V89L196.2 88.9L196.3 89V112.2L196.2 112.3L196.1 112.2Z" fill="#99A4B3"/>
<path d="M201.5 186V166.9L201.6 166.8L201.7 166.9V186L201.6 186.1L201.5 186Z" fill="#99A4B3"/>
<path d="M201.5 112.2V89L201.6 88.9L201.7 89V112.2L201.6 112.3L201.5 112.2Z" fill="#99A4B3"/>
<path d="M206.9 186V166.9L207 166.8L207.1 166.9V186L207 186.1L206.9 186Z" fill="#99A4B3"/>
<path d="M206.9 112.2V89L207 88.9L207.1 89V112.2L207 112.3L206.9 112.2Z" fill="#99A4B3"/>
<path d="M212.3 186V166.9L212.4 166.8L212.5 166.9V186L212.4 186.1L212.3 186Z" fill="#99A4B3"/>
<path d="M212.3 112.2V90.6L212.4 90.5L212.5 90.6V112.2L212.4 112.3L212.3 112.2Z" fill="#99A4B3"/>
<path d="M217.7 186V166.9L217.8 166.8L217.9 166.9V186L217.8 186.1L217.7 186Z" fill="#99A4B3"/>
<path d="M217.7 112.2V90.6L217.8 90.5L217.9 90.6V112.2L217.8 112.3L217.7 112.2Z" fill="#99A4B3"/>
<path d="M223.1 186V182.8L223.2 182.6L223.3 182.8V186L223.2 186.1L223.1 186Z" fill="#99A4B3"/>
<path d="M223.1 96.4V90.6L223.2 90.5L223.3 90.6V96.4L223.2 96.5L223.1 96.4Z" fill="#99A4B3"/>
<path d="M223.1 168.4V166.9L223.2 166.8L223.3 166.9V168.4L223.2 168.5L223.1 168.4Z" fill="#99A4B3"/>
<path d="M223.1 112.2V110.8L223.2 110.7L223.3 110.8V112.2L223.2 112.3L223.1 112.2Z" fill="#99A4B3"/>
<path d="M228.5 186V182.8L228.6 182.6L228.7 182.8V186L228.6 186.1L228.5 186Z" fill="#99A4B3"/>
<path d="M228.5 96.4V90.6L228.6 90.5L228.7 90.6V96.4L228.6 96.5L228.5 96.4Z" fill="#99A4B3"/>
<path d="M228.5 168.4V166.9L228.6 166.8L228.7 166.9V168.4L228.6 168.5L228.5 168.4Z" fill="#99A4B3"/>
<path d="M228.5 112.2V110.8L228.6 110.7L228.7 110.8V112.2L228.6 112.3L228.5 112.2Z" fill="#99A4B3"/>
<path d="M233.9 186V166.9L234 166.8L234.1 166.9V186L234 186.1L233.9 186Z" fill="#99A4B3"/>
<path d="M233.9 112.2V90.6L234 90.5L234.1 90.6V112.2L234 112.3L233.9 112.2Z" fill="#99A4B3"/>
<path d="M184 25.2H184.1V28.7L193 44V44.1L192.9 44.2L192.5 44.4H192.3L184.1 30.2V57.9H186.2V58L186.3 58.1V87.2H188.5V65.7L188.6 65.6H188.7H189.9H190V65.7V87.3V87.4H189.9H188.8V88.9H210.1V87.3L210.2 87.2H210.3H218.1V47.4V47.3L218.2 47.2H234.3V25.3H184V25.2H184.1H184V25.1H234.4H234.5V25.2V47.4L234.4 47.5H218.3V87.3V87.4H218.2H210.4V89L210.3 89.1H188.7H188.6L188.5 89V87.3L188.6 87.2H188.7H189.8V65.8H188.8V87.3V87.4H188.7H186.2H186.1L186 87.3V58.2H184H183.9V58.1V29.8L184 29.7H184.1L192.4 44.2L192.7 44L183.9 28.8V28.7V25.2V25.1H184V25.2Z" fill="#99A4B3"/>
<path d="M94 162.3V162.2H137V141.2H121H120.9V141.1V120.7H94.1V124.3H116.9V123.2H92.4V146H94L94.1 146.1V162.3H94V162.2V162.3H93.9V146.3H92.3L92.2 146.2V146.1V123.1V123H92.3H117H117.1V123.1V124.4V124.5H117H94H93.9V124.4V120.6V120.5H94H121H121.1V120.6V141H137.2H137.3V141.1V162.3V162.4L137.2 162.5H94L93.9 162.4V162.3H94Z" fill="#99A4B3"/>
<path d="M233.8 31.9H233.7L233.6 31.7L231.5 31.3H231.4C231.2 31.3 231.1 31.3 231 31.4C230.7 31.6 230.4 31.9 230.2 32.2L230.1 32.3C227.8 32.2 225.5 31.9 223.2 31.4C222.5 31.2 221.8 31.2 221 31.2C220 31.2 219.1 31.3 218.2 31.6C217.4 31.8 216.7 32.2 216 32.7C215.4 33.2 214.8 33.8 214.4 34.4C214.1 35 213.9 35.6 213.9 36.2C213.9 36.8 214.1 37.5 214.4 38C214.8 38.7 215.3 39.3 216 39.7C216.7 40.2 217.4 40.5 218.2 40.8C219.1 41.1 220.1 41.2 221 41.2C221.7 41.2 222.5 41.1 223.2 41C225.5 40.6 227.8 40.3 230.1 40.1L230.2 40.2C230.4 40.5 230.7 40.8 231 41C231.1 41.1 231.3 41.1 231.4 41.1H231.5L233.6 40.7L233.7 40.5V31.8H233.8H233.9V40.5C233.9 40.7 233.8 40.9 233.6 40.9L231.5 41.3H231.3C231.1 41.3 230.9 41.2 230.7 41.1C230.4 40.9 230.1 40.6 229.8 40.2L229.9 40.1V40.2C227.6 40.3 225.3 40.6 223.1 41.1C222.4 41.3 221.6 41.3 220.9 41.3C219.9 41.3 219 41.2 218 40.9C217.2 40.7 216.4 40.3 215.7 39.8C215 39.3 214.5 38.7 214.1 38C213.8 37.4 213.6 36.7 213.6 36.1C213.6 35.4 213.8 34.7 214.1 34.2C214.5 33.5 215.1 32.9 215.7 32.4C216.4 31.9 217.2 31.5 218 31.3C218.9 31 219.9 30.9 220.9 30.9C221.7 30.9 222.4 31 223.1 31.2C225.4 31.6 227.6 31.9 229.9 32.1V32.2L229.8 32.1C230 31.8 230.3 31.5 230.7 31.2C230.9 31.1 231.1 31 231.3 31H231.5L233.6 31.4C233.8 31.4 233.9 31.6 233.9 31.8H233.8V31.9Z" fill="#99A4B3"/>
<path d="M136.6 147.4H136.5L136.4 147.2L134.3 146.8H134.2C134 146.8 133.9 146.8 133.8 146.9C133.5 147.1 133.2 147.4 133 147.7L132.9 147.8C130.6 147.7 128.3 147.4 126 146.9C125.3 146.7 124.6 146.7 123.8 146.7C122.8 146.7 121.9 146.8 121 147.1C120.2 147.3 119.5 147.7 118.8 148.2C118.2 148.7 117.6 149.3 117.2 149.9C116.9 150.5 116.7 151.1 116.7 151.7C116.7 152.3 116.9 153 117.2 153.5C117.6 154.2 118.1 154.8 118.8 155.2C119.5 155.7 120.2 156 121 156.3C121.9 156.6 122.9 156.7 123.8 156.7C124.5 156.7 125.3 156.6 126 156.5C128.3 156.1 130.6 155.8 132.9 155.6L133 155.7C133.2 156 133.5 156.3 133.8 156.5C133.9 156.6 134.1 156.6 134.2 156.6H134.3L136.4 156.2L136.5 156V147.3H136.6H136.7V156C136.7 156.2 136.6 156.4 136.4 156.4L134.3 156.8H134.1C133.9 156.8 133.7 156.7 133.5 156.6C133.2 156.4 132.9 156.1 132.6 155.7L132.7 155.6V155.7C130.4 155.8 128.1 156.1 125.9 156.6C125.2 156.8 124.4 156.9 123.7 156.9C122.7 156.9 121.8 156.8 120.8 156.5C120 156.3 119.2 155.9 118.5 155.4C117.8 154.9 117.3 154.3 116.9 153.6C116.6 153 116.4 152.3 116.4 151.7C116.4 151 116.6 150.3 116.9 149.8C117.3 149.1 117.9 148.5 118.5 148C119.2 147.5 120 147.1 120.8 146.9C121.7 146.6 122.7 146.5 123.7 146.5C124.5 146.5 125.2 146.6 125.9 146.7C128.2 147.1 130.4 147.4 132.7 147.6V147.7L132.6 147.6C132.8 147.3 133.1 147 133.5 146.7C133.7 146.6 133.9 146.5 134.1 146.5H134.3L136.4 146.9C136.6 146.9 136.7 147.1 136.7 147.3H136.6V147.4Z" fill="#99A4B3"/>
<path d="M58.1 120.6V120.7H55.6H55.5L55.4 120.6V119H12.5V120.6V120.7H12.4H10V125.1H13.8V124L13.9 123.9H33.3L33.4 124V125.1H34.6V124H34.7L34.8 123.9H54.2L54.3 124V125.1H58V120.6H58.1V120.7V120.6H58.2V125.2V125.3H58.1H54.2H54.1V125.2V124.2H34.9V125.2L34.8 125.3H33.3H33.2V125.2V124.2H14V125.2V125.3H13.9H9.90002H9.79999L9.70001 125.2V120.6L9.79999 120.5H9.90002H12.3V118.9V118.8H12.4H55.6H55.7V118.9V120.5H58.1H58.2V120.6H58.1Z" fill="#99A4B3"/>
<path d="M42.8 118.9V124L42.7 124.2L42.6 124V118.9L42.7 118.8L42.8 118.9Z" fill="#99A4B3"/>
<path d="M25.5 118.9V124L25.4 124.2L25.3 124V118.9L25.4 118.8L25.5 118.9Z" fill="#99A4B3"/>
<path d="M100.8 162.3V124.4L101 124.3L101.1 124.4V162.3L101 162.5L100.8 162.3Z" fill="#99A4B3"/>
<path d="M100.8 123.1V120.6L101 120.5L101.1 120.6V123.1L101 123.2L100.8 123.1Z" fill="#99A4B3"/>
<path d="M109.5 162.3V124.4L109.6 124.3L109.7 124.4V162.3L109.6 162.5L109.5 162.3Z" fill="#99A4B3"/>
<path d="M109.5 123.1V120.6L109.6 120.5L109.7 120.6V123.1L109.6 123.2L109.5 123.1Z" fill="#99A4B3"/>
<path d="M118.1 162.3V155.1L118.2 155L118.4 155.1V162.3L118.2 162.5L118.1 162.3Z" fill="#99A4B3"/>
<path d="M118.1 148.3V120.6L118.2 120.5L118.4 120.6V148.3L118.2 148.5L118.1 148.3Z" fill="#99A4B3"/>
<path d="M126.7 162.3V156.5L126.9 156.3L127 156.5V162.3L126.9 162.5L126.7 162.3Z" fill="#99A4B3"/>
<path d="M126.7 147V141.1L126.9 141L127 141.1V147L126.9 147.1L126.7 147Z" fill="#99A4B3"/>
<path d="M135.4 162.3V156.5L135.5 156.4L135.6 156.5V162.3L135.5 162.5L135.4 162.3Z" fill="#99A4B3"/>
<path d="M135.4 146.9V141.1L135.5 141L135.6 141.1V146.9L135.5 147.1L135.4 146.9Z" fill="#99A4B3"/>
<path d="M137.2 155.3H136.6L136.5 155.1L136.6 155H137.2L137.3 155.1L137.2 155.3Z" fill="#99A4B3"/>
<path d="M118.3 155.3H94L93.9 155.1L94 155H118.3L118.4 155.1L118.3 155.3Z" fill="#99A4B3"/>
<path d="M121 138H92.3L92.2 137.9L92.3 137.7H121L121.1 137.9L121 138Z" fill="#99A4B3"/>
<path d="M192.5 89V44.2L192.6 44.1L192.7 44.2V89L192.6 89.1L192.5 89Z" fill="#99A4B3"/>
<path d="M192.5 43.7V25.2L192.6 25.1L192.7 25.2V43.7L192.6 43.8L192.5 43.7Z" fill="#99A4B3"/>
<path d="M201.1 89V25.2L201.3 25.1L201.4 25.2V89L201.3 89.1L201.1 89Z" fill="#99A4B3"/>
<path d="M209.8 89V25.2L209.9 25.1L210 25.2V89L209.9 89.1L209.8 89Z" fill="#99A4B3"/>
<path d="M218.4 47.4V41.2L218.5 41L218.7 41.2V47.4L218.5 47.5L218.4 47.4Z" fill="#99A4B3"/>
<path d="M218.4 31.4V25.2L218.5 25.1L218.7 25.2V31.4L218.5 31.5L218.4 31.4Z" fill="#99A4B3"/>
<path d="M227 47.4V40.6L227.2 40.5L227.3 40.6V47.4L227.2 47.5L227 47.4Z" fill="#99A4B3"/>
<path d="M227 32V25.2L227.2 25.1L227.3 25.2V32L227.2 32.1L227 32Z" fill="#99A4B3"/>
<path d="M218.2 71.8H189.9L189.8 71.7L189.9 71.6H218.2L218.3 71.7L218.2 71.8Z" fill="#99A4B3"/>
<path d="M188.7 71.8H186.2L186 71.7L186.2 71.6H188.7L188.8 71.7L188.7 71.8Z" fill="#99A4B3"/>
<path d="M218.2 54.5H184L183.9 54.4L184 54.3H218.2L218.3 54.4L218.2 54.5Z" fill="#99A4B3"/>
<path d="M234.4 37.3H233.8L233.7 37.2L233.8 37H234.4L234.5 37.2L234.4 37.3Z" fill="#99A4B3"/>
<path d="M188.2 37.3H184L183.9 37.2L184 37H188.2L188.4 37.2L188.2 37.3Z" fill="#99A4B3"/>
<path d="M213.8 37.3H188.9L188.8 37.2L188.9 37H213.8L213.9 37.2L213.8 37.3Z" fill="#99A4B3"/>
<path fill-rule="evenodd" clip-rule="evenodd" d="M3.40002 264H14.9V231.6H15.6V227.6H9.90002V150.1H63.1V120.6H65.6V117.3H55.6V120.6H58.1V146.8H9.90002V120.6H12.4V117.3H9.90002V61.4H18.9V57.3H18.1V54.1H14.9V5.29999H3.40002V264Z" fill="#22576F"/>
<path fill-rule="evenodd" clip-rule="evenodd" d="M90.5 234.8V231.6H89.9V227.6H90.7V213.6H94V227.6H112.1V222H134.9V190.4H94V192H90.7V146.1H94V185.4H137.2V120.6H94V123.1H90.7V120.6H87.2V117.3H120.5V114.7H123.9V117.3H142.2V234.8H90.5Z" fill="#22576F"/>
<path fill-rule="evenodd" clip-rule="evenodd" d="M213.3 25.2H139.3V58.1H186.2V87.3H188.7V90.6H180.5V87.3H182.8V61.4H123.9V87.3H126.2V90.6H123.9V93.2H120.5V61.4H40.8V57.3H41.5V54.1H131V16.9H213.3V25.2Z" fill="#22576F"/>
<path fill-rule="evenodd" clip-rule="evenodd" d="M233.2 16.9H236.6V5.29999H243.1V264H236.6V193.3H233.3V190H232.6V186H234.4V90.6H210.3V87.3H234.4V25.2H233.2V16.9Z" fill="#22576F"/>
<path d="M155.8 87.3H150.8V90.6H155.8V87.3Z" fill="#22576F"/>
<path d="M169.7 186.1H142.2L142.1 186L142.2 185.9H169.7L169.9 186L169.7 186.1Z" fill="#22576F"/>
<path d="M169.7 193.4H142.2L142.1 193.3L142.2 193.2H169.7L169.9 193.3L169.7 193.4Z" fill="#22576F"/>
<path d="M92 85.3H35.2V86.1H92.3L92.5 86.2L92.3 86.4H35.1L35 86.3L34.9 86.2V85.1H35L35.1 85H92L92.1 85.1L92 85.3Z" fill="#22576F"/>
<path d="M233.2 25.3H213.3L213.2 25.2L213.3 25.1H233.2L233.3 25.2L233.2 25.3Z" fill="#22576F"/>
<path d="M233.2 22.1H213.3L213.2 22L213.3 21.8H233.2L233.3 22L233.2 22.1Z" fill="#22576F"/>
<path d="M127.6 222V219.8L127.7 219.7L127.8 219.8V222L127.7 222.1L127.6 222Z" fill="#22576F"/>
<path d="M127.6 198.8V194.6L127.7 194.5L127.8 194.6V198.8L127.7 198.9L127.6 198.8ZM127.6 205.1V200.9L127.7 200.8L127.8 200.9V205.1L127.7 205.2L127.6 205.1ZM127.6 211.4V207.2L127.7 207.1L127.8 207.2V211.4L127.7 211.5L127.6 211.4ZM127.6 217.7V213.5L127.7 213.4L127.8 213.5V217.7L127.7 217.8L127.6 217.7Z" fill="#22576F"/>
<path d="M127.6 192.5V190.4L127.7 190.3L127.8 190.4V192.5L127.7 192.7L127.6 192.5Z" fill="#22576F"/>
<path d="M171.3 68.7H169.2L169 68.6L169.2 68.5H171.3L171.4 68.6L171.3 68.7Z" fill="#22576F"/>
<path d="M132.8 68.7H128.3L128.2 68.6L128.3 68.5H132.8L132.9 68.6L132.8 68.7ZM139.6 68.7H135.1L135 68.6L135.1 68.5H139.6L139.7 68.6L139.6 68.7ZM146.4 68.7H141.9L141.8 68.6L141.9 68.5H146.4L146.5 68.6L146.4 68.7ZM153.3 68.7H148.8L148.7 68.6L148.8 68.5H153.3L153.4 68.6L153.3 68.7ZM160.1 68.7H155.6L155.5 68.6L155.6 68.5H160.1L160.2 68.6L160.1 68.7ZM166.9 68.7H162.4L162.3 68.6L162.4 68.5H166.9L167 68.6L166.9 68.7Z" fill="#22576F"/>
<path d="M126 68.7H123.9L123.7 68.6L123.9 68.5H126L126.1 68.6L126 68.7Z" fill="#22576F"/>
<path d="M41.5 57.5H18.1L18 57.3L18.1 57.2H41.5L41.7 57.3L41.5 57.5Z" fill="#22576F"/>
<path d="M41.5 54.2H18.1L18 54.1L18.1 54H41.5L41.7 54.1L41.5 54.2Z" fill="#22576F"/>
<path d="M14.9 231.5H90.5L90.6 231.6L90.5 231.7H14.9L14.8 231.6L14.9 231.5Z" fill="#22576F"/>
<path d="M14.9 234.7H90.5L90.6 234.8L90.5 235H14.9L14.8 234.8L14.9 234.7Z" fill="#22576F"/>
<path d="M169.7 189.9H233.3L233.5 190L233.3 190.2H169.7L169.6 190L169.7 189.9Z" fill="#22576F"/>
<path d="M169.7 193.2H233.3L233.5 193.3L233.3 193.4H169.7L169.6 193.3L169.7 193.2Z" fill="#22576F"/>
<path d="M139.8 237V236.9H141.9H142L142.1 237V244.3H234.4L234.5 244.4V246.6V246.7H234.4H139.8H139.7V246.6V237V236.9H139.8V237H139.9V246.5H234.3V244.6H141.9L141.8 244.5V244.4V237.1H139.8V237H139.9H139.8Z" fill="#22576F"/>
<path d="M143.6 193.3V193.4H142.2H142.1V193.3V190L142.2 189.9H143.6L143.7 190H143.8V193.3L143.7 193.4H143.6V193.3H143.5V190.2H142.3V193.2H143.6V193.3H143.5H143.6Z" fill="#22576F"/>
<path d="M169.9 186V190L169.7 190.2L169.6 190V186L169.7 185.9L169.9 186Z" fill="#22576F"/>
<path d="M168.3 90.6C168.3 92.7 168.9 94.8 169.9 96.7V96.9H169.7C168.6 95 168 92.9 168 90.7L168.1 90.6H168.3Z" fill="#22576F"/>
<path d="M166.4 96.7C167.5 94.8 168 92.7 168 90.6L168.1 90.5L168.2 90.6C168.2 92.8 167.6 94.9 166.5 96.8H166.3L166.4 96.7Z" fill="#22576F"/>
<path d="M180.5 90.6L180.6 90.7L169.9 96.9H169.8H169.7L169.1 95.8V95.6L179.8 89.4H179.9L180 89.5L180.6 90.6V90.7L180.5 90.6L180.4 90.7L179.8 89.7L169.4 95.8L169.9 96.6L180.4 90.5L180.5 90.6L180.4 90.7L180.5 90.6Z" fill="#22576F"/>
<path d="M155.8 90.6L155.9 90.5L166.5 96.6L167 95.8L156.5 89.7L155.9 90.7L155.8 90.6L155.9 90.5L155.8 90.6H155.7L156.4 89.5V89.4H156.5L167.2 95.6L167.3 95.8L166.6 96.9H166.5L155.8 90.7L155.7 90.6H155.8Z" fill="#22576F"/>
<path d="M94 123.1V123H117H117.1V123.1V124.4V124.5H117H94H93.9V124.4V123.1V123H94V123.1H94.1V124.2H116.9V123.2H94V123.1H94.1H94Z" fill="#22576F"/>
<path d="M94 146C100.3 146 106.1 143.4 110.2 139.3C114.3 135.2 116.9 129.4 116.9 123.1L117 123L117.1 123.1C117.1 135.9 106.7 146.3 93.9 146.3L93.8 146.2L94 146Z" fill="#22576F"/>
<path d="M94 192V191.9H115.6H115.7V192V193.3V193.4H115.6H94H93.9V193.3V192V191.9H94V192H94.1V193.2H115.5V192.2H94V192H94.1H94Z" fill="#22576F"/>
<path d="M94 213.5C99.9 213.5 105.3 211.1 109.2 207.2C113.1 203.3 115.5 197.9 115.5 192L115.6 191.9L115.7 192C115.7 204 106 213.7 94 213.7L93.9 213.6L94 213.5Z" fill="#22576F"/>
<path d="M188.7 65.7V65.6H189.9H190L190.1 65.7V87.3L190 87.4H189.9H188.7H188.6L188.5 87.3V65.7L188.6 65.6H188.7V65.7H188.8V87.2H189.8V65.8H188.7V65.7H188.8H188.7Z" fill="#22576F"/>
<path d="M210.1 87.3C210.1 81.4 207.7 76 203.8 72.1C199.9 68.2 194.5 65.8 188.6 65.8L188.5 65.7L188.6 65.6C200.6 65.6 210.3 75.3 210.3 87.3L210.2 87.4L210.1 87.3Z" fill="#22576F"/>
<path d="M9.90002 138H12L12.1 138.1L12 138.3H9.90002L9.70001 138.1L9.90002 138Z" fill="#22576F"/>
<path d="M50 138H54L54.1 138.1L54 138.2H50L49.9 138.1L50 138ZM44 138H48L48.1 138.1L48 138.2H44L43.9 138.1L44 138ZM38 138H42L42.1 138.1L42 138.2H38L37.9 138.1L38 138ZM32 138H36L36.1 138.1L36 138.2H32L31.9 138.1L32 138ZM26 138H30L30.1 138.1L30 138.2H26L25.9 138.1L26 138ZM20 138H24L24.1 138.1L24 138.2H20L19.9 138.1L20 138ZM14 138H18L18.1 138.1L18 138.2H14L13.9 138.1L14 138Z" fill="#22576F"/>
<path d="M55.9 138H58.1L58.2 138.1L58.1 138.3H55.9L55.8 138.1L55.9 138Z" fill="#22576F"/>
<path d="M233.2 17.1H213.3L213.2 16.9L213.3 16.8H233.2L233.3 16.9L233.2 17.1Z" fill="#22576F"/>
<path d="M38.5 87.3V86.2L38.7 86.1L38.8 86.2V87.3L38.7 87.4L38.5 87.3Z" fill="#22576F"/>
<path d="M38.5 85.1V61.4L38.7 61.3L38.8 61.4V85.1L38.7 85.3L38.5 85.1Z" fill="#22576F"/>
<path d="M88.9 87.3V86.2L89 86.1L89.2 86.2V87.3L89 87.4L88.9 87.3Z" fill="#22576F"/>
<path d="M88.9 85.1V75.6L89 75.5L89.2 75.6V85.1L89 85.3L88.9 85.1Z" fill="#22576F"/>
<path d="M88.9 74.3V72.9L89 72.8L89.2 72.9V74.3L89 74.4L88.9 74.3Z" fill="#22576F"/>
<path d="M85.8 61.3L88.8 72.7L91.3 73.4L91.4 73.6L91.3 73.7L87.4 75L89.5 75.6L89.6 75.7L92.7 87.3V87.4L92.5 87.3L89.4 75.8L86.9 75.1L86.8 75L86.9 74.9L90.9 73.6L88.7 73L88.6 72.9L85.5 61.4L85.6 61.2L85.8 61.3Z" fill="#22576F"/>
<path d="M45.7 87.3V86.2L45.9 86.1L46 86.2V87.3L45.9 87.4L45.7 87.3Z" fill="#22576F"/>
<path d="M45.7 85.1V61.4L45.9 61.3L46 61.4V85.1L45.9 85.3L45.7 85.1Z" fill="#22576F"/>
<path d="M52.9 87.3V86.2L53.1 86.1L53.2 86.2V87.3L53.1 87.4L52.9 87.3Z" fill="#22576F"/>
<path d="M52.9 85.1V61.4L53.1 61.3L53.2 61.4V85.1L53.1 85.3L52.9 85.1Z" fill="#22576F"/>
<path d="M60.1 87.3V86.2L60.2 86.1L60.4 86.2V87.3L60.2 87.4L60.1 87.3Z" fill="#22576F"/>
<path d="M60.1 85.1V61.4L60.2 61.3L60.4 61.4V85.1L60.2 85.3L60.1 85.1Z" fill="#22576F"/>
<path d="M67.3 87.3V86.2L67.4 86.1L67.6 86.2V87.3L67.4 87.4L67.3 87.3Z" fill="#22576F"/>
<path d="M67.3 85.1V61.4L67.4 61.3L67.6 61.4V85.1L67.4 85.3L67.3 85.1Z" fill="#22576F"/>
<path d="M74.5 87.3V86.2L74.6 86.1L74.8 86.2V87.3L74.6 87.4L74.5 87.3Z" fill="#22576F"/>
<path d="M74.5 85.1V61.4L74.6 61.3L74.8 61.4V85.1L74.6 85.3L74.5 85.1Z" fill="#22576F"/>
<path d="M81.7 87.3V86.2L81.8 86.1L82 86.2V87.3L81.8 87.4L81.7 87.3Z" fill="#22576F"/>
<path d="M81.7 85.1V61.4L81.8 61.3L82 61.4V85.1L81.8 85.3L81.7 85.1Z" fill="#22576F"/>
<path d="M233.2 25.2V25.3H231.8H231.7L231.6 25.2V22L231.7 21.9L231.8 21.8H233.2L233.3 21.9V22V25.2V25.3H233.2V25.2H233.1V22.1H231.9V25.1H233.2V25.2H233.1H233.2Z" fill="#22576F"/>
<path d="M214.7 25.2V25.3H213.3H213.2V25.2V22V21.9L213.3 21.8H214.7L214.8 21.9V22V25.2V25.3H214.7V25.2H214.6V22.1H213.4V25.1H214.7V25.2H214.6H214.7Z" fill="#22576F"/>
<path d="M231.8 22.8H214.7L214.6 22.7L214.7 22.6H231.8L231.9 22.7L231.8 22.8Z" fill="#22576F"/>
<path d="M231.8 23.5H214.7L214.6 23.4L214.7 23.3H231.8L231.9 23.4L231.8 23.5Z" fill="#22576F"/>
<path d="M136.7 96.7C137.8 94.8 138.3 92.7 138.3 90.6L138.4 90.5L138.5 90.6C138.5 92.8 137.9 94.9 136.8 96.8H136.6L136.7 96.7Z" fill="#22576F"/>
<path d="M138.6 90.6C138.6 92.7 139.2 94.8 140.2 96.7V96.9H140C138.9 95 138.3 92.9 138.3 90.7L138.4 90.6H138.6Z" fill="#22576F"/>
<path d="M126.2 90.6V90.5L136.8 96.6L137.3 95.8L126.8 89.7L126.3 90.7L126.2 90.6V90.5V90.6H126.1L126.7 89.5L126.8 89.4H126.9L137.5 95.6L137.6 95.7V95.8L137 96.9H136.9H136.8L126.1 90.7V90.6H126.2Z" fill="#22576F"/>
<path d="M150.8 90.6L150.9 90.7L140.2 96.9H140.1L139.4 95.8L139.5 95.6L150.2 89.4L150.3 89.5L151 90.6V90.7H150.9L150.8 90.6L150.7 90.7L150.2 89.7L139.7 95.8L140.2 96.6L150.8 90.5V90.6L150.7 90.7L150.8 90.6Z" fill="#22576F"/>
<path d="M123.9 114.7V114.6H145.3V113.6H124V114.7H123.9V114.6V114.7H123.7V113.5L123.8 113.4H123.9H145.4H145.5L145.6 113.5V114.7L145.5 114.8L145.4 114.9H123.9L123.8 114.8L123.7 114.7H123.9Z" fill="#22576F"/>
<path d="M145.3 114.7C145.3 108.8 142.9 103.4 139 99.5C135.1 95.6 129.7 93.2 123.8 93.2L123.7 93.1L123.8 93C135.8 93 145.5 102.7 145.5 114.7L145.4 114.8L145.3 114.7Z" fill="#22576F"/>
<path d="M65.6 142.2V142.1H66.8V120.7H65.8V142.2H65.6V142.1V142.2H65.5V120.6L65.6 120.5H66.9H67V120.6V142.2V142.3H66.9H65.6L65.5 142.2H65.6Z" fill="#22576F"/>
<path d="M65.6 142.1C71.5 142.1 76.9 139.7 80.8 135.8C84.7 131.9 87.1 126.5 87.1 120.6L87.2 120.5L87.3 120.6C87.3 132.6 77.6 142.3 65.6 142.3L65.5 142.2L65.6 142.1Z" fill="#22576F"/>
<path d="M55.6 95.7V95.8H54.4V117.1H55.4V95.7H55.6V95.8V95.7H55.7V117.3V117.4H55.6H54.3H54.2V117.3V95.7V95.6L54.3 95.5H55.6L55.7 95.6V95.7H55.6Z" fill="#22576F"/>
<path d="M13.6 95.7V95.8H12.5V117.1H13.5V95.7H13.6V95.8V95.7H13.8V117.3L13.7 117.4H13.6H12.4H12.3V117.3V95.7V95.6L12.4 95.5H13.6L13.7 95.6L13.8 95.7H13.6Z" fill="#22576F"/>
<path d="M55.6 95.8C49.7 95.8 44.3 98.2 40.4 102.1C36.5 106 34.1 111.4 34.1 117.3L34 117.4L33.9 117.3C33.9 105.3 43.6 95.6 55.6 95.6L55.7 95.7L55.6 95.8Z" fill="#22576F"/>
<path d="M33.9 117.3C33.9 111.4 31.5 106 27.6 102.1C23.7 98.2 18.3 95.8 12.4 95.8L12.3 95.7L12.4 95.6C24.4 95.6 34.1 105.3 34.1 117.3L34 117.4L33.9 117.3Z" fill="#22576F"/>
<path d="M41.5 57.3V57.5H40.1L40 57.4V57.3V54.1V54H40.1H41.5H41.6L41.7 54.1V57.3L41.6 57.4L41.5 57.5V57.3H41.4V54.2H40.2V57.2H41.5V57.3H41.4H41.5Z" fill="#22576F"/>
<path d="M19.6 57.3V57.5H18.1V57.4L18 57.3V54.1L18.1 54H19.6H19.7V54.1V57.3V57.4L19.6 57.5V57.3H19.5V54.2H18.3V57.2H19.6V57.3H19.5H19.6Z" fill="#22576F"/>
<path d="M40.1 55H19.6L19.5 54.8L19.6 54.7H40.1L40.2 54.8L40.1 55Z" fill="#22576F"/>
<path d="M40.1 55.7H19.6L19.5 55.5L19.6 55.4H40.1L40.2 55.5L40.1 55.7Z" fill="#22576F"/>
<path d="M40.8 61.5H18.9L18.7 61.4L18.9 61.3H40.8L40.9 61.4L40.8 61.5Z" fill="#22576F"/>
<path d="M14.9 231.6V231.5H16.3H16.4L16.5 231.6V234.8L16.4 234.9L16.3 235H14.9L14.8 234.9V234.8V231.6V231.5H14.9V231.6H15V234.7H16.2V231.7H14.9V231.6H15H14.9Z" fill="#22576F"/>
<path d="M89 231.6V231.5H90.5H90.6V231.6V234.8V234.9L90.5 235H89L88.9 234.9V234.8V231.6V231.5H89V231.6H89.2V234.7H90.4V231.7H89V231.6H89.2H89Z" fill="#22576F"/>
<path d="M31.5 231.6V231.5H32.9H33V231.6V234.8V234.9L32.9 235H31.5L31.4 234.9L31.3 234.8V231.6L31.4 231.5H31.5V231.6H31.6V234.7H32.8V231.7H31.5V231.6H31.6H31.5Z" fill="#22576F"/>
<path d="M16.3 234H31.5L31.6 234.1L31.5 234.3H16.3L16.2 234.1L16.3 234Z" fill="#22576F"/>
<path d="M16.3 233.3H31.5L31.6 233.4L31.5 233.5H16.3L16.2 233.4L16.3 233.3Z" fill="#22576F"/>
<path d="M72.5 231.6V231.5H73.9H74V231.6V234.8V234.9L73.9 235H72.5L72.4 234.9V234.8V231.6V231.5H72.5V231.6H72.6V234.7H73.8V231.7H72.5V231.6H72.6H72.5Z" fill="#22576F"/>
<path d="M32.9 234H72.5L72.6 234.1L72.5 234.3H32.9L32.8 234.1L32.9 234Z" fill="#22576F"/>
<path d="M32.9 233.3H72.5L72.6 233.4L72.5 233.5H32.9L32.8 233.4L32.9 233.3Z" fill="#22576F"/>
<path d="M73.9 234H89L89.2 234.1L89 234.3H73.9L73.8 234.1L73.9 234Z" fill="#22576F"/>
<path d="M73.9 233.3H89L89.2 233.4L89 233.5H73.9L73.8 233.4L73.9 233.3Z" fill="#22576F"/>
<path d="M15.6 227.4H89.8L89.9 227.6L89.8 227.7H15.6L15.5 227.6L15.6 227.4Z" fill="#22576F"/>
<path d="M169.7 190V189.9H171.2L171.3 190V193.3V193.4H171.2H169.7H169.6V193.3V190L169.7 189.9V190H169.9V193.2H171.1V190.2H169.7V190H169.9H169.7Z" fill="#22576F"/>
<path d="M231.9 190V189.9H233.3L233.4 190H233.5V193.3L233.4 193.4H233.3H231.9H231.8V193.3V190L231.9 189.9V190H232V193.2H233.2V190.2H231.9V190H232H231.9Z" fill="#22576F"/>
<path d="M188.4 190V189.9H189.9L190 190V193.3V193.4H189.9H188.4L188.3 193.3V190H188.4V189.9V190H188.6V193.2H189.8V190.2H188.4V190H188.6H188.4Z" fill="#22576F"/>
<path d="M171.2 192.4H188.4L188.6 192.6L188.4 192.7H171.2L171.1 192.6L171.2 192.4Z" fill="#22576F"/>
<path d="M171.2 191.7H188.4L188.6 191.8L188.4 192H171.2L171.1 191.8L171.2 191.7Z" fill="#22576F"/>
<path d="M210 190V189.9H211.5L211.6 190V193.3V193.4H211.5H210L209.9 193.3V190H210V189.9V190H210.2V193.2H211.4V190.2H210V190H210.2H210Z" fill="#22576F"/>
<path d="M189.9 192.4H210L210.2 192.6L210 192.7H189.9L189.8 192.6L189.9 192.4Z" fill="#22576F"/>
<path d="M189.9 191.7H210L210.2 191.8L210 192H189.9L189.8 191.8L189.9 191.7Z" fill="#22576F"/>
<path d="M211.5 192.4H231.9L232 192.6L231.9 192.7H211.5L211.4 192.6L211.5 192.4Z" fill="#22576F"/>
<path d="M211.5 191.7H231.9L232 191.8L231.9 192H211.5L211.4 191.8L211.5 191.7Z" fill="#22576F"/>
<path d="M169.7 185.9H232.6L232.7 186L232.6 186.1H169.7L169.6 186L169.7 185.9Z" fill="#22576F"/>
<path d="M143.6 219.4V219.2H144.8V193.4H143.8V219.4H143.6V219.2V219.4H143.5V193.3L143.6 193.2H144.9H145V193.3V219.4V219.5H144.9H143.6L143.5 219.4H143.6Z" fill="#22576F"/>
<path d="M143.6 219.3C150.8 219.3 157.3 216.4 162 211.7C166.7 207 169.6 200.5 169.6 193.3L169.7 193.2L169.8 193.3C169.8 207.8 158.1 219.5 143.6 219.5L143.5 219.4L143.6 219.3Z" fill="#22576F"/>
<path d="M11.2 210.4V167.2L11.3 167.1L11.4 167.2V210.4L11.3 210.5L11.2 210.4Z" fill="#22576F"/>
<path d="M9.90002 167.2V167.1H68.9L69 167.2V210.4V210.5H68.9H9.90002H9.79999L9.70001 210.4V167.2H9.79999L9.90002 167.1V167.2H10V210.3H68.8V167.4H9.90002V167.2H10H9.90002Z" fill="#22576F"/>
<path d="M26.7 187V187.1C25.1 186.6 23.4 186.4 21.7 186.4C20 186.4 18.3 186.6 16.7 187.1H16.6V187C17 184 17.1 181 17.1 178C17.1 175 16.9 172 16.6 169V168.9H16.7C18.3 169.4 20 169.6 21.7 169.6C23.4 169.6 25.1 169.4 26.7 168.9H26.8V169C26.4 172 26.3 175 26.3 178C26.3 181 26.5 184 26.8 187H26.7H26.6C26.2 184 26.1 181 26.1 178C26.1 175 26.3 172 26.6 169H26.7V169.1C25 169.6 23.3 169.8 21.6 169.8C19.9 169.8 18.2 169.6 16.5 169.1V169H16.6C17 172 17.1 175 17.1 178C17.1 181 16.9 184 16.6 187H16.5V186.9C18.2 186.4 19.9 186.2 21.6 186.2C23.3 186.2 25 186.4 26.7 186.9V187Z" fill="#22576F"/>
<path d="M23.5 188.2C21.6 187.7 19.7 187.5 17.8 187.5C15.9 187.5 14 187.7 12.1 188.2H12V188.1C12.5 184.8 12.7 181.4 12.7 178C12.7 174.6 12.5 171.3 12 167.9V167.8H12.1C14 168.3 15.9 168.5 17.8 168.5C19.7 168.5 21.6 168.3 23.5 167.8H23.6V167.9C23.5 168.5 23.4 169 23.4 169.6L23.3 169.7L23.2 169.6C23.3 169 23.3 168.4 23.4 167.9H23.5V168C21.6 168.5 19.7 168.7 17.7 168.7C15.8 168.7 13.8 168.5 11.9 168V167.9H12C12.5 171.2 12.7 174.6 12.7 178C12.7 181.4 12.5 184.7 12 188.1H11.9V188C13.8 187.5 15.7 187.3 17.7 187.3C19.6 187.3 21.6 187.5 23.5 188L23.6 188.2H23.5Z" fill="#22576F"/>
<path d="M26.7 190.6V190.7C25 191.2 23.3 191.4 21.6 191.4C19.9 191.4 18.2 191.2 16.5 190.7V190.6H16.6C17 193.6 17.1 196.6 17.1 199.6C17.1 202.6 16.9 205.6 16.6 208.6H16.5V208.5C18.2 208 19.9 207.8 21.6 207.8C23.3 207.8 25 208 26.7 208.5V208.6H26.6C26.2 205.6 26.1 202.6 26.1 199.6C26.1 196.6 26.3 193.6 26.6 190.6H26.7H26.8C26.4 193.6 26.3 196.6 26.3 199.6C26.3 202.6 26.5 205.6 26.8 208.6V208.7H26.7C25.1 208.2 23.4 208 21.7 208C20 208 18.3 208.2 16.7 208.7H16.6V208.6C17 205.6 17.1 202.6 17.1 199.6C17.1 196.6 16.9 193.6 16.6 190.6V190.5H16.7C18.3 191 20 191.2 21.7 191.2C23.4 191.2 25.1 191 26.7 190.5V190.6Z" fill="#22576F"/>
<path d="M23.6 189.7C21.7 190.2 19.8 190.4 17.8 190.4C15.9 190.4 13.9 190.2 12 189.7V189.6H12.1C12.6 192.9 12.8 196.3 12.8 199.7C12.8 203.1 12.6 206.4 12.1 209.8H12V209.7C13.9 209.2 15.8 209 17.8 209C19.7 209 21.7 209.2 23.6 209.7V209.8H23.5C23.4 209.2 23.3 208.7 23.3 208.1L23.4 208L23.5 208.1C23.6 208.7 23.6 209.2 23.7 209.8V209.9H23.6C21.7 209.4 19.8 209.2 17.9 209.2C16 209.2 14.1 209.4 12.2 209.9H12.1V209.8C12.6 206.5 12.8 203.1 12.8 199.7C12.8 196.3 12.6 193 12.1 189.6V189.5H12.2C14.1 190 16 190.2 17.9 190.2C19.8 190.2 21.7 190 23.6 189.5L23.8 189.6L23.6 189.7Z" fill="#22576F"/>
<path d="M18.6 167.2V168.7L18.5 168.8L18.4 168.7V167.2L18.5 167.1L18.6 167.2Z" fill="#22576F"/>
<path d="M28 167.2V210.4L27.9 210.5L27.7 210.4V167.2L27.9 167.1L28 167.2Z" fill="#22576F"/>
<path d="M18.6 187.4V190.3L18.5 190.4L18.4 190.3V187.4L18.5 187.3L18.6 187.4Z" fill="#22576F"/>
<path d="M18.6 209V210.4L18.5 210.5L18.4 210.4V209L18.5 208.9L18.6 209Z" fill="#22576F"/>
<path d="M23.4 186.4C23.5 187 23.5 187.5 23.6 188.1L23.5 188.2L23.4 188.1C23.3 187.5 23.2 187 23.2 186.4L23.3 186.3L23.4 186.4Z" fill="#22576F"/>
<path d="M23.7 189.6C23.6 190.2 23.5 190.7 23.5 191.3L23.4 191.4L23.3 191.3C23.4 190.7 23.4 190.1 23.5 189.6L23.6 189.5L23.7 189.6Z" fill="#22576F"/>
<path d="M22.8 211.9V212H11.4V226.1H22.7V211.9H22.8V212V211.9H22.9V226.3L22.8 226.4H11.3L11.2 226.3V211.9V211.8L11.3 211.7H22.8L22.9 211.8V211.9H22.8Z" fill="#22576F"/>
<path d="M22.8 165.8V165.9H11.3H11.2V165.8V151.4V151.3H11.3H22.8H22.9V151.4V165.8V165.9H22.8V165.8H22.7V151.5H11.4V165.7H22.8V165.8H22.7H22.8Z" fill="#22576F"/>
<path d="M12.8 219.1H12.7C12.7 216.7 14.7 214.7 17.1 214.7C19.5 214.7 21.5 216.7 21.5 219.1C21.5 221.5 19.5 223.5 17.1 223.5C14.7 223.5 12.7 221.5 12.7 219.1H12.8H12.9C12.9 220.2 13.4 221.3 14.1 222C14.9 222.8 15.9 223.2 17 223.2C18.1 223.2 19.2 222.7 19.9 222C20.7 221.2 21.1 220.2 21.1 219.1C21.1 218 20.6 216.9 19.9 216.2C19.1 215.4 18.1 215 17 215C15.9 215 14.8 215.5 14.1 216.2C13.3 217 12.9 218 12.9 219.1H12.8Z" fill="#22576F"/>
<path d="M16 219.1H15.9C15.9 218.4 16.4 217.9 17.1 217.9C17.8 217.9 18.3 218.4 18.3 219.1C18.3 219.8 17.8 220.3 17.1 220.3C16.4 220.3 15.9 219.8 15.9 219.1H16H16.1C16.1 219.6 16.5 220.1 17.1 220.1C17.6 220.1 18.1 219.7 18.1 219.1C18.1 218.6 17.7 218.1 17.1 218.1C16.6 218.1 16.1 218.5 16.1 219.1H16Z" fill="#22576F"/>
<path d="M21.3 219.2H18.2L18 219.1L18.2 218.9H21.3L21.5 219.1L21.3 219.2Z" fill="#22576F"/>
<path d="M16 219.2H12.8L12.7 219.1L12.8 218.9H16L16.1 219.1L16 219.2Z" fill="#22576F"/>
<path d="M16.9 223.3V220.2L17.1 220L17.2 220.2V223.3L17.1 223.5L16.9 223.3Z" fill="#22576F"/>
<path d="M16.9 218V214.8L17.1 214.7L17.2 214.8V218L17.1 218.1L16.9 218Z" fill="#22576F"/>
<path d="M12.8 158.6H12.7C12.7 156.2 14.7 154.2 17.1 154.2C19.5 154.2 21.5 156.2 21.5 158.6C21.5 161 19.5 163 17.1 163C14.7 163 12.7 161 12.7 158.6H12.8H12.9C12.9 159.7 13.4 160.8 14.1 161.5C14.9 162.3 15.9 162.7 17 162.7C18.1 162.7 19.2 162.2 19.9 161.5C20.7 160.7 21.1 159.7 21.1 158.6C21.1 157.5 20.6 156.4 19.9 155.7C19.1 154.9 18.1 154.5 17 154.5C15.9 154.5 14.8 155 14.1 155.7C13.3 156.5 12.9 157.5 12.9 158.6H12.8Z" fill="#22576F"/>
<path d="M16 158.6H15.9C15.9 157.9 16.4 157.4 17.1 157.4C17.8 157.4 18.3 157.9 18.3 158.6C18.3 159.3 17.8 159.8 17.1 159.8C16.4 159.8 15.9 159.3 15.9 158.6H16H16.1C16.1 159.1 16.5 159.6 17.1 159.6C17.6 159.6 18.1 159.2 18.1 158.6C18.1 158.1 17.7 157.6 17.1 157.6C16.6 157.6 16.1 158 16.1 158.6H16Z" fill="#22576F"/>
<path d="M21.3 158.7H18.2L18 158.6L18.2 158.5H21.3L21.5 158.6L21.3 158.7Z" fill="#22576F"/>
<path d="M16 158.7H12.8L12.7 158.6L12.8 158.5H16L16.1 158.6L16 158.7Z" fill="#22576F"/>
<path d="M16.9 162.9V159.7L17.1 159.6L17.2 159.7V162.9L17.1 163L16.9 162.9Z" fill="#22576F"/>
<path d="M16.9 157.5V154.3L17.1 154.2L17.2 154.3V157.5L17.1 157.6L16.9 157.5Z" fill="#22576F"/>
<path d="M233.1 112.2V166.9L233 167.1L232.9 166.9V112.2L233 112.1L233.1 112.2Z" fill="#22576F"/>
<path d="M234.4 166.9V167.1H175.4L175.3 167V166.9V112.2V112.1H175.4H234.4H234.5V112.2V166.9V167L234.4 167.1V166.9H234.3V112.4H175.5V166.8H234.4V166.9H234.3H234.4Z" fill="#22576F"/>
<path d="M217.6 141.4V141.3C219.2 141.8 220.9 142 222.6 142C224.3 142 226 141.8 227.6 141.3H227.7V141.4C227.3 145.2 227.2 149.1 227.2 152.9C227.2 156.7 227.4 160.6 227.7 164.4V164.5H227.6C226 164 224.3 163.8 222.6 163.8C220.9 163.8 219.2 164 217.6 164.5H217.5V164.4C217.9 160.6 218 156.7 218 152.9C218 149.1 217.8 145.2 217.5 141.4H217.6H217.7C218.1 145.2 218.2 149.1 218.2 152.9C218.2 156.7 218 160.6 217.7 164.4H217.6V164.3C219.3 163.8 221 163.6 222.7 163.6C224.4 163.6 226.1 163.8 227.8 164.3V164.4H227.7C227.3 160.6 227.2 156.7 227.2 152.9C227.2 149.1 227.4 145.2 227.7 141.4H227.8V141.5C226.1 142 224.4 142.2 222.7 142.2C221 142.2 219.3 142 217.6 141.5V141.4Z" fill="#22576F"/>
<path d="M220.8 140.2C222.7 140.7 224.6 140.9 226.5 140.9C228.4 140.9 230.3 140.7 232.2 140.2H232.3V140.3C231.8 144.5 231.6 148.7 231.6 152.9C231.6 157.1 231.8 161.3 232.3 165.5V165.6H232.2C230.3 165.1 228.4 164.9 226.5 164.9C224.6 164.9 222.7 165.1 220.8 165.6H220.7V165.5C220.8 164.9 220.9 164.4 220.9 163.8L221 163.7L221.1 163.8C221 164.4 221 165 220.9 165.5H220.8V165.4C222.7 164.9 224.6 164.7 226.6 164.7C228.5 164.7 230.5 164.9 232.4 165.4V165.5H232.3C231.8 161.3 231.6 157.1 231.6 152.9C231.6 148.7 231.8 144.5 232.3 140.3H232.4V140.4C230.5 140.9 228.6 141.1 226.6 141.1C224.7 141.1 222.7 140.9 220.8 140.4L220.7 140.2H220.8Z" fill="#22576F"/>
<path d="M217.6 137.8V137.7C219.3 137.2 221 137 222.7 137C224.4 137 226.1 137.2 227.8 137.7V137.8H227.7C227.3 134 227.2 130.1 227.2 126.3C227.2 122.5 227.4 118.6 227.7 114.8H227.8V114.9C226.1 115.4 224.4 115.6 222.7 115.6C221 115.6 219.3 115.4 217.6 114.9V114.8H217.7C218.1 118.6 218.2 122.5 218.2 126.3C218.2 130.1 218 134 217.7 137.8H217.6H217.5C217.9 134 218 130.1 218 126.3C218 122.5 217.8 118.6 217.5 114.8V114.7H217.6C219.2 115.2 220.9 115.4 222.6 115.4C224.3 115.4 226 115.2 227.6 114.7H227.7V114.8C227.3 118.6 227.2 122.5 227.2 126.3C227.2 130.1 227.4 134 227.7 137.8V137.9H227.6C226 137.4 224.3 137.2 222.6 137.2C220.9 137.2 219.2 137.4 217.6 137.9V137.8Z" fill="#22576F"/>
<path d="M220.7 138.7C222.6 138.2 224.5 138 226.5 138C228.4 138 230.4 138.2 232.3 138.7V138.8H232.2C231.7 134.6 231.5 130.4 231.5 126.2C231.5 122 231.7 117.8 232.2 113.6H232.3V113.7C230.4 114.2 228.5 114.4 226.5 114.4C224.6 114.4 222.6 114.2 220.7 113.7V113.6H220.8C220.9 114.2 221 114.7 221 115.3L220.9 115.4L220.8 115.3C220.7 114.7 220.7 114.2 220.6 113.6V113.5H220.7C222.6 114 224.5 114.2 226.4 114.2C228.3 114.2 230.2 114 232.1 113.5H232.2V113.6C231.7 117.8 231.5 122 231.5 126.2C231.5 130.4 231.7 134.6 232.2 138.8V138.9H232.1C230.2 138.4 228.3 138.2 226.4 138.2C224.5 138.2 222.6 138.4 220.7 138.9L220.5 138.8L220.7 138.7Z" fill="#22576F"/>
<path d="M225.7 166.9V164.8L225.8 164.7L225.9 164.8V166.9L225.8 167.1L225.7 166.9Z" fill="#22576F"/>
<path d="M216.3 166.9V112.2L216.4 112.1L216.6 112.2V166.9L216.4 167.1L216.3 166.9Z" fill="#22576F"/>
<path d="M225.7 141V138.1L225.8 138L225.9 138.1V141L225.8 141.1L225.7 141Z" fill="#22576F"/>
<path d="M225.7 114.4V112.2L225.8 112.1L225.9 112.2V114.4L225.8 114.5L225.7 114.4Z" fill="#22576F"/>
<path d="M220.8 142C220.7 141.4 220.7 140.9 220.6 140.3L220.7 140.2L220.8 140.3C220.9 140.9 221 141.4 221 142L220.9 142.1L220.8 142Z" fill="#22576F"/>
<path d="M220.6 138.8C220.7 138.2 220.8 137.7 220.8 137.1L220.9 137L221 137.1C220.9 137.7 220.9 138.3 220.8 138.8L220.7 138.9L220.6 138.8Z" fill="#22576F"/>
<path d="M221.5 168.4V168.2H233L233.1 168.3V168.4V182.8L233 182.9H221.5L221.4 182.8H221.3V168.4L221.4 168.3L221.5 168.2V168.4H221.6V182.6H232.9V168.5H221.5V168.4H221.6H221.5Z" fill="#22576F"/>
<path d="M221.5 110.8V110.7H232.9V96.5H221.6V110.8H221.5V110.7V110.8H221.3V96.4L221.4 96.3H221.5H233H233.1V96.4V110.8V110.9H233H221.5H221.4L221.3 110.8H221.5Z" fill="#22576F"/>
<path d="M222.9 175.6H222.8C222.8 173.2 224.8 171.2 227.2 171.2C229.6 171.2 231.6 173.2 231.6 175.6C231.6 178 229.6 180 227.2 180C224.8 180 222.8 178 222.8 175.6H222.9H223C223 176.7 223.5 177.8 224.2 178.5C225 179.3 226 179.7 227.1 179.7C228.2 179.7 229.3 179.2 230 178.5C230.8 177.7 231.2 176.7 231.2 175.6C231.2 174.5 230.7 173.4 230 172.7C229.2 171.9 228.2 171.5 227.1 171.5C226 171.5 224.9 172 224.2 172.7C223.4 173.5 223 174.5 223 175.6H222.9Z" fill="#22576F"/>
<path d="M226.1 175.6H226C226 174.9 226.5 174.4 227.2 174.4C227.9 174.4 228.4 174.9 228.4 175.6C228.4 176.3 227.9 176.8 227.2 176.8C226.5 176.8 226 176.3 226 175.6H226.1H226.2C226.2 176.1 226.6 176.6 227.2 176.6C227.7 176.6 228.2 176.2 228.2 175.6C228.2 175.1 227.8 174.6 227.2 174.6C226.7 174.6 226.2 175 226.2 175.6H226.1Z" fill="#22576F"/>
<path d="M227.1 179.8V176.7L227.2 176.5L227.3 176.7V179.8L227.2 180L227.1 179.8Z" fill="#22576F"/>
<path d="M227.1 174.5V171.3L227.2 171.2L227.3 171.3V174.5L227.2 174.6L227.1 174.5Z" fill="#22576F"/>
<path d="M222.9 175.4H226.1L226.2 175.6L226.1 175.7H222.9L222.8 175.6L222.9 175.4Z" fill="#22576F"/>
<path d="M228.3 175.4H231.5L231.6 175.6L231.5 175.7H228.3L228.2 175.6L228.3 175.4Z" fill="#22576F"/>
<path d="M222.9 103.6H222.8C222.8 101.2 224.8 99.2 227.2 99.2C229.6 99.2 231.6 101.2 231.6 103.6C231.6 106 229.6 108 227.2 108C224.8 108 222.8 106 222.8 103.6H222.9H223C223 104.7 223.5 105.8 224.2 106.5C225 107.3 226 107.7 227.1 107.7C228.2 107.7 229.3 107.2 230 106.5C230.8 105.7 231.2 104.7 231.2 103.6C231.2 102.5 230.7 101.4 230 100.7C229.2 99.9 228.2 99.5 227.1 99.5C226 99.5 224.9 100 224.2 100.7C223.4 101.5 223 102.5 223 103.6H222.9Z" fill="#22576F"/>
<path d="M226.1 103.6H226C226 102.9 226.5 102.4 227.2 102.4C227.9 102.4 228.4 102.9 228.4 103.6C228.4 104.3 227.9 104.8 227.2 104.8C226.5 104.8 226 104.3 226 103.6H226.1H226.2C226.2 104.1 226.6 104.6 227.2 104.6C227.7 104.6 228.2 104.2 228.2 103.6C228.2 103.1 227.8 102.6 227.2 102.6C226.7 102.6 226.2 103 226.2 103.6H226.1Z" fill="#22576F"/>
<path d="M227.3 99.3V102.5L227.2 102.6L227.1 102.5V99.3L227.2 99.2L227.3 99.3Z" fill="#22576F"/>
<path d="M227.3 104.7V107.9L227.2 108L227.1 107.9V104.7L227.2 104.6L227.3 104.7Z" fill="#22576F"/>
<path d="M222.9 103.5H226.1L226.2 103.6L226.1 103.7H222.9L222.8 103.6L222.9 103.5Z" fill="#22576F"/>
<path d="M228.3 103.5H231.5L231.6 103.6L231.5 103.7H228.3L228.2 103.6L228.3 103.5Z" fill="#22576F"/>
<path d="M192.4 44.3L192.3 44.4L182.2 27L182.3 26.8L182.7 26.5H182.8L182.9 26.6L193 44V44.1L192.9 44.2L192.5 44.4H192.3L192.4 44.3L192.3 44.2L192.7 44L182.8 26.8L182.5 27L192.5 44.3H192.4L192.3 44.2L192.4 44.3Z" fill="#22576F"/>
<path d="M184.1 25.2V28.7L184 28.8L183.9 28.7V25.2L184 25.1L184.1 25.2Z" fill="#22576F"/>
<path d="M184.1 29.8V58.1L184 58.2L183.9 58.1V29.8L184 29.6L184.1 29.8Z" fill="#22576F"/>
<path d="M182.9 25.2V26.7L182.8 26.8H182.3L182.2 26.7H182.1V25.2L182.3 25.1L182.4 25.2V26.5H182.7V25.2L182.8 25.1L182.9 25.2Z" fill="#22576F"/>
<path d="M182.8 46.8V46.9H182.4V57.9H182.7V46.8H182.8V46.9V46.8H182.9V58.1V58.2H182.8H182.3H182.2L182.1 58.1V46.8L182.2 46.7L182.3 46.6H182.8L182.9 46.7V46.8H182.8Z" fill="#22576F"/>
<path d="M139.4 41.9H141.3L141.4 42L141.3 42.1H139.4L139.2 42L139.4 41.9Z" fill="#22576F"/>
<path d="M141.1 42V41.3L141.3 41.2L141.4 41.3V42L141.3 42.1L141.1 42Z" fill="#22576F"/>
<path d="M141.3 41.4H139.4L139.2 41.3L139.4 41.2H141.3L141.4 41.3L141.3 41.4Z" fill="#22576F"/>
<path d="M139.3 42H139.4L139.5 42.1L139.4 42.2H139.3L139.1 42.1L139.3 42Z" fill="#22576F"/>
<path d="M139.2 42.1V41.2L139.4 41.1L139.5 41.2V42.1L139.4 42.2L139.2 42.1Z" fill="#22576F"/>
<path d="M139.4 41.3H139.3L139.1 41.2L139.3 41.1H139.4L139.5 41.2L139.4 41.3Z" fill="#22576F"/>
<path d="M141.2 43.3V40.7L141.4 40.6L141.5 40.7V43.3L141.4 43.4L141.2 43.3Z" fill="#22576F"/>
<path d="M141.2 39.8H140.7L140.6 39.7L140.7 39.6H141.2L141.3 39.7L141.2 39.8Z" fill="#22576F"/>
<path d="M140.8 39.7V41.3L140.7 41.4L140.6 41.3V39.7L140.7 39.6L140.8 39.7Z" fill="#22576F"/>
<path d="M140.8 42V43.3L140.7 43.4L140.6 43.3V42L140.7 41.9L140.8 42Z" fill="#22576F"/>
<path d="M140.7 43.2H141.4L141.5 43.3L141.4 43.4H140.7L140.6 43.3L140.7 43.2Z" fill="#22576F"/>
<path d="M141.4 42.7H140.7L140.6 42.6L140.7 42.5H141.4L141.5 42.6L141.4 42.7Z" fill="#22576F"/>
<path d="M142.3 41.2C142.8 41.2 143.2 40.8 143.2 40.2V40.1C143.2 39.5 142.8 39.1 142.4 39H142.2L142.1 38.9L142.2 38.8H142.4C143 38.9 143.4 39.4 143.4 40.1V40.2C143.4 40.9 142.9 41.4 142.3 41.4H142.2L142.1 41.3L142.3 41.2Z" fill="#22576F"/>
<path d="M141.3 40.1H141.4C141.4 40.4 141.5 40.7 141.7 40.9C141.9 41.1 142.1 41.2 142.3 41.2C142.5 41.2 142.7 41.1 142.9 40.9C143.1 40.7 143.2 40.4 143.2 40.1C143.2 39.8 143.1 39.5 142.9 39.3C142.7 39.1 142.5 39 142.3 39C142.1 39 141.9 39.1 141.7 39.3C141.5 39.5 141.4 39.8 141.4 40.1H141.3H141.2C141.2 39.4 141.7 38.8 142.3 38.8C142.9 38.8 143.4 39.4 143.4 40.1C143.4 40.8 142.9 41.4 142.3 41.4C141.7 41.4 141.2 40.8 141.2 40.1H141.3Z" fill="#22576F"/>
<path d="M141.4 40.9L141.3 40.8L141.1 40.6H141H140.9L140.8 40.4L140.9 40.3H141L141.2 40.4H141.3L141.5 40.6L141.6 40.7L141.5 40.9H141.4Z" fill="#22576F"/>
<path d="M141.6 39.5L141.5 39.6L141.3 39.8H141.2L141 39.9H140.9L140.8 39.8L140.9 39.7H141L141.1 39.6L141.3 39.4L141.4 39.3H141.6V39.5Z" fill="#22576F"/>
<path d="M141 39.9L140.9 40.1V40.2L141.1 40.4V40.6H140.9L140.7 40.4V40.2C140.7 40 140.8 39.8 141 39.8L141.2 39.9H141Z" fill="#22576F"/>
<path d="M139.1 42.1V41.2L139.3 41.1L139.4 41.2V42.1L139.3 42.2L139.1 42.1Z" fill="#22576F"/>
<path d="M147.3 40.7H147.2C147.2 39.7 148 38.9 149 38.9C150 38.9 150.8 39.7 150.8 40.7C150.8 41.7 150 42.5 149 42.5C148 42.5 147.2 41.7 147.2 40.7H147.3H147.4C147.4 41.6 148.1 42.3 149 42.3C149.9 42.3 150.6 41.6 150.6 40.7C150.6 39.8 149.9 39.1 149 39.1C148.1 39.1 147.4 39.8 147.4 40.7H147.3Z" fill="#22576F"/>
<path d="M181 58.1V25.2L181.1 25.1L181.2 25.2V58.1L181.1 58.2L181 58.1Z" fill="#22576F"/>
<path d="M181.1 26.4H170.2L170.1 26.3L170.2 26.2H181.1L181.2 26.3L181.1 26.4Z" fill="#22576F"/>
<path d="M168.6 26.4H143.4V39.7L143.3 39.8L143.2 39.7V26.3V26.2H143.3H168.6L168.8 26.3L168.6 26.4Z" fill="#22576F"/>
<path d="M182.8 46.6C186.3 46.6 189.8 45.7 192.8 43.9H193V44.1C189.9 45.9 186.4 46.8 182.9 46.8L182.8 46.7V46.6Z" fill="#22576F"/>
<path d="M168.6 26H170.2L170.3 26.2L170.2 26.3H168.6L168.5 26.2L168.6 26Z" fill="#22576F"/>
<path d="M172 25.9H166.8L166.7 25.8L166.8 25.7H172L172.1 25.8L172 25.9Z" fill="#22576F"/>
<path d="M166.9 25.7C167.5 25.9 168.1 26 168.7 26L168.8 26.1L168.7 26.2C168.1 26.2 167.5 26 166.9 25.9L166.8 25.7H166.9Z" fill="#22576F"/>
<path d="M170.2 26C170.8 26 171.4 25.8 172 25.7L172.2 25.8L172 26C171.4 26.2 170.8 26.3 170.2 26.3L170.1 26.2L170.2 26Z" fill="#22576F"/>
<path d="M172.2 25.6L172.1 25.8L172 25.9L171.9 25.8V25.6L172 25.5L172.2 25.6Z" fill="#22576F"/>
<path d="M166.7 25.8V25.6L166.8 25.5L166.9 25.6V25.8L166.8 25.9L166.7 25.8Z" fill="#22576F"/>
<path d="M171.9 25.8V25.7H172.1V25.9L171.9 26V25.8Z" fill="#22576F"/>
<path d="M166.9 25.7V25.8V26L166.7 25.9V25.7H166.9Z" fill="#22576F"/>
<path d="M170.3 26.2V26.8L170.2 27L170.1 26.8V26.2L170.2 26L170.3 26.2Z" fill="#22576F"/>
<path d="M168.5 26.8V26.2L168.6 26L168.8 26.2V26.8L168.6 27L168.5 26.8Z" fill="#22576F"/>
<path d="M168.8 27.1H169.4L169.5 27.2L169.4 27.4H168.8L168.7 27.2L168.8 27.1Z" fill="#22576F"/>
<path d="M169.4 27.1L169.5 27.2L169.4 27.4L169.3 27.2L169.4 27.1Z" fill="#22576F"/>
<path d="M170.2 27.4H170L169.9 27.2L170 27.1H170.2L170.3 27.2L170.2 27.4Z" fill="#22576F"/>
<path d="M168.8 27.4H168.7L168.5 27.2L168.7 27.1H168.8L168.9 27.2L168.8 27.4Z" fill="#22576F"/>
<path d="M169.4 27.1H170L170.1 27.2L170 27.4H169.4L169.3 27.2L169.4 27.1Z" fill="#22576F"/>
<path d="M170.3 27.3V28.3L170.1 28.5L170 28.3V27.2L170.2 27.1L170.3 27.3Z" fill="#22576F"/>
<path d="M168.6 28.3L168.5 27.3L168.7 27.1L168.8 27.2V28.3L168.7 28.5L168.6 28.3Z" fill="#22576F"/>
<path d="M170.1 27.3V27.1L170.3 27.2L170.2 27.3H170.1Z" fill="#22576F"/>
<path d="M168.8 27.3H168.7H168.6V27.2V27.1L168.8 27.2V27.3Z" fill="#22576F"/>
<path d="M168.8 28.3V28.5H168.6V28.4V28.3H168.8Z" fill="#22576F"/>
<path d="M170 28.3H170.1H170.2V28.4V28.5H170V28.3Z" fill="#22576F"/>
<path d="M168.7 28.2C168.9 28.2 169.2 28.2 169.4 28.2C169.6 28.2 169.9 28.2 170.1 28.2L170.2 28.3L170.1 28.4C169.9 28.4 169.6 28.4 169.4 28.4C169.2 28.4 168.9 28.4 168.7 28.4L168.6 28.3L168.7 28.2Z" fill="#22576F"/>
<path d="M170 27.2C170.1 27.1 170.1 27 170.1 26.9L170.2 26.8L170.3 26.9C170.3 27.1 170.3 27.2 170.2 27.4H170V27.2Z" fill="#22576F"/>
<path d="M168.8 26.8C168.8 26.9 168.8 27 168.9 27.1V27.3H168.7C168.6 27.2 168.6 27 168.6 26.8L168.7 26.7L168.8 26.8Z" fill="#22576F"/>
<path d="M166.7 25.6V25.2L166.8 25.1L166.9 25.2V25.6L166.8 25.7L166.7 25.6Z" fill="#22576F"/>
<path d="M171.9 25.6V25.2L172 25.1L172.2 25.2V25.6L172 25.7L171.9 25.6Z" fill="#22576F"/>
<path d="M181.1 57.1H143.3H143.2V57V40.5L143.3 40.4L143.4 40.5V56.9H181.1L181.2 57L181.1 57.1Z" fill="#22576F"/>
<path d="M224.7 57H224.6C224.6 56.3 225.1 55.8 225.8 55.8C226.5 55.8 227 56.3 227 57C227 57.7 226.5 58.2 225.8 58.2C225.1 58.2 224.6 57.7 224.6 57H224.7H224.8C224.8 57.5 225.2 58 225.8 58C226.3 58 226.8 57.6 226.8 57C226.8 56.5 226.4 56 225.8 56C225.3 56 224.8 56.4 224.8 57H224.7Z" fill="#22576F"/>
<path d="M225.1 57H225C225 56.6 225.3 56.2 225.8 56.2C226.2 56.2 226.6 56.5 226.6 57C226.6 57.4 226.3 57.8 225.8 57.8C225.4 57.8 225 57.5 225 57H225.1H225.2C225.2 57.3 225.4 57.5 225.7 57.5C226 57.5 226.2 57.3 226.2 57C226.2 56.7 226 56.5 225.7 56.5C225.4 56.5 225.2 56.7 225.2 57H225.1Z" fill="#22576F"/>
<path d="M228.7 56.5H232.1L232.2 56.6L232.1 56.7H228.7L228.6 56.6L228.7 56.5Z" fill="#22576F"/>
<path d="M228.7 56.7L228.6 56.8L228.5 56.9L228.4 56.8C228.4 56.6 228.6 56.4 228.8 56.4L228.9 56.5L228.7 56.7Z" fill="#22576F"/>
<path d="M228.6 57.3L228.7 57.4L228.8 57.5L228.7 57.6C228.5 57.6 228.3 57.4 228.3 57.2L228.4 57.1L228.6 57.3Z" fill="#22576F"/>
<path d="M228.6 56.8V57.3L228.4 57.4L228.3 57.3V56.8L228.4 56.7L228.6 56.8Z" fill="#22576F"/>
<path d="M232.1 57.5L231.9 57.4L231.8 57.3L231.9 57.2C232 57.2 232.2 57.3 232.3 57.4V57.6L232.1 57.5Z" fill="#22576F"/>
<path d="M231.9 56.7L232.1 56.6H232.3V56.8C232.2 56.9 232.1 57 231.9 57L231.8 56.9L231.9 56.7Z" fill="#22576F"/>
<path d="M230.3 56.7H231.9L232 56.8L231.9 56.9H230.3L230.2 56.8L230.3 56.7Z" fill="#22576F"/>
<path d="M231.9 57.4H230.3L230.2 57.3L230.3 57.2H231.9L232 57.3L231.9 57.4Z" fill="#22576F"/>
<path d="M230.2 57.1L230.4 57.2V57.4H230.2L230.1 57.2V57.1H230.2Z" fill="#22576F"/>
<path d="M230.3 56.9V57.2L230.1 57.3L230 57.2V56.9L230.1 56.8L230.3 56.9Z" fill="#22576F"/>
<path d="M232.3 57.7H232.1L232 57.6L232.1 57.5C232.2 57.5 232.3 57.5 232.4 57.6L232.5 57.8L232.3 57.7Z" fill="#22576F"/>
<path d="M232.1 56.5H232.3L232.5 56.6L232.4 56.8C232.3 56.8 232.2 56.9 232.1 56.9L232 56.8L232.1 56.5Z" fill="#22576F"/>
<path d="M232.1 57.6H228.7L228.6 57.5L228.7 57.4H232.1L232.2 57.5L232.1 57.6Z" fill="#22576F"/>
<path d="M232.2 57.4C232.3 57.5 232.5 57.6 232.6 57.6C232.7 57.6 232.9 57.6 233 57.5C233.1 57.4 233.2 57.2 233.2 57.1C233.2 57 233.2 56.8 233.1 56.7C233 56.6 232.8 56.5 232.7 56.5C232.6 56.5 232.4 56.5 232.3 56.6H232.1V56.4C232.3 56.3 232.5 56.2 232.6 56.2C232.8 56.2 233 56.3 233.2 56.5C233.3 56.7 233.4 56.9 233.4 57C233.4 57.2 233.3 57.4 233.1 57.6C232.9 57.7 232.7 57.8 232.6 57.8C232.4 57.8 232.2 57.7 232 57.5V57.3L232.2 57.4Z" fill="#22576F"/>
<path d="M232.3 57.3C232.4 57.4 232.5 57.4 232.6 57.4C232.7 57.4 232.8 57.4 232.9 57.3C233 57.2 233 57.1 233 57C233 56.9 233 56.8 232.9 56.7C232.8 56.6 232.7 56.6 232.6 56.6C232.5 56.6 232.4 56.6 232.3 56.7H232.1V56.5C232.2 56.4 232.4 56.3 232.6 56.3C232.8 56.3 233 56.4 233.1 56.5C233.2 56.6 233.3 56.8 233.3 57C233.3 57.2 233.2 57.4 233.1 57.5C233 57.6 232.8 57.7 232.6 57.7C232.4 57.7 232.2 57.6 232.1 57.5V57.3H232.3Z" fill="#22576F"/>
<path d="M230.4 56.9L230.2 57H230.1V56.9L230.2 56.7H230.4V56.9Z" fill="#22576F"/>
<path d="M231 56.6C230.8 53.9 228.5 51.8 225.8 51.8C225.6 51.8 225.5 51.8 225.3 51.8C222.6 52 220.5 54.3 220.5 57C220.5 57.2 220.5 57.3 220.5 57.5C220.7 60.2 223 62.3 225.7 62.3C225.9 62.3 226 62.3 226.2 62.3C228.8 62.1 230.8 60.1 231 57.5L231.1 57.4L231.2 57.5C231 60.2 228.8 62.3 226.2 62.5C226 62.5 225.9 62.5 225.7 62.5C222.9 62.5 220.5 60.3 220.2 57.4C220.2 57.2 220.2 57.1 220.2 56.9C220.2 54.1 222.4 51.7 225.2 51.4C225.4 51.4 225.5 51.4 225.7 51.4C228.5 51.4 231 53.6 231.2 56.5L231.1 56.6H231Z" fill="#22576F"/>
<path d="M224.7 76.5H224.6C224.6 75.8 225.1 75.3 225.8 75.3C226.5 75.3 227 75.8 227 76.5C227 77.2 226.5 77.7 225.8 77.7C225.1 77.7 224.6 77.2 224.6 76.5H224.7H224.8C224.8 77 225.2 77.5 225.8 77.5C226.3 77.5 226.8 77.1 226.8 76.5C226.8 76 226.4 75.5 225.8 75.5C225.3 75.5 224.8 75.9 224.8 76.5H224.7Z" fill="#22576F"/>
<path d="M225.1 76.5H225C225 76.1 225.3 75.7 225.8 75.7C226.2 75.7 226.6 76 226.6 76.5C226.6 76.9 226.3 77.3 225.8 77.3C225.4 77.3 225 77 225 76.5H225.1H225.2C225.2 76.8 225.4 77 225.7 77C226 77 226.2 76.8 226.2 76.5C226.2 76.2 226 76 225.7 76C225.4 76 225.2 76.2 225.2 76.5H225.1Z" fill="#22576F"/>
<path d="M228.7 75.9H232.1L232.2 76L232.1 76.2H228.7L228.6 76L228.7 75.9Z" fill="#22576F"/>
<path d="M228.7 76.2L228.6 76.3L228.5 76.4L228.4 76.3C228.4 76.1 228.6 75.9 228.8 75.9L228.9 76L228.7 76.2Z" fill="#22576F"/>
<path d="M228.6 76.7L228.7 76.8L228.8 76.9L228.7 77C228.5 77 228.3 76.8 228.3 76.6L228.4 76.5L228.6 76.7Z" fill="#22576F"/>
<path d="M228.6 76.3V76.7L228.4 76.8L228.3 76.7V76.3L228.4 76.2L228.6 76.3Z" fill="#22576F"/>
<path d="M232.1 77L231.9 76.9L231.8 76.8L231.9 76.7C232 76.7 232.2 76.8 232.3 76.9V77.1L232.1 77Z" fill="#22576F"/>
<path d="M231.9 76.1L232.1 76H232.3V76.2C232.2 76.3 232.1 76.4 231.9 76.4L231.8 76.3L231.9 76.1Z" fill="#22576F"/>
<path d="M230.3 76.1H231.9L232 76.3L231.9 76.4H230.3L230.2 76.3L230.3 76.1Z" fill="#22576F"/>
<path d="M231.9 76.9H230.3L230.2 76.8L230.3 76.6H231.9L232 76.8L231.9 76.9Z" fill="#22576F"/>
<path d="M230.2 76.5L230.4 76.7V76.8H230.2L230.1 76.7V76.5H230.2Z" fill="#22576F"/>
<path d="M230.3 76.4V76.6L230.1 76.7L230 76.6V76.4L230.1 76.3L230.3 76.4Z" fill="#22576F"/>
<path d="M232.3 77.1H232.1L232 77L232.1 76.9C232.2 76.9 232.3 76.9 232.4 77L232.5 77.2L232.3 77.1Z" fill="#22576F"/>
<path d="M232.1 75.9H232.3L232.5 76L232.4 76.2C232.3 76.2 232.2 76.3 232.1 76.3L232 76L232.1 75.9Z" fill="#22576F"/>
<path d="M232.1 77.1H228.7L228.6 77L228.7 76.8H232.1L232.2 77L232.1 77.1Z" fill="#22576F"/>
<path d="M232.2 76.9C232.3 77 232.5 77.1 232.6 77.1C232.7 77.1 232.9 77.1 233 77C233.1 76.9 233.2 76.7 233.2 76.6C233.2 76.5 233.2 76.3 233.1 76.2C233 76.1 232.8 76 232.7 76C232.6 76 232.4 76 232.3 76.1H232.1V76C232.3 75.9 232.5 75.8 232.6 75.8C232.8 75.8 233 75.9 233.2 76.1C233.3 76.3 233.4 76.5 233.4 76.6C233.4 76.8 233.3 77 233.1 77.2C232.9 77.3 232.7 77.4 232.6 77.4C232.4 77.4 232.2 77.3 232 77.1V76.9H232.2Z" fill="#22576F"/>
<path d="M232.3 76.8C232.4 76.9 232.5 76.9 232.6 76.9C232.7 76.9 232.8 76.9 232.9 76.8C233 76.7 233 76.6 233 76.5C233 76.4 233 76.3 232.9 76.2C232.8 76.1 232.7 76.1 232.6 76.1C232.5 76.1 232.4 76.1 232.3 76.2H232.1V76C232.2 75.9 232.4 75.8 232.6 75.8C232.8 75.8 233 75.9 233.1 76C233.2 76.1 233.3 76.3 233.3 76.5C233.3 76.7 233.2 76.9 233.1 77C233 77.1 232.8 77.2 232.6 77.2C232.4 77.2 232.2 77.1 232.1 77V76.8H232.3Z" fill="#22576F"/>
<path d="M230.4 76.4L230.2 76.5H230.1V76.3L230.2 76.2H230.4V76.4Z" fill="#22576F"/>
<path d="M231 76.1C230.8 73.4 228.5 71.3 225.8 71.3C225.6 71.3 225.5 71.3 225.3 71.3C222.6 71.5 220.5 73.8 220.5 76.5C220.5 76.7 220.5 76.8 220.5 77C220.7 79.7 223 81.8 225.7 81.8C225.9 81.8 226 81.8 226.2 81.8C228.8 81.6 230.8 79.6 231 77L231.1 76.9L231.2 77C231 79.7 228.8 81.8 226.2 82C226 82 225.9 82 225.7 82C222.9 82 220.5 79.8 220.2 76.9C220.2 76.7 220.2 76.6 220.2 76.4C220.2 73.6 222.4 71.2 225.2 70.9C225.4 70.9 225.5 70.9 225.7 70.9C228.5 70.9 231 73.1 231.2 76L231.1 76.1H231Z" fill="#22576F"/>
<path d="M220.9 41.3C221.9 41.3 222.8 41.2 223.7 40.9C224.5 40.7 225.2 40.3 225.9 39.8C226.1 39.6 226.4 39.4 226.6 39.2H226.8V39.4C226.6 39.6 226.4 39.8 226.1 40C225.4 40.5 224.6 40.9 223.8 41.1C222.9 41.4 221.9 41.5 220.9 41.5L220.8 41.4L220.9 41.3Z" fill="#22576F"/>
<path d="M220.9 41.6C219.9 41.6 219 41.5 218 41.2C217.2 41 216.4 40.6 215.7 40.1C215 39.6 214.5 39 214.1 38.3C213.8 37.7 213.6 37 213.6 36.4C213.6 35.7 213.8 35 214.1 34.5C214.5 33.8 215.1 33.2 215.7 32.7C216.4 32.2 217.2 31.8 218 31.6C218.9 31.3 219.9 31.2 220.9 31.2C221.9 31.2 222.8 31.3 223.8 31.6C224.6 31.8 225.4 32.2 226.1 32.7C226.3 32.9 226.6 33.1 226.8 33.3V33.4V39.6L226.7 39.7L226.6 39.6V33.4H226.7L226.6 33.5C226.4 33.3 226.2 33.1 225.9 32.9C225.2 32.4 224.5 32.1 223.7 31.8C222.8 31.5 221.8 31.4 220.9 31.4C219.9 31.4 219 31.5 218.1 31.8C217.3 32 216.6 32.4 215.9 32.9C215.3 33.4 214.7 34 214.3 34.6C214 35.2 213.8 35.8 213.8 36.4C213.8 37 214 37.7 214.3 38.2C214.7 38.9 215.2 39.5 215.9 39.9C216.6 40.4 217.3 40.7 218.1 41C219 41.3 220 41.4 220.9 41.4L221 41.5L220.9 41.6Z" fill="#22576F"/>
<path d="M230 40.5C227.7 40.6 225.4 40.9 223.2 41.4L223.1 41.3L223.2 41.2C225.5 40.8 227.8 40.5 230.1 40.3L230.2 40.4L230 40.5Z" fill="#22576F"/>
<path d="M229.2 34.3H229.1C229.2 33.8 229.4 33.3 229.6 32.8C229.9 32.2 230.3 31.7 230.8 31.4C231 31.3 231.2 31.2 231.4 31.2H231.6L233.7 31.6C233.9 31.6 234 31.8 234 32V40.7C234 40.9 233.9 41.1 233.7 41.1L231.6 41.5H231.4C231.2 41.5 231 41.4 230.8 41.3C230.3 40.9 229.9 40.4 229.6 39.9C229.4 39.4 229.2 38.9 229.1 38.4C229 37.7 228.9 37.1 228.9 36.4C228.9 35.7 229 35 229.1 34.4L229.2 34.3H229.3C229.2 35 229.1 35.6 229.1 36.3C229.1 37 229.2 37.6 229.3 38.3C229.4 38.8 229.6 39.3 229.8 39.8C230.1 40.3 230.4 40.8 230.9 41.1C231 41.2 231.2 41.2 231.3 41.2H231.4L233.5 40.8L233.6 40.6V31.9L233.5 31.7L231.4 31.3H231.3C231.1 31.3 231 31.3 230.9 31.4C230.4 31.7 230 32.2 229.8 32.7C229.6 33.2 229.4 33.7 229.3 34.2L229.2 34.3Z" fill="#22576F"/>
<path d="M230 32.4C227.7 32.3 225.4 32 223.1 31.5L223 31.4L223.1 31.3C225.4 31.7 227.6 32 229.9 32.2L230 32.3V32.4Z" fill="#22576F"/>
<path d="M230.7 36.3H230.6C230.6 35.9 230.9 35.6 231.3 35.6C231.7 35.6 232 35.9 232 36.3C232 36.7 231.7 37 231.3 37C230.9 37 230.6 36.7 230.6 36.3H230.7H230.8C230.8 36.5 231 36.7 231.2 36.7C231.4 36.7 231.6 36.5 231.6 36.3C231.6 36.1 231.4 35.9 231.2 35.9C231 35.9 230.8 36.1 230.8 36.3H230.7Z" fill="#22576F"/>
<path d="M123.7 156.8C124.7 156.8 125.6 156.7 126.5 156.4C127.3 156.2 128 155.8 128.7 155.3C128.9 155.1 129.2 154.9 129.4 154.7H129.6V154.9C129.4 155.1 129.2 155.3 128.9 155.5C128.2 156 127.4 156.4 126.6 156.6C125.7 156.9 124.7 157 123.7 157L123.6 156.9L123.7 156.8Z" fill="#22576F"/>
<path d="M123.7 157C122.7 157 121.8 156.9 120.8 156.6C120 156.4 119.2 156 118.5 155.5C117.8 155 117.3 154.4 116.9 153.7C116.6 153.1 116.4 152.4 116.4 151.8C116.4 151.1 116.6 150.4 116.9 149.9C117.3 149.2 117.9 148.6 118.5 148.1C119.2 147.6 120 147.2 120.8 147C121.7 146.7 122.7 146.6 123.7 146.6C124.7 146.6 125.6 146.7 126.6 147C127.4 147.2 128.2 147.6 128.9 148.1C129.1 148.3 129.4 148.5 129.6 148.7V148.8V155L129.5 155.1L129.4 155V148.8H129.5L129.4 148.9C129.2 148.7 129 148.5 128.7 148.3C128 147.8 127.3 147.5 126.5 147.2C125.6 146.9 124.6 146.8 123.7 146.8C122.7 146.8 121.8 146.9 120.9 147.2C120.1 147.4 119.4 147.8 118.7 148.3C118.1 148.8 117.5 149.4 117.1 150C116.8 150.6 116.6 151.2 116.6 151.8C116.6 152.4 116.8 153.1 117.1 153.6C117.5 154.3 118 154.9 118.7 155.3C119.4 155.8 120.1 156.1 120.9 156.4C121.8 156.7 122.8 156.8 123.7 156.8L123.8 156.9L123.7 157Z" fill="#22576F"/>
<path d="M132.7 155.9C130.4 156 128.1 156.3 125.9 156.8L125.8 156.7L125.9 156.6C128.2 156.2 130.5 155.9 132.8 155.7L132.9 155.8L132.7 155.9Z" fill="#22576F"/>
<path d="M131.9 149.7H131.8C131.9 149.2 132.1 148.7 132.3 148.2C132.6 147.6 133 147.1 133.5 146.8C133.7 146.7 133.9 146.6 134.1 146.6H134.3L136.4 147C136.6 147 136.7 147.2 136.7 147.4V156.1C136.7 156.3 136.6 156.5 136.4 156.5L134.3 156.9H134.1C133.9 156.9 133.7 156.8 133.5 156.7C133 156.3 132.6 155.8 132.3 155.3C132.1 154.8 131.9 154.3 131.8 153.8C131.7 153.1 131.6 152.5 131.6 151.8C131.6 151.1 131.7 150.4 131.8 149.8L131.9 149.7H132C131.9 150.4 131.8 151 131.8 151.7C131.8 152.4 131.9 153 132 153.7C132.1 154.2 132.3 154.7 132.5 155.2C132.8 155.7 133.1 156.2 133.6 156.5C133.7 156.6 133.9 156.6 134 156.6H134.1L136.2 156.2L136.3 156V147.3L136.2 147.1L134.1 146.7H134C133.8 146.7 133.7 146.7 133.6 146.8C133.1 147.1 132.7 147.6 132.5 148.1C132.3 148.6 132.1 149.1 132 149.6L131.9 149.7Z" fill="#22576F"/>
<path d="M132.7 147.8C130.4 147.7 128.1 147.4 125.8 146.9L125.7 146.8L125.8 146.7C128.1 147.1 130.3 147.4 132.6 147.6L132.7 147.7V147.8Z" fill="#22576F"/>
<path d="M133.4 151.7H133.3C133.3 151.3 133.6 151 134 151C134.4 151 134.7 151.3 134.7 151.7C134.7 152.1 134.4 152.4 134 152.4C133.6 152.4 133.3 152.1 133.3 151.7H133.4H133.5C133.5 151.9 133.7 152.1 133.9 152.1C134.1 152.1 134.3 151.9 134.3 151.7C134.3 151.5 134.1 151.3 133.9 151.3C133.7 151.3 133.5 151.5 133.5 151.7H133.4Z" fill="#22576F"/>
<path d="M33.3 124V124.2H14V125.1H33.2V124H33.3V124.2V124H33.4V125.2V125.3H33.3H13.9H13.8V125.2V124L13.9 123.9H33.3L33.4 124H33.3Z" fill="#22576F"/>
<path d="M54.2 124V124.2H34.9V125.1H54.1V124H54.2V124.2V124H54.3V125.2V125.3H54.2H34.8H34.7L34.6 125.2V124H34.7L34.8 123.9H54.2L54.3 124H54.2Z" fill="#22576F"/>
<path d="M33.4 125.2V126.3L33.3 126.4L33.2 126.3V125.2L33.3 125.1L33.4 125.2Z" fill="#22576F"/>
<path d="M33.4 139.9V142L33.3 142.1L33.2 142V139.9L33.3 139.8L33.4 139.9ZM33.4 136.7V138.8L33.3 138.9L33.2 138.8V136.7L33.3 136.6L33.4 136.7ZM33.4 133.6V135.7L33.3 135.8L33.2 135.7V133.6L33.3 133.5L33.4 133.6ZM33.4 130.5V132.6L33.3 132.7L33.2 132.6V130.5L33.3 130.4L33.4 130.5ZM33.4 127.3V129.4L33.3 129.5L33.2 129.4V127.3L33.3 127.2L33.4 127.3Z" fill="#22576F"/>
<path d="M33.4 143V144.1L33.3 144.2L33.2 144.1V143L33.3 142.9L33.4 143Z" fill="#22576F"/>
<path d="M33.3 144.2H32.2L32.1 144.1L32.2 144H33.3L33.4 144.1L33.3 144.2Z" fill="#22576F"/>
<path d="M18.2 144.2H16L15.9 144.1L16 144H18.2L18.3 144.1L18.2 144.2ZM21.4 144.2H19.2L19.1 144.1L19.2 144H21.4L21.5 144.1L21.4 144.2ZM24.7 144.2H22.5L22.4 144.1L22.5 144H24.7L24.8 144.1L24.7 144.2ZM27.9 144.2H25.7L25.6 144.1L25.7 144H27.9L28 144.1L27.9 144.2ZM31.2 144.2H29L28.9 144.1L29 144H31.2L31.3 144.1L31.2 144.2Z" fill="#22576F"/>
<path d="M15 144.2H13.9L13.8 144.1L13.9 144H15L15.1 144.1L15 144.2Z" fill="#22576F"/>
<path d="M13.8 144.1V143L13.9 142.9L14 143V144.1L13.9 144.2L13.8 144.1Z" fill="#22576F"/>
<path d="M13.8 129.4V127.3L13.9 127.2L14 127.3V129.4L13.9 129.5L13.8 129.4ZM13.8 132.6V130.5L13.9 130.4L14 130.5V132.6L13.9 132.7L13.8 132.6ZM13.8 135.7V133.6L13.9 133.5L14 133.6V135.7L13.9 135.8L13.8 135.7ZM13.8 138.8V136.7L13.9 136.6L14 136.7V138.8L13.9 138.9L13.8 138.8ZM13.8 142V139.9L13.9 139.8L14 139.9V142L13.9 142.1L13.8 142Z" fill="#22576F"/>
<path d="M13.8 126.3V125.2L13.9 125.1L14 125.2V126.3L13.9 126.4L13.8 126.3Z" fill="#22576F"/>
<path d="M34.9 125.2V126.3L34.8 126.4L34.6 126.3V125.2L34.8 125.1L34.9 125.2Z" fill="#22576F"/>
<path d="M34.9 139.9V142L34.8 142.1L34.7 142V139.9L34.8 139.8L34.9 139.9ZM34.9 136.7V138.8L34.8 138.9L34.7 138.8V136.7L34.8 136.6L34.9 136.7ZM34.9 133.6V135.7L34.8 135.8L34.7 135.7V133.6L34.8 133.5L34.9 133.6ZM34.9 130.5V132.6L34.8 132.7L34.7 132.6V130.5L34.8 130.4L34.9 130.5ZM34.9 127.3V129.4L34.8 129.5L34.7 129.4V127.3L34.8 127.2L34.9 127.3Z" fill="#22576F"/>
<path d="M34.9 143V144.1L34.8 144.2L34.6 144.1V143L34.8 142.9L34.9 143Z" fill="#22576F"/>
<path d="M34.8 144H35.8L36 144.1L35.8 144.2H34.8L34.6 144.1L34.8 144Z" fill="#22576F"/>
<path d="M49.9 144H52.1L52.2 144.1L52.1 144.2H49.9L49.8 144.1L49.9 144ZM46.6 144H48.8L48.9 144.1L48.8 144.2H46.6L46.5 144.1L46.6 144ZM43.4 144H45.6L45.7 144.1L45.6 144.2H43.4L43.3 144.1L43.4 144ZM40.2 144H42.4L42.5 144.1L42.4 144.2H40.2L40.1 144.1L40.2 144ZM36.9 144H39.1L39.2 144.1L39.1 144.2H36.9L36.8 144.1L36.9 144Z" fill="#22576F"/>
<path d="M53.1 144H54.2L54.3 144.1L54.2 144.2H53.1L53 144.1L53.1 144Z" fill="#22576F"/>
<path d="M54.1 144.1V143L54.2 142.9L54.3 143V144.1L54.2 144.2L54.1 144.1Z" fill="#22576F"/>
<path d="M54.1 129.4V127.3L54.2 127.2L54.3 127.3V129.4L54.2 129.5L54.1 129.4ZM54.1 132.6V130.5L54.2 130.4L54.3 130.5V132.6L54.2 132.7L54.1 132.6ZM54.1 135.7V133.6L54.2 133.5L54.3 133.6V135.7L54.2 135.8L54.1 135.7ZM54.1 138.8V136.7L54.2 136.6L54.3 136.7V138.8L54.2 138.9L54.1 138.8ZM54.1 142V139.9L54.2 139.8L54.3 139.9V142L54.2 142.1L54.1 142Z" fill="#22576F"/>
<path d="M54.1 126.3V125.2L54.2 125.1L54.3 125.2V126.3L54.2 126.4L54.1 126.3Z" fill="#22576F"/>
<path d="M134.5 174.6H132.8L132.7 174.5L132.8 174.4H134.5L134.6 174.5L134.5 174.6Z" fill="#22576F"/>
<path d="M132.8 174.6H131.9L131.8 174.5L131.9 174.4H132.8L132.9 174.5L132.8 174.6Z" fill="#22576F"/>
<path d="M132 174.6C131.7 174.6 131.5 174.3 131.5 174C131.5 173.7 131.7 173.5 132 173.5L132.1 173.6L132 173.7C131.9 173.7 131.8 173.8 131.8 174C131.8 174.2 131.9 174.3 132 174.3L132.1 174.4L132 174.6Z" fill="#22576F"/>
<path d="M134.5 173.7H132.8L132.7 173.6L132.8 173.5H134.5L134.6 173.6L134.5 173.7Z" fill="#22576F"/>
<path d="M132.8 173.7H131.9L131.8 173.6L131.9 173.5H132.8L132.9 173.6L132.8 173.7Z" fill="#22576F"/>
<path d="M136.5 176.4H136.6L136.7 176.5L136.6 176.6H136.5L136.4 176.5L136.5 176.4Z" fill="#22576F"/>
<path d="M136.5 176.4H136.6L136.7 176.5L136.6 176.6H136.5L136.4 176.5L136.5 176.4Z" fill="#22576F"/>
<path d="M137.2 176.5L136.6 176.6L136.5 176.5L136.6 176.4L137.1 176.3L137.3 176.4L137.2 176.5Z" fill="#22576F"/>
<path d="M134.4 174.6V173.5L134.5 173.3L134.6 173.5V174.6L134.5 174.7L134.4 174.6Z" fill="#22576F"/>
<path d="M134.4 174.6V173.5L134.6 173.3L134.7 173.5V174.6L134.6 174.7L134.4 174.6Z" fill="#22576F"/>
<path d="M134.5 174.6V173.5L134.7 173.3L134.8 173.5V174.6L134.7 174.7L134.5 174.6Z" fill="#22576F"/>
<path d="M136.3 174.6L136.4 174.8L136.3 174.9L136.2 174.8L136.3 174.6Z" fill="#22576F"/>
<path d="M134.5 174.5L134.7 174.6L134.5 174.7L134.4 174.6L134.5 174.5Z" fill="#22576F"/>
<path d="M134.5 174.5L134.7 174.6L134.5 174.7L134.4 174.6L134.5 174.5Z" fill="#22576F"/>
<path d="M134.7 174.5H136.3L136.4 174.6L136.3 174.7H134.7L134.5 174.6L134.7 174.5Z" fill="#22576F"/>
<path d="M134.7 174.7H134.6L134.4 174.6L134.6 174.4H134.7L134.8 174.6L134.7 174.7Z" fill="#22576F"/>
<path d="M133.6 174.1H134.3L134.4 174.2L134.3 174.3H133.6L133.5 174.2L133.6 174.1Z" fill="#22576F"/>
<path d="M133.6 173.7H134.3L134.4 173.8L134.3 174H133.6L133.5 173.8L133.6 173.7Z" fill="#22576F"/>
<path d="M134.7 173.6H134.6L134.4 173.5L134.6 173.4H134.7L134.8 173.5L134.7 173.6Z" fill="#22576F"/>
<path d="M136.2 174.7V173.3L136.3 173.2L136.4 173.3V174.7L136.3 174.9L136.2 174.7Z" fill="#22576F"/>
<path d="M136.2 174.8V174.7L136.3 174.6L136.5 174.7V174.8L136.3 174.9L136.2 174.8Z" fill="#22576F"/>
<path d="M136.2 174.8V173.3L136.3 173.2L136.5 173.3V174.8L136.3 174.9L136.2 174.8Z" fill="#22576F"/>
<path d="M134.7 173.3H136.3L136.4 173.5L136.3 173.6H134.7L134.5 173.5L134.7 173.3Z" fill="#22576F"/>
<path d="M134.5 173.3L134.7 173.5L134.5 173.6L134.4 173.5L134.5 173.3Z" fill="#22576F"/>
<path d="M134.5 173.3L134.7 173.5L134.5 173.6L134.4 173.5L134.5 173.3Z" fill="#22576F"/>
<path d="M136.3 173.2L136.4 173.3L136.3 173.4L136.2 173.3L136.3 173.2Z" fill="#22576F"/>
<path d="M136.3 176.4V171.7L136.4 171.5L136.6 171.7V176.4L136.4 176.5L136.3 176.4Z" fill="#22576F"/>
<path d="M137.3 171.7V176.4L137.2 176.5L137 176.4V171.7L137.2 171.6L137.3 171.7Z" fill="#22576F"/>
<path d="M136.5 171.5H136.6L136.7 171.6L136.6 171.7H136.5L136.4 171.6L136.5 171.5Z" fill="#22576F"/>
<path d="M136.5 171.5H136.6L136.7 171.6L136.6 171.7H136.5L136.4 171.6L136.5 171.5Z" fill="#22576F"/>
<path d="M137.1 171.8L136.6 171.7L136.5 171.6L136.6 171.5L137.2 171.6L137.3 171.7L137.1 171.8Z" fill="#22576F"/>
<path d="M136.3 175.1C136.3 175 136.2 174.9 136.2 174.8L136.3 174.6L136.5 174.7C136.5 174.8 136.6 174.9 136.6 175L136.5 175.2L136.3 175.1Z" fill="#22576F"/>
<path d="M136.2 173.3C136.2 173.2 136.3 173.1 136.3 173L136.5 172.9L136.6 173.1C136.6 173.2 136.5 173.3 136.5 173.4L136.3 173.5L136.2 173.3Z" fill="#22576F"/>
<path d="M133.2 174H133.1C133.1 173.8 133.3 173.6 133.5 173.6C133.7 173.6 133.9 173.8 133.9 174C133.9 174.2 133.7 174.4 133.5 174.4C133.3 174.4 133.1 174.2 133.1 174H133.2H133.3L133.4 174.1L133.5 174L133.4 173.9L133.3 174H133.2Z" fill="#22576F"/>
<path d="M134.4 174.4L134.2 174.2L134.3 174.1C134.5 174.1 134.6 174.2 134.6 174.4L134.5 174.5L134.4 174.4Z" fill="#22576F"/>
<path d="M134.3 173.7L134.5 173.5L134.6 173.6C134.6 173.8 134.5 173.9 134.3 173.9L134.2 173.8L134.3 173.7Z" fill="#22576F"/>
<path d="M136.5 176.3L136.6 176.4V176.6H136.4V176.5V176.3H136.5Z" fill="#22576F"/>
<path d="M136.6 171.7H136.5H136.4V171.6V171.5H136.6V171.7Z" fill="#22576F"/>
<path d="M136.4 173.4H136.2V173.2H136.4V173.4Z" fill="#22576F"/>
<path d="M136.4 174.6V174.7V174.8H136.2V174.6H136.4Z" fill="#22576F"/>
<path d="M134.5 173.6V173.5V173.4H134.6V173.6H134.5Z" fill="#22576F"/>
<path d="M134.6 173.5V173.6H134.4V173.4H134.6V173.5Z" fill="#22576F"/>
<path d="M134.6 174.5V174.7H134.4V174.5H134.6Z" fill="#22576F"/>
<path d="M134.5 174.5H134.6V174.7H134.5V174.5Z" fill="#22576F"/>
<path d="M129.3 174H129.2C129.2 173.3 129.7 172.8 130.4 172.8C131.1 172.8 131.6 173.3 131.6 174C131.6 174.7 131.1 175.2 130.4 175.2C129.7 175.2 129.2 174.7 129.2 174H129.3H129.4C129.4 174.5 129.8 175 130.4 175C130.9 175 131.4 174.6 131.4 174C131.4 173.5 131 173 130.4 173C129.9 173 129.4 173.4 129.4 174H129.3Z" fill="#22576F"/>
<path d="M94 162.3V162.2H137.2H137.3V162.3V185.4V185.5H137.2H94H93.9V185.4V162.3V162.2H94V162.3H94.1V185.2H137V162.5H94V162.3H94.1H94Z" fill="#22576F"/>
<path d="M134.1 174.5V182.5L134 182.6H133.9H107.7L107.6 182.5L107.7 182.4H133.8V174.5L133.9 174.4L134.1 174.5Z" fill="#22576F"/>
<path d="M106.2 182.6H97L96.9 182.5V165.6L97 165.5H133.9H134L134.1 165.6V173.6L133.9 173.7L133.8 173.6V165.7H97.2V182.4H106.2L106.3 182.5L106.2 182.6Z" fill="#22576F"/>
<path d="M132.6 174.5V181.2V181.3L132.5 181.4H103.7L103.6 181.3V181.2V166.8V166.7H103.7H132.5H132.6V166.8V173.6L132.5 173.7L132.4 173.6V167H103.8V181.1H132.4V174.5L132.5 174.4L132.6 174.5Z" fill="#22576F"/>
<path d="M106.2 184.3H107.7L107.9 184.4L107.7 184.5H106.2L106 184.4L106.2 184.3Z" fill="#22576F"/>
<path d="M109.5 184.9H104.3L104.2 184.8L104.3 184.7H109.5L109.7 184.8L109.5 184.9Z" fill="#22576F"/>
<path d="M106.2 184.5C105.6 184.5 105 184.7 104.4 184.8L104.2 184.7L104.3 184.5C104.9 184.3 105.5 184.2 106.1 184.2L106.2 184.3V184.5Z" fill="#22576F"/>
<path d="M109.5 184.8C108.9 184.6 108.3 184.5 107.7 184.5L107.6 184.4L107.7 184.3C108.3 184.3 108.9 184.5 109.5 184.6L109.6 184.8H109.5Z" fill="#22576F"/>
<path d="M109.4 185V184.8L109.5 184.7L109.7 184.8V185L109.6 185.1L109.4 185Z" fill="#22576F"/>
<path d="M104.5 184.8L104.4 185L104.3 185.1L104.2 185V184.8L104.3 184.7L104.5 184.8Z" fill="#22576F"/>
<path d="M109.5 184.9L109.4 184.8V184.6H109.6V184.7V184.9H109.5Z" fill="#22576F"/>
<path d="M104.5 184.8L104.4 184.9H104.3L104.2 184.7L104.3 184.6H104.5V184.8Z" fill="#22576F"/>
<path d="M107.6 184.4V183.7L107.7 183.6L107.8 183.7V184.4L107.7 184.5L107.6 184.4Z" fill="#22576F"/>
<path d="M106.3 183.7V184.4L106.2 184.5L106 184.4V183.7L106.2 183.6L106.3 183.7Z" fill="#22576F"/>
<path d="M106.3 183.2H106.9L107.1 183.3L106.9 183.5H106.3L106.2 183.3L106.3 183.2Z" fill="#22576F"/>
<path d="M106.9 183.2L107.1 183.3L106.9 183.5L106.8 183.3L106.9 183.2Z" fill="#22576F"/>
<path d="M107.7 183.5H107.6L107.4 183.3L107.6 183.2H107.7L107.8 183.3L107.7 183.5Z" fill="#22576F"/>
<path d="M106.3 183.5H106.2L106.1 183.3L106.2 183.2H106.3L106.5 183.3L106.3 183.5Z" fill="#22576F"/>
<path d="M106.9 183.2H107.6L107.7 183.3L107.6 183.5H106.9L106.8 183.3L106.9 183.2Z" fill="#22576F"/>
<path d="M107.6 183.3L107.5 182.2L107.7 182.1L107.8 182.2V183.3L107.7 183.5L107.6 183.3Z" fill="#22576F"/>
<path d="M106.3 182.2V183.3L106.2 183.5L106.1 183.3V182.2L106.2 182.1L106.3 182.2Z" fill="#22576F"/>
<path d="M107.6 183.2H107.8V183.4H107.6V183.2Z" fill="#22576F"/>
<path d="M106.3 183.2V183.3V183.4H106.1V183.2H106.3Z" fill="#22576F"/>
<path d="M106.3 182.3H106.1V182.2V182.1H106.3V182.3Z" fill="#22576F"/>
<path d="M107.6 182.3V182.1H107.7L107.8 182.2V182.3H107.6Z" fill="#22576F"/>
<path d="M107.6 182.3C107.4 182.3 107.1 182.3 106.9 182.3C106.7 182.3 106.4 182.3 106.2 182.3L106.1 182.2L106.2 182.1C106.4 182.1 106.7 182.1 106.9 182.1C107.1 182.1 107.4 182.1 107.6 182.1L107.7 182.2L107.6 182.3Z" fill="#22576F"/>
<path d="M107.6 183.7C107.6 183.6 107.6 183.5 107.5 183.4V183.2H107.7C107.8 183.3 107.8 183.5 107.8 183.7L107.7 183.8L107.6 183.7Z" fill="#22576F"/>
<path d="M106.4 183.4C106.3 183.5 106.3 183.6 106.3 183.7L106.2 183.8L106.1 183.7C106.1 183.5 106.1 183.4 106.2 183.2H106.4V183.4Z" fill="#22576F"/>
<path d="M104.4 185V185.4L104.3 185.5L104.2 185.4V185L104.3 184.8L104.4 185Z" fill="#22576F"/>
<path d="M109.7 185V185.4L109.6 185.5L109.4 185.4V185L109.6 184.8L109.7 185Z" fill="#22576F"/>
<path d="M127.4 131.4H127.3C127.3 130.7 127.8 130.2 128.5 130.2C129.2 130.2 129.7 130.7 129.7 131.4C129.7 132.1 129.2 132.6 128.5 132.6C127.8 132.6 127.3 132.1 127.3 131.4H127.4H127.5C127.5 131.9 127.9 132.4 128.5 132.4C129 132.4 129.5 132 129.5 131.4C129.5 130.9 129.1 130.4 128.5 130.4C128 130.4 127.5 130.8 127.5 131.4H127.4Z" fill="#22576F"/>
<path d="M127.9 131.4H127.8C127.8 131 128.1 130.6 128.6 130.6C129 130.6 129.4 130.9 129.4 131.4C129.4 131.8 129.1 132.2 128.6 132.2C128.2 132.2 127.8 131.9 127.8 131.4H127.9H128C128 131.7 128.2 131.9 128.5 131.9C128.8 131.9 129 131.7 129 131.4C129 131.1 128.8 130.9 128.5 130.9C128.2 130.9 128 131.1 128 131.4H127.9Z" fill="#22576F"/>
<path d="M133.8 130.9C133.6 128.2 131.3 126.1 128.6 126.1C128.4 126.1 128.3 126.1 128.1 126.1C125.4 126.3 123.3 128.6 123.3 131.3C123.3 131.5 123.3 131.6 123.3 131.8C123.5 134.5 125.8 136.6 128.5 136.6C128.7 136.6 128.8 136.6 129 136.6C131.6 136.4 133.6 134.4 133.8 131.8L133.9 131.7L134 131.8C133.8 134.5 131.6 136.6 129 136.8C128.8 136.8 128.7 136.8 128.5 136.8C125.7 136.8 123.3 134.6 123 131.8C123 131.6 123 131.5 123 131.3C123 128.5 125.2 126.1 128 125.8C128.2 125.8 128.3 125.8 128.5 125.8C131.3 125.8 133.7 128 134 130.8L133.9 130.9H133.8Z" fill="#22576F"/>
<path d="M131.4 131.7H134.9L135 131.9L134.9 132H131.4L131.3 131.9L131.4 131.7Z" fill="#22576F"/>
<path d="M131.3 131.6L131.4 131.7L131.5 131.8L131.4 131.9C131.2 131.9 131 131.7 131 131.5L131.1 131.4L131.3 131.6Z" fill="#22576F"/>
<path d="M131.4 131.1L131.3 131.2L131.2 131.3L131.1 131.2C131.1 131 131.3 130.8 131.5 130.8L131.6 130.9L131.4 131.1Z" fill="#22576F"/>
<path d="M131.1 131.6V131.2L131.2 131.1L131.3 131.2V131.6L131.2 131.7L131.1 131.6Z" fill="#22576F"/>
<path d="M134.6 131L134.8 130.9H135V131.1C134.9 131.2 134.8 131.3 134.6 131.3L134.5 131.2L134.6 131Z" fill="#22576F"/>
<path d="M134.8 131.8L134.6 131.7L134.5 131.6L134.6 131.5C134.7 131.5 134.9 131.6 135 131.7V131.9L134.8 131.8Z" fill="#22576F"/>
<path d="M133 131.5H134.6L134.8 131.6L134.6 131.8H133L132.9 131.6L133 131.5Z" fill="#22576F"/>
<path d="M134.6 131.3H133L132.9 131.1L133 131H134.6L134.8 131.1L134.6 131.3Z" fill="#22576F"/>
<path d="M133.1 131.2L133 131.4H132.8V131.2L132.9 131.1H133.1V131.2Z" fill="#22576F"/>
<path d="M132.8 131.5V131.3L132.9 131.2L133 131.3V131.5L132.9 131.6L132.8 131.5Z" fill="#22576F"/>
<path d="M134.9 130.8H135.1L135.3 130.9L135.2 131.1C135.1 131.1 135 131.2 134.9 131.2L134.8 131.1L134.9 130.8Z" fill="#22576F"/>
<path d="M135.1 132H134.9L134.8 131.9L134.9 131.8C135 131.8 135.1 131.8 135.2 131.9L135.3 132.1L135.1 132Z" fill="#22576F"/>
<path d="M134.9 131.1H131.4L131.3 130.9L131.4 130.8H134.9L135 130.9L134.9 131.1Z" fill="#22576F"/>
<path d="M134.9 131.8C135 131.9 135.2 132 135.3 132C135.4 132 135.6 132 135.7 131.9C135.8 131.8 135.9 131.6 135.9 131.5C135.9 131.4 135.9 131.2 135.8 131.1C135.7 131 135.5 130.9 135.4 130.9C135.3 130.9 135.1 130.9 135 131H134.8V130.8C135 130.7 135.2 130.6 135.3 130.6C135.5 130.6 135.7 130.7 135.9 130.9C136 131.1 136.1 131.3 136.1 131.4C136.1 131.6 136 131.8 135.8 132C135.6 132.1 135.4 132.2 135.3 132.2C135.1 132.2 134.9 132.1 134.7 131.9V131.7L134.9 131.8Z" fill="#22576F"/>
<path d="M135 131.7C135.1 131.8 135.2 131.8 135.3 131.8C135.4 131.8 135.5 131.8 135.6 131.7C135.7 131.6 135.7 131.5 135.7 131.4C135.7 131.3 135.7 131.2 135.6 131.1C135.5 131 135.4 131 135.3 131C135.2 131 135.1 131 135 131.1V131L135.1 131.1H134.9V130.9C135 130.8 135.2 130.7 135.4 130.7C135.6 130.7 135.8 130.8 135.9 130.9C136 131 136.1 131.2 136.1 131.4C136.1 131.6 136 131.8 135.9 131.9C135.8 132 135.6 132.1 135.4 132.1C135.2 132.1 135 132 134.9 131.9V131.7H135Z" fill="#22576F"/>
<path d="M133 131.4L133.1 131.5V131.7H132.9L132.8 131.6V131.4H133Z" fill="#22576F"/>
<path d="M236.6 249.3H137.2H137.1L137 249.2V234.8L137.2 234.7L137.3 234.8V249.1H236.6L236.7 249.2L236.6 249.3Z" fill="#22576F"/>
<path d="M38.7 90.6V90.5H120.4V87.4H38.8V90.6H38.7V90.5V90.6H38.5V87.3L38.6 87.2H38.7H120.5H120.6V87.3V90.6V90.7L120.5 90.8H38.7L38.6 90.7L38.5 90.6H38.7Z" fill="#22576F"/>
<path d="M218.2 47.4V47.2H234.4L234.5 47.3V47.4V87.3V87.4H234.4H218.2H218.1V87.3V47.4V47.3L218.2 47.2V47.4H218.4V87.2H234.3V47.5H218.2V47.4H218.4H218.2Z" fill="#22576F"/>
<path d="M142.1 38.9V25.3H139.4V57.9H142.1V41.3L142.2 41.2L142.4 41.3V58.1L142.3 58.2H142.2H139.3H139.2L139.1 58.1V25.2L139.2 25.1H139.3H142.2H142.3L142.4 25.2V38.9L142.2 39L142.1 38.9Z" fill="#22576F"/>
<path d="M94 227.6V227.4H111.9V222.1H94.1V227.6H94V227.4V227.6H93.9V222V221.9H94H112.1H112.2V222V227.6V227.7H112.1H94H93.9V227.6H94Z" fill="#22576F"/>
<path d="M171.3 71.5V71.3H182.7V61.5H171.4V71.5H171.3V71.3V71.5H171.2V61.4V61.3H171.3H182.8H182.9V61.4V71.5V71.6H182.8H171.3H171.2V71.5H171.3Z" fill="#22576F"/>
<path d="M9.90002 146.8V146.6H58V125.3H10V146.8H9.90002V146.6V146.8H9.70001V125.2L9.79999 125.1H9.90002H58.1H58.2V125.2V146.8V146.9H58.1H9.90002H9.79999L9.70001 146.8H9.90002Z" fill="#22576F"/>
<path d="M121 141.1V141H137V120.7H121.1V141.1H121V141V141.1H120.8V120.6L120.9 120.5H121H137.2H137.3V120.6V141.1V141.2H137.2H121H120.9L120.8 141.1H121Z" fill="#22576F"/>
<path d="M125 190.4V222L124.8 222.1L124.7 222V190.4L124.8 190.3L125 190.4Z" fill="#22576F"/>
<path d="M123.9 71.3H171.3L171.4 71.5L171.3 71.6H123.9L123.7 71.5L123.9 71.3Z" fill="#22576F"/>
<path d="M3.40002 264V263.9H14.8V231.6V231.5H14.9H15.5V227.7H9.90002H9.79999L9.70001 227.6V150.1L9.79999 150H9.90002H63V120.6V120.5H63.1H65.5V117.4H55.7V120.5H58.1H58.2V120.6V146.8V146.9H58.1H9.90002H9.79999L9.70001 146.8V120.6L9.79999 120.5H9.90002H12.3V117.4H9.90002H9.79999L9.70001 117.3V61.4L9.79999 61.3H9.90002H18.7V57.5H18.1V57.4L18 57.3V54.2H14.9H14.8V54.1V5.39999H3.5V264H3.40002V263.9V264H3.29999V5.3V5.2L3.40002 5.10001H14.9L15 5.2V5.3V54H18.1H18.2L18.3 54.1V57.2H18.9L19 57.3V61.4V61.5H18.9H10V117.1H12.4L12.5 117.2V117.3V120.6V120.7H12.4H10V146.6H58V120.7H55.6H55.5L55.4 120.6V117.3L55.5 117.2L55.6 117.1H65.6L65.7 117.2L65.8 117.3V120.6L65.7 120.7H65.6H63.3V150.1L63.2 150.2H63.1H10V227.4H15.6L15.7 227.5L15.8 227.6V231.6L15.7 231.7H15.6H15V264V264.1H14.9H3.40002H3.29999V264H3.40002Z" fill="#22576F"/>
<path d="M90.5 234.8H90.4V231.7H89.9H89.8V231.6V227.6V227.5L89.9 227.4H90.5V213.6L90.6 213.5H90.7H94H94.1V213.6V227.4H111.9V222L112 221.9H112.1H134.8V190.5H94.1V192V192.1L94 192.2H90.7L90.6 192.1L90.5 192V146.1H90.6L90.7 146H94L94.1 146.1V185.2H137V120.7H94.1V123.1V123.2H94H90.7H90.6L90.5 123.1V120.7H87.2H87.1V120.6V117.3V117.2L87.2 117.1H120.4V114.7L120.5 114.6H123.9V114.7H124V117.1H142.2L142.3 117.2V117.3V234.8V234.9L142.2 235H90.5L90.4 234.9V234.8H90.5V234.7H142.1V117.4H123.9H123.8L123.7 117.3V114.9H120.6V117.3V117.4H120.5H87.4V120.5H90.7L90.8 120.6V123H93.9V120.6V120.5H94H137.2H137.3V120.6V185.4V185.5H137.2H94H93.9V185.4V146.3H90.8V191.9H93.9V190.4V190.3H94H134.9H135V190.4V222V222.1H134.9H112.2V227.6V227.7H112.1H94H93.9V227.6V213.7H90.8V227.6L90.7 227.7H90.1V231.5H90.5H90.6V231.6V234.8H90.5V234.7V234.8Z" fill="#22576F"/>
<path d="M213.3 25.2V25.3H139.4V57.9H186.2V58L186.3 58.1V87.2H188.7H188.8V87.3V90.6V90.7L188.7 90.8H180.5L180.4 90.7V90.6V87.3V87.2H180.5H182.7V61.5H124V87.2H126.2H126.3V87.3V90.6V90.7L126.2 90.8H124V93.2H123.9V93.3H120.5L120.4 93.2V61.5H40.8H40.7V61.4V57.3L40.8 57.2H41.4V54.1V54H41.5H130.9V16.9V16.8H131H213.3H213.4V16.9V25.2V25.3H213.3V25.2H213.2V17.1H131.1V54.1V54.2H131H41.7V57.3L41.6 57.4L41.5 57.5H40.9V61.3H120.5H120.6V61.4V93H123.7V90.6L123.8 90.5H123.9H126V87.4H123.9H123.8L123.7 87.3V61.4L123.8 61.3H123.9H182.8H182.9V61.4V87.3V87.4H182.8H180.6V90.5H188.5V87.4H186.2H186.1L186 87.3V58.2H139.3H139.2L139.1 58.1V25.2L139.2 25.1H139.3H213.3V25.2H213.2H213.3Z" fill="#22576F"/>
<path d="M233.2 16.9V16.8H236.5V5.3V5.2L236.6 5.10001H243.1V5.2L243.2 5.3V264L243.1 264.1H236.6H236.5V264V193.4H233.3L233.2 193.3V190.2H232.6L232.5 190.1V190V186V185.9H232.6H234.3V90.8H210.3L210.2 90.7L210.1 90.6V87.3L210.2 87.2H210.3H234.3V25.3H233.2H233.1V25.2V16.9V16.8H233.2V16.9H233.3V25.1H234.4H234.5V25.2V87.3V87.4H234.4H210.4V90.5H234.4H234.5V90.6V186V186.1H234.4H232.7V189.9H233.3L233.4 190H233.5V193.2H236.6H236.7V193.3V263.9H242.9V5.39999H236.7V16.9V17L236.6 17.1H233.2V16.9H233.3H233.2Z" fill="#22576F"/>
<path d="M150.8 90.6V90.5H155.7V87.4H151V90.6H150.8V90.5V90.6H150.7V87.3L150.8 87.2H155.8H155.9L156 87.3V90.6L155.9 90.7L155.8 90.8H150.8V90.7L150.7 90.6H150.8Z" fill="#22576F"/>
<path d="M40 74.3C40 73.6 39.4 73 38.7 73C38 73 37.4 73.6 37.4 74.3C37.4 75 38 75.6 38.7 75.6C39.4 75.6 40 75 40 74.3H40.1V74.4H38.7H38.6V74.3V74.2H38.7H82.4L79.6 73.2V74.3L79.5 74.4L79.4 74.3V73L79.5 72.9H79.6L83.2 74.2L83.3 74.3L83.2 74.4H38.8H38.7V74.3V74.2H38.8H40.2H40.3V74.3C40.3 75.2 39.6 75.9 38.7 75.9C37.8 75.9 37.1 75.2 37.1 74.3C37.1 73.4 37.8 72.7 38.7 72.7C39.6 72.7 40.3 73.4 40.3 74.3L40.2 74.4L40 74.3Z" fill="#22576F"/>
<path d="M38.1 187.8C38.1 188.2 37.9 188.4 37.6 188.5C38 188.6 38.3 188.8 38.3 189.3C38.3 189.8 37.8 190.2 37.2 190.2H35.8V187H37.1C37.7 187 38.1 187.3 38.1 187.8ZM37.8 187.8C37.8 187.5 37.6 187.3 37.1 187.3H36.2V188.4H37.1C37.5 188.4 37.8 188.2 37.8 187.8ZM38 189.2C38 188.9 37.7 188.7 37.2 188.7H36.2V189.8H37.2C37.7 189.8 38 189.6 38 189.2Z" fill="#22576F"/>
<path d="M41.5 187.3H39.6V188.4H41.3V188.7H39.6V189.8H41.5V190.1H39.2V187H41.5V187.3Z" fill="#22576F"/>
<path d="M43.6 190.1H42.5V187H43.6C44.6 187 45.3 187.7 45.3 188.6C45.3 189.5 44.5 190.1 43.6 190.1ZM43.6 187.3H42.9V189.8H43.6C44.4 189.8 44.9 189.3 44.9 188.6C44.9 187.9 44.4 187.3 43.6 187.3Z" fill="#22576F"/>
<path d="M48.4 190.1L47.5 188.9H46.6V190.1H46.2V187H47.5C48.2 187 48.6 187.4 48.6 187.9C48.6 188.4 48.2 188.7 47.8 188.8L48.8 190.1H48.4ZM47.5 187.3H46.5V188.6H47.5C48 188.6 48.3 188.4 48.3 188C48.3 187.5 48 187.3 47.5 187.3Z" fill="#22576F"/>
<path d="M51.1 190.2C50.2 190.2 49.5 189.5 49.5 188.6C49.5 187.7 50.1 187 51.1 187C52 187 52.7 187.7 52.7 188.6C52.7 189.5 52 190.2 51.1 190.2ZM51.1 187.3C50.4 187.3 49.9 187.9 49.9 188.6C49.9 189.3 50.4 189.9 51.1 189.9C51.8 189.9 52.3 189.3 52.3 188.6C52.3 187.9 51.8 187.3 51.1 187.3Z" fill="#22576F"/>
<path d="M55.1 190.2C54.2 190.2 53.5 189.5 53.5 188.6C53.5 187.7 54.1 187 55.1 187C56 187 56.7 187.7 56.7 188.6C56.7 189.5 56.1 190.2 55.1 190.2ZM55.1 187.3C54.4 187.3 53.9 187.9 53.9 188.6C53.9 189.3 54.4 189.9 55.1 189.9C55.8 189.9 56.3 189.3 56.3 188.6C56.3 187.9 55.8 187.3 55.1 187.3Z" fill="#22576F"/>
<path d="M59.2 189.3L58 187.6V190.1H57.7V187H58.1L59.2 188.7L60.3 187H60.7V190.1H60.3V187.6L59.2 189.3Z" fill="#22576F"/>
<path d="M184.6 137.2H183.8V138.3H183.4V135.2H184.6C185.3 135.2 185.8 135.6 185.8 136.2C185.8 136.9 185.3 137.2 184.6 137.2ZM184.6 135.5H183.8V136.9H184.6C185.1 136.9 185.5 136.6 185.5 136.2C185.5 135.8 185.1 135.5 184.6 135.5Z" fill="#22576F"/>
<path d="M188.6 138.3L187.7 137.1H186.8V138.3H186.4V135.2H187.7C188.4 135.2 188.8 135.6 188.8 136.1C188.8 136.6 188.4 136.9 188 137L189 138.3H188.6ZM187.8 135.5H186.8V136.8H187.8C188.3 136.8 188.6 136.6 188.6 136.2C188.6 135.8 188.3 135.5 187.8 135.5Z" fill="#22576F"/>
<path d="M190.1 135.2V138.3H189.7V135.2H190.1Z" fill="#22576F"/>
<path d="M193.3 135.2H193.6V138.3H193.3L191.3 135.7V138.3H191V135.2H191.3L193.3 137.7V135.2Z" fill="#22576F"/>
<path d="M196 138.4C195.1 138.4 194.4 137.7 194.4 136.8C194.4 135.9 195.1 135.2 196 135.2C196.6 135.2 196.9 135.4 197.2 135.7L197 136C196.7 135.8 196.4 135.6 196 135.6C195.3 135.6 194.8 136.2 194.8 136.9C194.8 137.6 195.3 138.2 196 138.2C196.4 138.2 196.7 138 197 137.8L197.2 138C196.9 138.2 196.5 138.4 196 138.4Z" fill="#22576F"/>
<path d="M198.2 135.2V138.3H197.8V135.2H198.2Z" fill="#22576F"/>
<path d="M200.2 137.2H199.4V138.3H199V135.2H200.2C200.9 135.2 201.4 135.6 201.4 136.2C201.5 136.9 200.9 137.2 200.2 137.2ZM200.3 135.5H199.5V136.9H200.3C200.8 136.9 201.2 136.6 201.2 136.2C201.1 135.8 200.8 135.5 200.3 135.5Z" fill="#22576F"/>
<path d="M205 138.3H204.6L204.2 137.5H202.5L202.1 138.3H201.7L203.1 135.2H203.4L205 138.3ZM203.4 135.6L202.7 137.2H204.1L203.4 135.6Z" fill="#22576F"/>
<path d="M205.6 135.2H206V138H207.8V138.3H205.7V135.2H205.6Z" fill="#22576F"/>
<path d="M185.3 141C185.3 141.4 185.1 141.6 184.8 141.7C185.2 141.8 185.5 142 185.5 142.5C185.5 143 185 143.4 184.4 143.4H183V140.3H184.3C184.9 140.2 185.3 140.5 185.3 141ZM184.9 141C184.9 140.7 184.7 140.5 184.2 140.5H183.3V141.6H184.2C184.7 141.6 184.9 141.4 184.9 141ZM185.1 142.4C185.1 142.1 184.8 141.9 184.3 141.9H183.3V143H184.3C184.8 143 185.1 142.8 185.1 142.4Z" fill="#22576F"/>
<path d="M188.7 140.5H186.8V141.6H188.5V141.9H186.8V143H188.7V143.3H186.4V140.2H188.7V140.5Z" fill="#22576F"/>
<path d="M190.7 143.3H189.6V140.2H190.7C191.7 140.2 192.4 140.9 192.4 141.8C192.4 142.7 191.7 143.3 190.7 143.3ZM190.7 140.5H190V143H190.7C191.5 143 192 142.5 192 141.8C192 141.1 191.5 140.5 190.7 140.5Z" fill="#22576F"/>
<path d="M195.5 143.3L194.6 142.1H193.7V143.3H193.3V140.2H194.6C195.3 140.2 195.7 140.6 195.7 141.1C195.7 141.6 195.3 141.9 194.9 142L195.9 143.3H195.5ZM194.7 140.5H193.7V141.8H194.7C195.2 141.8 195.5 141.6 195.5 141.2C195.5 140.7 195.2 140.5 194.7 140.5Z" fill="#22576F"/>
<path d="M198.3 143.4C197.4 143.4 196.7 142.7 196.7 141.8C196.7 140.9 197.3 140.2 198.3 140.2C199.2 140.2 199.9 140.9 199.9 141.8C199.9 142.7 199.2 143.4 198.3 143.4ZM198.3 140.5C197.6 140.5 197.1 141.1 197.1 141.8C197.1 142.5 197.6 143.1 198.3 143.1C199 143.1 199.5 142.5 199.5 141.8C199.5 141.1 199 140.5 198.3 140.5Z" fill="#22576F"/>
<path d="M202.3 143.4C201.4 143.4 200.7 142.7 200.7 141.8C200.7 140.9 201.3 140.2 202.3 140.2C203.2 140.2 203.9 140.9 203.9 141.8C203.9 142.7 203.2 143.4 202.3 143.4ZM202.3 140.5C201.6 140.5 201.1 141.1 201.1 141.8C201.1 142.5 201.6 143.1 202.3 143.1C203 143.1 203.5 142.5 203.5 141.8C203.5 141.1 203 140.5 202.3 140.5Z" fill="#22576F"/>
<path d="M206.4 142.5L205.2 140.8V143.3H204.9V140.2H205.3L206.4 141.9L207.5 140.2H207.9V143.3H207.5V140.8L206.4 142.5Z" fill="#22576F"/>
<path d="M179.9 218.7C179.9 219.1 179.7 219.3 179.4 219.4C179.8 219.5 180.1 219.7 180.1 220.2C180.1 220.7 179.6 221.1 179 221.1H177.6V218H178.9C179.5 217.9 179.9 218.2 179.9 218.7ZM179.5 218.7C179.5 218.4 179.3 218.2 178.8 218.2H177.9V219.3H178.8C179.2 219.3 179.5 219.1 179.5 218.7ZM179.7 220.1C179.7 219.8 179.4 219.6 178.9 219.6H177.9V220.7H178.9C179.4 220.7 179.7 220.5 179.7 220.1Z" fill="#22576F"/>
<path d="M183.8 221H183.4L183 220.2H181.3L181 221H180.6L182 217.9H182.3L183.8 221ZM182.2 218.3L181.5 219.9H182.9L182.2 218.3Z" fill="#22576F"/>
<path d="M184.7 217.9H185.1V220.7H186.9V221H184.8V217.9H184.7Z" fill="#22576F"/>
<path d="M188.9 221.1C188 221.1 187.3 220.4 187.3 219.5C187.3 218.6 188 217.9 188.9 217.9C189.5 217.9 189.8 218.1 190.1 218.4L189.9 218.7C189.6 218.5 189.3 218.3 188.9 218.3C188.2 218.3 187.7 218.9 187.7 219.6C187.7 220.3 188.2 220.9 188.9 220.9C189.3 220.9 189.6 220.7 189.9 220.5L190.1 220.7C189.8 220.9 189.5 221.1 188.9 221.1Z" fill="#22576F"/>
<path d="M192.4 221.1C191.5 221.1 190.8 220.4 190.8 219.5C190.8 218.6 191.4 217.9 192.4 217.9C193.3 217.9 194 218.6 194 219.5C194 220.4 193.3 221.1 192.4 221.1ZM192.4 218.2C191.7 218.2 191.2 218.8 191.2 219.5C191.2 220.2 191.7 220.8 192.4 220.8C193.1 220.8 193.6 220.2 193.6 219.5C193.6 218.8 193.1 218.2 192.4 218.2Z" fill="#22576F"/>
<path d="M197.3 217.9H197.6V221H197.3L195.3 218.4V221H195V217.9H195.3L197.3 220.4V217.9Z" fill="#22576F"/>
<path d="M200.1 221H199.7V219.8L198.4 217.9H198.8L199.9 219.5L201 217.9H201.4L200.1 219.8V221Z" fill="#22576F"/>
<path d="M193.4 57.1H191.5V58.2H193.2V58.5H191.5V59.6H193.4V59.9H191.1V56.8H193.4V57.1Z" fill="#22576F"/>
<path d="M196.6 56.8H196.9V59.9H196.6L194.6 57.3V59.9H194.3V56.8H194.6L196.6 59.3V56.8Z" fill="#22576F"/>
<path d="M199.2 58.2C199.9 58.4 200.2 58.6 200.2 59.1C200.2 59.6 199.8 60 199.1 60C198.6 60 198.2 59.8 197.8 59.5L198 59.2C198.3 59.5 198.6 59.6 199.1 59.6C199.5 59.6 199.8 59.4 199.8 59.1C199.8 58.8 199.6 58.6 199 58.5C198.3 58.3 198 58.1 198 57.6C198 57.1 198.4 56.7 199 56.7C199.5 56.7 199.8 56.8 200.1 57.1L199.9 57.4C199.6 57.2 199.3 57.1 199 57.1C198.6 57.1 198.3 57.3 198.3 57.6C198.4 57.9 198.5 58 199.2 58.2Z" fill="#22576F"/>
<path d="M203.7 58.6C203.7 59.5 203.2 60 202.4 60C201.6 60 201.1 59.5 201.1 58.6V56.8H201.5V58.6C201.5 59.3 201.9 59.7 202.5 59.7C203.1 59.7 203.4 59.4 203.4 58.7V56.9H203.8V58.6H203.7Z" fill="#22576F"/>
<path d="M205.2 56.8V59.9H204.8V56.8H205.2Z" fill="#22576F"/>
<path d="M207.5 59.9H207.1V57.1H206.1V56.8H208.6V57.1H207.6V59.9H207.5Z" fill="#22576F"/>
<path d="M211.7 57.1H209.8V58.2H211.5V58.5H209.8V59.6H211.7V59.9H209.4V56.8H211.7V57.1Z" fill="#22576F"/>
<path d="M97.3 147.6H95.4V148.7H97.1V149H95.4V150.1H97.3V150.4H95V147.3H97.3V147.6Z" fill="#22576F"/>
<path d="M100.5 147.3H100.8V150.4H100.5L98.5 147.8V150.4H98.2V147.3H98.5L100.5 149.8V147.3Z" fill="#22576F"/>
<path d="M103.1 148.7C103.8 148.9 104.1 149.1 104.1 149.6C104.1 150.1 103.7 150.5 103 150.5C102.5 150.5 102.1 150.3 101.7 150L101.9 149.7C102.2 150 102.5 150.1 103 150.1C103.4 150.1 103.7 149.9 103.7 149.6C103.7 149.3 103.5 149.1 102.9 149C102.2 148.8 101.9 148.6 101.9 148.1C101.9 147.6 102.3 147.2 102.9 147.2C103.4 147.2 103.7 147.3 104 147.6L103.8 147.9C103.5 147.7 103.2 147.6 102.9 147.6C102.5 147.6 102.2 147.8 102.2 148.1C102.3 148.4 102.5 148.5 103.1 148.7Z" fill="#22576F"/>
<path d="M107.7 149.1C107.7 150 107.2 150.5 106.4 150.5C105.6 150.5 105.1 150 105.1 149.1V147.3H105.5V149.1C105.5 149.8 105.9 150.2 106.5 150.2C107.1 150.2 107.4 149.9 107.4 149.2V147.4H107.8V149.1H107.7Z" fill="#22576F"/>
<path d="M109.2 147.3V150.4H108.8V147.3H109.2Z" fill="#22576F"/>
<path d="M111.4 150.4H111V147.6H110V147.3H112.5V147.6H111.5V150.4H111.4Z" fill="#22576F"/>
<path d="M115.6 147.6H113.7V148.7H115.4V149H113.7V150.1H115.6V150.4H113.3V147.3H115.6V147.6Z" fill="#22576F"/>
<path d="M180.5 117.8H180.1L178.9 116.3L178.2 117V117.8H177.8V114.7H178.2V116.6L180 114.7H180.5L179.2 116.1L180.5 117.8Z" fill="#22576F"/>
<path d="M173.5 64.9H173.9V67.7H175.7V68H173.6V64.9H173.5Z" fill="#22576F"/>
<path d="M176.8 64.9V68H176.4V64.9H176.8Z" fill="#22576F"/>
<path d="M180.3 64.9H180.6V68H180.3L178.3 65.4V68H178V64.9H178.3L180.3 67.4V64.9Z" fill="#22576F"/>
<path d="M23.4 132.9H22.3V129.8H23.4C24.4 129.8 25.1 130.5 25.1 131.4C25.1 132.3 24.4 132.9 23.4 132.9ZM23.4 130.1H22.7V132.6H23.4C24.2 132.6 24.7 132.1 24.7 131.4C24.7 130.7 24.2 130.1 23.4 130.1Z" fill="#22576F"/>
<path d="M44.3 129.8H44.6L45.5 132.4L46.4 129.8H46.8L45.7 132.9H45.4L44.5 130.4L43.6 132.9H43.3L42.2 129.8H42.6L43.5 132.4L44.3 129.8Z" fill="#22576F"/>
<path d="M29.8 75.8H28.7V72.7H29.8C30.8 72.7 31.5 73.4 31.5 74.3C31.5 75.2 30.7 75.8 29.8 75.8ZM29.8 73H29V75.5H29.7C30.5 75.5 31 75 31 74.3C31.1 73.6 30.5 73 29.8 73Z" fill="#22576F"/>
<path d="M34.7 72.7H35V75.8H34.7L32.7 73.2V75.8H32.4V72.7H32.7L34.7 75.2V72.7Z" fill="#22576F"/>
</g>
<defs>
<clipPath id="clip0_0_1">
<rect width="866.2" height="487.5" fill="white" transform="translate(-623 -150)"/>
</clipPath>
</defs>
</svg>
