<?xml version="1.0" encoding="utf-8"?>
<!-- Generator: Adobe Illustrator 25.4.1, SVG Export Plug-In . SVG Version: 6.00 Build 0)  -->
<svg version="1.1" id="Layer_1" xmlns="http://www.w3.org/2000/svg" xmlns:xlink="http://www.w3.org/1999/xlink" x="0px" y="0px"
	 viewBox="0 0 244.9554443 258.9910278" style="enable-background:new 0 0 244.9554443 258.9910278;" xml:space="preserve">
<style type="text/css">
	.st0{fill:none;stroke:#99A4B3;stroke-width:0.24;stroke-linecap:round;stroke-linejoin:round;stroke-miterlimit:10;}
	.st1{fill-rule:evenodd;clip-rule:evenodd;fill:#22566E;}
	.st2{fill:none;stroke:#22566E;stroke-width:0.25;stroke-linecap:round;stroke-linejoin:round;stroke-miterlimit:10;}
	.st3{fill:none;stroke:#22566E;stroke-width:0.25;stroke-linecap:round;stroke-linejoin:round;}
	
		.st4{fill:none;stroke:#22566E;stroke-width:0.25;stroke-linecap:round;stroke-linejoin:round;stroke-dasharray:4.1989999,2.0999999;}
	
		.st5{fill:none;stroke:#22566E;stroke-width:0.25;stroke-linecap:round;stroke-linejoin:round;stroke-dasharray:4.5440001,2.2720001;}
	.st6{fill:none;stroke:#22566E;stroke-width:0.25;stroke-linecap:round;stroke-linejoin:round;stroke-dasharray:3.994,1.997;}
	.st7{fill:none;stroke:#22566E;stroke-width:0.25;stroke-linecap:round;stroke-linejoin:round;stroke-miterlimit:10.000001;}
	.st8{fill:none;stroke:#22566E;stroke-width:0.25;stroke-linecap:round;stroke-linejoin:round;stroke-dasharray:2.099,1.05;}
	.st9{fill:none;stroke:#22566E;stroke-width:0.25;stroke-linecap:round;stroke-linejoin:round;stroke-dasharray:2.161,1.081;}
	.st10{fill:#22566E;}
</style>
<rect x="8.0415649" y="146.2750854" class="st0" width="11.5159912" height="14.3940125"/>
<rect x="8.0415649" y="206.7311096" class="st0" width="11.5159912" height="14.3939972"/>
<rect x="218.2015381" y="163.2330933" class="st0" width="11.5159912" height="14.394989"/>
<rect x="218.2015381" y="91.2610779" class="st0" width="11.5159912" height="14.3940125"/>
<polygon class="st0" points="6.602356,56.263916 6.602356,112.1329346 10.3813477,112.1329346 10.3813477,90.5409241 
	9.1213379,90.5409241 9.1213379,113.796936 52.3043213,113.796936 52.3043213,90.5409241 51.0453491,90.5409241 
	51.0453491,112.1329346 62.3813477,112.1329346 62.3813477,137.0529175 63.6403198,137.0529175 63.6403198,115.4609375 
	59.8623047,115.4609375 59.8623047,144.9699402 6.602356,144.9699402 6.602356,162.1079407 65.6193237,162.1079407 
	65.6193237,205.2919312 6.602356,205.2919312 6.602356,222.4299164 87.3913574,222.4299164 87.3913574,208.4849243 
	90.7203369,208.4849243 90.7203369,216.8519135 121.5782471,216.8519135 121.5782471,185.2739258 90.7203369,185.2739258 
	90.7203369,188.1529236 112.3112793,188.1529236 112.3112793,186.8939209 87.3913574,186.8939209 87.3913574,141.0109253 
	89.0553589,141.0109253 89.0553589,117.9799194 87.3913574,117.9799194 87.3913574,115.4609375 83.9723511,115.4609375 
	83.9723511,112.1329346 117.2592773,112.1329346 117.2592773,109.612915 142.1802979,109.612915 142.1802979,108.3539429 
	120.5882568,108.3539429 120.5882568,112.1329346 138.9412842,112.1329346 138.9412842,180.8659363 231.15625,180.8659363 
	231.15625,161.7929382 172.1383057,161.7929382 172.1383057,107.0939331 231.15625,107.0939331 231.15625,85.5029297 
	206.9963379,85.5029297 206.9963379,83.8379211 185.4052734,83.8379211 185.4052734,85.5029297 177.2423096,85.5029297 
	166.5583496,91.671936 165.9283447,90.5809326 176.6123047,84.4119263 177.2423096,85.5029297 177.2423096,82.1739197 
	179.557251,82.1739197 179.557251,66.3399353 120.5882568,66.3399353 120.5882568,82.1739197 122.9033203,82.1739197 
	122.9033203,85.5029297 133.5872803,91.671936 134.1722412,90.5539246 123.5333252,84.4119263 122.9033203,85.5029297 
	120.5882568,85.5029297 120.5882568,88.0219421 117.2592773,88.0219421 117.2592773,85.5029297 35.3912964,85.5029297 
	35.3912964,81.0939331 31.7922974,81.0939331 31.7922974,80.0149231 35.3912964,80.0149231 35.3912964,56.263916 "/>
<polygon class="st0" points="136.8936768,91.6713867 147.5786133,85.5024109 152.567627,85.5024109 163.2525635,91.6713867 
	163.8815918,90.5804138 153.1976318,84.4114075 152.567627,85.5024109 152.567627,82.1734009 147.5786133,82.1734009 
	147.5786133,85.5024109 146.9486084,84.4114075 136.2636719,90.5804138 "/>
<line class="st0" x1="9.3913574" y1="222.4300079" x2="9.3913574" y2="221.1250153"/>
<line class="st0" x1="9.3913574" y1="90.540802" x2="9.3913574" y2="56.2638245"/>
<line class="st0" x1="9.3913574" y1="206.7311096" x2="9.3913574" y2="205.2911377"/>
<line class="st0" x1="9.3913574" y1="113.796814" x2="9.3913574" y2="112.132843"/>
<line class="st0" x1="9.3913574" y1="162.1082153" x2="9.3913574" y2="160.6682434"/>
<line class="st0" x1="9.3913574" y1="146.274292" x2="9.3913574" y2="144.9692993"/>
<line class="st0" x1="14.7893677" y1="222.4300079" x2="14.7893677" y2="221.1250153"/>
<line class="st0" x1="14.7893677" y1="113.796814" x2="14.7893677" y2="56.2638245"/>
<line class="st0" x1="14.7893677" y1="206.7311096" x2="14.7893677" y2="205.2911377"/>
<line class="st0" x1="14.7893677" y1="146.274292" x2="14.7893677" y2="144.9692993"/>
<line class="st0" x1="14.7893677" y1="162.1082153" x2="14.7893677" y2="160.6682434"/>
<line class="st0" x1="20.1872559" y1="222.4300079" x2="20.1872559" y2="205.2910156"/>
<line class="st0" x1="20.1872559" y1="113.796814" x2="20.1872559" y2="56.2638245"/>
<line class="st0" x1="20.1872559" y1="162.1082153" x2="20.1872559" y2="144.9692383"/>
<line class="st0" x1="25.5852661" y1="222.4300079" x2="25.5852661" y2="205.2910156"/>
<line class="st0" x1="25.5852661" y1="113.796814" x2="25.5852661" y2="56.2638245"/>
<line class="st0" x1="25.5852661" y1="162.1082153" x2="25.5852661" y2="144.9692383"/>
<line class="st0" x1="30.9830933" y1="222.4300079" x2="30.9830933" y2="205.2910156"/>
<line class="st0" x1="30.9830933" y1="113.796814" x2="30.9830933" y2="56.2638245"/>
<line class="st0" x1="30.9830933" y1="162.1082153" x2="30.9830933" y2="144.9692383"/>
<line class="st0" x1="36.3811035" y1="222.4300079" x2="36.3811035" y2="205.2910156"/>
<line class="st0" x1="36.3811035" y1="113.796814" x2="36.3811035" y2="85.5028381"/>
<line class="st0" x1="36.3811035" y1="162.1082153" x2="36.3811035" y2="144.9692383"/>
<line class="st0" x1="41.7788696" y1="222.4300079" x2="41.7788696" y2="205.2910156"/>
<line class="st0" x1="41.7788696" y1="113.796814" x2="41.7788696" y2="85.5028381"/>
<line class="st0" x1="41.7788696" y1="162.1082153" x2="41.7788696" y2="144.9692383"/>
<line class="st0" x1="47.177002" y1="222.4300079" x2="47.177002" y2="205.2910156"/>
<line class="st0" x1="47.177002" y1="113.796814" x2="47.177002" y2="85.5028381"/>
<line class="st0" x1="47.177002" y1="162.1082153" x2="47.177002" y2="144.9692383"/>
<line class="st0" x1="52.5747681" y1="222.4300079" x2="52.5747681" y2="205.2910156"/>
<line class="st0" x1="52.5747681" y1="112.1324158" x2="52.5747681" y2="85.5024414"/>
<line class="st0" x1="52.5747681" y1="162.1082153" x2="52.5747681" y2="144.9692383"/>
<line class="st0" x1="57.9729004" y1="222.4300079" x2="57.9729004" y2="205.2910156"/>
<line class="st0" x1="57.9729004" y1="112.1324158" x2="57.9729004" y2="85.5024414"/>
<line class="st0" x1="57.9729004" y1="162.1082153" x2="57.9729004" y2="144.9692383"/>
<line class="st0" x1="63.3706665" y1="222.4300079" x2="63.3706665" y2="205.2910156"/>
<line class="st0" x1="63.3706665" y1="115.4609985" x2="63.3706665" y2="85.5030212"/>
<line class="st0" x1="63.3706665" y1="162.1082153" x2="63.3706665" y2="137.0522156"/>
<line class="st0" x1="68.7685547" y1="222.4300079" x2="68.7685547" y2="85.5030212"/>
<line class="st0" x1="74.1665039" y1="222.4300079" x2="74.1665039" y2="85.5030212"/>
<line class="st0" x1="79.5644531" y1="222.4300079" x2="79.5644531" y2="85.5030212"/>
<line class="st0" x1="84.9624023" y1="222.4300079" x2="84.9624023" y2="115.4610291"/>
<line class="st0" x1="84.9624023" y1="112.1324158" x2="84.9624023" y2="85.5024414"/>
<line class="st0" x1="90.3603516" y1="208.4852905" x2="90.3603516" y2="186.8933105"/>
<line class="st0" x1="90.3603516" y1="112.1324158" x2="90.3603516" y2="85.5024414"/>
<line class="st0" x1="95.7581787" y1="216.8520966" x2="95.7581787" y2="188.1531067"/>
<line class="st0" x1="95.7581787" y1="112.1324158" x2="95.7581787" y2="85.5024414"/>
<line class="st0" x1="95.7581787" y1="186.8936157" x2="95.7581787" y2="185.2746277"/>
<line class="st0" x1="101.156189" y1="216.8520966" x2="101.156189" y2="188.1531067"/>
<line class="st0" x1="101.156189" y1="112.1324158" x2="101.156189" y2="85.5024414"/>
<line class="st0" x1="101.156189" y1="186.8936157" x2="101.156189" y2="185.2746277"/>
<line class="st0" x1="106.5540771" y1="216.8520966" x2="106.5540771" y2="188.1531067"/>
<line class="st0" x1="106.5540771" y1="112.1324158" x2="106.5540771" y2="85.5024414"/>
<line class="st0" x1="106.5540771" y1="186.8936157" x2="106.5540771" y2="185.2746277"/>
<line class="st0" x1="111.9520264" y1="216.8520966" x2="111.9520264" y2="188.1531067"/>
<line class="st0" x1="111.9520264" y1="112.1324158" x2="111.9520264" y2="85.5024414"/>
<line class="st0" x1="111.9520264" y1="186.8936157" x2="111.9520264" y2="185.2746277"/>
<line class="st0" x1="117.3498535" y1="216.8520966" x2="117.3498535" y2="185.2741089"/>
<line class="st0" x1="117.3498535" y1="109.6133118" x2="117.3498535" y2="88.0213318"/>
<line class="st0" x1="122.7479248" y1="112.1324158" x2="122.7479248" y2="109.6134338"/>
<line class="st0" x1="122.7479248" y1="82.1738892" x2="122.7479248" y2="66.3399048"/>
<line class="st0" x1="122.7479248" y1="108.3537903" x2="122.7479248" y2="85.5028076"/>
<line class="st0" x1="128.145752" y1="112.1324158" x2="128.145752" y2="109.6134338"/>
<line class="st0" x1="128.145752" y1="87.0748901" x2="128.145752" y2="66.3399048"/>
<line class="st0" x1="128.145752" y1="108.3537903" x2="128.145752" y2="88.5298157"/>
<line class="st0" x1="133.5435791" y1="112.1324158" x2="133.5435791" y2="109.6134338"/>
<line class="st0" x1="133.5435791" y1="90.1914978" x2="133.5435791" y2="66.3405151"/>
<line class="st0" x1="133.5435791" y1="108.3537903" x2="133.5435791" y2="91.645813"/>
<line class="st0" x1="138.9415283" y1="89.0346069" x2="138.9415283" y2="66.3396301"/>
<line class="st0" x1="138.9415283" y1="112.1324158" x2="138.9415283" y2="109.6134338"/>
<line class="st0" x1="138.9415283" y1="108.3537903" x2="138.9415283" y2="90.4888"/>
<line class="st0" x1="144.3393555" y1="180.8659973" x2="144.3393555" y2="87.3730164"/>
<line class="st0" x1="144.3393555" y1="85.9182129" x2="144.3393555" y2="66.3402405"/>
<line class="st0" x1="149.7374268" y1="180.8659973" x2="149.7374268" y2="85.5030212"/>
<line class="st0" x1="149.7374268" y1="82.1738892" x2="149.7374268" y2="66.3399048"/>
<line class="st0" x1="155.1352539" y1="180.8659973" x2="155.1352539" y2="86.9850159"/>
<line class="st0" x1="155.1352539" y1="85.5307922" x2="155.1352539" y2="66.3398132"/>
<line class="st0" x1="160.5332031" y1="180.8659973" x2="160.5332031" y2="90.1020203"/>
<line class="st0" x1="160.5332031" y1="88.6471863" x2="160.5332031" y2="66.34021"/>
<line class="st0" x1="165.9311523" y1="180.8659973" x2="165.9311523" y2="90.5859985"/>
<line class="st0" x1="165.9311523" y1="90.5788879" x2="165.9311523" y2="66.3399048"/>
<line class="st0" x1="171.3291016" y1="180.8659973" x2="171.3291016" y2="88.9170227"/>
<line class="st0" x1="171.3291016" y1="87.4623108" x2="171.3291016" y2="66.340332"/>
<line class="st0" x1="176.7269287" y1="180.8659973" x2="176.7269287" y2="161.7929993"/>
<line class="st0" x1="176.7269287" y1="84.6098938" x2="176.7269287" y2="66.3399048"/>
<line class="st0" x1="176.7269287" y1="107.0942993" x2="176.7269287" y2="85.8003235"/>
<line class="st0" x1="182.125" y1="180.8659973" x2="182.125" y2="161.7929993"/>
<line class="st0" x1="182.125" y1="107.0942993" x2="182.125" y2="85.5023193"/>
<line class="st0" x1="187.5228271" y1="180.8659973" x2="187.5228271" y2="161.7929993"/>
<line class="st0" x1="187.5228271" y1="107.0942993" x2="187.5228271" y2="83.8383179"/>
<line class="st0" x1="192.9207764" y1="180.8659973" x2="192.9207764" y2="161.7929993"/>
<line class="st0" x1="192.9207764" y1="107.0942993" x2="192.9207764" y2="83.8383179"/>
<line class="st0" x1="198.3186035" y1="180.8659973" x2="198.3186035" y2="161.7929993"/>
<line class="st0" x1="198.3186035" y1="107.0942993" x2="198.3186035" y2="83.8383179"/>
<line class="st0" x1="203.7166748" y1="180.8659973" x2="203.7166748" y2="161.7929993"/>
<line class="st0" x1="203.7166748" y1="107.0942993" x2="203.7166748" y2="83.8383179"/>
<line class="st0" x1="209.114502" y1="180.8659973" x2="209.114502" y2="161.7929993"/>
<line class="st0" x1="209.114502" y1="107.0942993" x2="209.114502" y2="85.5023193"/>
<line class="st0" x1="214.5124512" y1="180.8659973" x2="214.5124512" y2="161.7929993"/>
<line class="st0" x1="214.5124512" y1="107.0942993" x2="214.5124512" y2="85.5023193"/>
<line class="st0" x1="219.9104004" y1="180.8659973" x2="219.9104004" y2="177.6270142"/>
<line class="st0" x1="219.9104004" y1="91.260498" x2="219.9104004" y2="85.5025024"/>
<line class="st0" x1="219.9104004" y1="163.2326965" x2="219.9104004" y2="161.7937012"/>
<line class="st0" x1="219.9104004" y1="107.0942993" x2="219.9104004" y2="105.655304"/>
<line class="st0" x1="225.3083496" y1="180.8659973" x2="225.3083496" y2="177.6270142"/>
<line class="st0" x1="225.3083496" y1="91.260498" x2="225.3083496" y2="85.5025024"/>
<line class="st0" x1="225.3083496" y1="163.2326965" x2="225.3083496" y2="161.7937012"/>
<line class="st0" x1="225.3083496" y1="107.0942993" x2="225.3083496" y2="105.655304"/>
<line class="st0" x1="230.7061768" y1="180.8659973" x2="230.7061768" y2="161.7929993"/>
<line class="st0" x1="230.7061768" y1="107.0942993" x2="230.7061768" y2="85.5023193"/>
<polygon class="st0" points="180.7214355,20.079895 180.7214355,23.559906 189.5964355,38.9329224 189.1293945,39.2029114 
	180.7214355,24.6399231 180.7214355,52.934906 182.8863525,52.934906 182.8863525,82.1739197 185.4053955,82.1739197 
	185.4053955,60.5819092 186.6644287,60.5819092 186.6644287,82.1739197 185.4053955,82.1739197 185.4053955,83.8379211 
	206.9963379,83.8379211 206.9963379,82.1739197 214.9624023,82.1739197 214.9624023,42.2289124 231.1563721,42.2289124 
	231.1563721,20.079895 "/>
<polygon class="st0" points="90.7201538,157.2049866 133.9030762,157.2049866 133.9030762,135.9729919 117.710083,135.9729919 
	117.710083,115.4609985 90.7201538,115.4609985 90.7201538,119.2399902 113.7510986,119.2399902 113.7510986,117.980011 
	89.0561523,117.980011 89.0561523,141.0109863 90.7201538,141.0109863 "/>
<path class="st0" d="M230.5703125,26.8136902c0-0.1409912-0.1000977-0.26297-0.2390137-0.2889709l-2.1260986-0.4070129
	c-0.230957-0.0440063-0.4709473,0.0079956-0.6629639,0.1440125c-0.3259277,0.2319946-0.6109619,0.5159912-0.842041,0.84198
	c-2.2989502-0.1359863-4.5849609-0.4279785-6.8439941-0.8729858c-0.723999-0.1650085-1.4639893-0.2480164-2.2069092-0.2480164
	c-0.9630127,0-1.9219971,0.1400146-2.8450928,0.4150085c-0.8029785,0.2390137-1.5609131,0.6109924-2.2409668,1.1000061
	c-0.6539307,0.4700012-1.2009277,1.0749817-1.6030273,1.7729797c-0.3299561,0.5730286-0.5039062,1.2230225-0.5039062,1.8840027
	c0,0.6610107,0.1739502,1.3110046,0.5039062,1.8840027c0.4020996,0.697998,0.9490967,1.302002,1.6030273,1.7730103
	c0.6800537,0.4890137,1.4379883,0.8599854,2.2409668,1.1000061c0.9230957,0.2749939,1.8820801,0.4140015,2.8450928,0.4140015
	c0.7429199,0,1.4829102-0.0830078,2.2069092-0.2470093c2.2590332-0.4450073,4.5450439-0.7369995,6.8439941-0.8739929
	c0.2310791,0.3259888,0.5161133,0.6109924,0.842041,0.8429871c0.1920166,0.1360168,0.4320068,0.1880188,0.6629639,0.1440125
	l2.1260986-0.4070129c0.138916-0.0270081,0.2390137-0.1479797,0.2390137-0.2890015V26.8136902z"/>
<path class="st0" d="M133.317627,142.2481079c0-0.1409912-0.1000977-0.26297-0.2390137-0.2889709l-2.1260986-0.4070129
	c-0.230957-0.0440063-0.4709473,0.0079956-0.6629639,0.1440125c-0.3259277,0.2319946-0.6109619,0.5159912-0.842041,0.8429871
	c-2.2989502-0.1369934-4.5849609-0.4289856-6.8439941-0.8739929c-0.723999-0.1640015-1.4639893-0.2470093-2.2069092-0.2470093
	c-0.9630127,0-1.9219971,0.1390076-2.8450928,0.4140015c-0.8029785,0.2390137-1.5609131,0.6109924-2.2409668,1.1000061
	c-0.6539307,0.4710083-1.1999512,1.0749817-1.6030273,1.7729797c-0.3299561,0.5730286-0.5039062,1.2230225-0.5039062,1.8840027
	c0,0.6610107,0.1739502,1.3110046,0.5039062,1.8840027c0.4030762,0.697998,0.9490967,1.302002,1.6030273,1.7730103
	c0.6800537,0.4890137,1.4379883,0.8609924,2.2409668,1.1000061c0.9230957,0.2749939,1.8820801,0.4140015,2.8450928,0.4140015
	c0.7429199,0,1.4829102-0.0820007,2.2069092-0.2470093c2.2590332-0.4450073,4.5450439-0.7369995,6.8439941-0.8739929
	c0.2310791,0.3269958,0.5161133,0.6109924,0.842041,0.8429871c0.1920166,0.1360168,0.4320068,0.1880188,0.6629639,0.1440125
	l2.1260986-0.4070129c0.138916-0.0270081,0.2390137-0.1479797,0.2390137-0.2890015V142.2481079z"/>
<polygon class="st0" points="54.8239746,115.4609985 52.3049316,115.4609985 52.3049316,113.7970276 9.1209717,113.7970276 
	9.1209717,115.4609985 6.6019287,115.4609985 6.6019287,120.0490112 10.6229248,120.0490112 10.6229248,118.9150085 
	30.0549316,118.9150085 30.0549316,120.0490112 31.4949341,120.0490112 31.4949341,118.9150085 50.9269409,118.9150085 
	50.9269409,120.0490112 54.8239746,120.0490112 "/>
<line class="st0" x1="39.4118042" y1="113.796814" x2="39.4118042" y2="118.9148254"/>
<line class="st0" x1="22.1383667" y1="113.796814" x2="22.1383667" y2="118.9148254"/>
<line class="st0" x1="97.6923828" y1="157.2049866" x2="97.6923828" y2="119.2399902"/>
<line class="st0" x1="97.6923828" y1="117.9801941" x2="97.6923828" y2="115.4612122"/>
<line class="st0" x1="106.3291016" y1="157.2049866" x2="106.3291016" y2="119.2399902"/>
<line class="st0" x1="106.3291016" y1="117.9801941" x2="106.3291016" y2="115.4612122"/>
<line class="st0" x1="114.9658203" y1="157.2049866" x2="114.9658203" y2="149.9769897"/>
<line class="st0" x1="114.9658203" y1="143.201416" x2="114.9658203" y2="115.4614258"/>
<line class="st0" x1="123.6025391" y1="157.2049866" x2="123.6025391" y2="151.3269958"/>
<line class="st0" x1="123.6025391" y1="141.8517151" x2="123.6025391" y2="135.9737244"/>
<line class="st0" x1="132.2392578" y1="157.2049866" x2="132.2392578" y2="151.3800049"/>
<line class="st0" x1="132.2392578" y1="141.7984009" x2="132.2392578" y2="135.9734192"/>
<line class="st0" x1="133.9035645" y1="150.0079041" x2="133.3175049" y2="150.0079041"/>
<line class="st0" x1="115.0026855" y1="150.0079041" x2="90.7206421" y2="150.0079041"/>
<line class="st0" x1="117.7097168" y1="132.7344971" x2="89.0556641" y2="132.7344971"/>
<line class="st0" x1="189.3581543" y1="83.8381958" x2="189.3581543" y2="39.0702209"/>
<line class="st0" x1="189.3581543" y1="38.5194092" x2="189.3581543" y2="20.0794373"/>
<line class="st0" x1="197.994873" y1="83.8381958" x2="197.994873" y2="20.0802002"/>
<line class="st0" x1="206.6314697" y1="83.8381958" x2="206.6314697" y2="20.0802002"/>
<line class="st0" x1="215.2681885" y1="42.2293091" x2="215.2681885" y2="36.037323"/>
<line class="st0" x1="215.2681885" y1="26.271698" x2="215.2681885" y2="20.0797119"/>
<line class="st0" x1="223.9049072" y1="42.2293091" x2="223.9049072" y2="35.4483337"/>
<line class="st0" x1="223.9049072" y1="26.8609009" x2="223.9049072" y2="20.0799255"/>
<line class="st0" x1="214.9624023" y1="66.5650024" x2="186.6643066" y2="66.5650024"/>
<line class="st0" x1="185.4050293" y1="66.5650024" x2="182.8859863" y2="66.5650024"/>
<line class="st0" x1="214.9624023" y1="49.2915955" x2="180.7213135" y2="49.2915955"/>
<line class="st0" x1="231.1561279" y1="32.0180969" x2="230.5700684" y2="32.0180969"/>
<line class="st0" x1="184.9814453" y1="32.0180969" x2="180.7214355" y2="32.0180969"/>
<line class="st0" x1="210.5568848" y1="32.0180969" x2="185.6048584" y2="32.0180969"/>
<polygon class="st1" points="210.0142822,20.079895 136.0081787,20.079895 136.0081787,52.934906 182.8862305,52.934906 
	182.8862305,82.1739197 185.4052734,82.1739197 185.4052734,85.5028992 177.2421875,85.5028992 177.2421875,82.1739197 
	179.557251,82.1739197 179.557251,56.263916 120.5882568,56.263916 120.5882568,82.1739197 122.9031982,82.1739197 
	122.9031982,85.5028992 120.5882568,85.5028992 120.5882568,88.0219116 117.2592773,88.0219116 117.2592773,56.263916 
	37.5502319,56.263916 37.5502319,52.2159119 38.2702637,52.2159119 38.2702637,48.9768982 127.7321777,48.9768982 
	127.7321777,11.8029175 210.0142822,11.8029175 "/>
<polygon class="st1" points="229.9365234,11.803009 233.3154297,11.803009 233.3154297,0.1250305 244.8304443,0.1250305 
	244.8304443,53.3850098 239.0734863,53.3850098 239.0734863,226.4780121 244.8304443,226.4780121 244.8304443,258.8660278 
	233.3154297,258.8660278 233.3154297,188.1530151 230.076416,188.1530151 230.076416,184.9140015 229.3564453,184.9140015 
	229.3564453,180.8660278 231.1564941,180.8660278 231.1564941,85.5030212 206.99646,85.5030212 206.99646,82.1740112 
	231.1564941,82.1740112 231.1564941,20.0800171 229.9365234,20.0800171 "/>
<polygon class="st1" points="0.125,258.8659973 11.6409912,258.8659973 11.6409912,226.4779968 12.3719482,226.4779968 
	12.3719482,222.4300079 6.6019897,222.4300079 6.6019897,144.9700012 59.8619995,144.9700012 59.8619995,115.4609985 
	62.3809814,115.4609985 62.3809814,112.132019 52.3049927,112.132019 52.3049927,115.4609985 54.8239746,115.4609985 
	54.8239746,141.6410217 6.6019897,141.6410217 6.6019897,115.4609985 9.1209717,115.4609985 9.1209717,112.132019 
	6.6019897,112.132019 6.6019897,56.2640076 15.598999,56.2640076 15.598999,52.2149963 14.8789673,52.2149963 
	14.8789673,48.9769897 11.6409912,48.9769897 11.6409912,0.125 0.125,0.125 "/>
<polygon class="st1" points="87.2116089,229.7172089 87.2116089,226.4782104 86.6705933,226.4782104 86.6705933,222.4302216 
	87.3916016,222.4302216 87.3916016,208.4852295 90.7205811,208.4852295 90.7205811,222.4302216 108.8035889,222.4302216 
	108.8035889,216.8522186 131.654541,216.8522186 131.654541,185.274231 90.7205811,185.274231 90.7205811,186.893219 
	87.3916016,186.893219 87.3916016,141.0112305 90.7205811,141.0112305 90.7205811,180.2362366 133.9035645,180.2362366 
	133.9035645,115.4612122 90.7205811,115.4612122 90.7205811,117.9802246 87.3916016,117.9802246 87.3916016,115.4612122 
	83.9725952,115.4612122 83.9725952,112.1322327 117.2595215,112.1322327 117.2595215,109.6132202 120.588501,109.6132202 
	120.588501,112.1322327 138.9415283,112.1322327 138.9415283,229.7172089 "/>
<rect x="147.5786133" y="82.1741028" class="st1" width="4.9890137" height="3.32901"/>
<line class="st2" x1="166.4710693" y1="180.8659973" x2="138.94104" y2="180.8659973"/>
<line class="st2" x1="166.4710693" y1="188.1531067" x2="138.94104" y2="188.1531067"/>
<polyline class="st2" points="88.7507935,80.0147095 31.7927856,80.0147095 31.7927856,81.0947266 89.0637817,81.0947266 "/>
<line class="st2" x1="229.9365234" y1="20.079895" x2="210.0144043" y2="20.079895"/>
<line class="st2" x1="229.9365234" y1="16.8410034" x2="210.0144043" y2="16.8410034"/>
<line class="st3" x1="124.4571533" y1="216.852005" x2="124.4571533" y2="214.710022"/>
<line class="st4" x1="124.4571533" y1="212.6105042" x2="124.4571533" y2="188.4665222"/>
<line class="st3" x1="124.4571533" y1="187.4162903" x2="124.4571533" y2="185.274292"/>
<line class="st3" x1="168.041626" y1="63.4612122" x2="165.8995361" y2="63.4612122"/>
<line class="st5" x1="163.6275635" y1="63.4612122" x2="123.8664551" y2="63.4612122"/>
<line class="st3" x1="122.7305908" y1="63.4612122" x2="120.588501" y2="63.4612122"/>
<line class="st2" x1="38.2702637" y1="52.2153931" x2="14.8792114" y2="52.2153931"/>
<line class="st2" x1="38.2702637" y1="48.9767151" x2="14.8792114" y2="48.9767151"/>
<line class="st2" x1="11.640564" y1="226.4785004" x2="87.2115479" y2="226.4785004"/>
<line class="st2" x1="11.640564" y1="229.7172089" x2="87.2115479" y2="229.7172089"/>
<line class="st2" x1="166.4710693" y1="184.9143982" x2="230.0760498" y2="184.9143982"/>
<line class="st2" x1="166.4710693" y1="188.1531067" x2="230.0760498" y2="188.1531067"/>
<polygon class="st2" points="136.5124512,231.876297 138.6713867,231.876297 138.6713867,239.3063049 231.1563721,239.3063049 
	231.1563721,241.4663086 136.5124512,241.4663086 "/>
<rect x="138.9416504" y="184.914093" class="st2" width="1.4389648" height="3.2390137"/>
<line class="st2" x1="166.4710693" y1="180.8659973" x2="166.4710693" y2="184.9140015"/>
<path class="st2" d="M164.9049072,85.502594c0,2.1660156,0.5699463,4.2930298,1.6529541,6.1690063"/>
<path class="st2" d="M163.2521973,91.6713867c1.0828857-1.8759766,1.6529541-4.0029907,1.6529541-6.1689758"/>
<rect x="165.4164581" y="87.4118118" transform="matrix(0.8660259 -0.4999991 0.4999991 0.8660259 -21.0327454 97.5877686)" class="st2" width="12.3376007" height="1.2595825"/>
<rect x="157.5949097" y="81.8728333" transform="matrix(0.5000033 -0.8660235 0.8660235 0.5000033 2.8657186 181.046814)" class="st2" width="1.259552" height="12.3375549"/>
<rect x="90.7205811" y="117.9801025" class="st2" width="23.0310059" height="1.2590027"/>
<path class="st2" d="M90.7201538,141.0112915c12.7199707,0,23.0309448-10.3109741,23.0309448-23.0309753"/>
<rect x="90.7205811" y="186.894104" class="st2" width="21.592041" height="1.2590027"/>
<path class="st2" d="M90.7201538,208.4852905c11.9249878,0,21.59198-9.6669922,21.59198-21.59198"/>
<rect x="185.404541" y="60.5820923" class="st2" width="1.2590332" height="21.5920105"/>
<path class="st2" d="M206.9967041,82.1738892c0-11.9249878-9.6671143-21.59198-21.592041-21.59198"/>
<line class="st3" x1="6.602356" y1="133.0043945" x2="8.7443237" y2="133.0043945"/>
<line class="st6" x1="10.7415771" y1="133.0043945" x2="51.6835327" y2="133.0043945"/>
<line class="st3" x1="52.6820068" y1="133.0043945" x2="54.8239746" y2="133.0043945"/>
<line class="st2" x1="229.9365234" y1="11.803009" x2="210.0144043" y2="11.803009"/>
<line class="st2" x1="35.3913574" y1="82.1738892" x2="35.3913574" y2="81.0939026"/>
<line class="st2" x1="35.3913574" y1="80.0147095" x2="35.3913574" y2="56.2637329"/>
<line class="st2" x1="85.7720947" y1="82.1738892" x2="85.7720947" y2="81.0939026"/>
<line class="st2" x1="85.7720947" y1="80.0147095" x2="85.7720947" y2="70.4487305"/>
<line class="st2" x1="85.7720947" y1="69.1738892" x2="85.7720947" y2="67.7879028"/>
<polyline class="st2" points="82.40271,56.2337952 85.4766846,67.7048035 88.0206909,68.4237976 83.7026978,69.8638 
	86.2476807,70.5838013 89.3536987,82.1737976 "/>
<line class="st2" x1="42.5886841" y1="82.1738892" x2="42.5886841" y2="81.0939026"/>
<line class="st2" x1="42.5886841" y1="80.0147095" x2="42.5886841" y2="56.2637329"/>
<line class="st2" x1="49.7857666" y1="82.1738892" x2="49.7857666" y2="81.0939026"/>
<line class="st2" x1="49.7857666" y1="80.0147095" x2="49.7857666" y2="56.2637329"/>
<line class="st2" x1="56.9830933" y1="82.1738892" x2="56.9830933" y2="81.0939026"/>
<line class="st2" x1="56.9830933" y1="80.0147095" x2="56.9830933" y2="56.2637329"/>
<line class="st2" x1="64.1803589" y1="82.1738892" x2="64.1803589" y2="81.0939026"/>
<line class="st2" x1="64.1803589" y1="80.0147095" x2="64.1803589" y2="56.2637329"/>
<line class="st2" x1="71.3775635" y1="82.1738892" x2="71.3775635" y2="81.0939026"/>
<line class="st2" x1="71.3775635" y1="80.0147095" x2="71.3775635" y2="56.2637329"/>
<line class="st2" x1="78.5747681" y1="82.1738892" x2="78.5747681" y2="81.0939026"/>
<line class="st2" x1="78.5747681" y1="80.0147095" x2="78.5747681" y2="56.2637329"/>
<rect x="228.4975586" y="16.841095" class="st2" width="1.4389648" height="3.2390137"/>
<rect x="210.0146484" y="16.841095" class="st2" width="1.4389648" height="3.2390137"/>
<line class="st2" x1="228.4971924" y1="17.5606995" x2="211.4541016" y2="17.5606995"/>
<line class="st2" x1="228.4971924" y1="18.2803955" x2="211.4541016" y2="18.2803955"/>
<path class="st2" d="M133.5878906,91.6713867c1.0828857-1.8759766,1.6529541-4.0029907,1.6529541-6.1689758"/>
<path class="st2" d="M135.2408447,85.502594c0,2.1660156,0.5699463,4.2930298,1.6529541,6.1690063"/>
<rect x="127.9305115" y="81.8730392" transform="matrix(0.5000377 -0.8660036 0.8660036 0.5000377 -11.9689989 155.3512573)" class="st7" width="1.2597961" height="12.3371267"/>
<rect x="135.7521515" y="87.4118195" transform="matrix(0.8660259 -0.4999991 0.4999991 0.8660259 -25.0069962 82.7556458)" class="st2" width="12.3376007" height="1.2595825"/>
<rect x="120.588623" y="108.3530884" class="st2" width="21.592041" height="1.2600098"/>
<path class="st2" d="M142.1802979,109.6133118c0-11.9249878-9.6671143-21.59198-21.592041-21.59198"/>
<rect x="62.3805542" y="115.4610901" class="st2" width="1.2600098" height="21.5920105"/>
<path class="st2" d="M62.3808594,137.0527039c11.9249878,0,21.59198-9.6669922,21.59198-21.59198"/>
<rect x="51.0445557" y="90.5411072" class="st2" width="1.2600098" height="21.5920105"/>
<rect x="9.121582" y="90.5411072" class="st2" width="1.2600098" height="21.5920105"/>
<path class="st2" d="M52.3048096,90.540802c-11.9250488,0-21.592041,9.6670227-21.592041,21.5920105"/>
<path class="st2" d="M30.7131958,112.1324158c0-11.9249878-9.6670532-21.59198-21.592041-21.59198"/>
<rect x="36.831543" y="48.9760742" class="st2" width="1.4390259" height="3.2390137"/>
<rect x="14.8795776" y="48.9760742" class="st2" width="1.4390259" height="3.2390137"/>
<line class="st2" x1="36.8308105" y1="49.6964111" x2="16.3187866" y2="49.6964111"/>
<line class="st2" x1="36.8308105" y1="50.4161072" x2="16.3187866" y2="50.4161072"/>
<line class="st2" x1="37.5505981" y1="56.263916" x2="15.5985718" y2="56.263916"/>
<rect x="11.640564" y="226.4781036" class="st2" width="1.4390259" height="3.2389984"/>
<rect x="85.772583" y="226.4781036" class="st2" width="1.4390259" height="3.2389984"/>
<rect x="28.1945801" y="226.4781036" class="st2" width="1.4390259" height="3.2389984"/>
<line class="st2" x1="13.0799561" y1="228.9974976" x2="28.1939087" y2="228.9974976"/>
<line class="st2" x1="13.0799561" y1="228.2776947" x2="28.1939087" y2="228.2776947"/>
<rect x="69.2185669" y="226.4781036" class="st2" width="1.4390259" height="3.2389984"/>
<line class="st2" x1="29.633606" y1="228.9974976" x2="69.2185669" y2="228.9974976"/>
<line class="st2" x1="29.633606" y1="228.2776947" x2="69.2185669" y2="228.2776947"/>
<line class="st2" x1="70.6577759" y1="228.9974976" x2="85.7717285" y2="228.9974976"/>
<line class="st2" x1="70.6577759" y1="228.2776947" x2="85.7717285" y2="228.2776947"/>
<line class="st2" x1="12.3602905" y1="222.4300079" x2="86.5032349" y2="222.4300079"/>
<rect x="166.4705811" y="184.914093" class="st2" width="1.4389648" height="3.2390137"/>
<rect x="228.6375732" y="184.914093" class="st2" width="1.4389648" height="3.2390137"/>
<rect x="185.1835938" y="184.914093" class="st2" width="1.4389648" height="3.2390137"/>
<line class="st2" x1="167.9105225" y1="187.4334106" x2="185.1834717" y2="187.4334106"/>
<line class="st2" x1="167.9105225" y1="186.7137146" x2="185.1834717" y2="186.7137146"/>
<rect x="206.7756348" y="184.914093" class="st2" width="1.4389648" height="3.2390137"/>
<line class="st2" x1="186.6231689" y1="187.4334106" x2="206.7751465" y2="187.4334106"/>
<line class="st2" x1="186.6231689" y1="186.7137146" x2="206.7751465" y2="186.7137146"/>
<line class="st2" x1="208.2148438" y1="187.4334106" x2="228.6368408" y2="187.4334106"/>
<line class="st2" x1="208.2148438" y1="186.7137146" x2="228.6368408" y2="186.7137146"/>
<line class="st2" x1="166.4710693" y1="180.8659973" x2="229.3570557" y2="180.8659973"/>
<rect x="140.3806152" y="188.1531067" class="st2" width="1.2600098" height="26.0899963"/>
<path class="st2" d="M140.3809814,214.2431946c14.4089355,0,26.0899658-11.6809998,26.0899658-26.0899963"/>
<line class="st2" x1="8.0418701" y1="205.2915039" x2="8.0418701" y2="162.1085205"/>
<rect x="6.6026001" y="162.1080933" class="st2" width="59.0170288" height="43.1830139"/>
<ellipse class="st2" cx="18.3839722" cy="172.9040222" rx="6.9716797" ry="13.0153198"/>
<path class="st2" d="M20.2772827,182.9801025c-3.7790527-0.9599915-7.7370605-0.9599915-11.5160522,0
	c0.960022-6.6829834,0.960022-13.4689941,0-20.1519775c3.7789917,0.9599915,7.7369995,0.9599915,11.5160522,0
	c-0.0820312,0.572998-0.15802,1.1470032-0.2260132,1.7219849"/>
<ellipse class="st2" cx="18.3839722" cy="194.4957123" rx="6.9716816" ry="13.0153351"/>
<path class="st2" d="M20.2772827,184.4197083c-3.7790527,0.960022-7.7370605,0.960022-11.5160522,0
	c0.960022,6.6830139,0.960022,13.4690247,0,20.1520081c3.7789917-0.9599915,7.7369995-0.9599915,11.5160522,0
	c-0.0820312-0.572998-0.15802-1.1470032-0.2260132-1.7219849"/>
<line class="st2" x1="15.2391968" y1="162.1082153" x2="15.2391968" y2="163.5362244"/>
<line class="st2" x1="24.5955811" y1="162.1082153" x2="24.5955811" y2="205.2912292"/>
<line class="st2" x1="15.2391968" y1="182.2715149" x2="15.2391968" y2="185.12854"/>
<line class="st2" x1="15.2391968" y1="203.8631897" x2="15.2391968" y2="205.2911987"/>
<path class="st2" d="M20.0514526,181.2582092c0.0679932,0.5750122,0.1429443,1.1490173,0.2259521,1.7220154"/>
<path class="st2" d="M20.2772827,184.4197083c-0.0820312,0.5730286-0.15802,1.1470032-0.2260132,1.7220154"/>
<rect x="8.0415649" y="206.7311096" class="st2" width="11.5159912" height="14.3939972"/>
<rect x="8.0415649" y="146.2750854" class="st2" width="11.5159912" height="14.3940125"/>
<circle class="st2" cx="13.7995605" cy="213.9281921" r="4.2789917"/>
<path class="st2" d="M12.7008057,213.9281921c0-0.6069946,0.4919434-1.098999,1.098999-1.098999
	c0.6069946,0,1.098999,0.4920044,1.098999,1.098999c0,0.6070251-0.4920044,1.0990295-1.098999,1.0990295
	C13.192749,215.0272217,12.7008057,214.5352173,12.7008057,213.9281921z"/>
<line class="st2" x1="18.0788574" y1="213.9281921" x2="14.8988037" y2="213.9281921"/>
<line class="st2" x1="12.7008057" y1="213.9281921" x2="9.520752" y2="213.9281921"/>
<line class="st2" x1="13.7998047" y1="218.2073059" x2="13.7998047" y2="215.0273132"/>
<line class="st2" x1="13.7998047" y1="212.8293152" x2="13.7998047" y2="209.6493225"/>
<ellipse transform="matrix(0.9264098 -0.3765166 0.3765166 0.9264098 -56.7690887 16.4897575)" class="st2" cx="13.7995586" cy="153.4715881" rx="4.2789888" ry="4.279007"/>
<path class="st2" d="M12.7008057,153.4715881c0-0.6069946,0.4919434-1.098999,1.098999-1.098999
	c0.6069946,0,1.098999,0.4920044,1.098999,1.098999c0,0.6070251-0.4920044,1.0990295-1.098999,1.0990295
	C13.192749,154.5706177,12.7008057,154.0786133,12.7008057,153.4715881z"/>
<line class="st2" x1="18.0788574" y1="153.4715881" x2="14.8988037" y2="153.4715881"/>
<line class="st2" x1="12.7008057" y1="153.4715881" x2="9.520752" y2="153.4715881"/>
<line class="st2" x1="13.7998047" y1="157.7504883" x2="13.7998047" y2="154.5704956"/>
<line class="st2" x1="13.7998047" y1="152.3724976" x2="13.7998047" y2="149.1925049"/>
<line class="st2" x1="229.7166748" y1="107.0942993" x2="229.7166748" y2="161.7933044"/>
<rect x="172.1396484" y="107.0940857" class="st2" width="59.0169678" height="54.6990051"/>
<path class="st2" d="M214.336792,136.243103c3.289917,0.960022,6.7858887,0.960022,10.0759277,0
	c-0.7199707,7.6600037-0.7199707,15.3710022,0,23.0310059c-3.2900391-0.9589844-6.7860107-0.9589844-10.0759277,0
	C215.0567627,151.6141052,215.0567627,143.9031067,214.336792,136.243103z"/>
<path class="st2" d="M217.4814453,135.1636047c3.7779541,0.960022,7.7369385,0.960022,11.5159912,0
	c-0.960083,8.3690186-0.960083,16.8210144,0,25.1900024c-3.7790527-0.9589844-7.7380371-0.9589844-11.5159912,0
	c0.0819092-0.572998,0.1569824-1.1470032,0.2259521-1.7219849"/>
<path class="st2" d="M214.336792,132.6445923c3.289917-0.9599915,6.7858887-0.9599915,10.0759277,0
	c-0.7199707-7.6599731-0.7199707-15.3709717,0-23.0309753c-3.2900391,0.958992-6.7860107,0.958992-10.0759277,0
	C215.0567627,117.2736206,215.0567627,124.9846191,214.336792,132.6445923z"/>
<path class="st2" d="M217.4814453,133.7242126c3.7779541-0.9599915,7.7369385-0.9599915,11.5159912,0
	c-0.960083-8.368988-0.960083-16.8209839,0-25.1899719c-3.7790527,0.9589844-7.7380371,0.9589844-11.5159912,0
	c0.0819092,0.572998,0.1569824,1.1469727,0.2259521,1.7209778"/>
<line class="st2" x1="222.5194092" y1="161.7932129" x2="222.5194092" y2="159.6452332"/>
<line class="st2" x1="213.1629639" y1="161.7932129" x2="213.1629639" y2="107.0942383"/>
<line class="st2" x1="222.5194092" y1="135.8721924" x2="222.5194092" y2="133.0151978"/>
<line class="st2" x1="222.5194092" y1="109.2424011" x2="222.5194092" y2="107.0944214"/>
<path class="st2" d="M217.7071533,136.8854065c-0.0681152-0.5749817-0.1430664-1.1489868-0.2260742-1.7219849"/>
<path class="st2" d="M217.4814453,133.7242126c0.0819092-0.572998,0.1569824-1.1469727,0.2259521-1.7219849"/>
<rect x="218.2015381" y="163.2330933" class="st2" width="11.5159912" height="14.394989"/>
<rect x="218.2015381" y="91.2610779" class="st2" width="11.5159912" height="14.3940125"/>
<path class="st2" d="M219.6798096,170.4299927c0-2.3629761,1.9158936-4.2789917,4.2789307-4.2789917
	s4.2790527,1.9160156,4.2790527,4.2789917c0,2.3630066-1.9160156,4.2790222-4.2790527,4.2790222
	S219.6798096,172.7929993,219.6798096,170.4299927z"/>
<path class="st2" d="M222.8598633,170.4299927c0-0.6069946,0.4919434-1.098999,1.098999-1.098999
	c0.6069336,0,1.098999,0.4920044,1.098999,1.098999c0,0.6070251-0.4920654,1.0990295-1.098999,1.0990295
	C223.3518066,171.5290222,222.8598633,171.0370178,222.8598633,170.4299927z"/>
<line class="st2" x1="223.9588623" y1="174.7091064" x2="223.9588623" y2="171.5291138"/>
<line class="st2" x1="223.9588623" y1="169.3311157" x2="223.9588623" y2="166.151123"/>
<line class="st2" x1="219.6798096" y1="170.4299927" x2="222.8597412" y2="170.4299927"/>
<line class="st2" x1="225.0578613" y1="170.4299927" x2="228.237793" y2="170.4299927"/>
<path class="st2" d="M219.6798096,98.4576111c0-2.3629761,1.9158936-4.2789917,4.2789307-4.2789917
	s4.2790527,1.9160156,4.2790527,4.2789917c0,2.3630066-1.9160156,4.2790222-4.2790527,4.2790222
	S219.6798096,100.8206177,219.6798096,98.4576111z"/>
<path class="st2" d="M222.8598633,98.4576111c0-0.6069946,0.4919434-1.098999,1.098999-1.098999
	c0.6069336,0,1.098999,0.4920044,1.098999,1.098999c0,0.6070251-0.4920654,1.0990295-1.098999,1.0990295
	C223.3518066,99.5566406,222.8598633,99.0646362,222.8598633,98.4576111z"/>
<line class="st2" x1="223.9588623" y1="94.1785889" x2="223.9588623" y2="97.3586121"/>
<line class="st2" x1="223.9588623" y1="99.5566101" x2="223.9588623" y2="102.7366333"/>
<line class="st2" x1="219.6798096" y1="98.4576111" x2="222.8597412" y2="98.4576111"/>
<line class="st2" x1="225.0578613" y1="98.4576111" x2="228.237793" y2="98.4576111"/>
<rect x="184.0665436" y="20.3076019" transform="matrix(0.8660318 -0.4999889 0.4999889 0.8660318 9.5150433 96.2336044)" class="st2" width="0.5398407" height="20.1068611"/>
<line class="st2" x1="180.7214355" y1="20.079895" x2="180.7214355" y2="23.559906"/>
<line class="st2" x1="180.7214355" y1="24.6397095" x2="180.7214355" y2="52.9347229"/>
<polyline class="st2" points="179.5430908,20.079895 179.5430908,21.5189209 179.0030518,21.5189209 179.0030518,20.079895 "/>
<rect x="179.00354" y="41.6260986" class="st2" width="0.5400391" height="11.3089905"/>
<line class="st2" x1="136.1052246" y1="36.8673096" x2="137.9881592" y2="36.8673096"/>
<line class="st2" x1="137.9880371" y1="36.8673096" x2="137.9880371" y2="36.1473389"/>
<line class="st2" x1="137.9880371" y1="36.1476135" x2="136.1049805" y2="36.1476135"/>
<line class="st2" x1="136.008667" y1="36.9573059" x2="136.1055908" y2="36.9573059"/>
<line class="st2" x1="136.1052246" y1="36.9573059" x2="136.1052246" y2="36.057312"/>
<line class="st2" x1="136.1052246" y1="36.0577087" x2="136.0081787" y2="36.0577087"/>
<line class="st2" x1="138.1037598" y1="38.144104" x2="138.1037598" y2="35.5551147"/>
<line class="st2" x1="137.9453125" y1="34.5603027" x2="137.4222412" y2="34.5603027"/>
<line class="st2" x1="137.4223633" y1="34.5603027" x2="137.4223633" y2="36.1473083"/>
<line class="st2" x1="137.4223633" y1="36.8673096" x2="137.4223633" y2="38.1443176"/>
<line class="st2" x1="137.4223633" y1="38.144104" x2="138.1032715" y2="38.144104"/>
<line class="st2" x1="138.1037598" y1="37.4675903" x2="137.4227295" y2="37.4675903"/>
<path class="st2" d="M139.0655518,36.1658936c0.5308838,0.0550232,0.9969482-0.4329834,1.0419922-1.0889893
	c0.0449219-0.6560059-0.348999-1.2319946-0.8800049-1.2860107c-0.0531006-0.0059814-0.1060791-0.0059814-0.1600342,0"/>
<path class="st2" d="M138.0220947,34.9754028c-0.0020752,0.65802,0.4279785,1.1930237,0.9609375,1.1940002
	c0.532959,0.0020142,0.9659424-0.5299988,0.9680176-1.1879883c0.0019531-0.6579895-0.4279785-1.1929932-0.9610596-1.1950073
	C138.4570312,33.7854309,138.0240479,34.3174133,138.0220947,34.9754028z"/>
<path class="st2" d="M138.2019043,35.6725159c-0.0300293-0.0359802-0.0600586-0.071991-0.0900879-0.1079712
	c-0.0629883-0.0740051-0.1290283-0.1480103-0.2109375-0.1980286c-0.0510254-0.0309753-0.1090088-0.0539856-0.1669922-0.0619812
	c-0.0280762-0.0039978-0.0560303-0.0050049-0.0839844-0.006012"/>
<path class="st2" d="M138.2050781,34.2810974c-0.0310059,0.0370178-0.0620117,0.0750122-0.0941162,0.11203
	c-0.0618896,0.0739746-0.1279297,0.1469727-0.2099609,0.197998c-0.0510254,0.0309753-0.1090088,0.0529785-0.1679688,0.0619812
	c-0.0279541,0.0039978-0.0560303,0.0050049-0.0839844,0.006012"/>
<path class="st2" d="M137.6495361,34.6593933c-0.177002,0.0760193-0.2580566,0.2800293-0.1820068,0.4560242
	c0.0349121,0.0820007,0.0999756,0.1470032,0.1820068,0.1829834"/>
<line class="st2" x1="136.008667" y1="36.9573059" x2="136.008667" y2="36.057312"/>
<path class="st2" d="M144.0731201,35.5812073c0-0.9259949,0.7509766-1.6769714,1.6768799-1.6769714
	c0.9260254,0,1.677002,0.7509766,1.677002,1.6769714c0,0.9260254-0.7509766,1.677002-1.677002,1.677002
	C144.8240967,37.2582092,144.0731201,36.5072327,144.0731201,35.5812073z"/>
<line class="st2" x1="177.8426514" y1="52.9350891" x2="177.8426514" y2="20.0801086"/>
<line class="st2" x1="177.8426514" y1="21.1595154" x2="166.9216309" y2="21.1595154"/>
<polyline class="st2" points="165.3721924,21.1595154 140.0571289,21.1595154 140.0571289,34.5835266 "/>
<path class="st2" d="M179.5430908,41.6264038c3.5299072,0,6.9969482-0.9289856,10.0539551-2.6939697"/>
<line class="st2" x1="165.3607178" y1="21.0346069" x2="166.9337158" y2="21.0346069"/>
<line class="st2" x1="168.7559814" y1="20.6708984" x2="163.5379639" y2="20.6708984"/>
<path class="st2" d="M163.579834,20.7225037c0.5828857,0.1590271,1.1789551,0.2640076,1.7808838,0.3120117"/>
<path class="st2" d="M166.9333496,21.0346069c0.6019287-0.0489807,1.197998-0.1529846,1.7808838-0.3119812"/>
<line class="st2" x1="168.7657471" y1="20.4844055" x2="168.7557373" y2="20.6704102"/>
<line class="st2" x1="163.5380859" y1="20.6708984" x2="163.5280762" y2="20.4849243"/>
<path class="st2" d="M168.7143555,20.7225037c0.0239258-0.0059814,0.039917-0.0269775,0.0419922-0.0519714"/>
<path class="st2" d="M163.5380859,20.6708984c0.0009766,0.0240173,0.0179443,0.0450134,0.0419922,0.052002"/>
<line class="st2" x1="166.9221191" y1="21.0346069" x2="166.9221191" y2="21.7176208"/>
<line class="st2" x1="165.3721924" y1="21.7175903" x2="165.3721924" y2="21.0346069"/>
<line class="st2" x1="165.5368652" y1="22.1112061" x2="166.1407471" y2="22.1112061"/>
<line class="st2" x1="166.140625" y1="22.1112061" x2="166.1535645" y2="22.1112061"/>
<line class="st2" x1="166.8922119" y1="22.1112061" x2="166.7572021" y2="22.1112061"/>
<line class="st2" x1="165.5368652" y1="22.1112061" x2="165.4018555" y2="22.1112061"/>
<line class="st2" x1="166.1535645" y1="22.1112061" x2="166.7574463" y2="22.1112061"/>
<line class="st2" x1="166.9006348" y1="22.1196899" x2="166.8815918" y2="23.2087097"/>
<line class="st2" x1="165.4124756" y1="23.2088928" x2="165.3934326" y2="22.1199036"/>
<path class="st2" d="M166.9006348,22.1196899c0-0.0049744-0.0040283-0.0089722-0.0080566-0.0089722"/>
<path class="st2" d="M165.4020996,22.1112061c-0.0050049,0-0.0090332,0.0040283-0.0090332,0.0080261"/>
<path class="st2" d="M165.4124756,23.2088928c0,0.0120239,0.0098877,0.0220032,0.0219727,0.0220032"/>
<path class="st2" d="M166.8598633,23.2312012c0.0119629-0.0009766,0.0219727-0.0099792,0.0219727-0.0219727"/>
<path class="st2" d="M165.4343262,23.2312012c0.4749756,0.0180054,0.9509277,0.0180054,1.4259033,0"/>
<path class="st2" d="M166.8148193,22.1112061c0.0699463-0.118988,0.1069336-0.2549744,0.1069336-0.3939819"/>
<path class="st2" d="M165.3721924,21.7175903c0,0.1380005,0.0369873,0.2740173,0.1069336,0.3940125"/>
<line class="st2" x1="163.5283203" y1="20.4844055" x2="163.5283203" y2="20.0794067"/>
<line class="st2" x1="168.7657471" y1="20.4844055" x2="168.7657471" y2="20.0794067"/>
<polyline class="st2" points="177.8426514,51.8555908 140.0566406,51.8555908 140.0566406,35.3706055 "/>
<path class="st2" d="M221.4189453,51.9140015c0-0.5999756,0.4869385-1.0869751,1.0869141-1.0869751
	s1.0870361,0.4869995,1.0870361,1.0869751c0,0.6000061-0.4870605,1.0870056-1.0870361,1.0870056
	S221.4189453,52.5140076,221.4189453,51.9140015z"/>
<path class="st2" d="M221.8759766,51.9135132c0-0.3479919,0.2819824-0.6299744,0.6298828-0.6299744
	c0.3480225,0,0.6300049,0.2819824,0.6300049,0.6299744c0,0.3480225-0.2819824,0.6300049-0.6300049,0.6300049
	C222.157959,52.5435181,221.8759766,52.2615356,221.8759766,51.9135132z"/>
<line class="st2" x1="225.423584" y1="51.4509888" x2="228.838501" y2="51.4509888"/>
<path class="st2" d="M225.423584,51.4509888c-0.1411133,0-0.2550049,0.1140137-0.2550049,0.2550049"/>
<path class="st2" d="M225.1685791,52.1220093c0,0.1410217,0.1138916,0.2550049,0.2548828,0.2550049"/>
<line class="st2" x1="225.1685791" y1="51.7061157" x2="225.1685791" y2="52.1221313"/>
<path class="st2" d="M228.9099121,52.2901917c-0.0720215-0.0819702-0.1760254-0.1279907-0.2850342-0.1279907"/>
<path class="st2" d="M228.6246338,51.6661987c0.1088867,0,0.2128906-0.0469971,0.2849121-0.1279907"/>
<line class="st2" x1="227.0192871" y1="51.6661987" x2="228.6242676" y2="51.6661987"/>
<line class="st2" x1="228.6245117" y1="52.1618042" x2="227.0194092" y2="52.1618042"/>
<path class="st2" d="M226.8774414,52.019989c0,0.0780029,0.0629883,0.1420288,0.1419678,0.1420288"/>
<line class="st2" x1="226.8774414" y1="51.8080139" x2="226.8774414" y2="52.0200195"/>
<path class="st2" d="M229.1064453,52.433197c-0.0841064-0.0369873-0.1760254-0.0559998-0.2680664-0.0559998"/>
<path class="st2" d="M228.8387451,51.4509888c0.0919189,0,0.1829834-0.0189819,0.2679443-0.0559998"/>
<line class="st2" x1="228.8387451" y1="52.3770142" x2="225.4237061" y2="52.3770142"/>
<path class="st2" d="M228.8320312,52.3770142c0.2559814,0.2770081,0.6879883,0.2950134,0.9649658,0.0390015
	c0.2769775-0.2559814,0.2939453-0.6879883,0.0389404-0.9649963c-0.2559814-0.2769775-0.6879883-0.2949829-0.9649658-0.0390015
	c-0.0140381,0.0130005-0.0269775,0.026001-0.0389404,0.0390015"/>
<path class="st2" d="M228.9099121,52.2901917c0.2078857,0.2340088,0.565918,0.256012,0.7999268,0.0480042
	c0.2340088-0.2079773,0.2559814-0.565979,0.0479736-0.7999878s-0.565918-0.256012-0.7999268-0.0480042
	c-0.0170898,0.0150146-0.0330811,0.0310059-0.0479736,0.0480042"/>
<path class="st2" d="M227.0192871,51.6661987c-0.0780029,0-0.1420898,0.0640259-0.1420898,0.1420288"/>
<path class="st2" d="M227.8837891,51.4509888c-0.2550049-2.9699707-2.8701172-5.17099-5.8400879-4.9159851
	c-2.9709473,0.256012-5.1719971,2.8710022-4.9160156,5.8410034c0.2550049,2.9700012,2.8699951,5.17099,5.8400879,4.9159851
	c2.6159668-0.2249756,4.690918-2.2989807,4.9160156-4.914978"/>
<path class="st2" d="M221.4189453,71.3782043c0-0.5999756,0.4869385-1.0869751,1.0869141-1.0869751
	s1.0870361,0.4869995,1.0870361,1.0869751c0,0.6000061-0.4870605,1.0870056-1.0870361,1.0870056
	S221.4189453,71.9782104,221.4189453,71.3782043z"/>
<path class="st2" d="M221.8759766,71.3777161c0-0.3479919,0.2819824-0.6299744,0.6298828-0.6299744
	c0.3480225,0,0.6300049,0.2819824,0.6300049,0.6299744c0,0.3480225-0.2819824,0.6300049-0.6300049,0.6300049
	C222.157959,72.0077209,221.8759766,71.7257385,221.8759766,71.3777161z"/>
<line class="st2" x1="225.423584" y1="70.9151917" x2="228.838501" y2="70.9151917"/>
<path class="st2" d="M225.423584,70.9151917c-0.1411133,0-0.2550049,0.1140137-0.2550049,0.2550049"/>
<path class="st2" d="M225.1685791,71.5860901c0,0.1410217,0.1138916,0.2550049,0.2548828,0.2550049"/>
<line class="st2" x1="225.1685791" y1="71.1701965" x2="225.1685791" y2="71.5862122"/>
<path class="st2" d="M228.9099121,71.754303c-0.0720215-0.0819702-0.1760254-0.1279907-0.2850342-0.1279907"/>
<path class="st2" d="M228.6246338,71.1304016c0.1088867,0,0.2128906-0.0469971,0.2849121-0.1279907"/>
<line class="st2" x1="227.0192871" y1="71.1304016" x2="228.6242676" y2="71.1304016"/>
<line class="st2" x1="228.6245117" y1="71.6260071" x2="227.0194092" y2="71.6260071"/>
<path class="st2" d="M226.8774414,71.4841919c0,0.0780029,0.0629883,0.1420288,0.1419678,0.1420288"/>
<line class="st2" x1="226.8774414" y1="71.2721863" x2="226.8774414" y2="71.4841919"/>
<path class="st2" d="M229.1064453,71.8973083c-0.0841064-0.0369873-0.1760254-0.0559998-0.2680664-0.0559998"/>
<path class="st2" d="M228.8387451,70.9151917c0.0919189,0,0.1829834-0.0189819,0.2679443-0.0559998"/>
<line class="st2" x1="228.8387451" y1="71.8411865" x2="225.4237061" y2="71.8411865"/>
<path class="st2" d="M228.8320312,71.8411865c0.2559814,0.2770081,0.6879883,0.2950134,0.9649658,0.0390015
	c0.2769775-0.2559814,0.2939453-0.6879883,0.0389404-0.9649963c-0.2559814-0.2769775-0.6879883-0.2949829-0.9649658-0.0390015
	c-0.0140381,0.0130005-0.0269775,0.026001-0.0389404,0.0390015"/>
<path class="st2" d="M228.9099121,71.754303c0.2078857,0.2340088,0.565918,0.256012,0.7999268,0.0480042
	c0.2340088-0.2079773,0.2559814-0.565979,0.0479736-0.7999878s-0.565918-0.256012-0.7999268-0.0480042
	c-0.0170898,0.0150146-0.0330811,0.0310059-0.0479736,0.0480042"/>
<path class="st2" d="M227.0192871,71.1304016c-0.0780029,0-0.1420898,0.0640259-0.1420898,0.1420288"/>
<path class="st2" d="M227.8837891,70.9151917c-0.2550049-2.9699707-2.8701172-5.17099-5.8400879-4.914978
	c-2.9709473,0.2550049-5.1719971,2.8699951-4.9160156,5.8399963c0.2550049,2.9700012,2.8699951,5.17099,5.8400879,4.9159851
	c2.6159668-0.2249756,4.690918-2.2989807,4.9160156-4.914978"/>
<path class="st2" d="M217.6495361,36.3259888c0.9639893,0,1.9219971-0.1399841,2.8459473-0.414978
	c0.8029785-0.2390137,1.5599365-0.6109924,2.2399902-1.1000061c0.2419434-0.1730042,0.4689941-0.3659973,0.6810303-0.5750122"/>
<path class="st2" d="M217.6495361,36.3259888c-0.9641113,0-1.9221191-0.1399841-2.8460693-0.414978
	c-0.8029785-0.2390137-1.5599365-0.6109924-2.2399902-1.1000061c-0.6540527-0.4700012-1.2010498-1.0750122-1.6030273-1.7730103
	c-0.3299561-0.572998-0.5040283-1.2219849-0.5040283-1.8829956c0-0.6619873,0.1740723-1.3110046,0.5040283-1.8840027
	c0.4019775-0.697998,0.9489746-1.3029785,1.6030273-1.7729797c0.6800537-0.4890137,1.4370117-0.8610229,2.2399902-1.1000061
	c0.9239502-0.2749939,1.881958-0.4150085,2.8460693-0.4150085c0.9639893,0,1.9219971,0.1400146,2.8459473,0.4150085
	c0.8029785,0.2389832,1.5599365,0.6109924,2.2399902,1.1000061c0.2419434,0.1729736,0.4689941,0.3659973,0.6810303,0.5749817
	v6.1629944"/>
<path class="st2" d="M226.7000732,35.204895c-2.2980957,0.1360168-4.585083,0.428009-6.8441162,0.8740234"/>
<path class="st2" d="M225.8937988,29.1492004c0.098999-0.5149841,0.2619629-1.0159912,0.4838867-1.4909973
	c0.2600098-0.5579834,0.6621094-1.039978,1.1650391-1.3959961c0.1920166-0.1369934,0.4320068-0.1889954,0.6629639-0.144989
	l2.125,0.4069824c0.1390381,0.0270081,0.2399902,0.1480103,0.2399902,0.2890015v8.6820068
	c0,0.1419983-0.1009521,0.2630005-0.2399902,0.2900085l-2.125,0.4060059
	c-0.230957,0.0449829-0.4709473-0.007019-0.6629639-0.1440125c-0.5029297-0.3569946-0.9050293-0.8379822-1.1650391-1.3959961
	c-0.2219238-0.4760132-0.3848877-0.9760132-0.4838867-1.4909973c-0.1280518-0.6610107-0.1920166-1.3330078-0.1920166-2.006012
	S225.7657471,29.8102112,225.8937988,29.1492004z"/>
<path class="st2" d="M226.7000732,27.1040955c-2.2980957-0.1359863-4.585083-0.4279785-6.8441162-0.8739929"/>
<path class="st2" d="M227.3873291,31.1546021c0-0.2979736,0.2419434-0.539978,0.539917-0.539978
	s0.5400391,0.2420044,0.5400391,0.539978c0,0.2980042-0.2420654,0.5400085-0.5400391,0.5400085
	S227.3873291,31.4526062,227.3873291,31.1546021z"/>
<path class="st2" d="M120.3970947,151.7605896c0.9639893,0,1.9219971-0.1399841,2.8459473-0.414978
	c0.8029785-0.2390137,1.5599365-0.6109924,2.2399902-1.1000061c0.2419434-0.1740112,0.4689941-0.3659973,0.6810303-0.5750122"/>
<path class="st2" d="M120.3970947,151.7605896c-0.9641113,0-1.9221191-0.1399841-2.8460693-0.414978
	c-0.8029785-0.2390137-1.5599365-0.6109924-2.2399902-1.1000061c-0.6540527-0.4700012-1.2010498-1.0750122-1.6030273-1.7730103
	c-0.3299561-0.572998-0.5040283-1.2219849-0.5040283-1.8840027c0-0.6609802,0.1740723-1.3099976,0.5040283-1.8829956
	c0.4019775-0.697998,0.9489746-1.3029785,1.6030273-1.7729797c0.6800537-0.4890137,1.4370117-0.8610229,2.2399902-1.1000061
	c0.9239502-0.2749939,1.881958-0.4150085,2.8460693-0.4150085c0.9639893,0,1.9219971,0.1400146,2.8459473,0.4150085
	c0.8029785,0.2389832,1.5599365,0.6109924,2.2399902,1.1000061c0.2419434,0.1729736,0.4689941,0.3659973,0.6810303,0.5759888
	v6.1619873"/>
<path class="st2" d="M129.4473877,150.6395874c-2.2980957,0.1360168-4.585083,0.428009-6.8441162,0.8740234"/>
<path class="st2" d="M128.6411133,144.5838013c0.0999756-0.5149841,0.2619629-1.0159912,0.4838867-1.4909973
	c0.2611084-0.5579834,0.6621094-1.039978,1.1650391-1.3959961c0.1920166-0.1369934,0.4320068-0.1889954,0.6629639-0.144989
	l2.125,0.4069824c0.1390381,0.0270081,0.2399902,0.1480103,0.2399902,0.2890015v8.6820068
	c0,0.1410217-0.1009521,0.2630005-0.2399902,0.2890015l-2.125,0.4070129
	c-0.230957,0.0440063-0.4709473-0.007019-0.6629639-0.1440125c-0.5029297-0.3569946-0.9039307-0.8379822-1.1650391-1.3970032
	c-0.2219238-0.4750061-0.3839111-0.9750061-0.4838867-1.4899902c-0.1280518-0.6610107-0.1920166-1.3330078-0.1920166-2.006012
	S128.5130615,145.244812,128.6411133,144.5838013z"/>
<path class="st2" d="M129.4473877,142.5387878c-2.2980957-0.1359863-4.585083-0.4279785-6.8441162-0.8739929"/>
<path class="st2" d="M130.1346436,146.5891113c0-0.2979736,0.2419434-0.539978,0.539917-0.539978
	s0.5400391,0.2420044,0.5400391,0.539978c0,0.2980042-0.2420654,0.5400085-0.5400391,0.5400085
	S130.1346436,146.8871155,130.1346436,146.5891113z"/>
<rect x="10.6226196" y="118.9151001" class="st2" width="19.4329834" height="1.1350098"/>
<rect x="31.4945679" y="118.9151001" class="st2" width="19.4329834" height="1.1350098"/>
<line class="st3" x1="30.0553589" y1="120.0493164" x2="30.0553589" y2="121.1203308"/>
<line class="st8" x1="30.0553589" y1="122.1700134" x2="30.0553589" y2="137.3910217"/>
<line class="st3" x1="30.0553589" y1="137.9161072" x2="30.0553589" y2="138.9871216"/>
<line class="st3" x1="30.0553589" y1="138.9870911" x2="28.984314" y2="138.9870911"/>
<line class="st9" x1="27.9036865" y1="138.9870911" x2="12.2346802" y2="138.9870911"/>
<line class="st3" x1="11.6939087" y1="138.9870911" x2="10.6228638" y2="138.9870911"/>
<line class="st3" x1="10.6228027" y1="138.9870911" x2="10.6228027" y2="137.9161072"/>
<line class="st8" x1="10.6228027" y1="136.8663025" x2="10.6228027" y2="121.6453247"/>
<line class="st3" x1="10.6228027" y1="121.1203003" x2="10.6228027" y2="120.0493164"/>
<line class="st3" x1="31.494751" y1="120.0493164" x2="31.494751" y2="121.1203308"/>
<line class="st8" x1="31.494751" y1="122.1700134" x2="31.494751" y2="137.3910217"/>
<line class="st3" x1="31.494751" y1="137.9161072" x2="31.494751" y2="138.9871216"/>
<line class="st3" x1="31.494751" y1="138.9870911" x2="32.5657349" y2="138.9870911"/>
<line class="st9" x1="33.6464844" y1="138.9870911" x2="49.3164673" y2="138.9870911"/>
<line class="st3" x1="49.8562622" y1="138.9870911" x2="50.9272461" y2="138.9870911"/>
<line class="st3" x1="50.9273682" y1="138.9870911" x2="50.9273682" y2="137.9161072"/>
<line class="st8" x1="50.9273682" y1="136.8663025" x2="50.9273682" y2="121.6453247"/>
<line class="st3" x1="50.9273682" y1="121.1203003" x2="50.9273682" y2="120.0493164"/>
<line class="st2" x1="131.2286377" y1="169.3553162" x2="129.5565186" y2="169.3553162"/>
<line class="st2" x1="129.5562744" y1="169.3553162" x2="128.6591797" y2="169.3553162"/>
<path class="st2" d="M128.7043457,169.3553162c-0.0150146,0.0010071-0.0300293,0.0010071-0.0450439,0
	c-0.1989746-0.0159912-0.3499756-0.2319946-0.3380127-0.4829712c0.0129395-0.2510071,0.18396-0.4420166,0.3830566-0.4260254"/>
<line class="st2" x1="131.2286377" y1="168.4458923" x2="129.5565186" y2="168.4458923"/>
<line class="st2" x1="129.5562744" y1="168.4458923" x2="128.6591797" y2="168.4458923"/>
<line class="st2" x1="133.2734375" y1="171.3475952" x2="133.3563232" y2="171.3475952"/>
<line class="st2" x1="133.2485352" y1="171.3475952" x2="133.3585205" y2="171.3475952"/>
<line class="st2" x1="133.9035645" y1="171.2544861" x2="133.3585205" y2="171.3475037"/>
<line class="st2" x1="131.2286377" y1="169.4619141" x2="131.2286377" y2="168.3389282"/>
<line class="st2" x1="131.293335" y1="169.4619141" x2="131.293335" y2="168.3389282"/>
<line class="st2" x1="131.3967285" y1="169.4679871" x2="131.3967285" y2="168.3330078"/>
<line class="st2" x1="133.039917" y1="169.6202087" x2="133.053833" y2="169.6202087"/>
<line class="st2" x1="131.2429199" y1="169.4764099" x2="131.2788086" y2="169.4764099"/>
<line class="st2" x1="131.2429199" y1="169.4764099" x2="131.2788086" y2="169.4764099"/>
<line class="st2" x1="131.3967285" y1="169.4679871" x2="133.0177002" y2="169.4679871"/>
<line class="st2" x1="131.3967285" y1="169.4305115" x2="131.2937012" y2="169.4345398"/>
<line class="st2" x1="130.3577881" y1="169.087616" x2="131.0267334" y2="169.087616"/>
<line class="st2" x1="130.3577881" y1="168.713501" x2="131.0267334" y2="168.713501"/>
<line class="st2" x1="131.3967285" y1="168.3706055" x2="131.2937012" y2="168.3666077"/>
<line class="st2" x1="133.0181885" y1="169.5986938" x2="133.0181885" y2="168.2026978"/>
<line class="st2" x1="133.0614014" y1="169.6202087" x2="133.0614014" y2="169.6142273"/>
<line class="st2" x1="133.0614014" y1="169.6202087" x2="133.0614014" y2="168.1812134"/>
<line class="st2" x1="131.3967285" y1="168.3330078" x2="133.0177002" y2="168.3330078"/>
<line class="st2" x1="131.2429199" y1="168.3247986" x2="131.2788086" y2="168.3247986"/>
<line class="st2" x1="131.2429199" y1="168.3247986" x2="131.2788086" y2="168.3247986"/>
<line class="st2" x1="133.039917" y1="168.1807861" x2="133.053833" y2="168.1807861"/>
<line class="st2" x1="133.1766357" y1="171.2756958" x2="133.1766357" y2="166.5256958"/>
<line class="st2" x1="133.9035645" y1="166.5466919" x2="133.9035645" y2="171.2546997"/>
<line class="st2" x1="133.2734375" y1="166.4536133" x2="133.3563232" y2="166.4536133"/>
<line class="st2" x1="133.2485352" y1="166.4536133" x2="133.3585205" y2="166.4536133"/>
<line class="st2" x1="133.9035645" y1="166.5466919" x2="133.3585205" y2="166.4537048"/>
<path class="st2" d="M133.1766357,169.9259949c-0.0310059-0.1039734-0.0700684-0.2069702-0.1151123-0.3059998"/>
<path class="st2" d="M133.0614014,168.1807861c0.0458984-0.098999,0.0839844-0.2009888,0.1149902-0.3059998"/>
<path class="st2" d="M129.9835205,168.9005127c0-0.1289978,0.1049805-0.2339783,0.2338867-0.2339783
	c0.1290283,0,0.2340088,0.1049805,0.2340088,0.2339783c0,0.1290283-0.1049805,0.2340088-0.2340088,0.2340088
	C130.088501,169.1345215,129.9835205,169.029541,129.9835205,168.9005127z"/>
<path class="st2" d="M131.2286377,169.2892151c0-0.1109924-0.0900879-0.2019958-0.2020264-0.2019958"/>
<path class="st2" d="M131.0270996,168.713501c0.1109619,0,0.2019043-0.0899963,0.2019043-0.2019958"/>
<path class="st2" d="M133.1766357,171.2756958c0,0.0400085,0.0319824,0.0720215,0.0718994,0.0720215"/>
<path class="st2" d="M133.2485352,166.4536133c-0.0400391,0-0.0720215,0.0320129-0.0720215,0.0720215"/>
<path class="st2" d="M133.039917,168.1807861c-0.012085,0-0.0220947,0.0100098-0.0220947,0.0220032"/>
<path class="st2" d="M133.0181885,169.5986938c0,0.0120239,0.0098877,0.0220032,0.0219727,0.0220032"/>
<path class="st2" d="M131.293335,168.3392029c0-0.0079956-0.0061035-0.0139771-0.0140381-0.0139771"/>
<path class="st2" d="M131.2429199,168.3247986c-0.0080566,0-0.0140381,0.006012-0.0140381,0.0140076"/>
<path class="st2" d="M131.2286377,169.4619141c0,0.0080261,0.0059814,0.0140076,0.013916,0.0140076"/>
<path class="st2" d="M131.2790527,169.4764099c0.0079346,0,0.013916-0.0069885,0.013916-0.0139771"/>
<path class="st2" d="M125.9865723,168.9005127c0-0.5959778,0.4829102-1.0799866,1.0799561-1.0799866
	c0.5959473,0,1.0789795,0.4840088,1.0789795,1.0799866c0,0.5960083-0.4830322,1.0800171-1.0789795,1.0800171
	C126.4694824,169.9805298,125.9865723,169.496521,125.9865723,168.9005127z"/>
<rect x="90.7205811" y="157.2051086" class="st2" width="43.1829834" height="23.0310059"/>
<polyline class="st2" points="130.6646729,169.3553162 130.6646729,177.3573303 104.4135742,177.3573303 "/>
<polyline class="st2" points="102.9361572,177.3572998 93.7791138,177.3572998 93.7791138,160.4443054 130.6650391,160.4443054 
	130.6650391,168.4463196 "/>
<polyline class="st2" points="129.2253418,169.3553162 129.2253418,176.0983276 100.4363403,176.0983276 100.4363403,161.7033386 
	129.2253418,161.7033386 129.2253418,168.4463196 "/>
<line class="st2" x1="102.8887939" y1="179.281189" x2="104.461792" y2="179.281189"/>
<line class="st2" x1="106.2840576" y1="179.6451111" x2="101.06604" y2="179.6451111"/>
<path class="st2" d="M102.8887939,179.281189c-0.6020508,0.0490112-1.1980591,0.1530151-1.7810059,0.3120117"/>
<path class="st2" d="M106.2424316,179.5934143c-0.5830078-0.1589966-1.1790771-0.26297-1.7810059-0.3119812"/>
<line class="st2" x1="106.2938232" y1="179.831604" x2="106.2838135" y2="179.6456299"/>
<line class="st2" x1="101.0661621" y1="179.6451111" x2="101.0561523" y2="179.8311157"/>
<path class="st2" d="M106.2840576,179.6451111c-0.0010986-0.0239868-0.0180664-0.0449829-0.0421143-0.0519714"/>
<path class="st2" d="M101.1079712,179.5934143c-0.0240479,0.007019-0.0400391,0.0270081-0.0420532,0.052002"/>
<line class="st2" x1="104.4501953" y1="179.281189" x2="104.4501953" y2="178.5982056"/>
<line class="st2" x1="102.9002075" y1="178.5985107" x2="102.9002075" y2="179.2815247"/>
<line class="st2" x1="103.0647583" y1="178.2048035" x2="103.6687012" y2="178.2048035"/>
<line class="st2" x1="103.6687012" y1="178.2048035" x2="103.6816406" y2="178.2048035"/>
<line class="st2" x1="104.4202881" y1="178.2048035" x2="104.2852783" y2="178.2048035"/>
<line class="st2" x1="103.0647583" y1="178.2048035" x2="102.9297485" y2="178.2048035"/>
<line class="st2" x1="103.6815796" y1="178.2048035" x2="104.2855225" y2="178.2048035"/>
<line class="st2" x1="104.4287109" y1="178.1962891" x2="104.409668" y2="177.1072998"/>
<line class="st2" x1="102.9404907" y1="177.1070862" x2="102.9214478" y2="178.196106"/>
<path class="st2" d="M104.4202881,178.2048035c0.0048828,0,0.0079346-0.0039978,0.0079346-0.0079956"/>
<path class="st2" d="M102.9215088,178.1962891c0,0.0050049,0.0039673,0.0090027,0.0079956,0.0090027"/>
<path class="st2" d="M102.9624023,177.0848083c-0.0120239,0.0010071-0.0210571,0.0100098-0.0220337,0.0220032"/>
<path class="st2" d="M104.409668,177.1070862c0-0.0119934-0.0100098-0.0219727-0.0220947-0.0219727"/>
<path class="st2" d="M104.3878174,177.0848083c-0.4750366-0.0179749-0.9500122-0.0179749-1.4250488,0"/>
<path class="st2" d="M104.4501953,178.5985107c0-0.13797-0.0371094-0.2739868-0.1070557-0.3939819"/>
<path class="st2" d="M103.0075684,178.2048035c-0.0700073,0.1190186-0.1070557,0.2550049-0.1070557,0.3940125"/>
<line class="st2" x1="101.0563965" y1="179.831604" x2="101.0563965" y2="180.2366333"/>
<line class="st2" x1="106.2938232" y1="179.831604" x2="106.2938232" y2="180.2366333"/>
<path class="st2" d="M124.1662598,126.256897c0-0.5999756,0.4869385-1.0869751,1.0869141-1.0869751
	s1.0870361,0.4869995,1.0870361,1.0869751c0,0.6000061-0.4870605,1.0870056-1.0870361,1.0870056
	S124.1662598,126.8569031,124.1662598,126.256897z"/>
<path class="st2" d="M124.6234131,126.2575989c0-0.3479919,0.2819824-0.6299744,0.6298828-0.6299744
	c0.3480225,0,0.6300049,0.2819824,0.6300049,0.6299744c0,0.3480225-0.2819824,0.6300049-0.6300049,0.6300049
	C124.9053955,126.8876038,124.6234131,126.6056213,124.6234131,126.2575989z"/>
<path class="st2" d="M130.6311035,125.7939148c-0.2561035-2.9699707-2.8710938-5.1699829-5.842041-4.9139709
	c-2.9699707,0.2559814-5.1700439,2.8709717-4.9140625,5.8409729c0.2561035,2.9700012,2.8710938,5.1710205,5.842041,4.9150085
	c2.6149902-0.2259827,4.6889648-2.2999878,4.9140625-4.9159851"/>
<line class="st2" x1="128.1708984" y1="126.7200928" x2="131.5858154" y2="126.7200928"/>
<path class="st2" d="M127.9158936,126.4650879c0,0.1410217,0.1138916,0.2550049,0.2548828,0.2550049"/>
<path class="st2" d="M128.1708984,125.7939148c-0.1411133,0-0.2550049,0.1140137-0.2550049,0.2550049"/>
<line class="st2" x1="127.9158936" y1="126.4650879" x2="127.9158936" y2="126.0491028"/>
<path class="st2" d="M131.3720703,126.0090942c0.1088867,0,0.2128906-0.0469971,0.2849121-0.1279907"/>
<path class="st2" d="M131.6574707,126.6332092c-0.0731201-0.0819702-0.1760254-0.1279907-0.2850342-0.1279907"/>
<line class="st2" x1="129.7666016" y1="126.5049133" x2="131.371582" y2="126.5049133"/>
<line class="st2" x1="131.3720703" y1="126.0090942" x2="129.7669678" y2="126.0090942"/>
<path class="st2" d="M129.7666016,126.0090942c-0.0780029,0-0.1420898,0.0640259-0.1420898,0.1420288"/>
<line class="st2" x1="129.6247559" y1="126.3630981" x2="129.6247559" y2="126.151123"/>
<path class="st2" d="M131.5861816,125.7939148c0.0919189,0,0.1829834-0.0189819,0.2679443-0.0559998"/>
<path class="st2" d="M131.8537598,126.776001c-0.0841064-0.0369873-0.1760254-0.0559998-0.2680664-0.0559998"/>
<line class="st2" x1="131.5861816" y1="125.7939148" x2="128.1711426" y2="125.7939148"/>
<path class="st2" d="M131.5793457,126.7200928c0.2559814,0.2770081,0.6879883,0.2940063,0.9649658,0.0390015
	c0.2769775-0.2559814,0.2949219-0.6879883,0.0389404-0.9649963c-0.2559814-0.2769775-0.6879883-0.2949829-0.9649658-0.0390015
	c-0.0130615,0.0120239-0.0269775,0.0250244-0.0389404,0.0390015"/>
<path class="st2" d="M131.6574707,126.6332092c0.2078857,0.2340088,0.565918,0.2550049,0.7999268,0.0480042
	c0.2340088-0.2079773,0.2550049-0.565979,0.0479736-0.7999878c-0.2080078-0.2350159-0.565918-0.256012-0.7999268-0.0480042
	c-0.0170898,0.0150146-0.0330811,0.0310059-0.0479736,0.0480042"/>
<path class="st2" d="M129.6247559,126.3630981c0,0.0780029,0.0639648,0.1420288,0.1419678,0.1420288"/>
<polyline class="st2" points="233.3151855,244.0747986 133.9030762,244.0747986 133.9030762,229.7168121 "/>
<rect x="35.3916016" y="82.1741028" class="st2" width="81.868042" height="3.32901"/>
<rect x="214.9625244" y="42.2290955" class="st2" width="16.1939697" height="39.9450073"/>
<polyline class="st2" points="138.9775391,33.7867126 138.9775391,20.0797424 136.0084229,20.0797424 136.0084229,52.9347229 
	138.9775391,52.9347229 138.9775391,36.1697388 "/>
<rect x="90.7205811" y="216.8520966" class="st2" width="18.0830078" height="5.5780029"/>
<rect x="168.041626" y="56.2640991" class="st2" width="11.5159912" height="10.0759888"/>
<rect x="6.6026001" y="120.0491028" class="st2" width="48.2219849" height="21.5920105"/>
<rect x="117.7095947" y="115.4611206" class="st2" width="16.1939697" height="20.5119934"/>
<line class="st2" x1="121.5782471" y1="185.274292" x2="121.5782471" y2="216.8522949"/>
<line class="st2" x1="120.588623" y1="66.3399963" x2="168.0415039" y2="66.3399963"/>
<polygon class="st2" points="210.0142822,20.079895 136.0081787,20.079895 136.0081787,52.934906 182.8862305,52.934906 
	182.8862305,82.1739197 185.4052734,82.1739197 185.4052734,85.5028992 177.2421875,85.5028992 177.2421875,82.1739197 
	179.557251,82.1739197 179.557251,56.263916 120.5882568,56.263916 120.5882568,82.1739197 122.9031982,82.1739197 
	122.9031982,85.5028992 120.5882568,85.5028992 120.5882568,88.0219116 117.2592773,88.0219116 117.2592773,56.263916 
	37.5502319,56.263916 37.5502319,52.2159119 38.2702637,52.2159119 38.2702637,48.9768982 127.7321777,48.9768982 
	127.7321777,11.8029175 210.0142822,11.8029175 "/>
<polygon class="st2" points="229.9365234,11.803009 233.3154297,11.803009 233.3154297,0.1250305 244.8304443,0.1250305 
	244.8304443,53.3850098 239.0734863,53.3850098 239.0734863,226.4780121 244.8304443,226.4780121 244.8304443,258.8660278 
	233.3154297,258.8660278 233.3154297,188.1530151 230.076416,188.1530151 230.076416,184.9140015 229.3564453,184.9140015 
	229.3564453,180.8660278 231.1564941,180.8660278 231.1564941,85.5030212 206.99646,85.5030212 206.99646,82.1740112 
	231.1564941,82.1740112 231.1564941,20.0800171 229.9365234,20.0800171 "/>
<polygon class="st2" points="0.125,258.8659973 11.6409912,258.8659973 11.6409912,226.4779968 12.3719482,226.4779968 
	12.3719482,222.4300079 6.6019897,222.4300079 6.6019897,144.9700012 59.8619995,144.9700012 59.8619995,115.4609985 
	62.3809814,115.4609985 62.3809814,112.132019 52.3049927,112.132019 52.3049927,115.4609985 54.8239746,115.4609985 
	54.8239746,141.6410217 6.6019897,141.6410217 6.6019897,115.4609985 9.1209717,115.4609985 9.1209717,112.132019 
	6.6019897,112.132019 6.6019897,56.2640076 15.598999,56.2640076 15.598999,52.2149963 14.8789673,52.2149963 
	14.8789673,48.9769897 11.6409912,48.9769897 11.6409912,0.125 0.125,0.125 "/>
<polygon class="st2" points="87.2116089,229.7172089 87.2116089,226.4782104 86.6705933,226.4782104 86.6705933,222.4302216 
	87.3916016,222.4302216 87.3916016,208.4852295 90.7205811,208.4852295 90.7205811,222.4302216 108.8035889,222.4302216 
	108.8035889,216.8522186 131.654541,216.8522186 131.654541,185.274231 90.7205811,185.274231 90.7205811,186.893219 
	87.3916016,186.893219 87.3916016,141.0112305 90.7205811,141.0112305 90.7205811,180.2362366 133.9035645,180.2362366 
	133.9035645,115.4612122 90.7205811,115.4612122 90.7205811,117.9802246 87.3916016,117.9802246 87.3916016,115.4612122 
	83.9725952,115.4612122 83.9725952,112.1322327 117.2595215,112.1322327 117.2595215,109.6132202 120.588501,109.6132202 
	120.588501,112.1322327 138.9415283,112.1322327 138.9415283,229.7172089 "/>
<rect x="147.5786133" y="82.1741028" class="st2" width="4.9890137" height="3.32901"/>
<path class="st2" d="M36.8308105,69.1740112c0-0.7949829-0.644043-1.4389954-1.4390259-1.4399719
	c-0.7949829,0-1.4400024,0.644989-1.4400024,1.4399719c0,0.7950134,0.6450195,1.4390259,1.4400024,1.4390259
	S36.8308105,69.9690247,36.8308105,69.1740112h-1.4390259h44.4420166l-3.5970459-1.3099976v1.3099976"/>
<g>
	<path class="st10" d="M35.1014404,183.2532654c0,0.4091797-0.25,0.6191406-0.4951172,0.7255859
		c0.3701172,0.1113281,0.6689453,0.3251953,0.6689453,0.7578125c0,0.5390625-0.4501953,0.8554688-1.1318359,0.8554688h-1.3857422
		v-3.1191406h1.3271484C34.7000732,182.4729919,35.1014404,182.7757263,35.1014404,183.2532654z M34.7449951,183.3020935
		c0-0.3115234-0.2451172-0.5126953-0.6914062-0.5126953h-0.9482422v1.0742188h0.921875
		C34.4500732,183.8636169,34.7449951,183.6722107,34.7449951,183.3020935z M34.9178467,184.7142029
		c0-0.3427734-0.2851562-0.5390625-0.828125-0.5390625h-0.984375v1.1005859h1.046875
		C34.6239014,185.2757263,34.9178467,185.0667419,34.9178467,184.7142029z"/>
	<path class="st10" d="M38.5057373,182.794281h-1.9023438v1.0644531h1.7021484v0.3212891h-1.7021484v1.0917969h1.9248047v0.3203125
		h-2.2763672v-3.1191406h2.2539062V182.794281z"/>
	<path class="st10" d="M40.524292,185.5921326h-1.0820312v-3.1191406h1.0820312
		c0.9804688,0,1.6582031,0.6728516,1.6582031,1.5556641C42.1824951,184.9104919,41.5047607,185.5921326,40.524292,185.5921326z
		 M40.524292,182.7981873h-0.7304688v2.46875h0.7304688c0.7890625,0,1.2919922-0.5351562,1.2919922-1.2294922
		C41.8162842,183.3421326,41.3133545,182.7981873,40.524292,182.7981873z"/>
	<path class="st10" d="M45.3250732,185.5921326l-0.9042969-1.2119141h-0.8916016v1.2119141h-0.3515625v-3.1191406h1.3408203
		c0.6865234,0,1.1269531,0.3701172,1.1269531,0.9316406c0,0.5214844-0.3564453,0.8242188-0.8466797,0.9130859l0.9580078,1.2744141
		H45.3250732z M44.4920654,182.7981873h-0.9628906v1.265625h0.9580078c0.4677734,0,0.8017578-0.2402344,0.8017578-0.6455078
		C45.2889404,183.0306091,44.9949951,182.7981873,44.4920654,182.7981873z"/>
	<path class="st10" d="M48.0526123,185.6458435c-0.9492188,0-1.5869141-0.7441406-1.5869141-1.6083984
		s0.6464844-1.6171875,1.5957031-1.6171875c0.9482422,0,1.5859375,0.7431641,1.5859375,1.6083984
		C49.6473389,184.8929138,49.0008545,185.6458435,48.0526123,185.6458435z M48.0526123,182.7454529
		c-0.7128906,0-1.2216797,0.5703125-1.2216797,1.2832031s0.5175781,1.2919922,1.2304688,1.2919922
		s1.2207031-0.5703125,1.2207031-1.2832031S48.7655029,182.7454529,48.0526123,182.7454529z"/>
	<path class="st10" d="M52.0721436,185.6458435c-0.9482422,0-1.5859375-0.7441406-1.5859375-1.6083984
		s0.6464844-1.6171875,1.5957031-1.6171875c0.9482422,0,1.5859375,0.7431641,1.5859375,1.6083984
		C53.6678467,184.8929138,53.0213623,185.6458435,52.0721436,185.6458435z M52.0721436,182.7454529
		c-0.7128906,0-1.2207031,0.5703125-1.2207031,1.2832031s0.5175781,1.2919922,1.2304688,1.2919922
		s1.2207031-0.5703125,1.2207031-1.2832031S52.7850342,182.7454529,52.0721436,182.7454529z"/>
	<path class="st10" d="M56.1697998,184.7366638h-0.0185547l-1.1357422-1.6660156v2.5214844h-0.3427734v-3.1191406h0.3564453
		l1.1357422,1.7021484l1.1367188-1.7021484h0.3564453v3.1191406H57.305542v-2.5263672L56.1697998,184.7366638z"/>
</g>
<g>
	<path class="st10" d="M184.1014404,131.7854919h-0.0185547l-1.1357422-1.6660156v2.5214844h-0.3427734v-3.1191406h0.3564453
		l1.1357422,1.7021484l1.1367188-1.7021484h0.3564453v3.1191406h-0.3525391v-2.5263672L184.1014404,131.7854919z"/>
	<path class="st10" d="M189.6053467,132.6409607h-0.3779297l-0.3662109-0.8242188h-1.6972656l-0.3691406,0.8242188h-0.3613281
		l1.4208984-3.1416016h0.3300781L189.6053467,132.6409607z M188.0155029,129.9095154l-0.7128906,1.5908203h1.4208984
		L188.0155029,129.9095154z"/>
	<path class="st10" d="M191.5809326,130.9124451c0.6953125,0.1513672,1.015625,0.4052734,1.015625,0.8867188
		c0,0.5390625-0.4453125,0.8867188-1.0644531,0.8867188c-0.4951172,0-0.9003906-0.1650391-1.2744141-0.4990234l0.2177734-0.2587891
		c0.3251953,0.2939453,0.6376953,0.4414062,1.0693359,0.4414062c0.4189453,0,0.6953125-0.21875,0.6953125-0.5351562
		c0-0.2939453-0.15625-0.4589844-0.8105469-0.5966797c-0.7177734-0.15625-1.046875-0.3876953-1.046875-0.9042969
		c0-0.4990234,0.4316406-0.8554688,1.0244141-0.8554688c0.4541016,0,0.7792969,0.1289062,1.0957031,0.3828125l-0.2050781,0.2714844
		c-0.2890625-0.2353516-0.5791016-0.3378906-0.8994141-0.3378906c-0.4052734,0-0.6640625,0.2226562-0.6640625,0.5078125
		C190.7342529,130.5999451,190.8944092,130.7649841,191.5809326,130.9124451z"/>
	<path class="st10" d="M194.7362061,132.6409607h-0.3564453v-2.7939453h-1.046875v-0.3251953h2.4501953v0.3251953h-1.046875
		V132.6409607z"/>
	<path class="st10" d="M198.9012451,129.8431091h-1.9023438v1.0644531h1.7021484v0.3212891h-1.7021484v1.0917969h1.9248047
		v0.3203125h-2.2763672v-3.1191406h2.2539062V129.8431091z"/>
	<path class="st10" d="M201.9862061,132.6409607l-0.9042969-1.2119141h-0.8916016v1.2119141h-0.3515625v-3.1191406h1.3408203
		c0.6865234,0,1.1269531,0.3701172,1.1269531,0.9316406c0,0.5214844-0.3564453,0.8242188-0.8466797,0.9130859l0.9580078,1.2744141
		H201.9862061z M201.1531982,129.8470154h-0.9628906v1.265625h0.9580078c0.4677734,0,0.8017578-0.2402344,0.8017578-0.6455078
		C201.9500732,130.0794373,201.6561279,129.8470154,201.1531982,129.8470154z"/>
</g>
<g>
	<path class="st10" d="M182.2840576,135.2903748c0,0.4091797-0.25,0.6191406-0.4951172,0.7255859
		c0.3701172,0.1113281,0.6679688,0.3251953,0.6679688,0.7578125c0,0.5390625-0.4492188,0.8554688-1.1308594,0.8554688h-1.3857422
		v-3.1191406h1.3271484C181.8826904,134.5101013,182.2840576,134.8128357,182.2840576,135.2903748z M181.9276123,135.3392029
		c0-0.3115234-0.2451172-0.5126953-0.6914062-0.5126953h-0.9482422v1.0742188h0.921875
		C181.6326904,135.9007263,181.9276123,135.7093201,181.9276123,135.3392029z M182.1014404,136.7513123
		c0-0.3427734-0.2851562-0.5390625-0.8291016-0.5390625h-0.984375v1.1005859h1.046875
		C181.8065186,137.3128357,182.1014404,137.1038513,182.1014404,136.7513123z"/>
	<path class="st10" d="M185.6883545,134.8313904h-1.9023438v1.0644531h1.7021484v0.3212891h-1.7021484v1.0917969h1.9248047
		v0.3203125h-2.2763672v-3.1191406h2.2539062V134.8313904z"/>
	<path class="st10" d="M187.7069092,137.6292419h-1.0820312v-3.1191406h1.0820312
		c0.9804688,0,1.6582031,0.6728516,1.6582031,1.5556641C189.3651123,136.9476013,188.6873779,137.6292419,187.7069092,137.6292419z
		 M187.7069092,134.8352966h-0.7304688v2.46875h0.7304688c0.7890625,0,1.2929688-0.5351562,1.2929688-1.2294922
		C188.9998779,135.3792419,188.4959717,134.8352966,187.7069092,134.8352966z"/>
	<path class="st10" d="M192.5076904,137.6292419l-0.9042969-1.2119141h-0.8916016v1.2119141h-0.3515625v-3.1191406h1.3408203
		c0.6865234,0,1.1269531,0.3701172,1.1269531,0.9316406c0,0.5214844-0.3564453,0.8242188-0.8466797,0.9130859l0.9580078,1.2744141
		H192.5076904z M191.6746826,134.8352966h-0.9628906v1.265625h0.9580078c0.4677734,0,0.8017578-0.2402344,0.8017578-0.6455078
		C192.4715576,135.0677185,192.1776123,134.8352966,191.6746826,134.8352966z"/>
	<path class="st10" d="M195.2342529,137.6829529c-0.9482422,0-1.5859375-0.7441406-1.5859375-1.6083984
		s0.6464844-1.6171875,1.5957031-1.6171875c0.9482422,0,1.5859375,0.7431641,1.5859375,1.6083984
		C196.8299561,136.9300232,196.1834717,137.6829529,195.2342529,137.6829529z M195.2342529,134.7825623
		c-0.7128906,0-1.2207031,0.5703125-1.2207031,1.2832031s0.5175781,1.2919922,1.2304688,1.2919922
		s1.2207031-0.5703125,1.2207031-1.2832031S195.9471436,134.7825623,195.2342529,134.7825623z"/>
	<path class="st10" d="M199.2557373,137.6829529c-0.9492188,0-1.5869141-0.7441406-1.5869141-1.6083984
		s0.6464844-1.6171875,1.5957031-1.6171875c0.9482422,0,1.5859375,0.7431641,1.5859375,1.6083984
		C200.8504639,136.9300232,200.2039795,137.6829529,199.2557373,137.6829529z M199.2557373,134.7825623
		c-0.7128906,0-1.2216797,0.5703125-1.2216797,1.2832031s0.5175781,1.2919922,1.2304688,1.2919922
		s1.2207031-0.5703125,1.2207031-1.2832031S199.9686279,134.7825623,199.2557373,134.7825623z"/>
	<path class="st10" d="M203.352417,136.7737732h-0.0185547l-1.1357422-1.6660156v2.5214844h-0.3427734v-3.1191406h0.3564453
		l1.1357422,1.7021484l1.1367188-1.7021484h0.3564453v3.1191406h-0.3525391v-2.5263672L203.352417,136.7737732z"/>
</g>
<g>
	<path class="st10" d="M176.4608154,213.0227966c0,0.4091797-0.25,0.6191406-0.4951172,0.7255859
		c0.3701172,0.1113281,0.6689453,0.3251953,0.6689453,0.7578125c0,0.5390625-0.4501953,0.8554688-1.1318359,0.8554688h-1.3857422
		v-3.1191406h1.3271484C176.0594482,212.2425232,176.4608154,212.5452576,176.4608154,213.0227966z M176.1043701,213.0716248
		c0-0.3115234-0.2451172-0.5126953-0.6914062-0.5126953h-0.9482422v1.0742188h0.921875
		C175.8094482,213.6331482,176.1043701,213.4417419,176.1043701,213.0716248z M176.2772217,214.4837341
		c0-0.3427734-0.2851562-0.5390625-0.828125-0.5390625h-0.984375v1.1005859h1.046875
		C175.9832764,215.0452576,176.2772217,214.8362732,176.2772217,214.4837341z"/>
	<path class="st10" d="M180.4266357,215.3616638h-0.3779297l-0.3652344-0.8242188h-1.6982422l-0.3701172,0.8242188h-0.3603516
		l1.4208984-3.1416016h0.3300781L180.4266357,215.3616638z M178.836792,212.6302185l-0.7128906,1.5908203h1.4208984
		L178.836792,212.6302185z"/>
	<path class="st10" d="M181.2703857,212.2425232h0.3515625v2.7939453h1.7558594v0.3251953h-2.1074219V212.2425232z"/>
	<path class="st10" d="M185.5203857,215.4153748c-0.9003906,0-1.5644531-0.7089844-1.5644531-1.6083984
		c0-0.8916016,0.6591797-1.6171875,1.5771484-1.6171875c0.5664062,0,0.9052734,0.2001953,1.2167969,0.4941406l-0.2402344,0.2587891
		c-0.2636719-0.25-0.5576172-0.4277344-0.9804688-0.4277344c-0.6904297,0-1.2080078,0.5566406-1.2080078,1.2832031
		c0,0.7255859,0.5214844,1.2919922,1.2080078,1.2919922c0.4277344,0,0.7080078-0.1650391,1.0068359-0.4501953l0.2314453,0.2275391
		C186.4422607,215.1966248,186.0858154,215.4153748,185.5203857,215.4153748z"/>
	<path class="st10" d="M188.9959717,215.4153748c-0.9482422,0-1.5859375-0.7441406-1.5859375-1.6083984
		s0.6464844-1.6171875,1.5957031-1.6171875c0.9482422,0,1.5859375,0.7431641,1.5859375,1.6083984
		C190.5916748,214.6624451,189.9451904,215.4153748,188.9959717,215.4153748z M188.9959717,212.5149841
		c-0.7128906,0-1.2207031,0.5703125-1.2207031,1.2832031s0.5175781,1.2919922,1.2304688,1.2919922
		s1.2207031-0.5703125,1.2207031-1.2832031S189.7088623,212.5149841,188.9959717,212.5149841z"/>
	<path class="st10" d="M193.8905029,212.2425232h0.34375v3.1191406h-0.28125l-2.0136719-2.5576172v2.5576172h-0.3427734v-3.1191406
		h0.3291016l1.9648438,2.5V212.2425232z"/>
	<path class="st10" d="M196.6990967,215.3616638h-0.3564453v-1.234375l-1.296875-1.8847656h0.4277344l1.0517578,1.5595703
		l1.0605469-1.5595703h0.4101562l-1.296875,1.8808594V215.3616638z"/>
</g>
<g>
	<path class="st10" d="M190.1600342,51.2532654h-1.9023438v1.0649414h1.7021484v0.3208008h-1.7021484v1.0917969h1.9248047v0.3208008
		h-2.2763672v-3.1186523h2.2539062V51.2532654z"/>
	<path class="st10" d="M193.3953857,50.9329529h0.34375v3.1186523h-0.28125l-2.0136719-2.5576172v2.5576172h-0.3427734v-3.1186523
		h0.3291016l1.9648438,2.4995117V50.9329529z"/>
	<path class="st10" d="M195.9901123,52.3226013c0.6953125,0.1518555,1.015625,0.4057617,1.015625,0.8867188
		c0,0.5390625-0.4453125,0.8867188-1.0644531,0.8867188c-0.4951172,0-0.9003906-0.1645508-1.2744141-0.4990234l0.2177734-0.2583008
		c0.3251953,0.2939453,0.6376953,0.440918,1.0693359,0.440918c0.4189453,0,0.6953125-0.2182617,0.6953125-0.534668
		c0-0.2939453-0.15625-0.4584961-0.8105469-0.5966797c-0.7177734-0.15625-1.046875-0.3876953-1.046875-0.9047852
		c0-0.4990234,0.4316406-0.8554688,1.0244141-0.8554688c0.4541016,0,0.7792969,0.1293945,1.0957031,0.3833008l-0.2050781,0.2719727
		c-0.2890625-0.2363281-0.5791016-0.3388672-0.8994141-0.3388672c-0.4052734,0-0.6640625,0.2226562-0.6640625,0.5078125
		C195.1434326,52.0110779,195.3035889,52.1756287,195.9901123,52.3226013z"/>
	<path class="st10" d="M200.5037842,52.719574c0,0.9086914-0.5205078,1.3808594-1.3007812,1.3808594
		c-0.7705078,0-1.296875-0.472168-1.296875-1.3544922v-1.8129883h0.3525391v1.7910156
		c0,0.6728516,0.3564453,1.0512695,0.953125,1.0512695c0.5751953,0,0.9404297-0.347168,0.9404297-1.0292969v-1.8129883h0.3515625
		V52.719574z"/>
	<path class="st10" d="M201.9979248,50.9329529v3.1186523h-0.3515625v-3.1186523H201.9979248z"/>
	<path class="st10" d="M204.2772217,54.0516052h-0.3564453v-2.793457h-1.046875v-0.3251953h2.4501953v0.3251953h-1.046875
		V54.0516052z"/>
	<path class="st10" d="M208.4422607,51.2532654h-1.9023438v1.0649414h1.7021484v0.3208008h-1.7021484v1.0917969h1.9248047v0.3208008
		h-2.2763672v-3.1186523h2.2539062V51.2532654z"/>
</g>
<g>
	<path class="st10" d="M94.0692139,142.4358826h-1.9023438v1.0644531h1.7021484v0.3212891h-1.7021484v1.0908203h1.9248047v0.3212891
		h-2.2763672v-3.1191406h2.2539062V142.4358826z"/>
	<path class="st10" d="M97.2996826,142.1145935h0.34375v3.1191406h-0.28125l-2.0136719-2.5576172v2.5576172h-0.3427734v-3.1191406
		h0.3291016l1.9648438,2.5V142.1145935z"/>
	<path class="st10" d="M99.8953857,143.5052185c0.6953125,0.1513672,1.015625,0.4052734,1.015625,0.8867188
		c0,0.5390625-0.4453125,0.8867188-1.0644531,0.8867188c-0.4951172,0-0.9003906-0.1650391-1.2744141-0.4990234l0.2177734-0.2587891
		c0.3251953,0.2939453,0.6376953,0.4414062,1.0693359,0.4414062c0.4189453,0,0.6953125-0.21875,0.6953125-0.5351562
		c0-0.2939453-0.15625-0.4589844-0.8105469-0.5966797c-0.7177734-0.15625-1.046875-0.3876953-1.046875-0.9042969
		c0-0.4990234,0.4316406-0.8554688,1.0244141-0.8554688c0.4541016,0,0.7792969,0.1289062,1.0957031,0.3828125l-0.2050781,0.2714844
		c-0.2890625-0.2363281-0.5791016-0.3378906-0.8994141-0.3378906c-0.4052734,0-0.6640625,0.2226562-0.6640625,0.5078125
		C99.0487061,143.1927185,99.2088623,143.3577576,99.8953857,143.5052185z"/>
	<path class="st10" d="M104.4080811,143.9017029c0,0.9091797-0.5205078,1.3808594-1.3007812,1.3808594
		c-0.7705078,0-1.296875-0.4716797-1.296875-1.3544922v-1.8134766h0.3525391v1.7910156
		c0,0.6728516,0.3564453,1.0517578,0.953125,1.0517578c0.5751953,0,0.9404297-0.3476562,0.9404297-1.0292969v-1.8134766h0.3515625
		V143.9017029z"/>
	<path class="st10" d="M105.9022217,142.1145935v3.1191406h-0.3515625v-3.1191406H105.9022217z"/>
	<path class="st10" d="M108.1815186,145.2337341h-0.3564453v-2.7939453h-1.046875v-0.3251953h2.4501953v0.3251953h-1.046875
		V145.2337341z"/>
	<path class="st10" d="M112.3475342,142.4358826h-1.9023438v1.0644531h1.7021484v0.3212891h-1.7021484v1.0908203h1.9248047
		v0.3212891h-2.2763672v-3.1191406h2.2539062V142.4358826z"/>
</g>
<g>
	<path class="st10" d="M177.9676514,113.5638123h-0.4414062l-1.1982422-1.5107422l-0.6640625,0.6728516v0.8378906h-0.3515625
		v-3.1191406h0.3515625v1.8623047l1.7910156-1.8623047h0.4550781l-1.3369141,1.3632812L177.9676514,113.5638123z"/>
</g>
<g>
	<path class="st10" d="M170.1502686,59.9866638h0.3515625v2.7939453h1.7558594v0.3251953h-2.1074219V59.9866638z"/>
	<path class="st10" d="M173.4871826,59.9866638v3.1191406h-0.3515625v-3.1191406H173.4871826z"/>
	<path class="st10" d="M176.9471436,59.9866638h0.34375v3.1191406h-0.28125l-2.0136719-2.5576172v2.5576172h-0.3427734v-3.1191406
		h0.3291016l1.9648438,2.5V59.9866638z"/>
</g>
<g>
	<path class="st10" d="M20.7069092,127.8079529h-1.0820312v-3.1191406h1.0820312
		c0.9804688,0,1.6582031,0.6728516,1.6582031,1.5556641C22.3651123,127.1263123,21.6873779,127.8079529,20.7069092,127.8079529z
		 M20.7069092,125.0140076h-0.7304688v2.46875h0.7304688c0.7890625,0,1.2929688-0.5351562,1.2929688-1.2294922
		C21.9998779,125.5579529,21.4959717,125.0140076,20.7069092,125.0140076z"/>
</g>
<g>
	<path class="st10" d="M41.2606201,124.6800232h0.2900391l0.8554688,2.6064453l0.890625-2.5976562h0.3701172l-1.1142578,3.1416016
		h-0.2978516l-0.8554688-2.53125l-0.8603516,2.53125h-0.2939453l-1.1142578-3.1416016h0.3837891l0.890625,2.5976562
		L41.2606201,124.6800232z"/>
</g>
<g>
	<path class="st10" d="M26.2762451,70.5628357h-1.0820312v-3.1191406h1.0820312
		c0.9804688,0,1.6582031,0.6728516,1.6582031,1.5551758S27.2567139,70.5628357,26.2762451,70.5628357z M26.2762451,67.7693787
		h-0.7304688v2.4682617h0.7304688c0.7890625,0,1.2919922-0.534668,1.2919922-1.2299805
		C27.5682373,68.3128357,27.0653076,67.7693787,26.2762451,67.7693787z"/>
	<path class="st10" d="M31.2235107,67.4436951h0.34375v3.1191406h-0.28125l-2.0136719-2.5576172v2.5576172h-0.3427734v-3.1191406
		h0.3291016l1.9648438,2.5V67.4436951z"/>
</g>
</svg>
