<?xml version="1.0" encoding="utf-8"?>
<!-- Generator: Adobe Illustrator 25.1.0, SVG Export Plug-In . SVG Version: 6.00 Build 0)  -->
<svg version="1.1" id="Layer_1" xmlns="http://www.w3.org/2000/svg" xmlns:xlink="http://www.w3.org/1999/xlink" x="0px" y="0px"
	 viewBox="0 0 651.31 453.03" style="enable-background:new 0 0 651.31 453.03;" xml:space="preserve">
<style type="text/css">
	.st0{fill:none;stroke:#93A1B1;stroke-width:0.289;stroke-linejoin:round;stroke-miterlimit:10;}
	.st1{fill:none;stroke:#00516B;stroke-width:0.301;stroke-linecap:round;stroke-linejoin:round;stroke-miterlimit:10;}
	
		.st2{fill:none;stroke:#00516B;stroke-width:0.301;stroke-linecap:round;stroke-linejoin:round;stroke-miterlimit:10;stroke-dasharray:4.824,2.412;}
	.st3{fill-rule:evenodd;clip-rule:evenodd;fill:#00516B;}
	.st4{fill:#00516B;}
</style>
<polygon class="st0" points="638.66,20.9 638.66,236.66 525.84,236.66 525.84,242.37 638.66,242.37 638.66,273.67 543.59,273.67 
	543.59,339.11 638.66,339.11 638.66,370.41 515.5,370.41 515.5,324.4 513.34,324.4 513.34,350.33 509.79,350.33 509.79,352.59 
	496.67,352.59 496.67,296.22 509.79,296.22 509.79,298.48 511.18,298.48 511.18,324.4 513.34,324.4 513.34,298.48 515.5,298.48 
	515.5,290.51 479.38,290.51 479.38,242.37 486.02,242.37 486.02,284.35 483.86,284.35 483.86,236.66 470.74,236.66 470.74,242.16 
	439.87,242.16 439.87,339.55 346.35,339.55 346.35,338.5 368.26,338.5 368.26,339.55 368.88,339.55 368.88,338.19 345.73,338.19 
	345.73,339.55 316.56,339.55 316.56,370.41 131.17,370.41 131.17,229.7 124.22,229.7 124.22,182.78 131.17,182.78 131.17,167.96 
	157.11,167.96 157.11,182.78 226.25,182.78 226.25,167.96 252.2,167.96 252.2,162.26 131.17,162.26 131.17,20.9 168.3,20.9 
	168.3,122.14 262.14,122.14 262.14,20.9 299.27,20.9 299.27,53.91 304.98,53.91 304.98,38.18 359.93,38.18 359.93,53.77 
	362.78,53.77 362.78,95.75 359.93,95.75 359.93,108.71 364.87,108.71 364.87,134.02 304.98,134.02 304.98,95.89 302.9,95.89 
	302.9,74.9 301.36,74.9 301.36,95.89 299.27,95.89 299.27,162.26 292.02,162.26 292.02,120.27 294.18,120.27 294.18,167.96 
	299.27,167.96 299.27,188.5 453.69,188.5 453.69,185.65 495.67,185.65 495.67,188.5 590.97,188.5 590.97,176 620.6,176 
	620.6,173.84 590.97,173.84 590.97,176 585.26,176 585.26,182.79 571.83,182.79 571.83,108.71 585.26,108.71 585.26,116.74 
	590.97,116.74 590.97,118.9 620.6,118.9 620.6,116.74 590.97,116.74 590.97,100.07 579.39,100.07 579.39,90.12 594.21,64.45 
	592.34,63.37 577.52,89.04 579.39,90.12 576.54,90.12 576.54,30.85 579.39,30.85 577.52,31.93 592.34,57.59 594.21,56.51 
	579.39,30.85 579.39,20.9 632.33,20.9 632.33,65.34 634.49,65.34 634.49,20.9 "/>
<rect x="264.61" y="23.36" class="st0" width="24.7" height="19.75"/>
<rect x="141.14" y="23.36" class="st0" width="24.69" height="19.75"/>
<rect x="616.43" y="246.51" class="st0" width="19.76" height="24.69"/>
<rect x="616.43" y="341.58" class="st0" width="19.76" height="24.69"/>
<path class="st0" d="M136.11,350.66c0-8.18,6.63-14.82,14.82-14.82c8.18,0,14.82,6.63,14.82,14.82c0,8.18-6.63,14.82-14.82,14.82
	C142.74,365.48,136.11,358.84,136.11,350.66z"/>
<path class="st0" d="M390.64,242.16h-10.28l-0.44-4.08L381,234v-1.08c-7.12-1.44-14.46-1.44-21.58,0V234l1.08,4.09l-0.44,4.08
	h-12.91l-0.44-4.08l1.08-4.09v-1.08c-7.12-1.44-14.46-1.44-21.58,0V234l1.08,4.09l-0.44,4.08h-10.28v39.51h10.28l0.44,4.08
	l-1.08,4.09v1.08c7.12,1.44,14.46,1.44,21.58,0v-1.08l-1.08-4.09l0.44-4.08h12.91l0.44,4.08l-1.08,4.09v1.08
	c7.12,1.44,14.46,1.44,21.58,0v-1.08l-1.08-4.09l0.44-4.08h10.28V242.16z"/>
<ellipse transform="matrix(0.9239 -0.3827 0.3827 0.9239 -90.9804 105.6443)" class="st0" cx="220.06" cy="281.52" rx="22.22" ry="22.22"/>
<rect x="168.21" y="328.44" class="st0" width="103.72" height="39.51"/>
<rect x="133.64" y="260.53" class="st0" width="39.51" height="41.98"/>
<line class="st0" x1="131.17" y1="27.79" x2="141.14" y2="27.79"/>
<line class="st0" x1="634.49" y1="27.79" x2="638.66" y2="27.79"/>
<line class="st0" x1="165.83" y1="27.79" x2="168.3" y2="27.79"/>
<line class="st0" x1="579.39" y1="27.79" x2="632.33" y2="27.79"/>
<line class="st0" x1="262.14" y1="27.79" x2="264.61" y2="27.79"/>
<line class="st0" x1="289.3" y1="27.79" x2="299.27" y2="27.79"/>
<line class="st0" x1="131.17" y1="37.05" x2="141.14" y2="37.05"/>
<line class="st0" x1="634.49" y1="37.05" x2="638.66" y2="37.05"/>
<line class="st0" x1="165.83" y1="37.05" x2="168.3" y2="37.05"/>
<line class="st0" x1="582.97" y1="37.05" x2="632.33" y2="37.05"/>
<line class="st0" x1="262.14" y1="37.05" x2="264.61" y2="37.05"/>
<line class="st0" x1="576.54" y1="37.05" x2="580.48" y2="37.05"/>
<line class="st0" x1="289.3" y1="37.05" x2="299.27" y2="37.05"/>
<line class="st0" x1="131.17" y1="46.31" x2="168.3" y2="46.31"/>
<line class="st0" x1="634.49" y1="46.31" x2="638.66" y2="46.31"/>
<line class="st0" x1="262.14" y1="46.31" x2="299.27" y2="46.31"/>
<line class="st0" x1="588.32" y1="46.31" x2="632.33" y2="46.31"/>
<line class="st0" x1="304.98" y1="46.31" x2="359.93" y2="46.31"/>
<line class="st0" x1="576.54" y1="46.31" x2="585.82" y2="46.31"/>
<line class="st0" x1="131.17" y1="55.57" x2="168.3" y2="55.57"/>
<line class="st0" x1="634.49" y1="55.57" x2="638.66" y2="55.57"/>
<line class="st0" x1="262.14" y1="55.57" x2="362.78" y2="55.57"/>
<line class="st0" x1="593.66" y1="55.57" x2="632.33" y2="55.57"/>
<line class="st0" x1="576.54" y1="55.57" x2="591.17" y2="55.57"/>
<line class="st0" x1="131.17" y1="64.83" x2="168.3" y2="64.83"/>
<line class="st0" x1="634.49" y1="64.83" x2="638.66" y2="64.83"/>
<line class="st0" x1="262.14" y1="64.83" x2="362.78" y2="64.83"/>
<line class="st0" x1="593.99" y1="64.83" x2="632.33" y2="64.83"/>
<line class="st0" x1="576.54" y1="64.83" x2="591.5" y2="64.83"/>
<line class="st0" x1="131.17" y1="74.09" x2="168.3" y2="74.09"/>
<line class="st0" x1="588.65" y1="74.09" x2="638.66" y2="74.09"/>
<line class="st0" x1="262.14" y1="74.09" x2="362.78" y2="74.09"/>
<line class="st0" x1="576.54" y1="74.09" x2="586.15" y2="74.09"/>
<line class="st0" x1="131.17" y1="83.35" x2="168.3" y2="83.35"/>
<line class="st0" x1="583.3" y1="83.35" x2="638.66" y2="83.35"/>
<line class="st0" x1="262.14" y1="83.35" x2="301.36" y2="83.35"/>
<line class="st0" x1="576.54" y1="83.35" x2="580.8" y2="83.35"/>
<line class="st0" x1="302.9" y1="83.35" x2="362.78" y2="83.35"/>
<line class="st0" x1="131.17" y1="92.61" x2="168.3" y2="92.61"/>
<line class="st0" x1="579.39" y1="92.61" x2="638.66" y2="92.61"/>
<line class="st0" x1="262.14" y1="92.61" x2="301.36" y2="92.61"/>
<line class="st0" x1="302.9" y1="92.61" x2="362.78" y2="92.61"/>
<line class="st0" x1="131.17" y1="101.87" x2="168.3" y2="101.87"/>
<line class="st0" x1="590.97" y1="101.87" x2="638.66" y2="101.87"/>
<line class="st0" x1="262.14" y1="101.87" x2="299.27" y2="101.87"/>
<line class="st0" x1="304.98" y1="101.87" x2="359.93" y2="101.87"/>
<line class="st0" x1="131.17" y1="111.13" x2="168.3" y2="111.13"/>
<line class="st0" x1="590.97" y1="111.13" x2="638.66" y2="111.13"/>
<line class="st0" x1="262.14" y1="111.13" x2="299.27" y2="111.13"/>
<line class="st0" x1="571.83" y1="111.13" x2="585.26" y2="111.13"/>
<line class="st0" x1="304.98" y1="111.13" x2="364.87" y2="111.13"/>
<line class="st0" x1="131.17" y1="120.39" x2="168.3" y2="120.39"/>
<line class="st0" x1="571.83" y1="120.39" x2="638.66" y2="120.39"/>
<line class="st0" x1="262.14" y1="120.39" x2="292.02" y2="120.39"/>
<line class="st0" x1="304.98" y1="120.39" x2="364.87" y2="120.39"/>
<line class="st0" x1="294.18" y1="120.39" x2="299.27" y2="120.39"/>
<line class="st0" x1="131.17" y1="129.65" x2="292.02" y2="129.65"/>
<line class="st0" x1="571.83" y1="129.65" x2="638.66" y2="129.65"/>
<line class="st0" x1="294.18" y1="129.65" x2="299.27" y2="129.65"/>
<line class="st0" x1="304.98" y1="129.65" x2="364.87" y2="129.65"/>
<line class="st0" x1="131.17" y1="138.91" x2="292.02" y2="138.91"/>
<line class="st0" x1="571.83" y1="138.91" x2="638.66" y2="138.91"/>
<line class="st0" x1="294.18" y1="138.91" x2="299.27" y2="138.91"/>
<line class="st0" x1="131.17" y1="148.17" x2="292.02" y2="148.17"/>
<line class="st0" x1="571.83" y1="148.17" x2="638.66" y2="148.17"/>
<line class="st0" x1="294.18" y1="148.17" x2="299.27" y2="148.17"/>
<line class="st0" x1="131.17" y1="157.43" x2="292.02" y2="157.43"/>
<line class="st0" x1="571.83" y1="157.43" x2="638.66" y2="157.43"/>
<line class="st0" x1="294.18" y1="157.43" x2="299.27" y2="157.43"/>
<line class="st0" x1="252.2" y1="166.69" x2="294.18" y2="166.69"/>
<line class="st0" x1="571.83" y1="166.69" x2="638.66" y2="166.69"/>
<line class="st0" x1="131.17" y1="175.95" x2="157.11" y2="175.95"/>
<line class="st0" x1="620.6" y1="175.95" x2="638.66" y2="175.95"/>
<line class="st0" x1="226.25" y1="175.95" x2="299.27" y2="175.95"/>
<line class="st0" x1="571.83" y1="175.95" x2="590.97" y2="175.95"/>
<line class="st0" x1="124.22" y1="185.21" x2="299.27" y2="185.21"/>
<line class="st0" x1="590.97" y1="185.21" x2="638.66" y2="185.21"/>
<line class="st0" x1="124.22" y1="194.47" x2="638.66" y2="194.47"/>
<line class="st0" x1="124.22" y1="203.73" x2="638.66" y2="203.73"/>
<line class="st0" x1="124.22" y1="212.99" x2="638.66" y2="212.99"/>
<line class="st0" x1="124.22" y1="222.25" x2="638.66" y2="222.25"/>
<line class="st0" x1="131.17" y1="231.51" x2="638.66" y2="231.51"/>
<line class="st0" x1="131.17" y1="240.77" x2="326.99" y2="240.77"/>
<line class="st0" x1="483.86" y1="240.77" x2="525.84" y2="240.77"/>
<line class="st0" x1="347" y1="240.77" x2="360.2" y2="240.77"/>
<line class="st0" x1="380.21" y1="240.77" x2="470.74" y2="240.77"/>
<line class="st0" x1="131.17" y1="250.03" x2="316.56" y2="250.03"/>
<line class="st0" x1="636.19" y1="250.03" x2="638.66" y2="250.03"/>
<line class="st0" x1="390.64" y1="250.03" x2="439.87" y2="250.03"/>
<line class="st0" x1="486.02" y1="250.03" x2="616.43" y2="250.03"/>
<line class="st0" x1="479.38" y1="250.03" x2="483.86" y2="250.03"/>
<line class="st0" x1="131.17" y1="259.29" x2="316.56" y2="259.29"/>
<line class="st0" x1="636.19" y1="259.29" x2="638.66" y2="259.29"/>
<line class="st0" x1="390.64" y1="259.29" x2="439.87" y2="259.29"/>
<line class="st0" x1="486.02" y1="259.29" x2="616.43" y2="259.29"/>
<line class="st0" x1="479.38" y1="259.29" x2="483.86" y2="259.29"/>
<line class="st0" x1="131.17" y1="268.55" x2="133.64" y2="268.55"/>
<line class="st0" x1="636.19" y1="268.55" x2="638.66" y2="268.55"/>
<line class="st0" x1="173.15" y1="268.55" x2="202.01" y2="268.55"/>
<line class="st0" x1="486.02" y1="268.55" x2="616.43" y2="268.55"/>
<line class="st0" x1="238.12" y1="268.55" x2="316.56" y2="268.55"/>
<line class="st0" x1="479.38" y1="268.55" x2="483.86" y2="268.55"/>
<line class="st0" x1="390.64" y1="268.55" x2="439.87" y2="268.55"/>
<line class="st0" x1="131.17" y1="277.81" x2="133.64" y2="277.81"/>
<line class="st0" x1="486.02" y1="277.81" x2="543.59" y2="277.81"/>
<line class="st0" x1="173.15" y1="277.81" x2="198.15" y2="277.81"/>
<line class="st0" x1="479.38" y1="277.81" x2="483.86" y2="277.81"/>
<line class="st0" x1="241.98" y1="277.81" x2="316.56" y2="277.81"/>
<line class="st0" x1="390.64" y1="277.81" x2="439.87" y2="277.81"/>
<line class="st0" x1="131.17" y1="287.07" x2="133.64" y2="287.07"/>
<line class="st0" x1="479.38" y1="287.07" x2="543.59" y2="287.07"/>
<line class="st0" x1="173.15" y1="287.07" x2="198.55" y2="287.07"/>
<line class="st0" x1="380.27" y1="287.07" x2="439.87" y2="287.07"/>
<line class="st0" x1="241.58" y1="287.07" x2="326.93" y2="287.07"/>
<line class="st0" x1="347.05" y1="287.07" x2="360.14" y2="287.07"/>
<line class="st0" x1="131.17" y1="296.33" x2="133.64" y2="296.33"/>
<line class="st0" x1="515.5" y1="296.33" x2="543.59" y2="296.33"/>
<line class="st0" x1="173.15" y1="296.33" x2="203.5" y2="296.33"/>
<line class="st0" x1="496.67" y1="296.33" x2="509.79" y2="296.33"/>
<line class="st0" x1="236.63" y1="296.33" x2="439.87" y2="296.33"/>
<line class="st0" x1="131.17" y1="305.59" x2="439.87" y2="305.59"/>
<line class="st0" x1="513.34" y1="305.59" x2="543.59" y2="305.59"/>
<line class="st0" x1="496.67" y1="305.59" x2="511.18" y2="305.59"/>
<line class="st0" x1="131.17" y1="314.85" x2="439.87" y2="314.85"/>
<line class="st0" x1="513.34" y1="314.85" x2="543.59" y2="314.85"/>
<line class="st0" x1="496.67" y1="314.85" x2="511.18" y2="314.85"/>
<line class="st0" x1="131.17" y1="324.11" x2="439.87" y2="324.11"/>
<line class="st0" x1="513.34" y1="324.11" x2="543.59" y2="324.11"/>
<line class="st0" x1="496.67" y1="324.11" x2="511.18" y2="324.11"/>
<line class="st0" x1="131.17" y1="333.37" x2="168.21" y2="333.37"/>
<line class="st0" x1="515.5" y1="333.37" x2="543.59" y2="333.37"/>
<line class="st0" x1="271.92" y1="333.37" x2="439.87" y2="333.37"/>
<line class="st0" x1="496.67" y1="333.37" x2="513.34" y2="333.37"/>
<line class="st0" x1="131.17" y1="342.63" x2="138.47" y2="342.63"/>
<line class="st0" x1="636.19" y1="342.63" x2="638.66" y2="342.63"/>
<line class="st0" x1="163.38" y1="342.63" x2="168.21" y2="342.63"/>
<line class="st0" x1="515.5" y1="342.63" x2="616.43" y2="342.63"/>
<line class="st0" x1="271.92" y1="342.63" x2="316.56" y2="342.63"/>
<line class="st0" x1="496.67" y1="342.63" x2="513.34" y2="342.63"/>
<line class="st0" x1="131.17" y1="351.89" x2="136.16" y2="351.89"/>
<line class="st0" x1="636.19" y1="351.89" x2="638.66" y2="351.89"/>
<line class="st0" x1="165.69" y1="351.89" x2="168.21" y2="351.89"/>
<line class="st0" x1="515.5" y1="351.89" x2="616.43" y2="351.89"/>
<line class="st0" x1="271.92" y1="351.89" x2="316.56" y2="351.89"/>
<line class="st0" x1="496.67" y1="351.89" x2="509.79" y2="351.89"/>
<line class="st0" x1="131.17" y1="361.15" x2="140.46" y2="361.15"/>
<line class="st0" x1="636.19" y1="361.15" x2="638.66" y2="361.15"/>
<line class="st0" x1="161.38" y1="361.15" x2="168.21" y2="361.15"/>
<line class="st0" x1="515.5" y1="361.15" x2="616.43" y2="361.15"/>
<line class="st0" x1="271.92" y1="361.15" x2="316.56" y2="361.15"/>
<polygon class="st1" points="526.3,382.92 526.3,377.36 527.54,377.36 527.54,370.42 515.5,370.42 515.5,350.33 509.79,350.33 
	509.79,352.59 479.38,352.59 479.38,296.22 509.79,296.22 509.79,298.48 515.5,298.48 515.5,290.51 479.38,290.51 479.38,242.37 
	483.86,242.37 483.86,236.66 470.74,236.66 470.74,370.42 456.37,370.42 456.37,377.36 457.6,377.36 457.6,382.92 "/>
<polygon class="st1" points="651.16,382.92 651.16,10.4 634.49,10.4 634.49,20.9 638.66,20.9 638.66,236.66 525.84,236.66 
	525.84,242.37 638.66,242.37 638.66,370.42 630.02,370.42 630.02,377.36 631.25,377.36 631.25,382.92 "/>
<polygon class="st1" points="341.04,382.92 341.04,377.36 342.27,377.36 342.27,370.42 313.63,370.42 313.63,377.36 314.86,377.36 
	314.86,382.92 "/>
<polygon class="st1" points="131.17,182.78 118.67,182.78 118.67,125.99 124.22,125.99 124.22,124.75 131.17,124.75 131.17,162.26 
	252.2,162.26 252.2,167.96 131.17,167.96 "/>
<polygon class="st1" points="111.94,45.43 124.22,45.43 124.22,46.67 131.17,46.67 131.17,20.9 299.27,20.9 299.27,53.91 
	304.98,53.91 304.98,20.9 359.93,20.9 359.93,53.77 365.64,53.77 365.64,20.9 478.61,20.9 478.61,25.99 520.59,25.99 520.59,100.07 
	365.64,100.07 365.64,95.75 359.93,95.75 359.93,108.71 382,108.71 382,151.31 304.98,151.31 304.98,95.89 303.52,95.89 
	303.52,138.49 300.74,138.49 300.74,95.89 299.27,95.89 299.27,162.26 294.18,162.26 294.18,167.96 299.27,167.96 299.27,188.51 
	304.98,188.51 304.98,157.02 382.15,157.02 382.15,188.51 453.69,188.51 453.69,182.8 408.7,182.8 408.7,108.71 548.84,108.71 
	548.84,182.8 495.67,182.8 495.67,188.51 590.97,188.51 590.97,176 585.26,176 585.26,182.8 554.55,182.8 554.55,108.71 
	585.26,108.71 585.26,116.74 590.97,116.74 590.97,100.07 579.39,100.07 579.39,90.12 573.68,90.12 573.68,100.07 529.23,100.07 
	529.23,20.9 573.68,20.9 573.68,30.85 579.39,30.85 579.39,20.9 590.04,20.9 590.04,10.4 560.45,10.4 560.45,8.39 111.94,8.39 "/>
<path class="st1" d="M136.11,350.66c0-8.18,6.63-14.82,14.82-14.82c8.18,0,14.82,6.63,14.82,14.82c0,8.18-6.63,14.82-14.82,14.82
	C142.74,365.48,136.11,358.84,136.11,350.66z"/>
<line class="st1" x1="571.83" y1="108.71" x2="571.83" y2="182.8"/>
<line class="st1" x1="496.67" y1="296.22" x2="496.67" y2="352.59"/>
<line class="st1" x1="359.93" y1="38.18" x2="304.98" y2="38.18"/>
<polyline class="st1" points="111.89,45.43 0.15,45.43 0.15,452.88 127.28,452.88 127.28,382.92 "/>
<polyline class="st1" points="316.56,339.55 439.87,339.55 439.87,266.85 "/>
<rect x="316.56" y="339.55" class="st1" width="1.24" height="30.87"/>
<rect x="340.02" y="339.55" class="st1" width="1.24" height="30.87"/>
<rect x="439.87" y="265.62" class="st1" width="30.87" height="1.23"/>
<rect x="439.87" y="242.16" class="st1" width="30.87" height="1.23"/>
<rect x="453.76" y="108.71" class="st1" width="55.56" height="27.78"/>
<rect x="365.64" y="20.9" class="st1" width="75.93" height="27.78"/>
<polyline class="st1" points="529.23,56.17 547.75,56.17 547.75,20.9 "/>
<polyline class="st1" points="304.98,134.02 322.27,134.02 322.27,151.31 "/>
<rect x="304.98" y="157.02" class="st1" width="1.23" height="31.48"/>
<rect x="343.26" y="157.02" class="st1" width="1.24" height="31.48"/>
<rect x="380.92" y="157.02" class="st1" width="1.23" height="31.48"/>
<line class="st1" x1="364.87" y1="134.02" x2="322.27" y2="134.02"/>
<line class="st1" x1="364.87" y1="134.02" x2="364.87" y2="108.71"/>
<path class="st1" d="M537.95,131.88c0-1.65-0.24-3.3-0.71-4.88c-0.41-1.38-1.05-2.67-1.89-3.84c-0.3-0.42-0.63-0.8-0.99-1.17"/>
<path class="st1" d="M537.95,131.88c0,1.65-0.24,3.3-0.71,4.88c-0.41,1.38-1.05,2.68-1.89,3.84c-0.81,1.12-1.84,2.06-3.04,2.75
	c-0.98,0.57-2.1,0.86-3.23,0.86c-1.14,0-2.25-0.3-3.23-0.86c-1.2-0.69-2.23-1.63-3.04-2.75c-0.84-1.17-1.48-2.47-1.89-3.84
	c-0.47-1.58-0.71-3.23-0.71-4.88c0-1.65,0.24-3.3,0.71-4.88c0.41-1.38,1.05-2.67,1.89-3.84c0.3-0.42,0.63-0.8,0.99-1.17h10.57"/>
<path class="st1" d="M536.03,116.36c0.23,3.94,0.73,7.87,1.5,11.74"/>
<path class="st1" d="M525.64,117.74c-0.88-0.17-1.74-0.45-2.56-0.83c-0.96-0.45-1.78-1.14-2.4-2c-0.24-0.33-0.32-0.74-0.25-1.14
	l0.7-3.65c0.05-0.24,0.26-0.41,0.5-0.41h14.89c0.24,0,0.45,0.17,0.49,0.41l0.7,3.65c0.08,0.4-0.01,0.81-0.25,1.14
	c-0.61,0.86-1.44,1.55-2.4,2c-0.82,0.38-1.67,0.66-2.56,0.83c-1.13,0.22-2.29,0.33-3.44,0.33
	C527.93,118.07,526.77,117.96,525.64,117.74z"/>
<path class="st1" d="M522.13,116.36c-0.23,3.94-0.73,7.87-1.5,11.74"/>
<path class="st1" d="M528.15,114.25c0-0.51,0.41-0.93,0.93-0.93c0.51,0,0.93,0.41,0.93,0.93c0,0.51-0.42,0.93-0.93,0.93
	C528.57,115.18,528.15,114.76,528.15,114.25z"/>
<line class="st1" x1="427.36" y1="113.3" x2="427.36" y2="116.17"/>
<line class="st1" x1="427.36" y1="116.17" x2="427.36" y2="117.71"/>
<path class="st1" d="M427.36,117.63c-0.03,0.34,0.3,0.63,0.73,0.66c0.43,0.02,0.8-0.24,0.83-0.58c0-0.03,0-0.05,0-0.08"/>
<line class="st1" x1="428.92" y1="113.3" x2="428.92" y2="116.17"/>
<line class="st1" x1="428.92" y1="116.17" x2="428.92" y2="117.71"/>
<line class="st1" x1="423.95" y1="109.79" x2="423.95" y2="109.65"/>
<line class="st1" x1="423.95" y1="109.84" x2="423.95" y2="109.65"/>
<line class="st1" x1="424.11" y1="108.71" x2="423.95" y2="109.65"/>
<line class="st1" x1="427.18" y1="113.3" x2="429.11" y2="113.3"/>
<line class="st1" x1="427.18" y1="113.19" x2="429.11" y2="113.19"/>
<line class="st1" x1="427.17" y1="113.01" x2="429.12" y2="113.01"/>
<line class="st1" x1="426.91" y1="110.19" x2="426.91" y2="110.17"/>
<line class="st1" x1="427.16" y1="113.28" x2="427.16" y2="113.22"/>
<line class="st1" x1="427.16" y1="113.28" x2="427.16" y2="113.22"/>
<line class="st1" x1="427.17" y1="113.01" x2="427.17" y2="110.23"/>
<line class="st1" x1="427.23" y1="113.01" x2="427.23" y2="113.19"/>
<line class="st1" x1="427.82" y1="114.8" x2="427.82" y2="113.65"/>
<line class="st1" x1="428.46" y1="114.8" x2="428.46" y2="113.65"/>
<line class="st1" x1="429.05" y1="113.01" x2="429.06" y2="113.19"/>
<line class="st1" x1="426.95" y1="110.23" x2="429.34" y2="110.23"/>
<line class="st1" x1="426.91" y1="110.16" x2="426.92" y2="110.16"/>
<line class="st1" x1="426.91" y1="110.16" x2="429.38" y2="110.16"/>
<line class="st1" x1="429.12" y1="113.01" x2="429.12" y2="110.23"/>
<line class="st1" x1="429.13" y1="113.28" x2="429.13" y2="113.22"/>
<line class="st1" x1="429.13" y1="113.28" x2="429.13" y2="113.22"/>
<line class="st1" x1="429.38" y1="110.19" x2="429.38" y2="110.17"/>
<line class="st1" x1="424.07" y1="109.96" x2="432.22" y2="109.96"/>
<line class="st1" x1="432.18" y1="108.71" x2="424.11" y2="108.71"/>
<line class="st1" x1="432.34" y1="109.79" x2="432.34" y2="109.65"/>
<line class="st1" x1="432.34" y1="109.84" x2="432.34" y2="109.65"/>
<line class="st1" x1="432.18" y1="108.71" x2="432.34" y2="109.65"/>
<path class="st1" d="M426.91,110.16c-0.17-0.08-0.35-0.14-0.53-0.2"/>
<path class="st1" d="M429.9,109.96c-0.18,0.05-0.36,0.12-0.53,0.2"/>
<path class="st1" d="M427.74,115.04c0-0.22,0.18-0.4,0.4-0.4c0.22,0,0.4,0.18,0.4,0.4c0,0.22-0.18,0.4-0.4,0.4
	C427.92,115.44,427.74,115.26,427.74,115.04z"/>
<path class="st1" d="M427.82,113.65c0-0.19-0.16-0.35-0.35-0.35"/>
<path class="st1" d="M428.81,113.3c-0.19,0-0.35,0.15-0.35,0.35"/>
<path class="st1" d="M423.95,109.84c0,0.07,0.05,0.12,0.12,0.12"/>
<path class="st1" d="M432.22,109.96c0.07,0,0.12-0.05,0.12-0.12"/>
<path class="st1" d="M429.34,110.23c0.02,0,0.04-0.02,0.04-0.04"/>
<path class="st1" d="M426.91,110.19c0,0.02,0.02,0.04,0.04,0.04"/>
<path class="st1" d="M429.13,113.22c0-0.01-0.01-0.02-0.03-0.02"/>
<path class="st1" d="M429.11,113.3c0.01,0,0.02-0.01,0.02-0.02"/>
<path class="st1" d="M427.16,113.28c0,0.01,0.01,0.03,0.02,0.03"/>
<path class="st1" d="M427.18,113.19c-0.01,0-0.03,0.01-0.03,0.02"/>
<path class="st1" d="M426.92,110.16c-0.01,0-0.01,0.01-0.01,0.01"/>
<path class="st1" d="M429.38,110.17c0-0.01-0.01-0.01-0.01-0.01"/>
<path class="st1" d="M426.29,120.44c0-1.02,0.83-1.85,1.85-1.85c1.02,0,1.85,0.83,1.85,1.85c0,1.02-0.83,1.85-1.85,1.85
	C427.12,122.29,426.29,121.47,426.29,120.44z"/>
<rect x="408.7" y="108.71" class="st1" width="39.51" height="74.08"/>
<polyline class="st1" points="427.36,114.27 413.64,114.27 413.64,159.3 "/>
<polyline class="st1" points="413.64,161.84 413.64,177.55 442.65,177.55 442.65,114.27 428.92,114.27 "/>
<polyline class="st1" points="427.36,116.74 415.8,116.74 415.8,166.13 440.49,166.13 440.49,116.74 428.92,116.74 "/>
<line class="st1" x1="410.34" y1="161.92" x2="410.34" y2="159.22"/>
<line class="st1" x1="409.71" y1="156.09" x2="409.71" y2="165.05"/>
<path class="st1" d="M409.8,164.97c0.27-1,0.45-2.02,0.53-3.06"/>
<path class="st1" d="M410.34,159.22c-0.08-1.03-0.26-2.06-0.54-3.06"/>
<line class="st1" x1="409.39" y1="156.08" x2="409.71" y2="156.09"/>
<line class="st1" x1="409.71" y1="165.05" x2="409.39" y2="165.06"/>
<path class="st1" d="M409.8,156.17c-0.01-0.04-0.05-0.07-0.09-0.07"/>
<path class="st1" d="M409.71,165.05c0.04,0,0.08-0.03,0.09-0.07"/>
<line class="st1" x1="410.34" y1="159.24" x2="411.51" y2="159.24"/>
<line class="st1" x1="411.51" y1="161.9" x2="410.34" y2="161.9"/>
<line class="st1" x1="412.18" y1="161.62" x2="412.18" y2="160.58"/>
<line class="st1" x1="412.18" y1="160.58" x2="412.18" y2="160.56"/>
<line class="st1" x1="412.18" y1="159.29" x2="412.18" y2="159.52"/>
<line class="st1" x1="412.18" y1="161.62" x2="412.18" y2="161.85"/>
<line class="st1" x1="412.18" y1="160.56" x2="412.18" y2="159.52"/>
<line class="st1" x1="412.2" y1="159.28" x2="414.07" y2="159.31"/>
<line class="st1" x1="414.06" y1="161.83" x2="412.2" y2="161.86"/>
<path class="st1" d="M412.2,159.28c-0.01,0-0.02,0.01-0.02,0.01"/>
<path class="st1" d="M412.18,161.85c0,0.01,0.01,0.02,0.01,0.02"/>
<path class="st1" d="M414.06,161.83c0.02,0,0.04-0.02,0.04-0.04"/>
<path class="st1" d="M414.1,159.35c0-0.02-0.02-0.04-0.04-0.04"/>
<path class="st1" d="M414.1,161.79c0.03-0.81,0.03-1.63,0-2.45"/>
<path class="st1" d="M412.18,159.42c-0.21-0.12-0.44-0.18-0.68-0.18"/>
<path class="st1" d="M411.51,161.9c0.24,0,0.47-0.06,0.67-0.18"/>
<line class="st1" x1="409.39" y1="165.06" x2="408.7" y2="165.06"/>
<line class="st1" x1="409.39" y1="156.08" x2="408.7" y2="156.08"/>
<path class="st1" d="M488.99,123.55c0-1.03,0.83-1.86,1.86-1.86c1.03,0,1.87,0.83,1.87,1.86c0,1.03-0.84,1.86-1.87,1.86
	C489.82,125.42,488.99,124.58,488.99,123.55z"/>
<path class="st1" d="M489.77,123.55c0-0.6,0.48-1.08,1.08-1.08s1.08,0.48,1.08,1.08c0,0.6-0.48,1.08-1.08,1.08
	S489.77,124.15,489.77,123.55z"/>
<line class="st1" x1="490.06" y1="118.55" x2="490.06" y2="112.69"/>
<path class="st1" d="M490.06,118.55c0,0.24,0.19,0.44,0.44,0.44"/>
<path class="st1" d="M491.21,118.98c0.24,0,0.44-0.2,0.44-0.44"/>
<line class="st1" x1="490.49" y1="118.98" x2="491.21" y2="118.98"/>
<path class="st1" d="M491.5,112.57c-0.14,0.12-0.22,0.3-0.22,0.49"/>
<path class="st1" d="M490.43,113.06c0-0.19-0.08-0.36-0.22-0.49"/>
<line class="st1" x1="490.43" y1="115.81" x2="490.43" y2="113.06"/>
<line class="st1" x1="491.28" y1="113.06" x2="491.28" y2="115.81"/>
<path class="st1" d="M491.03,116.05c0.13,0,0.24-0.11,0.24-0.24"/>
<line class="st1" x1="490.67" y1="116.05" x2="491.03" y2="116.05"/>
<path class="st1" d="M491.74,112.23c-0.06,0.15-0.1,0.3-0.1,0.46"/>
<path class="st1" d="M490.06,112.69c0-0.16-0.03-0.31-0.1-0.46"/>
<line class="st1" x1="491.65" y1="112.69" x2="491.65" y2="118.55"/>
<path class="st1" d="M491.65,112.7c0.48-0.44,0.5-1.18,0.07-1.66c-0.44-0.48-1.18-0.51-1.66-0.07c-0.48,0.44-0.51,1.18-0.07,1.65
	c0.02,0.02,0.04,0.05,0.07,0.07"/>
<path class="st1" d="M491.5,112.57c0.4-0.36,0.44-0.97,0.08-1.37c-0.36-0.4-0.97-0.44-1.37-0.08c-0.4,0.35-0.44,0.97-0.08,1.37
	c0.03,0.03,0.05,0.06,0.08,0.08"/>
<path class="st1" d="M490.43,115.81c0,0.13,0.11,0.24,0.24,0.24"/>
<path class="st1" d="M490.06,114.33c-5.1,0.44-8.87,4.92-8.43,10.02c0.44,5.1,4.92,8.87,10.02,8.43c5.1-0.44,8.87-4.92,8.43-10.02
	c-0.39-4.49-3.95-8.05-8.43-8.43"/>
<rect x="474.51" y="65.19" transform="matrix(0.866 -0.5 0.5 0.866 22.4151 248.5224)" class="st1" width="0.93" height="34.49"/>
<line class="st1" x1="481.17" y1="100.07" x2="481.17" y2="94.1"/>
<line class="st1" x1="481.17" y1="92.25" x2="481.17" y2="25.99"/>
<polyline class="st1" points="483.19,100.07 483.19,97.6 484.12,97.6 484.12,100.07 "/>
<rect x="483.19" y="25.99" class="st1" width="0.93" height="37.12"/>
<line class="st1" x1="500.22" y1="26.15" x2="500.22" y2="29.38"/>
<line class="st1" x1="500.22" y1="29.38" x2="501.45" y2="29.38"/>
<line class="st1" x1="501.45" y1="29.38" x2="501.45" y2="26.15"/>
<line class="st1" x1="500.06" y1="25.99" x2="500.06" y2="26.15"/>
<line class="st1" x1="500.06" y1="26.15" x2="501.61" y2="26.15"/>
<line class="st1" x1="501.61" y1="26.15" x2="501.61" y2="25.99"/>
<line class="st1" x1="498.03" y1="29.58" x2="502.47" y2="29.58"/>
<line class="st1" x1="504.18" y1="29.31" x2="504.18" y2="28.41"/>
<line class="st1" x1="504.18" y1="28.41" x2="501.45" y2="28.41"/>
<line class="st1" x1="500.22" y1="28.41" x2="498.03" y2="28.41"/>
<line class="st1" x1="498.03" y1="28.41" x2="498.03" y2="29.58"/>
<line class="st1" x1="499.19" y1="29.58" x2="499.19" y2="28.41"/>
<path class="st1" d="M501.42,31.23c-0.09,0.91,0.74,1.71,1.87,1.79c1.12,0.08,2.11-0.6,2.21-1.51c0.01-0.09,0.01-0.18,0-0.28"/>
<path class="st1" d="M503.46,29.44c-1.13,0-2.05,0.73-2.05,1.65c0,0.92,0.91,1.66,2.04,1.66c1.13,0,2.05-0.73,2.05-1.65
	C505.51,30.19,504.59,29.44,503.46,29.44z"/>
<path class="st1" d="M502.27,29.75c0.06-0.05,0.12-0.1,0.19-0.16c0.13-0.11,0.25-0.22,0.34-0.36c0.05-0.09,0.09-0.19,0.11-0.29
	c0.01-0.05,0.01-0.1,0.01-0.14"/>
<path class="st1" d="M504.66,29.76c-0.06-0.05-0.13-0.11-0.19-0.16c-0.13-0.11-0.25-0.22-0.34-0.36c-0.05-0.09-0.09-0.19-0.11-0.29
	c-0.01-0.05-0.01-0.1-0.01-0.15"/>
<path class="st1" d="M504.01,28.8c-0.13-0.3-0.48-0.44-0.78-0.31c-0.14,0.06-0.25,0.17-0.31,0.31"/>
<line class="st1" x1="500.06" y1="25.99" x2="501.61" y2="25.99"/>
<path class="st1" d="M499.55,37.61c0-1.59,1.29-2.88,2.88-2.88c1.59,0,2.88,1.29,2.88,2.88c0,1.59-1.29,2.88-2.88,2.88
	C500.84,40.48,499.55,39.2,499.55,37.61z"/>
<line class="st1" x1="486.11" y1="25.99" x2="486.11" y2="100.07"/>
<line class="st1" x1="500.22" y1="27.84" x2="486.11" y2="27.84"/>
<polyline class="st1" points="486.11,98.22 518.74,98.22 518.74,79.18 "/>
<polyline class="st1" points="518.74,76.52 518.74,27.84 501.45,27.84 "/>
<path class="st1" d="M483.19,63.11c-6.06,0-12,1.59-17.25,4.62"/>
<line class="st1" x1="518.95" y1="76.5" x2="518.95" y2="79.2"/>
<line class="st1" x1="519.58" y1="82.32" x2="519.58" y2="73.37"/>
<path class="st1" d="M519.49,73.44c-0.27,1-0.45,2.02-0.54,3.06"/>
<path class="st1" d="M518.95,79.19c0.08,1.03,0.26,2.06,0.53,3.06"/>
<line class="st1" x1="519.9" y1="82.34" x2="519.58" y2="82.32"/>
<line class="st1" x1="519.58" y1="73.37" x2="519.9" y2="73.35"/>
<path class="st1" d="M519.49,82.25c0.01,0.04,0.05,0.07,0.09,0.07"/>
<path class="st1" d="M519.58,73.37c-0.04,0-0.08,0.03-0.09,0.07"/>
<line class="st1" x1="518.95" y1="79.18" x2="517.78" y2="79.18"/>
<line class="st1" x1="517.78" y1="76.52" x2="518.95" y2="76.52"/>
<line class="st1" x1="517.11" y1="76.8" x2="517.11" y2="77.83"/>
<line class="st1" x1="517.11" y1="77.83" x2="517.11" y2="77.86"/>
<line class="st1" x1="517.11" y1="79.12" x2="517.11" y2="78.89"/>
<line class="st1" x1="517.11" y1="76.8" x2="517.11" y2="76.57"/>
<line class="st1" x1="517.11" y1="77.86" x2="517.11" y2="78.89"/>
<line class="st1" x1="517.09" y1="79.14" x2="515.22" y2="79.11"/>
<line class="st1" x1="515.22" y1="76.59" x2="517.09" y2="76.55"/>
<path class="st1" d="M517.09,79.14c0.01,0,0.02-0.01,0.02-0.01"/>
<path class="st1" d="M517.11,76.57c0-0.01-0.01-0.01-0.01-0.01"/>
<path class="st1" d="M515.22,76.59c-0.02,0-0.04,0.02-0.04,0.04"/>
<path class="st1" d="M515.18,79.07c0,0.02,0.02,0.04,0.04,0.04"/>
<path class="st1" d="M515.18,76.62c-0.03,0.82-0.03,1.63,0,2.45"/>
<path class="st1" d="M517.11,78.99c0.2,0.12,0.44,0.19,0.67,0.19"/>
<path class="st1" d="M517.78,76.52c-0.24,0-0.47,0.06-0.68,0.19"/>
<line class="st1" x1="519.9" y1="73.35" x2="520.59" y2="73.35"/>
<line class="st1" x1="519.9" y1="82.34" x2="520.59" y2="82.34"/>
<path class="st1" d="M470.2,44.07c0-1.65-0.24-3.3-0.71-4.88c-0.41-1.38-1.05-2.68-1.89-3.84c-0.3-0.41-0.63-0.8-0.99-1.17"/>
<path class="st1" d="M470.2,44.07c0,1.65-0.24,3.3-0.71,4.88c-0.41,1.38-1.05,2.68-1.89,3.84c-0.81,1.12-1.85,2.06-3.04,2.75
	c-0.98,0.57-2.1,0.86-3.23,0.86c-1.13,0-2.25-0.3-3.23-0.86c-1.2-0.69-2.24-1.63-3.04-2.75c-0.84-1.17-1.48-2.47-1.89-3.84
	c-0.47-1.58-0.71-3.23-0.71-4.88c0-1.65,0.24-3.3,0.71-4.88c0.41-1.38,1.05-2.68,1.89-3.84c0.3-0.41,0.63-0.8,0.99-1.17h10.57"/>
<path class="st1" d="M468.27,28.54c0.23,3.94,0.73,7.87,1.5,11.74"/>
<path class="st1" d="M457.89,29.92c-0.88-0.17-1.74-0.45-2.56-0.83c-0.96-0.45-1.78-1.14-2.4-2c-0.23-0.33-0.32-0.74-0.25-1.14
	l0.7-3.65c0.05-0.24,0.25-0.41,0.5-0.41h14.89c0.24,0,0.45,0.17,0.5,0.41l0.7,3.65c0.08,0.4-0.01,0.81-0.25,1.14
	c-0.61,0.86-1.44,1.55-2.39,2c-0.82,0.38-1.68,0.66-2.56,0.83c-1.13,0.22-2.29,0.33-3.44,0.33
	C460.17,30.25,459.02,30.14,457.89,29.92z"/>
<path class="st1" d="M454.38,28.54c-0.23,3.94-0.73,7.87-1.5,11.74"/>
<path class="st1" d="M460.4,26.44c0-0.51,0.41-0.93,0.93-0.93c0.51,0,0.93,0.41,0.93,0.93c0,0.51-0.42,0.93-0.93,0.93
	C460.81,27.36,460.4,26.95,460.4,26.44z"/>
<path class="st1" d="M383.13,35.74c0-1.03,0.83-1.86,1.86-1.86c1.03,0,1.86,0.83,1.86,1.86c0,1.03-0.84,1.86-1.86,1.86
	C383.96,37.6,383.13,36.77,383.13,35.74z"/>
<path class="st1" d="M383.91,35.74c0-0.6,0.48-1.08,1.08-1.08s1.08,0.48,1.08,1.08c0,0.6-0.48,1.08-1.08,1.08
	S383.91,36.33,383.91,35.74z"/>
<line class="st1" x1="384.2" y1="30.73" x2="384.2" y2="24.87"/>
<path class="st1" d="M384.2,30.73c0,0.24,0.19,0.44,0.44,0.44"/>
<path class="st1" d="M385.35,31.17c0.24,0,0.44-0.2,0.44-0.44"/>
<line class="st1" x1="384.64" y1="31.17" x2="385.35" y2="31.17"/>
<path class="st1" d="M385.64,24.75c-0.14,0.12-0.22,0.3-0.22,0.49"/>
<path class="st1" d="M384.57,25.24c0-0.19-0.08-0.36-0.22-0.49"/>
<line class="st1" x1="384.57" y1="27.99" x2="384.57" y2="25.24"/>
<line class="st1" x1="385.42" y1="25.24" x2="385.42" y2="27.99"/>
<path class="st1" d="M385.17,28.24c0.13,0,0.24-0.11,0.24-0.24"/>
<line class="st1" x1="384.81" y1="28.24" x2="385.17" y2="28.24"/>
<path class="st1" d="M385.88,24.41c-0.06,0.15-0.1,0.3-0.1,0.46"/>
<path class="st1" d="M384.2,24.87c0-0.16-0.03-0.31-0.1-0.46"/>
<line class="st1" x1="385.79" y1="24.87" x2="385.79" y2="30.73"/>
<path class="st1" d="M385.79,24.88c0.48-0.44,0.5-1.18,0.07-1.66c-0.44-0.48-1.18-0.51-1.66-0.07c-0.48,0.44-0.51,1.18-0.07,1.66
	c0.02,0.02,0.04,0.04,0.07,0.07"/>
<path class="st1" d="M385.64,24.75c0.4-0.36,0.44-0.97,0.08-1.37c-0.36-0.4-0.97-0.44-1.37-0.08c-0.4,0.35-0.44,0.97-0.08,1.37
	c0.03,0.03,0.05,0.06,0.08,0.08"/>
<path class="st1" d="M384.57,27.99c0,0.13,0.11,0.24,0.24,0.24"/>
<path class="st1" d="M384.2,26.51c-5.1,0.44-8.87,4.92-8.43,10.02c0.44,5.1,4.92,8.87,10.02,8.43c5.1-0.44,8.87-4.92,8.43-10.02
	c-0.39-4.49-3.95-8.05-8.43-8.43"/>
<path class="st1" d="M420.35,35.74c0-1.03,0.83-1.86,1.87-1.86c1.03,0,1.86,0.83,1.86,1.86c0,1.03-0.84,1.86-1.86,1.86
	C421.19,37.6,420.35,36.77,420.35,35.74z"/>
<path class="st1" d="M421.14,35.74c0-0.6,0.48-1.08,1.08-1.08s1.08,0.48,1.08,1.08c0,0.6-0.48,1.08-1.08,1.08
	S421.14,36.33,421.14,35.74z"/>
<line class="st1" x1="421.42" y1="30.73" x2="421.42" y2="24.87"/>
<path class="st1" d="M421.42,30.73c0,0.24,0.19,0.44,0.44,0.44"/>
<path class="st1" d="M422.57,31.17c0.24,0,0.44-0.2,0.44-0.44"/>
<line class="st1" x1="421.86" y1="31.17" x2="422.57" y2="31.17"/>
<path class="st1" d="M422.86,24.75c-0.14,0.12-0.22,0.3-0.22,0.49"/>
<path class="st1" d="M421.79,25.24c0-0.19-0.08-0.36-0.22-0.49"/>
<line class="st1" x1="421.79" y1="27.99" x2="421.79" y2="25.24"/>
<line class="st1" x1="422.64" y1="25.24" x2="422.64" y2="27.99"/>
<path class="st1" d="M422.4,28.24c0.13,0,0.24-0.11,0.24-0.24"/>
<line class="st1" x1="422.04" y1="28.24" x2="422.4" y2="28.24"/>
<path class="st1" d="M423.11,24.41c-0.06,0.15-0.1,0.3-0.1,0.46"/>
<path class="st1" d="M421.42,24.87c0-0.16-0.03-0.31-0.1-0.46"/>
<line class="st1" x1="423.01" y1="24.87" x2="423.01" y2="30.73"/>
<path class="st1" d="M423.01,24.88c0.48-0.44,0.5-1.18,0.07-1.66c-0.44-0.48-1.18-0.51-1.65-0.07c-0.48,0.44-0.51,1.18-0.07,1.66
	c0.02,0.02,0.04,0.04,0.07,0.07"/>
<path class="st1" d="M422.86,24.75c0.4-0.36,0.44-0.97,0.08-1.37c-0.36-0.4-0.97-0.44-1.37-0.08c-0.4,0.35-0.44,0.97-0.08,1.37
	c0.03,0.03,0.05,0.06,0.08,0.08"/>
<path class="st1" d="M421.79,27.99c0,0.13,0.11,0.24,0.24,0.24"/>
<path class="st1" d="M421.42,26.51c-5.1,0.44-8.87,4.92-8.43,10.02c0.44,5.1,4.92,8.87,10.02,8.43c5.1-0.44,8.87-4.92,8.43-10.02
	c-0.39-4.49-3.95-8.05-8.43-8.43"/>
<rect x="532.97" y="61.25" class="st1" width="37.04" height="33.34"/>
<line class="st1" x1="561.37" y1="94.59" x2="561.37" y2="61.25"/>
<polyline class="st1" points="561.37,64.96 566.31,64.96 566.31,90.89 561.37,90.89 "/>
<rect x="306.22" y="186.03" class="st1" width="37.04" height="2.47"/>
<rect x="340.79" y="188.5" class="st1" width="1.23" height="2.78"/>
<line class="st1" x1="343.26" y1="159.49" x2="306.22" y2="159.49"/>
<polyline class="st1" points="394.66,364.24 375.07,364.24 375.07,343.25 412.11,343.25 412.11,364.24 396.09,364.24 "/>
<line class="st1" x1="392.98" y1="364.24" x2="392.98" y2="343.25"/>
<line class="st1" x1="394.21" y1="364.24" x2="394.21" y2="343.25"/>
<path class="st1" d="M381.86,358.07c0-1.19,0.97-2.16,2.16-2.16c1.19,0,2.16,0.97,2.16,2.16c0,1.19-0.97,2.16-2.16,2.16
	C382.83,360.23,381.86,359.26,381.86,358.07z"/>
<path class="st1" d="M401,358.07c0-1.19,0.97-2.16,2.16-2.16c1.19,0,2.16,0.97,2.16,2.16c0,1.19-0.97,2.16-2.16,2.16
	C401.97,360.23,401,359.26,401,358.07z"/>
<path class="st1" d="M393.59,366.09c-0.68,0-1.24,0.55-1.24,1.24c0,0.68,0.55,1.23,1.24,1.23c0.68,0,1.23-0.55,1.23-1.23
	c0-0.22-0.06-0.43-0.16-0.62"/>
<line class="st1" x1="393.59" y1="366.09" x2="398.61" y2="357.4"/>
<line class="st1" x1="394.66" y1="366.71" x2="399.68" y2="358.01"/>
<path class="st1" d="M399.68,358.01c0.17-0.29,0.07-0.67-0.23-0.84c-0.3-0.17-0.67-0.07-0.84,0.23"/>
<line class="st1" x1="392.77" y1="368.25" x2="391.12" y2="368.25"/>
<line class="st1" x1="392.77" y1="366.4" x2="391.74" y2="366.4"/>
<line class="st1" x1="391.12" y1="366.4" x2="391.12" y2="368.25"/>
<line class="st1" x1="391.43" y1="367.02" x2="391.43" y2="365.33"/>
<line class="st1" x1="391.74" y1="367.02" x2="391.74" y2="365.33"/>
<line class="st1" x1="391.74" y1="365.33" x2="391.43" y2="365.33"/>
<line class="st1" x1="391.74" y1="367.02" x2="391.43" y2="367.02"/>
<line class="st1" x1="391.43" y1="366.4" x2="391.12" y2="366.4"/>
<line class="st1" x1="395.84" y1="362.21" x2="396.91" y2="362.83"/>
<polyline class="st1" points="442.21,315.63 442.21,326.58 468.45,326.58 468.45,288.31 442.21,288.31 442.21,299.27 "/>
<polyline class="st1" points="443.44,316.09 443.44,325.35 467.21,325.35 467.21,289.54 443.44,289.54 443.44,298.8 "/>
<line class="st1" x1="443.44" y1="316.09" x2="447.15" y2="316.09"/>
<line class="st1" x1="443.44" y1="298.8" x2="447.15" y2="298.8"/>
<line class="st1" x1="447.15" y1="298.8" x2="447.15" y2="316.09"/>
<line class="st1" x1="467.21" y1="300.66" x2="447.15" y2="300.66"/>
<line class="st1" x1="467.21" y1="314.24" x2="447.15" y2="314.24"/>
<polyline class="st1" points="466.28,314.85 447.76,314.85 447.76,316.71 444.06,316.71 444.06,324.42 466.28,324.42 466.28,314.85 
	"/>
<rect x="447.76" y="301.27" class="st1" width="18.52" height="12.35"/>
<line class="st1" x1="466.75" y1="320.02" x2="463.51" y2="320.02"/>
<line class="st1" x1="448.53" y1="320.02" x2="443.75" y2="320.02"/>
<line class="st1" x1="460.18" y1="320.02" x2="451.9" y2="320.02"/>
<line class="st1" x1="447.38" y1="316.4" x2="447.38" y2="317.32"/>
<line class="st1" x1="447.38" y1="322.71" x2="447.38" y2="324.89"/>
<line class="st1" x1="450.25" y1="324.89" x2="450.25" y2="321.65"/>
<line class="st1" x1="450.25" y1="318.38" x2="450.25" y2="296.51"/>
<line class="st1" x1="450.25" y1="293.24" x2="450.25" y2="290.01"/>
<line class="st1" x1="461.85" y1="324.89" x2="461.85" y2="321.65"/>
<line class="st1" x1="461.85" y1="318.38" x2="461.85" y2="311.42"/>
<line class="st1" x1="461.85" y1="293.24" x2="461.85" y2="290.01"/>
<line class="st1" x1="453.12" y1="324.89" x2="453.12" y2="322.71"/>
<line class="st1" x1="453.12" y1="292.18" x2="453.12" y2="290.01"/>
<line class="st1" x1="453.12" y1="317.32" x2="453.12" y2="311.42"/>
<line class="st1" x1="461.85" y1="303.47" x2="461.85" y2="296.51"/>
<line class="st1" x1="453.12" y1="303.47" x2="453.12" y2="297.57"/>
<path class="st1" d="M455.18,307.45c0-1.29,1.05-2.34,2.34-2.34c1.29,0,2.34,1.05,2.34,2.34c0,1.29-1.05,2.34-2.34,2.34
	C456.23,309.78,455.18,308.74,455.18,307.45z"/>
<path class="st1" d="M449.16,319.88c0-0.8,0.64-1.44,1.44-1.44s1.44,0.64,1.44,1.44c0,0.8-0.64,1.44-1.44,1.44
	S449.16,320.67,449.16,319.88z"/>
<path class="st1" d="M459.99,295.07c0-0.8,0.64-1.44,1.44-1.44s1.44,0.64,1.44,1.44c0,0.8-0.64,1.44-1.44,1.44
	S459.99,295.86,459.99,295.07z"/>
<path class="st1" d="M448.35,295.07c0-1.05,0.85-1.9,1.9-1.9c1.05,0,1.91,0.85,1.91,1.9c0,1.05-0.85,1.91-1.91,1.91
	C449.2,296.98,448.35,296.12,448.35,295.07z"/>
<path class="st1" d="M459.95,319.82c0-1.05,0.85-1.9,1.9-1.9s1.91,0.85,1.91,1.9c0,1.05-0.85,1.91-1.91,1.91
	S459.95,320.87,459.95,319.82z"/>
<path class="st1" d="M454.26,307.45c0-1.8,1.46-3.27,3.26-3.27s3.27,1.46,3.27,3.27c0,1.8-1.46,3.27-3.27,3.27
	S454.26,309.25,454.26,307.45z"/>
<ellipse transform="matrix(0.9239 -0.3827 0.3827 0.9239 -87.2336 201.088)" class="st1" cx="461.85" cy="319.82" rx="2.83" ry="2.83"/>
<path class="st1" d="M448.24,319.88c0-1.31,1.06-2.37,2.37-2.37c1.31,0,2.37,1.06,2.37,2.37c0,1.31-1.06,2.37-2.37,2.37
	C449.3,322.24,448.24,321.18,448.24,319.88z"/>
<ellipse transform="matrix(0.9239 -0.3827 0.3827 0.9239 -78.6456 194.7654)" class="st1" cx="450.25" cy="295.07" rx="2.83" ry="2.83"/>
<path class="st1" d="M459.07,295.07c0-1.31,1.06-2.37,2.37-2.37c1.31,0,2.37,1.06,2.37,2.37c0,1.31-1.06,2.37-2.37,2.37
	C460.13,297.43,459.07,296.38,459.07,295.07z"/>
<line class="st1" x1="456.06" y1="324.89" x2="456.06" y2="309"/>
<line class="st1" x1="458.98" y1="324.89" x2="458.98" y2="322.71"/>
<line class="st1" x1="458.98" y1="317.32" x2="458.98" y2="309"/>
<line class="st1" x1="458.98" y1="292.18" x2="458.98" y2="290.01"/>
<line class="st1" x1="458.98" y1="305.89" x2="458.98" y2="297.57"/>
<line class="st1" x1="456.06" y1="305.89" x2="456.06" y2="290.01"/>
<line class="st1" x1="464.72" y1="290.01" x2="464.72" y2="292.18"/>
<line class="st1" x1="464.72" y1="322.71" x2="464.72" y2="324.89"/>
<line class="st1" x1="464.72" y1="297.57" x2="464.72" y2="317.32"/>
<line class="st1" x1="447.38" y1="298.49" x2="447.38" y2="297.57"/>
<line class="st1" x1="447.38" y1="292.18" x2="447.38" y2="290.01"/>
<polyline class="st1" points="466.28,300.04 447.76,300.04 447.76,298.19 444.06,298.19 444.06,290.47 466.28,290.47 466.28,300.04 
	"/>
<line class="st1" x1="466.75" y1="294.88" x2="463.51" y2="294.88"/>
<line class="st1" x1="448.53" y1="294.88" x2="443.75" y2="294.88"/>
<line class="st1" x1="460.18" y1="294.88" x2="451.9" y2="294.88"/>
<line class="st1" x1="466.75" y1="307.45" x2="460.53" y2="307.45"/>
<line class="st1" x1="454.52" y1="307.45" x2="447.46" y2="307.45"/>
<rect x="441.9" y="299.27" class="st1" width="4.79" height="16.36"/>
<rect x="443.95" y="301.23" class="st1" width="2.08" height="0.64"/>
<path class="st1" d="M444.1,301.87c0.18,0.49,0.71,0.74,1.2,0.57c0.27-0.09,0.47-0.3,0.57-0.57"/>
<path class="st1" d="M445.87,301.23c-0.18-0.49-0.72-0.74-1.21-0.57c-0.27,0.1-0.47,0.3-0.57,0.57"/>
<rect x="443.95" y="313.02" class="st1" width="2.08" height="0.64"/>
<path class="st1" d="M445.87,313.02c-0.18-0.49-0.72-0.74-1.21-0.57c-0.27,0.09-0.47,0.3-0.57,0.57"/>
<path class="st1" d="M444.1,313.66c0.18,0.49,0.71,0.74,1.2,0.57c0.27-0.09,0.47-0.3,0.57-0.57"/>
<rect x="443.95" y="307.13" class="st1" width="2.08" height="0.64"/>
<path class="st1" d="M445.87,307.13c-0.18-0.49-0.72-0.74-1.21-0.57c-0.27,0.1-0.47,0.3-0.57,0.57"/>
<path class="st1" d="M444.1,307.76c0.18,0.49,0.71,0.74,1.2,0.57c0.27-0.09,0.47-0.3,0.57-0.57"/>
<rect x="443.95" y="310.07" class="st1" width="2.08" height="0.64"/>
<path class="st1" d="M445.87,310.07c-0.18-0.49-0.72-0.74-1.21-0.57c-0.27,0.09-0.47,0.3-0.57,0.57"/>
<path class="st1" d="M444.1,310.71c0.18,0.49,0.71,0.74,1.2,0.57c0.27-0.09,0.47-0.3,0.57-0.57"/>
<rect x="443.95" y="304.18" class="st1" width="2.08" height="0.64"/>
<path class="st1" d="M445.87,304.18c-0.18-0.49-0.72-0.74-1.21-0.57c-0.27,0.09-0.47,0.3-0.57,0.57"/>
<path class="st1" d="M444.1,304.82c0.18,0.49,0.71,0.74,1.2,0.57c0.27-0.1,0.47-0.3,0.57-0.57"/>
<rect x="344.49" y="186.02" class="st1" width="36.42" height="2.47"/>
<polyline class="st1" points="348.89,186.02 348.89,161.5 376.52,161.5 376.52,186.02 "/>
<polyline class="st1" points="380.83,188.49 380.14,190.5 379.56,190.3 380.18,188.49 "/>
<polyline class="st1" points="346.34,339.55 346.34,338.5 368.26,338.5 368.26,339.55 "/>
<polyline class="st1" points="345.73,339.55 345.73,338.19 368.88,338.19 368.88,339.55 "/>
<line class="st1" x1="168.3" y1="23.37" x2="262.14" y2="23.37"/>
<rect x="168.3" y="20.9" class="st1" width="93.84" height="101.24"/>
<path class="st1" d="M216.45,44.35c1.65-6.48,1.65-13.27,0-19.75c14.36,1.65,28.86,1.65,43.21,0c-1.65,6.48-1.65,13.27,0,19.75
	c-0.98-0.14-1.97-0.27-2.95-0.39"/>
<path class="st1" d="M212.13,49.75c-1.65-5.64-1.65-11.64,0-17.28c-13.14,1.23-26.37,1.23-39.51,0c1.65,5.64,1.65,11.64,0,17.28
	C185.76,48.51,198.99,48.51,212.13,49.75z"/>
<path class="st1" d="M257.82,49.75c-1.65-5.64-1.65-11.64,0-17.28c-13.14,1.23-26.37,1.23-39.51,0c1.65,5.64,1.65,11.64,0,17.28
	C231.45,48.51,244.68,48.51,257.82,49.75z"/>
<path class="st1" d="M213.99,44.35c-1.65-6.48-1.65-13.27,0-19.75c-14.36,1.65-28.86,1.65-43.21,0c1.65,6.48,1.65,13.27,0,19.75
	c0.98-0.14,1.97-0.27,2.95-0.39"/>
<line class="st1" x1="262.14" y1="35.71" x2="258.45" y2="35.71"/>
<line class="st1" x1="262.14" y1="51.76" x2="168.3" y2="51.76"/>
<line class="st1" x1="217.67" y1="35.71" x2="212.77" y2="35.71"/>
<line class="st1" x1="171.99" y1="35.71" x2="168.3" y2="35.71"/>
<path class="st1" d="M219.41,43.97c-0.99,0.12-1.97,0.25-2.95,0.39"/>
<path class="st1" d="M213.99,44.35c-0.98-0.14-1.97-0.27-2.95-0.39"/>
<rect x="264.61" y="23.37" class="st1" width="24.69" height="19.76"/>
<rect x="141.14" y="23.37" class="st1" width="24.69" height="19.76"/>
<line class="st1" x1="636.19" y1="273.67" x2="636.19" y2="339.11"/>
<rect x="543.59" y="273.67" class="st1" width="95.07" height="65.44"/>
<path class="st1" d="M627.09,309.48c-1.23,8.81-1.23,17.74,0,26.55c-5.65-1.65-11.64-1.65-17.29,0c1.23-8.8,1.23-17.74,0-26.55
	C615.45,311.12,621.45,311.12,627.09,309.48"/>
<path class="st1" d="M615.59,310.58c-0.12-0.99-0.25-1.97-0.39-2.95c6.48,1.65,13.27,1.65,19.76,0c-1.65,10.02-1.65,20.23,0,30.25
	c-6.48-1.65-13.27-1.65-19.76,0c0.14-0.98,0.27-1.97,0.39-2.95"/>
<line class="st1" x1="623.84" y1="339.11" x2="623.84" y2="336.66"/>
<line class="st1" x1="607.79" y1="339.11" x2="607.79" y2="273.67"/>
<line class="st1" x1="623.84" y1="308.84" x2="623.84" y2="303.94"/>
<line class="st1" x1="623.84" y1="276.12" x2="623.84" y2="273.67"/>
<path class="st1" d="M627.09,276.76c-1.23,8.81-1.23,17.74,0,26.55c-5.65-1.65-11.64-1.65-17.29,0c1.23-8.81,1.23-17.74,0-26.55
	C615.45,278.41,621.45,278.41,627.09,276.76"/>
<path class="st1" d="M615.59,277.86c-0.12-0.99-0.25-1.97-0.39-2.95c6.48,1.65,13.27,1.65,19.76,0c-1.65,10.02-1.65,20.23,0,30.25
	c-6.48-1.65-13.27-1.65-19.76,0c0.14-0.98,0.27-1.97,0.39-2.95"/>
<rect x="616.43" y="246.51" class="st1" width="19.76" height="24.69"/>
<rect x="616.43" y="341.58" class="st1" width="19.76" height="24.69"/>
<rect x="157.11" y="167.96" class="st1" width="69.14" height="14.82"/>
<rect x="165.75" y="172.9" class="st1" width="51.86" height="1.24"/>
<polyline class="st1" points="184.28,174.14 184.28,179.08 199.09,179.08 199.09,174.14 "/>
<polyline class="st1" points="199.09,172.9 199.09,170.43 184.28,170.43 184.28,172.9 "/>
<path class="st1" d="M618.97,258.86c0-4.05,3.29-7.34,7.34-7.34c4.06,0,7.34,3.29,7.34,7.34c0,4.05-3.29,7.34-7.34,7.34
	C622.26,266.2,618.97,262.91,618.97,258.86z"/>
<path class="st1" d="M624.43,258.86c0-1.04,0.84-1.88,1.88-1.88c1.04,0,1.89,0.84,1.89,1.88c0,1.04-0.84,1.89-1.89,1.89
	C625.27,260.74,624.43,259.9,624.43,258.86z"/>
<line class="st1" x1="626.31" y1="266.2" x2="626.31" y2="260.74"/>
<line class="st1" x1="626.31" y1="256.97" x2="626.31" y2="251.52"/>
<line class="st1" x1="618.97" y1="258.86" x2="624.43" y2="258.86"/>
<line class="st1" x1="628.2" y1="258.86" x2="633.65" y2="258.86"/>
<path class="st1" d="M618.97,353.93c0-4.05,3.29-7.34,7.34-7.34c4.06,0,7.34,3.29,7.34,7.34c0,4.05-3.29,7.34-7.34,7.34
	C622.26,361.27,618.97,357.98,618.97,353.93z"/>
<path class="st1" d="M624.43,353.93c0-1.04,0.84-1.88,1.88-1.88c1.04,0,1.89,0.84,1.89,1.88c0,1.04-0.84,1.89-1.89,1.89
	C625.27,355.81,624.43,354.97,624.43,353.93z"/>
<line class="st1" x1="626.31" y1="361.27" x2="626.31" y2="355.81"/>
<line class="st1" x1="626.31" y1="352.04" x2="626.31" y2="346.59"/>
<line class="st1" x1="618.97" y1="353.93" x2="624.43" y2="353.93"/>
<line class="st1" x1="628.2" y1="353.93" x2="633.65" y2="353.93"/>
<path class="st1" d="M146.14,33.24c0-4.05,3.29-7.34,7.34-7.34c4.05,0,7.34,3.29,7.34,7.34c0,4.05-3.29,7.34-7.34,7.34
	C149.43,40.58,146.14,37.3,146.14,33.24z"/>
<path class="st1" d="M151.6,33.24c0-1.04,0.84-1.88,1.88-1.88c1.04,0,1.89,0.84,1.89,1.88c0,1.04-0.84,1.89-1.89,1.89
	C152.44,35.13,151.6,34.28,151.6,33.24z"/>
<line class="st1" x1="153.48" y1="40.58" x2="153.48" y2="35.13"/>
<line class="st1" x1="153.48" y1="31.36" x2="153.48" y2="25.9"/>
<line class="st1" x1="146.14" y1="33.24" x2="151.6" y2="33.24"/>
<line class="st1" x1="155.37" y1="33.24" x2="160.83" y2="33.24"/>
<path class="st1" d="M269.61,33.24c0-4.05,3.29-7.34,7.34-7.34c4.06,0,7.34,3.29,7.34,7.34c0,4.05-3.29,7.34-7.34,7.34
	C272.9,40.58,269.61,37.3,269.61,33.24z"/>
<path class="st1" d="M275.07,33.24c0-1.04,0.84-1.88,1.88-1.88c1.04,0,1.89,0.84,1.89,1.88c0,1.04-0.84,1.89-1.89,1.89
	C275.91,35.13,275.07,34.28,275.07,33.24z"/>
<line class="st1" x1="276.95" y1="40.58" x2="276.95" y2="35.13"/>
<line class="st1" x1="276.95" y1="31.36" x2="276.95" y2="25.9"/>
<line class="st1" x1="269.61" y1="33.24" x2="275.07" y2="33.24"/>
<line class="st1" x1="278.84" y1="33.24" x2="284.3" y2="33.24"/>
<rect x="316.56" y="242.16" class="st1" width="74.08" height="39.51"/>
<path class="st1" d="M359.42,290.92c7.12,1.44,14.46,1.44,21.58,0"/>
<path class="st1" d="M359.42,289.84c7.12,1.44,14.46,1.44,21.58,0"/>
<path class="st1" d="M360.49,285.75c6.42,1.13,13,1.13,19.42,0"/>
<line class="st1" x1="381" y1="289.84" x2="379.92" y2="285.75"/>
<line class="st1" x1="379.92" y1="285.75" x2="380.36" y2="281.67"/>
<line class="st1" x1="359.42" y1="289.84" x2="360.49" y2="285.75"/>
<line class="st1" x1="360.49" y1="285.75" x2="360.05" y2="281.67"/>
<line class="st1" x1="359.42" y1="290.92" x2="359.42" y2="289.84"/>
<line class="st1" x1="381" y1="290.92" x2="381" y2="289.84"/>
<path class="st1" d="M326.2,290.92c7.12,1.44,14.46,1.44,21.58,0"/>
<path class="st1" d="M326.2,289.84c7.12,1.44,14.46,1.44,21.58,0"/>
<path class="st1" d="M327.28,285.75c6.42,1.13,13,1.13,19.42,0"/>
<line class="st1" x1="326.2" y1="289.84" x2="327.28" y2="285.75"/>
<line class="st1" x1="327.28" y1="285.75" x2="326.84" y2="281.67"/>
<line class="st1" x1="347.78" y1="289.84" x2="346.7" y2="285.75"/>
<line class="st1" x1="346.7" y1="285.75" x2="347.15" y2="281.67"/>
<line class="st1" x1="347.78" y1="290.92" x2="347.78" y2="289.84"/>
<line class="st1" x1="326.2" y1="290.92" x2="326.2" y2="289.84"/>
<path class="st1" d="M381,232.92c-7.12-1.44-14.46-1.44-21.58,0"/>
<path class="st1" d="M381,234c-7.12-1.44-14.46-1.44-21.58,0"/>
<path class="st1" d="M379.92,238.08c-6.43-1.13-13-1.13-19.42,0"/>
<line class="st1" x1="381" y1="234" x2="379.92" y2="238.08"/>
<line class="st1" x1="379.92" y1="238.08" x2="380.36" y2="242.16"/>
<line class="st1" x1="359.42" y1="234" x2="360.49" y2="238.08"/>
<line class="st1" x1="360.49" y1="238.08" x2="360.05" y2="242.16"/>
<line class="st1" x1="359.42" y1="232.92" x2="359.42" y2="234"/>
<line class="st1" x1="381" y1="232.92" x2="381" y2="234"/>
<path class="st1" d="M347.78,232.92c-7.12-1.44-14.46-1.44-21.58,0"/>
<path class="st1" d="M347.78,234c-7.12-1.44-14.46-1.44-21.58,0"/>
<path class="st1" d="M346.7,238.08c-6.42-1.13-13-1.13-19.42,0"/>
<line class="st1" x1="326.2" y1="234" x2="327.28" y2="238.08"/>
<line class="st1" x1="327.28" y1="238.08" x2="326.84" y2="242.16"/>
<line class="st1" x1="347.78" y1="234" x2="346.7" y2="238.08"/>
<line class="st1" x1="346.7" y1="238.08" x2="347.15" y2="242.16"/>
<line class="st1" x1="347.78" y1="232.92" x2="347.78" y2="234"/>
<line class="st1" x1="326.2" y1="232.92" x2="326.2" y2="234"/>
<line class="st1" x1="168.21" y1="367.95" x2="271.92" y2="367.95"/>
<line class="st1" x1="271.92" y1="328.44" x2="271.92" y2="367.95"/>
<line class="st1" x1="168.21" y1="328.44" x2="168.21" y2="367.95"/>
<line class="st1" x1="173.15" y1="328.44" x2="173.15" y2="361.77"/>
<line class="st1" x1="168.21" y1="363.01" x2="271.92" y2="363.01"/>
<line class="st1" x1="168.21" y1="328.44" x2="271.92" y2="328.44"/>
<line class="st1" x1="204.43" y1="328.44" x2="204.43" y2="360.54"/>
<line class="st1" x1="235.71" y1="328.44" x2="235.71" y2="360.54"/>
<line class="st1" x1="173.15" y1="360.54" x2="266.98" y2="360.54"/>
<line class="st1" x1="271.92" y1="361.77" x2="266.98" y2="361.77"/>
<line class="st1" x1="168.21" y1="361.77" x2="173.15" y2="361.77"/>
<line class="st1" x1="266.98" y1="328.44" x2="266.98" y2="361.77"/>
<ellipse transform="matrix(0.9239 -0.3827 0.3827 0.9239 -90.9804 105.6443)" class="st1" cx="220.06" cy="281.52" rx="22.22" ry="22.22"/>
<line class="st1" x1="133.64" y1="260.53" x2="133.64" y2="302.51"/>
<line class="st1" x1="173.15" y1="302.51" x2="133.64" y2="302.51"/>
<line class="st1" x1="173.15" y1="260.53" x2="133.64" y2="260.53"/>
<line class="st1" x1="173.15" y1="265.47" x2="139.81" y2="265.47"/>
<line class="st1" x1="173.15" y1="297.57" x2="139.81" y2="297.57"/>
<line class="st1" x1="138.57" y1="260.53" x2="138.57" y2="302.51"/>
<line class="st1" x1="173.15" y1="260.53" x2="173.15" y2="302.51"/>
<line class="st1" x1="141.04" y1="265.47" x2="141.04" y2="297.57"/>
<line class="st1" x1="139.81" y1="302.51" x2="139.81" y2="297.57"/>
<line class="st1" x1="139.81" y1="260.53" x2="139.81" y2="265.47"/>
<rect x="632.33" y="20.9" class="st1" width="2.16" height="44.45"/>
<path class="st1" d="M590.04,20.9c0,24.55,19.9,44.45,44.45,44.45"/>
<path class="st1" d="M579.39,60.48c5.2,0,10.31-1.37,14.82-3.97"/>
<path class="st1" d="M594.21,64.45c-4.5-2.6-9.62-3.97-14.82-3.97"/>
<rect x="584.78" y="29.41" transform="matrix(0.866 -0.5 0.5 0.866 56.3875 298.8724)" class="st1" width="2.16" height="29.63"/>
<rect x="571.05" y="75.66" transform="matrix(0.5 -0.866 0.866 0.5 226.4568 545.7362)" class="st1" width="29.63" height="2.16"/>
<rect x="590.97" y="116.74" class="st1" width="29.63" height="2.16"/>
<rect x="590.97" y="173.84" class="st1" width="29.63" height="2.16"/>
<path class="st1" d="M590.97,146.37c16.36,0,29.63-13.27,29.63-29.63"/>
<path class="st1" d="M620.6,176c0-16.37-13.27-29.63-29.63-29.63"/>
<rect x="118.67" y="123.52" class="st1" width="5.56" height="2.47"/>
<rect x="118.67" y="45.44" class="st1" width="5.56" height="2.47"/>
<rect x="118.67" y="76.53" class="st1" width="5.56" height="2.47"/>
<line class="st1" x1="119.9" y1="123.52" x2="119.9" y2="79"/>
<line class="st1" x1="121.14" y1="123.52" x2="121.14" y2="79"/>
<line class="st1" x1="119.9" y1="76.53" x2="119.9" y2="47.9"/>
<line class="st1" x1="121.14" y1="76.53" x2="121.14" y2="47.9"/>
<line class="st1" x1="131.17" y1="124.75" x2="131.17" y2="46.67"/>
<rect x="118.67" y="374.89" class="st1" width="5.56" height="2.47"/>
<rect x="118.67" y="229.7" class="st1" width="5.56" height="2.47"/>
<rect x="118.67" y="326.49" class="st1" width="5.56" height="2.47"/>
<line class="st1" x1="119.9" y1="374.89" x2="119.9" y2="328.96"/>
<line class="st1" x1="121.14" y1="374.89" x2="121.14" y2="328.96"/>
<rect x="118.67" y="278.1" class="st1" width="5.56" height="2.47"/>
<line class="st1" x1="119.9" y1="326.49" x2="119.9" y2="280.57"/>
<line class="st1" x1="121.14" y1="326.49" x2="121.14" y2="280.57"/>
<line class="st1" x1="119.9" y1="278.1" x2="119.9" y2="232.17"/>
<line class="st1" x1="121.14" y1="278.1" x2="121.14" y2="232.17"/>
<line class="st1" x1="131.17" y1="370.41" x2="131.17" y2="229.7"/>
<line class="st1" x1="131.17" y1="229.7" x2="124.22" y2="229.7"/>
<rect x="118.67" y="377.36" class="st1" width="5.56" height="5.56"/>
<rect x="455.13" y="377.36" class="st1" width="2.47" height="5.56"/>
<rect x="341.04" y="377.36" class="st1" width="2.47" height="5.56"/>
<rect x="395.87" y="377.36" class="st1" width="2.47" height="5.56"/>
<line class="st1" x1="455.13" y1="381.68" x2="398.34" y2="381.68"/>
<line class="st1" x1="455.13" y1="380.45" x2="398.34" y2="380.45"/>
<line class="st1" x1="395.87" y1="381.68" x2="343.51" y2="381.68"/>
<line class="st1" x1="395.87" y1="380.45" x2="343.51" y2="380.45"/>
<line class="st1" x1="456.37" y1="370.41" x2="342.27" y2="370.41"/>
<rect x="628.78" y="377.36" class="st1" width="2.47" height="5.56"/>
<rect x="526.3" y="377.36" class="st1" width="2.47" height="5.56"/>
<rect x="585.55" y="377.36" class="st1" width="2.47" height="5.56"/>
<line class="st1" x1="628.78" y1="381.68" x2="588.02" y2="381.68"/>
<line class="st1" x1="628.78" y1="380.45" x2="588.02" y2="380.45"/>
<line class="st1" x1="585.55" y1="381.68" x2="528.77" y2="381.68"/>
<line class="st1" x1="585.55" y1="380.45" x2="528.77" y2="380.45"/>
<line class="st1" x1="630.02" y1="370.41" x2="527.54" y2="370.41"/>
<polygon class="st1" points="115.55,49.29 4.01,49.29 4.01,449.03 123.42,449.03 123.42,386.62 119.71,386.62 119.71,445.32 
	7.71,445.32 7.71,53 115.55,53 "/>
<rect x="118.67" y="227.23" class="st1" width="5.55" height="2.47"/>
<rect x="118.67" y="182.78" class="st1" width="5.55" height="2.47"/>
<rect x="317.79" y="339.55" class="st1" width="22.22" height="0.93"/>
<rect x="439.87" y="243.4" class="st1" width="0.93" height="22.22"/>
<rect x="453.69" y="140.81" class="st1" width="2.16" height="41.98"/>
<path class="st1" d="M495.67,182.79c0-23.18-18.8-41.98-41.98-41.98"/>
<rect x="513.34" y="324.4" class="st1" width="2.16" height="25.93"/>
<rect x="511.18" y="298.48" class="st1" width="2.16" height="25.93"/>
<rect x="301.36" y="74.9" class="st1" width="1.54" height="41.98"/>
<rect x="365.64" y="93.59" class="st1" width="41.98" height="2.16"/>
<path class="st1" d="M407.62,95.75c0-23.18-18.8-41.98-41.98-41.98"/>
<rect x="292.02" y="120.27" class="st1" width="2.16" height="41.98"/>
<path class="st1" d="M294.18,120.27c-23.19,0-41.98,18.8-41.98,41.98"/>
<rect x="483.86" y="242.37" class="st1" width="2.16" height="41.98"/>
<path class="st1" d="M483.86,284.35c23.18,0,41.98-18.79,41.98-41.98"/>
<rect x="124.22" y="377.36" class="st1" width="2.47" height="5.56"/>
<rect x="312.39" y="377.36" class="st1" width="2.47" height="5.56"/>
<rect x="188.67" y="377.36" class="st1" width="2.47" height="5.56"/>
<line class="st1" x1="126.69" y1="381.68" x2="188.67" y2="381.68"/>
<line class="st1" x1="126.69" y1="380.45" x2="188.67" y2="380.45"/>
<rect x="253.13" y="377.36" class="st1" width="2.47" height="5.56"/>
<line class="st1" x1="191.14" y1="381.68" x2="253.12" y2="381.68"/>
<line class="st1" x1="191.14" y1="380.45" x2="253.12" y2="380.45"/>
<line class="st1" x1="255.6" y1="381.68" x2="312.39" y2="381.68"/>
<line class="st1" x1="255.6" y1="380.45" x2="312.39" y2="380.45"/>
<line class="st1" x1="131.17" y1="370.41" x2="313.63" y2="370.41"/>
<rect x="76.69" y="185.25" class="st1" width="41.98" height="2.16"/>
<path class="st1" d="M76.69,185.25c0,23.19,18.79,41.98,41.98,41.98"/>
<line class="st1" x1="124.22" y1="125.99" x2="124.22" y2="45.43"/>
<line class="st1" x1="118.67" y1="125.99" x2="118.67" y2="45.43"/>
<line class="st1" x1="124.22" y1="377.36" x2="124.22" y2="229.7"/>
<line class="st1" x1="118.67" y1="377.36" x2="118.67" y2="229.7"/>
<line class="st1" x1="457.6" y1="377.36" x2="341.04" y2="377.36"/>
<line class="st1" x1="457.6" y1="382.92" x2="341.04" y2="382.92"/>
<line class="st1" x1="631.25" y1="377.36" x2="526.3" y2="377.36"/>
<line class="st1" x1="631.25" y1="382.92" x2="526.3" y2="382.92"/>
<line class="st1" x1="124.22" y1="377.36" x2="314.86" y2="377.36"/>
<line class="st1" x1="124.22" y1="382.92" x2="314.86" y2="382.92"/>
<path class="st1" d="M521.63,109.72c-0.24,0-0.45,0.17-0.5,0.41l-0.7,3.65c-0.08,0.4,0.01,0.81,0.25,1.14
	c0.4,0.56,0.89,1.05,1.45,1.45c-0.23,3.94-0.73,7.86-1.5,11.74c-0.28,1.24-0.42,2.51-0.42,3.79c0,1.65,0.24,3.3,0.71,4.88
	c0.41,1.38,1.05,2.68,1.89,3.84c0.81,1.12,1.84,2.06,3.04,2.75c0.98,0.57,2.1,0.86,3.23,0.86c1.13,0,2.25-0.3,3.23-0.86
	c1.2-0.69,2.23-1.63,3.04-2.75c0.84-1.17,1.48-2.47,1.89-3.84c0.47-1.58,0.71-3.23,0.71-4.88c0-1.27-0.14-2.54-0.42-3.79
	c-0.77-3.88-1.27-7.8-1.5-11.74c0.56-0.4,1.05-0.89,1.44-1.45c0.23-0.33,0.32-0.74,0.25-1.14l-0.7-3.65
	c-0.04-0.24-0.25-0.41-0.49-0.41H521.63z"/>
<path class="st1" d="M453.88,21.9c-0.24,0-0.45,0.17-0.5,0.41l-0.7,3.65c-0.08,0.4,0.01,0.81,0.25,1.14
	c0.4,0.56,0.89,1.05,1.45,1.45c-0.23,3.94-0.73,7.86-1.5,11.74c-0.28,1.24-0.42,2.51-0.42,3.79c0,1.65,0.24,3.3,0.71,4.88
	c0.41,1.38,1.05,2.68,1.89,3.84c0.81,1.12,1.84,2.06,3.04,2.75c0.98,0.57,2.1,0.86,3.23,0.86c1.13,0,2.25-0.3,3.23-0.86
	c1.2-0.69,2.24-1.63,3.04-2.75c0.84-1.17,1.48-2.47,1.89-3.84c0.47-1.58,0.71-3.23,0.71-4.88c0-1.27-0.14-2.54-0.42-3.79
	c-0.77-3.88-1.27-7.8-1.5-11.74c0.56-0.4,1.05-0.89,1.44-1.45c0.23-0.33,0.32-0.74,0.25-1.14l-0.7-3.65
	c-0.05-0.24-0.26-0.41-0.5-0.41H453.88z"/>
<polygon class="st1" points="548.84,108.71 509.32,108.71 509.32,136.49 453.76,136.49 453.76,108.71 448.21,108.71 448.21,182.8 
	455.85,182.8 455.85,140.82 453.69,140.82 453.58,185.65 495.67,185.65 495.67,182.8 548.84,182.8 "/>
<polygon class="st1" points="481.17,25.99 478.61,25.99 478.61,20.89 441.57,20.89 441.57,48.68 365.64,48.68 365.64,53.77 
	362.78,53.77 362.78,95.75 365.64,95.75 365.64,93.59 407.62,93.59 407.62,95.75 365.64,95.75 365.64,100.07 481.17,100.07 
	481.17,94.1 465.95,67.73 466.75,67.26 481.17,92.25 "/>
<rect x="532.97" y="61.25" class="st1" width="37.04" height="33.34"/>
<polygon class="st1" points="529.23,100.07 573.68,100.07 573.68,90.12 576.54,90.12 576.54,30.85 573.68,30.85 573.68,20.9 
	547.75,20.9 547.75,56.18 529.23,56.18 "/>
<line class="st1" x1="634.49" y1="20.9" x2="590.04" y2="20.9"/>
<line class="st1" x1="634.49" y1="10.4" x2="590.04" y2="10.4"/>
<line class="st1" x1="118.67" y1="185.25" x2="118.67" y2="227.23"/>
<line class="st1" x1="124.22" y1="185.25" x2="124.22" y2="227.23"/>
<line class="st1" x1="532.09" y1="100.07" x2="532.09" y2="56.18"/>
<line class="st1" x1="546.91" y1="100.07" x2="546.91" y2="94.59"/>
<line class="st1" x1="546.91" y1="61.25" x2="546.91" y2="56.18"/>
<line class="st1" x1="561.72" y1="100.07" x2="561.72" y2="94.59"/>
<line class="st1" x1="561.72" y1="61.25" x2="561.72" y2="20.9"/>
<line class="st1" x1="576.54" y1="75.3" x2="570.01" y2="75.3"/>
<line class="st1" x1="532.97" y1="75.3" x2="529.23" y2="75.3"/>
<line class="st1" x1="576.54" y1="45.67" x2="547.75" y2="45.67"/>
<line class="st1" x1="441.57" y1="25.99" x2="452.68" y2="25.99"/>
<line class="st1" x1="469.97" y1="25.99" x2="478.61" y2="25.99"/>
<line class="st1" x1="441.57" y1="40.81" x2="452.77" y2="40.81"/>
<line class="st1" x1="469.88" y1="40.81" x2="481.17" y2="40.81"/>
<line class="st1" x1="362.78" y1="55.62" x2="458.24" y2="55.62"/>
<line class="st1" x1="464.41" y1="55.62" x2="481.17" y2="55.62"/>
<line class="st1" x1="362.78" y1="70.44" x2="467.51" y2="70.44"/>
<line class="st1" x1="468.58" y1="70.44" x2="481.17" y2="70.44"/>
<line class="st1" x1="362.78" y1="85.25" x2="476.07" y2="85.25"/>
<line class="st1" x1="477.13" y1="85.25" x2="481.17" y2="85.25"/>
<line class="st1" x1="387.01" y1="100.07" x2="387.01" y2="95.75"/>
<line class="st1" x1="387.01" y1="93.59" x2="387.01" y2="48.68"/>
<line class="st1" x1="416.65" y1="100.07" x2="416.65" y2="48.68"/>
<line class="st1" x1="446.28" y1="100.07" x2="446.28" y2="20.9"/>
<line class="st1" x1="475.91" y1="100.07" x2="475.91" y2="84.99"/>
<line class="st1" x1="475.91" y1="83.13" x2="475.91" y2="20.9"/>
<line class="st1" x1="448.21" y1="111.57" x2="453.76" y2="111.57"/>
<line class="st1" x1="537.3" y1="111.57" x2="548.83" y2="111.57"/>
<line class="st1" x1="509.32" y1="111.57" x2="520.86" y2="111.57"/>
<line class="st1" x1="448.21" y1="126.38" x2="453.76" y2="126.38"/>
<line class="st1" x1="537.21" y1="126.38" x2="548.84" y2="126.38"/>
<line class="st1" x1="509.32" y1="126.38" x2="520.95" y2="126.38"/>
<line class="st1" x1="448.21" y1="141.2" x2="453.69" y2="141.2"/>
<line class="st1" x1="534.89" y1="141.2" x2="548.84" y2="141.2"/>
<line class="st1" x1="455.85" y1="141.2" x2="523.27" y2="141.2"/>
<line class="st1" x1="448.21" y1="156.02" x2="453.65" y2="156.02"/>
<line class="st1" x1="455.85" y1="156.02" x2="548.83" y2="156.02"/>
<line class="st1" x1="448.21" y1="170.83" x2="453.62" y2="170.83"/>
<line class="st1" x1="455.85" y1="170.83" x2="548.83" y2="170.83"/>
<line class="st1" x1="477.84" y1="185.65" x2="477.84" y2="136.49"/>
<line class="st1" x1="507.47" y1="182.79" x2="507.47" y2="136.49"/>
<line class="st1" x1="537.11" y1="182.79" x2="537.11" y2="137.19"/>
<line class="st1" x1="537.11" y1="110.56" x2="537.11" y2="108.71"/>
<line class="st1" x1="537.11" y1="125.8" x2="537.11" y2="115.38"/>
<line class="st2" x1="342.49" y1="339.55" x2="342.49" y2="367.79"/>
<line class="st2" x1="342.49" y1="367.79" x2="372.12" y2="367.79"/>
<line class="st2" x1="372.12" y1="367.79" x2="372.12" y2="339.55"/>
<line class="st2" x1="372.12" y1="340.78" x2="342.49" y2="340.78"/>
<line class="st2" x1="456.37" y1="266.86" x2="456.37" y2="370.42"/>
<line class="st2" x1="566.89" y1="182.79" x2="566.89" y2="108.71"/>
<line class="st2" x1="491.73" y1="352.59" x2="491.73" y2="296.22"/>
<line class="st2" x1="304.98" y1="33.24" x2="359.93" y2="33.24"/>
<path class="st2" d="M437.49,351.69c0-8.15,6.61-14.77,14.77-14.77c8.15,0,14.77,6.61,14.77,14.77c0,8.16-6.61,14.77-14.77,14.77
	C444.1,366.46,437.49,359.85,437.49,351.69z"/>
<line class="st2" x1="322.27" y1="138.96" x2="369.8" y2="138.96"/>
<line class="st2" x1="369.8" y1="108.71" x2="369.8" y2="138.96"/>
<polygon class="st3" points="526.3,382.92 526.3,377.36 527.54,377.36 527.54,370.42 515.5,370.42 515.5,350.33 509.79,350.33 
	509.79,352.59 479.38,352.59 479.38,296.22 509.79,296.22 509.79,298.48 515.5,298.48 515.5,290.51 479.38,290.51 479.38,242.37 
	483.86,242.37 483.86,236.66 470.74,236.66 470.74,370.42 456.37,370.42 456.37,377.36 457.6,377.36 457.6,382.92 "/>
<polygon class="st1" points="526.3,382.92 526.3,377.36 527.54,377.36 527.54,370.42 515.5,370.42 515.5,350.33 509.79,350.33 
	509.79,352.59 479.38,352.59 479.38,296.22 509.79,296.22 509.79,298.48 515.5,298.48 515.5,290.51 479.38,290.51 479.38,242.37 
	483.86,242.37 483.86,236.66 470.74,236.66 470.74,370.42 456.37,370.42 456.37,377.36 457.6,377.36 457.6,382.92 "/>
<polygon class="st3" points="651.16,382.92 651.16,10.4 634.49,10.4 634.49,20.9 638.66,20.9 638.66,236.66 525.84,236.66 
	525.84,242.37 638.66,242.37 638.66,370.42 630.02,370.42 630.02,377.36 631.25,377.36 631.25,382.92 "/>
<polygon class="st1" points="651.16,382.92 651.16,10.4 634.49,10.4 634.49,20.9 638.66,20.9 638.66,236.66 525.84,236.66 
	525.84,242.37 638.66,242.37 638.66,370.42 630.02,370.42 630.02,377.36 631.25,377.36 631.25,382.92 "/>
<polygon class="st3" points="341.04,382.92 341.04,377.36 342.27,377.36 342.27,370.42 313.63,370.42 313.63,377.36 314.86,377.36 
	314.86,382.92 "/>
<polygon class="st1" points="341.04,382.92 341.04,377.36 342.27,377.36 342.27,370.42 313.63,370.42 313.63,377.36 314.86,377.36 
	314.86,382.92 "/>
<polygon class="st3" points="131.17,182.78 118.67,182.78 118.67,125.99 124.22,125.99 124.22,124.75 131.17,124.75 131.17,162.26 
	252.2,162.26 252.2,167.96 131.17,167.96 "/>
<polygon class="st1" points="131.17,182.78 118.67,182.78 118.67,125.99 124.22,125.99 124.22,124.75 131.17,124.75 131.17,162.26 
	252.2,162.26 252.2,167.96 131.17,167.96 "/>
<polygon class="st3" points="111.94,45.43 124.22,45.43 124.22,46.67 131.17,46.67 131.17,20.9 299.27,20.9 299.27,53.91 
	304.98,53.91 304.98,20.9 359.93,20.9 359.93,53.77 365.64,53.77 365.64,20.9 478.61,20.9 478.61,25.99 520.59,25.99 520.59,100.07 
	365.64,100.07 365.64,95.75 359.93,95.75 359.93,108.71 382,108.71 382,151.31 304.98,151.31 304.98,95.89 303.52,95.89 
	303.52,138.49 300.74,138.49 300.74,95.89 299.27,95.89 299.27,162.26 294.18,162.26 294.18,167.96 299.27,167.96 299.27,188.51 
	304.98,188.51 304.98,157.02 382.15,157.02 382.15,188.51 453.69,188.51 453.69,182.8 408.7,182.8 408.7,108.71 548.84,108.71 
	548.84,182.8 495.67,182.8 495.67,188.51 590.97,188.51 590.97,176 585.26,176 585.26,182.8 554.55,182.8 554.55,108.71 
	585.26,108.71 585.26,116.74 590.97,116.74 590.97,100.07 579.39,100.07 579.39,90.12 573.68,90.12 573.68,100.07 529.23,100.07 
	529.23,20.9 573.68,20.9 573.68,30.85 579.39,30.85 579.39,20.9 590.04,20.9 590.04,10.4 560.45,10.4 560.45,8.39 111.94,8.39 "/>
<polygon class="st1" points="111.94,45.43 124.22,45.43 124.22,46.67 131.17,46.67 131.17,20.9 299.27,20.9 299.27,53.91 
	304.98,53.91 304.98,20.9 359.93,20.9 359.93,53.77 365.64,53.77 365.64,20.9 478.61,20.9 478.61,25.99 520.59,25.99 520.59,100.07 
	365.64,100.07 365.64,95.75 359.93,95.75 359.93,108.71 382,108.71 382,151.31 304.98,151.31 304.98,95.89 303.52,95.89 
	303.52,138.49 300.74,138.49 300.74,95.89 299.27,95.89 299.27,162.26 294.18,162.26 294.18,167.96 299.27,167.96 299.27,188.51 
	304.98,188.51 304.98,157.02 382.15,157.02 382.15,188.51 453.69,188.51 453.69,182.8 408.7,182.8 408.7,108.71 548.84,108.71 
	548.84,182.8 495.67,182.8 495.67,188.51 590.97,188.51 590.97,176 585.26,176 585.26,182.8 554.55,182.8 554.55,108.71 
	585.26,108.71 585.26,116.74 590.97,116.74 590.97,100.07 579.39,100.07 579.39,90.12 573.68,90.12 573.68,100.07 529.23,100.07 
	529.23,20.9 573.68,20.9 573.68,30.85 579.39,30.85 579.39,20.9 590.04,20.9 590.04,10.4 560.45,10.4 560.45,8.39 111.94,8.39 "/>
<path class="st3" d="M165.74,350.66c0-8.18-6.63-14.82-14.82-14.82s-14.82,6.63-14.82,14.82c0,8.18,6.63,14.82,14.82,14.82
	S165.74,358.84,165.74,350.66"/>
<path class="st1" d="M165.74,350.66c0-8.18-6.63-14.82-14.82-14.82s-14.82,6.63-14.82,14.82c0,8.18,6.63,14.82,14.82,14.82
	S165.74,358.84,165.74,350.66z"/>
<path class="st4" d="M352.95,357.37h-1.75v-5.04h1.75c1.58,0,2.68,1.09,2.68,2.51C355.63,356.27,354.53,357.37,352.95,357.37z
	 M352.95,352.86h-1.18v3.99h1.18c1.28,0,2.09-0.86,2.09-1.99C355.04,353.74,354.22,352.86,352.95,352.86z"/>
<path class="st4" d="M359.78,352.32h0.47l1.38,4.21l1.44-4.2h0.6l-1.8,5.08h-0.48l-1.38-4.09l-1.39,4.09h-0.47l-1.8-5.08h0.62
	l1.44,4.2L359.78,352.32z"/>
<path class="st4" d="M328.93,356.75h-1.22v1.78h-0.57v-5.04h1.89c1.14,0,1.89,0.6,1.89,1.61
	C330.91,356.19,330.01,356.75,328.93,356.75z M328.98,354.02h-1.27v2.22h1.25c0.83,0,1.38-0.45,1.38-1.12
	C330.34,354.39,329.8,354.02,328.98,354.02z"/>
<path class="st4" d="M455.33,255.82h-1.22v1.78h-0.57v-5.04h1.89c1.14,0,1.89,0.61,1.89,1.61
	C457.31,255.26,456.4,255.82,455.33,255.82z M455.38,253.08h-1.27v2.22h1.25c0.83,0,1.38-0.45,1.38-1.12
	C456.74,253.46,456.19,253.08,455.38,253.08z"/>
<path class="st4" d="M542.3,75.52h0.47l1.38,4.21l1.44-4.2h0.6l-1.8,5.08h-0.48l-1.38-4.09l-1.39,4.09h-0.47l-1.8-5.08h0.62
	l1.44,4.2L542.3,75.52z"/>
<path class="st4" d="M549.63,74.83l-3.34,6.67h-0.51l3.34-6.67H549.63z"/>
<path class="st4" d="M552.19,80.57h-1.75v-5.04h1.75c1.58,0,2.68,1.09,2.68,2.51C554.87,79.47,553.77,80.57,552.19,80.57z
	 M552.19,76.06h-1.18v3.99h1.18c1.28,0,2.09-0.86,2.09-1.99S553.46,76.06,552.19,76.06z"/>
<path class="st4" d="M532.7,36.59h0.57v4.52h2.84v0.53h-3.41V36.59z"/>
<path class="st4" d="M537.92,36.59v5.04h-0.57v-5.04H537.92z"/>
<path class="st4" d="M543.25,36.59h0.55v5.04h-0.45l-3.25-4.13v4.13h-0.55v-5.04h0.53l3.18,4.04V36.59z"/>
<path class="st4" d="M442.52,349.65h0.57v4.52h2.84v0.53h-3.41V349.65z"/>
<path class="st4" d="M448.93,351.9c1.12,0.24,1.64,0.66,1.64,1.43c0,0.87-0.72,1.43-1.72,1.43c-0.8,0-1.46-0.27-2.06-0.81l0.35-0.42
	c0.53,0.48,1.03,0.71,1.73,0.71c0.68,0,1.12-0.35,1.12-0.86c0-0.48-0.25-0.74-1.31-0.96c-1.16-0.25-1.69-0.63-1.69-1.46
	c0-0.81,0.7-1.38,1.66-1.38c0.73,0,1.26,0.21,1.77,0.62l-0.33,0.44c-0.47-0.38-0.94-0.55-1.46-0.55c-0.66,0-1.07,0.36-1.07,0.82
	C447.56,351.39,447.82,351.66,448.93,351.9z"/>
<path class="st4" d="M307.81,140.73h0.57v4.52h2.84v0.53h-3.41V140.73z"/>
<path class="st4" d="M313.04,140.73v5.04h-0.57v-5.04H313.04z"/>
<path class="st4" d="M318.37,140.73h0.55v5.04h-0.45l-3.26-4.13v4.13h-0.55v-5.04h0.53l3.18,4.04V140.73z"/>
<path class="st4" d="M326.64,171.34h-3.05v1.8h2.73v0.52h-2.73v2.2h-0.57v-5.04h3.62V171.34z"/>
<path class="st4" d="M357.65,166.87h0.47l1.38,4.21l1.44-4.2h0.6l-1.8,5.08h-0.48l-1.38-4.09l-1.39,4.09h-0.47l-1.8-5.08h0.62
	l1.44,4.2L357.65,166.87z"/>
<path class="st4" d="M364.8,172.01c-1.53,0-2.56-1.2-2.56-2.6s1.04-2.61,2.58-2.61s2.56,1.2,2.56,2.6
	C367.38,170.79,366.34,172.01,364.8,172.01z M364.8,167.32c-1.15,0-1.97,0.92-1.97,2.07s0.84,2.09,1.99,2.09s1.97-0.92,1.97-2.07
	S365.96,167.32,364.8,167.32z"/>
<path class="st4" d="M371.44,166.17l-3.34,6.67h-0.51l3.34-6.67H371.44z"/>
<path class="st4" d="M358.58,179.18h-0.03l-1.84-2.69v4.08h-0.55v-5.04h0.58l1.84,2.75l1.84-2.75h0.58v5.04h-0.57v-4.08
	L358.58,179.18z"/>
<path class="st4" d="M365.6,175.51h0.47l1.38,4.21l1.44-4.2h0.6l-1.8,5.08h-0.48l-1.38-4.09l-1.39,4.09h-0.47l-1.8-5.08h0.62
	l1.44,4.2L365.6,175.51z"/>
<path class="st4" d="M202.4,83.11h-0.03l-1.84-2.69v4.08h-0.55v-5.04h0.58l1.84,2.75l1.84-2.75h0.58v5.04h-0.57v-4.08L202.4,83.11z"
	/>
<path class="st4" d="M211.06,84.49h-0.61l-0.59-1.33h-2.74l-0.6,1.33h-0.58l2.3-5.08h0.53L211.06,84.49z M208.49,80.08l-1.15,2.57
	h2.3L208.49,80.08z"/>
<path class="st4" d="M213.9,81.7c1.12,0.24,1.64,0.66,1.64,1.43c0,0.87-0.72,1.43-1.72,1.43c-0.8,0-1.46-0.27-2.06-0.81l0.35-0.42
	c0.53,0.48,1.03,0.71,1.73,0.71c0.68,0,1.12-0.35,1.12-0.86c0-0.48-0.25-0.74-1.31-0.96c-1.16-0.25-1.69-0.63-1.69-1.46
	c0-0.81,0.7-1.38,1.66-1.38c0.73,0,1.26,0.21,1.77,0.62l-0.33,0.44c-0.47-0.38-0.94-0.55-1.46-0.55c-0.66,0-1.07,0.36-1.07,0.82
	C212.53,81.2,212.79,81.46,213.9,81.7z"/>
<path class="st4" d="M218.64,84.49h-0.58v-4.52h-1.69v-0.53h3.96v0.53h-1.69V84.49z"/>
<path class="st4" d="M225.19,79.97h-3.08v1.72h2.75v0.52h-2.75v1.76h3.11v0.52h-3.68v-5.04h3.64V79.97z"/>
<path class="st4" d="M229.98,84.49l-1.46-1.96h-1.44v1.96h-0.57v-5.04h2.17c1.11,0,1.82,0.6,1.82,1.51c0,0.84-0.58,1.33-1.37,1.48
	l1.55,2.06H229.98z M228.64,79.98h-1.56v2.05h1.55c0.76,0,1.3-0.39,1.3-1.04C229.93,80.35,229.45,79.98,228.64,79.98z"/>
<path class="st4" d="M199.53,89.36c0,0.66-0.4,1-0.8,1.17c0.6,0.18,1.08,0.53,1.08,1.22c0,0.87-0.73,1.38-1.83,1.38h-2.24V88.1h2.15
	C198.89,88.1,199.53,88.59,199.53,89.36z M198.96,89.44c0-0.5-0.4-0.83-1.12-0.83h-1.53v1.74h1.49
	C198.48,90.35,198.96,90.04,198.96,89.44z M199.24,91.72c0-0.55-0.46-0.87-1.34-0.87h-1.59v1.78H198
	C198.76,92.63,199.24,92.29,199.24,91.72z"/>
<path class="st4" d="M204.74,88.62h-3.08v1.72h2.75v0.52h-2.75v1.76h3.11v0.52h-3.68V88.1h3.64V88.62z"/>
<path class="st4" d="M207.81,93.14h-1.75V88.1h1.75c1.58,0,2.68,1.09,2.68,2.51C210.49,92.04,209.39,93.14,207.81,93.14z
	 M207.81,88.62h-1.18v3.99h1.18c1.28,0,2.09-0.86,2.09-1.99S209.08,88.62,207.81,88.62z"/>
<path class="st4" d="M215.31,93.14l-1.46-1.96h-1.44v1.96h-0.57V88.1H214c1.11,0,1.82,0.6,1.82,1.51c0,0.84-0.58,1.33-1.37,1.48
	l1.55,2.06H215.31z M213.96,88.62h-1.56v2.05h1.55c0.76,0,1.3-0.39,1.3-1.04C215.25,89,214.77,88.62,213.96,88.62z"/>
<path class="st4" d="M219.53,93.23c-1.53,0-2.56-1.2-2.56-2.6c0-1.4,1.04-2.61,2.58-2.61s2.56,1.2,2.56,2.6
	C222.11,92.01,221.06,93.23,219.53,93.23z M219.53,88.54c-1.15,0-1.97,0.92-1.97,2.07s0.84,2.09,1.99,2.09s1.97-0.92,1.97-2.07
	S220.68,88.54,219.53,88.54z"/>
<path class="st4" d="M225.8,93.23c-1.53,0-2.56-1.2-2.56-2.6c0-1.4,1.04-2.61,2.58-2.61s2.56,1.2,2.56,2.6
	C228.38,92.01,227.33,93.23,225.8,93.23z M225.8,88.54c-1.15,0-1.97,0.92-1.97,2.07s0.84,2.09,1.99,2.09s1.97-0.92,1.97-2.07
	S226.95,88.54,225.8,88.54z"/>
<path class="st4" d="M232.14,91.76h-0.03l-1.84-2.69v4.08h-0.55V88.1h0.58l1.84,2.75l1.84-2.75h0.58v5.04h-0.57v-4.08L232.14,91.76z
	"/>
<path class="st4" d="M560.04,306.33c0,0.66-0.4,1-0.8,1.17c0.6,0.18,1.08,0.53,1.08,1.22c0,0.87-0.73,1.38-1.83,1.38h-2.24v-5.04
	h2.15C559.39,305.07,560.04,305.56,560.04,306.33z M559.47,306.41c0-0.5-0.4-0.83-1.12-0.83h-1.53v1.74h1.49
	C558.99,307.31,559.47,307,559.47,306.41z M559.75,308.69c0-0.55-0.46-0.87-1.34-0.87h-1.59v1.78h1.69
	C559.27,309.6,559.75,309.26,559.75,308.69z"/>
<path class="st4" d="M565.24,305.58h-3.08v1.72h2.75v0.52h-2.75v1.76h3.11v0.52h-3.68v-5.04h3.64V305.58z"/>
<path class="st4" d="M568.31,310.11h-1.75v-5.04h1.75c1.58,0,2.68,1.09,2.68,2.51C570.99,309.01,569.9,310.11,568.31,310.11z
	 M568.31,305.59h-1.18v3.99h1.18c1.28,0,2.09-0.86,2.09-1.99C570.4,306.47,569.59,305.59,568.31,305.59z"/>
<path class="st4" d="M575.81,310.11l-1.46-1.96h-1.44v1.96h-0.57v-5.04h2.17c1.11,0,1.82,0.6,1.82,1.5c0,0.84-0.58,1.33-1.37,1.48
	l1.55,2.06H575.81z M574.47,305.59h-1.56v2.04h1.55c0.76,0,1.3-0.39,1.3-1.04C575.76,305.97,575.28,305.59,574.47,305.59z"/>
<path class="st4" d="M580.04,310.19c-1.53,0-2.56-1.2-2.56-2.6s1.04-2.61,2.58-2.61s2.56,1.2,2.56,2.6
	C582.61,308.98,581.57,310.19,580.04,310.19z M580.04,305.51c-1.15,0-1.97,0.92-1.97,2.07s0.84,2.09,1.99,2.09s1.97-0.92,1.97-2.07
	S581.19,305.51,580.04,305.51z"/>
<path class="st4" d="M586.3,310.19c-1.53,0-2.56-1.2-2.56-2.6s1.04-2.61,2.58-2.61s2.56,1.2,2.56,2.6
	C588.88,308.98,587.84,310.19,586.3,310.19z M586.3,305.51c-1.15,0-1.97,0.92-1.97,2.07s0.84,2.09,1.99,2.09s1.97-0.92,1.97-2.07
	S587.46,305.51,586.3,305.51z"/>
<path class="st4" d="M592.65,308.73h-0.03l-1.84-2.69v4.08h-0.55v-5.04h0.58l1.84,2.75l1.84-2.75h0.58v5.04h-0.57v-4.08
	L592.65,308.73z"/>
<path class="st4" d="M487.26,147.54c0,0.66-0.4,1-0.8,1.17c0.6,0.18,1.08,0.53,1.08,1.22c0,0.87-0.73,1.38-1.83,1.38h-2.24v-5.04
	h2.15C486.61,146.28,487.26,146.77,487.26,147.54z M486.68,147.62c0-0.5-0.4-0.83-1.12-0.83h-1.53v1.74h1.49
	C486.21,148.53,486.68,148.22,486.68,147.62z M486.96,149.9c0-0.55-0.46-0.87-1.34-0.87h-1.59v1.78h1.69
	C486.49,150.81,486.96,150.47,486.96,149.9z"/>
<path class="st4" d="M493.51,151.32h-0.61l-0.59-1.33h-2.74l-0.6,1.33h-0.58l2.3-5.08h0.53L493.51,151.32z M490.94,146.91
	l-1.15,2.57h2.3L490.94,146.91z"/>
<path class="st4" d="M495.91,151.32h-0.58v-4.52h-1.69v-0.53h3.96v0.53h-1.69V151.32z"/>
<path class="st4" d="M499.39,149.05v2.27h-0.57v-5.04h0.57v2.24h2.91v-2.24h0.57v5.04h-0.57v-2.27H499.39z"/>
<path class="st4" d="M373.92,313.18h-0.71l-1.94-2.44l-1.07,1.09v1.35h-0.57v-5.04h0.57v3.01l2.89-3.01h0.74l-2.16,2.2
	L373.92,313.18z"/>
<path class="st4" d="M375.56,308.14v5.04H375v-5.04H375.56z"/>
<path class="st4" d="M379.09,313.18h-0.58v-4.52h-1.69v-0.53h3.96v0.53h-1.69V313.18z"/>
<path class="st4" d="M383.97,313.26c-1.46,0-2.53-1.15-2.53-2.6c0-1.44,1.07-2.61,2.55-2.61c0.92,0,1.46,0.32,1.97,0.8l-0.39,0.42
	c-0.42-0.4-0.9-0.69-1.58-0.69c-1.12,0-1.95,0.9-1.95,2.07s0.84,2.09,1.95,2.09c0.69,0,1.14-0.27,1.63-0.73l0.37,0.37
	C385.46,312.91,384.88,313.26,383.97,313.26z"/>
<path class="st4" d="M387.69,310.91v2.27h-0.57v-5.04h0.57v2.24h2.91v-2.24h0.57v5.04h-0.57v-2.27H387.69z"/>
<path class="st4" d="M396.38,308.65h-3.08v1.72h2.75v0.52h-2.75v1.76h3.11v0.52h-3.68v-5.04h3.64V308.65z"/>
<path class="st4" d="M401.41,308.14h0.55v5.04h-0.45l-3.25-4.13v4.13h-0.55v-5.04h0.53l3.18,4.04V308.14z"/>
<path class="st4" d="M402.98,62.23h-3.08v1.72h2.75v0.52h-2.75v1.76h3.11v0.52h-3.68v-5.04h3.64V62.23z"/>
<path class="st4" d="M408.01,61.71h0.55v5.04h-0.45l-3.25-4.13v4.13h-0.55v-5.04h0.53l3.18,4.04V61.71z"/>
<path class="st4" d="M411.94,63.96c1.12,0.24,1.64,0.66,1.64,1.43c0,0.87-0.72,1.43-1.72,1.43c-0.8,0-1.46-0.27-2.06-0.81l0.35-0.42
	c0.53,0.48,1.03,0.71,1.73,0.71c0.68,0,1.12-0.35,1.12-0.86c0-0.48-0.25-0.74-1.31-0.96c-1.16-0.25-1.69-0.63-1.69-1.46
	c0-0.81,0.7-1.38,1.66-1.38c0.73,0,1.26,0.21,1.77,0.62l-0.33,0.44c-0.47-0.38-0.94-0.55-1.46-0.55c-0.66,0-1.07,0.36-1.07,0.82
	C410.57,63.46,410.83,63.72,411.94,63.96z"/>
<path class="st4" d="M419,64.6c0,1.47-0.84,2.23-2.1,2.23c-1.25,0-2.1-0.76-2.1-2.19v-2.93h0.57v2.9c0,1.09,0.58,1.7,1.54,1.7
	c0.93,0,1.52-0.56,1.52-1.66v-2.93H419V64.6z"/>
<path class="st4" d="M421.11,61.71v5.04h-0.57v-5.04H421.11z"/>
<path class="st4" d="M424.64,66.76h-0.58v-4.52h-1.69v-0.53h3.96v0.53h-1.69V66.76z"/>
<path class="st4" d="M431.19,62.23h-3.08v1.72h2.75v0.52h-2.75v1.76h3.11v0.52h-3.68v-5.04h3.64V62.23z"/>
<path class="st4" d="M319.33,76.93h0.47l1.38,4.21l1.44-4.2h0.6l-1.8,5.08h-0.48l-1.38-4.09l-1.39,4.09h-0.47l-1.8-5.08h0.62
	l1.44,4.2L319.33,76.93z"/>
<path class="st4" d="M328.45,81.99h-0.61l-0.59-1.33h-2.74l-0.6,1.33h-0.58l2.3-5.08h0.53L328.45,81.99z M325.88,77.57l-1.15,2.57
	h2.3L325.88,77.57z"/>
<path class="st4" d="M329.58,76.95h0.57v4.52h2.84v0.53h-3.41V76.95z"/>
<path class="st4" d="M338.48,81.99h-0.71l-1.94-2.44l-1.07,1.09v1.35h-0.57v-5.04h0.57v3.01l2.9-3.01h0.73l-2.16,2.2L338.48,81.99z"
	/>
<path class="st4" d="M338.91,80.11v-0.58h2v0.58H338.91z"/>
<path class="st4" d="M342.86,76.95v5.04h-0.57v-5.04H342.86z"/>
<path class="st4" d="M348.19,76.95h0.55v5.04h-0.45l-3.25-4.13v4.13h-0.55v-5.04h0.53l3.18,4.04V76.95z"/>
<path class="st4" d="M320.32,90.72c-1.46,0-2.53-1.15-2.53-2.6c0-1.44,1.07-2.61,2.55-2.61c0.92,0,1.46,0.32,1.97,0.8l-0.39,0.42
	c-0.42-0.4-0.9-0.69-1.58-0.69c-1.12,0-1.95,0.9-1.95,2.07c0,1.17,0.84,2.09,1.95,2.09c0.69,0,1.15-0.27,1.63-0.73l0.37,0.37
	C321.81,90.37,321.24,90.72,320.32,90.72z"/>
<path class="st4" d="M323.48,85.59h0.57v4.52h2.84v0.53h-3.41V85.59z"/>
<path class="st4" d="M330.14,90.72c-1.53,0-2.56-1.2-2.56-2.6c0-1.4,1.04-2.61,2.58-2.61s2.56,1.2,2.56,2.6
	C332.72,89.5,331.68,90.72,330.14,90.72z M330.14,86.03c-1.15,0-1.97,0.92-1.97,2.07s0.84,2.09,1.99,2.09s1.97-0.92,1.97-2.07
	S331.29,86.03,330.14,86.03z"/>
<path class="st4" d="M335.84,87.84c1.12,0.24,1.64,0.66,1.64,1.43c0,0.87-0.72,1.43-1.72,1.43c-0.8,0-1.46-0.27-2.06-0.81l0.35-0.42
	c0.53,0.48,1.03,0.71,1.73,0.71c0.68,0,1.12-0.35,1.12-0.86c0-0.48-0.25-0.74-1.31-0.96c-1.16-0.25-1.69-0.63-1.69-1.46
	c0-0.81,0.7-1.38,1.66-1.38c0.73,0,1.26,0.21,1.77,0.62L337,86.58c-0.47-0.38-0.94-0.55-1.46-0.55c-0.66,0-1.07,0.36-1.07,0.82
	C334.47,87.33,334.73,87.6,335.84,87.84z"/>
<path class="st4" d="M342.43,86.11h-3.08v1.72h2.75v0.52h-2.75v1.76h3.11v0.52h-3.68v-5.04h3.64V86.11z"/>
<path class="st4" d="M345.66,90.63h-0.58v-4.52h-1.69v-0.53h3.96v0.53h-1.69V90.63z"/>
<path class="st4" d="M49.11,247.86c0,0.66-0.4,1-0.8,1.17c0.6,0.18,1.08,0.53,1.08,1.22c0,0.87-0.73,1.38-1.83,1.38h-2.24v-5.04
	h2.15C48.47,246.6,49.11,247.09,49.11,247.86z M48.54,247.94c0-0.5-0.4-0.83-1.12-0.83h-1.53v1.74h1.49
	C48.06,248.84,48.54,248.53,48.54,247.94z M48.82,250.22c0-0.55-0.46-0.87-1.34-0.87h-1.59v1.78h1.69
	C48.34,251.13,48.82,250.79,48.82,250.22z"/>
<path class="st4" d="M55.37,251.64h-0.61l-0.59-1.33h-2.74l-0.6,1.33h-0.58l2.3-5.08h0.53L55.37,251.64z M52.8,247.22l-1.15,2.57
	h2.3L52.8,247.22z"/>
<path class="st4" d="M56.51,246.6h0.57v4.52h2.84v0.53h-3.41V246.6z"/>
<path class="st4" d="M63.14,251.73c-1.46,0-2.53-1.15-2.53-2.6c0-1.44,1.07-2.61,2.55-2.61c0.92,0,1.46,0.32,1.97,0.8l-0.39,0.42
	c-0.42-0.4-0.9-0.69-1.58-0.69c-1.12,0-1.95,0.9-1.95,2.07s0.84,2.09,1.95,2.09c0.69,0,1.15-0.27,1.63-0.73l0.37,0.37
	C64.63,251.37,64.05,251.73,63.14,251.73z"/>
<path class="st4" d="M68.49,251.73c-1.53,0-2.56-1.2-2.56-2.6s1.04-2.61,2.58-2.61s2.56,1.2,2.56,2.6
	C71.07,250.51,70.02,251.73,68.49,251.73z M68.49,247.04c-1.15,0-1.97,0.92-1.97,2.07s0.84,2.09,1.99,2.09s1.97-0.92,1.97-2.07
	S69.64,247.04,68.49,247.04z"/>
<path class="st4" d="M76.13,246.6h0.55v5.04h-0.45l-3.25-4.13v4.13h-0.55v-5.04h0.53l3.18,4.04V246.6z"/>
<path class="st4" d="M80.41,251.64h-0.58v-2l-2.1-3.05h0.69l1.7,2.52l1.71-2.52h0.66l-2.1,3.04V251.64z"/>
<path class="st4" d="M603.58,1.6h-3.08v1.72h2.75v0.52h-2.75v1.76h3.11v0.52h-3.68V1.08h3.64V1.6z"/>
<path class="st4" d="M608.61,1.08h0.55v5.04h-0.45l-3.26-4.13v4.13h-0.55V1.08h0.53l3.18,4.04V1.08z"/>
<path class="st4" d="M612.65,6.12h-0.58V1.61h-1.69V1.08h3.96v0.53h-1.69V6.12z"/>
<path class="st4" d="M619.02,6.12l-1.46-1.96h-1.44v1.96h-0.57V1.08h2.17c1.11,0,1.82,0.6,1.82,1.51c0,0.84-0.58,1.33-1.37,1.48
	l1.55,2.06H619.02z M617.67,1.61h-1.56v2.05h1.55c0.76,0,1.3-0.39,1.3-1.04C618.96,1.98,618.48,1.61,617.67,1.61z"/>
<path class="st4" d="M622.88,6.12h-0.58v-2l-2.1-3.05h0.69l1.7,2.52l1.71-2.52h0.66l-2.1,3.04V6.12z"/>
<path class="st4" d="M342.2,264.39h-1.75v-5.04h1.75c1.58,0,2.68,1.09,2.68,2.51C344.88,263.29,343.79,264.39,342.2,264.39z
	 M342.2,259.88h-1.18v3.99h1.18c1.28,0,2.09-0.86,2.09-1.99C344.29,260.75,343.48,259.88,342.2,259.88z"/>
<path class="st4" d="M346.85,259.35v5.04h-0.57v-5.04H346.85z"/>
<path class="st4" d="M352.18,259.35h0.55v5.04h-0.45l-3.25-4.13v4.13h-0.55v-5.04h0.53l3.18,4.04V259.35z"/>
<path class="st4" d="M354.92,259.35v5.04h-0.57v-5.04H354.92z"/>
<path class="st4" d="M360.25,259.35h0.55v5.04h-0.45l-3.25-4.13v4.13h-0.55v-5.04h0.53l3.18,4.04V259.35z"/>
<path class="st4" d="M364.71,264.48c-1.58,0-2.56-1.15-2.56-2.6c0-1.39,1.01-2.61,2.53-2.61c0.85,0,1.38,0.25,1.88,0.67l-0.37,0.43
	c-0.39-0.34-0.82-0.58-1.53-0.58c-1.12,0-1.92,0.94-1.92,2.07c0,1.21,0.77,2.1,2,2.1c0.58,0,1.11-0.22,1.46-0.5v-1.25h-1.53v-0.51
	h2.08v2.01C366.27,264.12,365.56,264.48,364.71,264.48z"/>
<path class="st4" d="M207.65,278.95h0.57v4.52h2.84v0.53h-3.41V278.95z"/>
<path class="st4" d="M212.87,278.95v5.04h-0.57v-5.04H212.87z"/>
<path class="st4" d="M218.29,278.95h0.61l-2.17,5.08h-0.5l-2.17-5.08h0.63l1.79,4.34L218.29,278.95z"/>
<path class="st4" d="M220.66,278.95v5.04h-0.57v-5.04H220.66z"/>
<path class="st4" d="M225.99,278.95h0.55v5.04h-0.45l-3.25-4.13v4.13h-0.55v-5.04h0.53l3.18,4.04V278.95z"/>
<path class="st4" d="M230.45,284.08c-1.58,0-2.56-1.15-2.56-2.6c0-1.39,1.01-2.61,2.53-2.61c0.85,0,1.38,0.25,1.88,0.67l-0.37,0.43
	c-0.39-0.34-0.82-0.58-1.53-0.58c-1.12,0-1.92,0.94-1.92,2.07c0,1.21,0.77,2.1,2,2.1c0.58,0,1.11-0.22,1.46-0.5v-1.25h-1.53v-0.51
	h2.08v2.01C232.01,283.72,231.3,284.08,230.45,284.08z"/>
<path class="st4" d="M249.11,113.5h-0.71l-1.94-2.44l-1.07,1.09v1.35h-0.57v-5.04h0.57v3.01l2.89-3.01h0.74l-2.16,2.2L249.11,113.5z
	"/>
</svg>
