<?xml version="1.0" encoding="utf-8"?>
<!-- Generator: Adobe Illustrator 25.2.0, SVG Export Plug-In . SVG Version: 6.00 Build 0)  -->
<svg version="1.1" id="Layer_1" xmlns="http://www.w3.org/2000/svg" xmlns:xlink="http://www.w3.org/1999/xlink" x="0px" y="0px"
	 viewBox="0 0 267.4 320.9" style="enable-background:new 0 0 267.4 320.9;" xml:space="preserve">
<style type="text/css">
	.st0{fill:none;stroke:#92A0B1;stroke-width:0.24;stroke-linejoin:round;stroke-miterlimit:10;}
	.st1{fill:none;stroke:#00516B;stroke-width:0.25;stroke-linecap:round;stroke-linejoin:round;stroke-miterlimit:10;}
	.st2{fill:none;stroke:#00516B;stroke-width:0.25;stroke-linecap:round;stroke-linejoin:round;stroke-miterlimit:9.9998;}

		.st3{fill:none;stroke:#00516B;stroke-width:0.25;stroke-linecap:round;stroke-linejoin:round;stroke-miterlimit:10;stroke-dasharray:2,1;}
	.st4{fill-rule:evenodd;clip-rule:evenodd;fill:#00516B;}
	.st5{fill:#00516B;}
	.st6{fill:#245169;}
</style>
<g>
	<g>
		<g>
			<line class="st0" x1="10.9" y1="200.4" x2="10.9" y2="198.8"/>
			<line class="st0" x1="10.9" y1="114" x2="10.9" y2="106"/>
			<line class="st0" x1="10.9" y1="147.5" x2="10.9" y2="117.7"/>
			<line class="st0" x1="16.9" y1="200.4" x2="16.9" y2="198.8"/>
			<line class="st0" x1="16.9" y1="117.7" x2="16.9" y2="106"/>
			<line class="st0" x1="16.9" y1="147.5" x2="16.9" y2="136.9"/>
			<line class="st0" x1="22.9" y1="200.4" x2="22.9" y2="198.8"/>
			<line class="st0" x1="22.9" y1="147.5" x2="22.9" y2="106"/>
			<line class="st0" x1="28.9" y1="200.4" x2="28.9" y2="180.2"/>
			<line class="st0" x1="28.9" y1="166.1" x2="28.9" y2="106"/>
			<line class="st0" x1="34.9" y1="200.4" x2="34.9" y2="180.2"/>
			<line class="st0" x1="34.9" y1="166.1" x2="34.9" y2="106"/>
			<line class="st0" x1="40.9" y1="200.4" x2="40.9" y2="106"/>
			<line class="st0" x1="46.9" y1="200.4" x2="46.9" y2="106"/>
			<line class="st0" x1="53" y1="200.4" x2="53" y2="106"/>
			<line class="st0" x1="59" y1="200.4" x2="59" y2="117.7"/>
			<line class="st0" x1="59" y1="114" x2="59" y2="106"/>
			<line class="st0" x1="65" y1="200.4" x2="65" y2="117.7"/>
			<line class="st0" x1="71" y1="200.4" x2="71" y2="60.2"/>
			<line class="st0" x1="71" y1="58.6" x2="71" y2="53.5"/>
			<line class="st0" x1="77" y1="200.4" x2="77" y2="186.3"/>
			<line class="st0" x1="77" y1="54.3" x2="77" y2="48.8"/>
			<line class="st0" x1="77" y1="178.8" x2="77" y2="63.7"/>
			<line class="st0" x1="77" y1="62" x2="77" y2="55.9"/>
			<line class="st0" x1="83" y1="200.4" x2="83" y2="192.2"/>
			<line class="st0" x1="83" y1="57.7" x2="83" y2="48.8"/>
			<line class="st0" x1="83" y1="172.8" x2="83" y2="67.1"/>
			<line class="st0" x1="83" y1="65.5" x2="83" y2="59.4"/>
			<line class="st0" x1="89" y1="200.4" x2="89" y2="194.5"/>
			<line class="st0" x1="89" y1="61.2" x2="89" y2="48.8"/>
			<line class="st0" x1="89" y1="166.8" x2="89" y2="70.6"/>
			<line class="st0" x1="89" y1="69" x2="89" y2="62.8"/>
			<line class="st0" x1="95.1" y1="200.4" x2="95.1" y2="193.6"/>
			<line class="st0" x1="95.1" y1="170.4" x2="95.1" y2="48.8"/>
			<line class="st0" x1="101.1" y1="200.4" x2="101.1" y2="187.8"/>
			<line class="st0" x1="101.1" y1="177.3" x2="101.1" y2="53.5"/>
			<line class="st0" x1="107.1" y1="200.4" x2="107.1" y2="53.5"/>
			<line class="st0" x1="113.1" y1="200.4" x2="113.1" y2="139.7"/>
			<line class="st0" x1="113.1" y1="55.1" x2="113.1" y2="53.5"/>
			<line class="st0" x1="113.1" y1="137.4" x2="113.1" y2="80.8"/>
			<line class="st0" x1="119.1" y1="200.4" x2="119.1" y2="149"/>
			<line class="st0" x1="119.1" y1="55.1" x2="119.1" y2="53.5"/>
			<line class="st0" x1="119.1" y1="124.5" x2="119.1" y2="80.8"/>
			<line class="st0" x1="125.1" y1="194.2" x2="125.1" y2="150.6"/>
			<line class="st0" x1="125.1" y1="55.1" x2="125.1" y2="53.5"/>
			<line class="st0" x1="125.1" y1="126.1" x2="125.1" y2="80.8"/>
			<line class="st0" x1="131.2" y1="194.2" x2="131.2" y2="148.9"/>
			<line class="st0" x1="131.2" y1="55.1" x2="131.2" y2="53.5"/>
			<line class="st0" x1="131.2" y1="127.7" x2="131.2" y2="80.8"/>
			<line class="st0" x1="137.2" y1="194.2" x2="137.2" y2="139.9"/>
			<line class="st0" x1="137.2" y1="55.1" x2="137.2" y2="53.5"/>
			<line class="st0" x1="137.2" y1="129.3" x2="137.2" y2="112.8"/>
			<line class="st0" x1="137.2" y1="95.2" x2="137.2" y2="80.8"/>
			<line class="st0" x1="143.2" y1="184.6" x2="143.2" y2="112.8"/>
			<line class="st0" x1="143.2" y1="55.1" x2="143.2" y2="53.5"/>
			<line class="st0" x1="143.2" y1="95.2" x2="143.2" y2="80.8"/>
			<line class="st0" x1="149.2" y1="184.6" x2="149.2" y2="112.8"/>
			<line class="st0" x1="149.2" y1="55.1" x2="149.2" y2="53.5"/>
			<line class="st0" x1="149.2" y1="95.2" x2="149.2" y2="80.8"/>
			<line class="st0" x1="155.2" y1="184.6" x2="155.2" y2="135.9"/>
			<line class="st0" x1="155.2" y1="44.1" x2="155.2" y2="15.3"/>
			<line class="st0" x1="155.2" y1="129.6" x2="155.2" y2="112.8"/>
			<line class="st0" x1="155.2" y1="55.1" x2="155.2" y2="53.5"/>
			<line class="st0" x1="155.2" y1="95.2" x2="155.2" y2="80.8"/>
			<line class="st0" x1="161.2" y1="184.6" x2="161.2" y2="148.2"/>
			<line class="st0" x1="161.2" y1="44.1" x2="161.2" y2="15.3"/>
			<line class="st0" x1="161.2" y1="128" x2="161.2" y2="80.8"/>
			<line class="st0" x1="161.2" y1="55.1" x2="161.2" y2="53.5"/>
			<line class="st0" x1="167.2" y1="184.6" x2="167.2" y2="150.5"/>
			<line class="st0" x1="167.2" y1="44.1" x2="167.2" y2="15.3"/>
			<line class="st0" x1="167.2" y1="126.4" x2="167.2" y2="80.8"/>
			<line class="st0" x1="167.2" y1="55.1" x2="167.2" y2="53.5"/>
			<line class="st0" x1="173.3" y1="184.6" x2="173.3" y2="149.6"/>
			<line class="st0" x1="173.3" y1="44.1" x2="173.3" y2="15.3"/>
			<line class="st0" x1="173.3" y1="124.8" x2="173.3" y2="80.8"/>
			<line class="st0" x1="173.3" y1="55.1" x2="173.3" y2="53.5"/>
			<line class="st0" x1="179.3" y1="184.6" x2="179.3" y2="143.7"/>
			<line class="st0" x1="179.3" y1="44.1" x2="179.3" y2="15.3"/>
			<line class="st0" x1="179.3" y1="132.7" x2="179.3" y2="80.8"/>
			<line class="st0" x1="179.3" y1="55.1" x2="179.3" y2="53.5"/>
			<line class="st0" x1="185.3" y1="194.2" x2="185.3" y2="79.2"/>
			<line class="st0" x1="185.3" y1="44.1" x2="185.3" y2="15.3"/>
			<line class="st0" x1="185.3" y1="56.7" x2="185.3" y2="53.5"/>
			<line class="st0" x1="191.3" y1="194.2" x2="191.3" y2="79.2"/>
			<line class="st0" x1="191.3" y1="44.1" x2="191.3" y2="15.3"/>
			<line class="st0" x1="191.3" y1="56.7" x2="191.3" y2="53.5"/>
			<line class="st0" x1="197.3" y1="194.2" x2="197.3" y2="79.2"/>
			<line class="st0" x1="197.3" y1="42.7" x2="197.3" y2="17.1"/>
			<line class="st0" x1="197.3" y1="56.7" x2="197.3" y2="53.5"/>
			<line class="st0" x1="203.3" y1="181.6" x2="203.3" y2="53.5"/>
			<line class="st0" x1="203.3" y1="17.1" x2="203.3" y2="15.3"/>
			<line class="st0" x1="203.3" y1="44.1" x2="203.3" y2="18.5"/>
			<line class="st0" x1="209.3" y1="181.6" x2="209.3" y2="53.5"/>
			<line class="st0" x1="209.3" y1="17.1" x2="209.3" y2="15.3"/>
			<line class="st0" x1="209.3" y1="44.1" x2="209.3" y2="18.5"/>
			<line class="st0" x1="215.4" y1="181.6" x2="215.4" y2="141.3"/>
			<line class="st0" x1="215.4" y1="17.1" x2="215.4" y2="15.3"/>
			<line class="st0" x1="215.4" y1="108.7" x2="215.4" y2="81.5"/>
			<line class="st0" x1="215.4" y1="44.1" x2="215.4" y2="18.5"/>
			<line class="st0" x1="221.4" y1="181.6" x2="221.4" y2="141.3"/>
			<line class="st0" x1="221.4" y1="17.1" x2="221.4" y2="15.3"/>
			<line class="st0" x1="221.4" y1="108.7" x2="221.4" y2="81.5"/>
			<line class="st0" x1="221.4" y1="44.1" x2="221.4" y2="18.5"/>
			<line class="st0" x1="227.4" y1="181.6" x2="227.4" y2="141.3"/>
			<line class="st0" x1="227.4" y1="53.2" x2="227.4" y2="11.4"/>
			<line class="st0" x1="227.4" y1="123.3" x2="227.4" y2="112"/>
			<line class="st0" x1="227.4" y1="104.1" x2="227.4" y2="73"/>
			<line class="st0" x1="227.4" y1="110.4" x2="227.4" y2="105.7"/>
			<line class="st0" x1="233.4" y1="181.6" x2="233.4" y2="141.3"/>
			<line class="st0" x1="233.4" y1="53.2" x2="233.4" y2="11.4"/>
			<line class="st0" x1="233.4" y1="123.3" x2="233.4" y2="108.5"/>
			<line class="st0" x1="233.4" y1="100.6" x2="233.4" y2="73"/>
			<line class="st0" x1="233.4" y1="106.9" x2="233.4" y2="102.2"/>
			<line class="st0" x1="239.4" y1="181.6" x2="239.4" y2="141.3"/>
			<line class="st0" x1="239.4" y1="53.2" x2="239.4" y2="11.4"/>
			<line class="st0" x1="239.4" y1="123.3" x2="239.4" y2="98.8"/>
			<line class="st0" x1="239.4" y1="97.1" x2="239.4" y2="73"/>
			<line class="st0" x1="245.4" y1="181.6" x2="245.4" y2="141.3"/>
			<line class="st0" x1="245.4" y1="53.2" x2="245.4" y2="11.4"/>
			<line class="st0" x1="245.4" y1="123.3" x2="245.4" y2="108.1"/>
			<line class="st0" x1="245.4" y1="94.5" x2="245.4" y2="73"/>
			<line class="st0" x1="245.4" y1="106.4" x2="245.4" y2="95.3"/>
			<line class="st0" x1="251.4" y1="181.6" x2="251.4" y2="141.3"/>
			<line class="st0" x1="251.4" y1="53.2" x2="251.4" y2="11.4"/>
			<line class="st0" x1="251.4" y1="123.3" x2="251.4" y2="111.5"/>
			<line class="st0" x1="251.4" y1="109.9" x2="251.4" y2="73"/>
			<polygon class="st0" points="215.4,53.5 97,53.5 97,48.8 73,48.8 73,53.5 73.7,52.3 94.5,64.4 93.8,65.6 73,53.5 67.8,53.5
				67.8,56.7 91.5,70.4 90.8,71.6 67.1,58 67.8,56.7 66,56.7 66,84 67.8,84 67.8,117.7 53.6,117.7 53.6,136.9 55,136.9 55,114
				64.1,114 64.1,106 7.4,106 7.4,114 16.5,114 16.5,136.9 17.9,136.9 17.9,117.7 7.4,117.7 7.4,200.4 121.2,200.4 121.2,194.2
				137.3,194.2 137.3,184.6 182.2,184.6 182.2,194.2 198.2,194.2 198.2,181.6 257.5,181.6 257.5,141.3 215.4,141.3 215.4,108.7
				222.2,108.7 221.5,107.5 245.1,93.9 245.8,95.1 222.2,108.7 222.2,111.5 225.4,111.5 237.9,104.3 238.6,105.5 226.1,112.7
				225.4,111.5 225.4,115.2 222.2,115.2 222.2,123.3 257.5,123.3 257.5,115.2 254.3,115.2 254.3,111.5 253.6,112.7 241.1,105.5
				241.8,104.3 254.3,111.5 257.5,111.5 257.5,73 225.2,73 225.2,74.6 224,74.6 224,73 222.2,73 222.2,53.2 224,53.2 224,51.8
				225.2,51.8 225.2,53.2 257.5,53.2 257.5,15.3 255,15.3 255,11.4 253.4,11.4 253.4,38.7 252,38.7 252,11.4 224.5,11.4 224.5,15.3
				197.5,15.3 197.5,18.5 223.1,18.5 223.1,17.1 193.8,17.1 193.8,15.3 155.1,15.3 155.1,44.1 193.8,44.1 193.8,42.7 197.5,42.7
				197.5,44.1 222.2,44.1 222.2,81.5 215.4,81.5 			"/>
			<g>
				<path class="st0" d="M81.8,191.1l-8.5-8.5l17-17l8.5,8.5c4.7,4.7,4.7,12.3,0,17C94.1,195.8,86.5,195.8,81.8,191.1z"/>
				<polygon class="st0" points="9.1,198.8 9.1,147.5 28.3,147.5 28.3,166.1 35.5,166.1 35.5,165.3 36.7,165.3 36.7,181 35.5,181
					35.5,180.2 28.3,180.2 28.3,198.8 				"/>
				<rect x="113.1" y="55.1" class="st0" width="67.4" height="25.7"/>
				<rect x="133.1" y="95.2" class="st0" width="27.2" height="17.6"/>
				<rect x="182" y="56.7" class="st0" width="16.1" height="22.5"/>
				<path class="st0" d="M113.5,135.4l3.1-11.6l23.2,6.2l-3.1,11.6c-1.7,6.4-8.3,10.2-14.7,8.5C115.6,148.5,111.7,141.9,113.5,135.4
					z"/>
				<path class="st0" d="M180,135.4l-3.1-11.6l-23.2,6.2l3.1,11.6c1.7,6.4,8.3,10.2,14.7,8.5C177.9,148.5,181.7,141.9,180,135.4z"/>
				<path class="st1" d="M239.8,54.5c0.8,0,1.4-0.6,1.4-1.4s-0.6-1.4-1.4-1.4s-1.4,0.6-1.4,1.4C238.5,53.9,239.1,54.5,239.8,54.5
					v-1.4V73l1.2-3.4h-1.2"/>
				<path class="st1" d="M153.5,29.7c0-0.9,0.7-1.6,1.6-1.6c0.9,0,1.6,0.7,1.6,1.6c0,0.9-0.7,1.6-1.6,1.6S153.5,30.6,153.5,29.7h1.6
					h-26.5l4-1.5v1.5"/>
				<polygon class="st1" points="13,241 0.1,241 0.1,5.6 224.5,5.6 224.5,7.4 226.1,7.4 226.1,11.4 224.5,11.4 224.5,15.3
					197.5,15.3 197.5,17.1 193.8,17.1 193.8,15.3 71,15.3 71,44.1 73,44.1 73,53.5 67.8,53.5 67.8,56.7 64.1,56.7 64.1,17.3
					7.4,17.3 7.4,91 64.1,91 64.1,84 67.8,84 67.8,117.7 55,117.7 55,114 64.1,114 64.1,94.7 7.4,94.7 7.4,114 16.5,114 16.5,117.7
					7.4,117.7 7.4,200.4 13.8,200.4 13.8,204.9 13,204.9 				"/>
				<polygon class="st1" points="77.9,200.4 77.9,204.9 78.7,204.9 78.7,208.5 206.3,208.5 206.3,186.1 207.1,186.1 207.1,181.6
					198.2,181.6 198.2,194.2 121.2,194.2 121.2,200.4 				"/>
				<rect x="221.6" y="181.6" class="st1" width="4.8" height="9.4"/>
				<polygon class="st1" points="255.3,181.6 255.3,191 260,191 260,241 267.3,241 267.3,5.6 255,5.6 255,7.4 253.4,7.4 253.4,11.4
					255,11.4 255,15.3 257.5,15.3 257.5,111.5 254.3,111.5 254.3,115.2 257.5,115.2 257.5,134.5 222.2,134.5 222.2,115.2
					225.4,115.2 225.4,111.5 222.2,111.5 222.2,108.7 215.4,108.7 215.4,141.3 257.5,141.3 257.5,181.6 				"/>
				<polygon class="st1" points="97,44.1 97,53.5 215.4,53.5 215.4,81.5 222.2,81.5 222.2,44.1 197.5,44.1 197.5,42.7 193.8,42.7
					193.8,44.1 				"/>
				<polygon class="st1" points="199.9,292.7 199.9,285 0.1,258.4 0.1,251.9 206.3,279.4 206.3,292.7 				"/>
				<polygon class="st1" points="266.4,292.7 260,292.7 260,241 266.4,241 				"/>
				<line class="st1" x1="257.5" y1="123.3" x2="222.2" y2="123.3"/>
				<line class="st1" x1="7.4" y1="106" x2="64.1" y2="106"/>
				<line class="st1" x1="17.4" y1="77" x2="13.6" y2="77"/>
				<path class="st1" d="M17.4,77c0.2,0,0.3-0.1,0.3-0.3"/>
				<path class="st1" d="M17.7,76.3c0-0.2-0.1-0.3-0.3-0.3"/>
				<line class="st1" x1="17.7" y1="76.7" x2="17.7" y2="76.3"/>
				<path class="st1" d="M13.5,76.1c0.1,0.1,0.2,0.1,0.3,0.1"/>
				<path class="st1" d="M13.9,76.8c-0.1,0-0.2,0-0.3,0.1"/>
				<line class="st1" x1="15.6" y1="76.8" x2="13.9" y2="76.8"/>
				<line class="st1" x1="13.9" y1="76.2" x2="15.6" y2="76.2"/>
				<path class="st1" d="M15.8,76.4c0-0.1-0.1-0.2-0.2-0.2"/>
				<line class="st1" x1="15.8" y1="76.6" x2="15.8" y2="76.4"/>
				<path class="st1" d="M13.3,75.9c0.1,0,0.2,0.1,0.3,0.1"/>
				<path class="st1" d="M13.6,77c-0.1,0-0.2,0-0.3,0.1"/>
				<line class="st1" x1="13.6" y1="76" x2="17.4" y2="76"/>
				<path class="st1" d="M13.6,76c-0.3-0.3-0.8-0.3-1.1,0c-0.3,0.3-0.3,0.8,0,1.1s0.8,0.3,1.1,0c0,0,0,0,0,0"/>
				<path class="st1" d="M13.5,76.1c-0.2-0.3-0.6-0.3-0.9,0s-0.3,0.6-0.1,0.9c0.2,0.3,0.6,0.3,0.9,0c0,0,0,0,0.1,0"/>
				<path class="st1" d="M15.6,76.8c0.1,0,0.2-0.1,0.2-0.2"/>
				<line class="st1" x1="25.1" y1="68.5" x2="26.6" y2="68.5"/>
				<line class="st1" x1="26.6" y1="84.5" x2="25.1" y2="84.5"/>
				<path class="st1" d="M26,82.5c0.3,0,0.6-0.2,0.6-0.6c0,0,0,0,0,0"/>
				<path class="st1" d="M17.9,81.1c2.6,0.8,5.3,1.3,8.1,1.4"/>
				<path class="st1" d="M17.9,71.9c-1.9,0.6-3.2,2.2-3.4,4.1"/>
				<path class="st1" d="M14.5,77c0.2,1.9,1.5,3.5,3.4,4.1"/>
				<path class="st1" d="M26,70.5c-2.7,0.1-5.5,0.6-8.1,1.4"/>
				<path class="st1" d="M26.6,71.1c0-0.3-0.3-0.6-0.6-0.6h0"/>
				<line class="st1" x1="26.6" y1="71.1" x2="26.6" y2="81.9"/>
				<path class="st1" d="M7.4,84.5h19.1c1.3,0,2.4-1.1,2.4-2.4V70.9c0-1.3-1.1-2.4-2.4-2.4H7.4V84.5z"/>
				<path class="st1" d="M16,75.7c-0.2,0-0.5,0.1-0.6,0.3"/>
				<path class="st1" d="M15.4,77c0.1,0.2,0.4,0.3,0.6,0.3"/>
				<path class="st1" d="M16,77.3c0.2,0,0.5-0.1,0.6-0.3"/>
				<path class="st1" d="M16.6,76c-0.1-0.2-0.4-0.3-0.6-0.3"/>
				<path class="st1" d="M25.4,82c0.2,0,0.4-0.2,0.4-0.4"/>
				<path class="st1" d="M19.1,81.5c2.1,0.5,4.2,0.6,6.3,0.5"/>
				<path class="st1" d="M17.9,71.9c-0.1,0-0.3,0.1-0.4,0.1"/>
				<path class="st1" d="M17.5,81c0.1,0,0.3,0.1,0.4,0.1"/>
				<path class="st1" d="M25.4,71c-2.1-0.1-4.2,0.1-6.3,0.5"/>
				<path class="st1" d="M25.8,71.4c0-0.2-0.2-0.4-0.4-0.4"/>
				<line class="st1" x1="25.8" y1="81.6" x2="25.8" y2="71.4"/>
				<path class="st1" d="M19.3,35.8c1,0.3,2.1,0.5,3.2,0.5"/>
				<path class="st1" d="M16.8,34.6c0.8,0.6,1.6,1,2.5,1.2"/>
				<path class="st1" d="M16.1,33.9c0.2,0.2,0.5,0.4,0.8,0.6"/>
				<path class="st1" d="M22.5,36.3c1.1,0,2.1-0.1,3.2-0.5c0.9-0.3,1.7-0.7,2.5-1.2c0.7-0.5,1.3-1.2,1.8-2c0.4-0.6,0.6-1.4,0.6-2.1
					S30.3,29,30,28.4c-0.5-0.8-1.1-1.4-1.8-2c-0.8-0.6-1.6-1-2.5-1.2c-1-0.3-2.1-0.5-3.2-0.5s-2.1,0.2-3.2,0.5
					c-0.9,0.3-1.7,0.7-2.5,1.2c-0.3,0.2-0.5,0.4-0.8,0.6v6.9"/>
				<path class="st1" d="M12.4,35c2.6,0.1,5.1,0.5,7.6,1"/>
				<path class="st1" d="M13.3,28.3c-0.1-0.6-0.3-1.1-0.5-1.7c-0.3-0.6-0.7-1.2-1.3-1.6c-0.2-0.1-0.5-0.2-0.7-0.2l-2.4,0.4
					c-0.2,0-0.3,0.2-0.3,0.3v9.7c0,0.2,0.1,0.3,0.3,0.3l2.4,0.5c0.3,0,0.5,0,0.7-0.2c0.6-0.4,1-0.9,1.3-1.6c0.2-0.5,0.4-1.1,0.5-1.7
					c0.1-0.7,0.2-1.5,0.2-2.2S13.5,29,13.3,28.3z"/>
				<path class="st1" d="M12.4,26c2.6-0.1,5.1-0.5,7.6-1"/>
				<path class="st1" d="M10.4,30.5c0-0.3,0.3-0.6,0.6-0.6s0.6,0.3,0.6,0.6s-0.3,0.6-0.6,0.6S10.4,30.8,10.4,30.5z"/>
				<rect x="137.3" y="184.6" class="st1" width="44.9" height="9.6"/>
				<rect x="9.1" y="147.5" class="st1" width="19.2" height="51.3"/>
				<rect x="14.2" y="163.5" class="st1" width="1.2" height="19.2"/>
				<rect x="21.2" y="165" class="st1" width="4.8" height="16"/>
				<polyline class="st1" points="14.2,170.1 12.4,170.1 12.4,176.1 14.2,176.1 				"/>
				<line class="st1" x1="35.5" y1="166.1" x2="28.3" y2="166.1"/>
				<polyline class="st1" points="15.4,176.1 17.2,176.1 17.2,170.1 15.4,170.1 				"/>
				<line class="st1" x1="35.5" y1="180.2" x2="28.3" y2="180.2"/>
				<rect x="35.5" y="165.3" class="st1" width="1.2" height="15.6"/>
				<path class="st1" d="M22.6,161c-0.4,0.1-0.6,0.5-0.5,0.8c0.1,0.4,0.5,0.5,0.8,0.5c0.6-0.2,1.2-0.2,1.8-0.3
					c0.3,0,0.5-0.3,0.5-0.5c0-0.2-0.1-0.4-0.4-0.5C24.2,160.7,23.4,160.8,22.6,161z"/>
				<rect x="133.1" y="95.2" class="st1" width="27.2" height="17.6"/>
				<path class="st1" d="M183.6,64.8c0-3.5,2.9-6.4,6.4-6.4s6.4,2.9,6.4,6.4c0,3.5-2.9,6.4-6.4,6.4S183.6,68.3,183.6,64.8z"/>
				<path class="st1" d="M188.4,64.8c0-0.9,0.7-1.6,1.6-1.6c0.9,0,1.6,0.7,1.6,1.6s-0.7,1.6-1.6,1.6
					C189.1,66.4,188.4,65.7,188.4,64.8z"/>
				<line class="st1" x1="196.5" y1="64.8" x2="191.7" y2="64.8"/>
				<line class="st1" x1="188.4" y1="64.8" x2="183.6" y2="64.8"/>
				<line class="st1" x1="190.1" y1="71.2" x2="190.1" y2="66.4"/>
				<line class="st1" x1="190.1" y1="63.1" x2="190.1" y2="58.4"/>
				<rect x="182" y="56.7" class="st1" width="16.1" height="22.5"/>
				<line class="st1" x1="180.4" y1="55.1" x2="113.1" y2="55.1"/>
				<line class="st1" x1="113.1" y1="80.8" x2="113.1" y2="55.1"/>
				<line class="st1" x1="180.4" y1="80.8" x2="180.4" y2="55.1"/>
				<line class="st1" x1="177.2" y1="80.8" x2="177.2" y2="59.2"/>
				<line class="st1" x1="180.4" y1="58.4" x2="113.1" y2="58.4"/>
				<line class="st1" x1="180.4" y1="80.8" x2="113.1" y2="80.8"/>
				<line class="st1" x1="156.9" y1="80.8" x2="156.9" y2="60"/>
				<line class="st1" x1="136.6" y1="80.8" x2="136.6" y2="60"/>
				<line class="st1" x1="177.2" y1="60" x2="116.3" y2="60"/>
				<line class="st1" x1="113.1" y1="59.2" x2="116.3" y2="59.2"/>
				<line class="st1" x1="180.4" y1="59.2" x2="177.2" y2="59.2"/>
				<line class="st1" x1="116.3" y1="80.8" x2="116.3" y2="59.2"/>
				<path class="st1" d="M156.8,141.7c1.7,6.4,8.3,10.2,14.7,8.5c6.4-1.7,10.2-8.3,8.5-14.7"/>
				<path class="st1" d="M159.9,140.8c1.3,4.7,6.1,7.5,10.8,6.2c4.7-1.3,7.5-6.1,6.2-10.8"/>
				<line class="st1" x1="159.9" y1="140.8" x2="156.8" y2="129.2"/>
				<line class="st1" x1="173.8" y1="124.7" x2="176.9" y2="136.3"/>
				<line class="st1" x1="156.8" y1="141.7" x2="153.7" y2="130.1"/>
				<line class="st1" x1="153.7" y1="130.1" x2="176.9" y2="123.8"/>
				<line class="st1" x1="176.9" y1="123.8" x2="180" y2="135.4"/>
				<path class="st1" d="M159.5,139.3c1.3,4.7,6.1,7.5,10.8,6.2c4.7-1.3,7.5-6.1,6.2-10.8"/>
				<rect x="142.9" y="190.2" class="st1" width="33.7" height="0.8"/>
				<polyline class="st1" points="154.9,190.2 154.9,187 164.5,187 164.5,190.2 				"/>
				<polyline class="st1" points="164.5,191 164.5,192.6 154.9,192.6 154.9,191 				"/>
				<path class="st1" d="M81.8,191.1c4.7,4.7,12.3,4.7,17,0c4.7-4.7,4.7-12.3,0-17"/>
				<path class="st1" d="M84,188.8c3.4,3.5,9,3.5,12.5,0c3.4-3.4,3.4-9,0-12.5"/>
				<line class="st1" x1="96.5" y1="176.3" x2="88" y2="167.8"/>
				<line class="st1" x1="75.5" y1="180.3" x2="84" y2="188.8"/>
				<line class="st1" x1="98.8" y1="174.1" x2="90.3" y2="165.6"/>
				<line class="st1" x1="90.3" y1="165.6" x2="73.3" y2="182.6"/>
				<line class="st1" x1="73.3" y1="182.6" x2="81.8" y2="191.1"/>
				<path class="st1" d="M82.9,187.7c3.4,3.5,9,3.5,12.5,0c3.4-3.4,3.4-9,0-12.5"/>
				<path class="st1" d="M113.5,135.4c-1.7,6.4,2.1,13,8.5,14.7s13-2.1,14.7-8.5"/>
				<path class="st1" d="M116.6,136.3c-1.3,4.7,1.5,9.5,6.2,10.8c4.7,1.3,9.5-1.5,10.8-6.2"/>
				<line class="st1" x1="133.6" y1="140.8" x2="136.7" y2="129.2"/>
				<line class="st1" x1="119.7" y1="124.7" x2="116.6" y2="136.3"/>
				<line class="st1" x1="136.7" y1="141.7" x2="139.8" y2="130.1"/>
				<line class="st1" x1="139.8" y1="130.1" x2="116.6" y2="123.8"/>
				<line class="st1" x1="116.6" y1="123.8" x2="113.5" y2="135.4"/>
				<path class="st1" d="M117,134.7c-1.3,4.7,1.5,9.5,6.2,10.8c4.7,1.3,9.5-1.5,10.8-6.2"/>
				<rect x="253.9" y="191" class="st1" width="1.4" height="28.9"/>
				<path class="st1" d="M226.4,191c0,16,12.9,28.9,28.9,28.9"/>
				<rect x="252" y="11.4" class="st1" width="1.4" height="27.3"/>
				<path class="st1" d="M226.1,11.4c0,15.1,12.2,27.3,27.3,27.3"/>
				<rect x="207.9" y="265.3" class="st1" width="1.4" height="25.7"/>
				<path class="st1" d="M233.6,291c0-14.2-11.5-25.7-25.7-25.7"/>
				<path class="st1" d="M239.8,111.5c0-2.5-0.7-5-1.9-7.2"/>
				<path class="st1" d="M241.8,104.3c-1.3,2.2-1.9,4.7-1.9,7.2"/>
				<rect x="224.8" y="107.8" transform="matrix(0.866 -0.5 0.5 0.866 -23.1819 130.5316)" class="st2" width="14.4" height="1.4"/>
				<rect x="246.9" y="101.3" transform="matrix(0.5 -0.866 0.866 0.5 29.8226 268.733)" class="st2" width="1.4" height="14.4"/>
				<rect x="78.6" y="50.5" transform="matrix(0.5 -0.866 0.866 0.5 -15.9359 100.7532)" class="st2" width="1.4" height="27.3"/>
				<path class="st1" d="M67.8,84c9.7,0,18.7-5.2,23.6-13.6"/>
				<rect x="197.5" y="17.1" class="st1" width="25.7" height="1.4"/>
				<path class="st1" d="M197.5,42.7c14.2,0,25.7-11.5,25.7-25.7"/>
				<rect x="206.3" y="291" class="st1" width="1.6" height="1.6"/>
				<rect x="233.6" y="291" class="st1" width="26.4" height="1.6"/>
				<line class="st1" x1="222.2" y1="66.4" x2="224" y2="66.4"/>
				<line class="st1" x1="225.2" y1="66.4" x2="257.5" y2="66.4"/>
				<line class="st1" x1="222.2" y1="73" x2="224" y2="73"/>
				<line class="st1" x1="225.2" y1="73" x2="257.5" y2="73"/>
				<line class="st1" x1="222.2" y1="59.8" x2="224" y2="59.8"/>
				<line class="st1" x1="225.2" y1="59.8" x2="257.5" y2="59.8"/>
				<line class="st1" x1="222.2" y1="53.2" x2="224" y2="53.2"/>
				<line class="st1" x1="225.2" y1="53.2" x2="257.5" y2="53.2"/>
				<line class="st1" x1="155.1" y1="44.1" x2="155.1" y2="15.3"/>
				<line class="st1" x1="148.5" y1="44.1" x2="148.5" y2="42.9"/>
				<line class="st1" x1="148.5" y1="41.7" x2="148.5" y2="15.3"/>
				<line class="st1" x1="141.9" y1="44.1" x2="141.9" y2="42.9"/>
				<line class="st1" x1="141.9" y1="41.7" x2="141.9" y2="15.3"/>
				<line class="st1" x1="135.3" y1="44.1" x2="135.3" y2="42.9"/>
				<line class="st1" x1="135.3" y1="41.7" x2="135.3" y2="15.3"/>
				<line class="st1" x1="128.6" y1="44.1" x2="128.6" y2="42.9"/>
				<line class="st1" x1="128.6" y1="41.7" x2="128.6" y2="15.3"/>
				<line class="st1" x1="122" y1="31.2" x2="122" y2="29.7"/>
				<line class="st1" x1="122" y1="28.2" x2="122" y2="15.3"/>
				<polyline class="st1" points="118.2,15.3 121.6,28.1 124.4,28.9 119.6,30.5 122.5,31.3 125.9,44.1 				"/>
				<rect x="83" y="46.9" transform="matrix(0.5 -0.866 0.866 0.5 -9.1938 101.9742)" class="st2" width="1.4" height="24.1"/>
				<path class="st1" d="M93.8,65.6c2.1-3.7,3.2-7.8,3.2-12"/>
				<rect x="16.5" y="117.7" class="st1" width="1.4" height="19.2"/>
				<rect x="53.6" y="117.7" class="st1" width="1.4" height="19.2"/>
				<path class="st1" d="M16.5,136.9c10.6,0,19.2-8.6,19.2-19.2"/>
				<path class="st1" d="M35.7,117.7c0,10.6,8.6,19.2,19.2,19.2"/>
				<rect x="220" y="100.6" transform="matrix(0.866 -0.5 0.5 0.866 -19.3464 130.3889)" class="st2" width="27.3" height="1.4"/>
				<path class="st1" d="M245.8,95.1c-4.9-8.4-13.9-13.6-23.6-13.6"/>
				<rect x="206.3" y="186.1" class="st1" width="1.6" height="3.6"/>
				<rect x="220" y="186.1" class="st1" width="1.6" height="3.6"/>
				<line class="st1" x1="207.9" y1="188.9" x2="220" y2="188.9"/>
				<line class="st1" x1="207.9" y1="188.1" x2="220" y2="188.1"/>
				<line class="st1" x1="207.1" y1="181.6" x2="221.6" y2="181.6"/>
				<rect x="13" y="204.9" class="st1" width="1.6" height="3.6"/>
				<rect x="77.1" y="204.9" class="st1" width="1.6" height="3.6"/>
				<rect x="31.4" y="204.9" class="st1" width="1.6" height="3.6"/>
				<line class="st1" x1="14.6" y1="207.7" x2="31.4" y2="207.7"/>
				<line class="st1" x1="14.6" y1="206.9" x2="31.4" y2="206.9"/>
				<line class="st1" x1="33" y1="207.7" x2="77.1" y2="207.7"/>
				<line class="st1" x1="33" y1="206.9" x2="77.1" y2="206.9"/>
				<line class="st1" x1="13.8" y1="200.4" x2="77.9" y2="200.4"/>
				<rect x="224" y="51.8" class="st1" width="1.2" height="22.9"/>
				<polyline class="st1" points="125.2,41.7 155.1,41.7 155.1,42.9 125.6,42.9 				"/>
				<line class="st1" x1="206.3" y1="186.1" x2="221.6" y2="186.1"/>
				<line class="st1" x1="206.3" y1="189.7" x2="221.6" y2="189.7"/>
				<line class="st1" x1="13" y1="204.9" x2="78.7" y2="204.9"/>
				<line class="st1" x1="13" y1="208.5" x2="78.7" y2="208.5"/>
				<line class="st1" x1="206.3" y1="194.7" x2="253.9" y2="194.7"/>
				<line class="st1" x1="255.3" y1="194.7" x2="260" y2="194.7"/>
				<line class="st1" x1="13" y1="214" x2="253.9" y2="214"/>
				<line class="st1" x1="255.3" y1="214" x2="260" y2="214"/>
				<line class="st1" x1="13" y1="233.2" x2="260" y2="233.2"/>
				<line class="st1" x1="13" y1="252.5" x2="260" y2="252.5"/>
				<line class="st1" x1="148.8" y1="271.7" x2="207.9" y2="271.7"/>
				<line class="st1" x1="209.3" y1="271.7" x2="260" y2="271.7"/>
				<line class="st1" x1="29" y1="255.8" x2="29" y2="208.5"/>
				<line class="st1" x1="48.2" y1="258.3" x2="48.2" y2="208.5"/>
				<line class="st1" x1="67.5" y1="260.9" x2="67.5" y2="208.5"/>
				<line class="st1" x1="86.7" y1="263.5" x2="86.7" y2="208.5"/>
				<line class="st1" x1="106" y1="266" x2="106" y2="208.5"/>
				<line class="st1" x1="125.2" y1="268.6" x2="125.2" y2="208.5"/>
				<line class="st1" x1="144.5" y1="271.2" x2="144.5" y2="208.5"/>
				<line class="st1" x1="163.7" y1="273.7" x2="163.7" y2="208.5"/>
				<line class="st1" x1="183" y1="276.3" x2="183" y2="208.5"/>
				<line class="st1" x1="202.2" y1="278.9" x2="202.2" y2="208.5"/>
				<line class="st1" x1="221.5" y1="291" x2="221.5" y2="189.7"/>
				<line class="st1" x1="240.7" y1="291" x2="240.7" y2="191"/>
				<polygon class="st1" points="260,291 260,191 255.3,191 255.3,219.9 253.9,219.9 253.9,191 221.6,191 221.6,189.7 206.3,189.7
					206.3,208.5 13,208.5 13,253.6 206.3,279.4 206.3,291 207.9,291 207.9,265.3 209.3,265.3 209.3,291 				"/>
				<line class="st1" x1="8.2" y1="91" x2="8.2" y2="84.5"/>
				<line class="st1" x1="8.2" y1="25.4" x2="8.2" y2="17.3"/>
				<line class="st1" x1="8.2" y1="68.5" x2="8.2" y2="35.6"/>
				<line class="st1" x1="17.9" y1="91" x2="17.9" y2="84.5"/>
				<line class="st1" x1="17.9" y1="25.4" x2="17.9" y2="17.3"/>
				<line class="st1" x1="17.9" y1="68.5" x2="17.9" y2="35.6"/>
				<line class="st1" x1="27.5" y1="91" x2="27.5" y2="84.3"/>
				<line class="st1" x1="27.5" y1="26" x2="27.5" y2="17.3"/>
				<line class="st1" x1="27.5" y1="68.7" x2="27.5" y2="35"/>
				<line class="st1" x1="37.1" y1="91" x2="37.1" y2="17.3"/>
				<line class="st1" x1="46.7" y1="91" x2="46.7" y2="17.3"/>
				<line class="st1" x1="56.4" y1="91" x2="56.4" y2="17.3"/>
				<line class="st1" x1="66" y1="71.8" x2="29" y2="71.8"/>
				<line class="st1" x1="64.1" y1="52.5" x2="7.4" y2="52.5"/>
				<line class="st1" x1="64.1" y1="33.3" x2="29.5" y2="33.3"/>
				<line class="st1" x1="8.1" y1="33.3" x2="7.4" y2="33.3"/>
				<path class="st1" d="M8.1,25.7c0-0.2,0.1-0.3,0.3-0.3l2.4-0.4c0.3-0.1,0.5,0,0.7,0.2c0.4,0.3,0.7,0.6,0.9,0.9
					c2.6-0.1,5.1-0.5,7.6-1c0.8-0.2,1.6-0.3,2.5-0.3c1.1,0,2.1,0.2,3.2,0.5c0.9,0.3,1.7,0.7,2.5,1.2c0.7,0.5,1.3,1.2,1.8,2
					c0.4,0.6,0.6,1.4,0.6,2.1S30.3,32,30,32.6c-0.5,0.8-1.1,1.4-1.8,2c-0.8,0.5-1.6,1-2.5,1.2c-1,0.3-2.1,0.5-3.2,0.5
					c-0.8,0-1.6-0.1-2.5-0.3c-2.5-0.5-5.1-0.8-7.6-1c-0.3,0.4-0.6,0.7-0.9,0.9c-0.2,0.1-0.5,0.2-0.7,0.2l-2.4-0.4
					c-0.1,0-0.3-0.2-0.3-0.3C8.1,35.4,8.1,25.7,8.1,25.7z"/>
				<line class="st1" x1="255.3" y1="191" x2="226.4" y2="191"/>
				<line class="st1" x1="255.3" y1="181.6" x2="226.4" y2="181.6"/>
				<line class="st1" x1="253.4" y1="11.4" x2="226.1" y2="11.4"/>
				<line class="st1" x1="253.4" y1="7.4" x2="226.1" y2="7.4"/>
				<line class="st1" x1="207.9" y1="291" x2="233.6" y2="291"/>
				<line class="st1" x1="207.9" y1="292.6" x2="233.6" y2="292.6"/>
				<path class="st1" d="M64.1,17.3H7.4v51.2h19.1c1.3,0,2.4,1.1,2.4,2.4v11.2c0,1.3-1.1,2.4-2.4,2.4H7.4V91h56.7v-7H66V56.8h-1.8
					V17.3z"/>
			</g>
			<g>
				<line class="st3" x1="222.2" y1="126.5" x2="257.5" y2="126.5"/>
				<line class="st3" x1="64.1" y1="102.8" x2="7.4" y2="102.8"/>
			</g>
			<polygon class="st4" points="13,241 0.1,241 0.1,5.6 224.5,5.6 224.5,7.4 226.1,7.4 226.1,11.4 224.5,11.4 224.5,15.3
				197.5,15.3 197.5,17.1 193.8,17.1 193.8,15.3 71,15.3 71,44.1 73,44.1 73,53.5 67.8,53.5 67.8,56.7 64.1,56.7 64.1,17.3
				7.4,17.3 7.4,91 64.1,91 64.1,84 67.8,84 67.8,117.7 55,117.7 55,114 64.1,114 64.1,94.7 7.4,94.7 7.4,114 16.5,114 16.5,117.7
				7.4,117.7 7.4,200.4 13.8,200.4 13.8,204.9 13,204.9 			"/>
			<polygon class="st1" points="13,241 0.1,241 0.1,5.6 224.5,5.6 224.5,7.4 226.1,7.4 226.1,11.4 224.5,11.4 224.5,15.3
				197.5,15.3 197.5,17.1 193.8,17.1 193.8,15.3 71,15.3 71,44.1 73,44.1 73,53.5 67.8,53.5 67.8,56.7 64.1,56.7 64.1,17.3
				7.4,17.3 7.4,91 64.1,91 64.1,84 67.8,84 67.8,117.7 55,117.7 55,114 64.1,114 64.1,94.7 7.4,94.7 7.4,114 16.5,114 16.5,117.7
				7.4,117.7 7.4,200.4 13.8,200.4 13.8,204.9 13,204.9 			"/>
			<polygon class="st4" points="77.9,200.4 77.9,204.9 78.7,204.9 78.7,208.5 206.3,208.5 206.3,186.1 207.1,186.1 207.1,181.6
				198.2,181.6 198.2,194.2 121.2,194.2 121.2,200.4 			"/>
			<polygon class="st1" points="77.9,200.4 77.9,204.9 78.7,204.9 78.7,208.5 206.3,208.5 206.3,186.1 207.1,186.1 207.1,181.6
				198.2,181.6 198.2,194.2 121.2,194.2 121.2,200.4 			"/>
			<rect x="221.6" y="181.6" class="st4" width="4.8" height="9.4"/>
			<rect x="221.6" y="181.6" class="st1" width="4.8" height="9.4"/>
			<polygon class="st4" points="255.3,181.6 255.3,191 260,191 260,241 267.3,241 267.3,5.6 255,5.6 255,7.4 253.4,7.4 253.4,11.4
				255,11.4 255,15.3 257.5,15.3 257.5,111.5 254.3,111.5 254.3,115.2 257.5,115.2 257.5,134.5 222.2,134.5 222.2,115.2
				225.4,115.2 225.4,111.5 222.2,111.5 222.2,108.7 215.4,108.7 215.4,141.3 257.5,141.3 257.5,181.6 			"/>
			<polygon class="st1" points="255.3,181.6 255.3,191 260,191 260,241 267.3,241 267.3,5.6 255,5.6 255,7.4 253.4,7.4 253.4,11.4
				255,11.4 255,15.3 257.5,15.3 257.5,111.5 254.3,111.5 254.3,115.2 257.5,115.2 257.5,134.5 222.2,134.5 222.2,115.2
				225.4,115.2 225.4,111.5 222.2,111.5 222.2,108.7 215.4,108.7 215.4,141.3 257.5,141.3 257.5,181.6 			"/>
			<polygon class="st4" points="97,44.1 97,53.5 215.4,53.5 215.4,81.5 222.2,81.5 222.2,44.1 197.5,44.1 197.5,42.7 193.8,42.7
				193.8,44.1 			"/>
			<polygon class="st1" points="97,44.1 97,53.5 215.4,53.5 215.4,81.5 222.2,81.5 222.2,44.1 197.5,44.1 197.5,42.7 193.8,42.7
				193.8,44.1 			"/>
			<g>
				<path class="st5" d="M161.5,30.2c0,0.9-0.5,1.4-1.3,1.4s-1.3-0.5-1.3-1.4v-1.8h0.4v1.8c0,0.7,0.4,1.1,1,1.1c0.6,0,0.9-0.4,0.9-1
					v-1.8h0.4L161.5,30.2L161.5,30.2z"/>
				<path class="st5" d="M163.6,30.4h-0.8v1.1h-0.4v-3.1h1.2c0.7,0,1.2,0.4,1.2,1C164.8,30.1,164.2,30.4,163.6,30.4z M163.6,28.7
					h-0.8v1.4h0.8c0.5,0,0.9-0.3,0.9-0.7C164.4,28.9,164.1,28.7,163.6,28.7z"/>
			</g>
			<g>
				<path class="st5" d="M239.8,49c0,0.9-0.5,1.4-1.3,1.4s-1.3-0.5-1.3-1.4v-1.8h0.4V49c0,0.7,0.4,1.1,1,1.1c0.6,0,0.9-0.4,0.9-1
					v-1.8h0.4L239.8,49L239.8,49z"/>
				<path class="st5" d="M241.8,49.3h-0.8v1.1h-0.4v-3.1h1.2c0.7,0,1.2,0.4,1.2,1C243.1,48.9,242.5,49.3,241.8,49.3z M241.9,47.6
					h-0.8V49h0.8c0.5,0,0.9-0.3,0.9-0.7C242.7,47.8,242.4,47.6,241.9,47.6z"/>
			</g>
			<g>
				<path class="st5" d="M129.4,243.3h-0.8v1.1h-0.4v-3.1h1.2c0.7,0,1.2,0.4,1.2,1C130.7,242.9,130.1,243.3,129.4,243.3z
					 M129.4,241.6h-0.8v1.4h0.8c0.5,0,0.9-0.3,0.9-0.7C130.3,241.8,130,241.6,129.4,241.6z"/>
				<path class="st5" d="M134,244.4h-0.4l-0.4-0.8h-1.7l-0.4,0.8h-0.4l1.4-3.2h0.3L134,244.4z M132.4,241.6l-0.7,1.6h1.4
					L132.4,241.6z"/>
				<path class="st5" d="M135.5,244.4h-0.4v-2.8h-1.1v-0.3h2.5v0.3h-1.1V244.4z"/>
				<path class="st5" d="M137.7,241.3v3.1h-0.4v-3.1H137.7z"/>
				<path class="st5" d="M140.2,244.5c-1,0-1.6-0.8-1.6-1.6s0.6-1.6,1.6-1.6s1.6,0.8,1.6,1.6S141.1,244.5,140.2,244.5z M140.2,241.5
					c-0.7,0-1.2,0.6-1.2,1.3s0.5,1.3,1.2,1.3s1.2-0.6,1.2-1.3S140.9,241.5,140.2,241.5z"/>
			</g>
			<g>
				<path class="st5" d="M141.3,102.4h0.3l0.9,2.6l0.9-2.6h0.4l-1.1,3.2h-0.3l-0.9-2.6l-0.9,2.6h-0.3l-1.1-3.2h0.4l0.9,2.6
					L141.3,102.4z"/>
				<path class="st5" d="M145.8,105.6c-1,0-1.6-0.8-1.6-1.6s0.6-1.6,1.6-1.6s1.6,0.8,1.6,1.6S146.8,105.6,145.8,105.6z M145.8,102.7
					c-0.7,0-1.2,0.6-1.2,1.3s0.5,1.3,1.2,1.3s1.2-0.6,1.2-1.3C147.1,103.3,146.5,102.7,145.8,102.7z"/>
				<path class="st5" d="M150.4,105.6l-0.9-1.2h-0.9v1.2h-0.4v-3.1h1.4c0.7,0,1.1,0.4,1.1,0.9c0,0.5-0.4,0.8-0.9,0.9l1,1.3
					L150.4,105.6L150.4,105.6z M149.6,102.8h-1v1.3h1c0.5,0,0.8-0.2,0.8-0.6C150.4,103,150.1,102.8,149.6,102.8z"/>
				<path class="st5" d="M154.3,105.6h-0.4l-1.2-1.5l-0.7,0.7v0.9h-0.4v-3.1h0.4v1.9l1.8-1.9h0.5l-1.4,1.4L154.3,105.6z"/>
			</g>
			<g>
				<path class="st5" d="M34,61h-0.8v1.1h-0.4v-3.1h1.2c0.7,0,1.2,0.4,1.2,1C35.2,60.6,34.7,61,34,61z M34,59.3h-0.8v1.4H34
					c0.5,0,0.9-0.3,0.9-0.7C34.9,59.5,34.5,59.3,34,59.3z"/>
				<path class="st5" d="M37.4,62.2c-1,0-1.6-0.8-1.6-1.6s0.7-1.6,1.6-1.6s1.6,0.8,1.6,1.6C39.1,61.4,38.4,62.2,37.4,62.2z
					 M37.4,59.2c-0.7,0-1.2,0.6-1.2,1.3s0.5,1.3,1.2,1.3s1.2-0.6,1.2-1.3S38.2,59.2,37.4,59.2z"/>
				<path class="st5" d="M41.6,58.9h0.3l0.9,2.6l0.9-2.6h0.4l-1.1,3.2h-0.3l-0.9-2.6l-0.9,2.6h-0.3l-1.1-3.2h0.4l0.9,2.6L41.6,58.9z
					"/>
				<path class="st5" d="M45.9,62.1h-1.1v-3.1h1.1c1,0,1.7,0.7,1.7,1.6C47.6,61.4,46.9,62.1,45.9,62.1z M45.9,59.3h-0.7v2.5h0.7
					c0.8,0,1.3-0.5,1.3-1.2S46.7,59.3,45.9,59.3z"/>
				<path class="st5" d="M50.7,59.3h-1.9v1.1h1.7v0.3h-1.7v1.1h2v0.3h-2.3v-3.1h2.3L50.7,59.3L50.7,59.3z"/>
				<path class="st5" d="M53.7,62.1l-0.9-1.2h-0.9v1.2h-0.4v-3.1h1.4c0.7,0,1.1,0.4,1.1,0.9c0,0.5-0.4,0.8-0.9,0.9l1,1.3L53.7,62.1
					L53.7,62.1z M52.8,59.3h-1v1.3h1c0.5,0,0.8-0.2,0.8-0.6C53.7,59.5,53.4,59.3,52.8,59.3z"/>
			</g>
			<g>
				<path class="st5" d="M85.2,31.8c0.7,0.1,1,0.4,1,0.9c0,0.5-0.4,0.9-1.1,0.9c-0.5,0-0.9-0.2-1.3-0.5l0.2-0.3
					c0.3,0.3,0.6,0.4,1.1,0.4c0.4,0,0.7-0.2,0.7-0.5c0-0.3-0.2-0.5-0.8-0.6C84.3,32,84,31.8,84,31.3c0-0.5,0.4-0.9,1-0.9
					c0.5,0,0.8,0.1,1.1,0.4l-0.2,0.3c-0.3-0.2-0.6-0.3-0.9-0.3c-0.4,0-0.7,0.2-0.7,0.5C84.3,31.5,84.5,31.7,85.2,31.8z"/>
				<path class="st5" d="M88.2,33.6h-0.4v-2.8h-1.1v-0.3h2.5v0.3h-1.1C88.2,30.8,88.2,33.6,88.2,33.6z"/>
				<path class="st5" d="M91.2,33.6c-1,0-1.6-0.8-1.6-1.6s0.7-1.6,1.6-1.6s1.6,0.8,1.6,1.6C92.8,32.9,92.2,33.6,91.2,33.6z
					 M91.2,30.7c-0.7,0-1.2,0.6-1.2,1.3s0.5,1.3,1.2,1.3s1.2-0.6,1.2-1.3S91.9,30.7,91.2,30.7z"/>
				<path class="st5" d="M95.8,33.6l-0.9-1.2H94v1.2h-0.4v-3.1H95c0.7,0,1.1,0.4,1.1,0.9c0,0.5-0.4,0.8-0.9,0.9l1,1.3H95.8z
					 M95,30.8h-1V32h1c0.5,0,0.8-0.2,0.8-0.6C95.8,31,95.5,30.8,95,30.8z"/>
				<path class="st5" d="M100,33.6h-0.4l-0.4-0.8h-1.7l-0.4,0.8h-0.4l1.4-3.2h0.3L100,33.6z M98.4,30.8l-0.7,1.6h1.4L98.4,30.8z"/>
				<path class="st5" d="M101.9,33.6c-1,0-1.6-0.7-1.6-1.6c0-0.9,0.6-1.6,1.6-1.6c0.5,0,0.9,0.1,1.2,0.4l-0.2,0.3
					c-0.2-0.2-0.5-0.4-1-0.4c-0.7,0-1.2,0.6-1.2,1.3c0,0.8,0.5,1.3,1.2,1.3c0.4,0,0.7-0.1,0.9-0.3v-0.8h-1v-0.3h1.3v1.3
					C102.9,33.4,102.5,33.6,101.9,33.6z"/>
				<path class="st5" d="M106.4,30.7h-1.9v1.1h1.7v0.3h-1.7v1.1h1.9v0.3h-2.3v-3.1h2.3L106.4,30.7L106.4,30.7z"/>
			</g>
			<g>
				<path class="st5" d="M234.3,0.3h-1.9v1.1h1.7v0.3h-1.7v1.1h1.9v0.3H232V0h2.3L234.3,0.3L234.3,0.3z"/>
				<path class="st5" d="M237.4,0h0.4v3.1h-0.3l-2-2.6v2.6h-0.4V0h0.3l2,2.5L237.4,0L237.4,0z"/>
				<path class="st5" d="M240,3.2h-0.4V0.3h-1.1V0h2.5v0.3H240V3.2z"/>
				<path class="st5" d="M243.9,3.2L243,1.9h-0.9v1.2h-0.4V0h1.4c0.7,0,1.1,0.4,1.1,0.9c0,0.5-0.4,0.8-0.9,0.9l1,1.3H243.9z
					 M243.1,0.3h-1v1.3h1c0.5,0,0.8-0.2,0.8-0.6C243.9,0.6,243.6,0.3,243.1,0.3z"/>
				<path class="st5" d="M246.3,3.2H246V1.9L244.7,0h0.4l1.1,1.6l1.1-1.6h0.4l-1.3,1.9L246.3,3.2L246.3,3.2z"/>
			</g>
			<g>
				<path class="st5" d="M234.3,196.5h-1.9v1.1h1.7v0.3h-1.7v1.1h1.9v0.3H232v-3.1h2.3L234.3,196.5L234.3,196.5z"/>
				<path class="st5" d="M237.4,196.2h0.4v3.1h-0.3l-2-2.6v2.6h-0.4v-3.1h0.3l2,2.5L237.4,196.2L237.4,196.2z"/>
				<path class="st5" d="M240,199.3h-0.4v-2.8h-1.1v-0.3h2.5v0.3H240V199.3z"/>
				<path class="st5" d="M243.9,199.3l-0.9-1.2h-0.9v1.2h-0.4v-3.1h1.4c0.7,0,1.1,0.4,1.1,0.9c0,0.5-0.4,0.8-0.9,0.9l1,1.3
					L243.9,199.3L243.9,199.3z M243.1,196.5h-1v1.3h1c0.5,0,0.8-0.2,0.8-0.6C243.9,196.7,243.6,196.5,243.1,196.5z"/>
				<path class="st5" d="M246.3,199.3H246v-1.2l-1.3-1.9h0.4l1.1,1.6l1.1-1.6h0.4l-1.3,1.9L246.3,199.3L246.3,199.3z"/>
			</g>
		</g>
	</g>
</g>
</svg>
