<?xml version="1.0" encoding="utf-8"?>
<!-- Generator: Adobe Illustrator 25.0.1, SVG Export Plug-In . SVG Version: 6.00 Build 0)  -->
<svg version="1.1" id="Layer_1" xmlns="http://www.w3.org/2000/svg" xmlns:xlink="http://www.w3.org/1999/xlink" x="0px" y="0px"
	 viewBox="0 0 332.53 319.93" style="enable-background:new 0 0 332.53 319.93;" xml:space="preserve">
<style type="text/css">
	.st0{fill:none;stroke:#92A0B1;stroke-width:0.24;stroke-linejoin:round;stroke-miterlimit:10;}
	.st1{fill:none;stroke:#00516B;stroke-width:0.25;stroke-linecap:round;stroke-linejoin:round;stroke-miterlimit:10;}
	
		.st2{fill:none;stroke:#00516B;stroke-width:0.25;stroke-linecap:round;stroke-linejoin:round;stroke-miterlimit:10;stroke-dasharray:4,2;}
	.st3{fill-rule:evenodd;clip-rule:evenodd;fill:#00516B;}
	.st4{fill:#00516B;}
</style>
<g>
	<path class="st0" d="M256.46,221.86c0-5.31,4.31-9.62,9.62-9.62s9.62,4.31,9.62,9.62c0,5.31-4.31,9.62-9.62,9.62
		S256.46,227.18,256.46,221.86z"/>
	<polygon class="st0" points="214.73,234.69 152.61,234.69 152.61,213.01 218.35,213.01 218.35,164.91 152.61,164.91 152.61,143.23 
		169.85,143.23 169.85,141.03 188.02,141.03 188.02,142.13 206.2,142.13 206.2,143.23 242.56,143.23 242.56,142.13 224.38,142.13 
		224.38,141.03 206.2,141.03 206.2,139.92 169.85,139.92 169.85,60.65 144.99,60.65 144.99,62.51 117.73,62.51 117.73,60.65 
		25.64,60.65 25.64,11.85 54.5,11.85 54.5,10.45 25.64,10.45 25.64,7.74 73.74,7.74 73.74,31.79 103.02,31.79 103.02,30.39 
		79.62,30.39 79.62,28.08 77.45,28.08 77.45,18.97 128.59,18.97 128.59,28.08 126.42,28.08 126.42,28.99 103.02,28.99 103.02,30.39 
		126.42,30.39 126.42,31.79 132.3,31.79 132.3,27.78 150.74,27.78 150.74,29.59 151.54,29.59 151.54,27.78 174.4,27.78 174.4,29.09 
		192.12,29.09 192.12,27.78 232.81,27.78 232.81,28.66 247.85,28.66 247.85,27.78 250.75,27.78 250.75,31.79 255.21,31.79 
		263.54,36.6 264.04,35.73 255.71,30.92 255.21,31.79 255.21,30.79 274.45,30.79 274.45,31.79 273.95,30.92 265.62,35.73 
		266.12,36.6 274.45,31.79 278.91,31.79 278.91,93.07 266.09,93.07 266.09,137.97 278.91,137.97 278.91,234.69 243.6,234.69 
		243.6,239.2 214.73,239.2 	"/>
	<rect x="154.21" y="214.61" class="st0" width="12.83" height="13.63"/>
	<rect x="154.21" y="149.68" class="st0" width="12.83" height="13.63"/>
	<polygon class="st0" points="277.31,162.54 277.31,210.64 258.07,210.64 258.07,193.6 250.85,193.6 250.85,194.4 249.65,194.4 
		249.65,178.77 250.85,178.77 250.85,179.57 258.07,179.57 258.07,162.54 	"/>
	<rect x="171.45" y="85.41" class="st0" width="24.05" height="51.31"/>
	<rect x="208.33" y="96.63" class="st0" width="17.64" height="28.86"/>
	<path class="st0" d="M253.15,62.57l-3.84-6.64c2.74-3.9,7.06-6.39,11.8-6.81l3.84,6.64c6.72,0.25,12.11,5.63,12.35,12.35
		c0.26,7.08-5.27,13.03-12.35,13.29l-3.84,6.64c-4.74-0.42-9.06-2.92-11.8-6.81l3.84-6.64C251.16,70.82,251.16,66.32,253.15,62.57"
		/>
	<line class="st0" x1="26.37" y1="60.65" x2="26.37" y2="11.85"/>
	<line class="st0" x1="26.37" y1="10.45" x2="26.37" y2="7.74"/>
	<line class="st0" x1="32.39" y1="60.65" x2="32.39" y2="11.85"/>
	<line class="st0" x1="32.39" y1="10.45" x2="32.39" y2="7.74"/>
	<line class="st0" x1="38.4" y1="60.65" x2="38.4" y2="11.85"/>
	<line class="st0" x1="38.4" y1="10.45" x2="38.4" y2="7.74"/>
	<line class="st0" x1="44.41" y1="60.65" x2="44.41" y2="11.85"/>
	<line class="st0" x1="44.41" y1="10.45" x2="44.41" y2="7.74"/>
	<line class="st0" x1="50.43" y1="60.65" x2="50.43" y2="11.85"/>
	<line class="st0" x1="50.43" y1="10.45" x2="50.43" y2="7.74"/>
	<line class="st0" x1="56.44" y1="60.65" x2="56.44" y2="7.74"/>
	<line class="st0" x1="62.45" y1="60.65" x2="62.45" y2="7.74"/>
	<line class="st0" x1="68.46" y1="60.65" x2="68.46" y2="7.74"/>
	<line class="st0" x1="74.48" y1="60.65" x2="74.48" y2="31.79"/>
	<line class="st0" x1="80.49" y1="60.65" x2="80.49" y2="31.79"/>
	<line class="st0" x1="80.49" y1="30.39" x2="80.49" y2="18.97"/>
	<line class="st0" x1="86.5" y1="60.65" x2="86.5" y2="31.79"/>
	<line class="st0" x1="86.5" y1="30.39" x2="86.5" y2="18.97"/>
	<line class="st0" x1="92.52" y1="60.65" x2="92.52" y2="31.79"/>
	<line class="st0" x1="92.52" y1="30.39" x2="92.52" y2="18.97"/>
	<line class="st0" x1="98.53" y1="60.65" x2="98.53" y2="31.79"/>
	<line class="st0" x1="98.53" y1="30.39" x2="98.53" y2="18.97"/>
	<line class="st0" x1="104.54" y1="60.65" x2="104.54" y2="30.39"/>
	<line class="st0" x1="104.54" y1="28.99" x2="104.54" y2="18.97"/>
	<line class="st0" x1="110.55" y1="60.65" x2="110.55" y2="30.39"/>
	<line class="st0" x1="110.55" y1="28.99" x2="110.55" y2="18.97"/>
	<line class="st0" x1="116.57" y1="60.65" x2="116.57" y2="30.39"/>
	<line class="st0" x1="116.57" y1="28.99" x2="116.57" y2="18.97"/>
	<line class="st0" x1="122.58" y1="62.51" x2="122.58" y2="30.39"/>
	<line class="st0" x1="122.58" y1="28.99" x2="122.58" y2="18.97"/>
	<line class="st0" x1="128.59" y1="62.51" x2="128.59" y2="31.79"/>
	<line class="st0" x1="134.61" y1="62.51" x2="134.61" y2="27.78"/>
	<line class="st0" x1="140.62" y1="62.51" x2="140.62" y2="27.78"/>
	<line class="st0" x1="146.63" y1="60.65" x2="146.63" y2="27.78"/>
	<line class="st0" x1="152.64" y1="234.69" x2="152.64" y2="213.01"/>
	<line class="st0" x1="152.64" y1="60.65" x2="152.64" y2="27.78"/>
	<line class="st0" x1="152.64" y1="164.91" x2="152.64" y2="143.23"/>
	<line class="st0" x1="158.66" y1="234.69" x2="158.66" y2="228.24"/>
	<line class="st0" x1="158.66" y1="60.65" x2="158.66" y2="27.78"/>
	<line class="st0" x1="158.66" y1="214.61" x2="158.66" y2="213.01"/>
	<line class="st0" x1="158.66" y1="149.68" x2="158.66" y2="143.23"/>
	<line class="st0" x1="158.66" y1="164.91" x2="158.66" y2="163.31"/>
	<line class="st0" x1="164.67" y1="234.69" x2="164.67" y2="228.24"/>
	<line class="st0" x1="164.67" y1="60.65" x2="164.67" y2="27.78"/>
	<line class="st0" x1="164.67" y1="214.61" x2="164.67" y2="213.01"/>
	<line class="st0" x1="164.67" y1="149.68" x2="164.67" y2="143.23"/>
	<line class="st0" x1="164.67" y1="164.91" x2="164.67" y2="163.31"/>
	<line class="st0" x1="170.68" y1="234.69" x2="170.68" y2="213.01"/>
	<line class="st0" x1="170.68" y1="139.92" x2="170.68" y2="27.78"/>
	<line class="st0" x1="170.68" y1="164.91" x2="170.68" y2="141.03"/>
	<line class="st0" x1="176.69" y1="234.69" x2="176.69" y2="213.01"/>
	<line class="st0" x1="176.69" y1="85.41" x2="176.69" y2="29.09"/>
	<line class="st0" x1="176.69" y1="164.91" x2="176.69" y2="141.03"/>
	<line class="st0" x1="176.69" y1="139.92" x2="176.69" y2="136.72"/>
	<line class="st0" x1="182.71" y1="234.69" x2="182.71" y2="213.01"/>
	<line class="st0" x1="182.71" y1="85.41" x2="182.71" y2="29.09"/>
	<line class="st0" x1="182.71" y1="164.91" x2="182.71" y2="141.03"/>
	<line class="st0" x1="182.71" y1="139.92" x2="182.71" y2="136.72"/>
	<line class="st0" x1="188.72" y1="234.69" x2="188.72" y2="213.01"/>
	<line class="st0" x1="188.72" y1="85.41" x2="188.72" y2="29.09"/>
	<line class="st0" x1="188.72" y1="164.91" x2="188.72" y2="142.13"/>
	<line class="st0" x1="188.72" y1="139.92" x2="188.72" y2="136.72"/>
	<line class="st0" x1="194.73" y1="234.69" x2="194.73" y2="213.01"/>
	<line class="st0" x1="194.73" y1="85.41" x2="194.73" y2="27.78"/>
	<line class="st0" x1="194.73" y1="164.91" x2="194.73" y2="142.13"/>
	<line class="st0" x1="194.73" y1="139.92" x2="194.73" y2="136.72"/>
	<line class="st0" x1="200.75" y1="234.69" x2="200.75" y2="213.01"/>
	<line class="st0" x1="200.75" y1="139.92" x2="200.75" y2="27.78"/>
	<line class="st0" x1="200.75" y1="164.91" x2="200.75" y2="142.13"/>
	<line class="st0" x1="206.76" y1="234.69" x2="206.76" y2="213.01"/>
	<line class="st0" x1="206.76" y1="141.03" x2="206.76" y2="27.78"/>
	<line class="st0" x1="206.76" y1="164.91" x2="206.76" y2="143.23"/>
	<line class="st0" x1="212.77" y1="234.69" x2="212.77" y2="213.01"/>
	<line class="st0" x1="212.77" y1="96.63" x2="212.77" y2="27.78"/>
	<line class="st0" x1="212.77" y1="164.91" x2="212.77" y2="143.23"/>
	<line class="st0" x1="212.77" y1="141.03" x2="212.77" y2="125.49"/>
	<line class="st0" x1="218.78" y1="239.2" x2="218.78" y2="143.23"/>
	<line class="st0" x1="218.78" y1="96.63" x2="218.78" y2="27.78"/>
	<line class="st0" x1="218.78" y1="141.03" x2="218.78" y2="125.49"/>
	<line class="st0" x1="224.8" y1="239.2" x2="224.8" y2="143.23"/>
	<line class="st0" x1="224.8" y1="96.63" x2="224.8" y2="27.78"/>
	<line class="st0" x1="224.8" y1="142.13" x2="224.8" y2="125.49"/>
	<line class="st0" x1="230.81" y1="239.2" x2="230.81" y2="143.23"/>
	<line class="st0" x1="230.81" y1="142.13" x2="230.81" y2="27.78"/>
	<line class="st0" x1="236.82" y1="239.2" x2="236.82" y2="143.23"/>
	<line class="st0" x1="236.82" y1="142.13" x2="236.82" y2="28.66"/>
	<line class="st0" x1="242.84" y1="239.2" x2="242.84" y2="28.66"/>
	<line class="st0" x1="248.85" y1="234.69" x2="248.85" y2="27.78"/>
	<line class="st0" x1="254.86" y1="234.69" x2="254.86" y2="193.6"/>
	<line class="st0" x1="254.86" y1="50.99" x2="254.86" y2="31.79"/>
	<line class="st0" x1="254.86" y1="179.57" x2="254.86" y2="86.15"/>
	<line class="st0" x1="260.87" y1="234.69" x2="260.87" y2="229.95"/>
	<line class="st0" x1="260.87" y1="33.9" x2="260.87" y2="30.79"/>
	<line class="st0" x1="260.87" y1="213.78" x2="260.87" y2="210.64"/>
	<line class="st0" x1="260.87" y1="49.13" x2="260.87" y2="35.06"/>
	<line class="st0" x1="260.87" y1="162.54" x2="260.87" y2="88.01"/>
	<line class="st0" x1="266.89" y1="234.69" x2="266.89" y2="231.45"/>
	<line class="st0" x1="266.89" y1="35" x2="266.89" y2="30.79"/>
	<line class="st0" x1="266.89" y1="212.28" x2="266.89" y2="210.64"/>
	<line class="st0" x1="266.89" y1="55.97" x2="266.89" y2="36.16"/>
	<line class="st0" x1="266.89" y1="162.54" x2="266.89" y2="137.97"/>
	<line class="st0" x1="266.89" y1="93.07" x2="266.89" y2="81.17"/>
	<line class="st0" x1="272.9" y1="234.69" x2="272.9" y2="228.65"/>
	<line class="st0" x1="272.9" y1="31.53" x2="272.9" y2="30.79"/>
	<line class="st0" x1="272.9" y1="215.07" x2="272.9" y2="210.64"/>
	<line class="st0" x1="272.9" y1="58.89" x2="272.9" y2="32.69"/>
	<line class="st0" x1="272.9" y1="162.54" x2="272.9" y2="137.97"/>
	<line class="st0" x1="272.9" y1="93.07" x2="272.9" y2="78.25"/>
	<path class="st1" d="M256.46,221.86c0-5.31,4.31-9.62,9.62-9.62s9.62,4.31,9.62,9.62c0,5.31-4.31,9.62-9.62,9.62
		S256.46,227.18,256.46,221.86z"/>
	<polygon class="st1" points="277.41,7.74 277.41,24.48 278.91,24.48 278.91,49.33 283.42,49.33 283.42,48.53 287.03,48.53 
		287.03,23.68 291.44,23.68 291.44,0.12 18.82,0.12 18.82,10.45 25.64,10.45 25.64,7.74 73.74,7.74 73.74,31.79 79.62,31.79 
		79.62,28.08 77.45,28.08 77.45,7.74 128.59,7.74 128.59,28.08 126.42,28.08 126.42,31.79 132.3,31.79 132.3,7.74 	"/>
	<polyline class="st1" points="18.82,68.27 18.82,39.31 25.64,39.31 25.64,60.65 117.73,60.65 117.73,64.36 114.73,64.36 
		114.73,139.52 162.83,139.52 162.83,112.26 166.14,112.26 166.14,64.36 144.99,64.36 144.99,60.65 169.84,60.65 169.84,143.23 
		152.61,143.23 152.61,234.69 152.31,234.69 152.31,239.2 151.41,239.2 151.41,242.81 144.99,242.81 144.99,147.14 107.11,147.14 
		107.11,68.27 18.82,68.27 	"/>
	<polygon class="st1" points="191.49,242.81 191.49,239.2 190.69,239.2 190.69,234.69 214.72,234.69 214.72,239.2 213.92,239.2 
		213.92,242.81 	"/>
	<polygon class="st1" points="278.91,143.23 283.42,143.23 283.42,142.43 291.1,142.43 291.1,88.61 283.42,88.61 283.42,87.61 
		278.91,87.61 	"/>
	<polyline class="st1" points="146.6,242.81 146.6,319.81 332.4,319.81 332.4,237.26 287.03,237.26 	"/>
	<rect x="152.34" y="7.74" class="st1" width="0.8" height="20.04"/>
	<rect x="132.3" y="7.74" class="st1" width="0.8" height="20.04"/>
	<polygon class="st1" points="250.75,7.74 250.75,31.79 255.21,31.79 255.21,30.79 251.75,30.79 251.75,7.74 	"/>
	<polygon class="st1" points="274.45,31.79 274.45,30.79 277.91,30.79 277.91,24.48 278.91,24.48 278.91,31.79 	"/>
	<line class="st1" x1="153.15" y1="27.78" x2="250.75" y2="27.78"/>
	
		<rect x="259.13" y="28.95" transform="matrix(0.5001 -0.866 0.866 0.5001 100.5534 241.7108)" class="st1" width="1" height="9.62"/>
	
		<rect x="265.23" y="33.26" transform="matrix(0.866 -0.5001 0.5001 0.866 19.3064 139.5659)" class="st1" width="9.62" height="1"/>
	<rect x="148.1" y="64.36" class="st1" width="18.04" height="24.05"/>
	<line class="st1" x1="77.45" y1="18.97" x2="128.59" y2="18.97"/>
	<rect x="114.98" y="109.6" transform="matrix(0.866 -0.5 0.5 0.866 -38.0452 77.8146)" class="st1" width="22.4" height="0.6"/>
	<line class="st1" x1="114.73" y1="113.93" x2="118.6" y2="113.93"/>
	<line class="st1" x1="119.81" y1="113.93" x2="162.83" y2="113.93"/>
	<polyline class="st1" points="114.73,115.24 116.33,115.24 116.33,115.84 114.73,115.84 	"/>
	<rect x="138.73" y="115.24" class="st1" width="24.1" height="0.6"/>
	<line class="st1" x1="162.72" y1="126.29" x2="160.63" y2="126.29"/>
	<line class="st1" x1="160.63" y1="126.29" x2="160.63" y2="127.1"/>
	<line class="st1" x1="160.63" y1="127.1" x2="162.72" y2="127.1"/>
	<line class="st1" x1="162.83" y1="126.19" x2="162.72" y2="126.19"/>
	<line class="st1" x1="162.72" y1="126.19" x2="162.72" y2="127.2"/>
	<line class="st1" x1="162.72" y1="127.2" x2="162.83" y2="127.2"/>
	<line class="st1" x1="160.5" y1="124.87" x2="160.5" y2="127.76"/>
	<line class="st1" x1="160.67" y1="128.86" x2="161.26" y2="128.86"/>
	<line class="st1" x1="161.26" y1="128.86" x2="161.26" y2="127.1"/>
	<line class="st1" x1="161.26" y1="126.29" x2="161.26" y2="124.87"/>
	<line class="st1" x1="161.26" y1="124.87" x2="160.5" y2="124.87"/>
	<line class="st1" x1="160.5" y1="125.63" x2="161.26" y2="125.63"/>
	<path class="st1" d="M159.43,127.07c-0.59-0.06-1.11,0.48-1.16,1.21c-0.05,0.73,0.39,1.37,0.98,1.43c0.06,0.01,0.12,0.01,0.18,0"/>
	<path class="st1" d="M160.59,128.4c0-0.73-0.48-1.33-1.07-1.33c-0.59,0-1.08,0.59-1.08,1.33c0,0.73,0.48,1.33,1.07,1.33
		C160.1,129.73,160.59,129.13,160.59,128.4z"/>
	<path class="st1" d="M160.39,127.62c0.03,0.04,0.07,0.08,0.1,0.12c0.07,0.08,0.14,0.16,0.23,0.22c0.06,0.03,0.12,0.06,0.19,0.07
		c0.03,0.01,0.06,0.01,0.09,0.01"/>
	<path class="st1" d="M160.38,129.17c0.03-0.04,0.07-0.08,0.1-0.12c0.07-0.08,0.14-0.16,0.24-0.22c0.06-0.04,0.12-0.06,0.19-0.07
		c0.03,0,0.06-0.01,0.09-0.01"/>
	<path class="st1" d="M161,128.75c0.2-0.08,0.29-0.31,0.2-0.51c-0.04-0.09-0.11-0.16-0.2-0.2"/>
	<line class="st1" x1="162.83" y1="126.19" x2="162.83" y2="127.2"/>
	<path class="st1" d="M153.42,127.73c0-1.03,0.84-1.87,1.87-1.87c1.03,0,1.87,0.84,1.87,1.87c0,1.03-0.84,1.87-1.87,1.87
		C154.25,129.59,153.42,128.76,153.42,127.73z"/>
	<line class="st1" x1="162.83" y1="117.13" x2="114.73" y2="117.13"/>
	<line class="st1" x1="161.63" y1="126.29" x2="161.63" y2="117.13"/>
	<polyline class="st1" points="115.93,117.13 115.93,138.32 128.3,138.32 	"/>
	<polyline class="st1" points="130.02,138.32 161.63,138.32 161.63,127.1 	"/>
	<path class="st1" d="M138.73,115.24c0-3.93-1.04-7.79-3-11.2"/>
	<line class="st1" x1="130.03" y1="138.46" x2="128.28" y2="138.46"/>
	<line class="st1" x1="126.25" y1="138.86" x2="132.06" y2="138.86"/>
	<path class="st1" d="M132.02,138.81c-0.65-0.18-1.31-0.29-1.98-0.35"/>
	<path class="st1" d="M128.28,138.46c-0.67,0.05-1.34,0.17-1.98,0.35"/>
	<line class="st1" x1="126.24" y1="139.07" x2="126.25" y2="138.86"/>
	<line class="st1" x1="132.06" y1="138.86" x2="132.08" y2="139.07"/>
	<path class="st1" d="M126.3,138.81c-0.03,0.01-0.05,0.03-0.05,0.06"/>
	<path class="st1" d="M132.06,138.86c0-0.03-0.02-0.05-0.05-0.06"/>
	<line class="st1" x1="128.3" y1="138.46" x2="128.3" y2="137.7"/>
	<line class="st1" x1="130.02" y1="137.7" x2="130.02" y2="138.46"/>
	<line class="st1" x1="129.84" y1="137.26" x2="129.17" y2="137.26"/>
	<line class="st1" x1="129.17" y1="137.26" x2="129.15" y2="137.26"/>
	<line class="st1" x1="128.33" y1="137.26" x2="128.48" y2="137.26"/>
	<line class="st1" x1="129.84" y1="137.26" x2="129.99" y2="137.26"/>
	<line class="st1" x1="129.15" y1="137.26" x2="128.48" y2="137.26"/>
	<line class="st1" x1="128.32" y1="137.25" x2="128.34" y2="136.04"/>
	<line class="st1" x1="129.98" y1="136.04" x2="130" y2="137.25"/>
	<path class="st1" d="M128.32,137.25c0,0.01,0,0.01,0.01,0.01"/>
	<path class="st1" d="M129.99,137.26C129.99,137.26,130,137.26,129.99,137.26"/>
	<path class="st1" d="M129.98,136.04c0-0.01-0.01-0.02-0.02-0.02"/>
	<path class="st1" d="M128.36,136.01c-0.01,0-0.02,0.01-0.02,0.03"/>
	<path class="st1" d="M129.95,136.01c-0.53-0.02-1.06-0.02-1.59,0"/>
	<path class="st1" d="M128.41,137.26c-0.08,0.13-0.12,0.28-0.12,0.44"/>
	<path class="st1" d="M130.02,137.7c0-0.15-0.04-0.31-0.12-0.44"/>
	<line class="st1" x1="132.08" y1="139.07" x2="132.08" y2="139.52"/>
	<line class="st1" x1="126.24" y1="139.07" x2="126.24" y2="139.52"/>
	<rect x="133.1" y="26.18" class="st1" width="19.24" height="1.6"/>
	<rect x="150.74" y="27.78" class="st1" width="0.8" height="1.8"/>
	<line class="st1" x1="133.1" y1="9.34" x2="152.34" y2="9.34"/>
	<polyline class="st1" points="220.23,11.95 229.91,11.95 229.91,26.38 211.47,26.38 211.47,11.95 219.3,11.95 	"/>
	<path class="st1" d="M220.69,11.15c0.44,0,0.8-0.36,0.8-0.8c0-0.44-0.36-0.8-0.8-0.8c-0.44,0-0.8,0.36-0.8,0.8
		c0,0.14,0.04,0.28,0.11,0.4"/>
	<line class="st1" x1="220.69" y1="11.15" x2="217.43" y2="16.8"/>
	<line class="st1" x1="219.99" y1="10.75" x2="216.73" y2="16.39"/>
	<path class="st1" d="M216.73,16.39c-0.11,0.19-0.05,0.44,0.15,0.55c0.19,0.11,0.44,0.05,0.55-0.15"/>
	<line class="st1" x1="221.22" y1="9.75" x2="222.29" y2="9.75"/>
	<line class="st1" x1="221.22" y1="10.95" x2="221.89" y2="10.95"/>
	<line class="st1" x1="222.29" y1="10.95" x2="222.29" y2="9.75"/>
	<line class="st1" x1="222.09" y1="10.55" x2="222.09" y2="11.65"/>
	<line class="st1" x1="221.89" y1="10.55" x2="221.89" y2="11.65"/>
	<line class="st1" x1="221.89" y1="11.65" x2="222.09" y2="11.65"/>
	<line class="st1" x1="221.89" y1="10.55" x2="222.09" y2="10.55"/>
	<line class="st1" x1="222.09" y1="10.95" x2="222.29" y2="10.95"/>
	<line class="st1" x1="219.23" y1="13.67" x2="218.54" y2="13.27"/>
	<path class="st1" d="M219.49,15.96c0-0.66,0.54-1.2,1.2-1.2c0.66,0,1.2,0.54,1.2,1.2c0,0.66-0.54,1.2-1.2,1.2
		C220.02,17.16,219.49,16.62,219.49,15.96z"/>
	<line class="st1" x1="192.2" y1="26.38" x2="174.32" y2="26.38"/>
	<line class="st1" x1="192.2" y1="9.95" x2="174.32" y2="9.95"/>
	<line class="st1" x1="174.04" y1="26.1" x2="174.04" y2="10.23"/>
	<line class="st1" x1="192.48" y1="26.1" x2="192.48" y2="10.23"/>
	<path class="st1" d="M174.04,26.1c0,0.16,0.13,0.28,0.28,0.28"/>
	<path class="st1" d="M174.32,9.95c-0.15,0-0.28,0.12-0.28,0.28"/>
	<path class="st1" d="M192.48,10.23c0-0.15-0.13-0.28-0.28-0.28"/>
	<path class="st1" d="M192.2,26.38c0.15,0,0.28-0.12,0.28-0.28"/>
	<line class="st1" x1="191.88" y1="10.75" x2="191.88" y2="23.58"/>
	<line class="st1" x1="174.64" y1="10.75" x2="174.64" y2="23.58"/>
	<line class="st1" x1="175.04" y1="10.35" x2="182.86" y2="10.35"/>
	<line class="st1" x1="175.04" y1="23.98" x2="182.86" y2="23.98"/>
	<path class="st1" d="M175.04,10.35c-0.22,0-0.4,0.18-0.4,0.4"/>
	<path class="st1" d="M191.88,10.75c0-0.22-0.18-0.4-0.4-0.4"/>
	<path class="st1" d="M191.48,23.98c0.22,0,0.4-0.18,0.4-0.4"/>
	<path class="st1" d="M174.64,23.57c0,0.22,0.18,0.4,0.4,0.4"/>
	<line class="st1" x1="183.26" y1="10.75" x2="183.26" y2="23.58"/>
	<line class="st1" x1="183.66" y1="10.35" x2="191.47" y2="10.35"/>
	<line class="st1" x1="183.66" y1="23.98" x2="191.47" y2="23.98"/>
	<path class="st1" d="M182.86,23.98c0.22,0,0.4-0.18,0.4-0.4"/>
	<path class="st1" d="M183.26,10.75c0-0.22-0.18-0.4-0.4-0.4"/>
	<path class="st1" d="M183.26,23.57c0,0.22,0.18,0.4,0.4,0.4"/>
	<path class="st1" d="M183.66,10.35c-0.22,0-0.4,0.18-0.4,0.4"/>
	<rect x="175.24" y="10.95" class="st1" width="7.42" height="12.43"/>
	<line class="st1" x1="174.84" y1="12.19" x2="183.06" y2="12.19"/>
	<line class="st1" x1="174.84" y1="22.88" x2="183.06" y2="22.88"/>
	<line class="st1" x1="191.68" y1="16.46" x2="183.46" y2="16.46"/>
	<line class="st1" x1="191.68" y1="18.6" x2="183.46" y2="18.6"/>
	<line class="st1" x1="191.68" y1="20.74" x2="189.59" y2="20.74"/>
	<line class="st1" x1="178.32" y1="23.78" x2="178.32" y2="22.14"/>
	<line class="st1" x1="188.19" y1="23.78" x2="188.19" y2="22.14"/>
	<line class="st1" x1="191.68" y1="14.32" x2="189.59" y2="14.32"/>
	<path class="st1" d="M177.37,20.74c0-0.53,0.43-0.95,0.95-0.95s0.95,0.43,0.95,0.95c0,0.53-0.43,0.95-0.95,0.95
		S177.37,21.26,177.37,20.74z"/>
	<path class="st1" d="M187.24,20.74c0-0.53,0.43-0.95,0.95-0.95c0.53,0,0.95,0.43,0.95,0.95c0,0.53-0.43,0.95-0.95,0.95
		C187.66,21.69,187.24,21.26,187.24,20.74z"/>
	<path class="st1" d="M177.17,14.32c0-0.64,0.52-1.15,1.15-1.15s1.15,0.52,1.15,1.15c0,0.64-0.52,1.15-1.15,1.15
		S177.17,14.96,177.17,14.32z"/>
	<path class="st1" d="M186.64,14.32c0-0.86,0.69-1.55,1.55-1.55c0.86,0,1.55,0.7,1.55,1.55c0,0.86-0.7,1.55-1.55,1.55
		C187.33,15.88,186.64,15.18,186.64,14.32z"/>
	<rect x="183.86" y="10.95" class="st1" width="7.41" height="12.43"/>
	<line class="st1" x1="183.46" y1="22.88" x2="191.68" y2="22.88"/>
	<line class="st1" x1="183.06" y1="20.74" x2="179.73" y2="20.74"/>
	<line class="st1" x1="183.06" y1="20.74" x2="179.73" y2="20.74"/>
	<line class="st1" x1="183.06" y1="18.6" x2="174.84" y2="18.6"/>
	<line class="st1" x1="183.06" y1="16.46" x2="174.84" y2="16.46"/>
	<line class="st1" x1="183.06" y1="14.32" x2="179.73" y2="14.32"/>
	<line class="st1" x1="183.46" y1="12.19" x2="191.68" y2="12.19"/>
	<line class="st1" x1="178.32" y1="19.33" x2="178.32" y2="15.73"/>
	<line class="st1" x1="176.92" y1="20.74" x2="174.84" y2="20.74"/>
	<line class="st1" x1="176.92" y1="20.74" x2="174.84" y2="20.74"/>
	<line class="st1" x1="176.92" y1="14.32" x2="174.84" y2="14.32"/>
	<line class="st1" x1="178.32" y1="12.92" x2="178.32" y2="10.55"/>
	<line class="st1" x1="188.19" y1="12.92" x2="188.19" y2="10.55"/>
	<line class="st1" x1="186.79" y1="14.32" x2="183.46" y2="14.32"/>
	<line class="st1" x1="188.19" y1="19.33" x2="188.19" y2="15.73"/>
	<line class="st1" x1="186.79" y1="20.74" x2="183.46" y2="20.74"/>
	<path class="st1" d="M180.71,25.79c0.32-0.08,0.51-0.41,0.43-0.73c-0.08-0.32-0.41-0.51-0.73-0.43c-0.32,0.08-0.51,0.41-0.43,0.73
		c0.05,0.21,0.22,0.38,0.43,0.43"/>
	<rect x="180.41" y="24.79" class="st1" width="0.3" height="1.2"/>
	<path class="st1" d="M186.1,25.79c0.32-0.08,0.52-0.41,0.43-0.73c-0.08-0.32-0.41-0.51-0.73-0.43c-0.32,0.08-0.51,0.41-0.43,0.73
		c0.05,0.21,0.22,0.38,0.43,0.43"/>
	<rect x="185.8" y="24.79" class="st1" width="0.3" height="1.2"/>
	<path class="st1" d="M182.51,25.79c0.32-0.08,0.51-0.41,0.43-0.73c-0.08-0.32-0.41-0.51-0.73-0.43c-0.32,0.08-0.51,0.41-0.43,0.73
		c0.05,0.21,0.22,0.38,0.43,0.43"/>
	<rect x="182.21" y="24.79" class="st1" width="0.3" height="1.2"/>
	<path class="st1" d="M184.31,25.79c0.32-0.08,0.52-0.41,0.43-0.73c-0.08-0.32-0.41-0.51-0.73-0.43c-0.32,0.08-0.51,0.41-0.43,0.73
		c0.05,0.21,0.22,0.38,0.43,0.43"/>
	<rect x="184" y="24.79" class="st1" width="0.3" height="1.2"/>
	<rect x="174.4" y="28.79" class="st1" width="17.72" height="0.3"/>
	<rect x="190.11" y="27.78" class="st1" width="2.01" height="1"/>
	<rect x="174.4" y="27.78" class="st1" width="2" height="1"/>
	<path class="st1" d="M155.29,76.39c0-0.67,0.54-1.21,1.21-1.21c0.67,0,1.21,0.54,1.21,1.21c0,0.67-0.54,1.21-1.21,1.21
		C155.83,77.6,155.29,77.06,155.29,76.39z"/>
	<path class="st1" d="M155.8,76.39c0-0.39,0.31-0.7,0.7-0.7s0.7,0.31,0.7,0.7c0,0.39-0.31,0.7-0.7,0.7S155.8,76.77,155.8,76.39z"/>
	<path class="st1" d="M162.49,75.87c-0.29-3.31-3.2-5.76-6.51-5.47c-3.31,0.29-5.76,3.2-5.47,6.51c0.29,3.31,3.2,5.76,6.51,5.47
		c2.91-0.25,5.22-2.56,5.47-5.48"/>
	<polyline class="st1" points="247.45,27.78 247.45,28.46 233.22,28.46 233.22,27.78 	"/>
	<polyline class="st1" points="247.85,27.78 247.85,28.66 232.81,28.66 232.81,27.78 	"/>
	<path class="st1" d="M154.26,95.87c-1.03-0.31-2.1-0.46-3.17-0.46"/>
	<path class="st1" d="M156.76,97.1c-0.76-0.54-1.6-0.96-2.5-1.22"/>
	<path class="st1" d="M157.52,97.74c-0.24-0.23-0.49-0.45-0.76-0.64"/>
	<path class="st1" d="M151.09,95.41c-1.07,0-2.14,0.16-3.17,0.46c-0.89,0.27-1.74,0.68-2.5,1.23c-0.73,0.52-1.34,1.2-1.79,1.98
		c-0.37,0.64-0.56,1.36-0.56,2.1c0,0.74,0.19,1.46,0.56,2.1c0.45,0.78,1.06,1.45,1.79,1.98c0.76,0.55,1.6,0.96,2.5,1.23
		c1.03,0.31,2.1,0.46,3.17,0.46c1.07,0,2.14-0.16,3.17-0.46c0.89-0.27,1.74-0.68,2.49-1.23c0.27-0.19,0.52-0.41,0.76-0.64v-6.86"/>
	<path class="st1" d="M161.17,96.66c-2.56-0.15-5.11-0.48-7.62-0.97"/>
	<path class="st1" d="M160.27,103.4c0.11,0.57,0.29,1.13,0.54,1.66c0.29,0.62,0.74,1.16,1.3,1.55c0.21,0.15,0.48,0.21,0.74,0.16
		l2.37-0.45c0.15-0.03,0.27-0.17,0.27-0.32v-9.67c0-0.16-0.11-0.29-0.27-0.32l-2.37-0.45c-0.26-0.05-0.52,0.01-0.74,0.16
		c-0.56,0.4-1.01,0.93-1.3,1.56c-0.25,0.53-0.43,1.09-0.54,1.66c-0.14,0.74-0.21,1.49-0.21,2.23
		C160.06,101.92,160.13,102.67,160.27,103.4z"/>
	<path class="st1" d="M161.17,105.68c-2.56,0.15-5.11,0.48-7.62,0.97"/>
	<path class="st1" d="M161.94,101.17c0-0.33,0.27-0.6,0.6-0.6s0.6,0.27,0.6,0.6c0,0.33-0.27,0.6-0.6,0.6S161.94,101.5,161.94,101.17
		z"/>
	<line class="st1" x1="159.75" y1="76.9" x2="163.56" y2="76.9"/>
	<path class="st1" d="M159.47,76.62c0,0.16,0.13,0.28,0.28,0.28"/>
	<path class="st1" d="M159.75,75.87c-0.16,0-0.28,0.13-0.28,0.28"/>
	<line class="st1" x1="159.47" y1="76.62" x2="159.47" y2="76.16"/>
	<path class="st1" d="M163.32,76.11c0.12,0,0.24-0.05,0.32-0.14"/>
	<path class="st1" d="M163.64,76.81c-0.08-0.09-0.2-0.14-0.32-0.14"/>
	<line class="st1" x1="161.53" y1="76.66" x2="163.32" y2="76.66"/>
	<line class="st1" x1="163.32" y1="76.11" x2="161.53" y2="76.11"/>
	<path class="st1" d="M161.53,76.11c-0.09,0-0.16,0.07-0.16,0.16"/>
	<line class="st1" x1="161.37" y1="76.51" x2="161.37" y2="76.27"/>
	<path class="st1" d="M163.56,75.87c0.1,0,0.2-0.02,0.3-0.06"/>
	<path class="st1" d="M163.85,76.97c-0.09-0.04-0.2-0.06-0.3-0.06"/>
	<line class="st1" x1="163.56" y1="75.87" x2="159.75" y2="75.87"/>
	<path class="st1" d="M163.55,76.9c0.28,0.31,0.77,0.33,1.07,0.04c0.31-0.29,0.33-0.77,0.04-1.08c-0.29-0.31-0.77-0.33-1.07-0.04
		c-0.02,0.01-0.03,0.03-0.04,0.04"/>
	<path class="st1" d="M163.64,76.81c0.23,0.26,0.63,0.29,0.89,0.05c0.26-0.23,0.28-0.63,0.05-0.89c-0.23-0.26-0.63-0.29-0.89-0.05
		c-0.02,0.02-0.04,0.03-0.05,0.05"/>
	<path class="st1" d="M161.37,76.51c0,0.09,0.07,0.16,0.16,0.16"/>
	<rect x="266.09" y="93.07" class="st1" width="12.83" height="44.9"/>
	<line class="st1" x1="154.21" y1="213.01" x2="154.21" y2="164.91"/>
	<rect x="152.61" y="164.91" class="st1" width="65.74" height="48.1"/>
	<path class="st1" d="M171.34,186.96c-3.66-1.07-7.56-1.07-11.22,0c0.8-6.66,0.8-13.39,0-20.04c3.67,1.07,7.56,1.07,11.22,0
		C170.54,173.57,170.54,180.3,171.34,186.96z"/>
	<path class="st1" d="M167.84,188.16c-4.21-1.07-8.62-1.07-12.83,0c1.07-7.44,1.07-15,0-22.45c4.21,1.07,8.62,1.07,12.83,0
		c-0.09,0.64-0.18,1.28-0.25,1.92"/>
	<path class="st1" d="M171.34,190.96c-3.66,1.07-7.56,1.07-11.22,0c0.8,6.66,0.8,13.39,0,20.04c3.67-1.07,7.56-1.07,11.22,0
		C170.54,204.35,170.54,197.62,171.34,190.96z"/>
	<path class="st1" d="M167.84,189.76c-4.21,1.07-8.62,1.07-12.83,0c1.07,7.44,1.07,15,0,22.45c4.21-1.07,8.62-1.07,12.83,0
		c-0.09-0.64-0.18-1.28-0.25-1.92"/>
	<line class="st1" x1="162.23" y1="164.91" x2="162.23" y2="166.5"/>
	<line class="st1" x1="172.65" y1="164.91" x2="172.65" y2="213.01"/>
	<line class="st1" x1="162.23" y1="187.37" x2="162.23" y2="190.55"/>
	<line class="st1" x1="162.23" y1="211.42" x2="162.23" y2="213.01"/>
	<path class="st1" d="M167.59,186.24c0.08,0.64,0.16,1.28,0.25,1.92"/>
	<path class="st1" d="M167.84,189.76c-0.09,0.64-0.18,1.28-0.25,1.92"/>
	<rect x="154.21" y="214.61" class="st1" width="12.83" height="13.63"/>
	<rect x="154.21" y="149.68" class="st1" width="12.83" height="13.63"/>
	<path class="st1" d="M155.86,221.43c0-2.63,2.13-4.77,4.77-4.77c2.63,0,4.77,2.14,4.77,4.77c0,2.63-2.13,4.77-4.77,4.77
		C157.99,226.2,155.86,224.06,155.86,221.43z"/>
	<path class="st1" d="M159.4,221.43c0-0.68,0.55-1.22,1.22-1.22c0.68,0,1.22,0.55,1.22,1.22c0,0.68-0.55,1.22-1.22,1.22
		C159.95,222.65,159.4,222.11,159.4,221.43z"/>
	<line class="st1" x1="160.63" y1="216.66" x2="160.63" y2="220.2"/>
	<line class="st1" x1="160.63" y1="222.65" x2="160.63" y2="226.2"/>
	<line class="st1" x1="165.39" y1="221.43" x2="161.85" y2="221.43"/>
	<line class="st1" x1="159.4" y1="221.43" x2="155.86" y2="221.43"/>
	<line class="st1" x1="171.45" y1="85.41" x2="171.45" y2="136.72"/>
	<line class="st1" x1="195.5" y1="136.72" x2="171.45" y2="136.72"/>
	<line class="st1" x1="195.5" y1="85.41" x2="171.45" y2="85.41"/>
	<line class="st1" x1="195.5" y1="88.61" x2="175.46" y2="88.61"/>
	<line class="st1" x1="174.66" y1="85.41" x2="174.66" y2="136.72"/>
	<line class="st1" x1="195.5" y1="85.41" x2="195.5" y2="136.72"/>
	<line class="st1" x1="195.5" y1="111.06" x2="176.26" y2="111.06"/>
	<line class="st1" x1="176.26" y1="88.61" x2="176.26" y2="133.51"/>
	<line class="st1" x1="175.46" y1="136.72" x2="175.46" y2="133.51"/>
	<line class="st1" x1="175.46" y1="85.41" x2="175.46" y2="88.61"/>
	<line class="st1" x1="195.5" y1="133.51" x2="175.46" y2="133.51"/>
	<rect x="208.33" y="96.63" class="st1" width="17.64" height="28.86"/>
	<rect x="258.07" y="162.54" class="st1" width="19.24" height="48.1"/>
	<rect x="270.99" y="176.97" class="st1" width="1.2" height="19.24"/>
	<rect x="260.34" y="178.69" class="st1" width="4.81" height="16.03"/>
	<polyline class="st1" points="272.19,189.59 273.99,189.59 273.99,183.58 272.19,183.58 	"/>
	<line class="st1" x1="250.85" y1="193.6" x2="258.07" y2="193.6"/>
	<polyline class="st1" points="270.99,183.58 269.18,183.58 269.18,189.59 270.99,189.59 	"/>
	<line class="st1" x1="250.85" y1="179.57" x2="258.07" y2="179.57"/>
	<rect x="249.65" y="178.77" class="st1" width="1.2" height="15.63"/>
	<path class="st1" d="M263.74,198.7c0.35-0.1,0.55-0.47,0.45-0.82c-0.1-0.35-0.46-0.55-0.81-0.46c-0.6,0.16-1.21,0.25-1.82,0.28
		c-0.29,0.01-0.51,0.26-0.5,0.55c0.01,0.21,0.15,0.4,0.36,0.47C262.17,198.98,262.99,198.97,263.74,198.7z"/>
	<path class="st1" d="M251.65,68.57c0-7.08,5.74-12.83,12.83-12.83c7.08,0,12.83,5.74,12.83,12.83c0,7.08-5.74,12.83-12.83,12.83
		C257.4,81.4,251.65,75.65,251.65,68.57z"/>
	<line class="st1" x1="253.15" y1="62.57" x2="249.31" y2="55.92"/>
	<line class="st1" x1="261.11" y1="49.11" x2="264.95" y2="55.75"/>
	<path class="st1" d="M261.49,49.76c-4.75,0.43-9.06,2.92-11.8,6.81"/>
	<path class="st1" d="M261.11,49.11c-4.75,0.43-9.06,2.92-11.8,6.81"/>
	<path class="st1" d="M262.62,51.71c-4.75,0.43-9.06,2.92-11.8,6.82"/>
	<line class="st1" x1="253.15" y1="74.57" x2="249.31" y2="81.22"/>
	<line class="st1" x1="261.11" y1="88.03" x2="264.95" y2="81.39"/>
	<path class="st1" d="M249.69,80.57c2.74,3.9,7.06,6.39,11.8,6.81"/>
	<path class="st1" d="M249.31,81.22c2.74,3.9,7.06,6.39,11.8,6.81"/>
	<path class="st1" d="M250.81,78.62c2.74,3.9,7.06,6.39,11.8,6.81"/>
	<path class="st1" d="M155.86,156.49c0-2.63,2.13-4.77,4.77-4.77c2.63,0,4.77,2.13,4.77,4.77c0,2.63-2.13,4.77-4.77,4.77
		C157.99,161.26,155.86,159.12,155.86,156.49z"/>
	<path class="st1" d="M159.4,156.49c0-0.68,0.55-1.22,1.22-1.22c0.68,0,1.22,0.55,1.22,1.22c0,0.68-0.55,1.22-1.22,1.22
		C159.95,157.72,159.4,157.17,159.4,156.49z"/>
	<line class="st1" x1="160.63" y1="161.26" x2="160.63" y2="157.72"/>
	<line class="st1" x1="160.63" y1="155.27" x2="160.63" y2="151.72"/>
	<line class="st1" x1="165.39" y1="156.49" x2="161.85" y2="156.49"/>
	<line class="st1" x1="159.4" y1="156.49" x2="155.86" y2="156.49"/>
	<rect x="274.9" y="98.68" class="st1" width="0.8" height="33.67"/>
	<polyline class="st1" points="274.9,120.33 271.7,120.33 271.7,110.71 274.9,110.71 	"/>
	<polyline class="st1" points="275.71,110.71 277.31,110.71 277.31,120.33 275.71,120.33 	"/>
	<rect x="25.64" y="10.45" class="st1" width="28.86" height="1.4"/>
	<path class="st1" d="M25.64,39.31c15.94,0,28.86-12.92,28.86-28.86"/>
	<rect x="283.42" y="239.2" class="st1" width="3.61" height="3.61"/>
	<rect x="281.82" y="239.2" class="st1" width="1.6" height="3.61"/>
	<rect x="244.4" y="239.2" class="st1" width="1.6" height="3.61"/>
	<line class="st1" x1="281.82" y1="242.01" x2="246.01" y2="242.01"/>
	<line class="st1" x1="281.82" y1="241.2" x2="246.01" y2="241.2"/>
	<line class="st1" x1="278.91" y1="234.69" x2="243.6" y2="234.69"/>
	<polyline class="st1" points="146.6,317.3 329.9,317.3 329.9,239.77 289.44,239.77 289.44,242.17 327.49,242.17 327.49,314.9 
		146.6,314.9 	"/>
	<rect x="242.8" y="239.2" class="st1" width="1.6" height="3.61"/>
	<rect x="213.92" y="239.2" class="st1" width="1.6" height="3.61"/>
	<rect x="146.6" y="244.41" class="st1" width="3.4" height="68.88"/>
	<line class="st1" x1="243.6" y1="234.69" x2="243.6" y2="239.2"/>
	<rect x="169.84" y="139.92" class="st1" width="36.36" height="1.1"/>
	<rect x="188.02" y="141.03" class="st1" width="36.35" height="1.1"/>
	<rect x="206.2" y="142.13" class="st1" width="36.35" height="1.1"/>
	<rect x="117.73" y="64.36" class="st1" width="1.4" height="27.26"/>
	<path class="st1" d="M117.73,91.62c15.05,0,27.26-12.2,27.26-27.26"/>
	<rect x="79.62" y="30.39" class="st1" width="23.4" height="1.4"/>
	<rect x="103.02" y="28.99" class="st1" width="23.4" height="1.4"/>
	<rect x="151.41" y="239.2" class="st1" width="1.6" height="3.61"/>
	<rect x="189.89" y="239.2" class="st1" width="1.6" height="3.61"/>
	<line class="st1" x1="153.01" y1="242.01" x2="189.89" y2="242.01"/>
	<line class="st1" x1="153.01" y1="241.2" x2="189.89" y2="241.2"/>
	<line class="st1" x1="152.31" y1="234.69" x2="190.69" y2="234.69"/>
	<rect x="283.42" y="237.6" class="st1" width="3.61" height="1.6"/>
	<rect x="283.42" y="142.43" class="st1" width="3.61" height="1.6"/>
	<rect x="283.42" y="193.59" class="st1" width="3.61" height="1.6"/>
	<line class="st1" x1="286.23" y1="237.6" x2="286.23" y2="195.19"/>
	<line class="st1" x1="285.43" y1="237.6" x2="285.43" y2="195.19"/>
	<rect x="283.42" y="155.11" class="st1" width="3.61" height="1.6"/>
	<line class="st1" x1="286.23" y1="193.59" x2="286.23" y2="156.71"/>
	<line class="st1" x1="285.43" y1="193.59" x2="285.43" y2="156.71"/>
	<line class="st1" x1="286.23" y1="155.11" x2="286.23" y2="144.03"/>
	<line class="st1" x1="285.43" y1="155.11" x2="285.43" y2="144.03"/>
	<line class="st1" x1="278.91" y1="234.69" x2="278.91" y2="143.23"/>
	<rect x="283.42" y="87.01" class="st1" width="3.61" height="1.6"/>
	<rect x="283.42" y="48.53" class="st1" width="3.61" height="1.6"/>
	<line class="st1" x1="286.23" y1="87.01" x2="286.23" y2="50.13"/>
	<line class="st1" x1="285.43" y1="87.01" x2="285.43" y2="50.13"/>
	<line class="st1" x1="278.91" y1="87.81" x2="278.91" y2="49.33"/>
	<rect x="215.53" y="242.81" class="st1" width="1.4" height="27.27"/>
	<path class="st1" d="M215.53,270.08c15.06,0,27.27-12.21,27.27-27.27"/>
	<line class="st1" x1="283.42" y1="239.2" x2="244.4" y2="239.2"/>
	<line class="st1" x1="283.42" y1="242.81" x2="244.4" y2="242.81"/>
	<line class="st1" x1="151.41" y1="239.2" x2="191.49" y2="239.2"/>
	<line class="st1" x1="151.41" y1="242.81" x2="191.49" y2="242.81"/>
	<line class="st1" x1="283.42" y1="239.2" x2="283.42" y2="142.43"/>
	<line class="st1" x1="287.03" y1="239.2" x2="287.03" y2="142.43"/>
	<line class="st1" x1="283.42" y1="88.61" x2="283.42" y2="48.53"/>
	<line class="st1" x1="287.03" y1="88.61" x2="287.03" y2="48.53"/>
	<line class="st1" x1="25.64" y1="10.45" x2="25.64" y2="39.31"/>
	<line class="st1" x1="18.82" y1="10.45" x2="18.82" y2="39.31"/>
	<path class="st1" d="M165.48,106.01c0,0.16-0.11,0.29-0.27,0.32l-2.37,0.45c-0.26,0.05-0.53-0.01-0.74-0.16
		c-0.36-0.26-0.68-0.58-0.94-0.94c-2.56,0.15-5.11,0.48-7.62,0.97c-0.81,0.18-1.63,0.27-2.46,0.27c-1.07,0-2.14-0.15-3.17-0.46
		c-0.89-0.27-1.74-0.68-2.5-1.23c-0.73-0.52-1.34-1.2-1.79-1.98c-0.37-0.64-0.56-1.36-0.56-2.1c0-0.74,0.19-1.46,0.56-2.1
		c0.45-0.78,1.06-1.45,1.79-1.98c0.76-0.54,1.6-0.96,2.5-1.22c1.03-0.31,2.1-0.46,3.17-0.46c0.83,0,1.65,0.09,2.46,0.28
		c2.52,0.5,5.06,0.82,7.62,0.97c0.26-0.36,0.58-0.68,0.94-0.94c0.21-0.15,0.48-0.21,0.74-0.16l2.37,0.45
		c0.15,0.03,0.27,0.17,0.27,0.32V106.01z"/>
	<polygon class="st1" points="114.73,64.36 117.73,64.36 117.73,91.62 119.14,91.62 119.14,64.36 117.73,64.36 117.73,62.51 
		144.99,62.51 144.99,64.36 148.1,64.36 148.1,88.41 166.14,88.41 166.14,112.26 162.83,112.26 162.83,113.93 119.81,113.93 
		136.03,104.56 135.73,104.04 118.6,113.93 114.73,113.93 	"/>
	<line class="st1" x1="215.53" y1="242.81" x2="242.8" y2="242.81"/>
	<line class="st1" x1="215.53" y1="239.2" x2="242.8" y2="239.2"/>
	<line class="st1" x1="124.35" y1="113.93" x2="124.35" y2="111.3"/>
	<line class="st1" x1="124.35" y1="110.61" x2="124.35" y2="62.51"/>
	<line class="st1" x1="133.97" y1="113.93" x2="133.97" y2="105.75"/>
	<line class="st1" x1="133.97" y1="105.06" x2="133.97" y2="62.51"/>
	<line class="st1" x1="143.59" y1="113.93" x2="143.59" y2="103.18"/>
	<line class="st1" x1="143.59" y1="99.16" x2="143.59" y2="62.51"/>
	<line class="st1" x1="153.21" y1="113.93" x2="153.21" y2="106.73"/>
	<line class="st1" x1="153.21" y1="95.61" x2="153.21" y2="88.41"/>
	<line class="st1" x1="162.83" y1="95.56" x2="162.83" y2="88.41"/>
	<line class="st1" x1="162.83" y1="112.26" x2="162.83" y2="106.78"/>
	<line class="st1" x1="166.14" y1="100.99" x2="165.49" y2="100.99"/>
	<line class="st1" x1="143.08" y1="100.99" x2="114.73" y2="100.99"/>
	<line class="st1" x1="148.1" y1="81.75" x2="119.14" y2="81.75"/>
	<line class="st1" x1="117.73" y1="81.75" x2="114.73" y2="81.75"/>
</g>
<line class="st2" x1="249.95" y1="27.78" x2="249.95" y2="9.45"/>
<line class="st2" x1="249.95" y1="9.44" x2="230.71" y2="9.44"/>
<line class="st2" x1="230.71" y1="9.44" x2="230.71" y2="27.78"/>
<line class="st2" x1="230.71" y1="26.98" x2="249.95" y2="26.98"/>
<line class="st2" x1="153.15" y1="17.36" x2="250.75" y2="17.36"/>
<line class="st2" x1="128.59" y1="15.76" x2="77.45" y2="15.76"/>
<g>
	<path class="st3" d="M275.71,221.86c0-5.31-4.31-9.62-9.62-9.62c-5.31,0-9.62,4.31-9.62,9.62c0,5.31,4.31,9.62,9.62,9.62
		C271.4,231.48,275.71,227.18,275.71,221.86"/>
	<path class="st1" d="M275.71,221.86c0-5.31-4.31-9.62-9.62-9.62c-5.31,0-9.62,4.31-9.62,9.62c0,5.31,4.31,9.62,9.62,9.62
		C271.4,231.48,275.71,227.18,275.71,221.86z"/>
	<polygon class="st3" points="277.41,7.74 277.41,24.48 278.91,24.48 278.91,49.33 283.42,49.33 283.42,48.53 287.03,48.53 
		287.03,23.68 291.44,23.68 291.44,0.12 18.82,0.12 18.82,10.45 25.64,10.45 25.64,7.74 73.74,7.74 73.74,31.79 79.62,31.79 
		79.62,28.08 77.45,28.08 77.45,7.74 128.59,7.74 128.59,28.08 126.42,28.08 126.42,31.79 132.3,31.79 132.3,7.74 	"/>
	<polygon class="st1" points="277.41,7.74 277.41,24.48 278.91,24.48 278.91,49.33 283.42,49.33 283.42,48.53 287.03,48.53 
		287.03,23.68 291.44,23.68 291.44,0.12 18.82,0.12 18.82,10.45 25.64,10.45 25.64,7.74 73.74,7.74 73.74,31.79 79.62,31.79 
		79.62,28.08 77.45,28.08 77.45,7.74 128.59,7.74 128.59,28.08 126.42,28.08 126.42,31.79 132.3,31.79 132.3,7.74 	"/>
	<polygon class="st3" points="18.82,68.27 18.82,39.31 25.64,39.31 25.64,60.65 117.73,60.65 117.73,64.36 114.73,64.36 
		114.73,139.52 162.83,139.52 162.83,112.26 166.14,112.26 166.14,64.36 144.99,64.36 144.99,60.65 169.84,60.65 169.84,143.23 
		152.61,143.23 152.61,234.69 152.31,234.69 152.31,239.2 151.41,239.2 151.41,242.81 144.99,242.81 144.99,147.14 107.11,147.14 
		107.11,68.27 	"/>
	<polygon class="st1" points="18.82,68.27 18.82,39.31 25.64,39.31 25.64,60.65 117.73,60.65 117.73,64.36 114.73,64.36 
		114.73,139.52 162.83,139.52 162.83,112.26 166.14,112.26 166.14,64.36 144.99,64.36 144.99,60.65 169.84,60.65 169.84,143.23 
		152.61,143.23 152.61,234.69 152.31,234.69 152.31,239.2 151.41,239.2 151.41,242.81 144.99,242.81 144.99,147.14 107.11,147.14 
		107.11,68.27 	"/>
	<polygon class="st3" points="191.49,242.81 191.49,239.2 190.69,239.2 190.69,234.69 214.72,234.69 214.72,239.2 213.92,239.2 
		213.92,242.81 	"/>
	<polygon class="st1" points="191.49,242.81 191.49,239.2 190.69,239.2 190.69,234.69 214.72,234.69 214.72,239.2 213.92,239.2 
		213.92,242.81 	"/>
	<polygon class="st3" points="278.91,143.23 283.42,143.23 283.42,142.43 291.1,142.43 291.1,88.61 283.42,88.61 283.42,87.61 
		278.91,87.61 	"/>
	<polygon class="st1" points="278.91,143.23 283.42,143.23 283.42,142.43 291.1,142.43 291.1,88.61 283.42,88.61 283.42,87.61 
		278.91,87.61 	"/>
</g>
<g>
	<path class="st4" d="M143.96,17.02h-1.99v1.17h1.78v0.34h-1.78v1.43h-0.37v-3.28h2.36V17.02z"/>
</g>
<g>
	<path class="st4" d="M237.5,21.07h-1.14v-3.28h1.14c1.03,0,1.74,0.71,1.74,1.63C239.25,20.35,238.54,21.07,237.5,21.07z
		 M237.5,18.13h-0.77v2.6h0.77c0.83,0,1.36-0.56,1.36-1.29S238.33,18.13,237.5,18.13z"/>
	<path class="st4" d="M241.94,17.78h0.3l0.9,2.74l0.94-2.73h0.39l-1.17,3.3h-0.31l-0.9-2.66l-0.9,2.66h-0.31l-1.17-3.3h0.4
		l0.94,2.73L241.94,17.78z"/>
</g>
<g>
	<path class="st4" d="M260.97,17.15h0.3l0.9,2.74l0.94-2.73h0.39l-1.17,3.3h-0.31l-0.9-2.66l-0.9,2.66h-0.31l-1.17-3.3h0.4
		l0.94,2.73L260.97,17.15z"/>
	<path class="st4" d="M265.73,16.7l-2.17,4.34h-0.33l2.17-4.34H265.73z"/>
	<path class="st4" d="M267.4,20.43h-1.14v-3.28h1.14c1.03,0,1.74,0.71,1.74,1.63C269.14,19.72,268.43,20.43,267.4,20.43z
		 M267.4,17.5h-0.77v2.6h0.77c0.83,0,1.36-0.56,1.36-1.29S268.22,17.5,267.4,17.5z"/>
</g>
<g>
	<path class="st4" d="M228.77,278.8c0,0.43-0.26,0.65-0.52,0.76c0.39,0.12,0.7,0.34,0.7,0.8c0,0.57-0.47,0.9-1.19,0.9h-1.46v-3.28
		h1.4C228.35,277.98,228.77,278.3,228.77,278.8z M228.39,278.85c0-0.33-0.26-0.54-0.73-0.54h-1v1.13h0.97
		C228.08,279.44,228.39,279.24,228.39,278.85z M228.58,280.34c0-0.36-0.3-0.57-0.87-0.57h-1.04v1.16h1.1
		C228.27,280.93,228.58,280.71,228.58,280.34z"/>
	<path class="st4" d="M232.83,281.26h-0.4l-0.38-0.87h-1.78l-0.39,0.87h-0.38l1.49-3.3h0.35L232.83,281.26z M231.16,278.39
		l-0.75,1.67h1.49L231.16,278.39z"/>
	<path class="st4" d="M233.56,277.98h0.37v2.94h1.85v0.34h-2.22V277.98z"/>
	<path class="st4" d="M237.87,281.32c-0.95,0-1.64-0.75-1.64-1.69c0-0.94,0.69-1.7,1.66-1.7c0.59,0,0.95,0.21,1.28,0.52l-0.25,0.27
		c-0.28-0.26-0.59-0.45-1.03-0.45c-0.73,0-1.27,0.58-1.27,1.35s0.55,1.36,1.27,1.36c0.45,0,0.74-0.17,1.06-0.47l0.24,0.24
		C238.84,281.09,238.46,281.32,237.87,281.32z"/>
	<path class="st4" d="M241.34,281.32c-1,0-1.67-0.78-1.67-1.69c0-0.91,0.68-1.7,1.68-1.7c1,0,1.67,0.78,1.67,1.69
		C243.02,280.53,242.34,281.32,241.34,281.32z M241.34,278.27c-0.75,0-1.28,0.6-1.28,1.35c0,0.75,0.54,1.36,1.29,1.36
		s1.28-0.6,1.28-1.35C242.63,278.88,242.09,278.27,241.34,278.27z"/>
	<path class="st4" d="M246.3,277.98h0.36v3.28h-0.29l-2.12-2.69v2.69h-0.36v-3.28h0.35l2.07,2.63V277.98z"/>
	<path class="st4" d="M249.08,281.26h-0.37v-1.3l-1.36-1.98h0.45l1.11,1.64l1.11-1.64h0.43l-1.36,1.98V281.26z"/>
</g>
<g>
	<path class="st4" d="M2.37,24.35h-2v1.12h1.79v0.34H0.37v1.15h2.02v0.34H0v-3.28h2.37V24.35z"/>
	<path class="st4" d="M5.64,24.01H6v3.28H5.71L3.59,24.6v2.69H3.23v-3.28h0.35l2.07,2.63V24.01z"/>
	<path class="st4" d="M8.26,27.29H7.88v-2.94h-1.1v-0.34h2.58v0.34h-1.1V27.29z"/>
	<path class="st4" d="M12.4,27.29l-0.95-1.27h-0.94v1.27h-0.37v-3.28h1.41c0.72,0,1.19,0.39,1.19,0.98c0,0.55-0.38,0.87-0.89,0.96
		l1.01,1.34H12.4z M11.52,24.35h-1.01v1.33h1.01c0.49,0,0.84-0.25,0.84-0.68C12.36,24.6,12.05,24.35,11.52,24.35z"/>
	<path class="st4" d="M14.91,27.29h-0.37v-1.3l-1.36-1.98h0.45l1.11,1.64l1.11-1.64h0.43l-1.36,1.98V27.29z"/>
</g>
<g>
	<path class="st4" d="M129.33,93.72c0,0.43-0.26,0.65-0.52,0.76c0.39,0.12,0.7,0.34,0.7,0.8c0,0.57-0.47,0.9-1.19,0.9h-1.46V92.9
		h1.4C128.91,92.9,129.33,93.22,129.33,93.72z M128.95,93.77c0-0.33-0.26-0.54-0.73-0.54h-1v1.13h0.97
		C128.64,94.36,128.95,94.16,128.95,93.77z M129.14,95.26c0-0.36-0.3-0.57-0.87-0.57h-1.04v1.16h1.1
		C128.83,95.85,129.14,95.63,129.14,95.26z"/>
	<path class="st4" d="M133.39,96.18h-0.4l-0.38-0.87h-1.78l-0.39,0.87h-0.38l1.49-3.3h0.35L133.39,96.18z M131.72,93.31l-0.75,1.67
		h1.49L131.72,93.31z"/>
	<path class="st4" d="M134.95,96.18h-0.37v-2.94h-1.1V92.9h2.58v0.34h-1.1V96.18z"/>
	<path class="st4" d="M137.2,94.7v1.48h-0.37V92.9h0.37v1.46h1.89V92.9h0.37v3.28h-0.37V94.7H137.2z"/>
</g>
<g>
	<path class="st4" d="M192.79,46.23h-0.46l-1.26-1.59l-0.7,0.71v0.88H190v-3.28h0.37v1.96l1.88-1.96h0.48l-1.41,1.43L192.79,46.23z"
		/>
	<path class="st4" d="M193.86,42.95v3.28h-0.37v-3.28H193.86z"/>
	<path class="st4" d="M196.15,46.23h-0.37v-2.94h-1.1v-0.34h2.58v0.34h-1.1V46.23z"/>
	<path class="st4" d="M199.31,46.29c-0.95,0-1.64-0.75-1.64-1.69c0-0.94,0.69-1.7,1.66-1.7c0.59,0,0.95,0.21,1.28,0.52l-0.25,0.27
		c-0.28-0.26-0.59-0.45-1.03-0.45c-0.73,0-1.27,0.58-1.27,1.35s0.55,1.36,1.27,1.36c0.45,0,0.74-0.17,1.06-0.47l0.24,0.24
		C200.28,46.06,199.91,46.29,199.31,46.29z"/>
	<path class="st4" d="M201.73,44.76v1.48h-0.37v-3.28h0.37v1.46h1.89v-1.46h0.37v3.28h-0.37v-1.48H201.73z"/>
	<path class="st4" d="M207.38,43.29h-2v1.12h1.79v0.34h-1.79v1.15h2.02v0.34h-2.39v-3.28h2.37V43.29z"/>
	<path class="st4" d="M210.65,42.95h0.36v3.28h-0.29l-2.12-2.69v2.69h-0.36v-3.28h0.35l2.07,2.63V42.95z"/>
</g>
<g>
	<path class="st4" d="M185.06,188.92c0,0.43-0.26,0.65-0.52,0.76c0.39,0.12,0.7,0.34,0.7,0.8c0,0.57-0.47,0.9-1.19,0.9h-1.46v-3.28
		h1.4C184.64,188.1,185.06,188.41,185.06,188.92z M184.69,188.97c0-0.33-0.26-0.54-0.73-0.54h-1v1.13h0.97
		C184.38,189.56,184.69,189.36,184.69,188.97z M184.87,190.45c0-0.36-0.3-0.57-0.87-0.57h-1.04v1.16h1.1
		C184.56,191.04,184.87,190.82,184.87,190.45z"/>
	<path class="st4" d="M188.44,188.43h-2v1.12h1.79v0.34h-1.79v1.15h2.02v0.34h-2.39v-3.28h2.37V188.43z"/>
	<path class="st4" d="M190.44,191.37h-1.14v-3.28h1.14c1.03,0,1.74,0.71,1.74,1.63C192.18,190.66,191.47,191.37,190.44,191.37z
		 M190.44,188.44h-0.77v2.6h0.77c0.83,0,1.36-0.56,1.36-1.29S191.26,188.44,190.44,188.44z"/>
	<path class="st4" d="M195.31,191.37l-0.95-1.27h-0.94v1.27h-0.37v-3.28h1.41c0.72,0,1.19,0.39,1.19,0.98
		c0,0.55-0.38,0.87-0.89,0.96l1.01,1.34H195.31z M194.43,188.44h-1.01v1.33h1.01c0.49,0,0.84-0.25,0.84-0.68
		C195.27,188.68,194.96,188.44,194.43,188.44z"/>
	<path class="st4" d="M198.05,191.43c-1,0-1.67-0.78-1.67-1.69c0-0.91,0.68-1.7,1.68-1.7c1,0,1.67,0.78,1.67,1.69
		C199.72,190.64,199.05,191.43,198.05,191.43z M198.05,188.38c-0.75,0-1.28,0.6-1.28,1.35c0,0.75,0.54,1.36,1.29,1.36
		s1.28-0.6,1.28-1.35C199.34,188.99,198.8,188.38,198.05,188.38z"/>
	<path class="st4" d="M202.12,191.43c-1,0-1.67-0.78-1.67-1.69c0-0.91,0.68-1.7,1.68-1.7c1,0,1.67,0.78,1.67,1.69
		C203.79,190.64,203.12,191.43,202.12,191.43z M202.12,188.38c-0.75,0-1.28,0.6-1.28,1.35c0,0.75,0.54,1.36,1.29,1.36
		s1.28-0.6,1.28-1.35C203.41,188.99,202.87,188.38,202.12,188.38z"/>
	<path class="st4" d="M206.24,190.47h-0.02l-1.19-1.75v2.65h-0.36v-3.28h0.37l1.19,1.79l1.19-1.79h0.38v3.28h-0.37v-2.66
		L206.24,190.47z"/>
</g>
<g>
	<path class="st4" d="M209.08,109.39h0.37v2.94h1.85v0.34h-2.22V109.39z"/>
	<path class="st4" d="M212.47,109.39v3.28h-0.37v-3.28H212.47z"/>
	<path class="st4" d="M216,109.39h0.4l-1.41,3.3h-0.33l-1.41-3.3h0.41l1.17,2.83L216,109.39z"/>
	<path class="st4" d="M217.53,109.39v3.28h-0.37v-3.28H217.53z"/>
	<path class="st4" d="M221,109.39h0.36v3.28h-0.29l-2.12-2.69v2.69h-0.36v-3.28h0.35l2.07,2.63V109.39z"/>
	<path class="st4" d="M223.9,112.73c-1.03,0-1.67-0.75-1.67-1.69c0-0.9,0.66-1.7,1.64-1.7c0.55,0,0.89,0.16,1.22,0.44l-0.24,0.28
		c-0.25-0.22-0.53-0.38-1-0.38c-0.73,0-1.25,0.61-1.25,1.35c0,0.79,0.5,1.37,1.3,1.37c0.37,0,0.72-0.15,0.95-0.33v-0.81h-1v-0.33
		h1.35v1.31C224.91,112.5,224.45,112.73,223.9,112.73z"/>
</g>
<g>
	<path class="st4" d="M257.08,70.99h-1.14v-3.28h1.14c1.03,0,1.74,0.71,1.74,1.63C258.82,70.27,258.11,70.99,257.08,70.99z
		 M257.08,68.05h-0.77v2.6h0.77c0.83,0,1.36-0.56,1.36-1.29S257.91,68.05,257.08,68.05z"/>
	<path class="st4" d="M260.1,67.71v3.28h-0.37v-3.28H260.1z"/>
	<path class="st4" d="M263.56,67.71h0.36v3.28h-0.29l-2.12-2.69v2.69h-0.36v-3.28h0.35l2.07,2.63V67.71z"/>
	<path class="st4" d="M265.34,67.71v3.28h-0.37v-3.28H265.34z"/>
	<path class="st4" d="M268.81,67.71h0.36v3.28h-0.29l-2.12-2.69v2.69h-0.36v-3.28h0.35l2.07,2.63V67.71z"/>
	<path class="st4" d="M271.7,71.04c-1.03,0-1.67-0.75-1.67-1.69c0-0.9,0.66-1.7,1.64-1.7c0.55,0,0.89,0.16,1.22,0.44l-0.24,0.28
		c-0.25-0.22-0.53-0.38-1-0.38c-0.73,0-1.25,0.61-1.25,1.35c0,0.79,0.5,1.37,1.3,1.37c0.37,0,0.72-0.15,0.95-0.33v-0.81h-1v-0.33
		h1.35v1.31C272.72,70.81,272.26,71.04,271.7,71.04z"/>
</g>
</svg>
