<svg width="252" height="277" viewBox="0 0 252 277" fill="none" xmlns="http://www.w3.org/2000/svg">
<g clip-path="url(#clip0_0_1)">
<path d="M199.3 57.8V57.9H93.1L93 57.8V53.7H71.6V57.3L72 56.6H72.1H72.2L90.9 67.4V67.5L90.3 68.6L90.1 68.7L71.4 57.9H67V60.6L88.1 72.8H88.2V72.9L87.6 74L87.4 74.1L66.2 61.8V61.7L66.7 60.8H65.3V85H66.9H67V85.1V115.3V115.4L66.9 115.5H54.2V132.5H55.2V112L55.3 111.9H55.4H63.4V104.9H12.8V111.9H20.8H20.9V112V132.5H22V115.5H12.8V189.4H114.7V184V183.9H114.8H129.1V175.3L129.2 175.2H169.5L169.6 175.3V183.9H183.8V172.6L183.9 172.5H236.9V136.6H199.3H199.2V136.5V107.3V107.2H199.3H205.2L204.7 106.3V106.1L225.9 93.9L226 93.8L226.1 93.9L226.7 95V95.1V95.2L205.5 107.4V109.7H208.2L219.4 103.2L219.6 103.3L220.2 104.4V104.5L209 111H208.8L208.4 110.3V113.1V113.2L208.3 113.3H205.5V120.2H236.9V113.3H234.2L234.1 113.2V113.1V110.3L233.7 111H233.5L222.3 104.5L222.2 104.4L222.9 103.3L223 103.2L234.2 109.7H236.9V72.5H208.2V73.8V73.9H208.1H207H206.9V73.8V72.5H205.4L205.3 72.4V72.3V65.1L205.4 65H206.9V63.7V63.6H207H208.1H208.2V63.7V65H236.9V23.6H234.8H234.7V23.5V20.1H233.5V44.4V44.5L233.4 44.6H232.1L232 44.5V44.4V20.1H207.6V23.5V23.6H207.5H183.3V26.2H206.1V25.1H179.9H179.8V25V23.6H149.5V49.2H179.8V48L179.9 47.9H183.2L183.3 48V49.2H205.4H205.5V49.3V82.8V82.9H205.4H199.3H199.2V82.8V57.8H199.3V57.9V57.8H199.4V82.7H205.3V49.4H183.2H183.1V49.3V48.2H180V49.3V49.4H179.9H149.4H149.3L149.2 49.3V23.5L149.3 23.4H149.4H179.9H180V23.5V24.9H206.3L206.4 25V26.3L206.3 26.4H183.2H183.1V26.3V23.5V23.4H183.2H207.4V20V19.9H207.5H232.1H232.2V20V44.3H233.3V20V19.9H233.4H234.8H234.9V20V23.4H237.1H237.2V23.5V65.1V65.2L237.1 65.3H208.1L208 65.2V65.1V63.8H207.1V65.1V65.2L207 65.3H205.5V72.2H207L207.1 72.3V73.7H208V72.3L208.1 72.2H237.1L237.2 72.3V109.8V109.9H237.1H234.2H234.1L223 103.5L222.5 104.4L233.5 110.7L234.1 109.7H234.2L234.3 109.8V113H237.1H237.2V113.1V120.3V120.4L237.1 120.5H205.4L205.3 120.4V120.3V113.1V113H205.4H208.2V109.8V109.7H208.4L209 110.7L220 104.4L219.5 103.5L208.3 109.9H205.4H205.3V109.8V107.3V107.2L226.4 95L225.9 94.1L204.9 106.2L205.5 107.2V107.3L205.4 107.4H199.4V136.4H237.1H237.2V136.5V172.6V172.7L237.1 172.8H184V184V184.1H183.9H169.5H169.4V184V175.5H129.3V184V184.1H129.2H114.9V189.6L114.8 189.7H12.7L12.6 189.6V115.3V115.2H12.7H22.1H22.2V115.3V132.6V132.7H22.1H20.8H20.7V132.6V112.1H12.7H12.6V112V104.8V104.7H12.7H63.6L63.7 104.8V112L63.6 112.1H55.5V132.6L55.4 132.7H54.1H54V132.6V115.3V115.2H54.1H66.8V85.2H65.2H65.1V85.1V60.6L65.2 60.5H66.9L67 60.6V60.7L66.4 61.7L87.4 73.8L87.9 72.9L66.8 60.7V60.6V57.8V57.7L66.9 57.6H71.5V57.7L90.1 68.4L90.6 67.5L72.2 56.8L71.6 57.8L71.5 57.9L71.4 57.8V53.5L71.5 53.4H93.1L93.2 53.5V57.6H199.3L199.4 57.7V57.8H199.3Z" fill="#99A4B3"/>
<path d="M79.4 181.2L71.7 173.6V173.4L86.9 158.2H87.1L94.7 165.8C96.8 167.9 97.9 170.7 97.9 173.5C97.9 176.3 96.8 179.1 94.7 181.2C92.6 183.3 89.8 184.4 87 184.4C84.2 184.5 81.4 183.4 79.4 181.2C81.6 183.2 84.3 184.2 87 184.2C89.7 184.2 92.5 183.2 94.5 181.1C96.6 179 97.6 176.3 97.6 173.6C97.6 170.9 96.6 168.1 94.5 166.1L86.9 158.6L71.8 173.7L79.4 181.2Z" fill="#99A4B3"/>
<path d="M14.1 188.1H14V142.1V142L14.1 141.9H31.4L31.5 142V142.1V158.7H37.8V158.1V158H37.9H39L39.1 158.1V172.1L39 172.2H37.9H37.8V172.1V171.5H31.5V188.1V188.2H31.4H14.1H14V188.1H14.1V188H31.3V171.4V171.3H31.4H37.9H38V171.4V172H38.8V158.2H38V158.8V158.9H37.9H31.4H31.3V158.8V142.2H14.3V188.1H14.1V188V188.1Z" fill="#99A4B3"/>
<path d="M107.5 59.2V59.1H167.9H168V59.2V82.2V82.3L167.9 82.4H107.5L107.4 82.3L107.3 82.2V59.2L107.4 59.1H107.5V59.2H107.6V82.1H167.8V59.3H107.5V59.2H107.6H107.5Z" fill="#99A4B3"/>
<path d="M125.5 95.2V95.1H149.9H150V95.2V111L149.9 111.1H125.5L125.4 111V95.2V95.1H125.5V95.2H125.6V110.8H149.8V95.3H125.5V95.2H125.6H125.5Z" fill="#99A4B3"/>
<path d="M169.4 60.6V60.5H183.8L183.9 60.6V80.8V80.9H183.8H169.4H169.3L169.2 80.8V60.6H169.3L169.4 60.5V60.6H169.5V80.7H183.7V60.8H169.4V60.6H169.5H169.4Z" fill="#99A4B3"/>
<path d="M107.8 131.3H107.7L110.5 120.9L110.6 120.8H110.7L131.6 126.4L131.7 126.5V126.6L128.9 137C127.6 141.9 123.2 145.1 118.4 145.1C117.5 145.1 116.5 145 115.6 144.7C110.7 143.4 107.5 139 107.5 134.2C107.5 133.3 107.6 132.3 107.9 131.4L107.8 131.3H107.9C107.7 132.2 107.5 133.2 107.5 134.1C107.5 138.8 110.6 143.1 115.4 144.4C116.3 144.6 117.3 144.8 118.2 144.8C122.9 144.8 127.2 141.7 128.5 136.9L131.3 126.6L110.7 121.1L107.9 131.4L107.8 131.3Z" fill="#99A4B3"/>
<path d="M167.6 131.3H167.5L164.7 121L144.1 126.5L146.9 136.8C148.2 141.6 152.5 144.7 157.2 144.7C158.1 144.7 159 144.6 160 144.3C164.8 143 167.9 138.7 167.9 134C167.9 133.1 167.8 132.2 167.5 131.2L167.6 131.3H167.7C168 132.2 168.1 133.2 168.1 134.1C168.1 138.9 164.9 143.3 160 144.6C159.1 144.9 158.1 145 157.2 145C152.4 145 148 141.8 146.7 136.9L143.9 126.5L144 126.4L164.9 120.8H165L165.1 120.9L167.9 131.3H167.6Z" fill="#99A4B3"/>
<path d="M15.6 189.6V188.1L15.8 188L15.9 188.1V189.6L15.8 189.7L15.6 189.6Z" fill="#99A4B3"/>
<path d="M15.6 112V104.8L15.8 104.7L15.9 104.8V112L15.8 112.1L15.6 112Z" fill="#99A4B3"/>
<path d="M15.6 142.1V115.3L15.8 115.2L15.9 115.3V142.1L15.8 142.2L15.6 142.1Z" fill="#99A4B3"/>
<path d="M21 189.6V188.1L21.1 188L21.3 188.1V189.6L21.1 189.7L21 189.6Z" fill="#99A4B3"/>
<path d="M21 115.3V104.8L21.1 104.7L21.3 104.8V115.3L21.1 115.5L21 115.3Z" fill="#99A4B3"/>
<path d="M21 142.1V132.6L21.1 132.5L21.3 132.6V142.1L21.1 142.2L21 142.1Z" fill="#99A4B3"/>
<path d="M26.4 189.6V188.1L26.5 188L26.7 188.1V189.6L26.5 189.7L26.4 189.6Z" fill="#99A4B3"/>
<path d="M26.4 142.1V104.8L26.5 104.7L26.7 104.8V142.1L26.5 142.2L26.4 142.1Z" fill="#99A4B3"/>
<path d="M31.8 189.6V171.4L31.9 171.3L32.1 171.4V189.6L31.9 189.7L31.8 189.6Z" fill="#99A4B3"/>
<path d="M31.8 158.8V104.8L31.9 104.7L32.1 104.8V158.8L31.9 158.9L31.8 158.8Z" fill="#99A4B3"/>
<path d="M37.2 189.6V171.4L37.3 171.3L37.5 171.4V189.6L37.3 189.7L37.2 189.6Z" fill="#99A4B3"/>
<path d="M37.2 158.8V104.8L37.3 104.7L37.5 104.8V158.8L37.3 158.9L37.2 158.8Z" fill="#99A4B3"/>
<path d="M42.6 189.6V104.8L42.7 104.7L42.9 104.8V189.6L42.7 189.7L42.6 189.6Z" fill="#99A4B3"/>
<path d="M48 189.6V104.8L48.1 104.7L48.3 104.8V189.6L48.1 189.7L48 189.6Z" fill="#99A4B3"/>
<path d="M53.4 189.6V104.8L53.5 104.7L53.7 104.8V189.6L53.5 189.7L53.4 189.6Z" fill="#99A4B3"/>
<path d="M58.8 189.6V115.3L58.9 115.2L59.1 115.3V189.6L58.9 189.7L58.8 189.6Z" fill="#99A4B3"/>
<path d="M58.8 112V104.8L58.9 104.7L59.1 104.8V112L58.9 112.1L58.8 112Z" fill="#99A4B3"/>
<path d="M64.2 189.6V115.3L64.3 115.2L64.5 115.3V189.6L64.3 189.7L64.2 189.6Z" fill="#99A4B3"/>
<path d="M69.6 189.6V63.7L69.7 63.6L69.9 63.7V189.6L69.7 189.7L69.6 189.6Z" fill="#99A4B3"/>
<path d="M69.6 62.3V57.8L69.7 57.6L69.9 57.8V62.3L69.7 62.4L69.6 62.3Z" fill="#99A4B3"/>
<path d="M75 189.6V176.9L75.1 176.8L75.2 176.9V189.6L75.1 189.7L75 189.6Z" fill="#99A4B3"/>
<path d="M75 58.4V53.5L75.1 53.4L75.2 53.5V58.4L75.1 58.5L75 58.4Z" fill="#99A4B3"/>
<path d="M75 170.2V66.9L75.1 66.7L75.2 66.9V170.2L75.1 170.3L75 170.2Z" fill="#99A4B3"/>
<path d="M75 65.4V59.9L75.1 59.7L75.2 59.9V65.4L75.1 65.5L75 65.4Z" fill="#99A4B3"/>
<path d="M80.4 189.6V182.2L80.5 182.1L80.6 182.2V189.6L80.5 189.7L80.4 189.6Z" fill="#99A4B3"/>
<path d="M80.4 61.5V53.5L80.5 53.4L80.6 53.5V61.5L80.5 61.7L80.4 61.5Z" fill="#99A4B3"/>
<path d="M80.4 164.8V70L80.5 69.8L80.6 70V164.8L80.5 164.9L80.4 164.8Z" fill="#99A4B3"/>
<path d="M80.4 68.5V63L80.5 62.9L80.6 63V68.5L80.5 68.6L80.4 68.5Z" fill="#99A4B3"/>
<path d="M85.8 189.6V184.3L85.9 184.2L86 184.3V189.6L85.9 189.7L85.8 189.6Z" fill="#99A4B3"/>
<path d="M85.8 64.6V53.5L85.9 53.4L86 53.5V64.6L85.9 64.8L85.8 64.6Z" fill="#99A4B3"/>
<path d="M85.8 159.4V73.1L85.9 73L86 73.1V159.4L85.9 159.5L85.8 159.4Z" fill="#99A4B3"/>
<path d="M85.8 71.6V66.1L85.9 66L86 66.1V71.6L85.9 71.7L85.8 71.6Z" fill="#99A4B3"/>
<path d="M91.2 189.6V183.5L91.3 183.3L91.4 183.5V189.6L91.3 189.7L91.2 189.6Z" fill="#99A4B3"/>
<path d="M91.2 162.6V53.5L91.3 53.4L91.4 53.5V162.6L91.3 162.7L91.2 162.6Z" fill="#99A4B3"/>
<path d="M96.6 189.6V178.3L96.7 178.2L96.8 178.3V189.6L96.7 189.7L96.6 189.6Z" fill="#99A4B3"/>
<path d="M96.6 168.8V57.8L96.7 57.6L96.8 57.8V168.8L96.7 169L96.6 168.8Z" fill="#99A4B3"/>
<path d="M102 189.6V57.8L102.1 57.6L102.2 57.8V189.6L102.1 189.7L102 189.6Z" fill="#99A4B3"/>
<path d="M107.4 189.6V135.1L107.5 135L107.6 135.1V189.6L107.5 189.7L107.4 189.6Z" fill="#99A4B3"/>
<path d="M107.4 59.2V57.8L107.5 57.6L107.6 57.8V59.2L107.5 59.3L107.4 59.2Z" fill="#99A4B3"/>
<path d="M107.4 133V82.2L107.5 82.1L107.6 82.2V133L107.5 133.2L107.4 133Z" fill="#99A4B3"/>
<path d="M112.8 189.6V143.4L112.9 143.3L113 143.4V189.6L112.9 189.7L112.8 189.6Z" fill="#99A4B3"/>
<path d="M112.8 59.2V57.8L112.9 57.6L113 57.8V59.2L112.9 59.3L112.8 59.2Z" fill="#99A4B3"/>
<path d="M112.8 121.5V82.2L112.9 82.1L113 82.2V121.5L112.9 121.6L112.8 121.5Z" fill="#99A4B3"/>
<path d="M118.2 184V144.9L118.3 144.7L118.4 144.9V184L118.3 184.1L118.2 184Z" fill="#99A4B3"/>
<path d="M118.2 59.2V57.8L118.3 57.6L118.4 57.8V59.2L118.3 59.3L118.2 59.2Z" fill="#99A4B3"/>
<path d="M118.2 122.9V82.2L118.3 82.1L118.4 82.2V122.9L118.3 123L118.2 122.9Z" fill="#99A4B3"/>
<path d="M123.6 184V143.4L123.7 143.3L123.8 143.4V184L123.7 184.1L123.6 184Z" fill="#99A4B3"/>
<path d="M123.6 59.2V57.8L123.7 57.6L123.8 57.8V59.2L123.7 59.3L123.6 59.2Z" fill="#99A4B3"/>
<path d="M123.6 124.3V82.2L123.7 82.1L123.8 82.2V124.3L123.7 124.5L123.6 124.3Z" fill="#99A4B3"/>
<path d="M129 184V135.3L129.1 135.2L129.2 135.3V184L129.1 184.1L129 184Z" fill="#99A4B3"/>
<path d="M129 59.2V57.8L129.1 57.6L129.2 57.8V59.2L129.1 59.3L129 59.2Z" fill="#99A4B3"/>
<path d="M129 125.8V111L129.1 110.8L129.2 111V125.8L129.1 125.9L129 125.8Z" fill="#99A4B3"/>
<path d="M129 95.2V82.2L129.1 82.1L129.2 82.2V95.2L129.1 95.3L129 95.2Z" fill="#99A4B3"/>
<path d="M134.4 175.3V111L134.5 110.8L134.6 111V175.3L134.5 175.5L134.4 175.3Z" fill="#99A4B3"/>
<path d="M134.4 59.2V57.8L134.5 57.6L134.6 57.8V59.2L134.5 59.3L134.4 59.2Z" fill="#99A4B3"/>
<path d="M134.4 95.2V82.2L134.5 82.1L134.6 82.2V95.2L134.5 95.3L134.4 95.2Z" fill="#99A4B3"/>
<path d="M139.8 175.3V111L139.9 110.8L140 111V175.3L139.9 175.5L139.8 175.3Z" fill="#99A4B3"/>
<path d="M139.8 59.2V57.8L139.9 57.6L140 57.8V59.2L139.9 59.3L139.8 59.2Z" fill="#99A4B3"/>
<path d="M139.8 95.2V82.2L139.9 82.1L140 82.2V95.2L139.9 95.3L139.8 95.2Z" fill="#99A4B3"/>
<path d="M145.2 175.3V131.6L145.3 131.5L145.4 131.6V175.3L145.3 175.5L145.2 175.3Z" fill="#99A4B3"/>
<path d="M145.2 59.2V57.8L145.3 57.6L145.4 57.8V59.2L145.3 59.3L145.2 59.2Z" fill="#99A4B3"/>
<path d="M145.2 126.1V111L145.3 110.8L145.4 111V126.1L145.3 126.2L145.2 126.1Z" fill="#99A4B3"/>
<path d="M145.2 95.2V82.2L145.3 82.1L145.4 82.2V95.2L145.3 95.3L145.2 95.2Z" fill="#99A4B3"/>
<path d="M150.6 175.3V142.7L150.7 142.6L150.8 142.7V175.3L150.7 175.5L150.6 175.3Z" fill="#99A4B3"/>
<path d="M150.6 49.3V23.5L150.7 23.4L150.8 23.5V49.3L150.7 49.4L150.6 49.3Z" fill="#99A4B3"/>
<path d="M150.6 124.6V82.2L150.7 82.1L150.8 82.2V124.6L150.7 124.7L150.6 124.6Z" fill="#99A4B3"/>
<path d="M150.6 59.2V57.8L150.7 57.6L150.8 57.8V59.2L150.7 59.3L150.6 59.2Z" fill="#99A4B3"/>
<path d="M156 175.3V144.8L156.1 144.7L156.2 144.8V175.3L156.1 175.5L156 175.3Z" fill="#99A4B3"/>
<path d="M156 49.3V23.5L156.1 23.4L156.2 23.5V49.3L156.1 49.4L156 49.3Z" fill="#99A4B3"/>
<path d="M156 123.2V82.2L156.1 82.1L156.2 82.2V123.2L156.1 123.3L156 123.2Z" fill="#99A4B3"/>
<path d="M156 59.2V57.8L156.1 57.6L156.2 57.8V59.2L156.1 59.3L156 59.2Z" fill="#99A4B3"/>
<path d="M161.4 175.3V143.9L161.5 143.8L161.6 143.9V175.3L161.5 175.5L161.4 175.3Z" fill="#99A4B3"/>
<path d="M161.4 49.3V23.5L161.5 23.4L161.6 23.5V49.3L161.5 49.4L161.4 49.3Z" fill="#99A4B3"/>
<path d="M161.4 121.7V82.2L161.5 82.1L161.6 82.2V121.7L161.5 121.8L161.4 121.7Z" fill="#99A4B3"/>
<path d="M161.4 59.2V57.8L161.5 57.6L161.6 57.8V59.2L161.5 59.3L161.4 59.2Z" fill="#99A4B3"/>
<path d="M166.8 175.3V138.7L166.9 138.5L167 138.7V175.3L166.9 175.5L166.8 175.3Z" fill="#99A4B3"/>
<path d="M166.8 49.3V23.5L166.9 23.4L167 23.5V49.3L166.9 49.4L166.8 49.3Z" fill="#99A4B3"/>
<path d="M166.8 128.8V82.2L166.9 82.1L167 82.2V128.8L166.9 128.9L166.8 128.8Z" fill="#99A4B3"/>
<path d="M166.8 59.2V57.8L166.9 57.6L167 57.8V59.2L166.9 59.3L166.8 59.2Z" fill="#99A4B3"/>
<path d="M172.2 184V80.8L172.3 80.7L172.4 80.8V184L172.3 184.1L172.2 184Z" fill="#99A4B3"/>
<path d="M172.2 49.3V23.5L172.3 23.4L172.4 23.5V49.3L172.3 49.4L172.2 49.3Z" fill="#99A4B3"/>
<path d="M172.2 60.6V57.8L172.3 57.6L172.4 57.8V60.6L172.3 60.8L172.2 60.6Z" fill="#99A4B3"/>
<path d="M177.6 184V80.8L177.7 80.7L177.8 80.8V184L177.7 184.1L177.6 184Z" fill="#99A4B3"/>
<path d="M177.6 49.3V23.5L177.7 23.4L177.8 23.5V49.3L177.7 49.4L177.6 49.3Z" fill="#99A4B3"/>
<path d="M177.6 60.6V57.8L177.7 57.6L177.8 57.8V60.6L177.7 60.8L177.6 60.6Z" fill="#99A4B3"/>
<path d="M183 184V80.8L183.1 80.7L183.2 80.8V184L183.1 184.1L183 184Z" fill="#99A4B3"/>
<path d="M183 48V25L183.1 24.9L183.2 25V48L183.1 48.2L183 48Z" fill="#99A4B3"/>
<path d="M183 60.6V57.8L183.1 57.6L183.2 57.8V60.6L183.1 60.8L183 60.6Z" fill="#99A4B3"/>
<path d="M188.4 172.6V57.8L188.5 57.6L188.6 57.8V172.6L188.5 172.8L188.4 172.6Z" fill="#99A4B3"/>
<path d="M188.4 25V23.5L188.5 23.4L188.6 23.5V25L188.5 25.1L188.4 25Z" fill="#99A4B3"/>
<path d="M188.4 49.3V26.3L188.5 26.2L188.6 26.3V49.3L188.5 49.4L188.4 49.3Z" fill="#99A4B3"/>
<path d="M193.8 172.6V57.8L193.9 57.6L194 57.8V172.6L193.9 172.8L193.8 172.6Z" fill="#99A4B3"/>
<path d="M193.8 25V23.5L193.9 23.4L194 23.5V25L193.9 25.1L193.8 25Z" fill="#99A4B3"/>
<path d="M193.8 49.3V26.3L193.9 26.2L194 26.3V49.3L193.9 49.4L193.8 49.3Z" fill="#99A4B3"/>
<path d="M199.2 172.6V136.5L199.3 136.4L199.4 136.5V172.6L199.3 172.8L199.2 172.6Z" fill="#99A4B3"/>
<path d="M199.2 25V23.5L199.3 23.4L199.4 23.5V25L199.3 25.1L199.2 25Z" fill="#99A4B3"/>
<path d="M199.2 107.3V82.8L199.3 82.7L199.4 82.8V107.3L199.3 107.4L199.2 107.3Z" fill="#99A4B3"/>
<path d="M199.2 49.3V26.3L199.3 26.2L199.4 26.3V49.3L199.3 49.4L199.2 49.3Z" fill="#99A4B3"/>
<path d="M204.6 172.6V136.5L204.7 136.4L204.8 136.5V172.6L204.7 172.8L204.6 172.6Z" fill="#99A4B3"/>
<path d="M204.6 25V23.5L204.7 23.4L204.8 23.5V25L204.7 25.1L204.6 25Z" fill="#99A4B3"/>
<path d="M204.6 107.3V82.8L204.7 82.7L204.8 82.8V107.3L204.7 107.4L204.6 107.3Z" fill="#99A4B3"/>
<path d="M204.6 49.3V26.3L204.7 26.2L204.8 26.3V49.3L204.7 49.4L204.6 49.3Z" fill="#99A4B3"/>
<path d="M210 172.6V136.5L210.1 136.4L210.2 136.5V172.6L210.1 172.8L210 172.6Z" fill="#99A4B3"/>
<path d="M210 65.1V20L210.1 19.9L210.2 20V65.1L210.1 65.3L210 65.1Z" fill="#99A4B3"/>
<path d="M210 120.3V110.2L210.1 110.1L210.2 110.2V120.3L210.1 120.4L210 120.3Z" fill="#99A4B3"/>
<path d="M210 103.1V72.3L210.1 72.2L210.2 72.3V103.1L210.1 103.2L210 103.1Z" fill="#99A4B3"/>
<path d="M210 108.8V104.6L210.1 104.5L210.2 104.6V108.8L210.1 108.9L210 108.8Z" fill="#99A4B3"/>
<path d="M215.4 172.6V136.5L215.5 136.4L215.6 136.5V172.6L215.5 172.8L215.4 172.6Z" fill="#99A4B3"/>
<path d="M215.4 65.1V20L215.5 19.9L215.6 20V65.1L215.5 65.3L215.4 65.1Z" fill="#99A4B3"/>
<path d="M215.4 120.3V107.1L215.5 107L215.6 107.1V120.3L215.5 120.4L215.4 120.3Z" fill="#99A4B3"/>
<path d="M215.4 100V72.3L215.5 72.2L215.6 72.3V100L215.5 100.1L215.4 100Z" fill="#99A4B3"/>
<path d="M215.4 105.6V101.5L215.5 101.3L215.6 101.5V105.6L215.5 105.8L215.4 105.6Z" fill="#99A4B3"/>
<path d="M220.8 172.6V136.5L220.9 136.4L221 136.5V172.6L220.9 172.8L220.8 172.6Z" fill="#99A4B3"/>
<path d="M220.8 65.1V20L220.9 19.9L221 20V65.1L220.9 65.3L220.8 65.1Z" fill="#99A4B3"/>
<path d="M220.8 120.3V98.4L220.9 98.2L221 98.4V120.3L220.9 120.4L220.8 120.3Z" fill="#99A4B3"/>
<path d="M220.8 96.9V72.3L220.9 72.2L221 72.3V96.9L220.9 97L220.8 96.9Z" fill="#99A4B3"/>
<path d="M226.2 172.6V136.5L226.3 136.4L226.4 136.5V172.6L226.3 172.8L226.2 172.6Z" fill="#99A4B3"/>
<path d="M226.2 65.1V20L226.3 19.9L226.4 20V65.1L226.3 65.3L226.2 65.1Z" fill="#99A4B3"/>
<path d="M226.2 120.3V106.7L226.3 106.6L226.4 106.7V120.3L226.3 120.4L226.2 120.3Z" fill="#99A4B3"/>
<path d="M226.2 94.5V72.3L226.3 72.2L226.4 72.3V94.5L226.3 94.6L226.2 94.5Z" fill="#99A4B3"/>
<path d="M226.2 105.2V95.2L226.3 95.1L226.4 95.2V105.2L226.3 105.4L226.2 105.2Z" fill="#99A4B3"/>
<path d="M231.5 172.6V136.5L231.7 136.4L231.8 136.5V172.6L231.7 172.8L231.5 172.6Z" fill="#99A4B3"/>
<path d="M231.5 65.1V20L231.7 19.9L231.8 20V65.1L231.7 65.3L231.5 65.1Z" fill="#99A4B3"/>
<path d="M231.5 120.3V109.8L231.7 109.7L231.8 109.8V120.3L231.7 120.4L231.5 120.3Z" fill="#99A4B3"/>
<path d="M231.5 108.3V72.3L231.7 72.2L231.8 72.3V108.3L231.7 108.5L231.5 108.3Z" fill="#99A4B3"/>
<path d="M239.3 270.9H239.2V181.2H235.2V207V207.1H235.1H233.8H233.7V207V181.2H204.9H204.8L204.7 181.1V180.1H191.3V196.8V196.9L191.2 197H17.8V237.2L191.2 260.3L191.3 260.5V270.7H192.5V247.8V247.7H192.6H193.9H194V247.8V270.7H239.3V270.9H239.2H239.3V271H193.9L193.8 270.9V247.9H192.7V270.9L192.6 271H191.2L191.1 270.9V260.6L17.6 237.5L17.5 237.3V196.8H17.6V196.7H191.1V179.9L191.2 179.8H204.9V179.9H205V181H233.8H233.9V181.1V206.9H235V181.1V181H235.1H239.3H239.4V181.1V270.9L239.3 271V270.9Z" fill="#99A4B3"/>
<path d="M13.3 32.8H13.2C13.2 32.6 13.3 32.4 13.5 32.4L15.6 32H15.8C16 32 16.2 32.1 16.4 32.2C16.7 32.4 17 32.7 17.3 33.1L17.2 33.2V33.1C19.5 33 21.8 32.7 24 32.2C24.7 32 25.5 32 26.2 32C27.2 32 28.1 32.1 29.1 32.4C29.9 32.6 30.7 33 31.4 33.5C32.1 34 32.6 34.6 33 35.3C33.3 35.9 33.5 36.6 33.5 37.2C33.5 37.9 33.3 38.6 33 39.1C32.6 39.8 32 40.4 31.4 40.9C30.7 41.4 29.9 41.8 29.1 42C28.2 42.3 27.2 42.4 26.2 42.4C25.4 42.4 24.7 42.3 24 42.1C21.7 41.7 19.5 41.4 17.2 41.2V41.1L17.3 41.2C17.1 41.5 16.8 41.8 16.4 42.1C16.2 42.2 16 42.3 15.8 42.3H15.6L13.5 41.9C13.3 41.9 13.2 41.7 13.2 41.5V32.8H13.3H13.4V41.5L13.5 41.7L15.6 42.1H15.7C15.9 42.1 16 42.1 16.1 42C16.4 41.8 16.7 41.5 16.9 41.2L17 41.1C19.3 41.2 21.6 41.5 23.9 42C24.6 42.2 25.3 42.2 26.1 42.2C27.1 42.2 28 42.1 28.9 41.8C29.7 41.6 30.4 41.2 31.1 40.7C31.7 40.2 32.3 39.6 32.7 39C33 38.4 33.2 37.8 33.2 37.2C33.2 36.6 33 35.9 32.7 35.4C32.3 34.7 31.8 34.1 31.1 33.7C30.4 33.2 29.7 32.9 28.9 32.6C28 32.3 27 32.2 26.1 32.2C25.4 32.2 24.6 32.3 23.9 32.4C21.6 32.8 19.3 33.1 17 33.3L16.9 33.2C16.7 32.9 16.4 32.6 16.1 32.4C16 32.3 15.8 32.3 15.7 32.3H15.6L13.5 32.7L13.4 32.9H13.3V32.8Z" fill="#99A4B3"/>
<path d="M235.1 181.2H209.2L209.1 181.1L209.2 181H235.1L235.2 181.1L235.1 181.2Z" fill="#99A4B3"/>
<path d="M235.1 172.8H209.2L209.1 172.6L209.2 172.5H235.1L235.2 172.6L235.1 172.8Z" fill="#99A4B3"/>
<path d="M233.4 20.1H208.9L208.8 20L208.9 19.9H233.4L233.5 20L233.4 20.1Z" fill="#99A4B3"/>
<path d="M233.4 16.5H208.9L208.8 16.4L208.9 16.3H233.4L233.5 16.4L233.4 16.5Z" fill="#99A4B3"/>
<path d="M192.6 270.7H215.7L215.8 270.9L215.7 271H192.6L192.5 270.9L192.6 270.7Z" fill="#99A4B3"/>
<path d="M192.6 272.2H215.7L215.8 272.3L215.7 272.4H192.6L192.5 272.3L192.6 272.2Z" fill="#99A4B3"/>
<path d="M63.6 25.2V25.3H12.8V71H29.9C31.2 71 32.2 72 32.2 73.3V83.4C32.2 84.7 31.2 85.7 29.9 85.7H12.8V91.3H63.4V85.1V85H63.5H65V60.8H63.5H63.4V60.7V25.3H63.6V25.4V25.2H63.7V60.5H65.2H65.3V60.6V85.1V85.2H65.2H63.7V91.4V91.5H63.6H12.7H12.6V91.4V85.6V85.5H12.7H29.9C31 85.5 31.9 84.6 31.9 83.5V73.4C31.9 72.3 31 71.4 29.9 71.4H12.7H12.6V71.3V25.3V25.2H12.7H63.6Z" fill="#99A4B3"/>
<path d="M13.3 91.4V85.6L13.4 85.4L13.5 85.6V91.4L13.4 91.5L13.3 91.4Z" fill="#99A4B3"/>
<path d="M13.3 32.5V25.2L13.4 25.1L13.5 25.2V32.5L13.4 32.6L13.3 32.5Z" fill="#99A4B3"/>
<path d="M13.3 71.2V41.7L13.4 41.6L13.5 41.7V71.2L13.4 71.3L13.3 71.2Z" fill="#99A4B3"/>
<path d="M21.9 91.4V85.6L22 85.4L22.2 85.6V91.4L22 91.5L21.9 91.4Z" fill="#99A4B3"/>
<path d="M21.9 32.5V25.2L22 25.1L22.2 25.2V32.5L22 32.6L21.9 32.5Z" fill="#99A4B3"/>
<path d="M21.9 71.2V41.7L22 41.6L22.2 41.7V71.2L22 71.3L21.9 71.2Z" fill="#99A4B3"/>
<path d="M30.6 91.4V85.4L30.7 85.3L30.8 85.4V91.4L30.7 91.5L30.6 91.4Z" fill="#99A4B3"/>
<path d="M30.6 33V25.2L30.7 25.1L30.8 25.2V33L30.7 33.2L30.6 33Z" fill="#99A4B3"/>
<path d="M30.6 71.3V41.1L30.7 41L30.8 41.1V71.3L30.7 71.4L30.6 71.3Z" fill="#99A4B3"/>
<path d="M39.2 91.4V25.2L39.3 25.1L39.4 25.2V91.4L39.3 91.5L39.2 91.4Z" fill="#99A4B3"/>
<path d="M47.8 91.4V25.2L48 25.1L48.1 25.2V91.4L48 91.5L47.8 91.4Z" fill="#99A4B3"/>
<path d="M56.5 91.4V25.2L56.6 25.1L56.7 25.2V91.4L56.6 91.5L56.5 91.4Z" fill="#99A4B3"/>
<path d="M65.2 74.2H32L31.9 74.1L32 74H65.2L65.3 74.1L65.2 74.2Z" fill="#99A4B3"/>
<path d="M63.6 57H12.7L12.6 56.9L12.7 56.7H63.6L63.7 56.9L63.6 57Z" fill="#99A4B3"/>
<path d="M63.6 39.7H32.5L32.4 39.6L32.5 39.5H63.6L63.7 39.6L63.6 39.7Z" fill="#99A4B3"/>
<path d="M13.3 39.7H12.7L12.6 39.6L12.7 39.5H13.3L13.4 39.6L13.3 39.7Z" fill="#99A4B3"/>
<path d="M235.1 196.7H239.3L239.4 196.8L239.3 197H235.1L235 196.8L235.1 196.7Z" fill="#99A4B3"/>
<path d="M191.2 196.7H233.8L233.9 196.8L233.8 197H191.2L191.1 196.8L191.2 196.7Z" fill="#99A4B3"/>
<path d="M17.6 214H239.3L239.4 214.1L239.3 214.2H17.6L17.5 214.1L17.6 214Z" fill="#99A4B3"/>
<path d="M17.6 231.3H239.3L239.4 231.4L239.3 231.5H17.6L17.5 231.4L17.6 231.3Z" fill="#99A4B3"/>
<path d="M102.7 248.5H192.6L192.7 248.7L192.6 248.8H102.7L102.6 248.7L102.7 248.5Z" fill="#99A4B3"/>
<path d="M193.9 248.5H239.3L239.4 248.7L239.3 248.8H193.9L193.8 248.7L193.9 248.5Z" fill="#99A4B3"/>
<path d="M191.2 265.8H192.6L192.7 265.9L192.6 266.1H191.2L191.1 265.9L191.2 265.8Z" fill="#99A4B3"/>
<path d="M193.9 265.8H239.3L239.4 265.9L239.3 266.1H193.9L193.8 265.9L193.9 265.8Z" fill="#99A4B3"/>
<path d="M18.3 237.4V196.8L18.5 196.7L18.6 196.8V237.4L18.5 237.6L18.3 237.4Z" fill="#99A4B3"/>
<path d="M35.6 239.7V196.8L35.7 196.7L35.8 196.8V239.7L35.7 239.9L35.6 239.7Z" fill="#99A4B3"/>
<path d="M52.9 242V196.8L53 196.7L53.1 196.8V242L53 242.2L52.9 242Z" fill="#99A4B3"/>
<path d="M70.2 244.3V196.8L70.3 196.7L70.4 196.8V244.3L70.3 244.5L70.2 244.3Z" fill="#99A4B3"/>
<path d="M87.4 246.6V196.8L87.5 196.7L87.7 196.8V246.6L87.5 246.8L87.4 246.6Z" fill="#99A4B3"/>
<path d="M104.7 248.9V196.8L104.8 196.7L104.9 196.8V248.9L104.8 249.1L104.7 248.9Z" fill="#99A4B3"/>
<path d="M122 251.2V196.8L122.1 196.7L122.2 196.8V251.2L122.1 251.4L122 251.2Z" fill="#99A4B3"/>
<path d="M139.2 253.6V196.8L139.4 196.7L139.5 196.8V253.6L139.4 253.7L139.2 253.6Z" fill="#99A4B3"/>
<path d="M156.5 255.9V196.8L156.6 196.7L156.8 196.8V255.9L156.6 256L156.5 255.9Z" fill="#99A4B3"/>
<path d="M173.8 258.2V196.8L173.9 196.7L174 196.8V258.2L173.9 258.3L173.8 258.2Z" fill="#99A4B3"/>
<path d="M191.1 260.5V196.8L191.2 196.7L191.3 196.8V260.5L191.2 260.6L191.1 260.5Z" fill="#99A4B3"/>
<path d="M208.3 270.9V181.1L208.5 181L208.6 181.1V270.9L208.5 271L208.3 270.9Z" fill="#99A4B3"/>
<path d="M225.6 270.9V181.1L225.7 181L225.9 181.1V270.9L225.7 271L225.6 270.9Z" fill="#99A4B3"/>
<path fill-rule="evenodd" clip-rule="evenodd" d="M17.6 226H6.1V14.8H207.5V16.4H208.9V20H207.5V23.5H183.2V25H179.9V23.5H69.7V49.3H71.5V57.8H66.9V60.6H63.6V25.2H12.7V91.4H63.6V85.1H66.9V115.3H55.4V112H63.6V94.7H12.7V112H20.8V115.3H12.7V189.6H18.4V193.6H17.6V226Z" fill="#22576F"/>
<path fill-rule="evenodd" clip-rule="evenodd" d="M76 189.6L75.9 193.6H76.7V196.8H191.2V176.7H191.9V172.6H183.9V184H114.8V189.6H76Z" fill="#22576F"/>
<path d="M209.2 172.6H204.9V181.1H209.2V172.6Z" fill="#22576F"/>
<path fill-rule="evenodd" clip-rule="evenodd" d="M235.1 172.6V181.1H239.3V226H245.9V14.8H234.8V16.4H233.4V20H234.8V23.5H237.1V109.8H234.2V113.1H237.1V130.4H205.4V113.1H208.3V109.8H205.4V107.3H199.3V136.5H237.1V172.6H235.1Z" fill="#22576F"/>
<path fill-rule="evenodd" clip-rule="evenodd" d="M93.1 49.3V57.8H199.3V82.8H205.4V49.3H183.2V48H179.9V49.3H93.1Z" fill="#22576F"/>
<path d="M207 63.7V63.6H208.1H208.2V63.7V73.8V73.9H208.1H207H206.9V73.8V63.7V63.6H207V63.7H207.1V73.7H208V63.8H207V63.7H207.1H207Z" fill="#22576F"/>
<path d="M116.2 47H149.4V47.1H149.5V48.2L149.4 48.3V48.4H116.5L116.4 48.2L116.5 48.1H149.2V47.3H116.2L116.1 47.1L116.2 47Z" fill="#22576F"/>
<path d="M205.4 123.1H207.5L207.7 123.2L207.5 123.3H205.4L205.3 123.2L205.4 123.1Z" fill="#22576F"/>
<path d="M228.6 123.1H232.8L232.9 123.2L232.8 123.3H228.6L228.5 123.2L228.6 123.1ZM222.3 123.1H226.5L226.6 123.2L226.5 123.3H222.3L222.2 123.2L222.3 123.1ZM216 123.1H220.2L220.3 123.2L220.2 123.3H216L215.9 123.2L216 123.1ZM209.6 123.1H213.8L213.9 123.2L213.8 123.3H209.6L209.5 123.2L209.6 123.1Z" fill="#22576F"/>
<path d="M234.9 123.1H237.1L237.2 123.2L237.1 123.3H234.9L234.8 123.2L234.9 123.1Z" fill="#22576F"/>
<path d="M63.6 102.1H61.4L61.3 101.9L61.4 101.8H63.6L63.7 101.9L63.6 102.1Z" fill="#22576F"/>
<path d="M21.2 102.1H17L16.9 102L17 101.9H21.2L21.3 102L21.2 102.1ZM27.5 102.1H23.3L23.2 102L23.3 101.9H27.5L27.6 102L27.5 102.1ZM33.9 102.1H29.7L29.6 102L29.7 101.9H33.9L34 102L33.9 102.1ZM40.2 102.1H36L35.9 102L36 101.9H40.2L40.3 102L40.2 102.1ZM46.6 102.1H42.4L42.3 102L42.4 101.9H46.6L46.7 102L46.6 102.1ZM53 102.1H48.8L48.7 102L48.8 101.9H53L53.1 102L53 102.1ZM59.3 102.1H55.1L55 102L55.1 101.9H59.3L59.4 102L59.3 102.1Z" fill="#22576F"/>
<path d="M14.8 102.1H12.7L12.6 101.9L12.7 101.8H14.8L15 101.9L14.8 102.1Z" fill="#22576F"/>
<path d="M191.2 176.6H204.9L205 176.7L204.9 176.8H191.2L191.1 176.7L191.2 176.6Z" fill="#22576F"/>
<path d="M191.2 179.8H204.9L205 179.9L204.9 180.1H191.2L191.1 179.9L191.2 179.8Z" fill="#22576F"/>
<path d="M17.6 193.5H76.7L76.8 193.6L76.7 193.7H17.6L17.5 193.6L17.6 193.5Z" fill="#22576F"/>
<path d="M17.6 196.7H76.7L76.8 196.8L76.7 197H17.6L17.5 196.8L17.6 196.7Z" fill="#22576F"/>
<path d="M235.1 207V207.1H233.8H233.7V207V181.1V181H233.8H235.1H235.2V181.1V207V207.1H235.1V207H235V181.2H234V206.9H235.1V207H235H235.1Z" fill="#22576F"/>
<path d="M209.3 181.1C209.3 188.2 212.2 194.7 216.9 199.3C221.6 204 228 206.9 235.1 206.9L235.2 207L235.1 207.1C220.7 207.1 209.1 195.4 209.1 181.1L209.2 181L209.3 181.1Z" fill="#22576F"/>
<path d="M233.4 44.4V44.6H232.1L232 44.5V44.4V20V19.9H232.1H233.4H233.5V20V44.4V44.5L233.4 44.6V44.4H233.3V20.1H232.2V44.3H233.4V44.4H233.3H233.4Z" fill="#22576F"/>
<path d="M209 20C209 26.7 211.7 32.8 216.1 37.2C220.5 41.6 226.6 44.3 233.3 44.3L233.4 44.4L233.3 44.5C219.7 44.5 208.7 33.5 208.7 19.9L208.8 19.8L209 20Z" fill="#22576F"/>
<path d="M192.6 247.8V247.7H193.9H194V247.8V270.9L193.9 271H192.6L192.5 270.9V247.8V247.7H192.6V247.8H192.7V270.7H193.8V247.9H192.6V247.8H192.7H192.6Z" fill="#22576F"/>
<path d="M215.5 270.9C215.5 264.6 212.9 258.8 208.8 254.7C204.7 250.6 198.9 248 192.6 248L192.5 247.9L192.6 247.8C205.4 247.8 215.8 258.2 215.8 271L215.7 271.1L215.5 270.9Z" fill="#22576F"/>
<path d="M221.1 109.8C221.1 107.5 220.5 105.3 219.4 103.4V103.2H219.6C220.7 105.2 221.4 107.4 221.4 109.7L221.3 109.8H221.1Z" fill="#22576F"/>
<path d="M223.1 103.4C222 105.4 221.4 107.6 221.4 109.8L221.3 109.9L221.2 109.8C221.2 107.5 221.8 105.2 223 103.3H223.2L223.1 103.4Z" fill="#22576F"/>
<path d="M208.3 109.8L208.2 109.7L219.4 103.2H219.5L219.6 103.3L220.2 104.4V104.5L209 111H208.9H208.8L208.2 109.9V109.7L208.3 109.8L208.4 109.7L209 110.7L220 104.4L219.5 103.5L208.3 109.9V109.8L208.4 109.7L208.3 109.8Z" fill="#22576F"/>
<path d="M234.2 109.8L234.1 109.9L223 103.5L222.5 104.4L233.5 110.7L234.1 109.7L234.2 109.8L234.1 109.9L234.2 109.8L234.3 109.9L233.7 111H233.5L222.3 104.5L222.2 104.4L222.9 103.3V103.2H223L234.3 109.7V109.8V109.9L234.2 109.8Z" fill="#22576F"/>
<path d="M66.9 60.6L67 60.5L88.1 72.8H88.2V72.9L87.6 74L87.4 74.1L66.2 61.8H66.1L66.2 61.7L66.8 60.6L67 60.5L66.9 60.6L67 60.7L66.4 61.7L87.4 73.8L87.9 72.9L66.8 60.8L66.9 60.6L67 60.7L66.9 60.6Z" fill="#22576F"/>
<path d="M66.9 85C75.6 85 83.6 80.4 88 72.8H88.2V73C83.8 80.6 75.7 85.3 66.9 85.3L66.8 85.2L66.9 85Z" fill="#22576F"/>
<path d="M183.2 25V24.9H206.3L206.4 25V26.3L206.3 26.4H183.2H183.1V26.3V25V24.9H183.2V25H183.3V26.2H206.1V25.1H183.2V25H183.3H183.2Z" fill="#22576F"/>
<path d="M183.2 47.9C189.5 47.9 195.3 45.3 199.4 41.2C203.5 37.1 206.1 31.3 206.1 25L206.2 24.9L206.3 25C206.3 37.8 195.9 48.2 183.1 48.2L183 48.1L183.2 47.9Z" fill="#22576F"/>
<path d="M192.6 270.9V271H191.3V272.2H192.5V270.9H192.6V271V270.9H192.7V272.3V272.4H192.6H191.2H191.1V272.3V270.9V270.8L191.2 270.7H192.6L192.7 270.8V270.9H192.6Z" fill="#22576F"/>
<path d="M215.7 270.9V270.7H239.3L239.4 270.8V270.9V272.3V272.4H239.3H215.7H215.6L215.5 272.3V270.9L215.6 270.8L215.7 270.7V270.9H215.8V272.2H239.2V271H215.7V270.9H215.8H215.7Z" fill="#22576F"/>
<path d="M205.4 65H207L207.1 65.1L207 65.3H205.4L205.3 65.1L205.4 65Z" fill="#22576F"/>
<path d="M208.1 65H237.1L237.2 65.1L237.1 65.3H208.1L208 65.1L208.1 65Z" fill="#22576F"/>
<path d="M205.4 72.2H207L207.1 72.3L207 72.5H205.4L205.3 72.3L205.4 72.2Z" fill="#22576F"/>
<path d="M208.1 72.2H237.1L237.2 72.3L237.1 72.5H208.1L208 72.3L208.1 72.2Z" fill="#22576F"/>
<path d="M149.2 49.3V23.5L149.4 23.4L149.5 23.5V49.3L149.4 49.4L149.2 49.3Z" fill="#22576F"/>
<path d="M134.8 49.3V48.2L135 48.1L135.1 48.2V49.3L135 49.4L134.8 49.3Z" fill="#22576F"/>
<path d="M134.8 47.1V23.5L135 23.4L135.1 23.5V47.1L135 47.3L134.8 47.1Z" fill="#22576F"/>
<path d="M127.6 49.3V48.2L127.8 48.1L127.9 48.2V49.3L127.8 49.4L127.6 49.3Z" fill="#22576F"/>
<path d="M127.6 47.1V23.5L127.8 23.4L127.9 23.5V47.1L127.8 47.3L127.6 47.1Z" fill="#22576F"/>
<path d="M120.4 49.3V48.2L120.6 48.1L120.7 48.2V49.3L120.6 49.4L120.4 49.3Z" fill="#22576F"/>
<path d="M120.4 47.1V23.5L120.6 23.4L120.7 23.5V47.1L120.6 47.3L120.4 47.1Z" fill="#22576F"/>
<path d="M113.2 37.7V36.4L113.4 36.3L113.5 36.4V37.7L113.4 37.9L113.2 37.7Z" fill="#22576F"/>
<path d="M113.2 35.1V23.5L113.4 23.4L113.5 23.5V35.1L113.4 35.2L113.2 35.1Z" fill="#22576F"/>
<path d="M110 23.5L113.1 34.9L115.6 35.6V35.7V35.8L111.6 37.1L113.8 37.7L113.9 37.8L116.9 49.3V49.4L116.7 49.3L113.6 37.9L111.2 37.2L111.1 37.1L111.2 37L115.1 35.7L112.9 35.1V35L109.8 23.5L109.9 23.4L110 23.5Z" fill="#22576F"/>
<path d="M142 49.3V48.2L142.2 48.1L142.3 48.2V49.3L142.2 49.4L142 49.3Z" fill="#22576F"/>
<path d="M142 47.1V23.5L142.2 23.4L142.3 23.5V47.1L142.2 47.3L142 47.1Z" fill="#22576F"/>
<path d="M71.5 57.8V57.7L90.1 68.4L90.6 67.5L72.2 56.8L71.6 57.8H71.5V57.7V57.8L71.4 57.7L72 56.6H72.1H72.2L90.9 67.4V67.5L90.3 68.6L90.2 68.7H90.1L71.4 57.9V57.7L71.5 57.8Z" fill="#22576F"/>
<path d="M90.1 68.5C92 65.2 93 61.5 93 57.8L93.1 57.7L93.2 57.8C93.2 61.6 92.2 65.4 90.3 68.7H90.1V68.5Z" fill="#22576F"/>
<path d="M20.8 132.6V132.5H21.9V115.5H20.9V132.6H20.8V132.5V132.6H20.7V115.3V115.2H20.8H22.1H22.2V115.3V132.6V132.7H22.1H20.8H20.7V132.6H20.8Z" fill="#22576F"/>
<path d="M54.1 132.6V132.5H55.2V115.5H54.2V132.6H54.1V132.5V132.6H54V115.3V115.2H54.1H55.4L55.5 115.3V132.6L55.4 132.7H54.1H54V132.6H54.1Z" fill="#22576F"/>
<path d="M20.8 132.5C25.5 132.5 29.8 130.6 32.9 127.5C36 124.4 37.9 120.1 37.9 115.4L38 115.3L38.1 115.4C38.1 125 30.3 132.8 20.7 132.8L20.6 132.7L20.8 132.5Z" fill="#22576F"/>
<path d="M38.2 115.3C38.2 120 40.1 124.3 43.2 127.4C46.3 130.5 50.6 132.4 55.3 132.4L55.4 132.5L55.3 132.6C45.7 132.6 37.9 124.8 37.9 115.2L38 115.1L38.2 115.3Z" fill="#22576F"/>
<path d="M205.4 107.3L205.3 107.2L226.4 95L225.9 94.1L204.9 106.2L205.5 107.2L205.4 107.3L205.3 107.2L205.4 107.3H205.3L204.7 106.3L204.6 106.2L204.7 106.1L225.9 93.9L226 93.8L226.1 93.9L226.7 95V95.1V95.2L205.5 107.4L205.3 107.3H205.4Z" fill="#22576F"/>
<path d="M226.5 95.1C222.2 87.6 214.1 82.9 205.4 82.9L205.3 82.8L205.4 82.7C214.2 82.7 222.3 87.4 226.7 95V95.2L226.5 95.1Z" fill="#22576F"/>
<path d="M191.2 176.7V176.6H192.6H192.7V176.7V179.9V180L192.6 180.1H191.2L191.1 180V179.9V176.7V176.6H191.2V176.7H191.3V179.8H192.5V176.8H191.2V176.7H191.3H191.2Z" fill="#22576F"/>
<path d="M203.4 176.7V176.6H204.9L205 176.7V179.9L204.9 180V180.1H203.4L203.3 180V179.9V176.7V176.6H203.4V176.7H203.5V179.8H204.7V176.8H203.4V176.7H203.5H203.4Z" fill="#22576F"/>
<path d="M192.6 179.1H203.4L203.5 179.2L203.4 179.3H192.6L192.5 179.2L192.6 179.1Z" fill="#22576F"/>
<path d="M192.6 178.4H203.4L203.5 178.5L203.4 178.6H192.6L192.5 178.5L192.6 178.4Z" fill="#22576F"/>
<path d="M191.9 172.5H204.9L205 172.6L204.9 172.8H191.9L191.8 172.6L191.9 172.5Z" fill="#22576F"/>
<path d="M17.6 193.6V193.5H19.1H19.2V193.6V196.8V196.9L19.1 197H17.6V196.9L17.5 196.8V193.6L17.6 193.5V193.6H17.8V196.7H19V193.7H17.6V193.6H17.8H17.6Z" fill="#22576F"/>
<path d="M75.2 193.6V193.5H76.7L76.8 193.6V196.8L76.7 196.9V197H75.2L75.1 196.9V196.8V193.6V193.5H75.2V193.6H75.3V196.7H76.5V193.7H75.2V193.6H75.3H75.2Z" fill="#22576F"/>
<path d="M34.2 193.6V193.5H35.6H35.7L35.8 193.6V196.8L35.7 196.9L35.6 197H34.2L34.1 196.9V196.8V193.6V193.5H34.2V193.6H34.3V196.7H35.5V193.7H34.2V193.6H34.3H34.2Z" fill="#22576F"/>
<path d="M19.1 196H34.2L34.3 196.1L34.2 196.3H19.1L19 196.1L19.1 196Z" fill="#22576F"/>
<path d="M19.1 195.3H34.2L34.3 195.4L34.2 195.5H19.1L19 195.4L19.1 195.3Z" fill="#22576F"/>
<path d="M35.6 196H75.2L75.3 196.1L75.2 196.3H35.6L35.5 196.1L35.6 196Z" fill="#22576F"/>
<path d="M35.6 195.3H75.2L75.3 195.4L75.2 195.5H35.6L35.5 195.4L35.6 195.3Z" fill="#22576F"/>
<path d="M18.4 189.4H75.9L76.1 189.6L75.9 189.7H18.4L18.2 189.6L18.4 189.4Z" fill="#22576F"/>
<path d="M169.5 175.3V175.5H129.3V183.9H169.4V175.3H169.5V175.5V175.3H169.6V184V184.1H169.5H129.2H129.1V184V175.3L129.2 175.2H169.5L169.6 175.3H169.5Z" fill="#22576F"/>
<path d="M14.1 142.1V141.9H31.4L31.5 142V142.1V188.1V188.2H31.4H14.1H14V188.1V142.1V142L14.1 141.9V142.1H14.3V188H31.3V142.2H14.1V142.1H14.3H14.1Z" fill="#22576F"/>
<path d="M18.7 156.5V156.3H19.8L19.9 156.4V156.5V173.7V173.8L19.8 173.9H18.7L18.6 173.8V173.7V156.5V156.4L18.7 156.3V156.5H18.9V173.6H19.7V156.6H18.7V156.5H18.9H18.7Z" fill="#22576F"/>
<path d="M25 157.8V157.7H29.4H29.5V157.8V172.2V172.3H29.4H25L24.9 172.2V157.8L25 157.7V157.8H25.2V172.1H29.2V157.9H25V157.8H25.2H25Z" fill="#22576F"/>
<path d="M18.7 162.5H17.2V167.7H18.7L18.9 167.8L18.7 167.9H17.1H17V167.8V162.4V162.3H17.1H18.7L18.9 162.4L18.7 162.5Z" fill="#22576F"/>
<path d="M37.9 158.9H31.4L31.3 158.8L31.4 158.7H37.9L38 158.8L37.9 158.9Z" fill="#22576F"/>
<path d="M19.8 167.7H21.3V162.5H19.8L19.7 162.4L19.8 162.3H21.4H21.5L21.6 162.4V167.8L21.5 167.9H21.4H19.8L19.7 167.8L19.8 167.7Z" fill="#22576F"/>
<path d="M37.9 171.5H31.4L31.3 171.4L31.4 171.3H37.9L38 171.4L37.9 171.5Z" fill="#22576F"/>
<path d="M37.9 158.1V157.9H39L39.1 158V158.1V172.1V172.2H39H37.9H37.8V172.1V158.1V158L37.9 157.9V158.1H38V172H38.8V158.2H37.9V158.1H38H37.9Z" fill="#22576F"/>
<path d="M26.3 154.2V154.3C26.1 154.4 26 154.5 26 154.8V154.9C26.1 155.1 26.2 155.2 26.5 155.2H26.6C27.1 155.1 27.7 155 28.3 154.9C28.5 154.9 28.6 154.7 28.6 154.6C28.6 154.5 28.5 154.3 28.4 154.3C28.1 154.2 27.8 154.1 27.4 154.1C27.1 154.1 26.7 154.2 26.4 154.3L26.3 154.2V154.1C26.7 154 27 153.9 27.4 153.9C27.8 153.9 28.1 154 28.5 154.1C28.7 154.2 28.9 154.4 28.9 154.6C28.9 154.9 28.7 155.2 28.3 155.2C27.8 155.2 27.2 155.3 26.7 155.5H26.5C26.2 155.5 25.9 155.3 25.8 155V154.8C25.8 154.5 26 154.2 26.3 154.1V154.2Z" fill="#22576F"/>
<path d="M149.9 95.2V95.3H125.6V110.8H149.8V95.2H149.9V95.3V95.2H150V111V111.1H149.9H125.5H125.4L125.3 111V95.2L125.4 95.1H125.5H149.9H150V95.2H149.9Z" fill="#22576F"/>
<path d="M170.8 67.8H170.7C170.7 64.6 173.3 61.9 176.6 61.9C179.8 61.9 182.5 64.5 182.5 67.8C182.5 71 179.9 73.7 176.6 73.7C173.4 73.7 170.7 71.1 170.7 67.8H170.8H170.9C170.9 69.4 171.5 70.8 172.5 71.8C173.5 72.8 174.9 73.4 176.5 73.4C178.1 73.4 179.5 72.8 180.5 71.8C181.5 70.8 182.1 69.4 182.1 67.8C182.1 66.2 181.5 64.8 180.5 63.8C179.5 62.8 178.1 62.2 176.5 62.2C174.9 62.2 173.5 62.8 172.5 63.8C171.5 64.8 170.9 66.2 170.9 67.8H170.8Z" fill="#22576F"/>
<path d="M175.1 67.8H175C175 66.9 175.7 66.2 176.6 66.2C177.5 66.2 178.2 66.9 178.2 67.8C178.2 68.7 177.5 69.4 176.6 69.4C175.7 69.4 175 68.7 175 67.8H175.1H175.2C175.2 68.5 175.8 69.2 176.6 69.2C177.3 69.2 178 68.6 178 67.8C178 67.1 177.4 66.4 176.6 66.4C175.9 66.4 175.2 67 175.2 67.8H175.1Z" fill="#22576F"/>
<path d="M182.3 68H178.1L177.9 67.8L178.1 67.7H182.3L182.5 67.8L182.3 68Z" fill="#22576F"/>
<path d="M175.1 68H170.8L170.7 67.8L170.8 67.7H175.1L175.2 67.8L175.1 68Z" fill="#22576F"/>
<path d="M176.4 73.6V69.3L176.6 69.2L176.7 69.3V73.6L176.6 73.7L176.4 73.6Z" fill="#22576F"/>
<path d="M176.4 66.4V62.1L176.6 62L176.7 62.1V66.4L176.6 66.5L176.4 66.4Z" fill="#22576F"/>
<path d="M169.4 60.6V60.5H183.8L183.9 60.6V80.8V80.9H183.8H169.4H169.3L169.2 80.8V60.6H169.3L169.4 60.5V60.6H169.5V80.7H183.7V60.8H169.4V60.6H169.5H169.4Z" fill="#22576F"/>
<path d="M167.9 59.3H107.5L107.3 59.2L107.5 59.1H167.9L168 59.2L167.9 59.3Z" fill="#22576F"/>
<path d="M107.3 82.2V59.2L107.5 59.1L107.6 59.2V82.2L107.5 82.4L107.3 82.2Z" fill="#22576F"/>
<path d="M167.8 82.2V59.2L167.9 59.1L168 59.2V82.2L167.9 82.4L167.8 82.2Z" fill="#22576F"/>
<path d="M164.9 82.2V62.8L165 62.7L165.2 62.8V82.2L165 82.4L164.9 82.2Z" fill="#22576F"/>
<path d="M167.9 62.2H107.5L107.3 62.1L107.5 62H167.9L168 62.1L167.9 62.2Z" fill="#22576F"/>
<path d="M167.9 82.4H107.5L107.3 82.2L107.5 82.1H167.9L168 82.2L167.9 82.4Z" fill="#22576F"/>
<path d="M146.7 82.2V63.5L146.8 63.4L146.9 63.5V82.2L146.8 82.4L146.7 82.2Z" fill="#22576F"/>
<path d="M128.5 82.2V63.5L128.6 63.4L128.7 63.5V82.2L128.6 82.4L128.5 82.2Z" fill="#22576F"/>
<path d="M165 63.6H110.3L110.2 63.5L110.3 63.4H165L165.2 63.5L165 63.6Z" fill="#22576F"/>
<path d="M107.5 62.7H110.3L110.5 62.8L110.3 62.9H107.5L107.3 62.8L107.5 62.7Z" fill="#22576F"/>
<path d="M167.9 62.9H165L164.9 62.8L165 62.7H167.9L168 62.8L167.9 62.9Z" fill="#22576F"/>
<path d="M110.2 82.2V62.8L110.3 62.7L110.5 62.8V82.2L110.3 82.4L110.2 82.2Z" fill="#22576F"/>
<path d="M146.8 136.8C148.1 141.6 152.4 144.7 157.1 144.7C158 144.7 158.9 144.6 159.9 144.3C164.7 143 167.8 138.7 167.8 134C167.8 133.1 167.7 132.2 167.4 131.2L167.5 131L167.7 131.1C168 132 168.1 133 168.1 133.9C168.1 138.7 164.9 143.1 160 144.4C159.1 144.7 158.1 144.8 157.2 144.8C152.4 144.8 148 141.6 146.7 136.7L146.8 136.5V136.8Z" fill="#22576F"/>
<path d="M149.6 136.1C150.5 139.6 153.7 141.9 157.1 141.9C157.8 141.9 158.4 141.8 159.1 141.6C162.6 140.7 164.9 137.5 164.9 134.1C164.9 133.4 164.8 132.8 164.6 132.1L164.7 131.9L164.9 132C165.1 132.7 165.2 133.4 165.2 134.1C165.2 137.7 162.8 140.9 159.2 141.9C158.5 142.1 157.8 142.2 157.1 142.2C153.5 142.2 150.3 139.8 149.3 136.2L149.4 136L149.6 136.1Z" fill="#22576F"/>
<path d="M149.4 136.1L146.6 125.7L146.7 125.6L146.8 125.7L149.6 136.1L149.5 136.2L149.4 136.1Z" fill="#22576F"/>
<path d="M162.1 121.6L164.9 132L164.8 132.1L164.7 132L161.9 121.6V121.5L162.1 121.6Z" fill="#22576F"/>
<path d="M146.6 136.9L143.8 126.5L143.9 126.3L144 126.4L146.8 136.8L146.7 137L146.6 136.9Z" fill="#22576F"/>
<path d="M143.9 126.3L164.7 120.7L164.9 120.8L164.8 121L143.9 126.5H143.8L143.9 126.3Z" fill="#22576F"/>
<path d="M164.9 120.8L167.7 131.2L167.6 131.4L167.4 131.3L164.6 120.9L164.7 120.7L164.9 120.8Z" fill="#22576F"/>
<path d="M149.2 134.7C150.1 138.2 153.3 140.5 156.7 140.5C157.4 140.5 158 140.4 158.7 140.2C162.2 139.3 164.5 136.1 164.5 132.7C164.5 132 164.4 131.4 164.2 130.7L164.3 130.5L164.5 130.6C164.7 131.3 164.8 132 164.8 132.7C164.8 136.3 162.4 139.5 158.8 140.5C158.1 140.7 157.4 140.8 156.7 140.8C153.1 140.8 149.9 138.4 148.9 134.8L149 134.6L149.2 134.7Z" fill="#22576F"/>
<path d="M164.5 181.1V181.2H134.2H134.1V181.1V180.4V180.3H134.2H164.5H164.6V180.4V181.1V181.2H164.5V181.1H164.3V180.5H134.4V181H164.5V181.1H164.3H164.5Z" fill="#22576F"/>
<path d="M144.9 180.4V177.5V177.4H145H153.7H153.8V177.5V180.4L153.7 180.5L153.5 180.4V177.6H145.2V180.4L145 180.5L144.9 180.4Z" fill="#22576F"/>
<path d="M153.8 181.1V182.5V182.6L153.7 182.7H145L144.9 182.6V182.5V181.1L145 181L145.2 181.1V182.4H153.5V181.1L153.7 181L153.8 181.1Z" fill="#22576F"/>
<path d="M79.5 181.1C81.6 183.2 84.3 184.2 87 184.2C89.7 184.2 92.5 183.2 94.5 181.1C96.6 179 97.6 176.3 97.6 173.6C97.6 170.9 96.6 168.1 94.5 166.1V165.9H94.7C96.8 168 97.9 170.8 97.9 173.6C97.9 176.4 96.8 179.2 94.7 181.3C92.6 183.4 89.8 184.5 87 184.5C84.2 184.5 81.4 183.4 79.3 181.3V181.1H79.5Z" fill="#22576F"/>
<path d="M81.5 179.1C83 180.6 85 181.4 87 181.4C89 181.4 91 180.6 92.5 179.1C94 177.6 94.8 175.6 94.8 173.6C94.8 171.6 94 169.6 92.5 168.1V167.9H92.7C94.3 169.5 95.1 171.5 95.1 173.6C95.1 175.7 94.3 177.7 92.7 179.3C91.1 180.9 89.1 181.7 87 181.7C84.9 181.7 82.9 180.9 81.3 179.3V179.1H81.5Z" fill="#22576F"/>
<path d="M92.5 168.1L84.9 160.4V160.2H85.1L92.7 167.9V168.1H92.5Z" fill="#22576F"/>
<path d="M73.9 171.4L81.5 179.1V179.3H81.3L73.7 171.6V171.4H73.9Z" fill="#22576F"/>
<path d="M94.6 166L86.9 158.4V158.2H87.1L94.7 165.8V166H94.6Z" fill="#22576F"/>
<path d="M87.1 158.4L71.8 173.7H71.7V173.5L86.9 158.2H87.1V158.4Z" fill="#22576F"/>
<path d="M71.8 173.5L79.5 181.1V181.3H79.3L71.7 173.7V173.5H71.8Z" fill="#22576F"/>
<path d="M80.5 178.1C82 179.6 84 180.4 86 180.4C88 180.4 90 179.6 91.5 178.1C93 176.6 93.8 174.6 93.8 172.6C93.8 170.6 93 168.6 91.5 167.1V166.9H91.7C93.3 168.5 94.1 170.5 94.1 172.6C94.1 174.7 93.3 176.7 91.7 178.3C90.1 179.9 88.1 180.7 86 180.7C83.9 180.7 81.9 179.9 80.3 178.3V178.1H80.5Z" fill="#22576F"/>
<path d="M108 131.3C107.8 132.2 107.6 133.2 107.6 134.1C107.6 138.8 110.7 143.1 115.5 144.4C116.4 144.6 117.4 144.8 118.3 144.8C123 144.8 127.3 141.7 128.6 136.9L128.8 136.8L128.9 137C127.6 141.9 123.2 145.1 118.4 145.1C117.5 145.1 116.5 145 115.6 144.7C110.7 143.4 107.5 139 107.5 134.2C107.5 133.3 107.6 132.3 107.9 131.4L108.1 131.3H108Z" fill="#22576F"/>
<path d="M110.7 132C110.5 132.7 110.4 133.4 110.4 134C110.4 137.4 112.7 140.6 116.2 141.5C116.9 141.7 117.6 141.8 118.2 141.8C121.6 141.8 124.8 139.5 125.7 136L125.9 135.9L126 136.1C125 139.7 121.8 142.1 118.2 142.1C117.5 142.1 116.8 142 116.1 141.8C112.5 140.8 110.1 137.6 110.1 134C110.1 133.3 110.2 132.6 110.4 131.9L110.6 131.8L110.7 132Z" fill="#22576F"/>
<path d="M125.8 136.1L128.6 125.7L128.7 125.6L128.8 125.7L126 136.1L125.9 136.2L125.8 136.1Z" fill="#22576F"/>
<path d="M113.5 121.6L110.7 132L110.6 132.1L110.5 132L113.3 121.6L113.4 121.5L113.5 121.6Z" fill="#22576F"/>
<path d="M128.6 136.8L131.4 126.4L131.5 126.3L131.6 126.5L128.8 136.9L128.7 137L128.6 136.8Z" fill="#22576F"/>
<path d="M131.5 126.5L110.6 121L110.5 120.8L110.7 120.7L131.5 126.3L131.6 126.5H131.5Z" fill="#22576F"/>
<path d="M110.8 120.9L108 131.3L107.8 131.4L107.7 131.2L110.5 120.8L110.7 120.7L110.8 120.9Z" fill="#22576F"/>
<path d="M111.1 130.7C110.9 131.4 110.8 132.1 110.8 132.7C110.8 136.1 113.1 139.3 116.6 140.2C117.3 140.4 118 140.5 118.6 140.5C122 140.5 125.2 138.2 126.1 134.7L126.3 134.6L126.4 134.8C125.4 138.4 122.2 140.8 118.6 140.8C117.9 140.8 117.2 140.7 116.5 140.5C112.9 139.5 110.5 136.3 110.5 132.7C110.5 132 110.6 131.3 110.8 130.6L111 130.5L111.1 130.7Z" fill="#22576F"/>
<path d="M21.6 79H18.2L18.1 78.8L18.2 78.7H21.6L21.8 78.8L21.6 79Z" fill="#22576F"/>
<path d="M21.6 78.7L21.7 78.6L21.8 78.5L21.9 78.6C21.9 78.8 21.7 79 21.5 79L21.4 78.9L21.6 78.7Z" fill="#22576F"/>
<path d="M21.8 78.2L21.7 78.1L21.6 78L21.7 77.9C21.9 77.9 22.1 78.1 22.1 78.3L22 78.4L21.8 78.2Z" fill="#22576F"/>
<path d="M21.8 78.6V78.2L21.9 78L22 78.2V78.6L21.9 78.7L21.8 78.6Z" fill="#22576F"/>
<path d="M18.2 77.9L18.4 78L18.5 78.1L18.4 78.2C18.3 78.2 18.1 78.1 18 78V77.8L18.2 77.9Z" fill="#22576F"/>
<path d="M18.4 78.7L18.2 78.8H18V78.6C18.1 78.5 18.2 78.4 18.4 78.4L18.5 78.5L18.4 78.7Z" fill="#22576F"/>
<path d="M20 78.7H18.4L18.3 78.6L18.4 78.5H20L20.2 78.6L20 78.7Z" fill="#22576F"/>
<path d="M18.4 78H20L20.2 78.1L20 78.2H18.4L18.3 78.1L18.4 78Z" fill="#22576F"/>
<path d="M20.1 78.4L20 78.2V78H20.1L20.3 78.2V78.4H20.1Z" fill="#22576F"/>
<path d="M20.1 78.5V78.3L20.2 78.1L20.3 78.3V78.5L20.2 78.6L20.1 78.5Z" fill="#22576F"/>
<path d="M18 77.7H18.2L18.3 77.8L18.2 77.9C18.1 77.9 18 77.9 17.9 77.8L17.8 77.6L18 77.7Z" fill="#22576F"/>
<path d="M18.2 79H18L17.8 78.9L17.9 78.7C18 78.7 18.1 78.6 18.2 78.6L18.3 78.7L18.2 79Z" fill="#22576F"/>
<path d="M18.2 77.8H21.6L21.8 77.9L21.6 78H18.2L18.1 77.9L18.2 77.8Z" fill="#22576F"/>
<path d="M18.1 78C18 77.9 17.8 77.8 17.7 77.8C17.6 77.8 17.4 77.8 17.3 77.9C17.2 78 17.1 78.2 17.1 78.3C17.1 78.4 17.1 78.6 17.2 78.7C17.3 78.8 17.5 78.9 17.6 78.9C17.7 78.9 17.9 78.9 18 78.8H18.2V79C18 79.1 17.8 79.2 17.7 79.2C17.5 79.2 17.3 79.1 17.1 78.9C17 78.7 16.9 78.5 16.9 78.4C16.9 78.2 17 78 17.2 77.8C17.4 77.7 17.6 77.6 17.7 77.6C17.9 77.6 18.1 77.7 18.3 77.9V78.1L18.1 78Z" fill="#22576F"/>
<path d="M18.1 78.1C18 78 17.9 78 17.8 78C17.7 78 17.6 78 17.5 78.1C17.4 78.2 17.4 78.3 17.4 78.4C17.4 78.5 17.4 78.6 17.5 78.7C17.6 78.8 17.7 78.8 17.8 78.8C17.9 78.8 18 78.8 18.1 78.7H18.3V78.9C18.2 79 18 79.1 17.8 79.1C17.6 79.1 17.4 79 17.3 78.9C17.2 78.8 17.1 78.6 17.1 78.4C17.1 78.2 17.2 78 17.3 77.9C17.4 77.8 17.6 77.7 17.8 77.7C18 77.7 18.2 77.8 18.3 77.9V78.1H18.1Z" fill="#22576F"/>
<path d="M20 78.5L20.1 78.4H20.3V78.6L20.1 78.7H20V78.5Z" fill="#22576F"/>
<path d="M28.5 71H29.9L30 71.2L29.9 71.3H28.5L28.4 71.2L28.5 71Z" fill="#22576F"/>
<path d="M29.9 85.7H28.5L28.4 85.6L28.5 85.4H29.9L30 85.6L29.9 85.7Z" fill="#22576F"/>
<path d="M29.3 83.6C29.5 83.6 29.7 83.4 29.7 83.2L29.8 83.1L29.9 83.2C29.9 83.6 29.6 83.8 29.2 83.8L29.1 83.7L29.3 83.6Z" fill="#22576F"/>
<path d="M22.1 82.4C24.4 83.1 26.9 83.5 29.3 83.6L29.4 83.7L29.3 83.8C26.8 83.7 24.4 83.3 22 82.6L21.9 82.4H22.1Z" fill="#22576F"/>
<path d="M22.1 74.3C20.5 74.8 19.3 76.2 19.1 77.9L19 78L18.9 77.9C19.1 76.1 20.3 74.6 22 74.1L22.2 74.2L22.1 74.3Z" fill="#22576F"/>
<path d="M19.1 78.8C19.3 80.5 20.4 81.9 22.1 82.4L22.2 82.6L22 82.7C20.3 82.2 19 80.7 18.9 78.9L19 78.8H19.1Z" fill="#22576F"/>
<path d="M29.3 73.1C26.8 73.2 24.4 73.6 22.1 74.3L21.9 74.2L22 74C24.4 73.3 26.8 72.9 29.3 72.8L29.4 72.9L29.3 73.1Z" fill="#22576F"/>
<path d="M29.8 73.5C29.8 73.3 29.6 73.1 29.4 73.1L29.3 73L29.4 72.9C29.8 72.9 30.1 73.2 30.1 73.6L30 73.7L29.8 73.5Z" fill="#22576F"/>
<path d="M30 73.5V83.2L29.9 83.3L29.8 83.2V73.5L29.9 73.4L30 73.5Z" fill="#22576F"/>
<path d="M12.7 85.6V85.5H29.9C31 85.5 31.9 84.6 31.9 83.5V73.4C31.9 72.3 31 71.4 29.9 71.4H12.8V85.7H12.7V85.6H12.6V71.2V71.1H12.7H29.9C31.2 71.1 32.2 72.1 32.2 73.4V83.5C32.2 84.8 31.2 85.8 29.9 85.8H12.7V85.6Z" fill="#22576F"/>
<path d="M20.3 77.8C20.1 77.8 20 77.9 19.8 78H19.6V77.8C19.8 77.6 20 77.5 20.2 77.5L20.3 77.6V77.8Z" fill="#22576F"/>
<path d="M19.9 78.8C20 78.9 20.2 79 20.4 79L20.5 79.1L20.4 79.2C20.2 79.2 19.9 79.1 19.8 78.9V78.7L19.9 78.8Z" fill="#22576F"/>
<path d="M20.3 79C20.5 79 20.6 78.9 20.8 78.8H21V79C20.8 79.2 20.6 79.3 20.4 79.3L20.3 79.2V79Z" fill="#22576F"/>
<path d="M20.8 78C20.7 77.9 20.5 77.8 20.3 77.8L20.2 77.7L20.3 77.6C20.5 77.6 20.8 77.7 20.9 77.9V78.1L20.8 78Z" fill="#22576F"/>
<path d="M28.8 83.2C28.9 83.2 29 83.1 29 83L29.1 82.9L29.2 83C29.2 83.3 29 83.5 28.7 83.5L28.6 83.4L28.8 83.2Z" fill="#22576F"/>
<path d="M23.2 82.7C24.7 83 26.2 83.2 27.7 83.2C28.1 83.2 28.4 83.2 28.8 83.2L28.9 83.3L28.8 83.4C28.4 83.4 28.1 83.4 27.7 83.4C26.2 83.4 24.7 83.2 23.2 82.9L23.1 82.8L23.2 82.7Z" fill="#22576F"/>
<path d="M22.1 74.3C22 74.3 21.9 74.4 21.7 74.4L21.5 74.3L21.6 74.1C21.7 74.1 21.9 74 22 74L22.2 74.1L22.1 74.3Z" fill="#22576F"/>
<path d="M21.8 82.3C21.9 82.3 22 82.4 22.2 82.4L22.3 82.6L22.1 82.7C22 82.7 21.8 82.6 21.7 82.6L21.6 82.4L21.8 82.3Z" fill="#22576F"/>
<path d="M28.8 73.6C28.4 73.6 28.1 73.6 27.7 73.6C26.2 73.6 24.7 73.8 23.2 74.1L23.1 74L23.2 73.9C24.7 73.6 26.2 73.4 27.7 73.4C28.1 73.4 28.4 73.4 28.8 73.4L28.9 73.5L28.8 73.6Z" fill="#22576F"/>
<path d="M29 73.8C29 73.7 28.9 73.6 28.8 73.6L28.7 73.5L28.8 73.4C29.1 73.4 29.3 73.6 29.3 73.9L29.2 74L29 73.8Z" fill="#22576F"/>
<path d="M29 82.9V73.8L29.1 73.7L29.3 73.8V82.9L29.1 83.1L29 82.9Z" fill="#22576F"/>
<path d="M23.4 41.7C24.3 42 25.3 42.1 26.2 42.1L26.3 42.2L26.2 42.3C25.2 42.3 24.3 42.2 23.3 41.9L23.2 41.7H23.4Z" fill="#22576F"/>
<path d="M21.2 40.7C21.9 41.2 22.6 41.5 23.4 41.8L23.5 42L23.3 42.1C22.5 41.9 21.7 41.5 21 41V40.8L21.2 40.7Z" fill="#22576F"/>
<path d="M20.5 40.1C20.7 40.3 20.9 40.5 21.2 40.7V40.9H21C20.8 40.7 20.5 40.5 20.3 40.3V40.1H20.5Z" fill="#22576F"/>
<path d="M26.2 42.1C27.2 42.1 28.1 42 29 41.7C29.8 41.5 30.5 41.1 31.2 40.6C31.8 40.1 32.4 39.5 32.8 38.9C33.1 38.3 33.3 37.7 33.3 37.1C33.3 36.5 33.1 35.8 32.8 35.3C32.4 34.6 31.9 34 31.2 33.6C30.5 33.1 29.8 32.8 29 32.5C28.1 32.2 27.1 32.1 26.2 32.1C25.2 32.1 24.3 32.2 23.4 32.5C22.6 32.7 21.9 33.1 21.2 33.6C21 33.8 20.7 34 20.5 34.2L20.4 34.1H20.5V40.3L20.4 40.4L20.3 40.3V34V33.9C20.5 33.7 20.7 33.5 21 33.3C21.7 32.8 22.5 32.4 23.3 32.2C24.2 31.9 25.2 31.8 26.2 31.8C27.2 31.8 28.1 31.9 29.1 32.2C29.9 32.4 30.7 32.8 31.4 33.3C32.1 33.8 32.6 34.4 33 35.1C33.3 35.7 33.5 36.4 33.5 37C33.5 37.7 33.3 38.4 33 38.9C32.6 39.6 32 40.2 31.4 40.7C30.7 41.2 29.9 41.6 29.1 41.8C28.2 42.1 27.2 42.2 26.2 42.2L26.1 42.1H26.2Z" fill="#22576F"/>
<path d="M17.2 41C19.5 41.1 21.8 41.4 24.1 41.9L24.2 42L24.1 42.1C21.8 41.7 19.6 41.4 17.3 41.2L17.2 41.1V41Z" fill="#22576F"/>
<path d="M18 35.1H17.9C17.8 34.6 17.6 34.1 17.4 33.6C17.1 33.1 16.8 32.6 16.3 32.3C16.2 32.2 16 32.2 15.9 32.2H15.8L13.7 32.6L13.6 32.8V41.5L13.7 41.7L15.8 42.1H15.9C16.1 42.1 16.2 42.1 16.3 42C16.8 41.7 17.2 41.2 17.4 40.7C17.6 40.2 17.8 39.7 17.9 39.2C18 38.5 18.1 37.9 18.1 37.2C18.1 36.5 18 35.9 17.9 35.2L18 35.1H18.1C18.2 35.8 18.3 36.4 18.3 37.1C18.3 37.8 18.2 38.5 18.1 39.1C18 39.6 17.8 40.1 17.6 40.6C17.3 41.2 16.9 41.7 16.4 42C16.2 42.1 16 42.2 15.8 42.2H15.6L13.5 41.8C13.3 41.8 13.2 41.6 13.2 41.4V32.7C13.2 32.5 13.3 32.3 13.5 32.3L15.6 31.9H15.8C16 31.9 16.2 32 16.4 32.1C16.9 32.5 17.3 33 17.6 33.5C17.8 34 18 34.5 18.1 35L18 35.1Z" fill="#22576F"/>
<path d="M17.1 32.9C19.4 32.8 21.7 32.5 23.9 32L24 32.1L23.9 32.2C21.6 32.6 19.3 32.9 17 33.1L16.9 33L17.1 32.9Z" fill="#22576F"/>
<path d="M15.4 37.1H15.3C15.3 36.7 15.6 36.4 16 36.4C16.4 36.4 16.7 36.7 16.7 37.1C16.7 37.5 16.4 37.8 16 37.8C15.6 37.8 15.3 37.5 15.3 37.1H15.4H15.5C15.5 37.3 15.7 37.5 15.9 37.5C16.1 37.5 16.3 37.3 16.3 37.1C16.3 36.9 16.1 36.7 15.9 36.7C15.7 36.7 15.5 36.9 15.5 37.1H15.4Z" fill="#22576F"/>
<path d="M185.4 272.4H185.3V265.6L6.1 241.7L6 241.6V235.8V235.7H6.1L191.2 260.3L191.3 260.5V272.4V272.5H191.2H185.4H185.3V272.4H185.4V272.3H191.1V260.6L6.3 235.9V241.5L185.4 265.4L185.6 265.5V272.4H185.4V272.3V272.4Z" fill="#22576F"/>
<path d="M245.1 272.4V272.5H239.3H239.2V272.4V235.8V235.7H239.3L245.1 236.4L245.2 236.6V272.4V272.5H245.1V272.4H244.9V236.7L239.4 235.9V272.3H245.1V272.4H244.9H245.1Z" fill="#22576F"/>
<path d="M237.1 120.5H205.4L205.3 120.3L205.4 120.2H237.1L237.2 120.3L237.1 120.5Z" fill="#22576F"/>
<path d="M12.7 104.7H63.6L63.7 104.8L63.6 104.9H12.7L12.6 104.8L12.7 104.7Z" fill="#22576F"/>
<path d="M17.6 226V226.1H6.1H6V226V14.8V14.7L6.1 14.6H207.5L207.6 14.7V14.8V16.3H208.9H209V16.4V20V20.1H208.9H207.6V23.5V23.6H207.5H183.3V25V25.1H183.2H179.9H179.8V25V23.6H69.8V49.2H71.5H71.6V49.3V57.8V57.9H71.5H67V60.6V60.7L66.9 60.8H63.6L63.5 60.7L63.4 60.6V25.3H12.8V91.3H63.4V85.1L63.5 85H63.6H66.9H67V85.1V115.3V115.4L66.9 115.5H55.4L55.3 115.4L55.2 115.3V112L55.3 111.9H55.4H63.4V94.9H12.8V111.9H20.8H20.9V112V115.3V115.4L20.8 115.5H12.8V189.4H18.4L18.5 189.5V189.6V193.6V193.7H18.4H17.8V226L17.7 226.1H17.6V226H17.5V193.6L17.6 193.5H18.2V189.7H12.7H12.6V189.6V115.3V115.2H12.7H20.7V112.1H12.7H12.6V112V94.7V94.6H12.7H63.6H63.7V94.7V112V112.1H63.6H55.5V115.2H66.8V85.2H63.7V91.4V91.5H63.6H12.7H12.6V91.4V25.2V25.1H12.7H63.6H63.7V25.2V60.5H66.8V57.8V57.7L66.9 57.6H71.4V49.4H69.7H69.6V49.3V23.5V23.4H69.7H179.9H180V23.5V24.9H183.1V23.5V23.4H183.2H207.3V20L207.4 19.9H207.5H208.8V16.5H207.5H207.4L207.3 16.4V14.9H6.2V225.9H17.6V226H17.5H17.6Z" fill="#22576F"/>
<path d="M76 189.6H76.1V193.5H76.7L76.8 193.6V196.7H191.1V176.7V176.6H191.2H191.8V172.8H184V184V184.1H183.9H114.9V189.6V189.7H114.8H76V189.6H76.1H76V189.4H114.7V184V183.9H114.8H183.8V172.6L183.9 172.5H191.9L192 172.6V176.7V176.8H191.9H191.3V196.8V196.9L191.2 197H76.7L76.6 196.9L76.5 196.8V193.7H75.9L75.8 193.6V189.6L76 189.4V189.6Z" fill="#22576F"/>
<path d="M209.2 172.6V172.8H205V181H209.1V172.6H209.2V172.8V172.6H209.3V181.1V181.2H209.2H204.9H204.8L204.7 181.1V172.6H204.8L204.9 172.5H209.2L209.3 172.6H209.2Z" fill="#22576F"/>
<path d="M235.1 172.6H235.2V181H239.3H239.4V181.1V225.9H245.8V14.9H234.9V16.4V16.5H234.8H233.5V19.9H234.8H234.9V20V23.4H237.1H237.2V23.5V109.8V109.9H237.1H234.3V113H237.1H237.2V113.1V130.4V130.5H237.1H205.4H205.3V130.4V113.1V113H205.4H208.2V109.9H205.4H205.3V109.8V107.4H199.4V136.4H237.1H237.2V136.5V172.6V172.7L237.1 172.8H235.1V172.6H235.2H235.1V172.5H236.9V136.6H199.3H199.2V136.5V107.3V107.2H199.3H205.4H205.5V107.3V109.7H208.3H208.4V109.8V113.1V113.2L208.3 113.3H205.5V130.3H236.9V113.3H234.2L234.1 113.2V113.1V109.8V109.7H234.2H236.9V23.6H234.8H234.7V23.5V20.1H233.4H233.3V20V16.4V16.3H233.4H234.7V14.8V14.7L234.8 14.6H245.9L246 14.7V14.8V226V226.1H245.9H239.3H239.2V226V181.2H235.1H235V181.1V172.6L235.1 172.5V172.6Z" fill="#22576F"/>
<path d="M93.1 49.3H93.2V57.6H199.3L199.4 57.7V57.8V82.7H205.3V49.4H183.2H183.1V49.3V48.2H180V49.3V49.4H179.9H93.1V49.3H93.2H93.1V49.2H179.8V48L179.9 47.9H183.2L183.3 48V49.2H205.4H205.5V49.3V82.8V82.9H205.4H199.3H199.2V82.8V57.9H93.1H93L92.9 57.8V49.3L93 49.2H93.1V49.3Z" fill="#22576F"/>
<path d="M221.2 71C221.9 71 222.5 71.6 222.5 72.3C222.5 73 221.9 73.6 221.2 73.6C220.5 73.6 219.9 73 219.9 72.3C219.9 71.6 220.5 71 221.2 71L221.3 71.1V72.3V72.4H221.2H221.1V72.3V65.1L221.2 65L221.3 65.1L222.4 68.2V68.3L222.3 68.4H221.2L221.1 68.3L221.2 68.2H222.1L221.3 66V72.5V72.6H221.2H221.1V72.5V71.3H221.2V71.4C220.6 71.4 220.1 71.9 220.1 72.5C220.1 73.1 220.6 73.6 221.2 73.6C221.8 73.6 222.3 73.1 222.3 72.5C222.3 71.9 221.8 71.4 221.2 71.4L221.1 71.3L221.2 71Z" fill="#22576F"/>
<path d="M147.8 36.4C147.8 35.5 148.5 34.8 149.4 34.8C150.3 34.8 151 35.5 151 36.4C151 37.3 150.3 38 149.4 38C148.5 38 147.8 37.3 147.8 36.4L147.9 36.3H149.3H149.4V36.4V36.5H149.3H120.5L120.4 36.4L120.5 36.3L124.1 35H124.2L124.3 35.1V36.4L124.2 36.5L124.1 36.4V35.3L121.3 36.3H149.4H149.5V36.4V36.5H149.4H148V36.4H148.1C148.1 37.1 148.7 37.7 149.4 37.7C150.1 37.7 150.7 37.1 150.7 36.4C150.7 35.7 150.1 35.1 149.4 35.1C148.7 35.1 148.1 35.7 148.1 36.4L148 36.5L147.8 36.4Z" fill="#22576F"/>
<path d="M235.1 181.2H209.2L209.1 181.1L209.2 181H235.1L235.2 181.1L235.1 181.2Z" fill="#22576F"/>
<path d="M235.1 172.8H209.2L209.1 172.6L209.2 172.5H235.1L235.2 172.6L235.1 172.8Z" fill="#22576F"/>
<path d="M233.4 20.1H208.9L208.8 20L208.9 19.9H233.4L233.5 20L233.4 20.1Z" fill="#22576F"/>
<path d="M233.4 16.5H208.9L208.8 16.4L208.9 16.3H233.4L233.5 16.4L233.4 16.5Z" fill="#22576F"/>
<path d="M116.3 223.5H115.5V224.6H115.1V221.5H116.3C117 221.5 117.5 221.9 117.5 222.5C117.5 223.2 116.9 223.5 116.3 223.5ZM116.3 221.8H115.5V223.2H116.3C116.8 223.2 117.2 222.9 117.2 222.5C117.1 222 116.8 221.8 116.3 221.8Z" fill="#22576F"/>
<path d="M121 224.6H120.6L120.2 223.8H118.5L118.1 224.6H117.7L119.1 221.5H119.4L121 224.6ZM119.4 221.9L118.7 223.5H120.1L119.4 221.9Z" fill="#22576F"/>
<path d="M122.7 224.6H122.3V221.8H121.3V221.5H123.8V221.8H122.8V224.6H122.7Z" fill="#22576F"/>
<path d="M125 221.5V224.6H124.6V221.5H125Z" fill="#22576F"/>
<path d="M127.6 224.7C126.7 224.7 126 224 126 223.1C126 222.2 126.6 221.5 127.6 221.5C128.5 221.5 129.2 222.2 129.2 223.1C129.2 224 128.5 224.7 127.6 224.7ZM127.6 221.8C126.9 221.8 126.4 222.4 126.4 223.1C126.4 223.8 126.9 224.4 127.6 224.4C128.3 224.4 128.8 223.8 128.8 223.1C128.8 222.4 128.3 221.8 127.6 221.8Z" fill="#22576F"/>
<path d="M25.7 60.4H24.9V61.5H24.5V58.4H25.7C26.4 58.4 26.9 58.8 26.9 59.4C26.9 60.1 26.4 60.4 25.7 60.4ZM25.7 58.7H24.9V60.1H25.7C26.2 60.1 26.6 59.8 26.6 59.4C26.6 59 26.2 58.7 25.7 58.7Z" fill="#22576F"/>
<path d="M29.3 61.6C28.4 61.6 27.7 60.9 27.7 60C27.7 59.1 28.3 58.4 29.3 58.4C30.2 58.4 30.9 59.1 30.9 60C30.9 60.9 30.2 61.6 29.3 61.6ZM29.3 58.7C28.6 58.7 28.1 59.3 28.1 60C28.1 60.7 28.6 61.3 29.3 61.3C30 61.3 30.5 60.7 30.5 60C30.5 59.3 30 58.7 29.3 58.7Z" fill="#22576F"/>
<path d="M33.6 58.4H33.9L34.8 61L35.7 58.4H36L34.9 61.5H34.6L33.7 59L32.8 61.5H32.5L31.4 58.4H31.8L32.7 61L33.6 58.4Z" fill="#22576F"/>
<path d="M38 61.5H36.9V58.4H38C39 58.4 39.7 59.1 39.7 60C39.7 60.9 38.9 61.5 38 61.5ZM38 58.7H37.3V61.2H38C38.8 61.2 39.3 60.7 39.3 60C39.3 59.3 38.8 58.7 38 58.7Z" fill="#22576F"/>
<path d="M42.9 58.7H41V59.8H42.7V60.1H41V61.2H42.9V61.5H40.6V58.4H42.9V58.7Z" fill="#22576F"/>
<path d="M46 61.5L45.1 60.3H44.2V61.5H43.8V58.4H45.1C45.8 58.4 46.2 58.8 46.2 59.3C46.2 59.8 45.8 60.1 45.4 60.2L46.4 61.5H46ZM45.1 58.7H44.1V60H45.1C45.6 60 45.9 59.8 45.9 59.4C45.9 59 45.6 58.7 45.1 58.7Z" fill="#22576F"/>
<path d="M80.8 36.4C81.5 36.6 81.8 36.8 81.8 37.3C81.8 37.8 81.4 38.2 80.7 38.2C80.2 38.2 79.8 38 79.4 37.7L79.6 37.4C79.9 37.7 80.2 37.8 80.7 37.8C81.1 37.8 81.4 37.6 81.4 37.3C81.4 37 81.2 36.8 80.6 36.7C79.9 36.5 79.6 36.3 79.6 35.8C79.6 35.3 80 34.9 80.6 34.9C81.1 34.9 81.4 35 81.7 35.3L81.5 35.6C81.2 35.4 80.9 35.3 80.6 35.3C80.2 35.3 79.9 35.5 79.9 35.8C79.9 36.1 80.1 36.2 80.8 36.4Z" fill="#22576F"/>
<path d="M83.9 38.1H83.5V35.3H82.5V35H85V35.3H84V38.1H83.9Z" fill="#22576F"/>
<path d="M87.1 38.2C86.2 38.2 85.5 37.5 85.5 36.6C85.5 35.7 86.1 35 87.1 35C88 35 88.7 35.7 88.7 36.6C88.7 37.5 88.1 38.2 87.1 38.2ZM87.1 35.3C86.4 35.3 85.9 35.9 85.9 36.6C85.9 37.3 86.4 37.9 87.1 37.9C87.8 37.9 88.3 37.3 88.3 36.6C88.3 35.9 87.9 35.3 87.1 35.3Z" fill="#22576F"/>
<path d="M91.9 38.1L91 36.9H90.1V38.1H89.7V35H91C91.7 35 92.1 35.4 92.1 35.9C92.1 36.4 91.7 36.7 91.3 36.8L92.3 38.1H91.9ZM91.1 35.3H90.1V36.6H91.1C91.6 36.6 91.9 36.4 91.9 36C91.9 35.5 91.6 35.3 91.1 35.3Z" fill="#22576F"/>
<path d="M96.2 38.1H95.8L95.4 37.3H93.7L93.3 38.1H93L94.4 35H94.7L96.2 38.1ZM94.6 35.4L93.9 37H95.3L94.6 35.4Z" fill="#22576F"/>
<path d="M98.3 38.2C97.3 38.2 96.7 37.5 96.7 36.6C96.7 35.7 97.3 35 98.3 35C98.8 35 99.2 35.2 99.5 35.4L99.3 35.7C99.1 35.5 98.8 35.3 98.4 35.3C97.7 35.3 97.2 35.9 97.2 36.6C97.2 37.3 97.7 37.9 98.4 37.9C98.8 37.9 99.1 37.8 99.3 37.6V36.8H98.4V36.5H99.7V37.7C99.3 37.9 98.9 38.2 98.3 38.2Z" fill="#22576F"/>
<path d="M102.9 35.3H101V36.4H102.7V36.7H101V37.8H102.9V38.1H100.6V35H102.9V35.3Z" fill="#22576F"/>
<path d="M132 101.5H132.3L133.2 104.1L134.1 101.5H134.5L133.4 104.6H133L132.1 102.1L131.2 104.6H131L129.9 101.5H130.3L131.2 104.1L132 101.5Z" fill="#22576F"/>
<path d="M136.6 104.6C135.7 104.6 135 103.9 135 103C135 102.1 135.6 101.4 136.6 101.4C137.5 101.4 138.2 102.1 138.2 103C138.2 103.9 137.5 104.6 136.6 104.6ZM136.6 101.7C135.9 101.7 135.4 102.3 135.4 103C135.4 103.7 135.9 104.3 136.6 104.3C137.3 104.3 137.8 103.7 137.8 103C137.8 102.3 137.3 101.7 136.6 101.7Z" fill="#22576F"/>
<path d="M141.3 104.6L140.4 103.4H139.5V104.6H139.1V101.5H140.4C141.1 101.5 141.5 101.9 141.5 102.4C141.5 102.9 141.1 103.2 140.7 103.3L141.7 104.6H141.3ZM140.5 101.8H139.5V103.1H140.5C141 103.1 141.3 102.9 141.3 102.5C141.3 102 141 101.8 140.5 101.8Z" fill="#22576F"/>
<path d="M145.3 104.6H144.9L143.7 103.1L143 103.8V104.6H142.6V101.5H143V103.4L144.8 101.5H145.3L144 102.9L145.3 104.6Z" fill="#22576F"/>
<path d="M217 185.5H215.1V186.6H216.8V186.9H215.1V188H217V188.3H214.7V185.2H217V185.5Z" fill="#22576F"/>
<path d="M220.2 185.1H220.5V188.2H220.2L218.2 185.6V188.2H217.9V185.1H218.2L220.2 187.6V185.1Z" fill="#22576F"/>
<path d="M222.8 188.3H222.4V185.5H221.4V185.2H223.9V185.5H222.9V188.3H222.8Z" fill="#22576F"/>
<path d="M226.9 188.3L226 187H225.1V188.2H224.7V185.1H226C226.7 185.1 227.1 185.5 227.1 186C227.1 186.5 226.7 186.8 226.3 186.9L227.3 188.2H226.9V188.3ZM226.1 185.5H225.1V186.8H226.1C226.6 186.8 226.9 186.6 226.9 186.2C226.9 185.7 226.6 185.5 226.1 185.5Z" fill="#22576F"/>
<path d="M229.4 188.3H229V187L227.7 185.1H228.1L229.2 186.7L230.3 185.1H230.7L229.4 187V188.3Z" fill="#22576F"/>
<path d="M215.6 5.69997H213.7V6.79997H215.4V7.09998H213.7V8.19997H215.6V8.49997H213.3V5.39996H215.6V5.69997Z" fill="#22576F"/>
<path d="M218.8 5.29999H219.1V8.39998H218.8L216.8 5.79999V8.39998H216.5V5.29999H216.8L218.8 7.79999V5.29999Z" fill="#22576F"/>
<path d="M221.4 8.49997H221V5.69997H220V5.39996H222.5V5.69997H221.5V8.49997H221.4Z" fill="#22576F"/>
<path d="M225.5 8.49997L224.6 7.29997H223.7V8.49997H223.3V5.39996H224.6C225.3 5.39996 225.7 5.79997 225.7 6.29997C225.7 6.79997 225.3 7.09997 224.9 7.19997L225.9 8.49997H225.5ZM224.6 5.69997H223.6V6.99997H224.6C225.1 6.99997 225.4 6.79996 225.4 6.39996C225.4 5.89996 225.1 5.69997 224.6 5.69997Z" fill="#22576F"/>
<path d="M228 8.49997H227.6V7.29997L226.3 5.39996H226.7L227.8 6.99997L228.9 5.39996H229.3L228 7.29997V8.49997Z" fill="#22576F"/>
<path d="M219.1 78.4H218V75.3H219.1C220.1 75.3 220.8 76 220.8 76.9C220.8 77.8 220.1 78.4 219.1 78.4ZM219.1 75.7H218.4V78.2H219.1C219.9 78.2 220.4 77.7 220.4 77C220.4 76.2 219.9 75.7 219.1 75.7Z" fill="#22576F"/>
<path d="M224.1 75.3H224.4V78.4H224.1L222.1 75.8V78.4H221.8V75.3H222.1L224.1 77.8V75.3Z" fill="#22576F"/>
<path d="M155.6 36.5C155.6 37.4 155.1 37.9 154.3 37.9C153.5 37.9 153 37.4 153 36.5V34.7H153.4V36.5C153.4 37.2 153.8 37.6 154.4 37.6C155 37.6 155.3 37.3 155.3 36.6V34.8H155.7V36.5H155.6Z" fill="#22576F"/>
<path d="M157.8 36.7H157V37.8H156.6V34.7H157.8C158.5 34.7 159 35.1 159 35.7C159 36.4 158.5 36.7 157.8 36.7ZM157.9 35.1H157.1V36.5H157.9C158.4 36.5 158.8 36.2 158.8 35.8C158.7 35.3 158.4 35.1 157.9 35.1Z" fill="#22576F"/>
</g>
<defs>
<clipPath id="clip0_0_1">
<rect width="866.2" height="490.5" fill="white" transform="translate(6 -188)"/>
</clipPath>
</defs>
</svg>
