<?xml version="1.0" encoding="utf-8"?>
<!-- Generator: Adobe Illustrator 25.2.0, SVG Export Plug-In . SVG Version: 6.00 Build 0)  -->
<svg version="1.1" id="Layer_1" xmlns="http://www.w3.org/2000/svg" xmlns:xlink="http://www.w3.org/1999/xlink" x="0px" y="0px"
	 viewBox="0 0 355.2 368.4" style="enable-background:new 0 0 355.2 368.4;" xml:space="preserve">
<style type="text/css">
	.st0{fill:none;stroke:#92A0B1;stroke-width:0.24;stroke-linejoin:round;stroke-miterlimit:10;}
	.st1{fill:none;stroke:#00516B;stroke-width:0.25;stroke-linecap:round;stroke-linejoin:round;stroke-miterlimit:10;}
	.st2{fill:none;stroke:#00516B;stroke-width:0.25;stroke-linecap:round;stroke-linejoin:round;stroke-miterlimit:9.9998;}
	
		.st3{fill:none;stroke:#00516B;stroke-width:0.25;stroke-linecap:round;stroke-linejoin:round;stroke-miterlimit:10;stroke-dasharray:2,1;}
	.st4{fill-rule:evenodd;clip-rule:evenodd;fill:#00516B;}
	.st5{fill:#00516B;}
	.st6{fill:#245169;}
</style>
<g>
	<line class="st0" x1="98.9" y1="247.8" x2="98.9" y2="246.4"/>
	<line class="st0" x1="98.9" y1="124.9" x2="98.9" y2="62.7"/>
	<line class="st0" x1="98.9" y1="230.3" x2="98.9" y2="228.7"/>
	<line class="st0" x1="98.9" y1="163" x2="98.9" y2="161.5"/>
	<line class="st0" x1="98.9" y1="180.6" x2="98.9" y2="179"/>
	<line class="st0" x1="104.9" y1="247.8" x2="104.9" y2="246.4"/>
	<line class="st0" x1="104.9" y1="126.8" x2="104.9" y2="62.7"/>
	<line class="st0" x1="104.9" y1="230.3" x2="104.9" y2="228.7"/>
	<line class="st0" x1="104.9" y1="163" x2="104.9" y2="161.5"/>
	<line class="st0" x1="104.9" y1="180.6" x2="104.9" y2="179"/>
	<line class="st0" x1="110.9" y1="247.8" x2="110.9" y2="246.4"/>
	<line class="st0" x1="110.9" y1="126.8" x2="110.9" y2="62.7"/>
	<line class="st0" x1="110.9" y1="230.3" x2="110.9" y2="228.7"/>
	<line class="st0" x1="110.9" y1="163" x2="110.9" y2="161.5"/>
	<line class="st0" x1="110.9" y1="180.6" x2="110.9" y2="179"/>
	<line class="st0" x1="116.9" y1="247.8" x2="116.9" y2="228.7"/>
	<line class="st0" x1="116.9" y1="126.8" x2="116.9" y2="62.7"/>
	<line class="st0" x1="116.9" y1="180.6" x2="116.9" y2="161.5"/>
	<line class="st0" x1="122.9" y1="247.8" x2="122.9" y2="228.7"/>
	<line class="st0" x1="122.9" y1="126.8" x2="122.9" y2="62.7"/>
	<line class="st0" x1="122.9" y1="180.6" x2="122.9" y2="161.5"/>
	<line class="st0" x1="128.9" y1="247.8" x2="128.9" y2="228.7"/>
	<line class="st0" x1="128.9" y1="126.8" x2="128.9" y2="95.3"/>
	<line class="st0" x1="128.9" y1="180.6" x2="128.9" y2="161.5"/>
	<line class="st0" x1="135" y1="247.8" x2="135" y2="228.7"/>
	<line class="st0" x1="135" y1="126.8" x2="135" y2="95.3"/>
	<line class="st0" x1="135" y1="180.6" x2="135" y2="161.5"/>
	<line class="st0" x1="141" y1="247.8" x2="141" y2="228.7"/>
	<line class="st0" x1="141" y1="126.8" x2="141" y2="95.3"/>
	<line class="st0" x1="141" y1="180.6" x2="141" y2="161.5"/>
	<line class="st0" x1="147" y1="247.8" x2="147" y2="228.7"/>
	<line class="st0" x1="147" y1="100.9" x2="147" y2="95.3"/>
	<line class="st0" x1="147" y1="180.6" x2="147" y2="161.5"/>
	<line class="st0" x1="147" y1="126.8" x2="147" y2="124.9"/>
	<line class="st0" x1="153" y1="247.8" x2="153" y2="228.7"/>
	<line class="st0" x1="153" y1="124.9" x2="153" y2="95.3"/>
	<line class="st0" x1="153" y1="180.6" x2="153" y2="161.5"/>
	<line class="st0" x1="159" y1="247.8" x2="159" y2="228.7"/>
	<line class="st0" x1="159" y1="180.6" x2="159" y2="95.3"/>
	<line class="st0" x1="165" y1="247.8" x2="165" y2="95.3"/>
	<line class="st0" x1="171" y1="247.8" x2="171" y2="95.3"/>
	<line class="st0" x1="177.1" y1="247.8" x2="177.1" y2="95.3"/>
	<line class="st0" x1="183.1" y1="247.8" x2="183.1" y2="128.6"/>
	<line class="st0" x1="183.1" y1="124.9" x2="183.1" y2="95.3"/>
	<line class="st0" x1="189.1" y1="236.6" x2="189.1" y2="209.6"/>
	<line class="st0" x1="189.1" y1="124.9" x2="189.1" y2="95.3"/>
	<line class="st0" x1="189.1" y1="208.2" x2="189.1" y2="206.4"/>
	<line class="st0" x1="195.1" y1="236.6" x2="195.1" y2="209.6"/>
	<line class="st0" x1="195.1" y1="124.9" x2="195.1" y2="95.3"/>
	<line class="st0" x1="195.1" y1="208.2" x2="195.1" y2="206.4"/>
	<line class="st0" x1="201.1" y1="236.6" x2="201.1" y2="209.6"/>
	<line class="st0" x1="201.1" y1="124.9" x2="201.1" y2="95.3"/>
	<line class="st0" x1="201.1" y1="208.2" x2="201.1" y2="206.4"/>
	<line class="st0" x1="207.1" y1="236.6" x2="207.1" y2="209.6"/>
	<line class="st0" x1="207.1" y1="91.5" x2="207.1" y2="73.9"/>
	<line class="st0" x1="207.1" y1="208.2" x2="207.1" y2="206.4"/>
	<line class="st0" x1="207.1" y1="120.7" x2="207.1" y2="95.3"/>
	<line class="st0" x1="207.1" y1="124.9" x2="207.1" y2="122.1"/>
	<line class="st0" x1="213.1" y1="236.6" x2="213.1" y2="206.4"/>
	<line class="st0" x1="213.1" y1="96.4" x2="213.1" y2="73.9"/>
	<line class="st0" x1="213.1" y1="124.9" x2="213.1" y2="122.1"/>
	<line class="st0" x1="213.1" y1="120.7" x2="213.1" y2="98"/>
	<line class="st0" x1="219.2" y1="236.6" x2="219.2" y2="206.4"/>
	<line class="st0" x1="219.2" y1="99.8" x2="219.2" y2="73.9"/>
	<line class="st0" x1="219.2" y1="124.9" x2="219.2" y2="122.1"/>
	<line class="st0" x1="219.2" y1="120.7" x2="219.2" y2="101.5"/>
	<line class="st0" x1="225.2" y1="124.9" x2="225.2" y2="122.1"/>
	<line class="st0" x1="225.2" y1="103.3" x2="225.2" y2="73.9"/>
	<line class="st0" x1="225.2" y1="120.7" x2="225.2" y2="104.7"/>
	<line class="st0" x1="231.2" y1="124.9" x2="231.2" y2="104.3"/>
	<line class="st0" x1="231.2" y1="102.7" x2="231.2" y2="73.9"/>
	<line class="st0" x1="237.2" y1="124.9" x2="237.2" y2="100.9"/>
	<line class="st0" x1="237.2" y1="99.2" x2="237.2" y2="73.9"/>
	<line class="st0" x1="243.2" y1="206" x2="243.2" y2="97.4"/>
	<line class="st0" x1="243.2" y1="95.8" x2="243.2" y2="73.9"/>
	<line class="st0" x1="249.2" y1="206" x2="249.2" y2="96.6"/>
	<line class="st0" x1="249.2" y1="95" x2="249.2" y2="73.9"/>
	<line class="st0" x1="255.3" y1="206" x2="255.3" y2="100.1"/>
	<line class="st0" x1="255.3" y1="98.5" x2="255.3" y2="73.9"/>
	<line class="st0" x1="261.3" y1="206" x2="261.3" y2="103.5"/>
	<line class="st0" x1="261.3" y1="101.9" x2="261.3" y2="73.9"/>
	<line class="st0" x1="267.3" y1="206" x2="267.3" y2="73.9"/>
	<line class="st0" x1="273.3" y1="206" x2="273.3" y2="102.2"/>
	<line class="st0" x1="273.3" y1="100.6" x2="273.3" y2="73.9"/>
	<line class="st0" x1="279.3" y1="201.5" x2="279.3" y2="98.7"/>
	<line class="st0" x1="279.3" y1="97.1" x2="279.3" y2="73.9"/>
	<line class="st0" x1="285.3" y1="201.5" x2="285.3" y2="178.9"/>
	<line class="st0" x1="285.3" y1="91.5" x2="285.3" y2="73.9"/>
	<line class="st0" x1="285.3" y1="117.9" x2="285.3" y2="95.3"/>
	<line class="st0" x1="291.3" y1="201.5" x2="291.3" y2="178.9"/>
	<line class="st0" x1="291.3" y1="117.9" x2="291.3" y2="95.3"/>
	<line class="st0" x1="297.4" y1="201.5" x2="297.4" y2="178.9"/>
	<line class="st0" x1="297.4" y1="117.9" x2="297.4" y2="93.4"/>
	<line class="st0" x1="303.4" y1="201.5" x2="303.4" y2="178.9"/>
	<line class="st0" x1="303.4" y1="117.9" x2="303.4" y2="93.4"/>
	<line class="st0" x1="309.4" y1="201.5" x2="309.4" y2="178.9"/>
	<line class="st0" x1="309.4" y1="117.9" x2="309.4" y2="93.4"/>
	<line class="st0" x1="315.4" y1="201.5" x2="315.4" y2="178.9"/>
	<line class="st0" x1="315.4" y1="117.9" x2="315.4" y2="93.4"/>
	<line class="st0" x1="321.4" y1="201.5" x2="321.4" y2="178.9"/>
	<line class="st0" x1="321.4" y1="117.9" x2="321.4" y2="95.3"/>
	<line class="st0" x1="327.4" y1="201.5" x2="327.4" y2="178.9"/>
	<line class="st0" x1="327.4" y1="117.9" x2="327.4" y2="95.3"/>
	<line class="st0" x1="333.4" y1="201.5" x2="333.4" y2="196.5"/>
	<line class="st0" x1="333.4" y1="100.3" x2="333.4" y2="95.3"/>
	<line class="st0" x1="333.4" y1="180.5" x2="333.4" y2="178.9"/>
	<line class="st0" x1="333.4" y1="117.9" x2="333.4" y2="116.3"/>
	<line class="st0" x1="339.5" y1="201.5" x2="339.5" y2="196.5"/>
	<line class="st0" x1="339.5" y1="100.3" x2="339.5" y2="95.3"/>
	<line class="st0" x1="339.5" y1="180.5" x2="339.5" y2="178.9"/>
	<line class="st0" x1="339.5" y1="117.9" x2="339.5" y2="116.3"/>
	<rect x="98.9" y="163" class="st0" width="12.8" height="16"/>
	<rect x="98.9" y="230.3" class="st0" width="12.8" height="16"/>
	<rect x="331" y="180.5" class="st0" width="12.8" height="16"/>
	<rect x="331" y="100.3" class="st0" width="12.8" height="16"/>
	<polygon class="st0" points="97.3,62.7 97.3,88 92.9,88 92.9,117.6 97.3,117.6 97.3,124.9 100.5,124.9 100.5,100.9 99.1,100.9 
		99.1,126.8 147.2,126.8 147.2,100.9 145.8,100.9 145.8,124.9 157.4,124.9 157.4,152.7 158.8,152.7 158.8,128.6 154.6,128.6 
		154.6,161.5 97.3,161.5 97.3,180.6 163,180.6 163,228.7 97.3,228.7 97.3,247.8 185.3,247.8 185.3,232.3 189,232.3 189,236.6 
		223.4,236.6 223.4,206.4 189,206.4 189,209.6 213,209.6 213,208.2 185.3,208.2 185.3,157.1 187.1,157.1 187.1,131.4 185.3,131.4 
		185.3,128.6 181.5,128.6 181.5,124.9 202.1,124.9 202.1,122.1 229.9,122.1 229.9,120.7 205.8,120.7 205.8,124.9 242.7,124.9 
		242.7,206 273.4,206 273.4,201.5 345.5,201.5 345.5,178.9 279.7,178.9 279.7,117.9 345.5,117.9 345.5,95.3 318.6,95.3 318.6,93.4 
		294.5,93.4 294.5,95.3 285.3,95.3 268.7,104.9 268,103.6 284.6,94 285.3,95.3 285.3,91.5 288,91.5 288,73.9 205.8,73.9 205.8,91.5 
		208.4,91.5 208.4,95.3 225.1,104.9 225.7,103.6 209.1,94 208.4,95.3 205.8,95.3 205.8,98.1 202.1,98.1 202.1,95.3 127.3,95.3 
		127.3,90.2 123.3,90.2 123.3,89 127.3,89 127.3,62.7 	"/>
	<polygon class="st0" points="229.5,103.7 246.2,94 246.9,95.3 247.6,94 264.2,103.6 263.5,104.9 246.9,95.3 230.2,104.9 	"/>
	<path class="st1" d="M128.9,77.1c0-0.9-0.7-1.6-1.6-1.6c-0.9,0-1.6,0.7-1.6,1.6c0,0.9,0.7,1.6,1.6,1.6
		C128.2,78.7,128.9,77.9,128.9,77.1h-1.6h52.9l-4-1.5v1.5"/>
	<polygon class="st1" points="185.1,256 185.1,252.3 184.5,252.3 184.5,247.8 185.3,247.8 185.3,232.3 189,232.3 189,247.8 
		209.1,247.8 209.1,241.6 234.6,241.6 234.6,206.4 189,206.4 189,208.2 185.3,208.2 185.3,157.1 189,157.1 189,200.8 237.1,200.8 
		237.1,128.6 189,128.6 189,131.4 185.3,131.4 185.3,128.6 181.5,128.6 181.5,124.9 202.1,124.9 202.1,122.1 205.8,122.1 
		205.8,124.9 242.7,124.9 242.7,256 	"/>
	<polygon class="st1" points="129.7,62.7 129.7,58.2 130.5,58.2 130.5,54.6 230.2,54.6 230.2,13.1 321.9,13.1 321.9,22.4 
		239.5,22.4 239.5,59 291.7,59 291.7,91.5 294.5,91.5 294.5,95.3 285.3,95.3 285.3,91.5 288,91.5 288,62.7 205.8,62.7 205.8,91.5 
		208.4,91.5 208.4,95.3 205.8,95.3 205.8,98.1 202.1,98.1 202.1,62.7 	"/>
	<polygon class="st1" points="347.9,288.4 347.9,209.6 344.3,209.6 344.3,206 343.5,206 343.5,201.5 345.5,201.5 345.5,95.3 
		318.6,95.3 318.6,91.5 345.5,91.5 345.5,22.4 344.1,22.4 344.1,13.1 347.9,13.1 347.9,0.1 355.1,0.1 355.1,288.4 	"/>
	<polygon class="st1" points="100.9,288.4 85.9,288.4 85.9,247.9 92.9,247.9 92.9,247.1 97.3,247.1 97.3,247.8 101.7,247.8 
		101.7,252.3 100.9,252.3 	"/>
	<polygon class="st1" points="85.9,229.5 92.9,229.5 92.9,230.3 97.3,230.3 97.3,180.8 92.9,180.8 92.9,181.6 85.9,181.6 	"/>
	<polygon class="st1" points="85.9,116.9 85.9,163.1 92.9,163.1 92.9,163.9 97.3,163.9 97.3,161.5 154.6,161.5 154.6,128.6 
		157.4,128.6 157.4,124.9 147.2,124.9 147.2,128.6 149,128.6 149,157.8 97.3,157.8 97.3,128.6 99.1,128.6 99.1,124.9 97.3,124.9 
		97.3,117.6 94,117.6 94,116.9 	"/>
	<polygon class="st1" points="85.9,67.3 92.9,67.3 92.9,68.1 97.3,68.1 97.3,62.7 102.2,62.7 102.2,58.2 104.5,58.2 104.5,54.6 
		100.9,54.6 100.9,0.1 85.9,0.1 	"/>
	<polyline class="st1" points="347.9,272 237.1,272 237.1,256 	"/>
	<rect x="127.3" y="91.5" class="st1" width="74.8" height="3.7"/>
	<rect x="327.4" y="47" class="st1" width="18" height="44.5"/>
	<polyline class="st1" points="85.9,52.3 0.1,52.3 0.1,256.8 85.9,256.8 	"/>
	<polyline class="st1" points="85.9,61.9 9.7,61.9 9.7,247.1 85.9,247.1 	"/>
	<rect x="219.1" y="128.6" class="st1" width="18" height="22.5"/>
	<line class="st1" x1="223.4" y1="236.6" x2="189" y2="236.6"/>
	<line class="st1" x1="223.4" y1="236.6" x2="223.4" y2="206.4"/>
	<line class="st1" x1="205.8" y1="73.9" x2="288" y2="73.9"/>
	<rect x="99.5" y="132.5" class="st1" width="21.7" height="22.4"/>
	<rect x="125.1" y="132.5" class="st1" width="21.7" height="22.4"/>
	<line class="st1" x1="99.5" y1="152.2" x2="121.1" y2="152.2"/>
	<line class="st1" x1="125.1" y1="152.2" x2="146.8" y2="152.2"/>
	<rect x="293.1" y="22.6" transform="matrix(0.866 -0.5 0.5 0.866 22.4076 151.2223)" class="st2" width="0.6" height="22.4"/>
	<line class="st1" x1="289.4" y1="22.4" x2="289.4" y2="26.2"/>
	<line class="st1" x1="289.4" y1="27.4" x2="289.4" y2="59"/>
	<polyline class="st1" points="288.1,22.4 288.1,24 287.5,24 287.5,22.4 	"/>
	<rect x="287.5" y="46.4" class="st1" width="0.6" height="12.6"/>
	<line class="st1" x1="239.6" y1="40.3" x2="241.7" y2="40.3"/>
	<line class="st1" x1="241.7" y1="40.3" x2="241.7" y2="41.1"/>
	<line class="st1" x1="241.7" y1="41.1" x2="239.6" y2="41.1"/>
	<line class="st1" x1="239.5" y1="40.2" x2="239.6" y2="40.2"/>
	<line class="st1" x1="239.6" y1="40.2" x2="239.6" y2="41.2"/>
	<line class="st1" x1="239.6" y1="41.2" x2="239.5" y2="41.2"/>
	<line class="st1" x1="241.8" y1="38.8" x2="241.8" y2="41.7"/>
	<line class="st1" x1="241.6" y1="42.8" x2="241" y2="42.8"/>
	<line class="st1" x1="241" y1="42.8" x2="241" y2="41.1"/>
	<line class="st1" x1="241" y1="40.3" x2="241" y2="38.8"/>
	<line class="st1" x1="241" y1="38.8" x2="241.8" y2="38.8"/>
	<line class="st1" x1="241.8" y1="39.6" x2="241" y2="39.6"/>
	<path class="st1" d="M242.9,41c0.1,0,0.1,0,0.2,0c0.6,0.1,1,0.7,1,1.4c0,0.7-0.6,1.3-1.2,1.2"/>
	<path class="st1" d="M241.7,42.4c0-0.7,0.5-1.3,1.1-1.3s1.1,0.6,1.1,1.3c0,0.7-0.5,1.3-1.1,1.3S241.7,43.1,241.7,42.4z"/>
	<path class="st1" d="M241.9,41.6c0,0-0.1,0.1-0.1,0.1c-0.1,0.1-0.1,0.2-0.2,0.2c-0.1,0-0.1,0.1-0.2,0.1c0,0-0.1,0-0.1,0"/>
	<path class="st1" d="M241.9,43.1c0,0-0.1-0.1-0.1-0.1c-0.1-0.1-0.1-0.2-0.2-0.2c-0.1,0-0.1-0.1-0.2-0.1c0,0-0.1,0-0.1,0"/>
	<path class="st1" d="M241.3,42c-0.2,0.1-0.3,0.3-0.2,0.5c0,0.1,0.1,0.2,0.2,0.2"/>
	<line class="st1" x1="239.5" y1="40.2" x2="239.5" y2="41.2"/>
	<path class="st1" d="M245.1,41.7c0-1,0.8-1.9,1.9-1.9c1,0,1.9,0.8,1.9,1.9s-0.8,1.9-1.9,1.9C246,43.6,245.1,42.7,245.1,41.7z"/>
	<line class="st1" x1="286.2" y1="59" x2="286.2" y2="22.4"/>
	<line class="st1" x1="286.2" y1="57.8" x2="274" y2="57.8"/>
	<polyline class="st1" points="272.3,57.8 240.7,57.8 240.7,41.1 	"/>
	<path class="st1" d="M288.1,46.4c3.9,0,7.8-1,11.2-3"/>
	<line class="st1" x1="272.3" y1="57.9" x2="274" y2="57.9"/>
	<line class="st1" x1="276" y1="58.3" x2="270.2" y2="58.3"/>
	<path class="st1" d="M272.3,57.9c-0.7,0.1-1.3,0.2-2,0.4"/>
	<path class="st1" d="M276,58.3c-0.7-0.2-1.3-0.3-2-0.4"/>
	<line class="st1" x1="276.1" y1="58.5" x2="276" y2="58.3"/>
	<line class="st1" x1="270.2" y1="58.3" x2="270.2" y2="58.5"/>
	<path class="st1" d="M276,58.3C276,58.3,276,58.3,276,58.3"/>
	<path class="st1" d="M270.3,58.3C270.2,58.3,270.2,58.3,270.3,58.3"/>
	<line class="st1" x1="274" y1="57.9" x2="274" y2="57.1"/>
	<line class="st1" x1="272.3" y1="57.1" x2="272.3" y2="57.9"/>
	<line class="st1" x1="272.5" y1="56.7" x2="273.1" y2="56.7"/>
	<line class="st1" x1="273.1" y1="56.7" x2="273.1" y2="56.7"/>
	<line class="st1" x1="274" y1="56.7" x2="273.8" y2="56.7"/>
	<line class="st1" x1="272.5" y1="56.7" x2="272.3" y2="56.7"/>
	<line class="st1" x1="273.1" y1="56.7" x2="273.8" y2="56.7"/>
	<line class="st1" x1="274" y1="56.7" x2="274" y2="55.5"/>
	<line class="st1" x1="272.3" y1="55.5" x2="272.3" y2="56.7"/>
	<path class="st1" d="M274,56.7C274,56.7,274,56.7,274,56.7"/>
	<path class="st1" d="M272.3,56.7C272.3,56.7,272.3,56.7,272.3,56.7"/>
	<path class="st1" d="M272.3,55.5C272.3,55.5,272.3,55.5,272.3,55.5"/>
	<path class="st1" d="M274,55.5C274,55.5,273.9,55.5,274,55.5"/>
	<path class="st1" d="M273.9,55.5c-0.5,0-1.1,0-1.6,0"/>
	<path class="st1" d="M274,57.1c0-0.1,0-0.3-0.1-0.4"/>
	<path class="st1" d="M272.4,56.7c-0.1,0.1-0.1,0.3-0.1,0.4"/>
	<line class="st1" x1="270.2" y1="58.5" x2="270.2" y2="59"/>
	<line class="st1" x1="276.1" y1="58.5" x2="276.1" y2="59"/>
	<polyline class="st1" points="286.2,23.6 240.7,23.6 240.7,40.3 	"/>
	<path class="st1" d="M334.6,57.8c0-0.7,0.5-1.2,1.2-1.2s1.2,0.5,1.2,1.2c0,0.7-0.5,1.2-1.2,1.2S334.6,58.5,334.6,57.8z"/>
	<path class="st1" d="M335.1,57.8c0-0.4,0.3-0.7,0.7-0.7s0.7,0.3,0.7,0.7s-0.3,0.7-0.7,0.7S335.1,58.2,335.1,57.8z"/>
	<line class="st1" x1="339.1" y1="57.3" x2="342.9" y2="57.3"/>
	<path class="st1" d="M339.1,57.3c-0.2,0-0.3,0.1-0.3,0.3"/>
	<path class="st1" d="M338.8,58.1c0,0.2,0.1,0.3,0.3,0.3"/>
	<line class="st1" x1="338.8" y1="57.6" x2="338.8" y2="58.1"/>
	<path class="st1" d="M343,58.2c-0.1-0.1-0.2-0.1-0.3-0.1"/>
	<path class="st1" d="M342.7,57.6c0.1,0,0.2-0.1,0.3-0.1"/>
	<line class="st1" x1="340.9" y1="57.6" x2="342.7" y2="57.6"/>
	<line class="st1" x1="342.7" y1="58.1" x2="340.9" y2="58.1"/>
	<path class="st1" d="M340.7,57.9c0,0.1,0.1,0.2,0.2,0.2"/>
	<line class="st1" x1="340.7" y1="57.7" x2="340.7" y2="57.9"/>
	<path class="st1" d="M343.2,58.4c-0.1,0-0.2-0.1-0.3-0.1"/>
	<path class="st1" d="M342.9,57.3c0.1,0,0.2,0,0.3-0.1"/>
	<line class="st1" x1="342.9" y1="58.3" x2="339.1" y2="58.3"/>
	<path class="st1" d="M342.9,58.3c0.3,0.3,0.8,0.3,1.1,0c0.3-0.3,0.3-0.8,0-1.1c-0.3-0.3-0.8-0.3-1.1,0c0,0,0,0,0,0"/>
	<path class="st1" d="M343,58.2c0.2,0.3,0.6,0.3,0.9,0.1s0.3-0.6,0-0.9c-0.2-0.3-0.6-0.3-0.9-0.1c0,0,0,0,0,0.1"/>
	<path class="st1" d="M340.9,57.6c-0.1,0-0.2,0.1-0.2,0.2"/>
	<path class="st1" d="M341.8,57.3c-0.3-3.3-3.2-5.8-6.5-5.5c-3.3,0.3-5.8,3.2-5.5,6.5s3.2,5.8,6.5,5.5c2.9-0.2,5.2-2.6,5.5-5.5"/>
	<path class="st1" d="M334.6,80.8c0-0.7,0.5-1.2,1.2-1.2s1.2,0.5,1.2,1.2c0,0.7-0.5,1.2-1.2,1.2S334.6,81.4,334.6,80.8z"/>
	<path class="st1" d="M335.1,80.8c0-0.4,0.3-0.7,0.7-0.7s0.7,0.3,0.7,0.7s-0.3,0.7-0.7,0.7C335.4,81.5,335.1,81.1,335.1,80.8z"/>
	<line class="st1" x1="339.1" y1="80.2" x2="342.9" y2="80.2"/>
	<path class="st1" d="M339.1,80.2c-0.2,0-0.3,0.1-0.3,0.3"/>
	<path class="st1" d="M338.8,81c0,0.2,0.1,0.3,0.3,0.3"/>
	<line class="st1" x1="338.8" y1="80.5" x2="338.8" y2="81"/>
	<path class="st1" d="M343,81.2c-0.1-0.1-0.2-0.1-0.3-0.1"/>
	<path class="st1" d="M342.7,80.5c0.1,0,0.2-0.1,0.3-0.1"/>
	<line class="st1" x1="340.9" y1="80.5" x2="342.7" y2="80.5"/>
	<line class="st1" x1="342.7" y1="81" x2="340.9" y2="81"/>
	<path class="st1" d="M340.7,80.9c0,0.1,0.1,0.2,0.2,0.2"/>
	<line class="st1" x1="340.7" y1="80.6" x2="340.7" y2="80.9"/>
	<path class="st1" d="M343.2,81.3c-0.1,0-0.2-0.1-0.3-0.1"/>
	<path class="st1" d="M342.9,80.2c0.1,0,0.2,0,0.3-0.1"/>
	<line class="st1" x1="342.9" y1="81.3" x2="339.1" y2="81.3"/>
	<path class="st1" d="M342.9,81.3c0.3,0.3,0.8,0.3,1.1,0c0.3-0.3,0.3-0.8,0-1.1c-0.3-0.3-0.8-0.3-1.1,0c0,0,0,0,0,0"/>
	<path class="st1" d="M343,81.2c0.2,0.3,0.6,0.3,0.9,0.1c0.3-0.2,0.3-0.6,0-0.9c-0.2-0.3-0.6-0.3-0.9-0.1c0,0,0,0,0,0.1"/>
	<path class="st1" d="M340.9,80.5c-0.1,0-0.2,0.1-0.2,0.2"/>
	<path class="st1" d="M341.8,80.2c-0.3-3.3-3.2-5.8-6.5-5.5c-3.3,0.3-5.8,3.2-5.5,6.5s3.2,5.8,6.5,5.5c2.9-0.2,5.2-2.6,5.5-5.5"/>
	<path class="st1" d="M330.4,40.5c1.1,0,2.1-0.1,3.2-0.5c0.9-0.3,1.7-0.7,2.5-1.2c0.3-0.2,0.5-0.4,0.8-0.6"/>
	<path class="st1" d="M330.4,40.5c-1.1,0-2.1-0.1-3.2-0.5c-0.9-0.3-1.7-0.7-2.5-1.2c-0.7-0.5-1.3-1.2-1.8-2
		c-0.4-0.6-0.6-1.4-0.6-2.1s0.2-1.5,0.6-2.1c0.5-0.8,1.1-1.4,1.8-2c0.8-0.6,1.6-1,2.5-1.2c1-0.3,2.1-0.5,3.2-0.5s2.1,0.2,3.2,0.5
		c0.9,0.3,1.7,0.7,2.5,1.2c0.3,0.2,0.5,0.4,0.8,0.6v6.9"/>
	<path class="st1" d="M340.5,39.2c-2.6,0.1-5.1,0.5-7.6,1"/>
	<path class="st1" d="M339.6,32.5c0.1-0.6,0.3-1.1,0.5-1.7c0.3-0.6,0.7-1.2,1.3-1.6c0.2-0.1,0.5-0.2,0.7-0.2l2.4,0.4
		c0.2,0,0.3,0.2,0.3,0.3v9.7c0,0.2-0.1,0.3-0.3,0.3l-2.4,0.4c-0.3,0.1-0.5,0-0.7-0.2c-0.6-0.4-1-0.9-1.3-1.6
		c-0.2-0.5-0.4-1.1-0.5-1.7c-0.1-0.7-0.2-1.5-0.2-2.2S339.5,33.2,339.6,32.5z"/>
	<path class="st1" d="M340.5,30.2c-2.6-0.1-5.1-0.5-7.6-1"/>
	<path class="st1" d="M341.3,34.7c0-0.3,0.3-0.6,0.6-0.6s0.6,0.3,0.6,0.6s-0.3,0.6-0.6,0.6S341.3,35,341.3,34.7z"/>
	<path class="st1" d="M222.1,168.9c1.1,0,2.1-0.2,3.2-0.5c0.9-0.3,1.7-0.7,2.5-1.2c0.3-0.2,0.5-0.4,0.8-0.6"/>
	<path class="st1" d="M222.1,168.9c-1.1,0-2.1-0.2-3.2-0.5c-0.9-0.3-1.7-0.7-2.5-1.2c-0.7-0.5-1.3-1.2-1.8-2
		c-0.4-0.6-0.6-1.4-0.6-2.1c0-0.7,0.2-1.5,0.6-2.1c0.5-0.8,1.1-1.5,1.8-2c0.8-0.5,1.6-1,2.5-1.2c1-0.3,2.1-0.5,3.2-0.5
		s2.1,0.2,3.2,0.5c0.9,0.3,1.7,0.7,2.5,1.2c0.3,0.2,0.5,0.4,0.8,0.6v6.9"/>
	<path class="st1" d="M232.1,167.6c-2.6,0.1-5.1,0.5-7.6,1"/>
	<path class="st1" d="M231.2,160.9c0.1-0.6,0.3-1.1,0.5-1.7c0.3-0.6,0.7-1.2,1.3-1.6c0.2-0.1,0.5-0.2,0.7-0.2l2.4,0.5
		c0.2,0,0.3,0.2,0.3,0.3v9.7c0,0.2-0.1,0.3-0.3,0.3l-2.4,0.5c-0.3,0-0.5,0-0.7-0.2c-0.6-0.4-1-0.9-1.3-1.6c-0.2-0.5-0.4-1.1-0.5-1.7
		c-0.1-0.7-0.2-1.5-0.2-2.2S231.1,161.6,231.2,160.9z"/>
	<path class="st1" d="M232.1,158.6c-2.6-0.1-5.1-0.5-7.6-1"/>
	<path class="st1" d="M232.9,163.1c0-0.3,0.3-0.6,0.6-0.6s0.6,0.3,0.6,0.6c0,0.3-0.3,0.6-0.6,0.6S232.9,163.5,232.9,163.1z"/>
	<path class="st1" d="M226.3,139.9c0-0.7,0.5-1.2,1.2-1.2s1.2,0.5,1.2,1.2c0,0.7-0.5,1.2-1.2,1.2S226.3,140.5,226.3,139.9z"/>
	<path class="st1" d="M226.8,139.9c0-0.4,0.3-0.7,0.7-0.7s0.7,0.3,0.7,0.7s-0.3,0.7-0.7,0.7C227.1,140.6,226.8,140.3,226.8,139.9z"
		/>
	<path class="st1" d="M233.5,139.4c-0.3-3.3-3.2-5.8-6.5-5.5c-3.3,0.3-5.8,3.2-5.5,6.5c0.3,3.3,3.2,5.8,6.5,5.5
		c2.9-0.2,5.2-2.6,5.5-5.5"/>
	<line class="st1" x1="234.1" y1="188.7" x2="232.3" y2="188.7"/>
	<line class="st1" x1="232.3" y1="188.7" x2="231.3" y2="188.7"/>
	<path class="st1" d="M231.3,188.7C231.3,188.7,231.3,188.7,231.3,188.7c-0.3,0-0.4-0.3-0.4-0.5s0.2-0.5,0.4-0.5"/>
	<line class="st1" x1="234.1" y1="187.7" x2="232.3" y2="187.7"/>
	<line class="st1" x1="232.3" y1="187.7" x2="231.3" y2="187.7"/>
	<line class="st1" x1="236.4" y1="190.9" x2="236.5" y2="190.9"/>
	<line class="st1" x1="236.4" y1="190.9" x2="236.5" y2="190.9"/>
	<line class="st1" x1="237.1" y1="190.8" x2="236.5" y2="190.9"/>
	<line class="st1" x1="234.1" y1="188.8" x2="234.1" y2="187.6"/>
	<line class="st1" x1="234.2" y1="188.8" x2="234.2" y2="187.6"/>
	<line class="st1" x1="234.3" y1="188.8" x2="234.3" y2="187.6"/>
	<line class="st1" x1="236.1" y1="189" x2="236.2" y2="189"/>
	<line class="st1" x1="234.1" y1="188.8" x2="234.2" y2="188.8"/>
	<line class="st1" x1="234.1" y1="188.8" x2="234.2" y2="188.8"/>
	<line class="st1" x1="234.3" y1="188.8" x2="236.1" y2="188.8"/>
	<line class="st1" x1="234.3" y1="188.8" x2="234.2" y2="188.8"/>
	<line class="st1" x1="233.2" y1="188.4" x2="233.9" y2="188.4"/>
	<line class="st1" x1="233.2" y1="188" x2="233.9" y2="188"/>
	<line class="st1" x1="234.3" y1="187.6" x2="234.2" y2="187.6"/>
	<line class="st1" x1="236.1" y1="189" x2="236.1" y2="187.4"/>
	<line class="st1" x1="236.2" y1="189" x2="236.2" y2="189"/>
	<line class="st1" x1="236.2" y1="189" x2="236.2" y2="187.4"/>
	<line class="st1" x1="234.3" y1="187.6" x2="236.1" y2="187.6"/>
	<line class="st1" x1="234.1" y1="187.5" x2="234.2" y2="187.5"/>
	<line class="st1" x1="234.1" y1="187.5" x2="234.2" y2="187.5"/>
	<line class="st1" x1="236.1" y1="187.4" x2="236.2" y2="187.4"/>
	<line class="st1" x1="236.3" y1="190.8" x2="236.3" y2="185.5"/>
	<line class="st1" x1="237.1" y1="185.6" x2="237.1" y2="190.8"/>
	<line class="st1" x1="236.4" y1="185.5" x2="236.5" y2="185.5"/>
	<line class="st1" x1="236.4" y1="185.5" x2="236.5" y2="185.5"/>
	<line class="st1" x1="237.1" y1="185.6" x2="236.5" y2="185.5"/>
	<path class="st1" d="M236.3,189.3c0-0.1-0.1-0.2-0.1-0.3"/>
	<path class="st1" d="M236.2,187.4c0-0.1,0.1-0.2,0.1-0.3"/>
	<path class="st1" d="M232.7,188.2c0-0.1,0.1-0.3,0.3-0.3s0.3,0.1,0.3,0.3c0,0.1-0.1,0.3-0.3,0.3S232.7,188.3,232.7,188.2z"/>
	<path class="st1" d="M234.1,188.6c0-0.1-0.1-0.2-0.2-0.2"/>
	<path class="st1" d="M233.9,188c0.1,0,0.2-0.1,0.2-0.2"/>
	<path class="st1" d="M236.3,190.8C236.3,190.9,236.3,190.9,236.3,190.8"/>
	<path class="st1" d="M236.4,185.5C236.3,185.5,236.3,185.5,236.4,185.5"/>
	<path class="st1" d="M236.1,187.4C236.1,187.4,236.1,187.4,236.1,187.4"/>
	<path class="st1" d="M236.1,189C236.1,189,236.1,189,236.1,189"/>
	<path class="st1" d="M234.2,187.6C234.2,187.6,234.2,187.5,234.2,187.6"/>
	<path class="st1" d="M234.1,187.5C234.1,187.5,234.1,187.6,234.1,187.5"/>
	<path class="st1" d="M234.1,188.8C234.1,188.8,234.1,188.8,234.1,188.8"/>
	<path class="st1" d="M234.2,188.8C234.2,188.8,234.2,188.8,234.2,188.8"/>
	<path class="st1" d="M228.3,188.2c0-0.7,0.5-1.2,1.2-1.2c0.7,0,1.2,0.5,1.2,1.2c0,0.7-0.5,1.2-1.2,1.2S228.3,188.9,228.3,188.2z"/>
	<rect x="189" y="175.2" class="st1" width="48.1" height="25.7"/>
	<polyline class="st1" points="233.5,188.7 233.5,197.6 204.2,197.6 	"/>
	<polyline class="st1" points="202.6,197.6 192.4,197.6 192.4,178.8 233.5,178.8 233.5,187.7 	"/>
	<polyline class="st1" points="231.9,188.7 231.9,196.2 199.8,196.2 199.8,180.2 231.9,180.2 231.9,187.7 	"/>
	<line class="st1" x1="202.5" y1="199.8" x2="204.3" y2="199.8"/>
	<line class="st1" x1="206.3" y1="200.2" x2="200.5" y2="200.2"/>
	<path class="st1" d="M202.5,199.8c-0.7,0.1-1.3,0.2-2,0.4"/>
	<path class="st1" d="M206.3,200.1c-0.7-0.2-1.3-0.3-2-0.4"/>
	<line class="st1" x1="206.3" y1="200.4" x2="206.3" y2="200.2"/>
	<line class="st1" x1="200.5" y1="200.2" x2="200.5" y2="200.4"/>
	<path class="st1" d="M206.3,200.2C206.3,200.1,206.3,200.1,206.3,200.2"/>
	<path class="st1" d="M200.6,200.1C200.5,200.1,200.5,200.1,200.6,200.1"/>
	<line class="st1" x1="204.3" y1="199.8" x2="204.3" y2="199"/>
	<line class="st1" x1="202.6" y1="199" x2="202.6" y2="199.8"/>
	<line class="st1" x1="202.7" y1="198.6" x2="203.4" y2="198.6"/>
	<line class="st1" x1="203.4" y1="198.6" x2="203.4" y2="198.6"/>
	<line class="st1" x1="204.3" y1="198.6" x2="204.1" y2="198.6"/>
	<line class="st1" x1="202.7" y1="198.6" x2="202.6" y2="198.6"/>
	<line class="st1" x1="203.4" y1="198.6" x2="204.1" y2="198.6"/>
	<line class="st1" x1="204.3" y1="198.5" x2="204.2" y2="197.3"/>
	<line class="st1" x1="202.6" y1="197.3" x2="202.6" y2="198.5"/>
	<path class="st1" d="M204.3,198.6C204.3,198.6,204.3,198.5,204.3,198.6"/>
	<path class="st1" d="M202.6,198.5C202.6,198.6,202.6,198.6,202.6,198.5"/>
	<path class="st1" d="M202.6,197.3C202.6,197.3,202.6,197.3,202.6,197.3"/>
	<path class="st1" d="M204.2,197.3C204.2,197.3,204.2,197.3,204.2,197.3"/>
	<path class="st1" d="M204.2,197.3c-0.5,0-1.1,0-1.6,0"/>
	<path class="st1" d="M204.3,199c0-0.1,0-0.3-0.1-0.4"/>
	<path class="st1" d="M202.7,198.6c-0.1,0.1-0.1,0.3-0.1,0.4"/>
	<line class="st1" x1="200.5" y1="200.4" x2="200.5" y2="200.8"/>
	<line class="st1" x1="206.3" y1="200.4" x2="206.3" y2="200.8"/>
	<line class="st1" x1="230.7" y1="140.4" x2="234.5" y2="140.4"/>
	<path class="st1" d="M230.4,140.1c0,0.2,0.1,0.3,0.3,0.3"/>
	<path class="st1" d="M230.7,139.4c-0.2,0-0.3,0.1-0.3,0.3"/>
	<line class="st1" x1="230.4" y1="140.1" x2="230.4" y2="139.6"/>
	<path class="st1" d="M234.3,139.6c0.1,0,0.2,0,0.3-0.1"/>
	<path class="st1" d="M234.6,140.3c-0.1-0.1-0.2-0.1-0.3-0.1"/>
	<line class="st1" x1="232.5" y1="140.1" x2="234.3" y2="140.1"/>
	<line class="st1" x1="234.3" y1="139.6" x2="232.5" y2="139.6"/>
	<path class="st1" d="M232.5,139.6c-0.1,0-0.2,0.1-0.2,0.2"/>
	<line class="st1" x1="232.3" y1="140" x2="232.3" y2="139.7"/>
	<path class="st1" d="M234.5,139.4c0.1,0,0.2,0,0.3-0.1"/>
	<path class="st1" d="M234.8,140.4c-0.1,0-0.2-0.1-0.3-0.1"/>
	<line class="st1" x1="234.5" y1="139.4" x2="230.7" y2="139.4"/>
	<path class="st1" d="M234.5,140.4c0.3,0.3,0.8,0.3,1.1,0c0.3-0.3,0.3-0.8,0-1.1s-0.8-0.3-1.1,0c0,0,0,0,0,0"/>
	<path class="st1" d="M234.6,140.3c0.2,0.3,0.6,0.3,0.9,0s0.3-0.6,0-0.9c-0.2-0.3-0.6-0.3-0.9,0c0,0,0,0,0,0"/>
	<path class="st1" d="M232.3,140c0,0.1,0.1,0.2,0.2,0.2"/>
	<line class="st1" x1="98.9" y1="228.7" x2="98.9" y2="180.6"/>
	<rect x="97.3" y="180.6" class="st1" width="65.8" height="48.1"/>
	<path class="st1" d="M116,202.7c-3.7-1.1-7.6-1.1-11.2,0c0.8-6.7,0.8-13.4,0-20c3.7,1.1,7.6,1.1,11.2,0
		C115.2,189.3,115.2,196,116,202.7z"/>
	<path class="st1" d="M112.5,203.9c-4.2-1.1-8.6-1.1-12.8,0c1.1-7.5,1.1-15,0-22.5c4.2,1.1,8.6,1.1,12.8,0c-0.1,0.6-0.2,1.3-0.2,1.9
		"/>
	<path class="st1" d="M116,206.7c-3.7,1.1-7.6,1.1-11.2,0c0.8,6.7,0.8,13.4,0,20c3.7-1.1,7.6-1.1,11.2,0
		C115.2,220.1,115.2,213.3,116,206.7z"/>
	<path class="st1" d="M112.5,205.5c-4.2,1.1-8.6,1.1-12.8,0c1.1,7.5,1.1,15,0,22.5c4.2-1.1,8.6-1.1,12.8,0c-0.1-0.6-0.2-1.3-0.2-1.9
		"/>
	<line class="st1" x1="106.9" y1="180.6" x2="106.9" y2="182.2"/>
	<line class="st1" x1="117.3" y1="180.6" x2="117.3" y2="228.7"/>
	<line class="st1" x1="106.9" y1="203.1" x2="106.9" y2="206.3"/>
	<line class="st1" x1="106.9" y1="227.1" x2="106.9" y2="228.7"/>
	<path class="st1" d="M112.2,202c0.1,0.6,0.2,1.3,0.2,1.9"/>
	<path class="st1" d="M112.5,205.5c-0.1,0.6-0.2,1.3-0.2,1.9"/>
	<rect x="98.9" y="230.3" class="st1" width="12.8" height="16"/>
	<rect x="98.9" y="163" class="st1" width="12.8" height="16"/>
	<path class="st1" d="M100.5,238.4c0-2.6,2.1-4.8,4.8-4.8c2.6,0,4.8,2.1,4.8,4.8c0,2.6-2.1,4.8-4.8,4.8
		C102.6,243.1,100.5,241,100.5,238.4z"/>
	<path class="st1" d="M104.1,238.4c0-0.7,0.5-1.2,1.2-1.2s1.2,0.5,1.2,1.2c0,0.7-0.5,1.2-1.2,1.2S104.1,239,104.1,238.4z"/>
	<line class="st1" x1="110" y1="238.4" x2="106.5" y2="238.4"/>
	<line class="st1" x1="104.1" y1="238.4" x2="100.5" y2="238.4"/>
	<line class="st1" x1="105.3" y1="243.1" x2="105.3" y2="239.6"/>
	<line class="st1" x1="105.3" y1="237.1" x2="105.3" y2="233.6"/>
	<path class="st1" d="M100.5,171c0-2.6,2.1-4.8,4.8-4.8c2.6,0,4.8,2.1,4.8,4.8c0,2.6-2.1,4.8-4.8,4.8
		C102.6,175.8,100.5,173.6,100.5,171z"/>
	<path class="st1" d="M104.1,171c0-0.7,0.5-1.2,1.2-1.2s1.2,0.5,1.2,1.2c0,0.7-0.5,1.2-1.2,1.2C104.6,172.2,104.1,171.7,104.1,171z"
		/>
	<line class="st1" x1="110" y1="171" x2="106.5" y2="171"/>
	<line class="st1" x1="104.1" y1="171" x2="100.5" y2="171"/>
	<line class="st1" x1="105.3" y1="175.8" x2="105.3" y2="172.2"/>
	<line class="st1" x1="105.3" y1="169.8" x2="105.3" y2="166.2"/>
	<line class="st1" x1="343.9" y1="117.9" x2="343.9" y2="178.9"/>
	<rect x="279.7" y="117.9" class="st1" width="65.8" height="61"/>
	<path class="st1" d="M326.7,150.4c3.7,1.1,7.6,1.1,11.2,0c-0.8,8.5-0.8,17.1,0,25.7c-3.7-1.1-7.6-1.1-11.2,0
		C327.5,167.5,327.5,158.9,326.7,150.4z"/>
	<path class="st1" d="M330.2,149.2c4.2,1.1,8.6,1.1,12.8,0c-1.1,9.3-1.1,18.7,0,28.1c-4.2-1.1-8.6-1.1-12.8,0
		c0.1-0.6,0.2-1.3,0.2-1.9"/>
	<ellipse class="st1" cx="332.3" cy="133.6" rx="7.7" ry="18.8"/>
	<path class="st1" d="M330.2,147.6c4.2-1.1,8.6-1.1,12.8,0c-1.1-9.3-1.1-18.7,0-28.1c-4.2,1.1-8.6,1.1-12.8,0
		c0.1,0.6,0.2,1.3,0.2,1.9"/>
	<line class="st1" x1="335.9" y1="178.9" x2="335.9" y2="176.5"/>
	<line class="st1" x1="325.4" y1="178.9" x2="325.4" y2="117.9"/>
	<line class="st1" x1="335.9" y1="150" x2="335.9" y2="146.8"/>
	<line class="st1" x1="335.9" y1="120.3" x2="335.9" y2="117.9"/>
	<path class="st1" d="M330.5,151.1c-0.1-0.6-0.2-1.3-0.2-1.9"/>
	<path class="st1" d="M330.2,147.6c0.1-0.6,0.2-1.3,0.2-1.9"/>
	<rect x="331" y="180.5" class="st1" width="12.8" height="16"/>
	<rect x="331" y="100.3" class="st1" width="12.8" height="16"/>
	<path class="st1" d="M332.7,188.5c0-2.6,2.1-4.8,4.8-4.8c2.6,0,4.8,2.1,4.8,4.8c0,2.6-2.1,4.8-4.8,4.8S332.7,191.1,332.7,188.5z"/>
	<path class="st1" d="M336.2,188.5c0-0.7,0.5-1.2,1.2-1.2c0.7,0,1.2,0.5,1.2,1.2c0,0.7-0.5,1.2-1.2,1.2
		C336.8,189.7,336.2,189.2,336.2,188.5z"/>
	<line class="st1" x1="337.5" y1="193.3" x2="337.5" y2="189.7"/>
	<line class="st1" x1="337.5" y1="187.3" x2="337.5" y2="183.7"/>
	<line class="st1" x1="332.7" y1="188.5" x2="336.2" y2="188.5"/>
	<line class="st1" x1="338.7" y1="188.5" x2="342.2" y2="188.5"/>
	<path class="st1" d="M332.7,108.3c0-2.6,2.1-4.8,4.8-4.8c2.6,0,4.8,2.1,4.8,4.8c0,2.6-2.1,4.8-4.8,4.8
		C334.8,113.1,332.7,110.9,332.7,108.3z"/>
	<path class="st1" d="M336.2,108.3c0-0.7,0.5-1.2,1.2-1.2c0.7,0,1.2,0.5,1.2,1.2c0,0.7-0.5,1.2-1.2,1.2
		C336.8,109.5,336.2,109,336.2,108.3z"/>
	<line class="st1" x1="337.5" y1="103.5" x2="337.5" y2="107.1"/>
	<line class="st1" x1="337.5" y1="109.5" x2="337.5" y2="113.1"/>
	<line class="st1" x1="332.7" y1="108.3" x2="336.2" y2="108.3"/>
	<line class="st1" x1="338.7" y1="108.3" x2="342.2" y2="108.3"/>
	<polygon class="st1" points="240,258.4 242.4,258.4 242.4,266.6 345.5,266.6 345.5,269 240,269 	"/>
	<rect x="242.7" y="206" class="st1" width="1.6" height="3.6"/>
	<line class="st1" x1="273.4" y1="201.5" x2="273.4" y2="206"/>
	<line class="st1" x1="344.1" y1="13.1" x2="321.9" y2="13.1"/>
	<line class="st1" x1="127.3" y1="91.4" x2="127.3" y2="90.2"/>
	<line class="st1" x1="127.3" y1="89" x2="127.3" y2="62.7"/>
	<line class="st1" x1="134" y1="91.4" x2="134" y2="90.2"/>
	<line class="st1" x1="134" y1="89" x2="134" y2="62.7"/>
	<line class="st1" x1="140.6" y1="91.4" x2="140.6" y2="90.2"/>
	<line class="st1" x1="140.6" y1="89" x2="140.6" y2="62.7"/>
	<line class="st1" x1="147.2" y1="91.4" x2="147.2" y2="90.2"/>
	<line class="st1" x1="147.2" y1="89" x2="147.2" y2="62.7"/>
	<line class="st1" x1="153.8" y1="91.4" x2="153.8" y2="90.2"/>
	<line class="st1" x1="153.8" y1="89" x2="153.8" y2="62.7"/>
	<line class="st1" x1="160.4" y1="91.4" x2="160.4" y2="90.2"/>
	<line class="st1" x1="160.4" y1="89" x2="160.4" y2="62.7"/>
	<line class="st1" x1="167" y1="91.4" x2="167" y2="90.2"/>
	<line class="st1" x1="167" y1="89" x2="167" y2="62.7"/>
	<line class="st1" x1="173.7" y1="91.4" x2="173.7" y2="90.2"/>
	<line class="st1" x1="173.7" y1="89" x2="173.7" y2="62.7"/>
	<line class="st1" x1="180.3" y1="91.4" x2="180.3" y2="90.2"/>
	<line class="st1" x1="180.3" y1="89" x2="180.3" y2="62.7"/>
	<line class="st1" x1="186.9" y1="91.4" x2="186.9" y2="90.2"/>
	<line class="st1" x1="186.9" y1="89" x2="186.9" y2="78.5"/>
	<line class="st1" x1="186.9" y1="77.1" x2="186.9" y2="75.5"/>
	<path class="st1" d="M266.1,95.3c0,3.4,0.9,6.7,2.6,9.6"/>
	<path class="st1" d="M263.5,104.9c1.7-2.9,2.6-6.2,2.6-9.6"/>
	<rect x="267" y="98.7" transform="matrix(0.866 -0.5 0.5 0.866 -12.6378 151.634)" class="st2" width="19.2" height="1.4"/>
	<rect x="254.9" y="89.9" transform="matrix(0.5 -0.866 0.866 0.5 41.6332 271.0721)" class="st2" width="1.4" height="19.2"/>
	<rect x="189" y="131.4" class="st1" width="25.7" height="1.4"/>
	<path class="st1" d="M189,157.1c14.2,0,25.7-11.5,25.7-25.7"/>
	<rect x="189" y="208.2" class="st1" width="24.1" height="1.4"/>
	<path class="st1" d="M189,232.3c13.3,0,24.1-10.8,24.1-24.1"/>
	<rect x="294.5" y="67.5" class="st1" width="1.4" height="24.1"/>
	<path class="st1" d="M318.6,91.5c0-13.3-10.8-24.1-24.1-24.1"/>
	<polyline class="st1" points="85.9,64.3 12.2,64.3 12.2,244.7 85.9,244.7 	"/>
	<line class="st1" x1="85.9" y1="247.9" x2="85.9" y2="229.5"/>
	<line class="st1" x1="85.9" y1="181.6" x2="85.9" y2="163.1"/>
	<rect x="89.2" y="115.3" class="st1" width="3.6" height="1.6"/>
	<line class="st1" x1="92.9" y1="88" x2="97.3" y2="88"/>
	<polyline class="st1" points="183.1,62.6 186.6,75.4 189.4,76.2 184.6,77.8 187.4,78.6 190.8,91.4 	"/>
	<rect x="89.2" y="67.3" class="st1" width="3.6" height="1.6"/>
	<rect x="89.2" y="86.4" class="st1" width="3.6" height="1.6"/>
	<line class="st1" x1="90" y1="68.9" x2="90" y2="86.4"/>
	<line class="st1" x1="90.8" y1="68.9" x2="90.8" y2="86.4"/>
	<line class="st1" x1="97.3" y1="68.1" x2="97.3" y2="88"/>
	<rect x="89.2" y="163.1" class="st1" width="3.6" height="1.6"/>
	<rect x="89.2" y="180" class="st1" width="3.6" height="1.6"/>
	<line class="st1" x1="90" y1="164.7" x2="90" y2="180"/>
	<line class="st1" x1="90.8" y1="164.7" x2="90.8" y2="180"/>
	<line class="st1" x1="97.3" y1="163.9" x2="97.3" y2="180.8"/>
	<rect x="89.2" y="229.5" class="st1" width="3.6" height="1.6"/>
	<rect x="89.2" y="246.3" class="st1" width="3.6" height="1.6"/>
	<line class="st1" x1="90" y1="231.1" x2="90" y2="246.3"/>
	<line class="st1" x1="90.8" y1="231.1" x2="90.8" y2="246.3"/>
	<line class="st1" x1="97.3" y1="230.3" x2="97.3" y2="247.1"/>
	<rect x="205.8" y="120.7" class="st1" width="24.1" height="1.4"/>
	<path class="st1" d="M229.9,122.1c0-13.3-10.8-24.1-24.1-24.1"/>
	<rect x="157.4" y="128.6" class="st1" width="1.4" height="24.1"/>
	<path class="st1" d="M157.4,152.7c13.3,0,24.1-10.8,24.1-24.1"/>
	<rect x="145.8" y="100.9" class="st1" width="1.4" height="24.1"/>
	<rect x="99.1" y="100.9" class="st1" width="1.4" height="24.1"/>
	<path class="st1" d="M147.2,100.9c-13.3,0-24.1,10.8-24.1,24.1"/>
	<path class="st1" d="M123.1,124.9c0-13.3-10.8-24.1-24.1-24.1"/>
	<path class="st1" d="M225.1,104.9c1.7-2.9,2.6-6.2,2.6-9.6"/>
	<path class="st1" d="M227.7,95.3c0,3.4,0.9,6.7,2.6,9.6"/>
	<rect x="216.4" y="89.8" transform="matrix(0.5 -0.866 0.866 0.5 22.3926 237.7335)" class="st2" width="1.4" height="19.2"/>
	<rect x="228.6" y="98.8" transform="matrix(0.866 -0.5 0.5 0.866 -17.8137 132.4263)" class="st2" width="19.2" height="1.4"/>
	<rect x="342.5" y="18.7" class="st1" width="1.6" height="3.6"/>
	<rect x="321.9" y="18.7" class="st1" width="1.6" height="3.6"/>
	<line class="st1" x1="342.5" y1="19.5" x2="323.5" y2="19.5"/>
	<line class="st1" x1="342.5" y1="20.4" x2="323.5" y2="20.4"/>
	<rect x="128.9" y="54.6" class="st1" width="1.6" height="3.6"/>
	<rect x="104.5" y="54.6" class="st1" width="1.6" height="3.6"/>
	<line class="st1" x1="128.9" y1="55.4" x2="106.1" y2="55.4"/>
	<line class="st1" x1="128.9" y1="56.2" x2="106.1" y2="56.2"/>
	<line class="st1" x1="129.7" y1="62.7" x2="105.3" y2="62.7"/>
	<rect x="100.9" y="252.3" class="st1" width="1.6" height="3.6"/>
	<rect x="183.5" y="252.3" class="st1" width="1.6" height="3.6"/>
	<rect x="119.3" y="252.3" class="st1" width="1.6" height="3.6"/>
	<line class="st1" x1="102.5" y1="255.2" x2="119.3" y2="255.2"/>
	<line class="st1" x1="102.5" y1="254.3" x2="119.3" y2="254.3"/>
	<rect x="165" y="252.3" class="st1" width="1.6" height="3.6"/>
	<line class="st1" x1="120.9" y1="255.2" x2="165" y2="255.2"/>
	<line class="st1" x1="120.9" y1="254.3" x2="165" y2="254.3"/>
	<line class="st1" x1="166.6" y1="255.2" x2="183.5" y2="255.2"/>
	<line class="st1" x1="166.6" y1="254.3" x2="183.5" y2="254.3"/>
	<line class="st1" x1="101.7" y1="247.8" x2="184.3" y2="247.8"/>
	<rect x="273.4" y="206" class="st1" width="1.6" height="3.6"/>
	<rect x="342.7" y="206" class="st1" width="1.6" height="3.6"/>
	<rect x="294.2" y="206" class="st1" width="1.6" height="3.6"/>
	<line class="st1" x1="275" y1="208.8" x2="294.2" y2="208.8"/>
	<line class="st1" x1="275" y1="208" x2="294.2" y2="208"/>
	<rect x="318.3" y="206" class="st1" width="1.6" height="3.6"/>
	<line class="st1" x1="295.9" y1="208.8" x2="318.3" y2="208.8"/>
	<line class="st1" x1="295.9" y1="208" x2="318.3" y2="208"/>
	<line class="st1" x1="319.9" y1="208.8" x2="342.7" y2="208.8"/>
	<line class="st1" x1="319.9" y1="208" x2="342.7" y2="208"/>
	<line class="st1" x1="273.4" y1="201.5" x2="343.5" y2="201.5"/>
	<rect x="61.9" y="88" class="st1" width="27.3" height="1.4"/>
	<path class="st1" d="M61.9,88c0,15.1,12.2,27.3,27.3,27.3"/>
	<rect x="244.3" y="209.6" class="st1" width="1.4" height="29.1"/>
	<path class="st1" d="M244.3,238.7c16.1,0,29.1-13,29.1-29.1"/>
	<polyline class="st1" points="190.2,89 123.3,89 123.3,90.2 190.5,90.2 	"/>
	<line class="st1" x1="92.9" y1="67.3" x2="92.9" y2="88"/>
	<line class="st1" x1="89.2" y1="67.3" x2="89.2" y2="88"/>
	<line class="st1" x1="92.9" y1="163.1" x2="92.9" y2="181.6"/>
	<line class="st1" x1="89.2" y1="163.1" x2="89.2" y2="181.6"/>
	<line class="st1" x1="92.9" y1="229.5" x2="92.9" y2="247.9"/>
	<line class="st1" x1="89.2" y1="229.5" x2="89.2" y2="247.9"/>
	<line class="st1" x1="344.1" y1="22.4" x2="321.9" y2="22.4"/>
	<line class="st1" x1="344.1" y1="18.7" x2="321.9" y2="18.7"/>
	<line class="st1" x1="130.5" y1="58.2" x2="104.5" y2="58.2"/>
	<line class="st1" x1="130.5" y1="54.6" x2="104.5" y2="54.6"/>
	<line class="st1" x1="100.9" y1="252.3" x2="185.1" y2="252.3"/>
	<line class="st1" x1="100.9" y1="256" x2="185.1" y2="256"/>
	<line class="st1" x1="273.4" y1="206" x2="344.3" y2="206"/>
	<line class="st1" x1="273.4" y1="209.6" x2="344.3" y2="209.6"/>
	<line class="st1" x1="97.3" y1="136.4" x2="99.5" y2="136.4"/>
	<line class="st1" x1="146.8" y1="136.4" x2="149" y2="136.4"/>
	<line class="st1" x1="121.1" y1="136.4" x2="125.1" y2="136.4"/>
	<line class="st1" x1="97.3" y1="146" x2="99.5" y2="146"/>
	<line class="st1" x1="146.8" y1="146" x2="149" y2="146"/>
	<line class="st1" x1="121.1" y1="146" x2="125.1" y2="146"/>
	<line class="st1" x1="97.3" y1="155.7" x2="149" y2="155.7"/>
	<line class="st1" x1="113.5" y1="157.8" x2="113.5" y2="154.9"/>
	<line class="st1" x1="113.5" y1="132.5" x2="113.5" y2="126.8"/>
	<line class="st1" x1="132.7" y1="157.8" x2="132.7" y2="154.9"/>
	<line class="st1" x1="132.7" y1="132.5" x2="132.7" y2="126.8"/>
	<rect x="99.5" y="132.5" class="st1" width="21.7" height="22.4"/>
	<rect x="125.1" y="132.5" class="st1" width="21.7" height="22.4"/>
	<polygon class="st1" points="149,157.8 149,128.6 147.2,128.6 147.2,126.8 99.1,126.8 99.1,128.6 97.3,128.6 97.3,157.8 	"/>
	<line class="st1" x1="12.2" y1="77.5" x2="89.2" y2="77.5"/>
	<line class="st1" x1="12.2" y1="96.8" x2="89.2" y2="96.8"/>
	<line class="st1" x1="12.2" y1="116" x2="89.2" y2="116"/>
	<line class="st1" x1="12.2" y1="135.3" x2="85.9" y2="135.3"/>
	<line class="st1" x1="12.2" y1="154.5" x2="85.9" y2="154.5"/>
	<line class="st1" x1="12.2" y1="173.7" x2="85.9" y2="173.7"/>
	<line class="st1" x1="12.2" y1="193" x2="85.9" y2="193"/>
	<line class="st1" x1="12.2" y1="212.2" x2="85.9" y2="212.2"/>
	<line class="st1" x1="12.2" y1="231.5" x2="85.9" y2="231.5"/>
	<line class="st1" x1="31.4" y1="244.7" x2="31.4" y2="64.3"/>
	<line class="st1" x1="50.6" y1="244.7" x2="50.6" y2="64.3"/>
	<line class="st1" x1="69.9" y1="244.7" x2="69.9" y2="89.4"/>
	<line class="st1" x1="69.9" y1="88" x2="69.9" y2="64.3"/>
	<line class="st1" x1="89.1" y1="116.9" x2="89.1" y2="89.4"/>
	<line class="st1" x1="89.1" y1="88" x2="89.1" y2="67.3"/>
	<polygon class="st1" points="85.9,116.9 89.2,116.9 89.2,89.4 61.9,89.4 61.9,88 89.2,88 89.2,67.3 85.9,67.3 85.9,64.3 12.2,64.3 
		12.2,244.7 85.9,244.7 	"/>
	<line class="st1" x1="299" y1="93.4" x2="299" y2="43.5"/>
	<line class="st1" x1="299" y1="42.9" x2="299" y2="22.4"/>
	<line class="st1" x1="308.6" y1="93.4" x2="308.6" y2="22.4"/>
	<line class="st1" x1="318.2" y1="93.4" x2="318.2" y2="22.4"/>
	<line class="st1" x1="327.9" y1="47" x2="327.9" y2="40.2"/>
	<line class="st1" x1="327.9" y1="29.2" x2="327.9" y2="22.4"/>
	<line class="st1" x1="337.5" y1="47" x2="337.5" y2="39.5"/>
	<line class="st1" x1="337.5" y1="29.9" x2="337.5" y2="22.4"/>
	<line class="st1" x1="327.4" y1="74.2" x2="295.9" y2="74.2"/>
	<line class="st1" x1="294.5" y1="74.2" x2="291.7" y2="74.2"/>
	<line class="st1" x1="327.4" y1="54.9" x2="289.4" y2="54.9"/>
	<line class="st1" x1="345.5" y1="35.7" x2="344.8" y2="35.7"/>
	<line class="st1" x1="294.1" y1="35.7" x2="289.4" y2="35.7"/>
	<line class="st1" x1="322.5" y1="35.7" x2="294.8" y2="35.7"/>
	<polygon class="st1" points="345.5,22.4 344.1,22.4 342.5,22.4 321.9,22.4 289.4,22.4 289.4,26.2 299.3,43.4 298.7,43.7 
		289.4,27.4 289.4,59 291.7,59 291.7,91.5 294.5,91.5 294.5,67.5 295.9,67.5 295.9,91.5 294.5,91.5 294.5,93.4 318.6,93.4 
		318.6,91.5 327.4,91.5 327.4,47 345.5,47 	"/>
	<line class="st1" x1="196.8" y1="175.2" x2="196.8" y2="132.8"/>
	<line class="st1" x1="196.8" y1="131.4" x2="196.8" y2="128.6"/>
	<line class="st1" x1="206.4" y1="175.2" x2="206.4" y2="132.8"/>
	<line class="st1" x1="206.4" y1="131.4" x2="206.4" y2="128.6"/>
	<line class="st1" x1="216" y1="175.2" x2="216" y2="166.9"/>
	<line class="st1" x1="216" y1="159.3" x2="216" y2="128.6"/>
	<line class="st1" x1="225.6" y1="175.2" x2="225.6" y2="168.4"/>
	<line class="st1" x1="225.6" y1="157.8" x2="225.6" y2="151.1"/>
	<line class="st1" x1="235.3" y1="175.2" x2="235.3" y2="168.5"/>
	<line class="st1" x1="235.3" y1="157.8" x2="235.3" y2="151.1"/>
	<line class="st1" x1="237.1" y1="167.1" x2="236.5" y2="167.1"/>
	<line class="st1" x1="216.3" y1="167.1" x2="189" y2="167.1"/>
	<line class="st1" x1="219.1" y1="147.9" x2="187.1" y2="147.9"/>
	<polygon class="st1" points="189,175.2 237.1,175.2 237.1,151.1 219.1,151.1 219.1,128.6 189,128.6 189,132.8 214.7,132.8 
		214.7,131.4 187.1,131.4 187.1,157.1 189,157.1 	"/>
	<path class="st1" d="M344.8,29.9c0-0.2-0.1-0.3-0.3-0.3l-2.4-0.4c-0.3-0.1-0.5,0-0.7,0.2c-0.4,0.3-0.7,0.6-0.9,0.9
		c-2.6-0.1-5.1-0.5-7.6-1c-0.8-0.2-1.6-0.3-2.5-0.3c-1.1,0-2.1,0.2-3.2,0.5c-0.9,0.3-1.7,0.7-2.5,1.2c-0.7,0.5-1.3,1.2-1.8,2
		c-0.4,0.6-0.6,1.4-0.6,2.1s0.2,1.5,0.6,2.1c0.5,0.8,1.1,1.4,1.8,2c0.8,0.5,1.6,1,2.5,1.2c1,0.3,2.1,0.5,3.2,0.5
		c0.8,0,1.7-0.1,2.5-0.3c2.5-0.5,5.1-0.8,7.6-1c0.3,0.4,0.6,0.7,0.9,0.9c0.2,0.1,0.5,0.2,0.7,0.2l2.4-0.4c0.2,0,0.3-0.2,0.3-0.3
		V29.9z"/>
	<path class="st1" d="M236.5,158.3c0-0.2-0.1-0.3-0.3-0.3l-2.4-0.5c-0.3,0-0.5,0-0.7,0.2c-0.4,0.3-0.7,0.6-0.9,0.9
		c-2.6-0.1-5.1-0.5-7.6-1c-0.8-0.2-1.6-0.3-2.5-0.3c-1.1,0-2.1,0.2-3.2,0.5c-0.9,0.3-1.7,0.7-2.5,1.2c-0.7,0.5-1.3,1.2-1.8,2
		c-0.4,0.6-0.6,1.4-0.6,2.1c0,0.7,0.2,1.5,0.6,2.1c0.5,0.8,1.1,1.5,1.8,2c0.8,0.5,1.6,1,2.5,1.2c1,0.3,2.1,0.5,3.2,0.5
		c0.8,0,1.7-0.1,2.5-0.3c2.5-0.5,5.1-0.8,7.6-1c0.3,0.4,0.6,0.7,0.9,0.9c0.2,0.1,0.5,0.2,0.7,0.2l2.4-0.5c0.2,0,0.3-0.2,0.3-0.3
		V158.3z"/>
	<line class="st1" x1="89.2" y1="88" x2="89.2" y2="115.3"/>
	<line class="st1" x1="92.9" y1="88" x2="92.9" y2="115.3"/>
	<line class="st1" x1="244.3" y1="209.6" x2="273.4" y2="209.6"/>
	<line class="st1" x1="244.3" y1="206" x2="273.4" y2="206"/>
</g>
<g>
	<line class="st3" x1="189" y1="239.8" x2="226.6" y2="239.8"/>
	<line class="st3" x1="226.6" y1="206.4" x2="226.6" y2="239.8"/>
	<line class="st3" x1="288" y1="70.7" x2="205.8" y2="70.7"/>
</g>
<polygon class="st4" points="185.1,256 185.1,252.3 184.5,252.3 184.5,247.8 185.3,247.8 185.3,232.3 189,232.3 189,247.8 
	209.1,247.8 209.1,241.6 234.6,241.6 234.6,206.4 189,206.4 189,208.2 185.3,208.2 185.3,157.1 189,157.1 189,200.8 237.1,200.8 
	237.1,128.6 189,128.6 189,131.4 185.3,131.4 185.3,128.6 181.5,128.6 181.5,124.9 202.1,124.9 202.1,122.1 205.8,122.1 
	205.8,124.9 242.7,124.9 242.7,256 "/>
<polygon class="st1" points="185.1,256 185.1,252.3 184.5,252.3 184.5,247.8 185.3,247.8 185.3,232.3 189,232.3 189,247.8 
	209.1,247.8 209.1,241.6 234.6,241.6 234.6,206.4 189,206.4 189,208.2 185.3,208.2 185.3,157.1 189,157.1 189,200.8 237.1,200.8 
	237.1,128.6 189,128.6 189,131.4 185.3,131.4 185.3,128.6 181.5,128.6 181.5,124.9 202.1,124.9 202.1,122.1 205.8,122.1 
	205.8,124.9 242.7,124.9 242.7,256 "/>
<polygon class="st4" points="129.7,62.7 129.7,58.2 130.5,58.2 130.5,54.6 230.2,54.6 230.2,13.1 321.9,13.1 321.9,22.4 239.5,22.4 
	239.5,59 291.7,59 291.7,91.5 294.5,91.5 294.5,95.3 285.3,95.3 285.3,91.5 288,91.5 288,62.7 205.8,62.7 205.8,91.5 208.4,91.5 
	208.4,95.3 205.8,95.3 205.8,98.1 202.1,98.1 202.1,62.7 "/>
<polygon class="st1" points="129.7,62.7 129.7,58.2 130.5,58.2 130.5,54.6 230.2,54.6 230.2,13.1 321.9,13.1 321.9,22.4 239.5,22.4 
	239.5,59 291.7,59 291.7,91.5 294.5,91.5 294.5,95.3 285.3,95.3 285.3,91.5 288,91.5 288,62.7 205.8,62.7 205.8,91.5 208.4,91.5 
	208.4,95.3 205.8,95.3 205.8,98.1 202.1,98.1 202.1,62.7 "/>
<polygon class="st4" points="347.9,288.4 347.9,209.6 344.3,209.6 344.3,206 343.5,206 343.5,201.5 345.5,201.5 345.5,95.3 
	318.6,95.3 318.6,91.5 345.5,91.5 345.5,22.4 344.1,22.4 344.1,13.1 347.9,13.1 347.9,0.1 355.1,0.1 355.1,288.4 "/>
<polygon class="st1" points="347.9,288.4 347.9,209.6 344.3,209.6 344.3,206 343.5,206 343.5,201.5 345.5,201.5 345.5,95.3 
	318.6,95.3 318.6,91.5 345.5,91.5 345.5,22.4 344.1,22.4 344.1,13.1 347.9,13.1 347.9,0.1 355.1,0.1 355.1,288.4 "/>
<polygon class="st4" points="100.9,288.4 85.9,288.4 85.9,247.9 92.9,247.9 92.9,247.1 97.3,247.1 97.3,247.8 101.7,247.8 
	101.7,252.3 100.9,252.3 "/>
<polygon class="st1" points="100.9,288.4 85.9,288.4 85.9,247.9 92.9,247.9 92.9,247.1 97.3,247.1 97.3,247.8 101.7,247.8 
	101.7,252.3 100.9,252.3 "/>
<polygon class="st4" points="85.9,229.5 92.9,229.5 92.9,230.3 97.3,230.3 97.3,180.8 92.9,180.8 92.9,181.6 85.9,181.6 "/>
<polygon class="st1" points="85.9,229.5 92.9,229.5 92.9,230.3 97.3,230.3 97.3,180.8 92.9,180.8 92.9,181.6 85.9,181.6 "/>
<polygon class="st4" points="85.9,116.9 85.9,163.1 92.9,163.1 92.9,163.9 97.3,163.9 97.3,161.5 154.6,161.5 154.6,128.6 
	157.4,128.6 157.4,124.9 147.2,124.9 147.2,128.6 149,128.6 149,157.8 97.3,157.8 97.3,128.6 99.1,128.6 99.1,124.9 97.3,124.9 
	97.3,117.6 94,117.6 94,116.9 "/>
<polygon class="st1" points="85.9,116.9 85.9,163.1 92.9,163.1 92.9,163.9 97.3,163.9 97.3,161.5 154.6,161.5 154.6,128.6 
	157.4,128.6 157.4,124.9 147.2,124.9 147.2,128.6 149,128.6 149,157.8 97.3,157.8 97.3,128.6 99.1,128.6 99.1,124.9 97.3,124.9 
	97.3,117.6 94,117.6 94,116.9 "/>
<polygon class="st4" points="85.9,67.3 92.9,67.3 92.9,68.1 97.3,68.1 97.3,62.7 102.2,62.7 102.2,58.2 104.5,58.2 104.5,54.6 
	100.9,54.6 100.9,0.1 85.9,0.1 "/>
<polygon class="st1" points="85.9,67.3 92.9,67.3 92.9,68.1 97.3,68.1 97.3,62.7 102.2,62.7 102.2,58.2 104.5,58.2 104.5,54.6 
	100.9,54.6 100.9,0.1 85.9,0.1 "/>
<g>
	<path class="st5" d="M119.1,78.8H118v-3.1h1.1c1,0,1.7,0.7,1.7,1.6C120.7,78.1,120,78.8,119.1,78.8z M119.1,76h-0.7v2.5h0.7
		c0.8,0,1.3-0.5,1.3-1.2S119.9,76,119.1,76z"/>
	<path class="st5" d="M123.9,75.6h0.3v3.1H124l-2-2.6v2.6h-0.3v-3.1h0.3l2,2.5V75.6z"/>
</g>
<g>
	<path class="st5" d="M110,144.3h-1.1v-3.1h1.1c1,0,1.7,0.7,1.7,1.6S111,144.3,110,144.3z M110,141.5h-0.7v2.5h0.7
		c0.8,0,1.3-0.5,1.3-1.2S110.8,141.5,110,141.5z"/>
</g>
<g>
	<path class="st5" d="M135.8,141.2h0.3l0.9,2.6l0.9-2.6h0.4l-1.1,3.2h-0.3l-0.9-2.6l-0.9,2.6h-0.3l-1.1-3.2h0.4l0.9,2.6L135.8,141.2
		z"/>
</g>
<g>
	<path class="st5" d="M129,204.7c0,0.4-0.2,0.6-0.5,0.7c0.4,0.1,0.7,0.3,0.7,0.8c0,0.5-0.5,0.9-1.1,0.9h-1.4v-3.1h1.3
		C128.6,203.9,129,204.2,129,204.7z M128.7,204.8c0-0.3-0.2-0.5-0.7-0.5h-1v1.1h0.9C128.4,205.3,128.7,205.1,128.7,204.8z
		 M128.8,206.2c0-0.4-0.3-0.5-0.8-0.5h-1v1.1h1.1C128.6,206.8,128.8,206.5,128.8,206.2z"/>
	<path class="st5" d="M132.3,204.2h-1.9v1.1h1.7v0.3h-1.7v1.1h2v0.3H130v-3.1h2.3L132.3,204.2L132.3,204.2z"/>
	<path class="st5" d="M134.2,207.1h-1.1v-3.1h1.1c1,0,1.7,0.7,1.7,1.6S135.2,207.1,134.2,207.1z M134.2,204.3h-0.7v2.5h0.7
		c0.8,0,1.3-0.5,1.3-1.2S135,204.3,134.2,204.3z"/>
	<path class="st5" d="M138.9,207.1l-0.9-1.2h-0.9v1.2h-0.4v-3.1h1.4c0.7,0,1.1,0.4,1.1,0.9c0,0.5-0.4,0.8-0.9,0.9l1,1.3L138.9,207.1
		L138.9,207.1z M138,204.3h-1v1.3h1c0.5,0,0.8-0.2,0.8-0.6C138.9,204.5,138.6,204.3,138,204.3z"/>
	<path class="st5" d="M141.5,207.1c-1,0-1.6-0.8-1.6-1.6s0.7-1.6,1.6-1.6c1,0,1.6,0.8,1.6,1.6S142.5,207.1,141.5,207.1z
		 M141.5,204.2c-0.7,0-1.2,0.6-1.2,1.3s0.5,1.3,1.2,1.3s1.2-0.6,1.2-1.3S142.2,204.2,141.5,204.2z"/>
	<path class="st5" d="M145.4,207.1c-1,0-1.6-0.8-1.6-1.6s0.7-1.6,1.6-1.6c1,0,1.6,0.8,1.6,1.6S146.4,207.1,145.4,207.1z
		 M145.4,204.2c-0.7,0-1.2,0.6-1.2,1.3s0.5,1.3,1.2,1.3s1.2-0.6,1.2-1.3C146.7,204.8,146.2,204.2,145.4,204.2z"/>
	<path class="st5" d="M149.4,206.2L149.4,206.2l-1.2-1.7v2.5h-0.3v-3.1h0.4l1.2,1.7l1.2-1.7h0.4v3.1h-0.4v-2.5L149.4,206.2z"/>
</g>
<g>
	<path class="st5" d="M294,145.9L294,145.9l-1.2-1.7v2.5h-0.3v-3.1h0.4l1.2,1.7l1.2-1.7h0.4v3.1h-0.4v-2.5L294,145.9z"/>
	<path class="st5" d="M299.4,146.8H299l-0.4-0.8h-1.7l-0.4,0.8h-0.4l1.4-3.2h0.3L299.4,146.8z M297.8,144l-0.7,1.6h1.4L297.8,144z"
		/>
	<path class="st5" d="M301.2,145c0.7,0.1,1,0.4,1,0.9c0,0.5-0.5,0.9-1.1,0.9c-0.5,0-0.9-0.2-1.3-0.5l0.2-0.3
		c0.3,0.3,0.6,0.5,1.1,0.5c0.4,0,0.7-0.2,0.7-0.5c0-0.3-0.2-0.5-0.8-0.6c-0.7-0.2-1.1-0.4-1.1-0.9c0-0.5,0.4-0.9,1-0.9
		c0.5,0,0.8,0.1,1.1,0.4l-0.2,0.3c-0.3-0.2-0.6-0.3-0.9-0.3c-0.4,0-0.7,0.2-0.7,0.5C300.3,144.7,300.5,144.9,301.2,145z"/>
	<path class="st5" d="M304.1,146.8h-0.4V144h-1.1v-0.3h2.5v0.3h-1.1V146.8z"/>
	<path class="st5" d="M308.2,143.9h-1.9v1.1h1.7v0.3h-1.7v1.1h2v0.3h-2.3v-3.1h2.3L308.2,143.9L308.2,143.9z"/>
	<path class="st5" d="M311.2,146.8l-0.9-1.2h-0.9v1.2H309v-3.1h1.4c0.7,0,1.1,0.4,1.1,0.9c0,0.5-0.4,0.8-0.9,0.9l1,1.3L311.2,146.8
		L311.2,146.8z M310.4,144h-1v1.3h1c0.5,0,0.8-0.2,0.8-0.6C311.2,144.2,310.9,144,310.4,144z"/>
</g>
<g>
	<path class="st5" d="M292.2,149.8c0,0.4-0.2,0.6-0.5,0.7c0.4,0.1,0.7,0.3,0.7,0.8c0,0.5-0.5,0.9-1.1,0.9h-1.4V149h1.3
		C291.8,149,292.2,149.3,292.2,149.8z M291.8,149.9c0-0.3-0.2-0.5-0.7-0.5h-1v1.1h0.9C291.5,150.4,291.8,150.2,291.8,149.9z
		 M292,151.3c0-0.4-0.3-0.5-0.8-0.5h-1v1.1h1.1C291.7,151.9,292,151.6,292,151.3z"/>
	<path class="st5" d="M295.4,149.3h-1.9v1.1h1.7v0.3h-1.7v1.1h2v0.3h-2.3V149h2.3L295.4,149.3L295.4,149.3z"/>
	<path class="st5" d="M297.3,152.2h-1.1V149h1.1c1,0,1.7,0.7,1.7,1.6S298.3,152.2,297.3,152.2z M297.3,149.4h-0.7v2.5h0.7
		c0.8,0,1.3-0.5,1.3-1.2S298.1,149.4,297.3,149.4z"/>
	<path class="st5" d="M302,152.2l-0.9-1.2h-0.9v1.2h-0.4V149h1.4c0.7,0,1.1,0.4,1.1,0.9c0,0.5-0.4,0.8-0.9,0.9l1,1.3L302,152.2
		L302,152.2z M301.2,149.4h-1v1.3h1c0.5,0,0.8-0.2,0.8-0.6C302,149.6,301.7,149.4,301.2,149.4z"/>
	<path class="st5" d="M304.7,152.2c-1,0-1.6-0.8-1.6-1.6s0.7-1.6,1.6-1.6c1,0,1.6,0.8,1.6,1.6S305.6,152.2,304.7,152.2z
		 M304.7,149.3c-0.7,0-1.2,0.6-1.2,1.3s0.5,1.3,1.2,1.3s1.2-0.6,1.2-1.3S305.4,149.3,304.7,149.3z"/>
	<path class="st5" d="M308.6,152.2c-1,0-1.6-0.8-1.6-1.6s0.7-1.6,1.6-1.6c1,0,1.6,0.8,1.6,1.6S309.5,152.2,308.6,152.2z
		 M308.6,149.3c-0.7,0-1.2,0.6-1.2,1.3s0.5,1.3,1.2,1.3s1.2-0.6,1.2-1.3S309.3,149.3,308.6,149.3z"/>
	<path class="st5" d="M312.6,151.3L312.6,151.3l-1.2-1.7v2.5H311V149h0.4l1.2,1.7l1.2-1.7h0.4v3.1h-0.4v-2.5L312.6,151.3z"/>
</g>
<g>
	<path class="st5" d="M283.6,238.2c0,0.4-0.2,0.6-0.5,0.7c0.4,0.1,0.7,0.3,0.7,0.8c0,0.5-0.5,0.9-1.1,0.9h-1.4v-3.1h1.3
		C283.2,237.4,283.6,237.7,283.6,238.2z M283.3,238.2c0-0.3-0.2-0.5-0.7-0.5h-1v1.1h0.9C283,238.8,283.3,238.6,283.3,238.2z
		 M283.4,239.6c0-0.4-0.3-0.5-0.8-0.5h-1v1.1h1.1C283.1,240.2,283.4,240,283.4,239.6z"/>
	<path class="st5" d="M287.5,240.5h-0.4l-0.4-0.8h-1.7l-0.4,0.8h-0.4l1.4-3.2h0.3L287.5,240.5z M285.9,237.8l-0.7,1.6h1.4
		L285.9,237.8z"/>
	<path class="st5" d="M288.2,237.4h0.4v2.8h1.8v0.3h-2.1V237.4z"/>
	<path class="st5" d="M292.4,240.6c-0.9,0-1.6-0.7-1.6-1.6s0.7-1.6,1.6-1.6c0.6,0,0.9,0.2,1.2,0.5l-0.2,0.3c-0.3-0.2-0.6-0.4-1-0.4
		c-0.7,0-1.2,0.6-1.2,1.3s0.5,1.3,1.2,1.3c0.4,0,0.7-0.2,1-0.5l0.2,0.2C293.3,240.4,293,240.6,292.4,240.6z"/>
	<path class="st5" d="M295.7,240.6c-1,0-1.6-0.8-1.6-1.6s0.7-1.6,1.6-1.6c1,0,1.6,0.8,1.6,1.6S296.7,240.6,295.7,240.6z
		 M295.7,237.7c-0.7,0-1.2,0.6-1.2,1.3s0.5,1.3,1.2,1.3s1.2-0.6,1.2-1.3C297,238.2,296.4,237.7,295.7,237.7z"/>
	<path class="st5" d="M300.5,237.4h0.3v3.1h-0.3l-2-2.6v2.6h-0.3v-3.1h0.3l2,2.5V237.4z"/>
	<path class="st5" d="M303.2,240.5h-0.4v-1.2l-1.3-1.9h0.4l1.1,1.6l1.1-1.6h0.4l-1.3,1.9L303.2,240.5L303.2,240.5z"/>
</g>
<g>
	<path class="st5" d="M299.8,60.2h-1.9v1.1h1.7v0.3h-1.7v1.1h2V63h-2.3v-3.1h2.3L299.8,60.2L299.8,60.2z"/>
	<path class="st5" d="M302.9,59.9h0.3V63H303l-2-2.6V63h-0.3v-3.1h0.3l2,2.5V59.9z"/>
	<path class="st5" d="M305.4,61.3c0.7,0.1,1,0.4,1,0.9c0,0.5-0.5,0.9-1.1,0.9c-0.5,0-0.9-0.2-1.3-0.5l0.2-0.3
		c0.3,0.3,0.6,0.4,1.1,0.4c0.4,0,0.7-0.2,0.7-0.5c0-0.3-0.2-0.5-0.8-0.6c-0.7-0.2-1.1-0.4-1.1-0.9c0-0.5,0.4-0.9,1-0.9
		c0.5,0,0.8,0.1,1.1,0.4l-0.2,0.3c-0.3-0.2-0.6-0.3-0.9-0.3c-0.4,0-0.7,0.2-0.7,0.5C304.5,60.9,304.7,61.1,305.4,61.3z"/>
	<path class="st5" d="M309.8,61.7c0,0.9-0.5,1.4-1.3,1.4c-0.8,0-1.3-0.5-1.3-1.4v-1.8h0.4v1.8c0,0.7,0.4,1.1,1,1.1c0.6,0,1-0.4,1-1
		v-1.8h0.4L309.8,61.7L309.8,61.7z"/>
	<path class="st5" d="M311.1,59.9V63h-0.4v-3.1H311.1z"/>
	<path class="st5" d="M313.3,63h-0.4v-2.8h-1.1v-0.3h2.5v0.3h-1.1V63z"/>
	<path class="st5" d="M317.4,60.2h-1.9v1.1h1.7v0.3h-1.7v1.1h2V63h-2.3v-3.1h2.3L317.4,60.2L317.4,60.2z"/>
</g>
<g>
	<path class="st5" d="M194.5,158.7h-1.9v1.1h1.7v0.3h-1.7v1.1h2v0.3h-2.3v-3.1h2.3V158.7z"/>
	<path class="st5" d="M197.7,158.4h0.3v3.1h-0.3l-2-2.6v2.6h-0.3v-3.1h0.3l2,2.5V158.4z"/>
	<path class="st5" d="M200.1,159.8c0.7,0.1,1,0.4,1,0.9c0,0.5-0.5,0.9-1.1,0.9c-0.5,0-0.9-0.2-1.3-0.5l0.2-0.3
		c0.3,0.3,0.6,0.5,1.1,0.5c0.4,0,0.7-0.2,0.7-0.5c0-0.3-0.2-0.5-0.8-0.6c-0.7-0.2-1.1-0.4-1.1-0.9c0-0.5,0.4-0.9,1-0.9
		c0.5,0,0.8,0.1,1.1,0.4l-0.2,0.3c-0.3-0.2-0.6-0.3-0.9-0.3c-0.4,0-0.7,0.2-0.7,0.5C199.3,159.5,199.4,159.6,200.1,159.8z"/>
	<path class="st5" d="M204.5,160.2c0,0.9-0.5,1.4-1.3,1.4c-0.8,0-1.3-0.5-1.3-1.4v-1.8h0.4v1.8c0,0.7,0.4,1.1,1,1.1c0.6,0,1-0.4,1-1
		v-1.8h0.4L204.5,160.2L204.5,160.2z"/>
	<path class="st5" d="M205.8,158.4v3.1h-0.4v-3.1H205.8z"/>
	<path class="st5" d="M208,161.5h-0.4v-2.8h-1.1v-0.3h2.5v0.3H208V161.5z"/>
	<path class="st5" d="M212.1,158.7h-1.9v1.1h1.7v0.3h-1.7v1.1h2v0.3h-2.3v-3.1h2.3L212.1,158.7L212.1,158.7z"/>
</g>
<g>
	<path class="st5" d="M39.6,147.7h-0.4v-2.8h-1.1v-0.3h2.5v0.3h-1.1V147.7z"/>
	<path class="st5" d="M43.7,144.9h-1.9v1.1h1.7v0.3h-1.7v1.1h2v0.3h-2.3v-3.1h2.3L43.7,144.9L43.7,144.9z"/>
	<path class="st5" d="M46.7,147.7l-0.9-1.2h-0.9v1.2h-0.4v-3.1h1.4c0.7,0,1.1,0.4,1.1,0.9c0,0.5-0.4,0.8-0.9,0.9l1,1.3L46.7,147.7
		L46.7,147.7z M45.8,144.9h-1v1.3h1c0.5,0,0.8-0.2,0.8-0.6C46.6,145.1,46.3,144.9,45.8,144.9z"/>
	<path class="st5" d="M50,147.7l-0.9-1.2h-0.9v1.2h-0.4v-3.1h1.4c0.7,0,1.1,0.4,1.1,0.9c0,0.5-0.4,0.8-0.9,0.9l1,1.3L50,147.7
		L50,147.7z M49.2,144.9h-1v1.3h1c0.5,0,0.8-0.2,0.8-0.6C50,145.1,49.7,144.9,49.2,144.9z"/>
	<path class="st5" d="M54.1,147.7h-0.4l-0.4-0.8h-1.7l-0.4,0.8h-0.4l1.4-3.2h0.3L54.1,147.7z M52.5,145l-0.7,1.6h1.4L52.5,145z"/>
	<path class="st5" d="M56.1,147.8c-0.9,0-1.6-0.7-1.6-1.6s0.7-1.6,1.6-1.6c0.6,0,0.9,0.2,1.2,0.5l-0.2,0.3c-0.3-0.2-0.6-0.4-1-0.4
		c-0.7,0-1.2,0.6-1.2,1.3s0.5,1.3,1.2,1.3c0.4,0,0.7-0.2,1-0.5l0.2,0.2C57,147.6,56.7,147.8,56.1,147.8z"/>
	<path class="st5" d="M60.3,144.9h-1.9v1.1h1.7v0.3h-1.7v1.1h2v0.3h-2.3v-3.1h2.3L60.3,144.9L60.3,144.9z"/>
</g>
<g>
	<path class="st5" d="M287.2,128.3h-0.5l-1.2-1.5l-0.7,0.7v0.9h-0.4v-3.1h0.4v1.9l1.8-1.9h0.5l-1.3,1.4L287.2,128.3z"/>
</g>
<g>
	<path class="st6" d="M207.2,365.3c0,2-1.2,3.1-2.9,3.1c-1.7,0-2.9-1.1-2.9-3v-4.1h0.8v4c0,1.5,0.8,2.4,2.1,2.4
		c1.3,0,2.1-0.8,2.1-2.3v-4.1h0.8V365.3z"/>
	<path class="st6" d="M211.7,365.8H210v2.5h-0.8v-7h2.6c1.6,0,2.6,0.8,2.6,2.2C214.5,365,213.2,365.8,211.7,365.8z M211.8,362H210
		v3.1h1.7c1.2,0,1.9-0.6,1.9-1.5C213.7,362.5,212.9,362,211.8,362z"/>
	<path class="st6" d="M218.6,365.8h-1.7v2.5h-0.8v-7h2.6c1.6,0,2.6,0.8,2.6,2.2C221.4,365,220.1,365.8,218.6,365.8z M218.7,362h-1.8
		v3.1h1.7c1.2,0,1.9-0.6,1.9-1.5C220.6,362.5,219.8,362,218.7,362z"/>
	<path class="st6" d="M228.1,362h-4.3v2.4h3.8v0.7h-3.8v2.5h4.3v0.7H223v-7h5.1V362z"/>
	<path class="st6" d="M234.7,368.2l-2-2.7h-2v2.7h-0.8v-7h3c1.5,0,2.5,0.8,2.5,2.1c0,1.2-0.8,1.8-1.9,2l2.2,2.9H234.7z M232.8,362
		h-2.2v2.8h2.2c1,0,1.8-0.5,1.8-1.5C234.6,362.5,234,362,232.8,362z"/>
</g>
</svg>
