<svg width="254" height="276" viewBox="0 0 254 276" fill="none" xmlns="http://www.w3.org/2000/svg">
<g clip-path="url(#clip0_0_1)">
<path d="M202.2 55.8V55.9H96L95.9 55.8H95.8V51.7H74.5V55.3L74.9 54.6H75H75.1L93.8 65.4V65.5L93.2 66.6L93 66.7L74.3 55.9H69.9V58.6L91 70.8L91.1 70.9L90.4 72V72.1H90.3L69.1 59.8H69V59.7L69.6 58.8H68.2V83H69.8H69.9V83.1V113.3V113.4L69.8 113.5H57.1V130.5H58.1V110L58.2 109.9H66.3V102.9H17.4V109.9H23.7H23.8V110V130.5H24.8V113.5H17.4V187.4H117.6V182V181.9H117.7H132V173.3L132.1 173.2H172.4L172.5 173.3V181.9H186.7V170.6L186.8 170.5H239.8V134.6H202.2H202.1V134.5V105.3V105.2H202.2H208.1L207.6 104.3V104.1L228.8 91.9L228.9 91.8L229 91.9L229.6 93V93.1L229.5 93.2L208.4 105.4V107.7H211.1L222.3 101.2L222.5 101.3L223.1 102.4V102.5L211.9 109H211.7L211.3 108.3V111.1V111.2L211.2 111.3H208.4V118.2H239.8V111.3H237.1L237 111.2V111.1V108.3L236.6 109H236.5H236.4L225.2 102.5L225.1 102.4L225.8 101.3L225.9 101.2L237.1 107.7H239.8V73.4H211.1V74.7V74.8H211H209.9H209.8V74.7V73.4H208.3L208.2 73.3V67.3V67.2H208.3H209.8V65.9V65.8H209.9H211H211.1V65.9V67.2H239.8V21.6H237.7H237.6V21.5V18.1H236.4V42.4V42.5L236.3 42.6H235L234.9 42.5V42.4V18.1H210.5V21.5L210.4 21.6H186.2V24.2H209V23.1H182.8H182.7V23V21.6H145.2V47.2H182.7V46L182.8 45.9H186.1L186.2 46V47.2H208.3H208.4V47.3V80.8V80.9H208.3H202.2H202.1V80.8V55.8H202.2V55.9V55.8H202.3V80.7H208.2V47.4H186.1H186V47.3V46.2H182.9V47.3V47.4H182.8H145L144.9 47.3V21.5L145 21.4H182.8H182.9V21.5V22.9H209.1H209.2L209.3 23V24.3L209.2 24.4H209.1H186.1H186V24.3V21.5V21.4H186.1H210.2V18L210.3 17.9H210.4H235H235.1V18V42.3H236.1V18L236.2 17.9H236.3H237.7H237.8V18V21.4H240L240.1 21.5V67.3L240 67.4H211H210.9V67.3V66H210V67.3V67.4H209.9H208.4V73.1H209.9L210 73.2V73.3V74.6H210.9V73.3V73.2L211 73.1H240V73.2L240.1 73.3V107.8L240 107.9H237.1H237L225.9 101.5L225.4 102.4L236.4 108.7L237 107.7H237.1L237.2 107.8V111H240L240.1 111.1V118.3L240 118.4H208.3H208.2V118.3V111.1V111H208.3H211V107.8L211.1 107.7H211.3L211.8 108.7L222.9 102.4L222.3 101.5L211.2 107.9H208.3H208.2V107.8V105.3V105.2L229.3 93L228.8 92.1L207.8 104.2L208.4 105.2V105.3L208.3 105.4H202.3V134.4H240L240.1 134.5V170.6L240 170.7V170.8H186.9V182V182.1H186.8H172.4H172.3V182V173.5H132.2V182V182.1H132.1H117.8V187.6L117.7 187.7H17.3L17.2 187.6V113.3V113.2H17.3H25L25.1 113.3V130.6L25 130.7H23.7H23.6V130.6V110.1H17.3H17.2V110V102.8V102.7H17.3H66.5L66.6 102.8V110L66.5 110.1H58.4V130.6L58.3 130.7H58.2H57H56.9V130.6V113.3V113.2H57H69.7V83.2H68.1H68V83.1V58.6L68.1 58.5H69.8L69.9 58.6V58.7L69.3 59.7L90.3 71.8L90.8 70.9L69.7 58.7V58.6V55.8V55.7L69.8 55.6H74.4V55.7L93 66.4L93.5 65.5L75 54.8L74.5 55.8L74.3 55.9L74.2 55.8V51.5L74.3 51.4H74.4H96L96.1 51.5V55.6H202.2L202.3 55.7V55.8H202.2Z" fill="#99A4B3"/>
<path d="M110.4 57.2V57.1H170.8H170.9V57.2V80.2V80.3L170.8 80.4H110.4L110.3 80.3L110.2 80.2V57.2L110.3 57.1H110.4V57.2H110.5V80.1H170.7V57.3H110.4V57.2H110.5H110.4Z" fill="#99A4B3"/>
<path d="M128.4 93.2V93.1H152.8H152.9V93.2V109L152.8 109.1H128.4L128.3 109H128.2V93.2L128.3 93.1H128.4V93.2H128.5V108.8H152.7V93.3H128.4V93.2H128.5H128.4Z" fill="#99A4B3"/>
<path d="M172.3 58.6V58.5H186.7L186.8 58.6V78.8V78.9H186.7H172.3H172.2L172.1 78.8V58.6H172.2L172.3 58.5V58.6H172.4V78.7H186.6V58.8H172.3V58.6H172.4H172.3Z" fill="#99A4B3"/>
<path d="M82.3 179.2L74.6 171.7V171.5L89.9 156.2H90H90.1L97.7 163.8C99.8 165.9 100.9 168.7 100.9 171.5C100.9 174.3 99.8 177.1 97.7 179.2C95.6 181.3 92.8 182.4 90 182.4C87.1 182.5 84.3 181.4 82.3 179.2C84.5 181.2 87.2 182.2 89.9 182.2C92.6 182.2 95.4 181.2 97.4 179.1C99.5 177 100.5 174.3 100.5 171.6C100.5 168.9 99.5 166.1 97.4 164.1L89.9 156.6L74.8 171.7L82.3 179.2Z" fill="#99A4B3"/>
<path d="M18.7 186.1H18.6V140.1V140L18.7 139.9H36L36.1 140V140.1V156.7H42.4V156.1V156H42.5H43.6L43.7 156.1V170.1L43.6 170.2H42.5H42.4V170.1V169.5H36.1V186.1V186.2H36H18.7H18.6V186.1H18.7V186H35.9V169.4V169.3H36H42.5H42.6V169.4V170H43.4V156.2H42.6V156.8V156.9H42.5H36H35.9V156.8V140.2H18.9V186.1H18.7V186V186.1Z" fill="#99A4B3"/>
<path d="M110.7 129.3H110.6L113.4 118.9L113.5 118.8H113.6L134.5 124.4L134.6 124.5V124.6L131.8 135C130.5 139.9 126.1 143.1 121.3 143.1C120.4 143.1 119.4 143 118.5 142.7C113.6 141.4 110.4 137 110.4 132.2C110.4 131.3 110.5 130.3 110.8 129.4L110.7 129.3H110.8C110.6 130.2 110.4 131.2 110.4 132.1C110.4 136.8 113.5 141.1 118.3 142.4C119.2 142.6 120.2 142.8 121.1 142.8C125.8 142.8 130.1 139.7 131.4 134.9L134.2 124.6L113.6 119.1L110.8 129.4L110.7 129.3Z" fill="#99A4B3"/>
<path d="M170.4 129.3H170.3L167.5 119L146.9 124.5L149.7 134.8C151 139.6 155.3 142.7 160 142.7C160.9 142.7 161.8 142.6 162.8 142.3C167.6 141 170.7 136.7 170.7 132C170.7 131.1 170.6 130.2 170.3 129.2L170.4 129.3H170.5C170.8 130.2 170.9 131.2 170.9 132.1C170.9 136.9 167.7 141.3 162.8 142.6C161.9 142.9 160.9 143 160 143C155.2 143 150.8 139.8 149.5 134.9L146.7 124.5L146.8 124.4L167.7 118.8H167.8L167.9 118.9L170.7 129.3H170.4Z" fill="#99A4B3"/>
<path d="M18.5 187.6V113.3L18.6 113.2L18.8 113.3V187.6L18.6 187.7L18.5 187.6Z" fill="#99A4B3"/>
<path d="M18.5 110V102.8L18.6 102.7L18.8 102.8V110L18.6 110.1L18.5 110Z" fill="#99A4B3"/>
<path d="M23.9 187.6V186.1L24 186L24.2 186.1V187.6L24 187.7L23.9 187.6Z" fill="#99A4B3"/>
<path d="M23.9 113.3V102.8L24 102.7L24.2 102.8V113.3L24 113.5L23.9 113.3Z" fill="#99A4B3"/>
<path d="M23.9 140.1V130.6L24 130.5L24.2 130.6V140.1L24 140.2L23.9 140.1Z" fill="#99A4B3"/>
<path d="M29.3 187.6V186.1L29.4 186L29.6 186.1V187.6L29.4 187.7L29.3 187.6Z" fill="#99A4B3"/>
<path d="M29.3 140.1V102.8L29.4 102.7L29.6 102.8V140.1L29.4 140.2L29.3 140.1Z" fill="#99A4B3"/>
<path d="M34.7 187.6V186.1L34.8 186L35 186.1V187.6L34.8 187.7L34.7 187.6Z" fill="#99A4B3"/>
<path d="M34.7 140.1V102.8L34.8 102.7L35 102.8V140.1L34.8 140.2L34.7 140.1Z" fill="#99A4B3"/>
<path d="M40.1 187.6V169.4L40.2 169.3L40.4 169.4V187.6L40.2 187.7L40.1 187.6Z" fill="#99A4B3"/>
<path d="M40.1 156.8V102.8L40.2 102.7L40.4 102.8V156.8L40.2 156.9L40.1 156.8Z" fill="#99A4B3"/>
<path d="M45.5 187.6V102.8L45.6 102.7L45.8 102.8V187.6L45.6 187.7L45.5 187.6Z" fill="#99A4B3"/>
<path d="M50.9 187.6V102.8L51 102.7L51.1 102.8V187.6L51 187.7L50.9 187.6Z" fill="#99A4B3"/>
<path d="M56.3 187.6V102.8L56.4 102.7L56.5 102.8V187.6L56.4 187.7L56.3 187.6Z" fill="#99A4B3"/>
<path d="M61.7 187.6V113.3L61.8 113.2L61.9 113.3V187.6L61.8 187.7L61.7 187.6Z" fill="#99A4B3"/>
<path d="M61.7 110V102.8L61.8 102.7L61.9 102.8V110L61.8 110.1L61.7 110Z" fill="#99A4B3"/>
<path d="M67.1 187.6V113.3L67.2 113.2L67.3 113.3V187.6L67.2 187.7L67.1 187.6Z" fill="#99A4B3"/>
<path d="M72.5 187.6V61.7L72.6 61.6L72.7 61.7V187.6L72.6 187.7L72.5 187.6Z" fill="#99A4B3"/>
<path d="M72.5 60.3V55.8L72.6 55.6L72.7 55.8V60.3L72.6 60.4L72.5 60.3Z" fill="#99A4B3"/>
<path d="M77.9 187.6V174.9L78 174.8L78.1 174.9V187.6L78 187.7L77.9 187.6Z" fill="#99A4B3"/>
<path d="M77.9 56.4V51.5L78 51.4L78.1 51.5V56.4L78 56.5L77.9 56.4Z" fill="#99A4B3"/>
<path d="M77.9 168.2V64.8L78 64.7L78.1 64.8V168.2L78 168.3L77.9 168.2Z" fill="#99A4B3"/>
<path d="M77.9 63.4V57.9L78 57.7L78.1 57.9V63.4L78 63.5L77.9 63.4Z" fill="#99A4B3"/>
<path d="M83.3 187.6V180.2L83.4 180.1L83.5 180.2V187.6L83.4 187.7L83.3 187.6Z" fill="#99A4B3"/>
<path d="M83.3 59.5V51.5L83.4 51.4L83.5 51.5V59.5L83.4 59.6L83.3 59.5Z" fill="#99A4B3"/>
<path d="M83.3 162.8V68L83.4 67.8L83.5 68V162.8L83.4 162.9L83.3 162.8Z" fill="#99A4B3"/>
<path d="M83.3 66.5V61L83.4 60.9L83.5 61V66.5L83.4 66.6L83.3 66.5Z" fill="#99A4B3"/>
<path d="M88.7 187.6V182.3L88.8 182.2L88.9 182.3V187.6L88.8 187.7L88.7 187.6Z" fill="#99A4B3"/>
<path d="M88.7 62.6V51.5L88.8 51.4L88.9 51.5V62.6L88.8 62.8L88.7 62.6Z" fill="#99A4B3"/>
<path d="M88.7 157.4V71.1L88.8 71L88.9 71.1V157.4L88.8 157.5L88.7 157.4Z" fill="#99A4B3"/>
<path d="M88.7 69.6V64.1L88.8 64L88.9 64.1V69.6L88.8 69.7L88.7 69.6Z" fill="#99A4B3"/>
<path d="M94.1 187.6V181.5L94.2 181.3L94.3 181.5V187.6L94.2 187.7L94.1 187.6Z" fill="#99A4B3"/>
<path d="M94.1 160.6V51.5L94.2 51.4L94.3 51.5V160.6L94.2 160.7L94.1 160.6Z" fill="#99A4B3"/>
<path d="M99.5 187.6V176.3L99.6 176.2L99.7 176.3V187.6L99.6 187.7L99.5 187.6Z" fill="#99A4B3"/>
<path d="M99.5 166.8V55.8L99.6 55.6L99.7 55.8V166.8L99.6 167L99.5 166.8Z" fill="#99A4B3"/>
<path d="M104.9 187.6V55.8L105 55.6L105.1 55.8V187.6L105 187.7L104.9 187.6Z" fill="#99A4B3"/>
<path d="M110.3 187.6V133.1L110.4 133L110.5 133.1V187.6L110.4 187.7L110.3 187.6Z" fill="#99A4B3"/>
<path d="M110.3 57.2V55.8L110.4 55.6L110.5 55.8V57.2L110.4 57.3L110.3 57.2Z" fill="#99A4B3"/>
<path d="M110.3 131V80.2L110.4 80.1L110.5 80.2V131L110.4 131.2L110.3 131Z" fill="#99A4B3"/>
<path d="M115.7 187.6V141.4L115.8 141.3L115.9 141.4V187.6L115.8 187.7L115.7 187.6Z" fill="#99A4B3"/>
<path d="M115.7 57.2V55.8L115.8 55.6L115.9 55.8V57.2L115.8 57.3L115.7 57.2Z" fill="#99A4B3"/>
<path d="M115.7 119.5V80.2L115.8 80.1L115.9 80.2V119.5L115.8 119.6L115.7 119.5Z" fill="#99A4B3"/>
<path d="M121.1 182V142.9L121.2 142.7L121.3 142.9V182L121.2 182.1L121.1 182Z" fill="#99A4B3"/>
<path d="M121.1 57.2V55.8L121.2 55.6L121.3 55.8V57.2L121.2 57.3L121.1 57.2Z" fill="#99A4B3"/>
<path d="M121.1 120.9V80.2L121.2 80.1L121.3 80.2V120.9L121.2 121L121.1 120.9Z" fill="#99A4B3"/>
<path d="M126.5 182V141.4L126.6 141.3L126.7 141.4V182L126.6 182.1L126.5 182Z" fill="#99A4B3"/>
<path d="M126.5 57.2V55.8L126.6 55.6L126.7 55.8V57.2L126.6 57.3L126.5 57.2Z" fill="#99A4B3"/>
<path d="M126.5 122.3V80.2L126.6 80.1L126.7 80.2V122.3L126.6 122.5L126.5 122.3Z" fill="#99A4B3"/>
<path d="M131.9 182V133.3L132 133.2L132.1 133.3V182L132 182.1L131.9 182Z" fill="#99A4B3"/>
<path d="M131.9 57.2V55.8L132 55.6L132.1 55.8V57.2L132 57.3L131.9 57.2Z" fill="#99A4B3"/>
<path d="M131.9 123.8V109L132 108.8L132.1 109V123.8L132 123.9L131.9 123.8Z" fill="#99A4B3"/>
<path d="M131.9 93.2V80.2L132 80.1L132.1 80.2V93.2L132 93.3L131.9 93.2Z" fill="#99A4B3"/>
<path d="M137.3 173.3V109L137.4 108.8L137.5 109V173.3L137.4 173.5L137.3 173.3Z" fill="#99A4B3"/>
<path d="M137.3 57.2V55.8L137.4 55.6L137.5 55.8V57.2L137.4 57.3L137.3 57.2Z" fill="#99A4B3"/>
<path d="M137.3 93.2V80.2L137.4 80.1L137.5 80.2V93.2L137.4 93.3L137.3 93.2Z" fill="#99A4B3"/>
<path d="M142.7 173.3V109L142.8 108.8L142.9 109V173.3L142.8 173.5L142.7 173.3Z" fill="#99A4B3"/>
<path d="M142.7 57.2V55.8L142.8 55.6L142.9 55.8V57.2L142.8 57.3L142.7 57.2Z" fill="#99A4B3"/>
<path d="M142.7 93.2V80.2L142.8 80.1L142.9 80.2V93.2L142.8 93.3L142.7 93.2Z" fill="#99A4B3"/>
<path d="M148.1 173.3V129.6L148.2 129.5L148.3 129.6V173.3L148.2 173.5L148.1 173.3Z" fill="#99A4B3"/>
<path d="M148.1 47.3V21.5L148.2 21.4L148.3 21.5V47.3L148.2 47.4L148.1 47.3Z" fill="#99A4B3"/>
<path d="M148.1 124.1V109L148.2 108.8L148.3 109V124.1L148.2 124.2L148.1 124.1Z" fill="#99A4B3"/>
<path d="M148.1 57.2V55.8L148.2 55.6L148.3 55.8V57.2L148.2 57.3L148.1 57.2Z" fill="#99A4B3"/>
<path d="M148.1 93.2V80.2L148.2 80.1L148.3 80.2V93.2L148.2 93.3L148.1 93.2Z" fill="#99A4B3"/>
<path d="M153.5 173.3V140.7L153.6 140.6L153.7 140.7V173.3L153.6 173.5L153.5 173.3Z" fill="#99A4B3"/>
<path d="M153.5 47.3V21.5L153.6 21.4L153.7 21.5V47.3L153.6 47.4L153.5 47.3Z" fill="#99A4B3"/>
<path d="M153.5 122.6V80.2L153.6 80.1L153.7 80.2V122.6L153.6 122.7L153.5 122.6Z" fill="#99A4B3"/>
<path d="M153.5 57.2V55.8L153.6 55.6L153.7 55.8V57.2L153.6 57.3L153.5 57.2Z" fill="#99A4B3"/>
<path d="M158.9 173.3V142.8L159 142.7L159.1 142.8V173.3L159 173.5L158.9 173.3Z" fill="#99A4B3"/>
<path d="M158.9 47.3V21.5L159 21.4L159.1 21.5V47.3L159 47.4L158.9 47.3Z" fill="#99A4B3"/>
<path d="M158.9 121.2V80.2L159 80.1L159.1 80.2V121.2L159 121.3L158.9 121.2Z" fill="#99A4B3"/>
<path d="M158.9 57.2V55.8L159 55.6L159.1 55.8V57.2L159 57.3L158.9 57.2Z" fill="#99A4B3"/>
<path d="M164.3 173.3V141.9L164.4 141.8L164.5 141.9V173.3L164.4 173.5L164.3 173.3Z" fill="#99A4B3"/>
<path d="M164.3 47.3V21.5L164.4 21.4L164.5 21.5V47.3L164.4 47.4L164.3 47.3Z" fill="#99A4B3"/>
<path d="M164.3 119.7V80.2L164.4 80.1L164.5 80.2V119.7L164.4 119.8L164.3 119.7Z" fill="#99A4B3"/>
<path d="M164.3 57.2V55.8L164.4 55.6L164.5 55.8V57.2L164.4 57.3L164.3 57.2Z" fill="#99A4B3"/>
<path d="M169.7 173.3V136.7L169.8 136.5L169.9 136.7V173.3L169.8 173.5L169.7 173.3Z" fill="#99A4B3"/>
<path d="M169.7 47.3V21.5L169.8 21.4L169.9 21.5V47.3L169.8 47.4L169.7 47.3Z" fill="#99A4B3"/>
<path d="M169.7 126.8V80.2L169.8 80.1L169.9 80.2V126.8L169.8 126.9L169.7 126.8Z" fill="#99A4B3"/>
<path d="M169.7 57.2V55.8L169.8 55.6L169.9 55.8V57.2L169.8 57.3L169.7 57.2Z" fill="#99A4B3"/>
<path d="M175.1 182V78.8L175.2 78.7L175.3 78.8V182L175.2 182.1L175.1 182Z" fill="#99A4B3"/>
<path d="M175.1 47.3V21.5L175.2 21.4L175.3 21.5V47.3L175.2 47.4L175.1 47.3Z" fill="#99A4B3"/>
<path d="M175.1 58.6V55.8L175.2 55.6L175.3 55.8V58.6L175.2 58.8L175.1 58.6Z" fill="#99A4B3"/>
<path d="M180.5 182V78.8L180.6 78.7L180.7 78.8V182L180.6 182.1L180.5 182Z" fill="#99A4B3"/>
<path d="M180.5 47.3V21.5L180.6 21.4L180.7 21.5V47.3L180.6 47.4L180.5 47.3Z" fill="#99A4B3"/>
<path d="M180.5 58.6V55.8L180.6 55.6L180.7 55.8V58.6L180.6 58.8L180.5 58.6Z" fill="#99A4B3"/>
<path d="M185.9 182V78.8L186 78.7L186.1 78.8V182L186 182.1L185.9 182Z" fill="#99A4B3"/>
<path d="M185.9 46V23L186 22.9L186.1 23V46L186 46.2L185.9 46Z" fill="#99A4B3"/>
<path d="M185.9 58.6V55.8L186 55.6L186.1 55.8V58.6L186 58.8L185.9 58.6Z" fill="#99A4B3"/>
<path d="M191.3 170.6V55.8L191.4 55.6L191.5 55.8V170.6L191.4 170.8L191.3 170.6Z" fill="#99A4B3"/>
<path d="M191.3 23V21.5L191.4 21.4L191.5 21.5V23L191.4 23.1L191.3 23Z" fill="#99A4B3"/>
<path d="M191.3 47.3V24.3L191.4 24.2L191.5 24.3V47.3L191.4 47.4L191.3 47.3Z" fill="#99A4B3"/>
<path d="M196.7 170.6V55.8L196.8 55.6L196.9 55.8V170.6L196.8 170.8L196.7 170.6Z" fill="#99A4B3"/>
<path d="M196.7 23V21.5L196.8 21.4L196.9 21.5V23L196.8 23.1L196.7 23Z" fill="#99A4B3"/>
<path d="M196.7 47.3V24.3L196.8 24.2L196.9 24.3V47.3L196.8 47.4L196.7 47.3Z" fill="#99A4B3"/>
<path d="M202.1 170.6V134.5L202.2 134.4L202.3 134.5V170.6L202.2 170.8L202.1 170.6Z" fill="#99A4B3"/>
<path d="M202.1 23V21.5L202.2 21.4L202.3 21.5V23L202.2 23.1L202.1 23Z" fill="#99A4B3"/>
<path d="M202.1 105.3V80.8L202.2 80.7L202.3 80.8V105.3L202.2 105.4L202.1 105.3Z" fill="#99A4B3"/>
<path d="M202.1 47.3V24.3L202.2 24.2L202.3 24.3V47.3L202.2 47.4L202.1 47.3Z" fill="#99A4B3"/>
<path d="M207.4 170.6V134.5L207.6 134.4L207.7 134.5V170.6L207.6 170.8L207.4 170.6Z" fill="#99A4B3"/>
<path d="M207.4 23V21.5L207.6 21.4L207.7 21.5V23L207.6 23.1L207.4 23Z" fill="#99A4B3"/>
<path d="M207.4 105.3V80.8L207.6 80.7L207.7 80.8V105.3L207.6 105.4L207.4 105.3Z" fill="#99A4B3"/>
<path d="M207.4 47.3V24.3L207.6 24.2L207.7 24.3V47.3L207.6 47.4L207.4 47.3Z" fill="#99A4B3"/>
<path d="M212.8 170.6V134.5L213 134.4L213.1 134.5V170.6L213 170.8L212.8 170.6Z" fill="#99A4B3"/>
<path d="M212.8 67.3V18L213 17.9L213.1 18V67.3L213 67.4L212.8 67.3Z" fill="#99A4B3"/>
<path d="M212.8 118.3V108.2L213 108.1L213.1 108.2V118.3L213 118.4L212.8 118.3Z" fill="#99A4B3"/>
<path d="M212.8 101.1V73.3L213 73.1L213.1 73.3V101.1L213 101.2L212.8 101.1Z" fill="#99A4B3"/>
<path d="M212.8 106.8V102.6L213 102.5L213.1 102.6V106.8L213 106.9L212.8 106.8Z" fill="#99A4B3"/>
<path d="M218.2 170.6V134.5L218.4 134.4L218.5 134.5V170.6L218.4 170.8L218.2 170.6Z" fill="#99A4B3"/>
<path d="M218.2 67.3V18L218.4 17.9L218.5 18V67.3L218.4 67.4L218.2 67.3Z" fill="#99A4B3"/>
<path d="M218.2 118.3V105.1L218.4 105L218.5 105.1V118.3L218.4 118.4L218.2 118.3Z" fill="#99A4B3"/>
<path d="M218.2 98V73.3L218.4 73.1L218.5 73.3V98L218.4 98.1L218.2 98Z" fill="#99A4B3"/>
<path d="M218.2 103.6V99.5L218.4 99.3L218.5 99.5V103.6L218.4 103.8L218.2 103.6Z" fill="#99A4B3"/>
<path d="M223.6 170.6V134.5L223.8 134.4L223.9 134.5V170.6L223.8 170.8L223.6 170.6Z" fill="#99A4B3"/>
<path d="M223.6 67.3V18L223.8 17.9L223.9 18V67.3L223.8 67.4L223.6 67.3Z" fill="#99A4B3"/>
<path d="M223.6 118.3V96.3L223.8 96.2L223.9 96.3V118.3L223.8 118.4L223.6 118.3Z" fill="#99A4B3"/>
<path d="M223.6 94.9V73.3L223.8 73.1L223.9 73.3V94.9L223.8 95L223.6 94.9Z" fill="#99A4B3"/>
<path d="M229 170.6V134.5L229.2 134.4L229.3 134.5V170.6L229.2 170.8L229 170.6Z" fill="#99A4B3"/>
<path d="M229 67.3V18L229.2 17.9L229.3 18V67.3L229.2 67.4L229 67.3Z" fill="#99A4B3"/>
<path d="M229 118.3V104.7L229.2 104.6L229.3 104.7V118.3L229.2 118.4L229 118.3Z" fill="#99A4B3"/>
<path d="M229 92.5V73.3L229.2 73.1L229.3 73.3V92.5L229.2 92.6L229 92.5Z" fill="#99A4B3"/>
<path d="M229 103.2V93.2L229.2 93.1L229.3 93.2V103.2L229.2 103.4L229 103.2Z" fill="#99A4B3"/>
<path d="M234.4 170.6V134.5L234.6 134.4L234.7 134.5V170.6L234.6 170.8L234.4 170.6Z" fill="#99A4B3"/>
<path d="M234.4 67.3V18L234.6 17.9L234.7 18V67.3L234.6 67.4L234.4 67.3Z" fill="#99A4B3"/>
<path d="M234.4 118.3V107.8L234.6 107.7L234.7 107.8V118.3L234.6 118.4L234.4 118.3Z" fill="#99A4B3"/>
<path d="M234.4 106.3V73.3L234.6 73.1L234.7 73.3V106.3L234.6 106.5L234.4 106.3Z" fill="#99A4B3"/>
<path d="M242.2 268.8H242.1V179.2H238.1V205V205.1H238H236.7H236.6V205V179.2H207.7L207.6 179.1V178.1H194.2V194.8V194.9L194.1 195H20.7V235.2L194.1 258.3L194.2 258.5V268.7H195.4V245.8V245.7H195.5H196.8H196.9V245.8V268.7H242.2V268.8H242.1H242.2V269H196.8L196.7 268.9V268.8V245.9H195.6V268.8V268.9L195.5 269H194.1L194 268.9V268.8V258.6L20.5 235.5L20.4 235.3V194.8L20.5 194.7H194V177.9L194.1 177.8H207.7L207.8 177.9H207.9V179H236.7H236.8V179.1V204.9H237.9V179.1V179H238H242.2H242.3V179.1V268.8V268.9L242.2 269V268.8Z" fill="#99A4B3"/>
<path d="M17.9 30.8H17.8C17.8 30.6 17.9 30.4 18.1 30.4L20.2 30H20.4C20.6 30 20.8 30.1 21 30.2C21.3 30.4 21.6 30.7 21.9 31.1L21.8 31.2V31.1C24.1 31 26.4 30.7 28.6 30.2C29.3 30 30.1 30 30.8 30C31.8 30 32.7 30.1 33.7 30.4C34.5 30.6 35.3 31 36 31.5C36.7 32 37.2 32.6 37.6 33.3C37.9 33.9 38.1 34.6 38.1 35.2C38.1 35.9 37.9 36.6 37.6 37.1C37.2 37.8 36.6 38.4 36 38.9C35.3 39.4 34.5 39.8 33.7 40C32.8 40.3 31.8 40.4 30.8 40.4C30 40.4 29.3 40.3 28.6 40.2C26.3 39.8 24.1 39.5 21.8 39.3V39.2L21.9 39.3C21.7 39.6 21.4 39.9 21 40.2C20.8 40.3 20.6 40.4 20.4 40.4H20.2L18.1 40C17.9 40 17.8 39.8 17.8 39.6V30.9H17.9H18V39.6L18.1 39.8L20.2 40.2H20.3C20.5 40.2 20.6 40.2 20.7 40.1C21 39.9 21.3 39.6 21.5 39.3L21.6 39.2C23.9 39.3 26.2 39.6 28.5 40.1C29.2 40.3 29.9 40.3 30.7 40.3C31.7 40.3 32.6 40.2 33.5 39.9C34.3 39.7 35 39.3 35.7 38.8C36.3 38.3 36.9 37.7 37.3 37.1C37.6 36.5 37.8 35.9 37.8 35.3C37.8 34.7 37.6 34 37.3 33.5C36.9 32.8 36.4 32.2 35.7 31.8C35 31.3 34.3 31 33.5 30.7C32.6 30.4 31.6 30.3 30.7 30.3C30 30.3 29.2 30.4 28.5 30.5C26.2 30.9 23.9 31.2 21.6 31.4L21.5 31.3C21.3 31 21 30.7 20.7 30.5C20.6 30.4 20.4 30.4 20.3 30.4H20.2L18.1 30.8L18 31H17.9V30.8Z" fill="#99A4B3"/>
<path d="M238 179.2H212.1L211.9 179.1L212.1 179H238L238.1 179.1L238 179.2Z" fill="#99A4B3"/>
<path d="M238 170.8H212.1L211.9 170.6L212.1 170.5H238L238.1 170.6L238 170.8Z" fill="#99A4B3"/>
<path d="M236.3 18.1H211.8L211.7 18L211.8 17.9H236.3L236.4 18L236.3 18.1Z" fill="#99A4B3"/>
<path d="M236.3 14.5H211.8L211.7 14.4L211.8 14.3H236.3L236.4 14.4L236.3 14.5Z" fill="#99A4B3"/>
<path d="M195.5 268.7H218.5L218.7 268.8L218.5 269H195.5L195.4 268.8L195.5 268.7Z" fill="#99A4B3"/>
<path d="M195.5 270.2H218.5L218.7 270.3L218.5 270.4H195.5L195.4 270.3L195.5 270.2Z" fill="#99A4B3"/>
<path d="M66.5 23.2V23.3H17.5V69H34.6C35.9 69 36.9 70 36.9 71.3V81.4C36.9 82.7 35.9 83.7 34.6 83.7H17.4V89.3H66.3V83.1V83H66.4H68V58.8H66.5H66.4V58.7V23.3H66.5V23.4V23.2H66.6V58.5H68.1H68.2V58.6V83.1V83.2H68.1H66.6V89.4V89.5H66.5H17.3H17.2V89.4V83.6V83.5H17.3H34.5C35.6 83.5 36.5 82.6 36.5 81.5V71.4C36.5 70.3 35.6 69.4 34.5 69.4H17.3H17.2V69.3V23.3V23.2H17.3H66.5Z" fill="#99A4B3"/>
<path d="M17.9 89.4V83.6L18 83.4L18.1 83.6V89.4L18 89.5L17.9 89.4Z" fill="#99A4B3"/>
<path d="M17.9 30.5V23.2L18 23.1L18.1 23.2V30.5L18 30.6L17.9 30.5Z" fill="#99A4B3"/>
<path d="M17.9 69.2V39.7L18 39.6L18.1 39.7V69.2L18 69.3L17.9 69.2Z" fill="#99A4B3"/>
<path d="M26.5 89.4V83.6L26.6 83.4L26.8 83.6V89.4L26.6 89.5L26.5 89.4Z" fill="#99A4B3"/>
<path d="M26.5 30.5V23.2L26.6 23.1L26.8 23.2V30.5L26.6 30.6L26.5 30.5Z" fill="#99A4B3"/>
<path d="M26.5 69.2V39.7L26.6 39.6L26.8 39.7V69.2L26.6 69.3L26.5 69.2Z" fill="#99A4B3"/>
<path d="M35.2 89.4V83.4L35.3 83.3L35.4 83.4V89.4L35.3 89.5L35.2 89.4Z" fill="#99A4B3"/>
<path d="M35.2 31V23.2L35.3 23.1L35.4 23.2V31L35.3 31.2L35.2 31Z" fill="#99A4B3"/>
<path d="M35.2 69.3V39.1L35.3 39L35.4 39.1V69.3L35.3 69.4L35.2 69.3Z" fill="#99A4B3"/>
<path d="M43.8 89.4V23.2L43.9 23.1L44 23.2V89.4L43.9 89.5L43.8 89.4Z" fill="#99A4B3"/>
<path d="M52.4 89.4V23.2L52.6 23.1L52.7 23.2V89.4L52.6 89.5L52.4 89.4Z" fill="#99A4B3"/>
<path d="M61.1 89.4V23.2L61.2 23.1L61.3 23.2V89.4L61.2 89.5L61.1 89.4Z" fill="#99A4B3"/>
<path d="M68.1 72.2H36.6L36.5 72.1L36.6 72H68.1L68.2 72.1L68.1 72.2Z" fill="#99A4B3"/>
<path d="M66.5 55H17.3L17.2 54.9L17.3 54.7H66.5L66.6 54.9L66.5 55Z" fill="#99A4B3"/>
<path d="M66.5 37.7H37.1L37 37.6L37.1 37.5H66.5L66.6 37.6L66.5 37.7Z" fill="#99A4B3"/>
<path d="M17.9 37.7H17.3L17.2 37.6L17.3 37.5H17.9L18 37.6L17.9 37.7Z" fill="#99A4B3"/>
<path d="M238 194.7H242.2L242.3 194.8L242.2 195H238L237.9 194.8L238 194.7Z" fill="#99A4B3"/>
<path d="M194.1 194.7H236.7L236.8 194.8L236.7 195H194.1L194 194.8L194.1 194.7Z" fill="#99A4B3"/>
<path d="M20.5 212H242.2L242.3 212.1L242.2 212.2H20.5L20.4 212.1L20.5 212Z" fill="#99A4B3"/>
<path d="M20.5 229.3H242.2L242.3 229.4L242.2 229.5H20.5L20.4 229.4L20.5 229.3Z" fill="#99A4B3"/>
<path d="M105.6 246.5H195.5L195.6 246.7L195.5 246.8H105.6L105.5 246.7L105.6 246.5Z" fill="#99A4B3"/>
<path d="M196.8 246.5H242.2L242.3 246.7L242.2 246.8H196.8L196.7 246.7L196.8 246.5Z" fill="#99A4B3"/>
<path d="M194.1 263.8H195.5L195.6 263.9L195.5 264.1H194.1L194 263.9L194.1 263.8Z" fill="#99A4B3"/>
<path d="M196.8 263.8H242.2L242.3 263.9L242.2 264.1H196.8L196.7 263.9L196.8 263.8Z" fill="#99A4B3"/>
<path d="M21.2 235.4V194.8L21.3 194.7L21.5 194.8V235.4L21.3 235.6L21.2 235.4Z" fill="#99A4B3"/>
<path d="M38.5 237.7V194.8L38.6 194.7L38.7 194.8V237.7L38.6 237.9L38.5 237.7Z" fill="#99A4B3"/>
<path d="M55.8 240V194.8L55.9 194.7L56 194.8V240L55.9 240.2L55.8 240Z" fill="#99A4B3"/>
<path d="M73 242.3V194.8L73.2 194.7L73.3 194.8V242.3L73.2 242.5L73 242.3Z" fill="#99A4B3"/>
<path d="M90.3 244.6V194.8L90.4 194.7L90.6 194.8V244.6L90.4 244.8L90.3 244.6Z" fill="#99A4B3"/>
<path d="M107.6 246.9V194.8L107.7 194.7L107.8 194.8V246.9L107.7 247.1L107.6 246.9Z" fill="#99A4B3"/>
<path d="M124.9 249.2V194.8L125 194.7L125.1 194.8V249.2L125 249.4L124.9 249.2Z" fill="#99A4B3"/>
<path d="M142.1 251.5V194.8L142.3 194.7L142.4 194.8V251.5L142.3 251.7L142.1 251.5Z" fill="#99A4B3"/>
<path d="M159.4 253.9V194.8L159.5 194.7L159.6 194.8V253.9L159.5 254L159.4 253.9Z" fill="#99A4B3"/>
<path d="M176.7 256.2V194.8L176.8 194.7L176.9 194.8V256.2L176.8 256.3L176.7 256.2Z" fill="#99A4B3"/>
<path d="M194 258.5V194.8L194.1 194.7L194.2 194.8V258.5L194.1 258.6L194 258.5Z" fill="#99A4B3"/>
<path d="M211.2 268.8V179.1L211.3 179L211.5 179.1V268.8L211.3 269L211.2 268.8Z" fill="#99A4B3"/>
<path d="M228.5 268.8V179.1L228.6 179L228.7 179.1V268.8L228.6 269L228.5 268.8Z" fill="#99A4B3"/>
<path fill-rule="evenodd" clip-rule="evenodd" d="M20.5 224H7.10001V12.8H210.4V14.4H211.8V18H210.4V21.5H186.1V23H182.8V21.5H72.6V47.3H74.4V55.8H69.8V58.6H66.5V23.2H17.3V89.4H66.5V83.1H69.8V113.3H58.2V110H66.5V92.7H17.3V110H23.7V113.3H17.3V187.6H21.3V191.6H20.5V224Z" fill="#22576F"/>
<path fill-rule="evenodd" clip-rule="evenodd" d="M78.8 187.6V191.6H79.5V194.8H194.1V174.7H194.8V170.6H186.8V182H117.7V187.6H78.8Z" fill="#22576F"/>
<path d="M212 170.6H207.7V179.1H212V170.6Z" fill="#22576F"/>
<path fill-rule="evenodd" clip-rule="evenodd" d="M238 170.6V179.1H242.2V224H248.8V12.8H237.7V14.4H236.3V18H237.7V21.5H240V107.8H237.1V111.1H240V128.4H208.3V111.1H211.2V107.8H208.3V105.3H202.2V134.5H240V170.6H238Z" fill="#22576F"/>
<path fill-rule="evenodd" clip-rule="evenodd" d="M96 47.3V55.8H202.2V80.8H208.3V47.3H186.1V46H182.8V47.3H96Z" fill="#22576F"/>
<path d="M209.9 65.9V65.8H211H211.1V65.9V74.7V74.8H211H209.9H209.8V74.7V65.9V65.8H209.9V65.9H210V74.6H210.9V66H209.9V65.9H210H209.9Z" fill="#22576F"/>
<path d="M113.4 23.5H144.9V22.7H113.1L113 22.6L113.1 22.4H145L145.1 22.5L145.2 22.6V23.6L145.1 23.7L145 23.8H113.4L113.2 23.6L113.4 23.5Z" fill="#22576F"/>
<path d="M208.3 121.1H210.4L210.6 121.2L210.4 121.3H208.3L208.2 121.2L208.3 121.1Z" fill="#22576F"/>
<path d="M231.5 121.1H235.7L235.8 121.2L235.7 121.3H231.5L231.4 121.2L231.5 121.1ZM225.2 121.1H229.4L229.5 121.2L229.4 121.3H225.2L225.1 121.2L225.2 121.1ZM218.9 121.1H223.1L223.2 121.2L223.1 121.3H218.9L218.8 121.2L218.9 121.1ZM212.5 121.1H216.7L216.8 121.2L216.7 121.3H212.5L212.4 121.2L212.5 121.1Z" fill="#22576F"/>
<path d="M237.8 121.1H240L240.1 121.2L240 121.3H237.8L237.7 121.2L237.8 121.1Z" fill="#22576F"/>
<path d="M66.5 100.1H64.3L64.2 99.9L64.3 99.8H66.5L66.6 99.9L66.5 100.1Z" fill="#22576F"/>
<path d="M25.6 100.1H21.5L21.4 100L21.5 99.9H25.6L25.7 100L25.6 100.1ZM31.7 100.1H27.6L27.5 100L27.6 99.9H31.7L31.8 100L31.7 100.1ZM37.8 100.1H33.7L33.6 100L33.7 99.9H37.8L37.9 100L37.8 100.1ZM43.9 100.1H39.8L39.7 100L39.8 99.9H43.9L44 100L43.9 100.1ZM50 100.1H46L45.9 100L46 99.9H50L50.1 100L50 100.1ZM56.2 100.1H52.1L52 100L52.1 99.9H56.2L56.3 100L56.2 100.1ZM62.3 100.1H58.2L58.1 100L58.2 99.9H62.3L62.4 100L62.3 100.1Z" fill="#22576F"/>
<path d="M19.4 100.1H17.3L17.2 99.9L17.3 99.8H19.4L19.6 99.9L19.4 100.1Z" fill="#22576F"/>
<path d="M194.1 174.6H207.7L207.9 174.7L207.7 174.8H194.1L193.9 174.7L194.1 174.6Z" fill="#22576F"/>
<path d="M194.1 177.8H207.7L207.9 177.9L207.7 178.1H194.1L193.9 177.9L194.1 177.8Z" fill="#22576F"/>
<path d="M20.5 191.5H79.5L79.7 191.6L79.5 191.7H20.5L20.4 191.6L20.5 191.5Z" fill="#22576F"/>
<path d="M20.5 194.7H79.5L79.7 194.8L79.5 195H20.5L20.4 194.8L20.5 194.7Z" fill="#22576F"/>
<path d="M238 205V205.1H236.7H236.6V205V179.1V179H236.7H238H238.1V179.1V205V205.1H238V205H237.9V179.2H236.8V204.9H238V205H237.9H238Z" fill="#22576F"/>
<path d="M212.2 179.1C212.2 186.2 215.1 192.7 219.8 197.3C224.5 202 230.9 204.9 238 204.9L238.1 205L238 205.1C223.6 205.1 212 193.4 212 179.1L212.1 179L212.2 179.1Z" fill="#22576F"/>
<path d="M236.3 42.4V42.6H235L234.9 42.5V42.4V18V17.9H235H236.3H236.4V18V42.4V42.5L236.3 42.6V42.4H236.1V18.1H235.1V42.3H236.3V42.4H236.1H236.3Z" fill="#22576F"/>
<path d="M211.9 18C211.9 24.7 214.6 30.8 219 35.2C223.4 39.6 229.5 42.3 236.2 42.3L236.3 42.4L236.2 42.5C222.6 42.5 211.6 31.5 211.6 17.9L211.7 17.8L211.9 18Z" fill="#22576F"/>
<path d="M195.5 245.8V245.7H196.8H196.9V245.8V268.8V268.9L196.8 269H195.5L195.4 268.9V268.8V245.8V245.7H195.5V245.8H195.6V268.7H196.6V245.9H195.5V245.8H195.6H195.5Z" fill="#22576F"/>
<path d="M218.4 268.8C218.4 262.5 215.8 256.7 211.7 252.6C207.6 248.5 201.8 245.9 195.5 245.9L195.4 245.8L195.5 245.7C208.3 245.7 218.7 256.1 218.7 268.9L218.6 269L218.4 268.8Z" fill="#22576F"/>
<path d="M224 107.8C224 105.5 223.4 103.3 222.3 101.4V101.2H222.5C223.6 103.2 224.3 105.4 224.3 107.7L224.2 107.8H224Z" fill="#22576F"/>
<path d="M226 101.4C224.9 103.4 224.3 105.6 224.3 107.8L224.2 107.9L224.1 107.8C224.1 105.5 224.7 103.2 225.9 101.3H226.1L226 101.4Z" fill="#22576F"/>
<path d="M211.2 107.8L211.1 107.7L222.3 101.2H222.4L222.5 101.3L223.1 102.4V102.5L211.9 109H211.7L211.1 107.9V107.7L211.2 107.8L211.3 107.7L211.8 108.7L222.8 102.4L222.3 101.5L211.2 107.9V107.8L211.3 107.7L211.2 107.8Z" fill="#22576F"/>
<path d="M237.1 107.8L237 107.9L225.9 101.5L225.4 102.4L236.4 108.7L237 107.7L237.1 107.8L237 107.9L237.1 107.8L237.2 107.9L236.6 109H236.4L225.2 102.5L225.1 102.4L225.7 101.3L225.8 101.2H225.9L237.1 107.7L237.2 107.8V107.9L237.1 107.8Z" fill="#22576F"/>
<path d="M69.8 58.6V58.5L91 70.8H91.1V70.9L90.5 72L90.3 72.1L69.1 59.8H69V59.7L69.7 58.6L69.8 58.5V58.6L69.9 58.7L69.3 59.7L90.3 71.8L90.8 70.9L69.7 58.7L69.8 58.6L69.9 58.7L69.8 58.6Z" fill="#22576F"/>
<path d="M69.8 83C78.5 83 86.5 78.4 90.9 70.8H91.1V71C86.7 78.6 78.6 83.3 69.8 83.3L69.7 83.2L69.8 83Z" fill="#22576F"/>
<path d="M186.1 23V22.9H209.1H209.2L209.3 23V24.3L209.2 24.4H209.1H186.1H186V24.3V23V22.9H186.1V23H186.2V24.1H209V23.1H186.1V23H186.2H186.1Z" fill="#22576F"/>
<path d="M186.1 45.9C192.4 45.9 198.2 43.3 202.3 39.2C206.4 35.1 209 29.3 209 23L209.1 22.9L209.2 23C209.2 35.8 198.8 46.2 186 46.2V46L186.1 45.9Z" fill="#22576F"/>
<path d="M195.5 268.8V269H194.2V270.2H195.4V268.8H195.5V269V268.8H195.6V270.3V270.4H195.5H194.1H194L193.9 270.3V268.8H194L194.1 268.7H195.5L195.6 268.8H195.5Z" fill="#22576F"/>
<path d="M218.5 268.8V268.7H242.2L242.3 268.8V270.3V270.4H242.2H218.5L218.4 270.3V268.8H218.5V268.7V268.8H218.7V270.2H242.1V269H218.5V268.8H218.7H218.5Z" fill="#22576F"/>
<path d="M208.3 67.2H209.9L210 67.3L209.9 67.4H208.3L208.2 67.3L208.3 67.2Z" fill="#22576F"/>
<path d="M211 67.2H240L240.1 67.3L240 67.4H211L210.9 67.3L211 67.2Z" fill="#22576F"/>
<path d="M208.3 73.1H209.9L210 73.3L209.9 73.4H208.3L208.2 73.3L208.3 73.1Z" fill="#22576F"/>
<path d="M211 73.1H240L240.1 73.3L240 73.4H211L210.9 73.3L211 73.1Z" fill="#22576F"/>
<path d="M144.9 47.3V21.5L145 21.4L145.2 21.5V47.3L145 47.4L144.9 47.3Z" fill="#22576F"/>
<path d="M123.3 47.3V23.6L123.5 23.5L123.6 23.6V47.3L123.5 47.4L123.3 47.3Z" fill="#22576F"/>
<path d="M123.3 22.6V21.5L123.5 21.4L123.6 21.5V22.6L123.5 22.7L123.3 22.6Z" fill="#22576F"/>
<path d="M116.1 35.7V34.4L116.3 34.3L116.4 34.4V35.7L116.3 35.9L116.1 35.7Z" fill="#22576F"/>
<path d="M116.1 33.1V23.6L116.3 23.5L116.4 23.6V33.1L116.3 33.2L116.1 33.1Z" fill="#22576F"/>
<path d="M116.1 22.6V21.5L116.3 21.4L116.4 21.5V22.6L116.3 22.7L116.1 22.6Z" fill="#22576F"/>
<path d="M112.9 21.5L116 32.9L118.4 33.6L118.5 33.7V33.8L114.5 35.1L116.7 35.7L116.8 35.8L119.8 47.3L119.7 47.4L119.6 47.3L116.5 35.9L114.1 35.2L114 35.1L114.1 35L118 33.7L115.8 33.1L115.7 33L112.7 21.5L112.8 21.4L112.9 21.5Z" fill="#22576F"/>
<path d="M137.7 47.3V23.6L137.8 23.5L138 23.6V47.3L137.8 47.4L137.7 47.3Z" fill="#22576F"/>
<path d="M137.7 22.6V21.5L137.8 21.4L138 21.5V22.6L137.8 22.7L137.7 22.6Z" fill="#22576F"/>
<path d="M130.5 47.3V23.6L130.6 23.5L130.8 23.6V47.3L130.6 47.4L130.5 47.3Z" fill="#22576F"/>
<path d="M130.5 22.6V21.5L130.6 21.4L130.8 21.5V22.6L130.6 22.7L130.5 22.6Z" fill="#22576F"/>
<path d="M74.4 55.8V55.7L93 66.4L93.5 65.5L75 54.8L74.5 55.8H74.4V55.7V55.8L74.3 55.7L74.9 54.6H75H75.1L93.8 65.4V65.5L93.2 66.6L93 66.7L74.3 55.9V55.7L74.4 55.8Z" fill="#22576F"/>
<path d="M93 66.5C94.9 63.2 95.9 59.5 95.9 55.8L96 55.7L96.1 55.8C96.1 59.6 95.1 63.4 93.2 66.7H93V66.5Z" fill="#22576F"/>
<path d="M23.7 130.6V130.5H24.8V113.5H23.8V130.6H23.7V130.5V130.6H23.6V113.3V113.2H23.7H25L25.1 113.3V130.6L25 130.7H23.7H23.6V130.6H23.7Z" fill="#22576F"/>
<path d="M57 130.6V130.5H58.1V113.5H57.1V130.6H57V130.5V130.6H56.9V113.3V113.2H57H58.2H58.3L58.4 113.3V130.6L58.3 130.7H58.2H57H56.9V130.6H57Z" fill="#22576F"/>
<path d="M23.7 130.5C28.4 130.5 32.7 128.6 35.8 125.5C38.9 122.4 40.8 118.1 40.8 113.4L40.9 113.3L41 113.4C41 123 33.2 130.8 23.6 130.8L23.5 130.7L23.7 130.5Z" fill="#22576F"/>
<path d="M41.1 113.3C41.1 118 43 122.3 46.1 125.4C49.2 128.5 53.5 130.4 58.2 130.4L58.3 130.5L58.2 130.6C48.6 130.6 40.8 122.8 40.8 113.2L40.9 113.1L41.1 113.3Z" fill="#22576F"/>
<path d="M208.3 105.3L208.2 105.2L229.3 93L228.8 92.1L207.8 104.2L208.4 105.2L208.3 105.3L208.2 105.2L208.3 105.3H208.2L207.5 104.3V104.2L207.6 104.1L228.8 91.8H228.9L229 91.9L229.6 93V93.1L229.5 93.2L208.4 105.4L208.2 105.3H208.3Z" fill="#22576F"/>
<path d="M229.4 93.1C225.1 85.6 217 80.9 208.3 80.9L208.2 80.8L208.3 80.7C217.1 80.7 225.2 85.4 229.6 93V93.2L229.4 93.1Z" fill="#22576F"/>
<path d="M194.1 174.7V174.6H195.5H195.6V174.7V177.9V178L195.5 178.1H194.1L194 178L193.9 177.9V174.7L194 174.6H194.1V174.7H194.2V177.8H195.4V174.8H194.1V174.7H194.2H194.1Z" fill="#22576F"/>
<path d="M206.3 174.7V174.6H207.7H207.8L207.9 174.7V177.9L207.8 178L207.7 178.1H206.3L206.2 178V177.9V174.7V174.6H206.3V174.7H206.4V177.8H207.6V174.8H206.3V174.7H206.4H206.3Z" fill="#22576F"/>
<path d="M195.5 177.1H206.3L206.4 177.2L206.3 177.3H195.5L195.4 177.2L195.5 177.1Z" fill="#22576F"/>
<path d="M195.5 176.4H206.3L206.4 176.5L206.3 176.6H195.5L195.4 176.5L195.5 176.4Z" fill="#22576F"/>
<path d="M194.8 170.5H207.7L207.9 170.6L207.7 170.8H194.8L194.7 170.6L194.8 170.5Z" fill="#22576F"/>
<path d="M20.5 191.6V191.5H22H22.1V191.6V194.8V194.9L22 195H20.5L20.4 194.9V194.8V191.6V191.5H20.5V191.6H20.7V194.7H21.8V191.7H20.5V191.6H20.7H20.5Z" fill="#22576F"/>
<path d="M78.1 191.6V191.5H79.5H79.6L79.7 191.6V194.8L79.6 194.9L79.5 195H78.1L78 194.9V194.8V191.6V191.5H78.1V191.6H78.2V194.7H79.4V191.7H78.1V191.6H78.2H78.1Z" fill="#22576F"/>
<path d="M37.1 191.6V191.5H38.5H38.6V191.6V194.8V194.9L38.5 195H37.1L37 194.9V194.8V191.6V191.5H37.1V191.6H37.2V194.7H38.4V191.7H37.1V191.6H37.2H37.1Z" fill="#22576F"/>
<path d="M22 194H37.1L37.2 194.1L37.1 194.3H22L21.8 194.1L22 194Z" fill="#22576F"/>
<path d="M22 193.3H37.1L37.2 193.4L37.1 193.5H22L21.8 193.4L22 193.3Z" fill="#22576F"/>
<path d="M38.5 194H78.1L78.2 194.1L78.1 194.3H38.5L38.4 194.1L38.5 194Z" fill="#22576F"/>
<path d="M38.5 193.3H78.1L78.2 193.4L78.1 193.5H38.5L38.4 193.4L38.5 193.3Z" fill="#22576F"/>
<path d="M21.2 187.4H78.8L79 187.6L78.8 187.7H21.2L21.1 187.6L21.2 187.4Z" fill="#22576F"/>
<path d="M152.8 93.2V93.3H128.5V108.8H152.7V93.2H152.8V93.3V93.2H152.9V109L152.8 109.1H128.4L128.3 109H128.2V93.2L128.3 93.1H128.4H152.8H152.9V93.2H152.8Z" fill="#22576F"/>
<path d="M173.7 65.8H173.6C173.6 62.6 176.2 59.9 179.5 59.9C182.7 59.9 185.4 62.5 185.4 65.8C185.4 69 182.8 71.7 179.5 71.7C176.3 71.7 173.6 69.1 173.6 65.8H173.7H173.8C173.8 67.4 174.4 68.8 175.4 69.8C176.4 70.8 177.8 71.4 179.4 71.4C181 71.4 182.4 70.8 183.4 69.8C184.4 68.8 185 67.4 185 65.8C185 64.2 184.4 62.8 183.4 61.8C182.4 60.8 181 60.2 179.4 60.2C177.8 60.2 176.4 60.8 175.4 61.8C174.4 62.8 173.8 64.2 173.8 65.8H173.7Z" fill="#22576F"/>
<path d="M178 65.8H177.9C177.9 64.9 178.6 64.2 179.5 64.2C180.4 64.2 181.1 64.9 181.1 65.8C181.1 66.7 180.4 67.4 179.5 67.4C178.6 67.4 177.9 66.7 177.9 65.8H178H178.1C178.1 66.5 178.7 67.2 179.5 67.2C180.2 67.2 180.9 66.6 180.9 65.8C180.9 65.1 180.3 64.4 179.5 64.4C178.8 64.4 178.1 65 178.1 65.8H178Z" fill="#22576F"/>
<path d="M185.2 66H180.9L180.8 65.8L180.9 65.7H185.2L185.3 65.8L185.2 66Z" fill="#22576F"/>
<path d="M178 66H173.7L173.6 65.8L173.7 65.7H178L178.1 65.8L178 66Z" fill="#22576F"/>
<path d="M179.3 71.6V67.3L179.5 67.2L179.6 67.3V71.6L179.5 71.7L179.3 71.6Z" fill="#22576F"/>
<path d="M179.3 64.4V60.1L179.5 60L179.6 60.1V64.4L179.5 64.5L179.3 64.4Z" fill="#22576F"/>
<path d="M172.3 58.6V58.5H186.7L186.8 58.6V78.8V78.9H186.7H172.3H172.2L172.1 78.8V58.6H172.2L172.3 58.5V58.6H172.4V78.7H186.5V58.8H172.3V58.6H172.4H172.3Z" fill="#22576F"/>
<path d="M172.4 173.3V173.5H132.2V181.9H172.3V173.3H172.4V173.5V173.3H172.5V182V182.1H172.4H132.1H132V182V173.3L132.1 173.2H172.4L172.5 173.3H172.4Z" fill="#22576F"/>
<path d="M18.7 140.1V139.9H36L36.1 140V140.1V186.1V186.2H36H18.7H18.6V186.1V140.1V140L18.7 139.9V140.1H18.9V186H35.9V140.2H18.7V140.1H18.9H18.7Z" fill="#22576F"/>
<path d="M23.3 154.5V154.3H24.4L24.5 154.4V154.5V171.7V171.8L24.4 171.9H23.3L23.2 171.8V171.7V154.5V154.4L23.3 154.3V154.5H23.5V171.6H24.3V154.6H23.3V154.5H23.5H23.3Z" fill="#22576F"/>
<path d="M29.6 155.8V155.7H34L34.1 155.8V170.2L34 170.3H29.6L29.5 170.2V155.8L29.6 155.7V155.8H29.8V170.1H33.8V155.9H29.6V155.8H29.8H29.6Z" fill="#22576F"/>
<path d="M23.3 160.5H21.8V165.7H23.3L23.5 165.8L23.3 165.9H21.7H21.6V165.8V160.4V160.3H21.7H23.3L23.5 160.4L23.3 160.5Z" fill="#22576F"/>
<path d="M42.5 156.9H36L35.9 156.8L36 156.7H42.5L42.6 156.8L42.5 156.9Z" fill="#22576F"/>
<path d="M24.4 165.7H25.9V160.5H24.4L24.3 160.4L24.4 160.3H26H26.1V160.4V165.8V165.9H26H24.4L24.3 165.8L24.4 165.7Z" fill="#22576F"/>
<path d="M42.5 169.5H36L35.9 169.4L36 169.3H42.5L42.6 169.4L42.5 169.5Z" fill="#22576F"/>
<path d="M42.5 156.1V155.9H43.6V156L43.7 156.1V170.1L43.6 170.2H42.5H42.4V170.1V156.1V156L42.5 155.9V156.1H42.6V170H43.4V156.2H42.5V156.1H42.6H42.5Z" fill="#22576F"/>
<path d="M30.9 152.2V152.3C30.7 152.4 30.6 152.5 30.6 152.8V152.9C30.7 153.1 30.8 153.2 31.1 153.2H31.2C31.7 153.1 32.3 153 32.9 152.9C33.1 152.9 33.2 152.7 33.2 152.6C33.2 152.5 33.1 152.3 33 152.3C32.7 152.2 32.4 152.1 32 152.1C31.7 152.1 31.3 152.2 31 152.3L30.9 152.2V152.1C31.3 152 31.6 151.9 32 151.9C32.4 151.9 32.7 152 33.1 152.1C33.3 152.2 33.5 152.4 33.5 152.6C33.5 152.9 33.3 153.2 32.9 153.2C32.4 153.2 31.8 153.3 31.3 153.5H31.1C30.8 153.5 30.5 153.3 30.4 153V152.8C30.4 152.5 30.6 152.2 30.9 152.1V152.2Z" fill="#22576F"/>
<path d="M170.8 57.3H110.4L110.2 57.2L110.4 57.1H170.8L170.9 57.2L170.8 57.3Z" fill="#22576F"/>
<path d="M110.2 80.2V57.2L110.4 57.1L110.5 57.2V80.2L110.4 80.4L110.2 80.2Z" fill="#22576F"/>
<path d="M170.7 80.2V57.2L170.8 57.1L170.9 57.2V80.2L170.8 80.4L170.7 80.2Z" fill="#22576F"/>
<path d="M167.8 80.2V60.8L167.9 60.7L168.1 60.8V80.2L167.9 80.4L167.8 80.2Z" fill="#22576F"/>
<path d="M170.8 60.2H110.4L110.2 60.1L110.4 60H170.8L170.9 60.1L170.8 60.2Z" fill="#22576F"/>
<path d="M170.8 80.4H110.4L110.2 80.2L110.4 80.1H170.8L170.9 80.2L170.8 80.4Z" fill="#22576F"/>
<path d="M149.6 80.2V61.5L149.7 61.4L149.8 61.5V80.2L149.7 80.4L149.6 80.2Z" fill="#22576F"/>
<path d="M131.3 80.2V61.5L131.5 61.4L131.6 61.5V80.2L131.5 80.4L131.3 80.2Z" fill="#22576F"/>
<path d="M167.9 61.6H113.2L113.1 61.5L113.2 61.4H167.9L168.1 61.5L167.9 61.6Z" fill="#22576F"/>
<path d="M110.4 60.7H113.2L113.4 60.8L113.2 60.9H110.4L110.2 60.8L110.4 60.7Z" fill="#22576F"/>
<path d="M170.8 60.9H167.9L167.8 60.8L167.9 60.7H170.8L170.9 60.8L170.8 60.9Z" fill="#22576F"/>
<path d="M113.1 80.2V60.8L113.2 60.7L113.4 60.8V80.2L113.2 80.4L113.1 80.2Z" fill="#22576F"/>
<path d="M149.7 134.8C151 139.6 155.3 142.7 160 142.7C160.9 142.7 161.8 142.6 162.8 142.3C167.6 141 170.7 136.7 170.7 132C170.7 131.1 170.6 130.2 170.3 129.2L170.4 129L170.6 129.1C170.9 130 171 131 171 131.9C171 136.7 167.8 141.1 162.9 142.4C162 142.7 161 142.8 160.1 142.8C155.3 142.8 150.9 139.6 149.6 134.7L149.7 134.5V134.8Z" fill="#22576F"/>
<path d="M152.5 134.1C153.4 137.6 156.6 139.9 160 139.9C160.7 139.9 161.3 139.8 162 139.6C165.5 138.7 167.8 135.5 167.8 132.1C167.8 131.4 167.7 130.8 167.5 130.1L167.6 129.9L167.8 130C168 130.7 168.1 131.4 168.1 132.1C168.1 135.7 165.7 138.9 162.1 139.9C161.4 140.1 160.7 140.2 160 140.2C156.4 140.2 153.2 137.8 152.2 134.2L152.3 134L152.5 134.1Z" fill="#22576F"/>
<path d="M152.2 134.1L149.5 123.7V123.6H149.7L152.5 134.1L152.4 134.2L152.2 134.1Z" fill="#22576F"/>
<path d="M165 119.6L167.8 130L167.7 130.1L167.5 130L164.7 119.6L164.8 119.5L165 119.6Z" fill="#22576F"/>
<path d="M149.5 134.9L146.7 124.5L146.8 124.3L146.9 124.4L149.7 134.8L149.6 135L149.5 134.9Z" fill="#22576F"/>
<path d="M146.8 124.3L167.6 118.7L167.8 118.8L167.7 119L146.8 124.5H146.7L146.8 124.3Z" fill="#22576F"/>
<path d="M167.8 118.8L170.6 129.2L170.5 129.4L170.3 129.3L167.5 118.9L167.6 118.7L167.8 118.8Z" fill="#22576F"/>
<path d="M152.1 132.7C153 136.2 156.2 138.5 159.6 138.5C160.3 138.5 160.9 138.4 161.6 138.2C165.1 137.3 167.4 134.1 167.4 130.7C167.4 130 167.3 129.4 167.1 128.7L167.2 128.5L167.4 128.6C167.6 129.3 167.7 130 167.7 130.7C167.7 134.3 165.3 137.5 161.7 138.5C161 138.7 160.3 138.8 159.6 138.8C156 138.8 152.8 136.4 151.8 132.8L151.9 132.6L152.1 132.7Z" fill="#22576F"/>
<path d="M167.4 179.1V179.2H137.1H137V179.1V178.4V178.3H137.1H167.4L167.5 178.4V179.1L167.4 179.2V179.1H167.2V178.5H137.3V179H167.4V179.1H167.2H167.4Z" fill="#22576F"/>
<path d="M147.8 178.4V175.5V175.4H147.9H156.6L156.7 175.5V178.4L156.6 178.5L156.4 178.4V175.6H148V178.4L147.9 178.5L147.8 178.4Z" fill="#22576F"/>
<path d="M156.7 179.1V180.5L156.6 180.6V180.7H147.9L147.8 180.6V180.5V179.1L147.9 179L148 179.1V180.4H156.4V179.1L156.6 179L156.7 179.1Z" fill="#22576F"/>
<path d="M82.4 179.1C84.5 181.2 87.2 182.2 89.9 182.2C92.6 182.2 95.4 181.2 97.4 179.1C99.5 177 100.5 174.3 100.5 171.6C100.5 168.9 99.5 166.1 97.4 164.1V163.9H97.6C99.7 166 100.8 168.8 100.8 171.6C100.8 174.4 99.7 177.2 97.6 179.3C95.5 181.4 92.7 182.5 89.9 182.5C87.1 182.5 84.3 181.4 82.2 179.3V179.1H82.4Z" fill="#22576F"/>
<path d="M84.4 177.1C85.9 178.6 87.9 179.4 89.9 179.4C91.9 179.4 93.9 178.6 95.4 177.1C96.9 175.6 97.7 173.6 97.7 171.6C97.7 169.6 96.9 167.6 95.4 166.1V165.9H95.6C97.2 167.5 98 169.5 98 171.6C98 173.7 97.2 175.7 95.6 177.3C94 178.9 92 179.7 89.9 179.7C87.8 179.7 85.8 178.9 84.2 177.3V177.1H84.4Z" fill="#22576F"/>
<path d="M95.4 166.1L87.8 158.4V158.2H88L95.6 165.9V166.1H95.4Z" fill="#22576F"/>
<path d="M76.8 169.4L84.4 177.1V177.3H84.2L76.6 169.6V169.4H76.8Z" fill="#22576F"/>
<path d="M97.5 164L89.8 156.4V156.2H90L97.6 163.8V164H97.5Z" fill="#22576F"/>
<path d="M90 156.4L74.7 171.7H74.5V171.5L89.8 156.2H90V156.4Z" fill="#22576F"/>
<path d="M74.7 171.5L82.4 179.1V179.3H82.2L74.5 171.7V171.5H74.7Z" fill="#22576F"/>
<path d="M83.4 176.1C84.9 177.6 86.9 178.4 88.9 178.4C90.9 178.4 92.9 177.6 94.4 176.1C95.9 174.6 96.7 172.6 96.7 170.6C96.7 168.6 95.9 166.6 94.4 165.1V164.9H94.6C96.2 166.5 97 168.5 97 170.6C97 172.7 96.2 174.7 94.6 176.3C93 177.9 91 178.7 88.9 178.7C86.8 178.7 84.8 177.9 83.2 176.3V176.1H83.4Z" fill="#22576F"/>
<path d="M110.8 129.3C110.6 130.2 110.4 131.2 110.4 132.1C110.4 136.8 113.5 141.1 118.3 142.4C119.2 142.6 120.2 142.8 121.1 142.8C125.8 142.8 130.1 139.7 131.4 134.9L131.6 134.8L131.7 135C130.4 139.9 126 143.1 121.2 143.1C120.3 143.1 119.3 143 118.4 142.7C113.5 141.4 110.3 137 110.3 132.2C110.3 131.3 110.4 130.3 110.7 129.4L110.9 129.3H110.8Z" fill="#22576F"/>
<path d="M113.6 130C113.4 130.7 113.3 131.4 113.3 132C113.3 135.4 115.6 138.6 119.1 139.5C119.8 139.7 120.5 139.8 121.1 139.8C124.5 139.8 127.7 137.5 128.6 134L128.8 133.9L128.9 134.1C127.9 137.7 124.7 140.1 121.1 140.1C120.4 140.1 119.7 140 119 139.8C115.4 138.8 113 135.6 113 132C113 131.3 113.1 130.6 113.3 129.9L113.5 129.8L113.6 130Z" fill="#22576F"/>
<path d="M128.7 134.1L131.5 123.6H131.6L131.7 123.7L128.9 134.1L128.8 134.2L128.7 134.1Z" fill="#22576F"/>
<path d="M116.4 119.6L113.6 130L113.5 130.1L113.4 130L116.2 119.6L116.3 119.5L116.4 119.6Z" fill="#22576F"/>
<path d="M131.5 134.8L134.3 124.4L134.4 124.3L134.5 124.5L131.7 134.9L131.5 135V134.8Z" fill="#22576F"/>
<path d="M134.3 124.5L113.5 119L113.4 118.8L113.6 118.7L134.4 124.3L134.5 124.5H134.3Z" fill="#22576F"/>
<path d="M113.6 118.9L110.8 129.3L110.7 129.4L110.6 129.2L113.4 118.8L113.6 118.7V118.9Z" fill="#22576F"/>
<path d="M114 128.7C113.8 129.4 113.7 130.1 113.7 130.7C113.7 134.1 116 137.3 119.5 138.2C120.2 138.4 120.9 138.5 121.5 138.5C124.9 138.5 128.1 136.2 129 132.7L129.2 132.6L129.3 132.8C128.3 136.4 125.1 138.8 121.5 138.8C120.8 138.8 120.1 138.7 119.4 138.5C115.8 137.5 113.4 134.3 113.4 130.7C113.4 130 113.5 129.3 113.7 128.6L113.9 128.5L114 128.7Z" fill="#22576F"/>
<path d="M26.2 77H22.8L22.7 76.8L22.8 76.7H26.2L26.4 76.8L26.2 77Z" fill="#22576F"/>
<path d="M26.2 76.7L26.3 76.6L26.4 76.5L26.5 76.6C26.5 76.8 26.3 77 26.1 77L26 76.9L26.2 76.7Z" fill="#22576F"/>
<path d="M26.4 76.2L26.3 76.1L26.2 76L26.3 75.9C26.5 75.9 26.7 76.1 26.7 76.3L26.6 76.4L26.4 76.2Z" fill="#22576F"/>
<path d="M26.4 76.6V76.2L26.5 76L26.6 76.2V76.6L26.5 76.7L26.4 76.6Z" fill="#22576F"/>
<path d="M22.8 75.9L23 76L23.1 76.1L23 76.2C22.9 76.2 22.7 76.1 22.6 76V75.8L22.8 75.9Z" fill="#22576F"/>
<path d="M23 76.7L22.8 76.8H22.6V76.6C22.7 76.5 22.8 76.4 23 76.4L23.1 76.5L23 76.7Z" fill="#22576F"/>
<path d="M24.6 76.7H23L22.9 76.6L23 76.5H24.6L24.8 76.6L24.6 76.7Z" fill="#22576F"/>
<path d="M23 76H24.6L24.8 76.1L24.6 76.2H23L22.9 76.1L23 76Z" fill="#22576F"/>
<path d="M24.7 76.3L24.6 76.2V76H24.7L24.9 76.2V76.3H24.7Z" fill="#22576F"/>
<path d="M24.7 76.5V76.3L24.8 76.1L24.9 76.3V76.5L24.8 76.6L24.7 76.5Z" fill="#22576F"/>
<path d="M22.6 75.7H22.8L22.9 75.8L22.8 75.9C22.7 75.9 22.6 75.9 22.5 75.8L22.4 75.6L22.6 75.7Z" fill="#22576F"/>
<path d="M22.8 77H22.6L22.4 76.9L22.5 76.7C22.6 76.7 22.7 76.6 22.8 76.6L22.9 76.7L22.8 77Z" fill="#22576F"/>
<path d="M22.8 75.8H26.2L26.4 75.9L26.2 76H22.8L22.7 75.9L22.8 75.8Z" fill="#22576F"/>
<path d="M22.7 76C22.6 75.9 22.4 75.8 22.3 75.8C22.2 75.8 22 75.8 21.9 75.9C21.8 76 21.7 76.2 21.7 76.3C21.7 76.4 21.7 76.6 21.8 76.7C21.9 76.8 22.1 76.9 22.2 76.9C22.3 76.9 22.5 76.9 22.6 76.8H22.8V77C22.6 77.1 22.4 77.2 22.3 77.2C22.1 77.2 21.9 77.1 21.7 76.9C21.6 76.7 21.5 76.5 21.5 76.4C21.5 76.2 21.6 76 21.8 75.8C22 75.7 22.2 75.6 22.3 75.6C22.5 75.6 22.7 75.7 22.9 75.9V76.1L22.7 76Z" fill="#22576F"/>
<path d="M22.7 76.1C22.6 76 22.5 76 22.4 76C22.3 76 22.2 76 22.1 76.1C22 76.2 22 76.3 22 76.4C22 76.5 22 76.6 22.1 76.7C22.2 76.8 22.3 76.8 22.4 76.8C22.5 76.8 22.6 76.8 22.7 76.7H22.9V76.9C22.8 77 22.6 77.1 22.4 77.1C22.2 77.1 22 77 21.9 76.9C21.8 76.8 21.7 76.6 21.7 76.4C21.7 76.2 21.8 76 21.9 75.9C22 75.8 22.2 75.7 22.4 75.7C22.6 75.7 22.8 75.8 22.9 75.9V76.1H22.7Z" fill="#22576F"/>
<path d="M24.6 76.5L24.7 76.4H24.9V76.6L24.7 76.7H24.6V76.5Z" fill="#22576F"/>
<path d="M33.1 69H34.5L34.6 69.2L34.5 69.3H33.1L33 69.2L33.1 69Z" fill="#22576F"/>
<path d="M34.5 83.7H33.1L33 83.6L33.1 83.4H34.5L34.6 83.6L34.5 83.7Z" fill="#22576F"/>
<path d="M33.9 81.6C34.1 81.6 34.3 81.4 34.3 81.2L34.4 81.1L34.5 81.2C34.5 81.6 34.2 81.8 33.8 81.8L33.7 81.7L33.9 81.6Z" fill="#22576F"/>
<path d="M26.7 80.4C29 81.1 31.5 81.5 33.9 81.6L34 81.7L33.9 81.8C31.4 81.7 29 81.3 26.6 80.6L26.5 80.4H26.7Z" fill="#22576F"/>
<path d="M26.7 72.3C25.1 72.8 23.9 74.2 23.7 75.9L23.6 76L23.5 75.9C23.7 74.1 24.9 72.6 26.6 72.1L26.8 72.2L26.7 72.3Z" fill="#22576F"/>
<path d="M23.7 76.8C23.9 78.5 25 79.9 26.7 80.4L26.8 80.6L26.6 80.7C24.9 80.2 23.6 78.7 23.5 76.9L23.6 76.8H23.7Z" fill="#22576F"/>
<path d="M33.9 71.1C31.4 71.2 29 71.6 26.7 72.3L26.5 72.2L26.6 72C29 71.3 31.4 70.9 33.9 70.8L34 71L33.9 71.1Z" fill="#22576F"/>
<path d="M34.3 71.5C34.3 71.3 34.1 71.1 33.9 71.1L33.8 71L33.9 70.9C34.3 70.9 34.6 71.2 34.6 71.6L34.5 71.7L34.3 71.5Z" fill="#22576F"/>
<path d="M34.6 71.5V81.2L34.5 81.3L34.3 81.2V71.5L34.5 71.4L34.6 71.5Z" fill="#22576F"/>
<path d="M17.3 83.6V83.5H34.5C35.6 83.5 36.5 82.6 36.5 81.5V71.4C36.5 70.3 35.6 69.4 34.5 69.4H17.4V83.7H17.3V83.6H17.2V69.2V69.1H17.3H34.5C35.8 69.1 36.8 70.1 36.8 71.4V81.5C36.8 82.8 35.8 83.8 34.5 83.8H17.3V83.6Z" fill="#22576F"/>
<path d="M24.9 75.8C24.7 75.8 24.6 75.9 24.4 76H24.2V75.8C24.4 75.6 24.6 75.5 24.8 75.5L24.9 75.6V75.8Z" fill="#22576F"/>
<path d="M24.5 76.7C24.6 76.8 24.8 76.9 25 76.9L25.1 77L25 77.1C24.8 77.1 24.5 77 24.4 76.8V76.6L24.5 76.7Z" fill="#22576F"/>
<path d="M24.9 77C25.1 77 25.2 76.9 25.4 76.8H25.6V77C25.4 77.2 25.2 77.3 25 77.3L24.9 77.2V77Z" fill="#22576F"/>
<path d="M25.4 76C25.3 75.9 25.1 75.8 24.9 75.8L24.8 75.7L24.9 75.6C25.1 75.6 25.4 75.7 25.5 75.9V76.1L25.4 76Z" fill="#22576F"/>
<path d="M33.4 81.2C33.5 81.2 33.6 81.1 33.6 81L33.7 80.9L33.8 81C33.8 81.3 33.6 81.5 33.3 81.5L33.2 81.4L33.4 81.2Z" fill="#22576F"/>
<path d="M27.8 80.7C29.3 81 30.8 81.2 32.3 81.2C32.7 81.2 33 81.2 33.4 81.2L33.5 81.3L33.4 81.4C33 81.4 32.7 81.4 32.3 81.4C30.8 81.4 29.3 81.2 27.8 80.9L27.7 80.8L27.8 80.7Z" fill="#22576F"/>
<path d="M26.7 72.3C26.6 72.3 26.5 72.4 26.3 72.4L26.1 72.3L26.2 72.1C26.3 72.1 26.5 72 26.6 72L26.8 72.1L26.7 72.3Z" fill="#22576F"/>
<path d="M26.4 80.3C26.5 80.3 26.6 80.4 26.8 80.4L26.9 80.6L26.7 80.7C26.6 80.7 26.4 80.6 26.3 80.6L26.2 80.4L26.4 80.3Z" fill="#22576F"/>
<path d="M33.4 71.6C33 71.6 32.7 71.6 32.3 71.6C30.8 71.6 29.3 71.8 27.8 72.1L27.7 72L27.8 71.9C29.3 71.6 30.8 71.4 32.3 71.4C32.7 71.4 33 71.4 33.4 71.4L33.5 71.5L33.4 71.6Z" fill="#22576F"/>
<path d="M33.6 71.8C33.6 71.7 33.5 71.6 33.4 71.6L33.3 71.5L33.4 71.4C33.7 71.4 33.9 71.6 33.9 71.9L33.8 72L33.6 71.8Z" fill="#22576F"/>
<path d="M33.6 80.9V71.8L33.7 71.7L33.9 71.8V80.9L33.7 81.1L33.6 80.9Z" fill="#22576F"/>
<path d="M28 39.7C28.9 40 29.9 40.1 30.8 40.1L30.9 40.2L30.8 40.3C29.8 40.3 28.9 40.2 27.9 39.9L27.8 39.7H28Z" fill="#22576F"/>
<path d="M25.8 38.7C26.5 39.2 27.2 39.5 28 39.8L28.1 40L27.9 40.1C27.1 39.9 26.3 39.5 25.6 39V38.8L25.8 38.7Z" fill="#22576F"/>
<path d="M25.1 38.1C25.3 38.3 25.5 38.5 25.8 38.7V38.9H25.6C25.4 38.7 25.1 38.5 24.9 38.3V38.1H25.1Z" fill="#22576F"/>
<path d="M30.8 40.1C31.8 40.1 32.7 40 33.6 39.7C34.4 39.5 35.1 39.1 35.8 38.6C36.4 38.1 37 37.5 37.4 36.9C37.7 36.3 37.9 35.7 37.9 35.1C37.9 34.5 37.7 33.8 37.4 33.3C37 32.6 36.5 32 35.8 31.6C35.1 31.1 34.4 30.8 33.6 30.5C32.7 30.2 31.7 30.1 30.8 30.1C29.8 30.1 28.9 30.2 28 30.5C27.2 30.7 26.5 31.1 25.8 31.6C25.6 31.8 25.3 32 25.1 32.2L25 32H25.1V38.2L25 38.3L24.9 38.2V32V31.9C25.1 31.7 25.3 31.5 25.6 31.3C26.3 30.8 27.1 30.4 27.9 30.2C28.8 29.9 29.8 29.8 30.8 29.8C31.8 29.8 32.7 29.9 33.7 30.2C34.5 30.4 35.3 30.8 36 31.3C36.7 31.8 37.2 32.4 37.6 33.1C37.9 33.7 38.1 34.4 38.1 35C38.1 35.7 37.9 36.4 37.6 36.9C37.2 37.6 36.6 38.2 36 38.7C35.3 39.2 34.5 39.6 33.7 39.8C32.8 40.1 31.8 40.2 30.8 40.2L30.7 40.1H30.8Z" fill="#22576F"/>
<path d="M21.8 39C24.1 39.1 26.4 39.4 28.7 39.9L28.8 40L28.7 40.1C26.4 39.7 24.2 39.4 21.9 39.2L21.8 39.1V39Z" fill="#22576F"/>
<path d="M22.6 33.1H22.5C22.4 32.6 22.2 32.1 22 31.6C21.7 31.1 21.4 30.6 20.9 30.3C20.8 30.2 20.6 30.2 20.5 30.2H20.4L18.3 30.6L18.2 30.8V39.5L18.3 39.7L20.4 40.1H20.5C20.7 40.1 20.8 40.1 20.9 40C21.4 39.7 21.8 39.2 22 38.7C22.2 38.2 22.4 37.7 22.5 37.2C22.6 36.5 22.7 35.9 22.7 35.2C22.7 34.5 22.6 33.9 22.5 33.2L22.6 33.1H22.7C22.8 33.8 22.9 34.4 22.9 35.1C22.9 35.8 22.8 36.5 22.7 37.1C22.6 37.6 22.4 38.1 22.2 38.6C21.9 39.2 21.5 39.7 21 40C20.8 40.1 20.6 40.2 20.4 40.2H20.2L18.1 39.8C17.9 39.8 17.8 39.6 17.8 39.4V30.7C17.8 30.5 17.9 30.3 18.1 30.3L20.2 29.9H20.4C20.6 29.9 20.8 30 21 30.1C21.5 30.5 21.9 31 22.2 31.5C22.4 32 22.6 32.5 22.7 33L22.6 33.1Z" fill="#22576F"/>
<path d="M21.7 30.9C24 30.8 26.3 30.5 28.5 30L28.6 30.1L28.5 30.2C26.2 30.6 23.9 30.9 21.6 31.1L21.5 31L21.7 30.9Z" fill="#22576F"/>
<path d="M20 35.1H19.9C19.9 34.7 20.2 34.4 20.6 34.4C21 34.4 21.3 34.7 21.3 35.1C21.3 35.5 21 35.8 20.6 35.8C20.2 35.8 19.9 35.5 19.9 35.1H20H20.1C20.1 35.3 20.3 35.5 20.5 35.5C20.7 35.5 20.9 35.3 20.9 35.1C20.9 34.9 20.7 34.7 20.5 34.7C20.3 34.7 20.1 34.9 20.1 35.1H20Z" fill="#22576F"/>
<path d="M188.3 270.4H188.2V263.6L7.1 239.5L7 239.4V233.5L7.1 233.4L194.1 258.3L194.2 258.5V270.4V270.5H194.1H188.3H188.2V270.4H188.3V270.3H193.9V258.6L7.3 233.7V239.2L188.3 263.4L188.4 263.5V270.4H188.3V270.3V270.4Z" fill="#22576F"/>
<path d="M248 270.4V270.5H242.2H242.1V270.4V233.8V233.7H242.2L248 234.4L248.1 234.6V270.4V270.5H248V270.4H247.8V234.7L242.3 233.9V270.3H248V270.4H247.8H248Z" fill="#22576F"/>
<path d="M240 118.5H208.3L208.2 118.3L208.3 118.2H240L240.1 118.3L240 118.5Z" fill="#22576F"/>
<path d="M17.3 102.7H66.5L66.6 102.8L66.5 102.9H17.3L17.2 102.8L17.3 102.7Z" fill="#22576F"/>
<path d="M20.5 224V224.1H7.1H7V224V12.8V12.7L7.1 12.6H210.4V12.7L210.5 12.8V14.3H211.8H211.9V14.4V18V18.1H211.8H210.5V21.5L210.4 21.6H186.2V23V23.1H186.1H182.8H182.7V23V21.6H72.7V47.2H74.4H74.5V47.3V55.8V55.9H74.4H69.9V58.6V58.7L69.8 58.8H66.5L66.4 58.7L66.3 58.6V23.3H17.4V89.3H66.3V83.1L66.4 83H66.5H69.8H69.9V83.1V113.3V113.4L69.8 113.5H58.2V113.4L58.1 113.3V110L58.2 109.9H66.3V92.9H17.4V109.9H23.7H23.8V110V113.3V113.4L23.7 113.5H17.4V187.4H21.3V187.5L21.4 187.6V191.6L21.3 191.7H20.7V224L20.6 224.1H20.5V224H20.4V191.6V191.5H20.5H21.1V187.7H17.3L17.2 187.6V113.3V113.2H17.3H23.6V110.1H17.3H17.2V110V92.7V92.6H17.3H66.5L66.6 92.7V110L66.5 110.1H58.4V113.2H69.7V83.2H66.6V89.4L66.5 89.5H17.3H17.2V89.4V23.2V23.1H17.3H66.5L66.6 23.2V58.5H69.7V55.8V55.7L69.8 55.6H74.2V47.4H72.6H72.5L72.4 47.3V21.5L72.5 21.4H72.6H182.8H182.9V21.5V22.9H186V21.5V21.4H186.1H210.2V18L210.3 17.9H210.4H211.7V14.5H210.4H210.3L210.2 14.4V12.9H7.2V223.9H20.5V224H20.4H20.5Z" fill="#22576F"/>
<path d="M78.8 187.6H79V191.5H79.5H79.6L79.7 191.6V194.7H193.9V174.7L194 174.6H194.1H194.7V170.8H186.9V182V182.1H186.8H117.8V187.6L117.7 187.7H78.8V187.6H79H78.8V187.4H117.6V182V181.9H117.7H186.7V170.6L186.8 170.5H194.8L194.9 170.6V174.7V174.8H194.8H194.2V194.8V194.9L194.1 195H79.5V194.9L79.4 194.8V191.7H78.8H78.7V191.6V187.6L78.8 187.4V187.6Z" fill="#22576F"/>
<path d="M212.1 170.6V170.8H207.9V179H211.9V170.6H212.1V170.8V170.6H212.2V179.1V179.2H212.1H207.7L207.6 179.1V170.6H207.7V170.5H212.1L212.2 170.6H212.1Z" fill="#22576F"/>
<path d="M238 170.6H238.1V179H242.2H242.3V179.1V223.9H248.6V12.9H237.8V14.4V14.5H237.7H236.4V17.9H237.7H237.8V18V21.4H240L240.1 21.5V107.8L240 107.9H237.2V111H240L240.1 111.1V128.4L240 128.5H208.3H208.2V128.4V111.1V111H208.3H211V107.9H208.3H208.2V107.8V105.4H202.3V134.4H240L240.1 134.5V170.6L240 170.7V170.8H238V170.6H238.1H238V170.5H239.8V134.6H202.2H202.1L202 134.5V105.3L202.1 105.2H202.2H208.3H208.4V105.3V107.7H211.2H211.3V107.8V111.1V111.2L211.2 111.3H208.4V128.3H239.8V111.3H237.1L237 111.2V111.1V107.8V107.7H237.1H239.8V21.6H237.7H237.6V21.5V18.1H236.3H236.2L236.1 18V14.4L236.2 14.3H236.3H237.6V12.8V12.7L237.7 12.6H248.8L248.9 12.7V12.8V224V224.1H248.8H242.2H242.1V224V179.2H238H237.9V179.1V170.6L238 170.5V170.6Z" fill="#22576F"/>
<path d="M96 47.3H96.1V55.6H202.2L202.3 55.7V55.8V80.7H208.2V47.4H186.1H186V47.3V46.2H182.9V47.3V47.4H182.8H96V47.3H96.1H96V47.2H182.7V46L182.8 45.9H186.1L186.2 46V47.2H208.3H208.4V47.3V80.8V80.9H208.3H202.2H202.1L202 80.8V55.9H96H95.9L95.8 55.8V47.3L95.9 47.2H96V47.3Z" fill="#22576F"/>
<path d="M224.1 71.9C224.8 71.9 225.4 72.5 225.4 73.2C225.4 73.9 224.8 74.5 224.1 74.5C223.4 74.5 222.8 73.9 222.8 73.2C222.8 72.5 223.4 71.9 224.1 71.9L224.2 72V73.2V73.3H224.1H224V73.2V67.3L224.1 67.2L224.2 67.3L225.3 70.4V70.5L225.2 70.6H224.1L224 70.5L224.1 70.4H225L224.2 68.2V73.4V73.5H224.1H224V73.4V72H224.1V72.1C223.5 72.1 223 72.6 223 73.2C223 73.8 223.5 74.3 224.1 74.3C224.7 74.3 225.2 73.8 225.2 73.2C225.2 72.6 224.7 72.1 224.1 72.1L224 72L224.1 71.9Z" fill="#22576F"/>
<path d="M143.5 34.4C143.5 33.5 144.2 32.8 145.1 32.8C146 32.8 146.7 33.5 146.7 34.4C146.7 35.3 146 36 145.1 36C144.2 36 143.5 35.3 143.5 34.4L143.6 34.3H145H145.1V34.4V34.5H145H123.4L123.3 34.4L123.4 34.3L127 33H127.1L127.2 33.1V34.4L127.1 34.5L127 34.4V33.3L124.2 34.3H145.1H145.2V34.4V34.5H145.1H143.7V34.4H143.8C143.8 35.1 144.4 35.7 145.1 35.7C145.8 35.7 146.4 35.1 146.4 34.4C146.4 33.7 145.8 33.1 145.1 33.1C144.4 33.1 143.8 33.7 143.8 34.4L143.7 34.5L143.5 34.4Z" fill="#22576F"/>
<path d="M238 179.2H212.1L211.9 179.1L212.1 179H238L238.1 179.1L238 179.2Z" fill="#22576F"/>
<path d="M238 170.8H212.1L211.9 170.6L212.1 170.5H238L238.1 170.6L238 170.8Z" fill="#22576F"/>
<path d="M236.3 18.1H211.8L211.7 18L211.8 17.9H236.3L236.4 18L236.3 18.1Z" fill="#22576F"/>
<path d="M236.3 14.5H211.8L211.7 14.4L211.8 14.3H236.3L236.4 14.4L236.3 14.5Z" fill="#22576F"/>
<path d="M195.5 268.7H218.5L218.7 268.8L218.5 269H195.5L195.4 268.8L195.5 268.7Z" fill="#22576F"/>
<path d="M195.5 270.2H218.5L218.7 270.3L218.5 270.4H195.5L195.4 270.3L195.5 270.2Z" fill="#22576F"/>
<path d="M119.2 221.5H118.4V222.6H118V219.5H119.2C119.9 219.5 120.4 219.9 120.4 220.5C120.4 221.2 119.8 221.5 119.2 221.5ZM119.2 219.8H118.4V221.2H119.2C119.7 221.2 120.1 220.9 120.1 220.5C120 220 119.7 219.8 119.2 219.8Z" fill="#22576F"/>
<path d="M123.9 222.6H123.5L123.1 221.8H121.4L121 222.6H120.6L122 219.5H122.3L123.9 222.6ZM122.3 219.9L121.6 221.5H123L122.3 219.9Z" fill="#22576F"/>
<path d="M125.6 222.6H125.2V219.8H124.2V219.5H126.7V219.8H125.7V222.6H125.6Z" fill="#22576F"/>
<path d="M127.9 219.5V222.6H127.5V219.5H127.9Z" fill="#22576F"/>
<path d="M130.4 222.7C129.5 222.7 128.8 222 128.8 221.1C128.8 220.2 129.4 219.5 130.4 219.5C131.3 219.5 132 220.2 132 221.1C132 222 131.4 222.7 130.4 222.7ZM130.4 219.8C129.7 219.8 129.2 220.4 129.2 221.1C129.2 221.8 129.7 222.4 130.4 222.4C131.1 222.4 131.6 221.8 131.6 221.1C131.6 220.4 131.2 219.8 130.4 219.8Z" fill="#22576F"/>
<path d="M135 99.6H135.3L136.2 102.2L137.1 99.6H137.5L136.4 102.7H136L135.1 100.2L134.2 102.7H134L132.9 99.6H133.3L134.2 102.2L135 99.6Z" fill="#22576F"/>
<path d="M139.6 102.8C138.7 102.8 138 102.1 138 101.2C138 100.3 138.6 99.6 139.6 99.6C140.5 99.6 141.2 100.3 141.2 101.2C141.2 102.1 140.6 102.8 139.6 102.8ZM139.6 99.9C138.9 99.9 138.4 100.5 138.4 101.2C138.4 101.9 138.9 102.5 139.6 102.5C140.3 102.5 140.8 101.9 140.8 101.2C140.8 100.5 140.3 99.9 139.6 99.9Z" fill="#22576F"/>
<path d="M144.4 102.8L143.5 101.6H142.6V102.8H142.2V99.7H143.5C144.2 99.7 144.6 100.1 144.6 100.6C144.6 101.1 144.2 101.4 143.8 101.5L144.8 102.8H144.4ZM143.5 100H142.5V101.3H143.5C144 101.3 144.3 101.1 144.3 100.7C144.3 100.2 144 100 143.5 100Z" fill="#22576F"/>
<path d="M148.4 102.8H148L146.8 101.3L146.1 102V102.8H145.7V99.7H146.1V101.6L147.9 99.7H148.4L147 101L148.4 102.8Z" fill="#22576F"/>
<path d="M31.7 58.3H30.9V59.4H30.5V56.3H31.7C32.4 56.3 32.9 56.7 32.9 57.3C32.9 58 32.3 58.3 31.7 58.3ZM31.7 56.6H30.9V58H31.7C32.2 58 32.6 57.7 32.6 57.3C32.5 56.9 32.2 56.6 31.7 56.6Z" fill="#22576F"/>
<path d="M35.2 59.5C34.3 59.5 33.6 58.8 33.6 57.9C33.6 57 34.2 56.3 35.2 56.3C36.1 56.3 36.8 57 36.8 57.9C36.8 58.8 36.2 59.5 35.2 59.5ZM35.2 56.6C34.5 56.6 34 57.2 34 57.9C34 58.6 34.5 59.2 35.2 59.2C35.9 59.2 36.4 58.6 36.4 57.9C36.4 57.2 36 56.6 35.2 56.6Z" fill="#22576F"/>
<path d="M39.6 56.3H39.9L40.8 58.9L41.7 56.3H42L40.9 59.4H40.6L39.7 56.9L38.8 59.4H38.5L37.4 56.3H37.8L38.7 58.9L39.6 56.3Z" fill="#22576F"/>
<path d="M43.9 59.4H42.8V56.3H43.9C44.9 56.3 45.6 57 45.6 57.9C45.6 58.8 44.9 59.4 43.9 59.4ZM43.9 56.6H43.2V59.1H43.9C44.7 59.1 45.2 58.6 45.2 57.9C45.2 57.2 44.7 56.6 43.9 56.6Z" fill="#22576F"/>
<path d="M48.8 56.6H46.9V57.7H48.6V58H46.9V59.1H48.8V59.4H46.5V56.3H48.8V56.6Z" fill="#22576F"/>
<path d="M51.9 59.4L51 58.2H50.1V59.4H49.7V56.3H51C51.7 56.3 52.1 56.7 52.1 57.2C52.1 57.7 51.7 58 51.3 58.1L52.3 59.4H51.9ZM51.1 56.6H50.1V57.9H51.1C51.6 57.9 51.9 57.7 51.9 57.3C51.9 56.9 51.6 56.6 51.1 56.6Z" fill="#22576F"/>
<path d="M83.3 34.8C84 35 84.3 35.2 84.3 35.7C84.3 36.2 83.9 36.6 83.2 36.6C82.7 36.6 82.3 36.4 81.9 36.1L82.1 35.8C82.4 36.1 82.7 36.2 83.2 36.2C83.6 36.2 83.9 36 83.9 35.7C83.9 35.4 83.7 35.2 83.1 35.1C82.4 34.9 82.1 34.7 82.1 34.2C82.1 33.7 82.5 33.3 83.1 33.3C83.6 33.3 83.9 33.4 84.2 33.7L84 34C83.7 33.8 83.4 33.7 83.1 33.7C82.7 33.7 82.4 33.9 82.4 34.2C82.4 34.5 82.6 34.7 83.3 34.8Z" fill="#22576F"/>
<path d="M86.4 36.6H86V33.8H85V33.5H87.5V33.8H86.5V36.6H86.4Z" fill="#22576F"/>
<path d="M89.6 36.6C88.7 36.6 88 35.9 88 35C88 34.1 88.6 33.4 89.6 33.4C90.5 33.4 91.2 34.1 91.2 35C91.2 35.9 90.6 36.6 89.6 36.6ZM89.6 33.7C88.9 33.7 88.4 34.3 88.4 35C88.4 35.7 88.9 36.3 89.6 36.3C90.3 36.3 90.8 35.7 90.8 35C90.8 34.3 90.3 33.7 89.6 33.7Z" fill="#22576F"/>
<path d="M94.4 36.6L93.5 35.4H92.6V36.6H92.2V33.5H93.5C94.2 33.5 94.6 33.9 94.6 34.4C94.6 34.9 94.2 35.2 93.8 35.3L94.8 36.6H94.4ZM93.5 33.8H92.5V35.1H93.5C94 35.1 94.3 34.9 94.3 34.5C94.3 34 94 33.8 93.5 33.8Z" fill="#22576F"/>
<path d="M98.7 36.6H98.3L97.9 35.8H96.2L95.8 36.6H95.4L96.8 33.5H97.1L98.7 36.6ZM97.1 33.8L96.4 35.4H97.8L97.1 33.8Z" fill="#22576F"/>
<path d="M100.8 36.6C99.8 36.6 99.2 35.9 99.2 35C99.2 34.1 99.8 33.4 100.8 33.4C101.3 33.4 101.7 33.6 102 33.8L101.8 34.1C101.6 33.9 101.3 33.7 100.9 33.7C100.2 33.7 99.7 34.3 99.7 35C99.7 35.7 100.2 36.3 100.9 36.3C101.3 36.3 101.6 36.2 101.8 36V35.2H100.9V34.9H102.2V36.1C101.8 36.4 101.3 36.6 100.8 36.6Z" fill="#22576F"/>
<path d="M105.4 33.8H103.5V34.9H105.2V35.2H103.5V36.3H105.4V36.6H103.1V33.5H105.4V33.8Z" fill="#22576F"/>
<path d="M220.3 184.8H218.4V185.9H220.1V186.2H218.4V187.3H220.3V187.6H218V184.5H220.3V184.8Z" fill="#22576F"/>
<path d="M223.5 184.4H223.8V187.5H223.5L221.5 184.9V187.5H221.2V184.4H221.5L223.5 186.9V184.4Z" fill="#22576F"/>
<path d="M226.1 187.6H225.7V184.8H224.7V184.5H227.2V184.8H226.2V187.6H226.1Z" fill="#22576F"/>
<path d="M230.2 187.6L229.3 186.4H228.4V187.6H228V184.5H229.3C230 184.5 230.4 184.9 230.4 185.4C230.4 185.9 230 186.2 229.6 186.3L230.6 187.6H230.2ZM229.3 184.8H228.3V186.1H229.3C229.8 186.1 230.1 185.9 230.1 185.5C230.1 185 229.8 184.8 229.3 184.8Z" fill="#22576F"/>
<path d="M232.7 187.6H232.3V186.4L231 184.5H231.4L232.5 186.1L233.6 184.5H234L232.7 186.4V187.6Z" fill="#22576F"/>
<path d="M218.5 3.69997H216.6V4.79997H218.3V5.09998H216.6V6.19997H218.5V6.49997H216.2V3.39996H218.5V3.69997Z" fill="#22576F"/>
<path d="M221.8 3.29999H222.1V6.39998H221.8L219.8 3.79999V6.39998H219.5V3.29999H219.8L221.8 5.79999V3.29999Z" fill="#22576F"/>
<path d="M224.4 6.49997H224V3.69997H223V3.39996H225.5V3.69997H224.5V6.49997H224.4Z" fill="#22576F"/>
<path d="M228.4 6.49997L227.5 5.29997H226.6V6.49997H226.2V3.39996H227.5C228.2 3.39996 228.6 3.79997 228.6 4.29997C228.6 4.79997 228.2 5.09997 227.8 5.19997L228.8 6.49997H228.4ZM227.6 3.69997H226.6V4.99997H227.6C228.1 4.99997 228.4 4.79996 228.4 4.39996C228.4 3.89996 228.1 3.69997 227.6 3.69997Z" fill="#22576F"/>
<path d="M231 6.49997H230.6V5.29997L229.3 3.39996H229.7L230.8 4.99997L231.9 3.39996H232.3L231 5.29997V6.49997Z" fill="#22576F"/>
<path d="M223.4 78.7C223.4 79.6 222.9 80.1 222.1 80.1C221.3 80.1 220.8 79.6 220.8 78.7V76.9H221.2V78.7C221.2 79.4 221.6 79.8 222.2 79.8C222.8 79.8 223.1 79.5 223.1 78.8V77H223.5V78.7H223.4Z" fill="#22576F"/>
<path d="M225.7 78.9H224.9V80H224.5V76.9H225.7C226.4 76.9 226.9 77.3 226.9 77.9C226.9 78.6 226.3 78.9 225.7 78.9ZM225.7 77.2H224.9V78.6H225.7C226.2 78.6 226.6 78.3 226.6 77.9C226.5 77.5 226.2 77.2 225.7 77.2Z" fill="#22576F"/>
<path d="M152.2 34.5C152.2 35.4 151.7 35.9 150.9 35.9C150.1 35.9 149.6 35.4 149.6 34.5V32.7H150V34.5C150 35.2 150.4 35.6 151 35.6C151.6 35.6 151.9 35.3 151.9 34.6V32.8H152.3V34.5H152.2Z" fill="#22576F"/>
<path d="M154.4 34.7H153.6V35.8H153.2V32.7H154.4C155.1 32.7 155.6 33.1 155.6 33.7C155.7 34.4 155.1 34.7 154.4 34.7ZM154.5 33H153.7V34.4H154.5C155 34.4 155.4 34.1 155.4 33.7C155.3 33.3 155 33 154.5 33Z" fill="#22576F"/>
</g>
<defs>
<clipPath id="clip0_0_1">
<rect width="894.2" height="490.5" fill="white" transform="translate(7 -190)"/>
</clipPath>
</defs>
</svg>
