<svg width="241" height="269" viewBox="0 0 241 269" fill="none" xmlns="http://www.w3.org/2000/svg">
<path d="M193.7 54V54.1H87.5H87.4L87.3 54V49.9H66V53.5L66.4 52.8H66.5H66.6L85.3 63.6V63.7V63.8L84.7 64.8L84.5 64.9L65.8 54.1H61.4V56.8L82.5 69L82.6 69.1V69.2L81.9 70.3H81.8L60.6 58.1L60.5 58V57.9L61.1 57H59.7V81.2H61.3L61.4 81.3V111.6L61.3 111.7H48.6V128.7H49.6V108.2L49.7 108.1H57.8V101.2H7.20001V108.1H15.2H15.3V108.2V128.7H16.3V111.7H7.20001V185.7H109.1V180.2V180.1H109.2H123.5V171.6V171.5H123.6H163.9H164V171.6V180.1H178.2V168.9V168.8H178.3H231.3V132.9H193.7L193.6 132.8V132.7V103.5V103.4H193.7H199.6L199.1 102.5V102.3L220.3 90.1H220.4H220.5L221.1 91.2V91.3L221 91.4L199.9 103.6V105.9H202.6L213.8 99.4L214 99.5L214.6 100.6V100.7L203.4 107.2H203.2L202.8 106.5V109.4L202.7 109.5H199.9V116.4H231.3V109.5H228.6L228.5 109.4V106.5L228.1 107.2H227.9L216.7 100.7H216.6V100.6L217.3 99.5L217.4 99.4L228.6 105.9H231.3V75.9H202.6V77.2V77.3H202.5H201.4H201.3V77.2V75.9H199.8L199.7 75.8V54.2V54.1L199.8 54H201.3V52.7V52.6H201.4H202.5H202.6V52.7V54H231.3V19.8H229.2H229.1V19.7V16.3H227.9V40.7V40.8H227.8H226.5H226.4V40.7V16.3H202V19.7L201.9 19.8H173.5V21.2V21.3L173.4 21.4H170.2V22.5V22.6H170.1H147.1H147L146.9 22.5V21.2H147L147.1 21.1H170V19.8H143.9V45.4H170V44.3V44.2H170.1H173.4H173.5V44.3V45.4H199.8H199.9V45.5V79V79.1L199.8 79.2H193.7L193.6 79.1V79V54H193.7V54.1V54H193.8V78.9H199.7V45.6H173.4H173.3V45.5V44.4H170.2V45.5V45.6H170.1H143.7L143.6 45.5V19.7L143.7 19.6H170.1H170.2V19.7V21.2V21.3L170.1 21.4H147.2V22.4H170V21.2L170.1 21.1H173.3V19.7V19.6H173.4H201.7V16.2L201.8 16.1H201.9H226.5H226.6V16.2V40.6H227.7V16.2V16.1H227.8H229.2H229.3V16.2V19.6H231.5L231.6 19.7V54.2L231.5 54.3H202.5H202.4V54.2V52.8H201.5V54.2V54.3H201.4H199.9V75.6H201.4L201.5 75.7V75.8V77.1H202.4V75.8V75.7L202.5 75.6H231.5V75.7L231.6 75.8V106L231.5 106.1H228.6H228.5L217.4 99.7L216.9 100.6L227.9 107L228.5 106L228.6 105.9L228.7 106V109.2H231.5V109.3L231.6 109.4V116.6H231.5V116.7H199.8L199.7 116.6V109.4V109.3L199.8 109.2H202.5V106L202.6 105.9L202.8 106L203.3 107L214.4 100.6L213.8 99.7L202.7 106.1H199.8H199.7V106V103.5V103.4L220.8 91.2L220.3 90.3L199.3 102.5L199.9 103.4V103.6H199.8H193.8V132.6H231.5V132.7H231.6V168.9L231.5 169H178.4V180.2V180.3H178.3H163.9H163.8V180.2V171.7H123.7V180.2V180.3H123.6H109.3V185.8V185.9H109.2H7.10001H7V185.8V111.6V111.5L7.10001 111.4H16.5V111.5L16.6 111.6V128.8L16.5 128.9V129H15.2L15.1 128.9V128.8V108.3H7.10001H7V108.2V101V100.9H7.10001H58L58.1 101V108.2L58 108.3H49.9V128.8L49.8 128.9L49.7 129H48.5L48.4 128.9V128.8V111.6V111.5L48.5 111.4H61.2V81.5H59.6L59.5 81.4V81.3V56.9V56.8L59.6 56.7H61.3L61.4 56.8V56.9L60.8 57.9L81.8 70L82.3 69.1L61.2 57V56.9V54V53.9H61.3H65.9L84.5 64.6L85 63.7L66.5 53.1L66 54L65.8 54.1V54V49.8V49.7L65.9 49.6H87.5V49.7L87.6 49.8V53.9H193.7H193.8V54H193.7Z" fill="#99A4B3"/>
<path d="M73.8 177.4L66.1 169.8V169.6L81.3 154.4H81.5L89.1 162C91.2 164.1 92.3 166.9 92.3 169.7C92.3 172.5 91.2 175.3 89.1 177.4C87 179.5 84.2 180.6 81.4 180.6C78.6 180.7 75.8 179.6 73.8 177.4C76 179.4 78.7 180.4 81.4 180.4C84.1 180.4 86.9 179.4 88.9 177.3C91 175.2 92 172.5 92 169.8C92 167.1 91 164.3 88.9 162.3L81.3 154.8L66.2 169.9L73.8 177.4Z" fill="#99A4B3"/>
<path d="M8.5 184.3H8.39999V138.3V138.2H8.5H25.8H25.9V138.3V154.9H32.2V154.3V154.2H32.3H33.4L33.5 154.3V168.3L33.4 168.4V168.5H32.3L32.2 168.4V168.3V167.7H25.9V184.3V184.4L25.8 184.5H8.5L8.39999 184.4V184.3H8.5V184.2H25.7V167.6V167.5H25.8H32.3H32.4V167.6V168.2H33.2V154.4H32.4V155V155.1H32.3H25.8H25.7V155V138.4H8.60001V184.3H8.5V184.2V184.3Z" fill="#99A4B3"/>
<path d="M101.9 55.4V55.3H162.3H162.4V55.4V78.5L162.3 78.6H101.9L101.8 78.5H101.7V55.4L101.8 55.3H101.9V55.4H102V78.3H162.2V55.5H101.9V55.4H102H101.9Z" fill="#99A4B3"/>
<path d="M119.9 91.4V91.3H144.3H144.4V91.4V107.2V107.3H144.3H119.9H119.8L119.7 107.2V91.4L119.8 91.3H119.9V91.4H120V107.1H144.2V91.5H119.9V91.4H120H119.9Z" fill="#99A4B3"/>
<path d="M163.8 56.9V56.7H178.2L178.3 56.8V56.9V77V77.1H178.2H163.8H163.7L163.6 77V56.9L163.7 56.8L163.8 56.7V56.9H163.9V76.9H178.1V57H163.8V56.9H163.9H163.8Z" fill="#99A4B3"/>
<path d="M102.2 127.5H102.1L104.9 117.1L105 117H105.1L126 122.6L126.1 122.7V122.8L123.3 133.2C122 138.1 117.6 141.3 112.8 141.3C111.9 141.3 110.9 141.2 110 140.9C105.1 139.6 101.9 135.2 101.9 130.4C101.9 129.5 102 128.5 102.3 127.6L102.2 127.5H102.3C102.1 128.4 101.9 129.4 101.9 130.3C101.9 135 105 139.3 109.8 140.6C110.7 140.8 111.7 141 112.6 141C117.3 141 121.6 137.9 122.9 133.1L125.7 122.8L105.1 117.3L102.3 127.6L102.2 127.5Z" fill="#99A4B3"/>
<path d="M161.9 127.5H161.8L159 117.2L138.4 122.7L141.2 133C142.5 137.8 146.8 140.9 151.5 140.9C152.4 140.9 153.3 140.8 154.3 140.5C159.1 139.2 162.2 134.9 162.2 130.2C162.2 129.3 162.1 128.4 161.8 127.4L161.9 127.5H162C162.3 128.4 162.4 129.4 162.4 130.3C162.4 135.1 159.2 139.5 154.3 140.8C153.4 141.1 152.4 141.2 151.5 141.2C146.7 141.2 142.3 138 141 133.1L138.2 122.7L138.3 122.6L159.2 117H159.3L159.4 117.1L162.2 127.5H161.9Z" fill="#99A4B3"/>
<path d="M10 185.8V184.3L10.1 184.2L10.3 184.3V185.8L10.1 185.9L10 185.8Z" fill="#99A4B3"/>
<path d="M10 108.2V101L10.1 100.9L10.3 101V108.2L10.1 108.3L10 108.2Z" fill="#99A4B3"/>
<path d="M10 138.3V111.6L10.1 111.4L10.3 111.6V138.3L10.1 138.4L10 138.3Z" fill="#99A4B3"/>
<path d="M15.4 185.8V184.3L15.5 184.2L15.7 184.3V185.8L15.5 185.9L15.4 185.8Z" fill="#99A4B3"/>
<path d="M15.4 111.6V101L15.5 100.9L15.7 101V111.6L15.5 111.7L15.4 111.6Z" fill="#99A4B3"/>
<path d="M15.4 138.3V128.8L15.5 128.7L15.7 128.8V138.3L15.5 138.4L15.4 138.3Z" fill="#99A4B3"/>
<path d="M20.8 185.8V184.3L20.9 184.2L21.1 184.3V185.8L20.9 185.9L20.8 185.8Z" fill="#99A4B3"/>
<path d="M20.8 138.3V101L20.9 100.9L21.1 101V138.3L20.9 138.4L20.8 138.3Z" fill="#99A4B3"/>
<path d="M26.2 185.8V167.6L26.3 167.5L26.5 167.6V185.8L26.3 185.9L26.2 185.8Z" fill="#99A4B3"/>
<path d="M26.2 155V101L26.3 100.9L26.5 101V155L26.3 155.1L26.2 155Z" fill="#99A4B3"/>
<path d="M31.6 185.8V167.6L31.7 167.5L31.9 167.6V185.8L31.7 185.9L31.6 185.8Z" fill="#99A4B3"/>
<path d="M31.6 155V101L31.7 100.9L31.9 101V155L31.7 155.1L31.6 155Z" fill="#99A4B3"/>
<path d="M37 185.8V101L37.1 100.9L37.3 101V185.8L37.1 185.9L37 185.8Z" fill="#99A4B3"/>
<path d="M42.4 185.8V101L42.5 100.9L42.6 101V185.8L42.5 185.9L42.4 185.8Z" fill="#99A4B3"/>
<path d="M47.8 185.8V101L47.9 100.9L48 101V185.8L47.9 185.9L47.8 185.8Z" fill="#99A4B3"/>
<path d="M53.2 185.8V111.6L53.3 111.4L53.4 111.6V185.8L53.3 185.9L53.2 185.8Z" fill="#99A4B3"/>
<path d="M53.2 108.2V101L53.3 100.9L53.4 101V108.2L53.3 108.3L53.2 108.2Z" fill="#99A4B3"/>
<path d="M58.6 185.8V111.6L58.7 111.4L58.8 111.6V185.8L58.7 185.9L58.6 185.8Z" fill="#99A4B3"/>
<path d="M64 185.8V60L64.1 59.8L64.2 60V185.8L64.1 185.9L64 185.8Z" fill="#99A4B3"/>
<path d="M64 58.5V54L64.1 53.9L64.2 54V58.5L64.1 58.6L64 58.5Z" fill="#99A4B3"/>
<path d="M69.4 185.8V173.2L69.5 173L69.6 173.2V185.8L69.5 185.9L69.4 185.8Z" fill="#99A4B3"/>
<path d="M69.4 54.6V49.8L69.5 49.6L69.6 49.8V54.6L69.5 54.8L69.4 54.6Z" fill="#99A4B3"/>
<path d="M69.4 166.4V63.1L69.5 63L69.6 63.1V166.4L69.5 166.5L69.4 166.4Z" fill="#99A4B3"/>
<path d="M69.4 61.6V56.1L69.5 56L69.6 56.1V61.6L69.5 61.7L69.4 61.6Z" fill="#99A4B3"/>
<path d="M74.8 185.8V178.4L74.9 178.3L75 178.4V185.8L74.9 185.9L74.8 185.8Z" fill="#99A4B3"/>
<path d="M74.8 57.8V49.8L74.9 49.6L75 49.8V57.8L74.9 57.9L74.8 57.8Z" fill="#99A4B3"/>
<path d="M74.8 161V66.2L74.9 66.1L75 66.2V161L74.9 161.1L74.8 161Z" fill="#99A4B3"/>
<path d="M74.8 64.7V59.2L74.9 59.1L75 59.2V64.7L74.9 64.9L74.8 64.7Z" fill="#99A4B3"/>
<path d="M80.2 185.8V180.5L80.3 180.4L80.4 180.5V185.8L80.3 185.9L80.2 185.8Z" fill="#99A4B3"/>
<path d="M80.2 60.9V49.8L80.3 49.6L80.4 49.8V60.9L80.3 61L80.2 60.9Z" fill="#99A4B3"/>
<path d="M80.2 155.6V69.3L80.3 69.2L80.4 69.3V155.6L80.3 155.7L80.2 155.6Z" fill="#99A4B3"/>
<path d="M80.2 67.9V62.3L80.3 62.2L80.4 62.3V67.9L80.3 68L80.2 67.9Z" fill="#99A4B3"/>
<path d="M85.6 185.8V179.7L85.7 179.6L85.8 179.7V185.8L85.7 185.9L85.6 185.8Z" fill="#99A4B3"/>
<path d="M85.6 158.8V49.8L85.7 49.6L85.8 49.8V158.8L85.7 159L85.6 158.8Z" fill="#99A4B3"/>
<path d="M91 185.8V174.5L91.1 174.4L91.2 174.5V185.8L91.1 185.9L91 185.8Z" fill="#99A4B3"/>
<path d="M91 165.1V54L91.1 53.9L91.2 54V165.1L91.1 165.2L91 165.1Z" fill="#99A4B3"/>
<path d="M96.4 185.8V54L96.5 53.9L96.6 54V185.8L96.5 185.9L96.4 185.8Z" fill="#99A4B3"/>
<path d="M101.8 185.8V131.3L101.9 131.2L102 131.3V185.8L101.9 185.9L101.8 185.8Z" fill="#99A4B3"/>
<path d="M101.8 55.4V54L101.9 53.9L102 54V55.4L101.9 55.5L101.8 55.4Z" fill="#99A4B3"/>
<path d="M101.8 129.3V78.5L101.9 78.3L102 78.5V129.3L101.9 129.4L101.8 129.3Z" fill="#99A4B3"/>
<path d="M107.2 185.8V139.7L107.3 139.5L107.4 139.7V185.8L107.3 185.9L107.2 185.8Z" fill="#99A4B3"/>
<path d="M107.2 55.4V54L107.3 53.9L107.4 54V55.4L107.3 55.5L107.2 55.4Z" fill="#99A4B3"/>
<path d="M107.2 117.7V78.5L107.3 78.3L107.4 78.5V117.7L107.3 117.8L107.2 117.7Z" fill="#99A4B3"/>
<path d="M112.6 180.2V141.1L112.7 141L112.8 141.1V180.2L112.7 180.3L112.6 180.2Z" fill="#99A4B3"/>
<path d="M112.6 55.4V54L112.7 53.9L112.8 54V55.4L112.7 55.5L112.6 55.4Z" fill="#99A4B3"/>
<path d="M112.6 119.1V78.5L112.7 78.3L112.8 78.5V119.1L112.7 119.2L112.6 119.1Z" fill="#99A4B3"/>
<path d="M118 180.2V139.6L118.1 139.5L118.2 139.6V180.2L118.1 180.3L118 180.2Z" fill="#99A4B3"/>
<path d="M118 55.4V54L118.1 53.9L118.2 54V55.4L118.1 55.5L118 55.4Z" fill="#99A4B3"/>
<path d="M118 120.6V78.5L118.1 78.3L118.2 78.5V120.6L118.1 120.7L118 120.6Z" fill="#99A4B3"/>
<path d="M123.4 180.2V131.5L123.5 131.4L123.6 131.5V180.2L123.5 180.3L123.4 180.2Z" fill="#99A4B3"/>
<path d="M123.4 55.4V54L123.5 53.9L123.6 54V55.4L123.5 55.5L123.4 55.4Z" fill="#99A4B3"/>
<path d="M123.4 122V107.2L123.5 107.1L123.6 107.2V122L123.5 122.1L123.4 122Z" fill="#99A4B3"/>
<path d="M123.4 91.4V78.5L123.5 78.3L123.6 78.5V91.4L123.5 91.5L123.4 91.4Z" fill="#99A4B3"/>
<path d="M128.8 171.6V107.2L128.9 107.1L129 107.2V171.6L128.9 171.7L128.8 171.6Z" fill="#99A4B3"/>
<path d="M128.8 55.4V54L128.9 53.9L129 54V55.4L128.9 55.5L128.8 55.4Z" fill="#99A4B3"/>
<path d="M128.8 91.4V78.5L128.9 78.3L129 78.5V91.4L128.9 91.5L128.8 91.4Z" fill="#99A4B3"/>
<path d="M134.2 171.6V107.2L134.3 107.1L134.4 107.2V171.6L134.3 171.7L134.2 171.6Z" fill="#99A4B3"/>
<path d="M134.2 55.4V54L134.3 53.9L134.4 54V55.4L134.3 55.5L134.2 55.4Z" fill="#99A4B3"/>
<path d="M134.2 91.4V78.5L134.3 78.3L134.4 78.5V91.4L134.3 91.5L134.2 91.4Z" fill="#99A4B3"/>
<path d="M139.6 171.6V127.9L139.7 127.7L139.8 127.9V171.6L139.7 171.7L139.6 171.6Z" fill="#99A4B3"/>
<path d="M139.6 55.4V54L139.7 53.9L139.8 54V55.4L139.7 55.5L139.6 55.4Z" fill="#99A4B3"/>
<path d="M139.6 122.3V107.2L139.7 107.1L139.8 107.2V122.3L139.7 122.4L139.6 122.3Z" fill="#99A4B3"/>
<path d="M139.6 91.4V78.5L139.7 78.3L139.8 78.5V91.4L139.7 91.5L139.6 91.4Z" fill="#99A4B3"/>
<path d="M145 171.6V139L145.1 138.8L145.2 139V171.6L145.1 171.7L145 171.6Z" fill="#99A4B3"/>
<path d="M145 45.5V19.7L145.1 19.6L145.2 19.7V45.5L145.1 45.6L145 45.5Z" fill="#99A4B3"/>
<path d="M145 120.8V78.5L145.1 78.3L145.2 78.5V120.8L145.1 121L145 120.8Z" fill="#99A4B3"/>
<path d="M145 55.4V54L145.1 53.9L145.2 54V55.4L145.1 55.5L145 55.4Z" fill="#99A4B3"/>
<path d="M150.4 171.6V141L150.5 140.9L150.6 141V171.6L150.5 171.7L150.4 171.6Z" fill="#99A4B3"/>
<path d="M150.4 21.2V19.7L150.5 19.6L150.6 19.7V21.2L150.5 21.4L150.4 21.2Z" fill="#99A4B3"/>
<path d="M150.4 119.4V78.5L150.5 78.3L150.6 78.5V119.4L150.5 119.5L150.4 119.4Z" fill="#99A4B3"/>
<path d="M150.4 45.5V22.5L150.5 22.4L150.6 22.5V45.5L150.5 45.6L150.4 45.5Z" fill="#99A4B3"/>
<path d="M150.4 55.4V54L150.5 53.9L150.6 54V55.4L150.5 55.5L150.4 55.4Z" fill="#99A4B3"/>
<path d="M155.8 171.6V140.2L155.9 140L156 140.2V171.6L155.9 171.7L155.8 171.6Z" fill="#99A4B3"/>
<path d="M155.8 21.2V19.7L155.9 19.6L156 19.7V21.2L155.9 21.4L155.8 21.2Z" fill="#99A4B3"/>
<path d="M155.8 117.9V78.5L155.9 78.3L156 78.5V117.9L155.9 118.1L155.8 117.9Z" fill="#99A4B3"/>
<path d="M155.8 45.5V22.5L155.9 22.4L156 22.5V45.5L155.9 45.6L155.8 45.5Z" fill="#99A4B3"/>
<path d="M155.8 55.4V54L155.9 53.9L156 54V55.4L155.9 55.5L155.8 55.4Z" fill="#99A4B3"/>
<path d="M161.2 171.6V134.9L161.3 134.8L161.4 134.9V171.6L161.3 171.7L161.2 171.6Z" fill="#99A4B3"/>
<path d="M161.2 21.2V19.7L161.3 19.6L161.4 19.7V21.2L161.3 21.4L161.2 21.2Z" fill="#99A4B3"/>
<path d="M161.2 125V78.5L161.3 78.3L161.4 78.5V125L161.3 125.1L161.2 125Z" fill="#99A4B3"/>
<path d="M161.2 45.5V22.5L161.3 22.4L161.4 22.5V45.5L161.3 45.6L161.2 45.5Z" fill="#99A4B3"/>
<path d="M161.2 55.4V54L161.3 53.9L161.4 54V55.4L161.3 55.5L161.2 55.4Z" fill="#99A4B3"/>
<path d="M166.6 180.2V77L166.7 76.9L166.8 77V180.2L166.7 180.3L166.6 180.2Z" fill="#99A4B3"/>
<path d="M166.6 21.2V19.7L166.7 19.6L166.8 19.7V21.2L166.7 21.4L166.6 21.2Z" fill="#99A4B3"/>
<path d="M166.6 56.9V54L166.7 53.9L166.8 54V56.9L166.7 57L166.6 56.9Z" fill="#99A4B3"/>
<path d="M166.6 45.5V22.5L166.7 22.4L166.8 22.5V45.5L166.7 45.6L166.6 45.5Z" fill="#99A4B3"/>
<path d="M172 180.2V77L172.1 76.9L172.2 77V180.2L172.1 180.3L172 180.2Z" fill="#99A4B3"/>
<path d="M172 44.3V21.2L172.1 21.1L172.2 21.2V44.3L172.1 44.4L172 44.3Z" fill="#99A4B3"/>
<path d="M172 56.9V54L172.1 53.9L172.2 54V56.9L172.1 57L172 56.9Z" fill="#99A4B3"/>
<path d="M177.4 180.2V77L177.5 76.9L177.6 77V180.2L177.5 180.3L177.4 180.2Z" fill="#99A4B3"/>
<path d="M177.4 45.5V19.7L177.5 19.6L177.6 19.7V45.5L177.5 45.6L177.4 45.5Z" fill="#99A4B3"/>
<path d="M177.4 56.9V54L177.5 53.9L177.6 54V56.9L177.5 57L177.4 56.9Z" fill="#99A4B3"/>
<path d="M182.8 168.9V54L182.9 53.9L183 54V168.9L182.9 169L182.8 168.9Z" fill="#99A4B3"/>
<path d="M182.8 45.5V19.7L182.9 19.6L183 19.7V45.5L182.9 45.6L182.8 45.5Z" fill="#99A4B3"/>
<path d="M188.2 168.9V54L188.3 53.9L188.4 54V168.9L188.3 169L188.2 168.9Z" fill="#99A4B3"/>
<path d="M188.2 45.5V19.7L188.3 19.6L188.4 19.7V45.5L188.3 45.6L188.2 45.5Z" fill="#99A4B3"/>
<path d="M193.6 168.9V132.7L193.7 132.6L193.8 132.7V168.9L193.7 169L193.6 168.9Z" fill="#99A4B3"/>
<path d="M193.6 45.5V19.7L193.7 19.6L193.8 19.7V45.5L193.7 45.6L193.6 45.5Z" fill="#99A4B3"/>
<path d="M193.6 103.5V79L193.7 78.9L193.8 79V103.5L193.7 103.6L193.6 103.5Z" fill="#99A4B3"/>
<path d="M198.9 168.9V132.7L199.1 132.6L199.2 132.7V168.9L199.1 169L198.9 168.9Z" fill="#99A4B3"/>
<path d="M198.9 45.5V19.7L199.1 19.6L199.2 19.7V45.5L199.1 45.6L198.9 45.5Z" fill="#99A4B3"/>
<path d="M198.9 103.5V79L199.1 78.9L199.2 79V103.5L199.1 103.6L198.9 103.5Z" fill="#99A4B3"/>
<path d="M204.3 168.9V132.7L204.5 132.6L204.6 132.7V168.9L204.5 169L204.3 168.9Z" fill="#99A4B3"/>
<path d="M204.3 54.2V16.2L204.5 16.1L204.6 16.2V54.2L204.5 54.3L204.3 54.2Z" fill="#99A4B3"/>
<path d="M204.3 116.6V106.4L204.5 106.3L204.6 106.4V116.6L204.5 116.7L204.3 116.6Z" fill="#99A4B3"/>
<path d="M204.3 99.4V75.8L204.5 75.6L204.6 75.8V99.4L204.5 99.5L204.3 99.4Z" fill="#99A4B3"/>
<path d="M204.3 105V100.8L204.5 100.7L204.6 100.8V105L204.5 105.1L204.3 105Z" fill="#99A4B3"/>
<path d="M209.7 168.9V132.7L209.9 132.6L210 132.7V168.9L209.9 169L209.7 168.9Z" fill="#99A4B3"/>
<path d="M209.7 54.2V16.2L209.9 16.1L210 16.2V54.2L209.9 54.3L209.7 54.2Z" fill="#99A4B3"/>
<path d="M209.7 116.6V103.3L209.9 103.2L210 103.3V116.6L209.9 116.7L209.7 116.6Z" fill="#99A4B3"/>
<path d="M209.7 96.2V75.8L209.9 75.6L210 75.8V96.2L209.9 96.4L209.7 96.2Z" fill="#99A4B3"/>
<path d="M209.7 101.9V97.7L209.9 97.6L210 97.7V101.9L209.9 102L209.7 101.9Z" fill="#99A4B3"/>
<path d="M215.1 168.9V132.7L215.3 132.6L215.4 132.7V168.9L215.3 169L215.1 168.9Z" fill="#99A4B3"/>
<path d="M215.1 54.2V16.2L215.3 16.1L215.4 16.2V54.2L215.3 54.3L215.1 54.2Z" fill="#99A4B3"/>
<path d="M215.1 116.6V94.6L215.3 94.5L215.4 94.6V116.6L215.3 116.7L215.1 116.6Z" fill="#99A4B3"/>
<path d="M215.1 93.1V75.8L215.3 75.6L215.4 75.8V93.1L215.3 93.2L215.1 93.1Z" fill="#99A4B3"/>
<path d="M220.5 168.9V132.7L220.7 132.6L220.8 132.7V168.9L220.7 169L220.5 168.9Z" fill="#99A4B3"/>
<path d="M220.5 54.2V16.2L220.7 16.1L220.8 16.2V54.2L220.7 54.3L220.5 54.2Z" fill="#99A4B3"/>
<path d="M220.5 116.6V102.9L220.7 102.8L220.8 102.9V116.6L220.7 116.7L220.5 116.6Z" fill="#99A4B3"/>
<path d="M220.5 90.7V75.8L220.7 75.6L220.8 75.8V90.7L220.7 90.8L220.5 90.7Z" fill="#99A4B3"/>
<path d="M220.5 101.5V91.5L220.7 91.3L220.8 91.5V101.5L220.7 101.6L220.5 101.5Z" fill="#99A4B3"/>
<path d="M225.9 168.9V132.7L226.1 132.6L226.2 132.7V168.9L226.1 169L225.9 168.9Z" fill="#99A4B3"/>
<path d="M225.9 54.2V16.2L226.1 16.1L226.2 16.2V54.2L226.1 54.3L225.9 54.2Z" fill="#99A4B3"/>
<path d="M225.9 116.6V106L226.1 105.9L226.2 106V116.6L226.1 116.7L225.9 116.6Z" fill="#99A4B3"/>
<path d="M225.9 104.6V75.8L226.1 75.6L226.2 75.8V104.6L226.1 104.7L225.9 104.6Z" fill="#99A4B3"/>
<path d="M233.7 267.1H233.6V177.4H229.6V203.2V203.3L229.5 203.4H228.2L228.1 203.3V203.2V177.4H199.2L199.1 177.3V176.3H185.7V193.1V193.2H185.6H12.2V233.5L185.6 256.6L185.7 256.7V267H186.9V244L187 243.9H188.3L188.4 244V267H233.7V267.1H233.6H233.7V267.2H188.3H188.2V267.1V244.2H187.1V267.1V267.2H187H185.6H185.5V267.1V256.8L12 233.7L11.9 233.6V193.1V193H12H185.5V176.2V176.1L185.6 176H199.2L199.3 176.1L199.4 176.2V177.2H228.2H228.3V177.3V203.1H229.4V177.3V177.2H229.5H233.7H233.8V177.3V267.1V267.2H233.7V267.1Z" fill="#99A4B3"/>
<path d="M7.70001 29H7.60001C7.60001 28.8 7.69999 28.6 7.89999 28.6L10 28.2H10.2C10.4 28.2 10.6 28.3 10.8 28.4C11.1 28.6 11.4 28.9 11.7 29.3L11.6 29.4V29.3C13.9 29.2 16.2 28.9 18.4 28.4C19.1 28.2 19.9 28.2 20.6 28.2C21.6 28.2 22.5 28.3 23.5 28.6C24.3 28.8 25.1 29.2 25.8 29.7C26.5 30.2 27 30.8 27.4 31.5C27.7 32.1 27.9 32.8 27.9 33.4C27.9 34.1 27.7 34.8 27.4 35.3C27 36 26.4 36.6 25.8 37.1C25.1 37.6 24.3 38 23.5 38.2C22.6 38.5 21.6 38.6 20.6 38.6C19.8 38.6 19.1 38.5 18.4 38.3C16.1 37.9 13.9 37.6 11.6 37.4V37.3L11.7 37.4C11.5 37.7 11.2 38 10.8 38.3C10.6 38.4 10.4 38.5 10.2 38.5H10L7.89999 38.1C7.69999 38.1 7.60001 37.9 7.60001 37.7V29H7.70001H7.79999V37.7L7.89999 37.9L10 38.3H10.1C10.3 38.3 10.4 38.3 10.5 38.2C10.8 38 11.1 37.7 11.3 37.4L11.4 37.3C13.7 37.4 16 37.7 18.3 38.2C19 38.4 19.7 38.4 20.5 38.4C21.5 38.4 22.4 38.3 23.3 38C24.1 37.8 24.8 37.4 25.5 36.9C26.1 36.4 26.7 35.8 27.1 35.2C27.4 34.6 27.6 34 27.6 33.4C27.6 32.8 27.4 32.1 27.1 31.6C26.7 30.9 26.2 30.3 25.5 29.9C24.8 29.4 24.1 29.1 23.3 28.8C22.4 28.5 21.4 28.4 20.5 28.4C19.8 28.4 19 28.5 18.3 28.6C16 29 13.7 29.3 11.4 29.5L11.3 29.4C11.1 29.1 10.8 28.8 10.5 28.6C10.4 28.5 10.2 28.5 10.1 28.5H10L7.89999 28.9L7.79999 29.1H7.70001V29Z" fill="#99A4B3"/>
<path d="M229.5 177.4H203.6L203.4 177.3L203.6 177.2H229.5L229.6 177.3L229.5 177.4Z" fill="#99A4B3"/>
<path d="M229.5 169H203.6L203.4 168.9L203.6 168.8H229.5L229.6 168.9L229.5 169Z" fill="#99A4B3"/>
<path d="M227.8 16.3H203.3L203.2 16.2L203.3 16.1H227.8L227.9 16.2L227.8 16.3Z" fill="#99A4B3"/>
<path d="M227.8 12.7H203.3L203.2 12.6L203.3 12.5H227.8L227.9 12.6L227.8 12.7Z" fill="#99A4B3"/>
<path d="M187 267H210L210.2 267.1L210 267.2H187L186.9 267.1L187 267Z" fill="#99A4B3"/>
<path d="M187 268.4H210L210.2 268.5L210 268.6H187L186.9 268.5L187 268.4Z" fill="#99A4B3"/>
<path d="M58 21.4V21.5H7.20001V67.2H24.3C25.6 67.2 26.6 68.2 26.6 69.5V79.6C26.6 80.9 25.6 81.9 24.3 81.9H7.20001V87.5H57.8V81.3V81.2H57.9H59.4V57H57.9H57.8V56.9V21.5H58V21.6V21.4H58.1V56.7H59.6H59.7V56.8V81.3V81.4H59.6H58.1V87.6V87.7H58H7.10001H7V87.6V81.8V81.7H7.10001H24.3C25.4 81.7 26.3 80.8 26.3 79.7V69.6C26.3 68.5 25.4 67.6 24.3 67.6H7.10001H7V67.5V21.5V21.4H7.10001H58Z" fill="#99A4B3"/>
<path d="M7.70001 87.6V81.8L7.79999 81.7L7.89999 81.8V87.6L7.79999 87.7L7.70001 87.6Z" fill="#99A4B3"/>
<path d="M7.70001 28.7V21.4L7.79999 21.3L7.89999 21.4V28.7L7.79999 28.9L7.70001 28.7Z" fill="#99A4B3"/>
<path d="M7.70001 67.4V37.9L7.79999 37.8L7.89999 37.9V67.4L7.79999 67.5L7.70001 67.4Z" fill="#99A4B3"/>
<path d="M16.3 87.6V81.8L16.4 81.7L16.6 81.8V87.6L16.4 87.7L16.3 87.6Z" fill="#99A4B3"/>
<path d="M16.3 28.7V21.4L16.4 21.3L16.6 21.4V28.7L16.4 28.9L16.3 28.7Z" fill="#99A4B3"/>
<path d="M16.3 67.4V37.9L16.4 37.8L16.6 37.9V67.4L16.4 67.5L16.3 67.4Z" fill="#99A4B3"/>
<path d="M25 87.6V81.6L25.1 81.5L25.2 81.6V87.6L25.1 87.7L25 87.6Z" fill="#99A4B3"/>
<path d="M25 29.3V21.4L25.1 21.3L25.2 21.4V29.3L25.1 29.4L25 29.3Z" fill="#99A4B3"/>
<path d="M25 67.6V37.4L25.1 37.2L25.2 37.4V67.6L25.1 67.7L25 67.6Z" fill="#99A4B3"/>
<path d="M33.6 87.6V21.4L33.7 21.3L33.8 21.4V87.6L33.7 87.7L33.6 87.6Z" fill="#99A4B3"/>
<path d="M42.2 87.6V21.4L42.3 21.3L42.5 21.4V87.6L42.3 87.7L42.2 87.6Z" fill="#99A4B3"/>
<path d="M50.9 87.6V21.4L51 21.3L51.1 21.4V87.6L51 87.7L50.9 87.6Z" fill="#99A4B3"/>
<path d="M59.6 70.5H26.4L26.3 70.4L26.4 70.2H59.6L59.7 70.4L59.6 70.5Z" fill="#99A4B3"/>
<path d="M58 53.2H7.10001L7 53.1L7.10001 53H58L58.1 53.1L58 53.2Z" fill="#99A4B3"/>
<path d="M58 35.9H26.9L26.8 35.8L26.9 35.7H58L58.1 35.8L58 35.9Z" fill="#99A4B3"/>
<path d="M7.70001 35.9H7.10001L7 35.8L7.10001 35.7H7.70001L7.79999 35.8L7.70001 35.9Z" fill="#99A4B3"/>
<path d="M229.5 193H233.7L233.8 193.1L233.7 193.2H229.5L229.4 193.1L229.5 193Z" fill="#99A4B3"/>
<path d="M185.6 193H228.2L228.3 193.1L228.2 193.2H185.6L185.5 193.1L185.6 193Z" fill="#99A4B3"/>
<path d="M12 210.2H233.7L233.8 210.3L233.7 210.5H12L11.9 210.3L12 210.2Z" fill="#99A4B3"/>
<path d="M12 227.5H233.7L233.8 227.6L233.7 227.7H12L11.9 227.6L12 227.5Z" fill="#99A4B3"/>
<path d="M97.1 244.8H187L187.1 244.9L187 245H97.1L97 244.9L97.1 244.8Z" fill="#99A4B3"/>
<path d="M188.3 244.8H233.7L233.8 244.9L233.7 245H188.3L188.2 244.9L188.3 244.8Z" fill="#99A4B3"/>
<path d="M185.6 262H187L187.1 262.2L187 262.3H185.6L185.5 262.2L185.6 262Z" fill="#99A4B3"/>
<path d="M188.3 262H233.7L233.8 262.2L233.7 262.3H188.3L188.2 262.2L188.3 262Z" fill="#99A4B3"/>
<path d="M12.7 233.7V193.1L12.8 193L13 193.1V233.7L12.8 233.8L12.7 233.7Z" fill="#99A4B3"/>
<path d="M30 236V193.1L30.1 193L30.2 193.1V236L30.1 236.1L30 236Z" fill="#99A4B3"/>
<path d="M47.3 238.3V193.1L47.4 193L47.5 193.1V238.3L47.4 238.4L47.3 238.3Z" fill="#99A4B3"/>
<path d="M64.5 240.6V193.1L64.7 193L64.8 193.1V240.6L64.7 240.7L64.5 240.6Z" fill="#99A4B3"/>
<path d="M81.8 242.9V193.1L81.9 193L82.1 193.1V242.9L81.9 243L81.8 242.9Z" fill="#99A4B3"/>
<path d="M99.1 245.2V193.1L99.2 193L99.3 193.1V245.2L99.2 245.3L99.1 245.2Z" fill="#99A4B3"/>
<path d="M116.4 247.5V193.1L116.5 193L116.6 193.1V247.5L116.5 247.6L116.4 247.5Z" fill="#99A4B3"/>
<path d="M133.6 249.8V193.1L133.8 193L133.9 193.1V249.8L133.8 249.9L133.6 249.8Z" fill="#99A4B3"/>
<path d="M150.9 252.1V193.1L151 193L151.1 193.1V252.1L151 252.2L150.9 252.1Z" fill="#99A4B3"/>
<path d="M168.2 254.4V193.1L168.3 193L168.4 193.1V254.4L168.3 254.5L168.2 254.4Z" fill="#99A4B3"/>
<path d="M185.5 256.7V193.1L185.6 193L185.7 193.1V256.7L185.6 256.8L185.5 256.7Z" fill="#99A4B3"/>
<path d="M202.7 267.1V177.3L202.8 177.2L203 177.3V267.1L202.8 267.2L202.7 267.1Z" fill="#99A4B3"/>
<path d="M220 267.1V177.3L220.1 177.2L220.2 177.3V267.1L220.1 267.2L220 267.1Z" fill="#99A4B3"/>
<path fill-rule="evenodd" clip-rule="evenodd" d="M12 222.2H0.5V11H201.9V12.6H203.3V16.2H201.9V19.7H173.4V21.2H170.1V19.7H64.1V45.5H65.9V54H61.3V56.9H58V21.4H7.10001V87.6H58V81.3H61.3V111.6H49.7V108.2H58V91H7.10001V108.2H15.2V111.6H7.10001V185.8H12.8V189.8H12V222.2Z" fill="#22576F"/>
<path fill-rule="evenodd" clip-rule="evenodd" d="M70.3 185.8V189.8H71V193.1H185.6V172.9H186.3V168.9H178.3V180.2H109.2V185.8H70.3Z" fill="#22576F"/>
<path d="M203.5 168.9H199.2V177.4H203.5V168.9Z" fill="#22576F"/>
<path fill-rule="evenodd" clip-rule="evenodd" d="M229.5 168.9V177.3H233.7V222.2H240.3V11H229.2V12.6H227.8V16.2H229.2V19.7H231.5V106H228.6V109.4H231.5V126.6H199.8V109.4H202.7V106H199.8V103.5H193.7V132.7H231.5V168.9H229.5Z" fill="#22576F"/>
<path fill-rule="evenodd" clip-rule="evenodd" d="M87.5 45.5V54H193.7V79H199.8V45.5H173.4V44.3H170.1V45.5H87.5Z" fill="#22576F"/>
<path d="M201.4 52.7V52.6H202.5H202.6V52.7V77.2V77.3H202.5H201.4H201.3V77.2V52.7V52.6H201.4V52.7H201.5V77.1H202.4V52.9H201.4V52.7H201.5H201.4Z" fill="#22576F"/>
<path d="M104.9 21.7H143.6V20.9H104.6L104.5 20.8L104.6 20.7H143.7H143.8L143.9 20.8V21.9L143.8 22H143.7H104.9L104.7 21.9L104.9 21.7Z" fill="#22576F"/>
<path d="M199.8 119.3H201.9L202.1 119.4L201.9 119.6H199.8L199.7 119.4L199.8 119.3Z" fill="#22576F"/>
<path d="M223 119.3H227.2L227.3 119.4L227.2 119.5H223L222.9 119.4L223 119.3ZM216.7 119.3H220.9L221 119.4L220.9 119.5H216.7L216.6 119.4L216.7 119.3ZM210.4 119.3H214.6L214.7 119.4L214.6 119.5H210.4L210.3 119.4L210.4 119.3ZM204 119.3H208.2L208.3 119.4L208.2 119.5H204L203.9 119.4L204 119.3Z" fill="#22576F"/>
<path d="M229.3 119.3H231.5L231.6 119.4L231.5 119.6H229.3L229.2 119.4L229.3 119.3Z" fill="#22576F"/>
<path d="M58 98.3H55.8L55.7 98.2L55.8 98H58L58.1 98.2L58 98.3Z" fill="#22576F"/>
<path d="M15.6 98.3H11.4L11.3 98.2L11.4 98.1H15.6L15.7 98.2L15.6 98.3ZM21.9 98.3H17.7L17.6 98.2L17.7 98.1H21.9L22 98.2L21.9 98.3ZM28.3 98.3H24L23.9 98.2L24 98.1H28.2L28.3 98.2V98.3ZM34.6 98.3H30.4L30.3 98.2L30.4 98.1H34.6L34.7 98.2L34.6 98.3ZM41 98.3H36.8L36.7 98.2L36.8 98.1H41L41.1 98.2L41 98.3ZM47.3 98.3H43.1L43 98.2L43.1 98.1H47.3L47.4 98.2L47.3 98.3ZM53.7 98.3H49.5L49.4 98.2L49.5 98.1H53.7L53.8 98.2L53.7 98.3Z" fill="#22576F"/>
<path d="M9.20001 98.3H7.10001L7 98.2L7.10001 98H9.20001L9.29999 98.2L9.20001 98.3Z" fill="#22576F"/>
<path d="M185.6 172.8H199.2L199.4 172.9L199.2 173H185.6L185.4 172.9L185.6 172.8Z" fill="#22576F"/>
<path d="M185.6 176H199.2L199.4 176.2L199.2 176.3H185.6L185.4 176.2L185.6 176Z" fill="#22576F"/>
<path d="M12 189.7H71L71.2 189.8L71 190H12L11.9 189.8L12 189.7Z" fill="#22576F"/>
<path d="M12 192.9H71L71.2 193.1L71 193.2H12L11.9 193.1L12 192.9Z" fill="#22576F"/>
<path d="M229.5 203.2V203.4H228.2L228.1 203.3V203.2V177.3V177.2H228.2H229.5H229.6V177.3V203.2V203.3L229.5 203.4V203.2H229.4V177.5H228.3V203.1H229.5V203.2H229.4H229.5Z" fill="#22576F"/>
<path d="M203.7 177.3C203.7 184.4 206.6 190.9 211.3 195.5C216 200.2 222.4 203.1 229.5 203.1L229.6 203.2L229.5 203.3C215.1 203.3 203.5 191.6 203.5 177.3L203.6 177.2L203.7 177.3Z" fill="#22576F"/>
<path d="M227.8 40.7V40.8H226.5H226.4V40.7V16.2V16.1H226.5H227.8H227.9V16.2V40.7V40.8H227.8V40.7H227.6V16.3H226.6V40.5H227.8V40.7H227.6H227.8Z" fill="#22576F"/>
<path d="M203.4 16.2C203.4 22.9 206.1 29 210.5 33.4C214.9 37.8 221 40.5 227.7 40.5L227.8 40.6L227.7 40.7C214.1 40.7 203.1 29.7 203.1 16.1L203.2 16L203.4 16.2Z" fill="#22576F"/>
<path d="M187 244V243.9H188.3L188.4 244V267.1V267.2H188.3H187H186.9V267.1V244L187 243.9V244H187.1V266.9H188.1V244.2H187V244H187.1H187Z" fill="#22576F"/>
<path d="M209.9 267.1C209.9 260.8 207.3 255 203.2 250.9C199.1 246.8 193.3 244.2 187 244.2L186.9 244.1L187 244C199.8 244 210.2 254.4 210.2 267.2L210.1 267.3L209.9 267.1Z" fill="#22576F"/>
<path d="M215.5 106C215.5 103.7 214.9 101.5 213.8 99.6V99.4H214C215.1 101.4 215.8 103.6 215.8 105.9L215.7 106H215.5Z" fill="#22576F"/>
<path d="M217.5 99.6C216.4 101.6 215.8 103.8 215.8 106L215.7 106.1L215.6 106C215.6 103.7 216.2 101.4 217.4 99.5H217.6L217.5 99.6Z" fill="#22576F"/>
<path d="M202.7 106L202.6 105.9L213.8 99.4L214 99.5L214.6 100.6V100.7L203.4 107.2H203.3H203.2L202.6 106.1V105.9L202.7 106H202.8L203.3 106.9L214.3 100.6L213.8 99.7L202.7 106.1V106H202.8H202.7Z" fill="#22576F"/>
<path d="M228.6 106L228.5 106.1L217.4 99.7L216.9 100.6L227.9 106.9L228.5 106H228.6L228.5 106.1L228.6 106L228.7 106.1L228.1 107.2H228H227.9L216.7 100.7L216.6 100.6L217.2 99.5L217.3 99.4H217.4L228.6 105.9L228.7 106V106.1L228.6 106Z" fill="#22576F"/>
<path d="M61.3 56.9V56.8L82.5 69L82.6 69.1V69.2L82 70.3H81.8L60.6 58.1L60.5 58V57.9L61.2 56.8H61.3V56.9H61.4L60.8 57.9L81.8 70L82.3 69.1L61.2 57L61.3 56.9H61.4H61.3Z" fill="#22576F"/>
<path d="M61.3 81.2C70 81.2 78 76.6 82.4 69H82.6V69.2C78.2 76.8 70.1 81.5 61.3 81.5L61.2 81.4L61.3 81.2Z" fill="#22576F"/>
<path d="M187 267.1V267.2H185.7V268.4H186.9V267.1H187V267.2V267.1H187.1V268.5V268.6H187H185.6H185.5L185.4 268.5V267.1L185.5 267L185.6 266.9H187L187.1 267V267.1H187Z" fill="#22576F"/>
<path d="M210 267.1V266.9H233.7L233.8 267V267.1V268.5V268.6H233.7H210L209.9 268.5V267.1L210 267V266.9V267.1H210.2V268.4H233.6V267.2H210V267.1H210.2H210Z" fill="#22576F"/>
<path d="M199.8 68.4H201.4L201.5 68.6L201.4 68.7H199.8L199.7 68.6L199.8 68.4Z" fill="#22576F"/>
<path d="M202.5 68.4H231.5L231.6 68.6L231.5 68.7H202.5L202.4 68.6L202.5 68.4Z" fill="#22576F"/>
<path d="M199.8 75.6H201.4L201.5 75.8L201.4 75.9H199.8L199.7 75.8L199.8 75.6Z" fill="#22576F"/>
<path d="M202.5 75.6H231.5L231.6 75.8L231.5 75.9H202.5L202.4 75.8L202.5 75.6Z" fill="#22576F"/>
<path d="M199.8 61.2H201.4L201.5 61.4L201.4 61.5H199.8L199.7 61.4L199.8 61.2Z" fill="#22576F"/>
<path d="M202.5 61.2H231.5L231.6 61.4L231.5 61.5H202.5L202.4 61.4L202.5 61.2Z" fill="#22576F"/>
<path d="M199.8 54H201.4L201.5 54.2L201.4 54.3H199.8L199.7 54.2L199.8 54Z" fill="#22576F"/>
<path d="M202.5 54H231.5L231.6 54.2L231.5 54.3H202.5L202.4 54.2L202.5 54Z" fill="#22576F"/>
<path d="M143.6 45.5V19.7L143.7 19.6L143.9 19.7V45.5L143.7 45.7L143.6 45.5Z" fill="#22576F"/>
<path d="M129.2 45.5V21.9L129.3 21.7L129.5 21.9V45.5L129.3 45.7L129.2 45.5Z" fill="#22576F"/>
<path d="M129.2 20.8V19.7L129.3 19.6L129.5 19.7V20.8L129.3 20.9L129.2 20.8Z" fill="#22576F"/>
<path d="M122 45.5V21.9L122.1 21.7L122.3 21.9V45.5L122.1 45.7L122 45.5Z" fill="#22576F"/>
<path d="M122 20.8V19.7L122.1 19.6L122.3 19.7V20.8L122.1 20.9L122 20.8Z" fill="#22576F"/>
<path d="M114.8 45.5V21.9L115 21.7L115.1 21.9V45.5L115 45.7L114.8 45.5Z" fill="#22576F"/>
<path d="M114.8 20.8V19.7L115 19.6L115.1 19.7V20.8L115 20.9L114.8 20.8Z" fill="#22576F"/>
<path d="M107.6 34V32.6L107.8 32.5L107.9 32.6V34L107.8 34.1L107.6 34Z" fill="#22576F"/>
<path d="M107.6 31.3V21.9L107.8 21.7L107.9 21.9V31.3L107.8 31.4L107.6 31.3Z" fill="#22576F"/>
<path d="M107.6 20.8V19.7L107.8 19.6L107.9 19.7V20.8L107.8 20.9L107.6 20.8Z" fill="#22576F"/>
<path d="M104.4 19.7L107.5 31.1L109.9 31.8L110 31.9V32L106 33.3L108.2 33.9L108.3 34L111.3 45.5L111.2 45.7L111.1 45.6L108 34.2L105.6 33.5L105.5 33.3L105.6 33.2L109.5 31.9L107.3 31.3L107.2 31.2L104.2 19.7L104.3 19.6L104.4 19.7Z" fill="#22576F"/>
<path d="M136.4 45.5V21.9L136.5 21.7L136.7 21.9V45.5L136.5 45.7L136.4 45.5Z" fill="#22576F"/>
<path d="M136.4 20.8V19.7L136.5 19.6L136.7 19.7V20.8L136.5 20.9L136.4 20.8Z" fill="#22576F"/>
<path d="M170.1 21.2V21.4H147.2V22.4H170V21.2H170.1V21.4V21.2H170.2V22.5V22.6H170.1H147.1H147L146.9 22.5V21.2H147L147.1 21.1H170.1L170.2 21.2H170.1Z" fill="#22576F"/>
<path d="M147.2 21.2C147.2 27.5 149.8 33.3 153.9 37.4C158 41.5 163.8 44.1 170.1 44.1L170.2 44.2L170.1 44.3C157.3 44.3 146.9 33.9 146.9 21.1L147 21L147.2 21.2Z" fill="#22576F"/>
<path d="M65.9 54V53.9L84.5 64.6L85 63.7L66.5 53.1L66 54H65.9V53.9V54L65.8 53.9L66.4 52.8H66.6L85.3 63.6V63.7V63.8L84.7 64.8L84.6 64.9H84.5L65.8 54.1L65.7 54L65.8 53.9L65.9 54Z" fill="#22576F"/>
<path d="M84.5 64.7C86.4 61.4 87.4 57.7 87.4 54L87.5 53.9L87.6 54C87.6 57.8 86.6 61.6 84.7 64.9H84.5V64.7Z" fill="#22576F"/>
<path d="M15.2 128.8V128.7H16.3V111.7H15.3V128.8H15.2V128.7V128.8H15.1V111.6V111.5L15.2 111.4H16.5V111.5L16.6 111.6V128.8L16.5 128.9V129H15.2L15.1 128.9V128.8H15.2Z" fill="#22576F"/>
<path d="M48.5 128.8V128.7H49.6V111.7H48.6V128.8H48.5V128.7V128.8H48.4V111.6V111.5L48.5 111.4H49.7L49.8 111.5L49.9 111.6V128.8L49.8 128.9L49.7 129H48.5L48.4 128.9V128.8H48.5Z" fill="#22576F"/>
<path d="M15.2 128.7C19.9 128.7 24.2 126.8 27.3 123.7C30.4 120.6 32.3 116.3 32.3 111.6L32.4 111.5L32.5 111.6C32.5 121.2 24.7 129 15.1 129L15 128.9L15.2 128.7Z" fill="#22576F"/>
<path d="M32.6 111.6C32.6 116.3 34.5 120.6 37.6 123.7C40.7 126.8 45 128.7 49.7 128.7L49.8 128.8L49.7 128.9C40.1 128.9 32.3 121.1 32.3 111.5L32.4 111.4L32.6 111.6Z" fill="#22576F"/>
<path d="M199.8 103.5L199.7 103.4L220.8 91.2L220.3 90.4L199.3 102.5L199.9 103.4L199.8 103.5L199.7 103.4L199.8 103.5L199.7 103.6L199 102.5V102.4L199.1 102.3L220.3 90.1H220.4H220.5L221.1 91.2V91.3L221 91.4L199.9 103.6H199.7L199.8 103.5Z" fill="#22576F"/>
<path d="M220.9 91.3C216.6 83.8 208.5 79.1 199.8 79.1L199.7 79L199.8 78.9C208.6 78.9 216.7 83.6 221.1 91.2V91.4L220.9 91.3Z" fill="#22576F"/>
<path d="M185.6 172.9V172.8H187H187.1V172.9V176.2L187 176.3H185.6L185.5 176.2H185.4V172.9L185.5 172.8H185.6V172.9H185.7V176H186.9V173H185.6V172.9H185.7H185.6Z" fill="#22576F"/>
<path d="M197.8 172.9V172.8H199.2H199.3L199.4 172.9V176.2H199.3L199.2 176.3H197.8L197.7 176.2V172.9V172.8H197.8V172.9H197.9V176H199.1V173H197.8V172.9H197.9H197.8Z" fill="#22576F"/>
<path d="M187 175.3H197.8L197.9 175.4L197.8 175.6H187L186.9 175.4L187 175.3Z" fill="#22576F"/>
<path d="M187 174.6H197.8L197.9 174.7L197.8 174.8H187L186.9 174.7L187 174.6Z" fill="#22576F"/>
<path d="M186.3 168.7H199.2L199.4 168.9L199.2 169H186.3L186.2 168.9L186.3 168.7Z" fill="#22576F"/>
<path d="M12 189.8V189.7H13.5H13.6V189.8V193.1V193.2H13.5H12H11.9V193.1V189.8V189.7H12V189.8H12.2V192.9H13.3V190H12V189.8H12.2H12Z" fill="#22576F"/>
<path d="M69.6 189.8V189.7H71H71.1L71.2 189.8V193.1L71.1 193.2H71H69.6H69.5V193.1V189.8V189.7H69.6V189.8H69.7V192.9H70.9V190H69.6V189.8H69.7H69.6Z" fill="#22576F"/>
<path d="M28.6 189.8V189.7H30H30.1V189.8V193.1V193.2H30H28.6H28.5V193.1V189.8V189.7H28.6V189.8H28.7V192.9H29.9V190H28.6V189.8H28.7H28.6Z" fill="#22576F"/>
<path d="M13.5 192.2H28.6L28.7 192.4L28.6 192.5H13.5L13.3 192.4L13.5 192.2Z" fill="#22576F"/>
<path d="M13.5 191.5H28.6L28.7 191.6L28.6 191.8H13.5L13.3 191.6L13.5 191.5Z" fill="#22576F"/>
<path d="M30 192.2H69.6L69.7 192.4L69.6 192.5H30L29.9 192.4L30 192.2Z" fill="#22576F"/>
<path d="M30 191.5H69.6L69.7 191.6L69.6 191.8H30L29.9 191.6L30 191.5Z" fill="#22576F"/>
<path d="M12.7 185.7H70.3L70.5 185.8L70.3 185.9H12.7L12.6 185.8L12.7 185.7Z" fill="#22576F"/>
<path d="M163.9 171.6V171.7H123.7V180.1H163.8V171.6H163.9V171.7V171.6H164V180.2V180.3H163.9H123.6H123.5V180.2V171.6V171.5L123.6 171.4H163.9L164 171.5V171.6H163.9Z" fill="#22576F"/>
<path d="M8.5 138.3V138.2H25.8H25.9V138.3V184.3V184.4L25.8 184.5H8.5L8.39999 184.4V184.3V138.3V138.2H8.5V138.3H8.60001V184.2H25.7V138.4H8.5V138.3H8.60001H8.5Z" fill="#22576F"/>
<path d="M13.1 152.7V152.6H14.2H14.3V152.7V170L14.2 170.1H13.1L13 170V152.7V152.6H13.1V152.7H13.2V169.8H14.1V152.8H13.1V152.7H13.2H13.1Z" fill="#22576F"/>
<path d="M19.4 154V153.9H23.8L23.9 154V168.4L23.8 168.5H19.4H19.3V168.4V154V153.9H19.4V154H19.6V168.3H23.6V154.1H19.4V154H19.6H19.4Z" fill="#22576F"/>
<path d="M13.1 158.7H11.6V163.9H13.1L13.2 164L13.1 164.1H11.5H11.4V164V158.6V158.5H11.5H13.1L13.2 158.6L13.1 158.7Z" fill="#22576F"/>
<path d="M32.3 155.1H25.8L25.7 155L25.8 154.9H32.3L32.4 155L32.3 155.1Z" fill="#22576F"/>
<path d="M14.2 163.9H15.7V158.7H14.2L14.1 158.6L14.2 158.5H15.8H15.9V158.6V164V164.1H15.8H14.2L14.1 164L14.2 163.9Z" fill="#22576F"/>
<path d="M32.3 167.7H25.8L25.7 167.6L25.8 167.5H32.3L32.4 167.6L32.3 167.7Z" fill="#22576F"/>
<path d="M32.3 154.3V154.2H33.4L33.5 154.3V168.3L33.4 168.4V168.5H32.3L32.2 168.4L32.1 168.3V154.3L32.2 154.2H32.3V154.3H32.4V168.2H33.2V154.4H32.3V154.3H32.4H32.3Z" fill="#22576F"/>
<path d="M20.7 150.4V150.5C20.5 150.6 20.4 150.7 20.4 151V151.1C20.5 151.3 20.6 151.4 20.9 151.4H21C21.5 151.3 22.1 151.2 22.7 151.1C22.9 151.1 23 150.9 23 150.8C23 150.7 22.9 150.5 22.8 150.5C22.5 150.4 22.2 150.3 21.8 150.3C21.5 150.3 21.1 150.4 20.8 150.5L20.7 150.4V150.3C21.1 150.2 21.4 150.1 21.8 150.1C22.2 150.1 22.5 150.2 22.9 150.3C23.1 150.4 23.3 150.6 23.3 150.8C23.3 151.1 23.1 151.4 22.7 151.4C22.2 151.4 21.6 151.5 21.1 151.7H20.9C20.6 151.7 20.3 151.5 20.2 151.2V151C20.2 150.7 20.4 150.4 20.7 150.3V150.4Z" fill="#22576F"/>
<path d="M144.3 91.4V91.5H120V107.1H144.2V91.4H144.3V91.5V91.4H144.4V107.2V107.3H144.3H119.9H119.8L119.7 107.2V91.4L119.8 91.3H119.9H144.3H144.4V91.4H144.3Z" fill="#22576F"/>
<path d="M165.2 64.1H165.1C165.1 60.9 167.7 58.2 171 58.2C174.2 58.2 176.9 60.8 176.9 64.1C176.9 67.3 174.3 70 171 70C167.8 70 165.1 67.4 165.1 64.1H165.2H165.3C165.3 65.7 165.9 67.1 166.9 68.1C167.9 69.1 169.3 69.7 170.9 69.7C172.5 69.7 173.9 69.1 174.9 68.1C175.9 67.1 176.5 65.7 176.5 64.1C176.5 62.5 175.9 61.1 174.9 60.1C173.9 59.1 172.5 58.5 170.9 58.5C169.3 58.5 167.9 59.1 166.9 60.1C165.9 61.1 165.3 62.5 165.3 64.1H165.2Z" fill="#22576F"/>
<path d="M169.5 64.1H169.4C169.4 63.2 170.1 62.5 171 62.5C171.9 62.5 172.6 63.2 172.6 64.1C172.6 65 171.9 65.7 171 65.7C170.1 65.7 169.4 65 169.4 64.1H169.5H169.6C169.6 64.8 170.2 65.5 171 65.5C171.7 65.5 172.4 64.9 172.4 64.1C172.4 63.4 171.8 62.7 171 62.7C170.3 62.7 169.6 63.3 169.6 64.1H169.5Z" fill="#22576F"/>
<path d="M176.7 64.2H172.4L172.3 64.1L172.4 63.9H176.7L176.8 64.1L176.7 64.2Z" fill="#22576F"/>
<path d="M169.5 64.2H165.2L165.1 64.1L165.2 63.9H169.5L169.6 64.1L169.5 64.2Z" fill="#22576F"/>
<path d="M170.8 69.8V65.5L171 65.4L171.1 65.5V69.8L171 69.9L170.8 69.8Z" fill="#22576F"/>
<path d="M170.8 62.6V58.3L171 58.2L171.1 58.3V62.6L171 62.7L170.8 62.6Z" fill="#22576F"/>
<path d="M163.8 56.9V56.7H178.2L178.3 56.8V56.9V77V77.1L178.2 77.2H163.8L163.7 77.1L163.6 77V56.9L163.7 56.8L163.8 56.7V56.9H163.9V76.9H178V57H163.8V56.9H163.9H163.8Z" fill="#22576F"/>
<path d="M162.3 55.6H101.9L101.7 55.4L101.9 55.3H162.3L162.4 55.4L162.3 55.6Z" fill="#22576F"/>
<path d="M101.7 78.5V55.4L101.9 55.3L102 55.4V78.5L101.9 78.6L101.7 78.5Z" fill="#22576F"/>
<path d="M162.2 78.5V55.4L162.3 55.3L162.4 55.4V78.5L162.3 78.6L162.2 78.5Z" fill="#22576F"/>
<path d="M159.3 78.5V59L159.4 58.9L159.6 59V78.5L159.4 78.6L159.3 78.5Z" fill="#22576F"/>
<path d="M162.3 58.4H101.9L101.7 58.3L101.9 58.2H162.3L162.4 58.3L162.3 58.4Z" fill="#22576F"/>
<path d="M162.3 78.6H101.9L101.7 78.5L101.9 78.3H162.3L162.4 78.5L162.3 78.6Z" fill="#22576F"/>
<path d="M141.1 78.5V59.7L141.2 59.6L141.3 59.7V78.5L141.2 78.6L141.1 78.5Z" fill="#22576F"/>
<path d="M122.8 78.5V59.7L123 59.6L123.1 59.7V78.5L123 78.6L122.8 78.5Z" fill="#22576F"/>
<path d="M159.4 59.9H104.7L104.6 59.7L104.7 59.6H159.4L159.6 59.7L159.4 59.9Z" fill="#22576F"/>
<path d="M101.9 58.9H104.7L104.9 59L104.7 59.1H101.9L101.7 59L101.9 58.9Z" fill="#22576F"/>
<path d="M162.3 59.1H159.4L159.3 59L159.4 58.9H162.3L162.4 59L162.3 59.1Z" fill="#22576F"/>
<path d="M104.6 78.5V59L104.7 58.9L104.9 59V78.5L104.7 78.6L104.6 78.5Z" fill="#22576F"/>
<path d="M141.2 133C142.5 137.8 146.8 140.9 151.5 140.9C152.4 140.9 153.3 140.8 154.3 140.5C159.1 139.2 162.2 134.9 162.2 130.2C162.2 129.3 162.1 128.4 161.8 127.4L161.9 127.2L162.1 127.3C162.4 128.2 162.5 129.2 162.5 130.1C162.5 134.9 159.3 139.3 154.4 140.6C153.5 140.9 152.5 141 151.6 141C146.8 141 142.4 137.8 141.1 132.9L141.2 132.7V133Z" fill="#22576F"/>
<path d="M144 132.3C144.9 135.8 148.1 138.1 151.5 138.1C152.2 138.1 152.8 138 153.5 137.8C157 136.9 159.3 133.7 159.3 130.3C159.3 129.6 159.2 129 159 128.3L159.1 128.1L159.3 128.2C159.5 128.9 159.6 129.6 159.6 130.3C159.6 133.9 157.2 137.1 153.6 138.1C152.9 138.3 152.2 138.4 151.5 138.4C147.9 138.4 144.7 136 143.7 132.4L143.8 132.2L144 132.3Z" fill="#22576F"/>
<path d="M143.7 132.4L141 121.9V121.8L141.2 121.9L144 132.3L143.9 132.5L143.7 132.4Z" fill="#22576F"/>
<path d="M156.5 117.8L159.3 128.2L159.2 128.4L159 128.3L156.3 117.8V117.7L156.5 117.8Z" fill="#22576F"/>
<path d="M141 133.1L138.2 122.7L138.3 122.5L138.4 122.6L141.2 133L141.1 133.2L141 133.1Z" fill="#22576F"/>
<path d="M138.3 122.5L159.1 116.9L159.3 117L159.2 117.2L138.3 122.8L138.2 122.7L138.3 122.5Z" fill="#22576F"/>
<path d="M159.3 117L162.1 127.5L162 127.6L161.8 127.5L159 117.1L159.1 116.9L159.3 117Z" fill="#22576F"/>
<path d="M143.6 130.9C144.5 134.4 147.7 136.7 151.1 136.7C151.8 136.7 152.4 136.6 153.1 136.4C156.6 135.5 158.9 132.3 158.9 128.9C158.9 128.2 158.8 127.6 158.6 126.9L158.7 126.7L158.9 126.8C159.1 127.5 159.2 128.2 159.2 128.9C159.2 132.5 156.8 135.7 153.2 136.7C152.5 136.9 151.8 137 151.1 137C147.5 137 144.3 134.6 143.3 131L143.4 130.8L143.6 130.9Z" fill="#22576F"/>
<path d="M158.9 177.3V177.5H128.6L128.5 177.4V177.3V176.6V176.5H128.6H158.9L159 176.6V177.3L158.9 177.4V177.5V177.3H158.7V176.7H128.8V177.2H158.9V177.3H158.7H158.9Z" fill="#22576F"/>
<path d="M139.3 176.6V173.7V173.6H139.4H148.1L148.2 173.7V176.6L148.1 176.7L147.9 176.6V173.9H139.5V176.6L139.4 176.7L139.3 176.6Z" fill="#22576F"/>
<path d="M148.2 177.3V178.8L148.1 178.9H139.4H139.3V178.8V177.3L139.4 177.2L139.5 177.3V178.6H147.9V177.3L148.1 177.2L148.2 177.3Z" fill="#22576F"/>
<path d="M73.9 177.3C76 179.4 78.7 180.4 81.4 180.4C84.1 180.4 86.9 179.4 88.9 177.3C91 175.2 92 172.5 92 169.8C92 167.1 91 164.3 88.9 162.3V162.1H89.1C91.2 164.2 92.3 167 92.3 169.8C92.3 172.6 91.2 175.4 89.1 177.5C87 179.6 84.2 180.7 81.4 180.7C78.6 180.7 75.8 179.6 73.7 177.5V177.3H73.9Z" fill="#22576F"/>
<path d="M75.9 175.3C77.4 176.8 79.4 177.6 81.4 177.6C83.4 177.6 85.4 176.8 86.9 175.3C88.4 173.8 89.2 171.8 89.2 169.8C89.2 167.8 88.4 165.8 86.9 164.3V164.1H87.1C88.7 165.7 89.5 167.7 89.5 169.8C89.5 171.9 88.7 173.9 87.1 175.5C85.5 177.1 83.5 177.9 81.4 177.9C79.3 177.9 77.3 177.1 75.7 175.5V175.3H75.9Z" fill="#22576F"/>
<path d="M86.9 164.3L79.3 156.6V156.5H79.5L87.1 164.1V164.3H86.9Z" fill="#22576F"/>
<path d="M68.3 167.7L75.9 175.3V175.5H75.7L68.1 167.8V167.7H68.3Z" fill="#22576F"/>
<path d="M89 162.2L81.3 154.6V154.4H81.5L89.1 162.1V162.2H89Z" fill="#22576F"/>
<path d="M81.5 154.6L66.2 169.9H66V169.7L81.3 154.4H81.5V154.6Z" fill="#22576F"/>
<path d="M66.2 169.7L73.9 177.3V177.5H73.7L66 169.9V169.7H66.2Z" fill="#22576F"/>
<path d="M74.9 174.3C76.4 175.8 78.4 176.6 80.4 176.6C82.4 176.6 84.4 175.8 85.9 174.3C87.4 172.8 88.2 170.8 88.2 168.8C88.2 166.8 87.4 164.8 85.9 163.3V163.1H86.1C87.7 164.7 88.5 166.7 88.5 168.8C88.5 170.9 87.7 172.9 86.1 174.5C84.5 176.1 82.5 176.9 80.4 176.9C78.3 176.9 76.3 176.1 74.7 174.5V174.3H74.9Z" fill="#22576F"/>
<path d="M102.3 127.5C102.1 128.4 101.9 129.4 101.9 130.3C101.9 135 105 139.3 109.8 140.6C110.7 140.8 111.7 141 112.6 141C117.3 141 121.6 137.9 122.9 133.1L123.1 133L123.2 133.2C121.9 138.1 117.5 141.3 112.7 141.3C111.8 141.3 110.8 141.2 109.9 140.9C105 139.6 101.8 135.2 101.8 130.4C101.8 129.5 101.9 128.5 102.2 127.6L102.4 127.5H102.3Z" fill="#22576F"/>
<path d="M105.1 128.3C104.9 129 104.8 129.7 104.8 130.3C104.8 133.7 107.1 136.9 110.6 137.8C111.3 138 112 138.1 112.6 138.1C116 138.1 119.2 135.8 120.1 132.3L120.3 132.2L120.4 132.4C119.4 136 116.2 138.4 112.6 138.4C111.9 138.4 111.2 138.3 110.5 138.1C106.9 137.1 104.5 133.9 104.5 130.3C104.5 129.6 104.6 128.9 104.8 128.2L105 128.1L105.1 128.3Z" fill="#22576F"/>
<path d="M120.2 132.3L123 121.9L123.1 121.8L123.2 121.9L120.4 132.4L120.3 132.5L120.2 132.3Z" fill="#22576F"/>
<path d="M107.9 117.8L105.1 128.3L105 128.4L104.9 128.2L107.7 117.8L107.8 117.7L107.9 117.8Z" fill="#22576F"/>
<path d="M123 133L125.8 122.6L125.9 122.5L126 122.7L123.2 133.1L123 133.2V133Z" fill="#22576F"/>
<path d="M125.8 122.8L105 117.2L104.9 117L105.1 116.9L125.9 122.5L126 122.7L125.8 122.8Z" fill="#22576F"/>
<path d="M105.1 117.1L102.3 127.5L102.2 127.6L102.1 127.5L104.9 117L105.1 116.9V117.1Z" fill="#22576F"/>
<path d="M105.5 126.9C105.3 127.6 105.2 128.3 105.2 128.9C105.2 132.3 107.5 135.5 111 136.4C111.7 136.6 112.4 136.7 113 136.7C116.4 136.7 119.6 134.4 120.5 130.9L120.7 130.8L120.8 131C119.8 134.6 116.6 137 113 137C112.3 137 111.6 136.9 110.9 136.7C107.3 135.7 104.9 132.5 104.9 128.9C104.9 128.2 105 127.5 105.2 126.8L105.4 126.7L105.5 126.9Z" fill="#22576F"/>
<path d="M16 75.2H12.6L12.5 75.1L12.6 74.9H16L16.2 75.1L16 75.2Z" fill="#22576F"/>
<path d="M16 74.9L16.1 74.8L16.2 74.7L16.3 74.8C16.3 75 16.1 75.2 15.9 75.2L15.8 75.1L16 74.9Z" fill="#22576F"/>
<path d="M16.2 74.4L16.1 74.3L16 74.2L16.1 74.1C16.3 74.1 16.5 74.3 16.5 74.5L16.4 74.6L16.2 74.4Z" fill="#22576F"/>
<path d="M16.2 74.8V74.4L16.3 74.3L16.4 74.4V74.8L16.3 74.9L16.2 74.8Z" fill="#22576F"/>
<path d="M12.6 74.1L12.8 74.2L12.9 74.3L12.8 74.4C12.7 74.4 12.5 74.3 12.4 74.2V74L12.6 74.1Z" fill="#22576F"/>
<path d="M12.8 75L12.6 75.1H12.4V74.9C12.5 74.8 12.6 74.7 12.8 74.7L12.9 74.8L12.8 75Z" fill="#22576F"/>
<path d="M14.4 75H12.8L12.7 74.8L12.8 74.7H14.4L14.6 74.8L14.4 75Z" fill="#22576F"/>
<path d="M12.8 74.2H14.4L14.6 74.3L14.4 74.5H12.8L12.7 74.3L12.8 74.2Z" fill="#22576F"/>
<path d="M14.5 74.6L14.3 74.4V74.3H14.5L14.7 74.4V74.6H14.5Z" fill="#22576F"/>
<path d="M14.5 74.7V74.5L14.6 74.4L14.7 74.5V74.7L14.6 74.8L14.5 74.7Z" fill="#22576F"/>
<path d="M12.4 74H12.6L12.7 74.1L12.6 74.2C12.5 74.2 12.4 74.2 12.3 74.1L12.2 73.9L12.4 74Z" fill="#22576F"/>
<path d="M12.6 75.2H12.4L12.2 75.1L12.3 74.9C12.4 74.9 12.5 74.8 12.6 74.8L12.7 74.9L12.6 75.2Z" fill="#22576F"/>
<path d="M12.6 74H16L16.2 74.1L16 74.3H12.6L12.5 74.1L12.6 74Z" fill="#22576F"/>
<path d="M12.5 74.2C12.4 74.1 12.2 74 12.1 74C12 74 11.8 74 11.7 74.1C11.6 74.2 11.5 74.4 11.5 74.5C11.5 74.6 11.5 74.8 11.6 74.9C11.7 75 11.9 75.1 12 75.1C12.1 75.1 12.3 75.1 12.4 75H12.6V75.2C12.4 75.3 12.2 75.4 12.1 75.4C11.9 75.4 11.7 75.3 11.5 75.1C11.4 74.9 11.3 74.7 11.3 74.6C11.3 74.4 11.4 74.2 11.6 74C11.8 73.9 12 73.8 12.1 73.8C12.3 73.8 12.5 73.9 12.7 74.1V74.3L12.5 74.2Z" fill="#22576F"/>
<path d="M12.5 74.3C12.4 74.2 12.3 74.2 12.2 74.2C12.1 74.2 12 74.2 11.9 74.3C11.8 74.4 11.8 74.5 11.8 74.6C11.8 74.7 11.8 74.8 11.9 74.9C12 75 12.1 75 12.2 75C12.3 75 12.4 75 12.5 74.9H12.7V75.1C12.6 75.2 12.4 75.3 12.2 75.3C12 75.3 11.8 75.2 11.7 75.1C11.6 75 11.5 74.8 11.5 74.6C11.5 74.4 11.6 74.2 11.7 74.1C11.8 74 12 73.9 12.2 73.9C12.4 73.9 12.6 74 12.7 74.1V74.3H12.5Z" fill="#22576F"/>
<path d="M14.3 74.8L14.5 74.6H14.7V74.8L14.5 74.9H14.3V74.8Z" fill="#22576F"/>
<path d="M22.9 67.3H24.3L24.4 67.4L24.3 67.5H22.9L22.8 67.4L22.9 67.3Z" fill="#22576F"/>
<path d="M24.3 81.9H22.9L22.8 81.8L22.9 81.7H24.3L24.4 81.8L24.3 81.9Z" fill="#22576F"/>
<path d="M23.7 79.8C23.9 79.8 24.1 79.6 24.1 79.4L24.2 79.3L24.3 79.4C24.3 79.8 24 80 23.6 80L23.5 79.9L23.7 79.8Z" fill="#22576F"/>
<path d="M16.5 78.6C18.8 79.3 21.3 79.7 23.7 79.8L23.8 79.9L23.7 80C21.2 79.9 18.8 79.5 16.4 78.8L16.3 78.6H16.5Z" fill="#22576F"/>
<path d="M16.5 70.6C14.9 71.1 13.7 72.5 13.5 74.2L13.4 74.3L13.3 74.2C13.5 72.4 14.7 70.9 16.4 70.4L16.6 70.5L16.5 70.6Z" fill="#22576F"/>
<path d="M13.5 75C13.7 76.7 14.8 78.1 16.5 78.6L16.6 78.8L16.4 78.9C14.7 78.4 13.4 76.9 13.3 75.1L13.4 75H13.5Z" fill="#22576F"/>
<path d="M23.7 69.3C21.2 69.4 18.8 69.8 16.5 70.5L16.3 70.4L16.4 70.2C18.8 69.5 21.2 69.1 23.7 69L23.8 69.1L23.7 69.3Z" fill="#22576F"/>
<path d="M24.1 69.7C24.1 69.5 23.9 69.3 23.7 69.3L23.6 69.2L23.7 69.1C24.1 69.1 24.4 69.4 24.4 69.8L24.3 69.9L24.1 69.7Z" fill="#22576F"/>
<path d="M24.4 69.7V79.4L24.3 79.6L24.1 79.4V69.7L24.3 69.6L24.4 69.7Z" fill="#22576F"/>
<path d="M7.10001 81.8V81.7H24.3C25.4 81.7 26.3 80.8 26.3 79.7V69.6C26.3 68.5 25.4 67.6 24.3 67.6H7.20001V81.9H7.10001V81.8H7V67.4V67.3H7.10001H24.3C25.6 67.3 26.6 68.3 26.6 69.6V79.7C26.6 81 25.6 82 24.3 82H7.10001V81.8Z" fill="#22576F"/>
<path d="M14.7 74C14.5 74 14.4 74.1 14.2 74.2H14V74C14.2 73.8 14.4 73.7 14.6 73.7L14.7 73.8V74Z" fill="#22576F"/>
<path d="M14.3 75C14.4 75.1 14.6 75.2 14.8 75.2L14.9 75.3L14.8 75.4C14.6 75.4 14.3 75.3 14.2 75.1V74.9L14.3 75Z" fill="#22576F"/>
<path d="M14.7 75.2C14.9 75.2 15 75.1 15.2 75H15.4V75.2C15.2 75.4 15 75.5 14.8 75.5L14.7 75.4V75.2Z" fill="#22576F"/>
<path d="M15.2 74.2C15.1 74.1 14.9 74 14.7 74L14.6 73.9L14.7 73.8C14.9 73.8 15.2 73.9 15.3 74.1V74.3L15.2 74.2Z" fill="#22576F"/>
<path d="M23.2 79.4C23.3 79.4 23.4 79.3 23.4 79.2L23.5 79.1L23.6 79.2C23.6 79.5 23.4 79.7 23.1 79.7L23 79.6L23.2 79.4Z" fill="#22576F"/>
<path d="M17.6 78.9C19.1 79.2 20.6 79.4 22.1 79.4C22.5 79.4 22.8 79.4 23.2 79.4L23.3 79.5L23.2 79.6C22.8 79.6 22.4 79.6 22.1 79.6C20.6 79.6 19.1 79.4 17.6 79.1L17.5 79L17.6 78.9Z" fill="#22576F"/>
<path d="M16.5 70.5C16.4 70.5 16.3 70.6 16.1 70.6L15.9 70.5L16 70.3C16.1 70.3 16.3 70.2 16.4 70.2L16.6 70.3L16.5 70.5Z" fill="#22576F"/>
<path d="M16.2 78.5C16.3 78.5 16.4 78.6 16.6 78.6L16.7 78.8L16.5 78.9C16.4 78.9 16.2 78.8 16.1 78.8L16 78.6L16.2 78.5Z" fill="#22576F"/>
<path d="M23.2 69.8C22.8 69.8 22.5 69.8 22.1 69.8C20.6 69.8 19.1 70 17.6 70.3L17.5 70.2L17.6 70.1C19.1 69.8 20.6 69.6 22.1 69.6C22.5 69.6 22.9 69.6 23.2 69.6L23.3 69.7L23.2 69.8Z" fill="#22576F"/>
<path d="M23.4 70C23.4 69.9 23.3 69.8 23.2 69.8L23.1 69.7L23.2 69.6C23.5 69.6 23.7 69.8 23.7 70.1L23.6 70.2L23.4 70Z" fill="#22576F"/>
<path d="M23.4 79.2V70L23.5 69.9L23.7 70V79.2L23.5 79.3L23.4 79.2Z" fill="#22576F"/>
<path d="M17.8 38C18.7 38.3 19.7 38.4 20.6 38.4L20.7 38.5L20.6 38.6C19.6 38.6 18.7 38.5 17.7 38.2L17.6 38H17.8Z" fill="#22576F"/>
<path d="M15.6 36.9C16.3 37.4 17 37.7 17.8 38L17.9 38.2L17.7 38.3C16.9 38.1 16.1 37.7 15.4 37.2V37L15.6 36.9Z" fill="#22576F"/>
<path d="M14.9 36.3C15.1 36.5 15.3 36.7 15.6 36.9V37.1H15.4C15.2 36.9 14.9 36.7 14.7 36.5V36.3H14.9Z" fill="#22576F"/>
<path d="M20.6 38.4C21.6 38.4 22.5 38.3 23.4 38C24.2 37.8 24.9 37.4 25.6 36.9C26.2 36.4 26.8 35.8 27.2 35.2C27.5 34.6 27.7 34 27.7 33.4C27.7 32.8 27.5 32.1 27.2 31.6C26.8 30.9 26.3 30.3 25.6 29.9C24.9 29.4 24.2 29.1 23.4 28.8C22.5 28.5 21.5 28.4 20.6 28.4C19.6 28.4 18.7 28.5 17.8 28.8C17 29 16.3 29.4 15.6 29.9C15.4 30.1 15.1 30.3 14.9 30.5L14.8 30.4H14.9V36.6L14.8 36.7L14.7 36.6V30.4V30.3C14.9 30.1 15.1 29.9 15.4 29.7C16.1 29.2 16.9 28.8 17.7 28.6C18.6 28.3 19.6 28.2 20.6 28.2C21.6 28.2 22.5 28.3 23.5 28.6C24.3 28.8 25.1 29.2 25.8 29.7C26.5 30.2 27 30.8 27.4 31.5C27.7 32.1 27.9 32.8 27.9 33.4C27.9 34.1 27.7 34.8 27.4 35.3C27 36 26.4 36.6 25.8 37.1C25.1 37.6 24.3 38 23.5 38.2C22.6 38.5 21.6 38.6 20.6 38.6L20.5 38.5L20.6 38.4Z" fill="#22576F"/>
<path d="M11.5 37.2C13.8 37.3 16.1 37.6 18.4 38.1L18.5 38.2L18.4 38.3C16.1 37.9 13.9 37.6 11.6 37.4L11.5 37.3V37.2Z" fill="#22576F"/>
<path d="M12.3 31.3H12.2C12.1 30.8 11.9 30.3 11.7 29.8C11.4 29.3 11.1 28.8 10.6 28.5C10.5 28.4 10.3 28.4 10.2 28.4H10.1L8 28.8L7.89999 29V37.7L8 37.9L10.1 38.3H10.2C10.4 38.3 10.5 38.3 10.6 38.2C11.1 37.9 11.5 37.4 11.7 36.9C11.9 36.4 12.1 35.9 12.2 35.4C12.3 34.7 12.4 34.1 12.4 33.4C12.4 32.7 12.3 32.1 12.2 31.4L12.3 31.3H12.4C12.5 32 12.6 32.6 12.6 33.3C12.6 34 12.5 34.7 12.4 35.3C12.3 35.8 12.1 36.3 11.9 36.8C11.6 37.4 11.2 37.9 10.7 38.2C10.5 38.3 10.3 38.4 10.1 38.4H9.89999L7.79999 38C7.59999 38 7.5 37.8 7.5 37.6V29C7.5 28.8 7.59999 28.6 7.79999 28.6L9.89999 28.2H10.1C10.3 28.2 10.5 28.3 10.7 28.4C11.2 28.8 11.6 29.3 11.9 29.8C12.1 30.3 12.3 30.8 12.4 31.3H12.3Z" fill="#22576F"/>
<path d="M11.5 29.1C13.8 29 16.1 28.7 18.3 28.2L18.4 28.3L18.3 28.4C16 28.8 13.7 29.1 11.4 29.3L11.3 29.2L11.5 29.1Z" fill="#22576F"/>
<path d="M9.79999 33.3H9.70001C9.70001 32.9 9.99999 32.6 10.4 32.6C10.8 32.6 11.1 32.9 11.1 33.3C11.1 33.7 10.8 34 10.4 34C9.99999 34 9.70001 33.7 9.70001 33.3H9.79999H9.89999C9.89999 33.5 10.1 33.7 10.3 33.7C10.5 33.7 10.7 33.5 10.7 33.3C10.7 33.1 10.5 32.9 10.3 32.9C10.1 32.9 9.89999 33.1 9.89999 33.3H9.79999Z" fill="#22576F"/>
<path d="M179.8 268.6H179.7V261.8L0.5 238L0.399994 237.8V232V231.9H0.5L185.6 256.6L185.7 256.7V268.6V268.7H185.6H179.8H179.7V268.6H179.8V268.5H185.4V256.8L0.600006 232.2V237.7L179.8 261.6L179.9 261.7V268.6H179.8V268.5V268.6Z" fill="#22576F"/>
<path d="M239.5 268.6V268.7H233.7H233.6V268.6V222.2V222.1H233.7H239.5L239.6 222.2V268.6V268.7H239.5V268.6H239.3V222.3H233.8V268.5H239.5V268.6H239.3H239.5Z" fill="#22576F"/>
<path d="M231.5 116.7H199.8L199.7 116.6L199.8 116.4H231.5L231.6 116.6L231.5 116.7Z" fill="#22576F"/>
<path d="M7.10001 100.9H58L58.1 101L58 101.2H7.10001L7 101L7.10001 100.9Z" fill="#22576F"/>
<path d="M12 222.2V222.3H0.5H0.399994V222.2V11V10.9H0.5H201.9L202 11V12.5H203.3H203.4V12.6V16.2V16.3H203.3H202V19.7L201.9 19.8H173.6V21.2L173.5 21.3L173.4 21.4H170.1L170 21.3V21.2V19.8H64.2V45.4H65.9H66V45.5V54V54.1H65.9H61.4V56.9V57H61.3H58H57.9L57.8 56.9V21.5H7.20001V87.5H57.8V81.3L57.9 81.2H58H61.3H61.4V81.3V111.6L61.3 111.7H49.7V111.6H49.6V108.2L49.7 108.1H57.8V91.1H7.20001V108.1H15.2H15.3V108.2V111.6L15.2 111.7H7.20001V185.7H12.8L12.9 185.8V189.8L12.8 189.9V190H12.2V222.2L12.1 222.3H12V222.2H11.9V189.8V189.7H12H12.6V185.9H7.10001H7V185.8V111.6V111.5L7.10001 111.4H15.1V108.4H7.10001L7 108.3V108.2V91V90.9L7.10001 90.8H58V90.9L58.1 91V108.2L58 108.3V108.4H49.9V111.4H61.2V81.5H58.1V87.6L58 87.7V87.8H7.10001L7 87.7V87.6V21.4V21.3H7.10001H58L58.1 21.4V56.7H61.2V54V53.9H61.3H65.7V45.7H64.1L64 45.6L63.9 45.5V19.7L64 19.6H64.1H170.1H170.2V19.7V21.1H173.3V19.7V19.6H173.4H201.7V16.2L201.8 16.1H201.9H203.2V12.7H201.9H201.8L201.7 12.6V11.1H0.600006V222.1H12V222.2H11.9H12Z" fill="#22576F"/>
<path d="M70.3 185.8H70.5V189.7H71H71.1L71.2 189.8V192.9H185.4V172.9L185.5 172.8H185.6H186.2V169H178.4V180.2V180.3H178.3H109.3V185.8V185.9H109.2H70.3V185.8H70.5H70.3V185.7H109.1V180.2V180.1H109.2H178.2V168.9V168.8L178.3 168.7H186.3L186.4 168.8V168.9V172.9V173H186.3H185.7V193.1V193.2H185.6H71L70.9 193.1V190H70.3L70.2 189.9V189.8V185.8L70.3 185.7V185.8Z" fill="#22576F"/>
<path d="M203.6 168.9V169H199.4V177.2H203.4V168.9H203.6V169V168.9H203.7V177.3V177.4L203.6 177.5H199.2V177.4L199.1 177.3V168.9L199.2 168.8V168.7H203.6L203.7 168.8V168.9H203.6Z" fill="#22576F"/>
<path d="M229.5 168.9H229.6V177.2H233.7H233.8V177.3V222.1H240.1V11.1H229.3V12.6V12.7H229.2H227.9V16.1H229.2H229.3V16.2V19.6H231.5L231.6 19.7V106L231.5 106.1V106.2H228.7V109.2H231.5V109.3L231.6 109.4V126.6L231.5 126.7V126.8H199.8L199.7 126.7V126.6V109.4V109.3L199.8 109.2H202.5V106.2H199.8L199.7 106.1V106V103.6H193.8V132.6H231.5V132.7H231.6V168.9L231.5 169H229.5V168.9H229.6H229.5V168.7H231.3V132.9H193.7L193.6 132.8L193.5 132.7V103.5L193.6 103.4H193.7H199.8H199.9V103.5V105.9H202.7H202.8V106V109.4L202.7 109.5H199.9V126.5H231.3V109.5H228.6L228.5 109.4V106V105.9H228.6H231.3V19.8H229.2H229.1V19.7V16.3H227.8H227.7L227.6 16.2V12.6L227.7 12.5H227.8H229.1V11V10.9H229.2H240.3H240.4V11V222.2V222.3H240.3H233.7H233.6V222.2V177.5H229.5L229.4 177.4V177.3V168.9V168.8L229.5 168.7V168.9Z" fill="#22576F"/>
<path d="M87.5 45.5H87.6V53.9H193.7H193.8V54V78.9H199.7V45.7H173.4L173.3 45.6V45.5V44.4H170.2V45.5V45.6L170.1 45.7H87.5V45.5H87.6H87.5V45.4H170V44.3V44.2L170.1 44.1H173.4L173.5 44.2L173.6 44.3V45.4H199.8H199.9V45.5V79V79.1L199.8 79.2H193.7L193.6 79.1L193.5 79V54.1H87.5H87.4L87.3 54V45.5L87.4 45.4H87.5V45.5Z" fill="#22576F"/>
<path d="M215.6 74.4C216.3 74.4 216.9 75 216.9 75.7C216.9 76.4 216.3 77 215.6 77C214.9 77 214.3 76.4 214.3 75.7C214.3 75 214.9 74.4 215.6 74.4L215.7 74.5V75.7V75.8H215.6H215.5V75.7V54.1L215.6 54L215.7 54.1L216.8 57.2V57.3L216.7 57.4H215.6L215.5 57.3L215.6 57.2H216.5L215.7 55V75.9V76H215.6H215.5V75.9V74.7H215.6V74.8C215 74.8 214.5 75.3 214.5 75.9C214.5 76.5 215 77 215.6 77C216.2 77 216.7 76.5 216.7 75.9C216.7 75.3 216.2 74.8 215.6 74.8L215.5 74.7L215.6 74.4Z" fill="#22576F"/>
<path d="M142.2 32.6C142.2 31.7 142.9 31 143.8 31C144.7 31 145.4 31.7 145.4 32.6C145.4 33.5 144.7 34.2 143.8 34.2C142.9 34.2 142.2 33.5 142.2 32.6L142.3 32.5H143.7H143.8V32.6V32.7H143.7H115L114.9 32.6L115 32.5L118.6 31.2H118.7L118.8 31.3V32.6L118.7 32.7L118.6 32.6V31.5L115.8 32.5H143.9H144V32.6V32.7H143.9H142.5V32.6H142.6C142.6 33.3 143.2 33.9 143.9 33.9C144.6 33.9 145.2 33.3 145.2 32.6C145.2 31.9 144.6 31.3 143.9 31.3C143.2 31.3 142.6 31.9 142.6 32.6L142.5 32.7L142.2 32.6Z" fill="#22576F"/>
<path d="M229.5 177.5H203.6L203.4 177.3L203.6 177.2H229.5L229.6 177.3L229.5 177.5Z" fill="#22576F"/>
<path d="M229.5 169H203.6L203.4 168.9L203.6 168.7H229.5L229.6 168.9L229.5 169Z" fill="#22576F"/>
<path d="M227.8 16.3H203.3L203.2 16.2L203.3 16.1H227.8L227.9 16.2L227.8 16.3Z" fill="#22576F"/>
<path d="M227.8 12.7H203.3L203.2 12.6L203.3 12.5H227.8L227.9 12.6L227.8 12.7Z" fill="#22576F"/>
<path d="M111.891 217.235C111.891 217.404 111.858 217.553 111.792 217.681C111.727 217.809 111.638 217.916 111.525 218.002C111.415 218.089 111.285 218.154 111.136 218.199C110.988 218.24 110.83 218.261 110.663 218.261H109.905V219.363H109.552V216.24H110.721C110.897 216.24 111.056 216.263 111.199 216.311C111.345 216.356 111.468 216.421 111.569 216.507C111.673 216.591 111.752 216.695 111.806 216.82C111.862 216.942 111.891 217.08 111.891 217.235ZM111.534 217.248C111.534 217.022 111.456 216.853 111.302 216.739C111.15 216.623 110.947 216.565 110.695 216.565H109.905V217.94H110.677C110.805 217.94 110.921 217.924 111.025 217.891C111.132 217.858 111.223 217.812 111.297 217.752C111.374 217.69 111.432 217.617 111.471 217.534C111.513 217.448 111.534 217.352 111.534 217.248ZM113.705 216.217L115.129 219.363H114.749L114.384 218.538H112.683L112.313 219.363H111.951L113.375 216.217H113.705ZM114.245 218.221L113.536 216.628L112.822 218.221H114.245ZM116.526 216.565V219.363H116.169V216.565H115.121V216.24H117.575V216.565H116.526ZM118.269 216.24H118.621V219.363H118.269V216.24ZM122.584 217.797C122.584 218.014 122.545 218.221 122.468 218.417C122.391 218.611 122.282 218.782 122.142 218.931C122.002 219.079 121.834 219.198 121.638 219.288C121.442 219.374 121.224 219.417 120.986 219.417C120.748 219.417 120.531 219.374 120.335 219.288C120.142 219.201 119.975 219.085 119.835 218.939C119.695 218.791 119.587 218.62 119.509 218.426C119.435 218.23 119.398 218.023 119.398 217.806C119.398 217.589 119.437 217.384 119.514 217.19C119.591 216.994 119.7 216.821 119.84 216.673C119.979 216.524 120.148 216.406 120.344 216.32C120.54 216.231 120.757 216.186 120.995 216.186C121.233 216.186 121.449 216.229 121.642 216.316C121.839 216.402 122.007 216.519 122.147 216.668C122.287 216.814 122.394 216.985 122.468 217.181C122.545 217.375 122.584 217.58 122.584 217.797ZM122.218 217.806C122.218 217.628 122.187 217.459 122.124 217.302C122.065 217.144 121.98 217.007 121.87 216.891C121.76 216.775 121.629 216.683 121.477 216.615C121.329 216.546 121.165 216.512 120.986 216.512C120.808 216.512 120.643 216.546 120.491 216.615C120.342 216.68 120.214 216.771 120.107 216.887C120 217.003 119.915 217.14 119.853 217.297C119.794 217.452 119.764 217.619 119.764 217.797C119.764 217.976 119.794 218.144 119.853 218.301C119.915 218.459 120.002 218.596 120.112 218.712C120.222 218.828 120.351 218.92 120.5 218.989C120.652 219.057 120.817 219.091 120.995 219.091C121.174 219.091 121.338 219.058 121.486 218.993C121.638 218.925 121.767 218.832 121.875 218.716C121.982 218.6 122.065 218.465 122.124 218.31C122.187 218.153 122.218 217.985 122.218 217.806Z" fill="#22576F"/>
<path d="M23.5643 54.7153C23.5643 54.8849 23.5316 55.0336 23.4662 55.1615C23.4007 55.2895 23.3115 55.3966 23.1984 55.4828C23.0883 55.5691 22.9589 55.6346 22.8102 55.6792C22.6614 55.7208 22.5038 55.7417 22.3372 55.7417H21.5785V56.8439H21.226V53.7202H22.3952C22.5707 53.7202 22.7299 53.744 22.8727 53.7916C23.0184 53.8362 23.1419 53.9016 23.243 53.9879C23.3472 54.0712 23.426 54.1753 23.4796 54.3003C23.5361 54.4223 23.5643 54.5606 23.5643 54.7153ZM23.2073 54.7287C23.2073 54.5026 23.13 54.333 22.9753 54.22C22.8236 54.1039 22.6213 54.0459 22.3684 54.0459H21.5785V55.4204H22.3505C22.4785 55.4204 22.5945 55.404 22.6986 55.3713C22.8057 55.3386 22.8965 55.2924 22.9708 55.2329C23.0482 55.1705 23.1062 55.0976 23.1449 55.0143C23.1865 54.928 23.2073 54.8328 23.2073 54.7287ZM27.2547 55.2776C27.2547 55.4947 27.216 55.7015 27.1387 55.8979C27.0613 56.0912 26.9527 56.2623 26.8129 56.411C26.6731 56.5598 26.505 56.6788 26.3086 56.768C26.1123 56.8543 25.8951 56.8975 25.6571 56.8975C25.4191 56.8975 25.2019 56.8543 25.0056 56.768C24.8122 56.6818 24.6456 56.5657 24.5058 56.42C24.366 56.2712 24.2574 56.1002 24.18 55.9068C24.1057 55.7104 24.0685 55.5037 24.0685 55.2865C24.0685 55.0693 24.1071 54.864 24.1845 54.6707C24.2618 54.4743 24.3704 54.3018 24.5103 54.153C24.6501 54.0043 24.8182 53.8868 25.0145 53.8005C25.2109 53.7112 25.428 53.6666 25.666 53.6666C25.904 53.6666 26.1197 53.7097 26.3131 53.796C26.5095 53.8823 26.6775 53.9998 26.8174 54.1486C26.9572 54.2943 27.0643 54.4654 27.1387 54.6617C27.216 54.8551 27.2547 55.0604 27.2547 55.2776ZM26.8888 55.2865C26.8888 55.108 26.8575 54.9399 26.7951 54.7822C26.7356 54.6246 26.6508 54.4877 26.5407 54.3717C26.4306 54.2557 26.2997 54.1634 26.148 54.095C25.9992 54.0266 25.8356 53.9924 25.6571 53.9924C25.4786 53.9924 25.3135 54.0266 25.1618 54.095C25.013 54.1605 24.8851 54.2512 24.778 54.3672C24.6709 54.4832 24.5861 54.6201 24.5236 54.7778C24.4641 54.9325 24.4344 55.0991 24.4344 55.2776C24.4344 55.4561 24.4641 55.6242 24.5236 55.7818C24.5861 55.9395 24.6724 56.0764 24.7825 56.1924C24.8925 56.3084 25.022 56.4006 25.1707 56.4691C25.3224 56.5375 25.4875 56.5717 25.666 56.5717C25.8445 56.5717 26.0082 56.539 26.1569 56.4735C26.3086 56.4051 26.4381 56.3129 26.5452 56.1968C26.6523 56.0808 26.7356 55.9455 26.7951 55.7908C26.8575 55.6331 26.8888 55.465 26.8888 55.2865ZM28.8722 56.3218L29.729 53.7112H30.0191L30.8759 56.3218L31.7684 53.7202H32.1388L31.0232 56.8662H30.7242L29.8674 54.3315L29.0061 56.8662H28.7116L27.596 53.7202H27.9797L28.8722 56.3218ZM35.5233 55.2776C35.5233 55.4977 35.4831 55.7045 35.4028 55.8979C35.3224 56.0883 35.2079 56.2534 35.0592 56.3932C34.9134 56.533 34.7379 56.6431 34.5326 56.7234C34.3303 56.8037 34.1072 56.8439 33.8632 56.8439H32.7788V53.7202H33.8632C34.1072 53.7202 34.3303 53.7603 34.5326 53.8406C34.7379 53.918 34.9134 54.0266 35.0592 54.1664C35.2079 54.3062 35.3224 54.4713 35.4028 54.6617C35.4831 54.8521 35.5233 55.0574 35.5233 55.2776ZM35.1573 55.2865C35.1573 55.1139 35.1261 54.9518 35.0636 54.8001C35.0041 54.6484 34.9178 54.5175 34.8048 54.4074C34.6947 54.2943 34.5594 54.2066 34.3987 54.1441C34.2381 54.0786 34.0596 54.0459 33.8632 54.0459H33.1314V56.5181H33.8632C34.0596 56.5181 34.2381 56.4869 34.3987 56.4244C34.5594 56.362 34.6947 56.2757 34.8048 56.1656C34.9178 56.0526 35.0041 55.9217 35.0636 55.7729C35.1261 55.6242 35.1573 55.462 35.1573 55.2865ZM38.5275 53.7202V54.0415H36.622V55.108H38.3267V55.4293H36.622V56.5226H38.5498V56.8439H36.2695V53.7202H38.5275ZM41.8428 56.8439H41.41L40.5041 55.6301H39.6116V56.8439H39.259V53.7202H40.6022C40.7748 53.7202 40.9295 53.7425 41.0663 53.7871C41.2062 53.8317 41.3252 53.8957 41.4233 53.979C41.5215 54.0593 41.5974 54.1575 41.6509 54.2735C41.7045 54.3866 41.7313 54.513 41.7313 54.6528C41.7313 54.7837 41.7104 54.9012 41.6688 55.0054C41.6271 55.1065 41.5676 55.1958 41.4903 55.2731C41.4159 55.3475 41.3267 55.41 41.2225 55.4605C41.1184 55.5111 41.0054 55.5468 40.8834 55.5676L41.8428 56.8439ZM41.3743 54.6662C41.3743 54.4699 41.3043 54.3181 41.1645 54.211C41.0247 54.101 40.8283 54.0459 40.5755 54.0459H39.6116V55.3133H40.571C40.687 55.3133 40.7941 55.2984 40.8923 55.2686C40.9905 55.2389 41.0753 55.1972 41.1467 55.1437C41.2181 55.0872 41.2731 55.0187 41.3118 54.9384C41.3534 54.8581 41.3743 54.7674 41.3743 54.6662Z" fill="#22576F"/>
<path d="M73.9415 30.9747C73.9415 31.0491 73.9534 31.116 73.9772 31.1755C74.001 31.235 74.0441 31.29 74.1066 31.3406C74.1691 31.3882 74.2554 31.4328 74.3654 31.4745C74.4755 31.5132 74.6168 31.5504 74.7894 31.5861C75.1375 31.6634 75.3933 31.7705 75.5569 31.9074C75.7235 32.0442 75.8068 32.2331 75.8068 32.4741C75.8068 32.608 75.7801 32.7299 75.7265 32.84C75.673 32.9501 75.5986 33.0438 75.5034 33.1212C75.4112 33.1985 75.2996 33.258 75.1687 33.2997C75.0378 33.3413 74.895 33.3621 74.7403 33.3621C74.4904 33.3621 74.2613 33.322 74.0531 33.2416C73.8478 33.1583 73.6514 33.0319 73.464 32.8623L73.6827 32.6035C73.8463 32.7523 74.0114 32.8638 74.178 32.9382C74.3446 33.0096 74.5365 33.0453 74.7537 33.0453C74.9649 33.0453 75.133 32.9962 75.2579 32.898C75.3859 32.7999 75.4498 32.6704 75.4498 32.5098C75.4498 32.4354 75.4379 32.37 75.4141 32.3134C75.3903 32.2539 75.3487 32.2004 75.2892 32.1528C75.2297 32.1052 75.1464 32.0621 75.0393 32.0234C74.9352 31.9847 74.8013 31.9475 74.6377 31.9118C74.4592 31.8731 74.303 31.8285 74.1691 31.7779C74.0382 31.7274 73.9296 31.6664 73.8433 31.595C73.7571 31.5236 73.6931 31.4403 73.6514 31.3451C73.6098 31.2499 73.589 31.1368 73.589 31.0059C73.589 30.881 73.6143 30.7664 73.6648 30.6623C73.7154 30.5582 73.7868 30.4689 73.879 30.3946C73.9713 30.3172 74.0798 30.2577 74.2048 30.2161C74.3297 30.1714 74.4666 30.1491 74.6153 30.1491C74.8444 30.1491 75.0437 30.1819 75.2133 30.2473C75.3859 30.3098 75.5525 30.405 75.7131 30.5329L75.5078 30.8051C75.3621 30.6861 75.2148 30.5998 75.0661 30.5463C74.9203 30.4927 74.7671 30.466 74.6064 30.466C74.5053 30.466 74.413 30.4794 74.3297 30.5061C74.2494 30.5329 74.1795 30.5686 74.12 30.6132C74.0635 30.6579 74.0189 30.7114 73.9861 30.7739C73.9564 30.8364 73.9415 30.9033 73.9415 30.9747ZM77.6409 30.5195V33.3175H77.2839V30.5195H76.2352V30.1938H78.6896V30.5195H77.6409ZM82.1864 31.7512C82.1864 31.9683 82.1477 32.1751 82.0703 32.3715C81.993 32.5648 81.8844 32.7359 81.7446 32.8846C81.6047 33.0334 81.4367 33.1524 81.2403 33.2416C81.044 33.3279 80.8268 33.3711 80.5888 33.3711C80.3508 33.3711 80.1336 33.3279 79.9373 33.2416C79.7439 33.1554 79.5773 33.0393 79.4375 32.8936C79.2976 32.7448 79.189 32.5738 79.1117 32.3804C79.0373 32.184 79.0001 31.9773 79.0001 31.7601C79.0001 31.5429 79.0388 31.3376 79.1162 31.1443C79.1935 30.9479 79.3021 30.7754 79.4419 30.6266C79.5817 30.4779 79.7498 30.3604 79.9462 30.2741C80.1425 30.1848 80.3597 30.1402 80.5977 30.1402C80.8357 30.1402 81.0514 30.1833 81.2448 30.2696C81.4411 30.3559 81.6092 30.4734 81.749 30.6222C81.8889 30.7679 81.996 30.939 82.0703 31.1353C82.1477 31.3287 82.1864 31.534 82.1864 31.7512ZM81.8204 31.7601C81.8204 31.5816 81.7892 31.4135 81.7267 31.2558C81.6672 31.0982 81.5824 30.9613 81.4724 30.8453C81.3623 30.7293 81.2314 30.637 81.0797 30.5686C80.9309 30.5002 80.7673 30.466 80.5888 30.466C80.4103 30.466 80.2452 30.5002 80.0934 30.5686C79.9447 30.6341 79.8168 30.7248 79.7097 30.8408C79.6026 30.9568 79.5178 31.0937 79.4553 31.2514C79.3958 31.4061 79.3661 31.5727 79.3661 31.7512C79.3661 31.9297 79.3958 32.0978 79.4553 32.2554C79.5178 32.4131 79.6041 32.55 79.7141 32.666C79.8242 32.782 79.9536 32.8742 80.1024 32.9427C80.2541 33.0111 80.4192 33.0453 80.5977 33.0453C80.7762 33.0453 80.9398 33.0126 81.0886 32.9471C81.2403 32.8787 81.3697 32.7865 81.4768 32.6704C81.5839 32.5544 81.6672 32.4191 81.7267 32.2644C81.7892 32.1067 81.8204 31.9386 81.8204 31.7601ZM85.5136 33.3175H85.0808L84.1749 32.1037H83.2824V33.3175H82.9299V30.1938H84.2731C84.4456 30.1938 84.6003 30.2161 84.7372 30.2607C84.877 30.3053 84.996 30.3693 85.0942 30.4526C85.1923 30.5329 85.2682 30.6311 85.3218 30.7471C85.3753 30.8602 85.4021 30.9866 85.4021 31.1264C85.4021 31.2573 85.3813 31.3748 85.3396 31.479C85.298 31.5801 85.2385 31.6694 85.1611 31.7467C85.0867 31.8211 84.9975 31.8836 84.8934 31.9341C84.7892 31.9847 84.6762 32.0204 84.5542 32.0412L85.5136 33.3175ZM85.0451 31.1398C85.0451 30.9435 84.9752 30.7917 84.8353 30.6846C84.6955 30.5746 84.4992 30.5195 84.2463 30.5195H83.2824V31.7869H84.2418C84.3579 31.7869 84.465 31.772 84.5631 31.7422C84.6613 31.7125 84.7461 31.6708 84.8175 31.6173C84.8889 31.5608 84.9439 31.4923 84.9826 31.412C85.0243 31.3317 85.0451 31.241 85.0451 31.1398ZM87.6407 30.1714L89.0643 33.3175H88.6849L88.319 32.4919H86.6188L86.2484 33.3175H85.887L87.3105 30.1714H87.6407ZM88.1807 32.1751L87.4711 30.582L86.7571 32.1751H88.1807ZM92.2015 32.8936C92.0557 33.0245 91.8757 33.1375 91.6615 33.2327C91.4503 33.3249 91.2123 33.3711 90.9475 33.3711C90.7006 33.3711 90.479 33.3294 90.2826 33.2461C90.0893 33.1628 89.9227 33.0483 89.7828 32.9025C89.646 32.7567 89.5404 32.5857 89.466 32.3893C89.3946 32.193 89.3589 31.9832 89.3589 31.7601C89.3589 31.5459 89.3961 31.3406 89.4705 31.1443C89.5478 30.9479 89.6549 30.7754 89.7918 30.6266C89.9286 30.4779 90.0922 30.3604 90.2826 30.2741C90.476 30.1848 90.6902 30.1402 90.9252 30.1402C91.0561 30.1402 91.1751 30.1491 91.2822 30.167C91.3923 30.1848 91.4935 30.2116 91.5857 30.2473C91.6809 30.283 91.7686 30.3276 91.849 30.3812C91.9323 30.4318 92.0126 30.4898 92.0899 30.5552L91.8624 30.823C91.8029 30.7694 91.7404 30.7218 91.6749 30.6802C91.6095 30.6355 91.5381 30.5984 91.4607 30.5686C91.3864 30.5359 91.3031 30.5106 91.2108 30.4927C91.1216 30.4749 91.0219 30.466 90.9118 30.466C90.7393 30.466 90.5801 30.5002 90.4344 30.5686C90.2886 30.637 90.1636 30.7293 90.0595 30.8453C89.9554 30.9613 89.8736 31.0982 89.8141 31.2558C89.7546 31.4105 89.7248 31.5756 89.7248 31.7512C89.7248 31.9386 89.7531 32.1126 89.8096 32.2733C89.8691 32.431 89.9524 32.5678 90.0595 32.6838C90.1666 32.7999 90.296 32.8906 90.4477 32.956C90.5995 33.0215 90.7705 33.0542 90.9609 33.0542C91.1394 33.0542 91.3075 33.0245 91.4652 32.965C91.6229 32.9025 91.7553 32.8281 91.8624 32.7418V31.9654H90.9118V31.6485H92.2015V32.8936ZM95.2547 30.1938V30.5151H93.3492V31.5816H95.0538V31.9029H93.3492V32.9962H95.277V33.3175H92.9966V30.1938H95.2547Z" fill="#22576F"/>
<path d="M125.667 98.4834L126.523 95.8728H126.813L127.67 98.4834L128.563 95.8817H128.933L127.818 99.0278H127.519L126.662 96.4931L125.8 99.0278H125.506L124.39 95.8817H124.774L125.667 98.4834ZM132.46 97.4392C132.46 97.6563 132.421 97.8631 132.344 98.0594C132.266 98.2528 132.158 98.4239 132.018 98.5726C131.878 98.7214 131.71 98.8404 131.514 98.9296C131.317 99.0159 131.1 99.059 130.862 99.059C130.624 99.059 130.407 99.0159 130.211 98.9296C130.017 98.8434 129.851 98.7273 129.711 98.5816C129.571 98.4328 129.463 98.2617 129.385 98.0684C129.311 97.872 129.274 97.6653 129.274 97.4481C129.274 97.2309 129.312 97.0256 129.39 96.8323C129.467 96.6359 129.576 96.4634 129.715 96.3146C129.855 96.1659 130.023 96.0483 130.22 95.9621C130.416 95.8728 130.633 95.8282 130.871 95.8282C131.109 95.8282 131.325 95.8713 131.518 95.9576C131.715 96.0439 131.883 96.1614 132.022 96.3101C132.162 96.4559 132.269 96.627 132.344 96.8233C132.421 97.0167 132.46 97.222 132.46 97.4392ZM132.094 97.4481C132.094 97.2696 132.063 97.1015 132 96.9438C131.941 96.7861 131.856 96.6493 131.746 96.5333C131.636 96.4172 131.505 96.325 131.353 96.2566C131.204 96.1882 131.041 96.154 130.862 96.154C130.684 96.154 130.519 96.1882 130.367 96.2566C130.218 96.322 130.09 96.4128 129.983 96.5288C129.876 96.6448 129.791 96.7817 129.729 96.9394C129.669 97.0941 129.64 97.2607 129.64 97.4392C129.64 97.6177 129.669 97.7857 129.729 97.9434C129.791 98.1011 129.878 98.2379 129.988 98.354C130.098 98.47 130.227 98.5622 130.376 98.6306C130.528 98.6991 130.693 98.7333 130.871 98.7333C131.05 98.7333 131.213 98.7006 131.362 98.6351C131.514 98.5667 131.643 98.4745 131.75 98.3584C131.857 98.2424 131.941 98.107 132 97.9523C132.063 97.7947 132.094 97.6266 132.094 97.4481ZM135.787 99.0055H135.354L134.448 97.7917H133.556V99.0055H133.203V95.8817H134.547C134.719 95.8817 134.874 95.9041 135.011 95.9487C135.15 95.9933 135.269 96.0573 135.368 96.1406C135.466 96.2209 135.542 96.3191 135.595 96.4351C135.649 96.5481 135.676 96.6746 135.676 96.8144C135.676 96.9453 135.655 97.0628 135.613 97.1669C135.571 97.2681 135.512 97.3573 135.435 97.4347C135.36 97.5091 135.271 97.5715 135.167 97.6221C135.063 97.6727 134.95 97.7084 134.828 97.7292L135.787 99.0055ZM135.319 96.8278C135.319 96.6314 135.249 96.4797 135.109 96.3726C134.969 96.2625 134.773 96.2075 134.52 96.2075H133.556V97.4749H134.515C134.631 97.4749 134.738 97.46 134.837 97.4302C134.935 97.4005 135.02 97.3588 135.091 97.3053C135.162 97.2488 135.217 97.1803 135.256 97.1C135.298 97.0197 135.319 96.9289 135.319 96.8278ZM137.691 97.2473L139.088 99.0055H138.646L137.446 97.4927L136.781 98.1665V99.0055H136.428V95.8817H136.781V97.7471L138.575 95.8817H139.03L137.691 97.2473Z" fill="#22576F"/>
<path d="M210.936 179.884V180.205H209.031V181.272H210.735V181.593H209.031V182.686H210.958V183.008H208.678V179.884H210.936ZM213.966 182.387V179.884H214.309V183.008H214.028L212.011 180.446V183.008H211.668V179.884H211.998L213.966 182.387ZM216.376 180.21V183.008H216.019V180.21H214.97V179.884H217.424V180.21H216.376ZM220.671 183.008H220.238L219.332 181.794H218.439V183.008H218.087V179.884H219.43C219.603 179.884 219.757 179.906 219.894 179.951C220.034 179.995 220.153 180.059 220.251 180.143C220.349 180.223 220.425 180.321 220.479 180.437C220.532 180.55 220.559 180.677 220.559 180.816C220.559 180.947 220.538 181.065 220.497 181.169C220.455 181.27 220.395 181.359 220.318 181.437C220.244 181.511 220.154 181.574 220.05 181.624C219.946 181.675 219.833 181.71 219.711 181.731L220.671 183.008ZM220.202 180.83C220.202 180.633 220.132 180.482 219.992 180.375C219.852 180.265 219.656 180.21 219.403 180.21H218.439V181.477H219.399C219.515 181.477 219.622 181.462 219.72 181.432C219.818 181.403 219.903 181.361 219.974 181.307C220.046 181.251 220.101 181.182 220.14 181.102C220.181 181.022 220.202 180.931 220.202 180.83ZM222.533 181.767V183.008H222.176V181.771L220.877 179.884H221.305L222.359 181.446L223.421 179.884H223.831L222.533 181.767Z" fill="#22576F"/>
<path d="M209.677 0.0941452V0.415445H207.772V1.48198H209.477V1.80328H207.772V2.8966H209.7V3.2179H207.419V0.0941452H209.677ZM212.707 2.59761V0.0941452H213.051V3.2179H212.769L210.752 0.65642V3.2179H210.409V0.0941452H210.739L212.707 2.59761ZM215.117 0.419908V3.2179H214.76V0.419908H213.711V0.0941452H216.166V0.419908H215.117ZM219.412 3.2179H218.979L218.073 2.0041H217.181V3.2179H216.828V0.0941452H218.171C218.344 0.0941452 218.498 0.116458 218.635 0.161083C218.775 0.205708 218.894 0.26967 218.992 0.35297C219.091 0.433295 219.166 0.53147 219.22 0.647495C219.273 0.760545 219.3 0.886983 219.3 1.02681C219.3 1.15771 219.279 1.27522 219.238 1.37935C219.196 1.4805 219.137 1.56975 219.059 1.6471C218.985 1.72147 218.896 1.78395 218.792 1.83452C218.687 1.8851 218.574 1.9208 218.452 1.94162L219.412 3.2179ZM218.943 1.0402C218.943 0.843845 218.873 0.69212 218.734 0.58502C218.594 0.474945 218.397 0.419908 218.144 0.419908H217.181V1.68726H218.14C218.256 1.68726 218.363 1.67238 218.461 1.64263C218.559 1.61288 218.644 1.57123 218.716 1.51768C218.787 1.46116 218.842 1.39273 218.881 1.31241C218.922 1.23208 218.943 1.14135 218.943 1.0402ZM221.274 1.97732V3.2179H220.917V1.98178L219.618 0.0941452H220.047L221.1 1.65602L222.162 0.0941452H222.572L221.274 1.97732Z" fill="#22576F"/>
<path d="M215.176 78.3214C215.176 78.5416 215.135 78.7484 215.055 78.9417C214.975 79.1321 214.86 79.2972 214.711 79.4371C214.566 79.5769 214.39 79.687 214.185 79.7673C213.983 79.8476 213.759 79.8878 213.515 79.8878H212.431V76.764H213.515C213.759 76.764 213.983 76.8042 214.185 76.8845C214.39 76.9619 214.566 77.0705 214.711 77.2103C214.86 77.3501 214.975 77.5152 215.055 77.7056C215.135 77.896 215.176 78.1013 215.176 78.3214ZM214.81 78.3304C214.81 78.1578 214.778 77.9957 214.716 77.844C214.656 77.6922 214.57 77.5613 214.457 77.4513C214.347 77.3382 214.212 77.2504 214.051 77.188C213.89 77.1225 213.712 77.0898 213.515 77.0898H212.784V79.562H213.515C213.712 79.562 213.89 79.5308 214.051 79.4683C214.212 79.4058 214.347 79.3196 214.457 79.2095C214.57 79.0964 214.656 78.9655 214.716 78.8168C214.778 78.668 214.81 78.5059 214.81 78.3304ZM218.22 79.2675V76.764H218.564V79.8878H218.282L216.265 77.3263V79.8878H215.922V76.764H216.252L218.22 79.2675Z" fill="#22576F"/>
<path d="M149.97 29.4799V31.2693C149.97 31.4984 149.939 31.6992 149.876 31.8718C149.814 32.0443 149.724 32.1886 149.608 32.3046C149.495 32.4206 149.359 32.5084 149.198 32.5679C149.04 32.6244 148.863 32.6527 148.667 32.6527C148.473 32.6527 148.296 32.6244 148.136 32.5679C147.978 32.5084 147.841 32.4221 147.725 32.3091C147.612 32.1931 147.524 32.0503 147.462 31.8807C147.4 31.7111 147.368 31.5162 147.368 31.2961V29.4799H147.721V31.2738C147.721 31.6129 147.804 31.8732 147.971 32.0547C148.14 32.2362 148.375 32.3269 148.676 32.3269C148.964 32.3269 149.193 32.2407 149.363 32.0681C149.533 31.8956 149.617 31.6382 149.617 31.2961V29.4799H149.97ZM153.142 30.475C153.142 30.6446 153.109 30.7933 153.044 30.9212C152.978 31.0492 152.889 31.1563 152.776 31.2425C152.666 31.3288 152.536 31.3943 152.388 31.4389C152.239 31.4805 152.081 31.5014 151.915 31.5014H151.156V32.6036H150.803V29.4799H151.973C152.148 29.4799 152.307 29.5037 152.45 29.5513C152.596 29.5959 152.719 29.6613 152.821 29.7476C152.925 29.8309 153.003 29.935 153.057 30.06C153.114 30.182 153.142 30.3203 153.142 30.475ZM152.785 30.4884C152.785 30.2623 152.707 30.0927 152.553 29.9797C152.401 29.8636 152.199 29.8056 151.946 29.8056H151.156V31.1801H151.928C152.056 31.1801 152.172 31.1637 152.276 31.131C152.383 31.0983 152.474 31.0521 152.548 30.9926C152.626 30.9302 152.684 30.8573 152.722 30.774C152.764 30.6877 152.785 30.5925 152.785 30.4884Z" fill="#22576F"/>
</svg>
