<svg width="241" height="269" viewBox="0 0 241 269" fill="none" xmlns="http://www.w3.org/2000/svg">
<path d="M194.2 53.9V54H88H87.9V53.9V49.8H66.5V53.5L66.9 52.8L67 52.7H67.1L85.8 63.5V63.6V63.7L85.2 64.8H85L66.4 54H61.9V56.7L83.1 68.9V69V69.1L82.5 70.2H82.3L61.1 58V57.8L61.6 56.9H60.3V81.1H61.8L61.9 81.2V81.3V111.5V111.6H61.8H49.1V128.6H50.1V108.2L50.2 108.1L50.3 108H58.4V101.1H7.70001V108H15.7L15.8 108.1V108.2V128.6H16.9V111.6H7.70001V185.6H109.6V180.1V180H109.7H124V171.5V171.4H124.1H164.4H164.5V171.5V180H178.7V168.8V168.7H178.8H231.9V132.8H194.2H194.1V132.7V103.4V103.3H194.2H200.1L199.6 102.4V102.2L220.8 90H220.9H221L221.6 91.1V91.2V91.3L200.4 103.5V105.8H203.2L214.3 99.4H214.5L215.1 100.5L215.2 100.6L215.1 100.7L203.9 107.1H203.7L203.3 106.4V109.3V109.4H203.2H200.4V116.4H231.9V109.4H229.1H229V109.3V106.4L228.6 107.1H228.4L217.2 100.7L217.1 100.5L217.8 99.4H217.9L229.1 105.8H231.9V68.6H203.1V69.9V70H203H201.9H201.8V69.9V68.6H200.3H200.2V68.5V61.3V61.2H200.3H201.8V59.8L201.9 59.7H203L203.1 59.8V61.2H231.9V19.8H229.7L229.6 19.7V19.6V16.2H228.4V40.6V40.7H228.3H227H226.9V40.6V16.2H202.5V19.6V19.7L202.4 19.8H178.3V22.3H201V21.3H174.8L174.7 21.2V19.8H144.4V45.3H174.7V44.2V44.1H174.8H178.1H178.2L178.3 44.2V45.3H200.3L200.4 45.4V45.5V79L200.3 79.1H194.2L194.1 79V53.9H194.2V54V53.9H194.3V78.8H200.2V45.6H178.1L178 45.5V44.3H174.9V45.5L174.8 45.6H144.3L144.2 45.5H144.1V19.6L144.2 19.5H144.3H174.8H174.9V19.6V21H201.2V21.1L201.3 21.2V22.4L201.2 22.5H178.1H178V22.4V19.6V19.5H178.1H202.3V16.1V16H202.4H227H227.1L227.2 16.1V40.5H228.2V16.1V16H228.3H229.7H229.8V16.1V19.5H232H232.1V19.6V61.3V61.4H232H203H202.9V61.3V60H202V61.3V61.4H201.9H200.4V68.4H201.9H202V68.5V69.8H202.9V68.5V68.4H203H232H232.1V68.5V106L232 106.1H229.1H229L217.9 99.6L217.4 100.5L228.4 106.9L229 105.9L229.1 105.8L229.2 106V109.2H232H232.1V109.3V116.5V116.6H232H200.3H200.2V116.5V109.3V109.2H200.3H203.1V106L203.2 105.8L203.3 105.9L203.9 106.9L214.9 100.5L214.4 99.6L203.2 106.1H200.3L200.2 106V103.4V103.3L221.3 91.2L220.8 90.3L199.8 102.4L200.4 103.4V103.5L200.3 103.6H194.3V132.6H232H232.1V132.7V168.8V168.9H232H178.9V180.1V180.2L178.8 180.3H164.4L164.3 180.2V180.1V171.6H124.2V180.1V180.2L124.1 180.3H109.8V185.7V185.8H109.7H7.60001H7.5V185.7V111.5V111.4H7.60001H17H17.1V111.5V128.8L17 128.9H15.7L15.6 128.8V108.3H7.60001L7.5 108.2V101V100.9L7.60001 100.8H58.5L58.6 100.9V101V108.2L58.5 108.3H50.4V128.8L50.3 128.9H49L48.9 128.8V111.5V111.4H49H61.7V81.4H60.1V81.3H60V56.8L60.1 56.7H61.8H61.9V56.9L61.3 57.8L82.3 70L82.8 69.1L61.7 56.9V56.8V53.9V53.8H61.8H66.4L85 64.5L85.6 63.7L67.1 53L66.5 54H66.4L66.3 53.9V49.7V49.6H66.4H88H88.1V49.7V53.8H194.2H194.3V53.9H194.2Z" fill="#99A4B3"/>
<path d="M74.3 177.3L66.6 169.7V169.5L81.8 154.3H82L89.6 161.9C91.7 164 92.8 166.8 92.8 169.6C92.8 172.4 91.7 175.2 89.6 177.3C87.5 179.4 84.7 180.5 81.9 180.5C79.1 180.6 76.3 179.6 74.3 177.3C76.5 179.3 79.2 180.3 81.9 180.3C84.6 180.3 87.4 179.3 89.4 177.2C91.5 175.1 92.5 172.4 92.5 169.7C92.5 167 91.5 164.2 89.4 162.2L81.8 154.7L66.7 169.8L74.3 177.3Z" fill="#99A4B3"/>
<path d="M9.00003 184.3H8.90002V138.2L9.00003 138.1H26.3H26.4V138.2V154.8H32.7V154.2V154.1H32.8H33.9H34V154.2V168.3L33.9 168.4H32.8L32.7 168.3V167.7H26.4V184.3V184.4H26.3H9.00003L8.90002 184.3H9.00003V184.2H26.2V167.5L26.3 167.4H32.8L32.9 167.5V168.1H33.7V154.3H32.9V154.9V155L32.8 155.1H26.3L26.2 155V154.9V138.3H9.20004V184.3H9.00003V184.2V184.3Z" fill="#99A4B3"/>
<path d="M102.4 55.3V55.2H162.8L162.9 55.3H163V78.4L162.9 78.5H162.8H102.4H102.3V78.4V55.3L102.4 55.2V55.3H102.5V78.3H162.7V55.5H102.4V55.3H102.5H102.4Z" fill="#99A4B3"/>
<path d="M120.4 91.3V91.2H144.8L144.9 91.3V107.1V107.2H144.8H120.4H120.3V107.1V91.3L120.4 91.2V91.3H120.5V107H144.7V91.5H120.4V91.3H120.5H120.4Z" fill="#99A4B3"/>
<path d="M164.3 56.8V56.7H178.7H178.8V56.8V77L178.7 77.1H164.3L164.2 77V56.8V56.7H164.3V56.8H164.4V76.8H178.6V56.9H164.3V56.8H164.4H164.3Z" fill="#99A4B3"/>
<path d="M102.7 127.4H102.6L105.4 117L105.5 116.9H105.6L126.5 122.5L126.6 122.6V122.7L123.8 133.1C122.5 138 118.1 141.2 113.3 141.2C112.4 141.2 111.4 141.1 110.5 140.8C105.6 139.5 102.4 135.1 102.4 130.3C102.4 129.4 102.5 128.4 102.8 127.5L102.7 127.4H102.8C102.6 128.3 102.4 129.3 102.4 130.2C102.4 134.9 105.5 139.2 110.3 140.5C111.2 140.7 112.2 140.9 113.1 140.9C117.8 140.9 122.1 137.8 123.4 133L126.2 122.7L105.6 117.2L102.8 127.5L102.7 127.4Z" fill="#99A4B3"/>
<path d="M162.5 127.4H162.4L159.6 117.1L139 122.6L141.8 132.9C143.1 137.7 147.4 140.8 152.1 140.8C153 140.8 153.9 140.7 154.9 140.4C159.7 139.1 162.8 134.8 162.8 130.1C162.8 129.2 162.7 128.3 162.4 127.3L162.5 127.4H162.6C162.9 128.3 163 129.3 163 130.2C163 135 159.8 139.4 154.9 140.7C154 141 153 141.1 152.1 141.1C147.3 141.1 142.9 137.9 141.6 133L138.8 122.6L138.9 122.5L159.8 116.9H159.9L160 117L162.8 127.4H162.5Z" fill="#99A4B3"/>
<path d="M10.5 185.7V184.3L10.7 184.2L10.8 184.3V185.7L10.7 185.8L10.5 185.7Z" fill="#99A4B3"/>
<path d="M10.5 108.2V101L10.7 100.8L10.8 101V108.2L10.7 108.3L10.5 108.2Z" fill="#99A4B3"/>
<path d="M10.5 138.2V111.5L10.7 111.4L10.8 111.5V138.2L10.7 138.3L10.5 138.2Z" fill="#99A4B3"/>
<path d="M15.9 185.7V184.3L16.1 184.2L16.2 184.3V185.7L16.1 185.8L15.9 185.7Z" fill="#99A4B3"/>
<path d="M15.9 111.5V101L16.1 100.8L16.2 101V111.5L16.1 111.6L15.9 111.5Z" fill="#99A4B3"/>
<path d="M15.9 138.2V128.8L16.1 128.6L16.2 128.8V138.2L16.1 138.3L15.9 138.2Z" fill="#99A4B3"/>
<path d="M21.3 185.7V184.3L21.5001 184.2L21.6001 184.3V185.7L21.5001 185.8L21.3 185.7Z" fill="#99A4B3"/>
<path d="M21.3 138.2V101L21.5001 100.8L21.6001 101V138.2L21.5001 138.3L21.3 138.2Z" fill="#99A4B3"/>
<path d="M26.7 185.7V167.5L26.8999 167.4L26.9999 167.5V185.7L26.8999 185.8L26.7 185.7Z" fill="#99A4B3"/>
<path d="M26.7 154.9V101L26.8999 100.8L26.9999 101V154.9L26.8999 155.1L26.7 154.9Z" fill="#99A4B3"/>
<path d="M32.1 185.7V167.5L32.3 167.4L32.4 167.5V185.7L32.3 185.8L32.1 185.7Z" fill="#99A4B3"/>
<path d="M32.1 154.9V101L32.3 100.8L32.4 101V154.9L32.3 155.1L32.1 154.9Z" fill="#99A4B3"/>
<path d="M37.5 185.7V101L37.6 100.8L37.8 101V185.7L37.6 185.8L37.5 185.7Z" fill="#99A4B3"/>
<path d="M42.9 185.7V101L43 100.8L43.2 101V185.7L43 185.8L42.9 185.7Z" fill="#99A4B3"/>
<path d="M48.3 185.7V101L48.4001 100.8L48.6001 101V185.7L48.4001 185.8L48.3 185.7Z" fill="#99A4B3"/>
<path d="M53.7 185.7V111.5L53.7999 111.4L53.9999 111.5V185.7L53.7999 185.8L53.7 185.7Z" fill="#99A4B3"/>
<path d="M53.7 108.2V101L53.7999 100.8L53.9999 101V108.2L53.7999 108.3L53.7 108.2Z" fill="#99A4B3"/>
<path d="M59.1 185.7V111.5L59.2 111.4L59.4 111.5V185.7L59.2 185.8L59.1 185.7Z" fill="#99A4B3"/>
<path d="M64.5 185.7V59.9L64.6 59.8L64.8 59.9V185.7L64.6 185.8L64.5 185.7Z" fill="#99A4B3"/>
<path d="M64.5 58.4V53.9L64.6 53.8L64.8 53.9V58.4L64.6 58.5L64.5 58.4Z" fill="#99A4B3"/>
<path d="M69.9 185.7V173.1L70 173L70.2 173.1V185.7L70 185.8L69.9 185.7Z" fill="#99A4B3"/>
<path d="M69.9 54.6V49.7L70 49.6L70.2 49.7V54.6L70 54.7L69.9 54.6Z" fill="#99A4B3"/>
<path d="M69.9 166.3V63L70 62.9L70.2 63V166.3L70 166.5L69.9 166.3Z" fill="#99A4B3"/>
<path d="M69.9 61.5V56L70 55.9L70.2 56V61.5L70 61.7L69.9 61.5Z" fill="#99A4B3"/>
<path d="M75.3 185.7V178.3L75.4001 178.2L75.6001 178.3V185.7L75.4001 185.8L75.3 185.7Z" fill="#99A4B3"/>
<path d="M75.3 57.7V49.7L75.4001 49.6L75.6001 49.7V57.7L75.4001 57.8L75.3 57.7Z" fill="#99A4B3"/>
<path d="M75.3 160.9V66.1L75.4001 66L75.6001 66.1V160.9L75.4001 161.1L75.3 160.9Z" fill="#99A4B3"/>
<path d="M75.3 64.7V59.1L75.4001 59L75.6001 59.1V64.7L75.4001 64.8L75.3 64.7Z" fill="#99A4B3"/>
<path d="M80.7 185.7V180.5L80.7999 180.3L80.9999 180.5V185.7L80.7999 185.8L80.7 185.7Z" fill="#99A4B3"/>
<path d="M80.7 60.8V49.7L80.7999 49.6L80.9999 49.7V60.8L80.7999 60.9L80.7 60.8Z" fill="#99A4B3"/>
<path d="M80.7 155.5V69.2L80.7999 69.1L80.9999 69.2V155.5L80.7999 155.7L80.7 155.5Z" fill="#99A4B3"/>
<path d="M80.7 67.8V62.2L80.7999 62.1L80.9999 62.2V67.8L80.7999 67.9L80.7 67.8Z" fill="#99A4B3"/>
<path d="M86.1 185.7V179.6L86.2 179.5L86.4 179.6V185.7L86.2 185.8L86.1 185.7Z" fill="#99A4B3"/>
<path d="M86.1 158.8V49.7L86.2 49.6L86.4 49.7V158.8L86.2 158.9L86.1 158.8Z" fill="#99A4B3"/>
<path d="M91.5 185.7V174.4L91.6 174.3L91.7 174.4V185.7L91.6 185.8L91.5 185.7Z" fill="#99A4B3"/>
<path d="M91.5 165V53.9L91.6 53.8L91.7 53.9V165L91.6 165.1L91.5 165Z" fill="#99A4B3"/>
<path d="M96.9 185.7V53.9L97 53.8L97.1 53.9V185.7L97 185.8L96.9 185.7Z" fill="#99A4B3"/>
<path d="M102.3 185.7V131.2L102.4 131.1L102.5 131.2V185.7L102.4 185.8L102.3 185.7Z" fill="#99A4B3"/>
<path d="M102.3 55.4V53.9L102.4 53.8L102.5 53.9V55.4L102.4 55.5L102.3 55.4Z" fill="#99A4B3"/>
<path d="M102.3 129.2V78.4L102.4 78.3L102.5 78.4V129.2L102.4 129.3L102.3 129.2Z" fill="#99A4B3"/>
<path d="M107.7 185.7V139.6L107.8 139.5L107.9 139.6V185.7L107.8 185.8L107.7 185.7Z" fill="#99A4B3"/>
<path d="M107.7 55.4V53.9L107.8 53.8L107.9 53.9V55.4L107.8 55.5L107.7 55.4Z" fill="#99A4B3"/>
<path d="M107.7 117.6V78.4L107.8 78.3L107.9 78.4V117.6L107.8 117.7L107.7 117.6Z" fill="#99A4B3"/>
<path d="M113.1 180.1V141L113.2 140.9L113.3 141V180.1L113.2 180.3L113.1 180.1Z" fill="#99A4B3"/>
<path d="M113.1 55.4V53.9L113.2 53.8L113.3 53.9V55.4L113.2 55.5L113.1 55.4Z" fill="#99A4B3"/>
<path d="M113.1 119V78.4L113.2 78.3L113.3 78.4V119L113.2 119.2L113.1 119Z" fill="#99A4B3"/>
<path d="M118.5 180.1V139.5L118.6 139.4L118.7 139.5V180.1L118.6 180.3L118.5 180.1Z" fill="#99A4B3"/>
<path d="M118.5 55.4V53.9L118.6 53.8L118.7 53.9V55.4L118.6 55.5L118.5 55.4Z" fill="#99A4B3"/>
<path d="M118.5 120.5V78.4L118.6 78.3L118.7 78.4V120.5L118.6 120.6L118.5 120.5Z" fill="#99A4B3"/>
<path d="M123.9 180.1V131.4L124 131.3L124.1 131.4V180.1L124 180.3L123.9 180.1Z" fill="#99A4B3"/>
<path d="M123.9 55.4V53.9L124 53.8L124.1 53.9V55.4L124 55.5L123.9 55.4Z" fill="#99A4B3"/>
<path d="M123.9 121.9V107.1L124 107L124.1 107.1V121.9L124 122.1L123.9 121.9Z" fill="#99A4B3"/>
<path d="M123.9 91.3V78.4L124 78.3L124.1 78.4V91.3L124 91.5L123.9 91.3Z" fill="#99A4B3"/>
<path d="M129.3 171.5V107.1L129.4 107L129.5 107.1V171.5L129.4 171.6L129.3 171.5Z" fill="#99A4B3"/>
<path d="M129.3 55.4V53.9L129.4 53.8L129.5 53.9V55.4L129.4 55.5L129.3 55.4Z" fill="#99A4B3"/>
<path d="M129.3 91.3V78.4L129.4 78.3L129.5 78.4V91.3L129.4 91.5L129.3 91.3Z" fill="#99A4B3"/>
<path d="M134.7 171.5V107.1L134.8 107L134.9 107.1V171.5L134.8 171.6L134.7 171.5Z" fill="#99A4B3"/>
<path d="M134.7 55.4V53.9L134.8 53.8L134.9 53.9V55.4L134.8 55.5L134.7 55.4Z" fill="#99A4B3"/>
<path d="M134.7 91.3V78.4L134.8 78.3L134.9 78.4V91.3L134.8 91.5L134.7 91.3Z" fill="#99A4B3"/>
<path d="M140.1 171.5V127.8L140.2 127.7L140.3 127.8V171.5L140.2 171.6L140.1 171.5Z" fill="#99A4B3"/>
<path d="M140.1 55.4V53.9L140.2 53.8L140.3 53.9V55.4L140.2 55.5L140.1 55.4Z" fill="#99A4B3"/>
<path d="M140.1 122.2V107.1L140.2 107L140.3 107.1V122.2L140.2 122.3L140.1 122.2Z" fill="#99A4B3"/>
<path d="M140.1 91.3V78.4L140.2 78.3L140.3 78.4V91.3L140.2 91.5L140.1 91.3Z" fill="#99A4B3"/>
<path d="M145.5 171.5V138.9L145.6 138.8L145.7 138.9V171.5L145.6 171.6L145.5 171.5Z" fill="#99A4B3"/>
<path d="M145.5 45.5V19.6L145.6 19.5L145.7 19.6V45.5L145.6 45.6L145.5 45.5Z" fill="#99A4B3"/>
<path d="M145.5 120.8V78.4L145.6 78.3L145.7 78.4V120.8L145.6 120.9L145.5 120.8Z" fill="#99A4B3"/>
<path d="M145.5 55.4V53.9L145.6 53.8L145.7 53.9V55.4L145.6 55.5L145.5 55.4Z" fill="#99A4B3"/>
<path d="M150.9 171.5V141L151 140.8L151.1 141V171.5L151 171.6L150.9 171.5Z" fill="#99A4B3"/>
<path d="M150.9 45.5V19.6L151 19.5L151.1 19.6V45.5L151 45.6L150.9 45.5Z" fill="#99A4B3"/>
<path d="M150.9 119.3V78.4L151 78.3L151.1 78.4V119.3L151 119.4L150.9 119.3Z" fill="#99A4B3"/>
<path d="M150.9 55.4V53.9L151 53.8L151.1 53.9V55.4L151 55.5L150.9 55.4Z" fill="#99A4B3"/>
<path d="M156.3 171.5V140.1L156.4 140L156.5 140.1V171.5L156.4 171.6L156.3 171.5Z" fill="#99A4B3"/>
<path d="M156.3 45.5V19.6L156.4 19.5L156.5 19.6V45.5L156.4 45.6L156.3 45.5Z" fill="#99A4B3"/>
<path d="M156.3 117.9V78.4L156.4 78.3L156.5 78.4V117.9L156.4 118L156.3 117.9Z" fill="#99A4B3"/>
<path d="M156.3 55.4V53.9L156.4 53.8L156.5 53.9V55.4L156.4 55.5L156.3 55.4Z" fill="#99A4B3"/>
<path d="M161.7 171.5V134.8L161.8 134.7L161.9 134.8V171.5L161.8 171.6L161.7 171.5Z" fill="#99A4B3"/>
<path d="M161.7 45.5V19.6L161.8 19.5L161.9 19.6V45.5L161.8 45.6L161.7 45.5Z" fill="#99A4B3"/>
<path d="M161.7 124.9V78.4L161.8 78.3L161.9 78.4V124.9L161.8 125.1L161.7 124.9Z" fill="#99A4B3"/>
<path d="M161.7 55.4V53.9L161.8 53.8L161.9 53.9V55.4L161.8 55.5L161.7 55.4Z" fill="#99A4B3"/>
<path d="M167.1 180.1V77L167.2 76.8L167.3 77V180.1L167.2 180.3L167.1 180.1Z" fill="#99A4B3"/>
<path d="M167.1 45.5V19.6L167.2 19.5L167.3 19.6V45.5L167.2 45.6L167.1 45.5Z" fill="#99A4B3"/>
<path d="M167.1 56.8V53.9L167.2 53.8L167.3 53.9V56.8L167.2 56.9L167.1 56.8Z" fill="#99A4B3"/>
<path d="M172.5 180.1V77L172.6 76.8L172.7 77V180.1L172.6 180.3L172.5 180.1Z" fill="#99A4B3"/>
<path d="M172.5 45.5V19.6L172.6 19.5L172.7 19.6V45.5L172.6 45.6L172.5 45.5Z" fill="#99A4B3"/>
<path d="M172.5 56.8V53.9L172.6 53.8L172.7 53.9V56.8L172.6 56.9L172.5 56.8Z" fill="#99A4B3"/>
<path d="M177.9 180.1V77L178 76.8L178.1 77V180.1L178 180.3L177.9 180.1Z" fill="#99A4B3"/>
<path d="M177.9 44.2V21.2L178 21L178.1 21.2V44.2L178 44.3L177.9 44.2Z" fill="#99A4B3"/>
<path d="M177.9 56.8V53.9L178 53.8L178.1 53.9V56.8L178 56.9L177.9 56.8Z" fill="#99A4B3"/>
<path d="M183.3 168.8V53.9L183.4 53.8L183.5 53.9V168.8L183.4 168.9L183.3 168.8Z" fill="#99A4B3"/>
<path d="M183.3 21.2V19.6L183.4 19.5L183.5 19.6V21.2L183.4 21.3L183.3 21.2Z" fill="#99A4B3"/>
<path d="M183.3 45.5V22.4L183.4 22.3L183.5 22.4V45.5L183.4 45.6L183.3 45.5Z" fill="#99A4B3"/>
<path d="M188.7 168.8V53.9L188.8 53.8L188.9 53.9V168.8L188.8 168.9L188.7 168.8Z" fill="#99A4B3"/>
<path d="M188.7 21.2V19.6L188.8 19.5L188.9 19.6V21.2L188.8 21.3L188.7 21.2Z" fill="#99A4B3"/>
<path d="M188.7 45.5V22.4L188.8 22.3L188.9 22.4V45.5L188.8 45.6L188.7 45.5Z" fill="#99A4B3"/>
<path d="M194.1 168.8V132.7L194.2 132.6L194.3 132.7V168.8L194.2 168.9L194.1 168.8Z" fill="#99A4B3"/>
<path d="M194.1 21.2V19.6L194.2 19.5L194.3 19.6V21.2L194.2 21.3L194.1 21.2Z" fill="#99A4B3"/>
<path d="M194.1 103.4V79L194.2 78.8L194.3 79V103.4L194.2 103.6L194.1 103.4Z" fill="#99A4B3"/>
<path d="M194.1 45.5V22.4L194.2 22.3L194.3 22.4V45.5L194.2 45.6L194.1 45.5Z" fill="#99A4B3"/>
<path d="M199.5 168.8V132.7L199.6 132.6L199.7 132.7V168.8L199.6 168.9L199.5 168.8Z" fill="#99A4B3"/>
<path d="M199.5 21.2V19.6L199.6 19.5L199.7 19.6V21.2L199.6 21.3L199.5 21.2Z" fill="#99A4B3"/>
<path d="M199.5 103.4V79L199.6 78.8L199.7 79V103.4L199.6 103.6L199.5 103.4Z" fill="#99A4B3"/>
<path d="M199.5 45.5V22.4L199.6 22.3L199.7 22.4V45.5L199.6 45.6L199.5 45.5Z" fill="#99A4B3"/>
<path d="M204.9 168.8V132.7L205 132.6L205.1 132.7V168.8L205 168.9L204.9 168.8Z" fill="#99A4B3"/>
<path d="M204.9 61.3V16.1L205 16L205.1 16.1V61.3L205 61.4L204.9 61.3Z" fill="#99A4B3"/>
<path d="M204.9 116.5V106.4L205 106.2L205.1 106.4V116.5L205 116.6L204.9 116.5Z" fill="#99A4B3"/>
<path d="M204.9 99.3V68.5L205 68.4L205.1 68.5V99.3L205 99.4L204.9 99.3Z" fill="#99A4B3"/>
<path d="M204.9 104.9V100.7L205 100.6L205.1 100.7V104.9L205 105L204.9 104.9Z" fill="#99A4B3"/>
<path d="M210.3 168.8V132.7L210.4 132.6L210.5 132.7V168.8L210.4 168.9L210.3 168.8Z" fill="#99A4B3"/>
<path d="M210.3 61.3V16.1L210.4 16L210.5 16.1V61.3L210.4 61.4L210.3 61.3Z" fill="#99A4B3"/>
<path d="M210.3 116.5V103.3L210.4 103.1L210.5 103.3V116.5L210.4 116.6L210.3 116.5Z" fill="#99A4B3"/>
<path d="M210.3 96.2V68.5L210.4 68.4L210.5 68.5V96.2L210.4 96.3L210.3 96.2Z" fill="#99A4B3"/>
<path d="M210.3 101.8V97.6L210.4 97.5L210.5 97.6V101.8L210.4 101.9L210.3 101.8Z" fill="#99A4B3"/>
<path d="M215.7 168.8V132.7L215.8 132.6L215.9 132.7V168.8L215.8 168.9L215.7 168.8Z" fill="#99A4B3"/>
<path d="M215.7 61.3V16.1L215.8 16L215.9 16.1V61.3L215.8 61.4L215.7 61.3Z" fill="#99A4B3"/>
<path d="M215.7 116.5V94.5L215.8 94.4L215.9 94.5V116.5L215.8 116.6L215.7 116.5Z" fill="#99A4B3"/>
<path d="M215.7 93V68.5L215.8 68.4L215.9 68.5V93L215.8 93.2L215.7 93Z" fill="#99A4B3"/>
<path d="M221.1 168.8V132.7L221.2 132.6L221.3 132.7V168.8L221.2 168.9L221.1 168.8Z" fill="#99A4B3"/>
<path d="M221.1 61.3V16.1L221.2 16L221.3 16.1V61.3L221.2 61.4L221.1 61.3Z" fill="#99A4B3"/>
<path d="M221.1 116.5V102.8L221.2 102.7L221.3 102.8V116.5L221.2 116.6L221.1 116.5Z" fill="#99A4B3"/>
<path d="M221.1 90.6V68.5L221.2 68.4L221.3 68.5V90.6L221.2 90.8L221.1 90.6Z" fill="#99A4B3"/>
<path d="M221.1 101.4V91.4L221.2 91.3L221.3 91.4V101.4L221.2 101.5L221.1 101.4Z" fill="#99A4B3"/>
<path d="M226.5 168.8V132.7L226.6 132.6L226.7 132.7V168.8L226.6 168.9L226.5 168.8Z" fill="#99A4B3"/>
<path d="M226.5 61.3V16.1L226.6 16L226.7 16.1V61.3L226.6 61.4L226.5 61.3Z" fill="#99A4B3"/>
<path d="M226.5 116.5V106L226.6 105.8L226.7 106V116.5L226.6 116.6L226.5 116.5Z" fill="#99A4B3"/>
<path d="M226.5 104.5V68.5L226.6 68.4L226.7 68.5V104.5L226.6 104.6L226.5 104.5Z" fill="#99A4B3"/>
<path d="M234.2 267H234.1V177.4H230.1V203.2L230 203.3H228.7V203.2H228.6V177.4H199.8L199.7 177.3H199.6V176.2H186.2V193V193.1H186.1H12.7V233.4L186.1 256.5L186.2 256.6V266.9H187.4V244V243.9L187.5 243.8H188.8L188.9 243.9V244V266.9H234.2V267H234.1H234.2V267.1H188.8H188.7V267V244.1H187.7V267L187.6 267.1H187.5H186.1H186V267V256.7L12.5 233.6L12.4 233.5V193L12.5 192.9H186V176.1V176H186.1H199.8H199.9V176.1V177.1H228.7L228.8 177.2L228.9 177.3V203H229.9V177.3V177.2L230 177.1H234.2L234.3 177.2V177.3V267V267.1H234.2V267Z" fill="#99A4B3"/>
<path d="M8.19998 28.9H8.09998C8.09998 28.7 8.19996 28.5 8.39996 28.5L10.5 28.1H10.7C10.9 28.1 11.1 28.2 11.3 28.3C11.6 28.5 11.9 28.8 12.2 29.2L12.1 29.3V29.2C14.4 29.1 16.7 28.8 18.9 28.3C19.6 28.1 20.4 28.1 21.1 28.1C22.1 28.1 23 28.2 24 28.5C24.8 28.7 25.6 29.1 26.3 29.6C27 30.1 27.5 30.7 27.9 31.4C28.2 32 28.4 32.7 28.4 33.3C28.4 34 28.2 34.7 27.9 35.2C27.5 35.9 26.9 36.5 26.3 37C25.6 37.5 24.8 37.9 24 38.1C23.1 38.4 22.1 38.5 21.1 38.5C20.3 38.5 19.6 38.4 18.9 38.2C16.6 37.8 14.4 37.5 12.1 37.3V37.2L12.2 37.3C12 37.6 11.7 37.9 11.3 38.2C11.1 38.3 10.9 38.4 10.7 38.4H10.5L8.39996 38C8.19996 38 8.09998 37.8 8.09998 37.6V28.9H8.19998H8.29996V37.6L8.39996 37.8L10.5 38.2H10.6C10.8 38.2 10.9 38.2 11 38.1C11.3 37.9 11.6 37.6 11.8 37.3L11.9 37.2C14.2 37.3 16.5 37.6 18.8 38.1C19.5 38.3 20.2 38.3 21 38.3C22 38.3 22.9 38.2 23.8 37.9C24.6 37.7 25.3 37.3 26 36.8C26.6 36.3 27.2 35.7 27.6 35.1C27.9 34.5 28.1 33.9 28.1 33.3C28.1 32.7 27.9 32 27.6 31.5C27.2 30.8 26.7 30.2 26 29.8C25.3 29.3 24.6 29 23.8 28.7C22.9 28.4 21.9 28.3 21 28.3C20.3 28.3 19.5 28.4 18.8 28.5C16.5 28.9 14.2 29.2 11.9 29.4L11.8 29.3C11.6 29 11.3 28.7 11 28.5C10.9 28.4 10.7 28.4 10.6 28.4H10.5L8.39996 28.8L8.29996 29H8.19998V28.9Z" fill="#99A4B3"/>
<path d="M230 177.4H204.1L204 177.3L204.1 177.1H230L230.1 177.3L230 177.4Z" fill="#99A4B3"/>
<path d="M230 168.9H204.1L204 168.8L204.1 168.7H230L230.1 168.8L230 168.9Z" fill="#99A4B3"/>
<path d="M228.3 16.2H203.8L203.7 16.1L203.8 16H228.3L228.4 16.1L228.3 16.2Z" fill="#99A4B3"/>
<path d="M228.3 12.6H203.8L203.7 12.5L203.8 12.4H228.3L228.4 12.5L228.3 12.6Z" fill="#99A4B3"/>
<path d="M187.5 266.9H210.6L210.7 267L210.6 267.1H187.5L187.4 267L187.5 266.9Z" fill="#99A4B3"/>
<path d="M187.5 268.3H210.6L210.7 268.4L210.6 268.6H187.5L187.4 268.4L187.5 268.3Z" fill="#99A4B3"/>
<path d="M58.5 21.3V21.4H7.70001V67.1H24.8C26.1 67.1 27.1 68.1 27.1 69.4V79.5C27.1 80.8 26.1 81.8 24.8 81.8H7.70001V87.4H58.3V81.2V81.1H58.4H59.9V56.9H58.4H58.3V56.8V21.4H58.5V21.5V21.3H58.6V56.6H60.1H60.2V56.7V81.2V81.3H60.1H58.6V87.5V87.6H58.5H7.60001H7.5V87.5V81.7V81.6H7.60001H24.8C25.9 81.6 26.8 80.7 26.8 79.6V69.5C26.8 68.4 25.9 67.5 24.8 67.5H7.60001H7.5V67.4V21.4V21.3H7.60001H58.5Z" fill="#99A4B3"/>
<path d="M8.19995 87.6V81.7L8.29993 81.6L8.39993 81.7V87.6L8.29993 87.7L8.19995 87.6Z" fill="#99A4B3"/>
<path d="M8.19995 28.7V21.3L8.29993 21.2L8.39993 21.3V28.7L8.29993 28.8L8.19995 28.7Z" fill="#99A4B3"/>
<path d="M8.19995 67.3V37.8L8.29993 37.7L8.39993 37.8V67.3L8.29993 67.4L8.19995 67.3Z" fill="#99A4B3"/>
<path d="M16.8 87.6V81.7L17.0001 81.6L17.1001 81.7V87.6L17.0001 87.7L16.8 87.6Z" fill="#99A4B3"/>
<path d="M16.8 28.7V21.3L17.0001 21.2L17.1001 21.3V28.7L17.0001 28.8L16.8 28.7Z" fill="#99A4B3"/>
<path d="M16.8 67.3V37.8L17.0001 37.7L17.1001 37.8V67.3L17.0001 67.4L16.8 67.3Z" fill="#99A4B3"/>
<path d="M25.5 87.6V81.6L25.6 81.4L25.7 81.6V87.6L25.6 87.7L25.5 87.6Z" fill="#99A4B3"/>
<path d="M25.5 29.2V21.3L25.6 21.2L25.7 21.3V29.2L25.6 29.3L25.5 29.2Z" fill="#99A4B3"/>
<path d="M25.5 67.5V37.3L25.6 37.2L25.7 37.3V67.5L25.6 67.6L25.5 67.5Z" fill="#99A4B3"/>
<path d="M34.1 87.6V21.3L34.2 21.2L34.3 21.3V87.6L34.2 87.7L34.1 87.6Z" fill="#99A4B3"/>
<path d="M42.7 87.6V21.3L42.8999 21.2L42.9999 21.3V87.6L42.8999 87.7L42.7 87.6Z" fill="#99A4B3"/>
<path d="M51.4 87.6V21.3L51.5 21.2L51.6 21.3V87.6L51.5 87.7L51.4 87.6Z" fill="#99A4B3"/>
<path d="M60.1001 70.4H26.9001L26.8 70.3L26.9001 70.2H60.1001L60.3 70.3L60.1001 70.4Z" fill="#99A4B3"/>
<path d="M58.5 53.1H7.60001L7.5 53L7.60001 52.9H58.5L58.6 53L58.5 53.1Z" fill="#99A4B3"/>
<path d="M58.5001 35.9H27.4001L27.3 35.7L27.4001 35.6H58.5001L58.6001 35.7L58.5001 35.9Z" fill="#99A4B3"/>
<path d="M8.20001 35.9H7.60001L7.5 35.7L7.60001 35.6H8.20001L8.29999 35.7L8.20001 35.9Z" fill="#99A4B3"/>
<path d="M230 192.9H234.2L234.3 193L234.2 193.1H230L229.9 193L230 192.9Z" fill="#99A4B3"/>
<path d="M186.1 192.9H228.7L228.9 193L228.7 193.1H186.1L186 193L186.1 192.9Z" fill="#99A4B3"/>
<path d="M12.5 210.2H234.2L234.3 210.3L234.2 210.4H12.5L12.4 210.3L12.5 210.2Z" fill="#99A4B3"/>
<path d="M12.5 227.4H234.2L234.3 227.5L234.2 227.7H12.5L12.4 227.5L12.5 227.4Z" fill="#99A4B3"/>
<path d="M97.6 244.7H187.5L187.7 244.8L187.5 244.9H97.6L97.5 244.8L97.6 244.7Z" fill="#99A4B3"/>
<path d="M188.8 244.7H234.2L234.3 244.8L234.2 244.9H188.8L188.7 244.8L188.8 244.7Z" fill="#99A4B3"/>
<path d="M186.1 262H187.5L187.7 262.1L187.5 262.2H186.1L186 262.1L186.1 262Z" fill="#99A4B3"/>
<path d="M188.8 262H234.2L234.3 262.1L234.2 262.2H188.8L188.7 262.1L188.8 262Z" fill="#99A4B3"/>
<path d="M13.2 233.6V193L13.3999 192.9L13.4999 193V233.6L13.3999 233.7L13.2 233.6Z" fill="#99A4B3"/>
<path d="M30.5 235.9V193L30.6 192.9L30.8 193V235.9L30.6 236L30.5 235.9Z" fill="#99A4B3"/>
<path d="M47.8 238.2V193L47.9001 192.9L48.0001 193V238.2L47.9001 238.3L47.8 238.2Z" fill="#99A4B3"/>
<path d="M65.1 240.5V193L65.2 192.9L65.3 193V240.5L65.2 240.6L65.1 240.5Z" fill="#99A4B3"/>
<path d="M82.3 242.8V193L82.5001 192.9L82.6001 193V242.8L82.5001 242.9L82.3 242.8Z" fill="#99A4B3"/>
<path d="M99.6 245.1V193L99.7 192.9L99.8 193V245.1L99.7 245.2L99.6 245.1Z" fill="#99A4B3"/>
<path d="M116.9 247.4V193L117 192.9L117.1 193V247.4L117 247.5L116.9 247.4Z" fill="#99A4B3"/>
<path d="M134.2 249.7V193L134.3 192.9L134.4 193V249.7L134.3 249.8L134.2 249.7Z" fill="#99A4B3"/>
<path d="M151.4 252V193L151.5 192.9L151.7 193V252L151.5 252.1L151.4 252Z" fill="#99A4B3"/>
<path d="M168.7 254.3V193L168.8 192.9L168.9 193V254.3L168.8 254.4L168.7 254.3Z" fill="#99A4B3"/>
<path d="M186 256.6V193L186.1 192.9L186.2 193V256.6L186.1 256.7L186 256.6Z" fill="#99A4B3"/>
<path d="M203.2 267V177.3L203.4 177.1L203.5 177.3V267L203.4 267.1L203.2 267Z" fill="#99A4B3"/>
<path d="M220.5 267V177.3L220.6 177.1L220.8 177.3V267L220.6 267.1L220.5 267Z" fill="#99A4B3"/>
<path fill-rule="evenodd" clip-rule="evenodd" d="M12.5 222.1H1V10.9H202.4V12.5H203.8V16.1H202.4V19.6H178.1V21.2H174.8V19.6H64.6V45.5H66.4V53.9H61.8V56.8H58.5V21.3H7.60001V87.6H58.5V81.3H61.8V111.5H50.3V108.2H58.5V90.9H7.60001V108.2H15.7V111.5H7.60001V185.7H13.3V189.8H12.5V222.1Z" fill="#22576F"/>
<path fill-rule="evenodd" clip-rule="evenodd" d="M70.9001 185.7L70.8 189.8H71.6001V193H186.1V172.8H186.8V168.8H178.8V180.1H109.7V185.7H70.9001Z" fill="#22576F"/>
<path d="M204.1 168.8H199.8V177.3H204.1V168.8Z" fill="#22576F"/>
<path fill-rule="evenodd" clip-rule="evenodd" d="M230 168.8V177.3H234.2V222.1H240.8V10.9H229.7V12.5H228.3V16.1H229.7V19.6H232V106H229.1V109.3H232V126.6H200.3V109.3H203.2V106H200.3V103.4H194.2V132.7H232V168.8H230Z" fill="#22576F"/>
<path fill-rule="evenodd" clip-rule="evenodd" d="M88 45.5V53.9H194.2V79H200.3V45.5H178.1V44.2H174.8V45.5H88Z" fill="#22576F"/>
<path d="M201.9 59.8V59.7H203L203.1 59.8V69.9V70H203H201.9H201.8V69.9V59.8L201.9 59.7V59.8H202.1V69.8H202.9V60H201.9V59.8H202.1H201.9Z" fill="#22576F"/>
<path d="M111.2 43.2H144.3L144.4 43.3V44.4L144.3 44.5H111.4L111.3 44.4L111.4 44.2H144.1V43.4H111.2L111 43.3L111.2 43.2Z" fill="#22576F"/>
<path d="M200.3 119.2H202.4L202.6 119.4L202.4 119.5H200.3L200.2 119.4L200.3 119.2Z" fill="#22576F"/>
<path d="M223.5 119.2H227.7L227.8 119.3L227.7 119.4H223.5L223.4 119.3L223.5 119.2ZM217.2 119.2H221.4L221.5 119.3L221.4 119.4H217.2L217.1 119.3L217.2 119.2ZM210.9 119.2H215.1L215.2 119.3L215.1 119.4H210.9L210.8 119.3L210.9 119.2ZM204.6 119.2H208.8L208.9 119.3L208.8 119.4H204.6L204.5 119.3L204.6 119.2Z" fill="#22576F"/>
<path d="M229.8 119.2H232L232.1 119.4L232 119.5H229.8L229.7 119.4L229.8 119.2Z" fill="#22576F"/>
<path d="M58.4999 98.2H56.2999L56.2 98.1L56.2999 98H58.4999L58.5999 98.1L58.4999 98.2Z" fill="#22576F"/>
<path d="M16.1001 98.2H11.9001L11.8 98.1L11.9001 98H16.1001L16.2001 98.1L16.1001 98.2ZM22.4001 98.2H18.2001L18.1001 98.1L18.2001 98H22.4001L22.5001 98.1L22.4001 98.2ZM28.8 98.2H24.6001L24.5001 98.1L24.6001 98H28.8L28.9001 98.1L28.8 98.2ZM35.2001 98.2H31.0001L30.9001 98.1L31.0001 98H35.2001L35.3 98.1L35.2001 98.2ZM41.5001 98.2H37.3L37.2001 98.1L37.3 98H41.5001L41.6001 98.1L41.5001 98.2ZM47.9001 98.2H43.7001L43.6001 98.1L43.7001 98H47.9001L48.0001 98.1L47.9001 98.2ZM54.2001 98.2H50.0001L49.9001 98.1L50.0001 98H54.2001L54.3 98.1L54.2001 98.2Z" fill="#22576F"/>
<path d="M9.70001 98.2H7.60001L7.5 98.1L7.60001 98H9.70001L9.89999 98.1L9.70001 98.2Z" fill="#22576F"/>
<path d="M186.1 172.7H199.8L199.9 172.8L199.8 173H186.1L186 172.8L186.1 172.7Z" fill="#22576F"/>
<path d="M186.1 176H199.8L199.9 176.1L199.8 176.2H186.1L186 176.1L186.1 176Z" fill="#22576F"/>
<path d="M12.5 189.6H71.6L71.7 189.8L71.6 189.9H12.5L12.4 189.8L12.5 189.6Z" fill="#22576F"/>
<path d="M12.5 192.9H71.6L71.7 193L71.6 193.1H12.5L12.4 193L12.5 192.9Z" fill="#22576F"/>
<path d="M230 203.2V203.3H228.7H228.6V203.2V177.3V177.2L228.7 177.1H230L230.1 177.2V177.3V203.2V203.3H230V203.2H229.9V177.4H228.9V203H230V203.2H229.9H230Z" fill="#22576F"/>
<path d="M204.2 177.3C204.2 184.4 207.1 190.9 211.8 195.5C216.5 200.2 222.9 203.1 230 203.1L230.1 203.2L230 203.3C215.6 203.3 204 191.6 204 177.3L204.1 177.2L204.2 177.3Z" fill="#22576F"/>
<path d="M228.3 40.6V40.7H227H226.9V40.6V16.1V16H227H228.3H228.4V16.1V40.6V40.7H228.3V40.6H228.2V16.2H227.2V40.5H228.3V40.6H228.2H228.3Z" fill="#22576F"/>
<path d="M203.9 16.1C203.9 22.8 206.6 28.9 211 33.3C215.4 37.7 221.5 40.4 228.2 40.4L228.3 40.5L228.2 40.6C214.6 40.6 203.6 29.6 203.6 16L203.7 15.9L203.9 16.1Z" fill="#22576F"/>
<path d="M187.5 244V243.8H188.8L188.9 243.9V244V267V267.1H188.8H187.5H187.4V267V244V243.9L187.5 243.8V244H187.7V266.9H188.7V244.1H187.5V244H187.7H187.5Z" fill="#22576F"/>
<path d="M210.4 267C210.4 260.7 207.8 254.9 203.7 250.8C199.6 246.7 193.8 244.1 187.5 244.1L187.4 244L187.5 243.9C200.3 243.9 210.7 254.3 210.7 267.1L210.6 267.2L210.4 267Z" fill="#22576F"/>
<path d="M216 106C216 103.7 215.4 101.5 214.3 99.6V99.4H214.5C215.6 101.4 216.3 103.6 216.3 105.9L216.2 106H216Z" fill="#22576F"/>
<path d="M218 99.5C216.9 101.5 216.3 103.7 216.3 105.9L216.2 106H216C216 103.7 216.6 101.4 217.8 99.5H218Z" fill="#22576F"/>
<path d="M203.2 106L203.1 105.8L214.3 99.4H214.4H214.5L215.1 100.5V100.7L203.9 107.2H203.8L203.7 107.1L203.1 106V105.8L203.2 106L203.3 105.9L203.9 106.9L214.9 100.5L214.4 99.6L203.2 106.1V106L203.3 105.9L203.2 106Z" fill="#22576F"/>
<path d="M229.1 106L229 106.1L217.9 99.6L217.4 100.5L228.4 106.9L229 105.9L229.1 106L229 106.1L229.1 106H229.2L228.6 107.1L228.4 107.2L217.2 100.7L217.1 100.5L217.8 99.4H217.9L229.2 105.8V105.9V106H229.1Z" fill="#22576F"/>
<path d="M61.8 56.8L61.9 56.7L83.1 68.9V69V69.1L82.5 70.2H82.3L61.1 58V57.9V57.8L61.7 56.7H61.9L61.8 56.8L61.9 56.9L61.3 57.8L82.3 69.9L82.8 69.1L61.7 56.9L61.8 56.8L61.9 56.9L61.8 56.8Z" fill="#22576F"/>
<path d="M61.7999 81.1C70.4999 81.1 78.4999 76.5 82.8999 68.9H83.0999V69.1C78.6999 76.7 70.5999 81.4 61.7999 81.4L61.7 81.3L61.7999 81.1Z" fill="#22576F"/>
<path d="M178.1 21.2V21H201.2L201.3 21.1V21.2V22.4V22.5H201.2H178.1H178V22.4V21.2V21.1L178.1 21V21.2H178.3V22.3H201V21.3H178.1V21.2H178.3H178.1Z" fill="#22576F"/>
<path d="M178.1 44.1C184.4 44.1 190.2 41.5 194.3 37.4C198.4 33.3 201 27.5 201 21.2L201.1 21.1L201.2 21.2C201.2 34 190.8 44.4 178 44.4L177.9 44.3L178.1 44.1Z" fill="#22576F"/>
<path d="M187.5 267V267.1H186.2V268.3H187.4V267H187.5V267.1V267H187.7V268.4L187.6 268.5L187.5 268.6H186.1L186 268.5V268.4V267V266.9H186.1H187.5H187.6L187.7 267H187.5Z" fill="#22576F"/>
<path d="M210.6 267V266.9H234.2H234.3V267V268.4V268.5L234.2 268.6H210.6L210.5 268.5L210.4 268.4V267L210.5 266.9H210.6V267H210.7V268.3H234.1V267.1H210.6V267H210.7H210.6Z" fill="#22576F"/>
<path d="M200.3 61.2H201.9L202.1 61.3L201.9 61.4H200.3L200.2 61.3L200.3 61.2Z" fill="#22576F"/>
<path d="M203 61.2H232L232.1 61.3L232 61.4H203L202.9 61.3L203 61.2Z" fill="#22576F"/>
<path d="M200.3 68.4H201.9L202.1 68.5L201.9 68.6H200.3L200.2 68.5L200.3 68.4Z" fill="#22576F"/>
<path d="M203 68.4H232L232.1 68.5L232 68.6H203L202.9 68.5L203 68.4Z" fill="#22576F"/>
<path d="M144.1 45.5V19.6L144.3 19.5L144.4 19.6V45.5L144.3 45.6L144.1 45.5Z" fill="#22576F"/>
<path d="M129.7 45.5V44.4L129.9 44.2L130 44.4V45.5L129.9 45.6L129.7 45.5Z" fill="#22576F"/>
<path d="M129.7 43.3V19.6L129.9 19.5L130 19.6V43.3L129.9 43.4L129.7 43.3Z" fill="#22576F"/>
<path d="M122.5 45.5V44.4L122.7 44.2L122.8 44.4V45.5L122.7 45.6L122.5 45.5Z" fill="#22576F"/>
<path d="M122.5 43.3V19.6L122.7 19.5L122.8 19.6V43.3L122.7 43.4L122.5 43.3Z" fill="#22576F"/>
<path d="M115.3 45.5V44.4L115.5 44.2L115.6 44.4V45.5L115.5 45.6L115.3 45.5Z" fill="#22576F"/>
<path d="M115.3 43.3V19.6L115.5 19.5L115.6 19.6V43.3L115.5 43.4L115.3 43.3Z" fill="#22576F"/>
<path d="M108.1 33.9V32.5L108.3 32.4L108.4 32.5V33.9L108.3 34L108.1 33.9Z" fill="#22576F"/>
<path d="M108.1 31.2V19.6L108.3 19.5L108.4 19.6V31.2L108.3 31.3L108.1 31.2Z" fill="#22576F"/>
<path d="M104.9 19.6L108 31L110.5 31.7L110.6 31.8L110.5 31.9L106.5 33.3L108.7 33.9L108.8 34L111.9 45.4L111.8 45.6L111.6 45.5L108.6 34.1L106.1 33.4L106 33.3L106.1 33.1L110 31.8L107.9 31.2L107.8 31.1L104.7 19.7L104.8 19.5L104.9 19.6Z" fill="#22576F"/>
<path d="M136.9 45.5V44.4L137.1 44.2L137.2 44.4V45.5L137.1 45.6L136.9 45.5Z" fill="#22576F"/>
<path d="M136.9 43.3V19.6L137.1 19.5L137.2 19.6V43.3L137.1 43.4L136.9 43.3Z" fill="#22576F"/>
<path d="M66.4001 53.9L66.5001 53.8L85.0001 64.5L85.5001 63.7L67.1001 53L66.5001 54L66.4001 53.9L66.5001 53.8L66.4001 53.9L66.3 53.8L66.9001 52.8L67.0001 52.7H67.1001L85.8 63.5V63.6V63.7L85.2001 64.8H85.1001H85.0001L66.3 54V53.8L66.4001 53.9Z" fill="#22576F"/>
<path d="M85 64.6C86.9 61.3 87.9 57.6 87.9 53.9L88 53.8L88.1 53.9C88.1 57.7 87.1 61.5 85.2 64.8H85V64.6Z" fill="#22576F"/>
<path d="M15.7 128.8V128.6H16.9V111.6H15.8V128.8H15.7V128.6V128.8H15.6V111.5V111.4H15.7H17H17.1V111.5V128.8L17 128.9H15.7L15.6 128.8H15.7Z" fill="#22576F"/>
<path d="M49 128.8V128.6H50.1V111.6H49.1V128.8H49V128.6V128.8H48.9V111.5V111.4H49H50.3H50.4V111.5V128.8L50.3 128.9H49L48.9 128.8H49Z" fill="#22576F"/>
<path d="M15.7 128.6C20.4 128.6 24.7 126.7 27.8 123.6C30.9 120.5 32.8 116.2 32.8 111.5L32.9 111.4L33 111.5C33 121.1 25.2 128.9 15.6 128.9L15.5 128.8L15.7 128.6Z" fill="#22576F"/>
<path d="M33.1001 111.5C33.1001 116.2 35.0001 120.5 38.1001 123.6C41.2001 126.7 45.5001 128.6 50.2001 128.6L50.3 128.7L50.2001 128.8C40.6001 128.8 32.8 121 32.8 111.4L32.9001 111.3L33.1001 111.5Z" fill="#22576F"/>
<path d="M200.3 103.4L200.2 103.3L221.3 91.2L220.8 90.3L199.8 102.4L200.4 103.4H200.3L200.2 103.3L200.3 103.4L200.2 103.5L199.6 102.4V102.3V102.2L220.8 90H220.9H221L221.6 91.1V91.2V91.3L200.4 103.5H200.2L200.3 103.4Z" fill="#22576F"/>
<path d="M221.4 91.3C217.1 83.8 209 79.1 200.3 79.1L200.2 79L200.3 78.9C209.1 78.9 217.2 83.6 221.6 91.2V91.4L221.4 91.3Z" fill="#22576F"/>
<path d="M186.1 172.8V172.7H187.5L187.6 172.8H187.7V176.1L187.6 176.2H187.5H186.1H186V176.1V172.8L186.1 172.7V172.8H186.2V176H187.4V173H186.1V172.8H186.2H186.1Z" fill="#22576F"/>
<path d="M198.3 172.8V172.7H199.8L199.9 172.8V176.1V176.2H199.8H198.3H198.2V176.1V172.8L198.3 172.7V172.8H198.5V176H199.6V173H198.3V172.8H198.5H198.3Z" fill="#22576F"/>
<path d="M187.5 175.2H198.3L198.5 175.4L198.3 175.5H187.5L187.4 175.4L187.5 175.2Z" fill="#22576F"/>
<path d="M187.5 174.5H198.3L198.5 174.6L198.3 174.8H187.5L187.4 174.6L187.5 174.5Z" fill="#22576F"/>
<path d="M186.8 168.7H199.8L199.9 168.8L199.8 168.9H186.8L186.7 168.8L186.8 168.7Z" fill="#22576F"/>
<path d="M12.5 189.8V189.6H14L14.1 189.7V189.8V193V193.1H14H12.5L12.4 193V189.8L12.5 189.7V189.6V189.8H12.7V192.9H13.9V189.9H12.5V189.8H12.7H12.5Z" fill="#22576F"/>
<path d="M70.1 189.8V189.6H71.6L71.7 189.7V189.8V193V193.1H71.6H70.1H70V193V189.8V189.7L70.1 189.6V189.8H70.3V192.9H71.4V189.9H70.1V189.8H70.3H70.1Z" fill="#22576F"/>
<path d="M29.1 189.8V189.6H30.5L30.6 189.7L30.7 189.8V193L30.6 193.1H30.5H29.1H29V193V189.8V189.7L29.1 189.6V189.8H29.2V192.9H30.4V189.9H29.1V189.8H29.2H29.1Z" fill="#22576F"/>
<path d="M14 192.2H29.1L29.2 192.3L29.1 192.4H14L13.9 192.3L14 192.2Z" fill="#22576F"/>
<path d="M14 191.4H29.1L29.2 191.6L29.1 191.7H14L13.9 191.6L14 191.4Z" fill="#22576F"/>
<path d="M30.5 192.2H70.1L70.3 192.3L70.1 192.4H30.5L30.4 192.3L30.5 192.2Z" fill="#22576F"/>
<path d="M30.5 191.4H70.1L70.3 191.6L70.1 191.7H30.5L30.4 191.6L30.5 191.4Z" fill="#22576F"/>
<path d="M13.3 185.6H70.9L71 185.7L70.9 185.8H13.3L13.1 185.7L13.3 185.6Z" fill="#22576F"/>
<path d="M164.4 171.5V171.6H124.2V180H164.3V171.5H164.4V171.6V171.5H164.5V180.1V180.2L164.4 180.3H124.1L124 180.2V180.1V171.5V171.4H124.1H164.4H164.5V171.5H164.4Z" fill="#22576F"/>
<path d="M9.00003 138.2V138.1H26.3H26.4V138.2V184.3V184.4H26.3H9.00003L8.90002 184.3V138.2L9.00003 138.1V138.2H9.20004V184.1H26.2V138.3H9.00003V138.2H9.20004H9.00003Z" fill="#22576F"/>
<path d="M13.6 152.6V152.5H14.7H14.8V152.6V169.9V170H14.7H13.6H13.5V169.9V152.6V152.5H13.6V152.6H13.8V169.8H14.6V152.7H13.6V152.6H13.8H13.6Z" fill="#22576F"/>
<path d="M20.0001 153.9V153.8H24.3H24.4001V153.9V168.3V168.4L24.3 168.5H20.0001L19.9001 168.4L19.8 168.3V153.9L19.9001 153.8H20.0001V153.9H20.1001V168.2H24.1001V154.1H20.0001V153.9H20.1001H20.0001Z" fill="#22576F"/>
<path d="M13.6 158.7H12.1V163.8H13.6L13.8 163.9L13.6 164.1H12L11.9 164V163.9V158.5L12 158.4H13.6L13.8 158.5L13.6 158.7Z" fill="#22576F"/>
<path d="M32.7999 155.1H26.2999L26.2 154.9L26.2999 154.8H32.7999L32.8999 154.9L32.7999 155.1Z" fill="#22576F"/>
<path d="M14.7 163.8H16.2V158.7H14.7L14.6 158.5L14.7 158.4H16.3L16.4 158.5H16.5V163.9L16.4 164L16.3 164.1H14.7L14.6 163.9L14.7 163.8Z" fill="#22576F"/>
<path d="M32.7999 167.7H26.2999L26.2 167.5L26.2999 167.4H32.7999L32.8999 167.5L32.7999 167.7Z" fill="#22576F"/>
<path d="M32.7999 154.2V154.1H33.8999H33.9999V154.2V168.3L33.8999 168.4H32.7999L32.7 168.3V154.2V154.1H32.7999V154.2H32.8999V168.1H33.7V154.3H32.7999V154.2H32.8999H32.7999Z" fill="#22576F"/>
<path d="M21.2 150.4V150.5C21 150.6 20.8999 150.7 20.8999 151V151.1C20.9999 151.3 21.0999 151.4 21.3999 151.4H21.4999C21.9999 151.3 22.6 151.2 23.2 151.1C23.4 151.1 23.4999 150.9 23.4999 150.8C23.4999 150.7 23.3999 150.5 23.2999 150.5C22.9999 150.4 22.6999 150.3 22.2999 150.3C21.9999 150.3 21.5999 150.4 21.2999 150.5L21.2 150.4V150.3C21.6 150.2 21.8999 150.1 22.2999 150.1C22.6999 150.1 22.9999 150.2 23.3999 150.3C23.5999 150.4 23.7999 150.6 23.7999 150.8C23.7999 151.1 23.6 151.4 23.2 151.4C22.7 151.4 22.0999 151.5 21.5999 151.7H21.3999C21.0999 151.7 20.8 151.5 20.7 151.2V151C20.7 150.7 20.9 150.4 21.2 150.3V150.4Z" fill="#22576F"/>
<path d="M144.8 91.3V91.5H120.5V107H144.7V91.3H144.8V91.5V91.3H145V107.1L144.9 107.2H144.8H120.4H120.3V107.1V91.3V91.2H120.4H144.8H144.9L145 91.3H144.8Z" fill="#22576F"/>
<path d="M165.7 64H165.6C165.6 60.8 168.2 58.1 171.5 58.1C174.7 58.1 177.4 60.7 177.4 64C177.4 67.2 174.8 69.9 171.5 69.9C168.3 69.9 165.6 67.3 165.6 64H165.7H165.8C165.8 65.6 166.4 67 167.4 68C168.4 69 169.8 69.6 171.4 69.6C173 69.6 174.4 69 175.4 68C176.4 67 177 65.6 177 64C177 62.4 176.4 61 175.4 60C174.4 59 173 58.4 171.4 58.4C169.8 58.4 168.4 59 167.4 60C166.4 61 165.8 62.4 165.8 64H165.7Z" fill="#22576F"/>
<path d="M170 64H169.9C169.9 63.1 170.6 62.4 171.5 62.4C172.4 62.4 173.1 63.1 173.1 64C173.1 64.9 172.4 65.6 171.5 65.6C170.6 65.6 169.9 64.9 169.9 64H170H170.1C170.1 64.7 170.7 65.4 171.5 65.4C172.2 65.4 172.9 64.8 172.9 64C172.9 63.3 172.3 62.6 171.5 62.6C170.8 62.6 170.1 63.2 170.1 64H170Z" fill="#22576F"/>
<path d="M177.2 64.1H173L172.8 64L173 63.9H177.2L177.4 64L177.2 64.1Z" fill="#22576F"/>
<path d="M170 64.1H165.7L165.6 64L165.7 63.9H170L170.1 64L170 64.1Z" fill="#22576F"/>
<path d="M171.4 69.7V65.5L171.5 65.3L171.6 65.5V69.7L171.5 69.9L171.4 69.7Z" fill="#22576F"/>
<path d="M171.4 62.5V58.2L171.5 58.1L171.6 58.2V62.5L171.5 62.6L171.4 62.5Z" fill="#22576F"/>
<path d="M164.3 56.8V56.7H178.7H178.8V56.8V77L178.7 77.1H164.3L164.2 77H164.1V56.8L164.2 56.7H164.3V56.8H164.4V76.8H178.6V56.9H164.3V56.8H164.4H164.3Z" fill="#22576F"/>
<path d="M162.8 55.5H102.4L102.3 55.4L102.4 55.2H162.8L163 55.4L162.8 55.5Z" fill="#22576F"/>
<path d="M102.3 78.4V55.4L102.4 55.2L102.5 55.4V78.4L102.4 78.5L102.3 78.4Z" fill="#22576F"/>
<path d="M162.7 78.4V55.4L162.8 55.2L163 55.4V78.4L162.8 78.5L162.7 78.4Z" fill="#22576F"/>
<path d="M159.8 78.4V58.9L160 58.8L160.1 58.9V78.4L160 78.5L159.8 78.4Z" fill="#22576F"/>
<path d="M162.8 58.4H102.4L102.3 58.2L102.4 58.1H162.8L163 58.2L162.8 58.4Z" fill="#22576F"/>
<path d="M162.8 78.5H102.4L102.3 78.4L102.4 78.3H162.8L163 78.4L162.8 78.5Z" fill="#22576F"/>
<path d="M141.6 78.4V59.7L141.7 59.5L141.8 59.7V78.4L141.7 78.5L141.6 78.4Z" fill="#22576F"/>
<path d="M123.4 78.4V59.7L123.5 59.5L123.6 59.7V78.4L123.5 78.5L123.4 78.4Z" fill="#22576F"/>
<path d="M160 59.8H105.3L105.1 59.7L105.3 59.5H160L160.1 59.7L160 59.8Z" fill="#22576F"/>
<path d="M102.4 58.8H105.3L105.4 58.9L105.3 59.1H102.4L102.3 58.9L102.4 58.8Z" fill="#22576F"/>
<path d="M162.8 59.1H160L159.8 58.9L160 58.8H162.8L163 58.9L162.8 59.1Z" fill="#22576F"/>
<path d="M105.1 78.4V58.9L105.3 58.8L105.4 58.9V78.4L105.3 78.5L105.1 78.4Z" fill="#22576F"/>
<path d="M141.7 133C143 137.8 147.3 140.9 152 140.9C152.9 140.9 153.8 140.8 154.8 140.5C159.6 139.2 162.7 134.9 162.7 130.2C162.7 129.3 162.6 128.4 162.3 127.4L162.4 127.2L162.6 127.3C162.9 128.2 163 129.2 163 130.1C163 134.9 159.8 139.3 154.9 140.6C154 140.9 153 141 152.1 141C147.3 141 142.9 137.8 141.6 132.9L141.7 132.7V133Z" fill="#22576F"/>
<path d="M144.5 132.2C145.4 135.7 148.6 138 152 138C152.7 138 153.3 137.9 154 137.7C157.5 136.8 159.8 133.6 159.8 130.2C159.8 129.5 159.7 128.9 159.5 128.2L159.6 128L159.8 128.1C160 128.8 160.1 129.5 160.1 130.2C160.1 133.8 157.7 137 154.1 138C153.4 138.2 152.7 138.3 152 138.3C148.4 138.3 145.2 135.9 144.2 132.3L144.3 132.1L144.5 132.2Z" fill="#22576F"/>
<path d="M144.3 132.3L141.5 121.9L141.6 121.7L141.7 121.8L144.5 132.2L144.4 132.4L144.3 132.3Z" fill="#22576F"/>
<path d="M157 117.7L159.8 128.1L159.7 128.3L159.6 128.2L156.8 117.8L156.9 117.6L157 117.7Z" fill="#22576F"/>
<path d="M141.5 133L138.7 122.6L138.8 122.5H138.9L141.7 133L141.6 133.1L141.5 133Z" fill="#22576F"/>
<path d="M138.8 122.5L159.6 116.9L159.8 117L159.7 117.1L138.8 122.7L138.7 122.6L138.8 122.5Z" fill="#22576F"/>
<path d="M159.8 117L162.6 127.4L162.5 127.5L162.3 127.4L159.5 117L159.6 116.9L159.8 117Z" fill="#22576F"/>
<path d="M144.1 130.8C145 134.3 148.2 136.6 151.6 136.6C152.3 136.6 152.9 136.5 153.6 136.3C157.1 135.4 159.4 132.2 159.4 128.8C159.4 128.1 159.3 127.5 159.1 126.8L159.2 126.6L159.4 126.7C159.6 127.4 159.7 128.1 159.7 128.8C159.7 132.4 157.3 135.6 153.7 136.6C153 136.8 152.3 136.9 151.6 136.9C148 136.9 144.8 134.5 143.8 130.9L143.9 130.7L144.1 130.8Z" fill="#22576F"/>
<path d="M159.4 177.3V177.4H129.1V177.3H129V176.5L129.1 176.4H159.4H159.5V176.5V177.3L159.4 177.4V177.3H159.2V176.7H129.3V177.1H159.4V177.3H159.2H159.4Z" fill="#22576F"/>
<path d="M139.8 176.5V173.7L139.9 173.6V173.5H148.6L148.7 173.6V173.7V176.5L148.6 176.7L148.5 176.5V173.8H140.1V176.5L139.9 176.7L139.8 176.5Z" fill="#22576F"/>
<path d="M148.7 177.3V178.7V178.8H148.6H139.9L139.8 178.7V177.3L139.9 177.1L140.1 177.3V178.6H148.5V177.3L148.6 177.1L148.7 177.3Z" fill="#22576F"/>
<path d="M74.3999 177.3C76.4999 179.4 79.1999 180.4 81.8999 180.4C84.5999 180.4 87.3999 179.4 89.3999 177.3C91.4999 175.2 92.4999 172.5 92.4999 169.8C92.4999 167.1 91.4999 164.3 89.3999 162.3V162H89.5999C91.6999 164.1 92.7999 166.9 92.7999 169.7C92.7999 172.5 91.6999 175.3 89.5999 177.4C87.4999 179.5 84.6999 180.6 81.8999 180.6C79.0999 180.6 76.3 179.5 74.2 177.4V177.2L74.3999 177.3Z" fill="#22576F"/>
<path d="M76.3999 175.2C77.8999 176.7 79.8999 177.5 81.8999 177.5C83.8999 177.5 85.8999 176.7 87.3999 175.2C88.8999 173.7 89.7 171.7 89.7 169.7C89.7 167.7 88.8999 165.7 87.3999 164.2V164H87.5999C89.1999 165.6 89.9999 167.6 89.9999 169.7C89.9999 171.8 89.1999 173.8 87.5999 175.4C85.9999 177 83.9999 177.8 81.8999 177.8C79.7999 177.8 77.8 177 76.2 175.4V175.2H76.3999Z" fill="#22576F"/>
<path d="M87.4001 164.2L79.8 156.6V156.4H80.0001L87.6001 164V164.2H87.4001Z" fill="#22576F"/>
<path d="M68.8 167.6L76.4 175.2V175.4H76.2L68.6 167.8V167.6H68.8Z" fill="#22576F"/>
<path d="M89.5001 162.2L81.8 154.5V154.4H82.0001L89.6001 162V162.2H89.5001Z" fill="#22576F"/>
<path d="M82 154.5L66.7 169.8H66.6V169.6L81.8 154.4H82V154.5Z" fill="#22576F"/>
<path d="M66.7 169.6L74.4 177.3V177.4H74.2L66.6 169.8V169.6H66.7Z" fill="#22576F"/>
<path d="M75.3999 174.2C76.8999 175.7 78.8999 176.5 80.8999 176.5C82.8999 176.5 84.8999 175.7 86.3999 174.2C87.8999 172.7 88.7 170.7 88.7 168.7C88.7 166.7 87.8999 164.7 86.3999 163.2V163H86.5999C88.1999 164.6 88.9999 166.6 88.9999 168.7C88.9999 170.8 88.1999 172.8 86.5999 174.4C84.9999 176 82.9999 176.8 80.8999 176.8C78.7999 176.8 76.8 176 75.2 174.4V174.2H75.3999Z" fill="#22576F"/>
<path d="M102.9 127.4C102.7 128.3 102.5 129.3 102.5 130.2C102.5 134.9 105.6 139.2 110.4 140.5C111.3 140.7 112.3 140.9 113.2 140.9C117.9 140.9 122.2 137.8 123.5 133L123.7 132.9L123.8 133.1C122.5 138 118.1 141.2 113.3 141.2C112.4 141.2 111.4 141.1 110.5 140.8C105.6 139.5 102.4 135.1 102.4 130.3C102.4 129.4 102.5 128.4 102.8 127.5L103 127.4H102.9Z" fill="#22576F"/>
<path d="M105.6 128.2C105.4 128.9 105.3 129.6 105.3 130.2C105.3 133.6 107.6 136.8 111.1 137.7C111.8 137.9 112.5 138 113.1 138C116.5 138 119.7 135.7 120.6 132.2L120.8 132.1L120.9 132.3C119.9 135.9 116.7 138.3 113.1 138.3C112.4 138.3 111.7 138.2 111 138C107.4 137 105 133.8 105 130.2C105 129.5 105.1 128.8 105.3 128.1L105.5 128L105.6 128.2Z" fill="#22576F"/>
<path d="M120.7 132.2L123.5 121.8L123.6 121.7L123.7 121.9L120.9 132.3L120.8 132.4L120.7 132.2Z" fill="#22576F"/>
<path d="M108.4 117.8L105.6 128.2L105.5 128.3L105.4 128.1L108.2 117.7L108.4 117.6V117.8Z" fill="#22576F"/>
<path d="M123.5 133L126.3 122.5H126.4L126.5 122.6L123.7 133L123.6 133.1L123.5 133Z" fill="#22576F"/>
<path d="M126.4 122.7L105.5 117.1L105.4 117L105.6 116.9L126.4 122.5L126.5 122.6L126.4 122.7Z" fill="#22576F"/>
<path d="M105.7 117L102.9 127.4L102.7 127.5L102.6 127.4L105.4 117L105.6 116.9L105.7 117Z" fill="#22576F"/>
<path d="M106 126.8C105.8 127.5 105.7 128.2 105.7 128.8C105.7 132.2 108 135.4 111.5 136.3C112.2 136.5 112.9 136.6 113.5 136.6C116.9 136.6 120.1 134.3 121 130.8L121.2 130.7L121.3 130.9C120.3 134.5 117.1 136.9 113.5 136.9C112.8 136.9 112.1 136.8 111.4 136.6C107.8 135.6 105.4 132.4 105.4 128.8C105.4 128.1 105.5 127.4 105.7 126.7L105.9 126.6L106 126.8Z" fill="#22576F"/>
<path d="M16.5 75.1H13.1L13 75L13.1 74.9H16.5L16.7 75L16.5 75.1Z" fill="#22576F"/>
<path d="M16.5001 74.9L16.6001 74.8L16.7001 74.7L16.8 74.8C16.8 75 16.6001 75.2 16.4001 75.2L16.3 75.1L16.5001 74.9Z" fill="#22576F"/>
<path d="M16.7 74.3L16.6 74.2L16.5 74.1L16.6 74C16.8 74 17 74.2 17 74.4L16.9 74.5L16.7 74.3Z" fill="#22576F"/>
<path d="M16.7 74.7V74.3L16.7999 74.2L16.8999 74.3V74.7L16.7999 74.8L16.7 74.7Z" fill="#22576F"/>
<path d="M13.2 74.1L13.4 74.2L13.5 74.3L13.4 74.4C13.3 74.4 13.1 74.3 13 74.2V74L13.2 74.1Z" fill="#22576F"/>
<path d="M13.3 74.9L13.1 75H12.9V74.8C13 74.7 13.1 74.6 13.3 74.6L13.4 74.7L13.3 74.9Z" fill="#22576F"/>
<path d="M14.9999 74.9H13.2999L13.2 74.8L13.2999 74.6H14.9999L15.0999 74.8L14.9999 74.9Z" fill="#22576F"/>
<path d="M13.2999 74.1H14.9999L15.0999 74.3L14.9999 74.4H13.2999L13.2 74.3L13.2999 74.1Z" fill="#22576F"/>
<path d="M15 74.5L14.9 74.4V74.2H15L15.2 74.3V74.5H15Z" fill="#22576F"/>
<path d="M15 74.6V74.4L15.1 74.3L15.2 74.4V74.6L15.1 74.7L15 74.6Z" fill="#22576F"/>
<path d="M12.8999 73.9H13.0999L13.2 74L13.0999 74.1C12.9999 74.1 12.8999 74.1 12.7999 74L12.7 73.8L12.8999 73.9Z" fill="#22576F"/>
<path d="M13.0999 75.1H12.8999L12.7 75L12.7999 74.8C12.8999 74.8 12.9999 74.7 13.0999 74.7L13.2 74.8L13.0999 75.1Z" fill="#22576F"/>
<path d="M13.1 73.9H16.5L16.7 74.1L16.5 74.2H13.1L13 74.1L13.1 73.9Z" fill="#22576F"/>
<path d="M13.0001 74.1C12.9001 74 12.7001 73.9 12.6001 73.9C12.5001 73.9 12.3001 73.9 12.2001 74C12.1001 74.1 12.0001 74.3 12.0001 74.4C12.0001 74.5 12.0001 74.7 12.1001 74.8C12.2001 74.9 12.4001 75 12.5001 75C12.6001 75 12.8001 75 12.9001 74.9H13.1001V75.1C12.9001 75.2 12.7001 75.3 12.6001 75.3C12.4001 75.3 12.2001 75.2 12.0001 75C11.9001 74.8 11.8 74.6 11.8 74.5C11.8 74.3 11.9001 74.1 12.1001 73.9C12.3001 73.8 12.5001 73.7 12.6001 73.7C12.8001 73.7 13.0001 73.8 13.2001 74V74.2L13.0001 74.1Z" fill="#22576F"/>
<path d="M13 74.2C12.9 74.1 12.8 74.1 12.7 74.1C12.6 74.1 12.5 74.1 12.4 74.2C12.3 74.3 12.3 74.4 12.3 74.5C12.3 74.6 12.3 74.7 12.4 74.8C12.5 74.9 12.6 74.9 12.7 74.9C12.8 74.9 12.9 74.9 13 74.8H13.2V75C13.1 75.1 12.9 75.2 12.7 75.2C12.5 75.2 12.3 75.1 12.2 75C12.1 74.9 12 74.7 12 74.5C12 74.3 12.1 74.1 12.2 74C12.3 73.9 12.5 73.8 12.7 73.8C12.9 73.8 13.1 73.9 13.2 74V74.2H13Z" fill="#22576F"/>
<path d="M14.9 74.7L15 74.5H15.2V74.7L15 74.9H14.9V74.7Z" fill="#22576F"/>
<path d="M23.4001 67.2H24.8L24.9001 67.3L24.8 67.4H23.4001L23.3 67.3L23.4001 67.2Z" fill="#22576F"/>
<path d="M24.8 81.8H23.4001L23.3 81.7L23.4001 81.6H24.8L24.9001 81.7L24.8 81.8Z" fill="#22576F"/>
<path d="M24.2 79.8C24.4 79.8 24.6 79.6 24.6 79.4L24.7 79.3L24.8 79.4C24.8 79.8 24.5 80 24.1 80L24 79.9L24.2 79.8Z" fill="#22576F"/>
<path d="M17.0001 78.6C19.3001 79.3 21.8001 79.7 24.2001 79.8L24.3 79.9L24.2001 80C21.7001 79.9 19.3001 79.5 16.9001 78.8L16.8 78.6H17.0001Z" fill="#22576F"/>
<path d="M17.0001 70.5C15.4001 71 14.2001 72.4 14.0001 74.1L13.9001 74.2L13.8 74.1C14 72.3 15.2001 70.8 16.9001 70.3L17.1001 70.4L17.0001 70.5Z" fill="#22576F"/>
<path d="M14.0001 75C14.2001 76.7 15.3001 78.1 17.0001 78.6L17.1001 78.8L16.9001 78.9C15.2001 78.4 13.9 76.9 13.8 75.1L13.9001 75H14.0001Z" fill="#22576F"/>
<path d="M24.2001 69.3C21.7001 69.4 19.3001 69.8 17.0001 70.5L16.8 70.4L16.9001 70.2C19.3001 69.5 21.7001 69.1 24.2001 69L24.3 69.1L24.2001 69.3Z" fill="#22576F"/>
<path d="M24.7 69.7C24.7 69.5 24.4999 69.3 24.2999 69.3L24.2 69.2L24.2999 69.1C24.6999 69.1 24.9999 69.4 24.9999 69.8L24.8999 69.9L24.7 69.7Z" fill="#22576F"/>
<path d="M24.8999 69.7V79.4L24.7999 79.5L24.7 79.4V69.7L24.7999 69.5L24.8999 69.7Z" fill="#22576F"/>
<path d="M7.60001 81.7V81.6H24.8C25.9 81.6 26.8 80.7 26.8 79.6V69.5C26.8 68.4 25.9 67.5 24.8 67.5H7.70001V81.8H7.60001V81.7H7.5V67.3V67.2H7.60001H24.8C26.1 67.2 27.1 68.2 27.1 69.5V79.6C27.1 80.9 26.1 81.9 24.8 81.9H7.60001V81.7Z" fill="#22576F"/>
<path d="M15.2 73.9C15 73.9 14.9 74 14.7 74.1H14.5V73.9C14.7 73.7 14.9 73.6 15.1 73.6L15.2 73.7V73.9Z" fill="#22576F"/>
<path d="M14.7999 74.9C14.8999 75 15.0999 75.1 15.2999 75.1L15.3999 75.2L15.2999 75.3C15.0999 75.3 14.8 75.2 14.7 75V74.8L14.7999 74.9Z" fill="#22576F"/>
<path d="M15.2 75.1C15.4 75.1 15.5 75 15.7 74.9H15.8999V75.1C15.6999 75.3 15.4999 75.4 15.2999 75.4L15.2 75.3V75.1Z" fill="#22576F"/>
<path d="M15.7 74.1C15.6 74 15.4 73.9 15.2 73.9L15.1 73.8L15.2 73.7C15.4 73.7 15.7 73.8 15.8 74V74.2L15.7 74.1Z" fill="#22576F"/>
<path d="M23.7 79.3C23.8 79.3 23.9 79.2 23.9 79.1L24 79L24.1 79.1C24.1 79.4 23.9 79.6 23.6 79.6L23.5 79.5L23.7 79.3Z" fill="#22576F"/>
<path d="M18.1 78.9C19.6 79.2 21.1 79.4 22.6 79.4C23 79.4 23.3 79.4 23.7 79.4L23.8 79.5L23.7 79.6C23.3 79.6 23 79.6 22.6 79.6C21.1 79.6 19.6 79.4 18.1 79.1L18 79L18.1 78.9Z" fill="#22576F"/>
<path d="M17 70.5C16.9 70.5 16.8 70.6 16.6 70.6L16.4 70.5L16.5 70.3C16.6 70.3 16.8 70.2 16.9 70.2L17.1 70.3L17 70.5Z" fill="#22576F"/>
<path d="M16.7 78.4C16.8 78.4 16.9 78.5 17.1 78.5L17.2 78.7L17 78.8C16.9 78.8 16.7 78.7 16.6 78.7L16.5 78.5L16.7 78.4Z" fill="#22576F"/>
<path d="M23.7 69.7C23.3 69.7 23 69.7 22.6 69.7C21.1 69.7 19.6 69.9 18.1 70.2L18 70.1L18.1 70C19.6 69.7 21.1 69.5 22.6 69.5C23 69.5 23.3 69.5 23.7 69.5L23.8 69.6L23.7 69.7Z" fill="#22576F"/>
<path d="M23.9 69.9C23.9 69.8 23.8 69.7 23.7 69.7L23.6 69.6L23.7 69.5C24 69.5 24.2 69.7 24.2 70L24.1 70.1L23.9 69.9Z" fill="#22576F"/>
<path d="M23.9 79.1V69.9L24.1 69.8L24.2 69.9V79.1L24.1 79.2L23.9 79.1Z" fill="#22576F"/>
<path d="M18.3 37.9C19.2 38.2 20.2 38.3 21.1 38.3L21.2 38.4L21.1 38.5C20.1 38.5 19.2 38.4 18.2 38.1L18.1 37.9H18.3Z" fill="#22576F"/>
<path d="M16.1 36.8C16.8 37.3 17.5 37.6 18.3 37.9L18.4 38.1L18.2 38.2C17.4 38 16.6 37.6 15.9 37.1V36.9L16.1 36.8Z" fill="#22576F"/>
<path d="M15.3999 36.2C15.5999 36.4 15.7999 36.6 16.0999 36.8V37H15.8999C15.6999 36.8 15.4 36.6 15.2 36.4V36.2H15.3999Z" fill="#22576F"/>
<path d="M21.0999 38.3C22.0999 38.3 22.9999 38.2 23.8999 37.9C24.6999 37.7 25.3999 37.3 26.0999 36.8C26.6999 36.3 27.3 35.7 27.7 35.1C28 34.5 28.2 33.9 28.2 33.3C28.2 32.7 28 32 27.7 31.5C27.3 30.8 26.7999 30.2 26.0999 29.8C25.3999 29.3 24.6999 29 23.8999 28.7C22.9999 28.4 21.9999 28.3 21.0999 28.3C20.0999 28.3 19.1999 28.4 18.2999 28.7C17.4999 28.9 16.7999 29.3 16.0999 29.8C15.8999 30 15.5999 30.2 15.3999 30.4L15.2999 30.3H15.3999V36.5L15.2999 36.6L15.2 36.5V30.3V30.2C15.4 30 15.5999 29.8 15.8999 29.6C16.5999 29.1 17.4 28.7 18.2 28.5C19.1 28.2 20.0999 28.1 21.0999 28.1C22.0999 28.1 22.9999 28.2 23.9999 28.5C24.7999 28.7 25.5999 29.1 26.2999 29.6C26.9999 30.1 27.4999 30.7 27.8999 31.4C28.1999 32 28.3999 32.7 28.3999 33.3C28.3999 34 28.1999 34.7 27.8999 35.2C27.4999 35.9 26.8999 36.5 26.2999 37C25.5999 37.5 24.7999 37.9 23.9999 38.1C23.0999 38.4 22.0999 38.5 21.0999 38.5L20.9999 38.4L21.0999 38.3Z" fill="#22576F"/>
<path d="M12.1 37.2C14.4 37.3 16.7 37.6 19 38.1L19.1 38.2L19 38.3C16.7 37.9 14.5 37.6 12.2 37.4L12.1 37.3V37.2Z" fill="#22576F"/>
<path d="M12.9 31.2H12.8C12.7 30.7 12.5 30.2 12.3 29.7C12 29.2 11.7 28.7 11.2 28.4C11.1 28.3 10.9 28.3 10.8 28.3H10.7L8.59998 28.7L8.49997 28.9V37.6L8.59998 37.8L10.7 38.2H10.8C11 38.2 11.1 38.2 11.2 38.1C11.7 37.8 12.1 37.3 12.3 36.8C12.5 36.3 12.7 35.8 12.8 35.3C12.9 34.6 13 34 13 33.3C13 32.6 12.9 32 12.8 31.3L12.9 31.2H13C13.1 31.9 13.2 32.5 13.2 33.2C13.2 33.9 13.1 34.6 13 35.2C12.9 35.7 12.7 36.2 12.5 36.7C12.2 37.3 11.8 37.8 11.3 38.1C11.1 38.2 10.9 38.3 10.7 38.3H10.5L8.39996 37.9C8.19996 37.9 8.09998 37.7 8.09998 37.5V28.8C8.09998 28.6 8.19996 28.4 8.39996 28.4L10.5 28H10.7C10.9 28 11.1 28.1 11.3 28.2C11.8 28.6 12.2 29.1 12.5 29.6C12.7 30.1 12.9 30.6 13 31.1L12.9 31.2Z" fill="#22576F"/>
<path d="M12.0001 29.1C14.3001 29 16.6 28.7 18.8 28.2L18.9001 28.3L18.8 28.4C16.5 28.8 14.2001 29.1 11.9001 29.3L11.8 29.2L12.0001 29.1Z" fill="#22576F"/>
<path d="M10.2999 33.2H10.2C10.2 32.8 10.4999 32.5 10.8999 32.5C11.2999 32.5 11.5999 32.8 11.5999 33.2C11.5999 33.6 11.2999 33.9 10.8999 33.9C10.4999 33.9 10.2 33.6 10.2 33.2H10.2999H10.3999C10.3999 33.4 10.5999 33.6 10.7999 33.6C10.9999 33.6 11.2 33.4 11.2 33.2C11.2 33 10.9999 32.8 10.7999 32.8C10.5999 32.8 10.3999 33 10.3999 33.2H10.2999Z" fill="#22576F"/>
<path d="M180.3 268.5H180.2V261.8L1.00003 237.9L0.900024 237.8V231.9H1.00003L1.10004 231.8L186.1 256.5L186.2 256.6V268.5V268.6L186.1 268.7H180.3L180.2 268.6V268.5H180.3V268.4H186V256.7L1.20004 232.1V237.6L180.4 261.5L180.5 261.6V268.5H180.3V268.4V268.5Z" fill="#22576F"/>
<path d="M240 268.5V268.7H234.2L234.1 268.6V268.5V231.9L234.2 231.8L240 232.6L240.1 232.7V268.5V268.6L240 268.7V268.5H239.9V232.8L234.3 232.1V268.4H240V268.5H239.9H240Z" fill="#22576F"/>
<path d="M232 116.6H200.3L200.2 116.5L200.3 116.4H232L232.1 116.5L232 116.6Z" fill="#22576F"/>
<path d="M7.60001 100.8H58.5L58.6 101L58.5 101.1H7.60001L7.5 101L7.60001 100.8Z" fill="#22576F"/>
<path d="M12.5 222.1V222.3H1.00003L0.900024 222.2V222.1V10.9V10.8H1.00003H202.4H202.5V10.9V12.4H203.8H203.9V12.5V16.1V16.2L203.8 16.3H202.5V19.6V19.7L202.4 19.8H178.3V21.2L178.2 21.3H178.1H174.8H174.7V21.2V19.8H64.7V45.3H66.4L66.5 45.4V45.5V53.9V54H66.4H61.9V56.8V56.9H61.8H58.5H58.4L58.3 56.8V21.5H7.70004V87.4H58.3V81.3L58.4 81.2L58.5 81.1H61.8L61.9 81.2V81.3V111.5V111.6H61.8H50.3H50.2L50.1 111.5V108.2L50.2 108.1L50.3 108H58.3V91H7.70004V108H15.7L15.8 108.1V108.2V111.5V111.6H15.7H7.70004V185.6H13.3H13.4V185.7V189.8L13.3 189.9H12.7V222.1L12.6 222.2L12.5 222.3V222.1H12.4V189.8L12.5 189.7V189.6H13.2V185.8H7.60004H7.50003V185.7V111.5V111.4H7.60004H15.6V108.3H7.60004L7.50003 108.2V90.9V90.8H7.60004H58.5H58.6V90.9V108.2L58.5 108.3H50.4V111.4H61.7V81.4H58.6V87.6L58.5 87.7H7.60004L7.50003 87.6V21.3L7.60004 21.2H58.5L58.6 21.3V56.7H61.7V53.9V53.8H61.8H66.3V45.6H64.6L64.5 45.5V19.6V19.5H64.6H174.8H174.9V19.6V21H178V19.6V19.5H178.1H202.3V16.1V16H202.4H203.7V12.7H202.4L202.3 12.6V12.5V11H1.20004V222H12.5V222.1H12.4H12.5Z" fill="#22576F"/>
<path d="M70.8999 185.7H70.9999V189.6H71.5999L71.7 189.7V189.8V192.9H186V172.8L186.1 172.7H186.7V168.9H178.9V180.1V180.2L178.8 180.3H109.8V185.7V185.8H109.7H70.8999V185.7H70.9999H70.8999V185.6H109.6V180.1V180H109.7H178.7V168.8V168.7H178.8H186.8H186.9V168.8V172.8V172.9L186.8 173H186.2V193V193.1H186.1H71.5999H71.4999L71.3999 193V189.9H70.7999V189.8H70.7V185.7L70.8999 185.6V185.7Z" fill="#22576F"/>
<path d="M204.1 168.8V168.9H199.9V177.1H204V168.8H204.1V168.9V168.8H204.2V177.3L204.1 177.4H199.8L199.7 177.3H199.6V168.8L199.7 168.7H199.8H204.1H204.2V168.8H204.1Z" fill="#22576F"/>
<path d="M230 168.8H230.1V177.1H234.2L234.3 177.2V177.3V222H240.7V11H229.9V12.5L229.8 12.6L229.7 12.7H228.4V16H229.7H229.8L229.9 16.1V19.5H232H232.1V19.6V106L232 106.1H229.2V109.2H232H232.1V109.3V126.6L232 126.7H200.3L200.2 126.6V109.3V109.2H200.3H203.1V106.1H200.3L200.2 106V103.6H194.3V132.5H232L232.1 132.6V132.7V168.8V168.9H232H230V168.8H230.1H230V168.7H231.8V132.8H194.2H194.1V132.7V103.4V103.3H194.2H200.3H200.4V103.4V105.8H203.2L203.3 105.9V106V109.3V109.4H203.2H200.4V126.4H231.8V109.4H229.1H229V109.3V106V105.9L229.1 105.8H231.8V19.8H229.7L229.6 19.7V19.6V16.3H228.3L228.2 16.2V16.1V12.5V12.4H228.3H229.6V10.9V10.8H229.7H240.8H240.9V10.9V222.1V222.2L240.8 222.3H234.2L234.1 222.2V222.1V177.4H230L229.9 177.3V168.8V168.7H230V168.8Z" fill="#22576F"/>
<path d="M88 45.5H88.1V53.8H194.2H194.3V53.9V78.8H200.2V45.6H178.1L178 45.5V44.3H174.9V45.5L174.8 45.6H88V45.5H88.1H88V45.3H174.7V44.2V44.1H174.8H178.1H178.2L178.3 44.2V45.3H200.3L200.4 45.4V45.5V79V79.1H200.3H194.2H194.1V79V54H88H87.9V53.9V45.5V45.4L88 45.3V45.5Z" fill="#22576F"/>
<path d="M216.1 67.1C216.8 67.1 217.4 67.7 217.4 68.4C217.4 69.1 216.8 69.7 216.1 69.7C215.4 69.7 214.8 69.1 214.8 68.4C214.8 67.7 215.4 67.1 216.1 67.1L216.2 67.2V68.4V68.5H216.1H216V68.4V61.2L216.1 61.1L216.2 61.2L217.3 64.3V64.4L217.2 64.5H216.1L216 64.4L216.1 64.3H217L216.2 62.1V68.6V68.7H216.1H216V68.6V67.4H216.1V67.5C215.5 67.5 215 68 215 68.6C215 69.2 215.5 69.7 216.1 69.7C216.7 69.7 217.2 69.2 217.2 68.6C217.2 68 216.7 67.5 216.1 67.5L216 67.4L216.1 67.1Z" fill="#22576F"/>
<path d="M142.7 32.5C142.7 31.6 143.4 30.9 144.3 30.9C145.2 30.9 145.9 31.6 145.9 32.5C145.9 33.4 145.2 34.1 144.3 34.1C143.4 34.1 142.7 33.4 142.7 32.5L142.8 32.4H144.2H144.3V32.5V32.6H144.2H115.4L115.3 32.5L115.4 32.4L119 31.1H119.1L119.2 31.2V32.5L119.1 32.6L119 32.5V31.4L116.2 32.4H144.3H144.4V32.5V32.6H144.3H142.9V32.5H143C143 33.2 143.6 33.8 144.3 33.8C145 33.8 145.6 33.2 145.6 32.5C145.6 31.8 145 31.2 144.3 31.2C143.6 31.2 143 31.8 143 32.5L142.9 32.6L142.7 32.5Z" fill="#22576F"/>
<path d="M230 177.4H204.1L204 177.3L204.1 177.1H230L230.1 177.3L230 177.4Z" fill="#22576F"/>
<path d="M230 168.9H204.1L204 168.8L204.1 168.7H230L230.1 168.8L230 168.9Z" fill="#22576F"/>
<path d="M228.3 16.3H203.8L203.7 16.1L203.8 16H228.3L228.4 16.1L228.3 16.3Z" fill="#22576F"/>
<path d="M228.3 12.7H203.8L203.7 12.5L203.8 12.4H228.3L228.4 12.5L228.3 12.7Z" fill="#22576F"/>
<path d="M112.41 217.159C112.41 217.328 112.377 217.477 112.312 217.605C112.246 217.733 112.157 217.84 112.044 217.926C111.934 218.013 111.805 218.078 111.656 218.123C111.507 218.164 111.349 218.185 111.183 218.185H110.424V219.287H110.072V216.164H111.241C111.416 216.164 111.576 216.187 111.718 216.235C111.864 216.28 111.988 216.345 112.089 216.431C112.193 216.515 112.272 216.619 112.325 216.744C112.382 216.866 112.41 217.004 112.41 217.159ZM112.053 217.172C112.053 216.946 111.976 216.776 111.821 216.663C111.669 216.547 111.467 216.489 111.214 216.489H110.424V217.864H111.196C111.324 217.864 111.44 217.847 111.544 217.815C111.651 217.782 111.742 217.736 111.817 217.676C111.894 217.614 111.952 217.541 111.991 217.458C112.032 217.371 112.053 217.276 112.053 217.172ZM114.225 216.141L115.648 219.287H115.269L114.903 218.462H113.203L112.832 219.287H112.471L113.894 216.141H114.225ZM114.765 218.145L114.055 216.552L113.341 218.145H114.765ZM117.046 216.489V219.287H116.689V216.489H115.64V216.164H118.095V216.489H117.046ZM118.788 216.164H119.141V219.287H118.788V216.164ZM123.104 217.721C123.104 217.938 123.065 218.145 122.988 218.341C122.91 218.535 122.802 218.706 122.662 218.854C122.522 219.003 122.354 219.122 122.157 219.211C121.961 219.298 121.744 219.341 121.506 219.341C121.268 219.341 121.051 219.298 120.854 219.211C120.661 219.125 120.494 219.009 120.355 218.863C120.215 218.715 120.106 218.544 120.029 218.35C119.954 218.154 119.917 217.947 119.917 217.73C119.917 217.513 119.956 217.307 120.033 217.114C120.111 216.918 120.219 216.745 120.359 216.596C120.499 216.448 120.667 216.33 120.863 216.244C121.06 216.155 121.277 216.11 121.515 216.11C121.753 216.11 121.969 216.153 122.162 216.239C122.358 216.326 122.526 216.443 122.666 216.592C122.806 216.738 122.913 216.909 122.988 217.105C123.065 217.299 123.104 217.504 123.104 217.721ZM122.738 217.73C122.738 217.551 122.706 217.383 122.644 217.226C122.584 217.068 122.5 216.931 122.39 216.815C122.279 216.699 122.149 216.607 121.997 216.538C121.848 216.47 121.684 216.436 121.506 216.436C121.327 216.436 121.162 216.47 121.011 216.538C120.862 216.604 120.734 216.695 120.627 216.811C120.52 216.927 120.435 217.063 120.372 217.221C120.313 217.376 120.283 217.542 120.283 217.721C120.283 217.899 120.313 218.068 120.372 218.225C120.435 218.383 120.521 218.52 120.631 218.636C120.741 218.752 120.871 218.844 121.02 218.912C121.171 218.981 121.336 219.015 121.515 219.015C121.693 219.015 121.857 218.982 122.006 218.917C122.157 218.848 122.287 218.756 122.394 218.64C122.501 218.524 122.584 218.389 122.644 218.234C122.706 218.076 122.738 217.908 122.738 217.73Z" fill="#22576F"/>
<path d="M21.8348 54.0898C21.8348 54.2594 21.8021 54.4081 21.7367 54.5361C21.6712 54.664 21.582 54.7711 21.4689 54.8574C21.3588 54.9436 21.2294 55.0091 21.0807 55.0537C20.9319 55.0954 20.7742 55.1162 20.6076 55.1162H19.849V56.2184H19.4965V53.0947H20.6657C20.8412 53.0947 21.0003 53.1185 21.1431 53.1661C21.2889 53.2107 21.4124 53.2761 21.5135 53.3624C21.6177 53.4457 21.6965 53.5498 21.75 53.6748C21.8066 53.7968 21.8348 53.9351 21.8348 54.0898ZM21.4778 54.1032C21.4778 53.8771 21.4005 53.7075 21.2458 53.5945C21.0941 53.4784 20.8918 53.4204 20.6389 53.4204H19.849V54.7949H20.621C20.749 54.7949 20.865 54.7785 20.9691 54.7458C21.0762 54.7131 21.1669 54.667 21.2413 54.6075C21.3187 54.545 21.3767 54.4721 21.4154 54.3888C21.457 54.3025 21.4778 54.2073 21.4778 54.1032ZM25.5252 54.6521C25.5252 54.8693 25.4865 55.076 25.4091 55.2724C25.3318 55.4657 25.2232 55.6368 25.0834 55.7856C24.9436 55.9343 24.7755 56.0533 24.5791 56.1426C24.3828 56.2288 24.1656 56.272 23.9276 56.272C23.6896 56.272 23.4724 56.2288 23.2761 56.1426C23.0827 56.0563 22.9161 55.9403 22.7763 55.7945C22.6364 55.6457 22.5279 55.4747 22.4505 55.2813C22.3761 55.0849 22.3389 54.8782 22.3389 54.661C22.3389 54.4438 22.3776 54.2386 22.455 54.0452C22.5323 53.8488 22.6409 53.6763 22.7807 53.5275C22.9206 53.3788 23.0886 53.2613 23.285 53.175C23.4813 53.0857 23.6985 53.0411 23.9365 53.0411C24.1745 53.0411 24.3902 53.0843 24.5836 53.1705C24.7799 53.2568 24.948 53.3743 25.0878 53.5231C25.2277 53.6688 25.3348 53.8399 25.4091 54.0363C25.4865 54.2296 25.5252 54.4349 25.5252 54.6521ZM25.1592 54.661C25.1592 54.4825 25.128 54.3144 25.0655 54.1567C25.006 53.9991 24.9212 53.8622 24.8112 53.7462C24.7011 53.6302 24.5702 53.5379 24.4185 53.4695C24.2697 53.4011 24.1061 53.3669 23.9276 53.3669C23.7491 53.3669 23.584 53.4011 23.4323 53.4695C23.2835 53.535 23.1556 53.6257 23.0485 53.7417C22.9414 53.8578 22.8566 53.9946 22.7941 54.1523C22.7346 54.307 22.7049 54.4736 22.7049 54.6521C22.7049 54.8306 22.7346 54.9987 22.7941 55.1563C22.8566 55.314 22.9429 55.4509 23.0529 55.5669C23.163 55.6829 23.2924 55.7751 23.4412 55.8436C23.5929 55.912 23.758 55.9462 23.9365 55.9462C24.115 55.9462 24.2786 55.9135 24.4274 55.848C24.5791 55.7796 24.7085 55.6874 24.8156 55.5714C24.9227 55.4553 25.006 55.32 25.0655 55.1653C25.128 55.0076 25.1592 54.8395 25.1592 54.661ZM27.1427 55.6963L27.9995 53.0857H28.2896L29.1464 55.6963L30.0389 53.0947H30.4093L29.2937 56.2407H28.9947L28.1379 53.706L27.2766 56.2407H26.9821L25.8665 53.0947H26.2502L27.1427 55.6963ZM33.7937 54.6521C33.7937 54.8722 33.7536 55.079 33.6732 55.2724C33.5929 55.4628 33.4784 55.6279 33.3296 55.7677C33.1839 55.9075 33.0083 56.0176 32.8031 56.0979C32.6008 56.1783 32.3776 56.2184 32.1337 56.2184H31.0493V53.0947H32.1337C32.3776 53.0947 32.6008 53.1348 32.8031 53.2152C33.0083 53.2925 33.1839 53.4011 33.3296 53.5409C33.4784 53.6807 33.5929 53.8459 33.6732 54.0363C33.7536 54.2267 33.7937 54.4319 33.7937 54.6521ZM33.4278 54.661C33.4278 54.4885 33.3966 54.3263 33.3341 54.1746C33.2746 54.0229 33.1883 53.892 33.0753 53.7819C32.9652 53.6688 32.8298 53.5811 32.6692 53.5186C32.5085 53.4532 32.33 53.4204 32.1337 53.4204H31.4018V55.8927H32.1337C32.33 55.8927 32.5085 55.8614 32.6692 55.7989C32.8298 55.7365 32.9652 55.6502 33.0753 55.5401C33.1883 55.4271 33.2746 55.2962 33.3341 55.1474C33.3966 54.9987 33.4278 54.8365 33.4278 54.661ZM36.798 53.0947V53.416H34.8925V54.4825H36.5972V54.8038H34.8925V55.8971H36.8203V56.2184H34.54V53.0947H36.798ZM40.1133 56.2184H39.6804L38.7745 55.0046H37.882V56.2184H37.5295V53.0947H38.8727C39.0453 53.0947 39.2 53.117 39.3368 53.1616C39.4766 53.2062 39.5956 53.2702 39.6938 53.3535C39.792 53.4338 39.8679 53.532 39.9214 53.648C39.975 53.7611 40.0017 53.8875 40.0017 54.0273C40.0017 54.1582 39.9809 54.2757 39.9393 54.3799C39.8976 54.481 39.8381 54.5703 39.7608 54.6476C39.6864 54.722 39.5971 54.7845 39.493 54.835C39.3889 54.8856 39.2758 54.9213 39.1539 54.9421L40.1133 56.2184ZM39.6447 54.0407C39.6447 53.8444 39.5748 53.6926 39.435 53.5855C39.2952 53.4755 39.0988 53.4204 38.8459 53.4204H37.882V54.6878H38.8415C38.9575 54.6878 39.0646 54.6729 39.1628 54.6432C39.261 54.6134 39.3457 54.5718 39.4171 54.5182C39.4885 54.4617 39.5436 54.3933 39.5823 54.3129C39.6239 54.2326 39.6447 54.1419 39.6447 54.0407Z" fill="#22576F"/>
<path d="M74.8585 30.4522C74.8585 30.5266 74.8704 30.5935 74.8942 30.653C74.918 30.7125 74.9612 30.7676 75.0236 30.8181C75.0861 30.8657 75.1724 30.9104 75.2825 30.952C75.3925 30.9907 75.5339 31.0279 75.7064 31.0636C76.0545 31.1409 76.3103 31.248 76.474 31.3849C76.6406 31.5217 76.7239 31.7106 76.7239 31.9516C76.7239 32.0855 76.6971 32.2075 76.6435 32.3175C76.59 32.4276 76.5156 32.5213 76.4204 32.5987C76.3282 32.676 76.2166 32.7355 76.0857 32.7772C75.9548 32.8188 75.812 32.8396 75.6573 32.8396C75.4074 32.8396 75.1783 32.7995 74.9701 32.7192C74.7648 32.6359 74.5685 32.5094 74.381 32.3398L74.5997 32.081C74.7633 32.2298 74.9284 32.3413 75.095 32.4157C75.2616 32.4871 75.4535 32.5228 75.6707 32.5228C75.8819 32.5228 76.05 32.4737 76.175 32.3755C76.3029 32.2774 76.3669 32.148 76.3669 31.9873C76.3669 31.9129 76.355 31.8475 76.3312 31.791C76.3074 31.7315 76.2657 31.6779 76.2062 31.6303C76.1467 31.5827 76.0634 31.5396 75.9563 31.5009C75.8522 31.4622 75.7183 31.425 75.5547 31.3893C75.3762 31.3507 75.22 31.306 75.0861 31.2555C74.9552 31.2049 74.8466 31.1439 74.7604 31.0725C74.6741 31.0011 74.6101 30.9178 74.5685 30.8226C74.5268 30.7274 74.506 30.6143 74.506 30.4834C74.506 30.3585 74.5313 30.244 74.5819 30.1398C74.6324 30.0357 74.7038 29.9465 74.7961 29.8721C74.8883 29.7947 74.9969 29.7352 75.1218 29.6936C75.2468 29.649 75.3836 29.6266 75.5324 29.6266C75.7614 29.6266 75.9608 29.6594 76.1303 29.7248C76.3029 29.7873 76.4695 29.8825 76.6301 30.0104L76.4249 30.2826C76.2791 30.1636 76.1318 30.0774 75.9831 30.0238C75.8373 29.9703 75.6841 29.9435 75.5234 29.9435C75.4223 29.9435 75.3301 29.9569 75.2468 29.9836C75.1664 30.0104 75.0965 30.0461 75.037 30.0907C74.9805 30.1354 74.9359 30.1889 74.9032 30.2514C74.8734 30.3139 74.8585 30.3808 74.8585 30.4522ZM78.5579 29.997V32.795H78.2009V29.997H77.1523V29.6713H79.6066V29.997H78.5579ZM83.1034 31.2287C83.1034 31.4459 83.0647 31.6526 82.9874 31.849C82.91 32.0423 82.8014 32.2134 82.6616 32.3622C82.5218 32.5109 82.3537 32.6299 82.1573 32.7192C81.961 32.8054 81.7438 32.8486 81.5058 32.8486C81.2678 32.8486 81.0506 32.8054 80.8543 32.7192C80.6609 32.6329 80.4943 32.5169 80.3545 32.3711C80.2147 32.2223 80.1061 32.0513 80.0287 31.8579C79.9543 31.6615 79.9172 31.4548 79.9172 31.2376C79.9172 31.0204 79.9558 30.8152 80.0332 30.6218C80.1105 30.4254 80.2191 30.2529 80.3589 30.1041C80.4988 29.9554 80.6669 29.8379 80.8632 29.7516C81.0596 29.6623 81.2767 29.6177 81.5147 29.6177C81.7527 29.6177 81.9684 29.6609 82.1618 29.7471C82.3581 29.8334 82.5262 29.9509 82.6661 30.0997C82.8059 30.2454 82.913 30.4165 82.9874 30.6129C83.0647 30.8062 83.1034 31.0115 83.1034 31.2287ZM82.7375 31.2376C82.7375 31.0591 82.7062 30.891 82.6437 30.7333C82.5842 30.5757 82.4995 30.4388 82.3894 30.3228C82.2793 30.2068 82.1484 30.1145 81.9967 30.0461C81.8479 29.9777 81.6843 29.9435 81.5058 29.9435C81.3273 29.9435 81.1622 29.9777 81.0105 30.0461C80.8617 30.1116 80.7338 30.2023 80.6267 30.3183C80.5196 30.4344 80.4348 30.5712 80.3723 30.7289C80.3128 30.8836 80.2831 31.0502 80.2831 31.2287C80.2831 31.4072 80.3128 31.5753 80.3723 31.7329C80.4348 31.8906 80.5211 32.0275 80.6312 32.1435C80.7412 32.2595 80.8706 32.3517 81.0194 32.4202C81.1711 32.4886 81.3362 32.5228 81.5147 32.5228C81.6932 32.5228 81.8569 32.4901 82.0056 32.4246C82.1573 32.3562 82.2867 32.264 82.3938 32.148C82.5009 32.0319 82.5842 31.8966 82.6437 31.7419C82.7062 31.5842 82.7375 31.4161 82.7375 31.2376ZM86.4307 32.795H85.9978L85.0919 31.5812H84.1994V32.795H83.8469V29.6713H85.1901C85.3626 29.6713 85.5173 29.6936 85.6542 29.7382C85.794 29.7828 85.913 29.8468 86.0112 29.9301C86.1094 30.0104 86.1852 30.1086 86.2388 30.2246C86.2923 30.3377 86.3191 30.4641 86.3191 30.6039C86.3191 30.7348 86.2983 30.8523 86.2566 30.9565C86.215 31.0576 86.1555 31.1469 86.0781 31.2242C86.0038 31.2986 85.9145 31.3611 85.8104 31.4116C85.7063 31.4622 85.5932 31.4979 85.4712 31.5187L86.4307 32.795ZM85.9621 30.6173C85.9621 30.421 85.8922 30.2692 85.7524 30.1621C85.6125 30.0521 85.4162 29.997 85.1633 29.997H84.1994V31.2644H85.1589C85.2749 31.2644 85.382 31.2495 85.4802 31.2198C85.5783 31.19 85.6631 31.1484 85.7345 31.0948C85.8059 31.0383 85.861 30.9699 85.8996 30.8895C85.9413 30.8092 85.9621 30.7185 85.9621 30.6173ZM88.5577 29.649L89.9813 32.795H89.602L89.236 31.9695H87.5358L87.1654 32.795H86.804L88.2275 29.649H88.5577ZM89.0977 31.6526L88.3882 30.0595L87.6742 31.6526H89.0977ZM93.1185 32.3711C92.9727 32.502 92.7928 32.615 92.5786 32.7102C92.3673 32.8025 92.1293 32.8486 91.8646 32.8486C91.6176 32.8486 91.396 32.8069 91.1996 32.7236C91.0063 32.6403 90.8397 32.5258 90.6998 32.38C90.563 32.2342 90.4574 32.0632 90.383 31.8668C90.3116 31.6705 90.2759 31.4607 90.2759 31.2376C90.2759 31.0234 90.3131 30.8181 90.3875 30.6218C90.4648 30.4254 90.5719 30.2529 90.7088 30.1041C90.8456 29.9554 91.0092 29.8379 91.1996 29.7516C91.393 29.6623 91.6072 29.6177 91.8422 29.6177C91.9731 29.6177 92.0921 29.6266 92.1992 29.6445C92.3093 29.6623 92.4105 29.6891 92.5027 29.7248C92.5979 29.7605 92.6857 29.8051 92.766 29.8587C92.8493 29.9093 92.9296 29.9673 93.007 30.0327L92.7794 30.3005C92.7199 30.2469 92.6574 30.1993 92.5919 30.1577C92.5265 30.1131 92.4551 30.0759 92.3777 30.0461C92.3034 30.0134 92.2201 29.9881 92.1278 29.9703C92.0386 29.9524 91.9389 29.9435 91.8289 29.9435C91.6563 29.9435 91.4971 29.9777 91.3514 30.0461C91.2056 30.1145 91.0806 30.2068 90.9765 30.3228C90.8724 30.4388 90.7906 30.5757 90.7311 30.7333C90.6716 30.888 90.6418 31.0532 90.6418 31.2287C90.6418 31.4161 90.6701 31.5901 90.7266 31.7508C90.7861 31.9085 90.8694 32.0453 90.9765 32.1613C91.0836 32.2774 91.213 32.3681 91.3648 32.4336C91.5165 32.499 91.6875 32.5317 91.8779 32.5317C92.0564 32.5317 92.2245 32.502 92.3822 32.4425C92.5399 32.38 92.6723 32.3056 92.7794 32.2194V31.4429H91.8289V31.126H93.1185V32.3711ZM96.1717 29.6713V29.9926H94.2662V31.0591H95.9709V31.3804H94.2662V32.4737H96.194V32.795H93.9137V29.6713H96.1717Z" fill="#22576F"/>
<path d="M126.03 98.7554L126.887 96.1448H127.177L128.033 98.7554L128.926 96.1537H129.296L128.181 99.2998H127.882L127.025 96.7651L126.164 99.2998H125.869L124.754 96.1537H125.137L126.03 98.7554ZM132.823 97.7112C132.823 97.9283 132.784 98.1351 132.707 98.3314C132.63 98.5248 132.521 98.6959 132.381 98.8446C132.241 98.9934 132.073 99.1124 131.877 99.2016C131.681 99.2879 131.463 99.331 131.225 99.331C130.987 99.331 130.77 99.2879 130.574 99.2016C130.381 99.1154 130.214 98.9993 130.074 98.8536C129.934 98.7048 129.826 98.5337 129.748 98.3404C129.674 98.144 129.637 97.9373 129.637 97.7201C129.637 97.5029 129.675 97.2976 129.753 97.1043C129.83 96.9079 129.939 96.7354 130.079 96.5866C130.218 96.4379 130.387 96.3203 130.583 96.2341C130.779 96.1448 130.996 96.1002 131.234 96.1002C131.472 96.1002 131.688 96.1433 131.881 96.2296C132.078 96.3159 132.246 96.4334 132.386 96.5821C132.526 96.7279 132.633 96.899 132.707 97.0953C132.784 97.2887 132.823 97.494 132.823 97.7112ZM132.457 97.7201C132.457 97.5416 132.426 97.3735 132.363 97.2158C132.304 97.0581 132.219 96.9213 132.109 96.8053C131.999 96.6892 131.868 96.597 131.716 96.5286C131.568 96.4602 131.404 96.426 131.225 96.426C131.047 96.426 130.882 96.4602 130.73 96.5286C130.581 96.594 130.453 96.6848 130.346 96.8008C130.239 96.9168 130.154 97.0537 130.092 97.2114C130.032 97.3661 130.003 97.5327 130.003 97.7112C130.003 97.8897 130.032 98.0577 130.092 98.2154C130.154 98.3731 130.241 98.5099 130.351 98.626C130.461 98.742 130.59 98.8342 130.739 98.9026C130.891 98.9711 131.056 99.0053 131.234 99.0053C131.413 99.0053 131.577 98.9726 131.725 98.9071C131.877 98.8387 132.006 98.7465 132.113 98.6304C132.221 98.5144 132.304 98.379 132.363 98.2243C132.426 98.0667 132.457 97.8986 132.457 97.7201ZM136.15 99.2775H135.717L134.812 98.0637H133.919V99.2775H133.567V96.1537H134.91C135.082 96.1537 135.237 96.1761 135.374 96.2207C135.514 96.2653 135.633 96.3293 135.731 96.4126C135.829 96.4929 135.905 96.5911 135.958 96.7071C136.012 96.8201 136.039 96.9466 136.039 97.0864C136.039 97.2173 136.018 97.3348 135.976 97.4389C135.935 97.5401 135.875 97.6293 135.798 97.7067C135.723 97.7811 135.634 97.8435 135.53 97.8941C135.426 97.9447 135.313 97.9804 135.191 98.0012L136.15 99.2775ZM135.682 97.0998C135.682 96.9034 135.612 96.7517 135.472 96.6446C135.332 96.5345 135.136 96.4795 134.883 96.4795H133.919V97.7469H134.879C134.995 97.7469 135.102 97.732 135.2 97.7022C135.298 97.6725 135.383 97.6308 135.454 97.5773C135.526 97.5208 135.581 97.4523 135.619 97.372C135.661 97.2917 135.682 97.2009 135.682 97.0998ZM138.054 97.5193L139.451 99.2775H139.009L137.809 97.7647L137.144 98.4385V99.2775H136.791V96.1537H137.144V98.0191L138.938 96.1537H139.393L138.054 97.5193Z" fill="#22576F"/>
<path d="M211.906 179.816V180.138H210V181.204H211.705V181.526H210V182.619H211.928V182.94H209.648V179.816H211.906ZM214.936 182.32V179.816H215.279V182.94H214.998L212.981 180.379V182.94H212.637V179.816H212.968L214.936 182.32ZM217.345 180.142V182.94H216.988V180.142H215.94V179.816H218.394V180.142H217.345ZM221.64 182.94H221.207L220.302 181.726H219.409V182.94H219.057V179.816H220.4C220.572 179.816 220.727 179.839 220.864 179.883C221.004 179.928 221.123 179.992 221.221 180.075C221.319 180.156 221.395 180.254 221.448 180.37C221.502 180.483 221.529 180.609 221.529 180.749C221.529 180.88 221.508 180.997 221.466 181.102C221.425 181.203 221.365 181.292 221.288 181.369C221.213 181.444 221.124 181.506 221.02 181.557C220.916 181.607 220.803 181.643 220.681 181.664L221.64 182.94ZM221.172 180.762C221.172 180.566 221.102 180.414 220.962 180.307C220.822 180.197 220.626 180.142 220.373 180.142H219.409V181.409H220.369C220.485 181.409 220.592 181.395 220.69 181.365C220.788 181.335 220.873 181.293 220.944 181.24C221.016 181.183 221.071 181.115 221.109 181.035C221.151 180.954 221.172 180.864 221.172 180.762ZM223.502 181.7V182.94H223.145V181.704L221.847 179.816H222.275L223.328 181.378L224.39 179.816H224.801L223.502 181.7Z" fill="#22576F"/>
<path d="M210.469 0.0267624V0.348063H208.564V1.4146H210.269V1.7359H208.564V2.82921H210.492V3.15051H208.211V0.0267624H210.469ZM213.499 2.53023V0.0267624H213.843V3.15051H213.562L211.544 0.589038V3.15051H211.201V0.0267624H211.531L213.499 2.53023ZM215.909 0.352525V3.15051H215.552V0.352525H214.503V0.0267624H216.958V0.352525H215.909ZM220.204 3.15051H219.771L218.865 1.93671H217.973V3.15051H217.62V0.0267624H218.963C219.136 0.0267624 219.291 0.0490749 219.427 0.0936999C219.567 0.138325 219.686 0.202288 219.784 0.285588C219.883 0.365913 219.958 0.464088 220.012 0.580112C220.065 0.693162 220.092 0.8196 220.092 0.959425C220.092 1.09033 220.071 1.20784 220.03 1.31196C219.988 1.41311 219.929 1.50236 219.851 1.57971C219.777 1.65409 219.688 1.71656 219.584 1.76714C219.479 1.81771 219.366 1.85341 219.244 1.87424L220.204 3.15051ZM219.735 0.972812C219.735 0.776463 219.665 0.624738 219.526 0.517637C219.386 0.407562 219.189 0.352525 218.936 0.352525H217.973V1.61988H218.932C219.048 1.61988 219.155 1.605 219.253 1.57525C219.351 1.5455 219.436 1.50385 219.508 1.4503C219.579 1.39378 219.634 1.32535 219.673 1.24503C219.714 1.1647 219.735 1.07396 219.735 0.972812ZM222.066 1.90994V3.15051H221.709V1.9144L220.41 0.0267624H220.839L221.892 1.58864L222.954 0.0267624H223.364L222.066 1.90994Z" fill="#22576F"/>
<path d="M215.704 71.5652C215.704 71.7853 215.664 71.9921 215.583 72.1855C215.503 72.3759 215.388 72.541 215.24 72.6808C215.094 72.8206 214.918 72.9307 214.713 73.011C214.511 73.0913 214.288 73.1315 214.044 73.1315H212.959V70.0077H214.044C214.288 70.0077 214.511 70.0479 214.713 70.1282C214.918 70.2056 215.094 70.3142 215.24 70.454C215.388 70.5938 215.503 70.7589 215.583 70.9493C215.664 71.1397 215.704 71.345 215.704 71.5652ZM215.338 71.5741C215.338 71.4015 215.307 71.2394 215.244 71.0877C215.185 70.936 215.098 70.8051 214.985 70.695C214.875 70.5819 214.74 70.4942 214.579 70.4317C214.419 70.3662 214.24 70.3335 214.044 70.3335H213.312V72.8057H214.044C214.24 72.8057 214.419 72.7745 214.579 72.712C214.74 72.6496 214.875 72.5633 214.985 72.4532C215.098 72.3402 215.185 72.2093 215.244 72.0605C215.307 71.9118 215.338 71.7496 215.338 71.5741ZM218.748 72.5112V70.0077H219.092V73.1315H218.811L216.794 70.57V73.1315H216.45V70.0077H216.78L218.748 72.5112Z" fill="#22576F"/>
<path d="M150.502 29.4077V31.1971C150.502 31.4262 150.471 31.627 150.408 31.7996C150.346 31.9721 150.257 32.1164 150.141 32.2324C150.028 32.3484 149.891 32.4362 149.73 32.4957C149.572 32.5522 149.395 32.5805 149.199 32.5805C149.006 32.5805 148.829 32.5522 148.668 32.4957C148.51 32.4362 148.374 32.3499 148.258 32.2369C148.144 32.1209 148.057 31.9781 147.994 31.8085C147.932 31.6389 147.901 31.444 147.901 31.2239V29.4077H148.253V31.2016C148.253 31.5407 148.336 31.801 148.503 31.9825C148.673 32.164 148.908 32.2547 149.208 32.2547C149.497 32.2547 149.726 32.1685 149.895 31.9959C150.065 31.8234 150.15 31.566 150.15 31.2239V29.4077H150.502ZM153.674 30.4028C153.674 30.5724 153.641 30.7211 153.576 30.849C153.51 30.977 153.421 31.0841 153.308 31.1703C153.198 31.2566 153.069 31.3221 152.92 31.3667C152.771 31.4083 152.613 31.4292 152.447 31.4292H151.688V32.5314H151.336V29.4077H152.505C152.68 29.4077 152.84 29.4315 152.982 29.4791C153.128 29.5237 153.252 29.5891 153.353 29.6754C153.457 29.7587 153.536 29.8628 153.589 29.9878C153.646 30.1098 153.674 30.2481 153.674 30.4028ZM153.317 30.4162C153.317 30.1901 153.24 30.0205 153.085 29.9075C152.933 29.7914 152.731 29.7334 152.478 29.7334H151.688V31.1079H152.46C152.588 31.1079 152.704 31.0915 152.808 31.0588C152.915 31.0261 153.006 30.9799 153.081 30.9204C153.158 30.858 153.216 30.7851 153.255 30.7018C153.296 30.6155 153.317 30.5203 153.317 30.4162Z" fill="#22576F"/>
</svg>
