<svg width="241" height="269" viewBox="0 0 241 269" fill="none" xmlns="http://www.w3.org/2000/svg">
<path d="M194.2 54V54.1H88H87.9V54V49.9H66.5V53.5L66.9 52.8H67H67.1L85.8 63.6V63.7L85.2 64.8L85 64.9L66.4 54.1H61.9V56.8L83.1 69V69.1V69.2L82.5 70.2L82.3 70.3L61.1 58.1V57.9L61.6 57H60.3V81.2H61.8H61.9V81.3V111.6L61.8 111.7H49.1V128.7H50.1V108.2L50.2 108.1H50.3H58.4V101.1H7.70001V108.1H15.7H15.8V108.2V128.7H16.9V111.7H7.70001V185.7H109.6V180.2V180.1H109.7H124V171.6V171.5L124.1 171.4H164.4L164.5 171.5V171.6V180.1H178.7V168.9V168.8L178.8 168.7H231.9V132.9H194.2L194.1 132.8V132.7V103.5V103.4H194.2H200.1L199.6 102.5V102.3L220.8 90.1H220.9H221L221.6 91.2V91.3V91.4L200.4 103.6V105.9H203.2L214.3 99.4L214.5 99.5L215.1 100.6L215.2 100.7H215.1L203.9 107.2H203.7L203.3 106.5V109.4L203.2 109.5H200.4V116.4H231.9V109.5H229.1L229 109.4V106.5L228.6 107.2H228.4L217.2 100.7L217.1 100.6L217.8 99.5L217.9 99.4L229.1 105.9H231.9V19.8H229.7H229.6V19.7V16.3H228.4V40.7V40.8H228.3H227H226.9V40.7V16.3H202.5V19.7V19.8H202.4H178.3V22.4H201V21.4H174.8L174.7 21.3V21.2V19.8H151.6V45.4H174.7V44.3V44.2L174.8 44.1H178.1L178.2 44.2L178.3 44.3V45.4H200.3H200.4V45.5V79V79.1L200.3 79.2H194.2L194.1 79.1V79V54H194.2V54.1V54H194.3V78.9H200.2V45.6H178.1H178V45.5V44.4H174.9V45.5V45.6H174.8H151.5H151.4L151.3 45.5V19.7L151.4 19.6H151.5H174.8H174.9V19.7V21.1H201.2V21.2H201.3V22.5L201.2 22.6H178.1H178V22.5V19.7V19.6H178.1H202.3V16.2V16.1H202.4H227H227.1L227.2 16.2V40.5H228.2V16.2V16.1H228.3H229.7H229.8V16.2V19.6H232H232.1V19.7V106V106.1H232H229.1H229L217.9 99.7L217.4 100.6L228.4 106.9L229 106L229.1 105.9L229.2 106V109.2H232L232.1 109.3V109.4V116.5V116.6L232 116.7H200.3L200.2 116.6V116.5V109.4V109.3L200.3 109.2H203.1V106L203.2 105.9L203.3 106L203.9 106.9L214.9 100.6L214.4 99.7L203.2 106.1H200.3H200.2V106V103.5V103.4L221.3 91.2L220.8 90.3L199.8 102.5L200.4 103.4V103.6H200.3H194.3V132.6H232L232.1 132.7V168.9V169H232H178.9V180.2V180.3H178.8H164.4H164.3V180.2V171.7H124.2V180.2V180.3H124.1H109.8V185.8V185.9H109.7H7.60001H7.5V185.8V111.6V111.5L7.60001 111.4H17L17.1 111.5V111.6V128.8V128.9H17H15.7H15.6V128.8V108.3H7.60001H7.5V108.2V101V100.9H7.60001H58.5H58.6V101V108.2V108.3H58.5H50.4V128.8V128.9H50.3H49H48.9V128.8V111.6V111.5L49 111.4H61.7V81.5H60.1V81.4L60 81.3V56.9L60.1 56.8V56.7H61.8L61.9 56.8V56.9L61.3 57.9L82.3 70L82.8 69.1L61.7 57V56.9V54V53.9H61.8H66.4L85 64.6L85.6 63.7L67.1 53.1L66.5 54L66.4 54.1L66.3 54V49.8V49.7L66.4 49.6H88L88.1 49.7V49.8V53.9H194.2H194.3V54H194.2Z" fill="#99A4B3"/>
<path d="M74.3001 177.4L66.6001 169.8V169.6L81.8001 154.4H82.0001L89.6001 162C91.7001 164.1 92.8001 166.9 92.8001 169.7C92.8001 172.5 91.7001 175.3 89.6001 177.4C87.5001 179.5 84.7001 180.6 81.9001 180.6C79.1001 180.7 76.3001 179.6 74.3001 177.4C76.5001 179.4 79.2001 180.4 81.9001 180.4C84.6001 180.4 87.4001 179.4 89.4001 177.3C91.5001 175.2 92.5001 172.5 92.5001 169.8C92.5001 167.1 91.5001 164.3 89.4001 162.3L81.8001 154.8L66.7001 169.9L74.3001 177.4Z" fill="#99A4B3"/>
<path d="M8.99991 184.3H8.8999V138.3L8.99991 138.2H26.2999H26.3999V138.3V154.9H32.6999V154.3V154.2H32.7999H33.8999H33.9999V154.3V168.3V168.4H33.8999H32.7999H32.6999V168.3V167.7H26.3999V184.3V184.4L26.2999 184.5H8.99991V184.4L8.8999 184.3H8.99991V184.2H26.1999V167.6V167.5H26.2999H32.7999H32.8999V167.6V168.2H33.6999V154.4H32.8999V155V155.1H32.7999H26.2999H26.1999V155V138.4H9.19992V184.3H8.99991V184.2V184.3Z" fill="#99A4B3"/>
<path d="M102.4 55.4V55.3H162.8H162.9L163 55.4V78.5H162.9L162.8 78.6H102.4L102.3 78.5V55.4V55.3H102.4V55.4H102.5V78.3H162.7V55.5H102.4V55.4H102.5H102.4Z" fill="#99A4B3"/>
<path d="M120.4 91.4V91.3H144.8H144.9V91.4V107.2V107.3H144.8H120.4H120.3V107.2V91.4V91.3H120.4V91.4H120.5V107.1H144.7V91.5H120.4V91.4H120.5H120.4Z" fill="#99A4B3"/>
<path d="M164.3 56.9V56.7H178.7L178.8 56.8V56.9V77V77.1H178.7H164.3H164.2V77V56.9V56.8L164.3 56.7V56.9H164.4V76.9H178.6V57H164.3V56.9H164.4H164.3Z" fill="#99A4B3"/>
<path d="M102.7 127.5H102.6L105.4 117.1L105.5 117H105.6L126.5 122.6L126.6 122.7V122.8L123.8 133.2C122.5 138.1 118.1 141.3 113.3 141.3C112.4 141.3 111.4 141.2 110.5 140.9C105.6 139.6 102.4 135.2 102.4 130.4C102.4 129.5 102.5 128.5 102.8 127.6L102.7 127.5H102.8C102.6 128.4 102.4 129.4 102.4 130.3C102.4 135 105.5 139.3 110.3 140.6C111.2 140.8 112.2 141 113.1 141C117.8 141 122.1 137.9 123.4 133.1L126.2 122.8L105.6 117.3L102.8 127.6L102.7 127.5Z" fill="#99A4B3"/>
<path d="M162.5 127.5H162.4L159.6 117.2L139 122.7L141.8 133C143.1 137.8 147.4 140.9 152.1 140.9C153 140.9 153.9 140.8 154.9 140.5C159.7 139.2 162.8 134.9 162.8 130.2C162.8 129.3 162.7 128.4 162.4 127.4L162.5 127.5H162.6C162.9 128.4 163 129.4 163 130.3C163 135.1 159.8 139.5 154.9 140.8C154 141.1 153 141.2 152.1 141.2C147.3 141.2 142.9 138 141.6 133.1L138.8 122.7L138.9 122.6L159.8 117H159.9L160 117.1L162.8 127.5H162.5Z" fill="#99A4B3"/>
<path d="M10.5 185.8V184.3L10.7 184.2L10.8 184.3V185.8L10.7 185.9L10.5 185.8Z" fill="#99A4B3"/>
<path d="M10.5 108.2V101L10.7 100.9L10.8 101V108.2L10.7 108.3L10.5 108.2Z" fill="#99A4B3"/>
<path d="M10.5 138.3V111.6L10.7 111.4L10.8 111.6V138.3L10.7 138.4L10.5 138.3Z" fill="#99A4B3"/>
<path d="M15.8999 185.8V184.3L16.0999 184.2L16.1999 184.3V185.8L16.0999 185.9L15.8999 185.8Z" fill="#99A4B3"/>
<path d="M15.8999 111.6V101L16.0999 100.9L16.1999 101V111.6L16.0999 111.7L15.8999 111.6Z" fill="#99A4B3"/>
<path d="M15.8999 138.3V128.8L16.0999 128.7L16.1999 128.8V138.3L16.0999 138.4L15.8999 138.3Z" fill="#99A4B3"/>
<path d="M21.3 185.8V184.3L21.5001 184.2L21.6001 184.3V185.8L21.5001 185.9L21.3 185.8Z" fill="#99A4B3"/>
<path d="M21.3 138.3V101L21.5001 100.9L21.6001 101V138.3L21.5001 138.4L21.3 138.3Z" fill="#99A4B3"/>
<path d="M26.7 185.8V167.6L26.8999 167.5L26.9999 167.6V185.8L26.8999 185.9L26.7 185.8Z" fill="#99A4B3"/>
<path d="M26.7 155V101L26.8999 100.9L26.9999 101V155L26.8999 155.1L26.7 155Z" fill="#99A4B3"/>
<path d="M32.1001 185.8V167.6L32.3001 167.5L32.4001 167.6V185.8L32.3001 185.9L32.1001 185.8Z" fill="#99A4B3"/>
<path d="M32.1001 155V101L32.3001 100.9L32.4001 101V155L32.3001 155.1L32.1001 155Z" fill="#99A4B3"/>
<path d="M37.5 185.8V101L37.6 100.9L37.8 101V185.8L37.6 185.9L37.5 185.8Z" fill="#99A4B3"/>
<path d="M42.8999 185.8V101L42.9999 100.9L43.1999 101V185.8L42.9999 185.9L42.8999 185.8Z" fill="#99A4B3"/>
<path d="M48.3 185.8V101L48.4001 100.9L48.6001 101V185.8L48.4001 185.9L48.3 185.8Z" fill="#99A4B3"/>
<path d="M53.7 185.8V111.6L53.7999 111.4L53.9999 111.6V185.8L53.7999 185.9L53.7 185.8Z" fill="#99A4B3"/>
<path d="M53.7 108.2V101L53.7999 100.9L53.9999 101V108.2L53.7999 108.3L53.7 108.2Z" fill="#99A4B3"/>
<path d="M59.1001 185.8V111.6L59.2001 111.4L59.4001 111.6V185.8L59.2001 185.9L59.1001 185.8Z" fill="#99A4B3"/>
<path d="M64.5 185.8V60L64.6 59.8L64.8 60V185.8L64.6 185.9L64.5 185.8Z" fill="#99A4B3"/>
<path d="M64.5 58.5V54L64.6 53.9L64.8 54V58.5L64.6 58.6L64.5 58.5Z" fill="#99A4B3"/>
<path d="M69.8999 185.8V173.1L69.9999 173L70.1999 173.1V185.8L69.9999 185.9L69.8999 185.8Z" fill="#99A4B3"/>
<path d="M69.8999 54.6V49.8L69.9999 49.6L70.1999 49.8V54.6L69.9999 54.8L69.8999 54.6Z" fill="#99A4B3"/>
<path d="M69.8999 166.4V63.1L69.9999 62.9L70.1999 63.1V166.4L69.9999 166.5L69.8999 166.4Z" fill="#99A4B3"/>
<path d="M69.8999 61.6V56.1L69.9999 56L70.1999 56.1V61.6L69.9999 61.7L69.8999 61.6Z" fill="#99A4B3"/>
<path d="M75.3 185.8V178.4L75.4001 178.3L75.6001 178.4V185.8L75.4001 185.9L75.3 185.8Z" fill="#99A4B3"/>
<path d="M75.3 57.7V49.8L75.4001 49.6L75.6001 49.8V57.7L75.4001 57.9L75.3 57.7Z" fill="#99A4B3"/>
<path d="M75.3 161V66.2L75.4001 66.1L75.6001 66.2V161L75.4001 161.1L75.3 161Z" fill="#99A4B3"/>
<path d="M75.3 64.7V59.2L75.4001 59.1L75.6001 59.2V64.7L75.4001 64.9L75.3 64.7Z" fill="#99A4B3"/>
<path d="M80.7 185.8V180.5L80.7999 180.4L80.9999 180.5V185.8L80.7999 185.9L80.7 185.8Z" fill="#99A4B3"/>
<path d="M80.7 60.9V49.8L80.7999 49.6L80.9999 49.8V60.9L80.7999 61L80.7 60.9Z" fill="#99A4B3"/>
<path d="M80.7 155.6V69.3L80.7999 69.2L80.9999 69.3V155.6L80.7999 155.7L80.7 155.6Z" fill="#99A4B3"/>
<path d="M80.7 67.8V62.3L80.7999 62.2L80.9999 62.3V67.8L80.7999 68L80.7 67.8Z" fill="#99A4B3"/>
<path d="M86.1001 185.8V179.7L86.2001 179.6L86.4001 179.7V185.8L86.2001 185.9L86.1001 185.8Z" fill="#99A4B3"/>
<path d="M86.1001 158.8V49.8L86.2001 49.6L86.4001 49.8V158.8L86.2001 159L86.1001 158.8Z" fill="#99A4B3"/>
<path d="M91.5 185.8V174.5L91.6 174.4L91.7 174.5V185.8L91.6 185.9L91.5 185.8Z" fill="#99A4B3"/>
<path d="M91.5 165.1V54L91.6 53.9L91.7 54V165.1L91.6 165.2L91.5 165.1Z" fill="#99A4B3"/>
<path d="M96.8999 185.8V54L96.9999 53.9L97.0999 54V185.8L96.9999 185.9L96.8999 185.8Z" fill="#99A4B3"/>
<path d="M102.3 185.8V131.3L102.4 131.2L102.5 131.3V185.8L102.4 185.9L102.3 185.8Z" fill="#99A4B3"/>
<path d="M102.3 55.4V54L102.4 53.9L102.5 54V55.4L102.4 55.5L102.3 55.4Z" fill="#99A4B3"/>
<path d="M102.3 129.3V78.5L102.4 78.3L102.5 78.5V129.3L102.4 129.4L102.3 129.3Z" fill="#99A4B3"/>
<path d="M107.7 185.8V139.7L107.8 139.5L107.9 139.7V185.8L107.8 185.9L107.7 185.8Z" fill="#99A4B3"/>
<path d="M107.7 55.4V54L107.8 53.9L107.9 54V55.4L107.8 55.5L107.7 55.4Z" fill="#99A4B3"/>
<path d="M107.7 117.7V78.5L107.8 78.3L107.9 78.5V117.7L107.8 117.8L107.7 117.7Z" fill="#99A4B3"/>
<path d="M113.1 180.2V141.1L113.2 141L113.3 141.1V180.2L113.2 180.3L113.1 180.2Z" fill="#99A4B3"/>
<path d="M113.1 55.4V54L113.2 53.9L113.3 54V55.4L113.2 55.5L113.1 55.4Z" fill="#99A4B3"/>
<path d="M113.1 119.1V78.5L113.2 78.3L113.3 78.5V119.1L113.2 119.2L113.1 119.1Z" fill="#99A4B3"/>
<path d="M118.5 180.2V139.6L118.6 139.5L118.7 139.6V180.2L118.6 180.3L118.5 180.2Z" fill="#99A4B3"/>
<path d="M118.5 55.4V54L118.6 53.9L118.7 54V55.4L118.6 55.5L118.5 55.4Z" fill="#99A4B3"/>
<path d="M118.5 120.6V78.5L118.6 78.3L118.7 78.5V120.6L118.6 120.7L118.5 120.6Z" fill="#99A4B3"/>
<path d="M123.9 180.2V131.5L124 131.4L124.1 131.5V180.2L124 180.3L123.9 180.2Z" fill="#99A4B3"/>
<path d="M123.9 55.4V54L124 53.9L124.1 54V55.4L124 55.5L123.9 55.4Z" fill="#99A4B3"/>
<path d="M123.9 122V107.2L124 107.1L124.1 107.2V122L124 122.1L123.9 122Z" fill="#99A4B3"/>
<path d="M123.9 91.4V78.5L124 78.3L124.1 78.5V91.4L124 91.5L123.9 91.4Z" fill="#99A4B3"/>
<path d="M129.3 171.6V107.2L129.4 107.1L129.5 107.2V171.6L129.4 171.7L129.3 171.6Z" fill="#99A4B3"/>
<path d="M129.3 55.4V54L129.4 53.9L129.5 54V55.4L129.4 55.5L129.3 55.4Z" fill="#99A4B3"/>
<path d="M129.3 91.4V78.5L129.4 78.3L129.5 78.5V91.4L129.4 91.5L129.3 91.4Z" fill="#99A4B3"/>
<path d="M134.7 171.6V107.2L134.8 107.1L134.9 107.2V171.6L134.8 171.7L134.7 171.6Z" fill="#99A4B3"/>
<path d="M134.7 55.4V54L134.8 53.9L134.9 54V55.4L134.8 55.5L134.7 55.4Z" fill="#99A4B3"/>
<path d="M134.7 91.4V78.5L134.8 78.3L134.9 78.5V91.4L134.8 91.5L134.7 91.4Z" fill="#99A4B3"/>
<path d="M140.1 171.6V127.9L140.2 127.7L140.3 127.9V171.6L140.2 171.7L140.1 171.6Z" fill="#99A4B3"/>
<path d="M140.1 55.4V54L140.2 53.9L140.3 54V55.4L140.2 55.5L140.1 55.4Z" fill="#99A4B3"/>
<path d="M140.1 122.3V107.2L140.2 107.1L140.3 107.2V122.3L140.2 122.4L140.1 122.3Z" fill="#99A4B3"/>
<path d="M140.1 91.4V78.5L140.2 78.3L140.3 78.5V91.4L140.2 91.5L140.1 91.4Z" fill="#99A4B3"/>
<path d="M145.5 171.6V139L145.6 138.8L145.7 139V171.6L145.6 171.7L145.5 171.6Z" fill="#99A4B3"/>
<path d="M145.5 55.4V54L145.6 53.9L145.7 54V55.4L145.6 55.5L145.5 55.4Z" fill="#99A4B3"/>
<path d="M145.5 120.8V78.5L145.6 78.3L145.7 78.5V120.8L145.6 120.9L145.5 120.8Z" fill="#99A4B3"/>
<path d="M150.9 171.6V141L151 140.9L151.1 141V171.6L151 171.7L150.9 171.6Z" fill="#99A4B3"/>
<path d="M150.9 55.4V54L151 53.9L151.1 54V55.4L151 55.5L150.9 55.4Z" fill="#99A4B3"/>
<path d="M150.9 119.4V78.5L151 78.3L151.1 78.5V119.4L151 119.5L150.9 119.4Z" fill="#99A4B3"/>
<path d="M156.3 171.6V140.2L156.4 140L156.5 140.2V171.6L156.4 171.7L156.3 171.6Z" fill="#99A4B3"/>
<path d="M156.3 45.5V19.7L156.4 19.6L156.5 19.7V45.5L156.4 45.6L156.3 45.5Z" fill="#99A4B3"/>
<path d="M156.3 117.9V78.5L156.4 78.3L156.5 78.5V117.9L156.4 118.1L156.3 117.9Z" fill="#99A4B3"/>
<path d="M156.3 55.4V54L156.4 53.9L156.5 54V55.4L156.4 55.5L156.3 55.4Z" fill="#99A4B3"/>
<path d="M161.7 171.6V134.9L161.8 134.8L161.9 134.9V171.6L161.8 171.7L161.7 171.6Z" fill="#99A4B3"/>
<path d="M161.7 45.5V19.7L161.8 19.6L161.9 19.7V45.5L161.8 45.6L161.7 45.5Z" fill="#99A4B3"/>
<path d="M161.7 125V78.5L161.8 78.3L161.9 78.5V125L161.8 125.1L161.7 125Z" fill="#99A4B3"/>
<path d="M161.7 55.4V54L161.8 53.9L161.9 54V55.4L161.8 55.5L161.7 55.4Z" fill="#99A4B3"/>
<path d="M167.1 180.2V77L167.2 76.9L167.3 77V180.2L167.2 180.3L167.1 180.2Z" fill="#99A4B3"/>
<path d="M167.1 45.5V19.7L167.2 19.6L167.3 19.7V45.5L167.2 45.6L167.1 45.5Z" fill="#99A4B3"/>
<path d="M167.1 56.9V54L167.2 53.9L167.3 54V56.9L167.2 57L167.1 56.9Z" fill="#99A4B3"/>
<path d="M172.5 180.2V77L172.6 76.9L172.7 77V180.2L172.6 180.3L172.5 180.2Z" fill="#99A4B3"/>
<path d="M172.5 45.5V19.7L172.6 19.6L172.7 19.7V45.5L172.6 45.6L172.5 45.5Z" fill="#99A4B3"/>
<path d="M172.5 56.9V54L172.6 53.9L172.7 54V56.9L172.6 57L172.5 56.9Z" fill="#99A4B3"/>
<path d="M177.9 180.2V77L178 76.9L178.1 77V180.2L178 180.3L177.9 180.2Z" fill="#99A4B3"/>
<path d="M177.9 44.3V21.2L178 21.1L178.1 21.2V44.3L178 44.4L177.9 44.3Z" fill="#99A4B3"/>
<path d="M177.9 56.9V54L178 53.9L178.1 54V56.9L178 57L177.9 56.9Z" fill="#99A4B3"/>
<path d="M183.3 168.9V54L183.4 53.9L183.5 54V168.9L183.4 169L183.3 168.9Z" fill="#99A4B3"/>
<path d="M183.3 21.2V19.7L183.4 19.6L183.5 19.7V21.2L183.4 21.4L183.3 21.2Z" fill="#99A4B3"/>
<path d="M183.3 45.5V22.5L183.4 22.4L183.5 22.5V45.5L183.4 45.6L183.3 45.5Z" fill="#99A4B3"/>
<path d="M188.7 168.9V54L188.8 53.9L188.9 54V168.9L188.8 169L188.7 168.9Z" fill="#99A4B3"/>
<path d="M188.7 21.2V19.7L188.8 19.6L188.9 19.7V21.2L188.8 21.4L188.7 21.2Z" fill="#99A4B3"/>
<path d="M188.7 45.5V22.5L188.8 22.4L188.9 22.5V45.5L188.8 45.6L188.7 45.5Z" fill="#99A4B3"/>
<path d="M194.1 168.9V132.7L194.2 132.6L194.3 132.7V168.9L194.2 169L194.1 168.9Z" fill="#99A4B3"/>
<path d="M194.1 21.2V19.7L194.2 19.6L194.3 19.7V21.2L194.2 21.4L194.1 21.2Z" fill="#99A4B3"/>
<path d="M194.1 103.5V79L194.2 78.9L194.3 79V103.5L194.2 103.6L194.1 103.5Z" fill="#99A4B3"/>
<path d="M194.1 45.5V22.5L194.2 22.4L194.3 22.5V45.5L194.2 45.6L194.1 45.5Z" fill="#99A4B3"/>
<path d="M199.5 168.9V132.7L199.6 132.6L199.7 132.7V168.9L199.6 169L199.5 168.9Z" fill="#99A4B3"/>
<path d="M199.5 21.2V19.7L199.6 19.6L199.7 19.7V21.2L199.6 21.4L199.5 21.2Z" fill="#99A4B3"/>
<path d="M199.5 103.5V79L199.6 78.9L199.7 79V103.5L199.6 103.6L199.5 103.5Z" fill="#99A4B3"/>
<path d="M199.5 45.5V22.5L199.6 22.4L199.7 22.5V45.5L199.6 45.6L199.5 45.5Z" fill="#99A4B3"/>
<path d="M204.9 168.9V132.7L205 132.6L205.1 132.7V168.9L205 169L204.9 168.9Z" fill="#99A4B3"/>
<path d="M204.9 99.3V16.2L205 16.1L205.1 16.2V99.3L205 99.5L204.9 99.3Z" fill="#99A4B3"/>
<path d="M204.9 116.5V106.4L205 106.3L205.1 106.4V116.5L205 116.7L204.9 116.5Z" fill="#99A4B3"/>
<path d="M204.9 105V100.8L205 100.7L205.1 100.8V105L205 105.1L204.9 105Z" fill="#99A4B3"/>
<path d="M210.3 168.9V132.7L210.4 132.6L210.5 132.7V168.9L210.4 169L210.3 168.9Z" fill="#99A4B3"/>
<path d="M210.3 96.2V16.2L210.4 16.1L210.5 16.2V96.2L210.4 96.4L210.3 96.2Z" fill="#99A4B3"/>
<path d="M210.3 116.5V103.3L210.4 103.2L210.5 103.3V116.5L210.4 116.7L210.3 116.5Z" fill="#99A4B3"/>
<path d="M210.3 101.9V97.7L210.4 97.6L210.5 97.7V101.9L210.4 102L210.3 101.9Z" fill="#99A4B3"/>
<path d="M215.7 168.9V132.7L215.8 132.6L215.9 132.7V168.9L215.8 169L215.7 168.9Z" fill="#99A4B3"/>
<path d="M215.7 93.1V16.2L215.8 16.1L215.9 16.2V93.1L215.8 93.2L215.7 93.1Z" fill="#99A4B3"/>
<path d="M215.7 116.5V94.6L215.8 94.4L215.9 94.6V116.5L215.8 116.7L215.7 116.5Z" fill="#99A4B3"/>
<path d="M221.1 168.9V132.7L221.2 132.6L221.3 132.7V168.9L221.2 169L221.1 168.9Z" fill="#99A4B3"/>
<path d="M221.1 90.7V16.2L221.2 16.1L221.3 16.2V90.7L221.2 90.8L221.1 90.7Z" fill="#99A4B3"/>
<path d="M221.1 116.5V102.9L221.2 102.8L221.3 102.9V116.5L221.2 116.7L221.1 116.5Z" fill="#99A4B3"/>
<path d="M221.1 101.5V91.5L221.2 91.3L221.3 91.5V101.5L221.2 101.6L221.1 101.5Z" fill="#99A4B3"/>
<path d="M226.5 168.9V132.7L226.6 132.6L226.7 132.7V168.9L226.6 169L226.5 168.9Z" fill="#99A4B3"/>
<path d="M226.5 104.6V16.2L226.6 16.1L226.7 16.2V104.6L226.6 104.7L226.5 104.6Z" fill="#99A4B3"/>
<path d="M226.5 116.5V106L226.6 105.9L226.7 106V116.5L226.6 116.7L226.5 116.5Z" fill="#99A4B3"/>
<path d="M234.2 267.1H234.1V177.4H230.1V203.2V203.3L230 203.4H228.7V203.3L228.6 203.2V177.4H199.8H199.7L199.6 177.3V176.3H186.2V193.1V193.2H186.1H12.6999V233.4L186.1 256.6L186.2 256.7V267H187.4V244L187.5 243.9H188.8L188.9 244V267H234.2V267.1H234.1H234.2V267.2H188.8H188.7V267.1V244.2H187.7V267.1L187.6 267.2H187.5H186.1H186V267.1V256.8L12.4999 233.7L12.3999 233.6V193.1L12.4999 193V192.9H186V176.2V176.1L186.1 176H199.8L199.9 176.1V176.2V177.2H228.7H228.8L228.9 177.3V203.1H229.9V177.3V177.2H230H234.2H234.3V177.3V267.1V267.2H234.2V267.1Z" fill="#99A4B3"/>
<path d="M8.2001 29H8.1001C8.1001 28.8 8.20009 28.6 8.40009 28.6L10.5001 28.2H10.7001C10.9001 28.2 11.1001 28.3 11.3001 28.4C11.6001 28.6 11.9001 28.9 12.2001 29.3L12.1001 29.4V29.3C14.4001 29.2 16.7001 28.9 18.9001 28.4C19.6001 28.2 20.4001 28.2 21.1001 28.2C22.1001 28.2 23.0001 28.3 24.0001 28.6C24.8001 28.8 25.6001 29.2 26.3001 29.7C27.0001 30.2 27.5001 30.8 27.9001 31.5C28.2001 32.1 28.4001 32.8 28.4001 33.4C28.4001 34.1 28.2001 34.8 27.9001 35.3C27.5001 36 26.9001 36.6 26.3001 37.1C25.6001 37.6 24.8001 38 24.0001 38.2C23.1001 38.5 22.1001 38.6 21.1001 38.6C20.3001 38.6 19.6001 38.5 18.9001 38.3C16.6001 37.9 14.4001 37.6 12.1001 37.4V37.3L12.2001 37.4C12.0001 37.7 11.7001 38 11.3001 38.3C11.1001 38.4 10.9001 38.5 10.7001 38.5H10.5001L8.40009 38.1C8.20009 38.1 8.1001 37.9 8.1001 37.7V29H8.2001H8.30008V37.7L8.40009 37.9L10.5001 38.3H10.6001C10.8001 38.3 10.9001 38.3 11.0001 38.2C11.3001 38 11.6001 37.7 11.8001 37.4L11.9001 37.3C14.2001 37.4 16.5001 37.7 18.8001 38.2C19.5001 38.4 20.2001 38.4 21.0001 38.4C22.0001 38.4 22.9001 38.3 23.8001 38C24.6001 37.8 25.3001 37.4 26.0001 36.9C26.6001 36.4 27.2001 35.8 27.6001 35.2C27.9001 34.6 28.1001 34 28.1001 33.4C28.1001 32.8 27.9001 32.1 27.6001 31.6C27.2001 30.9 26.7001 30.3 26.0001 29.9C25.3001 29.4 24.6001 29.1 23.8001 28.8C22.9001 28.5 21.9001 28.4 21.0001 28.4C20.3001 28.4 19.5001 28.5 18.8001 28.6C16.5001 29 14.2001 29.3 11.9001 29.5L11.8001 29.4C11.6001 29.1 11.3001 28.8 11.0001 28.6C10.9001 28.5 10.7001 28.5 10.6001 28.5H10.5001L8.40009 28.9L8.30008 29.1H8.2001V29Z" fill="#99A4B3"/>
<path d="M230 177.4H204.1L204 177.3L204.1 177.2H230L230.1 177.3L230 177.4Z" fill="#99A4B3"/>
<path d="M230 169H204.1L204 168.9L204.1 168.7H230L230.1 168.9L230 169Z" fill="#99A4B3"/>
<path d="M228.3 16.3H203.8L203.7 16.2L203.8 16.1H228.3L228.4 16.2L228.3 16.3Z" fill="#99A4B3"/>
<path d="M228.3 12.7H203.8L203.7 12.6L203.8 12.5H228.3L228.4 12.6L228.3 12.7Z" fill="#99A4B3"/>
<path d="M187.5 267H210.6L210.7 267.1L210.6 267.2H187.5L187.4 267.1L187.5 267Z" fill="#99A4B3"/>
<path d="M187.5 268.4H210.6L210.7 268.5L210.6 268.6H187.5L187.4 268.5L187.5 268.4Z" fill="#99A4B3"/>
<path d="M58.5 21.4V21.5H7.70001V67.2H24.8C26.1 67.2 27.1 68.2 27.1 69.5V79.6C27.1 80.9 26.1 81.9 24.8 81.9H7.70001V87.5H58.3V81.3V81.2H58.4H59.9V57H58.4H58.3V56.9V21.5H58.5V21.6V21.4H58.6V56.7H60.1H60.2V56.8V81.3V81.4H60.1H58.6V87.6V87.7H58.5H7.60001H7.5V87.6V81.8V81.7H7.60001H24.8C25.9 81.7 26.8 80.8 26.8 79.7V69.6C26.8 68.5 25.9 67.6 24.8 67.6H7.60001H7.5V67.5V21.5V21.4H7.60001H58.5Z" fill="#99A4B3"/>
<path d="M8.19995 87.6V81.8L8.29993 81.7L8.39993 81.8V87.6L8.29993 87.7L8.19995 87.6Z" fill="#99A4B3"/>
<path d="M8.19995 28.7V21.4L8.29993 21.3L8.39993 21.4V28.7L8.29993 28.9L8.19995 28.7Z" fill="#99A4B3"/>
<path d="M8.19995 67.4V37.9L8.29993 37.8L8.39993 37.9V67.4L8.29993 67.5L8.19995 67.4Z" fill="#99A4B3"/>
<path d="M16.8 87.6V81.8L17.0001 81.7L17.1001 81.8V87.6L17.0001 87.7L16.8 87.6Z" fill="#99A4B3"/>
<path d="M16.8 28.7V21.4L17.0001 21.3L17.1001 21.4V28.7L17.0001 28.9L16.8 28.7Z" fill="#99A4B3"/>
<path d="M16.8 67.4V37.9L17.0001 37.8L17.1001 37.9V67.4L17.0001 67.5L16.8 67.4Z" fill="#99A4B3"/>
<path d="M25.5 87.6V81.6L25.6 81.5L25.7 81.6V87.6L25.6 87.7L25.5 87.6Z" fill="#99A4B3"/>
<path d="M25.5 29.3V21.4L25.6 21.3L25.7 21.4V29.3L25.6 29.4L25.5 29.3Z" fill="#99A4B3"/>
<path d="M25.5 67.5V37.4L25.6 37.2L25.7 37.4V67.5L25.6 67.7L25.5 67.5Z" fill="#99A4B3"/>
<path d="M34.1001 87.6V21.4L34.2001 21.3L34.3001 21.4V87.6L34.2001 87.7L34.1001 87.6Z" fill="#99A4B3"/>
<path d="M42.7 87.6V21.4L42.8999 21.3L42.9999 21.4V87.6L42.8999 87.7L42.7 87.6Z" fill="#99A4B3"/>
<path d="M51.3999 87.6V21.4L51.4999 21.3L51.5999 21.4V87.6L51.4999 87.7L51.3999 87.6Z" fill="#99A4B3"/>
<path d="M60.1001 70.5H26.9001L26.8 70.3L26.9001 70.2H60.1001L60.3 70.3L60.1001 70.5Z" fill="#99A4B3"/>
<path d="M58.5 53.2H7.60001L7.5 53.1L7.60001 53H58.5L58.6 53.1L58.5 53.2Z" fill="#99A4B3"/>
<path d="M58.5001 35.9H27.4001L27.3 35.8L27.4001 35.7H58.5001L58.6001 35.8L58.5001 35.9Z" fill="#99A4B3"/>
<path d="M8.20001 35.9H7.60001L7.5 35.8L7.60001 35.7H8.20001L8.29999 35.8L8.20001 35.9Z" fill="#99A4B3"/>
<path d="M230 192.9H234.2L234.3 193.1L234.2 193.2H230L229.9 193.1L230 192.9Z" fill="#99A4B3"/>
<path d="M186.1 192.9H228.7L228.9 193.1L228.7 193.2H186.1L186 193.1L186.1 192.9Z" fill="#99A4B3"/>
<path d="M12.4999 210.2H234.2L234.3 210.3L234.2 210.5H12.4999L12.3999 210.3L12.4999 210.2Z" fill="#99A4B3"/>
<path d="M12.4999 227.5H234.2L234.3 227.6L234.2 227.7H12.4999L12.3999 227.6L12.4999 227.5Z" fill="#99A4B3"/>
<path d="M97.6 244.8H187.5L187.7 244.9L187.5 245H97.6L97.5 244.9L97.6 244.8Z" fill="#99A4B3"/>
<path d="M188.8 244.8H234.2L234.3 244.9L234.2 245H188.8L188.7 244.9L188.8 244.8Z" fill="#99A4B3"/>
<path d="M186.1 262H187.5L187.7 262.2L187.5 262.3H186.1L186 262.2L186.1 262Z" fill="#99A4B3"/>
<path d="M188.8 262H234.2L234.3 262.2L234.2 262.3H188.8L188.7 262.2L188.8 262Z" fill="#99A4B3"/>
<path d="M13.2 233.7V193.1L13.3999 192.9L13.4999 193.1V233.7L13.3999 233.8L13.2 233.7Z" fill="#99A4B3"/>
<path d="M30.5 236V193.1L30.6 192.9L30.8 193.1V236L30.6 236.1L30.5 236Z" fill="#99A4B3"/>
<path d="M47.8 238.3V193.1L47.9001 192.9L48.0001 193.1V238.3L47.9001 238.4L47.8 238.3Z" fill="#99A4B3"/>
<path d="M65.1001 240.6V193.1L65.2001 192.9L65.3001 193.1V240.6L65.2001 240.7L65.1001 240.6Z" fill="#99A4B3"/>
<path d="M82.3 242.9V193.1L82.5001 192.9L82.6001 193.1V242.9L82.5001 243L82.3 242.9Z" fill="#99A4B3"/>
<path d="M99.6001 245.2V193.1L99.7001 192.9L99.8001 193.1V245.2L99.7001 245.3L99.6001 245.2Z" fill="#99A4B3"/>
<path d="M116.9 247.5V193.1L117 192.9L117.1 193.1V247.5L117 247.6L116.9 247.5Z" fill="#99A4B3"/>
<path d="M134.2 249.8V193.1L134.3 192.9L134.4 193.1V249.8L134.3 249.9L134.2 249.8Z" fill="#99A4B3"/>
<path d="M151.4 252.1V193.1L151.5 192.9L151.7 193.1V252.1L151.5 252.2L151.4 252.1Z" fill="#99A4B3"/>
<path d="M168.7 254.4V193.1L168.8 192.9L168.9 193.1V254.4L168.8 254.5L168.7 254.4Z" fill="#99A4B3"/>
<path d="M186 256.7V193.1L186.1 192.9L186.2 193.1V256.7L186.1 256.8L186 256.7Z" fill="#99A4B3"/>
<path d="M203.2 267.1V177.3L203.4 177.2L203.5 177.3V267.1L203.4 267.2L203.2 267.1Z" fill="#99A4B3"/>
<path d="M220.5 267.1V177.3L220.6 177.2L220.8 177.3V267.1L220.6 267.2L220.5 267.1Z" fill="#99A4B3"/>
<path fill-rule="evenodd" clip-rule="evenodd" d="M12.5 222.2H1V11H202.4V12.6H203.8V16.2H202.4V19.7H178.1V21.2H174.8V19.7H64.6V45.5H66.4V54H61.8V56.9H58.5V21.4H7.60001V87.6H58.5V81.3H61.8V111.6H50.3V108.2H58.5V91H7.60001V108.2H15.7V111.6H7.60001V185.8H13.3V189.8H12.5V222.2Z" fill="#22576F"/>
<path fill-rule="evenodd" clip-rule="evenodd" d="M70.9001 185.8L70.8 189.8H71.6001V193.1H186.1V172.9H186.8V168.9H178.8V180.2H109.7V185.8H70.9001Z" fill="#22576F"/>
<path d="M204.1 168.9H199.8V177.4H204.1V168.9Z" fill="#22576F"/>
<path fill-rule="evenodd" clip-rule="evenodd" d="M230 168.9V177.3H234.2V222.2H240.8V11H229.7V12.6H228.3V16.2H229.7V19.7H232V106H229.1V109.4H232V126.6H200.3V109.4H203.2V106H200.3V103.5H194.2V132.7H232V168.9H230Z" fill="#22576F"/>
<path fill-rule="evenodd" clip-rule="evenodd" d="M88 45.5V54H194.2V79H200.3V45.5H178.1V44.3H174.8V45.5H88Z" fill="#22576F"/>
<path d="M111.2 43.2H151.5V43.3L151.6 43.4V44.4L151.5 44.5V44.6H111.4L111.3 44.4L111.4 44.3H151.3V43.5H111.2L111 43.4L111.2 43.2Z" fill="#22576F"/>
<path d="M200.3 119.3H202.4L202.6 119.4L202.4 119.6H200.3L200.2 119.4L200.3 119.3Z" fill="#22576F"/>
<path d="M223.5 119.3H227.7L227.8 119.4L227.7 119.5H223.5L223.4 119.4L223.5 119.3ZM217.2 119.3H221.4L221.5 119.4L221.4 119.5H217.2L217.1 119.4L217.2 119.3ZM210.9 119.3H215.1L215.2 119.4L215.1 119.5H210.9L210.8 119.4L210.9 119.3ZM204.6 119.3H208.8L208.9 119.4L208.8 119.5H204.6L204.5 119.4L204.6 119.3Z" fill="#22576F"/>
<path d="M229.8 119.3H232L232.1 119.4L232 119.6H229.8L229.7 119.4L229.8 119.3Z" fill="#22576F"/>
<path d="M58.4999 98.3H56.2999L56.2 98.1L56.2999 98H58.4999L58.5999 98.1L58.4999 98.3Z" fill="#22576F"/>
<path d="M16.1001 98.3H11.9001L11.8 98.2L11.9001 98.1H16.1001L16.2001 98.2L16.1001 98.3ZM22.4001 98.3H18.2001L18.1001 98.2L18.2001 98.1H22.4001L22.5001 98.2L22.4001 98.3ZM28.8 98.3H24.6001L24.5001 98.2L24.6001 98.1H28.8L28.9001 98.2L28.8 98.3ZM35.2001 98.3H31.0001L30.9001 98.2L31.0001 98.1H35.2001L35.3 98.2L35.2001 98.3ZM41.5001 98.3H37.3L37.2001 98.2L37.3 98.1H41.5001L41.6001 98.2L41.5001 98.3ZM47.9001 98.3H43.7001L43.6001 98.2L43.7001 98.1H47.9001L48.0001 98.2L47.9001 98.3ZM54.2001 98.3H50.0001L49.9001 98.2L50.0001 98.1H54.2001L54.3 98.2L54.2001 98.3Z" fill="#22576F"/>
<path d="M9.70001 98.3H7.60001L7.5 98.1L7.60001 98H9.70001L9.89999 98.1L9.70001 98.3Z" fill="#22576F"/>
<path d="M186.1 172.8H199.8L199.9 172.9L199.8 173H186.1L186 172.9L186.1 172.8Z" fill="#22576F"/>
<path d="M186.1 176H199.8L199.9 176.2L199.8 176.3H186.1L186 176.2L186.1 176Z" fill="#22576F"/>
<path d="M12.4999 189.7H71.5999L71.6999 189.8L71.5999 190H12.4999L12.3999 189.8L12.4999 189.7Z" fill="#22576F"/>
<path d="M12.4999 192.9H71.5999L71.6999 193.1L71.5999 193.2H12.4999L12.3999 193.1L12.4999 192.9Z" fill="#22576F"/>
<path d="M230 203.2V203.4H228.7L228.6 203.3V203.2V177.3V177.2H228.7H230H230.1V177.3V203.2V203.3L230 203.4V203.2H229.9V177.4H228.9V203.1H230V203.2H229.9H230Z" fill="#22576F"/>
<path d="M204.2 177.3C204.2 184.4 207.1 190.9 211.8 195.5C216.5 200.2 222.9 203.1 230 203.1L230.1 203.2L230 203.3C215.6 203.3 204 191.6 204 177.3L204.1 177.2L204.2 177.3Z" fill="#22576F"/>
<path d="M228.3 40.7V40.8H227H226.9V40.7V16.2V16.1H227H228.3H228.4V16.2V40.7V40.8H228.3V40.7H228.2V16.3H227.2V40.5H228.3V40.7H228.2H228.3Z" fill="#22576F"/>
<path d="M203.9 16.2C203.9 22.9 206.6 29 211 33.4C215.4 37.8 221.5 40.5 228.2 40.5L228.3 40.6L228.2 40.7C214.6 40.7 203.6 29.7 203.6 16.1L203.7 16L203.9 16.2Z" fill="#22576F"/>
<path d="M187.5 244V243.9H188.8L188.9 244V267.1V267.2H188.8H187.5H187.4V267.1V244L187.5 243.9V244H187.7V266.9H188.7V244.2H187.5V244H187.7H187.5Z" fill="#22576F"/>
<path d="M210.4 267.1C210.4 260.8 207.8 255 203.7 250.9C199.6 246.8 193.8 244.2 187.5 244.2L187.4 244.1L187.5 244C200.3 244 210.7 254.4 210.7 267.2L210.6 267.3L210.4 267.1Z" fill="#22576F"/>
<path d="M216 106C216 103.7 215.4 101.5 214.3 99.6V99.4H214.5C215.6 101.4 216.3 103.6 216.3 105.9L216.2 106H216Z" fill="#22576F"/>
<path d="M218 99.6C216.9 101.6 216.3 103.8 216.3 106L216.2 106.1L216 106C216 103.7 216.6 101.4 217.8 99.5H218V99.6Z" fill="#22576F"/>
<path d="M203.2 106L203.1 105.9L214.3 99.4H214.4L214.5 99.5L215.1 100.6L215.2 100.7H215.1L203.9 107.2H203.8H203.7L203.1 106.1V105.9L203.2 106H203.3L203.9 106.9L214.9 100.6L214.4 99.7L203.2 106.1V106H203.3H203.2Z" fill="#22576F"/>
<path d="M229.1 106L229 106.1L217.9 99.7L217.4 100.6L228.4 106.9L229 106H229.1L229 106.1L229.1 106L229.2 106.1L228.6 107.2H228.4L217.2 100.7L217.1 100.6L217.8 99.5V99.4H217.9L229.2 105.9V106V106.1L229.1 106Z" fill="#22576F"/>
<path d="M61.8001 56.9L61.9001 56.8L83.1001 69V69.1V69.2L82.5001 70.2L82.3001 70.3L61.1001 58.1V58V57.9L61.7001 56.8H61.9001L61.8001 56.9H61.9001L61.3001 57.9L82.3001 70L82.8001 69.1L61.7001 57L61.8001 56.9H61.9001H61.8001Z" fill="#22576F"/>
<path d="M61.7999 81.2C70.4999 81.2 78.4999 76.6 82.8999 69H83.0999V69.2C78.6999 76.8 70.5999 81.5 61.7999 81.5L61.7 81.4L61.7999 81.2Z" fill="#22576F"/>
<path d="M178.1 21.2V21.1H201.2H201.3V21.2V22.5V22.6H201.2H178.1H178V22.5V21.2V21.1H178.1V21.2H178.3V22.4H201V21.4H178.1V21.2H178.3H178.1Z" fill="#22576F"/>
<path d="M178.1 44.1C184.4 44.1 190.2 41.5 194.3 37.4C198.4 33.3 201 27.5 201 21.2L201.1 21.1L201.2 21.2C201.2 34 190.8 44.4 178 44.4L177.9 44.3L178.1 44.1Z" fill="#22576F"/>
<path d="M187.5 267.1V267.2H186.2V268.4H187.4V267.1H187.5V267.2V267.1H187.7V268.5L187.6 268.6H187.5H186.1H186V268.5V267.1V267L186.1 266.9H187.5L187.6 267L187.7 267.1H187.5Z" fill="#22576F"/>
<path d="M210.6 267.1V266.9H234.2L234.3 267V267.1V268.5V268.6H234.2H210.6H210.5L210.4 268.5V267.1L210.5 267L210.6 266.9V267.1H210.7V268.4H234.1V267.2H210.6V267.1H210.7H210.6Z" fill="#22576F"/>
<path d="M151.3 45.5V19.7L151.5 19.6L151.6 19.7V45.5L151.5 45.7L151.3 45.5Z" fill="#22576F"/>
<path d="M136.9 45.5V44.4L137.1 44.3L137.2 44.4V45.5L137.1 45.7L136.9 45.5Z" fill="#22576F"/>
<path d="M136.9 43.4V19.7L137.1 19.6L137.2 19.7V43.4L137.1 43.5L136.9 43.4Z" fill="#22576F"/>
<path d="M129.7 45.5V44.4L129.9 44.3L130 44.4V45.5L129.9 45.7L129.7 45.5Z" fill="#22576F"/>
<path d="M129.7 43.4V19.7L129.9 19.6L130 19.7V43.4L129.9 43.5L129.7 43.4Z" fill="#22576F"/>
<path d="M115.3 45.5V44.4L115.5 44.3L115.6 44.4V45.5L115.5 45.7L115.3 45.5Z" fill="#22576F"/>
<path d="M115.3 43.4V19.7L115.5 19.6L115.6 19.7V43.4L115.5 43.5L115.3 43.4Z" fill="#22576F"/>
<path d="M108.1 33.9V32.6L108.3 32.5L108.4 32.6V33.9L108.3 34.1L108.1 33.9Z" fill="#22576F"/>
<path d="M108.1 31.3V19.7L108.3 19.6L108.4 19.7V31.3L108.3 31.4L108.1 31.3Z" fill="#22576F"/>
<path d="M104.9 19.7L108 31.1L110.5 31.8L110.6 31.9L110.5 32L106.5 33.3L108.7 33.9L108.8 34L111.9 45.5L111.8 45.6H111.6L108.6 34.2L106.1 33.5L106 33.3L106.1 33.2L110 31.9L107.9 31.3L107.8 31.2L104.7 19.7L104.8 19.6L104.9 19.7Z" fill="#22576F"/>
<path d="M144.1 45.5V44.4L144.3 44.3L144.4 44.4V45.5L144.3 45.7L144.1 45.5Z" fill="#22576F"/>
<path d="M144.1 43.4V19.7L144.3 19.6L144.4 19.7V43.4L144.3 43.5L144.1 43.4Z" fill="#22576F"/>
<path d="M122.5 45.5V44.4L122.7 44.3L122.8 44.4V45.5L122.7 45.7L122.5 45.5Z" fill="#22576F"/>
<path d="M122.5 43.4V19.7L122.7 19.6L122.8 19.7V43.4L122.7 43.5L122.5 43.4Z" fill="#22576F"/>
<path d="M66.4001 54L66.5001 53.9L85.0001 64.6L85.5001 63.7L67.1001 53.1L66.5001 54H66.4001L66.5001 53.9L66.4001 54L66.3 53.9L66.9001 52.8H67.0001H67.1001L85.8 63.6V63.7L85.2001 64.8L85.1001 64.9H85.0001L66.3 54.1V53.9L66.4001 54Z" fill="#22576F"/>
<path d="M85 64.7C86.9 61.4 87.9 57.7 87.9 54L88 53.9L88.1 54C88.1 57.8 87.1 61.6 85.2 64.9H85V64.7Z" fill="#22576F"/>
<path d="M15.7001 128.8V128.7H16.9001V111.7H15.8001V128.8H15.7001V128.7V128.8H15.6001V111.6V111.5L15.7001 111.4H17.0001L17.1001 111.5V111.6V128.8V128.9H17.0001H15.7001H15.6001V128.8H15.7001Z" fill="#22576F"/>
<path d="M48.9999 128.8V128.7H50.0999V111.7H49.0999V128.8H48.9999V128.7V128.8H48.8999V111.6V111.5L48.9999 111.4H50.2999L50.3999 111.5V111.6V128.8V128.9H50.2999H48.9999H48.8999V128.8H48.9999Z" fill="#22576F"/>
<path d="M15.7 128.7C20.4 128.7 24.7 126.8 27.8 123.7C30.9 120.6 32.8 116.3 32.8 111.6L32.9 111.5L33 111.6C33 121.2 25.2 129 15.6 129L15.5 128.9L15.7 128.7Z" fill="#22576F"/>
<path d="M33.1001 111.6C33.1001 116.3 35.0001 120.6 38.1001 123.7C41.2001 126.8 45.5001 128.7 50.2001 128.7L50.3 128.8L50.2001 128.9C40.6001 128.9 32.8 121.1 32.8 111.5L32.9001 111.4L33.1001 111.6Z" fill="#22576F"/>
<path d="M200.3 103.5L200.2 103.4L221.3 91.2L220.8 90.3L199.8 102.5L200.4 103.4L200.3 103.5L200.2 103.4L200.3 103.5L200.2 103.6L199.6 102.5V102.4V102.3L220.8 90.1H220.9H221L221.6 91.2V91.3V91.4L200.4 103.6H200.2L200.3 103.5Z" fill="#22576F"/>
<path d="M221.4 91.3C217.1 83.8 209 79.1 200.3 79.1L200.2 79L200.3 78.9C209.1 78.9 217.2 83.6 221.6 91.2V91.4L221.4 91.3Z" fill="#22576F"/>
<path d="M186.1 172.9V172.8H187.5H187.6L187.7 172.9V176.2H187.6L187.5 176.3H186.1L186 176.2V172.9V172.8H186.1V172.9H186.2V176H187.4V173H186.1V172.9H186.2H186.1Z" fill="#22576F"/>
<path d="M198.3 172.9V172.8H199.8H199.9V172.9V176.2L199.8 176.3H198.3L198.2 176.2V172.9V172.8H198.3V172.9H198.5V176H199.6V173H198.3V172.9H198.5H198.3Z" fill="#22576F"/>
<path d="M187.5 175.3H198.3L198.5 175.4L198.3 175.6H187.5L187.4 175.4L187.5 175.3Z" fill="#22576F"/>
<path d="M187.5 174.6H198.3L198.5 174.7L198.3 174.8H187.5L187.4 174.7L187.5 174.6Z" fill="#22576F"/>
<path d="M186.8 168.7H199.8L199.9 168.9L199.8 169H186.8L186.7 168.9L186.8 168.7Z" fill="#22576F"/>
<path d="M12.4999 189.8V189.7H13.9999H14.0999V189.8V193.1V193.2H13.9999H12.4999L12.3999 193.1V189.8L12.4999 189.7V189.8H12.6999V192.9H13.8999V190H12.4999V189.8H12.6999H12.4999Z" fill="#22576F"/>
<path d="M70.1 189.8V189.7H71.6H71.7V189.8V193.1V193.2H71.6H70.1H70V193.1V189.8V189.7H70.1V189.8H70.3V192.9H71.4V190H70.1V189.8H70.3H70.1Z" fill="#22576F"/>
<path d="M29.1 189.8V189.7H30.5H30.6L30.7 189.8V193.1L30.6 193.2H30.5H29.1H29V193.1V189.8V189.7H29.1V189.8H29.2V192.9H30.4V190H29.1V189.8H29.2H29.1Z" fill="#22576F"/>
<path d="M13.9999 192.2H29.0999L29.1999 192.3L29.0999 192.5H13.9999L13.8999 192.3L13.9999 192.2Z" fill="#22576F"/>
<path d="M13.9999 191.5H29.0999L29.1999 191.6L29.0999 191.8H13.9999L13.8999 191.6L13.9999 191.5Z" fill="#22576F"/>
<path d="M30.4999 192.2H70.0999L70.2999 192.3L70.0999 192.5H30.4999L30.3999 192.3L30.4999 192.2Z" fill="#22576F"/>
<path d="M30.4999 191.5H70.0999L70.2999 191.6L70.0999 191.8H30.4999L30.3999 191.6L30.4999 191.5Z" fill="#22576F"/>
<path d="M13.3001 185.7H70.9001L71.0001 185.8L70.9001 185.9H13.3001L13.1001 185.8L13.3001 185.7Z" fill="#22576F"/>
<path d="M164.4 171.6V171.7H124.2V180.1H164.3V171.6H164.4V171.7V171.6H164.5V180.2V180.3H164.4H124.1H124V180.2V171.6V171.5L124.1 171.4H164.4L164.5 171.5V171.6H164.4Z" fill="#22576F"/>
<path d="M8.99991 138.3V138.2H26.2999H26.3999V138.3V184.3V184.4L26.2999 184.5H8.99991V184.4L8.8999 184.3V138.3L8.99991 138.2V138.3H9.19992V184.2H26.1999V138.4H8.99991V138.3H9.19992H8.99991Z" fill="#22576F"/>
<path d="M13.6 152.7V152.5H14.7L14.8 152.6V152.7V169.9V170L14.7 170.1H13.6L13.5 170V169.9V152.7V152.6L13.6 152.5V152.7H13.8V169.8H14.6V152.8H13.6V152.7H13.8H13.6Z" fill="#22576F"/>
<path d="M20.0001 154V153.9H24.3H24.4001V154V168.4V168.5H24.3H20.0001H19.9001L19.8 168.4V154L19.9001 153.9H20.0001V154H20.1001V168.3H24.1001V154.1H20.0001V154H20.1001H20.0001Z" fill="#22576F"/>
<path d="M13.5999 158.7H12.0999V163.9H13.5999L13.7999 164L13.5999 164.1H11.9999H11.8999V164V158.6V158.5H11.9999H13.5999L13.7999 158.6L13.5999 158.7Z" fill="#22576F"/>
<path d="M32.7999 155.1H26.2999L26.2 155L26.2999 154.9H32.7999L32.8999 155L32.7999 155.1Z" fill="#22576F"/>
<path d="M14.7001 163.9H16.2001V158.7H14.7001L14.6001 158.6L14.7001 158.5H16.3001H16.4001L16.5001 158.6V164L16.4001 164.1H16.3001H14.7001L14.6001 164L14.7001 163.9Z" fill="#22576F"/>
<path d="M32.7999 167.7H26.2999L26.2 167.6L26.2999 167.5H32.7999L32.8999 167.6L32.7999 167.7Z" fill="#22576F"/>
<path d="M32.7999 154.3V154.2H33.8999H33.9999V154.3V168.3V168.4L33.8999 168.5H32.7999L32.7 168.4V168.3V154.3V154.2H32.7999V154.3H32.8999V168.2H33.7V154.4H32.7999V154.3H32.8999H32.7999Z" fill="#22576F"/>
<path d="M21.2 150.4V150.5C21 150.6 20.8999 150.7 20.8999 151V151.1C20.9999 151.3 21.0999 151.4 21.3999 151.4H21.4999C21.9999 151.3 22.6 151.2 23.2 151.1C23.4 151.1 23.4999 150.9 23.4999 150.8C23.4999 150.7 23.3999 150.5 23.2999 150.5C22.9999 150.4 22.6999 150.3 22.2999 150.3C21.9999 150.3 21.5999 150.4 21.2999 150.5L21.2 150.4V150.3C21.6 150.2 21.8999 150.1 22.2999 150.1C22.6999 150.1 22.9999 150.2 23.3999 150.3C23.5999 150.4 23.7999 150.6 23.7999 150.8C23.7999 151.1 23.6 151.4 23.2 151.4C22.7 151.4 22.0999 151.5 21.5999 151.7H21.3999C21.0999 151.7 20.8 151.5 20.7 151.2V151C20.7 150.7 20.9 150.4 21.2 150.3V150.4Z" fill="#22576F"/>
<path d="M144.8 91.4V91.5H120.5V107.1H144.7V91.4H144.8V91.5V91.4H145V107.2L144.9 107.3H144.8H120.4H120.3V107.2V91.4V91.3H120.4H144.8H144.9L145 91.4H144.8Z" fill="#22576F"/>
<path d="M165.7 64.1H165.6C165.6 60.9 168.2 58.2 171.5 58.2C174.7 58.2 177.4 60.8 177.4 64.1C177.4 67.3 174.8 70 171.5 70C168.3 70 165.6 67.4 165.6 64.1H165.7H165.8C165.8 65.7 166.4 67.1 167.4 68.1C168.4 69.1 169.8 69.7 171.4 69.7C173 69.7 174.4 69.1 175.4 68.1C176.4 67.1 177 65.7 177 64.1C177 62.5 176.4 61.1 175.4 60.1C174.4 59.1 173 58.5 171.4 58.5C169.8 58.5 168.4 59.1 167.4 60.1C166.4 61.1 165.8 62.5 165.8 64.1H165.7Z" fill="#22576F"/>
<path d="M170 64.1H169.9C169.9 63.2 170.6 62.5 171.5 62.5C172.4 62.5 173.1 63.2 173.1 64.1C173.1 65 172.4 65.7 171.5 65.7C170.6 65.7 169.9 65 169.9 64.1H170H170.1C170.1 64.8 170.7 65.5 171.5 65.5C172.2 65.5 172.9 64.9 172.9 64.1C172.9 63.4 172.3 62.7 171.5 62.7C170.8 62.7 170.1 63.3 170.1 64.1H170Z" fill="#22576F"/>
<path d="M177.2 64.2H173L172.8 64.1L173 63.9H177.2L177.4 64.1L177.2 64.2Z" fill="#22576F"/>
<path d="M170 64.2H165.7L165.6 64.1L165.7 63.9H170L170.1 64.1L170 64.2Z" fill="#22576F"/>
<path d="M171.4 69.8V65.5L171.5 65.4L171.6 65.5V69.8L171.5 69.9L171.4 69.8Z" fill="#22576F"/>
<path d="M171.4 62.6V58.3L171.5 58.2L171.6 58.3V62.6L171.5 62.7L171.4 62.6Z" fill="#22576F"/>
<path d="M164.3 56.9V56.7H178.7L178.8 56.8V56.9V77V77.1H178.7H164.3H164.2L164.1 77V56.9L164.2 56.8L164.3 56.7V56.9H164.4V76.9H178.6V57H164.3V56.9H164.4H164.3Z" fill="#22576F"/>
<path d="M162.8 55.5H102.4L102.3 55.4L102.4 55.3H162.8L163 55.4L162.8 55.5Z" fill="#22576F"/>
<path d="M102.3 78.5V55.4L102.4 55.3L102.5 55.4V78.5L102.4 78.6L102.3 78.5Z" fill="#22576F"/>
<path d="M162.7 78.5V55.4L162.8 55.3L163 55.4V78.5L162.8 78.6L162.7 78.5Z" fill="#22576F"/>
<path d="M159.8 78.5V59L160 58.9L160.1 59V78.5L160 78.6L159.8 78.5Z" fill="#22576F"/>
<path d="M162.8 58.4H102.4L102.3 58.3L102.4 58.2H162.8L163 58.3L162.8 58.4Z" fill="#22576F"/>
<path d="M162.8 78.6H102.4L102.3 78.5L102.4 78.3H162.8L163 78.5L162.8 78.6Z" fill="#22576F"/>
<path d="M141.6 78.5V59.7L141.7 59.6L141.8 59.7V78.5L141.7 78.6L141.6 78.5Z" fill="#22576F"/>
<path d="M123.4 78.5V59.7L123.5 59.6L123.6 59.7V78.5L123.5 78.6L123.4 78.5Z" fill="#22576F"/>
<path d="M160 59.9H105.3L105.1 59.7L105.3 59.6H160L160.1 59.7L160 59.9Z" fill="#22576F"/>
<path d="M102.4 58.9H105.3L105.4 59L105.3 59.1H102.4L102.3 59L102.4 58.9Z" fill="#22576F"/>
<path d="M162.8 59.1H160L159.8 59L160 58.9H162.8L163 59L162.8 59.1Z" fill="#22576F"/>
<path d="M105.1 78.5V59L105.3 58.9L105.4 59V78.5L105.3 78.6L105.1 78.5Z" fill="#22576F"/>
<path d="M141.7 133C143 137.8 147.3 140.9 152 140.9C152.9 140.9 153.8 140.8 154.8 140.5C159.6 139.2 162.7 134.9 162.7 130.2C162.7 129.3 162.6 128.4 162.3 127.4L162.4 127.2L162.6 127.3C162.9 128.2 163 129.2 163 130.1C163 134.9 159.8 139.3 154.9 140.6C154 140.9 153 141 152.1 141C147.3 141 142.9 137.8 141.6 132.9L141.7 132.7V133Z" fill="#22576F"/>
<path d="M144.5 132.3C145.4 135.8 148.6 138.1 152 138.1C152.7 138.1 153.3 138 154 137.8C157.5 136.9 159.8 133.7 159.8 130.3C159.8 129.6 159.7 129 159.5 128.3L159.6 128.1L159.8 128.2C160 128.9 160.1 129.6 160.1 130.3C160.1 133.9 157.7 137.1 154.1 138.1C153.4 138.3 152.7 138.4 152 138.4C148.4 138.4 145.2 136 144.2 132.4L144.3 132.2L144.5 132.3Z" fill="#22576F"/>
<path d="M144.3 132.4L141.5 121.9L141.6 121.8L141.7 121.9L144.5 132.3L144.4 132.5L144.3 132.4Z" fill="#22576F"/>
<path d="M157 117.8L159.8 128.2L159.7 128.4L159.6 128.3L156.8 117.8L156.9 117.7L157 117.8Z" fill="#22576F"/>
<path d="M141.5 133.1L138.7 122.7L138.8 122.5L138.9 122.6L141.7 133L141.6 133.2L141.5 133.1Z" fill="#22576F"/>
<path d="M138.8 122.5L159.6 116.9L159.8 117L159.7 117.2L138.8 122.8L138.7 122.7L138.8 122.5Z" fill="#22576F"/>
<path d="M159.8 117L162.6 127.5L162.5 127.6L162.3 127.5L159.5 117.1L159.6 116.9L159.8 117Z" fill="#22576F"/>
<path d="M144.1 130.9C145 134.4 148.2 136.7 151.6 136.7C152.3 136.7 152.9 136.6 153.6 136.4C157.1 135.5 159.4 132.3 159.4 128.9C159.4 128.2 159.3 127.6 159.1 126.9L159.2 126.7L159.4 126.8C159.6 127.5 159.7 128.2 159.7 128.9C159.7 132.5 157.3 135.7 153.7 136.7C153 136.9 152.3 137 151.6 137C148 137 144.8 134.6 143.8 131L143.9 130.8L144.1 130.9Z" fill="#22576F"/>
<path d="M159.4 177.3V177.4H129.1L129 177.3V176.6L129.1 176.5H159.4H159.5V176.6V177.3V177.4H159.4V177.3H159.2V176.7H129.3V177.2H159.4V177.3H159.2H159.4Z" fill="#22576F"/>
<path d="M139.8 176.6V173.7L139.9 173.6H148.6H148.7V173.7V176.6L148.6 176.7L148.5 176.6V173.9H140.1V176.6L139.9 176.7L139.8 176.6Z" fill="#22576F"/>
<path d="M148.7 177.3V178.8V178.9H148.6H139.9L139.8 178.8V177.3L139.9 177.2L140.1 177.3V178.6H148.5V177.3L148.6 177.2L148.7 177.3Z" fill="#22576F"/>
<path d="M74.3999 177.3C76.4999 179.4 79.1999 180.4 81.8999 180.4C84.5999 180.4 87.3999 179.4 89.3999 177.3C91.4999 175.2 92.4999 172.5 92.4999 169.8C92.4999 167.1 91.4999 164.3 89.3999 162.3V162.1H89.5999C91.6999 164.2 92.7999 167 92.7999 169.8C92.7999 172.6 91.6999 175.4 89.5999 177.5C87.4999 179.6 84.6999 180.7 81.8999 180.7C79.0999 180.7 76.3 179.6 74.2 177.5V177.3H74.3999Z" fill="#22576F"/>
<path d="M76.3999 175.3C77.8999 176.8 79.8999 177.6 81.8999 177.6C83.8999 177.6 85.8999 176.8 87.3999 175.3C88.8999 173.8 89.7 171.8 89.7 169.8C89.7 167.8 88.8999 165.8 87.3999 164.3V164.1H87.5999C89.1999 165.7 89.9999 167.7 89.9999 169.8C89.9999 171.9 89.1999 173.9 87.5999 175.5C85.9999 177.1 83.9999 177.9 81.8999 177.9C79.7999 177.9 77.8 177.1 76.2 175.5V175.3H76.3999Z" fill="#22576F"/>
<path d="M87.4001 164.3L79.8 156.6V156.5H80.0001L87.6001 164.1V164.3H87.4001Z" fill="#22576F"/>
<path d="M68.8001 167.7L76.4001 175.3V175.5H76.2001L68.6001 167.8V167.7H68.8001Z" fill="#22576F"/>
<path d="M89.5001 162.2L81.8 154.6V154.4H82.0001L89.6001 162.1V162.2H89.5001Z" fill="#22576F"/>
<path d="M82.0001 154.6L66.7001 169.9H66.6001V169.7L81.8001 154.4H82.0001V154.6Z" fill="#22576F"/>
<path d="M66.7001 169.7L74.4001 177.3V177.5H74.2001L66.6001 169.9V169.7H66.7001Z" fill="#22576F"/>
<path d="M75.3999 174.3C76.8999 175.8 78.8999 176.6 80.8999 176.6C82.8999 176.6 84.8999 175.8 86.3999 174.3C87.8999 172.8 88.7 170.8 88.7 168.8C88.7 166.8 87.8999 164.8 86.3999 163.3V163.1H86.5999C88.1999 164.7 88.9999 166.7 88.9999 168.8C88.9999 170.9 88.1999 172.9 86.5999 174.5C84.9999 176.1 82.9999 176.9 80.8999 176.9C78.7999 176.9 76.8 176.1 75.2 174.5V174.3H75.3999Z" fill="#22576F"/>
<path d="M102.9 127.5C102.7 128.4 102.5 129.4 102.5 130.3C102.5 135 105.6 139.3 110.4 140.6C111.3 140.8 112.3 141 113.2 141C117.9 141 122.2 137.9 123.5 133.1L123.7 133L123.8 133.2C122.5 138.1 118.1 141.3 113.3 141.3C112.4 141.3 111.4 141.2 110.5 140.9C105.6 139.6 102.4 135.2 102.4 130.4C102.4 129.5 102.5 128.5 102.8 127.6L103 127.5H102.9Z" fill="#22576F"/>
<path d="M105.6 128.3C105.4 129 105.3 129.7 105.3 130.3C105.3 133.7 107.6 136.9 111.1 137.8C111.8 138 112.5 138.1 113.1 138.1C116.5 138.1 119.7 135.8 120.6 132.3L120.8 132.2L120.9 132.4C119.9 136 116.7 138.4 113.1 138.4C112.4 138.4 111.7 138.3 111 138.1C107.4 137.1 105 133.9 105 130.3C105 129.6 105.1 128.9 105.3 128.2L105.5 128.1L105.6 128.3Z" fill="#22576F"/>
<path d="M120.7 132.3L123.5 121.9L123.6 121.8L123.7 121.9L120.9 132.4L120.8 132.5L120.7 132.3Z" fill="#22576F"/>
<path d="M108.4 117.8L105.6 128.3L105.5 128.4L105.4 128.2L108.2 117.8L108.4 117.7V117.8Z" fill="#22576F"/>
<path d="M123.5 133L126.3 122.6L126.4 122.5L126.5 122.7L123.7 133.1L123.6 133.2L123.5 133Z" fill="#22576F"/>
<path d="M126.4 122.8L105.5 117.2L105.4 117L105.6 116.9L126.4 122.5L126.5 122.7L126.4 122.8Z" fill="#22576F"/>
<path d="M105.7 117.1L102.9 127.5L102.7 127.6L102.6 127.5L105.4 117L105.6 116.9L105.7 117.1Z" fill="#22576F"/>
<path d="M106 126.9C105.8 127.6 105.7 128.3 105.7 128.9C105.7 132.3 108 135.5 111.5 136.4C112.2 136.6 112.9 136.7 113.5 136.7C116.9 136.7 120.1 134.4 121 130.9L121.2 130.8L121.3 131C120.3 134.6 117.1 137 113.5 137C112.8 137 112.1 136.9 111.4 136.7C107.8 135.7 105.4 132.5 105.4 128.9C105.4 128.2 105.5 127.5 105.7 126.8L105.9 126.7L106 126.9Z" fill="#22576F"/>
<path d="M16.5 75.2H13.1L13 75L13.1 74.9H16.5L16.7 75L16.5 75.2Z" fill="#22576F"/>
<path d="M16.5001 74.9L16.6001 74.8L16.7001 74.7L16.8 74.8C16.8 75 16.6001 75.2 16.4001 75.2L16.3 75.1L16.5001 74.9Z" fill="#22576F"/>
<path d="M16.7 74.4L16.6 74.3L16.5 74.2L16.6 74.1C16.8 74.1 17 74.3 17 74.5L16.9 74.6L16.7 74.4Z" fill="#22576F"/>
<path d="M16.7 74.8V74.4L16.7999 74.3L16.8999 74.4V74.8L16.7999 74.9L16.7 74.8Z" fill="#22576F"/>
<path d="M13.2 74.1L13.4 74.2L13.5 74.3L13.4 74.4C13.3 74.4 13.1 74.3 13 74.2V74L13.2 74.1Z" fill="#22576F"/>
<path d="M13.2999 75L13.0999 75.1H12.8999V74.9C12.9999 74.8 13.0999 74.7 13.2999 74.7L13.3999 74.8L13.2999 75Z" fill="#22576F"/>
<path d="M14.9999 75H13.2999L13.2 74.8L13.2999 74.7H14.9999L15.0999 74.8L14.9999 75Z" fill="#22576F"/>
<path d="M13.2999 74.2H14.9999L15.0999 74.3L14.9999 74.5H13.2999L13.2 74.3L13.2999 74.2Z" fill="#22576F"/>
<path d="M14.9999 74.6L14.8999 74.4V74.3H14.9999L15.1999 74.4V74.6H14.9999Z" fill="#22576F"/>
<path d="M15 74.7V74.5L15.1 74.4L15.2 74.5V74.7L15.1 74.8L15 74.7Z" fill="#22576F"/>
<path d="M12.8999 74H13.0999L13.2 74.1L13.0999 74.2C12.9999 74.2 12.8999 74.2 12.7999 74.1L12.7 73.9L12.8999 74Z" fill="#22576F"/>
<path d="M13.0999 75.2H12.8999L12.7 75.1L12.7999 74.9C12.8999 74.9 12.9999 74.8 13.0999 74.8L13.2 74.9L13.0999 75.2Z" fill="#22576F"/>
<path d="M13.1 74H16.5L16.7 74.1L16.5 74.2H13.1L13 74.1L13.1 74Z" fill="#22576F"/>
<path d="M12.9999 74.2C12.8999 74.1 12.6999 74 12.5999 74C12.4999 74 12.2999 74 12.1999 74.1C12.0999 74.2 11.9999 74.4 11.9999 74.5C11.9999 74.6 11.9999 74.8 12.0999 74.9C12.1999 75 12.3999 75.1 12.4999 75.1C12.5999 75.1 12.7999 75.1 12.8999 75L12.9999 75.1V75H13.1999V75.2C12.9999 75.3 12.7999 75.4 12.6999 75.4C12.4999 75.4 12.2999 75.3 12.0999 75.1C11.9999 74.9 11.8999 74.7 11.8999 74.6C11.8999 74.4 11.9999 74.2 12.1999 74C12.3999 73.9 12.5999 73.8 12.6999 73.8C12.8999 73.8 13.0999 73.9 13.2999 74.1V74.3L12.9999 74.2Z" fill="#22576F"/>
<path d="M13 74.3C12.9 74.2 12.8 74.2 12.7 74.2C12.6 74.2 12.5 74.2 12.4 74.3C12.3 74.4 12.3 74.5 12.3 74.6C12.3 74.7 12.3 74.8 12.4 74.9C12.5 75 12.6 75 12.7 75C12.8 75 12.9 75 13 74.9H13.2V75.1C13.1 75.2 12.9 75.3 12.7 75.3C12.5 75.3 12.3 75.2 12.2 75.1C12.1 75 12 74.8 12 74.6C12 74.4 12.1 74.2 12.2 74.1C12.3 74 12.5 73.9 12.7 73.9C12.9 73.9 13.1 74 13.2 74.1V74.3H13Z" fill="#22576F"/>
<path d="M14.8999 74.7L14.9999 74.6H15.1999V74.8L14.9999 74.9H14.8999V74.7Z" fill="#22576F"/>
<path d="M23.4001 67.3H24.8L24.9001 67.4L24.8 67.5H23.4001L23.3 67.4L23.4001 67.3Z" fill="#22576F"/>
<path d="M24.8 81.9H23.4001L23.3 81.8L23.4001 81.7H24.8L24.9001 81.8L24.8 81.9Z" fill="#22576F"/>
<path d="M24.2 79.8C24.4 79.8 24.6 79.6 24.6 79.4L24.7 79.3L24.8 79.4C24.8 79.8 24.5 80 24.1 80L24 79.9L24.2 79.8Z" fill="#22576F"/>
<path d="M17.0001 78.6C19.3001 79.3 21.8001 79.7 24.2001 79.8L24.3 79.9L24.2001 80C21.7001 79.9 19.3001 79.5 16.9001 78.8L16.8 78.6H17.0001Z" fill="#22576F"/>
<path d="M17.0001 70.5C15.4001 71 14.2001 72.4 14.0001 74.1L13.9001 74.2L13.8 74.1C14 72.3 15.2001 70.8 16.9001 70.3L17.1001 70.4L17.0001 70.5Z" fill="#22576F"/>
<path d="M14.0001 75C14.2001 76.7 15.3001 78.1 17.0001 78.6L17.1001 78.8L16.9001 78.9C15.2001 78.4 13.9 76.9 13.8 75.1L13.9001 75H14.0001Z" fill="#22576F"/>
<path d="M24.2001 69.3C21.7001 69.4 19.3001 69.8 17.0001 70.5L16.8 70.4L16.9001 70.2C19.3001 69.5 21.7001 69.1 24.2001 69L24.3 69.1L24.2001 69.3Z" fill="#22576F"/>
<path d="M24.7 69.7C24.7 69.5 24.4999 69.3 24.2999 69.3L24.2 69.2L24.2999 69.1C24.6999 69.1 24.9999 69.4 24.9999 69.8L24.8999 69.9L24.7 69.7Z" fill="#22576F"/>
<path d="M24.8999 69.7V79.4L24.7999 79.6L24.7 79.4V69.7L24.7999 69.6L24.8999 69.7Z" fill="#22576F"/>
<path d="M7.60001 81.8V81.7H24.8C25.9 81.7 26.8 80.8 26.8 79.7V69.6C26.8 68.5 25.9 67.6 24.8 67.6H7.70001V81.9H7.60001V81.8H7.5V67.4V67.3H7.60001H24.8C26.1 67.3 27.1 68.3 27.1 69.6V79.7C27.1 81 26.1 82 24.8 82H7.60001V81.8Z" fill="#22576F"/>
<path d="M15.2 74C15 74 14.9 74.1 14.7 74.2H14.5V74C14.7 73.8 14.9 73.7 15.1 73.7L15.2 73.8V74Z" fill="#22576F"/>
<path d="M14.7999 75C14.8999 75.1 15.0999 75.2 15.2999 75.2L15.3999 75.3L15.2999 75.4C15.0999 75.4 14.8 75.3 14.7 75.1V74.9L14.7999 75Z" fill="#22576F"/>
<path d="M15.2 75.2C15.4 75.2 15.5 75.1 15.7 75H15.8999V75.2C15.6999 75.4 15.4999 75.5 15.2999 75.5L15.2 75.4V75.2Z" fill="#22576F"/>
<path d="M15.7001 74.2C15.6001 74.1 15.4001 74 15.2001 74L15.1001 73.9L15.2001 73.8C15.4001 73.8 15.7001 73.9 15.8001 74.1V74.3L15.7001 74.2Z" fill="#22576F"/>
<path d="M23.7 79.4C23.8 79.4 23.9 79.3 23.9 79.2L24 79.1L24.1 79.2C24.1 79.5 23.9 79.7 23.6 79.7L23.5 79.6L23.7 79.4Z" fill="#22576F"/>
<path d="M18.1 78.9C19.6 79.2 21.1 79.4 22.6 79.4C23 79.4 23.3 79.4 23.7 79.4L23.8 79.5L23.7 79.6C23.3 79.6 23 79.6 22.6 79.6C21.1 79.6 19.6 79.4 18.1 79.1L18 79L18.1 78.9Z" fill="#22576F"/>
<path d="M16.9999 70.5C16.8999 70.5 16.7999 70.6 16.5999 70.6L16.3999 70.5L16.4999 70.3C16.5999 70.3 16.7999 70.2 16.8999 70.2L17.0999 70.3L16.9999 70.5Z" fill="#22576F"/>
<path d="M16.7 78.5C16.8 78.5 16.9 78.6 17.1 78.6L17.2 78.8L17 78.9C16.9 78.9 16.7 78.8 16.6 78.8L16.5 78.6L16.7 78.5Z" fill="#22576F"/>
<path d="M23.7 69.8C23.3 69.8 23 69.8 22.6 69.8C21.1 69.8 19.6 70 18.1 70.3L18 70.2L18.1 70.1C19.6 69.8 21.1 69.6 22.6 69.6C23 69.6 23.3 69.6 23.7 69.6L23.8 69.7L23.7 69.8Z" fill="#22576F"/>
<path d="M23.9001 70C23.9001 69.9 23.8001 69.8 23.7001 69.8L23.6001 69.7L23.7001 69.6C24.0001 69.6 24.2001 69.8 24.2001 70.1L24.1001 70.2L23.9001 70Z" fill="#22576F"/>
<path d="M23.8999 79.2V70L24.0999 69.9L24.1999 70V79.2L24.0999 79.3L23.8999 79.2Z" fill="#22576F"/>
<path d="M18.3001 38C19.2001 38.3 20.2001 38.4 21.1001 38.4L21.2001 38.5L21.1001 38.6C20.1001 38.6 19.2001 38.5 18.2001 38.2L18.1001 38H18.3001Z" fill="#22576F"/>
<path d="M16.0999 36.9C16.7999 37.4 17.4999 37.7 18.2999 38L18.3999 38.2L18.1999 38.3C17.3999 38.1 16.5999 37.7 15.8999 37.2V37L16.0999 36.9Z" fill="#22576F"/>
<path d="M15.3999 36.3C15.5999 36.5 15.7999 36.7 16.0999 36.9V37.1H15.8999C15.6999 36.9 15.4 36.7 15.2 36.5V36.3H15.3999Z" fill="#22576F"/>
<path d="M21.0999 38.4C22.0999 38.4 22.9999 38.3 23.8999 38C24.6999 37.8 25.3999 37.4 26.0999 36.9C26.6999 36.4 27.3 35.8 27.7 35.2C28 34.6 28.2 34 28.2 33.4C28.2 32.8 28 32.1 27.7 31.6C27.3 30.9 26.7999 30.3 26.0999 29.9C25.3999 29.4 24.6999 29.1 23.8999 28.8C22.9999 28.5 21.9999 28.4 21.0999 28.4C20.0999 28.4 19.1999 28.5 18.2999 28.8C17.4999 29 16.7999 29.4 16.0999 29.9C15.8999 30.1 15.5999 30.3 15.3999 30.5L15.2999 30.4H15.3999V36.6L15.2999 36.7L15.2 36.6V30.4V30.3C15.4 30.1 15.5999 29.9 15.8999 29.7C16.5999 29.2 17.4 28.8 18.2 28.6C19.1 28.3 20.0999 28.2 21.0999 28.2C22.0999 28.2 22.9999 28.3 23.9999 28.6C24.7999 28.8 25.5999 29.2 26.2999 29.7C26.9999 30.2 27.4999 30.8 27.8999 31.5C28.1999 32.1 28.3999 32.8 28.3999 33.4C28.3999 34.1 28.1999 34.8 27.8999 35.3C27.4999 36 26.8999 36.6 26.2999 37.1C25.5999 37.6 24.7999 38 23.9999 38.2C23.0999 38.5 22.0999 38.6 21.0999 38.6L20.9999 38.5L21.0999 38.4Z" fill="#22576F"/>
<path d="M12.1001 37.2C14.4001 37.3 16.7001 37.6 19.0001 38.1L19.1001 38.2L19.0001 38.3C16.7001 37.9 14.5001 37.6 12.2001 37.4L12.1001 37.3V37.2Z" fill="#22576F"/>
<path d="M12.9001 31.3H12.8001C12.7001 30.8 12.5001 30.3 12.3001 29.8C12.0001 29.3 11.7001 28.8 11.2001 28.5C11.1001 28.4 10.9001 28.4 10.8001 28.4H10.7001L8.6001 28.8L8.50009 29V37.7L8.6001 37.9L10.7001 38.3H10.8001C11.0001 38.3 11.1001 38.3 11.2001 38.2C11.7001 37.9 12.1001 37.4 12.3001 36.9C12.5001 36.4 12.7001 35.9 12.8001 35.4C12.9001 34.7 13.0001 34.1 13.0001 33.4C13.0001 32.7 12.9001 32.1 12.8001 31.4L12.9001 31.3H13.0001C13.1001 32 13.2001 32.6 13.2001 33.3C13.2001 34 13.1001 34.7 13.0001 35.3C12.9001 35.8 12.7001 36.3 12.5001 36.8C12.2001 37.4 11.8001 37.9 11.3001 38.2C11.1001 38.3 10.9001 38.4 10.7001 38.4H10.5001L8.40009 38C8.20009 38 8.1001 37.8 8.1001 37.6V29C8.1001 28.8 8.20009 28.6 8.40009 28.6L10.5001 28.2H10.7001C10.9001 28.2 11.1001 28.3 11.3001 28.4C11.8001 28.8 12.2001 29.3 12.5001 29.8C12.7001 30.3 12.9001 30.8 13.0001 31.3H12.9001Z" fill="#22576F"/>
<path d="M12.0001 29.1C14.3001 29 16.6 28.7 18.8 28.2L18.9001 28.3L18.8 28.4C16.5 28.8 14.2001 29.1 11.9001 29.3L11.8 29.2L12.0001 29.1Z" fill="#22576F"/>
<path d="M10.2999 33.3H10.2C10.2 32.9 10.4999 32.6 10.8999 32.6C11.2999 32.6 11.5999 32.9 11.5999 33.3C11.5999 33.7 11.2999 34 10.8999 34C10.4999 34 10.2 33.7 10.2 33.3H10.2999H10.3999C10.3999 33.5 10.5999 33.7 10.7999 33.7C10.9999 33.7 11.2 33.5 11.2 33.3C11.2 33.1 10.9999 32.9 10.7999 32.9C10.5999 32.9 10.3999 33.1 10.3999 33.3H10.2999Z" fill="#22576F"/>
<path d="M180.3 268.6H180.2V261.8L0.999908 238L0.899902 237.8V232L0.999908 231.9H1.09991L186.1 256.6L186.2 256.7V268.6V268.7H186.1H180.3H180.2V268.6H180.3V268.5H186V256.8L1.19992 232.2V237.7L180.4 261.6L180.5 261.7V268.6H180.3V268.5V268.6Z" fill="#22576F"/>
<path d="M240 268.6V268.7H234.2H234.1V268.6V232V231.9H234.2L240 232.7L240.1 232.8V268.6V268.7H240V268.6H239.9V232.9L234.3 232.2V268.5H240V268.6H239.9H240Z" fill="#22576F"/>
<path d="M232 116.7H200.3L200.2 116.5L200.3 116.4H232L232.1 116.5L232 116.7Z" fill="#22576F"/>
<path d="M7.60001 100.9H58.5L58.6 101L58.5 101.2H7.60001L7.5 101L7.60001 100.9Z" fill="#22576F"/>
<path d="M12.4999 222.2V222.3H0.999908H0.899902V222.2V11V10.9H0.999908H202.4H202.5V11V12.5H203.8H203.9V12.6V16.2V16.3H203.8H202.5V19.7V19.8H202.4H178.3V21.2L178.2 21.3L178.1 21.4H174.8L174.7 21.3V21.2V19.8H64.6999V45.4H66.3999H66.4999V45.5V54V54.1H66.3999H61.8999V56.9L61.7999 57H58.4999L58.3999 56.9H58.2999V21.5H7.69992V87.5H58.2999V81.3L58.3999 81.2H58.4999H61.7999H61.8999V81.3V111.6L61.7999 111.7H50.2999L50.1999 111.6H50.0999V108.2L50.1999 108.1H50.2999H58.2999V91.1H7.69992V108.1H15.6999H15.7999V108.2V111.6L15.6999 111.7H7.69992V185.7H13.2999H13.3999V185.8V189.8V189.9L13.2999 190H12.6999V222.2L12.5999 222.3H12.4999V222.2H12.3999V189.8L12.4999 189.7H13.1999V185.9H7.59991H7.49991V185.8V111.6V111.5L7.59991 111.4H15.5999V108.3H7.59991H7.49991V108.2V91V90.9L7.59991 90.8H58.4999L58.5999 90.9V91V108.2V108.3H58.4999H50.3999V111.4H61.6999V81.5H58.5999V87.6V87.7H58.4999H7.59991H7.49991V87.6V21.4V21.3H7.59991H58.4999H58.5999V21.4V56.7H61.6999V54V53.9H61.7999H66.2999V45.7H64.5999L64.4999 45.6V45.5V19.7V19.6H64.5999H174.8H174.9V19.7V21.1H178V19.7V19.6H178.1H202.3V16.2V16.1H202.4H203.7V12.7H202.4H202.3V12.6V11.1H1.19992V222.1H12.4999V222.2H12.3999H12.4999Z" fill="#22576F"/>
<path d="M70.8999 185.8H70.9999V189.7H71.5999H71.7V189.8V192.9H186V172.9V172.8H186.1H186.7V169H178.9V180.2V180.3H178.8H109.8V185.8V185.9H109.7H70.8999V185.8H70.9999H70.8999V185.7H109.6V180.2V180.1H109.7H178.7V168.9V168.8L178.8 168.7H186.8L186.9 168.8V168.9V172.9V173H186.8H186.2V193.1V193.2H186.1H71.5999H71.4999L71.3999 193.1V190H70.7999V189.9L70.7 189.8V185.8L70.8999 185.7V185.8Z" fill="#22576F"/>
<path d="M204.1 168.9V169H199.9V177.2H204V168.9H204.1V169V168.9H204.2V177.3V177.4H204.1H199.8H199.7L199.6 177.3V168.9L199.7 168.8L199.8 168.7H204.1L204.2 168.8V168.9H204.1Z" fill="#22576F"/>
<path d="M230 168.9H230.1V177.2H234.2H234.3V177.3V222.1H240.7V11.1H229.9V12.6L229.8 12.7H229.7H228.4V16.1H229.7H229.8L229.9 16.2V19.6H232H232.1V19.7V106V106.1H232H229.2V109.2H232L232.1 109.3V109.4V126.6V126.7H232H200.3H200.2V126.6V109.4V109.3L200.3 109.2H203.1V106.1H200.3H200.2V106V103.6H194.3V132.6H232L232.1 132.7V168.9V169H232H230V168.9H230.1H230V168.7H231.8V132.9H194.2L194.1 132.8V132.7V103.5V103.4H194.2H200.3H200.4V103.5V105.9H203.2H203.3V106V109.4L203.2 109.5H200.4V126.5H231.8V109.5H229.1L229 109.4V106V105.9H229.1H231.8V19.8H229.7H229.6V19.7V16.3H228.3H228.2V16.2V12.6V12.5H228.3H229.6V11V10.9H229.7H240.8H240.9V11V222.2V222.3H240.8H234.2H234.1V222.2V177.4H230H229.9V177.3V168.9V168.8L230 168.7V168.9Z" fill="#22576F"/>
<path d="M87.9999 45.5H88.0999V53.9H194.2H194.3V54V78.9H200.2V45.7H178.1L178 45.6V45.5V44.4H174.9V45.5V45.6L174.8 45.7H87.9999V45.5H88.0999H87.9999V45.4H174.7V44.3V44.2L174.8 44.1H178.1L178.2 44.2L178.3 44.3V45.4H200.3H200.4V45.5V79V79.1L200.3 79.2H194.2L194.1 79.1V79V54.1H87.9999H87.8999V54V45.5V45.4H87.9999V45.5Z" fill="#22576F"/>
<path d="M149.9 32.6C149.9 31.7 150.6 31 151.5 31C152.4 31 153.1 31.7 153.1 32.6C153.1 33.5 152.4 34.2 151.5 34.2C150.6 34.2 149.9 33.5 149.9 32.6L150 32.5H151.4H151.5V32.6V32.7H151.4H115.4L115.3 32.6L115.4 32.5L119 31.2H119.1L119.2 31.3V32.6L119.1 32.7L119 32.6V31.5L116.2 32.5H151.5H151.6V32.6V32.7H151.5H150V32.6H150.1C150.1 33.3 150.7 33.9 151.4 33.9C152.1 33.9 152.7 33.3 152.7 32.6C152.7 31.9 152.1 31.3 151.4 31.3C150.7 31.3 150.1 31.9 150.1 32.6L150 32.7L149.9 32.6Z" fill="#22576F"/>
<path d="M230 177.4H204.1L204 177.3L204.1 177.2H230L230.1 177.3L230 177.4Z" fill="#22576F"/>
<path d="M230 169H204.1L204 168.9L204.1 168.7H230L230.1 168.9L230 169Z" fill="#22576F"/>
<path d="M228.3 16.3H203.8L203.7 16.2L203.8 16.1H228.3L228.4 16.2L228.3 16.3Z" fill="#22576F"/>
<path d="M228.3 12.7H203.8L203.7 12.6L203.8 12.5H228.3L228.4 12.6L228.3 12.7Z" fill="#22576F"/>
<path d="M112.411 217.231C112.411 217.4 112.378 217.549 112.313 217.677C112.247 217.805 112.158 217.912 112.045 217.998C111.935 218.085 111.806 218.15 111.657 218.195C111.508 218.236 111.35 218.257 111.184 218.257H110.425V219.36H110.073V216.236H111.242C111.417 216.236 111.577 216.26 111.719 216.307C111.865 216.352 111.989 216.417 112.09 216.504C112.194 216.587 112.273 216.691 112.326 216.816C112.383 216.938 112.411 217.076 112.411 217.231ZM112.054 217.244C112.054 217.018 111.977 216.849 111.822 216.736C111.67 216.62 111.468 216.562 111.215 216.562H110.425V217.936H111.197C111.325 217.936 111.441 217.92 111.545 217.887C111.652 217.854 111.743 217.808 111.817 217.749C111.895 217.686 111.953 217.613 111.992 217.53C112.033 217.444 112.054 217.348 112.054 217.244ZM114.226 216.213L115.649 219.36H115.27L114.904 218.534H113.204L112.833 219.36H112.472L113.895 216.213H114.226ZM114.766 218.217L114.056 216.624L113.342 218.217H114.766ZM117.047 216.562V219.36H116.69V216.562H115.641V216.236H118.096V216.562H117.047ZM118.789 216.236H119.142V219.36H118.789V216.236ZM123.105 217.793C123.105 218.01 123.066 218.217 122.988 218.413C122.911 218.607 122.803 218.778 122.663 218.927C122.523 219.075 122.355 219.194 122.158 219.284C121.962 219.37 121.745 219.413 121.507 219.413C121.269 219.413 121.052 219.37 120.855 219.284C120.662 219.197 120.495 219.081 120.356 218.936C120.216 218.787 120.107 218.616 120.03 218.422C119.955 218.226 119.918 218.019 119.918 217.802C119.918 217.585 119.957 217.38 120.034 217.186C120.112 216.99 120.22 216.817 120.36 216.669C120.5 216.52 120.668 216.402 120.864 216.316C121.061 216.227 121.278 216.182 121.516 216.182C121.754 216.182 121.97 216.225 122.163 216.312C122.359 216.398 122.527 216.515 122.667 216.664C122.807 216.81 122.914 216.981 122.988 217.177C123.066 217.371 123.105 217.576 123.105 217.793ZM122.739 217.802C122.739 217.624 122.707 217.456 122.645 217.298C122.585 217.14 122.501 217.003 122.391 216.887C122.28 216.771 122.15 216.679 121.998 216.611C121.849 216.542 121.685 216.508 121.507 216.508C121.328 216.508 121.163 216.542 121.012 216.611C120.863 216.676 120.735 216.767 120.628 216.883C120.521 216.999 120.436 217.136 120.373 217.293C120.314 217.448 120.284 217.615 120.284 217.793C120.284 217.972 120.314 218.14 120.373 218.297C120.436 218.455 120.522 218.592 120.632 218.708C120.742 218.824 120.872 218.916 121.021 218.985C121.172 219.053 121.337 219.087 121.516 219.087C121.694 219.087 121.858 219.055 122.007 218.989C122.158 218.921 122.288 218.828 122.395 218.712C122.502 218.596 122.585 218.461 122.645 218.306C122.707 218.149 122.739 217.981 122.739 217.802Z" fill="#22576F"/>
<path d="M24.0663 54.0595C24.0663 54.2291 24.0335 54.3778 23.9681 54.5057C23.9026 54.6337 23.8134 54.7408 23.7003 54.827C23.5903 54.9133 23.4609 54.9788 23.3121 55.0234C23.1634 55.065 23.0057 55.0859 22.8391 55.0859H22.0805V56.1881H21.7279V53.0644H22.8971C23.0726 53.0644 23.2318 53.0882 23.3746 53.1358C23.5204 53.1804 23.6438 53.2458 23.745 53.3321C23.8491 53.4154 23.9279 53.5195 23.9815 53.6445C24.038 53.7665 24.0663 53.9048 24.0663 54.0595ZM23.7093 54.0729C23.7093 53.8468 23.6319 53.6772 23.4772 53.5642C23.3255 53.4481 23.1232 53.3901 22.8703 53.3901H22.0805V54.7646H22.8525C22.9804 54.7646 23.0964 54.7482 23.2005 54.7155C23.3076 54.6828 23.3984 54.6366 23.4728 54.5771C23.5501 54.5147 23.6081 54.4418 23.6468 54.3585C23.6884 54.2722 23.7093 54.177 23.7093 54.0729ZM27.7566 54.6218C27.7566 54.8389 27.7179 55.0457 27.6406 55.2421C27.5632 55.4354 27.4547 55.6065 27.3148 55.7552C27.175 55.904 27.0069 56.023 26.8106 56.1122C26.6142 56.1985 26.397 56.2417 26.159 56.2417C25.921 56.2417 25.7039 56.1985 25.5075 56.1122C25.3141 56.026 25.1475 55.9099 25.0077 55.7642C24.8679 55.6154 24.7593 55.4444 24.682 55.251C24.6076 55.0546 24.5704 54.8479 24.5704 54.6307C24.5704 54.4135 24.6091 54.2082 24.6864 54.0149C24.7638 53.8185 24.8724 53.646 25.0122 53.4972C25.152 53.3485 25.3201 53.231 25.5164 53.1447C25.7128 53.0554 25.93 53.0108 26.168 53.0108C26.406 53.0108 26.6217 53.0539 26.815 53.1402C27.0114 53.2265 27.1795 53.344 27.3193 53.4928C27.4591 53.6385 27.5662 53.8096 27.6406 54.0059C27.7179 54.1993 27.7566 54.4046 27.7566 54.6218ZM27.3907 54.6307C27.3907 54.4522 27.3595 54.2841 27.297 54.1264C27.2375 53.9688 27.1527 53.8319 27.0426 53.7159C26.9325 53.5999 26.8016 53.5076 26.6499 53.4392C26.5012 53.3708 26.3375 53.3366 26.159 53.3366C25.9805 53.3366 25.8154 53.3708 25.6637 53.4392C25.515 53.5047 25.387 53.5954 25.2799 53.7114C25.1728 53.8274 25.088 53.9643 25.0256 54.122C24.9661 54.2767 24.9363 54.4433 24.9363 54.6218C24.9363 54.8003 24.9661 54.9684 25.0256 55.126C25.088 55.2837 25.1743 55.4206 25.2844 55.5366C25.3945 55.6526 25.5239 55.7448 25.6726 55.8133C25.8244 55.8817 25.9895 55.9159 26.168 55.9159C26.3465 55.9159 26.5101 55.8832 26.6588 55.8177C26.8106 55.7493 26.94 55.6571 27.0471 55.541C27.1542 55.425 27.2375 55.2897 27.297 55.135C27.3595 54.9773 27.3907 54.8092 27.3907 54.6307ZM29.3742 55.666L30.231 53.0554H30.521L31.3778 55.666L32.2703 53.0644H32.6407L31.5251 56.2104H31.2261L30.3693 53.6757L29.508 56.2104H29.2135L28.0979 53.0644H28.4817L29.3742 55.666ZM36.0252 54.6218C36.0252 54.8419 35.985 55.0487 35.9047 55.2421C35.8244 55.4325 35.7098 55.5976 35.5611 55.7374C35.4153 55.8772 35.2398 55.9873 35.0345 56.0676C34.8322 56.1479 34.6091 56.1881 34.3651 56.1881H33.2807V53.0644H34.3651C34.6091 53.0644 34.8322 53.1045 35.0345 53.1848C35.2398 53.2622 35.4153 53.3708 35.5611 53.5106C35.7098 53.6504 35.8244 53.8155 35.9047 54.0059C35.985 54.1963 36.0252 54.4016 36.0252 54.6218ZM35.6593 54.6307C35.6593 54.4581 35.628 54.296 35.5655 54.1443C35.506 53.9926 35.4198 53.8617 35.3067 53.7516C35.1966 53.6385 35.0613 53.5508 34.9006 53.4883C34.74 53.4228 34.5615 53.3901 34.3651 53.3901H33.6333V55.8623H34.3651C34.5615 55.8623 34.74 55.8311 34.9006 55.7686C35.0613 55.7062 35.1966 55.6199 35.3067 55.5098C35.4198 55.3968 35.506 55.2659 35.5655 55.1171C35.628 54.9684 35.6593 54.8062 35.6593 54.6307ZM39.0295 53.0644V53.3857H37.124V54.4522H38.8286V54.7735H37.124V55.8668H39.0518V56.1881H36.7714V53.0644H39.0295ZM42.3447 56.1881H41.9119L41.006 54.9743H40.1135V56.1881H39.761V53.0644H41.1042C41.2767 53.0644 41.4314 53.0867 41.5683 53.1313C41.7081 53.1759 41.8271 53.2399 41.9253 53.3232C42.0234 53.4035 42.0993 53.5017 42.1529 53.6177C42.2064 53.7308 42.2332 53.8572 42.2332 53.997C42.2332 54.1279 42.2124 54.2454 42.1707 54.3496C42.1291 54.4507 42.0696 54.54 41.9922 54.6173C41.9178 54.6917 41.8286 54.7542 41.7245 54.8047C41.6203 54.8553 41.5073 54.891 41.3853 54.9118L42.3447 56.1881ZM41.8762 54.0104C41.8762 53.8141 41.8063 53.6623 41.6664 53.5552C41.5266 53.4452 41.3303 53.3901 41.0774 53.3901H40.1135V54.6575H41.0729C41.189 54.6575 41.2961 54.6426 41.3942 54.6128C41.4924 54.5831 41.5772 54.5414 41.6486 54.4879C41.72 54.4314 41.775 54.3629 41.8137 54.2826C41.8554 54.2023 41.8762 54.1116 41.8762 54.0104Z" fill="#22576F"/>
<path d="M74.4347 30.9708C74.4347 31.0452 74.4466 31.1121 74.4704 31.1716C74.4942 31.2311 74.5373 31.2861 74.5998 31.3367C74.6623 31.3843 74.7486 31.4289 74.8586 31.4706C74.9687 31.5093 75.11 31.5464 75.2826 31.5821C75.6307 31.6595 75.8865 31.7666 76.0501 31.9034C76.2167 32.0403 76.3 32.2292 76.3 32.4702C76.3 32.6041 76.2733 32.726 76.2197 32.8361C76.1662 32.9462 76.0918 33.0399 75.9966 33.1172C75.9044 33.1946 75.7928 33.2541 75.6619 33.2957C75.531 33.3374 75.3882 33.3582 75.2335 33.3582C74.9836 33.3582 74.7545 33.3181 74.5463 33.2377C74.341 33.1544 74.1446 33.028 73.9572 32.8584L74.1759 32.5996C74.3395 32.7483 74.5046 32.8599 74.6712 32.9343C74.8378 33.0057 75.0297 33.0414 75.2469 33.0414C75.4581 33.0414 75.6262 32.9923 75.7511 32.8941C75.8791 32.7959 75.943 32.6665 75.943 32.5059C75.943 32.4315 75.9311 32.3661 75.9073 32.3095C75.8835 32.25 75.8419 32.1965 75.7824 32.1489C75.7229 32.1013 75.6396 32.0581 75.5325 32.0195C75.4284 31.9808 75.2945 31.9436 75.1309 31.9079C74.9524 31.8692 74.7962 31.8246 74.6623 31.774C74.5314 31.7235 74.4228 31.6625 74.3365 31.5911C74.2503 31.5197 74.1863 31.4364 74.1446 31.3412C74.103 31.246 74.0822 31.1329 74.0822 31.002C74.0822 30.8771 74.1075 30.7625 74.158 30.6584C74.2086 30.5543 74.28 30.465 74.3722 30.3907C74.4645 30.3133 74.573 30.2538 74.698 30.2122C74.8229 30.1675 74.9598 30.1452 75.1085 30.1452C75.3376 30.1452 75.5369 30.1779 75.7065 30.2434C75.8791 30.3059 76.0457 30.4011 76.2063 30.529L76.001 30.8012C75.8553 30.6822 75.708 30.5959 75.5593 30.5424C75.4135 30.4888 75.2603 30.4621 75.0996 30.4621C74.9985 30.4621 74.9062 30.4754 74.8229 30.5022C74.7426 30.529 74.6727 30.5647 74.6132 30.6093C74.5567 30.6539 74.5121 30.7075 74.4793 30.77C74.4496 30.8324 74.4347 30.8994 74.4347 30.9708ZM78.1341 30.5156V33.3136H77.7771V30.5156H76.7284V30.1898H79.1828V30.5156H78.1341ZM82.6796 31.7473C82.6796 31.9644 82.6409 32.1712 82.5635 32.3675C82.4862 32.5609 82.3776 32.732 82.2378 32.8807C82.0979 33.0295 81.9299 33.1485 81.7335 33.2377C81.5372 33.324 81.32 33.3671 81.082 33.3671C80.844 33.3671 80.6268 33.324 80.4305 33.2377C80.2371 33.1515 80.0705 33.0354 79.9307 32.8897C79.7908 32.7409 79.6822 32.5698 79.6049 32.3765C79.5305 32.1801 79.4933 31.9734 79.4933 31.7562C79.4933 31.539 79.532 31.3337 79.6094 31.1404C79.6867 30.944 79.7953 30.7715 79.9351 30.6227C80.0749 30.474 80.243 30.3564 80.4394 30.2702C80.6357 30.1809 80.8529 30.1363 81.0909 30.1363C81.3289 30.1363 81.5446 30.1794 81.738 30.2657C81.9343 30.352 82.1024 30.4695 82.2422 30.6182C82.3821 30.764 82.4892 30.9351 82.5635 31.1314C82.6409 31.3248 82.6796 31.5301 82.6796 31.7473ZM82.3136 31.7562C82.3136 31.5777 82.2824 31.4096 82.2199 31.2519C82.1604 31.0942 82.0756 30.9574 81.9656 30.8414C81.8555 30.7253 81.7246 30.6331 81.5729 30.5647C81.4241 30.4963 81.2605 30.4621 81.082 30.4621C80.9035 30.4621 80.7384 30.4963 80.5866 30.5647C80.4379 30.6301 80.31 30.7209 80.2029 30.8369C80.0958 30.9529 80.011 31.0898 79.9485 31.2475C79.889 31.4022 79.8593 31.5688 79.8593 31.7473C79.8593 31.9258 79.889 32.0938 79.9485 32.2515C80.011 32.4092 80.0973 32.546 80.2073 32.6621C80.3174 32.7781 80.4468 32.8703 80.5956 32.9387C80.7473 33.0072 80.9124 33.0414 81.0909 33.0414C81.2694 33.0414 81.433 33.0087 81.5818 32.9432C81.7335 32.8748 81.8629 32.7826 81.97 32.6665C82.0771 32.5505 82.1604 32.4151 82.2199 32.2604C82.2824 32.1028 82.3136 31.9347 82.3136 31.7562ZM86.0068 33.3136H85.574L84.6681 32.0998H83.7756V33.3136H83.423V30.1898H84.7663C84.9388 30.1898 85.0935 30.2122 85.2304 30.2568C85.3702 30.3014 85.4892 30.3654 85.5874 30.4487C85.6855 30.529 85.7614 30.6272 85.8149 30.7432C85.8685 30.8562 85.8953 30.9827 85.8953 31.1225C85.8953 31.2534 85.8745 31.3709 85.8328 31.475C85.7911 31.5762 85.7316 31.6654 85.6543 31.7428C85.5799 31.8172 85.4907 31.8796 85.3865 31.9302C85.2824 31.9808 85.1694 32.0165 85.0474 32.0373L86.0068 33.3136ZM85.5383 31.1359C85.5383 30.9395 85.4684 30.7878 85.3285 30.6807C85.1887 30.5706 84.9924 30.5156 84.7395 30.5156H83.7756V31.783H84.735C84.851 31.783 84.9581 31.7681 85.0563 31.7383C85.1545 31.7086 85.2393 31.6669 85.3107 31.6134C85.3821 31.5569 85.4371 31.4884 85.4758 31.4081C85.5174 31.3278 85.5383 31.237 85.5383 31.1359ZM88.1339 30.1675L89.5575 33.3136H89.1781L88.8122 32.488H87.112L86.7416 33.3136H86.3802L87.8037 30.1675H88.1339ZM88.6739 32.1712L87.9643 30.5781L87.2503 32.1712H88.6739ZM92.6947 32.8897C92.5489 33.0206 92.3689 33.1336 92.1547 33.2288C91.9435 33.321 91.7055 33.3671 91.4407 33.3671C91.1938 33.3671 90.9722 33.3255 90.7758 33.2422C90.5824 33.1589 90.4158 33.0444 90.276 32.8986C90.1392 32.7528 90.0336 32.5817 89.9592 32.3854C89.8878 32.189 89.8521 31.9793 89.8521 31.7562C89.8521 31.542 89.8893 31.3367 89.9636 31.1404C90.041 30.944 90.1481 30.7715 90.2849 30.6227C90.4218 30.474 90.5854 30.3564 90.7758 30.2702C90.9692 30.1809 91.1834 30.1363 91.4184 30.1363C91.5493 30.1363 91.6683 30.1452 91.7754 30.1631C91.8855 30.1809 91.9866 30.2077 92.0789 30.2434C92.1741 30.2791 92.2618 30.3237 92.3422 30.3773C92.4255 30.4278 92.5058 30.4859 92.5831 30.5513L92.3555 30.8191C92.296 30.7655 92.2336 30.7179 92.1681 30.6763C92.1027 30.6316 92.0313 30.5944 91.9539 30.5647C91.8795 30.532 91.7962 30.5067 91.704 30.4888C91.6148 30.471 91.5151 30.4621 91.405 30.4621C91.2325 30.4621 91.0733 30.4963 90.9275 30.5647C90.7818 30.6331 90.6568 30.7253 90.5527 30.8414C90.4486 30.9574 90.3668 31.0942 90.3073 31.2519C90.2478 31.4066 90.218 31.5717 90.218 31.7473C90.218 31.9347 90.2463 32.1087 90.3028 32.2694C90.3623 32.427 90.4456 32.5639 90.5527 32.6799C90.6598 32.7959 90.7892 32.8867 90.9409 32.9521C91.0927 33.0176 91.2637 33.0503 91.4541 33.0503C91.6326 33.0503 91.8007 33.0206 91.9584 32.9611C92.1161 32.8986 92.2484 32.8242 92.3555 32.7379V31.9615H91.405V31.6446H92.6947V32.8897ZM95.7478 30.1898V30.5111H93.8424V31.5777H95.547V31.899H93.8424V32.9923H95.7702V33.3136H93.4898V30.1898H95.7478Z" fill="#22576F"/>
<path d="M125.918 98.7871L126.775 96.1765H127.065L127.922 98.7871L128.815 96.1855H129.185L128.069 99.3315H127.77L126.914 96.7968L126.052 99.3315H125.758L124.642 96.1855H125.026L125.918 98.7871ZM132.712 97.7429C132.712 97.96 132.673 98.1668 132.596 98.3632C132.518 98.5565 132.41 98.7276 132.27 98.8763C132.13 99.0251 131.962 99.1441 131.766 99.2333C131.569 99.3196 131.352 99.3628 131.114 99.3628C130.876 99.3628 130.659 99.3196 130.463 99.2333C130.269 99.1471 130.103 99.031 129.963 98.8853C129.823 98.7365 129.714 98.5655 129.637 98.3721C129.563 98.1757 129.525 97.969 129.525 97.7518C129.525 97.5346 129.564 97.3293 129.642 97.136C129.719 96.9396 129.827 96.7671 129.967 96.6183C130.107 96.4696 130.275 96.3521 130.472 96.2658C130.668 96.1765 130.885 96.1319 131.123 96.1319C131.361 96.1319 131.577 96.175 131.77 96.2613C131.966 96.3476 132.135 96.4651 132.274 96.6139C132.414 96.7596 132.521 96.9307 132.596 97.127C132.673 97.3204 132.712 97.5257 132.712 97.7429ZM132.346 97.7518C132.346 97.5733 132.315 97.4052 132.252 97.2475C132.193 97.0899 132.108 96.953 131.998 96.837C131.888 96.721 131.757 96.6287 131.605 96.5603C131.456 96.4919 131.293 96.4577 131.114 96.4577C130.936 96.4577 130.771 96.4919 130.619 96.5603C130.47 96.6258 130.342 96.7165 130.235 96.8325C130.128 96.9485 130.043 97.0854 129.981 97.2431C129.921 97.3978 129.891 97.5644 129.891 97.7429C129.891 97.9214 129.921 98.0895 129.981 98.2471C130.043 98.4048 130.129 98.5417 130.239 98.6577C130.35 98.7737 130.479 98.8659 130.628 98.9344C130.779 99.0028 130.945 99.037 131.123 99.037C131.302 99.037 131.465 99.0043 131.614 98.9388C131.766 98.8704 131.895 98.7782 132.002 98.6621C132.109 98.5461 132.193 98.4108 132.252 98.2561C132.315 98.0984 132.346 97.9303 132.346 97.7518ZM136.039 99.3092H135.606L134.7 98.0954H133.808V99.3092H133.455V96.1855H134.798C134.971 96.1855 135.126 96.2078 135.263 96.2524C135.402 96.297 135.521 96.361 135.62 96.4443C135.718 96.5246 135.794 96.6228 135.847 96.7388C135.901 96.8519 135.927 96.9783 135.927 97.1181C135.927 97.249 135.907 97.3665 135.865 97.4707C135.823 97.5718 135.764 97.6611 135.686 97.7384C135.612 97.8128 135.523 97.8753 135.419 97.9258C135.315 97.9764 135.202 98.0121 135.08 98.0329L136.039 99.3092ZM135.57 97.1315C135.57 96.9352 135.501 96.7834 135.361 96.6763C135.221 96.5663 135.025 96.5112 134.772 96.5112H133.808V97.7786H134.767C134.883 97.7786 134.99 97.7637 135.088 97.7339C135.187 97.7042 135.271 97.6625 135.343 97.609C135.414 97.5525 135.469 97.484 135.508 97.4037C135.55 97.3234 135.57 97.2327 135.57 97.1315ZM137.943 97.551L139.34 99.3092H138.898L137.698 97.7964L137.033 98.4703V99.3092H136.68V96.1855H137.033V98.0508L138.827 96.1855H139.282L137.943 97.551Z" fill="#22576F"/>
<path d="M211.518 178.046V178.367H209.613V179.434H211.317V179.755H209.613V180.848H211.54V181.17H209.26V178.046H211.518ZM214.548 180.549V178.046H214.891V181.17H214.61L212.593 178.608V181.17H212.25V178.046H212.58L214.548 180.549ZM216.958 178.372V181.17H216.601V178.372H215.552V178.046H218.006V178.372H216.958ZM221.253 181.17H220.82L219.914 179.956H219.021V181.17H218.669V178.046H220.012C220.185 178.046 220.339 178.068 220.476 178.113C220.616 178.157 220.735 178.221 220.833 178.305C220.931 178.385 221.007 178.483 221.061 178.599C221.114 178.712 221.141 178.839 221.141 178.979C221.141 179.109 221.12 179.227 221.079 179.331C221.037 179.432 220.977 179.521 220.9 179.599C220.826 179.673 220.737 179.736 220.632 179.786C220.528 179.837 220.415 179.873 220.293 179.893L221.253 181.17ZM220.784 178.992C220.784 178.796 220.714 178.644 220.574 178.537C220.435 178.427 220.238 178.372 219.985 178.372H219.021V179.639H219.981C220.097 179.639 220.204 179.624 220.302 179.594C220.4 179.565 220.485 179.523 220.557 179.469C220.628 179.413 220.683 179.344 220.722 179.264C220.763 179.184 220.784 179.093 220.784 178.992ZM223.115 179.929V181.17H222.758V179.934L221.459 178.046H221.888L222.941 179.608L224.003 178.046H224.413L223.115 179.929Z" fill="#22576F"/>
<path d="M211.416 0.103453V0.424753H209.51V1.49129H211.215V1.81259H209.51V2.9059H211.438V3.2272H209.158V0.103453H211.416ZM214.445 2.60692V0.103453H214.789V3.2272H214.508L212.491 0.665728V3.2272H212.147V0.103453H212.477L214.445 2.60692ZM216.855 0.429216V3.2272H216.498V0.429216H215.45V0.103453H217.904V0.429216H216.855ZM221.15 3.2272H220.717L219.811 2.0134H218.919V3.2272H218.566V0.103453H219.91C220.082 0.103453 220.237 0.125766 220.374 0.170391C220.513 0.215016 220.632 0.278978 220.731 0.362278C220.829 0.442603 220.905 0.540778 220.958 0.656803C221.012 0.769853 221.039 0.896291 221.039 1.03612C221.039 1.16702 221.018 1.28453 220.976 1.38865C220.934 1.4898 220.875 1.57905 220.798 1.6564C220.723 1.73078 220.634 1.79325 220.53 1.84383C220.426 1.8944 220.313 1.9301 220.191 1.95093L221.15 3.2272ZM220.682 1.0495C220.682 0.853153 220.612 0.701428 220.472 0.594328C220.332 0.484253 220.136 0.429216 219.883 0.429216H218.919V1.69657H219.878C219.994 1.69657 220.101 1.68169 220.2 1.65194C220.298 1.62219 220.383 1.58054 220.454 1.52699C220.525 1.47047 220.58 1.40204 220.619 1.32172C220.661 1.24139 220.682 1.15065 220.682 1.0495ZM223.012 1.98663V3.2272H222.655V1.99109L221.357 0.103453H221.785L222.838 1.66533L223.9 0.103453H224.311L223.012 1.98663Z" fill="#22576F"/>
<path d="M157.424 29.4174V31.2068C157.424 31.4359 157.393 31.6367 157.33 31.8093C157.268 31.9818 157.179 32.1261 157.063 32.2421C156.95 32.3581 156.813 32.4459 156.652 32.5054C156.494 32.5619 156.317 32.5902 156.121 32.5902C155.928 32.5902 155.751 32.5619 155.59 32.5054C155.432 32.4459 155.295 32.3596 155.179 32.2466C155.066 32.1306 154.979 31.9878 154.916 31.8182C154.854 31.6486 154.822 31.4537 154.822 31.2336V29.4174H155.175V31.2113C155.175 31.5504 155.258 31.8107 155.425 31.9922C155.594 32.1737 155.829 32.2644 156.13 32.2644C156.418 32.2644 156.648 32.1782 156.817 32.0056C156.987 31.8331 157.071 31.5757 157.071 31.2336V29.4174H157.424ZM160.596 30.4125C160.596 30.5821 160.563 30.7308 160.498 30.8587C160.432 30.9867 160.343 31.0938 160.23 31.18C160.12 31.2663 159.991 31.3318 159.842 31.3764C159.693 31.418 159.535 31.4389 159.369 31.4389H158.61V32.5411H158.258V29.4174H159.427C159.602 29.4174 159.761 29.4412 159.904 29.4888C160.05 29.5334 160.173 29.5988 160.275 29.6851C160.379 29.7684 160.458 29.8725 160.511 29.9975C160.568 30.1195 160.596 30.2578 160.596 30.4125ZM160.239 30.4259C160.239 30.1998 160.162 30.0302 160.007 29.9172C159.855 29.8011 159.653 29.7431 159.4 29.7431H158.61V31.1176H159.382C159.51 31.1176 159.626 31.1012 159.73 31.0685C159.837 31.0358 159.928 30.9896 160.002 30.9301C160.08 30.8677 160.138 30.7948 160.176 30.7115C160.218 30.6252 160.239 30.53 160.239 30.4259Z" fill="#22576F"/>
</svg>
