<svg width="243" height="269" viewBox="0 0 243 269" fill="none" xmlns="http://www.w3.org/2000/svg">
<path d="M196.1 53.9V54H89.9001H89.8001L89.7001 53.9V49.8H68.4001V53.5L68.8001 52.8L68.9001 52.7H69.0001L87.7001 63.5V63.6V63.7L87.1001 64.8H86.9001L68.2001 54H63.8001V56.7L84.9001 68.9L85.0001 69.1L84.3001 70.2H84.2001L63.0001 58L62.9001 57.9V57.8L63.5001 56.9H62.1001V81.1H63.7001L63.8001 81.2V81.3V111.5V111.6H63.7001H51.0001V128.6H52.0001V108.2L52.1001 108.1V108H60.2001V101.1H11.3001V108H17.6001L17.7001 108.1V108.2V128.6H18.7001V111.6H11.3001V185.6H111.5V180.1V180H111.6H125.9V171.5V171.4H126H166.3H166.4V171.5V180H180.6V168.8V168.7H180.7H233.7V132.8H196.1H196L195.9 132.7V103.4L196 103.3H196.1H202L201.5 102.4V102.2L222.7 90H222.8H222.9L223.5 91.1V91.2L223.4 91.3L202.3 103.5V105.8H205L216.2 99.4H216.4L217 100.5V100.6V100.7L205.8 107.1H205.6L205.2 106.4V109.3L205.1 109.4H202.3V116.4H233.7V109.4H231H230.9V109.3V106.4L230.4 107.1V107.2L230.3 107.1L219.1 100.7L219 100.6V100.5L219.7 99.4H219.8L231 105.8H233.7V71.5H205V72.8V72.9L204.9 73H203.8L203.7 72.9V72.8V71.5H202.2H202.1V71.4V65.5V65.4L202.2 65.3H203.7V64V63.9H203.8H204.9H205V64V65.3H233.7V19.8H231.6L231.5 19.7V19.6V16.2H230.3V40.6V40.7H230.2H228.9H228.8V40.6V16.2H204.4V19.6L204.3 19.7V19.8H180.1V22.3H202.9V21.3H176.7L176.6 21.2V19.8H139.1V45.3H176.6V44.2V44.1H176.7H180H180.1V44.2V45.3H202.2L202.3 45.4V45.5V79L202.2 79.1H196.1L196 79H195.9V53.9H196.1V54V53.9H196.2V78.8H202.1V45.6H180L179.9 45.5V44.3H176.8V45.5L176.7 45.6H138.9V45.5H138.8V19.6L138.9 19.5H176.7H176.8V19.6V21H203L203.1 21.1L203.2 21.2V22.4L203.1 22.5H203H180H179.9V22.4V19.6V19.5H180H204.1V16.1L204.2 16H204.3H228.9H229V16.1V40.5H230V16.1L230.1 16H230.2H231.6H231.7V16.1V19.5H233.9L234 19.6V65.5L233.9 65.6H204.9H204.8V65.5V64.1H203.9V65.5V65.6H203.8H202.3V71.3H203.8H203.9V71.4V72.7H204.8V71.4V71.3H204.9H233.9L234 71.4V106H233.9V106.1H231H230.9L219.8 99.6L219.3 100.5L230.3 106.9L230.9 105.9L231 105.8L231.1 106V109.2H233.9L234 109.3V116.5L233.9 116.6H202.2H202.1V116.5V109.3V109.2H202.2H204.9V106L205 105.8L205.2 105.9L205.7 106.9L216.7 100.5L216.2 99.6L205.1 106.1H202.2L202.1 106V103.4V103.3L223.2 91.2L222.7 90.3L201.7 102.4L202.3 103.4V103.5L202.2 103.6H196.2V132.6H233.9L234 132.7V168.8L233.9 168.9H180.8V180.1V180.2L180.7 180.3H166.3L166.2 180.2V180.1V171.6H126.1V180.1V180.2L126 180.3H111.7V185.7V185.8H111.6H11.2001H11.1001V185.7V111.5V111.4H11.2001H18.9001L19.0001 111.5V128.8H18.9001V128.9H17.6001L17.5001 128.8V108.3H11.2001L11.1001 108.2V101V100.9L11.2001 100.8H60.4001V100.9L60.5001 101V108.2H60.4001V108.3H52.3001V128.8H52.2001L52.1001 128.9H50.9001L50.8001 128.8V111.5V111.4H50.9001H63.6001V81.4H62.0001L61.9001 81.3V56.8V56.7H62.0001H63.7001H63.8001V56.8L63.2001 57.8L84.2001 70L84.7001 69.1L63.6001 56.9V56.8V53.9V53.8H63.7001H68.3001L86.9001 64.5L87.4001 63.7L68.9001 53L68.4001 54H68.2001L68.1001 53.9V49.7L68.2001 49.6H68.3001H89.9001L90.0001 49.7V53.8H196.1H196.2V53.9H196.1Z" fill="#99A4B3"/>
<path d="M104.3 55.3V55.2H164.7L164.8 55.3V78.4V78.5H164.7H104.3H104.2L104.1 78.4V55.3H104.2L104.3 55.2V55.3H104.4V78.3H164.6V55.5H104.3V55.3H104.4H104.3Z" fill="#99A4B3"/>
<path d="M122.3 91.3V91.2H146.7L146.8 91.3V107.1V107.2H146.7H122.3H122.2L122.1 107.1V91.3H122.2L122.3 91.2V91.3H122.4V107H146.6V91.5H122.3V91.3H122.4H122.3Z" fill="#99A4B3"/>
<path d="M166.1 56.8V56.7H180.6H180.7V56.8V77L180.6 77.1H166.1V77H166V56.8L166.1 56.7V56.8H166.3V76.8H180.4V56.9H166.1V56.8H166.3H166.1Z" fill="#99A4B3"/>
<path d="M76.2 177.3L68.5 169.8V169.6L83.8 154.3H83.9H84L91.6 161.9C93.7 164 94.8 166.8 94.8 169.6C94.8 172.4 93.7 175.2 91.6 177.3C89.5 179.4 86.7 180.5 83.9 180.5C81 180.6 78.2 179.6 76.2 177.3C78.4 179.3 81.1 180.3 83.8 180.3C86.5 180.3 89.3 179.3 91.3 177.2C93.4 175.1 94.4 172.4 94.4 169.7C94.4 167 93.4 164.2 91.3 162.2L83.8 154.7L68.7 169.8L76.2 177.3Z" fill="#99A4B3"/>
<path d="M12.6 184.3H12.5V138.2V138.1H12.6H29.9H30V138.2V154.8H36.3V154.2V154.1H36.4H37.5L37.6 154.2V168.3H37.5V168.4H36.4L36.3 168.3V167.7H30V184.3V184.4H29.9H12.6H12.5V184.3H12.6V184.2H29.8V167.5L29.9 167.4H36.4L36.5 167.5V168.1H37.3V154.3H36.5V154.9V155L36.4 155.1H29.9L29.8 155V154.9V138.3H12.7V184.3H12.6V184.2V184.3Z" fill="#99A4B3"/>
<path d="M104.6 127.4H104.5L107.3 117L107.4 116.9H107.5L128.4 122.5L128.5 122.6V122.7L125.7 133.1C124.4 138 120 141.2 115.2 141.2C114.3 141.2 113.3 141.1 112.4 140.8C107.5 139.5 104.3 135.1 104.3 130.3C104.3 129.4 104.4 128.4 104.7 127.5L104.6 127.4H104.7C104.5 128.3 104.3 129.3 104.3 130.2C104.3 134.9 107.4 139.2 112.2 140.5C113.1 140.7 114.1 140.9 115 140.9C119.7 140.9 124 137.8 125.3 133L128.1 122.7L107.5 117.2L104.7 127.5L104.6 127.4Z" fill="#99A4B3"/>
<path d="M164.3 127.4H164.2L161.4 117.1L140.8 122.6L143.6 132.9C144.9 137.7 149.2 140.8 153.9 140.8C154.8 140.8 155.7 140.7 156.7 140.4C161.5 139.1 164.6 134.8 164.6 130.1C164.6 129.2 164.5 128.3 164.2 127.3L164.3 127.4H164.4C164.7 128.3 164.8 129.3 164.8 130.2C164.8 135 161.6 139.4 156.7 140.7C155.8 141 154.8 141.1 153.9 141.1C149.1 141.1 144.7 137.9 143.4 133L140.6 122.6L140.7 122.5L161.6 116.9H161.7L161.8 117L164.6 127.4H164.3Z" fill="#99A4B3"/>
<path d="M12.3999 185.7V111.5L12.4999 111.4L12.6999 111.5V185.7L12.4999 185.8L12.3999 185.7Z" fill="#99A4B3"/>
<path d="M12.3999 108.2V101L12.4999 100.8L12.6999 101V108.2L12.4999 108.3L12.3999 108.2Z" fill="#99A4B3"/>
<path d="M17.7998 185.7V184.3L17.8998 184.2L18.0998 184.3V185.7L17.8998 185.8L17.7998 185.7Z" fill="#99A4B3"/>
<path d="M17.7998 111.5V101L17.8998 100.8L18.0998 101V111.5L17.8998 111.6L17.7998 111.5Z" fill="#99A4B3"/>
<path d="M17.7998 138.2V128.8L17.8998 128.6L18.0998 128.8V138.2L17.8998 138.3L17.7998 138.2Z" fill="#99A4B3"/>
<path d="M23.2002 185.7V184.3L23.3002 184.2L23.5002 184.3V185.7L23.3002 185.8L23.2002 185.7Z" fill="#99A4B3"/>
<path d="M23.2002 138.2V101L23.3002 100.8L23.5002 101V138.2L23.3002 138.3L23.2002 138.2Z" fill="#99A4B3"/>
<path d="M28.6001 185.7V184.3L28.7001 184.2L28.9001 184.3V185.7L28.7001 185.8L28.6001 185.7Z" fill="#99A4B3"/>
<path d="M28.6001 138.2V101L28.7001 100.8L28.9001 101V138.2L28.7001 138.3L28.6001 138.2Z" fill="#99A4B3"/>
<path d="M34 185.7V167.5L34.1 167.4L34.2 167.5V185.7L34.1 185.8L34 185.7Z" fill="#99A4B3"/>
<path d="M34 154.9V101L34.1 100.8L34.2 101V154.9L34.1 155.1L34 154.9Z" fill="#99A4B3"/>
<path d="M39.3999 185.7V101L39.4999 100.8L39.5999 101V185.7L39.4999 185.8L39.3999 185.7Z" fill="#99A4B3"/>
<path d="M44.7998 185.7V101L44.8998 100.8L44.9998 101V185.7L44.8998 185.8L44.7998 185.7Z" fill="#99A4B3"/>
<path d="M50.2002 185.7V101L50.3002 100.8L50.4002 101V185.7L50.3002 185.8L50.2002 185.7Z" fill="#99A4B3"/>
<path d="M55.6001 185.7V111.5L55.7001 111.4L55.8001 111.5V185.7L55.7001 185.8L55.6001 185.7Z" fill="#99A4B3"/>
<path d="M55.6001 108.2V101L55.7001 100.8L55.8001 101V108.2L55.7001 108.3L55.6001 108.2Z" fill="#99A4B3"/>
<path d="M61 185.7V111.5L61.1 111.4L61.2 111.5V185.7L61.1 185.8L61 185.7Z" fill="#99A4B3"/>
<path d="M66.3999 185.7V59.9L66.4999 59.8L66.5999 59.9V185.7L66.4999 185.8L66.3999 185.7Z" fill="#99A4B3"/>
<path d="M66.3999 58.4V53.9L66.4999 53.8L66.5999 53.9V58.4L66.4999 58.5L66.3999 58.4Z" fill="#99A4B3"/>
<path d="M71.7998 185.7V173.1L71.8998 173L71.9998 173.1V185.7L71.8998 185.8L71.7998 185.7Z" fill="#99A4B3"/>
<path d="M71.7998 54.6V49.7L71.8998 49.6L71.9998 49.7V54.6L71.8998 54.7L71.7998 54.6Z" fill="#99A4B3"/>
<path d="M71.7998 166.3V63L71.8998 62.9L71.9998 63V166.3L71.8998 166.5L71.7998 166.3Z" fill="#99A4B3"/>
<path d="M71.7998 61.5V56L71.8998 55.9L71.9998 56V61.5L71.8998 61.7L71.7998 61.5Z" fill="#99A4B3"/>
<path d="M77.2002 185.7V178.3L77.3002 178.2L77.4002 178.3V185.7L77.3002 185.8L77.2002 185.7Z" fill="#99A4B3"/>
<path d="M77.2002 57.7V49.7L77.3002 49.6L77.4002 49.7V57.7L77.3002 57.8L77.2002 57.7Z" fill="#99A4B3"/>
<path d="M77.2002 160.9V66.1L77.3002 66L77.4002 66.1V160.9L77.3002 161.1L77.2002 160.9Z" fill="#99A4B3"/>
<path d="M77.2002 64.7V59.1L77.3002 59L77.4002 59.1V64.7L77.3002 64.8L77.2002 64.7Z" fill="#99A4B3"/>
<path d="M82.6001 185.7V180.5L82.7001 180.3L82.8001 180.5V185.7L82.7001 185.8L82.6001 185.7Z" fill="#99A4B3"/>
<path d="M82.6001 60.8V49.7L82.7001 49.6L82.8001 49.7V60.8L82.7001 60.9L82.6001 60.8Z" fill="#99A4B3"/>
<path d="M82.6001 155.5V69.2L82.7001 69.1L82.8001 69.2V155.5L82.7001 155.7L82.6001 155.5Z" fill="#99A4B3"/>
<path d="M82.6001 67.8V62.2L82.7001 62.1L82.8001 62.2V67.8L82.7001 67.9L82.6001 67.8Z" fill="#99A4B3"/>
<path d="M88 185.7V179.6L88.1 179.5L88.2 179.6V185.7L88.1 185.8L88 185.7Z" fill="#99A4B3"/>
<path d="M88 158.8V49.7L88.1 49.6L88.2 49.7V158.8L88.1 158.9L88 158.8Z" fill="#99A4B3"/>
<path d="M93.3999 185.7V174.4L93.4999 174.3L93.5999 174.4V185.7L93.4999 185.8L93.3999 185.7Z" fill="#99A4B3"/>
<path d="M93.3999 165V53.9L93.4999 53.8L93.5999 53.9V165L93.4999 165.1L93.3999 165Z" fill="#99A4B3"/>
<path d="M98.7998 185.7V53.9L98.8998 53.8L98.9998 53.9V185.7L98.8998 185.8L98.7998 185.7Z" fill="#99A4B3"/>
<path d="M104.2 185.7V131.2L104.3 131.1L104.4 131.2V185.7L104.3 185.8L104.2 185.7Z" fill="#99A4B3"/>
<path d="M104.2 55.4V53.9L104.3 53.8L104.4 53.9V55.4L104.3 55.5L104.2 55.4Z" fill="#99A4B3"/>
<path d="M104.2 129.2V78.4L104.3 78.3L104.4 78.4V129.2L104.3 129.3L104.2 129.2Z" fill="#99A4B3"/>
<path d="M109.6 185.7V139.6L109.7 139.5L109.8 139.6V185.7L109.7 185.8L109.6 185.7Z" fill="#99A4B3"/>
<path d="M109.6 55.4V53.9L109.7 53.8L109.8 53.9V55.4L109.7 55.5L109.6 55.4Z" fill="#99A4B3"/>
<path d="M109.6 117.6V78.4L109.7 78.3L109.8 78.4V117.6L109.7 117.7L109.6 117.6Z" fill="#99A4B3"/>
<path d="M115 180.1V141L115.1 140.9L115.2 141V180.1L115.1 180.3L115 180.1Z" fill="#99A4B3"/>
<path d="M115 55.4V53.9L115.1 53.8L115.2 53.9V55.4L115.1 55.5L115 55.4Z" fill="#99A4B3"/>
<path d="M115 119V78.4L115.1 78.3L115.2 78.4V119L115.1 119.2L115 119Z" fill="#99A4B3"/>
<path d="M120.4 180.1V139.5L120.5 139.4L120.6 139.5V180.1L120.5 180.3L120.4 180.1Z" fill="#99A4B3"/>
<path d="M120.4 55.4V53.9L120.5 53.8L120.6 53.9V55.4L120.5 55.5L120.4 55.4Z" fill="#99A4B3"/>
<path d="M120.4 120.5V78.4L120.5 78.3L120.6 78.4V120.5L120.5 120.6L120.4 120.5Z" fill="#99A4B3"/>
<path d="M125.8 180.1V131.4L125.9 131.3L126 131.4V180.1L125.9 180.3L125.8 180.1Z" fill="#99A4B3"/>
<path d="M125.8 55.4V53.9L125.9 53.8L126 53.9V55.4L125.9 55.5L125.8 55.4Z" fill="#99A4B3"/>
<path d="M125.8 121.9V107.1L125.9 107L126 107.1V121.9L125.9 122.1L125.8 121.9Z" fill="#99A4B3"/>
<path d="M125.8 91.3V78.4L125.9 78.3L126 78.4V91.3L125.9 91.5L125.8 91.3Z" fill="#99A4B3"/>
<path d="M131.2 171.5V107.1L131.3 107L131.4 107.1V171.5L131.3 171.6L131.2 171.5Z" fill="#99A4B3"/>
<path d="M131.2 55.4V53.9L131.3 53.8L131.4 53.9V55.4L131.3 55.5L131.2 55.4Z" fill="#99A4B3"/>
<path d="M131.2 91.3V78.4L131.3 78.3L131.4 78.4V91.3L131.3 91.5L131.2 91.3Z" fill="#99A4B3"/>
<path d="M136.6 171.5V107.1L136.7 107L136.8 107.1V171.5L136.7 171.6L136.6 171.5Z" fill="#99A4B3"/>
<path d="M136.6 55.4V53.9L136.7 53.8L136.8 53.9V55.4L136.7 55.5L136.6 55.4Z" fill="#99A4B3"/>
<path d="M136.6 91.3V78.4L136.7 78.3L136.8 78.4V91.3L136.7 91.5L136.6 91.3Z" fill="#99A4B3"/>
<path d="M142 171.5V127.8L142.1 127.7L142.2 127.8V171.5L142.1 171.6L142 171.5Z" fill="#99A4B3"/>
<path d="M142 45.5V19.6L142.1 19.5L142.2 19.6V45.5L142.1 45.6L142 45.5Z" fill="#99A4B3"/>
<path d="M142 122.2V107.1L142.1 107L142.2 107.1V122.2L142.1 122.3L142 122.2Z" fill="#99A4B3"/>
<path d="M142 55.4V53.9L142.1 53.8L142.2 53.9V55.4L142.1 55.5L142 55.4Z" fill="#99A4B3"/>
<path d="M142 91.3V78.4L142.1 78.3L142.2 78.4V91.3L142.1 91.5L142 91.3Z" fill="#99A4B3"/>
<path d="M147.4 171.5V138.9L147.5 138.8L147.6 138.9V171.5L147.5 171.6L147.4 171.5Z" fill="#99A4B3"/>
<path d="M147.4 45.5V19.6L147.5 19.5L147.6 19.6V45.5L147.5 45.6L147.4 45.5Z" fill="#99A4B3"/>
<path d="M147.4 120.8V78.4L147.5 78.3L147.6 78.4V120.8L147.5 120.9L147.4 120.8Z" fill="#99A4B3"/>
<path d="M147.4 55.4V53.9L147.5 53.8L147.6 53.9V55.4L147.5 55.5L147.4 55.4Z" fill="#99A4B3"/>
<path d="M152.8 171.5V141L152.9 140.8L153 141V171.5L152.9 171.6L152.8 171.5Z" fill="#99A4B3"/>
<path d="M152.8 45.5V19.6L152.9 19.5L153 19.6V45.5L152.9 45.6L152.8 45.5Z" fill="#99A4B3"/>
<path d="M152.8 119.3V78.4L152.9 78.3L153 78.4V119.3L152.9 119.4L152.8 119.3Z" fill="#99A4B3"/>
<path d="M152.8 55.4V53.9L152.9 53.8L153 53.9V55.4L152.9 55.5L152.8 55.4Z" fill="#99A4B3"/>
<path d="M158.2 171.5V140.1L158.3 140L158.4 140.1V171.5L158.3 171.6L158.2 171.5Z" fill="#99A4B3"/>
<path d="M158.2 45.5V19.6L158.3 19.5L158.4 19.6V45.5L158.3 45.6L158.2 45.5Z" fill="#99A4B3"/>
<path d="M158.2 117.9V78.4L158.3 78.3L158.4 78.4V117.9L158.3 118L158.2 117.9Z" fill="#99A4B3"/>
<path d="M158.2 55.4V53.9L158.3 53.8L158.4 53.9V55.4L158.3 55.5L158.2 55.4Z" fill="#99A4B3"/>
<path d="M163.6 171.5V134.8L163.7 134.7L163.8 134.8V171.5L163.7 171.6L163.6 171.5Z" fill="#99A4B3"/>
<path d="M163.6 45.5V19.6L163.7 19.5L163.8 19.6V45.5L163.7 45.6L163.6 45.5Z" fill="#99A4B3"/>
<path d="M163.6 124.9V78.4L163.7 78.3L163.8 78.4V124.9L163.7 125.1L163.6 124.9Z" fill="#99A4B3"/>
<path d="M163.6 55.4V53.9L163.7 53.8L163.8 53.9V55.4L163.7 55.5L163.6 55.4Z" fill="#99A4B3"/>
<path d="M169 180.1V77L169.1 76.8L169.2 77V180.1L169.1 180.3L169 180.1Z" fill="#99A4B3"/>
<path d="M169 45.5V19.6L169.1 19.5L169.2 19.6V45.5L169.1 45.6L169 45.5Z" fill="#99A4B3"/>
<path d="M169 56.8V53.9L169.1 53.8L169.2 53.9V56.8L169.1 56.9L169 56.8Z" fill="#99A4B3"/>
<path d="M174.4 180.1V77L174.5 76.8L174.6 77V180.1L174.5 180.3L174.4 180.1Z" fill="#99A4B3"/>
<path d="M174.4 45.5V19.6L174.5 19.5L174.6 19.6V45.5L174.5 45.6L174.4 45.5Z" fill="#99A4B3"/>
<path d="M174.4 56.8V53.9L174.5 53.8L174.6 53.9V56.8L174.5 56.9L174.4 56.8Z" fill="#99A4B3"/>
<path d="M179.8 180.1V77L179.9 76.8L180 77V180.1L179.9 180.3L179.8 180.1Z" fill="#99A4B3"/>
<path d="M179.8 44.2V21.2L179.9 21L180 21.2V44.2L179.9 44.3L179.8 44.2Z" fill="#99A4B3"/>
<path d="M179.8 56.8V53.9L179.9 53.8L180 53.9V56.8L179.9 56.9L179.8 56.8Z" fill="#99A4B3"/>
<path d="M185.2 168.8V53.9L185.3 53.8L185.4 53.9V168.8L185.3 168.9L185.2 168.8Z" fill="#99A4B3"/>
<path d="M185.2 21.2V19.6L185.3 19.5L185.4 19.6V21.2L185.3 21.3L185.2 21.2Z" fill="#99A4B3"/>
<path d="M185.2 45.5V22.4L185.3 22.3L185.4 22.4V45.5L185.3 45.6L185.2 45.5Z" fill="#99A4B3"/>
<path d="M190.5 168.8V53.9L190.7 53.8L190.8 53.9V168.8L190.7 168.9L190.5 168.8Z" fill="#99A4B3"/>
<path d="M190.5 21.2V19.6L190.7 19.5L190.8 19.6V21.2L190.7 21.3L190.5 21.2Z" fill="#99A4B3"/>
<path d="M190.5 45.5V22.4L190.7 22.3L190.8 22.4V45.5L190.7 45.6L190.5 45.5Z" fill="#99A4B3"/>
<path d="M195.9 168.8V132.7L196.1 132.6L196.2 132.7V168.8L196.1 168.9L195.9 168.8Z" fill="#99A4B3"/>
<path d="M195.9 21.2V19.6L196.1 19.5L196.2 19.6V21.2L196.1 21.3L195.9 21.2Z" fill="#99A4B3"/>
<path d="M195.9 103.4V79L196.1 78.8L196.2 79V103.4L196.1 103.6L195.9 103.4Z" fill="#99A4B3"/>
<path d="M195.9 45.5V22.4L196.1 22.3L196.2 22.4V45.5L196.1 45.6L195.9 45.5Z" fill="#99A4B3"/>
<path d="M201.3 168.8V132.7L201.5 132.6L201.6 132.7V168.8L201.5 168.9L201.3 168.8Z" fill="#99A4B3"/>
<path d="M201.3 21.2V19.6L201.5 19.5L201.6 19.6V21.2L201.5 21.3L201.3 21.2Z" fill="#99A4B3"/>
<path d="M201.3 103.4V79L201.5 78.8L201.6 79V103.4L201.5 103.6L201.3 103.4Z" fill="#99A4B3"/>
<path d="M201.3 45.5V22.4L201.5 22.3L201.6 22.4V45.5L201.5 45.6L201.3 45.5Z" fill="#99A4B3"/>
<path d="M206.7 168.8V132.7L206.9 132.6L207 132.7V168.8L206.9 168.9L206.7 168.8Z" fill="#99A4B3"/>
<path d="M206.7 65.5V16.1L206.9 16L207 16.1V65.5L206.9 65.6L206.7 65.5Z" fill="#99A4B3"/>
<path d="M206.7 116.5V106.4L206.9 106.2L207 106.4V116.5L206.9 116.6L206.7 116.5Z" fill="#99A4B3"/>
<path d="M206.7 99.3V71.4L206.9 71.3L207 71.4V99.3L206.9 99.4L206.7 99.3Z" fill="#99A4B3"/>
<path d="M206.7 104.9V100.7L206.9 100.6L207 100.7V104.9L206.9 105L206.7 104.9Z" fill="#99A4B3"/>
<path d="M212.1 168.8V132.7L212.3 132.6L212.4 132.7V168.8L212.3 168.9L212.1 168.8Z" fill="#99A4B3"/>
<path d="M212.1 65.5V16.1L212.3 16L212.4 16.1V65.5L212.3 65.6L212.1 65.5Z" fill="#99A4B3"/>
<path d="M212.1 116.5V103.3L212.3 103.1L212.4 103.3V116.5L212.3 116.6L212.1 116.5Z" fill="#99A4B3"/>
<path d="M212.1 96.2V71.4L212.3 71.3L212.4 71.4V96.2L212.3 96.3L212.1 96.2Z" fill="#99A4B3"/>
<path d="M212.1 101.8V97.6L212.3 97.5L212.4 97.6V101.8L212.3 101.9L212.1 101.8Z" fill="#99A4B3"/>
<path d="M217.5 168.8V132.7L217.7 132.6L217.8 132.7V168.8L217.7 168.9L217.5 168.8Z" fill="#99A4B3"/>
<path d="M217.5 65.5V16.1L217.7 16L217.8 16.1V65.5L217.7 65.6L217.5 65.5Z" fill="#99A4B3"/>
<path d="M217.5 116.5V94.5L217.7 94.4L217.8 94.5V116.5L217.7 116.6L217.5 116.5Z" fill="#99A4B3"/>
<path d="M217.5 93V71.4L217.7 71.3L217.8 71.4V93L217.7 93.2L217.5 93Z" fill="#99A4B3"/>
<path d="M222.9 168.8V132.7L223.1 132.6L223.2 132.7V168.8L223.1 168.9L222.9 168.8Z" fill="#99A4B3"/>
<path d="M222.9 65.5V16.1L223.1 16L223.2 16.1V65.5L223.1 65.6L222.9 65.5Z" fill="#99A4B3"/>
<path d="M222.9 116.5V102.8L223.1 102.7L223.2 102.8V116.5L223.1 116.6L222.9 116.5Z" fill="#99A4B3"/>
<path d="M222.9 90.6V71.4L223.1 71.3L223.2 71.4V90.6L223.1 90.8L222.9 90.6Z" fill="#99A4B3"/>
<path d="M222.9 101.4V91.4L223.1 91.3L223.2 91.4V101.4L223.1 101.5L222.9 101.4Z" fill="#99A4B3"/>
<path d="M228.3 168.8V132.7L228.5 132.6L228.6 132.7V168.8L228.5 168.9L228.3 168.8Z" fill="#99A4B3"/>
<path d="M228.3 65.5V16.1L228.5 16L228.6 16.1V65.5L228.5 65.6L228.3 65.5Z" fill="#99A4B3"/>
<path d="M228.3 116.5V106L228.5 105.8L228.6 106V116.5L228.5 116.6L228.3 116.5Z" fill="#99A4B3"/>
<path d="M228.3 104.5V71.4L228.5 71.3L228.6 71.4V104.5L228.5 104.6L228.3 104.5Z" fill="#99A4B3"/>
<path d="M236.1 267H236V177.4H232V203.2L231.9 203.3H230.6L230.5 203.2V177.4H201.6V177.3H201.5V176.2H188.1V193V193.1H188H14.4998V233.4L188 256.5L188.1 256.6V266.9H189.3V244V243.9L189.4 243.8H190.7L190.8 243.9V244V266.9H236.1V267H236H236.1V267.1H190.7H190.6L190.5 267V244.1H189.5V267V267.1H189.4H188H187.9V267V256.7L14.3998 233.6L14.2998 233.5V193V192.9H14.3998H187.9V176.1V176H188H201.6H201.7L201.8 176.1V177.1H230.6L230.7 177.2V177.3V203H231.8V177.3V177.2L231.9 177.1H236.1L236.2 177.2V177.3V267V267.1H236.1V267Z" fill="#99A4B3"/>
<path d="M11.8002 28.9H11.7002C11.7002 28.7 11.8002 28.5 12.0002 28.5L14.1002 28.1H14.3002C14.5002 28.1 14.7002 28.2 14.9002 28.3C15.2002 28.5 15.5002 28.8 15.8002 29.2L15.7002 29.3V29.2C18.0002 29.1 20.3002 28.8 22.5002 28.3C23.2002 28.1 24.0002 28.1 24.7002 28.1C25.7002 28.1 26.6002 28.2 27.6002 28.5C28.4002 28.7 29.2002 29.1 29.9002 29.6C30.6002 30.1 31.1002 30.7 31.5002 31.4C31.8002 32 32.0002 32.7 32.0002 33.3C32.0002 34 31.8002 34.7 31.5002 35.2C31.1002 35.9 30.5002 36.5 29.9002 37C29.2002 37.5 28.4002 37.9 27.6002 38.1C26.7002 38.4 25.7002 38.5 24.7002 38.5C23.9002 38.5 23.2002 38.4 22.5002 38.3C20.2002 37.9 18.0002 37.6 15.7002 37.4V37.3L15.8002 37.4C15.6002 37.7 15.3002 38 14.9002 38.3C14.7002 38.4 14.5002 38.5 14.3002 38.5H14.1002L12.0002 38C11.8002 38 11.7002 37.8 11.7002 37.6V28.9H11.8002H11.9002V37.6L12.0002 37.8L14.1002 38.2H14.2002C14.4002 38.2 14.5002 38.2 14.6002 38.1C14.9002 37.9 15.2002 37.6 15.4002 37.3L15.5002 37.2C17.8002 37.3 20.1002 37.6 22.4002 38.1C23.1002 38.3 23.8002 38.3 24.6002 38.3C25.6002 38.3 26.5002 38.2 27.4002 37.9C28.2002 37.7 28.9002 37.3 29.6002 36.8C30.2002 36.3 30.8002 35.7 31.2002 35.1C31.5002 34.5 31.7002 33.9 31.7002 33.3C31.7002 32.7 31.5002 32 31.2002 31.5C30.8002 30.8 30.3002 30.2 29.6002 29.8C28.9002 29.3 28.2002 29 27.4002 28.7C26.5002 28.4 25.5002 28.3 24.6002 28.3C23.9002 28.3 23.1002 28.4 22.4002 28.5C20.1002 28.9 17.8002 29.2 15.5002 29.4L15.4002 29.3C15.2002 29 14.9002 28.7 14.6002 28.5C14.5002 28.4 14.3002 28.4 14.2002 28.4H14.1002L12.0002 28.8L11.9002 29H11.8002V28.9Z" fill="#99A4B3"/>
<path d="M231.9 177.4H206L205.8 177.3L206 177.1H231.9L232 177.3L231.9 177.4Z" fill="#99A4B3"/>
<path d="M231.9 168.9H206L205.8 168.8L206 168.7H231.9L232 168.8L231.9 168.9Z" fill="#99A4B3"/>
<path d="M230.2 16.2H205.7L205.6 16.1L205.7 16H230.2L230.3 16.1L230.2 16.2Z" fill="#99A4B3"/>
<path d="M230.2 12.6H205.7L205.6 12.5L205.7 12.4H230.2L230.3 12.5L230.2 12.6Z" fill="#99A4B3"/>
<path d="M189.4 266.9H212.4L212.6 267L212.4 267.1H189.4L189.3 267L189.4 266.9Z" fill="#99A4B3"/>
<path d="M189.4 268.3H212.4L212.6 268.4L212.4 268.6H189.4L189.3 268.4L189.4 268.3Z" fill="#99A4B3"/>
<path d="M60.4001 21.3V21.4H11.4001V67.1H28.5001C29.8001 67.1 30.8001 68.1 30.8001 69.4V79.5C30.8001 80.8 29.8001 81.8 28.5001 81.8H11.4001V87.4H60.3001V81.2V81.1H60.4001H61.9001V56.9H60.4001H60.3001V56.8V21.4H60.4001V21.5V21.3H60.5001V56.6H62.0001H62.1001V56.7V81.2V81.3H62.0001H60.5001V87.5V87.6H60.4001H11.2001H11.1001V87.5V81.7V81.6H11.2001H28.4001C29.5001 81.6 30.4001 80.7 30.4001 79.6V69.5C30.4001 68.4 29.5001 67.5 28.4001 67.5H11.2001H11.1001V67.4V21.4V21.3H11.2001H60.4001Z" fill="#99A4B3"/>
<path d="M11.7998 87.6V81.7L11.8998 81.6L11.9998 81.7V87.6L11.8998 87.7L11.7998 87.6Z" fill="#99A4B3"/>
<path d="M11.7998 28.7V21.3L11.8998 21.2L11.9998 21.3V28.7L11.8998 28.8L11.7998 28.7Z" fill="#99A4B3"/>
<path d="M11.7998 67.3V37.8L11.8998 37.7L11.9998 37.8V67.3L11.8998 67.4L11.7998 67.3Z" fill="#99A4B3"/>
<path d="M20.3999 87.6V81.7L20.4999 81.6L20.6999 81.7V87.6L20.4999 87.7L20.3999 87.6Z" fill="#99A4B3"/>
<path d="M20.3999 28.7V21.3L20.4999 21.2L20.6999 21.3V28.7L20.4999 28.8L20.3999 28.7Z" fill="#99A4B3"/>
<path d="M20.3999 67.3V37.8L20.4999 37.7L20.6999 37.8V67.3L20.4999 67.4L20.3999 67.3Z" fill="#99A4B3"/>
<path d="M29.1001 87.6V81.6L29.2001 81.4L29.3001 81.6V87.6L29.2001 87.7L29.1001 87.6Z" fill="#99A4B3"/>
<path d="M29.1001 29.2V21.3L29.2001 21.2L29.3001 21.3V29.2L29.2001 29.3L29.1001 29.2Z" fill="#99A4B3"/>
<path d="M29.1001 67.5V37.3L29.2001 37.2L29.3001 37.3V67.5L29.2001 67.6L29.1001 67.5Z" fill="#99A4B3"/>
<path d="M37.7002 87.6V21.3L37.8002 21.2L37.9002 21.3V87.6L37.8002 87.7L37.7002 87.6Z" fill="#99A4B3"/>
<path d="M46.2998 87.6V21.3L46.4998 21.2L46.5998 21.3V87.6L46.4998 87.7L46.2998 87.6Z" fill="#99A4B3"/>
<path d="M55 87.6V21.3L55.1 21.2L55.2 21.3V87.6L55.1 87.7L55 87.6Z" fill="#99A4B3"/>
<path d="M61.9999 70.4H30.4999L30.3999 70.3L30.4999 70.2H61.9999L62.0999 70.3L61.9999 70.4Z" fill="#99A4B3"/>
<path d="M60.4001 53.1H11.2001L11.1001 53L11.2001 52.9H60.4001L60.5001 53L60.4001 53.1Z" fill="#99A4B3"/>
<path d="M60.3999 35.9H30.9999L30.8999 35.7L30.9999 35.6H60.3999L60.4999 35.7L60.3999 35.9Z" fill="#99A4B3"/>
<path d="M11.8001 35.9H11.2001L11.1001 35.7L11.2001 35.6H11.8001L11.9001 35.7L11.8001 35.9Z" fill="#99A4B3"/>
<path d="M231.9 192.9H236.1L236.2 193L236.1 193.1H231.9L231.8 193L231.9 192.9Z" fill="#99A4B3"/>
<path d="M188 192.9H230.6L230.7 193L230.6 193.1H188L187.9 193L188 192.9Z" fill="#99A4B3"/>
<path d="M14.3998 210.2H236.1L236.2 210.3L236.1 210.4H14.3998L14.2998 210.3L14.3998 210.2Z" fill="#99A4B3"/>
<path d="M14.3998 227.4H236.1L236.2 227.5L236.1 227.7H14.3998L14.2998 227.5L14.3998 227.4Z" fill="#99A4B3"/>
<path d="M99.4999 244.7H189.4L189.5 244.8L189.4 244.9H99.4999L99.3999 244.8L99.4999 244.7Z" fill="#99A4B3"/>
<path d="M190.7 244.7H236.1L236.2 244.8L236.1 244.9H190.7L190.5 244.8L190.7 244.7Z" fill="#99A4B3"/>
<path d="M188 262H189.4L189.5 262.1L189.4 262.2H188L187.9 262.1L188 262Z" fill="#99A4B3"/>
<path d="M190.7 262H236.1L236.2 262.1L236.1 262.2H190.7L190.5 262.1L190.7 262Z" fill="#99A4B3"/>
<path d="M15.1001 233.6V193L15.2001 192.9L15.4001 193V233.6L15.2001 233.7L15.1001 233.6Z" fill="#99A4B3"/>
<path d="M32.3999 235.9V193L32.4999 192.9L32.5999 193V235.9L32.4999 236L32.3999 235.9Z" fill="#99A4B3"/>
<path d="M49.7002 238.2V193L49.8002 192.9L49.9002 193V238.2L49.8002 238.3L49.7002 238.2Z" fill="#99A4B3"/>
<path d="M66.8999 240.5V193L67.0999 192.9L67.1999 193V240.5L67.0999 240.6L66.8999 240.5Z" fill="#99A4B3"/>
<path d="M84.2002 242.8V193L84.3002 192.9L84.5002 193V242.8L84.3002 242.9L84.2002 242.8Z" fill="#99A4B3"/>
<path d="M101.5 245.1V193L101.6 192.9L101.7 193V245.1L101.6 245.2L101.5 245.1Z" fill="#99A4B3"/>
<path d="M118.8 247.4V193L118.9 192.9L119 193V247.4L118.9 247.5L118.8 247.4Z" fill="#99A4B3"/>
<path d="M136 249.7V193L136.2 192.9L136.3 193V249.7L136.2 249.8L136 249.7Z" fill="#99A4B3"/>
<path d="M153.3 252V193L153.4 192.9L153.5 193V252L153.4 252.1L153.3 252Z" fill="#99A4B3"/>
<path d="M170.6 254.3V193L170.7 192.9L170.8 193V254.3L170.7 254.4L170.6 254.3Z" fill="#99A4B3"/>
<path d="M187.9 256.6V193L188 192.9L188.1 193V256.6L188 256.7L187.9 256.6Z" fill="#99A4B3"/>
<path d="M205.1 267V177.3L205.2 177.1L205.4 177.3V267L205.2 267.1L205.1 267Z" fill="#99A4B3"/>
<path d="M222.4 267V177.3L222.5 177.1L222.6 177.3V267L222.5 267.1L222.4 267Z" fill="#99A4B3"/>
<path fill-rule="evenodd" clip-rule="evenodd" d="M14.4 222.1H1V10.9H204.3V12.5H205.7V16.1H204.3V19.6H180V21.2H176.7V19.6H66.5V45.5H68.3V53.9H63.7V56.8H60.4V21.3H11.2V87.5H60.4V81.3H63.7V111.5H52.1V108.2H60.4V90.9H11.2V108.2H17.6V111.5H11.2V185.7H15.2V189.8H14.4V222.1Z" fill="#22576F"/>
<path fill-rule="evenodd" clip-rule="evenodd" d="M72.7002 185.7V189.8H73.4002V193H188V172.8H188.7V168.8H180.7V180.1H111.6V185.7H72.7002Z" fill="#22576F"/>
<path d="M205.9 168.8H201.6V177.3H205.9V168.8Z" fill="#22576F"/>
<path fill-rule="evenodd" clip-rule="evenodd" d="M231.9 168.8V177.3H236.1V222.1H242.7V10.9H231.6V12.5H230.2V16.1H231.6V19.6H233.9V106H231V109.3H233.9V126.6H202.2V109.3H205.1V106H202.2V103.4H196.1V132.7H233.9V168.8H231.9Z" fill="#22576F"/>
<path fill-rule="evenodd" clip-rule="evenodd" d="M89.8999 45.5V53.9H196.1V79H202.2V45.5H180V44.2H176.7V45.5H89.8999Z" fill="#22576F"/>
<path d="M203.8 64V63.9H204.9H205V64V72.8V72.9L204.9 73H203.8L203.7 72.9V72.8V64V63.9H203.8V64H203.9V72.7H204.8V64.2H203.8V64H203.9H203.8Z" fill="#22576F"/>
<path d="M107.3 21.7H138.8V20.8H107L106.9 20.7L107 20.6H138.9H139L139.1 20.7V21.8L139 21.9H138.9H107.3L107.1 21.8L107.3 21.7Z" fill="#22576F"/>
<path d="M202.2 119.2H204.3L204.5 119.4L204.3 119.5H202.2L202.1 119.4L202.2 119.2Z" fill="#22576F"/>
<path d="M225.4 119.2H229.6L229.7 119.3L229.6 119.4H225.4L225.3 119.3L225.4 119.2ZM219.1 119.2H223.3L223.4 119.3L223.3 119.4H219.1L219 119.3L219.1 119.2ZM212.8 119.2H217L217.1 119.3L217 119.4H212.8L212.7 119.3L212.8 119.2ZM206.4 119.2H210.6L210.7 119.3L210.6 119.4H206.4L206.3 119.3L206.4 119.2Z" fill="#22576F"/>
<path d="M231.7 119.2H233.9L234 119.4L233.9 119.5H231.7L231.6 119.4L231.7 119.2Z" fill="#22576F"/>
<path d="M60.4001 98.2H58.2001L58.1001 98.1L58.2001 98H60.4001L60.5001 98.1L60.4001 98.2Z" fill="#22576F"/>
<path d="M19.4002 98.2H15.3002L15.2002 98.1L15.3002 98H19.4002L19.5002 98.1L19.4002 98.2ZM25.6002 98.2H21.5002L21.4002 98.1L21.5002 98H25.6002L25.7002 98.1L25.6002 98.2ZM31.7002 98.2H27.6002L27.5002 98.1L27.6002 98H31.7002L31.8002 98.1L31.7002 98.2ZM37.8002 98.2H33.7002L33.6002 98.1L33.7002 98H37.8002L37.9002 98.1L37.8002 98.2ZM43.9002 98.2H39.8002L39.7002 98.1L39.8002 98H43.9002L44.0002 98.1L43.9002 98.2ZM50.0002 98.2H46.0002L45.9002 98.1L46.0002 98H50.1002L50.2002 98.1L50.0002 98.2ZM56.2002 98.2H52.1002L52.0002 98.1L52.1002 98H56.2002L56.3002 98.1L56.2002 98.2Z" fill="#22576F"/>
<path d="M13.3001 98.2H11.2001L11.1001 98.1L11.2001 98H13.3001L13.5001 98.1L13.3001 98.2Z" fill="#22576F"/>
<path d="M188 172.7H201.6L201.8 172.8L201.6 173H188L187.8 172.8L188 172.7Z" fill="#22576F"/>
<path d="M188 176H201.6L201.8 176.1L201.6 176.2H188L187.8 176.1L188 176Z" fill="#22576F"/>
<path d="M14.3998 189.6H73.3998L73.5998 189.8L73.3998 189.9H14.3998L14.2998 189.8L14.3998 189.6Z" fill="#22576F"/>
<path d="M14.3998 192.9H73.3998L73.5998 193L73.3998 193.1H14.3998L14.2998 193L14.3998 192.9Z" fill="#22576F"/>
<path d="M231.9 203.2V203.3H230.6H230.5V203.2V177.3V177.2L230.6 177.1H231.9L232 177.2V177.3V203.2V203.3H231.9V203.2H231.7V177.4H230.7V203H231.9V203.2H231.7H231.9Z" fill="#22576F"/>
<path d="M206.1 177.3C206.1 184.4 209 190.9 213.7 195.5C218.4 200.2 224.8 203.1 231.9 203.1L232 203.2L231.9 203.3C217.5 203.3 205.9 191.6 205.9 177.3L206 177.2L206.1 177.3Z" fill="#22576F"/>
<path d="M230.2 40.6V40.7H228.9H228.8V40.6V16.1V16H228.9H230.2H230.3V16.1V40.6V40.7H230.2V40.6H230V16.2H229V40.5H230.2V40.6H230H230.2Z" fill="#22576F"/>
<path d="M205.8 16.1C205.8 22.8 208.5 28.9 212.9 33.3C217.3 37.7 223.4 40.4 230.1 40.4L230.2 40.5L230.1 40.6C216.5 40.6 205.5 29.6 205.5 16L205.6 15.9L205.8 16.1Z" fill="#22576F"/>
<path d="M189.4 244V243.8H190.7L190.8 243.9V244V267V267.1H190.7H189.4H189.3V267V244V243.9L189.4 243.8V244H189.5V266.9H190.5V244.1H189.4V244H189.5H189.4Z" fill="#22576F"/>
<path d="M212.3 267C212.3 260.7 209.7 254.9 205.6 250.8C201.5 246.7 195.7 244.1 189.4 244.1L189.3 244L189.4 243.9C202.2 243.9 212.6 254.3 212.6 267.1L212.5 267.2L212.3 267Z" fill="#22576F"/>
<path d="M217.9 106C217.9 103.7 217.3 101.5 216.2 99.6V99.4H216.4C217.5 101.4 218.2 103.6 218.2 105.9L218.1 106H217.9Z" fill="#22576F"/>
<path d="M219.9 99.5C218.8 101.5 218.2 103.7 218.2 105.9L218.1 106L218 105.9C218 103.6 218.6 101.3 219.8 99.4H220L219.9 99.5Z" fill="#22576F"/>
<path d="M205.1 106L205 105.8L216.2 99.4H216.3H216.4L217 100.5V100.6V100.7L205.8 107.2L205.6 107.1L205 106V105.8L205.1 106L205.2 105.9L205.7 106.9L216.7 100.5L216.2 99.6L205.1 106.1V106L205.2 105.9L205.1 106Z" fill="#22576F"/>
<path d="M231 106L230.9 106.1L219.8 99.6L219.3 100.5L230.3 106.9L230.9 105.9L231 106L230.9 106.1L231 106H231.1L230.5 107.1L230.3 107.2L219.1 100.7L219 100.5L219.6 99.4H219.7H219.8L231 105.8L231.1 105.9V106H231Z" fill="#22576F"/>
<path d="M63.6999 56.8V56.7L84.8999 68.9L84.9999 69V69.1L84.2999 70.2H84.1999L62.9999 58L62.8999 57.9V57.8L63.5999 56.7H63.6999V56.8L63.7999 56.9L63.1999 57.8L84.1999 69.9L84.6999 69.1L63.5999 56.9L63.6999 56.8L63.7999 56.9L63.6999 56.8Z" fill="#22576F"/>
<path d="M63.7001 81.1C72.4001 81.1 80.4001 76.5 84.8001 68.9H85.0001V69.1C80.6001 76.7 72.5001 81.4 63.7001 81.4L63.6001 81.3L63.7001 81.1Z" fill="#22576F"/>
<path d="M180 21.2V21H203L203.1 21.1L203.2 21.2V22.4L203.1 22.5H203H180H179.9V22.4V21.2V21.1L180 21V21.2H180.1V22.3H202.9V21.3H180V21.2H180.1H180Z" fill="#22576F"/>
<path d="M180 44.1C186.3 44.1 192.1 41.5 196.2 37.4C200.3 33.3 202.9 27.5 202.9 21.2L203 21.1L203.1 21.2C203.1 34 192.7 44.4 179.9 44.4L179.8 44.3L180 44.1Z" fill="#22576F"/>
<path d="M189.4 267V267.1H188.1V268.3H189.3V267H189.4V267.1V267H189.5V268.4V268.5L189.4 268.6H188L187.9 268.5L187.8 268.4V267L187.9 266.9H188H189.4H189.5V267H189.4Z" fill="#22576F"/>
<path d="M212.4 267V266.9H236.1H236.2V267V268.4V268.5L236.1 268.6H212.4V268.5L212.3 268.4V267L212.4 266.9V267H212.6V268.3H236V267.1H212.4V267H212.6H212.4Z" fill="#22576F"/>
<path d="M202.2 65.3H203.8L203.9 65.5L203.8 65.6H202.2L202.1 65.5L202.2 65.3Z" fill="#22576F"/>
<path d="M204.9 65.3H233.9L234 65.5L233.9 65.6H204.9L204.8 65.5L204.9 65.3Z" fill="#22576F"/>
<path d="M202.2 71.3H203.8L203.9 71.4L203.8 71.5H202.2L202.1 71.4L202.2 71.3Z" fill="#22576F"/>
<path d="M204.9 71.3H233.9L234 71.4L233.9 71.5H204.9L204.8 71.4L204.9 71.3Z" fill="#22576F"/>
<path d="M138.8 45.5V19.6L138.9 19.5L139.1 19.6V45.5L138.9 45.6L138.8 45.5Z" fill="#22576F"/>
<path d="M117.2 45.5V21.8L117.3 21.7L117.5 21.8V45.5L117.3 45.6L117.2 45.5Z" fill="#22576F"/>
<path d="M117.2 20.7V19.6L117.3 19.5L117.5 19.6V20.7L117.3 20.8L117.2 20.7Z" fill="#22576F"/>
<path d="M110 33.9V32.5L110.2 32.4L110.3 32.5V33.9L110.2 34L110 33.9Z" fill="#22576F"/>
<path d="M110 31.2V21.8L110.2 21.7L110.3 21.8V31.2L110.2 31.3L110 31.2Z" fill="#22576F"/>
<path d="M110 20.7V19.6L110.2 19.5L110.3 19.6V20.7L110.2 20.8L110 20.7Z" fill="#22576F"/>
<path d="M106.8 19.6L109.9 31L112.3 31.7L112.4 31.8L112.3 31.9L108.4 33.3L110.6 33.9L110.7 34L113.7 45.4L113.6 45.6L113.5 45.5L110.4 34.1L108 33.4L107.9 33.3L108 33.1L111.9 31.8L109.7 31.2L109.6 31.1L106.6 19.7L106.7 19.5L106.8 19.6Z" fill="#22576F"/>
<path d="M131.6 45.5V21.8L131.7 21.7L131.9 21.8V45.5L131.7 45.6L131.6 45.5Z" fill="#22576F"/>
<path d="M131.6 20.7V19.6L131.7 19.5L131.9 19.6V20.7L131.7 20.8L131.6 20.7Z" fill="#22576F"/>
<path d="M124.4 45.5V21.8L124.5 21.7L124.7 21.8V45.5L124.5 45.6L124.4 45.5Z" fill="#22576F"/>
<path d="M124.4 20.7V19.6L124.5 19.5L124.7 19.6V20.7L124.5 20.8L124.4 20.7Z" fill="#22576F"/>
<path d="M68.3002 53.9V53.8L86.9002 64.5L87.4002 63.7L68.9002 53L68.4002 54L68.3002 53.9V53.8V53.9L68.2002 53.8L68.8002 52.8L68.9002 52.7H69.0002L87.7002 63.5V63.6V63.7L87.1002 64.8H86.9002L68.2002 54V53.8L68.3002 53.9Z" fill="#22576F"/>
<path d="M86.8999 64.6C88.7999 61.3 89.7999 57.6 89.7999 53.9L89.8999 53.8L89.9999 53.9C89.9999 57.7 88.9999 61.5 87.0999 64.8H86.8999V64.6Z" fill="#22576F"/>
<path d="M17.6 128.8V128.6H18.7V111.6H17.7V128.8H17.6V128.6V128.8H17.5V111.5V111.4H17.6H18.9L19 111.5V128.8H18.9V128.9H17.6L17.5 128.8H17.6Z" fill="#22576F"/>
<path d="M50.8998 128.8V128.6H51.9998V111.6H50.9998V128.8H50.8998V128.6V128.8H50.7998V111.5V111.4H50.8998H52.0998H52.1998L52.2998 111.5V128.8H52.1998L52.0998 128.9H50.8998L50.7998 128.8H50.8998Z" fill="#22576F"/>
<path d="M17.5999 128.6C22.2999 128.6 26.5999 126.7 29.6999 123.6C32.7999 120.5 34.6999 116.2 34.6999 111.5L34.7999 111.4L34.8999 111.5C34.8999 121.1 27.0999 128.9 17.4999 128.9L17.3999 128.8L17.5999 128.6Z" fill="#22576F"/>
<path d="M35.0002 111.5C35.0002 116.2 36.9002 120.5 40.0002 123.6C43.1002 126.7 47.4002 128.6 52.1002 128.6L52.2002 128.7L52.1002 128.8C42.5002 128.8 34.7002 121 34.7002 111.4L34.8002 111.3L35.0002 111.5Z" fill="#22576F"/>
<path d="M202.2 103.4L202.1 103.3L223.2 91.2L222.7 90.3L201.7 102.4L202.3 103.4H202.2L202.1 103.3L202.2 103.4L202.1 103.5L201.4 102.4V102.3L201.5 102.2L222.7 90H222.8H222.9L223.5 91.1V91.2L223.4 91.3L202.2 103.5H202.1L202.2 103.4Z" fill="#22576F"/>
<path d="M223.3 91.3C219 83.8 210.9 79.1 202.2 79.1L202.1 79L202.2 78.9C211 78.9 219.1 83.6 223.5 91.2V91.4L223.3 91.3Z" fill="#22576F"/>
<path d="M188 172.8V172.7H189.4L189.5 172.8V176.1V176.2H189.4H188H187.9L187.8 176.1V172.8H187.9L188 172.7V172.8H188.1V176H189.3V173H188V172.8H188.1H188Z" fill="#22576F"/>
<path d="M200.2 172.8V172.7H201.6L201.7 172.8H201.8V176.1L201.7 176.2H201.6H200.2H200.1V176.1V172.8L200.2 172.7V172.8H200.3V176H201.5V173H200.2V172.8H200.3H200.2Z" fill="#22576F"/>
<path d="M189.4 175.2H200.2L200.3 175.4L200.2 175.5H189.4L189.3 175.4L189.4 175.2Z" fill="#22576F"/>
<path d="M189.4 174.5H200.2L200.3 174.6L200.2 174.8H189.4L189.3 174.6L189.4 174.5Z" fill="#22576F"/>
<path d="M188.7 168.7H201.6L201.8 168.8L201.6 168.9H188.7L188.6 168.8L188.7 168.7Z" fill="#22576F"/>
<path d="M14.3998 189.8V189.6H15.8998L15.9998 189.7V189.8V193V193.1H15.8998H14.3998H14.2998V193V189.8V189.7L14.3998 189.6V189.8H14.5998V192.9H15.6998V189.9H14.3998V189.8H14.5998H14.3998Z" fill="#22576F"/>
<path d="M71.9999 189.8V189.6H73.3999L73.4999 189.7L73.5999 189.8V193L73.4999 193.1H73.3999H71.9999H71.8999V193V189.8V189.7L71.9999 189.6V189.8H72.0999V192.9H73.2999V189.9H71.9999V189.8H72.0999H71.9999Z" fill="#22576F"/>
<path d="M30.9999 189.8V189.6H32.3999L32.4999 189.7V189.8V193V193.1H32.3999H30.9999H30.8999V193V189.8V189.7L30.9999 189.6V189.8H31.0999V192.9H32.2999V189.9H30.9999V189.8H31.0999H30.9999Z" fill="#22576F"/>
<path d="M15.9002 192.2H31.0002L31.1002 192.3L31.0002 192.4H15.9002L15.7002 192.3L15.9002 192.2Z" fill="#22576F"/>
<path d="M15.9002 191.4H31.0002L31.1002 191.6L31.0002 191.7H15.9002L15.7002 191.6L15.9002 191.4Z" fill="#22576F"/>
<path d="M32.3998 192.2H71.9998L72.0998 192.3L71.9998 192.4H32.3998L32.2998 192.3L32.3998 192.2Z" fill="#22576F"/>
<path d="M32.3998 191.4H71.9998L72.0998 191.6L71.9998 191.7H32.3998L32.2998 191.6L32.3998 191.4Z" fill="#22576F"/>
<path d="M15.1 185.6H72.7L72.9 185.7L72.7 185.8H15.1L15 185.7L15.1 185.6Z" fill="#22576F"/>
<path d="M146.7 91.3V91.5H122.4V107H146.6V91.3H146.7V91.5V91.3H146.8V107.1V107.2H146.7H122.3H122.2L122.1 107.1V91.3L122.2 91.2H122.3H146.7H146.8V91.3H146.7Z" fill="#22576F"/>
<path d="M167.6 64H167.5C167.5 60.8 170.1 58.1 173.4 58.1C176.6 58.1 179.3 60.7 179.3 64C179.3 67.2 176.7 69.9 173.4 69.9C170.2 69.9 167.5 67.3 167.5 64H167.6H167.7C167.7 65.6 168.3 67 169.3 68C170.3 69 171.7 69.6 173.3 69.6C174.9 69.6 176.3 69 177.3 68C178.3 67 178.9 65.6 178.9 64C178.9 62.4 178.3 61 177.3 60C176.3 59 174.9 58.4 173.3 58.4C171.7 58.4 170.3 59 169.3 60C168.3 61 167.7 62.4 167.7 64H167.6Z" fill="#22576F"/>
<path d="M171.9 64H171.8C171.8 63.1 172.5 62.4 173.4 62.4C174.3 62.4 175 63.1 175 64C175 64.9 174.3 65.6 173.4 65.6C172.5 65.6 171.8 64.9 171.8 64H171.9H172C172 64.7 172.6 65.4 173.4 65.4C174.1 65.4 174.8 64.8 174.8 64C174.8 63.3 174.2 62.6 173.4 62.6C172.7 62.6 172 63.2 172 64H171.9Z" fill="#22576F"/>
<path d="M179.1 64.1H174.8L174.7 64L174.8 63.9H179.1L179.2 64L179.1 64.1Z" fill="#22576F"/>
<path d="M171.9 64.1H167.6L167.5 64L167.6 63.9H171.9L172 64L171.9 64.1Z" fill="#22576F"/>
<path d="M173.2 69.7V65.5L173.4 65.3L173.5 65.5V69.7L173.4 69.9L173.2 69.7Z" fill="#22576F"/>
<path d="M173.2 62.5V58.2L173.4 58.1L173.5 58.2V62.5L173.4 62.6L173.2 62.5Z" fill="#22576F"/>
<path d="M166.1 56.8V56.7H180.6H180.7V56.8V77L180.6 77.1H166.1V77H166V56.8L166.1 56.7V56.8H166.3V76.8H180.4V56.9H166.1V56.8H166.3H166.1Z" fill="#22576F"/>
<path d="M166.3 171.5V171.6H126.1V180H166.2V171.5H166.3V171.6V171.5H166.4V180.1V180.2L166.3 180.3H126L125.9 180.2V180.1V171.5V171.4H126H166.3H166.4V171.5H166.3Z" fill="#22576F"/>
<path d="M12.6 138.2V138.1H29.9H30V138.2V184.3V184.4H29.9H12.6H12.5V184.3V138.2V138.1H12.6V138.2H12.8V184.1H29.8V138.3H12.6V138.2H12.8H12.6Z" fill="#22576F"/>
<path d="M17.2001 152.6V152.5H18.3001H18.4001V152.6V169.9V170H18.3001H17.2001H17.1001V169.9V152.6V152.5H17.2001V152.6H17.3001V169.8H18.2001V152.7H17.2001V152.6H17.3001H17.2001Z" fill="#22576F"/>
<path d="M23.4999 153.9V153.8H27.8999L27.9999 153.9V168.3L27.8999 168.4V168.5H23.4999V168.4L23.3999 168.3V153.9L23.4999 153.8V153.9H23.6999V168.2H27.6999V154.1H23.4999V153.9H23.6999H23.4999Z" fill="#22576F"/>
<path d="M17.2 158.7H15.7V163.8H17.2L17.3 163.9L17.2 164.1H15.6L15.5 164V163.9V158.5L15.6 158.4H17.2L17.3 158.5L17.2 158.7Z" fill="#22576F"/>
<path d="M36.3998 155.1H29.8998L29.7998 154.9L29.8998 154.8H36.3998L36.4998 154.9L36.3998 155.1Z" fill="#22576F"/>
<path d="M18.3002 163.8H19.8002V158.7H18.3002L18.2002 158.5L18.3002 158.4H19.9002L20.0002 158.5V163.9V164L19.9002 164.1H18.3002L18.2002 163.9L18.3002 163.8Z" fill="#22576F"/>
<path d="M36.3998 167.7H29.8998L29.7998 167.5L29.8998 167.4H36.3998L36.4998 167.5L36.3998 167.7Z" fill="#22576F"/>
<path d="M36.3998 154.2V154.1H37.4998L37.5998 154.2V168.3H37.4998V168.4H36.3998L36.2998 168.3V154.2V154.1H36.3998V154.2H36.4998V168.1H37.2998V154.3H36.3998V154.2H36.4998H36.3998Z" fill="#22576F"/>
<path d="M24.7998 150.4V150.5C24.5998 150.6 24.4998 150.7 24.4998 151V151.1C24.5998 151.3 24.6998 151.4 24.9998 151.4H25.0998C25.5998 151.3 26.1998 151.2 26.7998 151.1C26.9998 151.1 27.0998 150.9 27.0998 150.8C27.0998 150.7 26.9998 150.5 26.8998 150.5C26.5998 150.4 26.2998 150.3 25.8998 150.3C25.5998 150.3 25.1998 150.4 24.8998 150.5L24.7998 150.4V150.3C25.1998 150.2 25.4998 150.1 25.8998 150.1C26.2998 150.1 26.5998 150.2 26.9998 150.3C27.1998 150.4 27.3998 150.6 27.3998 150.8C27.3998 151.1 27.1998 151.4 26.7998 151.4C26.2998 151.4 25.6998 151.5 25.1998 151.7H24.9998C24.6998 151.7 24.3998 151.5 24.2998 151.2V151C24.2998 150.7 24.4998 150.4 24.7998 150.3V150.4Z" fill="#22576F"/>
<path d="M164.7 55.5H104.3L104.1 55.4L104.3 55.2H164.7L164.8 55.4L164.7 55.5Z" fill="#22576F"/>
<path d="M104.1 78.4V55.4L104.3 55.2L104.4 55.4V78.4L104.3 78.5L104.1 78.4Z" fill="#22576F"/>
<path d="M164.6 78.4V55.4L164.7 55.2L164.8 55.4V78.4L164.7 78.5L164.6 78.4Z" fill="#22576F"/>
<path d="M161.7 78.4V58.9L161.8 58.8L162 58.9V78.4L161.8 78.5L161.7 78.4Z" fill="#22576F"/>
<path d="M164.7 58.4H104.3L104.1 58.2L104.3 58.1H164.7L164.8 58.2L164.7 58.4Z" fill="#22576F"/>
<path d="M164.7 78.5H104.3L104.1 78.4L104.3 78.3H164.7L164.8 78.4L164.7 78.5Z" fill="#22576F"/>
<path d="M143.5 78.4V59.7L143.6 59.5L143.7 59.7V78.4L143.6 78.5L143.5 78.4Z" fill="#22576F"/>
<path d="M125.2 78.4V59.7L125.4 59.5L125.5 59.7V78.4L125.4 78.5L125.2 78.4Z" fill="#22576F"/>
<path d="M161.8 59.8H107.1L107 59.7L107.1 59.5H161.8L162 59.7L161.8 59.8Z" fill="#22576F"/>
<path d="M104.3 58.8H107.1L107.3 58.9L107.1 59.1H104.3L104.1 58.9L104.3 58.8Z" fill="#22576F"/>
<path d="M164.7 59.1H161.8L161.7 58.9L161.8 58.8H164.7L164.8 58.9L164.7 59.1Z" fill="#22576F"/>
<path d="M107 78.4V58.9L107.1 58.8L107.3 58.9V78.4L107.1 78.5L107 78.4Z" fill="#22576F"/>
<path d="M143.6 133C144.9 137.8 149.2 140.9 153.9 140.9C154.8 140.9 155.7 140.8 156.7 140.5C161.5 139.2 164.6 134.9 164.6 130.2C164.6 129.3 164.5 128.4 164.2 127.4L164.3 127.2L164.5 127.3C164.8 128.2 164.9 129.2 164.9 130.1C164.9 134.9 161.7 139.3 156.8 140.6C155.9 140.9 154.9 141 154 141C149.2 141 144.8 137.8 143.5 132.9L143.6 132.7V133Z" fill="#22576F"/>
<path d="M146.4 132.2C147.3 135.7 150.5 138 153.9 138C154.6 138 155.2 137.9 155.9 137.7C159.4 136.8 161.7 133.6 161.7 130.2C161.7 129.5 161.6 128.9 161.4 128.2L161.5 128L161.7 128.1C161.9 128.8 162 129.5 162 130.2C162 133.8 159.6 137 156 138C155.3 138.2 154.6 138.3 153.9 138.3C150.3 138.3 147.1 135.9 146.1 132.3L146.2 132.1L146.4 132.2Z" fill="#22576F"/>
<path d="M146.1 132.3L143.4 121.9V121.7L143.6 121.8L146.4 132.2L146.3 132.4L146.1 132.3Z" fill="#22576F"/>
<path d="M158.9 117.7L161.7 128.1L161.6 128.3L161.4 128.2L158.6 117.8L158.7 117.6L158.9 117.7Z" fill="#22576F"/>
<path d="M143.4 133L140.6 122.6L140.7 122.5H140.8L143.6 133L143.5 133.1L143.4 133Z" fill="#22576F"/>
<path d="M140.7 122.5L161.5 116.9L161.7 117L161.6 117.1L140.7 122.7L140.6 122.6L140.7 122.5Z" fill="#22576F"/>
<path d="M161.7 117L164.5 127.4L164.4 127.5L164.2 127.4L161.4 117L161.5 116.9L161.7 117Z" fill="#22576F"/>
<path d="M146 130.8C146.9 134.3 150.1 136.6 153.5 136.6C154.2 136.6 154.8 136.5 155.5 136.3C159 135.4 161.3 132.2 161.3 128.8C161.3 128.1 161.2 127.5 161 126.8L161.1 126.6L161.3 126.7C161.5 127.4 161.6 128.1 161.6 128.8C161.6 132.4 159.2 135.6 155.6 136.6C154.9 136.8 154.2 136.9 153.5 136.9C149.9 136.9 146.7 134.5 145.7 130.9L145.8 130.7L146 130.8Z" fill="#22576F"/>
<path d="M161.3 177.3V177.4H131L130.9 177.3V176.5V176.4H131H161.3L161.4 176.5V177.3H161.3V177.4V177.3H161.1V176.7H131.1V177.1H161.3V177.3H161.1H161.3Z" fill="#22576F"/>
<path d="M141.7 176.5V173.7V173.6L141.8 173.5H150.5V173.6L150.6 173.7V176.5L150.5 176.7L150.3 176.5V173.8H141.9V176.5L141.8 176.7L141.7 176.5Z" fill="#22576F"/>
<path d="M150.6 177.3V178.7L150.5 178.8H141.8H141.7V178.7V177.3L141.8 177.1L141.9 177.3V178.6H150.3V177.3L150.5 177.1L150.6 177.3Z" fill="#22576F"/>
<path d="M76.3001 177.3C78.4001 179.4 81.1001 180.4 83.8001 180.4C86.5001 180.4 89.3001 179.4 91.3001 177.3C93.4001 175.2 94.4001 172.5 94.4001 169.8C94.4001 167.1 93.4001 164.3 91.3001 162.3V162H91.5001C93.6001 164.1 94.7001 166.9 94.7001 169.7C94.7001 172.5 93.6001 175.3 91.5001 177.4C89.4001 179.5 86.6001 180.6 83.8001 180.6C81.0001 180.6 78.2001 179.5 76.1001 177.4V177.2L76.3001 177.3Z" fill="#22576F"/>
<path d="M78.3001 175.2C79.8001 176.7 81.8001 177.5 83.8001 177.5C85.8001 177.5 87.8001 176.7 89.3001 175.2C90.8001 173.7 91.6001 171.7 91.6001 169.7C91.6001 167.7 90.8001 165.7 89.3001 164.2V164H89.5001C91.1001 165.6 91.9001 167.6 91.9001 169.7C91.9001 171.8 91.1001 173.8 89.5001 175.4C87.9001 177 85.9001 177.8 83.8001 177.8C81.7001 177.8 79.7001 177 78.1001 175.4V175.2H78.3001Z" fill="#22576F"/>
<path d="M89.3002 164.2L81.7002 156.6V156.4H81.9002L89.5002 164V164.2H89.3002Z" fill="#22576F"/>
<path d="M70.7 167.6L78.3 175.2V175.4H78.1L70.5 167.8V167.6H70.7Z" fill="#22576F"/>
<path d="M91.3002 162.2L83.7002 154.5V154.4H83.9002L91.5002 162V162.2H91.3002Z" fill="#22576F"/>
<path d="M83.8999 154.5L68.5999 169.8H68.3999V169.6L83.6999 154.4H83.8999V154.5Z" fill="#22576F"/>
<path d="M68.5999 169.6L76.2999 177.3V177.4H76.0999L68.3999 169.8V169.6H68.5999Z" fill="#22576F"/>
<path d="M77.3001 174.2C78.8001 175.7 80.8001 176.5 82.8001 176.5C84.8001 176.5 86.8001 175.7 88.3001 174.2C89.8001 172.7 90.6001 170.7 90.6001 168.7C90.6001 166.7 89.8001 164.7 88.3001 163.2V163H88.5001C90.1001 164.6 90.9001 166.6 90.9001 168.7C90.9001 170.8 90.1001 172.8 88.5001 174.4C86.9001 176 84.9001 176.8 82.8001 176.8C80.7001 176.8 78.7001 176 77.1001 174.4V174.2H77.3001Z" fill="#22576F"/>
<path d="M104.7 127.4C104.5 128.3 104.3 129.3 104.3 130.2C104.3 134.9 107.4 139.2 112.2 140.5C113.1 140.7 114.1 140.9 115 140.9C119.7 140.9 124 137.8 125.3 133L125.5 132.9L125.6 133.1C124.3 138 119.9 141.2 115.1 141.2C114.2 141.2 113.2 141.1 112.3 140.8C107.4 139.5 104.2 135.1 104.2 130.3C104.2 129.4 104.3 128.4 104.6 127.5L104.8 127.4H104.7Z" fill="#22576F"/>
<path d="M107.5 128.2C107.3 128.9 107.2 129.6 107.2 130.2C107.2 133.6 109.5 136.8 113 137.7C113.7 137.9 114.4 138 115 138C118.4 138 121.6 135.7 122.5 132.2L122.7 132.1L122.8 132.3C121.8 135.9 118.6 138.3 115 138.3C114.3 138.3 113.6 138.2 112.9 138C109.3 137 106.9 133.8 106.9 130.2C106.9 129.5 107 128.8 107.2 128.1L107.4 128L107.5 128.2Z" fill="#22576F"/>
<path d="M122.6 132.2L125.4 121.8L125.5 121.7L125.6 121.9L122.8 132.3L122.7 132.4L122.6 132.2Z" fill="#22576F"/>
<path d="M110.3 117.8L107.5 128.2L107.4 128.3L107.3 128.1L110.1 117.7L110.2 117.6L110.3 117.8Z" fill="#22576F"/>
<path d="M125.4 133L128.2 122.5H128.3L128.4 122.6L125.6 133L125.4 133.1V133Z" fill="#22576F"/>
<path d="M128.2 122.7L107.4 117.1L107.3 117L107.4 116.9L128.3 122.5L128.4 122.6L128.2 122.7Z" fill="#22576F"/>
<path d="M107.5 117L104.7 127.4L104.6 127.5L104.5 127.4L107.3 117L107.4 116.9L107.5 117Z" fill="#22576F"/>
<path d="M107.9 126.8C107.7 127.5 107.6 128.2 107.6 128.8C107.6 132.2 109.9 135.4 113.4 136.3C114.1 136.5 114.8 136.6 115.4 136.6C118.8 136.6 122 134.3 122.9 130.8L123.1 130.7L123.2 130.9C122.2 134.5 119 136.9 115.4 136.9C114.7 136.9 114 136.8 113.3 136.6C109.7 135.6 107.3 132.4 107.3 128.8C107.3 128.1 107.4 127.4 107.6 126.7L107.8 126.6L107.9 126.8Z" fill="#22576F"/>
<path d="M20.1001 75.1H16.7001L16.6001 75L16.7001 74.9H20.1001L20.3001 75L20.1001 75.1Z" fill="#22576F"/>
<path d="M20.1 74.9L20.2 74.8L20.3 74.7L20.4 74.8C20.4 75 20.2 75.2 20 75.2V75L20.1 74.9Z" fill="#22576F"/>
<path d="M20.3001 74.3L20.2001 74.2L20.1001 74.1L20.2001 74C20.4001 74 20.6001 74.2 20.6001 74.4L20.5001 74.5L20.3001 74.3Z" fill="#22576F"/>
<path d="M20.2998 74.7V74.3L20.3998 74.2L20.4998 74.3V74.7L20.3998 74.8L20.2998 74.7Z" fill="#22576F"/>
<path d="M16.7 74.1L16.9 74.2L17 74.3L16.9 74.4C16.8 74.4 16.6 74.3 16.5 74.2V74L16.7 74.1Z" fill="#22576F"/>
<path d="M16.9 74.9L16.7 75H16.5V74.8C16.6 74.7 16.7 74.6 16.9 74.6L17 74.7L16.9 74.9Z" fill="#22576F"/>
<path d="M18.4998 74.9H16.8998L16.7998 74.8L16.8998 74.6H18.4998L18.6998 74.8L18.4998 74.9Z" fill="#22576F"/>
<path d="M16.8998 74.1H18.4998L18.6998 74.3L18.4998 74.4H16.8998L16.7998 74.3L16.8998 74.1Z" fill="#22576F"/>
<path d="M18.6 74.5L18.5 74.4V74.2H18.6L18.8 74.3V74.5H18.6Z" fill="#22576F"/>
<path d="M18.6001 74.6V74.4L18.7001 74.3L18.8001 74.4V74.6L18.7001 74.7L18.6001 74.6Z" fill="#22576F"/>
<path d="M16.4998 73.9H16.6998L16.7998 74L16.6998 74.1C16.5998 74.1 16.4998 74.1 16.3998 74L16.2998 73.8L16.4998 73.9Z" fill="#22576F"/>
<path d="M16.6998 75.1H16.4998L16.2998 75L16.3998 74.8C16.4998 74.8 16.5998 74.7 16.6998 74.7L16.7998 74.8L16.6998 75.1Z" fill="#22576F"/>
<path d="M16.7001 73.9H20.1001L20.3001 74.1L20.1001 74.2H16.7001L16.6001 74.1L16.7001 73.9Z" fill="#22576F"/>
<path d="M16.5999 74.1C16.4999 74 16.2999 73.9 16.1999 73.9C16.0999 73.9 15.8999 73.9 15.7999 74C15.6999 74.1 15.5999 74.3 15.5999 74.4C15.5999 74.5 15.5999 74.7 15.6999 74.8C15.7999 74.9 15.9999 75 16.0999 75C16.1999 75 16.3999 75 16.4999 74.9H16.6999V75.1C16.4999 75.2 16.2999 75.3 16.1999 75.3C15.9999 75.3 15.7999 75.2 15.5999 75C15.4999 74.8 15.3999 74.6 15.3999 74.5C15.3999 74.3 15.4999 74.1 15.6999 73.9C15.8999 73.8 16.0999 73.7 16.1999 73.7C16.3999 73.7 16.5999 73.8 16.7999 74V74.2L16.5999 74.1Z" fill="#22576F"/>
<path d="M16.6001 74.2C16.5001 74.1 16.4001 74.1 16.3001 74.1C16.2001 74.1 16.1001 74.1 16.0001 74.2C15.9001 74.3 15.9001 74.4 15.9001 74.5C15.9001 74.6 15.9001 74.7 16.0001 74.8C16.1001 74.9 16.2001 74.9 16.3001 74.9C16.4001 74.9 16.5001 74.9 16.6001 74.8H16.8001V75C16.7001 75.1 16.5001 75.2 16.3001 75.2C16.1001 75.2 15.9001 75.1 15.8001 75C15.7001 74.9 15.6001 74.7 15.6001 74.5C15.6001 74.3 15.7001 74.1 15.8001 74C15.9001 73.9 16.1001 73.8 16.3001 73.8C16.5001 73.8 16.7001 73.9 16.8001 74V74.2H16.6001Z" fill="#22576F"/>
<path d="M18.5 74.7L18.6 74.5H18.8V74.7L18.6 74.9H18.5V74.7Z" fill="#22576F"/>
<path d="M26.9999 67.2H28.3999L28.4999 67.3L28.3999 67.4H26.9999L26.8999 67.3L26.9999 67.2Z" fill="#22576F"/>
<path d="M28.3999 81.8H26.9999L26.8999 81.7L26.9999 81.6H28.3999L28.4999 81.7L28.3999 81.8Z" fill="#22576F"/>
<path d="M27.8001 79.8C28.0001 79.8 28.2001 79.6 28.2001 79.4L28.3001 79.3L28.4001 79.4C28.4001 79.8 28.1001 80 27.7001 80L27.6001 79.9L27.8001 79.8Z" fill="#22576F"/>
<path d="M20.5999 78.6C22.8999 79.3 25.3999 79.7 27.7999 79.8L27.8999 79.9L27.7999 80C25.2999 79.9 22.8999 79.5 20.4999 78.8L20.3999 78.6H20.5999Z" fill="#22576F"/>
<path d="M20.5999 70.5C18.9999 71 17.7999 72.4 17.5999 74.1L17.4999 74.2L17.3999 74.1C17.5999 72.3 18.7999 70.8 20.4999 70.3L20.6999 70.4L20.5999 70.5Z" fill="#22576F"/>
<path d="M17.5999 75C17.7999 76.7 18.8999 78.1 20.5999 78.6L20.6999 78.8L20.4999 78.9C18.7999 78.4 17.4999 76.9 17.3999 75.1L17.4999 75H17.5999Z" fill="#22576F"/>
<path d="M27.7999 69.3C25.2999 69.4 22.8999 69.8 20.5999 70.5L20.3999 70.4L20.4999 70.2C22.8999 69.5 25.2999 69.1 27.7999 69L27.8999 69.1L27.7999 69.3Z" fill="#22576F"/>
<path d="M28.2002 69.7C28.2002 69.5 28.0002 69.3 27.8002 69.3L27.7002 69.2L27.8002 69.1C28.2002 69.1 28.5002 69.4 28.5002 69.8L28.4002 69.9L28.2002 69.7Z" fill="#22576F"/>
<path d="M28.5002 69.7V79.4L28.4002 79.5L28.2002 79.4V69.7L28.4002 69.5L28.5002 69.7Z" fill="#22576F"/>
<path d="M11.2001 81.7V81.6H28.4001C29.5001 81.6 30.4001 80.7 30.4001 79.6V69.5C30.4001 68.4 29.5001 67.5 28.4001 67.5H11.3001V81.8H11.2001V81.7H11.1001V67.3V67.2H11.2001H28.4001C29.7001 67.2 30.7001 68.2 30.7001 69.5V79.6C30.7001 80.9 29.7001 81.9 28.4001 81.9H11.2001V81.7Z" fill="#22576F"/>
<path d="M18.8001 73.9C18.6001 73.9 18.5001 74 18.3001 74.1H18.1001V73.9C18.3001 73.7 18.5001 73.6 18.7001 73.6L18.8001 73.7V73.9Z" fill="#22576F"/>
<path d="M18.3998 74.9C18.4998 75 18.6998 75.1 18.8998 75.1L18.9998 75.2L18.8998 75.3C18.6998 75.3 18.3998 75.2 18.2998 75V74.8L18.3998 74.9Z" fill="#22576F"/>
<path d="M18.7998 75.1C18.9998 75.1 19.0998 75 19.2998 74.9H19.4998V75.1C19.2998 75.3 19.0998 75.4 18.8998 75.4L18.7998 75.3V75.1Z" fill="#22576F"/>
<path d="M19.3002 74.1C19.2002 74 19.0002 73.9 18.8002 73.9L18.7002 73.8L18.8002 73.7C19.0002 73.7 19.3002 73.8 19.4002 74V74.2L19.3002 74.1Z" fill="#22576F"/>
<path d="M27.3001 79.3C27.4001 79.3 27.5001 79.2 27.5001 79.1L27.6001 79L27.7001 79.1C27.7001 79.4 27.5001 79.6 27.2001 79.6L27.1001 79.5L27.3001 79.3Z" fill="#22576F"/>
<path d="M21.7001 78.9C23.2001 79.2 24.7001 79.4 26.2001 79.4C26.6001 79.4 26.9001 79.4 27.3001 79.4L27.4001 79.5L27.3001 79.6C26.9001 79.6 26.6001 79.6 26.2001 79.6C24.7001 79.6 23.2001 79.4 21.7001 79.1L21.6001 79L21.7001 78.9Z" fill="#22576F"/>
<path d="M20.6 70.5C20.5 70.5 20.4 70.6 20.2 70.6L20 70.5L20.1 70.3C20.2 70.3 20.4 70.2 20.5 70.2L20.7 70.3L20.6 70.5Z" fill="#22576F"/>
<path d="M20.3001 78.4C20.4001 78.4 20.5001 78.5 20.7001 78.5L20.8001 78.7L20.6001 78.8C20.5001 78.8 20.3001 78.7 20.2001 78.7L20.1001 78.5L20.3001 78.4Z" fill="#22576F"/>
<path d="M27.3001 69.7C26.9001 69.7 26.6001 69.7 26.2001 69.7C24.7001 69.7 23.2001 69.9 21.7001 70.2L21.6001 70.1L21.7001 70C23.2001 69.7 24.7001 69.5 26.2001 69.5C26.6001 69.5 26.9001 69.5 27.3001 69.5L27.4001 69.6L27.3001 69.7Z" fill="#22576F"/>
<path d="M27.5002 69.9C27.5002 69.8 27.4002 69.7 27.3002 69.7L27.2002 69.6L27.3002 69.5C27.6002 69.5 27.8002 69.7 27.8002 70L27.7002 70.1L27.5002 69.9Z" fill="#22576F"/>
<path d="M27.5 79.1V69.9L27.6 69.8L27.8 69.9V79.1L27.6 79.2L27.5 79.1Z" fill="#22576F"/>
<path d="M21.9002 37.9C22.8002 38.2 23.8002 38.3 24.7002 38.3L24.8002 38.4L24.7002 38.5C23.7002 38.5 22.8002 38.4 21.8002 38.1L21.7002 37.9H21.9002Z" fill="#22576F"/>
<path d="M19.7 36.8C20.4 37.3 21.1 37.6 21.9 37.9L22 38.1L21.8 38.2C21 38 20.2 37.6 19.5 37.1V36.9L19.7 36.8Z" fill="#22576F"/>
<path d="M18.9998 36.2C19.1998 36.4 19.3998 36.6 19.6998 36.8V37H19.4998C19.2998 36.8 18.9998 36.6 18.7998 36.4V36.2H18.9998Z" fill="#22576F"/>
<path d="M24.6998 38.3C25.6998 38.3 26.5998 38.2 27.4998 37.9C28.2998 37.7 28.9998 37.3 29.6998 36.8C30.2998 36.3 30.8998 35.7 31.2998 35.1C31.5998 34.5 31.7998 33.9 31.7998 33.3C31.7998 32.7 31.5998 32 31.2998 31.5C30.8998 30.8 30.3998 30.2 29.6998 29.8C28.9998 29.3 28.2998 29 27.4998 28.7C26.5998 28.4 25.5998 28.3 24.6998 28.3C23.6998 28.3 22.7998 28.4 21.8998 28.7C21.0998 28.9 20.3998 29.3 19.6998 29.8C19.4998 30 19.1998 30.2 18.9998 30.4L18.8998 30.3H18.9998V36.5L18.8998 36.6L18.7998 36.5V30.3V30.2C18.9998 30 19.1998 29.8 19.4998 29.6C20.1998 29.1 20.9998 28.7 21.7998 28.5C22.6998 28.2 23.6998 28.1 24.6998 28.1C25.6998 28.1 26.5998 28.2 27.5998 28.5C28.3998 28.7 29.1998 29.1 29.8998 29.6C30.5998 30.1 31.0998 30.7 31.4998 31.4C31.7998 32 31.9998 32.7 31.9998 33.3C31.9998 34 31.7998 34.7 31.4998 35.2C31.0998 35.9 30.4998 36.5 29.8998 37C29.1998 37.5 28.3998 37.9 27.5998 38.1C26.6998 38.4 25.6998 38.5 24.6998 38.5L24.5998 38.4L24.6998 38.3Z" fill="#22576F"/>
<path d="M15.7002 37.2C18.0002 37.3 20.3002 37.6 22.6002 38.1L22.7002 38.2L22.6002 38.3C20.3002 37.9 18.1002 37.6 15.8002 37.4L15.7002 37.3V37.2Z" fill="#22576F"/>
<path d="M16.5002 31.2H16.4002C16.3002 30.7 16.1002 30.2 15.9002 29.7C15.6002 29.2 15.3002 28.7 14.8002 28.4C14.7002 28.3 14.5002 28.3 14.4002 28.3H14.3002L12.2002 28.7L12.1002 28.9V37.6L12.2002 37.8L14.3002 38.2H14.4002C14.6002 38.2 14.7002 38.2 14.8002 38.1C15.3002 37.8 15.7002 37.3 15.9002 36.8C16.1002 36.3 16.3002 35.8 16.4002 35.3C16.5002 34.6 16.6002 34 16.6002 33.3C16.6002 32.6 16.5002 32 16.4002 31.3L16.5002 31.2H16.6002C16.7002 31.9 16.8002 32.5 16.8002 33.2C16.8002 33.9 16.7002 34.6 16.6002 35.2C16.5002 35.7 16.3002 36.2 16.1002 36.7C15.8002 37.3 15.4002 37.8 14.9002 38.1C14.7002 38.2 14.5002 38.3 14.3002 38.3H14.1002L12.0002 38C11.8002 38 11.7002 37.8 11.7002 37.6V28.9C11.7002 28.7 11.8002 28.5 12.0002 28.5L14.1002 28.1H14.3002C14.5002 28.1 14.7002 28.2 14.9002 28.3C15.4002 28.7 15.8002 29.2 16.1002 29.7C16.3002 30.2 16.5002 30.7 16.6002 31.2H16.5002Z" fill="#22576F"/>
<path d="M15.5999 29.1C17.8999 29 20.1999 28.7 22.3999 28.2L22.4999 28.3L22.3999 28.4C20.0999 28.8 17.7999 29.1 15.4999 29.3L15.3999 29.2L15.5999 29.1Z" fill="#22576F"/>
<path d="M13.8998 33.2H13.7998C13.7998 32.8 14.0998 32.5 14.4998 32.5C14.8998 32.5 15.1998 32.8 15.1998 33.2C15.1998 33.6 14.8998 33.9 14.4998 33.9C14.0998 33.9 13.7998 33.6 13.7998 33.2H13.8998H13.9998C13.9998 33.4 14.1998 33.6 14.3998 33.6C14.5998 33.6 14.7998 33.4 14.7998 33.2C14.7998 33 14.5998 32.8 14.3998 32.8C14.1998 32.8 13.9998 33 13.9998 33.2H13.8998Z" fill="#22576F"/>
<path d="M182.2 268.5H182.1V261.8L0.999908 237.6L0.899902 237.5V231.7V231.6H0.999908L188 256.5L188.1 256.6V268.5V268.6L188 268.7H182.2L182.1 268.6V268.5H182.2V268.4H187.8V256.7L1.09991 231.8V237.4L182.2 261.5L182.3 261.6V268.5H182.2V268.4V268.5Z" fill="#22576F"/>
<path d="M241.9 268.5V268.7H236.1L236 268.6V268.5V231.9L236.1 231.8L241.9 232.6L242 232.7V268.5L241.9 268.6V268.7V268.5H241.7V232.8L236.2 232.1V268.4H241.9V268.5H241.7H241.9Z" fill="#22576F"/>
<path d="M233.9 116.6H202.2L202.1 116.5L202.2 116.4H233.9L234 116.5L233.9 116.6Z" fill="#22576F"/>
<path d="M11.2001 100.8H60.4001L60.5001 101L60.4001 101.1H11.2001L11.1001 101L11.2001 100.8Z" fill="#22576F"/>
<path d="M14.3999 222.1V222.3H0.999908L0.899902 222.2V222.1V10.9V10.8H0.999908H204.3L204.4 10.9V12.4H205.7H205.8V12.5V16.1V16.2L205.7 16.3H204.4V19.6L204.3 19.7V19.8H180.1V21.2V21.3H180H176.7H176.6V21.2V19.8H66.5999V45.3H68.2999L68.3999 45.4V45.5V53.9V54H68.2999H63.7999V56.8V56.9H63.6999H60.3999H60.2999L60.1999 56.8V21.5H11.2999V87.4H60.1999V81.3L60.2999 81.2L60.3999 81.1H63.6999L63.7999 81.2V81.3V111.5V111.6H63.6999H52.0999L51.9999 111.5V108.2L52.0999 108.1V108H60.1999V91H11.2999V108H17.5999L17.6999 108.1V108.2V111.5V111.6H17.5999H11.2999V185.6H15.1999L15.2999 185.7V189.8H15.1999V189.9H14.5999V222.1L14.4999 222.2L14.3999 222.3V222.1H14.2999V189.8V189.7L14.3999 189.6H14.9999V185.8H11.1999H11.0999V185.7V111.5V111.4H11.1999H17.4999V108.3H11.1999L11.0999 108.2V90.9V90.8H11.1999H60.3999L60.4999 90.9V108.2H60.3999V108.3H52.2999V111.4H63.5999V81.4H60.4999V87.5L60.3999 87.6V87.7H11.1999L11.0999 87.6V87.5V21.3L11.1999 21.2H60.3999V21.3H60.4999V56.7H63.5999V53.9V53.8H63.6999H68.0999V45.6H66.4999L66.3999 45.5H66.2999V19.6L66.3999 19.5H66.4999H176.7H176.8V19.6V21H179.9V19.6V19.5H180H204.1V16.1L204.2 16H204.3H205.6V12.7H204.3L204.2 12.6L204.1 12.5V11H1.09991V222H14.3999V222.1H14.2999H14.3999Z" fill="#22576F"/>
<path d="M72.7001 185.7H72.9001V189.6H73.4001L73.5001 189.7L73.6001 189.8V192.9H187.8V172.8H187.9L188 172.7H188.6V168.9H180.8V180.1V180.2L180.7 180.3H111.7V185.7V185.8H111.6H72.7001V185.7H72.9001H72.7001V185.6H111.5V180.1V180H111.6H180.6V168.8V168.7H180.7H188.7H188.8V168.8V172.8V172.9L188.7 173H188.1V193V193.1H188H73.4001L73.3001 193V189.9H72.7001L72.6001 189.8V185.7L72.7001 185.6V185.7Z" fill="#22576F"/>
<path d="M206 168.8V168.9H201.8V177.1H205.8V168.8H206V168.9V168.8H206.1V177.3L206 177.4H201.6V177.3H201.5V168.8L201.6 168.7H206H206.1V168.8H206Z" fill="#22576F"/>
<path d="M231.9 168.8H232V177.1H236.1L236.2 177.2V177.3V222H242.5V11H231.7V12.5V12.6L231.6 12.7H230.3V16H231.6H231.7V16.1V19.5H233.9L234 19.6V106H233.9V106.1H231.1V109.2H233.9L234 109.3V126.6H233.9V126.7H202.2L202.1 126.6V109.3V109.2H202.2H204.9V106.1H202.2L202.1 106V103.6H196.2V132.5H233.9V132.6L234 132.7V168.8L233.9 168.9H231.9V168.8H232H231.9V168.7H233.7V132.8H196.1H196L195.9 132.7V103.4L196 103.3H196.1H202.2H202.3V103.4V105.8H205.1L205.2 105.9V106V109.3V109.4H205.1H202.3V126.4H233.7V109.4H231H230.9L230.8 109.3V106L230.9 105.9L231 105.8H233.7V19.8H231.6L231.5 19.7V19.6V16.3H230.2L230.1 16.2L230 16.1V12.5L230.1 12.4H230.2H231.5V10.9V10.8H231.6H242.7H242.8V10.9V222.1V222.2L242.7 222.3H236.1L236 222.2V222.1V177.4H231.9L231.8 177.3H231.7V168.8L231.8 168.7H231.9V168.8Z" fill="#22576F"/>
<path d="M89.9002 45.5H90.0002V53.8H196.1H196.2V53.9V78.8H202.1V45.6H180L179.9 45.5V44.3H176.8V45.5L176.7 45.6H89.9002V45.5H90.0002H89.9002V45.3H176.6V44.2V44.1H176.7H180H180.1V44.2V45.3H202.2L202.3 45.4V45.5V79V79.1H202.2H196.1H196L195.9 79V54H89.9002H89.8002L89.7002 53.9V45.5L89.8002 45.4L89.9002 45.3V45.5Z" fill="#22576F"/>
<path d="M218 70.1C218.7 70.1 219.3 70.7 219.3 71.4C219.3 72.1 218.7 72.7 218 72.7C217.3 72.7 216.7 72.1 216.7 71.4C216.7 70.7 217.3 70.1 218 70.1L218.1 70.2V71.4V71.5H218H217.9V71.4V65.5L218 65.4L218.1 65.5L219.2 68.6V68.7L219.1 68.8H218L217.9 68.7L218 68.6H218.9L218.1 66.4V71.6V71.7H218H217.9V71.6V70.4H218V70.5C217.4 70.5 216.9 71 216.9 71.6C216.9 72.2 217.4 72.7 218 72.7C218.6 72.7 219.1 72.2 219.1 71.6C219.1 71 218.6 70.5 218 70.5L217.9 70.4L218 70.1Z" fill="#22576F"/>
<path d="M137.4 32.5C137.4 31.6 138.1 30.9 139 30.9C139.9 30.9 140.6 31.6 140.6 32.5C140.6 33.4 139.9 34.1 139 34.1C138.1 34.1 137.4 33.4 137.4 32.5L137.5 32.4H138.9H139V32.5V32.6H138.9H117.3L117.2 32.5L117.3 32.4L120.9 31.1H121L121.1 31.2V32.5L121 32.6L120.9 32.5V31.4L118.1 32.4H139H139.1V32.5V32.6H139H137.6V32.5H137.7C137.7 33.2 138.3 33.8 139 33.8C139.7 33.8 140.3 33.2 140.3 32.5C140.3 31.8 139.7 31.2 139 31.2C138.3 31.2 137.7 31.8 137.7 32.5L137.6 32.6L137.4 32.5Z" fill="#22576F"/>
<path d="M231.9 177.4H206L205.8 177.3L206 177.1H231.9L232 177.3L231.9 177.4Z" fill="#22576F"/>
<path d="M231.9 168.9H206L205.8 168.8L206 168.7H231.9L232 168.8L231.9 168.9Z" fill="#22576F"/>
<path d="M230.2 16.3H205.7L205.6 16.1L205.7 16H230.2L230.3 16.1L230.2 16.3Z" fill="#22576F"/>
<path d="M230.2 12.7H205.7L205.6 12.5L205.7 12.4H230.2L230.3 12.5L230.2 12.7Z" fill="#22576F"/>
<path d="M189.4 266.9H212.4L212.6 267L212.4 267.1H189.4L189.3 267L189.4 266.9Z" fill="#22576F"/>
<path d="M189.4 268.3H212.4L212.6 268.4L212.4 268.6H189.4L189.3 268.4L189.4 268.3Z" fill="#22576F"/>
<path d="M114.289 217.16C114.289 217.329 114.256 217.478 114.191 217.606C114.125 217.734 114.036 217.841 113.923 217.927C113.813 218.013 113.684 218.079 113.535 218.123C113.386 218.165 113.228 218.186 113.062 218.186H112.303V219.288H111.951V216.164H113.12C113.295 216.164 113.454 216.188 113.597 216.236C113.743 216.28 113.866 216.346 113.968 216.432C114.072 216.516 114.151 216.62 114.204 216.745C114.261 216.867 114.289 217.005 114.289 217.16ZM113.932 217.173C113.932 216.947 113.855 216.777 113.7 216.664C113.548 216.548 113.346 216.49 113.093 216.49H112.303V217.865H113.075C113.203 217.865 113.319 217.848 113.423 217.816C113.53 217.783 113.621 217.737 113.695 217.677C113.773 217.615 113.831 217.542 113.869 217.459C113.911 217.372 113.932 217.277 113.932 217.173ZM116.104 216.142L117.527 219.288H117.148L116.782 218.463H115.082L114.711 219.288H114.35L115.773 216.142H116.104ZM116.644 218.146L115.934 216.553L115.22 218.146H116.644ZM118.925 216.49V219.288H118.568V216.49H117.519V216.164H119.973V216.49H118.925ZM120.667 216.164H121.02V219.288H120.667V216.164ZM124.982 217.722C124.982 217.939 124.944 218.146 124.866 218.342C124.789 218.536 124.68 218.707 124.541 218.855C124.401 219.004 124.233 219.123 124.036 219.212C123.84 219.299 123.623 219.342 123.385 219.342C123.147 219.342 122.93 219.299 122.733 219.212C122.54 219.126 122.373 219.01 122.234 218.864C122.094 218.716 121.985 218.544 121.908 218.351C121.833 218.155 121.796 217.948 121.796 217.731C121.796 217.514 121.835 217.308 121.912 217.115C121.99 216.919 122.098 216.746 122.238 216.597C122.378 216.449 122.546 216.331 122.742 216.245C122.939 216.156 123.156 216.111 123.394 216.111C123.632 216.111 123.847 216.154 124.041 216.24C124.237 216.327 124.405 216.444 124.545 216.593C124.685 216.739 124.792 216.91 124.866 217.106C124.944 217.299 124.982 217.505 124.982 217.722ZM124.617 217.731C124.617 217.552 124.585 217.384 124.523 217.227C124.463 217.069 124.379 216.932 124.268 216.816C124.158 216.7 124.027 216.608 123.876 216.539C123.727 216.471 123.563 216.437 123.385 216.437C123.206 216.437 123.041 216.471 122.89 216.539C122.741 216.605 122.613 216.695 122.506 216.812C122.399 216.928 122.314 217.064 122.251 217.222C122.192 217.377 122.162 217.543 122.162 217.722C122.162 217.9 122.192 218.068 122.251 218.226C122.314 218.384 122.4 218.521 122.51 218.637C122.62 218.753 122.75 218.845 122.898 218.913C123.05 218.982 123.215 219.016 123.394 219.016C123.572 219.016 123.736 218.983 123.885 218.918C124.036 218.849 124.166 218.757 124.273 218.641C124.38 218.525 124.463 218.39 124.523 218.235C124.585 218.077 124.617 217.909 124.617 217.731Z" fill="#22576F"/>
<path d="M128.065 98.9346L128.922 96.324H129.212L130.069 98.9346L130.961 96.3329H131.332L130.216 99.479H129.917L129.06 96.9443L128.199 99.479H127.904L126.789 96.3329H127.172L128.065 98.9346ZM134.858 97.8904C134.858 98.1075 134.82 98.3143 134.742 98.5106C134.665 98.704 134.556 98.8751 134.416 99.0238C134.277 99.1726 134.108 99.2916 133.912 99.3808C133.716 99.4671 133.499 99.5102 133.261 99.5102C133.023 99.5102 132.805 99.4671 132.609 99.3808C132.416 99.2946 132.249 99.1785 132.109 99.0328C131.969 98.884 131.861 98.7129 131.784 98.5196C131.709 98.3232 131.672 98.1165 131.672 97.8993C131.672 97.6821 131.711 97.4768 131.788 97.2835C131.865 97.0871 131.974 96.9146 132.114 96.7658C132.254 96.6171 132.422 96.4995 132.618 96.4133C132.814 96.324 133.032 96.2794 133.27 96.2794C133.508 96.2794 133.723 96.3225 133.917 96.4088C134.113 96.4951 134.281 96.6126 134.421 96.7613C134.561 96.9071 134.668 97.0782 134.742 97.2745C134.82 97.4679 134.858 97.6732 134.858 97.8904ZM134.492 97.8993C134.492 97.7208 134.461 97.5527 134.399 97.395C134.339 97.2373 134.254 97.1005 134.144 96.9845C134.034 96.8684 133.903 96.7762 133.751 96.7078C133.603 96.6394 133.439 96.6052 133.261 96.6052C133.082 96.6052 132.917 96.6394 132.765 96.7078C132.617 96.7732 132.489 96.864 132.382 96.98C132.274 97.096 132.19 97.2329 132.127 97.3906C132.068 97.5453 132.038 97.7119 132.038 97.8904C132.038 98.0689 132.068 98.2369 132.127 98.3946C132.19 98.5523 132.276 98.6891 132.386 98.8052C132.496 98.9212 132.625 99.0134 132.774 99.0818C132.926 99.1503 133.091 99.1845 133.27 99.1845C133.448 99.1845 133.612 99.1518 133.76 99.0863C133.912 99.0179 134.042 98.9257 134.149 98.8096C134.256 98.6936 134.339 98.5582 134.399 98.4035C134.461 98.2459 134.492 98.0778 134.492 97.8993ZM138.185 99.4567H137.753L136.847 98.2429H135.954V99.4567H135.602V96.3329H136.945C137.117 96.3329 137.272 96.3553 137.409 96.3999C137.549 96.4445 137.668 96.5085 137.766 96.5918C137.864 96.6721 137.94 96.7703 137.994 96.8863C138.047 96.9993 138.074 97.1258 138.074 97.2656C138.074 97.3965 138.053 97.514 138.011 97.6181C137.97 97.7193 137.91 97.8085 137.833 97.8859C137.759 97.9603 137.669 98.0227 137.565 98.0733C137.461 98.1239 137.348 98.1596 137.226 98.1804L138.185 99.4567ZM137.717 97.279C137.717 97.0826 137.647 96.9309 137.507 96.8238C137.367 96.7137 137.171 96.6587 136.918 96.6587H135.954V97.9261H136.914C137.03 97.9261 137.137 97.9112 137.235 97.8814C137.333 97.8517 137.418 97.81 137.489 97.7565C137.561 97.7 137.616 97.6315 137.654 97.5512C137.696 97.4709 137.717 97.3801 137.717 97.279ZM140.089 97.6985L141.486 99.4567H141.044L139.844 97.9439L139.179 98.6177V99.4567H138.827V96.3329H139.179V98.1983L140.973 96.3329H141.428L140.089 97.6985Z" fill="#22576F"/>
<path d="M26.8016 53.9882C26.8016 54.1578 26.7689 54.3065 26.7034 54.4344C26.638 54.5624 26.5487 54.6695 26.4357 54.7557C26.3256 54.842 26.1962 54.9075 26.0475 54.9521C25.8987 54.9937 25.741 55.0146 25.5744 55.0146H24.8158V56.1168H24.4633V52.993H25.6324C25.808 52.993 25.9671 53.0168 26.1099 53.0644C26.2557 53.1091 26.3792 53.1745 26.4803 53.2608C26.5844 53.3441 26.6633 53.4482 26.7168 53.5732C26.7734 53.6951 26.8016 53.8335 26.8016 53.9882ZM26.4446 54.0016C26.4446 53.7755 26.3673 53.6059 26.2126 53.4928C26.0608 53.3768 25.8585 53.3188 25.6057 53.3188H24.8158V54.6933H25.5878C25.7157 54.6933 25.8318 54.6769 25.9359 54.6442C26.043 54.6114 26.1337 54.5653 26.2081 54.5058C26.2855 54.4434 26.3435 54.3705 26.3821 54.2872C26.4238 54.2009 26.4446 54.1057 26.4446 54.0016ZM30.492 54.5505C30.492 54.7676 30.4533 54.9744 30.3759 55.1707C30.2986 55.3641 30.19 55.5352 30.0502 55.6839C29.9104 55.8327 29.7423 55.9517 29.5459 56.0409C29.3496 56.1272 29.1324 56.1703 28.8944 56.1703C28.6564 56.1703 28.4392 56.1272 28.2429 56.0409C28.0495 55.9547 27.8829 55.8386 27.7431 55.6929C27.6032 55.5441 27.4947 55.373 27.4173 55.1797C27.3429 54.9833 27.3057 54.7766 27.3057 54.5594C27.3057 54.3422 27.3444 54.1369 27.4218 53.9436C27.4991 53.7472 27.6077 53.5747 27.7475 53.4259C27.8874 53.2772 28.0554 53.1596 28.2518 53.0734C28.4481 52.9841 28.6653 52.9395 28.9033 52.9395C29.1413 52.9395 29.357 52.9826 29.5504 53.0689C29.7467 53.1552 29.9148 53.2727 30.0546 53.4214C30.1945 53.5672 30.3016 53.7383 30.3759 53.9346C30.4533 54.128 30.492 54.3333 30.492 54.5505ZM30.126 54.5594C30.126 54.3809 30.0948 54.2128 30.0323 54.0551C29.9728 53.8974 29.888 53.7606 29.778 53.6446C29.6679 53.5285 29.537 53.4363 29.3853 53.3679C29.2365 53.2995 29.0729 53.2653 28.8944 53.2653C28.7159 53.2653 28.5508 53.2995 28.3991 53.3679C28.2503 53.4333 28.1224 53.5241 28.0153 53.6401C27.9082 53.7561 27.8234 53.893 27.7609 54.0507C27.7014 54.2054 27.6717 54.372 27.6717 54.5505C27.6717 54.729 27.7014 54.897 27.7609 55.0547C27.8234 55.2124 27.9097 55.3492 28.0197 55.4653C28.1298 55.5813 28.2592 55.6735 28.408 55.7419C28.5597 55.8104 28.7248 55.8446 28.9033 55.8446C29.0818 55.8446 29.2454 55.8119 29.3942 55.7464C29.5459 55.678 29.6753 55.5858 29.7824 55.4697C29.8895 55.3537 29.9728 55.2183 30.0323 55.0636C30.0948 54.906 30.126 54.7379 30.126 54.5594ZM32.1095 55.5947L32.9663 52.9841H33.2564L34.1132 55.5947L35.0057 52.993H35.3761L34.2604 56.1391H33.9615L33.1047 53.6044L32.2434 56.1391H31.9489L30.8332 52.993H31.217L32.1095 55.5947ZM38.7605 54.5505C38.7605 54.7706 38.7204 54.9774 38.64 55.1707C38.5597 55.3611 38.4452 55.5263 38.2964 55.6661C38.1507 55.8059 37.9751 55.916 37.7699 55.9963C37.5676 56.0766 37.3444 56.1168 37.1005 56.1168H36.0161V52.993H37.1005C37.3444 52.993 37.5676 53.0332 37.7699 53.1135C37.9751 53.1909 38.1507 53.2995 38.2964 53.4393C38.4452 53.5791 38.5597 53.7442 38.64 53.9346C38.7204 54.125 38.7605 54.3303 38.7605 54.5505ZM38.3946 54.5594C38.3946 54.3868 38.3634 54.2247 38.3009 54.073C38.2414 53.9212 38.1551 53.7903 38.0421 53.6803C37.932 53.5672 37.7966 53.4795 37.636 53.417C37.4753 53.3515 37.2968 53.3188 37.1005 53.3188H36.3686V55.791H37.1005C37.2968 55.791 37.4753 55.7598 37.636 55.6973C37.7966 55.6348 37.932 55.5486 38.0421 55.4385C38.1551 55.3254 38.2414 55.1945 38.3009 55.0458C38.3634 54.897 38.3946 54.7349 38.3946 54.5594ZM41.7648 52.993V53.3143H39.8593V54.3809H41.564V54.7022H39.8593V55.7955H41.7871V56.1168H39.5068V52.993H41.7648ZM45.0801 56.1168H44.6472L43.7413 54.903H42.8488V56.1168H42.4963V52.993H43.8395C44.0121 52.993 44.1668 53.0154 44.3036 53.06C44.4434 53.1046 44.5624 53.1686 44.6606 53.2519C44.7588 53.3322 44.8347 53.4304 44.8882 53.5464C44.9418 53.6594 44.9685 53.7859 44.9685 53.9257C44.9685 54.0566 44.9477 54.1741 44.9061 54.2782C44.8644 54.3794 44.8049 54.4686 44.7276 54.546C44.6532 54.6204 44.5639 54.6828 44.4598 54.7334C44.3557 54.784 44.2426 54.8197 44.1207 54.8405L45.0801 56.1168ZM44.6115 53.9391C44.6115 53.7427 44.5416 53.591 44.4018 53.4839C44.262 53.3738 44.0656 53.3188 43.8127 53.3188H42.8488V54.5862H43.8083C43.9243 54.5862 44.0314 54.5713 44.1296 54.5415C44.2278 54.5118 44.3125 54.4701 44.3839 54.4166C44.4553 54.3601 44.5104 54.2916 44.5491 54.2113C44.5907 54.131 44.6115 54.0402 44.6115 53.9391Z" fill="#22576F"/>
<path d="M76.3175 30.8995C76.3175 30.9739 76.3294 31.0408 76.3532 31.1003C76.377 31.1598 76.4202 31.2148 76.4826 31.2654C76.5451 31.313 76.6314 31.3576 76.7415 31.3993C76.8515 31.438 76.9928 31.4752 77.1654 31.5109C77.5135 31.5882 77.7693 31.6953 77.9329 31.8322C78.0995 31.969 78.1828 32.1579 78.1828 32.3989C78.1828 32.5328 78.1561 32.6547 78.1025 32.7648C78.049 32.8749 77.9746 32.9686 77.8794 33.046C77.7872 33.1233 77.6756 33.1828 77.5447 33.2245C77.4138 33.2661 77.271 33.2869 77.1163 33.2869C76.8664 33.2869 76.6373 33.2468 76.4291 33.1664C76.2238 33.0831 76.0275 32.9567 75.84 32.7871L76.0587 32.5283C76.2223 32.6771 76.3874 32.7886 76.554 32.863C76.7206 32.9344 76.9125 32.9701 77.1297 32.9701C77.3409 32.9701 77.509 32.921 77.634 32.8228C77.7619 32.7247 77.8258 32.5952 77.8258 32.4346C77.8258 32.3602 77.8139 32.2948 77.7901 32.2382C77.7663 32.1787 77.7247 32.1252 77.6652 32.0776C77.6057 32.03 77.5224 31.9869 77.4153 31.9482C77.3112 31.9095 77.1773 31.8723 77.0137 31.8366C76.8352 31.7979 76.679 31.7533 76.5451 31.7027C76.4142 31.6522 76.3056 31.5912 76.2193 31.5198C76.1331 31.4484 76.0691 31.3651 76.0275 31.2699C75.9858 31.1747 75.965 31.0616 75.965 30.9307C75.965 30.8058 75.9903 30.6912 76.0408 30.5871C76.0914 30.483 76.1628 30.3937 76.255 30.3194C76.3473 30.242 76.4559 30.1825 76.5808 30.1409C76.7058 30.0962 76.8426 30.0739 76.9914 30.0739C77.2204 30.0739 77.4198 30.1067 77.5893 30.1721C77.7619 30.2346 77.9285 30.3298 78.0891 30.4577L77.8839 30.7299C77.7381 30.6109 77.5908 30.5246 77.4421 30.4711C77.2963 30.4175 77.1431 30.3908 76.9824 30.3908C76.8813 30.3908 76.7891 30.4042 76.7058 30.4309C76.6254 30.4577 76.5555 30.4934 76.496 30.538C76.4395 30.5827 76.3949 30.6362 76.3621 30.6987C76.3324 30.7612 76.3175 30.8281 76.3175 30.8995ZM80.0169 30.4443V33.2423H79.6599V30.4443H78.6112V30.1186H81.0656V30.4443H80.0169ZM84.5624 31.676C84.5624 31.8931 84.5237 32.0999 84.4463 32.2963C84.369 32.4896 84.2604 32.6607 84.1206 32.8094C83.9808 32.9582 83.8127 33.0772 83.6163 33.1664C83.42 33.2527 83.2028 33.2959 82.9648 33.2959C82.7268 33.2959 82.5096 33.2527 82.3133 33.1664C82.1199 33.0802 81.9533 32.9641 81.8135 32.8184C81.6736 32.6696 81.5651 32.4986 81.4877 32.3052C81.4133 32.1088 81.3761 31.9021 81.3761 31.6849C81.3761 31.4677 81.4148 31.2624 81.4922 31.0691C81.5695 30.8727 81.6781 30.7002 81.8179 30.5514C81.9578 30.4027 82.1258 30.2852 82.3222 30.1989C82.5185 30.1096 82.7357 30.065 82.9737 30.065C83.2117 30.065 83.4274 30.1081 83.6208 30.1944C83.8171 30.2807 83.9852 30.3982 84.125 30.547C84.2649 30.6927 84.372 30.8638 84.4463 31.0601C84.5237 31.2535 84.5624 31.4588 84.5624 31.676ZM84.1964 31.6849C84.1964 31.5064 84.1652 31.3383 84.1027 31.1806C84.0432 31.023 83.9584 30.8861 83.8484 30.7701C83.7383 30.6541 83.6074 30.5618 83.4557 30.4934C83.3069 30.425 83.1433 30.3908 82.9648 30.3908C82.7863 30.3908 82.6212 30.425 82.4695 30.4934C82.3207 30.5589 82.1928 30.6496 82.0857 30.7656C81.9786 30.8816 81.8938 31.0185 81.8313 31.1762C81.7718 31.3309 81.7421 31.4975 81.7421 31.676C81.7421 31.8545 81.7718 32.0226 81.8313 32.1802C81.8938 32.3379 81.9801 32.4748 82.0901 32.5908C82.2002 32.7068 82.3296 32.799 82.4784 32.8675C82.6301 32.9359 82.7952 32.9701 82.9737 32.9701C83.1522 32.9701 83.3158 32.9374 83.4646 32.8719C83.6163 32.8035 83.7457 32.7113 83.8528 32.5952C83.9599 32.4792 84.0432 32.3439 84.1027 32.1892C84.1652 32.0315 84.1964 31.8634 84.1964 31.6849ZM87.8896 33.2423H87.4568L86.5509 32.0285H85.6584V33.2423H85.3059V30.1186H86.6491C86.8216 30.1186 86.9763 30.1409 87.1132 30.1855C87.253 30.2301 87.372 30.2941 87.4702 30.3774C87.5683 30.4577 87.6442 30.5559 87.6978 30.6719C87.7513 30.785 87.7781 30.9114 87.7781 31.0512C87.7781 31.1821 87.7573 31.2996 87.7156 31.4038C87.674 31.5049 87.6145 31.5942 87.5371 31.6715C87.4627 31.7459 87.3735 31.8084 87.2694 31.8589C87.1652 31.9095 87.0522 31.9452 86.9302 31.966L87.8896 33.2423ZM87.4211 31.0646C87.4211 30.8683 87.3512 30.7165 87.2113 30.6094C87.0715 30.4994 86.8752 30.4443 86.6223 30.4443H85.6584V31.7117H86.6178C86.7339 31.7117 86.841 31.6968 86.9391 31.667C87.0373 31.6373 87.1221 31.5956 87.1935 31.5421C87.2649 31.4856 87.3199 31.4171 87.3586 31.3368C87.4003 31.2565 87.4211 31.1658 87.4211 31.0646ZM90.0167 30.0962L91.4403 33.2423H91.061L90.695 32.4167H88.9948L88.6244 33.2423H88.263L89.6865 30.0962H90.0167ZM90.5567 32.0999L89.8472 30.5068L89.1332 32.0999H90.5567ZM94.5775 32.8184C94.4317 32.9493 94.2517 33.0623 94.0375 33.1575C93.8263 33.2497 93.5883 33.2959 93.3235 33.2959C93.0766 33.2959 92.855 33.2542 92.6586 33.1709C92.4653 33.0876 92.2987 32.9731 92.1588 32.8273C92.022 32.6815 91.9164 32.5105 91.842 32.3141C91.7706 32.1178 91.7349 31.908 91.7349 31.6849C91.7349 31.4707 91.7721 31.2654 91.8465 31.0691C91.9238 30.8727 92.0309 30.7002 92.1678 30.5514C92.3046 30.4027 92.4682 30.2852 92.6586 30.1989C92.852 30.1096 93.0662 30.065 93.3012 30.065C93.4321 30.065 93.5511 30.0739 93.6582 30.0918C93.7683 30.1096 93.8695 30.1364 93.9617 30.1721C94.0569 30.2078 94.1446 30.2524 94.225 30.306C94.3083 30.3566 94.3886 30.4146 94.4659 30.48L94.2384 30.7478C94.1789 30.6942 94.1164 30.6466 94.0509 30.605C93.9855 30.5603 93.9141 30.5232 93.8367 30.4934C93.7624 30.4607 93.6791 30.4354 93.5868 30.4175C93.4976 30.3997 93.3979 30.3908 93.2878 30.3908C93.1153 30.3908 92.9561 30.425 92.8104 30.4934C92.6646 30.5618 92.5396 30.6541 92.4355 30.7701C92.3314 30.8861 92.2496 31.023 92.1901 31.1806C92.1306 31.3353 92.1008 31.5004 92.1008 31.676C92.1008 31.8634 92.1291 32.0374 92.1856 32.1981C92.2451 32.3558 92.3284 32.4926 92.4355 32.6086C92.5426 32.7247 92.672 32.8154 92.8237 32.8808C92.9755 32.9463 93.1465 32.979 93.3369 32.979C93.5154 32.979 93.6835 32.9493 93.8412 32.8898C93.9989 32.8273 94.1313 32.7529 94.2384 32.6666V31.8902H93.2878V31.5733H94.5775V32.8184ZM97.6307 30.1186V30.4399H95.7252V31.5064H97.4298V31.8277H95.7252V32.921H97.653V33.2423H95.3726V30.1186H97.6307Z" fill="#22576F"/>
<path d="M214.173 181.125V181.446H212.268V182.513H213.973V182.834H212.268V183.927H214.196V184.249H211.915V181.125H214.173ZM217.203 183.628V181.125H217.547V184.249H217.266L215.249 181.687V184.249H214.905V181.125H215.235L217.203 183.628ZM219.613 181.451V184.249H219.256V181.451H218.207V181.125H220.662V181.451H219.613ZM223.908 184.249H223.475L222.569 183.035H221.677V184.249H221.324V181.125H222.667C222.84 181.125 222.995 181.147 223.131 181.192C223.271 181.237 223.39 181.3 223.488 181.384C223.587 181.464 223.662 181.562 223.716 181.678C223.77 181.791 223.796 181.918 223.796 182.058C223.796 182.189 223.776 182.306 223.734 182.41C223.692 182.511 223.633 182.601 223.555 182.678C223.481 182.752 223.392 182.815 223.288 182.865C223.184 182.916 223.07 182.952 222.948 182.972L223.908 184.249ZM223.439 182.071C223.439 181.875 223.369 181.723 223.23 181.616C223.09 181.506 222.893 181.451 222.641 181.451H221.677V182.718H222.636C222.752 182.718 222.859 182.703 222.957 182.673C223.056 182.644 223.14 182.602 223.212 182.549C223.283 182.492 223.338 182.424 223.377 182.343C223.419 182.263 223.439 182.172 223.439 182.071ZM225.77 183.008V184.249H225.413V183.013L224.114 181.125H224.543L225.596 182.687L226.658 181.125H227.069L225.77 183.008Z" fill="#22576F"/>
<path d="M212.437 0.0233444V0.344645H210.532V1.41118H212.236V1.73248H210.532V2.82579H212.459V3.14709H210.179V0.0233444H212.437ZM215.467 2.52681V0.0233444H215.81V3.14709H215.529L213.512 0.58562V3.14709H213.169V0.0233444H213.499L215.467 2.52681ZM217.877 0.349107V3.14709H217.52V0.349107H216.471V0.0233444H218.925V0.349107H217.877ZM222.172 3.14709H221.739L220.833 1.93329H219.94V3.14709H219.588V0.0233444H220.931C221.104 0.0233444 221.258 0.0456569 221.395 0.0902819C221.535 0.134907 221.654 0.19887 221.752 0.28217C221.85 0.362495 221.926 0.46067 221.98 0.576695C222.033 0.689744 222.06 0.816182 222.06 0.956007C222.06 1.08691 222.039 1.20442 221.998 1.30854C221.956 1.40969 221.896 1.49894 221.819 1.57629C221.745 1.65067 221.655 1.71314 221.551 1.76372C221.447 1.81429 221.334 1.84999 221.212 1.87082L222.172 3.14709ZM221.703 0.969395C221.703 0.773045 221.633 0.62132 221.493 0.51422C221.353 0.404145 221.157 0.349107 220.904 0.349107H219.94V1.61646H220.9C221.016 1.61646 221.123 1.60158 221.221 1.57183C221.319 1.54208 221.404 1.50043 221.475 1.44688C221.547 1.39036 221.602 1.32193 221.641 1.24161C221.682 1.16128 221.703 1.07054 221.703 0.969395ZM224.034 1.90652V3.14709H223.677V1.91098L222.378 0.0233444H222.806L223.86 1.58522L224.922 0.0233444H225.332L224.034 1.90652Z" fill="#22576F"/>
<path d="M217.328 73.5848V75.3743C217.328 75.6034 217.297 75.8042 217.235 75.9767C217.172 76.1493 217.083 76.2936 216.967 76.4096C216.854 76.5256 216.717 76.6134 216.556 76.6729C216.399 76.7294 216.222 76.7577 216.025 76.7577C215.832 76.7577 215.655 76.7294 215.494 76.6729C215.337 76.6134 215.2 76.5271 215.084 76.4141C214.971 76.298 214.883 76.1552 214.82 75.9857C214.758 75.8161 214.727 75.6212 214.727 75.4011V73.5848H215.079V75.3788C215.079 75.7179 215.163 75.9782 215.329 76.1597C215.499 76.3412 215.734 76.4319 216.034 76.4319C216.323 76.4319 216.552 76.3456 216.721 76.1731C216.891 76.0005 216.976 75.7432 216.976 75.4011V73.5848H217.328ZM220.5 74.58C220.5 74.7496 220.467 74.8983 220.402 75.0262C220.337 75.1542 220.247 75.2613 220.134 75.3475C220.024 75.4338 219.895 75.4993 219.746 75.5439C219.597 75.5855 219.44 75.6064 219.273 75.6064H218.514V76.7086H218.162V73.5848H219.331C219.507 73.5848 219.666 73.6086 219.809 73.6562C219.954 73.7009 220.078 73.7663 220.179 73.8526C220.283 73.9359 220.362 74.04 220.415 74.165C220.472 74.2869 220.5 74.4253 220.5 74.58ZM220.143 74.5934C220.143 74.3673 220.066 74.1977 219.911 74.0846C219.759 73.9686 219.557 73.9106 219.304 73.9106H218.514V75.2851H219.286C219.414 75.2851 219.53 75.2687 219.634 75.236C219.742 75.2032 219.832 75.1571 219.907 75.0976C219.984 75.0351 220.042 74.9623 220.081 74.879C220.122 74.7927 220.143 74.6975 220.143 74.5934Z" fill="#22576F"/>
<path d="M146.115 29.3925V31.1819C146.115 31.411 146.084 31.6118 146.022 31.7844C145.959 31.9569 145.87 32.1012 145.754 32.2172C145.641 32.3332 145.504 32.421 145.343 32.4805C145.186 32.537 145.009 32.5653 144.812 32.5653C144.619 32.5653 144.442 32.537 144.281 32.4805C144.124 32.421 143.987 32.3347 143.871 32.2217C143.758 32.1057 143.67 31.9629 143.608 31.7933C143.545 31.6237 143.514 31.4288 143.514 31.2087V29.3925H143.866V31.1864C143.866 31.5255 143.95 31.7858 144.116 31.9673C144.286 32.1488 144.521 32.2395 144.821 32.2395C145.11 32.2395 145.339 32.1533 145.509 31.9807C145.678 31.8082 145.763 31.5508 145.763 31.2087V29.3925H146.115ZM149.287 30.3876C149.287 30.5572 149.255 30.7059 149.189 30.8338C149.124 30.9618 149.034 31.0689 148.921 31.1551C148.811 31.2414 148.682 31.3069 148.533 31.3515C148.384 31.3931 148.227 31.414 148.06 31.414H147.302V32.5162H146.949V29.3925H148.118C148.294 29.3925 148.453 29.4163 148.596 29.4639C148.741 29.5085 148.865 29.5739 148.966 29.6602C149.07 29.7435 149.149 29.8476 149.203 29.9726C149.259 30.0946 149.287 30.2329 149.287 30.3876ZM148.93 30.401C148.93 30.1749 148.853 30.0053 148.698 29.8923C148.547 29.7762 148.344 29.7182 148.091 29.7182H147.302V31.0927H148.074C148.201 31.0927 148.317 31.0763 148.422 31.0436C148.529 31.0109 148.619 30.9647 148.694 30.9052C148.771 30.8428 148.829 30.7699 148.868 30.6866C148.91 30.6003 148.93 30.5051 148.93 30.401Z" fill="#22576F"/>
</svg>
