<svg width="113" height="37" viewBox="0 0 113 37" fill="none" xmlns="http://www.w3.org/2000/svg">
<path fill-rule="evenodd" clip-rule="evenodd" d="M102.949 17.6552C105.381 17.6552 107.015 19.7711 107.167 24.1265L98.4147 24.1677C98.5108 20.2657 100.517 17.6552 102.949 17.6552ZM111.137 28.6192C110.066 31.9029 107.909 34.2249 104.886 34.2249C101.959 34.2249 98.3597 32.741 98.3185 25.5416L112.525 25.4867C112.058 19.0841 108.115 15.8966 103.237 15.8966C97.6178 15.8966 93.0701 20.6229 93.0701 26.4484C93.0701 32.2739 97.6178 37.0002 103.237 37.0002C108.142 37.0002 111.591 33.4005 112.401 28.6192H111.137Z" fill="white"/>
<path fill-rule="evenodd" clip-rule="evenodd" d="M24.8403 17.6552C27.2722 17.6552 28.9072 19.7711 29.0583 24.1265L20.3063 24.1677C20.4025 20.2657 22.3947 17.6552 24.8403 17.6552ZM33.0152 28.6192C31.9435 31.9029 29.7865 34.2249 26.7638 34.2249C23.8373 34.2249 20.2376 32.741 20.1964 25.5416L34.4029 25.4867C33.9357 19.0841 29.9926 15.8966 25.1151 15.8966C19.4957 15.8966 14.948 20.6229 14.948 26.4484C14.948 32.2739 19.4957 37.0002 25.1151 37.0002C30.02 37.0002 33.4686 33.4005 34.2792 28.6192H33.0152Z" fill="white"/>
<path fill-rule="evenodd" clip-rule="evenodd" d="M56.2078 36.5602V24.0162C56.2078 19.6196 54.5179 16.3496 49.242 16.3496C44.8042 16.3496 43.2929 20.2104 42.8395 21.5431V16.6931H37.8933V36.5602H42.8395V22.9307C43.183 21.9827 44.1584 19.8669 46.7689 19.8669C50.0526 19.8669 51.0968 21.9003 51.0968 24.6344V36.5602H56.2078Z" fill="white"/>
<path fill-rule="evenodd" clip-rule="evenodd" d="M79.4544 36.5602V24.0162C79.4544 19.6196 77.7645 16.3496 72.4886 16.3496C68.0508 16.3496 66.5394 20.2104 66.086 21.5431V16.6931H61.1399V36.5602H66.086V22.9307C66.4295 21.9827 67.405 19.8669 70.0155 19.8669C73.2992 19.8669 74.3434 21.9003 74.3434 24.6344V36.5602H79.4544Z" fill="white"/>
<path fill-rule="evenodd" clip-rule="evenodd" d="M84.5657 36.5603H89.5118V16.7207H84.5657V36.5603Z" fill="white"/>
<path fill-rule="evenodd" clip-rule="evenodd" d="M87.0387 14.7012C88.811 14.7012 90.2399 13.2586 90.2399 11.4862C90.2399 9.71387 88.7973 8.27124 87.0387 8.27124C85.28 8.27124 83.8374 9.71387 83.8374 11.4862C83.8374 13.2586 85.2663 14.7012 87.0387 14.7012Z" fill="white"/>
<path fill-rule="evenodd" clip-rule="evenodd" d="M0 36.5602H4.94616V16.7069H0V36.5602Z" fill="white"/>
<path fill-rule="evenodd" clip-rule="evenodd" d="M9.94711 22.7521C11.7195 22.7521 13.1484 21.3095 13.1484 19.5509C13.1484 17.7922 11.7057 16.3496 9.94711 16.3496C8.17474 16.3496 6.74585 17.7922 6.74585 19.5509C6.74585 21.3095 8.17474 22.7521 9.94711 22.7521Z" fill="white"/>
<path fill-rule="evenodd" clip-rule="evenodd" d="M3.0914 5.11121L1.70372 2.55569C1.27781 1.78629 1.18163 1.38785 1.18163 1.38785H1.14041C1.14041 1.38785 1.19537 1.80003 1.19537 2.61065V6.77367H0.288574V0.137573H1.4152L3.14635 3.47623C3.37992 3.92963 3.44862 4.21815 3.44862 4.21815H3.48984C3.48984 4.21815 3.55853 3.92963 3.7921 3.47623L5.52326 0.137573H6.58118V6.77367H5.67439V2.59691C5.67439 1.80003 5.72935 1.37411 5.72935 1.37411H5.68813C5.68813 1.37411 5.59195 1.78629 5.17977 2.54195L3.77836 5.11121H3.0914Z" fill="white"/>
<path fill-rule="evenodd" clip-rule="evenodd" d="M9.6998 4.0945H12.0492L11.431 2.36334C11.06 1.34663 10.9089 0.659668 10.9089 0.659668H10.8539C10.8539 0.659668 10.689 1.31916 10.3181 2.3496L9.6998 4.0945ZM12.3103 4.80894H9.43876L8.73805 6.77367H7.79004L10.2906 0.137573H11.5271L14.0002 6.77367H13.011L12.3103 4.80894Z" fill="white"/>
<path fill-rule="evenodd" clip-rule="evenodd" d="M16.1163 3.22892H17.449C18.3833 3.22892 18.7955 2.83048 18.7955 2.0336C18.7955 1.30542 18.3833 0.865757 17.449 0.865757H16.1163V3.22892ZM19.0566 6.77367C18.9054 6.59506 18.8367 6.43018 18.7818 6.18288L18.4932 4.97382C18.2734 4.12198 17.82 3.95711 17.0918 3.95711H16.1026V6.77367H15.1958V0.137573H17.4628C19.0428 0.137573 19.7298 0.8108 19.7298 1.97864C19.7298 3.02283 18.9741 3.58614 18.136 3.62736V3.65484C18.7818 3.73728 19.139 4.01206 19.3451 4.75399L19.6886 6.0867C19.7573 6.34775 19.8809 6.58132 20.032 6.77367H19.0566Z" fill="white"/>
<path fill-rule="evenodd" clip-rule="evenodd" d="M25.2942 6.77367L23.0409 3.77849H22.4776V6.77367H21.5708V0.137573H22.4776V3.02283H23.0821L25.1842 0.137573H26.2422L23.7966 3.35258L26.407 6.77367H25.2942Z" fill="white"/>
<path fill-rule="evenodd" clip-rule="evenodd" d="M31.8203 6.77367H27.7397V0.137573H31.8203V0.906975H28.6465V3.07779H31.4631V3.84719H28.6465V6.00426H31.8203V6.77367Z" fill="white"/>
<path fill-rule="evenodd" clip-rule="evenodd" d="M34.6643 6.77367V0.906975H32.6309V0.137573H37.6045V0.906975H35.5711V6.77367H34.6643Z" fill="white"/>
<path fill-rule="evenodd" clip-rule="evenodd" d="M38.8274 6.77367H39.7342V0.137573H38.8274V6.77367Z" fill="white"/>
<path fill-rule="evenodd" clip-rule="evenodd" d="M45.5596 4.13572C45.9718 4.74025 46.3977 5.50965 46.3977 5.50965H46.4389C46.4389 5.50965 46.384 4.75399 46.384 3.91589V0.137573H47.2908V6.77367H46.3565L43.5399 2.77552C43.114 2.17099 42.7018 1.40159 42.7018 1.40159H42.6606C42.6606 1.40159 42.7293 2.15725 42.7293 2.99535V6.77367H41.8225V0.137573H42.7843L45.5596 4.13572Z" fill="white"/>
<path fill-rule="evenodd" clip-rule="evenodd" d="M54.6414 3.39361V6.77349H53.8445L53.7346 5.88043C53.4736 6.53992 52.6355 6.91088 51.8523 6.91088C50.1074 6.91088 48.9121 5.68808 48.9121 3.48979C48.9121 1.26402 50.2173 0 52.0584 0C53.3224 0 54.1193 0.508355 54.559 1.56628L53.7346 1.96472C53.4324 1.14036 52.7729 0.741924 51.9897 0.741924C50.6433 0.741924 49.8739 1.78611 49.8739 3.46231C49.8739 5.06981 50.5608 6.16896 51.921 6.16896C52.8416 6.16896 53.7484 5.75678 53.7484 4.76755V4.17675H52.0035V3.39361H54.6414Z" fill="white"/>
<path fill-rule="evenodd" clip-rule="evenodd" d="M60.0823 6.03174H61.3326C62.1982 6.03174 62.7065 5.66078 62.7065 4.85016C62.7065 4.23189 62.3356 3.80597 61.3189 3.80597H60.0823V6.03174ZM61.1677 3.09153C61.9371 3.09153 62.4318 2.74804 62.4318 1.9649C62.4318 1.1955 61.9371 0.865757 61.099 0.865757H60.0823V3.09153H61.1677ZM62.1158 3.38005C62.9264 3.43501 63.6271 3.91589 63.6271 4.90512C63.6271 6.05922 62.8852 6.77367 61.209 6.77367H59.1755V0.137573H61.2227C62.5966 0.137573 63.3523 0.687146 63.3523 1.82751C63.3523 2.72057 62.8302 3.22892 62.1158 3.35258V3.38005Z" fill="white"/>
<path fill-rule="evenodd" clip-rule="evenodd" d="M66.3334 2.40451C66.7043 3.11895 66.7868 3.43496 66.7868 3.43496H66.828C66.828 3.43496 66.9104 3.11895 67.2402 2.40451L68.3256 0.123779H69.2736L67.2264 4.1494V6.75987H66.3196V4.1494L64.1213 0.123779H65.1381L66.3334 2.40451Z" fill="white"/>
</svg>
