<svg width="189" height="30" viewBox="0 0 189 30" fill="none" xmlns="http://www.w3.org/2000/svg">
<path d="M13.0607 4.01432C13.0607 2.29551 12.3087 1.98454 10.3242 1.98454C5.95929 1.98454 3.00226 4.45533 1.01772 6.35507C0.706747 6.66604 0.310969 7.10139 0.226159 7.10139C0.0904636 7.10139 0 6.97135 0 6.83566C0 6.66038 0.175273 6.25895 0.310969 5.82359L1.72446 0.882019H29.5194L30.9329 5.82359C31.0686 6.2646 31.2439 6.66038 31.2439 6.83566C31.2439 6.9657 31.1534 7.10139 31.0234 7.10139C30.9329 7.10139 30.5371 6.66038 30.2262 6.35507C28.2416 4.45533 25.2846 1.98454 20.9197 1.98454C18.9352 1.98454 18.1832 2.28986 18.1832 4.01432V24.3517C18.1832 26.5115 18.7542 28.236 20.8293 28.6317C21.225 28.677 21.4908 28.8522 21.4908 28.9823C21.4908 29.0727 21.3155 29.248 21.1402 29.248C20.8293 29.248 18.138 29.118 15.6219 29.118C13.1059 29.118 10.5051 29.248 10.1941 29.248C9.92838 29.248 9.79834 29.1576 9.79834 29.0275C9.79834 28.8522 10.1941 28.8522 10.6351 28.677C12.6649 27.7949 13.0607 26.5171 13.0607 22.4124V4.01432Z" fill="white"/>
<path d="M38.1643 16.2382L35.784 20.8688C34.9925 22.4124 34.2405 24.0916 34.2405 25.9009C34.2405 27.795 35.4335 28.2812 36.6208 28.7222C36.9714 28.8127 37.107 28.8975 37.107 29.0275C37.107 29.2028 36.8865 29.248 36.5756 29.248C36.2646 29.248 34.6815 29.118 32.2503 29.118C30.4862 29.118 29.3385 29.248 28.807 29.248C28.366 29.248 28.236 29.1576 28.236 29.0275C28.236 28.7222 28.7674 28.5413 29.0728 28.3208C30.8368 26.9073 33.2171 23.2492 34.1896 21.3494L45.0057 0.350547C45.1357 0.130041 45.2262 0 45.3166 0H45.4014C45.5315 0 45.6672 0.175273 45.752 0.350547L58.7222 24.6174C59.4742 25.9857 60.3562 27.2635 61.6792 28.2812C62.1655 28.6317 62.6969 28.8127 62.6969 29.0332C62.6969 29.1632 62.4764 29.2537 62.0807 29.2537C61.7697 29.2537 59.7003 29.1236 57.1391 29.1236C53.5205 29.1236 52.0618 29.2537 51.8017 29.2537C51.5812 29.2537 51.3607 29.2084 51.3607 29.1236C51.3607 28.9484 51.5812 28.8579 51.9318 28.7731C52.9495 28.4225 53.17 27.5801 53.17 26.4776C53.17 25.6804 52.2427 23.5205 51.1855 21.4455L48.6694 16.2382H38.1643ZM43.3717 5.95364L38.741 15.13H48.0927L43.3717 5.95364Z" fill="white"/>
<path d="M70.9969 4.7663C70.9517 2.65172 70.3806 1.58877 69.2781 1.32869C69.1028 1.28345 68.7918 1.19864 68.7918 1.06295C68.7918 0.932907 68.9219 0.712402 69.3177 0.712402C69.5834 0.712402 72.139 0.887676 73.5525 0.887676C74.966 0.887676 77.0806 0.712402 77.3463 0.712402C77.5668 0.712402 77.9626 0.757634 77.9626 1.06295C77.9626 1.23822 77.5216 1.37392 77.2558 1.54919C76.7244 1.89974 76.1081 2.52168 76.1081 3.97475V24.3573C76.1081 26.5172 76.6791 27.9759 78.2679 28.6826C78.7089 28.9031 78.8842 28.9484 78.8842 29.0332C78.8842 29.0784 78.7994 29.1236 78.3979 29.1236H68.56C68.3395 29.1236 68.2095 29.1236 68.2095 29.0332C68.2095 28.9427 68.5204 28.8579 68.9162 28.6826C70.5955 27.8006 70.9912 26.5228 70.9912 24.3573V4.7663H70.9969Z" fill="white"/>
<path d="M93.7599 23.2492C93.7599 27.6593 95.4334 28.0155 99.1877 28.0155H101.528C105.232 28.0155 110.439 26.0309 113.13 22.8986C113.617 22.3219 113.837 21.8413 114.058 21.8413C114.188 21.8413 114.323 21.9318 114.323 22.1523C114.323 22.3276 114.193 22.5481 114.148 22.7686L112.339 29.1236H86.3927C85.6464 29.1236 85.4259 29.0332 85.4259 28.9031C85.4259 28.8127 85.7312 28.7731 86.4832 28.5074C88.202 27.7554 88.643 26.127 88.643 22.1975V4.7663C88.643 2.95703 87.9363 1.634 86.7489 1.23822C86.438 1.10818 86.3079 1.01772 86.3079 0.887676C86.3079 0.757634 86.5737 0.712402 86.9694 0.712402C87.6762 0.712402 89.7908 0.887676 91.2043 0.887676C92.6178 0.887676 94.7324 0.712402 95.4391 0.712402C95.8349 0.712402 95.9706 0.757634 95.9706 0.932907C95.9706 1.06295 95.7501 1.10818 95.5748 1.19864C94.2518 1.7697 93.7655 2.96268 93.7655 4.77196V23.2492H93.7599Z" fill="white"/>
<path d="M134.842 30C126.191 30 118.162 24.0859 118.162 15C118.162 5.90841 126.191 0 134.842 0C143.487 0 151.521 5.91406 151.521 15C151.521 24.0916 143.487 30 134.842 30ZM134.842 1.10253C126.813 1.10253 124.077 8.42442 124.077 15C124.077 21.5756 126.813 28.8975 134.842 28.8975C142.87 28.8975 145.607 21.5756 145.607 15C145.607 8.42442 142.87 1.10253 134.842 1.10253Z" fill="white"/>
<path d="M164.095 24.3517C164.095 26.5115 164.666 27.9702 166.255 28.677C166.696 28.8975 166.871 28.9427 166.871 29.0275C166.871 29.0727 166.787 29.118 166.385 29.118H156.547C156.327 29.118 156.197 29.118 156.197 29.0275C156.197 28.9427 156.508 28.8522 156.904 28.677C158.583 27.7949 158.979 26.5171 158.979 24.3517V5.82359C158.979 4.50056 158.933 2.25028 157.214 1.634C156.728 1.45872 156.287 1.41349 156.287 1.14776C156.287 0.972483 156.463 0.882019 157.124 0.882019H173.622C181.826 0.882019 185.224 3.43762 185.224 7.36713C185.224 13.4565 177.987 14.248 173.357 14.248V14.3385C177.812 14.87 182.047 16.4135 183.59 21.0441C184.602 24.0464 186.236 27.9702 187.605 28.4565C188 28.7222 188.357 28.8522 188.357 29.0275C188.357 29.0727 188.136 29.118 186.677 29.118H180.854L178.734 23.3396C176.794 18.0475 176.042 15 170.524 14.87L164.084 14.6947V24.3517H164.095ZM164.095 13.5865H172.079C176.89 13.5865 179.316 10.5842 179.316 7.63287C179.316 4.36487 177.066 1.98454 172.39 1.98454H164.095V13.5865Z" fill="white"/>
</svg>
