<?xml version="1.0" encoding="utf-8"?>
<!-- Generator: Adobe Illustrator 25.0.0, SVG Export Plug-In . SVG Version: 6.00 Build 0)  -->
<svg version="1.1" id="Layer_1" xmlns="http://www.w3.org/2000/svg" xmlns:xlink="http://www.w3.org/1999/xlink" x="0px" y="0px"
	 viewBox="0 0 124.69 41.06" style="enable-background:new 0 0 124.69 41.06;" xml:space="preserve">
<style type="text/css">
	.st0{fill-rule:evenodd;clip-rule:evenodd;fill:#FFFFFF;}
	.st1{fill:#FFFFFF;}
</style>
<g>
	<path class="st0" d="M114.1,19.64c2.7,0,4.5,2.35,4.67,7.17l-9.69,0.04C109.2,22.53,111.42,19.64,114.1,19.64z M123.17,31.78
		c-1.19,3.63-3.58,6.2-6.93,6.2c-3.24,0-7.22-1.65-7.28-9.61l15.73-0.06c-0.52-7.1-4.89-10.62-10.28-10.62
		c-6.22,0-11.26,5.24-11.26,11.68s5.04,11.68,11.26,11.68c5.43,0,9.25-3.98,10.14-9.28C124.55,31.78,123.17,31.78,123.17,31.78z"/>
	<path class="st0" d="M27.62,19.64c2.7,0,4.5,2.35,4.67,7.17l-9.69,0.04C22.7,22.53,24.91,19.64,27.62,19.64z M36.67,31.78
		c-1.19,3.63-3.58,6.2-6.93,6.2c-3.24,0-7.22-1.65-7.28-9.61l15.73-0.06c-0.52-7.1-4.89-10.62-10.28-10.62
		c-6.22,0-11.26,5.24-11.26,11.68s5.04,11.68,11.26,11.68c5.43,0,9.25-3.98,10.14-9.28C38.05,31.78,36.67,31.78,36.67,31.78z"/>
	<path class="st0" d="M62.34,40.57V26.68c0-4.88-1.87-8.49-7.71-8.49c-4.92,0-6.59,4.27-7.1,5.76v-5.36h-5.48v22h5.48V25.49
		c0.38-1.05,1.47-3.39,4.36-3.39c3.63,0,4.79,2.25,4.79,5.28v13.2h5.66C62.34,40.58,62.34,40.57,62.34,40.57z"/>
	<path class="st0" d="M88.09,40.57V26.68c0-4.88-1.87-8.49-7.71-8.49c-4.92,0-6.59,4.27-7.1,5.76v-5.36h-5.48v22h5.48V25.49
		c0.38-1.05,1.47-3.39,4.36-3.39c3.63,0,4.79,2.25,4.79,5.28v13.2h5.66C88.09,40.58,88.09,40.57,88.09,40.57z"/>
	<path class="st0" d="M93.75,40.57h5.48V18.61h-5.48V40.57z"/>
	<path class="st0" d="M96.49,16.36c1.96,0,3.55-1.59,3.55-3.56c0-1.96-1.59-3.56-3.55-3.56c-1.94,0-3.55,1.59-3.55,3.56
		S94.53,16.36,96.49,16.36z"/>
	<path class="st0" d="M0.1,40.57h5.48V18.58H0.1V40.57z"/>
	<path class="st0" d="M11.12,25.28c1.96,0,3.55-1.59,3.55-3.55c0-1.94-1.59-3.55-3.55-3.55s-3.55,1.59-3.55,3.55
		C7.57,23.68,9.15,25.28,11.12,25.28z"/>
</g>
<g>
	<path class="st1" d="M0.92,5.62c0.15,0.96,0.75,1.37,1.59,1.37c0.87,0,1.45-0.41,1.45-1.17c0-0.7-0.34-1.06-1.63-1.55
		C1.36,3.9,0.25,3.49,0.25,2.07c0-1.49,1.17-2.05,2.28-2.05c1.31,0,2.3,0.54,2.42,1.96L3.98,2.12C3.91,1.26,3.34,0.78,2.54,0.78
		c-0.78,0-1.33,0.45-1.33,1.2c0,0.82,0.66,1.08,1.73,1.49C3.97,3.87,4.96,4.3,4.96,5.67c0,1.41-1.12,2.07-2.47,2.07
		c-1.47,0-2.3-0.6-2.49-1.96L0.92,5.62z"/>
	<path class="st1" d="M10.48,5.39H7.36L6.59,7.59H5.57l2.71-7.4h1.33l2.68,7.4h-1.05L10.48,5.39z M7.64,4.6h2.54L9.51,2.67
		c-0.41-1.15-0.56-1.9-0.56-1.9H8.9c0,0-0.18,0.74-0.57,1.89L7.64,4.6z"/>
	<path class="st1" d="M14.47,0.18v6.55h3.45v0.85h-4.43v-7.4C13.49,0.18,14.47,0.18,14.47,0.18z"/>
	<path class="st1" d="M23.66,7.59h-4.43v-7.4h4.43v0.85h-3.45v2.43h3.06v0.85h-3.06v2.42h3.45C23.66,6.73,23.66,7.59,23.66,7.59z"/>
	<path class="st1" d="M25.59,5.62c0.15,0.96,0.75,1.37,1.59,1.37c0.87,0,1.45-0.41,1.45-1.17c0-0.7-0.34-1.06-1.63-1.55
		c-0.96-0.36-2.08-0.78-2.08-2.21C24.92,0.56,26.09,0,27.2,0c1.31,0,2.3,0.54,2.42,1.96l-0.95,0.17c-0.07-0.87-0.64-1.34-1.45-1.34
		c-0.78,0-1.33,0.45-1.33,1.2c0,0.82,0.66,1.08,1.73,1.49c1.01,0.39,2,0.82,2,2.21c0,1.41-1.12,2.07-2.47,2.07
		c-1.47,0-2.3-0.6-2.49-1.96L25.59,5.62z"/>
	<path class="st1" d="M37.16,3.8c0.88,0.06,1.63,0.6,1.63,1.7c0,1.29-0.81,2.08-2.61,2.08h-2.21v-7.4h2.21
		c1.49,0,2.32,0.61,2.32,1.89c0,0.99-0.56,1.58-1.34,1.7C37.16,3.77,37.16,3.8,37.16,3.8z M36.14,3.48c0.82,0,1.37-0.39,1.37-1.26
		c0-0.85-0.54-1.22-1.45-1.22h-1.1v2.47H36.14z M34.97,6.78h1.36c0.95,0,1.49-0.42,1.49-1.33c0-0.7-0.41-1.17-1.51-1.17h-1.34V6.78z
		"/>
	<path class="st1" d="M41.61,2.72c0.41,0.81,0.49,1.16,0.49,1.16h0.06c0,0,0.08-0.35,0.45-1.15l1.19-2.56h1.03l-2.22,4.48v2.92
		h-0.98V4.67l-2.37-4.48h1.1L41.61,2.72z"/>
</g>
</svg>
